<?xml version="1.0" encoding="UTF-8"?><svg id="_レイヤー_2" xmlns="http://www.w3.org/2000/svg" viewBox="0 0 1310.72 152.26"><defs><style>.cls-1,.cls-2{fill:none;stroke:#fff;stroke-miterlimit:10;}.cls-3{fill:#231815;}.cls-4{fill:#fff;}.cls-2{stroke-dasharray:2.7 2.7;}.cls-5{fill:#c4ba82;}</style></defs><g id="_レイヤー_1-2"><rect class="cls-5" x="89.94" y="128.16" width="24.11" height="24.11" rx="12.05" ry="12.05"/><path class="cls-3" d="M101.57,142.32c-1.44,0-2.82-1.36-2.82-3.66,0-2.69,1.9-4.16,3.45-4.16,1.64,0,3.78,1.59,3.78,5.57,0,3.19-1.56,6.85-4.47,6.85-1.26,0-2.28-.7-2.28-1.65,0-.6.39-1,.94-1,.52,0,1.02.42,1.02,1.04,0,.08-.06.47-.06.55,0,.44.42.54.7.54.62,0,2.09-.68,2.38-5.48-.91,1-1.9,1.41-2.62,1.41ZM102.19,135.05c-1.3,0-1.7,2.01-1.7,3.42,0,1.67.57,3.05,1.64,3.05.15,0,1.15,0,2.09-1.25-.05-1.7-.15-5.22-2.03-5.22Z"/><line class="cls-1" y1=".5" x2="1310.72" y2=".5"/><line class="cls-2" y1="116.32" x2="1310.05" y2="116.32"/><path class="cls-4" d="M590.76,33.1c0,.46-.4.46-.69.46-.4,0-2.16-.08-2.52-.08-1.43,0-5.25.19-6.45.57-.15.04-.82.36-.97.36-.73,0-1.57-1.37-1.57-2.02,0-.27.08-.48.19-.69.73,1.07,1.09,1.3,1.74,1.3.17,0,7.68-.44,8.23-.48.65-4.05,1.13-7.1,1.13-7.92,0-.19-.06-.21-.23-.21-.15,0-7.03.46-8.48.9-.13.02-.65.34-.76.34-.57,0-1.62-1.24-1.62-2.08,0-.44.1-.67.19-.86.17.29.38.65.82,1.07.46.42.71.42,1.01.42,1.07,0,7.75-.42,8.59-.61.34-.06.44-.15.84-.42.08-.08.17-.11.27-.11.19,0,.99.76,1.2.95.13.13.36.36.36.59,0,.21-.15.29-.59.53-.23.12-.31.21-.4.54-.25,1.16-.59,2.98-1.28,6.72.42.04.99.32.99.74Z"/><path class="cls-4" d="M603.19,33.9c1.22.76,1.49,1.79,1.49,2.04,0,.21-.15.57-.59.57-.36,0-.61-.25-1.36-.97-2.02-1.91-5.04-3.11-8.59-4.07,3.34-.13,7.05,1.2,9.05,2.44ZM596.41,21.18c.73,0,4.3.27,6.26,1.41.82.48,1.03,1.2,1.03,1.38,0,.23-.1.5-.44.5-.25,0-.71-.29-.99-.46-2.16-1.45-2.77-1.72-6.8-2.79.48-.04.69-.04.94-.04ZM596.79,26.43c2.06,0,4.24.57,5.4,1.11.78.38,1.09,1.03,1.09,1.38s-.23.5-.5.5c-.31,0-.63-.25-1.2-.67-.84-.63-2.12-1.2-5.54-2.29.42-.04.46-.04.76-.04Z"/><path class="cls-4" d="M618.65,33.02c.17-.02.94-.17,1.09-.17.27,0,1.55.52,1.55,1.07,0,.19-.15.52-.5.52-.19,0-.36-.06-.82-.25-.48-.21-1.47-.4-2.54-.4-2.23,0-6.51.34-8.25.95-.17.06-.86.4-1.01.4-.23,0-1.09-.46-1.3-.94-.19-.42-.19-.97-.19-1.11,0-.08,0-.17.06-.4.52.76.78,1.11,1.57,1.11.27,0,2.56-.25,3-.29.73-.08,2.62-.23,3.51-.29.08-.52.52-2.77.61-3.23.31-2,.38-2.29.46-2.86-1.72.17-4.24.71-4.3.73-.17.04-.84.31-.99.31-.23,0-.42-.25-.57-.46-.46-.61-.5-.82-.5-1.2,0-.19.02-.31.06-.46.42.76.99.94,1.45.94.19,0,4.45-.36,4.79-.71.34-.34.4-.4.48-.4.29,0,1.49,1.03,1.49,1.32,0,.12-.04.17-.52.44-.34.19-.38.23-.46.57-.19.76-.27,1.13-.52,2.35-.17.84-.21,1.01-.55,2.58.46-.04,2.48-.06,2.9-.13Z"/><path class="cls-4" d="M625.71,32.33c.08,0,.17,0,.25-.02,5.21-.4,5.77-.44,10.56-.76.25-.06.55-.15.84-.27.46-.17.5-.19.61-.19.36,0,1.83.82,1.83,1.45,0,.32-.23.53-.46.53-.21,0-1.18-.25-1.39-.27-.97-.19-2.86-.21-3.67-.21-3.34,0-6.76.42-7.96.84-.59.21-.86.29-1.03.29-.46,0-1.76-.63-1.76-2.25,0-.13.02-.21.04-.42.8,1.09,1.39,1.28,2.14,1.28ZM628.52,24.33c.67,0,4.01-.19,5.48-.57.21-.06,1.2-.44,1.41-.44.23,0,1.41.38,1.41.88,0,.34-.19.36-1.28.44-5.04.34-5.94.4-6.89.59-.42.08-.5.11-.63.11-1.09,0-1.64-.84-1.81-1.66.69.4,1.26.65,2.31.65Z"/><path class="cls-4" d="M644.52,37.11c3.76-2.6,5.35-8.23,5.35-9.34,0-.4-.19-.57-.44-.8-3.61.42-4.3.63-5.1.97-.34.15-.48.21-.61.21-.23,0-1.47-.71-1.47-2.12,0-.21.04-.4.06-.61.27.44.97,1.32,2.04,1.32.82,0,5.92-.61,7.03-.71,1.22-.11,2.44-.23,3.65-.32.42-.04.52-.06.8-.19.04-.02.21-.11.31-.11.25,0,1.34.4,1.76.76.17.13.21.34.21.5,0,.23-.08.46-.38.46-.27,0-1.39-.19-1.62-.21-1.41-.17-2.58-.19-3.15-.19-1.24,0-2.16.08-2.56.13.29.21,1.15.82,1.15,1.03,0,.1-.36.5-.4.59-.1.17-.17.4-.23.61-1.03,3.42-2.83,6.95-6.38,8.17l-.04-.15ZM648.09,22.12c1.6,0,2.77-.17,3.8-.46.73-.21.82-.23,1.05-.23.5,0,1.68.13,1.68.74,0,.38-.25.38-1.01.42-3,.12-3.32.19-6.09.44h-.23c-.31,0-.78,0-1.36-.48-.36-.29-.42-.61-.42-1.13,1.01.69,1.89.71,2.58.71Z"/><path class="cls-4" d="M659.71,32.01c3.44-2.16,8.9-7.24,8.9-8.21,0-.25-.1-.31-1.03-.8.36-.06.61-.11.9-.11.52,0,.8.13,1.49.71.19.17.36.32.36.52,0,.19-.06.23-.55.53-.27.15-.44.31-.84.69-.63.63-2.04,2.02-2.48,2.41.59.31.8.44.8.65,0,.13-.19.61-.21.71-.08.52-.08,4.74-.08,5.58,0,.23.02,1.28.02,1.51s0,.74-.46.74c-.4,0-.71-.48-.71-.99,0-.17.1-.94.13-1.11.08-.99.21-2.62.21-3.59,0-.63,0-2.35-.15-2.81-.02-.08-.04-.13-.1-.21-1.66,1.34-4.33,3.25-6.13,3.95l-.06-.19Z"/><path class="cls-4" d="M672.62,35.92c1.28-1.09,2.25-2.5,2.94-4.01,1.05-2.33,1.09-4.3,1.09-6.03s0-1.93-1.49-2.27c.21-.21.55-.52,1.05-.52.65,0,1.83.54,1.83,1.01,0,.12-.15.67-.17.8-.02.32-.04,1.72-.06,2-.13,2.04-.42,4.47-2.16,6.78-.63.84-1.6,1.85-2.92,2.39l-.1-.15ZM689.71,26.17c-1.11,2.92-3.46,5.19-5.86,7.1-.23.19-1.36.94-1.53,1.16-.52.69-.59.78-.8.78-.4,0-1.2-1.51-1.2-1.72,0-.13.19-.71.21-.82.15-.76.17-1.89.17-4.7,0-.88,0-4.09-.1-4.81-.06-.46-.17-.73-1.41-1.24.21-.13.57-.38.99-.38.55,0,1.43.53,1.83.88.1.08.21.23.21.42,0,.12-.17.63-.19.73-.08.29-.19.9-.23,1.55-.06,1.39-.1,5.98-.1,7.52,0,.31,0,.36.06.36.25,0,4.12-1.89,7.81-6.95l.15.13Z"/><path class="cls-4" d="M693.01,28c.29.08.5.08,2.35.08.38,0,7.33-.04,8.8-.21.4-.04.42-.04.67-.15.13-.04.25-.06.4-.06.1,0,1.95.21,1.95.82,0,.5-.55.5-1.11.5-.31,0-2.29-.13-2.73-.13-1.26,0-7.2.11-8.23.21-.25.02-.86.08-1.45.29-.4.15-.5.19-.65.19s-.27,0-.78-.61c-.15-.17-.61-.71-.61-1.51,0-.29.02-.55.17-.82.27.76.73,1.26,1.22,1.38Z"/><path class="cls-4" d="M717.75,32.37c.67-.1,3.59-.57,4.18-.65-.52-1.03-.94-1.79-2.83-4.09.67.31,1.6.76,3.15,2.64,1.2,1.47,2.14,2.96,2.14,4.26,0,.67-.4,1.03-.69,1.03-.42,0-.5-.31-.76-1.24-.27-.97-.61-1.76-.78-2.12-.78.19-2.62.63-4.16.95-1.91.4-3.57.76-5.31,1.2-.02,0-.57.12-.59.15-.06.04-.31.31-.36.36-.08.08-.21.17-.34.17-.36,0-1.76-1.49-1.68-2.81.67.8.86.95,2.58.84,2.81-5.84,3.13-6.49,3.63-7.77.13-.32.73-1.97.73-2.37,0-.63-.82-1.15-1.28-1.45.27-.06.57-.1.78-.1.88,0,1.7.82,2.06,1.22.25.29.31.42.31.61,0,.21-.06.25-.5.65-.21.19-.34.46-.61,1.07-.61,1.34-2.79,5.63-4.43,8.06.76-.08,4.07-.5,4.75-.59Z"/><path class="cls-4" d="M734.78,38.73c-1.05-.84-4.89-4.43-4.89-10.16s3.84-9.32,4.89-10.16l.21.29c-3.42,3.55-4.18,7.43-4.18,9.87s.76,6.32,4.18,9.87l-.21.29Z"/><path class="cls-4" d="M754.75,37.37c-3.23-.65-6.42-3.51-7.22-5.33h-.13c0,.67,0,1.16.02,1.81.02.5.13,3.06.13,3.38,0,.29,0,.9-.8.9-.46,0-.52-.21-.52-.42,0-.57.15-3.04.17-3.55,0-.27.04-1.13.04-1.7-1.72,1.93-4.51,4.18-8.69,5.42v-.17c1.87-.69,5.9-3.67,7.33-5.67h-4.28c-.65,0-1.85.08-2.69.25l-.5-.9c1.15.08,2.33.15,3.49.15h5.35c0-.4-.02-.78-.17-1.51h-4.2c0,.36,0,.46-.1.57-.08.1-.4.25-.67.25-.46,0-.48-.34-.48-.55,0-.27.1-1.45.13-1.68.04-1.03.06-1.28.1-4.68-.97,1.2-2.04,2.31-3.3,3.17l-.15-.15c1.3-1.13,4.85-6.15,5.14-8.21l1.43.82c.13.08.23.17.23.31s-.08.29-.88.42c-.27.46-.52.9-1.39,2.18l.15.11h4.16c.25-.59.57-1.43.78-2.06.1-.29.31-.92.23-1.66l1.91.67c.08.02.25.11.25.31,0,.4-.61.42-.9.42-.21.27-1.2,1.41-1.39,1.64-.17.23-.36.44-.55.67h4.89l.5-.78c.1-.15.21-.31.36-.31.1,0,.31.15.4.21l.99.84c.1.08.21.17.21.32,0,.19-.17.23-.31.23h-6.38v1.7h3.53l.48-.59c.17-.21.23-.27.34-.27.13,0,.27.1.4.21l.71.59c.1.08.21.19.21.34,0,.23-.25.23-.34.23h-5.33v1.76h3.53l.48-.63c.21-.25.23-.27.34-.27.13,0,.31.13.4.21l.73.67c.13.1.21.17.21.31,0,.19-.17.21-.31.21h-5.38v1.95h4.85l.59-.71c.13-.17.23-.25.34-.25s.23.08.4.21l.94.71c.1.08.21.19.21.31,0,.21-.19.23-.31.23h-7.56l.76.36c.15.06.23.13.23.21,0,.19-.23.29-.42.4,0,.15-.02.4-.02.54h6.19l.67-.63c.17-.17.25-.27.4-.27.1,0,.23.08.44.23l.97.65c.1.06.19.15.19.32,0,.19-.17.21-.31.21h-8.19c1.93,2,3.67,2.79,4.81,3.19,1.68.57,3.07.57,3.7.59v.11c-.92.4-1.34,1.09-1.53,1.45ZM746.39,23.09h-4.33v1.7h4.33v-1.7ZM746.39,25.29h-4.33v1.76h4.33v-1.76ZM746.39,27.56h-4.33v1.95h4.33v-1.95Z"/><path class="cls-4" d="M775.65,27.56c-2.83-1.16-6.09-4.16-7.62-7.39-.15,0-.19.02-.36.02-2.83,4.26-6.89,7.39-9.62,8.48l-.06-.17c2.75-1.72,5.65-4.74,7.92-8.15.57-.86.63-1.18.71-1.55l1.95.59c.15.04.36.15.36.38,0,.25-.19.29-.52.34,1.24,2.14,4.43,5.19,9.15,6.05v.17c-.59.23-1.36.57-1.91,1.24ZM775.75,30.71h-8.59c-.21.44-.31.65-.55,1.05-.86,1.43-1.81,2.79-2.86,4.07,2.33-.13,2.67-.17,8.57-.8-.61-1.13-1.36-2.18-2.37-2.98l.13-.13c4.64,2.35,4.93,4.83,4.93,5.17,0,.44-.29.88-.8.88-.57,0-.78-.44-.9-.76-.29-.76-.48-1.22-.84-1.91-7.54,1.62-8.61,1.85-10.88,2.18-.23.42-.29.48-.42.48-.1,0-.19-.08-.27-.29l-.82-1.91c.65.1,1.01.12,1.55.12s1.39-.02,1.83-.04c.71-1.68,1.32-3.4,1.85-5.14h-2.88c-.42,0-1.7.04-2.69.23l-.5-.9c1.09.11,2.39.17,3.49.17h10.18l.99-1.01c.23-.23.25-.25.31-.25.13,0,.29.15.4.21l1.24,1.01c.08.06.21.17.21.32,0,.23-.21.23-.31.23ZM771.17,27.1h-5.17c-.73,0-1.91.08-2.71.23l-.48-.9c1.57.13,3.09.17,3.49.17h2.44l.86-.9c.21-.23.25-.25.34-.25.1,0,.29.15.38.21l.99.9c.08.08.19.19.19.32,0,.19-.17.23-.31.23Z"/><path class="cls-4" d="M797.95,37.28h-15.43c-.73,0-1.89.08-2.69.25l-.5-.9c1.57.13,3.11.15,3.49.15h5.4v-3.38h-3.8c-.73,0-1.91.08-2.71.23l-.48-.9c1.57.13,3.09.17,3.49.17h3.49c-.06-1.49-.06-1.53-.36-2.35l1.95.5c.15.06.31.15.31.34s-.48.48-.71.63c-.02.15-.02.69-.02.88h4.07l.59-.78c.13-.17.19-.25.29-.25s.19.04.42.21l1.07.78s.21.15.21.32c0,.21-.19.23-.34.23h-6.32v3.38h6.28l.69-.84c.13-.17.23-.27.38-.27.08,0,.1.02.34.21l1.01.86c.13.13.21.19.21.34,0,.19-.17.21-.31.21ZM796.83,22.96c-.27,0-.82-.06-1.03-.08-.29.15-.4.19-.92.59-.34.23-.52.36-.71.48l-.1-.06c.06-.19.5-1.53.52-1.57h-12.49c-.02,1.45-.71,2.9-1.68,2.9-.38,0-.69-.23-.69-.65,0-.38.17-.57.69-1.07.67-.65,1.07-1.55,1.28-2.48h.13c.1.27.17.44.23.8h6.09c0-.73,0-1.99-.4-2.75l1.99.46c.31.08.38.13.38.25,0,.27-.27.38-.76.59v1.45h5.12l.73-.5c.1-.06.46-.29.5-.29.1,0,.19.06.38.21l1.11.92c.25.21.27.36.27.46,0,.23-.1.36-.65.36ZM795.34,30.67c-.52,0-.78-.32-1.2-.84-.42-.55-.84-.86-1.07-1.05-1.64.38-8.94,1.41-10.75,1.57,0,.15-.02.63-.38.63-.13,0-.23-.04-.4-.44l-.71-1.66c.63.12.78.15,2.04.15,1.13,0,1.62-.02,1.95-.04.61-1.11,1.09-2.25,1.47-3.44h-1.55c-.42,0-1.7.04-2.71.25l-.48-.9c1.09.08,2.39.15,3.49.15h8.08l.55-.74c.08-.15.17-.27.29-.27s.36.19.4.23l.94.73c.08.06.21.19.21.31,0,.23-.21.23-.31.23h-7.01c-.34.44-1.78,2.35-2.81,3.44,2.33-.1,4.98-.25,7.29-.52-1.83-1.34-2.02-1.49-2.67-1.76v-.13c.8.13,1.7.29,2.79.78,1.87.84,3.3,1.7,3.3,2.65,0,.21-.13.67-.73.67Z"/><path class="cls-4" d="M800.6,38.44c3.42-3.55,4.18-7.43,4.18-9.87s-.76-6.32-4.18-9.87l.21-.29c1.05.84,4.89,4.45,4.89,10.16s-3.84,9.32-4.89,10.16l-.21-.29Z"/><path class="cls-4" d="M584.34,50.92c-.42.76-2.16,4.16-2.56,4.83.92.82,2.79,2.48,2.79,4.98,0,.78-.23,1.6-.97,2.16-.55.44-1.05.55-1.45.63-.23-.73-.48-1.07-1.11-1.66v-.13c.63.11.86.15,1.22.15.44,0,1.13-.06,1.13-1.66,0-1.68-.84-3.21-1.97-4.43.38-1.05,1.13-3,1.72-5.56h-2.83s-.02.25-.02.27c0,1.64-.08,8.78-.06,10.25l.08,5.94c0,.67-.65.78-.82.78-.15,0-.5-.02-.5-.46,0-.1,0-.21.02-.29.17-2.06.17-4.14.17-11.74,0-4.09-.04-4.87-.17-5.96l1.34.71h2.83l.27-.23c.31-.25.34-.29.42-.29.06,0,.19.1.34.23l.9.78c.08.08.15.19.15.29,0,.21-.08.23-.92.42ZM596.3,53.54h-6.89l1.03.46c.21.11.34.17.34.34s-.06.21-.63.65c-.02.36-.04.86-.21,2.06h3.23l.4-.42c.1-.11.25-.27.36-.27.08,0,.29.19.38.25l.67.63c.1.08.21.21.21.34,0,.17-.29.34-.57.5-.42,5.29-.48,6.07-.84,7.14-.48,1.45-1.7,2.1-3.23,2.18-.19-.74-.55-1.34-1.24-1.91l.02-.13c.55.11,1.72.31,2.2.31.34,0,.84,0,1.11-.82.73-2.31.71-6.78.71-7.31h-3.51c-.06.44-.65,4.07-2.56,6.36-1.55,1.87-3.63,2.6-4.37,2.86l-.02-.17c.73-.4,2.37-1.36,3.78-3.44,1.99-2.98,2.23-7.16,2.23-8.38,0-.67-.04-1.01-.06-1.24h-1.57c-.73,0-1.89.08-2.69.23l-.5-.9c1.57.12,3.11.17,3.49.17h1.66c-.02-.95,0-2-.08-2.86-.04-.61-.1-.84-.25-1.43l1.83.59c.23.08.34.1.34.27s-.13.27-.59.59c-.06,1.83-.06,2.02-.06,2.83h3.51l.8-.95c.21-.25.25-.25.36-.25.08,0,.1,0,.4.27l.97.86c.08.1.19.21.19.34,0,.19-.17.23-.31.23Z"/><path class="cls-4" d="M616.67,67.59c-5-1.41-7.64-5.06-8.31-9.13-.61,5.02-3.97,9.07-9.49,9.34v-.11c5.56-1.26,8.4-6.34,8.4-10.22,0-.38-.04-.63-.08-.9l1.7.48c.23.06.29.11.29.19,0,.23-.34.57-.65.73.48,1.97,1.13,3.02,1.43,3.46,1.28-.74,2.86-2.46,3.36-3.72l1.6,1.22c.1.08.15.15.15.25,0,.29-.34.34-.5.34-.23,0-.38-.04-.5-.08-1.93,1.22-2.96,1.85-3.99,2.16,2.04,3.09,5.29,4.26,8.42,4.24v.13c-.92.25-1.53.99-1.81,1.62ZM603.55,50.18c-.17.21-.25.31-1.18,1.3-1.05,1.13-1.18,1.28-1.28,1.39.38.21,2.48,1.53,2.48,2.96,0,.61-.29.88-.73.88s-.55-.25-.8-1.15c-.55-1.89-1.28-2.56-1.72-2.94v-.08c.25.06.27.08.55.21.69-1.03,1.55-3.09,1.7-4.14l1.57,1.07c.08.06.17.12.17.23,0,.25-.29.25-.76.27ZM601.47,62.57c-.15,0-.63-.1-.63-.65,0-.5.13-.61,1.01-1.3.44-.36,1.03-1.16,1.11-2.02h.13c.1.4.1.74.1.88,0,1.32-.52,3.09-1.72,3.09ZM608.82,50.08c-1.49,1.7-1.89,2.16-2.37,2.6,1.53.84,2.18,2.02,2.18,2.52,0,.44-.23.88-.67.88s-.61-.42-.92-1.39c-.25-.8-.99-1.81-1.55-2.29l.06-.1c.23.08.38.13.67.27.73-1.22,1.34-2.52,1.45-3.93l1.72.86c.15.06.19.17.19.25,0,.27-.46.29-.76.31ZM615.06,50.2c-.1.02-.52.08-.61.08-1.89,1.85-2.1,2.06-2.77,2.58,1.34.63,2.5,1.83,2.5,2.75,0,.17-.02.82-.65.82-.42,0-.46-.1-.86-1.07-.59-1.39-.76-1.79-1.89-2.67l.06-.13c.27.08.4.11.61.19.4-.5,1.87-2.69,2.06-4.01l1.6,1.05c.13.08.13.13.13.19s-.02.17-.17.21Z"/><path class="cls-4" d="M637.4,55.75c-4.39-1.81-7.14-5-7.87-6.17-.08.02-.15.02-.52,0-3.99,4.79-7.08,6.49-9.7,7.47l-.08-.13c3.59-2.1,6.84-5.58,8.36-7.75.23-.32.34-.65.38-1.03l1.81.78c.13.06.17.15.17.25,0,.19-.06.25-.13.31,1.41,1.41,3.63,3.25,6.47,4.2,1.41.48,2.52.59,3,.63v.08c-.99.38-1.03.42-1.87,1.34ZM634.5,57.15c-.02.52-.04.99.04,2.33.02.25.1,1.39.1,1.6,0,.29-.27.69-.76.69-.52,0-.5-.4-.48-.57h-8.69c-.27,1.36-.94,3.88-4.56,5.44l-.06-.06c2.86-2.06,3.78-4.47,3.78-8.25,0-1.45-.1-2.06-.21-2.62-.02-.04-.02-.17-.02-.23l1.72.8h7.92l.31-.48c.13-.21.21-.23.27-.23s.08,0,.25.12l.8.63c.08.06.15.12.15.23,0,.19-.29.4-.57.61ZM633.41,58.9h-8.44c-.04.82-.08,1.32-.15,1.81h8.59v-1.81ZM633.41,56.78h-8.42c.02.63.02.9,0,1.62h8.42v-1.62ZM635.64,63.47l-.5.25c-.04.25-.06.42-.04.84,0,.38.17,2.1.17,2.46,0,.59-.69.71-.82.71-.42,0-.42-.32-.38-.99h-7.5c.1.88-.42,1.07-.73,1.07-.46,0-.46-.27-.46-.46s.04-1.03.06-1.2c.02-.4.02-.92.02-1.55,0-1.66-.04-1.93-.1-2.46l1.26.78h6.99l.71-.46c.25-.17.27-.19.4-.19.08,0,.15.06.27.17l.67.57c.08.06.15.13.15.23s-.08.17-.17.23ZM632.03,54.59h-3.13c-.73,0-1.91.08-2.71.25l-.48-.9c1.57.13,3.09.15,3.49.15h.94l.55-.63c.21-.23.25-.25.34-.25.13,0,.27.15.38.23l.73.61c.13.1.21.19.21.31,0,.21-.17.23-.31.23ZM634.06,63.43h-7.52v2.81h7.52v-2.81Z"/><path class="cls-4" d="M658.93,51.65h-14.93c0,1.93,0,5.06-.1,7.22-.13,2.46-1.03,5.92-3.38,8.02l-.08-.04c.78-1.26,2.44-3.9,2.44-10.98,0-1.15-.06-3.84-.34-5.46l1.74.73h5.61c0-1.18-.04-1.49-.34-2.58l1.72.46c.17.04.23.19.23.32,0,.25-.29.42-.52.54v1.26h5.48l.8-.92c.15-.17.21-.25.31-.25.13,0,.29.13.42.23l1.05.9c.13.1.21.19.21.34,0,.19-.17.21-.31.21ZM659.07,64.59h-7.54c.02.57.04,2.04.04,2.54,0,.76-.84.76-.9.76-.23,0-.38-.11-.38-.42,0-.34.04-2.41.06-2.88h-3.7c-.76,0-1.91.08-2.71.25l-.5-.9c1.57.13,3.11.15,3.51.15h3.4l.04-2.33h-3.32c-.02.21-.08.97-.86.97-.36,0-.36-.27-.36-.42,0-.17.04-.82.06-.94.04-1.2.06-2.27.06-3.21,0-1.39-.04-1.83-.13-2.39l1.3.52h3.23l-.02-1.85h-2.65c-.73,0-1.89.08-2.69.23l-.5-.9c1.57.13,3.11.17,3.49.17h2.35v-.73c0-.21-.13-1.09-.15-1.28l1.66.57c.19.04.21.15.21.21,0,.23-.17.31-.61.55v.69h4.64l.55-.67c.15-.19.21-.27.34-.27.08,0,.17.06.38.21l.97.69c.06.04.21.17.21.31,0,.21-.17.23-.31.23h-6.78v1.85h3.42l.4-.48s.15-.13.21-.13c.1,0,.23.13.29.19l.69.67c.08.08.15.15.15.27,0,.11-.1.17-.21.23-.17.08-.29.15-.42.21-.06.69.15,4.16.15,4.39,0,.69-.86.76-.86.76-.25,0-.34-.13-.34-.63h-3.46l.04,2.33h5.08l.71-.9c.15-.19.23-.27.36-.27.1,0,.29.15.4.25l1.11.88c.08.08.19.17.19.34,0,.19-.17.21-.31.21ZM650.4,56.78h-3.32v1.87h3.34l-.02-1.87ZM647.08,59.15v2.1h3.32c.02-1.51.02-1.68.02-2.1h-3.34ZM654.96,56.78h-3.49v1.87h3.49v-1.87ZM654.96,59.15h-3.49c0,.29.02,1.76.02,2.1h3.46v-2.1Z"/><path class="cls-4" d="M579.4,88.79c.34,0,.38-.04,1.3-1.05.61-.65,1.32-1.43,1.78-1.97,1.89-2.29,2.27-2.54,2.98-2.54.5,0,.86.21,1.81,1.13.44.44,2.37,2.39,2.77,2.77,1.91,1.85,3.21,2.73,4.62,3.7.78.55,1.32,1.26,1.32,1.76,0,.27-.17.61-.5.61-.4,0-.8-.34-2.44-1.81-2.16-1.91-4.18-4.09-6.15-6.26-.69-.76-1.03-1.07-1.43-1.07-.44,0-.8.1-3.44,3.72-.9,1.22-.97,1.3-1.28,2.21-.15.4-.23.63-.69.63s-2.04-1.01-2.04-2.31c0-.08.02-.19.06-.46.46.48.88.94,1.32.94ZM592.88,85.32c-1.11,0-1.99-.88-1.99-2s.88-2.02,1.99-2.02,1.99.9,1.99,2.02-.88,2-1.99,2ZM592.88,82.03c-.71,0-1.3.57-1.3,1.28s.59,1.3,1.3,1.3,1.3-.57,1.3-1.3-.59-1.28-1.3-1.28Z"/><path class="cls-4" d="M600.63,87.9c0,.42-.27.69-.61.69-.25,0-.29-.08-.73-.94,0,0-.76-1.43-1.57-2.23,1.53.15,2.92,1.83,2.92,2.48ZM599.63,95.88c1.22-.53,3.59-1.58,6.36-5.94,1.51-2.42,1.68-3.67,1.68-4.05,0-.4-.27-.63-1.11-1.07.27-.08.59-.17.97-.17.73,0,1.72.97,1.72,1.3,0,.19-.04.25-.42.69-.13.17-.19.25-.38.65-.84,1.81-1.78,3.86-3.99,6.11-1.6,1.62-3.36,2.29-4.81,2.71l-.02-.23ZM604.29,87.04c0,.65-.4.76-.55.76-.36,0-.42-.19-.67-.97-.31-.99-.94-1.81-1.34-2.29,1.22.44,2.56,1.34,2.56,2.5Z"/><path class="cls-4" d="M619.68,88.2c.31.29.5.74.5,1.2,0,.5-.19.8-.48.8-.27,0-.48-.21-.94-.69-1.51-1.6-3.09-2.58-4.64-3.34-.02,1.91-.04,3.86-.04,5.77,0,.44.06,2.37.06,2.75,0,1.01,0,1.91-.63,1.91-.71,0-.88-1.34-.88-1.57,0-.04.17-1.09.19-1.22.17-1.13.31-8.8.31-9.59,0-.65,0-2.81-.15-3.34-.15-.55-.71-.76-1.72-1.05.73-.46,1.32-.48,1.36-.48.31,0,2.1.4,2.1,1.11,0,.1-.21.74-.31,1.09-.23.71-.25,3.23-.27,4.16,1.57.36,4.2,1.22,5.54,2.5Z"/><path class="cls-4" d="M641.39,95.04c-.48.46-.63.59-.99,1.28-.06.17-.1.27-.15.44-.8.04-5.58.02-7.81-.54-2.96-.74-4.85-2.71-5.79-4.77-.76,2.46-2.18,4.62-5.02,5.94l-.06-.19c3.63-3.02,4.39-6.93,4.39-8.67,0-.46-.08-.96-.15-1.3l1.91.63c.17.06.31.08.31.29,0,.17-.06.23-.78.67-.13.86-.25,1.43-.46,2.16.67,1.43,2.25,3.09,4.51,3.86v-9.15h-4.09c.02.23,0,.29-.08.42-.15.23-.42.34-.65.34-.59,0-.59-.44-.59-.65,0-1.16.17-3.02.17-4.18,0-.74-.04-2.29-.25-2.88l1.72.9h8.52l.44-.5s.17-.19.31-.19c.04,0,.1.02.25.13l.9.63c.13.08.19.19.19.27,0,.23-.69.73-.78.78,0,1.51.02,2.86.08,3.95.02.17.08.92.08,1.09,0,.57-.69.82-.94.82-.4,0-.38-.31-.36-.92h-3.8v4.24h3.59l.5-.9c.1-.19.15-.29.31-.29.13,0,.23.08.4.23l1.13.92c.17.21.19.25.19.31,0,.23-.21.23-.31.23h-5.82v4.7c.48.1,1.39.32,3.38.32,2.18,0,4.01-.19,5.65-.63-.02.04-.06.19-.08.21ZM636.27,80.16h-9.05v5.04h9.05v-5.04Z"/><path class="cls-4" d="M645.64,86.73c-.4,0-.69-.4-1.3-1.22-.55-.71-.84-.88-1.36-1.15l.04-.15c.67.08,1.68.21,2.27.48,1.01.48,1.07,1.15,1.07,1.28,0,.42-.31.76-.71.76ZM646.77,89.9c-.38,1.09-.65,1.81-.65,2.37,0,.34.04.44.44,1.95.1.4.34,1.28.34,2.08,0,1.05-.65,1.15-.88,1.15-.78,0-.78-.82-.78-1.07,0-.32.1-1.64.1-1.91,0-1.58-.38-2.94-1.68-3.19v-.17c1.24.15,1.7-.52,2.5-2.12.55-1.07.73-1.53,2.52-5.65,0-.02.08-.21.1-.23l.15.06c-.5,1.83-.88,3.11-2.16,6.72ZM647.69,81.92c-.31,0-.4-.15-.73-.65-.82-1.24-1.43-1.6-1.81-1.83v-.17c1.87.44,2.08.48,2.35.63.69.4.9.97.9,1.24,0,.42-.29.78-.71.78ZM661.93,96.28c-.65.67-1.36.67-3.15.67-2.35,0-3.04-.02-3.04-1.91,0-.86.04-2.25.04-3.11v-3.91h-2.81l1.39.4c.17.04.29.08.29.25,0,.21-.27.38-.84.74-.19,2.27-.55,3.86-1.68,5.25-1.13,1.39-2.58,2.52-4.35,2.88v-.11c3.09-1.66,4.05-4.14,4.35-5.35.42-1.64.52-3.19.48-4.05h-1.3c-.73,0-1.91.08-2.71.25l-.48-.92c1.57.15,3.09.17,3.49.17h3.11v-3.99h-3.4c-.92,1.83-1.78,2.81-2.25,3.34l-.08-.06c1.74-3.88,2.06-5.84,2.1-6.24.04-.36.04-.67.02-.99l1.87.76c.19.08.25.15.25.27,0,.27-.61.5-.92.61-.17.46-.34.9-.73,1.81h3.15c-.02-.4-.06-3.13-.06-3.23-.06-.5-.17-.84-.34-1.24l2.12.5c.15.04.31.06.31.23,0,.23-.36.46-.88.78-.02.55-.02.76-.02.95v2.02h2.5l.76-.8c.21-.23.23-.27.31-.27.13,0,.38.21.4.23l1.01.8c.1.08.21.19.21.32,0,.21-.17.23-.31.23h-4.87v3.99h3.63l.86-.92c.21-.23.23-.25.34-.25s.17.08.38.25l1.01.86s.21.19.21.34c0,.23-.25.23-.34.23h-5.06v4.56c0,.31-.02,1.68-.02,1.97,0,1.22.42,1.22,1.93,1.22,1.26,0,1.74,0,2.14-1.7.06-.25.27-1.45.34-1.68l.13.02c.21,1.72.25,1.91.34,2.25.06.29.1.32.4.57.1.08.19.17.19.36,0,.25-.19.5-.38.69Z"/><path class="cls-4" d="M672.5,86.81c-.29.59-2.52,5.16-2.6,5.38-.08.27-.15.5-.15.78,0,.15.15.82.15.97,0,.23-.15.46-.52.46s-2.62-.17-3.67-4.58c-.19-.76-.19-1.11-.42-4.37-.13-1.7-.19-2.23-1.01-3.51,1.11.04,2.33,1.24,2.33,2.16,0,.23,0,.29-.13.9-.13.71-.15,1.3-.15,1.79,0,1.18.27,4.14,1.57,5.17.06.04.27.23.46.23.23,0,.42-.17.5-.32,1.55-2.44,1.72-2.67,3.23-4.87.02-.04.13-.21.19-.29l.21.11ZM677.26,89.37c.29-.04,1.66-.25,1.93-.29.17-.02.55-.11.55-.53,0-.48-.92-3.86-3.88-4.98.1-.04.38-.12.65-.12.36,0,1.45.23,2.39,1.3,1.6,1.81,2.27,3.97,2.27,4.96,0,.63-.27,1.26-.59,1.26-.15,0-.21-.04-.73-.48-.71-.61-1.18-.69-2.58-.97v-.15Z"/><path class="cls-4" d="M690.2,84.31h-2.9v1.22c0,.86,0,4.05.02,5.12,1.89-.8,2.44-1.09,2.79-1.28l.08.15c-.25.25-.59.59-2.14,1.51-.31.19-3.09,1.83-3.46,2.04-.04.27-.15.78-.4.78-.15,0-.27-.23-.34-.36l-.88-1.62c.73-.02,1.26-.04,3.19-.78-.02-2.27-.02-4.51-.02-6.78-.21,0-1.45.04-2.41.23l-.5-.9c.71.06,1.66.13,2.92.15,0-.74,0-2.98-.1-3.97-.06-.55-.25-1.07-.34-1.3l2.02.63c.19.06.34.11.34.31,0,.25-.48.44-.73.55-.02.59-.02,3.25-.02,3.8h1.05l.5-.76c.15-.23.23-.27.29-.27.17,0,.27.1.4.23l.78.76c.17.17.19.25.19.31,0,.23-.23.23-.31.23ZM702.12,87.63h-8.61c-.19.4-.48.99-1.15,1.95h7.03l.34-.5c.06-.11.17-.25.25-.25s.23.08.36.17l.99.63c.17.11.21.17.21.32,0,.27-.29.38-.8.57-.17,3.48-.92,5.19-1.26,5.75-.73,1.28-1.87,1.26-2.29,1.26-.08-.48-.13-.78-1.47-1.76v-.17c.99.17,1.68.27,2.1.27.57,0,.84-.25,1.3-1.97.31-1.22.36-1.78.48-3.8h-1.68c-1.01,2.41-2.08,3.93-2.88,4.83-1.07,1.22-2.1,1.93-3.59,2.5l-.13-.13c1.85-1.39,3.78-3.36,5.25-7.2h-1.6c-2.52,4.28-4.72,5.82-7.35,6.87l-.06-.17c2.79-1.72,4.93-4.51,6-6.7h-1.57c-1.01,1.3-2.18,2.48-3.65,3.17l-.13-.13c1.72-1.49,2.98-3.42,3.86-5.5h-.48c-.65,0-1.85.06-2.71.23l-.48-.9c1.15.11,2.33.17,3.49.17h7.87l.67-.92c.1-.15.19-.27.31-.27s.27.15.38.23l1.09.92c.1.08.21.17.21.32,0,.19-.19.23-.31.23ZM698.47,80.32c0,.55.04,3.04.06,3.55.04.78.06,1.41.06,1.57,0,.21-.02.38-.25.53-.19.15-.44.19-.55.19-.42,0-.42-.27-.4-.76h-4.14c0,.36,0,.4-.02.48-.04.17-.36.4-.73.4-.44,0-.44-.29-.44-.42,0-.4.06-1.03.06-1.43.02-.57.04-1.6.04-2.37,0-.99,0-2.46-.19-3.36l1.41.71h3.95l.36-.44c.13-.17.15-.17.23-.17.06,0,.08,0,.25.13l.78.55c.15.11.21.15.21.23,0,.19-.21.34-.69.61ZM697.4,79.93h-4.16v2.12h4.16v-2.12ZM697.4,82.55h-4.16v2.35h4.16v-2.35Z"/><rect class="cls-5" x="547.18" y="15.99" width="24.11" height="24.11" rx="12.05" ry="12.05"/><rect class="cls-5" x="547.18" y="45.14" width="24.11" height="24.11" rx="12.05" ry="12.05"/><rect class="cls-5" x="547.18" y="74.41" width="24.11" height="24.11" rx="12.05" ry="12.05"/><path class="cls-3" d="M555.59,30.31l4.99-8.25h.81v8.25h1.67v.54h-1.67v1.83c0,.65.29.99.91.99h.42v.52h-4.26v-.52h.4c.52,0,.94-.37.94-1.02v-1.8h-4.21v-.54ZM556.21,30.31h3.6v-5.96l-3.6,5.96Z"/><path class="cls-3" d="M557.02,52.94l-.15,3.92c.39-.32,1.39-1.15,2.63-1.15,1.43,0,3.44,1.18,3.44,3.6,0,2.64-2.24,4.34-4.18,4.34-1.72,0-3.01-1.31-3.01-2.46,0-.75.58-1.2,1.1-1.2.41,0,.91.32.91,1.02,0,.21-.03.36-.11.55-.06.15-.08.19-.08.5,0,.36.06,1.02,1.12,1.02,1.49,0,2.46-1.55,2.46-3.61,0-1.88-.84-3.01-2.11-3.01-1.18,0-2.06.96-2.48,1.44l-.23-.21.23-6.17h5.72l-.34,1.43h-4.91Z"/><path class="cls-3" d="M560.13,84.97c1.43,0,2.82,1.34,2.82,3.66,0,2.71-1.9,4.18-3.45,4.18-1.64,0-3.78-1.6-3.78-5.57,0-3.21,1.56-6.85,4.47-6.85,1.26,0,2.28.7,2.28,1.65,0,.58-.39.99-.94.99-.52,0-1.02-.39-1.02-1,0-.08.06-.47.06-.55,0-.42-.4-.54-.7-.54-.6,0-2.09.65-2.38,5.45.96-1.07,1.96-1.41,2.62-1.41ZM559.51,92.24c1.3,0,1.7-2.01,1.7-3.42,0-1.65-.57-3.05-1.64-3.05-.15,0-1.15,0-2.09,1.26.05,1.69.15,5.2,2.03,5.2Z"/><path class="cls-4" d="M970.91,34.61c1.41-.9,2.73-1.97,3.97-3.13,1.68-1.6,3.17-3.4,4.28-5.46-1.62.17-4.41.57-5.46,1.05-.29.13-.36.17-.57.17-.67,0-1.76-.94-1.76-1.91,0-.23.02-.38.08-.78.67,1.07.86,1.34,1.89,1.34.69,0,5.21-.48,6.19-.57,0-.36-.02-1.93-.02-2.25-.02-1.43-.23-1.72-.59-1.95-.13-.08-1.03-.46-1.24-.57.34-.19.67-.38,1.22-.38,1.01,0,2.1.8,2.1,1.07,0,.13-.23.61-.25.71-.25.8-.27,2.18-.27,3.28,2.29-.19,2.54-.21,2.9-.27.17-.02.92-.23,1.07-.23.44,0,1.78.38,1.78.88,0,.08,0,.44-.46.44-.06,0-.17,0-.25-.02-.82-.13-1.72-.19-2.77-.19-.76,0-1.64.04-2.27.08-.02,3.59-.02,3.76,0,5.06,0,.5.08,2.69.08,3.13,0,1.87-.57,2.94-1.13,2.94-.31,0-.42-.31-.48-.54-.06-.23-.17-.61-.65-1.05-.46-.4-1.18-.96-1.76-1.45l.08-.13c1.01.34,1.11.38,2.06.73.27.11.31.13.42.13.27,0,.31,0,.38-1.43.1-2.77.08-4.56.08-5.88-1.3,2.14-4.68,5.96-8.57,7.37l-.08-.21Z"/><path class="cls-4" d="M990.48,28c.29.08.5.08,2.35.08.38,0,7.33-.04,8.8-.21.4-.04.42-.04.67-.15.13-.04.25-.06.4-.06.1,0,1.95.21,1.95.82,0,.5-.55.5-1.11.5-.31,0-2.29-.13-2.73-.13-1.26,0-7.2.11-8.23.21-.25.02-.86.08-1.45.29-.4.15-.5.19-.65.19s-.27,0-.78-.61c-.15-.17-.61-.71-.61-1.51,0-.29.02-.55.17-.82.27.76.73,1.26,1.22,1.38Z"/><path class="cls-4" d="M1009.95,37.55c4.26-2.56,4.83-6.95,5.06-10.79-1.18.15-4.54.59-5.33,1.05-.36.19-.42.23-.65.23-.55,0-1.78-.76-1.78-2.18,0-.15.02-.27.06-.57.57.99.92,1.32,1.99,1.32.42,0,4.85-.48,5.75-.57.04-.57.06-1.13.06-1.72,0-2.81-.29-2.92-1.85-3.36.63-.34,1.05-.38,1.26-.38.52,0,2.18.48,2.18,1.11,0,.17-.02.23-.23.55-.13.21-.17.76-.17.84-.08,1.49-.08,1.64-.15,2.88.67-.04,3.7-.17,4.3-.27.13-.02.76-.21.88-.21.19,0,1.41.23,1.74.48.17.13.31.32.31.57,0,.04,0,.52-.59.52-.13,0-.23,0-.31-.02-2.6-.48-2.79-.5-4.03-.5-1.13,0-1.99.08-2.35.1-.19,3.55-.55,9.2-6.11,11.04l-.06-.13Z"/><path class="cls-4" d="M1027.44,28c.29.08.5.08,2.35.08.38,0,7.33-.04,8.8-.21.4-.04.42-.04.67-.15.13-.04.25-.06.4-.06.1,0,1.95.21,1.95.82,0,.5-.55.5-1.11.5-.31,0-2.29-.13-2.73-.13-1.26,0-7.2.11-8.23.21-.25.02-.86.08-1.45.29-.4.15-.5.19-.65.19s-.27,0-.78-.61c-.15-.17-.61-.71-.61-1.51,0-.29.02-.55.17-.82.27.76.73,1.26,1.22,1.38Z"/><path class="cls-4" d="M1043.49,35.03c4.6-1.45,10.25-7.26,11.8-12.2-2.6.25-5.84,1.01-6.26,1.26-.34.21-.5.31-.61.31-.34,0-1.26-1.34-1.26-1.68,0-.23.06-.63.21-1.05.5.94.76,1.22,1.43,1.22.27,0,5.46-.55,6.09-.84.15-.06.71-.55.86-.55.17,0,1.64,1.13,1.64,1.47,0,.23-.08.25-.76.55-.17.06-.25.21-.36.4-1.28,2.46-1.6,3.04-2.98,4.83,2.37,1.11,4.89,3.17,5.69,4.09.27.29.71.9.71,1.62,0,.48-.27.76-.59.76-.34,0-.61-.17-1.15-1.07-.31-.5-2.06-2.9-4.89-5.1-2.14,2.6-5.31,5.42-9.57,6.13v-.15ZM1058.43,20.27c.5.27.9.67.9,1.34,0,.27-.1.61-.38.61-.17,0-.27-.13-1.2-1.18-.73-.86-1.53-1.3-2.06-1.57.76-.04,1.39.08,2.73.8ZM1060.53,19.12c.34.17.94.5.94,1.43,0,.25-.08.42-.31.42-.29,0-.48-.23-1.01-.84-.8-.9-1.66-1.34-2.5-1.74,1.01-.02,1.97.29,2.88.73Z"/><path class="cls-4" d="M1064.74,37.03c5.23-2.29,8.5-7.6,9.01-10.71-1.62.13-7.62.69-8.57,1.3-.4.27-.44.29-.59.29-.55,0-1.97-1.22-1.97-2.33,0-.17.02-.34.1-.65.5.8,1.28,1.36,2.27,1.36.78,0,7.79-.57,8.34-.69.19-.04.38-.11.9-.57.13-.13.21-.17.29-.17.23,0,1.66,1.05,1.66,1.45,0,.21-.06.23-.67.53-.42.21-.44.25-.69.92-.19.46-1.83,4.45-4.87,6.95-1.49,1.24-3.25,2.12-5.17,2.46l-.04-.15ZM1066.88,22.25c1.05,0,4.28-.34,5.12-.63.67-.25.76-.27.97-.27.34,0,1.47.13,1.47.67s-.59.57-2.2.67c-.99.06-5.77.57-6.26.57-.42,0-1.43-.46-1.6-2,.94.8,1.26.99,2.5.99Z"/><path class="cls-4" d="M1082.38,36.9c3.97-2.2,5.98-4.62,7.24-8.42.55-1.64.82-3.04.82-3.21,0-.06-.02-.06-.08-.06-.21,0-1.07.08-1.24.08-3.65.25-5.35.15-7.03.38-.13,0-.67.11-.78.11-.04,0-.42-.15-.63-.25.06.86.15,3.55.15,4.37,0,.5-.25.71-.46.71-.44,0-.8-.84-.8-1.18,0-.08.06-.46.08-.54.02-.21.04-.67.04-.86,0-2.73-.19-3.11-1.24-3.84,1.18-.08,1.49.12,1.91.42.52.36.57.38.78.38.17,0,2.33-.1,2.65-.12.57-.02.63-.04,1.26-.06-.02-2.56-.04-2.65-.15-2.83-.17-.25-.36-.44-1.6-.67.21-.15.76-.54,1.28-.54.65,0,1.51.48,1.74.63.13.06.21.15.21.34,0,.17-.27.86-.31.99-.06.23-.1.46-.17,1.36-.02.38-.02.53-.02.67.44-.02,3.4-.17,3.65-.21.27-.04.69-.17.94-.36.19-.13.23-.17.31-.17.13,0,.19.06.78.55.19.17.82.71.82.9,0,.17-.06.21-.59.5-.44.23-.46.31-.69,1.11-.97,3.49-2.06,5.48-4.41,7.54-2.04,1.78-3.67,2.27-4.41,2.48l-.06-.17Z"/><path class="cls-4" d="M1100.5,24.22c0,.15-.1.71-.71.71-.38,0-.55-.17-1.2-.82-1.15-1.16-2.2-1.68-3.38-2.25,2.54-.04,5.29,1.03,5.29,2.35ZM1109.23,23.86c-1.57,3.09-4.01,5.61-6.72,7.75-.97.78-1.81,1.37-2.9,2.12-.61.42-.67.5-1.34,1.28-.15.17-.29.31-.57.31-.69,0-1.97-1.6-1.97-2.48,0-.36.17-.63.29-.88.38.86.92,1.34,1.34,1.34.67,0,2.62-1.39,3.4-1.95,4.54-3.32,5.96-4.85,8.34-7.58l.13.08Z"/><path class="cls-4" d="M1111.38,25.69c1.03,0,2.5.12,3.09.52.65.44.92,1.03.92,1.49,0,.29-.1.44-.44.44-.29,0-1.72-1.01-2.06-1.2-.9-.5-1.66-.8-2.75-1.18.4-.04.73-.08,1.24-.08ZM1126.01,25.19c-2.71,4.14-6.13,7.79-10.41,10.27-.29.17-.31.19-.63.59-.23.29-.4.4-.63.4s-.92-.5-1.39-1.07c-.4-.5-.57-1.13-.48-2.1,1.09,1.18,1.32,1.34,1.66,1.34.92,0,6.03-3.09,11.8-9.55l.08.13ZM1113.54,20.99c1.07,0,2.81.38,3.34.92.36.36.59.88.59,1.26,0,.36-.13.57-.4.57s-.38-.11-1.26-.82c-1.18-.97-1.83-1.3-3.17-1.87.4-.04.61-.06.9-.06ZM1124.12,22.18c.25.15.9.55.9,1.32,0,.4-.19.59-.44.59-.23,0-.27-.06-.76-.65-1.15-1.41-1.78-1.81-2.2-2.1.46.02,1.18.06,2.5.84ZM1126.96,21.6c0,.36-.25.5-.46.5-.23,0-.25,0-.82-.63-.61-.65-1.43-1.15-2.39-1.7,2.86-.04,3.67,1.2,3.67,1.83Z"/><path class="cls-4" d="M970.36,65.87c5.25-2.79,7.37-6,8.4-7.62-.88-.78-1.99-1.68-4.81-2.9,2.2.04,4.37,1.39,5.31,2.04.63-1.07,1.95-3.88,1.95-4.6,0-.61-.44-.95-1.24-1.6.34-.04.48-.06.69-.06.36,0,.67.06,1.43.59.84.59,1.05.84,1.05,1.09,0,.23-.1.34-.59.74-.19.17-.34.48-.55,1.01-.63,1.6-1.39,2.98-1.76,3.57.59.48,2.62,2.18,2.62,3.55,0,.06,0,.73-.57.73-.29,0-.42-.23-.67-.67-.61-1.03-1.18-1.76-1.99-2.64-3.19,4.66-7.16,6.51-9.24,6.91l-.04-.13Z"/><path class="cls-4" d="M987.75,57.7c.29.08.5.08,2.35.08.38,0,7.33-.04,8.8-.21.4-.04.42-.04.67-.15.13-.04.25-.06.4-.06.1,0,1.95.21,1.95.82,0,.5-.55.5-1.11.5-.31,0-2.29-.13-2.73-.13-1.26,0-7.2.11-8.23.21-.25.02-.86.08-1.45.29-.4.15-.5.19-.65.19s-.27,0-.78-.61c-.15-.17-.61-.71-.61-1.51,0-.29.02-.55.17-.82.27.76.73,1.26,1.22,1.38Z"/><path class="cls-4" d="M1004.3,65.62c1.28-1.09,2.25-2.5,2.94-4.01,1.05-2.33,1.09-4.3,1.09-6.03s0-1.93-1.49-2.27c.21-.21.55-.52,1.05-.52.65,0,1.83.54,1.83,1.01,0,.12-.15.67-.17.8-.02.32-.04,1.72-.06,2-.13,2.04-.42,4.47-2.16,6.78-.63.84-1.6,1.85-2.92,2.39l-.1-.15ZM1021.39,55.87c-1.11,2.92-3.46,5.19-5.86,7.1-.23.19-1.36.94-1.53,1.16-.52.69-.59.78-.8.78-.4,0-1.2-1.51-1.2-1.72,0-.13.19-.71.21-.82.15-.76.17-1.89.17-4.7,0-.88,0-4.09-.1-4.81-.06-.46-.17-.73-1.41-1.24.21-.13.57-.38.99-.38.55,0,1.43.53,1.83.88.1.08.21.23.21.42,0,.12-.17.63-.19.73-.08.29-.19.9-.23,1.55-.06,1.39-.1,5.98-.1,7.52,0,.31,0,.36.06.36.25,0,4.12-1.89,7.81-6.95l.15.13Z"/><path class="cls-4" d="M1035.57,62.8c0,.46-.4.46-.69.46-.4,0-2.16-.08-2.52-.08-1.43,0-5.25.19-6.45.57-.15.04-.82.36-.97.36-.73,0-1.57-1.37-1.57-2.02,0-.27.08-.48.19-.69.73,1.07,1.09,1.3,1.74,1.3.17,0,7.68-.44,8.23-.48.65-4.05,1.13-7.1,1.13-7.92,0-.19-.06-.21-.23-.21-.15,0-7.03.46-8.48.9-.13.02-.65.34-.76.34-.57,0-1.62-1.24-1.62-2.08,0-.44.1-.67.19-.86.17.29.38.65.82,1.07.46.42.71.42,1.01.42,1.07,0,7.75-.42,8.59-.61.34-.06.44-.15.84-.42.08-.08.17-.11.27-.11.19,0,.99.76,1.2.95.13.13.36.36.36.59,0,.21-.15.29-.59.53-.23.12-.31.21-.4.54-.25,1.16-.59,2.98-1.28,6.72.42.04.99.32.99.74Z"/><path class="cls-4" d="M1041.41,57.7c.29.08.5.08,2.35.08.38,0,7.33-.04,8.8-.21.4-.04.42-.04.67-.15.13-.04.25-.06.4-.06.1,0,1.95.21,1.95.82,0,.5-.55.5-1.11.5-.31,0-2.29-.13-2.73-.13-1.26,0-7.2.11-8.23.21-.25.02-.86.08-1.45.29-.4.15-.5.19-.65.19s-.27,0-.78-.61c-.15-.17-.61-.71-.61-1.51,0-.29.02-.55.17-.82.27.76.73,1.26,1.22,1.38Z"/><path class="cls-4" d="M1060.87,67.25c4.26-2.56,4.83-6.95,5.06-10.79-1.18.15-4.54.59-5.33,1.05-.36.19-.42.23-.65.23-.55,0-1.78-.76-1.78-2.18,0-.15.02-.27.06-.57.57.99.92,1.32,1.99,1.32.42,0,4.85-.48,5.75-.57.04-.57.06-1.13.06-1.72,0-2.81-.29-2.92-1.85-3.36.63-.34,1.05-.38,1.26-.38.52,0,2.18.48,2.18,1.11,0,.17-.02.23-.23.55-.13.21-.17.76-.17.84-.08,1.49-.08,1.64-.15,2.88.67-.04,3.7-.17,4.3-.27.13-.02.76-.21.88-.21.19,0,1.41.23,1.74.48.17.13.31.32.31.57,0,.04,0,.52-.59.52-.13,0-.23,0-.31-.02-2.6-.48-2.79-.5-4.03-.5-1.13,0-1.99.08-2.35.1-.19,3.55-.55,9.2-6.11,11.04l-.06-.13Z"/><path class="cls-4" d="M1078.37,57.7c.29.08.5.08,2.35.08.38,0,7.33-.04,8.8-.21.4-.04.42-.04.67-.15.13-.04.25-.06.4-.06.1,0,1.95.21,1.95.82,0,.5-.55.5-1.11.5-.31,0-2.29-.13-2.73-.13-1.26,0-7.2.11-8.23.21-.25.02-.86.08-1.45.29-.4.15-.5.19-.65.19s-.27,0-.78-.61c-.15-.17-.61-.71-.61-1.51,0-.29.02-.55.17-.82.27.76.73,1.26,1.22,1.38Z"/><path class="cls-4" d="M1105.98,58.27c0,.82-.67,1.45-1.45,1.45s-1.45-.65-1.45-1.45.63-1.45,1.45-1.45,1.45.65,1.45,1.45Z"/><path class="cls-4" d="M1134.01,66.71c-.84.44-2.04.44-3.65.44-.97,0-4.72-.08-5.5-.25-.97-.23-.97-1.05-.97-1.51v-4.03l-4.26.78c-.46.08-1.7.38-2.6.74l-.65-.82c1.15-.1,2.31-.25,3.46-.46l4.05-.73c0-.55.02-3.25,0-3.86-1.81.52-4.75,1.28-6.63,1.34v-.11c5.92-1.62,8.27-2.67,10.14-3.84.38-.23.57-.46.65-.57l1.43,1.16c.08.06.08.12.08.27,0,.17-.19.25-.38.25-.08,0-.5-.08-.76-.13-.57.25-1.39.63-3.4,1.26v4.01l6.78-1.22.67-1.05c.19-.27.21-.31.31-.31.08,0,.29.11.38.15l1.22.69c.1.06.27.17.27.34,0,.13-.08.19-.27.23l-9.36,1.7c0,.53,0,4.09.02,4.22.02.17.08.36.4.48.29.11,3.99.15,4.62.15,2.14,0,2.54,0,3.02-.86.4-.76.65-2.18.78-2.92h.13c.04.29.21,1.74.27,2.06.13.73.13.82.36,1.01.29.25.31.25.31.44,0,.48-.71.86-.92.97ZM1134.12,53.29c-.17.02-.92.06-1.09.06-.46.29-1.22.82-1.7,1.22l-.13-.08c.06-.17.71-1.97.73-2.02h-12.68c-.08,2.44-1.41,3.3-2.06,3.3-.5,0-.76-.4-.76-.69,0-.46.44-.76,1.05-1.2,1.22-.88,1.41-1.83,1.55-2.58h.1c.06.25.08.36.1.67h5.71c0-2.08-.02-2.18-.38-3.23l1.97.59c.17.04.23.15.23.27,0,.21-.13.36-.69.61,0,.36-.02,1.49,0,1.76h5.65l.69-.55c.08-.06.21-.17.34-.17.15,0,.34.15.4.21l1.05,1.05c.08.08.25.29.25.53,0,.21-.25.25-.36.25Z"/><path class="cls-4" d="M1146.85,50.69h-3.34v2.71h1.45l.42-.36c.13-.11.25-.23.34-.23s.19.1.29.21l.5.5c.19.19.29.29.29.44,0,.12-.08.17-.71.52,0,.1.02,4.09.02,4.85v1.47c0,.84.04,2,.04,2.54.02.84.06,2.08.08,2.52,0,.23-.02.92-.88.92-.19,0-.42-.04-.42-.53,0-.06.04-.54.04-.65h-5.79c.04,1.01.1,1.81-.8,1.81-.42,0-.48-.23-.48-.5,0-.17.06-.84.06-.99.13-1.68.17-7.83.17-9.85,0-2.31-.02-2.46-.21-3.46l1.32.78h1.41c.02-1.43.02-1.83,0-2.71-.92,0-2.04.08-2.81.25l-.5-.9c1.15.08,2.33.15,3.49.15h3.88l.69-.8c.13-.12.23-.25.34-.25.13,0,.23.08.38.21l.84.8c.13.13.21.19.21.34,0,.19-.17.21-.31.21ZM1144.98,58.46c-.38.32-1.05.32-1.28.32-1.11,0-1.15-.34-1.15-.76,0-.65.02-3.53.02-4.12h-.99c-.08,2.06-.17,4.05-2.41,5.71v1.43h5.82v-2.58ZM1139.16,53.9v5.31c1.32-1.47,1.41-3.82,1.47-5.31h-1.47ZM1144.98,61.54h-5.82v3.57h5.82v-3.57ZM1142.56,50.69h-.9c-.02.44-.06,2.39-.06,2.71h.97v-2.71ZM1144.98,53.9h-1.47c0,.57-.02,2.98-.02,3.49,0,.25.06.27.4.27.4,0,.4-.02.48-.69h.15c.13.25.15.29.46.67v-3.74ZM1155.39,66.1c-.84.44-2.2.44-3.36.44-.82,0-2.41-.02-3.15-.23-.94-.27-.94-.59-.94-2.44,0-.84.08-4.6.08-5.35,0-2.04-.1-2.5-.19-2.88l1.55.86h3.93c.02-1.85.04-2.23.04-5.82h-2.29c-.67,0-1.85.08-2.71.25l-.48-.9c1.15.08,2.31.15,3.49.15h1.74l.48-.57c.1-.13.19-.23.29-.23.08,0,.19.06.34.19l.84.71c.08.06.17.17.17.25,0,.17-.15.21-.31.32-.04.02-.25.15-.38.21-.1,1.66.04,4.33.04,5.98,0,.15,0,.38-.19.53-.23.19-.55.29-.73.29-.36,0-.36-.38-.34-.86h-4.16c-.04.48-.1,4.54-.1,5.4,0,.44,0,2.42.13,2.62.19.34,2.1.36,2.52.36,2.62,0,2.73-.32,2.94-.97.29-.88.34-1.32.46-2.35h.23c.08.82.19,1.79.46,2.31.1.21.44.59.44.76,0,.4-.44.76-.84.96Z"/><path class="cls-4" d="M1158.5,63.49c-.61,0-.67-.59-.67-.78,0-.57.4-.8,1.3-1.36,1.22-.74,2.04-2.04,2.71-3.23-.1,2.94-2.41,5.38-3.34,5.38ZM1162.22,63.18c.34.08,1.89.53,2.2.61.13.02.4.1.52.1.04,0,.19,0,.25-.15.06-.19.06-2.31.06-2.69,0-1.15,0-2.04-.04-5.21-1.68.21-3.74.46-4.96,1.01-.34.15-.46.19-.59.19-.23,0-1.53-.82-1.53-2.04,0-.23.04-.5.06-.71.52.67,1.03,1.32,1.97,1.32.19,0,4.58-.29,5.04-.34-.02-.53-.02-3.02-.06-3.34-.06-.63-.13-1.03-1.85-1.26.17-.13.73-.53,1.22-.53.67,0,2.29.71,2.29,1.15,0,.11-.04.21-.42,1.05-.17.38-.21,2.31-.23,2.86.5-.04,4.37-.32,4.6-.36.15-.02.82-.25.97-.25.23,0,1.87.44,1.87,1.07,0,.13-.04.5-.44.5-.1,0-1.6-.29-1.89-.34-.92-.15-1.76-.23-2.79-.23-1.11,0-1.95.08-2.31.13,0,1.89,0,5.65.1,7.37.02.34.02.38.02.57,0,.57,0,2.69-.92,2.69-.27,0-.31-.13-.67-.92-.21-.48-.27-.53-.55-.73-1.26-.97-1.6-1.2-1.97-1.43l.04-.11ZM1173.37,62.34c0,.38-.23.8-.55.8-.34,0-.46-.17-1.22-1.28-1.2-1.74-1.74-2.29-3.4-3.8,2.5.55,5.17,3.07,5.17,4.28ZM1172.4,51.36c.34.19.99.57.99,1.32,0,.34-.17.53-.44.53s-.38-.11-1.18-.97c-.65-.69-.99-.94-1.91-1.53.4,0,1.28-.02,2.54.65ZM1172.36,49.43c.94,0,2.02.4,2.41.63.44.27.63.84.63,1.16,0,.38-.19.55-.38.55-.27,0-.57-.36-1.09-.9-.82-.9-1.72-1.22-2.12-1.39.27-.04.34-.04.55-.04Z"/><path class="cls-4" d="M1178.93,58.2c0,.42-.27.69-.61.69-.25,0-.29-.08-.73-.95,0,0-.76-1.43-1.57-2.22,1.53.15,2.92,1.83,2.92,2.48ZM1177.93,66.18c1.22-.52,3.59-1.57,6.36-5.94,1.51-2.41,1.68-3.67,1.68-4.05,0-.4-.27-.63-1.11-1.07.27-.08.59-.17.97-.17.73,0,1.72.97,1.72,1.3,0,.19-.04.25-.42.69-.13.17-.19.25-.38.65-.84,1.81-1.78,3.86-3.99,6.11-1.6,1.62-3.36,2.29-4.81,2.71l-.02-.23ZM1182.59,57.34c0,.65-.4.76-.55.76-.36,0-.42-.19-.67-.97-.31-.99-.94-1.81-1.34-2.29,1.22.44,2.56,1.34,2.56,2.5Z"/><path class="cls-4" d="M1189.31,66.69c4.43-2.18,9.18-7.37,10.94-12.24-.61.04-3.36.44-3.93.44-.27,0-.61-.04-1.26-.38-.5.71-1.3,1.83-2.71,3.11-.69.63-1.68,1.41-2.83,1.89l-.08-.15c3.34-2.73,5.56-6.8,5.56-7.6,0-.42-.38-.63-1.18-1.05.19-.06.48-.15,1.05-.15.38,0,.63,0,1.66.74.38.27.44.36.44.57,0,.19-.08.31-.31.54-.31.32-.38.38-1.3,1.68.17.02.52.04.76.04,1.05,0,3.65-.29,4.14-.61.1-.06.55-.44.67-.44.1,0,.17.04.29.17.88.71,1.3,1.05,1.3,1.34,0,.13-.04.13-.48.38-.69.38-.8.44-1.28,1.45-2.9,6.05-7.26,9.26-11.42,10.41l-.02-.15Z"/><path class="cls-4" d="M1204.01,65.24c4.66-1.95,9.53-7.31,11.46-12.64-.65.13-3.46.61-4.03.73-.84.21-1.72.44-2.41.82-.29.17-.38.21-.5.21-.27,0-.63-.5-.88-.86-.21-.29-.38-.61-.38-1.01,0-.29.1-.63.19-.92.1.19.19.4.44.69.36.42.55.55,1.03.55.92,0,5.19-.59,5.82-.84.25-.1.36-.17.84-.48.17-.12.23-.12.29-.12.21,0,1.64,1.09,1.64,1.43,0,.25-.13.29-.8.5-.1.02-.17.17-.23.29-1.18,2.6-2.33,4.2-2.96,5.04,2.75,1.32,6.17,3.63,6.17,5.71,0,.15,0,.82-.63.82-.31,0-.46-.21-.61-.46-1.39-2.29-2.79-4.16-5.19-5.73-1.3,1.66-4.37,5.42-9.22,6.45l-.04-.17Z"/><rect class="cls-5" x="938.81" y="15.99" width="24.11" height="24.11" rx="12.05" ry="12.05"/><rect class="cls-5" x="938.81" y="45.14" width="24.11" height="24.11" rx="12.05" ry="12.05"/><path class="cls-3" d="M955.38,22.62v.79c-1.8,2.82-3.27,5.96-3.55,9.51-.08.96-.15,1.83-1.12,1.83s-.96-1.02-.96-1.12c0-.88,1.39-4.57,4.62-9.59h-3.97c-1.1,0-1.62,1.44-1.78,1.91l-.44-.1.68-3.24h6.51Z"/><path class="cls-3" d="M948.62,54.51c0-1.68,1.36-3.01,3.24-3.01,1.73,0,3.08,1.17,3.08,2.62s-1.22,2.19-2.2,2.75c1.44.89,2.72,1.75,2.72,3.48s-1.28,3.56-3.78,3.56c-1.93,0-3.58-1.12-3.58-3.03,0-1.73,1.33-2.59,2.63-3.37-.92-.6-2.11-1.41-2.11-3.01ZM949.71,60.66c0,1.62,1.1,2.62,2.35,2.62,1.18,0,2.27-.88,2.27-2.16,0-1.52-1.23-2.24-3.11-3.32-.53.42-1.51,1.17-1.51,2.85ZM953.53,54.13c0-1.22-.81-2.09-1.94-2.09s-1.86.81-1.86,1.85c0,1.2,1,1.86,2.4,2.67.5-.39,1.41-1.09,1.41-2.43Z"/><path class="cls-4" d="M120.48,36.97c2.44-1.05,5.14-3.55,6.63-5.31,2.65-3.13,4.18-6.8,4.18-6.89,0-.04-.02-.11-.17-.11-.31,0-3.28.46-3.63.46-.46,0-.88-.13-1.26-.4-2.04,2.69-3.42,4.12-5.71,5.17l-.06-.13c3.36-2.79,5.63-7.05,5.63-7.71,0-.53-.97-.95-1.24-1.05.25-.08.65-.21.99-.21.78,0,2.18.82,2.18,1.32,0,.17-.04.23-.38.57-.19.23-.94,1.39-1.09,1.6.15.02.4.04.78.04,1.3,0,3.59-.25,3.97-.61.06-.06.36-.36.42-.4s.13-.06.19-.06c.19,0,1.05.73,1.28.94.25.21.38.34.38.5,0,.27-.23.36-.76.57-.27.12-.46.48-.71.94-1.7,3.3-4.87,8.94-11.57,10.92l-.04-.17ZM135.09,23.05c0,.34-.19.55-.5.55-.25,0-.31-.08-1.01-.82-.82-.88-1.3-1.28-2.02-1.85,1.41.21,3.53.94,3.53,2.12ZM137.15,22.14c0,.29-.13.44-.36.44-.21,0-.5-.19-.78-.44-1.28-1.09-1.57-1.39-2.67-1.91,1.07.06,3.8.19,3.8,1.91Z"/><path class="cls-4" d="M140.4,37.03c5.23-2.29,8.5-7.6,9.01-10.71-1.62.13-7.62.69-8.57,1.3-.4.27-.44.29-.59.29-.55,0-1.97-1.22-1.97-2.33,0-.17.02-.34.1-.65.5.8,1.28,1.36,2.27,1.36.78,0,7.79-.57,8.34-.69.19-.04.38-.11.9-.57.13-.13.21-.17.29-.17.23,0,1.66,1.05,1.66,1.45,0,.21-.06.23-.67.53-.42.21-.44.25-.69.92-.19.46-1.83,4.45-4.87,6.95-1.49,1.24-3.25,2.12-5.17,2.46l-.04-.15ZM142.55,22.25c1.05,0,4.28-.34,5.12-.63.67-.25.76-.27.97-.27.34,0,1.47.13,1.47.67s-.59.57-2.2.67c-.99.06-5.77.57-6.26.57-.42,0-1.43-.46-1.6-2,.94.8,1.26.99,2.5.99Z"/><path class="cls-4" d="M159.83,24.22c0,.15-.1.71-.71.71-.38,0-.55-.17-1.2-.82-1.15-1.16-2.2-1.68-3.38-2.25,2.54-.04,5.29,1.03,5.29,2.35ZM168.56,23.86c-1.57,3.09-4.01,5.61-6.72,7.75-.97.78-1.81,1.37-2.9,2.12-.61.42-.67.5-1.34,1.28-.15.17-.29.31-.57.31-.69,0-1.97-1.6-1.97-2.48,0-.36.17-.63.29-.88.38.86.92,1.34,1.34,1.34.67,0,2.62-1.39,3.4-1.95,4.54-3.32,5.96-4.85,8.34-7.58l.13.08Z"/><path class="cls-4" d="M178.81,29.89c0,.57-.27.76-.52.76-.29,0-.34-.06-1.05-.78-1.62-1.62-3.49-2.77-4.54-3.19-.02.34-.02,7.18,0,7.54,0,.27.06,1.3.06,1.51,0,.44,0,1.47-.63,1.47-.48,0-.84-.92-.84-1.66,0-.21.15-.97.19-1.24.08-.48.29-10.73.29-11.17,0-1.93-.23-2.29-1.89-2.67.25-.17.69-.48,1.32-.48.67,0,2.1.52,2.1,1.05,0,.21-.19.71-.25.92-.31.92-.34,3.25-.36,4.33,1.78.38,6.11,1.8,6.11,3.61ZM176.94,22.54c.94,0,3.61.65,3.61,2.1,0,.23-.13.61-.44.61s-.38-.08-1.07-.88c-.61-.71-1.24-1.09-2.58-1.81.04,0,.36-.02.48-.02ZM179.13,21.05c.73,0,1.68.19,2.29.46.65.27.92.86.92,1.26,0,.21-.06.59-.36.59-.17,0-.23-.04-.82-.5-1.11-.9-1.68-1.2-2.73-1.76.29-.04.46-.04.69-.04Z"/><path class="cls-4" d="M193.3,25.14c0,.15-.19.74-.23.86-.17.95-.34,5.17-.42,6.03.94-.06,4.28-.12,5.27-.12.13,0,.55,0,.63-.02.13-.02.73-.13.82-.13.52,0,1.91.59,1.91,1.36,0,.23-.1.36-.29.36-.08,0-.73-.15-1.09-.23-1.85-.46-2.98-.57-4.58-.57-1.83,0-7.12.36-9.01.97-.15.04-.82.34-.88.34-.42,0-1.76-.92-1.76-1.97,0-.19.04-.34.1-.55.29.55.97,1.2,1.87,1.2.25,0,.5-.02.76-.04,3.88-.42,4.33-.48,5.27-.52.23-3.65.27-4.22.27-4.79,0-1.6-.21-2.18-.55-2.65-.44.04-1.24.08-2.08.21-.15.02-.78.15-.9.15-.61,0-1.13-.63-1.26-.78-.4-.46-.42-.76-.44-1.05.48.52,1.43.88,2.37.88,1.05,0,6.15-.5,6.45-.59.29-.06.42-.13.73-.27.1-.06.19-.06.27-.06.13,0,1.43.29,1.43.88,0,.25-.31.25-.48.25-1.03,0-1.95.08-4.64.27.23.21.46.44.46.59Z"/><path class="cls-4" d="M209.26,24.22c0,.15-.1.71-.71.71-.38,0-.55-.17-1.2-.82-1.15-1.16-2.2-1.68-3.38-2.25,2.54-.04,5.29,1.03,5.29,2.35ZM218,23.86c-1.57,3.09-4.01,5.61-6.72,7.75-.97.78-1.81,1.37-2.9,2.12-.61.42-.67.5-1.34,1.28-.15.17-.29.31-.57.31-.69,0-1.97-1.6-1.97-2.48,0-.36.17-.63.29-.88.38.86.92,1.34,1.34,1.34.67,0,2.62-1.39,3.4-1.95,4.54-3.32,5.96-4.85,8.34-7.58l.13.08Z"/><path class="cls-4" d="M227.87,28.8c.31.29.5.73.5,1.2,0,.5-.19.8-.48.8-.27,0-.48-.21-.94-.69-1.51-1.6-3.09-2.58-4.64-3.34-.02,1.91-.04,3.86-.04,5.77,0,.44.06,2.37.06,2.75,0,1.01,0,1.91-.63,1.91-.71,0-.88-1.34-.88-1.58,0-.04.17-1.09.19-1.22.17-1.13.31-8.8.31-9.6,0-.65,0-2.81-.15-3.34-.15-.55-.71-.76-1.72-1.05.73-.46,1.32-.48,1.36-.48.31,0,2.1.4,2.1,1.11,0,.11-.21.73-.31,1.09-.23.71-.25,3.23-.27,4.16,1.57.36,4.2,1.22,5.54,2.5Z"/><path class="cls-4" d="M232.66,37.03c5.23-2.29,8.5-7.6,9.01-10.71-1.62.13-7.62.69-8.57,1.3-.4.27-.44.29-.59.29-.55,0-1.97-1.22-1.97-2.33,0-.17.02-.34.1-.65.5.8,1.28,1.36,2.27,1.36.78,0,7.79-.57,8.34-.69.19-.04.38-.11.9-.57.13-.13.21-.17.29-.17.23,0,1.66,1.05,1.66,1.45,0,.21-.06.23-.67.53-.42.21-.44.25-.69.92-.19.46-1.83,4.45-4.87,6.95-1.49,1.24-3.25,2.12-5.17,2.46l-.04-.15ZM234.8,22.25c1.05,0,4.28-.34,5.12-.63.67-.25.76-.27.97-.27.34,0,1.47.13,1.47.67s-.59.57-2.2.67c-.99.06-5.77.57-6.26.57-.42,0-1.43-.46-1.6-2,.94.8,1.26.99,2.5.99Z"/><path class="cls-4" d="M252.08,24.22c0,.15-.1.71-.71.71-.38,0-.55-.17-1.2-.82-1.15-1.16-2.2-1.68-3.38-2.25,2.54-.04,5.29,1.03,5.29,2.35ZM260.82,23.86c-1.57,3.09-4.01,5.61-6.72,7.75-.97.78-1.81,1.37-2.9,2.12-.61.42-.67.5-1.34,1.28-.15.17-.29.31-.57.31-.69,0-1.97-1.6-1.97-2.48,0-.36.17-.63.29-.88.38.86.92,1.34,1.34,1.34.67,0,2.62-1.39,3.4-1.95,4.54-3.32,5.96-4.85,8.34-7.58l.13.08Z"/><path class="cls-4" d="M261.56,35.54c4.66-1.95,9.53-7.31,11.46-12.64-.65.13-3.46.61-4.03.73-.84.21-1.72.44-2.41.82-.29.17-.38.21-.5.21-.27,0-.63-.5-.88-.86-.21-.29-.38-.61-.38-1.01,0-.29.1-.63.19-.92.1.19.19.4.44.69.36.42.55.55,1.03.55.92,0,5.19-.59,5.82-.84.25-.1.36-.17.84-.48.17-.12.23-.12.29-.12.21,0,1.64,1.09,1.64,1.43,0,.25-.13.29-.8.5-.1.02-.17.17-.23.29-1.18,2.6-2.33,4.2-2.96,5.04,2.75,1.32,6.17,3.63,6.17,5.71,0,.15,0,.82-.63.82-.31,0-.46-.21-.61-.46-1.39-2.29-2.79-4.16-5.19-5.73-1.3,1.66-4.37,5.42-9.22,6.45l-.04-.17Z"/><path class="cls-4" d="M280.33,33.82c-.38,0-.61-.31-.61-.73,0-.57.34-.78.9-1.11,1.6-.97,2.35-2.16,3.17-3.49-.42,3.51-2.58,5.33-3.46,5.33ZM284.19,33.54c1.09.36,2.5.71,2.69.71.17,0,.23-.13.23-.15.1-.21.1-1.55.1-1.91,0-.73-.02-4.01-.02-4.68,0-.34.02-.84.02-1.26-3.88.53-4.28.57-5.04.9-.4.19-.44.21-.57.21-.34,0-1.51-.86-1.51-2.12,0-.11,0-.23.06-.59.69.99,1.09,1.28,1.97,1.28.44,0,4.33-.25,5.08-.29,0-.84,0-3.48-.29-3.97-.19-.27-.65-.55-1.68-.65.46-.29.86-.52,1.3-.52.61,0,1.76.63,1.99.8.08.04.25.17.25.38,0,.15-.29.74-.34.86-.25.67-.27,1.45-.29,3.04,3.99-.25,4.35-.29,4.6-.34.13-.02.67-.21.78-.21.17,0,1.95.25,1.95,1.09,0,.25-.1.44-.38.44-.31,0-1.22-.17-1.74-.27-1.2-.23-2.92-.23-3.32-.23-1.13,0-1.55.04-1.91.06v4.45c0,.55.1,2.98.1,3.46,0,.92-.02,1.62-.42,2.31-.21.38-.4.38-.5.38-.42,0-.5-.34-.59-.65-.06-.17-.21-.63-.46-.86-.23-.19-1.05-.86-2.08-1.55v-.13ZM293.79,30.44c.4.34,1.49,1.26,1.49,2.27,0,.15-.04.82-.61.82-.31,0-.36-.06-.97-1.03-.97-1.53-2.16-2.9-3.53-4.05,1.36.29,2.54,1.09,3.61,1.99Z"/><path class="cls-4" d="M299.69,28c.29.08.5.08,2.35.08.38,0,7.33-.04,8.8-.21.4-.04.42-.04.67-.15.13-.04.25-.06.4-.06.1,0,1.95.21,1.95.82,0,.5-.55.5-1.11.5-.31,0-2.29-.13-2.73-.13-1.26,0-7.2.11-8.23.21-.25.02-.86.08-1.45.29-.4.15-.5.19-.65.19s-.27,0-.78-.61c-.15-.17-.61-.71-.61-1.51,0-.29.02-.55.17-.82.27.76.73,1.26,1.22,1.38Z"/><path class="cls-4" d="M316.24,35.92c1.28-1.09,2.25-2.5,2.94-4.01,1.05-2.33,1.09-4.3,1.09-6.03s0-1.93-1.49-2.27c.21-.21.55-.52,1.05-.52.65,0,1.83.54,1.83,1.01,0,.12-.15.67-.17.8-.02.32-.04,1.72-.06,2-.13,2.04-.42,4.47-2.16,6.78-.63.84-1.6,1.85-2.92,2.39l-.1-.15ZM333.33,26.17c-1.11,2.92-3.46,5.19-5.86,7.1-.23.19-1.36.94-1.53,1.16-.52.69-.59.78-.8.78-.4,0-1.2-1.51-1.2-1.72,0-.13.19-.71.21-.82.15-.76.17-1.89.17-4.7,0-.88,0-4.09-.1-4.81-.06-.46-.17-.73-1.41-1.24.21-.13.57-.38.99-.38.55,0,1.43.53,1.83.88.1.08.21.23.21.42,0,.12-.17.63-.19.73-.08.29-.19.9-.23,1.55-.06,1.39-.1,5.98-.1,7.52,0,.31,0,.36.06.36.25,0,4.12-1.89,7.81-6.95l.15.13Z"/><path class="cls-4" d="M345.58,28.57c0,.82-.67,1.45-1.45,1.45s-1.45-.65-1.45-1.45.63-1.45,1.45-1.45,1.45.65,1.45,1.45Z"/><path class="cls-4" d="M357.88,37.03c5.23-2.29,8.5-7.6,9.01-10.71-1.62.13-7.62.69-8.57,1.3-.4.27-.44.29-.59.29-.55,0-1.97-1.22-1.97-2.33,0-.17.02-.34.1-.65.5.8,1.28,1.36,2.27,1.36.78,0,7.79-.57,8.34-.69.19-.04.38-.11.9-.57.13-.13.21-.17.29-.17.23,0,1.66,1.05,1.66,1.45,0,.21-.06.23-.67.53-.42.21-.44.25-.69.92-.19.46-1.83,4.45-4.87,6.95-1.49,1.24-3.25,2.12-5.17,2.46l-.04-.15ZM360.02,22.25c1.05,0,4.28-.34,5.12-.63.67-.25.76-.27.97-.27.34,0,1.47.13,1.47.67s-.59.57-2.2.67c-.99.06-5.77.57-6.26.57-.42,0-1.43-.46-1.6-2,.94.8,1.26.99,2.5.99Z"/><path class="cls-4" d="M375.52,36.9c3.97-2.2,5.98-4.62,7.24-8.42.55-1.64.82-3.04.82-3.21,0-.06-.02-.06-.08-.06-.21,0-1.07.08-1.24.08-3.65.25-5.35.15-7.03.38-.13,0-.67.11-.78.11-.04,0-.42-.15-.63-.25.06.86.15,3.55.15,4.37,0,.5-.25.71-.46.71-.44,0-.8-.84-.8-1.18,0-.08.06-.46.08-.54.02-.21.04-.67.04-.86,0-2.73-.19-3.11-1.24-3.84,1.18-.08,1.49.12,1.91.42.52.36.57.38.78.38.17,0,2.33-.1,2.65-.12.57-.02.63-.04,1.26-.06-.02-2.56-.04-2.65-.15-2.83-.17-.25-.36-.44-1.6-.67.21-.15.76-.54,1.28-.54.65,0,1.51.48,1.74.63.13.06.21.15.21.34,0,.17-.27.86-.31.99-.06.23-.1.46-.17,1.36-.02.38-.02.53-.02.67.44-.02,3.4-.17,3.65-.21.27-.04.69-.17.94-.36.19-.13.23-.17.31-.17.13,0,.19.06.78.55.19.17.82.71.82.9,0,.17-.06.21-.59.5-.44.23-.46.31-.69,1.11-.97,3.49-2.06,5.48-4.41,7.54-2.04,1.78-3.67,2.27-4.41,2.48l-.06-.17Z"/><path class="cls-4" d="M393.65,24.22c0,.15-.1.71-.71.71-.38,0-.55-.17-1.2-.82-1.15-1.16-2.2-1.68-3.38-2.25,2.54-.04,5.29,1.03,5.29,2.35ZM402.38,23.86c-1.57,3.09-4.01,5.61-6.72,7.75-.97.78-1.81,1.37-2.9,2.12-.61.42-.67.5-1.34,1.28-.15.17-.29.31-.57.31-.69,0-1.97-1.6-1.97-2.48,0-.36.17-.63.29-.88.38.86.92,1.34,1.34,1.34.67,0,2.62-1.39,3.4-1.95,4.54-3.32,5.96-4.85,8.34-7.58l.13.08Z"/><path class="cls-4" d="M404.52,25.69c1.03,0,2.5.12,3.09.52.65.44.92,1.03.92,1.49,0,.29-.1.44-.44.44-.29,0-1.72-1.01-2.06-1.2-.9-.5-1.66-.8-2.75-1.18.4-.04.73-.08,1.24-.08ZM419.16,25.19c-2.71,4.14-6.13,7.79-10.41,10.27-.29.17-.31.19-.63.59-.23.29-.4.4-.63.4s-.92-.5-1.39-1.07c-.4-.5-.57-1.13-.48-2.1,1.09,1.18,1.32,1.34,1.66,1.34.92,0,6.03-3.09,11.8-9.55l.08.13ZM406.69,20.99c1.07,0,2.81.38,3.34.92.36.36.59.88.59,1.26,0,.36-.13.57-.4.57s-.38-.11-1.26-.82c-1.18-.97-1.83-1.3-3.17-1.87.4-.04.61-.06.9-.06ZM417.27,22.18c.25.15.9.55.9,1.32,0,.4-.19.59-.44.59-.23,0-.27-.06-.76-.65-1.15-1.41-1.78-1.81-2.2-2.1.46.02,1.18.06,2.5.84ZM420.1,21.6c0,.36-.25.5-.46.5-.23,0-.25,0-.82-.63-.61-.65-1.43-1.15-2.39-1.7,2.86-.04,3.67,1.2,3.67,1.83Z"/><path class="cls-4" d="M130.51,54.84c0,.15-.19.74-.23.86-.17.95-.34,5.17-.42,6.03.94-.06,4.28-.12,5.27-.12.13,0,.55,0,.63-.02.13-.02.73-.13.82-.13.52,0,1.91.59,1.91,1.36,0,.23-.1.36-.29.36-.08,0-.73-.15-1.09-.23-1.85-.46-2.98-.57-4.58-.57-1.83,0-7.12.36-9.01.97-.15.04-.82.34-.88.34-.42,0-1.76-.92-1.76-1.97,0-.19.04-.34.1-.55.29.55.97,1.2,1.87,1.2.25,0,.5-.02.76-.04,3.88-.42,4.33-.48,5.27-.52.23-3.65.27-4.22.27-4.79,0-1.6-.21-2.18-.55-2.65-.44.04-1.24.08-2.08.21-.15.02-.78.15-.9.15-.61,0-1.13-.63-1.26-.78-.4-.46-.42-.76-.44-1.05.48.52,1.43.88,2.37.88,1.05,0,6.15-.5,6.45-.59.29-.06.42-.13.73-.27.1-.06.19-.06.27-.06.13,0,1.43.29,1.43.88,0,.25-.31.25-.48.25-1.03,0-1.95.08-4.64.27.23.21.46.44.46.59Z"/><path class="cls-4" d="M146.47,53.92c0,.15-.1.71-.71.71-.38,0-.55-.17-1.2-.82-1.15-1.16-2.2-1.68-3.38-2.25,2.54-.04,5.29,1.03,5.29,2.35ZM155.21,53.56c-1.57,3.09-4.01,5.61-6.72,7.75-.97.78-1.81,1.37-2.9,2.12-.61.42-.67.5-1.34,1.28-.15.17-.29.31-.57.31-.69,0-1.97-1.6-1.97-2.48,0-.36.17-.63.29-.88.38.86.92,1.34,1.34,1.34.67,0,2.62-1.39,3.4-1.95,4.54-3.32,5.96-4.85,8.34-7.58l.13.08Z"/><path class="cls-4" d="M165.08,58.5c.31.29.5.73.5,1.2,0,.5-.19.8-.48.8-.27,0-.48-.21-.94-.69-1.51-1.6-3.09-2.58-4.64-3.34-.02,1.91-.04,3.86-.04,5.77,0,.44.06,2.37.06,2.75,0,1.01,0,1.91-.63,1.91-.71,0-.88-1.34-.88-1.58,0-.04.17-1.09.19-1.22.17-1.13.31-8.8.31-9.6,0-.65,0-2.81-.15-3.34-.15-.55-.71-.76-1.72-1.05.73-.46,1.32-.48,1.36-.48.31,0,2.1.4,2.1,1.11,0,.11-.21.73-.31,1.09-.23.71-.25,3.23-.27,4.16,1.57.36,4.2,1.22,5.54,2.5Z"/><path class="cls-4" d="M169.87,66.73c5.23-2.29,8.5-7.6,9.01-10.71-1.62.13-7.62.69-8.57,1.3-.4.27-.44.29-.59.29-.55,0-1.97-1.22-1.97-2.33,0-.17.02-.34.1-.65.5.8,1.28,1.36,2.27,1.36.78,0,7.79-.57,8.34-.69.19-.04.38-.11.9-.57.13-.13.21-.17.29-.17.23,0,1.66,1.05,1.66,1.45,0,.21-.06.23-.67.53-.42.21-.44.25-.69.92-.19.46-1.83,4.45-4.87,6.95-1.49,1.24-3.25,2.12-5.17,2.46l-.04-.15ZM172.01,51.95c1.05,0,4.28-.34,5.12-.63.67-.25.76-.27.97-.27.34,0,1.47.13,1.47.67s-.59.57-2.2.67c-.99.06-5.77.57-6.26.57-.42,0-1.43-.46-1.6-2,.94.8,1.26.99,2.5.99Z"/><path class="cls-4" d="M189.29,53.92c0,.15-.1.71-.71.71-.38,0-.55-.17-1.2-.82-1.15-1.16-2.2-1.68-3.38-2.25,2.54-.04,5.29,1.03,5.29,2.35ZM198.03,53.56c-1.57,3.09-4.01,5.61-6.72,7.75-.97.78-1.81,1.37-2.9,2.12-.61.42-.67.5-1.34,1.28-.15.17-.29.31-.57.31-.69,0-1.97-1.6-1.97-2.48,0-.36.17-.63.29-.88.38.86.92,1.34,1.34,1.34.67,0,2.62-1.39,3.4-1.95,4.54-3.32,5.96-4.85,8.34-7.58l.13.08Z"/><path class="cls-4" d="M198.76,65.24c4.66-1.95,9.53-7.31,11.46-12.64-.65.13-3.46.61-4.03.73-.84.21-1.72.44-2.41.82-.29.17-.38.21-.5.21-.27,0-.63-.5-.88-.86-.21-.29-.38-.61-.38-1.01,0-.29.1-.63.19-.92.1.19.19.4.44.69.36.42.55.55,1.03.55.92,0,5.19-.59,5.82-.84.25-.1.36-.17.84-.48.17-.12.23-.12.29-.12.21,0,1.64,1.09,1.64,1.43,0,.25-.13.29-.8.5-.1.02-.17.17-.23.29-1.18,2.6-2.33,4.2-2.96,5.04,2.75,1.32,6.17,3.63,6.17,5.71,0,.15,0,.82-.63.82-.31,0-.46-.21-.61-.46-1.39-2.29-2.79-4.16-5.19-5.73-1.3,1.66-4.37,5.42-9.22,6.45l-.04-.17Z"/><path class="cls-4" d="M217.54,63.52c-.38,0-.61-.31-.61-.73,0-.57.34-.78.9-1.11,1.6-.97,2.35-2.16,3.17-3.49-.42,3.51-2.58,5.33-3.46,5.33ZM221.4,63.24c1.09.36,2.5.71,2.69.71.17,0,.23-.13.23-.15.1-.21.1-1.55.1-1.91,0-.73-.02-4.01-.02-4.68,0-.34.02-.84.02-1.26-3.88.53-4.28.57-5.04.9-.4.19-.44.21-.57.21-.34,0-1.51-.86-1.51-2.12,0-.11,0-.23.06-.59.69.99,1.09,1.28,1.97,1.28.44,0,4.33-.25,5.08-.29,0-.84,0-3.48-.29-3.97-.19-.27-.65-.55-1.68-.65.46-.29.86-.52,1.3-.52.61,0,1.76.63,1.99.8.08.04.25.17.25.38,0,.15-.29.74-.34.86-.25.67-.27,1.45-.29,3.04,3.99-.25,4.35-.29,4.6-.34.13-.02.67-.21.78-.21.17,0,1.95.25,1.95,1.09,0,.25-.1.44-.38.44-.31,0-1.22-.17-1.74-.27-1.2-.23-2.92-.23-3.32-.23-1.13,0-1.55.04-1.91.06v4.45c0,.55.1,2.98.1,3.46,0,.92-.02,1.62-.42,2.31-.21.38-.4.38-.5.38-.42,0-.5-.34-.59-.65-.06-.17-.21-.63-.46-.86-.23-.19-1.05-.86-2.08-1.55v-.13ZM231,60.14c.4.34,1.49,1.26,1.49,2.27,0,.15-.04.82-.61.82-.31,0-.36-.06-.97-1.03-.97-1.53-2.16-2.9-3.53-4.05,1.36.29,2.54,1.09,3.61,1.99Z"/><path class="cls-4" d="M236.9,57.7c.29.08.5.08,2.35.08.38,0,7.33-.04,8.8-.21.4-.04.42-.04.67-.15.13-.04.25-.06.4-.06.1,0,1.95.21,1.95.82,0,.5-.55.5-1.11.5-.31,0-2.29-.13-2.73-.13-1.26,0-7.2.11-8.23.21-.25.02-.86.08-1.45.29-.4.15-.5.19-.65.19s-.27,0-.78-.61c-.15-.17-.61-.71-.61-1.51,0-.29.02-.55.17-.82.27.76.73,1.26,1.22,1.38Z"/><path class="cls-4" d="M253.45,65.62c1.28-1.09,2.25-2.5,2.94-4.01,1.05-2.33,1.09-4.3,1.09-6.03s0-1.93-1.49-2.27c.21-.21.55-.52,1.05-.52.65,0,1.83.54,1.83,1.01,0,.12-.15.67-.17.8-.02.32-.04,1.72-.06,2-.13,2.04-.42,4.47-2.16,6.78-.63.84-1.6,1.85-2.92,2.39l-.1-.15ZM270.54,55.87c-1.11,2.92-3.46,5.19-5.86,7.1-.23.19-1.36.94-1.53,1.16-.52.69-.59.78-.8.78-.4,0-1.2-1.51-1.2-1.72,0-.13.19-.71.21-.82.15-.76.17-1.89.17-4.7,0-.88,0-4.09-.1-4.81-.06-.46-.17-.73-1.41-1.24.21-.13.57-.38.99-.38.55,0,1.43.53,1.83.88.1.08.21.23.21.42,0,.12-.17.63-.19.73-.08.29-.19.9-.23,1.55-.06,1.39-.1,5.98-.1,7.52,0,.31,0,.36.06.36.25,0,4.12-1.89,7.81-6.95l.15.13Z"/><path class="cls-4" d="M137.4,80.2s-.44.32-.65.48c0,.4,0,.92.04,1.89,0,.06.02.19.02.25,0,.48-.52.67-.84.67s-.31-.23-.34-.44h-11.8c-.06,5.33-.08,6.47-.44,8.1-.46,2.21-1.51,4.6-3.21,6.19l-.1-.1c2.44-4.39,2.54-7.29,2.54-12.28,0-2.04,0-4.28-.21-6.09l1.83.76h11.06l.46-.46c.17-.17.25-.25.4-.25.1,0,.19.06.31.15l.76.61c.21.17.25.19.25.31,0,.08-.04.15-.08.21ZM138.95,96.66h-12.72c-.73,0-1.91.1-2.71.25l-.48-.9c1.57.13,3.09.15,3.49.15h3.74c0-.46.02-2.6.02-3.04h-2.25c-.76,0-1.91.08-2.71.25l-.5-.9c1.57.13,3.11.15,3.51.15h1.95c0-1.51,0-1.89-.27-2.69l1.6.46c.34.11.42.13.42.25,0,.15-.06.19-.61.65-.02.42-.02.5-.02,1.32h3.65l.61-.8c.21-.27.27-.27.31-.27.13,0,.36.19.4.21l1.05.82c.1.08.21.19.21.34,0,.19-.19.21-.31.21h-5.92v3.04h4.91l.9-.99c.13-.15.23-.27.36-.27.06,0,.13,0,.38.23l1.11.99c.13.11.21.19.21.34,0,.19-.17.21-.31.21ZM135.63,80.14h-11.78c0,.44,0,.65-.02,2.42h11.8v-2.42ZM138.45,85.57h-8.19c-.21.38-.88,1.24-1.26,1.74-.17.21-.94,1.28-1.11,1.51,1.36-.11,1.89-.15,6.51-.57-.59-.59-.92-.9-1.81-1.6l.08-.13c1.11.23,4.49,1.64,4.49,3.15,0,.27-.08.63-.52.63-.27,0-.44-.13-.65-.31-.19-.19-1.11-1.24-1.32-1.47-.69.15-4.03.82-4.79.97-.9.17-3.28.61-3.99.78-.29.4-.34.44-.48.44s-.19-.08-.23-.23l-.57-1.7c.36.06.61.13,1.41.13.61,0,.88-.02,1.3-.04.82-2.02.99-2.41,1.28-3.3h-1.03c-.42,0-1.68.04-2.69.25l-.5-.92c1.09.1,2.39.17,3.49.17h8.1l.69-.88c.17-.21.25-.29.34-.29.1,0,.29.15.4.23l1.15.9c.08.06.21.19.21.31,0,.23-.23.23-.31.23Z"/><path class="cls-4" d="M158.92,83.18v6.4c0,1.3.06,3.36.06,4.66,0,1.49,0,2.37-2.12,2.96-.21-.8-.46-1.13-2.62-1.97v-.17c.38.04,2.12.15,2.52.15.82,0,1.01-.13,1.01-1.34,0-3.63.02-7.29.02-10.92v-.32h-6.36c-.17,1.49-.27,2.2-.78,3.53,1.3.59,2.77,1.28,3.76,2.04.29.23,1.64,1.28,1.64,2.48,0,.46-.38.69-.73.69-.44,0-.65-.27-.97-.78-.78-1.26-1.57-2.54-3.8-4.22-.99,2.29-3.34,4.7-5.77,5.44l-.06-.17c1.99-1.18,3.93-3.7,4.64-5.27.67-1.45.86-2.96.94-3.74h-6.07c0,3.67.04,7.58.04,11.23,0,.76.02,1.66.02,2.25,0,.17-.02.42-.13.57-.23.34-.67.44-.9.44-.36,0-.36-.34-.36-.46,0-.61.1-3.32.13-3.86.08-3.7.1-4.56.1-5.61,0-2.08,0-4.14-.34-6.17l1.85,1.11h5.71c.02-.36.04-.69.04-1.34,0-.88-.04-1.89-.34-2.75l1.99.55c.1.02.25.06.25.29,0,.34-.36.46-.67.57-.06,1.6-.1,2.2-.17,2.69h6.05l.52-.63c.13-.15.17-.23.27-.23s.19.08.36.21l.86.67c.15.13.25.19.25.29,0,.19-.55.54-.86.73Z"/><path class="cls-4" d="M165.37,83.49c.78,0,8.38-.5,8.73-.69.13-.06.63-.5.76-.5.23,0,1.68,1.16,1.68,1.51,0,.15-.06.21-.61.55-.29.19-.4.46-.48.82-.36,1.62-1.03,5.23-1.2,6.45.73.29,1.03.4,1.03.74,0,.5-.42.5-.61.5-.13,0-1.45-.08-1.72-.08-.44,0-5.67,0-7.52.65-.13.04-.65.29-.78.29-.52,0-1.51-1.51-1.51-2.04,0-.23.08-.42.21-.67.52.82,1.11,1.26,1.87,1.26.46,0,2.48-.17,2.9-.19.8-.06,4.72-.27,5.08-.29.31-1.87.78-4.64,1.09-7.43.02-.11.04-.34.04-.42,0-.21-.08-.25-.29-.25-1.47,0-7.1.48-8.06.86-.06.02-.99.38-1.03.38-.36,0-1.53-1.18-1.53-1.85,0-.15,0-.63.17-.99.92,1.41,1.41,1.41,1.78,1.41ZM178.01,82.4c0,.29-.17.61-.44.61-.19,0-.27-.08-.94-.84-.5-.57-1.28-1.18-2.31-1.76,2.06-.04,3.7.95,3.7,1.99ZM179.9,80.95c0,.42-.21.65-.42.65-.25,0-.34-.11-1.07-.88-.61-.65-1.34-1.15-2.14-1.57,1.64-.06,3.63.76,3.63,1.81Z"/><path class="cls-4" d="M189.48,93.3c1.22.76,1.49,1.78,1.49,2.04,0,.21-.15.57-.59.57-.36,0-.61-.25-1.36-.97-2.02-1.91-5.04-3.11-8.59-4.07,3.34-.13,7.05,1.2,9.05,2.44ZM182.7,80.58c.73,0,4.3.27,6.26,1.41.82.48,1.03,1.2,1.03,1.39,0,.23-.1.5-.44.5-.25,0-.71-.29-.99-.46-2.16-1.45-2.77-1.72-6.8-2.79.48-.04.69-.04.94-.04ZM183.08,85.83c2.06,0,4.24.57,5.4,1.11.78.38,1.09,1.03,1.09,1.39s-.23.5-.5.5c-.31,0-.63-.25-1.2-.67-.84-.63-2.12-1.2-5.54-2.29.42-.04.46-.04.76-.04Z"/><path class="cls-4" d="M211.46,85.03h-7.98c-.08,1.05-.1,1.18-.15,1.66h3.82l.42-.46c.04-.06.15-.19.27-.19.1,0,.21.06.38.19l.67.46c.08.06.15.13.15.25,0,.25-.52.59-.69.71,0,.38,0,1.72.02,2.56.02.53.17,3.02.17,3.3,0,.36-.1,1.01-.86,1.01-.38,0-.38-.13-.4-.63h-6.63c0,.69-.73.82-.84.82-.34,0-.38-.23-.38-.44,0-.44.08-1.15.08-1.6.02-.86.02-2.25.02-2.33,0-1.47,0-2.92-.1-4.37l1.28.71h1.53c.1-.84.13-1.22.15-1.66h-5.82c-.65,0-1.85.08-2.71.25l-.48-.9c1.15.08,2.33.15,3.49.15h5.54c.02-1.01.02-1.09-.02-1.49l1.64.46c.08.02.17.13.17.23,0,.08-.06.23-.21.29-.06.02-.36.19-.42.23-.02.15-.02.19-.02.27h5.94l.55-.61c.06-.08.19-.27.31-.27.08,0,.19.08.38.21l.84.63c.13.1.21.19.21.34,0,.19-.17.21-.31.21ZM211.72,96.47h-14.78c0,.27-.02,1.05-.8,1.05-.08,0-.48-.02-.48-.44,0-.13.02-.34.04-.46.02-.29.02-1.01.02-1.32,0-.8.08-4.33.08-5.04,0-2.04-.04-2.27-.27-3.86l1.74.54c.19.06.29.15.29.27,0,.19-.08.29-.65.57v8.19h12.53l.61-.84c.1-.13.19-.25.31-.25s.21.06.42.23l1.03.82c.13.08.21.19.21.34,0,.19-.17.21-.31.21ZM209.39,80.2c0,.36.13,1.91.13,2.25,0,.27-.04.86-.92.86-.1,0-.34-.04-.31-.48h-11.15c.02.74-.86.8-.88.8-.42,0-.42-.29-.42-.44s.04-.78.06-.9c.02-.36.02-.92.02-1.39,0-.78-.02-1.53-.23-2.29l1.45.67h11.09l.34-.38c.06-.08.17-.19.29-.19s.36.15.48.23l.57.38c.08.06.15.13.15.23,0,.19-.21.34-.65.65ZM199.9,79.78h-2.77v2.54h2.77v-2.54ZM207.27,87.19h-6.61v1.53h6.61v-1.53ZM207.27,89.23h-6.61v1.79h6.61v-1.79ZM207.27,91.52h-6.61v1.87h6.61v-1.87ZM203.93,79.78h-2.96v2.54h2.96v-2.54ZM208.27,79.78h-3.28v2.54h3.28v-2.54Z"/><path class="cls-4" d="M220.85,84.31h-2.9v1.22c0,.86,0,4.05.02,5.12,1.89-.8,2.44-1.09,2.79-1.28l.08.15c-.25.25-.59.59-2.14,1.51-.31.19-3.09,1.83-3.46,2.04-.04.27-.15.78-.4.78-.15,0-.27-.23-.34-.36l-.88-1.62c.73-.02,1.26-.04,3.19-.78-.02-2.27-.02-4.51-.02-6.78-.21,0-1.45.04-2.41.23l-.5-.9c.71.06,1.66.13,2.92.15,0-.74,0-2.98-.1-3.97-.06-.55-.25-1.07-.34-1.3l2.02.63c.19.06.34.11.34.31,0,.25-.48.44-.73.55-.02.59-.02,3.25-.02,3.8h1.05l.5-.76c.15-.23.23-.27.29-.27.17,0,.27.1.4.23l.78.76c.17.17.19.25.19.31,0,.23-.23.23-.31.23ZM232.78,87.63h-8.61c-.19.4-.48.99-1.15,1.95h7.03l.34-.5c.06-.11.17-.25.25-.25s.23.08.36.17l.99.63c.17.11.21.17.21.32,0,.27-.29.38-.8.57-.17,3.48-.92,5.19-1.26,5.75-.73,1.28-1.87,1.26-2.29,1.26-.08-.48-.13-.78-1.47-1.76v-.17c.99.17,1.68.27,2.1.27.57,0,.84-.25,1.3-1.97.31-1.22.36-1.78.48-3.8h-1.68c-1.01,2.41-2.08,3.93-2.88,4.83-1.07,1.22-2.1,1.93-3.59,2.5l-.13-.13c1.85-1.39,3.78-3.36,5.25-7.2h-1.6c-2.52,4.28-4.72,5.82-7.35,6.87l-.06-.17c2.79-1.72,4.93-4.51,6-6.7h-1.57c-1.01,1.3-2.18,2.48-3.65,3.17l-.13-.13c1.72-1.49,2.98-3.42,3.86-5.5h-.48c-.65,0-1.85.06-2.71.23l-.48-.9c1.15.11,2.33.17,3.49.17h7.87l.67-.92c.1-.15.19-.27.31-.27s.27.15.38.23l1.09.92c.1.08.21.17.21.32,0,.19-.19.23-.31.23ZM229.13,80.32c0,.55.04,3.04.06,3.55.04.78.06,1.41.06,1.57,0,.21-.02.38-.25.53-.19.15-.44.19-.55.19-.42,0-.42-.27-.4-.76h-4.14c0,.36,0,.4-.02.48-.04.17-.36.4-.73.4-.44,0-.44-.29-.44-.42,0-.4.06-1.03.06-1.43.02-.57.04-1.6.04-2.37,0-.99,0-2.46-.19-3.36l1.41.71h3.95l.36-.44c.13-.17.15-.17.23-.17.06,0,.08,0,.25.13l.78.55c.15.11.21.15.21.23,0,.19-.21.34-.69.61ZM228.06,79.93h-4.16v2.12h4.16v-2.12ZM228.06,82.55h-4.16v2.35h4.16v-2.35Z"/><rect class="cls-5" x="89.85" y="15.99" width="24.11" height="24.11" rx="12.05" ry="12.05"/><rect class="cls-5" x="89.85" y="45.14" width="24.11" height="24.11" rx="12.05" ry="12.05"/><rect class="cls-5" x="89.85" y="74.41" width="24.11" height="24.11" rx="12.05" ry="12.05"/><path class="cls-3" d="M99.34,33.66h.94c.5,0,.92-.36.92-1.02v-8.44c0-.39-.26-.83-.71-.83h-1.25v-.47c1.69-.07,2.72-.54,2.95-.63.06-.03.47-.21.5-.21.08,0,.1.06.1.16v10.45c0,.49.39.99,1.09.99h.78v.52h-5.32v-.52Z"/><path class="cls-3" d="M98.26,59.47l4.99-8.25h.81v8.25h1.67v.54h-1.67v1.83c0,.65.29.99.91.99h.42v.52h-4.26v-.52h.4c.52,0,.94-.37.94-1.02v-1.8h-4.21v-.54ZM98.87,59.47h3.6v-5.96l-3.6,5.96Z"/><path class="cls-3" d="M105.6,80.67v.79c-1.8,2.82-3.27,5.96-3.55,9.51-.08.96-.15,1.83-1.12,1.83s-.96-1.02-.96-1.12c0-.88,1.39-4.57,4.62-9.59h-3.97c-1.1,0-1.62,1.44-1.78,1.91l-.44-.1.68-3.24h6.51Z"/><rect class="cls-5" x="547.18" y="15.99" width="24.11" height="24.11" rx="12.05" ry="12.05"/><rect class="cls-5" x="547.18" y="45.14" width="24.11" height="24.11" rx="12.05" ry="12.05"/><rect class="cls-5" x="547.18" y="74.41" width="24.11" height="24.11" rx="12.05" ry="12.05"/><path class="cls-3" d="M555.72,33.74c.89-1.75,1.18-2.29,2.62-4,2.07-2.5,2.79-3.35,2.79-4.99,0-.73-.37-2.19-1.9-2.19-.79,0-1.7.41-1.7,1.25,0,.26.06.34.31.68.1.13.26.41.26.75,0,.5-.37,1-.96,1-.63,0-1.07-.55-1.07-1.18,0-1.15,1.13-3,3.42-3,2.06,0,3.39,1.41,3.39,3.08,0,1.77-1.13,2.71-3.01,4.25-.81.68-2.09,1.73-2.98,3.31h3.08c1.6,0,2.25-1.05,2.63-1.99l.36.13-.79,3.35h-6.43v-.44Z"/><path class="cls-3" d="M557.02,52.94l-.15,3.92c.39-.32,1.39-1.15,2.63-1.15,1.43,0,3.44,1.18,3.44,3.6,0,2.64-2.24,4.34-4.18,4.34-1.72,0-3.01-1.31-3.01-2.46,0-.75.58-1.2,1.1-1.2.41,0,.91.32.91,1.02,0,.21-.03.36-.11.55-.06.15-.08.19-.08.5,0,.36.06,1.02,1.12,1.02,1.49,0,2.46-1.55,2.46-3.61,0-1.88-.84-3.01-2.11-3.01-1.18,0-2.06.96-2.48,1.44l-.23-.21.23-6.17h5.72l-.34,1.43h-4.91Z"/><path class="cls-3" d="M556.17,83.39c0-1.68,1.36-3.01,3.24-3.01,1.73,0,3.08,1.17,3.08,2.62s-1.22,2.19-2.2,2.75c1.44.89,2.72,1.75,2.72,3.48s-1.28,3.56-3.78,3.56c-1.93,0-3.58-1.12-3.58-3.03,0-1.73,1.33-2.59,2.63-3.37-.92-.6-2.11-1.41-2.11-3.01ZM557.26,89.55c0,1.62,1.1,2.62,2.35,2.62,1.18,0,2.27-.88,2.27-2.16,0-1.52-1.23-2.24-3.11-3.32-.53.42-1.51,1.17-1.51,2.85ZM561.08,83.02c0-1.22-.81-2.09-1.94-2.09s-1.86.81-1.86,1.85c0,1.2,1,1.86,2.4,2.67.5-.39,1.41-1.09,1.41-2.43Z"/><rect class="cls-5" x="938.81" y="15.99" width="24.11" height="24.11" rx="12.05" ry="12.05"/><rect class="cls-5" x="938.81" y="45.14" width="24.11" height="24.11" rx="12.05" ry="12.05"/><path class="cls-3" d="M955.33,31.18c0,1.88-1.59,3.58-3.86,3.58-2.09,0-3.26-1.46-3.26-2.46,0-.57.47-1.02,1-1.02.34,0,.91.24.91,1.05,0,.21-.02.41-.1.6-.06.15-.11.29-.11.44,0,.68.79.83,1.28.83,1.64,0,2.33-1.39,2.33-2.8,0-1.96-1.25-3.03-2.32-3.03-.08,0-.49.08-.58.08-.21,0-.36-.08-.36-.32,0-.21.13-.39.37-.39.08,0,.5.08.58.08,1.13,0,2.01-.96,2.01-2.56,0-1.31-.65-2.37-1.77-2.37-.73,0-1.17.42-1.17.96,0,.15.16.81.16.96,0,.58-.45.89-.91.89-.49,0-.96-.37-.96-.94,0-1.07,1.12-2.41,3.16-2.41s3.21,1.43,3.21,2.79c0,.81-.45,2.22-2.61,2.92.92.31,2.97,1.04,2.97,3.14Z"/><path class="cls-3" d="M952.58,56.08c1.43,0,2.82,1.34,2.82,3.66,0,2.71-1.9,4.18-3.45,4.18-1.64,0-3.78-1.6-3.78-5.57,0-3.21,1.56-6.85,4.47-6.85,1.26,0,2.28.7,2.28,1.65,0,.58-.39.99-.94.99-.52,0-1.02-.39-1.02-1,0-.08.06-.47.06-.55,0-.42-.4-.54-.7-.54-.6,0-2.09.65-2.38,5.45.96-1.07,1.96-1.41,2.62-1.41ZM951.96,63.35c1.3,0,1.7-2.01,1.7-3.42,0-1.65-.57-3.05-1.64-3.05-.15,0-1.15,0-2.09,1.26.05,1.69.15,5.2,2.03,5.2Z"/><path class="cls-4" d="M129.24,137.64h-2.95c.02,1.77.02,1.96.06,3.71,1.52-.64,1.89-.8,2.41-1.05l.08.08c-.41.31-1.36.99-2.49,1.73.06,3.62.06,4.16.06,5.31,0,2.25,0,2.51-.74,3.03-.17.14-.68.45-1.19.52-.04-.95-.99-1.48-1.54-1.61v-.17c.33.04.8.1,1.4.1,1.03,0,1.03-.08,1.03-.41,0-2.04-.02-4.08-.06-6.12-.78.47-1.3.76-1.92,1.11-.02.29-.04.66-.33.66-.12,0-.17-.1-.27-.25l-.97-1.46c.8-.04,1.15-.06,3.48-1.03-.02-2.1-.04-2.35-.08-4.14-.62,0-1.71.08-2.49.23l-.45-.84c.97.08,1.54.12,2.94.14-.02-.43-.04-2.39-.1-2.78-.12-.68-.19-.91-.29-1.19l1.83.5s.27.06.27.27c0,.12,0,.19-.66.54,0,.43.02,2.27.02,2.64h1.26l.49-.58c.12-.14.19-.23.31-.23s.17.06.39.25l.6.54c.12.1.19.17.19.29,0,.18-.17.19-.29.19ZM138.92,150.53c-2.64-.06-4.57-.1-6.28-1.15-1.57-.97-2.18-2.33-2.43-2.96-.64,1.56-1.48,2.96-3.29,4.35l-.08-.1c1.83-2.29,2.57-5.02,2.76-5.91.1-.39.12-.62.16-1.3l1.59.8c.1.04.16.12.16.23,0,.23-.41.27-.72.29-.17.52-.27.82-.43,1.26.7,1.87,2.16,2.49,2.66,2.68v-6.55h-1.96c-.68,0-1.75.08-2.49.23l-.47-.85c1.46.14,2.88.16,3.23.16h6.43l.56-.72c.14-.16.21-.23.31-.23.06,0,.12,0,.33.19l.86.72c.1.1.17.17.17.31,0,.18-.16.19-.29.19h-5.64v2.84h2.06l.45-.64c.16-.21.21-.29.33-.29.1,0,.18.06.39.23l.8.66c.1.08.19.16.19.29,0,.17-.16.21-.29.21h-3.93v3.58c.72.14,1.5.19,2.24.19,1.28,0,2.59-.16,3.83-.5l.04.1c-1.21.78-1.24,1.26-1.26,1.67ZM136.96,135.15c.02.39,0,.56.04,2.16,0,.45.1,2.35.1,2.74,0,.5-.62.6-.78.6-.41,0-.41-.29-.39-.6h-4.26c.02.7-.64.7-.78.7-.35,0-.35-.25-.35-.43,0-.53.08-2.78.08-3.25,0-1.22-.04-2.39-.19-3.34l1.13.47h4.2l.18-.21c.21-.25.23-.27.31-.27s.16.04.33.16l.72.47c.08.06.21.16.21.27,0,.14-.29.37-.54.54ZM135.93,134.67h-4.28v2.22h4.28v-2.22ZM135.93,137.35h-4.28v2.24h4.28v-2.24Z"/><path class="cls-4" d="M147.44,134.49c-.12.06-.6.23-.68.27-.56,1.32-.99,2.14-1.3,2.72l.6.33c.1.06.17.12.17.23,0,.2-.19.35-.64.7,0,1.77.02,9.54.02,11.12,0,.21,0,.84-.78.84-.41,0-.45-.27-.45-.41,0-.23.19-6.12.21-7.27.06-2.04.02-3.23,0-4.08-.88,1.38-1.85,2.7-3.07,3.77l-.08-.12c1.79-2.74,4.02-6.86,4.39-9.51l1.67.91c.16.08.17.1.17.17,0,.16-.14.25-.25.31ZM151.03,147.2c-1.4,1.32-3.48,2.59-4.92,3.05l-.06-.08c1.09-.8,2.49-2.12,2.9-2.51,1.11-1.07,1.3-1.44,1.52-1.94l1.38.88c.06.04.12.17.12.27,0,.33-.27.33-.93.33ZM158.96,144.97h-9.72c-.6,0-1.71.06-2.51.21l-.45-.84c1.07.1,2.14.16,3.23.16h.33c0-3.6,0-4.06-.04-6.1-.19.02-1.34.06-2.25.23l-.45-.84c.76.06,1.59.1,2.7.14,0-.45,0-2.43-.04-2.84-.02-.23-.08-.78-.33-1.58l1.73.43c.19.06.35.1.35.29,0,.14-.02.16-.64.66v3.03h2.99c0-.45,0-2.49-.02-2.9-.04-.72-.17-1.17-.23-1.4l1.56.41c.21.06.33.08.33.25,0,.21-.45.6-.6.76v2.88h1.34l.72-.78c.14-.16.21-.25.31-.25s.25.12.35.21l.93.78c.12.1.19.17.19.31,0,.17-.16.19-.29.19h-3.56c0,1.54,0,4.61.02,6.1h1.61l.84-.99c.14-.16.21-.25.33-.25.14,0,.23.12.35.21l.99.97c.12.12.21.19.21.31,0,.17-.16.21-.29.21ZM153.89,138.4h-3.01c0,.97-.02,5.73,0,6.1h3.03c0-3.62-.02-5.05-.02-6.1ZM157.41,150.29c-.45,0-.52-.1-1.3-1.3-1.13-1.77-2.35-2.61-2.88-2.94l.04-.08c2.6.8,4.86,2.53,4.86,3.62,0,.37-.29.7-.72.7Z"/><path class="cls-4" d="M168.02,135.81c-2.35,3.46-3.46,5.11-7,7.23l-.1-.08c2.27-2.14,4.37-4.51,5.62-7.37.33-.78.33-1.17.33-1.46l1.69.99c.17.1.27.16.27.29,0,.31-.27.35-.82.39ZM176.73,149.96c-.66,0-.91-.64-1.11-1.11-.31-.8-.62-1.24-.8-1.52-1.89.64-4.55,1.19-5.54,1.38-1.59.31-3.11.62-4.76,1.01-.25.43-.27.49-.47.49-.17,0-.21-.12-.27-.25l-.58-1.89c.35.1.89.23,1.57.23.47,0,1.13-.08,1.44-.1.27-.54,1.46-3.05,2.35-5.79.49-1.48.49-1.85.45-2.41l1.77.74c.16.06.29.16.29.31,0,.29-.41.39-.78.47-1.13,2.2-1.38,2.68-1.77,3.32-.33.52-1.75,2.86-2.02,3.32,1.48-.16,6.88-.82,8.16-1.07-.7-.99-1.5-1.94-2.55-2.61l.1-.16c1.48.74,5.11,2.57,5.11,4.74,0,.82-.49.88-.6.88ZM177.57,142.34c-4.82-2.99-5.42-6.24-5.68-7.66-1.15.04-1.98.16-2.49.27l-.47-.84c.66.04,1.73.06,2.59.08l.56-.64c.17-.21.19-.25.31-.25.08,0,.25.12.41.21l.72.49c.1.06.21.14.21.29,0,.23-.19.29-.47.37-.43.12-.64.17-.89.25.49,2.8,3.19,5.27,7.12,5.91v.16c-.49.12-1.3.35-1.92,1.36Z"/><path class="cls-4" d="M196.68,135.4c0,1.91,0,7.23.02,8.81.02.88.12,5.15.12,5.5,0,.8-.78.82-.82.82-.33,0-.41-.19-.41-.43v-.72h-12.56c.02.19.02.6,0,.78-.06.29-.52.51-.84.51-.29,0-.41-.14-.41-.43,0-.16.08-.82.08-.95.14-2.88.16-8.5.16-9.53,0-4.14-.08-5.04-.08-5.07,0-.16-.08-.88-.08-1.01l1.38.7h12.19l.41-.39c.16-.14.25-.21.37-.21s.25.12.35.19l.6.53c.08.06.19.17.19.27,0,.16-.41.45-.68.64ZM195.61,134.84h-12.58v14.07h12.58v-14.07ZM194.4,139.25h-7.81c-.62,0-1.71.06-2.51.21l-.45-.84c1.07.1,2.16.16,3.23.16h1.85v-1.5h-1.21c-.64,0-1.73.08-2.51.23l-.47-.84c1.09.08,2.16.14,3.25.14h.91c-.02-.54-.21-1.34-.25-1.52l1.46.31c.17.04.25.06.25.19,0,.19-.17.31-.52.54v.47h2.08l.35-.35c.17-.17.23-.21.31-.21.1,0,.12,0,.35.17l.52.39c.12.08.19.14.19.27,0,.17-.18.19-.29.19h-3.52v1.5h3.19l.47-.49c.1-.1.19-.23.33-.23.12,0,.25.14.35.21l.54.47c.16.14.21.17.21.29,0,.17-.16.21-.31.21ZM193.32,147.81c-.25,0-.33-.08-.8-.58-.91-.99-1.89-1.55-2.88-2,0,.37.06,1.96.06,2.29,0,.7-.78.82-.82.82-.12,0-.27-.12-.27-.41s.08-1.58.08-1.85c.02-.7.04-1.71.06-2.27-1.17,1.46-3.17,2.95-5.04,3.54l-.06-.12c1.65-.91,3.77-2.92,4.59-4.14h-1.54c0,.25,0,.27-.08.37-.08.1-.35.29-.56.29-.33,0-.33-.23-.33-.35,0-.17.04-.99.04-1.15.02-.62.04-1.19.04-1.36,0-.31-.02-.37-.14-.95l.99.35h5l.21-.21c.1-.1.14-.19.25-.19.08,0,.19.1.27.17l.54.49c.08.06.16.14.16.23,0,.12-.25.29-.47.43,0,.27.04,1.58.02,1.77-.02.35-.54.49-.66.49-.25,0-.35-.1-.31-.37h-2.06c0,.62,0,1.36.02,1.98.58.14.8.19,1.07.27.7-.5,1.3-1.05,1.69-1.73l.85.72c.08.08.14.19.14.25,0,.23-.27.23-.33.23s-.16,0-.39-.06c-.27.14-.8.41-1.69.66.62.19,2.78.89,2.78,1.91,0,.27-.21.49-.45.49ZM191.7,140.75h-5v1.87h5v-1.87Z"/><path class="cls-4" d="M207.37,151.36c-.97-.78-4.53-4.1-4.53-9.41s3.56-8.63,4.53-9.41l.19.27c-3.17,3.29-3.87,6.88-3.87,9.14s.7,5.85,3.87,9.14l-.19.27Z"/><path class="cls-4" d="M220.08,144.93h-5.33l.62.27c.18.08.25.1.25.25,0,.27-.33.35-.6.41-.04.16-.06.19-.1.33h2.24l.25-.23c.12-.1.17-.14.23-.14s.14.06.19.1l.68.53c.08.06.19.16.19.27,0,.16-.21.33-.62.49-.39,2.55-.52,3.27-2.6,3.73-.08-.25-.14-.41-.23-.58-.12-.25-.14-.25-.89-.86l.02-.08c.47.14.93.25,1.4.25s.74-.14.91-.6c.08-.19.41-1.26.45-2.41h-2.37c-.29.72-.66,1.36-1.17,1.94-1.32,1.57-2.99,2.08-3.52,2.25l-.08-.17c2.41-1.32,3.89-3.4,4.18-5.75h-1.52c-.39,0-1.57.04-2.51.23l-.45-.84c1.01.08,2.22.14,3.23.14h1.65c.02-.82-.14-1.56-.23-1.87l1.36.35c.1.04.25.08.25.25,0,.25-.33.45-.49.52v.74h2.86l.43-.68c.12-.19.19-.23.29-.23.12,0,.19.08.33.19l.8.7c.06.06.17.16.17.27,0,.21-.21.21-.29.21ZM220.28,136.36h-4.76v1.19h2.45l.35-.37c.06-.06.1-.12.16-.12.08,0,.14.06.21.12l.68.49c.16.14.17.16.17.21,0,.14-.35.39-.64.54.02,1.3.04,1.85.06,2.6.02.43.04,1.24.04,1.3,0,.58-.58.62-.62.62-.39,0-.37-.31-.37-.58h-5.95c.02.5-.33.8-.78.8-.19,0-.31-.06-.31-.49,0-.16.06-.78.06-.89.02-.7.02-1.19.02-3.09,0-.66,0-.97-.12-1.63l1.05.49h2.68c0-.17-.02-1.01-.02-1.19h-1.87c-.68,0-1.77.08-2.51.21l-.45-.84c1.46.12,2.86.16,3.23.16h1.59c-.04-1.77-.06-1.83-.27-2.8l1.57.47c.12.02.29.08.29.29q0,.14-.64.52c-.04.37-.06.66-.06,1.52h3.25l.31-.54c.06-.08.18-.27.31-.27.1,0,.25.14.35.21l.62.56c.1.08.19.17.19.29,0,.17-.17.21-.29.21ZM214.66,138.01h-2.62v1.61h2.62v-1.61ZM214.66,140.09h-2.62v1.81h2.62v-1.81ZM218.02,138.01h-2.51v1.61h2.51v-1.61ZM218.02,140.09h-2.51v1.81h2.51v-1.81ZM218.22,135.27c-.39,0-.64-.39-.78-.6-.37-.6-.56-.7-.91-.88v-.17c.21-.02,2.12.08,2.12,1.09,0,.33-.21.56-.43.56ZM228,149.46c-.72.16-1.19.27-1.65.89-1.38-.93-2.62-2.08-3.54-3.48-.78,1.21-2.14,2.74-5.23,3.85l-.08-.17c2.27-1.09,3.98-3.05,4.82-4.53-.84-1.79-1.36-4.55-1.4-6.67-.54.93-1.01,1.56-1.46,2.16l-.14-.08c2.1-4.18,2.53-7.46,2.53-7.72s-.06-.45-.08-.58l1.65.78s.31.12.31.27c0,.25-.47.35-.74.41-.41,1.26-.84,2.41-1.67,4.04h3.85l.47-.66s.18-.23.31-.23c.1,0,.27.14.31.17l.76.68s.19.16.19.29c0,.2-.21.21-.31.21h-2.27l.89.49c.12.06.29.16.29.33,0,.1-.08.16-.14.2-.06.04-.43.17-.51.21-.78,3.21-1.15,4.3-1.89,5.71.89,1.19,2.51,2.49,4.72,3.23l-.02.19ZM224.05,139.1h-2.9c.12,1.89.85,4.43,1.59,6.01,1.01-2.43,1.36-5.23,1.36-5.58,0-.1-.02-.14-.06-.43Z"/><path class="cls-4" d="M236.26,140.01h-2.53c0,2.18-.02,4.35-.02,6.53.52-.18,2.45-.78,2.74-.89l.08.16c-.86.58-2.02,1.13-2.96,1.56-1.44.64-1.92.89-2.41,1.13-.19.53-.23.58-.41.58-.12,0-.21-.1-.25-.17l-.89-1.46c1.24-.1,1.44-.16,3.15-.62v-6.8h-.27c-.7,0-1.77.08-2.51.23l-.45-.84c1.19.1,2.22.14,3.23.14-.02-3.03-.02-3.15-.04-4.04-.04-.95-.18-1.38-.29-1.75l1.77.64c.25.1.29.1.29.21,0,.19-.47.58-.68.76-.08,1.96-.08,2.62-.08,4.18h.97l.45-.5c.12-.14.19-.23.29-.23s.27.14.35.19l.58.5c.1.1.19.19.19.31,0,.17-.17.19-.31.19ZM244.89,149.89c-.35.06-3.93.06-4.59.06-2.08,0-2.31,0-2.82-.23-.54-.25-.6-.72-.6-1.3,0-1.07.02-5.73.02-6.69-.87.41-1.61.84-2.08,1.17l-.76-.6c.39-.12,1.28-.43,2.84-1.07,0-.54.04-2.97.04-3.46,0-.76-.06-1.19-.29-2.14l1.67.6c.12.04.25.1.25.23,0,.12-.08.17-.64.7-.02.58-.04,3.13-.04,3.63l2.41-1.05c.02-4.67-.06-5.11-.35-6.4l1.77.58c.12.04.29.12.29.23s-.08.19-.19.31c-.16.17-.47.47-.52.5-.02.82-.04,1.4-.02,4.35l2.27-.99.39-.66c.16-.21.18-.23.23-.23.1,0,.19.06.25.1l.85.5s.16.1.16.23c0,.17-.06.21-.51.62-.08,3.56-.1,5.05-.29,5.93-.29,1.4-1.3,1.71-1.79,1.87-.27-.88-.91-1.13-1.15-1.22l.02-.16c.31.06.49.1.72.1.86,0,1.07-.41,1.17-.66.33-.8.33-3.93.33-4.96,0-.27-.04-.74-.06-1.11l-2.6,1.15c0,.56.02,3.05.02,3.58,0,.31.12,3.13.12,3.4,0,.25,0,.88-.86.88-.23,0-.37-.04-.37-.29,0-.19.06-1.05.08-1.21.02-.95.02-2.16.04-5.95l-2.41,1.05c0,.82-.02,7,0,7.19.06.41.43.47.58.49.12.02,2.59.02,2.94.02,2.66,0,2.82-.06,3.09-.17.37-.14.52-.43.8-1.07.14-.35.19-.51.64-1.85h.17c0,.23.02,1.3.04,1.54s.08.72.37.91c.16.1.18.12.18.21,0,.27-.37,1.13-1.81,1.32Z"/><path class="cls-4" d="M257.27,137.8c-2.06,8.36-4.74,11.27-8.5,12.69l-.06-.16c.76-.5,3.25-2.14,4.96-5.46,1.67-3.27,2.24-6.26,2.45-7.5h-3.87c-.41,1.21-.76,2.04-1.01,2.58,1.24.72,2.55,1.48,2.55,2.72,0,.25-.16.8-.66.8-.56,0-.66-.41-.87-1.24-.23-.95-.68-1.55-1.13-2.04-.95,1.85-2.08,3.05-2.9,3.83l-.16-.06c2.84-4.08,4.06-9.45,4.06-10.42,0-.23-.04-.35-.1-.52l1.69.76c.1.04.29.14.29.33,0,.25-.1.27-.82.5-.08.21-.29.37-.76,2.22l-.02.08h3.54l.39-.6c.12-.19.14-.21.21-.21.06,0,.08,0,.31.16l.99.66c.21.16.23.27.23.33,0,.25-.25.33-.84.56ZM265.38,145.88c-.74-.39-1.98-1.03-3.4-2.49.06,1.75.14,4.57.21,6.32.02.12.02.19.02.25,0,.51-.49.86-.93.86-.39,0-.47-.29-.47-.53v-.49l.16-7.58c-.89-1.15-1.92-2.88-2.43-5.33h.19c.76,1.89,1.42,3.11,2.24,4.16,0-1.26,0-4.02-.16-6.34-.06-.85-.23-1.36-.35-1.73l1.87.58c.08.02.37.12.37.29,0,.35-.54.56-.7.62-.08,2.12-.04,5.52-.06,7.64,1.4,1.28,3.23,2,5.09,2.35v.18c-.62.08-1.24.66-1.65,1.22Z"/><path class="cls-4" d="M268.29,151.09c3.17-3.29,3.87-6.88,3.87-9.14s-.7-5.85-3.87-9.14l.19-.27c.97.78,4.53,4.12,4.53,9.41s-3.56,8.63-4.53,9.41l-.19-.27Z"/></g></svg>