<?xml version="1.0" encoding="UTF-8"?><svg id="_レイヤー_2" xmlns="http://www.w3.org/2000/svg" viewBox="0 0 358.7 42.67"><g id="_レイヤー_1-2"><path d="M19.27,42.03H0V.63h4.03v40.13h15.23v1.27Z"/><path d="M63.5,42.03h-4.22l-6.82-17.53h-9.52v-1.27h9.03l-6.27-16.21-13.53,35.01h-1.43S47.07,0,47.07,0l16.43,42.03Z"/><path d="M106,42.67l-25.43-34.43v33.8h-1.23V0l25.43,34.1V.67h1.23v42Z"/><path d="M154.56,21.2c0,7.58-2.79,13.23-8.37,16.97-3.91,2.6-8.23,3.9-12.97,3.9l-10.43-.03V.7h10.27c4.87,0,9.23,1.26,13.1,3.77,5.6,3.6,8.4,9.18,8.4,16.73ZM150.6,21.2c-.04-7.11-2.42-12.34-7.13-15.7-3.4-2.4-7.51-3.6-12.33-3.6h-4.37v38.9h3.73c5.31,0,9.7-1.24,13.17-3.73,4.64-3.35,6.96-8.64,6.93-15.87Z"/><path d="M192.33,31.85c0,3.26-1.23,5.89-3.7,7.89-2.22,1.8-4.83,2.7-7.83,2.7-3.84,0-7.24-1.14-10.2-3.41l1.27-1.89c2.67,2.53,5.64,3.8,8.93,3.8,2.44,0,4.44-.73,5.98-2.18,1.54-1.45,2.32-3.46,2.32-6.01,0-4.35-2.82-8.09-8.47-11.21-6.33-3.53-9.37-7.81-9.1-12.85.13-2.55,1.21-4.6,3.23-6.16,1.96-1.49,4.37-2.23,7.23-2.23,1.24.07,2.4.24,3.47.53,2.58.66,4.48,1.83,5.7,3.51l-1.5,1.52c-.67-.97-1.58-1.83-2.73-2.58-1.58-1.06-3.24-1.59-5-1.59-2,0-3.7.56-5.1,1.68-1.4,1.12-2.17,2.56-2.3,4.31-.25,3.44,2.17,6.66,7.23,9.65,4.13,2.42,7.01,4.89,8.63,7.42,1.29,2.02,1.93,4.38,1.93,7.09Z"/><path d="M239.33,36.29c-3.11,4.09-7.32,6.14-12.63,6.14s-9.46-2.11-13.25-6.33c-3.79-4.22-5.68-9.15-5.68-14.79s1.71-10.66,5.13-14.79c3.49-4.22,7.72-6.33,12.7-6.33s8.9,1.38,12.1,4.13l-1.57,1.87c-2.91-3.16-6.42-4.73-10.53-4.73s-7.26,1.95-9.7,5.84c-2.33,3.69-3.5,8.36-3.5,14.01s1.35,10.21,4.07,14.01c2.73,3.89,6.14,5.84,10.23,5.84,4.73,0,8.37-2.08,10.9-6.23l1.73,1.36Z"/><path d="M285.23,42.03h-4.22l-6.82-17.53h-9.52v-1.27h9.03l-6.27-16.21-13.53,35.01h-1.43S268.8,0,268.8,0l16.43,42.03Z"/><path d="M324.7,11.87c0,3.16-1.34,5.83-4.02,8.03-2.68,2.2-5.86,3.27-9.55,3.2-.82,0-1.51-.01-2.07-.03v-1.23h1.2c3.31,0,5.91-1,7.8-3,1.76-1.82,2.63-4.17,2.63-7.03,0-6.73-3.86-10.06-11.57-9.97h-4.1v40.2h-3.97V.7c1.98-.04,5.07-.07,9.27-.07,9.58-.07,14.37,3.68,14.37,11.23Z"/><path d="M358.7,42.03h-19.27V.63h18.57v1.27h-14.53v16.73h13.1v1.27h-13.1v20.87h15.23v1.27Z"/></g></svg>