<svg id="air02-txt-sp" xmlns="http://www.w3.org/2000/svg" xmlns:xlink="http://www.w3.org/1999/xlink" width="360.5" height="218.785" viewBox="0 0 360.5 218.785">
  <defs>
    <linearGradient id="linear-gradient" x1="0.5" y1="0.068" x2="0.5" y2="0.973" gradientUnits="objectBoundingBox">
      <stop offset="0" stop-color="#1c2c5a"/>
      <stop offset="0.47" stop-color="#10203f"/>
      <stop offset="1" stop-color="#00111d"/>
    </linearGradient>
  </defs>
  <path id="パス_3685" data-name="パス 3685" d="M23.8,218v26.31H22.52V216.69H32.6v1.3H23.8Z" transform="translate(-8.938 -83.281)"/>
  <path id="パス_3686" data-name="パス 3686" d="M52.111,231.887a50.25,50.25,0,0,1-6.159,6.616c-.094.665-.181,1.122-.665,1.122-.215,0-.4-.215-.484-.336L42.68,236.71c1,.027,1.881.06,9.289-4.977l.154.154Zm-4.735-11.2a20.576,20.576,0,0,0-3.58.275l-.578-1.216c1.545.121,3.1.215,4.641.215h4.8l.974-.819c.242-.215.363-.275.517-.275s.423.215.544.3l1.182.94a.7.7,0,0,1,.3.517c0,.3-.094.363-.974,1.034-.034.853,0,16.147,0,17.995,0,1.216,0,3.882-3.976,4.433a5.693,5.693,0,0,0-2.855-3.036l.027-.242a13.256,13.256,0,0,0,2.4.154c1.941,0,2.062-.06,2.123-.94.027-.336.121-14.052.121-14.173,0-2.156-.027-4.339-.06-5.159H47.362Zm-2.546,3.856c3.1.544,4.7,2.458,4.7,3.674a1.334,1.334,0,0,1-1.3,1.4c-.88,0-1.122-.578-1.76-2.062a8.791,8.791,0,0,0-1.733-2.882l.094-.121ZM65.1,231.8c-1.518,1.854-4.433,4.762-5.857,6.22-.094.363-.154.94-.544.94-.181,0-.336-.181-.457-.336l-1.975-2.613c1.216-.06,2.458-.154,8.678-4.373l.154.154Zm-3.882-11.016a20.359,20.359,0,0,0-3.553.275l-.6-1.216c1.545.121,3.1.215,4.675.215h3.882l.759-.846a.666.666,0,0,1,.484-.215.787.787,0,0,1,.457.215l1.3,1a.456.456,0,0,1,.242.423c0,.275-.181.423-.94,1.061v4.494c0,2.183.121,11.775.121,13.75,0,1.578,0,3.4-4,4.46-.154-.578-.423-1.484-2.794-3.157l.027-.154c.665.034,2.243.121,3.278.121s1.243-.275,1.243-1.3c0-3.036.034-16.571,0-19.116H61.212ZM58.1,224.15c2.123.457,4.944,1.639,4.944,3.58a1.34,1.34,0,0,1-1.3,1.4c-.759,0-.94-.3-1.733-1.941a15.3,15.3,0,0,0-1.941-2.882l.027-.154Z" transform="translate(-15.557 -83.997)"/>
  <path id="パス_3687" data-name="パス 3687" d="M110.474,220.542l.846-.786c.181-.155.275-.336.457-.336s.3.121.457.215l1.639,1.216c.181.154.336.275.336.517,0,.423-1,.88-1.276,1-.094,2.976-.027,11.687.121,16.631,0,.457.181,2.613.181,3.036a1.582,1.582,0,0,1-1.733,1.578c-.974,0-.913-.544-.853-1.76H93.473c0,.181,0,1.095-.027,1.216-.215.7-1.122.94-1.639.94a.811.811,0,0,1-.913-.853c0-.363.094-1.914.094-2.243.121-4.4.215-8.8.215-13.172,0-5.951-.154-7.012-.423-8.772l2.882,1.578h16.812Zm-16.994.725v9.41h7.436v-9.41Zm0,10.136v9.713h7.436V231.4Zm17.175-.725v-9.41H103v9.41Zm0,10.438V231.4H103v9.713Z" transform="translate(-31.349 -84.03)"/>
  <path id="パス_3688" data-name="パス 3688" d="M158.591,242.636H136.345a21.761,21.761,0,0,0-3.58.275l-.6-1.216c1.545.154,3.123.215,4.675.215h7.651v-7.16h-5.253a20.434,20.434,0,0,0-3.58.275l-.6-1.216c2.4.181,4.124.215,4.675.215h11.748l1.3-1.458c.242-.242.363-.4.484-.4.181,0,.423.215.578.336l1.793,1.458a.646.646,0,0,1,.3.457c0,.3-.3.336-.484.336h-8.8v7.16h7.832l1.337-1.605c.154-.181.275-.363.457-.363.121,0,.275.027.578.3l1.914,1.605c.121.094.336.242.336.457,0,.3-.3.336-.484.336Zm-1.061-12.749a67.368,67.368,0,0,1-7.583.275c-3.1,0-3.1-.759-3.1-3.761,0-.665-.034-4.064-.034-4.823h-9.894c-.4,3.4-2.734,3.4-2.821,3.4a1.157,1.157,0,0,1-1.216-1.095c0-.759.578-1.122,1.605-1.793a3.763,3.763,0,0,0,2.035-2.734h.242a2.776,2.776,0,0,1,.215,1.484h7.651a13.44,13.44,0,0,0-.544-4.46l2.882.725c.242.06.665.154.665.544a.509.509,0,0,1-.215.423c-.121.094-.6.4-.7.484v2.277h7.16l1.182-.974c.242-.181.363-.3.638-.3a.678.678,0,0,1,.517.275l1.854,1.639a.851.851,0,0,1,.242.578c0,.544-.423.6-1.639.7-.484.3-2.64,1.733-3.1,2l-.154-.154a25.233,25.233,0,0,0,.665-3.036h-5.159c0,1.061-.06,6.038.181,6.341.215.275,2.432.275,2.976.275,1.061,0,3.372,0,3.916-.544a7.827,7.827,0,0,0,1.337-3.217h.242c.484,1.975.665,2.734,1.061,3a1.093,1.093,0,0,1,.6.974c0,.88-1.095,1.364-1.733,1.484Zm-14.173-5.736c-1.82,3.52-4.218,6.374-10.109,7.59l-.121-.242c6.677-3.338,8.161-7.859,8.41-9.8l2.519,1.3c.3.155.4.275.4.457,0,.363-.094.4-1.095.7Z" transform="translate(-44.934 -83.18)"/>
  <path id="パス_3689" data-name="パス 3689" d="M179.789,228.472c-.725,0-.914-.3-1.881-2.183a7.988,7.988,0,0,0-1.518-1.975l.027-.181c1.095.154,4.494.974,4.494,3.036A1.187,1.187,0,0,1,179.789,228.472Zm1.458,5.065a10.425,10.425,0,0,0-.544,2.882,11.453,11.453,0,0,0,.4,2.7,12.441,12.441,0,0,1,.544,2.7c0,.846-.4,1.7-1.337,1.7-1.424,0-1.424-1.518-1.424-2.183,0-.4.094-2.062.094-2.4a3.138,3.138,0,0,0-2.035-3.338v-.181a2.848,2.848,0,0,0,2-.907c.665-.88,4.1-10.619,4.339-11.5l.242.094c-.3,2.519-.517,3.338-2.277,10.438Zm.819-12.231c-.914,0-1.182-.7-1.854-2.156a10.6,10.6,0,0,0-1.3-2.183l.06-.154c.578.121,4.339,1.182,4.339,3.123a1.263,1.263,0,0,1-1.243,1.364Zm21.427,12.44a4.722,4.722,0,0,0-1.243,1.639c-3.244-1.276-6.5-5.132-7.59-7.859h-3.882a23.565,23.565,0,0,1-3.184,4.373c2.156.181,4.218.215,4.581.215h1.518l.544-.544c.215-.215.363-.423.578-.423.181,0,.423.215.544.3l1,.786c.181.155.363.3.363.517,0,.336-.154.457-.7.94.034.457.121,2.458.121,2.855,0,.6,0,.974-.3,1.216a2.383,2.383,0,0,1-1.155.4c-.6,0-.638-.423-.638-.7h-4c-.181,4.064.027,4.064,1.673,4.064,5.1,0,6.253,0,6.918-.638.7-.665,1-1.914,1.578-4.037h.154a12.935,12.935,0,0,0,.94,3.58c.121.181.154.181.484.457a.47.47,0,0,1,.242.4c0,.121,0,.88-1.3,1.518-1.518.725-4.52.725-6.133.725-5.763,0-6.583-.181-6.616-2.4,0-1.881-.027-4.823-.181-5.7l2.794,1.3h3.493v-3.882h-2.4a18.165,18.165,0,0,0-3.553.275l-.578-1.182a22.327,22.327,0,0,1-5.521,4.735l-.094-.181a33.719,33.719,0,0,0,6.314-8.954,22.105,22.105,0,0,0-3.855.275l-.6-1.216c1.578.121,1.881.154,4.581.215v-5.159a17.252,17.252,0,0,0-3.123.275l-.6-1.216c.665.06,1.76.154,3.735.181a14.362,14.362,0,0,0-.517-4.675l2.794.819c.363.121.578.242.578.457,0,.336-.275.544-.88.974.027.638.027.819,0,2.458h3.882a12.572,12.572,0,0,0-.544-4.554l2.882.759c.336.094.578.275.578.423,0,.363-.484.725-.88.974-.034.4-.034,2.062-.034,2.4h1.733l.974-1.3c.121-.154.275-.4.457-.4s.423.242.578.363l1.337,1.276c.181.154.3.275.3.457,0,.3-.242.336-.457.336h-4.917v5.159h3.372l1.034-1.364c.154-.215.275-.4.457-.4a.938.938,0,0,1,.578.336l1.458,1.364c.181.181.3.336.3.457,0,.3-.275.336-.457.336h-7.738a13.065,13.065,0,0,0,9.41,5.313v.181c-.181.121-1,.6-1.155.725Zm-9.256-12.111h-3.882v5.159h3.882C194.237,226.067,194.264,222.453,194.237,221.634Z" transform="translate(-59.455 -83.127)"/>
  <path id="パス_3690" data-name="パス 3690" d="M235.363,223.081h-5.024c1.592,1.008,2.371,1.5,2.371,2.573a1.174,1.174,0,0,1-1.095,1.269c-.806,0-.866-.43-1.068-1.706a6.67,6.67,0,0,0-.638-2.136h-1.27a16.875,16.875,0,0,1-5.085,5l-.114-.141a35.918,35.918,0,0,0,5.024-8.289,4.188,4.188,0,0,0,.175-1.558l2.66,1.384c.2.114.262.228.262.376,0,.289-.43.437-1.155.665-.376.551-1.128,1.646-1.269,1.874h3.238l.867-1.068c.141-.175.316-.376.43-.376.148,0,.316.141.551.316l1.3,1.068a.667.667,0,0,1,.289.437c0,.262-.262.316-.437.316Zm11.58,13c-.806,3.782-1.216,5.8-5.226,6.267a4.724,4.724,0,0,0-2.2-3.063l.027-.175a20.755,20.755,0,0,0,3.264.49c.893,0,1.706-.262,2.17-4.218h-8.4c.027,1.008.087,5.951.114,7.08,0,.141.061.981.061,1.182a1.286,1.286,0,0,1-1.417,1.216c-.376,0-.779-.114-.779-.867,0-1.417.148-6.213.175-7.711a24.484,24.484,0,0,1-10.8,7.536l-.06-.228a37.279,37.279,0,0,0,9.155-8.2h-5.716c-.349,1.33-.49,1.847-1.471,1.847-.665,0-1.008-.228-1.008-.692,0-.087.316-.981.517-1.5a15.216,15.216,0,0,0,1.216-5.461l2.338,1.33h5.891c0-.262-.027-2.4-.027-2.861h-4.359a18.988,18.988,0,0,0-3.405.289l-.578-1.155c1.417.114,3.029.175,4.447.175h11.7l.779-.752a.5.5,0,0,1,.316-.175.725.725,0,0,1,.4.175l1.357,1.041c.087.087.228.175.228.349,0,.262-.316.49-.927.893,0,.437.114,2.425.114,2.714,0,.981-1.155,1.095-1.357,1.095-.752,0-.725-.638-.692-1.095h-6.206v3.09h8.2l1.008-1.041c.114-.114.262-.289.376-.289s.316.175.43.289l1.33,1.216a.489.489,0,0,1,.2.349c0,.376-.464.517-1.182.866Zm-12.158-4.48h-6.468c-.289.893-.316,1.128-.806,3.09h7.281V231.6Zm13.259-8.228h-8.4c2.163.84,3,1.182,3,2.4a1.017,1.017,0,0,1-1.041,1.068c-.725,0-.84-.43-1.3-1.706a5.688,5.688,0,0,0-1.128-1.76h-1.095a15.226,15.226,0,0,1-3.379,3.58l-.148-.114c1.82-3.063,3.493-6.126,3.405-8.638l2.8,1.269a.391.391,0,0,1,.262.349c0,.289-.4.49-1.243.752a22.671,22.671,0,0,1-1.243,2.109h6.092l.954-1.357c.114-.175.262-.349.437-.349a1.046,1.046,0,0,1,.551.289l1.619,1.357a.634.634,0,0,1,.289.43c0,.262-.228.316-.437.316Zm-5.226,4.682h-6.24v2.861h6.24Z" transform="translate(-74.902 -83.741)"/>
  <path id="パス_3691" data-name="パス 3691" d="M275.169,234.025a5.362,5.362,0,0,1,1.961,4.272c0,3.553-2.915,6.092-6.73,6.092-3.117,0-5.75-1.76-5.75-4.07a1.667,1.667,0,0,1,1.646-1.847,1.418,1.418,0,0,1,1.417,1.444,2.41,2.41,0,0,1-.175.927,1.992,1.992,0,0,0-.087.665c0,1.095,1.243,1.908,2.6,1.908,2.223,0,4.48-2.2,4.48-5.112s-2.2-5.286-4.507-5.286c-.175,0-.981.114-1.155.114a.571.571,0,0,1-.638-.6.654.654,0,0,1,.665-.665c.175,0,1.041.175,1.243.175,2.425,0,3.956-2.163,3.956-4.507s-1.357-4.332-3.641-4.332a2.16,2.16,0,0,0-2.338,1.934,2.437,2.437,0,0,0,.087.43,2.715,2.715,0,0,1,.087.692,1.53,1.53,0,0,1-1.471,1.592,1.5,1.5,0,0,1-1.444-1.592c0-1.592,1.847-4.044,5.548-4.044s5.777,2.311,5.777,4.85a5.018,5.018,0,0,1-1.068,2.949,6.913,6.913,0,0,1-3.667,2.458,7.687,7.687,0,0,1,3.2,1.558Z" transform="translate(-88.432 -85.094)"/>
  <path id="パス_3692" data-name="パス 3692" d="M304.291,227.288c-.578.228-.779.4-1.733,2.284-4.447,8.638-8.927,12.594-15.281,14.381l-.087-.2a31.621,31.621,0,0,0,9.934-8.692c-.289-.027-.6-.289-1.128-.866-1.995-2.284-2.284-2.6-3.842-3.466a16.054,16.054,0,0,1-4.823,3.755l-.087-.175c3.641-3.526,7.106-9.471,7.106-10.6,0-.954-1.128-1.384-1.706-1.619a3.1,3.1,0,0,1,1.444-.349c1.646,0,3.2,1.417,3.2,2.022,0,.316-.06.376-.725.954a10.179,10.179,0,0,0-.779,1.068c.2,0,.49.027,1.041.027a21.919,21.919,0,0,0,4.735-.665,6.377,6.377,0,0,1,1.216-.692,6.445,6.445,0,0,1,2.25,2.25c0,.289-.114.316-.752.578Zm-7.57-.087a2.734,2.734,0,0,1-1.5-.551,45.135,45.135,0,0,1-2.774,3.728c1.619.2,5.313.927,5.488,3.526a32.762,32.762,0,0,0,3.667-7.362c-.779.087-4.218.665-4.883.665Z" transform="translate(-95.832 -84.939)"/>
  <path id="パス_3693" data-name="パス 3693" d="M340.226,237.606c-.262,0-.954-.06-1.008-.06a28.781,28.781,0,0,0-3.264-.114c-8.813,0-11.405.175-12.708.517-.087.027-1.008.262-1.095.262-.752,0-2.311-1.847-2.311-3.177a3.269,3.269,0,0,1,.349-1.384c.981,2.2,1.874,2.2,4.883,2.2,1.995,0,11.378-.027,12.708-.349.175-.027,1.008-.262,1.182-.262s3.063.316,3.063,1.444c0,.893-1.444.927-1.793.927Z" transform="translate(-106.551 -88.85)"/>
  <path id="パス_3694" data-name="パス 3694" d="M370.938,243.77c-.437,0-.692-.141-1.706-1.095-1.357-1.3-2.74-2.6-7.281-4.393-1.646-.638-2.8-1.008-4.07-1.417,6.932-.228,13.978,3.063,13.978,5.864a.981.981,0,0,1-.927,1.041Zm-.893-16.06c-.349,0-.49-.087-1.646-.866a27.927,27.927,0,0,0-9.242-3.9,19.663,19.663,0,0,1,2.022-.087c3.238,0,9.679,1.182,9.679,3.929a.891.891,0,0,1-.806.927Zm-.725,6.643c-.4,0-.517-.114-1.646-.927a28.819,28.819,0,0,0-7.738-3.466,9.8,9.8,0,0,1,1.384-.06c.4,0,8.779.087,8.779,3.553,0,.027,0,.893-.779.893Z" transform="translate(-119.04 -85.307)"/>
  <path id="パス_3695" data-name="パス 3695" d="M404.946,230.608c-.228,0-2.539-.376-2.888-.437A14.98,14.98,0,0,0,399.4,230c-1.531,0-2.458.06-3.15.114a32.746,32.746,0,0,1-.954,6.757,11.816,11.816,0,0,1-7.913,8.174l-.06-.228c5.051-3.405,6.643-8.4,7.019-14.556-1.733.175-5.662.719-6.818,1.417-.578.349-.638.4-.981.4a3.706,3.706,0,0,1-2.861-3.405,4.07,4.07,0,0,1,.087-.893,3.317,3.317,0,0,0,2.949,1.847,15.54,15.54,0,0,0,1.995-.141c.893-.087,4.85-.463,5.662-.551a28.608,28.608,0,0,0-.2-5.259c-.2-.752-.927-1.068-2.284-1.444a3.136,3.136,0,0,1,1.935-.752c1.182,0,3.2.779,3.2,1.733a5.909,5.909,0,0,1-.49,1.243,25.274,25.274,0,0,0-.2,3c0,.752-.027.981-.027,1.33.517-.027,5-.262,5.058-.289.316-.06,1.585-.437,1.793-.437.114,0,2.888.376,2.888,1.646,0,.893-.725.893-1.095.893Z" transform="translate(-127.511 -84.854)"/>
  <path id="パス_3696" data-name="パス 3696" d="M428.522,228.4c-.06.665-.289,3.641-.349,4.245-.752,6.213-4.48,9.5-6.932,10.512l-.141-.175c5.34-5.024,5.34-11.264,5.34-13.689s-.027-2.4-2.223-2.976a3.383,3.383,0,0,1,1.908-.752c.752,0,2.714.638,2.714,1.444,0,.228-.289,1.182-.316,1.384Zm7.019,11.929a8.21,8.21,0,0,0-1.82,1.619c-.141.148-.4.437-.578.437-.551,0-1.847-2.371-1.847-2.74,0-.2.349-1.068.376-1.27a45.564,45.564,0,0,0,.262-5.75c0-1.068-.027-6.415-.175-7.106-.114-.517-.692-.893-2.082-1.357a3.2,3.2,0,0,1,1.619-.6c.867,0,3.117.866,3.117,1.733a15.916,15.916,0,0,1-.4,1.646c-.289,1.471-.43,9.558-.43,11.325,0,.114,0,.49.2.49.692,0,5.924-3.325,10.458-9.095l.228.175c-1.961,4.735-6.126,8.524-8.927,10.512Z" transform="translate(-139.796 -85.537)"/>
  <path id="パス_3697" data-name="パス 3697" d="M459.42,243.953v-1.3h8.8V216.34H469.5v27.62H459.42Z" transform="translate(-152.377 -83.166)"/>
  <path id="パス_3698" data-name="パス 3698" d="M481.909,244.713a.792.792,0,0,1-.8-.9,27.746,27.746,0,0,1,.92-2.794,3.142,3.142,0,0,0,.047-1.041l.222-.027a5.364,5.364,0,0,1,.9,2.888c0,.658-.195,1.867-1.29,1.867Zm8.954-7.059a21.372,21.372,0,0,1-1.478,6.7,3.52,3.52,0,0,1-2.62,2.015,3.451,3.451,0,0,0-1.988-2.4l.047-.168a12.842,12.842,0,0,0,2.351.269c.484,0,.678-.047.947-.631a19.81,19.81,0,0,0,1.068-6.334h-5.414a.979.979,0,0,1-1.041,1.189c-.484,0-.6-.242-.6-.658,0-.148.047-.725.047-.846.094-1.531.121-5.75.121-7.429a26.042,26.042,0,0,0-.242-4.03l1.82.9h4.514l.584-.705c.168-.195.289-.316.41-.316.148,0,.269.121.484.269l.947.705a.6.6,0,0,1,.269.39c0,.168-.222.242-.39.242h-3.352v2.814h1.041l.463-.584c.195-.242.269-.343.39-.343s.269.121.484.269l.779.584c.121.094.269.222.269.39,0,.222-.222.269-.39.269h-3.036V233h1.068l.584-.678c.168-.195.269-.289.39-.289.148,0,.242.074.437.242l.725.678a.575.575,0,0,1,.222.39c0,.148-.148.242-.363.242H487.35v2.935h1.625l.631-.705c.148-.168.269-.289.39-.289s.269.094.484.316l.947.873a.463.463,0,0,1,.168.316c0,.289-.557.558-.725.631Zm-6.139,6.018c-.8,0-.8-1.021-.8-1.531a6.5,6.5,0,0,0-.269-2.667l.148-.074c.168.195,1.041,1.068,1.162,1.29a3.487,3.487,0,0,1,.678,1.867,1.054,1.054,0,0,1-.92,1.115Zm1.162-16.866H483.75v2.814h2.136Zm0,3.4H483.75V233h2.136Zm0,3.372H483.75v2.935h2.136Zm.846,8.517c-.631,0-.705-.41-.9-1.793a6.674,6.674,0,0,0-.463-1.773l.094-.074c1.29,1.115,2.015,1.773,2.015,2.72a.842.842,0,0,1-.752.92Zm1.357-1.793c-.484,0-.584-.39-.846-1.357a3.057,3.057,0,0,0-.557-1.115l.148-.148c1.142.531,1.867,1.041,1.867,1.847,0,.39-.222.779-.6.779Zm16.067,4.467a3.624,3.624,0,0,0-2.3,1.431c-2.72-2.21-4.735-6.381-4.735-12.111h-2.6c-.242,5.971-1.431,9.632-4.977,12.184l-.121-.094c3.4-3.688,3.52-10.458,3.52-15.509a22.475,22.475,0,0,0-.41-5.145l2.3,1.021h5l.705-.678a.589.589,0,0,1,.39-.222c.121,0,.222.047.41.222l.974.826a.5.5,0,0,1,.222.39c0,.168-.464.51-.752.705-.027.41-.047.873-.047,1.531,0,.779.148,4.171.148,4.923s-.752.974-1.142.974c-.779,0-.725-.531-.705-1.115h-2.479c.558,5.293,4.05,9.491,6.623,10.532l-.027.148Zm-4.1-17.645h-5.387c-.027.92-.121,5.387-.121,6.381h5.508Z" transform="translate(-159.498 -86.075)"/>
  <path id="パス_3699" data-name="パス 3699" d="M22.812,181.4v12.412h-.6V180.78h4.755v.621Z" transform="translate(-8.837 -75.399)"/>
  <path id="パス_3700" data-name="パス 3700" d="M36.517,182.193a3.553,3.553,0,0,0-.2-1.413l1.356.325c.115.029.2.076.2.2,0,.191-.086.229-.411.42v.477h2.521l.458-.649c.038-.067.124-.181.21-.181a.511.511,0,0,1,.258.162l.831.649a.262.262,0,0,1,.143.21c0,.143-.124.162-.21.162H37.463a2.943,2.943,0,0,1,0,.84c-.057.248-.363.344-.621.344a.306.306,0,0,1-.344-.277c0-.057-.019-.621,0-.917H34.035c0,.172.038.936.038,1.088,0,.344-.372.458-.687.458-.22,0-.306-.115-.306-.4,0-.191.029-.993.029-1.146H31.447a9.744,9.744,0,0,0-1.671.134l-.286-.573a20.94,20.94,0,0,0,2.186.1H33.1a3.725,3.725,0,0,0-.22-1.394l1.4.315a.193.193,0,0,1,.172.172c0,.21-.124.286-.42.458-.01.229-.01.3-.01.439H36.5Zm-6.96,4.067c2.005.172,2.005,1.06,2.005,1.2a.518.518,0,0,1-.516.563c-.315,0-.4-.143-.726-.707a2.575,2.575,0,0,0-.773-.955l.019-.1Zm3.351-.067a23.754,23.754,0,0,1-1.031,3.323,7.385,7.385,0,0,0-.506,1.719,2.054,2.054,0,0,0,.277.812,2.164,2.164,0,0,1,.21.917c0,.258-.057.831-.659.831s-.63-.6-.63-.9a8.559,8.559,0,0,0-.038-1.26,1.546,1.546,0,0,0-.907-1.1v-.115c.831.029.821.01,1.308-.792.143-.239.955-1.614,1.89-3.495Zm-2.081-2.54c.707.1,1.938.286,1.938,1.232a.508.508,0,0,1-.525.516c-.391,0-.535-.315-.678-.621a2.6,2.6,0,0,0-.745-1.031v-.1Zm9.653,1.26.411-.6c.076-.1.143-.2.229-.2a.426.426,0,0,1,.258.162l.678.621c.086.076.143.124.143.22,0,.143-.124.162-.229.162H37.634v1.241h2.024l.372-.382a.254.254,0,0,1,.172-.115.62.62,0,0,1,.315.162l.592.5a.388.388,0,0,1,.143.239c0,.143-.2.258-.506.43-.029.64,0,1.833.029,3.332,0,.258.057,1.346.057,1.575,0,.43,0,1.2-1.432,1.49a1.8,1.8,0,0,0-.974-1.289v-.086c.372.029.716.029.926.029.458,0,.477-.076.477-.391v-1.547H37.673c0,.43.057,2.3.057,2.693,0,.181,0,.659-.659.659-.391,0-.391-.229-.391-.458,0-.344.029-1.862.029-2.177v-.716H34.789c.01.554.038,1.8.038,2.32,0,.363,0,.831-.716.831-.286,0-.363-.1-.363-.592,0-.057.076-3.265.076-3.733a26.463,26.463,0,0,0-.134-3.342l1.222.554h1.8c0-.067-.019-1.2-.019-1.241H35.056a10,10,0,0,0-1.69.124l-.286-.573c1.041.086,1.957.105,2.206.105h1.4a3.68,3.68,0,0,0-.143-1.136l1.375.344c.086.029.172.076.172.181,0,.172-.115.229-.458.4v.2h2.855ZM36.7,188.323v-1.47H34.78v1.47Zm0,1.8v-1.442H34.78v1.442Zm.926-3.265v1.47h2.186v-1.47Zm0,1.824c0,.325.019,1.041.029,1.442h2.158v-1.442H37.625Zm.592-5.5c.554.01,1.862.057,1.862.9a.471.471,0,0,1-.516.487c-.277,0-.334-.086-.659-.554a2.113,2.113,0,0,0-.687-.745Z" transform="translate(-9.166 -75.399)"/>
  <path id="パス_3701" data-name="パス 3701" d="M54.83,182.284l.4-.372c.086-.067.124-.162.21-.162a.424.424,0,0,1,.21.1l.773.573c.086.067.162.134.162.239,0,.2-.477.42-.6.477-.038,1.4-.019,5.509.057,7.848,0,.22.086,1.232.086,1.432a.745.745,0,0,1-.812.745c-.458,0-.43-.258-.4-.831H46.809c0,.086,0,.516-.01.573-.105.334-.525.439-.773.439a.381.381,0,0,1-.43-.4c0-.172.038-.9.038-1.06.057-2.072.1-4.153.1-6.216a21.8,21.8,0,0,0-.2-4.134l1.365.745H54.83Zm-8.02.344v4.44h3.5v-4.44Zm0,4.784v4.583h3.5v-4.583Zm8.106-.344v-4.44H51.307v4.44Zm0,4.927v-4.583H51.307v4.583Z" transform="translate(-9.891 -75.433)"/>
  <path id="パス_3702" data-name="パス 3702" d="M59.64,193.7v-.621h4.153V180.67h.6V193.7H59.64Z" transform="translate(-10.529 -75.394)"/>
  <path id="パス_3703" data-name="パス 3703" d="M67.788,192.636a.468.468,0,0,1-.468-.525,15.919,15.919,0,0,1,.544-1.652,2.008,2.008,0,0,0,.029-.621l.124-.019a3.2,3.2,0,0,1,.535,1.709c0,.382-.115,1.1-.764,1.1Zm5.29-4.163a12.147,12.147,0,0,1-.878,3.953,2.082,2.082,0,0,1-1.547,1.194,2.026,2.026,0,0,0-1.174-1.413l.029-.1a7.411,7.411,0,0,0,1.384.162c.286,0,.4-.029.554-.372a11.58,11.58,0,0,0,.63-3.743H68.886a.576.576,0,0,1-.611.707c-.286,0-.363-.143-.363-.391,0-.086.029-.43.029-.5.057-.9.076-3.39.076-4.382a15.358,15.358,0,0,0-.143-2.377l1.069.525h2.664l.344-.411c.105-.115.172-.191.239-.191.086,0,.162.076.286.162l.554.42a.353.353,0,0,1,.162.229c0,.105-.124.143-.229.143H70.986v1.661H71.6l.277-.344c.115-.143.162-.2.229-.2a.638.638,0,0,1,.286.162l.458.344c.067.057.162.124.162.229,0,.134-.134.162-.229.162H70.986v1.652h.63l.344-.4c.105-.115.162-.172.229-.172.086,0,.143.038.258.143l.43.4a.344.344,0,0,1,.134.229c0,.086-.086.143-.22.143h-1.8v1.728h.955l.372-.42c.086-.1.162-.172.229-.172s.162.057.286.181l.554.516a.278.278,0,0,1,.105.181c0,.172-.325.334-.43.372Zm-3.619,3.552c-.477,0-.477-.6-.477-.9a3.756,3.756,0,0,0-.162-1.575l.086-.038c.1.115.611.63.687.754a2.065,2.065,0,0,1,.4,1.1.621.621,0,0,1-.544.659Zm.687-9.949h-1.26v1.661h1.26Zm0,2.005h-1.26v1.652h1.26Zm0,1.986h-1.26v1.728h1.26Zm.506,5.022c-.372,0-.411-.239-.525-1.06a3.522,3.522,0,0,0-.277-1.041l.057-.038c.754.659,1.193,1.041,1.193,1.6,0,.248-.143.544-.439.544Zm.8-1.06c-.286,0-.344-.229-.5-.8a1.683,1.683,0,0,0-.334-.659l.086-.086c.678.315,1.108.621,1.108,1.088C71.817,189.8,71.693,190.029,71.454,190.029Zm9.481,2.635a2.069,2.069,0,0,0-1.356.84c-1.6-1.3-2.788-3.762-2.788-7.142H75.254c-.143,3.523-.84,5.691-2.931,7.19l-.076-.057c2.005-2.177,2.072-6.168,2.072-9.147a13.9,13.9,0,0,0-.239-3.036l1.356.6h2.95l.411-.4a.365.365,0,0,1,.229-.134c.067,0,.124.029.239.134l.573.487a.3.3,0,0,1,.124.229c0,.1-.277.3-.439.411-.019.248-.029.516-.029.907,0,.458.086,2.463.086,2.9s-.439.573-.678.573c-.458,0-.43-.315-.411-.659H77.03c.334,3.122,2.387,5.6,3.905,6.216ZM78.51,182.257H75.331c-.01.544-.067,3.179-.067,3.762H78.51Z" transform="translate(-10.876 -75.415)"/>
  <path id="パス_3704" data-name="パス 3704" d="M85.656,188.642a1.146,1.146,0,1,1,0-2.291,1.146,1.146,0,1,1,0,2.291Z" transform="translate(-11.653 -75.65)"/>
  <path id="パス_3705" data-name="パス 3705" d="M92.022,181.4v12.412h-.6V180.78h4.755v.621H92.022Z" transform="translate(-11.965 -75.399)"/>
  <path id="パス_3706" data-name="パス 3706" d="M102.891,190.532a11.443,11.443,0,0,1-4.583,2.96l-.038-.1c1.289-.792,3.495-2.893,3.886-4.172l1.193.907a.264.264,0,0,1,.143.22c0,.181-.143.2-.592.181Zm8.288-7.419h-10.77a8.387,8.387,0,0,0-1.671.143l-.286-.573c.974.086,1.986.086,2.206.086h3.724a5.04,5.04,0,0,0-.306-2.12l1.594.363c.105.029.239.076.239.181,0,.162-.124.229-.487.43-.01.477-.01.544-.01,1.146h3.676l.659-.7c.115-.124.143-.181.21-.181a.657.657,0,0,1,.3.162l.993.7s.143.124.143.229c0,.134-.124.143-.22.143Zm-2.559,2.406c0,.306,0,.659.01,1.318.019.258.086,1.365.086,1.575a.706.706,0,0,1-.707.668c-.4,0-.4-.2-.372-.716h-2.148c0,.621.038,3.323.038,3.876,0,.516,0,1.356-1.509,1.709-.115-.936-1.346-1.47-1.6-1.594v-.1a12.5,12.5,0,0,0,1.671.181c.411,0,.43-.086.43-.678v-3.409h-2.5c.029.4.057.907-.687.907-.315,0-.391-.172-.391-.391,0-.057.01-.239.01-.315.019-.43.038-1.766.038-2.282a8.541,8.541,0,0,0-.143-2.292l1.327.745h5.328l.43-.477c.057-.057.115-.115.181-.115a.35.35,0,0,1,.2.1l.678.544c.143.115.172.162.172.229,0,.181-.115.229-.573.487Zm-.974-.43h-5.614v2.931h5.614Zm2.292,7.963c-.391,0-.458-.124-1.06-1a6.833,6.833,0,0,0-2.167-2.263l.029-.1c1.47.239,3.743,1.413,3.743,2.731A.587.587,0,0,1,109.938,193.053Z" transform="translate(-12.275 -75.393)"/>
  <path id="パス_3707" data-name="パス 3707" d="M114.251,192.9a.629.629,0,0,1-.621-.611c0-.363.315-.6.754-.945a3.424,3.424,0,0,0,1.108-1.528h.086a5.528,5.528,0,0,1,.029.621c0,1.337-.554,2.473-1.356,2.473Zm10.866-8.23c-.191.134-.248.172-.315.229.029,1.442.038,2.005.067,2.578,0,.134.038.659.038.773a.61.61,0,0,1-.659.6c-.439,0-.439-.286-.439-.458v-.181h-6.636a10.114,10.114,0,0,0-1.69.124l-.277-.573c.907.076,1.8.105,2.187.105H123.8v-1.518h-6.416a9.3,9.3,0,0,0-1.69.134l-.286-.554c.888.067,1.776.086,2.206.086H123.8v-1.461h-7.858a11.811,11.811,0,0,1-2.005,1.3l-.038-.057a19.321,19.321,0,0,0,3.5-4.421,2.028,2.028,0,0,0,.2-.8l1.26.621a.311.311,0,0,1,.2.277c0,.153-.306.239-.525.3-.076.086-.22.258-.334.382h3.189l.516-.43c.086-.067.191-.162.239-.162a.734.734,0,0,1,.306.162l.678.535a.271.271,0,0,1,.143.22c0,.172-.115.181-.544.286-.172.038-.277.115-1.461.945-.239.172-.554.382-.754.516h3.1l.42-.4c.067-.067.172-.172.229-.172.076,0,.162.086.22.124l.611.487c.086.067.162.143.162.229s-.057.134-.143.2ZM117.9,182.48c-.2.22-1.346,1.489-1.556,1.719h3.838c.153-.22.831-1.251,1.06-1.719Zm5.127,10.837c-.487.1-3.265.1-4.1.1-1.575,0-1.69-.3-1.69-1.661a12.276,12.276,0,0,0-.115-2.95l1.346.43c.086.029.229.115.229.2a.254.254,0,0,1-.115.172c-.038.038-.277.22-.315.258,0,.191-.029,2.11,0,2.33.029.258.315.277.659.277.64-.019,2.893.019,3.208-.1a.678.678,0,0,0,.43-.43,12.061,12.061,0,0,0,.43-1.614h.105a4.909,4.909,0,0,0,.544,1.8c.229.22.315.3.315.477s-.162.582-.926.726ZM121.02,191c-.391,0-.458-.172-.8-1a3.325,3.325,0,0,0-.754-1.146l.057-.086c1.871.525,2.043,1.27,2.043,1.49C121.564,190.576,121.44,191,121.02,191Zm4.994,1.155c-.4,0-.439-.1-.84-1a4.452,4.452,0,0,0-.993-1.595l.019-.029c.773.124,2.416.983,2.416,1.986a.6.6,0,0,1-.6.63Z" transform="translate(-12.969 -75.389)"/>
  <path id="パス_3708" data-name="パス 3708" d="M136.477,182.193a3.552,3.552,0,0,0-.2-1.413l1.356.325c.115.029.2.076.2.2,0,.191-.086.229-.411.42v.477h2.521l.458-.649c.038-.067.124-.181.21-.181a.511.511,0,0,1,.258.162l.831.649a.262.262,0,0,1,.143.21c0,.143-.124.162-.21.162h-4.211a2.946,2.946,0,0,1,0,.84c-.057.248-.363.344-.621.344a.306.306,0,0,1-.344-.277c0-.057-.019-.621,0-.917h-2.463c0,.172.038.936.038,1.088,0,.344-.372.458-.687.458-.22,0-.306-.115-.306-.4,0-.191.029-.993.029-1.146h-1.661a9.743,9.743,0,0,0-1.671.134l-.286-.573a20.941,20.941,0,0,0,2.186.1h1.423a3.725,3.725,0,0,0-.22-1.394l1.4.315a.193.193,0,0,1,.172.172c0,.21-.124.286-.42.458-.01.229-.01.3-.01.439h2.473Zm-6.96,4.067c2.005.172,2.005,1.06,2.005,1.2a.518.518,0,0,1-.516.563c-.315,0-.4-.143-.726-.707a2.574,2.574,0,0,0-.773-.955l.019-.1Zm3.351-.067a23.747,23.747,0,0,1-1.031,3.323,7.385,7.385,0,0,0-.506,1.719,2.053,2.053,0,0,0,.277.812,2.318,2.318,0,0,1,.21.917c0,.258-.057.831-.659.831s-.63-.6-.63-.9a8.565,8.565,0,0,0-.038-1.26,1.546,1.546,0,0,0-.907-1.1v-.115c.831.029.821.01,1.308-.792.143-.239.955-1.614,1.89-3.495Zm-2.072-2.54c.7.1,1.929.286,1.929,1.232a.508.508,0,0,1-.525.516c-.391,0-.535-.315-.678-.621a2.6,2.6,0,0,0-.745-1.031Zm9.653,1.26.411-.6c.076-.1.143-.2.229-.2a.426.426,0,0,1,.258.162l.678.621c.086.076.143.124.143.22,0,.143-.124.162-.229.162H137.6v1.241h2.024l.372-.382a.254.254,0,0,1,.172-.115.621.621,0,0,1,.315.162l.592.5a.389.389,0,0,1,.143.239c0,.143-.2.258-.506.43-.029.64,0,1.833.029,3.332,0,.258.057,1.346.057,1.575,0,.43,0,1.2-1.432,1.49a1.8,1.8,0,0,0-.974-1.289v-.086c.372.029.716.029.926.029.458,0,.477-.076.477-.391v-1.547h-2.158c0,.43.057,2.3.057,2.693,0,.181,0,.659-.659.659-.391,0-.391-.229-.391-.458,0-.344.029-1.862.029-2.177v-.716h-1.919c.01.554.038,1.8.038,2.32,0,.363,0,.831-.716.831-.286,0-.363-.1-.363-.592,0-.057.076-3.265.076-3.733a26.461,26.461,0,0,0-.134-3.342l1.222.554h1.795c0-.067-.019-1.2-.019-1.241h-1.633a10,10,0,0,0-1.69.124l-.286-.573c1.041.086,1.957.105,2.206.105h1.4a3.681,3.681,0,0,0-.143-1.136l1.375.344c.086.029.172.076.172.181,0,.172-.115.229-.458.4v.2h2.855Zm-3.781,3.409v-1.47h-1.919v1.47Zm0,1.8v-1.442h-1.919v1.442Zm.926-3.265v1.47h2.186v-1.47Zm0,1.824c0,.325.019,1.041.029,1.442h2.158v-1.442Zm.592-5.5c.554.01,1.862.057,1.862.9a.471.471,0,0,1-.516.487c-.277,0-.334-.086-.659-.554a2.113,2.113,0,0,0-.687-.745Z" transform="translate(-13.684 -75.399)"/>
  <path id="パス_3709" data-name="パス 3709" d="M154.79,182.284l.4-.372c.086-.067.124-.162.21-.162a.424.424,0,0,1,.21.1l.773.573c.086.067.162.134.162.239,0,.2-.477.42-.6.477-.038,1.4-.019,5.509.057,7.848,0,.22.086,1.232.086,1.432a.745.745,0,0,1-.812.745c-.458,0-.43-.258-.4-.831h-8.106c0,.086,0,.516-.01.573-.105.334-.525.439-.773.439a.381.381,0,0,1-.43-.4c0-.172.038-.9.038-1.06.057-2.072.1-4.153.1-6.216a21.8,21.8,0,0,0-.2-4.134l1.356.745h7.934Zm-8.02.344v4.44h3.5v-4.44Zm0,4.784v4.583h3.5v-4.583Zm8.106-.344v-4.44h-3.609v4.44Zm0,4.927v-4.583h-3.609v4.583Z" transform="translate(-14.409 -75.433)"/>
  <path id="パス_3710" data-name="パス 3710" d="M159.6,193.7v-.621h4.153V180.67h.6V193.7Z" transform="translate(-15.047 -75.394)"/>
  <path id="パス_3711" data-name="パス 3711" d="M167.748,192.636a.468.468,0,0,1-.468-.525,15.921,15.921,0,0,1,.544-1.652,2.009,2.009,0,0,0,.029-.621l.124-.019a3.2,3.2,0,0,1,.535,1.709c0,.382-.115,1.1-.764,1.1Zm5.29-4.163a12.147,12.147,0,0,1-.878,3.953,2.082,2.082,0,0,1-1.547,1.194,2.026,2.026,0,0,0-1.174-1.413l.029-.1a7.412,7.412,0,0,0,1.384.162c.286,0,.4-.029.554-.372a11.579,11.579,0,0,0,.63-3.743h-3.189a.576.576,0,0,1-.611.707c-.286,0-.363-.143-.363-.391,0-.086.029-.43.029-.5.057-.9.076-3.39.076-4.382a15.358,15.358,0,0,0-.143-2.377l1.069.525h2.664l.344-.411c.1-.115.172-.191.239-.191.086,0,.162.076.286.162l.554.42a.353.353,0,0,1,.162.229c0,.105-.124.143-.229.143h-1.976v1.661h.611l.277-.344c.115-.143.162-.2.229-.2a.638.638,0,0,1,.286.162l.458.344c.067.057.162.124.162.229,0,.134-.134.162-.229.162h-1.8v1.652h.63l.344-.4c.105-.115.162-.172.229-.172.086,0,.143.038.258.143l.43.4a.344.344,0,0,1,.134.229c0,.086-.086.143-.22.143h-1.8v1.728h.955l.372-.42c.086-.1.162-.172.229-.172s.162.057.286.181l.554.516a.278.278,0,0,1,.105.181c0,.172-.325.334-.43.372Zm-3.619,3.552c-.477,0-.477-.6-.477-.9a3.755,3.755,0,0,0-.162-1.575l.086-.038c.1.115.611.63.687.754a2.065,2.065,0,0,1,.4,1.1.621.621,0,0,1-.544.659Zm.687-9.949h-1.26v1.661h1.26Zm0,2.005h-1.26v1.652h1.26Zm0,1.986h-1.26v1.728h1.26Zm.506,5.022c-.372,0-.411-.239-.525-1.06a3.522,3.522,0,0,0-.277-1.041l.057-.038c.754.659,1.194,1.041,1.194,1.6,0,.248-.143.544-.439.544Zm.8-1.06c-.286,0-.344-.229-.5-.8a1.683,1.683,0,0,0-.334-.659l.086-.086c.678.315,1.108.621,1.108,1.088,0,.229-.124.458-.363.458Zm9.481,2.635a2.069,2.069,0,0,0-1.356.84c-1.6-1.3-2.788-3.762-2.788-7.142h-1.537c-.143,3.523-.84,5.691-2.931,7.19l-.076-.057c2.005-2.177,2.072-6.168,2.072-9.147a13.9,13.9,0,0,0-.239-3.036l1.356.6h2.95l.411-.4a.366.366,0,0,1,.229-.134c.067,0,.124.029.239.134l.573.487a.3.3,0,0,1,.124.229c0,.1-.277.3-.439.411-.019.248-.029.516-.029.907,0,.458.086,2.463.086,2.9s-.439.573-.678.573c-.458,0-.43-.315-.411-.659H176.99c.334,3.122,2.387,5.6,3.905,6.216v.086Zm-2.425-10.407h-3.179c-.01.544-.067,3.179-.067,3.762h3.246Z" transform="translate(-15.394 -75.415)"/>
  <path id="パス_3712" data-name="パス 3712" d="M193.08,183.473c-1.833,0-2.377,0-3.342.573a5.4,5.4,0,0,0-2.425,4.268c0,2.387,2.521,2.95,3.81,3.237.21.048.812.172.812.792,0,.372-.363.4-.544.4-1.47,0-4.784-1.088-4.784-4.239a5.13,5.13,0,0,1,1.174-3.208,10.217,10.217,0,0,1,1.976-1.785,25.437,25.437,0,0,0-5.07,1.528c-.621.363-.687.391-.917.391a1.23,1.23,0,0,1-1.05-1.26,1.291,1.291,0,0,1,.2-.726c.277.43.487.754,1.117.754a11.6,11.6,0,0,0,2.11-.42c1.709-.42,4.459-1.031,6.158-1.451a2.954,2.954,0,0,1,.458-.067c.22,0,1.146.267,1.146.754,0,.458-.439.458-.84.458Zm-.4,3.638c-.239,0-.286-.057-.63-.659a7.532,7.532,0,0,0-1.346-1.575c.955.2,2.358.831,2.358,1.728,0,.248-.086.5-.382.5Zm1.671-.659c-.22,0-.258-.076-.678-.707a6.87,6.87,0,0,0-1.461-1.375c.917.086,2.521.678,2.521,1.614a.4.4,0,0,1-.382.458Z" transform="translate(-16.092 -75.466)"/>
  <path id="パス_3713" data-name="パス 3713" d="M201.091,190.532a11.443,11.443,0,0,1-4.583,2.96l-.038-.1c1.289-.792,3.495-2.893,3.886-4.172l1.194.907a.264.264,0,0,1,.143.22c0,.181-.143.2-.592.181Zm8.288-7.419h-10.77a8.387,8.387,0,0,0-1.671.143l-.286-.573c.974.086,1.986.086,2.206.086h3.724a5.039,5.039,0,0,0-.306-2.12l1.594.363c.105.029.239.076.239.181,0,.162-.124.229-.487.43-.01.477-.01.544-.01,1.146h3.676l.659-.7c.115-.124.143-.181.21-.181a.657.657,0,0,1,.3.162l.993.7s.143.124.143.229c0,.134-.124.143-.22.143Zm-2.559,2.406c0,.306,0,.659.01,1.318.019.258.086,1.365.086,1.575a.706.706,0,0,1-.707.668c-.4,0-.4-.2-.372-.716h-2.148c0,.621.038,3.323.038,3.876,0,.516,0,1.356-1.509,1.709-.115-.936-1.346-1.47-1.6-1.594v-.1a12.5,12.5,0,0,0,1.671.181c.411,0,.43-.086.43-.678v-3.409h-2.5c.029.4.057.907-.687.907-.315,0-.391-.172-.391-.391,0-.057.01-.239.01-.315.019-.43.038-1.766.038-2.282a8.539,8.539,0,0,0-.143-2.292l1.327.745h5.328l.43-.477c.057-.057.115-.115.181-.115a.325.325,0,0,1,.2.1l.678.544c.143.115.172.162.172.229,0,.181-.115.229-.573.487Zm-.974-.43h-5.614v2.931h5.614Zm2.292,7.963c-.391,0-.458-.124-1.06-1a6.833,6.833,0,0,0-2.167-2.263l.029-.1c1.47.239,3.743,1.413,3.743,2.731A.587.587,0,0,1,208.138,193.053Z" transform="translate(-16.714 -75.393)"/>
  <path id="パス_3714" data-name="パス 3714" d="M212.461,192.9a.629.629,0,0,1-.621-.611c0-.363.315-.6.754-.945a3.424,3.424,0,0,0,1.108-1.528h.086a5.54,5.54,0,0,1,.029.621c0,1.337-.554,2.473-1.356,2.473Zm10.866-8.23c-.191.134-.248.172-.315.229.029,1.442.038,2.005.067,2.578,0,.134.038.659.038.773a.61.61,0,0,1-.659.6c-.439,0-.439-.286-.439-.458v-.181h-6.636a10.114,10.114,0,0,0-1.69.124l-.277-.573c.907.076,1.8.105,2.186.105h6.407v-1.518h-6.416a9.3,9.3,0,0,0-1.69.134l-.286-.554c.888.067,1.776.086,2.206.086h6.187v-1.461h-7.858a11.813,11.813,0,0,1-2.005,1.3l-.038-.057a19.323,19.323,0,0,0,3.5-4.421,2.028,2.028,0,0,0,.2-.8l1.26.621a.311.311,0,0,1,.2.277c0,.153-.306.239-.525.3-.076.086-.22.258-.334.382H219.6l.516-.43c.086-.067.191-.162.239-.162a.734.734,0,0,1,.306.162l.678.535a.271.271,0,0,1,.143.22c0,.172-.115.181-.544.286-.172.038-.277.115-1.461.945-.239.172-.554.382-.754.516h3.1l.42-.4c.067-.067.172-.172.229-.172.076,0,.162.086.22.124l.611.487c.086.067.162.143.162.229s-.057.134-.143.2Zm-7.218-2.186c-.2.22-1.346,1.489-1.556,1.719h3.838c.153-.22.831-1.251,1.06-1.719Zm5.127,10.837c-.487.1-3.265.1-4.1.1-1.575,0-1.69-.3-1.69-1.661a12.279,12.279,0,0,0-.115-2.95l1.346.43c.086.029.229.115.229.2a.254.254,0,0,1-.115.172c-.038.038-.277.22-.315.258,0,.191-.029,2.11,0,2.33.029.258.315.277.659.277.64-.019,2.893.019,3.208-.1a.679.679,0,0,0,.43-.43,12.07,12.07,0,0,0,.43-1.614h.105a4.907,4.907,0,0,0,.544,1.8c.229.22.315.3.315.477s-.162.582-.926.726ZM219.23,191c-.391,0-.458-.172-.8-1a3.326,3.326,0,0,0-.754-1.146l.057-.086c1.871.525,2.043,1.27,2.043,1.49C219.774,190.576,219.65,191,219.23,191Zm4.994,1.155c-.4,0-.439-.1-.84-1a4.452,4.452,0,0,0-.993-1.595l.019-.029c.773.124,2.416.983,2.416,1.986a.6.6,0,0,1-.6.63Z" transform="translate(-17.409 -75.389)"/>
  <path id="パス_3715" data-name="パス 3715" d="M240.039,193.073h-10.5a9.989,9.989,0,0,0-1.69.134l-.286-.573c.726.067,1.47.1,2.206.1h3.609v-3.38H230.9a10.011,10.011,0,0,0-1.69.134l-.286-.573c1.127.086,1.948.1,2.206.1h5.538l.621-.687c.115-.115.172-.181.229-.181a.559.559,0,0,1,.277.162l.84.687a.286.286,0,0,1,.143.21c0,.143-.143.162-.229.162H234.4v3.38h3.7l.63-.754c.067-.086.124-.172.21-.172.057,0,.124.019.277.143l.9.754c.057.048.162.115.162.22,0,.143-.143.162-.229.162Zm-.506-6.015a30.88,30.88,0,0,1-3.58.134c-1.461,0-1.461-.363-1.461-1.776,0-.315-.01-1.919-.01-2.282h-4.669c-.191,1.6-1.289,1.6-1.327,1.6a.545.545,0,0,1-.573-.516c0-.363.277-.535.754-.85a1.752,1.752,0,0,0,.955-1.289h.115a1.28,1.28,0,0,1,.105.7h3.609a6.15,6.15,0,0,0-.258-2.1l1.356.344c.115.029.315.067.315.258a.225.225,0,0,1-.105.2,2.8,2.8,0,0,0-.325.229v1.069h3.38l.554-.458c.115-.086.172-.143.3-.143a.349.349,0,0,1,.248.124l.869.773a.392.392,0,0,1,.115.277c0,.258-.2.286-.773.325-.229.143-1.241.812-1.461.945l-.076-.076a10.894,10.894,0,0,0,.315-1.432h-2.435a23.684,23.684,0,0,0,.086,2.989,4.5,4.5,0,0,0,1.4.134c.5,0,1.594,0,1.843-.258a3.543,3.543,0,0,0,.63-1.518h.115c.229.936.315,1.289.5,1.413a.508.508,0,0,1,.286.458c0,.42-.516.64-.812.7Zm-6.684-2.7a6.169,6.169,0,0,1-4.764,3.581l-.057-.115c3.151-1.575,3.857-3.7,3.972-4.621l1.184.621c.143.076.191.134.191.22,0,.172-.038.181-.516.334Z" transform="translate(-18.119 -75.394)"/>
  <path id="パス_3716" data-name="パス 3716" d="M244.184,186.406c-.344,0-.43-.143-.888-1.031a3.754,3.754,0,0,0-.716-.936v-.086c.525.076,2.129.458,2.129,1.432A.563.563,0,0,1,244.184,186.406Zm.687,2.387a3.97,3.97,0,0,0-.067,2.626,6.445,6.445,0,0,1,.258,1.27c0,.4-.191.8-.63.8-.678,0-.678-.716-.678-1.031,0-.191.038-.974.038-1.136a1.475,1.475,0,0,0-.955-1.575v-.086a1.343,1.343,0,0,0,.945-.43c.315-.42,1.938-5.013,2.053-5.423l.115.038a35.463,35.463,0,0,1-1.069,4.927Zm.391-5.767c-.43,0-.554-.325-.878-1.012a5.332,5.332,0,0,0-.611-1.031l.029-.067c.277.057,2.053.554,2.053,1.47a.59.59,0,0,1-.592.64Zm10.111,5.872a2.39,2.39,0,0,0-.592.773,7.6,7.6,0,0,1-3.58-3.7h-1.833a11,11,0,0,1-1.5,2.062c1.012.086,1.986.1,2.158.1h.716l.258-.258c.105-.1.172-.2.277-.2a.532.532,0,0,1,.258.143l.468.372c.086.076.172.143.172.239,0,.162-.076.22-.334.439.019.22.057,1.165.057,1.346,0,.286,0,.458-.143.573a1.153,1.153,0,0,1-.544.181c-.286,0-.306-.2-.306-.325h-1.89c-.086,1.919.01,1.919.783,1.919,2.406,0,2.95,0,3.265-.3a4.272,4.272,0,0,0,.745-1.91h.076a6.232,6.232,0,0,0,.439,1.69c.057.086.076.086.229.22.076.057.115.1.115.181,0,.057,0,.42-.621.716a8.22,8.22,0,0,1-2.893.344c-2.721,0-3.1-.086-3.122-1.136a25.974,25.974,0,0,0-.086-2.693l1.318.611h1.642v-1.833h-1.127a8.259,8.259,0,0,0-1.671.134l-.277-.554a10.574,10.574,0,0,1-2.607,2.234l-.038-.086a16,16,0,0,0,2.979-4.22,10.882,10.882,0,0,0-1.814.124l-.286-.573c.745.057.888.076,2.158.1v-2.435a8.259,8.259,0,0,0-1.47.134l-.286-.573c.315.029.831.067,1.757.086a6.97,6.97,0,0,0-.239-2.206L249.3,181c.172.057.277.115.277.22,0,.162-.134.258-.42.458a10.535,10.535,0,0,1,0,1.155h1.833a5.627,5.627,0,0,0-.258-2.148l1.356.363c.162.038.277.134.277.2,0,.172-.229.344-.42.458-.01.181-.01.974-.01,1.136h.812l.458-.621c.057-.067.124-.181.21-.181s.2.115.277.172l.63.6c.086.076.143.134.143.22,0,.143-.115.162-.22.162h-2.32v2.435h1.595l.487-.64c.076-.1.124-.181.21-.181a.442.442,0,0,1,.277.162l.687.64c.086.086.143.162.143.22,0,.143-.124.162-.21.162H251.46a6.164,6.164,0,0,0,4.44,2.5v.086c-.086.057-.477.286-.544.344ZM251,183.188h-1.833v2.435H251C251,185.279,251.02,183.579,251,183.188Z" transform="translate(-18.798 -75.391)"/>
  <path id="パス_3717" data-name="パス 3717" d="M258.07,193.038a16.623,16.623,0,0,0,1.041-4.392,2.717,2.717,0,0,0-.038-.487l1.26.468c.057.029.162.076.162.191s-.048.162-.372.382a11.508,11.508,0,0,1-1.948,3.876l-.1-.038Zm5.7-9.892a.217.217,0,0,1,.1.2c0,.172-.143.22-.6.315-.487.659-1.241,1.661-2.521,3.094.076-.01,1.041-.038,1.8-.115a10.272,10.272,0,0,0-.516-1.012l.076-.1c.773.334,1.747.955,1.747,1.709a.59.59,0,0,1-.573.64c-.372,0-.382-.115-.659-1.031-.22.076-.458.143-1.022.306.019,1.976,0,2.988.029,4.211,0,.258.038,1.356.038,1.594,0,.22,0,.783-.64.783a.375.375,0,0,1-.4-.439c0-.659.115-4.984.124-5.929-.363.086-.812.2-1.833.4-.2.22-.21.248-.325.248s-.172-.1-.2-.2l-.306-1.213a4.353,4.353,0,0,0,1.337.21c.086,0,.859-.029.974-.038.945-1.4,2.158-3.533,2.148-4.411l1.232.8ZM258.633,183a3.419,3.419,0,0,1,1.489.458,9.181,9.181,0,0,0,.621-2.807l1.375.716a.223.223,0,0,1,.143.181c0,.143-.124.2-.63.4-.516.707-.707.917-1.308,1.633a1.329,1.329,0,0,1,.63,1.012.6.6,0,0,1-.544.659c-.363,0-.487-.306-.582-.516a4.7,4.7,0,0,0-1.232-1.652l.038-.1Zm3.3,5.528c.955.344,1.69,1.012,1.69,1.6a.558.558,0,0,1-.544.621c-.4,0-.477-.229-.687-1a2.951,2.951,0,0,0-.544-1.127l.086-.086Zm2.225.248a3.334,3.334,0,0,0-.716.057l-.2-.458c.525.048.955.057,1.088.057h.439l.277-.325s.1-.115.181-.115a.516.516,0,0,1,.22.124l.573.544c.057.057.162.143.162.239,0,.115-.038.172-.477.325a7.271,7.271,0,0,1-3.351,3.666l-.029-.086a9.174,9.174,0,0,0,2.473-4.039h-.64Zm2.979-1.881.258.086c.1.029.315.115.315.258,0,.172-.258.315-.372.372a5.006,5.006,0,0,0,.831,1.967,5.546,5.546,0,0,0,1.547-1.948l.993.993a.476.476,0,0,1,.076.181c0,.029-.019.181-.229.181-.038,0-.229-.01-.372-.029a18.17,18.17,0,0,1-1.919.754,5.864,5.864,0,0,0,3.466,2.33v.115a1.878,1.878,0,0,0-1.442.917,7.935,7.935,0,0,1-2.9-4.258c0,.535.086,2.864.086,3.342,0,.344,0,1.337-1.432,1.595-.162-.458-.315-.907-1.47-1.394l.019-.115c.229.029,1.184.086,1.375.086.573,0,.592-.115.592-.544V187.92a7.334,7.334,0,0,0-.038-1.031h-1.146a.528.528,0,0,1-.573.592c-.315,0-.458-.115-.458-.372,0-.2.076-2.072.076-2.463a22.8,22.8,0,0,0-.124-2.845l1.155.611h.859a5.242,5.242,0,0,0,.134-1.184,3.292,3.292,0,0,0-.076-.7l1.346.43c.115.038.239.1.239.239,0,.191-.143.229-.516.3a9.734,9.734,0,0,1-.773.917h1.948l.391-.439a.449.449,0,0,1,.239-.162.424.424,0,0,1,.21.1l.678.5c.086.057.191.162.191.248,0,.124-.057.153-.525.5,0,.582.124,3.351.124,3.666a.6.6,0,0,1-.678.63c-.392,0-.392-.229-.372-.554h-1.69Zm-1.814-4.134v1.719h3.5v-1.719Zm3.5,3.79v-1.728h-3.5v1.728Z" transform="translate(-19.499 -75.387)"/>
  <path id="パス_3718" data-name="パス 3718" d="M279.309,184.739H277.39c-.01.745-.01,1.069-.01,1.146v1.833a15.707,15.707,0,0,0,1.661-.716l.057.105c-.306.258-1.2.84-1.709,1.155,0,.573.01,3.58.01,4.01.019.124.029.716.029.831a.735.735,0,0,1-.773.716.319.319,0,0,1-.363-.315c0-.143.067-.754.067-.888.019-.7.048-3.036.057-3.752a22.13,22.13,0,0,1-2.024,1.174c-.115.344-.21.525-.372.525-.1,0-.191-.115-.239-.229l-.621-1.27a2.24,2.24,0,0,0,.773-.086c.115-.029,2.349-.831,2.492-.888.019-1.6.029-2.587.029-3.351h-1.509a10.353,10.353,0,0,1-1.3,2.893l-.115-.038a18.177,18.177,0,0,0,.888-5.939l1.356.468a.226.226,0,0,1,.191.22c0,.143-.258.258-.439.3-.076.315-.172.745-.458,1.766h1.394c-.01-2.788-.01-2.922-.239-3.7l1.461.43c.124.038.21.1.21.2,0,.134-.086.181-.487.5-.019.4-.029,2.206-.029,2.578h.506l.382-.516c.086-.134.162-.172.229-.172a.413.413,0,0,1,.258.143l.621.516a.3.3,0,0,1,.143.229c0,.1-.076.143-.22.143Zm7,1.232h-6.321a10.55,10.55,0,0,0-1.69.124l-.286-.554c.955.076,1.957.086,2.206.086h1.136c0-.43,0-.955-.019-2.416h-.792a10.548,10.548,0,0,0-1.69.124l-.286-.573c.945.086,1.929.1,2.206.1h.544a7.156,7.156,0,0,0-.239-2.148l1.528.458c.115.029.229.115.229.22,0,.143-.239.3-.525.42v1.06h1.375l.506-.63q.129-.172.229-.172c.067,0,.143.057.258.143l.745.63a.416.416,0,0,1,.143.22c0,.115-.124.162-.21.162h-3.036v2.416h2.32l.5-.668c.086-.115.162-.191.229-.191a.444.444,0,0,1,.258.162l.754.678c.067.076.143.162.143.229,0,.1-.086.143-.21.143Zm-.172,2.587h-2.5c0,.554.038,3.065.038,3.58,0,.773-.057,1.346-1.575,1.776-.3-.8-.554-.974-1.6-1.489v-.086c.64.048,1.155.086,1.595.086.611,0,.611-.1.611-1,0-.516-.029-1.8-.038-2.864h-2.215a10.482,10.482,0,0,0-1.69.124l-.277-.573c.945.086,1.938.105,2.186.105h1.986a5.734,5.734,0,0,0-.21-1.919l1.289.277c.191.038.325.086.325.239s-.143.277-.411.382c-.01.22-.01.4-.01,1.022h.955l.4-.621c.076-.115.162-.191.229-.191a.523.523,0,0,1,.286.162l.716.6a.346.346,0,0,1,.143.229c0,.1-.086.162-.229.162Zm-5.337,2.693c-.363,0-.449-.2-.678-.735a3,3,0,0,0-.792-1.184l.057-.105c.707.134,1.948.535,1.948,1.423a.548.548,0,0,1-.544.6Z" transform="translate(-20.181 -75.395)"/>
  <path id="パス_3719" data-name="パス 3719" d="M289.331,192.9a.629.629,0,0,1-.621-.611c0-.363.315-.6.754-.945a3.424,3.424,0,0,0,1.108-1.528h.086a5.536,5.536,0,0,1,.029.621c0,1.337-.554,2.473-1.356,2.473Zm10.866-8.23c-.191.134-.248.172-.315.229.029,1.442.038,2.005.067,2.578,0,.134.038.659.038.773a.61.61,0,0,1-.659.6c-.439,0-.439-.286-.439-.458v-.181h-6.636a10.113,10.113,0,0,0-1.69.124l-.277-.573c.907.076,1.8.105,2.186.105h6.407v-1.518h-6.416a9.294,9.294,0,0,0-1.69.134l-.286-.554c.888.067,1.776.086,2.206.086h6.187v-1.461h-7.858a11.809,11.809,0,0,1-2.005,1.3l-.038-.057a19.323,19.323,0,0,0,3.5-4.421,2.027,2.027,0,0,0,.2-.8l1.26.621a.311.311,0,0,1,.2.277c0,.153-.306.239-.525.3-.076.086-.22.258-.334.382h3.189l.516-.43c.086-.067.191-.162.239-.162a.734.734,0,0,1,.306.162l.678.535a.271.271,0,0,1,.143.22c0,.172-.115.181-.544.286-.172.038-.277.115-1.461.945-.239.172-.554.382-.754.516h3.1l.42-.4c.067-.067.172-.172.229-.172.076,0,.162.086.22.124l.611.487c.086.067.162.143.162.229s-.057.134-.143.2Zm-7.218-2.186c-.2.22-1.346,1.489-1.556,1.719h3.838c.153-.22.831-1.251,1.06-1.719h-3.342Zm5.127,10.837c-.487.1-3.265.1-4.1.1-1.575,0-1.69-.3-1.69-1.661a12.277,12.277,0,0,0-.115-2.95l1.346.43c.086.029.229.115.229.2a.254.254,0,0,1-.115.172c-.038.038-.277.22-.315.258,0,.191-.029,2.11,0,2.33.029.258.315.277.659.277.64-.019,2.893.019,3.208-.1a.679.679,0,0,0,.43-.43,12.075,12.075,0,0,0,.43-1.614h.1a4.909,4.909,0,0,0,.544,1.8c.229.22.315.3.315.477s-.162.582-.926.726ZM296.1,191c-.392,0-.458-.172-.8-1a3.327,3.327,0,0,0-.754-1.146l.057-.086c1.871.525,2.043,1.27,2.043,1.49C296.644,190.576,296.52,191,296.1,191Zm4.994,1.155c-.4,0-.439-.1-.84-1a4.452,4.452,0,0,0-.993-1.595l.019-.029c.773.124,2.416.983,2.416,1.986a.6.6,0,0,1-.6.63Z" transform="translate(-20.884 -75.389)"/>
  <path id="パス_3720" data-name="パス 3720" d="M307.12,188.758a16.593,16.593,0,0,0-.506,2.731c0,.162.076.85.076.993,0,.239-.029.525-.372.525-.592,0-1.518-1.318-1.518-4.22a36.606,36.606,0,0,1,.554-4.44,7.23,7.23,0,0,0,.086-.955,1.931,1.931,0,0,0-.487-1.384.606.606,0,0,1,.258-.057c.516,0,1.442.8,1.442,1.356a2.046,2.046,0,0,1-.181.678,12.531,12.531,0,0,0-1,4.5c0,.983.248,2.091.477,2.091.086,0,.162-.172.191-.267.162-.487.754-2.148,1.27-3.246l.115.029c-.086.4-.286,1.232-.4,1.69ZM314,191.765a14.413,14.413,0,0,1-3.5-.4,2.109,2.109,0,0,1-1.451-1.948,1.139,1.139,0,0,1,.143-.6c.325,1.088.592,1.919,3.294,1.919.286,0,1.671-.115,1.814-.115.506,0,1.108.22,1.108.621,0,.458-.506.535-1.4.535Zm-.115-7.572a6.674,6.674,0,0,0-2.769,1.06l-.086-.086c.22-.2,1.26-1.165,1.308-1.2s.038-.067.038-.115c0-.153-.439-.153-.525-.153a8.517,8.517,0,0,0-2.607.64,4.4,4.4,0,0,1,3.552-1.4c.888,0,1.91.258,1.91.764,0,.325-.3.411-.812.5Z" transform="translate(-21.611 -75.452)"/>
  <path id="パス_3721" data-name="パス 3721" d="M329.23,192.6a9.587,9.587,0,0,1-4.64-4.153h-.143c0,1.012-.01,1.747.019,2.95,0,.239.038,1.337.038,1.547a.706.706,0,0,1-.773.812c-.363,0-.4-.22-.4-.449,0-.181.086-1.375.086-1.633.029-1,.057-2.034.057-3.055-2.922,3.237-4.774,3.7-6.034,3.972l-.038-.115a15.261,15.261,0,0,0,4.869-4.039h-1.833a9.35,9.35,0,0,0-1.69.134l-.277-.573c.85.067,1.69.1,2.282.1V186.2h-1.193a11.171,11.171,0,0,0-1.69.124l-.277-.554c.974.076,2.005.086,2.186.086h.964v-1.967a9.753,9.753,0,0,0-1.633.134l-.286-.573c.907.067,1.8.1,2.206.1h2.463v-1.27a29.886,29.886,0,0,1-4.067.115v-.134c1.862-.2,5.729-.9,6.464-1.585l1.069.773c.162.115.172.172.172.2,0,.172-.162.172-.229.172-.086,0-.363-.029-.458-.029-.716.153-1.26.267-1.976.372v1.394h3.256l.5-.554c.086-.1.143-.172.229-.172a.5.5,0,0,1,.258.143l.678.554c.076.057.162.134.162.22,0,.134-.115.162-.229.162h-2.043v1.967h1.375l.525-.63c.115-.143.162-.181.229-.181.086,0,.181.1.239.143l.745.64c.076.076.143.143.143.229,0,.124-.124.143-.21.143h-3.055v1.89h.754l.506-.592c.086-.1.143-.181.229-.181a.538.538,0,0,1,.258.143l.7.6a.3.3,0,0,1,.143.22c0,.143-.124.162-.21.162h-4.85a7.905,7.905,0,0,0,5.958,2.845v.086c-1.088.4-1.318.812-1.518,1.222Zm-7.533-8.689v1.967h1.776c.01-.649.01-1.308.01-1.967h-1.8Zm1.776,2.311H321.7v1.89h1.776Zm2.826,0h-1.833l-.019,1.89H326.3Zm0-2.311h-1.833v1.967H326.3Z" transform="translate(-22.181 -75.394)"/>
  <path id="パス_3722" data-name="パス 3722" d="M337.6,192.633a5.693,5.693,0,0,1-2.034,1.26l-.029-.067a8.378,8.378,0,0,0,3.208-7.113c0-.945-.057-3.552-1.127-3.552-.573,0-.974.592-1.108.773a10.187,10.187,0,0,0-1.518,4.736c0,.162.105.888.105,1.031,0,.162-.057.4-.344.4-.84,0-1.108-1.671-1.108-2.96a30.325,30.325,0,0,1,.506-4.134,4.1,4.1,0,0,0,.057-.544,1.477,1.477,0,0,0-.831-1.3,2.756,2.756,0,0,1,.64-.1,1.238,1.238,0,0,1,1.26,1.031,1.633,1.633,0,0,1-.172.63,10.359,10.359,0,0,0-.8,3.838c0,.22,0,1.031.143,1.031.086,0,.115-.067.134-.143.325-1.174,1.556-4.841,3.246-4.841,1.8,0,1.976,2.807,1.976,4.239,0,2.635-.6,4.335-2.206,5.8Z" transform="translate(-22.903 -75.412)"/>
  <path id="パス_3723" data-name="パス 3723" d="M345.511,187.352c.01.907.086,4.134.086,4.736a1.5,1.5,0,0,1-1.432,1.69c-.143-.754-1.193-1.318-1.595-1.47v-.067c.344.038,1.089.086,1.461.086.544,0,.544-.019.544-.439v-3.915c-.9.554-.993.63-1.27.8-.124.315-.162.43-.325.43-.076,0-.124-.057-.191-.181l-.63-1.289c.391.038.707.057,2.425-.6v-3.3h-.592a8.5,8.5,0,0,0-1.213.1l-.286-.516c.8.057,1.528.076,1.728.076h.363v-1.06a5.455,5.455,0,0,0-.4-1.8l1.547.535c.143.038.2.086.2.172s-.076.162-.411.487c-.019.4-.019.535,0,1.661h.258l.258-.391c.076-.1.143-.181.22-.181a.436.436,0,0,1,.277.143l.4.4c.057.057.143.134.143.229,0,.124-.115.143-.21.143H345.54v2.9c.258-.1,1.385-.592,1.614-.687l.057.057a15.937,15.937,0,0,1-1.671,1.26Zm9.968,1.919h-4.688a5.372,5.372,0,0,0,4.669,3.094v.076a2.714,2.714,0,0,0-1.289,1.127,6.342,6.342,0,0,1-3.561-4.3h-.076a5.175,5.175,0,0,1-4.621,4.3V193.5a5.634,5.634,0,0,0,3.666-4.22h-1.661a9.789,9.789,0,0,0-1.69.124l-.286-.573c.63.057.907.076,1.461.086-.01-2.129-.01-2.368-.029-4.421a4.19,4.19,0,0,1-.888.573l-.057-.029c.468-.535,2.635-3.151,2.492-4.382l1.232.487c.057.029.143.086.143.143,0,.124-.105.181-.43.325l-.2.258h1.575l.392-.334a.406.406,0,0,1,.239-.124.452.452,0,0,1,.229.1l.659.458a.248.248,0,0,1,.086.172c0,.2-.162.258-.535.372-.372.315-.487.43-1.575,1.432h1.986l.41-.382a.416.416,0,0,1,.239-.124.348.348,0,0,1,.22.086l.582.5a.23.23,0,0,1,.105.181c0,.1-.057.162-.477.5-.01.277,0,.477,0,2.368v1.862h.392l.344-.6c.029-.057.143-.172.22-.172a.392.392,0,0,1,.258.153l.544.573c.057.076.143.143.143.229,0,.143-.124.162-.229.162Zm-6.072-7.065a16.868,16.868,0,0,1-1.27,1.595l.22.143h2.12a10.666,10.666,0,0,0,.831-1.728h-1.891Zm3.542,2.072h-1.423c0,.277.019,1.623.019,1.68a.2.2,0,0,0,.21.172c.306,0,.363-.172.506-.783h.086a1.432,1.432,0,0,0,.306.64.541.541,0,0,1,.2.372c0,.487-.63.582-1.108.582-.773,0-1.041-.2-1.041-.812,0-.286.029-1.575.029-1.852h-1.146l.525.076c.1.019.162.076.162.162,0,.115-.105.181-.2.229a3,3,0,0,1-1.747,2.559v-.067a3.988,3.988,0,0,0,.907-2.95h-.955v4.64h1.375a5.814,5.814,0,0,0,.076-.936,2.132,2.132,0,0,0-.124-.831l1.385.42c.105.029.172.057.172.162,0,.143-.124.239-.4.43-.076.43-.086.554-.124.764h2.33V184.3Z" transform="translate(-23.3 -75.392)"/>
  <path id="パス_3724" data-name="パス 3724" d="M367.005,193.1a17.832,17.832,0,0,1-2.444-.181c-1.069-.325-1.232-1.069-1.451-2.206-.143-.726-.544-.936-1.012-.936-.63,0-.936.449-2.091,2.12a7.578,7.578,0,0,1-.983,1.232.4.4,0,0,1-.286.1c-.239,0-.487-.2-.487-.64,0-.477.115-.573.936-1.26A29.322,29.322,0,0,0,362,188.4c.344-.382,2.11-2.311,2.139-2.368a.321.321,0,0,0,.038-.115c0-.143-.172-.143-.229-.143a10.673,10.673,0,0,0-2.53,1c-.4.286-.487.344-.706.344-.391,0-1.241-.592-1.241-1.174a1.475,1.475,0,0,1,.124-.516,1.233,1.233,0,0,0,1,.6,16.346,16.346,0,0,0,3.122-.812c.42-.162.793-.286.8-.286.267,0,1.2.439,1.2.9,0,.258-.105.315-.506.592a19.127,19.127,0,0,0-3.418,3.065,3.068,3.068,0,0,1,.745-.086c1.146,0,1.327.773,1.47,1.375.286,1.232.439,1.509,1.49,1.509a7.183,7.183,0,0,0,1.652-.248,2.492,2.492,0,0,1,.745-.172c.363,0,.8.267.8.621,0,.582-1.194.63-1.69.63Zm-2.358-9.6c-.2,0-1.022-.191-1.194-.191a5.174,5.174,0,0,0-1.346.277.9.9,0,0,1-.229.057l-.038-.086a8.848,8.848,0,0,0,.831-.535c.239-.172.325-.239.325-.372,0-.181-.115-.258-.5-.516-.907-.621-1.069-.964-1.127-1.661a5.106,5.106,0,0,0,1.957,1.26c.726.286,1.661.63,1.661,1.346C364.991,183.258,364.9,183.507,364.647,183.507Z" transform="translate(-24.027 -75.385)"/>
  <rect id="長方形_145" data-name="長方形 145" width="360" height="37.935" transform="translate(0 41.65)" fill="url(#linear-gradient)"/>
  <path id="パス_3725" data-name="パス 3725" d="M32.033,97.75a10.174,10.174,0,0,0,6.991,3.414v.132a2.575,2.575,0,0,0-1.74,1.481c-.506-.163-4.131-2.029-5.54-4.944.018.729.03,3.932.066,4.582,0,.084.018.47.018.554a.838.838,0,0,1-.909.795c-.343,0-.421-.241-.421-.458a3.372,3.372,0,0,1,.018-.355c.084-1.12.181-2.517.181-4.42a14.7,14.7,0,0,1-6.858,4.293l-.048-.132c2.457-.994,5.835-4.4,6.16-4.944H27.77c0,.554-.114.957-.843.957-.343,0-.4-.163-.4-.355s.078-.975.078-1.138c.03-.536.048-1.415.048-2.294a9.83,9.83,0,0,0-.211-2.649l1.511.668h2.764c0-.373-.018-1.264-.03-1.674h-4.42a11.1,11.1,0,0,0-1.921.145l-.325-.65c1.2.1,2.258.114,2.5.114h4.143a6.055,6.055,0,0,0-.325-2.114l1.692.44c.145.03.277.1.277.229,0,.181-.391.44-.536.536v.909h4.42l.7-.813c.114-.132.181-.211.259-.211a.577.577,0,0,1,.3.181l.994.813c.114.1.163.163.163.241,0,.145-.145.181-.241.181h-6.6v1.674h2.782l.536-.47a.413.413,0,0,1,.193-.114.379.379,0,0,1,.229.114l.729.584a.367.367,0,0,1,.163.259c0,.145-.1.211-.518.47-.018.355-.018.831.03,2.029.018.229.1,1.969.1,2.113,0,.518-.47.68-.831.68-.44,0-.421-.343-.391-.861H32.051ZM27.74,93.33v1.758h2.944L30.7,93.33H27.746Zm2.944,4.028V95.474H27.74v1.885Zm4.082,0V95.474H31.744c0,.259-.018,1.6-.018,1.885Zm0-2.276V93.324H31.744v1.758Z" transform="translate(-9.465 -35.314)" fill="#fff"/>
  <path id="パス_3726" data-name="パス 3726" d="M52.8,102.646a.714.714,0,0,1-.7-.7c0-.4.355-.68.861-1.072a3.8,3.8,0,0,0,1.252-1.74h.1c.018.193.03.4.03.7C54.34,101.345,53.708,102.646,52.8,102.646ZM65.136,93.3a4.068,4.068,0,0,0-.355.259c.03,1.644.048,2.276.078,2.926,0,.145.048.747.048.879a.693.693,0,0,1-.747.68c-.506,0-.506-.325-.506-.518v-.211H56.128a11.2,11.2,0,0,0-1.921.145l-.307-.65c1.024.084,2.047.114,2.487.114h7.268V95.2h-7.28a11.094,11.094,0,0,0-1.921.145l-.325-.632c1.006.078,2.017.1,2.5.1h7.021V93.156H54.731a12.945,12.945,0,0,1-2.276,1.481l-.048-.066a21.854,21.854,0,0,0,3.98-5.022,2.41,2.41,0,0,0,.229-.909l1.433.7a.357.357,0,0,1,.229.307c0,.163-.343.277-.6.343-.084.1-.241.3-.373.44h3.625l.584-.488c.1-.078.211-.181.277-.181a.792.792,0,0,1,.343.181l.765.6c.084.066.163.132.163.241,0,.193-.132.211-.62.325-.193.048-.307.132-1.656,1.072-.277.193-.632.44-.861.584H63.45l.47-.458c.078-.078.193-.193.259-.193.084,0,.181.1.247.145l.7.554c.1.078.181.163.181.259,0,.078-.066.145-.163.229Zm-8.189-2.487c-.229.247-1.529,1.692-1.77,1.951H59.53a19.661,19.661,0,0,0,1.2-1.951Zm5.817,12.3c-.554.114-3.7.114-4.648.114-1.788,0-1.921-.343-1.921-1.885A13.612,13.612,0,0,0,56.062,98l1.529.488c.1.03.259.132.259.229a.257.257,0,0,1-.132.193c-.048.048-.307.241-.355.3,0,.211-.03,2.39,0,2.649.03.3.355.307.747.307a35,35,0,0,0,3.643-.114.762.762,0,0,0,.488-.488,15.93,15.93,0,0,0,.488-1.837h.114a5.3,5.3,0,0,0,.62,2.029c.259.241.355.343.355.536s-.181.668-1.054.831Zm-2.276-2.631c-.44,0-.518-.193-.909-1.138a3.61,3.61,0,0,0-.861-1.3l.066-.1c2.132.6,2.324,1.445,2.324,1.692,0,.373-.145.843-.62.843ZM66.16,101.8c-.458,0-.506-.114-.957-1.138a5.13,5.13,0,0,0-1.12-1.806l.018-.03c.879.145,2.746,1.12,2.746,2.258a.674.674,0,0,1-.68.717Z" transform="translate(-20.729 -35.267)" fill="#fff"/>
  <path id="パス_3727" data-name="パス 3727" d="M91.427,91.072c-2.619,2.746-4.161,4.131-6.226,5.106a15.645,15.645,0,0,1-4.745,1.511l-.066-.132a23.24,23.24,0,0,0,6.6-3.595,19.121,19.121,0,0,0,3.366-3.529H86.664c-.554.6-.891.945-1.331,1.367,1.108.3,2,.536,2,1.493a.666.666,0,0,1-.65.7c-.458,0-.62-.373-.927-1.108a2.692,2.692,0,0,0-.584-.927,13.875,13.875,0,0,1-4.245,2.68l-.078-.114c2.421-1.6,5.347-4.63,5.738-6.292l1.433.62a.272.272,0,0,1,.193.229c0,.163-.132.247-.68.325-.181.229-.277.343-.518.632h3.414l.632-.47c.1-.066.163-.132.229-.132a.369.369,0,0,1,.211.114l.945.7a.49.49,0,0,1,.193.277c0,.181-.181.3-1.2.536Zm2.246,6a22.5,22.5,0,0,1-4.793,4.341,16.434,16.434,0,0,1-7.527,2.276l-.03-.145a17.478,17.478,0,0,0,7.8-3.48,16,16,0,0,0,3.4-3.721H88.9a17.306,17.306,0,0,1-2.029,1.608c.132.03,2.18.584,2.18,1.692a.759.759,0,0,1-.729.765c-.385,0-.422-.114-.813-1.054a4.618,4.618,0,0,0-.861-1.252,14.745,14.745,0,0,1-5.136,2.162l-.114-.114a20.068,20.068,0,0,0,7.021-4.793,4.825,4.825,0,0,0,1.349-1.867l1.319.7c.1.048.193.114.193.229,0,.211-.3.247-.729.277a12.565,12.565,0,0,1-1.216,1.271h3.282l.506-.373c.066-.048.163-.145.241-.145s.132.066.211.132l.975.795a.356.356,0,0,1,.163.259c0,.145-.114.241-1.024.458Z" transform="translate(-31.984 -35.104)" fill="#fff"/>
  <path id="パス_3728" data-name="パス 3728" d="M120.692,90.773l.518-.765c.084-.132.145-.211.247-.211s.181.066.343.193l.945.747c.078.066.163.145.163.241,0,.114-.1.181-.247.181H111.528c.018.325.048,2.114.048,2.246,0,4.763-.536,7.28-2.679,9.2l-.1-.066a7.914,7.914,0,0,0,1.216-3,26.132,26.132,0,0,0,.421-5.04,32.847,32.847,0,0,0-.277-4.564l1.56.843h4.372a5.731,5.731,0,0,0-.3-2.113l1.626.421c.132.03.211.084.211.211s-.114.277-.47.458a9.676,9.676,0,0,1,0,1.024h3.529Zm-8.5,7.183a26.268,26.268,0,0,0,7.557-1.529l.831.65a.3.3,0,0,1,.132.241c0,.1-.048.241-.277.241-.084,0-.241-.03-.373-.048-.909.181-1.692.325-2.716.47v1.252h1.74l.47-.65c.1-.132.163-.211.259-.211a.558.558,0,0,1,.325.181l.717.65a.394.394,0,0,1,.145.277c0,.1-.1.145-.229.145h-3.432v1.138h3.787l.518-.729c.1-.145.181-.229.259-.229a.584.584,0,0,1,.355.193l.843.729a.392.392,0,0,1,.163.259c0,.1-.078.163-.229.163h-5.7c0,.193.018,1.054,0,1.216-.066.831-1.138,1.216-1.656,1.3a1.8,1.8,0,0,0-1.349-1.445l.018-.114c.193.018,1.054.066,1.234.066.729,0,.729-.1.747-1.024h-3.27a12.021,12.021,0,0,0-1.921.145l-.391-.632c1.108.078,2.276.1,2.5.1h3.071V99.619h-1.867a12.022,12.022,0,0,0-1.921.145l-.391-.65c1.12.1,2.276.114,2.5.114h1.674v-1.12a21.267,21.267,0,0,1-2.228.132,10.792,10.792,0,0,1-1.921-.163v-.132Zm-.163-5.154c.506.048,1.042.1,2.39.114a5.137,5.137,0,0,0-.229-1.541l1.283.325c.114.03.193.1.193.193,0,.132-.078.193-.355.325,0,.277-.018.373-.018.7h.584l.229-.373c.1-.163.145-.229.241-.229s.181.084.3.193l.373.373a.518.518,0,0,1,.163.277c0,.066-.084.145-.259.145h-1.626v.325c.62.084,1.481.488,1.481,1.138a.51.51,0,0,1-.488.566c-.343,0-.4-.193-.566-.729a2.23,2.23,0,0,0-.421-.813c.018.4.078,2.535.078,2.583a.556.556,0,0,1-.62.65c-.4,0-.44-.229-.44-.536,0-.048.1-2.18.114-2.583a8.213,8.213,0,0,1-2.649,2.553l-.078-.114a13.4,13.4,0,0,0,2.065-3.023,9.719,9.719,0,0,0-1.433.132l-.307-.65Zm5.377-.03c.355.03.65.066,1.463.1a5.821,5.821,0,0,0-.193-1.511l1.216.307c.145.03.277.1.277.193,0,.132-.145.277-.391.4-.018.145,0,.325,0,.62h1.541l.343-.536c.084-.132.163-.211.259-.211s.181.066.307.181l.6.536a.329.329,0,0,1,.145.241c0,.114-.078.181-.229.181H120.1a6.382,6.382,0,0,0,3.739,1.9v.1a2.246,2.246,0,0,0-1.252.994,7.265,7.265,0,0,1-2.746-2.993h-.066c0,.4.048,2.132.048,2.517,0,.211,0,.6-.632.6-.3,0-.373-.163-.373-.458,0-.145.048-.795.048-.927.018-.421.018-.7.018-.909a7.232,7.232,0,0,1-2.7,2.192l-.03-.114a13,13,0,0,0,2.276-2.86,5.6,5.6,0,0,0-.7.1l-.325-.65Z" transform="translate(-43.288 -35.275)" fill="#fff"/>
  <path id="パス_3729" data-name="パス 3729" d="M140.824,91.2c.03,1.271.048,2.342.048,2.956,0,3.414-.048,7.8-3.4,9.49l-.066-.084c1.626-1.7,2.306-3.673,2.306-8.695a36.5,36.5,0,0,0-.247-4.907l1.674.44c.211.048.325.163.325.3s-.114.3-.65.506Zm4.341.241c-.018.47-.03,1.379-.03,2.794,0,2.047.132,5.317.132,7.364a.769.769,0,0,1-.861.795c-.458,0-.47-.307-.47-.518,0-.163.078-1.656.078-1.9.03-1.138.066-2.1.066-5.154a27.282,27.282,0,0,0-.241-4.516l1.578.4c.145.03.277.132.277.229,0,.145-.1.277-.518.506Zm4.974-.373c-.048,2.21-.048,3.655-.048,4.6,0,1.12.114,6.13.114,7.153a.8.8,0,0,1-.879.927.449.449,0,0,1-.506-.518c0-.325.066-1.722.084-2.017.048-1.9.066-3.805.066-5.69,0-2.782-.018-3.787-.1-4.582a5.458,5.458,0,0,0-.193-1.12l1.74.536c.181.048.277.145.277.247,0,.193-.163.307-.554.47Z" transform="translate(-54.671 -35.736)" fill="#fff"/>
  <path id="パス_3730" data-name="パス 3730" d="M165.2,102.788a18.96,18.96,0,0,0,1.186-4.992,3.442,3.442,0,0,0-.048-.554l1.433.536c.066.03.181.084.181.211,0,.145-.048.181-.421.44a13.2,13.2,0,0,1-2.21,4.4l-.114-.048Zm6.467-11.23a.261.261,0,0,1,.114.229c0,.193-.163.241-.68.355-.554.747-1.415,1.885-2.86,3.51.078-.018,1.186-.048,2.029-.132a9.875,9.875,0,0,0-.584-1.156l.078-.114c.879.373,1.981,1.09,1.981,1.933a.67.67,0,0,1-.65.729c-.421,0-.44-.132-.747-1.168-.247.084-.518.163-1.156.343.018,2.246,0,3.4.03,4.781,0,.3.048,1.541.048,1.806,0,.241,0,.891-.729.891a.431.431,0,0,1-.458-.506c0-.747.132-5.654.145-6.732-.4.1-.927.229-2.083.458-.229.241-.241.277-.373.277-.114,0-.193-.114-.229-.229l-.343-1.379a4.951,4.951,0,0,0,1.511.241c.1,0,.975-.03,1.108-.048,1.072-1.6,2.457-4.016,2.439-5l1.4.909Zm-5.835-.163a3.835,3.835,0,0,1,1.692.518,10.239,10.239,0,0,0,.7-3.185l1.56.813a.265.265,0,0,1,.163.211c0,.163-.145.229-.717.458-.584.795-.795,1.042-1.481,1.855a1.515,1.515,0,0,1,.717,1.156.687.687,0,0,1-.62.747c-.4,0-.554-.343-.668-.584a5.233,5.233,0,0,0-1.4-1.867l.048-.114Zm3.757,6.274c1.09.391,1.921,1.156,1.921,1.818a.629.629,0,0,1-.62.7c-.458,0-.536-.259-.783-1.138a3.352,3.352,0,0,0-.62-1.283l.1-.1Zm2.517.277a3.6,3.6,0,0,0-.813.066l-.229-.518c.6.048,1.09.066,1.234.066h.506l.307-.373c.03-.03.114-.132.211-.132a.448.448,0,0,1,.241.145l.65.62c.066.066.181.163.181.277,0,.132-.048.193-.536.373a8.291,8.291,0,0,1-3.806,4.161l-.03-.1a10.481,10.481,0,0,0,2.812-4.582h-.729Zm3.378-2.132.3.1c.114.03.355.132.355.3,0,.193-.3.355-.421.421a5.729,5.729,0,0,0,.945,2.228,6.432,6.432,0,0,0,1.758-2.21l1.12,1.12a.379.379,0,0,1,.084.211c0,.03-.018.211-.259.211-.048,0-.259-.018-.421-.03a23.06,23.06,0,0,1-2.18.861,6.71,6.71,0,0,0,3.932,2.649v.132a2.184,2.184,0,0,0-1.644,1.042,9.019,9.019,0,0,1-3.3-4.829c0,.6.1,3.252.1,3.787,0,.391,0,1.511-1.626,1.806-.181-.518-.355-1.024-1.674-1.578l.018-.132c.259.03,1.349.1,1.56.1.65,0,.668-.132.668-.62v-4.39a7.426,7.426,0,0,0-.048-1.168h-1.3a.6.6,0,0,1-.65.668c-.355,0-.518-.132-.518-.421,0-.229.078-2.354.078-2.794a26.574,26.574,0,0,0-.145-3.233l1.319.7h.975a6.073,6.073,0,0,0,.145-1.349,3.684,3.684,0,0,0-.084-.795l1.529.488c.132.048.277.114.277.277,0,.211-.163.259-.584.343a12.261,12.261,0,0,1-.879,1.042h2.21l.44-.506a.5.5,0,0,1,.277-.181.45.45,0,0,1,.241.114l.765.566c.1.066.211.181.211.277,0,.145-.066.181-.6.566,0,.668.145,3.805.145,4.161a.681.681,0,0,1-.765.717c-.44,0-.44-.259-.421-.632h-1.921Zm-2.065-4.7V93.07h3.98V91.119Zm3.98,4.305V93.455h-3.98v1.969Z" transform="translate(-65.727 -35.247)" fill="#fff"/>
  <path id="パス_3731" data-name="パス 3731" d="M198.06,89.758v14.09h-.68V89.06h5.4v.7H198.06Z" transform="translate(-78.531 -35.434)" fill="#fff"/>
  <path id="パス_3732" data-name="パス 3732" d="M224.982,91.561h-6.714v2.667c1.608.277,4.082,1.186,4.082,2.764a.7.7,0,0,1-.68.765c-.421,0-.554-.211-1.138-1.156a6.947,6.947,0,0,0-2.258-2.18c.018,3.691.018,4.095.1,7.834,0,.114.018.65.018.765a.783.783,0,0,1-.879.843c-.554,0-.554-.355-.554-.536,0-.47.114-2.782.132-3.3.03-1.283.03-2,.03-8.466h-3.95a11.553,11.553,0,0,0-1.9.145l-.325-.65c.831.066,1.656.114,2.5.114h9.038l.909-.879c.114-.1.211-.181.259-.181a.53.53,0,0,1,.307.163l1.12.861a.359.359,0,0,1,.163.241c0,.163-.163.181-.259.181Z" transform="translate(-83.926 -35.852)" fill="#fff"/>
  <path id="パス_3733" data-name="パス 3733" d="M252.994,102.974a7.469,7.469,0,0,1-2.746.247c-1.319,0-2.306-.03-2.306-1.493,0-1.349.373-7.3.421-8.514h-2.631a23.017,23.017,0,0,1-.632,3.757c.391.229,1.981,1.2,1.981,2.144a.59.59,0,0,1-.65.632.6.6,0,0,1-.506-.259c-.7-.813-.879-.994-1.186-1.319a8.891,8.891,0,0,1-3.643,4.582,9.265,9.265,0,0,1-2.228,1.024l-.048-.1a10.609,10.609,0,0,0,5.04-6.34,9.123,9.123,0,0,0-2.421-1.608v-.1a9.81,9.81,0,0,1,2.649.813,18.433,18.433,0,0,0,.44-3.233h-2.782a11.2,11.2,0,0,0-1.921.145l-.307-.632c1.006.078,2.017.1,2.487.1h2.553a16.169,16.169,0,0,0-.3-4.082l2,.584a.262.262,0,0,1,.163.229c0,.132-.1.211-.506.536-.03,1.529-.132,2.487-.145,2.734h2.457l.62-.536c.066-.048.181-.163.259-.163a.485.485,0,0,1,.259.114l.795.68c.048.048.132.1.132.181,0,.163-.211.277-.729.566-.163,1.072-.355,5.251-.4,6.63-.018.44-.03.843-.03.909,0,.861.241.861,1.74.861.729,0,1.108,0,1.283-.566.144-.458.44-1.837.554-2.409h.1c.066.373.307,2.017.4,2.342.066.181.1.211.325.422a.457.457,0,0,1,.145.355c0,.241-.181.554-.68.765Z" transform="translate(-95.018 -35.307)" fill="#fff"/>
  <path id="パス_3734" data-name="パス 3734" d="M281.677,96.659h-6.551v5.3c0,.62,0,1.806-2.083,2.017-.048-.488-.163-1.054-1.9-1.855l.018-.114a13.73,13.73,0,0,0,1.77.163c.765,0,.994-.066.994-.68V96.659h-4.486a11.094,11.094,0,0,0-1.921.145l-.325-.65c1.006.078,2.017.114,2.5.114h4.227V94.624a4.335,4.335,0,0,0-.277-1.921l1.511.421a23.4,23.4,0,0,0,1.626-2.487h-5.558a11.2,11.2,0,0,0-1.921.145l-.307-.65c1.006.078,2,.114,2.487.114h5.4l.632-.554c.163-.132.193-.163.307-.163.066,0,.132.048.277.163l1.138.927a.377.377,0,0,1,.163.277c0,.241-.193.307-1.2.343a31,31,0,0,1-2.716,1.981.252.252,0,0,1,.193.211c0,.211-.259.355-.554.536v2.294h4.113l.843-.927c.145-.145.181-.211.241-.211.078,0,.163.066.307.181l1.12.927a.356.356,0,0,1,.163.259c0,.145-.132.163-.247.163Z" transform="translate(-106.305 -35.621)" fill="#fff"/>
  <path id="パス_3735" data-name="パス 3735" d="M296.09,103.638v-.7H300.8V88.85h.68v14.788Z" transform="translate(-117.804 -35.35)" fill="#fff"/>
  <path id="パス_3736" data-name="パス 3736" d="M311.126,102.73a.532.532,0,0,1-.536-.6,17.385,17.385,0,0,1,.62-1.867,2.019,2.019,0,0,0,.03-.7l.145-.018a3.583,3.583,0,0,1,.6,1.933C311.987,101.917,311.854,102.73,311.126,102.73Zm6-4.727a14.021,14.021,0,0,1-.994,4.486,2.356,2.356,0,0,1-1.758,1.349,2.32,2.32,0,0,0-1.331-1.608l.03-.114a8.567,8.567,0,0,0,1.578.181c.325,0,.458-.03.632-.421A13.312,13.312,0,0,0,316,97.63h-3.625a.655.655,0,0,1-.7.795c-.325,0-.4-.163-.4-.44,0-.1.03-.488.03-.566.066-1.024.084-3.854.084-4.974a17.355,17.355,0,0,0-.163-2.7l1.216.6h3.023l.391-.47c.114-.132.193-.211.277-.211s.181.084.325.181l.632.47a.387.387,0,0,1,.181.259c0,.114-.145.163-.259.163h-2.246v1.885h.7l.307-.391c.133-.163.181-.229.259-.229s.181.078.325.181l.518.391c.078.066.181.145.181.259,0,.145-.144.181-.259.181h-2.029v1.867h.717l.391-.458c.114-.132.181-.193.259-.193.1,0,.163.048.295.163l.488.458a.394.394,0,0,1,.145.259c0,.1-.1.163-.241.163h-2.047v1.969h1.09l.421-.47c.1-.114.181-.193.259-.193s.181.066.325.211l.632.584a.31.31,0,0,1,.114.211c0,.193-.373.373-.488.422Zm-4.113,4.028c-.536,0-.536-.68-.536-1.024a4.366,4.366,0,0,0-.181-1.788l.1-.048c.114.132.7.717.783.861a2.342,2.342,0,0,1,.458,1.252A.708.708,0,0,1,313.011,102.032Zm.783-11.3H312.36V92.62h1.433Zm0,2.276H312.36v1.867h1.433Zm0,2.258H312.36v1.969h1.433Zm.566,5.7c-.422,0-.47-.277-.6-1.2a4.543,4.543,0,0,0-.307-1.186l.066-.048c.861.747,1.349,1.186,1.349,1.818a.567.567,0,0,1-.506.62Zm.909-1.2c-.325,0-.391-.259-.566-.909a2.065,2.065,0,0,0-.373-.747l.1-.1c.765.355,1.252.7,1.252,1.234,0,.259-.144.518-.4.518Zm10.76,2.993a2.387,2.387,0,0,0-1.541.957c-1.818-1.481-3.167-4.275-3.167-8.111h-1.74c-.163,4-.957,6.455-3.33,8.159l-.084-.066c2.276-2.469,2.354-7,2.354-10.387a14.914,14.914,0,0,0-.277-3.444l1.541.68h3.348l.47-.458a.394.394,0,0,1,.259-.145c.078,0,.145.03.277.145l.65.554a.331.331,0,0,1,.144.259c0,.114-.307.343-.506.47-.018.277-.03.584-.03,1.024,0,.518.1,2.794.1,3.3s-.506.65-.765.65c-.518,0-.488-.355-.47-.747H321.6c.373,3.541,2.716,6.353,4.438,7.051l-.018.1Zm-2.746-11.814h-3.607c-.018.62-.078,3.607-.078,4.275h3.691V90.947Z" transform="translate(-123.573 -35.677)" fill="#fff"/>
  <path id="パス_3737" data-name="パス 3737" d="M346.318,102.6a2.478,2.478,0,0,1-1.433.861c-.4,0-.44-.193-.488-.68a7.087,7.087,0,0,0-1.168-2.162l.018-.084a8,8,0,0,0,1.951,1.108c1.138,0,1.9-4.227,1.9-5.365,0-1.3-.343-1.692-1.108-1.692a6.332,6.332,0,0,0-1.072.145c-.229.518-1.252,2.86-1.433,3.252a49.024,49.024,0,0,1-2.457,4.679.643.643,0,0,1-.506.325c-.259,0-.506-.277-.506-.729,0-.488.114-.632.668-1.319a23.124,23.124,0,0,0,2.162-3.691c.355-.729.7-1.481,1.006-2.246a9.251,9.251,0,0,0-2.258.994c-.391.241-.518.307-.7.307a1.709,1.709,0,0,1-1.349-1.529,1.1,1.1,0,0,1,.181-.584c.4.729.813.795,1.108.795a3.749,3.749,0,0,0,.945-.145c.241-.066,1.608-.4,2.409-.6a9.947,9.947,0,0,0,.747-2.469c0-.668-.277-.813-1.156-1.252a2.751,2.751,0,0,1,.945-.193c.62,0,1.656.717,1.656,1.156,0,.193-.03.277-.4.945-.1.163-.488,1.054-.729,1.6.211-.018.536-.066.891-.066,1.541,0,1.885,1.271,1.885,2.619,0,1.138-.506,4.727-1.7,6.027Zm6.744-3.884a4.442,4.442,0,0,1-.879-.44,12.648,12.648,0,0,0-2.246-.584v-.114c1.644-.163,2.047-.325,2.047-.783,0-.181-.518-1.445-3.041-3.137,3.041.554,4.534,2.728,4.534,4.323,0,.132,0,.729-.422.729Z" transform="translate(-135.095 -35.935)" fill="#fff"/>
  <path id="パス_3738" data-name="パス 3738" d="M370.208,103.05v-.1a11.715,11.715,0,0,0,3.818-1.331c1.156-.62,2.114-1.4,2.114-2.782a1.911,1.911,0,0,0-2.047-2.083,6.8,6.8,0,0,0-5.317,3.27.492.492,0,0,1-.4.3c-.6,0-.861-.957-.861-1.3a5.143,5.143,0,0,1,.211-1.168,24.829,24.829,0,0,0,.3-3.414c0-1.481,0-2.324,2.812-2.764.1-.018.145-.03.145-.114s-.048-.114-.44-.373a2.19,2.19,0,0,1-1.006-1.608,6.982,6.982,0,0,0,2.342,1.252c.355.145,1.271.518,1.271,1.493,0,.355-.132.506-.343.506a1.733,1.733,0,0,1-.747-.259,4.821,4.821,0,0,0-1.692-.277c-1.234,0-1.758.391-1.758.861,0,.163.03.259.355,1.072a2.05,2.05,0,0,1,.114.566,8.217,8.217,0,0,1-.229.957,11.317,11.317,0,0,0-.343,2.21c0,.1.018.373.211.373.1,0,1.108-.729,1.319-.861a8.479,8.479,0,0,1,4.191-1.3A2.894,2.894,0,0,1,377.385,99c0,2.68-3.318,4.275-7.183,4.046Z" transform="translate(-146.219 -35.641)" fill="#fff"/>
  <g id="グループ_153" data-name="グループ 153" transform="translate(179.73 191.273)">
    <path id="パス_3677" data-name="パス 3677" d="M921.034,234.972a6.61,6.61,0,0,1,2.418,5.266c0,4.379-3.594,7.51-8.3,7.51-3.842,0-7.087-2.17-7.087-5.018a2.055,2.055,0,0,1,2.029-2.277,1.747,1.747,0,0,1,1.746,1.78,2.962,2.962,0,0,1-.215,1.142,2.47,2.47,0,0,0-.107.819c0,1.35,1.531,2.351,3.2,2.351,2.74,0,5.515-2.707,5.515-6.3s-2.707-6.515-5.555-6.515c-.215,0-1.209.141-1.424.141a.706.706,0,0,1-.786-.746.806.806,0,0,1,.819-.819c.215,0,1.283.215,1.531.215,2.989,0,4.877-2.667,4.877-5.555s-1.672-5.34-4.487-5.34a2.664,2.664,0,0,0-2.881,2.384,2.965,2.965,0,0,0,.107.531,3.376,3.376,0,0,1,.107.853,1.885,1.885,0,0,1-1.813,1.961,1.845,1.845,0,0,1-1.78-1.961c0-1.955,2.277-4.984,6.831-4.984s7.12,2.848,7.12,5.978a6.18,6.18,0,0,1-1.317,3.634,8.455,8.455,0,0,1-4.52,3.023,9.488,9.488,0,0,1,3.949,1.921Z" transform="translate(-848.717 -220.41)" fill="#1c2c5a"/>
    <path id="パス_3678" data-name="パス 3678" d="M941.664,231.456a6.011,6.011,0,0,1,3.1-.927c3.526,0,6.374,3.56,6.374,7.866,0,4.95-3.526,9.363-7.617,9.363s-8.188-4.594-8.188-12.279c0-8.221,4.628-15.059,10.075-15.059,2.385,0,4.057,1.424,4.057,3.13a1.78,1.78,0,0,1-1.814,1.854c-.712,0-1.887-.463-1.955-2.492-.034-.786-.107-1.283-1.068-1.283a3.652,3.652,0,0,0-2.6,1.283c-3.17,3.486-3.345,8.719-3.486,11.922a8.912,8.912,0,0,1,3.13-3.385Zm-1.175,13.172a3.523,3.523,0,0,0,2.881,1.921c1.888,0,4.554-1.961,4.554-7.832,0-1.6-.39-6.583-4.057-6.583-1.35,0-3.634.994-5.306,4.843.141,1.955.43,5.374,1.921,7.651Z" transform="translate(-857.667 -220.413)" fill="#1c2c5a"/>
    <path id="パス_3679" data-name="パス 3679" d="M969.658,234.182a18.814,18.814,0,0,1-6.75,7.4l-.107-.154a28.359,28.359,0,0,0,5.273-7.973,7.418,7.418,0,0,0,.349-1.4l1.874,1.263c.107.067.282.195.282.349,0,.262-.564.416-.913.5ZM977.564,241c-.215,7.839-.651,9.431-4.574,9.78a3.145,3.145,0,0,0-1.632-2.4l.02-.155a13.71,13.71,0,0,0,2.526.369c1.048,0,1.458-.242,1.787-2.223a44.96,44.96,0,0,0,.329-6.274h-4.4c-.128,3.419-1.592,9.323-8.45,10.586l-.04-.175c4.42-2.049,6.663-5.333,6.885-10.411h-.631a13.868,13.868,0,0,0-2.573.215l-.416-.873c1.35.107,2.68.128,3.332.128h6.166l.591-.524c.134-.128.262-.242.39-.242.108,0,.215.107.3.195l.873.961a.58.58,0,0,1,.195.349c0,.195-.067.242-.678.672Zm3.963-.02c-2.331-1-4.924-3.352-6.556-8.275h-1.74a10.593,10.593,0,0,0-1.827.128l-.282-.759c.981.087,1.941.107,2.371.107h1.088l.7-.7c.195-.195.282-.242.39-.242.128,0,.215.107.369.242l.806.786a.391.391,0,0,1,.175.329c0,.437-1,.611-1.4.672a10.186,10.186,0,0,0,7.993,5.837l.02.215a3.6,3.6,0,0,0-2.116,1.652Z" transform="translate(-866.686 -223.966)" fill="#1c2c5a"/>
    <path id="パス_3680" data-name="パス 3680" d="M1005.9,251.068a13.345,13.345,0,0,1,0-21.078l.195.3a14.732,14.732,0,0,0,0,20.473Z" transform="translate(-879.142 -223.555)" fill="#1c2c5a"/>
    <path id="パス_3681" data-name="パス 3681" d="M1020.366,242.617a4.051,4.051,0,0,1,1.484,3.224c0,2.68-2.2,4.594-5.078,4.594-2.351,0-4.332-1.33-4.332-3.07a1.258,1.258,0,0,1,1.243-1.4,1.068,1.068,0,0,1,1.068,1.088,1.9,1.9,0,0,1-.128.7,1.627,1.627,0,0,0-.067.5c0,.826.934,1.437,1.961,1.437a3.72,3.72,0,0,0,3.379-3.855c0-2.2-1.652-3.983-3.4-3.983-.134,0-.739.087-.873.087a.426.426,0,0,1-.477-.457.5.5,0,0,1,.5-.5c.128,0,.786.128.933.128a3.16,3.16,0,0,0,2.982-3.4c0-1.767-1.021-3.264-2.74-3.264a1.633,1.633,0,0,0-1.767,1.458,2.06,2.06,0,0,0,.067.329,2.335,2.335,0,0,1,.067.524,1.148,1.148,0,0,1-1.108,1.2,1.126,1.126,0,0,1-1.088-1.2c0-1.2,1.4-3.049,4.185-3.049s4.359,1.74,4.359,3.661a3.77,3.77,0,0,1-.806,2.223,5.214,5.214,0,0,1-2.767,1.854,5.857,5.857,0,0,1,2.418,1.175Z" transform="translate(-882.983 -224.777)" fill="#1c2c5a"/>
    <path id="パス_3682" data-name="パス 3682" d="M1032.983,240.46a3.694,3.694,0,0,1,1.894-.564c2.156,0,3.9,2.176,3.9,4.816,0,3.029-2.156,5.73-4.661,5.73s-5.011-2.808-5.011-7.516c0-5.031,2.828-9.216,6.166-9.216,1.458,0,2.485.873,2.485,1.914a1.09,1.09,0,0,1-1.108,1.135c-.437,0-1.155-.282-1.2-1.525-.02-.477-.067-.786-.651-.786a2.261,2.261,0,0,0-1.592.786c-1.941,2.136-2.049,5.333-2.136,7.295A5.483,5.483,0,0,1,1032.983,240.46Zm-.719,8.06a2.144,2.144,0,0,0,1.766,1.175c1.155,0,2.787-1.2,2.787-4.789,0-.981-.242-4.03-2.485-4.03-.826,0-2.223.611-3.244,2.962A10.407,10.407,0,0,0,1032.264,248.521Z" transform="translate(-888.453 -224.777)" fill="#1c2c5a"/>
    <path id="パス_3683" data-name="パス 3683" d="M1053.318,234.182a18.812,18.812,0,0,1-6.75,7.4l-.108-.154a28.36,28.36,0,0,0,5.273-7.973,7.427,7.427,0,0,0,.349-1.4l1.874,1.263c.107.067.282.195.282.349,0,.262-.564.416-.913.5Zm7.906,6.818c-.215,7.839-.651,9.431-4.574,9.78a3.145,3.145,0,0,0-1.632-2.4l.02-.155a13.709,13.709,0,0,0,2.526.369c1.048,0,1.458-.242,1.787-2.223a44.977,44.977,0,0,0,.329-6.274h-4.4c-.128,3.419-1.592,9.323-8.45,10.586l-.04-.175c4.42-2.049,6.663-5.333,6.885-10.411h-.631a13.866,13.866,0,0,0-2.573.215l-.416-.873c1.35.107,2.68.128,3.331.128h6.166l.591-.524c.134-.128.262-.242.39-.242.107,0,.215.107.3.195l.873.961a.581.581,0,0,1,.195.349c0,.195-.067.242-.678.672Zm3.963-.02c-2.331-1-4.923-3.352-6.556-8.275h-1.74a10.588,10.588,0,0,0-1.827.128l-.282-.759c.981.087,1.941.107,2.371.107h1.088l.7-.7c.195-.195.282-.242.39-.242.128,0,.215.107.37.242l.806.786a.391.391,0,0,1,.175.329c0,.437-1,.611-1.4.672a10.186,10.186,0,0,0,7.993,5.837l.02.215a3.6,3.6,0,0,0-2.116,1.652Z" transform="translate(-894.152 -223.966)" fill="#1c2c5a"/>
    <path id="パス_3684" data-name="パス 3684" d="M1080.315,251.068l-.195-.3a14.731,14.731,0,0,0,0-20.473l.195-.3a13.345,13.345,0,0,1,0,21.078Z" transform="translate(-905.203 -223.555)" fill="#1c2c5a"/>
    <line id="線_92" data-name="線 92" x2="50.674" transform="translate(0 13.978)" fill="none" stroke="#000" stroke-miterlimit="10" stroke-width="1"/>
  </g>
  <g id="グループ_152" data-name="グループ 152">
    <path id="パス_3739" data-name="パス 3739" d="M29.88,12.728v14.09H29.2V12.03h5.4v.7Z" transform="translate(-12.846 -4.786)"/>
    <path id="パス_3740" data-name="パス 3740" d="M47.431,23a13.008,13.008,0,0,1-5.2,3.366l-.048-.114c1.463-.891,3.968-3.282,4.408-4.727l1.349,1.024a.308.308,0,0,1,.163.241c0,.211-.163.229-.668.211Zm9.411-8.418H44.619a10.215,10.215,0,0,0-1.9.163l-.325-.65c1.108.1,2.258.1,2.5.1h4.227a5.745,5.745,0,0,0-.343-2.4l1.806.4c.114.03.277.078.277.211,0,.181-.145.259-.554.488-.018.536-.018.62-.018,1.3H54.47l.747-.795c.132-.145.163-.211.241-.211a.851.851,0,0,1,.343.181l1.12.795a.376.376,0,0,1,.163.259c0,.145-.145.163-.241.163Zm-2.908,2.728c0,.343,0,.747.018,1.493.018.3.1,1.541.1,1.788a.8.8,0,0,1-.795.765c-.458,0-.458-.229-.421-.813H50.393c0,.7.048,3.769.048,4.408,0,.584,0,1.541-1.7,1.933-.132-1.054-1.529-1.674-1.818-1.806l.018-.114a13.423,13.423,0,0,0,1.885.211c.47,0,.488-.1.488-.765V20.545H46.467c.03.458.066,1.024-.783,1.024-.355,0-.44-.193-.44-.44,0-.066.018-.277.018-.355.018-.488.048-2,.048-2.583a10,10,0,0,0-.163-2.6l1.511.843h6.045l.488-.536c.066-.066.132-.132.211-.132a.393.393,0,0,1,.229.114l.765.62c.163.132.193.181.193.259,0,.211-.132.259-.65.554Zm-1.108-.488H46.455v3.33h6.371Zm2.6,9.038c-.44,0-.518-.145-1.2-1.138a7.786,7.786,0,0,0-2.457-2.571l.03-.114c1.674.277,4.239,1.608,4.239,3.107a.665.665,0,0,1-.62.717Z" transform="translate(-18.01 -4.691)"/>
    <path id="パス_3741" data-name="パス 3741" d="M71.228,25.606a.714.714,0,0,1-.7-.7c0-.4.355-.68.861-1.072a3.8,3.8,0,0,0,1.252-1.74h.1c.018.193.03.4.03.7C72.77,24.305,72.138,25.606,71.228,25.606Zm12.338-9.345a4.068,4.068,0,0,0-.355.259c.03,1.644.048,2.276.078,2.926,0,.145.048.747.048.879a.693.693,0,0,1-.747.68c-.506,0-.506-.325-.506-.518v-.211H74.558a11.2,11.2,0,0,0-1.921.145l-.307-.65c1.024.084,2.047.114,2.487.114h7.268V18.163h-7.28a11.094,11.094,0,0,0-1.921.145l-.325-.632c1.006.078,2.017.1,2.5.1h7.021V16.116H73.161A12.945,12.945,0,0,1,70.885,17.6l-.048-.066a21.854,21.854,0,0,0,3.98-5.022,2.41,2.41,0,0,0,.229-.909l1.433.7a.357.357,0,0,1,.229.307c0,.163-.343.277-.6.343-.084.1-.241.3-.373.44h3.625l.584-.488c.1-.078.211-.181.277-.181a.792.792,0,0,1,.343.181l.765.6c.084.066.163.132.163.241,0,.193-.132.211-.62.325-.193.048-.307.132-1.656,1.072-.277.193-.632.44-.861.584H81.88l.47-.458c.078-.078.193-.193.259-.193.084,0,.181.1.247.145l.7.554c.1.078.181.163.181.259,0,.078-.066.145-.163.229Zm-8.189-2.487c-.229.247-1.529,1.692-1.77,1.951H77.96a19.663,19.663,0,0,0,1.2-1.951H75.377Zm5.817,12.3c-.554.114-3.7.114-4.648.114-1.788,0-1.921-.343-1.921-1.885a13.613,13.613,0,0,0-.132-3.348l1.529.488c.1.03.259.132.259.229a.257.257,0,0,1-.132.193c-.048.048-.307.241-.355.3,0,.211-.03,2.39,0,2.649.03.3.355.307.747.307A35,35,0,0,0,80.182,25a.762.762,0,0,0,.488-.488,15.932,15.932,0,0,0,.488-1.837h.114a5.3,5.3,0,0,0,.62,2.029c.259.241.355.343.355.536s-.181.668-1.054.831Zm-2.276-2.631c-.44,0-.518-.193-.909-1.138a3.61,3.61,0,0,0-.861-1.3l.066-.1c2.132.6,2.324,1.445,2.324,1.692C79.538,22.974,79.393,23.444,78.918,23.444Zm5.672,1.319c-.458,0-.506-.114-.957-1.138a5.13,5.13,0,0,0-1.12-1.806l.018-.03c.879.145,2.746,1.12,2.746,2.258a.674.674,0,0,1-.68.717Z" transform="translate(-29.29 -4.615)"/>
    <path id="パス_3742" data-name="パス 3742" d="M107.652,13.608A4.161,4.161,0,0,0,107.423,12l1.541.373c.132.03.229.084.229.229,0,.211-.1.259-.47.47v.536h2.86l.518-.729c.048-.078.145-.211.241-.211.078,0,.211.114.3.181l.945.729a.308.308,0,0,1,.163.247c0,.163-.145.181-.241.181h-4.781a3.628,3.628,0,0,1,0,.957c-.066.277-.4.391-.7.391-.211,0-.373-.1-.391-.307,0-.066-.018-.7,0-1.042H104.84c0,.193.048,1.054.048,1.234,0,.391-.421.518-.783.518-.241,0-.343-.132-.343-.458,0-.211.03-1.12.03-1.3h-1.885a11.632,11.632,0,0,0-1.9.145l-.325-.65c.831.078,1.656.114,2.487.114h1.608a4.16,4.16,0,0,0-.241-1.578l1.6.355a.207.207,0,0,1,.193.193c0,.241-.145.325-.47.518-.018.259-.018.343-.018.506h2.812Zm-7.9,4.618c2.276.193,2.276,1.2,2.276,1.367a.584.584,0,0,1-.584.632c-.355,0-.458-.163-.831-.795a2.969,2.969,0,0,0-.879-1.09Zm3.805-.084a26.276,26.276,0,0,1-1.168,3.769,8.019,8.019,0,0,0-.566,1.951,2.506,2.506,0,0,0,.307.927,2.506,2.506,0,0,1,.241,1.042c0,.3-.066.945-.747.945s-.717-.68-.717-1.024a8.167,8.167,0,0,0-.048-1.433,1.786,1.786,0,0,0-1.024-1.252v-.132c.945.03.927.018,1.481-.891.163-.277,1.09-1.837,2.144-3.968ZM101.2,15.264c.795.114,2.192.325,2.192,1.4a.573.573,0,0,1-.6.584c-.44,0-.6-.355-.765-.7a2.918,2.918,0,0,0-.843-1.168l.018-.114ZM112.156,16.7l.47-.68c.078-.114.163-.229.259-.229a.522.522,0,0,1,.3.181l.765.7c.1.078.163.145.163.241,0,.163-.145.181-.259.181h-4.925V18.5h2.294l.422-.44a.306.306,0,0,1,.193-.132.709.709,0,0,1,.355.181l.668.566a.437.437,0,0,1,.163.277c0,.163-.229.3-.566.488-.03.729,0,2.083.03,3.787,0,.3.066,1.529.066,1.788,0,.488,0,1.367-1.626,1.692a2.058,2.058,0,0,0-1.108-1.463v-.1c.421.03.813.03,1.054.03.518,0,.536-.078.536-.44V22.983h-2.457c0,.488.066,2.619.066,3.053,0,.211,0,.747-.747.747-.44,0-.44-.259-.44-.518,0-.391.03-2.113.03-2.469v-.813h-2.18c.018.632.048,2.047.048,2.631,0,.4,0,.945-.813.945-.325,0-.4-.114-.4-.668,0-.066.084-3.7.084-4.239a31.388,31.388,0,0,0-.145-3.787l1.379.632h2.029c0-.078-.018-1.367-.018-1.415h-1.855a11.094,11.094,0,0,0-1.921.145l-.325-.65c1.186.1,2.228.114,2.5.114h1.6a4.417,4.417,0,0,0-.163-1.283l1.56.391c.1.03.193.078.193.211,0,.193-.132.259-.518.458V16.7h3.233Zm-4.293,3.866V18.888h-2.18v1.674Zm0,2.029V20.948h-2.18v1.644Zm1.054-3.7v1.674H111.4V18.888Zm0,2.065c0,.373.018,1.186.03,1.644H111.4V20.954Zm.668-6.244c.632.018,2.114.066,2.114,1.024a.536.536,0,0,1-.584.554c-.307,0-.373-.1-.747-.632a2.445,2.445,0,0,0-.783-.843v-.1Z" transform="translate(-40.888 -4.774)"/>
    <path id="パス_3743" data-name="パス 3743" d="M139.775,14.219l.458-.421c.1-.084.145-.181.241-.181a.472.472,0,0,1,.241.114l.879.65c.1.078.181.145.181.277,0,.229-.536.47-.68.536-.048,1.6-.018,6.256.066,8.906,0,.241.1,1.4.1,1.626a.842.842,0,0,1-.927.843c-.518,0-.488-.3-.458-.945h-9.2c0,.1,0,.584-.018.65-.114.373-.6.506-.879.506a.432.432,0,0,1-.488-.458c0-.193.048-1.024.048-1.2.066-2.354.114-4.715.114-7.051a24.837,24.837,0,0,0-.229-4.7l1.541.843h9Zm-9.1.391v5.04h3.98V14.61Zm0,5.431v5.2h3.98v-5.2Zm9.2-.391V14.61h-4.095v5.04Zm0,5.594v-5.2h-4.095v5.2Z" transform="translate(-52.64 -5.319)"/>
    <path id="パス_3744" data-name="パス 3744" d="M155.29,26.6v-.7H160V11.81h.68V26.6h-5.4Z" transform="translate(-63.013 -4.699)"/>
    <path id="パス_3745" data-name="パス 3745" d="M170.326,25.69a.532.532,0,0,1-.536-.6,17.379,17.379,0,0,1,.62-1.867,2.02,2.02,0,0,0,.03-.7l.145-.018a3.583,3.583,0,0,1,.6,1.933c0,.44-.132,1.252-.861,1.252Zm6-4.727a14.022,14.022,0,0,1-.994,4.486,2.356,2.356,0,0,1-1.758,1.349,2.32,2.32,0,0,0-1.331-1.608l.03-.114a8.567,8.567,0,0,0,1.578.181c.325,0,.458-.03.632-.421a13.312,13.312,0,0,0,.717-4.245h-3.625a.655.655,0,0,1-.7.795c-.325,0-.4-.163-.4-.44,0-.1.03-.488.03-.566.066-1.024.084-3.854.084-4.974a17.356,17.356,0,0,0-.163-2.7l1.216.6h3.023l.391-.47c.114-.132.193-.211.277-.211s.181.084.325.181l.632.47a.387.387,0,0,1,.181.259c0,.114-.145.163-.259.163h-2.246v1.885h.7l.307-.391c.132-.163.181-.229.259-.229s.181.078.325.181l.518.391c.078.066.181.145.181.259,0,.145-.145.181-.259.181h-2.029v1.867h.717l.391-.458c.114-.132.181-.193.259-.193.1,0,.163.048.3.163l.488.458a.394.394,0,0,1,.145.259c0,.1-.1.163-.241.163h-2.047V20.2h1.09l.421-.47c.1-.114.181-.193.259-.193s.181.066.325.211l.632.584a.31.31,0,0,1,.114.211c0,.193-.373.373-.488.421Zm-4.113,4.028c-.536,0-.536-.68-.536-1.024a4.365,4.365,0,0,0-.181-1.788l.1-.048c.114.132.7.717.783.861a2.343,2.343,0,0,1,.458,1.252A.708.708,0,0,1,172.211,24.992Zm.783-11.3H171.56V15.58h1.433Zm0,2.276H171.56v1.867h1.433Zm0,2.258H171.56V20.2h1.433Zm.566,5.7c-.421,0-.47-.277-.6-1.2a4.545,4.545,0,0,0-.307-1.186l.066-.048c.861.747,1.349,1.186,1.349,1.818a.567.567,0,0,1-.506.62Zm.909-1.2c-.325,0-.391-.259-.566-.909a2.065,2.065,0,0,0-.373-.747l.1-.1c.765.355,1.252.7,1.252,1.234,0,.259-.145.518-.4.518Zm10.76,2.993a2.387,2.387,0,0,0-1.541.957c-1.818-1.481-3.167-4.275-3.167-8.111h-1.74c-.163,4-.957,6.455-3.33,8.159l-.084-.066c2.276-2.469,2.354-7,2.354-10.387a14.912,14.912,0,0,0-.277-3.444l1.541.68h3.348l.47-.458a.394.394,0,0,1,.259-.145c.078,0,.145.03.277.145l.65.554a.331.331,0,0,1,.145.259c0,.114-.307.343-.506.47-.018.277-.03.584-.03,1.024,0,.518.1,2.794.1,3.3s-.506.65-.765.65c-.518,0-.488-.355-.47-.747H180.8c.373,3.541,2.716,6.353,4.438,7.051l-.018.1Zm-2.746-11.814h-3.607c-.018.62-.078,3.607-.078,4.275h3.691V13.907Z" transform="translate(-68.782 -5.025)"/>
    <path id="パス_3746" data-name="パス 3746" d="M205.518,25.568a2.478,2.478,0,0,1-1.433.861c-.4,0-.44-.193-.488-.68a7.086,7.086,0,0,0-1.168-2.162l.018-.084A8,8,0,0,0,204.4,24.61c1.138,0,1.9-4.227,1.9-5.365,0-1.3-.343-1.692-1.108-1.692a6.332,6.332,0,0,0-1.072.145c-.229.518-1.252,2.86-1.433,3.252a49.028,49.028,0,0,1-2.457,4.679.643.643,0,0,1-.506.325c-.259,0-.506-.277-.506-.729,0-.488.114-.632.668-1.319a23.117,23.117,0,0,0,2.162-3.691c.355-.729.7-1.481,1.006-2.246a9.252,9.252,0,0,0-2.258.994c-.391.241-.518.307-.7.307a1.709,1.709,0,0,1-1.349-1.529,1.1,1.1,0,0,1,.181-.584c.4.729.813.795,1.108.795a3.748,3.748,0,0,0,.945-.145c.241-.066,1.608-.4,2.409-.6a9.947,9.947,0,0,0,.747-2.469c0-.668-.277-.813-1.156-1.252a2.752,2.752,0,0,1,.945-.193c.62,0,1.656.717,1.656,1.156,0,.193-.03.277-.4.945-.1.163-.488,1.054-.729,1.6.211-.018.536-.066.891-.066,1.541,0,1.885,1.271,1.885,2.619,0,1.138-.506,4.727-1.7,6.027Zm6.744-3.884a4.443,4.443,0,0,1-.879-.44,12.648,12.648,0,0,0-2.246-.584v-.114c1.644-.163,2.047-.325,2.047-.783,0-.181-.518-1.445-3.041-3.137,3.041.554,4.534,2.728,4.534,4.323,0,.132,0,.729-.421.729Z" transform="translate(-80.304 -5.288)"/>
    <path id="パス_3747" data-name="パス 3747" d="M229.4,26.02v-.1a11.715,11.715,0,0,0,3.818-1.331c1.156-.62,2.113-1.4,2.113-2.782a1.911,1.911,0,0,0-2.047-2.083A6.8,6.8,0,0,0,227.964,23a.492.492,0,0,1-.4.3c-.6,0-.861-.957-.861-1.3a5.147,5.147,0,0,1,.211-1.168,24.826,24.826,0,0,0,.3-3.414c0-1.481,0-2.324,2.812-2.764.1-.018.145-.03.145-.114s-.048-.114-.44-.373a2.19,2.19,0,0,1-1.006-1.608,6.982,6.982,0,0,0,2.342,1.252c.355.145,1.271.518,1.271,1.493,0,.355-.132.506-.343.506a1.733,1.733,0,0,1-.747-.259,4.821,4.821,0,0,0-1.692-.277c-1.234,0-1.758.391-1.758.861,0,.163.03.259.355,1.072a2.049,2.049,0,0,1,.114.566,8.217,8.217,0,0,1-.229.957,11.317,11.317,0,0,0-.343,2.21c0,.1.018.373.211.373.1,0,1.108-.729,1.319-.861a8.48,8.48,0,0,1,4.191-1.3,2.894,2.894,0,0,1,3.167,2.83c0,2.68-3.318,4.275-7.183,4.046Z" transform="translate(-91.424 -4.993)"/>
    <path id="パス_3748" data-name="パス 3748" d="M252.251,23a13.008,13.008,0,0,1-5.2,3.366L247,26.253c1.463-.891,3.968-3.282,4.408-4.727l1.349,1.024a.308.308,0,0,1,.163.241c0,.211-.163.229-.668.211Zm9.411-8.418H249.439a10.215,10.215,0,0,0-1.9.163l-.325-.65c1.108.1,2.258.1,2.5.1h4.227a5.745,5.745,0,0,0-.343-2.4l1.806.4c.114.03.277.078.277.211,0,.181-.145.259-.554.488-.018.536-.018.62-.018,1.3h4.179l.747-.795c.132-.145.163-.211.241-.211a.851.851,0,0,1,.343.181l1.12.795a.376.376,0,0,1,.163.259c0,.145-.145.163-.241.163Zm-2.908,2.728c0,.343,0,.747.018,1.493.018.3.1,1.541.1,1.788a.8.8,0,0,1-.795.765c-.458,0-.458-.229-.422-.813h-2.439c0,.7.048,3.769.048,4.408,0,.584,0,1.541-1.7,1.933-.132-1.054-1.529-1.674-1.818-1.806l.018-.114a13.422,13.422,0,0,0,1.885.211c.47,0,.488-.1.488-.765V20.545h-2.842c.03.458.066,1.024-.783,1.024-.355,0-.44-.193-.44-.44,0-.066.018-.277.018-.355.018-.488.048-2,.048-2.583a10,10,0,0,0-.163-2.6l1.511.843h6.045l.488-.536c.066-.066.132-.132.211-.132a.393.393,0,0,1,.229.114l.765.62c.163.132.193.181.193.259,0,.211-.132.259-.65.554Zm-1.108-.488h-6.371v3.33h6.371Zm2.6,9.038c-.44,0-.518-.145-1.2-1.138a7.786,7.786,0,0,0-2.457-2.571l.03-.114c1.674.277,4.239,1.608,4.239,3.107a.665.665,0,0,1-.62.717Z" transform="translate(-99.501 -4.691)"/>
    <path id="パス_3749" data-name="パス 3749" d="M276.058,25.606a.714.714,0,0,1-.7-.7c0-.4.355-.68.861-1.072a3.8,3.8,0,0,0,1.252-1.74h.1c.018.193.03.4.03.7C277.6,24.305,276.968,25.606,276.058,25.606ZM288.4,16.261a4.06,4.06,0,0,0-.355.259c.03,1.644.048,2.276.078,2.926,0,.145.048.747.048.879a.693.693,0,0,1-.747.68c-.506,0-.506-.325-.506-.518v-.211h-7.527a11.2,11.2,0,0,0-1.921.145l-.307-.65c1.024.084,2.047.114,2.487.114h7.268V18.163h-7.28a11.1,11.1,0,0,0-1.921.145l-.325-.632c1.006.078,2.017.1,2.5.1h7.021V16.116h-8.924a12.945,12.945,0,0,1-2.276,1.481l-.048-.066a21.853,21.853,0,0,0,3.98-5.022,2.41,2.41,0,0,0,.229-.909l1.433.7a.357.357,0,0,1,.229.307c0,.163-.343.277-.6.343-.084.1-.241.3-.373.44h3.625l.584-.488c.1-.078.211-.181.277-.181a.792.792,0,0,1,.343.181l.765.6c.084.066.163.132.163.241,0,.193-.132.211-.62.325-.193.048-.307.132-1.656,1.072-.277.193-.632.44-.861.584h3.529l.47-.458c.078-.078.193-.193.259-.193.084,0,.181.1.247.145l.7.554c.1.078.181.163.181.259,0,.078-.066.145-.163.229Zm-8.189-2.487c-.229.247-1.529,1.692-1.77,1.951h4.353a19.669,19.669,0,0,0,1.2-1.951h-3.787Zm5.817,12.3c-.554.114-3.7.114-4.648.114-1.788,0-1.921-.343-1.921-1.885a13.612,13.612,0,0,0-.132-3.348l1.529.488c.1.03.259.132.259.229a.257.257,0,0,1-.132.193c-.048.048-.307.241-.355.3,0,.211-.03,2.39,0,2.649.03.3.355.307.747.307A35,35,0,0,0,285.012,25a.762.762,0,0,0,.488-.488,15.929,15.929,0,0,0,.488-1.837h.114a5.3,5.3,0,0,0,.62,2.029c.259.241.355.343.355.536S286.9,25.913,286.024,26.075Zm-2.276-2.631c-.44,0-.518-.193-.909-1.138a3.61,3.61,0,0,0-.861-1.3l.066-.1c2.132.6,2.324,1.445,2.324,1.692C284.368,22.974,284.223,23.444,283.748,23.444Zm5.672,1.319c-.458,0-.506-.114-.957-1.138a5.13,5.13,0,0,0-1.12-1.806l.018-.03c.879.145,2.746,1.12,2.746,2.258a.674.674,0,0,1-.68.717Z" transform="translate(-110.784 -4.615)"/>
    <path id="パス_3750" data-name="パス 3750" d="M318.482,25.9H306.566a11.935,11.935,0,0,0-1.921.145l-.325-.65c.831.078,1.674.114,2.5.114h4.095V21.669h-2.812a11.619,11.619,0,0,0-1.921.145l-.325-.65c1.283.1,2.21.114,2.5.114h6.292l.7-.783c.133-.132.193-.211.259-.211.1,0,.229.114.307.181l.957.783a.34.34,0,0,1,.163.241c0,.163-.163.181-.259.181h-4.715V25.5h4.191l.717-.861c.078-.1.145-.193.241-.193.066,0,.145.018.307.163l1.024.861c.066.048.181.132.181.241,0,.163-.163.181-.259.181Zm-.566-6.828a36.815,36.815,0,0,1-4.064.145c-1.656,0-1.656-.4-1.656-2.017,0-.355-.018-2.18-.018-2.583h-5.3c-.211,1.818-1.463,1.818-1.511,1.818a.619.619,0,0,1-.65-.584c0-.4.307-.6.861-.957a2.04,2.04,0,0,0,1.09-1.463h.132a1.5,1.5,0,0,1,.114.795h4.095a7.066,7.066,0,0,0-.3-2.39l1.541.391c.132.03.355.078.355.3a.285.285,0,0,1-.114.229c-.066.048-.325.211-.373.259V14.22h3.836l.632-.518c.132-.1.193-.163.343-.163a.372.372,0,0,1,.277.145l.994.879a.442.442,0,0,1,.132.307c0,.3-.229.325-.879.373-.259.163-1.415.927-1.656,1.072l-.078-.078a13.784,13.784,0,0,0,.355-1.626h-2.764a27.725,27.725,0,0,0,.1,3.4,5.339,5.339,0,0,0,1.6.145c.566,0,1.806,0,2.1-.3a4.264,4.264,0,0,0,.717-1.722h.132c.259,1.054.355,1.463.566,1.608a.585.585,0,0,1,.325.518c0,.47-.584.729-.927.795ZM310.323,16a7.011,7.011,0,0,1-5.413,4.064l-.066-.132c3.577-1.788,4.372-4.209,4.5-5.251l1.349.7c.163.078.211.145.211.241,0,.193-.048.211-.584.373Z" transform="translate(-122.307 -4.707)"/>
    <path id="パス_3751" data-name="パス 3751" d="M333.848,18.3c-.391,0-.488-.163-1.006-1.168a4.181,4.181,0,0,0-.813-1.054l.018-.1c.584.078,2.409.518,2.409,1.626a.634.634,0,0,1-.6.7Zm.783,2.716a5.7,5.7,0,0,0-.3,1.541,6.16,6.16,0,0,0,.211,1.445,7.078,7.078,0,0,1,.3,1.445c0,.458-.211.909-.717.909-.765,0-.765-.813-.765-1.168,0-.211.048-1.108.048-1.283a1.68,1.68,0,0,0-1.09-1.788v-.1a1.5,1.5,0,0,0,1.072-.488c.355-.47,2.192-5.69,2.324-6.16l.132.048A40.916,40.916,0,0,1,334.631,21.019Zm.44-6.551c-.488,0-.632-.373-.994-1.156a5.769,5.769,0,0,0-.7-1.168l.03-.078c.307.066,2.324.632,2.324,1.674a.675.675,0,0,1-.668.729Zm11.477,6.666a2.68,2.68,0,0,0-.668.879,8.547,8.547,0,0,1-4.064-4.209h-2.083a12.471,12.471,0,0,1-1.7,2.342c1.156.1,2.258.114,2.457.114h.813l.3-.3c.114-.114.193-.229.307-.229.1,0,.229.114.3.163l.536.421c.1.078.193.163.193.277,0,.181-.084.247-.373.506.018.241.066,1.319.066,1.529,0,.325,0,.518-.163.65a1.274,1.274,0,0,1-.62.211c-.325,0-.343-.229-.343-.373h-2.144c-.1,2.18.018,2.18.891,2.18,2.728,0,3.348,0,3.7-.343a4.987,4.987,0,0,0,.843-2.162h.078a6.98,6.98,0,0,0,.506,1.921c.066.1.078.1.259.241.078.066.132.114.132.211,0,.066,0,.47-.7.813a9.307,9.307,0,0,1-3.282.391c-3.089,0-3.529-.1-3.541-1.283,0-1.006-.018-2.583-.1-3.053l1.493.7H341.5V20.652h-1.283a9.943,9.943,0,0,0-1.9.145l-.307-.632a11.875,11.875,0,0,1-2.957,2.535L335,22.6a18.139,18.139,0,0,0,3.378-4.793,12.064,12.064,0,0,0-2.065.145l-.325-.65c.843.066,1.006.084,2.457.114V14.654a9.717,9.717,0,0,0-1.674.145l-.325-.65c.355.03.945.078,2,.1a7.625,7.625,0,0,0-.277-2.5l1.493.44c.193.066.307.132.307.241,0,.181-.145.3-.47.518.018.343.018.44,0,1.319h2.083a6.649,6.649,0,0,0-.3-2.439l1.541.4c.181.048.307.145.307.229,0,.193-.259.391-.47.518-.018.211-.018,1.108-.018,1.283h.927l.518-.7c.066-.084.145-.211.241-.211s.229.132.307.193l.717.68c.1.084.163.145.163.241,0,.163-.132.181-.241.181h-2.631V17.4h1.806l.554-.729c.078-.114.145-.211.241-.211a.482.482,0,0,1,.307.181l.783.729c.1.1.163.181.163.241,0,.163-.144.181-.241.181h-4.143a6.97,6.97,0,0,0,5.04,2.842v.1c-.1.066-.536.325-.62.391Zm-4.956-6.485h-2.083v2.764h2.083C341.592,17.021,341.61,15.088,341.592,14.648Z" transform="translate(-133.331 -4.671)"/>
    <path id="パス_3752" data-name="パス 3752" d="M360.59,25.748a18.96,18.96,0,0,0,1.186-4.992,3.444,3.444,0,0,0-.048-.554l1.433.536c.066.03.181.084.181.211,0,.145-.048.181-.421.44a13.2,13.2,0,0,1-2.21,4.4l-.114-.048Zm6.467-11.23a.26.26,0,0,1,.114.229c0,.193-.163.241-.68.355-.554.747-1.415,1.885-2.86,3.51.078-.018,1.186-.048,2.029-.132a9.869,9.869,0,0,0-.584-1.156l.078-.114c.879.373,1.981,1.09,1.981,1.933a.67.67,0,0,1-.65.729c-.421,0-.44-.132-.747-1.168-.247.084-.518.163-1.156.343.018,2.246,0,3.4.03,4.781,0,.3.048,1.541.048,1.806,0,.241,0,.891-.729.891a.431.431,0,0,1-.458-.506c0-.747.132-5.654.145-6.732-.4.1-.927.229-2.083.458-.229.241-.241.277-.373.277-.114,0-.193-.114-.229-.229l-.343-1.379a4.952,4.952,0,0,0,1.511.241c.1,0,.975-.03,1.108-.048,1.072-1.6,2.457-4.016,2.439-5l1.4.909Zm-5.835-.163a3.835,3.835,0,0,1,1.692.518,10.239,10.239,0,0,0,.7-3.185l1.56.813a.265.265,0,0,1,.163.211c0,.163-.145.229-.717.458-.584.795-.795,1.042-1.481,1.855a1.515,1.515,0,0,1,.717,1.156.687.687,0,0,1-.62.747c-.4,0-.554-.343-.668-.584a5.233,5.233,0,0,0-1.4-1.867l.048-.114Zm3.757,6.274c1.09.391,1.921,1.156,1.921,1.818a.629.629,0,0,1-.62.7c-.458,0-.536-.259-.783-1.138a3.352,3.352,0,0,0-.62-1.283l.1-.1Zm2.517.277a3.6,3.6,0,0,0-.813.066l-.229-.518c.6.048,1.09.066,1.234.066h.506l.307-.373c.03-.03.114-.132.211-.132a.448.448,0,0,1,.241.145l.65.62c.066.066.181.163.181.277,0,.132-.048.193-.536.373a8.291,8.291,0,0,1-3.805,4.161l-.03-.1a10.482,10.482,0,0,0,2.812-4.582H367.5Zm3.378-2.132.3.1c.114.03.355.132.355.3,0,.193-.3.355-.421.421a5.729,5.729,0,0,0,.945,2.228,6.432,6.432,0,0,0,1.758-2.21l1.12,1.12a.379.379,0,0,1,.084.211c0,.03-.018.211-.259.211-.048,0-.259-.018-.422-.03a23.06,23.06,0,0,1-2.18.861,6.71,6.71,0,0,0,3.932,2.649v.132a2.184,2.184,0,0,0-1.644,1.042,9.019,9.019,0,0,1-3.3-4.829c0,.6.1,3.252.1,3.787,0,.391,0,1.511-1.626,1.806-.181-.518-.355-1.024-1.674-1.578l.018-.132c.259.03,1.349.1,1.56.1.65,0,.668-.132.668-.62v-4.39a7.428,7.428,0,0,0-.048-1.168h-1.3a.6.6,0,0,1-.65.668c-.355,0-.518-.132-.518-.421,0-.229.078-2.354.078-2.794A26.574,26.574,0,0,0,367.6,13l1.319.7h.975a6.071,6.071,0,0,0,.145-1.349,3.685,3.685,0,0,0-.084-.795l1.529.488c.132.048.277.114.277.277,0,.211-.163.259-.584.343A12.269,12.269,0,0,1,370.3,13.7h2.21l.44-.506a.5.5,0,0,1,.277-.181.45.45,0,0,1,.241.114l.765.566c.1.066.211.181.211.277,0,.145-.066.181-.6.566,0,.668.145,3.805.145,4.161a.681.681,0,0,1-.765.717c-.44,0-.44-.259-.422-.632h-1.921Zm-2.065-4.7V16.03h3.98V14.079h-3.98Zm3.98,4.305V16.415h-3.98v1.969Z" transform="translate(-144.694 -4.595)"/>
    <path id="パス_3753" data-name="パス 3753" d="M396.323,25.453a2.712,2.712,0,0,1-1.578,1.042c-.373,0-.44-.259-.488-.536-.114-.68-.145-.813-1.2-2.342l.048-.066c1.415.975,1.722,1.09,2.017,1.09a.728.728,0,0,0,.632-.47,10.714,10.714,0,0,0,1.138-4.859c0-.632,0-1.77-1.09-1.77a4.429,4.429,0,0,0-1.072.163c-.945,2.276-1.578,3.769-3.4,7.3-.211.4-.566,1.042-.927,1.042-.325,0-.518-.391-.518-.765a1.455,1.455,0,0,1,.355-.891,27.821,27.821,0,0,0,3.432-6.371,13.634,13.634,0,0,0-2.294,1.042,1.252,1.252,0,0,1-.68.3,1.646,1.646,0,0,1-1.349-1.493,1.336,1.336,0,0,1,.193-.65c.3.554.65.843,1.108.843.391,0,2.794-.668,3.33-.795a11.033,11.033,0,0,0,.729-2.553c0-.65-.957-1.072-1.186-1.156a1.359,1.359,0,0,1,.813-.259c.861,0,1.855.747,1.855,1.156a1.521,1.521,0,0,1-.241.668c-.355.65-.632,1.234-.945,1.933a3.783,3.783,0,0,1,.879-.1c1.9,0,1.981,1.529,1.981,2.812,0,1.921-.65,4.667-1.541,5.7Zm6.581-3.818a5.438,5.438,0,0,1-.891-.4,6.653,6.653,0,0,0-2.21-.566v-.132c.247-.018,2.029-.163,2.029-.717a6.885,6.885,0,0,0-3.041-3.185c1.656.066,4.516,1.951,4.516,4.143,0,.132,0,.861-.4.861Zm-.831-4.956c-.145,0-.391-.211-.783-.536a5.654,5.654,0,0,0-2.029-1.216,3.553,3.553,0,0,1,.65-.066c.861,0,2.6.391,2.6,1.331A.455.455,0,0,1,402.073,16.68Zm1.6-1.271c-.211,0-.927-.65-1.09-.765a5.735,5.735,0,0,0-1.921-.879,4.823,4.823,0,0,1,1.006-.114c.3,0,2.342.066,2.342,1.3,0,.211-.078.458-.343.458Z" transform="translate(-156.137 -5.288)"/>
    <path id="パス_3754" data-name="パス 3754" d="M422.527,16.977l.554-.747c.078-.114.181-.211.259-.211.1,0,.229.114.307.181l.831.729a.356.356,0,0,1,.163.259c0,.163-.144.181-.247.181h-3.2c0,.325.018.7.018,1.024.7.3,2.649,1.379,2.649,2.535a.761.761,0,0,1-.7.831c-.277,0-.44-.1-.717-.879a6.752,6.752,0,0,0-1.234-2.113c.018,1.006.048,5.443.066,6.34,0,.163.048.879.048,1.024,0,.506-.566.717-.927.717a.4.4,0,0,1-.4-.458c0-.265.1-1.433.114-1.656.03-.975.066-2.842.084-5.443a11.806,11.806,0,0,1-4.095,4.305l-.066-.084a23.163,23.163,0,0,0,3.914-6.142h-1.319a10.988,10.988,0,0,0-1.9.145l-.325-.65c1.2.1,2.258.114,2.5.114h1.283V14.412a19.939,19.939,0,0,1-3.595.44v-.1a24.983,24.983,0,0,0,5.154-1.837,1.852,1.852,0,0,0,.813-.668l1.168,1.09a.3.3,0,0,1,.133.211c0,.114-.1.193-.241.193-.1,0-.518-.048-.783-.078a12.318,12.318,0,0,1-1.644.518v2.794h1.331Zm4.293-2.812c.066.018.277.114.277.241s-.048.145-.506.566c-.018.307-.018.632-.018,1.186,0,1.511.078,4.667.1,5.756,0,.211.018.488.018.62a.858.858,0,0,1-.843.831c-.3,0-.4-.145-.4-.4,0-.1.018-.241.018-.325.114-1.12.1-4.341.1-5.642a10.214,10.214,0,0,0-.259-3.348l1.529.518Zm3.51-1.12c.114.03.241.084.241.247,0,.132-.066.181-.554.536-.03,1.108,0,5.51.03,6.78.03,1.234.084,3.51.084,3.721,0,.861,0,1.921-2.324,2.24-.066-.421-.145-1.006-1.463-1.608l.018-.078c.355.03,1.433.1,1.818.1.795,0,.795-.229.795-.945,0-1.855-.066-8.37-.1-9.863a5.487,5.487,0,0,0-.241-1.674l1.692.554Z" transform="translate(-166.752 -4.874)"/>
    <path id="パス_3755" data-name="パス 3755" d="M456.022,13.3l.566-.488c.132-.114.193-.145.241-.145a.555.555,0,0,1,.259.114l.813.584a.375.375,0,0,1,.163.241c0,.181-.211.343-.68.62-.03.62-.03.68-.03,2.421,0,1.234.048,6.666.048,7.768,0,.975,0,1.9-1.9,2.294a2.515,2.515,0,0,0-1.529-1.656l.03-.132a12.35,12.35,0,0,0,1.56.114c.65,0,.65-.132.65-1.283,0-.325,0-2.029.018-2.276h-3.866c0,.945.018,2.372.066,3.7.018.229.018.458.018.536,0,.343,0,.994-.909.994-.488,0-.506-.343-.506-.554,0-.132.018-.536.03-.68.133-1.969.145-3.432.145-4H447.61a7.217,7.217,0,0,1-3.318,5.184l-.132-.132c2.439-2.246,2.553-6.16,2.553-10.531a16.183,16.183,0,0,0-.259-3.462l1.608.765h7.948Zm-8.141,4.179c0,.945-.078,2.764-.193,3.607h3.541l.03-3.607Zm0-3.787v3.4h3.378V13.7h-3.378Zm8.352,7.394.018-3.607H452.4l-.03,3.607Zm.018-4,.018-3.4H452.4v3.4h3.854Z" transform="translate(-177.944 -4.989)"/>
    <path id="パス_3756" data-name="パス 3756" d="M486.919,14.223h-2.89c0,.861,0,10.923-.018,11.133-.1.927-1.054,1.367-1.806,1.511-.078-.518-.145-.879-2.1-1.867v-.1c.211.03,1.529.145,1.933.145s.717,0,.783-.259c.048-.211.048-3.444.048-3.968,0-1.054-.048-5.654-.018-6.6h-7.948a11.735,11.735,0,0,0-1.921.145l-.325-.65c1.138.1,2.354.114,2.5.114h9.556l.747-.861c.078-.1.181-.211.259-.211a.577.577,0,0,1,.3.181l.994.861c.084.078.163.145.163.241,0,.163-.144.181-.259.181Zm-7.135,3.167c0,.47.018,1.981.018,2.469,0,.355.048,1.933.048,2.258,0,.831-.584.861-.765.861-.488,0-.47-.4-.47-.927h-2.391c.03.879.078,1.541-.783,1.541a.458.458,0,0,1-.518-.506c0-.132.048-.747.048-.879.048-1.692.048-2.944.048-4.323a5.933,5.933,0,0,0-.241-2.113l1.511.813h2.228l.44-.421c.133-.132.211-.193.277-.193s.114.018.277.145l.65.518c.132.114.193.163.193.277,0,.145-.259.3-.566.47Zm-1.168-.4h-2.391v4.679h2.391Z" transform="translate(-189.283 -5.077)"/>
    <path id="パス_3757" data-name="パス 3757" d="M508.133,16.664c-.4,0-.62-.4-.717-.632-.048-.114-.211-.6-.259-.7a44.989,44.989,0,0,1-4.486.927c-.1.229-.211.44-.391.44-.114,0-.193-.114-.241-.241l-.47-1.529a6.558,6.558,0,0,0,2.132.277,9.334,9.334,0,0,0,1.072-3.577l1.578.813a.307.307,0,0,1,.193.277c0,.114,0,.211-.747.3a16.442,16.442,0,0,1-1.722,2.192c.193,0,2.294-.03,2.993-.078a3.882,3.882,0,0,0-.945-1.319l.018-.066c1.56.373,2.6,1.433,2.6,2.192,0,.3-.163.729-.6.729Zm-.554,1.692V23.8c0,1.379-.018,1.837-.458,2.246a2.136,2.136,0,0,1-1.186.518,2.348,2.348,0,0,0-1.168-1.529l.03-.1c.6.084,1.168.132,1.283.132.1,0,.343,0,.373-.193s.048-2.017.048-2.113h-2.764c.018.536.048,2.342.048,2.812,0,.795-.566.879-.747.879a.463.463,0,0,1-.506-.518,1.6,1.6,0,0,0,.018-.163c.132-2.017.145-4.046.145-6.064a15.152,15.152,0,0,0-.132-2.764l1.331.7h2.439l.422-.47c.066-.066.114-.114.193-.114s.1.018.229.1l.747.506a.275.275,0,0,1,.145.229c0,.114-.145.3-.506.47Zm-1.072-.325h-2.764v1.951h2.764Zm0,2.342h-2.764v2h2.764Zm5.72,5.883c-2.83,0-2.83-.211-2.83-1.77,0-.668,0-3.95-.018-4.456a2.92,2.92,0,0,0-.181-1.12l1.656.488c.1.03.229.114.229.247s-.114.325-.62.47c0,.343-.03,1.855-.03,2.18a7.713,7.713,0,0,0,3.119-2.439l1.186,1.108a.254.254,0,0,1,.1.193.213.213,0,0,1-.229.229,1.473,1.473,0,0,1-.421-.066,12.584,12.584,0,0,1-3.757,1.234,22.8,22.8,0,0,0,.03,2.354c.1.259.373.325,1.367.325,2.114,0,2.487,0,2.956-2.649h.114c.229,1.674.241,1.855.47,2.029.277.193.277.211.277.355,0,1.283-2.258,1.283-3.432,1.283Zm2.842-7.786a5.276,5.276,0,0,1-2.24.259c-3.378,0-3.378-.048-3.4-2.047a28.841,28.841,0,0,0-.193-4.859l1.674.536c.114.03.247.078.247.229,0,.259-.44.44-.65.518-.03.632-.03,1.692-.03,2.354a7.5,7.5,0,0,0,3.233-2.294l1.108,1.108a.314.314,0,0,1,.114.229c0,.114-.1.229-.3.229a.7.7,0,0,1-.277-.066,15.5,15.5,0,0,1-3.884,1.042c0,.518,0,1.463.018,1.56a.435.435,0,0,0,.355.343c.211.03,1.692.066,1.933.066,1.042,0,1.331-.1,1.56-.536a7,7,0,0,0,.536-1.77H515a6.008,6.008,0,0,0,.439,2.029c.133.078.277.181.277.355s-.145.488-.632.717Z" transform="translate(-200.785 -4.627)"/>
    <line id="線_93" data-name="線 93" x2="360.5" transform="translate(0 31.612)" fill="none" stroke="#000" stroke-miterlimit="10" stroke-width="1"/>
    <rect id="長方形_146" data-name="長方形 146" width="5.419" height="31.612"/>
  </g>
</svg>
