<svg xmlns="http://www.w3.org/2000/svg" xmlns:xlink="http://www.w3.org/1999/xlink" width="1098" height="246.63" viewBox="0 0 1098 246.63">
  <defs>
    <linearGradient id="linear-gradient" x1="0.5" y1="0.068" x2="0.5" y2="0.973" gradientUnits="objectBoundingBox">
      <stop offset="0" stop-color="#1c2c5a"/>
      <stop offset="0.47" stop-color="#10203f"/>
      <stop offset="1" stop-color="#00111d"/>
    </linearGradient>
  </defs>
  <g id="air02-txt" transform="translate(1 58.27)">
    <rect id="長方形_155" data-name="長方形 155" width="1097" height="63" transform="translate(0 12)" fill="url(#linear-gradient)"/>
    <path id="パス_4109" data-name="パス 4109" d="M37.48,34.52a16.9,16.9,0,0,0,11.61,5.67v.22a4.276,4.276,0,0,0-2.89,2.46c-.84-.27-6.86-3.37-9.2-8.21.03,1.21.05,6.53.11,7.61,0,.14.03.78.03.92a1.392,1.392,0,0,1-1.51,1.32c-.57,0-.7-.4-.7-.76a5.6,5.6,0,0,1,.03-.59c.14-1.86.3-4.18.3-7.34a24.416,24.416,0,0,1-11.39,7.13l-.08-.22c4.08-1.65,9.69-7.31,10.23-8.21H30.4c0,.92-.19,1.59-1.4,1.59-.57,0-.67-.27-.67-.59,0-.3.13-1.62.13-1.89.05-.89.08-2.35.08-3.81a16.325,16.325,0,0,0-.35-4.4l2.51,1.11h4.59c0-.62-.03-2.1-.05-2.78H27.9a18.266,18.266,0,0,0-3.18.24l-.54-1.08c2,.16,3.75.19,4.16.19h6.88a10.056,10.056,0,0,0-.54-3.51l2.81.73c.24.05.46.16.46.38,0,.3-.65.73-.89.89V23.1H44.4l1.16-1.35c.19-.22.3-.35.43-.35a.959.959,0,0,1,.49.3l1.65,1.35c.19.16.27.27.27.4,0,.24-.24.3-.4.3H37.04v2.78h4.62l.89-.78a.686.686,0,0,1,.32-.19.629.629,0,0,1,.38.19l1.21.97a.61.61,0,0,1,.27.43c0,.24-.16.35-.86.78-.03.59-.03,1.38.05,3.37.03.38.16,3.27.16,3.51,0,.86-.78,1.13-1.38,1.13-.73,0-.7-.57-.65-1.43H37.52Zm-7.13-7.34V30.1h4.89l.03-2.92H30.36Zm4.89,6.69V30.74H30.35v3.13Zm6.78,0V30.74H37c0,.43-.03,2.65-.03,3.13Zm0-3.78V27.17H37v2.92Z" transform="translate(0 12)" fill="#fff"/>
    <path id="パス_4110" data-name="パス 4110" d="M53.26,42.73a1.186,1.186,0,0,1-1.16-1.16c0-.67.59-1.13,1.43-1.78a6.315,6.315,0,0,0,2.08-2.89h.16c.03.32.05.67.05,1.16,0,2.51-1.05,4.67-2.56,4.67ZM73.75,27.21a6.756,6.756,0,0,0-.59.43c.05,2.73.08,3.78.13,4.86,0,.24.08,1.24.08,1.46a1.151,1.151,0,0,1-1.24,1.13c-.84,0-.84-.54-.84-.86v-.35H58.79a18.606,18.606,0,0,0-3.19.24l-.51-1.08c1.7.14,3.4.19,4.13.19H71.29V30.37H59.2a18.425,18.425,0,0,0-3.19.24l-.54-1.05c1.67.13,3.35.16,4.16.16H71.29V26.97H56.47a21.5,21.5,0,0,1-3.78,2.46l-.08-.11a36.294,36.294,0,0,0,6.61-8.34,4,4,0,0,0,.38-1.51l2.38,1.16a.593.593,0,0,1,.38.51c0,.27-.57.46-1,.57-.14.16-.4.49-.62.73h6.02l.97-.81c.16-.13.35-.3.46-.3a1.315,1.315,0,0,1,.57.3l1.27,1c.14.11.27.22.27.4,0,.32-.22.35-1.03.54-.32.08-.51.22-2.75,1.78-.46.32-1.05.73-1.43.97h5.86l.78-.76c.13-.13.32-.32.43-.32.14,0,.3.16.41.24l1.16.92c.16.13.3.27.3.43,0,.13-.11.24-.27.38Zm-13.6-4.13c-.38.41-2.54,2.81-2.94,3.24h7.23a32.655,32.655,0,0,0,2-3.24Zm9.66,20.43c-.92.19-6.15.19-7.72.19-2.97,0-3.19-.57-3.19-3.13,0-4.43,0-4.62-.22-5.56l2.54.81c.16.05.43.22.43.38a.426.426,0,0,1-.22.32c-.08.08-.51.4-.59.49,0,.35-.05,3.97,0,4.4.05.49.59.51,1.24.51a58.133,58.133,0,0,0,6.05-.19,1.266,1.266,0,0,0,.81-.81,26.458,26.458,0,0,0,.81-3.05h.19c.16.89.51,2.91,1.03,3.37.43.4.59.57.59.89s-.3,1.11-1.75,1.38Zm-3.78-4.37c-.73,0-.86-.32-1.51-1.89a6,6,0,0,0-1.43-2.16l.11-.16c3.54,1,3.86,2.4,3.86,2.81,0,.62-.24,1.4-1.03,1.4Zm9.42,2.19c-.76,0-.84-.19-1.59-1.89a8.52,8.52,0,0,0-1.86-3l.03-.05c1.46.24,4.56,1.86,4.56,3.75a1.12,1.12,0,0,1-1.13,1.19Z" transform="translate(0 12)" fill="#fff"/>
    <path id="パス_4111" data-name="パス 4111" d="M98.72,23.78c-4.35,4.56-6.91,6.86-10.34,8.48a25.981,25.981,0,0,1-7.88,2.51l-.11-.22a38.6,38.6,0,0,0,10.96-5.97,31.755,31.755,0,0,0,5.59-5.86H90.81c-.92,1-1.48,1.57-2.21,2.27,1.84.49,3.32.89,3.32,2.48a1.106,1.106,0,0,1-1.08,1.16c-.76,0-1.03-.62-1.54-1.84a4.47,4.47,0,0,0-.97-1.54,23.044,23.044,0,0,1-7.05,4.45l-.13-.19c4.02-2.65,8.88-7.69,9.53-10.45l2.38,1.03a.452.452,0,0,1,.32.38c0,.27-.22.41-1.13.54-.3.38-.46.57-.86,1.05h5.67l1.05-.78c.16-.11.27-.22.38-.22a.613.613,0,0,1,.35.19l1.57,1.16a.813.813,0,0,1,.32.46c0,.3-.3.49-2,.89Zm3.73,9.96a37.365,37.365,0,0,1-7.96,7.21,27.292,27.292,0,0,1-12.5,3.78l-.05-.24c4-.89,8.64-2.19,12.96-5.78a26.576,26.576,0,0,0,5.64-6.18H94.52a28.74,28.74,0,0,1-3.37,2.67c.22.05,3.62.97,3.62,2.81a1.261,1.261,0,0,1-1.21,1.27c-.64,0-.7-.19-1.35-1.75a7.669,7.669,0,0,0-1.43-2.08,24.487,24.487,0,0,1-8.53,3.59l-.19-.19a33.328,33.328,0,0,0,11.66-7.96c1.75-1.84,1.97-2.38,2.24-3.1l2.19,1.16c.16.08.32.19.32.38,0,.35-.49.41-1.21.46a20.867,20.867,0,0,1-2.02,2.11h5.45l.84-.62c.11-.08.27-.24.4-.24s.22.11.35.22l1.62,1.32a.592.592,0,0,1,.27.43c0,.24-.19.4-1.7.76Z" transform="translate(0 12)" fill="#fff"/>
    <path id="パス_4112" data-name="パス 4112" d="M128.55,23l.86-1.27c.14-.22.24-.35.41-.35s.3.11.57.32l1.57,1.24c.13.11.27.24.27.4,0,.19-.16.3-.41.3H113.33c.03.54.08,3.51.08,3.73,0,7.91-.89,12.09-4.45,15.28l-.16-.11a13.143,13.143,0,0,0,2.02-4.99,43.4,43.4,0,0,0,.7-8.37,54.552,54.552,0,0,0-.46-7.58l2.59,1.4h7.26a9.518,9.518,0,0,0-.49-3.51l2.7.7c.22.05.35.14.35.35s-.19.46-.78.76a16.065,16.065,0,0,1,0,1.7h5.86ZM114.43,34.93c3.19,0,10.74-1.54,12.55-2.54l1.38,1.08a.5.5,0,0,1,.22.4c0,.16-.08.4-.46.4-.14,0-.4-.05-.62-.08-1.51.3-2.81.54-4.51.78v2.08h2.89l.78-1.08c.16-.22.27-.35.43-.35a.927.927,0,0,1,.54.3L128.82,37a.654.654,0,0,1,.24.46c0,.16-.16.24-.38.24h-5.7v1.89h6.29l.86-1.21c.16-.24.3-.38.43-.38a.97.97,0,0,1,.59.32l1.4,1.21a.65.65,0,0,1,.27.43c0,.16-.13.27-.38.27h-9.47c0,.32.03,1.75,0,2.02-.11,1.38-1.89,2.02-2.75,2.16a2.994,2.994,0,0,0-2.24-2.4l.03-.19c.32.03,1.75.11,2.05.11,1.21,0,1.21-.16,1.24-1.7h-5.43a19.965,19.965,0,0,0-3.19.24l-.65-1.05c1.84.13,3.78.16,4.16.16h5.1V37.69h-3.1a19.965,19.965,0,0,0-3.19.24l-.65-1.08c1.86.16,3.78.19,4.16.19h2.78V35.18a35.313,35.313,0,0,1-3.7.22,17.922,17.922,0,0,1-3.19-.27v-.22Zm-.27-8.56c.84.08,1.73.16,3.97.19a8.532,8.532,0,0,0-.38-2.56l2.13.54c.19.05.32.16.32.32,0,.22-.13.32-.59.54,0,.46-.03.62-.03,1.16h.97l.38-.62c.16-.27.24-.38.4-.38.14,0,.3.14.49.32l.62.62a.86.86,0,0,1,.27.46c0,.11-.14.24-.43.24h-2.7v.54c1.03.14,2.46.81,2.46,1.89a.847.847,0,0,1-.81.94c-.57,0-.67-.32-.94-1.21a3.7,3.7,0,0,0-.7-1.35c.03.67.13,4.21.13,4.29a.923.923,0,0,1-1.03,1.08c-.67,0-.73-.38-.73-.89,0-.08.16-3.62.19-4.29a13.64,13.64,0,0,1-4.4,4.24l-.13-.19a22.245,22.245,0,0,0,3.43-5.02,16.144,16.144,0,0,0-2.38.22l-.51-1.08Zm8.93-.05c.59.05,1.08.11,2.43.16a9.668,9.668,0,0,0-.32-2.51l2.02.51c.24.05.46.16.46.32,0,.22-.24.46-.65.67-.03.24,0,.54,0,1.03h2.56l.57-.89c.14-.22.27-.35.43-.35s.3.11.51.3l1,.89a.546.546,0,0,1,.24.4c0,.19-.13.3-.38.3h-4.4a10.6,10.6,0,0,0,6.21,3.16v.16a3.73,3.73,0,0,0-2.08,1.65,12.066,12.066,0,0,1-4.56-4.97h-.11c0,.67.08,3.54.08,4.18,0,.35,0,1-1.05,1-.49,0-.62-.27-.62-.76,0-.24.08-1.32.08-1.54.03-.7.03-1.16.03-1.51a12.011,12.011,0,0,1-4.48,3.64l-.05-.19a21.6,21.6,0,0,0,3.78-4.75,9.3,9.3,0,0,0-1.16.16l-.54-1.08Z" transform="translate(0 12)" fill="#fff"/>
    <path id="パス_4113" data-name="パス 4113" d="M143.08,22.94c.05,2.11.08,3.89.08,4.91,0,5.67-.08,12.96-5.64,15.76l-.11-.14c2.7-2.83,3.83-6.1,3.83-14.44a60.612,60.612,0,0,0-.41-8.15l2.78.73c.35.08.54.27.54.49s-.19.49-1.08.84Zm7.21.4c-.03.78-.05,2.29-.05,4.64,0,3.4.22,8.83.22,12.23a1.278,1.278,0,0,1-1.43,1.32c-.76,0-.78-.51-.78-.86,0-.27.13-2.75.13-3.16.05-1.89.11-3.48.11-8.56a45.308,45.308,0,0,0-.4-7.5l2.62.67c.24.05.46.22.46.38,0,.24-.16.46-.86.84Zm8.26-.62c-.08,3.67-.08,6.07-.08,7.64,0,1.86.19,10.18.19,11.88a1.321,1.321,0,0,1-1.46,1.54.745.745,0,0,1-.84-.86c0-.54.11-2.86.14-3.35.08-3.16.11-6.32.11-9.45,0-4.62-.03-6.29-.16-7.61a9.063,9.063,0,0,0-.32-1.86l2.89.89c.3.08.46.24.46.41,0,.32-.27.51-.92.78Z" transform="translate(0 12)" fill="#fff"/>
    <path id="パス_4114" data-name="パス 4114" d="M165.2,43a31.489,31.489,0,0,0,1.97-8.29,5.716,5.716,0,0,0-.08-.92l2.38.89c.11.05.3.14.3.35,0,.24-.08.3-.7.73-.57,1.73-1.75,5.16-3.67,7.31l-.19-.08Zm10.74-18.65a.433.433,0,0,1,.19.38c0,.32-.27.4-1.13.59-.92,1.24-2.35,3.13-4.75,5.83.13-.03,1.97-.08,3.37-.22a16.4,16.4,0,0,0-.97-1.92l.13-.19c1.46.62,3.29,1.81,3.29,3.21a1.113,1.113,0,0,1-1.08,1.21c-.7,0-.73-.22-1.24-1.94-.41.14-.86.27-1.92.57.03,3.73,0,5.64.05,7.94,0,.49.08,2.56.08,3,0,.4,0,1.48-1.21,1.48a.715.715,0,0,1-.76-.84c0-1.24.22-9.39.24-11.18-.67.16-1.54.38-3.45.76-.38.4-.4.46-.62.46-.19,0-.32-.19-.38-.38l-.57-2.29a8.223,8.223,0,0,0,2.51.4c.16,0,1.62-.05,1.84-.08,1.78-2.65,4.08-6.67,4.05-8.31l2.32,1.51Zm-9.69-.27a6.369,6.369,0,0,1,2.81.86c0-.03,1.35-3.56,1.16-5.29L172.81,21a.44.44,0,0,1,.27.35c0,.27-.24.38-1.19.76-.97,1.32-1.32,1.73-2.46,3.08a2.517,2.517,0,0,1,1.19,1.92,1.141,1.141,0,0,1-1.03,1.24c-.67,0-.92-.57-1.11-.97a8.691,8.691,0,0,0-2.32-3.1l.08-.19Zm6.24,10.42c1.81.65,3.19,1.92,3.19,3.02a1.044,1.044,0,0,1-1.03,1.16c-.76,0-.89-.43-1.3-1.89a5.567,5.567,0,0,0-1.03-2.13l.16-.16Zm4.18.46a5.985,5.985,0,0,0-1.35.11l-.38-.86c1,.08,1.81.11,2.05.11h.84l.51-.62c.05-.05.19-.22.35-.22a.744.744,0,0,1,.4.24l1.08,1.03c.11.11.3.27.3.46,0,.22-.08.32-.89.62a13.769,13.769,0,0,1-6.32,6.91l-.05-.16a17.406,17.406,0,0,0,4.67-7.61h-1.21Zm5.61-3.54.49.16c.19.05.59.22.59.49,0,.32-.49.59-.7.7a9.514,9.514,0,0,0,1.57,3.7,10.511,10.511,0,0,0,2.91-3.67L189,34.66a.629.629,0,0,1,.14.35c0,.05-.03.35-.43.35-.08,0-.43-.03-.7-.05a38.3,38.3,0,0,1-3.62,1.43,11.143,11.143,0,0,0,6.53,4.4v.22c-1.89.46-2.27,1.05-2.73,1.73a14.979,14.979,0,0,1-5.48-8.02c0,1,.16,5.4.16,6.29,0,.65,0,2.51-2.7,3-.3-.86-.59-1.7-2.78-2.62l.03-.22c.43.05,2.24.16,2.59.16,1.08,0,1.11-.22,1.11-1.03V33.36a12.333,12.333,0,0,0-.08-1.94h-2.16a.989.989,0,0,1-1.08,1.11c-.59,0-.86-.22-.86-.7,0-.38.13-3.91.13-4.64a44.137,44.137,0,0,0-.24-5.37l2.19,1.16h1.62a10.085,10.085,0,0,0,.24-2.24,6.118,6.118,0,0,0-.14-1.32l2.54.81c.22.08.46.19.46.46,0,.35-.27.43-.97.57a20.364,20.364,0,0,1-1.46,1.73h3.67l.73-.84a.828.828,0,0,1,.46-.3.748.748,0,0,1,.4.19l1.27.94c.16.11.35.3.35.46,0,.24-.11.3-1,.94,0,1.11.24,6.32.24,6.91a1.13,1.13,0,0,1-1.27,1.19c-.73,0-.73-.43-.7-1.05h-3.19Zm-3.43-7.8v3.24h6.61V23.62Zm6.61,7.15V27.5h-6.61v3.27Z" transform="translate(0 12)" fill="#fff"/>
    <path id="パス_4115" data-name="パス 4115" d="M198.51,21.05v23.4h-1.13V19.89h8.96v1.16h-7.83Z" transform="translate(0 12)" fill="#fff"/>
    <path id="パス_4116" data-name="パス 4116" d="M234.26,23.35H223.11v4.43c2.67.46,6.78,1.97,6.78,4.59a1.157,1.157,0,0,1-1.13,1.27c-.7,0-.92-.35-1.89-1.92a11.537,11.537,0,0,0-3.75-3.62c.03,6.13.03,6.8.16,13.01,0,.19.03,1.08.03,1.27a1.3,1.3,0,0,1-1.46,1.4c-.92,0-.92-.59-.92-.89,0-.78.19-4.62.22-5.48.05-2.13.05-3.32.05-14.06h-6.56a19.187,19.187,0,0,0-3.16.24l-.54-1.08c1.38.11,2.75.19,4.16.19h15.01l1.51-1.46c.19-.16.35-.3.43-.3a.881.881,0,0,1,.51.27l1.86,1.43a.6.6,0,0,1,.27.4c0,.27-.27.3-.43.3Z" transform="translate(0 12)" fill="#fff"/>
    <path id="パス_4117" data-name="パス 4117" d="M262.36,43.22c-.84.38-2.05.41-4.56.41-2.19,0-3.83-.05-3.83-2.48,0-2.24.62-12.12.7-14.14H250.3a38.227,38.227,0,0,1-1.05,6.24c.65.38,3.29,2,3.29,3.56a.979.979,0,0,1-1.08,1.05,1,1,0,0,1-.84-.43c-1.16-1.35-1.46-1.65-1.97-2.19a14.766,14.766,0,0,1-6.05,7.61,15.389,15.389,0,0,1-3.7,1.7l-.08-.16a17.619,17.619,0,0,0,8.37-10.53,15.151,15.151,0,0,0-4.02-2.67v-.16a16.4,16.4,0,0,1,4.4,1.35,30.615,30.615,0,0,0,.73-5.37h-4.62a18.606,18.606,0,0,0-3.19.24l-.51-1.05c1.67.13,3.35.16,4.13.16h4.24a26.852,26.852,0,0,0-.49-6.78l3.32.97a.435.435,0,0,1,.27.38c0,.22-.16.35-.84.89-.05,2.54-.22,4.13-.24,4.54h4.08l1.03-.89c.11-.08.3-.27.43-.27a.806.806,0,0,1,.43.19l1.32,1.13c.08.08.22.16.22.3,0,.27-.35.46-1.21.94-.27,1.78-.59,8.72-.67,11.01-.03.73-.05,1.4-.05,1.51,0,1.43.4,1.43,2.89,1.43,1.21,0,1.84,0,2.13-.94.24-.76.73-3.05.92-4h.16c.11.62.51,3.35.67,3.89.11.3.16.35.54.7a.759.759,0,0,1,.24.59c0,.4-.3.92-1.13,1.27Z" transform="translate(0 12)" fill="#fff"/>
    <path id="パス_4118" data-name="パス 4118" d="M291.25,32.2H280.37V41c0,1.03,0,3-3.46,3.35-.08-.81-.27-1.75-3.16-3.08l.03-.19a22.8,22.8,0,0,0,2.94.27c1.27,0,1.65-.11,1.65-1.13V32.2h-7.45a18.425,18.425,0,0,0-3.19.24l-.54-1.08c1.67.13,3.35.19,4.16.19h7.02V28.82a7.111,7.111,0,0,0-.46-3.18l2.51.7a38.865,38.865,0,0,0,2.7-4.13h-9.23a18.606,18.606,0,0,0-3.19.24l-.51-1.08c1.67.13,3.32.19,4.13.19h8.96l1.05-.92c.27-.22.32-.27.51-.27.11,0,.22.08.46.27l1.89,1.54a.626.626,0,0,1,.27.46c0,.4-.32.51-2,.57a51.477,51.477,0,0,1-4.51,3.29.419.419,0,0,1,.32.35c0,.35-.43.59-.92.89v3.81h6.83l1.4-1.54c.24-.24.3-.35.4-.35.13,0,.27.11.51.3l1.86,1.54a.592.592,0,0,1,.27.43c0,.24-.22.27-.41.27Z" transform="translate(0 12)" fill="#fff"/>
    <path id="パス_4119" data-name="パス 4119" d="M296.09,44.24V43.08h7.83V19.68h1.13V44.24Z" transform="translate(0 12)" fill="#fff"/>
    <path id="パス_4120" data-name="パス 4120" d="M311.48,42.19a.883.883,0,0,1-.89-1,29.629,29.629,0,0,1,1.03-3.1,3.354,3.354,0,0,0,.05-1.16l.24-.03a5.95,5.95,0,0,1,1,3.21c0,.73-.22,2.08-1.43,2.08Zm9.96-7.85a23.286,23.286,0,0,1-1.65,7.45,3.913,3.913,0,0,1-2.92,2.24,3.853,3.853,0,0,0-2.21-2.67l.05-.19a14.228,14.228,0,0,0,2.62.3c.54,0,.76-.05,1.05-.7a22.108,22.108,0,0,0,1.19-7.05h-6.02a1.089,1.089,0,0,1-1.16,1.32c-.54,0-.67-.27-.67-.73,0-.16.05-.81.05-.94.11-1.7.14-6.4.14-8.26a28.827,28.827,0,0,0-.27-4.48l2.02,1h5.02l.65-.78c.19-.22.32-.35.46-.35.16,0,.3.14.54.3l1.05.78a.643.643,0,0,1,.3.43c0,.19-.24.27-.43.27h-3.73v3.13h1.16l.51-.65c.22-.27.3-.38.43-.38s.3.13.54.3l.86.65c.13.11.3.24.3.43,0,.24-.24.3-.43.3h-3.37v3.1h1.19l.65-.76c.19-.22.3-.32.43-.32.16,0,.27.08.49.27l.81.76a.655.655,0,0,1,.24.43c0,.16-.16.27-.4.27h-3.4v3.27h1.81l.7-.78c.16-.19.3-.32.43-.32s.3.11.54.35l1.05.97a.516.516,0,0,1,.19.35c0,.32-.62.62-.81.7Zm-6.83,6.69c-.89,0-.89-1.13-.89-1.7a7.25,7.25,0,0,0-.3-2.97l.16-.08c.19.22,1.16,1.19,1.3,1.43a3.89,3.89,0,0,1,.76,2.08,1.175,1.175,0,0,1-1.03,1.24Zm1.3-18.76h-2.38V25.4h2.38V22.27Zm0,3.78h-2.38v3.1h2.38Zm0,3.75h-2.38v3.27h2.38Zm.94,9.47c-.7,0-.78-.46-1-2a7.549,7.549,0,0,0-.51-1.97l.11-.08c1.43,1.24,2.24,1.97,2.24,3.02a.941.941,0,0,1-.84,1.03Zm1.51-2c-.54,0-.65-.43-.94-1.51a3.43,3.43,0,0,0-.62-1.24l.16-.16c1.27.59,2.08,1.16,2.08,2.05,0,.43-.24.86-.67.86Zm17.87,4.97a3.964,3.964,0,0,0-2.56,1.59c-3.02-2.46-5.26-7.1-5.26-13.47h-2.89c-.27,6.64-1.59,10.72-5.53,13.55l-.14-.11c3.78-4.1,3.91-11.63,3.91-17.25a24.766,24.766,0,0,0-.46-5.72l2.56,1.13h5.56l.78-.76a.655.655,0,0,1,.43-.24c.13,0,.24.05.46.24l1.08.92a.55.55,0,0,1,.24.43c0,.19-.51.57-.84.78-.03.46-.05.97-.05,1.7,0,.86.16,4.64.16,5.48s-.84,1.08-1.27,1.08c-.86,0-.81-.59-.78-1.24h-2.75c.62,5.88,4.51,10.55,7.37,11.71l-.03.16Zm-4.56-19.62h-5.99c-.03,1.03-.13,5.99-.13,7.1h6.13v-7.1Z" transform="translate(0 12)" fill="#fff"/>
    <path id="パス_4121" data-name="パス 4121" d="M350.79,41.54a4.116,4.116,0,0,1-2.38,1.43c-.67,0-.73-.32-.81-1.13-.08-.86-1.19-2.48-1.94-3.59l.03-.14a13.283,13.283,0,0,0,3.24,1.84c1.89,0,3.16-7.02,3.16-8.91,0-2.16-.57-2.81-1.84-2.81a10.516,10.516,0,0,0-1.78.24c-.38.86-2.08,4.75-2.38,5.4a81.425,81.425,0,0,1-4.08,7.77,1.068,1.068,0,0,1-.84.54c-.43,0-.84-.46-.84-1.21,0-.81.19-1.05,1.11-2.19a38.4,38.4,0,0,0,3.59-6.13c.59-1.21,1.16-2.46,1.67-3.73a15.364,15.364,0,0,0-3.75,1.65c-.65.4-.86.51-1.16.51a2.838,2.838,0,0,1-2.24-2.54,1.827,1.827,0,0,1,.3-.97c.67,1.21,1.35,1.32,1.84,1.32a6.225,6.225,0,0,0,1.57-.24c.4-.11,2.67-.67,4-1a16.519,16.519,0,0,0,1.24-4.1c0-1.11-.46-1.35-1.92-2.08a4.57,4.57,0,0,1,1.57-.32c1.03,0,2.75,1.19,2.75,1.92,0,.32-.05.46-.67,1.57-.16.27-.81,1.75-1.21,2.64.35-.03.89-.11,1.48-.11,2.56,0,3.13,2.11,3.13,4.35,0,1.89-.84,7.85-2.83,10.01Zm11.2-6.45a7.378,7.378,0,0,1-1.46-.73,21.005,21.005,0,0,0-3.73-.97V33.2c2.73-.27,3.4-.54,3.4-1.3,0-.3-.86-2.4-5.05-5.21,5.05.92,7.53,4.53,7.53,7.18,0,.22,0,1.21-.7,1.21Z" transform="translate(0 12)" fill="#fff"/>
    <path id="パス_4122" data-name="パス 4122" d="M371.99,42.78v-.16a19.455,19.455,0,0,0,6.34-2.21c1.92-1.03,3.51-2.32,3.51-4.62a3.173,3.173,0,0,0-3.4-3.46c-3.24,0-6.67,2.16-8.83,5.43a.817.817,0,0,1-.67.49c-1,0-1.43-1.59-1.43-2.16a8.546,8.546,0,0,1,.35-1.94,41.233,41.233,0,0,0,.49-5.67c0-2.46,0-3.86,4.67-4.59.16-.03.24-.05.24-.19s-.08-.19-.73-.62a3.637,3.637,0,0,1-1.67-2.67c1.16.94,1.38,1.03,3.89,2.08.59.24,2.11.86,2.11,2.48,0,.59-.22.84-.57.84a2.879,2.879,0,0,1-1.24-.43,8.007,8.007,0,0,0-2.81-.46c-2.05,0-2.91.65-2.91,1.43,0,.27.05.43.59,1.78a3.4,3.4,0,0,1,.19.94,13.648,13.648,0,0,1-.38,1.59,18.792,18.792,0,0,0-.57,3.67c0,.16.03.62.35.62.16,0,1.84-1.21,2.19-1.43a14.083,14.083,0,0,1,6.96-2.16c3.7,0,5.26,2.59,5.26,4.7,0,4.45-5.51,7.1-11.93,6.72Z" transform="translate(0 12)" fill="#fff"/>
    <g id="グループ_208" data-name="グループ 208" transform="translate(0 -46.59)">
      <path id="パス_4196" data-name="パス 4196" d="M22.85,163.76v13h-.63V163.11H27.2v.65Z"/>
      <path id="パス_4197" data-name="パス 4197" d="M36.85,164.58a3.721,3.721,0,0,0-.21-1.48l1.42.34c.12.03.21.08.21.21,0,.2-.09.24-.43.44v.5h2.64l.48-.68c.05-.07.13-.19.22-.19s.2.1.27.16l.87.68a.275.275,0,0,1,.15.22c0,.15-.13.17-.22.17H37.84a3.082,3.082,0,0,1,0,.88c-.06.26-.38.36-.65.36a.321.321,0,0,1-.36-.29c0-.06-.02-.64,0-.96H34.25c0,.18.04.98.04,1.14,0,.36-.39.48-.72.48-.23,0-.32-.12-.32-.42,0-.2.03-1.04.03-1.2H31.54a10.206,10.206,0,0,0-1.75.14l-.3-.6a21.941,21.941,0,0,0,2.29.11h1.49a3.9,3.9,0,0,0-.23-1.46l1.47.33a.2.2,0,0,1,.18.18c0,.22-.13.3-.44.48-.01.24-.01.31-.01.46h2.59Zm-7.29,4.26c2.1.18,2.1,1.11,2.1,1.26a.542.542,0,0,1-.54.59c-.33,0-.42-.15-.76-.74a2.7,2.7,0,0,0-.81-1l.02-.1Zm3.51-.07a24.879,24.879,0,0,1-1.08,3.48,7.735,7.735,0,0,0-.53,1.8,2.151,2.151,0,0,0,.29.85,2.428,2.428,0,0,1,.22.96c0,.27-.06.87-.69.87s-.66-.63-.66-.94a8.963,8.963,0,0,0-.04-1.32,1.619,1.619,0,0,0-.95-1.15v-.12c.87.03.86.01,1.37-.83.15-.25,1-1.69,1.98-3.66Zm-2.17-2.66c.73.11,2.02.3,2.02,1.29a.532.532,0,0,1-.55.54c-.41,0-.56-.33-.71-.64a2.719,2.719,0,0,0-.78-1.08l.02-.11Zm10.11,1.32.43-.63c.08-.1.15-.21.24-.21a.479.479,0,0,1,.27.16l.71.64c.09.08.15.13.15.23,0,.15-.13.17-.24.17H38.03v1.3h2.12l.39-.4a.266.266,0,0,1,.18-.12.729.729,0,0,1,.33.16l.62.52a.407.407,0,0,1,.15.25c0,.15-.21.27-.53.45-.03.67,0,1.92.03,3.49,0,.27.06,1.41.06,1.65,0,.45,0,1.26-1.5,1.56a1.882,1.882,0,0,0-1.02-1.35v-.09c.39.03.75.03.97.03.48,0,.5-.08.5-.41v-1.62H38.07c0,.45.06,2.41.06,2.82,0,.19,0,.69-.69.69-.41,0-.41-.24-.41-.48,0-.36.03-1.95.03-2.28v-.75H35.05c.01.59.05,1.89.05,2.43,0,.38,0,.87-.75.87-.3,0-.38-.11-.38-.62,0-.06.08-3.42.08-3.91a27.716,27.716,0,0,0-.14-3.5l1.28.59h1.88c0-.07-.02-1.26-.02-1.3H35.34a10.471,10.471,0,0,0-1.77.13l-.3-.6c1.09.09,2.05.11,2.31.11h1.47a3.724,3.724,0,0,0-.15-1.18l1.44.36c.09.03.18.08.18.19,0,.18-.12.24-.48.42v.21h2.99ZM37.05,171v-1.55H35.04V171Zm0,1.88v-1.51H35.04v1.51Zm.97-3.42v1.55h2.29v-1.55Zm0,1.91c0,.34.02,1.09.03,1.51h2.26v-1.51H38.02Zm.62-5.76c.58.01,1.95.06,1.95.94a.5.5,0,0,1-.54.51c-.29,0-.35-.09-.69-.58a2.127,2.127,0,0,0-.72-.78Z"/>
      <path id="パス_4198" data-name="パス 4198" d="M55.28,164.64l.42-.39c.09-.07.13-.16.22-.16a.444.444,0,0,1,.22.1l.81.6a.32.32,0,0,1,.16.25c0,.21-.5.43-.63.5-.04,1.47-.02,5.77.06,8.22,0,.23.09,1.29.09,1.5a.78.78,0,0,1-.85.78c-.48,0-.45-.27-.42-.87H46.87c0,.09,0,.54-.01.6-.11.35-.55.46-.81.46a.4.4,0,0,1-.45-.42c0-.18.04-.94.04-1.11.06-2.17.1-4.35.1-6.51a23.051,23.051,0,0,0-.21-4.34l1.42.78h8.31Zm-8.4.36v4.65h3.67V165Zm0,5.01v4.8h3.67v-4.8Zm8.49-.36V165H51.59v4.65Zm0,5.16v-4.8H51.59v4.8Z"/>
      <path id="パス_4199" data-name="パス 4199" d="M59.64,176.64V176h4.35V163h.63v13.65H59.64Z"/>
      <path id="パス_4200" data-name="パス 4200" d="M67.82,175.5a.49.49,0,0,1-.49-.55,16.675,16.675,0,0,1,.57-1.73,1.834,1.834,0,0,0,.03-.65l.13-.02a3.354,3.354,0,0,1,.56,1.79c0,.4-.12,1.15-.8,1.15Zm5.54-4.36a13.117,13.117,0,0,1-.91,4.14,2.18,2.18,0,0,1-1.62,1.25,2.1,2.1,0,0,0-1.23-1.48l.03-.11a7.764,7.764,0,0,0,1.45.17c.3,0,.42-.03.59-.39a12.114,12.114,0,0,0,.66-3.91H68.99c.01.24-.01.74-.64.74-.3,0-.38-.15-.38-.41,0-.09.03-.45.03-.52.06-.94.08-3.55.08-4.59a16.02,16.02,0,0,0-.15-2.49l1.12.55h2.79l.36-.43c.11-.12.18-.2.25-.2.09,0,.16.08.3.16l.58.44a.369.369,0,0,1,.17.24c0,.11-.13.15-.24.15H71.19v1.74h.64l.29-.36c.12-.15.17-.21.24-.21a.669.669,0,0,1,.3.17l.48.36c.07.06.16.13.16.24,0,.14-.14.16-.24.16H71.18v1.73h.66l.36-.42c.11-.12.17-.18.24-.18.09,0,.15.04.27.15l.45.42a.361.361,0,0,1,.14.24c0,.09-.09.15-.23.15H71.18v1.81h1l.39-.43c.09-.11.17-.18.24-.18s.16.06.3.19l.58.54a.291.291,0,0,1,.11.19c0,.18-.34.35-.45.39Zm-3.79,3.72c-.5,0-.5-.63-.5-.94a3.933,3.933,0,0,0-.17-1.65l.09-.04a10.5,10.5,0,0,1,.72.79,2.163,2.163,0,0,1,.42,1.15.651.651,0,0,1-.57.69Zm.72-10.42H68.97v1.74h1.32Zm0,2.1H68.97v1.73h1.32Zm0,2.09H68.97v1.81h1.32Zm.53,5.26c-.39,0-.43-.25-.55-1.11a3.69,3.69,0,0,0-.29-1.09l.06-.04c.8.69,1.25,1.09,1.25,1.68,0,.26-.15.57-.46.57Zm.84-1.11c-.3,0-.36-.24-.52-.84a1.762,1.762,0,0,0-.35-.69l.09-.09c.71.33,1.16.65,1.16,1.14,0,.24-.13.48-.38.48Zm9.93,2.76a2.167,2.167,0,0,0-1.42.88c-1.68-1.36-2.92-3.94-2.92-7.48H75.64c-.15,3.69-.88,5.96-3.07,7.53l-.08-.06c2.1-2.28,2.17-6.46,2.17-9.58a14.564,14.564,0,0,0-.25-3.18l1.42.63h3.09l.43-.42a.361.361,0,0,1,.24-.14c.08,0,.13.03.25.14l.6.51a.309.309,0,0,1,.13.24c0,.1-.29.31-.46.43-.02.26-.03.54-.03.95,0,.48.09,2.58.09,3.05s-.46.6-.71.6c-.48,0-.45-.33-.43-.69H77.5c.35,3.27,2.5,5.86,4.09,6.51v.09Zm-2.54-10.9H75.72c-.02.57-.08,3.33-.08,3.94h3.4v-3.94Z"/>
      <path id="パス_4201" data-name="パス 4201" d="M85.71,171.08a1.2,1.2,0,0,1,0-2.4,1.2,1.2,0,0,1,0,2.4Z"/>
      <path id="パス_4202" data-name="パス 4202" d="M92.06,163.76v13h-.63V163.11h4.98v.65H92.06Z"/>
      <path id="パス_4203" data-name="パス 4203" d="M103.11,173.33a11.984,11.984,0,0,1-4.8,3.1l-.05-.1c1.35-.83,3.66-3.03,4.07-4.37l1.25.95a.276.276,0,0,1,.15.23c0,.19-.15.21-.62.19Zm8.68-7.77H100.51a8.782,8.782,0,0,0-1.75.15l-.3-.6c1.02.09,2.08.09,2.31.09h3.9a5.279,5.279,0,0,0-.32-2.22l1.67.38c.11.03.25.08.25.19,0,.16-.13.24-.51.45-.01.5-.01.57-.01,1.2h3.85l.69-.73c.12-.13.15-.19.22-.19a.752.752,0,0,1,.31.16l1.04.73s.15.13.15.24c0,.14-.13.15-.23.15Zm-2.68,2.52c0,.32,0,.69.01,1.38.02.27.09,1.43.09,1.65a.739.739,0,0,1-.74.7c-.42,0-.42-.21-.39-.75h-2.25c0,.65.05,3.48.05,4.07,0,.54,0,1.42-1.58,1.79-.12-.98-1.41-1.54-1.68-1.66v-.11a13.086,13.086,0,0,0,1.75.19c.43,0,.45-.09.45-.71v-3.57H102.2c.03.42.06.95-.72.95-.33,0-.41-.18-.41-.41,0-.06.01-.25.01-.33.02-.45.04-1.85.04-2.39a8.944,8.944,0,0,0-.15-2.4l1.39.78h5.58l.45-.5c.06-.06.12-.12.19-.12a.36.36,0,0,1,.21.11l.71.57c.15.12.18.17.18.24,0,.19-.12.24-.6.51Zm-1.02-.45h-5.88v3.07h5.88Zm2.4,8.34c-.41,0-.48-.13-1.11-1.05a7.252,7.252,0,0,0-2.27-2.37l.03-.1c1.55.25,3.92,1.48,3.92,2.86A.615.615,0,0,1,110.49,175.97Z"/>
      <path id="パス_4204" data-name="パス 4204" d="M114.29,175.8a.659.659,0,0,1-.65-.64c0-.38.33-.63.8-.99a3.555,3.555,0,0,0,1.16-1.61h.09a5.793,5.793,0,0,1,.03.65c0,1.4-.59,2.59-1.42,2.59Zm11.38-8.62c-.2.14-.26.18-.33.24.03,1.51.05,2.1.07,2.7,0,.14.04.69.04.81a.639.639,0,0,1-.69.63c-.46,0-.46-.3-.46-.48v-.19h-6.95a10.6,10.6,0,0,0-1.77.13l-.29-.6c.95.08,1.89.11,2.29.11h6.71v-1.59h-6.72a9.737,9.737,0,0,0-1.77.14l-.3-.59c.93.07,1.86.09,2.31.09h6.48v-1.53h-8.23a12.368,12.368,0,0,1-2.1,1.36l-.04-.06a20.238,20.238,0,0,0,3.67-4.63,2.124,2.124,0,0,0,.21-.84l1.32.64a.326.326,0,0,1,.21.29c0,.16-.32.25-.55.31-.08.09-.23.27-.35.4h3.34l.54-.45c.09-.07.2-.17.25-.17a.768.768,0,0,1,.32.17l.71.56a.284.284,0,0,1,.15.23c0,.18-.12.19-.57.3-.18.05-.29.12-1.53.99-.25.18-.58.4-.79.54h3.25l.44-.42c.07-.07.18-.18.24-.18.08,0,.16.09.23.13l.64.51a.337.337,0,0,1,.16.24c0,.08-.06.14-.15.21Zm-7.56-2.29c-.21.23-1.41,1.56-1.63,1.8h4.02c.16-.23.87-1.31,1.11-1.8Zm5.37,11.35c-.51.1-3.42.1-4.29.1-1.65,0-1.77-.31-1.77-1.74a12.856,12.856,0,0,0-.12-3.09l1.41.45c.09.03.24.12.24.21a.266.266,0,0,1-.12.18c-.04.04-.29.23-.33.27,0,.2-.03,2.21,0,2.44.03.27.33.29.69.29.67-.02,3.03.02,3.36-.1a.711.711,0,0,0,.45-.45,13.043,13.043,0,0,0,.45-1.69h.11a5.141,5.141,0,0,0,.57,1.88c.24.23.33.31.33.5s-.16.61-.97.76Zm-2.1-2.43c-.41,0-.48-.18-.84-1.05a3.483,3.483,0,0,0-.79-1.2l.06-.09c1.96.55,2.14,1.33,2.14,1.56C121.95,173.37,121.82,173.81,121.38,173.81Zm5.23,1.21c-.42,0-.46-.1-.88-1.05a4.663,4.663,0,0,0-1.04-1.67l.02-.03c.81.13,2.53,1.03,2.53,2.09A.629.629,0,0,1,126.61,175.02Z"/>
      <path id="パス_4205" data-name="パス 4205" d="M136.82,164.58a3.721,3.721,0,0,0-.21-1.48l1.42.34c.12.03.21.08.21.21,0,.2-.09.24-.43.44v.5h2.64l.48-.68c.04-.07.13-.19.22-.19s.2.1.27.16l.87.68a.275.275,0,0,1,.15.22c0,.15-.13.17-.22.17h-4.41a3.082,3.082,0,0,1,0,.88c-.06.26-.38.36-.65.36a.321.321,0,0,1-.36-.29c0-.06-.02-.64,0-.96h-2.58c0,.18.04.98.04,1.14,0,.36-.39.48-.72.48-.23,0-.32-.12-.32-.42,0-.2.03-1.04.03-1.2h-1.74a10.206,10.206,0,0,0-1.75.14l-.3-.6a22,22,0,0,0,2.3.11h1.49a3.9,3.9,0,0,0-.23-1.46l1.47.33a.2.2,0,0,1,.18.18c0,.22-.13.3-.44.48-.01.24-.01.31-.01.46h2.59Zm-7.29,4.26c2.1.18,2.1,1.11,2.1,1.26a.542.542,0,0,1-.54.59c-.33,0-.42-.15-.76-.74a2.7,2.7,0,0,0-.81-1l.02-.1Zm3.51-.07a24.878,24.878,0,0,1-1.08,3.48,7.735,7.735,0,0,0-.53,1.8,2.151,2.151,0,0,0,.29.85,2.266,2.266,0,0,1,.22.96c0,.27-.06.87-.69.87s-.66-.63-.66-.94a8.966,8.966,0,0,0-.04-1.32,1.619,1.619,0,0,0-.95-1.15v-.12c.87.03.86.01,1.37-.83.15-.25,1-1.69,1.98-3.66l.09.06Zm-2.18-2.66c.74.11,2.03.3,2.03,1.29a.532.532,0,0,1-.55.54c-.41,0-.56-.33-.71-.64a2.719,2.719,0,0,0-.78-1.08v-.11Zm10.11,1.32.43-.63c.08-.1.15-.21.24-.21a.479.479,0,0,1,.27.16l.7.64c.09.08.15.13.15.23,0,.15-.13.17-.24.17h-4.54v1.3h2.12l.39-.4a.266.266,0,0,1,.18-.12.729.729,0,0,1,.33.16l.62.52a.407.407,0,0,1,.15.25c0,.15-.21.27-.53.45-.03.67,0,1.92.03,3.49,0,.27.06,1.41.06,1.65,0,.45,0,1.26-1.5,1.56a1.882,1.882,0,0,0-1.02-1.35v-.09c.39.03.75.03.97.03.48,0,.5-.08.5-.41v-1.62h-2.26c0,.45.06,2.41.06,2.82,0,.19,0,.69-.69.69-.41,0-.41-.24-.41-.48,0-.36.03-1.95.03-2.28v-.75H135c.01.59.04,1.89.04,2.43,0,.38,0,.87-.75.87-.3,0-.38-.11-.38-.62,0-.06.08-3.42.08-3.91a27.716,27.716,0,0,0-.14-3.5l1.28.59h1.88c0-.07-.02-1.26-.02-1.3h-1.71a10.471,10.471,0,0,0-1.77.13l-.3-.6c1.09.09,2.05.11,2.31.11h1.47a3.724,3.724,0,0,0-.15-1.18l1.44.36c.09.03.18.08.18.19,0,.18-.12.24-.48.42v.21h2.99ZM137.01,171v-1.55H135V171Zm0,1.88v-1.51H135v1.51Zm.97-3.42v1.55h2.29v-1.55Zm0,1.91c0,.34.02,1.09.03,1.51h2.26v-1.51Zm.62-5.76c.59.01,1.95.06,1.95.94a.5.5,0,0,1-.54.51c-.29,0-.35-.09-.69-.58a2.126,2.126,0,0,0-.72-.78Z"/>
      <path id="パス_4206" data-name="パス 4206" d="M155.24,164.64l.42-.39c.09-.07.13-.16.22-.16a.444.444,0,0,1,.22.1l.81.6c.09.07.17.14.17.25,0,.21-.5.43-.63.5-.04,1.47-.02,5.77.06,8.22,0,.23.09,1.29.09,1.5a.78.78,0,0,1-.85.78c-.48,0-.45-.27-.42-.87h-8.49c0,.09,0,.54-.01.6-.11.35-.55.46-.81.46a.4.4,0,0,1-.45-.42c0-.18.05-.94.05-1.11.06-2.17.1-4.35.1-6.51a23.051,23.051,0,0,0-.21-4.34l1.43.78h8.31Zm-8.4.36v4.65h3.67V165Zm0,5.01v4.8h3.67v-4.8Zm8.49-.36V165h-3.78v4.65Zm0,5.16v-4.8h-3.78v4.8Z"/>
      <path id="パス_4207" data-name="パス 4207" d="M159.6,176.64V176h4.35V163h.63v13.65H159.6Z"/>
      <path id="パス_4208" data-name="パス 4208" d="M167.77,175.5a.49.49,0,0,1-.49-.55,16.671,16.671,0,0,1,.57-1.73,1.834,1.834,0,0,0,.03-.65l.13-.02a3.354,3.354,0,0,1,.56,1.79c0,.4-.12,1.15-.8,1.15Zm5.54-4.36a13.117,13.117,0,0,1-.91,4.14,2.18,2.18,0,0,1-1.62,1.25,2.078,2.078,0,0,0-1.23-1.48l.03-.11a7.764,7.764,0,0,0,1.45.17c.3,0,.42-.03.59-.39a12.114,12.114,0,0,0,.66-3.91h-3.34c.01.24-.01.74-.64.74-.3,0-.38-.15-.38-.41,0-.09.03-.45.03-.52.06-.94.08-3.55.08-4.59a16.021,16.021,0,0,0-.15-2.49l1.12.55h2.79l.36-.43c.11-.12.18-.2.25-.2.09,0,.16.08.3.16l.58.44a.369.369,0,0,1,.17.24c0,.11-.13.15-.24.15h-2.07v1.74h.64l.29-.36c.12-.15.16-.21.24-.21s.16.07.3.17l.48.36c.07.06.16.13.16.24,0,.14-.14.16-.24.16h-1.88v1.73h.66l.36-.42c.11-.12.17-.18.24-.18.09,0,.15.04.27.15l.45.42a.361.361,0,0,1,.14.24c0,.09-.09.15-.23.15h-1.89v1.81h1l.39-.43c.09-.11.17-.18.24-.18s.16.06.3.19l.58.54a.291.291,0,0,1,.11.19c0,.18-.34.35-.45.39Zm-3.79,3.72c-.5,0-.5-.63-.5-.94a3.933,3.933,0,0,0-.17-1.65l.09-.04a10.5,10.5,0,0,1,.72.79,2.163,2.163,0,0,1,.42,1.15.651.651,0,0,1-.57.69Zm.72-10.42h-1.32v1.74h1.32Zm0,2.1h-1.32v1.73h1.32Zm0,2.09h-1.32v1.81h1.32Zm.53,5.26c-.39,0-.43-.25-.55-1.11a3.69,3.69,0,0,0-.29-1.09l.06-.04c.79.69,1.25,1.09,1.25,1.68,0,.26-.15.57-.46.57Zm.84-1.11c-.3,0-.36-.24-.52-.84a1.762,1.762,0,0,0-.35-.69l.09-.09c.7.33,1.16.65,1.16,1.14,0,.24-.13.48-.38.48Zm9.93,2.76a2.167,2.167,0,0,0-1.42.88c-1.68-1.36-2.92-3.94-2.92-7.48h-1.61c-.15,3.69-.88,5.96-3.07,7.53l-.08-.06c2.1-2.28,2.17-6.46,2.17-9.58a14.564,14.564,0,0,0-.25-3.18l1.42.63h3.09l.43-.42a.383.383,0,0,1,.24-.14c.07,0,.13.03.25.14l.6.51a.309.309,0,0,1,.13.24c0,.1-.29.31-.46.43-.02.26-.03.54-.03.95,0,.48.09,2.58.09,3.05s-.46.6-.71.6c-.48,0-.45-.33-.43-.69h-1.53c.35,3.27,2.5,5.86,4.09,6.51v.09ZM179,164.64h-3.33c-.02.57-.08,3.33-.08,3.94h3.4v-3.94Z"/>
      <path id="パス_4209" data-name="パス 4209" d="M193.57,165.86c-1.92,0-2.49,0-3.5.6a5.654,5.654,0,0,0-2.54,4.47c0,2.5,2.64,3.09,3.99,3.39.22.05.85.18.85.83,0,.39-.38.42-.57.42-1.54,0-5.01-1.14-5.01-4.44a5.373,5.373,0,0,1,1.23-3.36,10.7,10.7,0,0,1,2.07-1.87,26.643,26.643,0,0,0-5.31,1.6c-.65.38-.72.41-.96.41a1.288,1.288,0,0,1-1.1-1.32,1.353,1.353,0,0,1,.21-.76c.29.45.51.79,1.17.79a12.6,12.6,0,0,0,2.21-.43c1.79-.44,4.66-1.08,6.45-1.52a3.09,3.09,0,0,1,.48-.07c.23,0,1.2.28,1.2.79,0,.48-.46.48-.88.48Zm-.42,3.81c-.25,0-.3-.06-.66-.69a7.889,7.889,0,0,0-1.41-1.65c1,.21,2.47.87,2.47,1.81,0,.26-.09.52-.4.52Zm1.75-.69c-.23,0-.27-.08-.71-.74a7.2,7.2,0,0,0-1.53-1.44c.96.09,2.64.71,2.64,1.69a.421.421,0,0,1-.4.48Z"/>
      <path id="パス_4210" data-name="パス 4210" d="M201.31,173.33a11.984,11.984,0,0,1-4.8,3.1l-.05-.1c1.35-.83,3.66-3.03,4.07-4.37l1.25.95a.276.276,0,0,1,.15.23C201.93,173.33,201.78,173.35,201.31,173.33Zm8.68-7.77H198.71a8.782,8.782,0,0,0-1.75.15l-.3-.6c1.02.09,2.08.09,2.31.09h3.9a5.279,5.279,0,0,0-.32-2.22l1.66.38c.11.03.25.08.25.19,0,.16-.13.24-.51.45-.01.5-.01.57-.01,1.2h3.85l.69-.73c.12-.13.15-.19.22-.19a.752.752,0,0,1,.31.16l1.04.73s.15.13.15.24c0,.14-.13.15-.23.15Zm-2.68,2.52c0,.32,0,.69.01,1.38.02.27.09,1.43.09,1.65a.739.739,0,0,1-.74.7c-.42,0-.42-.21-.39-.75h-2.25c0,.65.05,3.48.05,4.07,0,.54,0,1.42-1.58,1.79-.12-.98-1.41-1.54-1.68-1.66v-.11a13.086,13.086,0,0,0,1.75.19c.43,0,.45-.09.45-.71v-3.57H200.4c.03.42.06.95-.72.95-.33,0-.41-.18-.41-.41,0-.06.01-.25.01-.33.02-.45.04-1.85.04-2.39a8.944,8.944,0,0,0-.15-2.4l1.39.78h5.58l.45-.5c.06-.06.12-.12.19-.12a.39.39,0,0,1,.21.11l.71.57c.15.12.18.17.18.24,0,.19-.12.24-.6.51Zm-1.02-.45h-5.88v3.07h5.88Zm2.4,8.34c-.41,0-.48-.13-1.11-1.05a7.252,7.252,0,0,0-2.27-2.37l.03-.1c1.55.25,3.92,1.48,3.92,2.86a.615.615,0,0,1-.57.66Z"/>
      <path id="パス_4211" data-name="パス 4211" d="M212.49,175.8a.659.659,0,0,1-.65-.64c0-.38.33-.63.8-.99a3.555,3.555,0,0,0,1.16-1.61h.09a5.791,5.791,0,0,1,.03.65c0,1.4-.59,2.59-1.42,2.59Zm11.38-8.62c-.2.14-.26.18-.33.24.03,1.51.05,2.1.07,2.7,0,.14.04.69.04.81a.639.639,0,0,1-.69.63c-.46,0-.46-.3-.46-.48v-.19h-6.95a10.6,10.6,0,0,0-1.77.13l-.29-.6c.95.08,1.89.11,2.29.11h6.71v-1.59h-6.72a9.737,9.737,0,0,0-1.77.14l-.3-.59c.93.07,1.86.09,2.31.09h6.48v-1.53h-8.23a12.368,12.368,0,0,1-2.1,1.36l-.04-.06a20.238,20.238,0,0,0,3.67-4.63,2.309,2.309,0,0,0,.21-.84l1.32.64a.326.326,0,0,1,.21.29c0,.16-.32.25-.55.31-.08.09-.23.27-.35.4h3.34l.54-.45c.09-.07.2-.17.25-.17a.769.769,0,0,1,.32.17l.71.56a.284.284,0,0,1,.15.23c0,.18-.12.19-.57.3-.18.05-.29.12-1.53.99-.25.18-.58.4-.79.54h3.25l.44-.42c.07-.07.18-.18.24-.18.08,0,.16.09.23.13l.64.51a.337.337,0,0,1,.16.24c0,.08-.06.14-.15.21Zm-7.56-2.29c-.21.23-1.41,1.56-1.63,1.8h4.02c.16-.23.87-1.31,1.11-1.8Zm5.37,11.35c-.51.1-3.42.1-4.29.1-1.65,0-1.77-.31-1.77-1.74a12.857,12.857,0,0,0-.12-3.09l1.41.45c.09.03.24.12.24.21a.266.266,0,0,1-.12.18c-.04.04-.29.23-.33.27,0,.2-.03,2.21,0,2.44.03.27.33.29.69.29.67-.02,3.03.02,3.36-.1a.711.711,0,0,0,.45-.45,13.043,13.043,0,0,0,.45-1.69h.11a5.14,5.14,0,0,0,.57,1.88c.24.23.33.31.33.5s-.16.61-.97.76Zm-2.1-2.43c-.41,0-.48-.18-.84-1.05a3.483,3.483,0,0,0-.79-1.2l.06-.09c1.96.55,2.14,1.33,2.14,1.56C220.15,173.37,220.02,173.81,219.58,173.81Zm5.23,1.21c-.42,0-.46-.1-.88-1.05a4.663,4.663,0,0,0-1.04-1.67l.02-.03c.81.13,2.53,1.03,2.53,2.09A.629.629,0,0,1,224.81,175.02Z"/>
      <path id="パス_4212" data-name="パス 4212" d="M240.63,175.98h-11a10.461,10.461,0,0,0-1.77.14l-.3-.6c.76.07,1.54.11,2.31.11h3.78v-3.54h-2.59a10.484,10.484,0,0,0-1.77.14l-.3-.6c1.18.09,2.04.1,2.31.1h5.8l.65-.72c.12-.12.18-.19.24-.19.09,0,.21.11.29.17l.88.72a.3.3,0,0,1,.15.22c0,.15-.15.16-.24.16h-4.35v3.54h3.87l.66-.79c.07-.09.13-.18.22-.18.06,0,.13.02.29.15l.94.79c.06.05.17.12.17.23,0,.15-.15.16-.24.16Zm-.53-6.3a32.349,32.349,0,0,1-3.75.14c-1.53,0-1.53-.38-1.53-1.86,0-.33-.02-2.01-.02-2.39h-4.89c-.2,1.68-1.35,1.68-1.39,1.68a.571.571,0,0,1-.6-.54c0-.38.29-.56.79-.89a1.835,1.835,0,0,0,1-1.35h.12a1.34,1.34,0,0,1,.11.73h3.78a6.441,6.441,0,0,0-.27-2.2l1.42.36c.12.03.33.07.33.27a.275.275,0,0,1-.11.21,2.931,2.931,0,0,0-.34.24v1.12h3.54l.58-.48c.12-.09.18-.15.31-.15a.365.365,0,0,1,.26.13l.91.81a.431.431,0,0,1,.12.29c0,.27-.21.3-.81.34-.24.15-1.3.85-1.53.99l-.08-.08a11.414,11.414,0,0,0,.33-1.5h-2.55a24.8,24.8,0,0,0,.09,3.13,4.707,4.707,0,0,0,1.47.14c.52,0,1.67,0,1.93-.27a3.711,3.711,0,0,0,.66-1.59h.12c.24.98.33,1.35.52,1.48a.532.532,0,0,1,.3.48c0,.44-.54.67-.85.73Zm-7-2.83a6.461,6.461,0,0,1-5,3.75l-.06-.12c3.3-1.65,4.04-3.88,4.16-4.84l1.24.64c.15.08.2.14.2.23,0,.18-.05.19-.54.35Z"/>
      <path id="パス_4213" data-name="パス 4213" d="M244.26,169.01c-.36,0-.45-.15-.93-1.08a3.932,3.932,0,0,0-.75-.98v-.09c.55.08,2.23.48,2.23,1.5A.59.59,0,0,1,244.26,169.01Zm.72,2.5a5.469,5.469,0,0,0-.27,1.42,5.569,5.569,0,0,0,.2,1.34,6.754,6.754,0,0,1,.27,1.33c0,.42-.2.84-.66.84-.71,0-.71-.75-.71-1.08,0-.2.04-1.02.04-1.19a1.545,1.545,0,0,0-1-1.65v-.09a1.407,1.407,0,0,0,.99-.45c.33-.44,2.03-5.25,2.15-5.68l.12.04a37.146,37.146,0,0,1-1.12,5.16Zm.41-6.04c-.45,0-.58-.34-.92-1.07a5.124,5.124,0,0,0-.64-1.08l.03-.07c.29.06,2.15.58,2.15,1.54a.618.618,0,0,1-.62.67Zm10.59,6.15a2.5,2.5,0,0,0-.62.81,7.958,7.958,0,0,1-3.75-3.88h-1.92a11.521,11.521,0,0,1-1.57,2.16c1.06.09,2.08.1,2.26.1h.75l.27-.27c.11-.11.18-.21.29-.21a.557.557,0,0,1,.27.15l.49.39c.09.08.18.15.18.25,0,.16-.08.23-.35.46.02.23.06,1.22.06,1.41,0,.3,0,.48-.15.6a1.208,1.208,0,0,1-.57.19c-.3,0-.32-.21-.32-.34h-1.98c-.09,2.01.01,2.01.82,2.01,2.52,0,3.09,0,3.42-.31a4.474,4.474,0,0,0,.78-2h.08a6.526,6.526,0,0,0,.46,1.77c.06.09.08.09.24.23a.228.228,0,0,1,.12.19c0,.06,0,.44-.65.75a8.609,8.609,0,0,1-3.03.36c-2.85,0-3.25-.09-3.27-1.19a27.2,27.2,0,0,0-.09-2.82l1.38.64h1.72v-1.92h-1.18a8.652,8.652,0,0,0-1.75.14l-.29-.58a11.073,11.073,0,0,1-2.73,2.34l-.04-.09a16.92,16.92,0,0,0,3.12-4.42,11.4,11.4,0,0,0-1.9.13l-.3-.6c.78.06.93.08,2.26.1v-2.55a8.648,8.648,0,0,0-1.54.14l-.3-.6c.33.03.87.07,1.84.09a7.3,7.3,0,0,0-.25-2.31l1.38.41c.18.06.29.12.29.23,0,.17-.14.27-.44.48a11.082,11.082,0,0,1,0,1.21h1.92a5.894,5.894,0,0,0-.27-2.25l1.42.38c.16.04.29.14.29.21,0,.18-.24.36-.44.48-.01.19-.01,1.02-.01,1.19h.85l.48-.65c.06-.07.13-.19.22-.19s.21.12.29.18l.66.63c.09.08.15.14.15.23,0,.15-.12.16-.23.16h-2.43v2.55h1.67l.51-.67c.08-.11.13-.19.22-.19a.5.5,0,0,1,.29.16l.72.67c.09.09.15.17.15.23,0,.15-.13.17-.22.17h-3.83a6.456,6.456,0,0,0,4.65,2.62v.09c-.09.06-.5.3-.57.36Zm-4.58-5.98h-1.92v2.55h1.92C251.4,167.83,251.42,166.05,251.4,165.64Z"/>
      <path id="パス_4214" data-name="パス 4214" d="M258.07,175.95a17.41,17.41,0,0,0,1.09-4.6,2.848,2.848,0,0,0-.04-.51l1.32.49c.06.03.17.08.17.2s-.05.17-.39.4a12.179,12.179,0,0,1-2.04,4.07l-.1-.04Zm5.97-10.36a.227.227,0,0,1,.1.21c0,.18-.15.23-.63.33-.51.69-1.3,1.74-2.64,3.24.08-.01,1.09-.04,1.88-.12a11.906,11.906,0,0,0-.54-1.07l.08-.1c.81.35,1.83,1,1.83,1.79a.618.618,0,0,1-.6.67c-.39,0-.4-.12-.69-1.08-.23.08-.48.15-1.07.32.02,2.07,0,3.13.03,4.41,0,.27.05,1.42.05,1.67,0,.23,0,.82-.67.82a.393.393,0,0,1-.42-.46c0-.69.12-5.22.13-6.21-.38.09-.85.21-1.92.42-.21.23-.22.26-.34.26s-.18-.11-.21-.21l-.32-1.27a4.558,4.558,0,0,0,1.4.22c.09,0,.9-.03,1.02-.04.99-1.47,2.26-3.7,2.25-4.62l1.29.84Zm-5.38-.15a3.581,3.581,0,0,1,1.56.48,9.616,9.616,0,0,0,.65-2.94l1.44.75a.248.248,0,0,1,.15.19c0,.15-.13.21-.66.42-.54.74-.74.96-1.37,1.71a1.394,1.394,0,0,1,.66,1.07.63.63,0,0,1-.57.69c-.38,0-.51-.32-.61-.54a4.8,4.8,0,0,0-1.29-1.73l.04-.11Zm3.46,5.79c1,.36,1.77,1.06,1.77,1.68a.576.576,0,0,1-.57.64c-.42,0-.5-.24-.72-1.05a3.09,3.09,0,0,0-.57-1.18l.09-.09Zm2.33.26a3.493,3.493,0,0,0-.75.06l-.21-.48c.55.05,1,.06,1.14.06h.46l.29-.34s.1-.12.2-.12a.511.511,0,0,1,.22.13l.6.57c.06.06.17.15.17.25,0,.12-.04.18-.5.34a7.615,7.615,0,0,1-3.51,3.84l-.03-.09a9.556,9.556,0,0,0,2.59-4.23h-.67Zm3.12-1.97.27.09c.1.03.33.12.33.27,0,.18-.27.33-.39.39a5.394,5.394,0,0,0,.87,2.06,5.809,5.809,0,0,0,1.62-2.04l1.04,1.04a.5.5,0,0,1,.08.19c0,.03-.02.19-.24.19-.05,0-.24-.01-.39-.03a21.551,21.551,0,0,1-2.01.8,6.142,6.142,0,0,0,3.63,2.44v.12a1.993,1.993,0,0,0-1.51.96,8.311,8.311,0,0,1-3.04-4.46c0,.56.09,3,.09,3.5,0,.36,0,1.39-1.5,1.67-.16-.48-.33-.95-1.54-1.46l.02-.12c.24.03,1.24.09,1.44.09.6,0,.62-.12.62-.57V170.6a7.682,7.682,0,0,0-.04-1.08h-1.2a.553.553,0,0,1-.6.62c-.33,0-.48-.12-.48-.39,0-.21.08-2.17.08-2.58a23.881,23.881,0,0,0-.13-2.98l1.21.64h.9a5.49,5.49,0,0,0,.14-1.24,3.445,3.445,0,0,0-.08-.73l1.41.45c.12.04.25.1.25.25,0,.2-.15.24-.54.31a10.19,10.19,0,0,1-.81.96h2.04l.41-.46a.49.49,0,0,1,.25-.16.386.386,0,0,1,.22.11l.71.52c.09.06.2.16.2.26,0,.13-.06.16-.55.52,0,.61.13,3.51.13,3.84a.629.629,0,0,1-.71.66c-.41,0-.41-.24-.39-.59h-1.77Zm-1.9-4.33v1.8h3.67v-1.8Zm3.67,3.97v-1.81h-3.67v1.81Z"/>
      <path id="パス_4215" data-name="パス 4215" d="M279.6,167.25h-2.01c-.01.78-.01,1.12-.01,1.2v1.92a16.461,16.461,0,0,0,1.74-.75l.06.11c-.32.27-1.26.88-1.79,1.21,0,.6.01,3.75.01,4.2.02.13.03.75.03.87a.77.77,0,0,1-.81.75.334.334,0,0,1-.38-.33c0-.15.07-.79.07-.93.02-.73.05-3.18.06-3.93a23.167,23.167,0,0,1-2.12,1.23c-.12.36-.22.55-.39.55-.11,0-.2-.12-.25-.24l-.65-1.34a2.346,2.346,0,0,0,.81-.09c.12-.03,2.46-.87,2.61-.93.02-1.68.03-2.71.03-3.51h-1.58a10.845,10.845,0,0,1-1.36,3.03l-.12-.04a19.036,19.036,0,0,0,.93-6.22l1.42.49a.236.236,0,0,1,.2.23c0,.15-.27.27-.46.32-.08.33-.18.78-.48,1.85h1.46c-.01-2.92-.01-3.06-.25-3.88l1.53.45c.13.04.22.1.22.21,0,.14-.09.19-.51.52-.02.42-.03,2.31-.03,2.7h.53l.4-.54c.09-.14.16-.18.24-.18s.15.04.27.15l.64.54a.312.312,0,0,1,.15.24c0,.11-.08.15-.23.15Zm7.34,1.29h-6.62a11.047,11.047,0,0,0-1.77.13l-.3-.58c1,.08,2.05.09,2.31.09h1.19c0-.45,0-1-.02-2.53h-.83a11.047,11.047,0,0,0-1.77.13l-.3-.6c.99.09,2.02.11,2.31.11h.57a7.5,7.5,0,0,0-.25-2.25l1.6.48c.12.03.24.12.24.23,0,.15-.25.31-.55.44v1.11h1.44l.53-.66c.09-.12.16-.18.24-.18s.15.06.27.15l.78.66a.435.435,0,0,1,.15.23c0,.12-.13.17-.22.17h-3.18v2.53h2.43l.52-.7c.09-.12.17-.2.24-.2a.5.5,0,0,1,.27.17l.79.7c.07.08.15.17.15.24,0,.1-.09.15-.22.15Zm-.18,2.71h-2.62c0,.59.04,3.21.04,3.75,0,.81-.06,1.41-1.65,1.86-.31-.84-.58-1.02-1.68-1.56v-.09c.67.05,1.21.09,1.67.09.64,0,.64-.1.64-1.05,0-.54-.03-1.89-.04-3H280.8a10.98,10.98,0,0,0-1.77.13l-.29-.6c.99.09,2.03.11,2.29.11h2.09a6.006,6.006,0,0,0-.22-2.01l1.35.29c.2.04.34.09.34.25s-.15.29-.43.4c-.01.23-.01.42-.01,1.07h1l.42-.65c.08-.12.16-.2.24-.2a.517.517,0,0,1,.3.17l.75.63c.1.09.15.16.15.24,0,.1-.09.16-.24.16Zm-5.59,2.82c-.38,0-.47-.21-.71-.77a3.139,3.139,0,0,0-.83-1.24l.06-.11c.74.14,2.04.56,2.04,1.49a.574.574,0,0,1-.57.63Z"/>
      <path id="パス_4216" data-name="パス 4216" d="M289.36,175.8a.659.659,0,0,1-.65-.64c0-.38.33-.63.8-.99a3.555,3.555,0,0,0,1.16-1.61h.09a5.8,5.8,0,0,1,.03.65c0,1.4-.59,2.59-1.42,2.59Zm11.38-8.62c-.2.14-.26.18-.33.24.03,1.51.05,2.1.07,2.7,0,.14.04.69.04.81a.639.639,0,0,1-.69.63c-.46,0-.46-.3-.46-.48v-.19h-6.95a10.594,10.594,0,0,0-1.77.13l-.29-.6c.95.08,1.89.11,2.29.11h6.71v-1.59h-6.72a9.737,9.737,0,0,0-1.77.14l-.3-.59c.93.07,1.86.09,2.31.09h6.48v-1.53h-8.23a12.367,12.367,0,0,1-2.1,1.36l-.04-.06a20.238,20.238,0,0,0,3.67-4.63,2.309,2.309,0,0,0,.21-.84l1.32.64a.326.326,0,0,1,.21.29c0,.16-.32.25-.55.31-.08.09-.23.27-.35.4h3.34l.54-.45c.09-.07.2-.17.25-.17a.769.769,0,0,1,.32.17l.71.56a.284.284,0,0,1,.15.23c0,.18-.12.19-.57.3-.18.05-.29.12-1.53.99-.25.18-.58.4-.79.54h3.25l.44-.42c.07-.07.18-.18.24-.18.08,0,.16.09.23.13l.64.51a.337.337,0,0,1,.16.24c0,.08-.06.14-.15.21Zm-7.56-2.29c-.21.23-1.41,1.56-1.63,1.8h4.02c.16-.23.87-1.31,1.11-1.8h-3.5Zm5.37,11.35c-.51.1-3.42.1-4.29.1-1.65,0-1.77-.31-1.77-1.74a12.857,12.857,0,0,0-.12-3.09l1.41.45c.09.03.24.12.24.21a.266.266,0,0,1-.12.18c-.04.04-.29.23-.33.27,0,.2-.03,2.21,0,2.44.03.27.33.29.69.29.67-.02,3.03.02,3.36-.1a.711.711,0,0,0,.45-.45,13.046,13.046,0,0,0,.45-1.69h.11a5.141,5.141,0,0,0,.57,1.88c.24.23.33.31.33.5s-.16.61-.97.76Zm-2.1-2.43c-.41,0-.48-.18-.84-1.05a3.483,3.483,0,0,0-.79-1.2l.06-.09c1.96.55,2.14,1.33,2.14,1.56C297.02,173.37,296.89,173.81,296.45,173.81Zm5.23,1.21c-.42,0-.46-.1-.88-1.05a4.663,4.663,0,0,0-1.04-1.67l.02-.03c.81.13,2.53,1.03,2.53,2.09a.629.629,0,0,1-.63.66Z"/>
      <path id="パス_4217" data-name="パス 4217" d="M307.23,171.41a17.381,17.381,0,0,0-.53,2.86c0,.16.08.89.08,1.04,0,.25-.03.55-.39.55-.62,0-1.59-1.38-1.59-4.42a36.645,36.645,0,0,1,.59-4.65,7.58,7.58,0,0,0,.09-1,2.037,2.037,0,0,0-.51-1.45.566.566,0,0,1,.27-.06c.54,0,1.51.84,1.51,1.42a2.145,2.145,0,0,1-.19.71,12.916,12.916,0,0,0-1.05,4.71c0,1.03.26,2.19.5,2.19.09,0,.17-.18.2-.28.17-.51.8-2.25,1.34-3.4l.12.03c-.09.42-.3,1.29-.42,1.77Zm7.21,3.15a15.1,15.1,0,0,1-3.67-.42,2.209,2.209,0,0,1-1.52-2.04,1.193,1.193,0,0,1,.15-.63c.34,1.14.62,2.01,3.45,2.01.3,0,1.75-.12,1.9-.12.53,0,1.16.23,1.16.65,0,.48-.53.56-1.47.56Zm-.12-7.93a6.99,6.99,0,0,0-2.9,1.11l-.09-.09c.23-.21,1.32-1.22,1.37-1.26s.04-.07.04-.12c0-.16-.46-.16-.55-.16a8.92,8.92,0,0,0-2.73.67,4.606,4.606,0,0,1,3.72-1.47c.93,0,2,.27,2,.8,0,.34-.31.43-.85.52Z"/>
      <path id="パス_4218" data-name="パス 4218" d="M329.79,175.49a10.041,10.041,0,0,1-4.86-4.35h-.15c0,1.06-.01,1.83.02,3.09,0,.25.04,1.4.04,1.62a.739.739,0,0,1-.81.85c-.38,0-.42-.23-.42-.47,0-.19.09-1.44.09-1.71.03-1.05.06-2.13.06-3.2-3.06,3.39-5,3.88-6.31,4.16l-.05-.12a15.984,15.984,0,0,0,5.1-4.23h-1.92a9.794,9.794,0,0,0-1.77.14l-.29-.6c.89.07,1.77.1,2.39.1v-1.98h-1.25a11.7,11.7,0,0,0-1.77.13l-.29-.58c1.02.08,2.1.09,2.29.09h1.01v-2.06a10.217,10.217,0,0,0-1.71.14l-.3-.6c.95.07,1.89.1,2.31.1h2.58v-1.34a33.03,33.03,0,0,1-4.26.12v-.14c1.95-.21,6-.94,6.77-1.66l1.12.81c.17.12.18.18.18.21,0,.18-.16.18-.24.18s-.38-.03-.48-.03c-.75.16-1.32.28-2.07.39v1.46h3.41l.52-.59c.09-.1.15-.18.24-.18a.528.528,0,0,1,.27.15l.71.59a.331.331,0,0,1,.16.23c0,.14-.12.16-.24.16h-2.14v2.06h1.44l.55-.66c.12-.15.17-.19.24-.19.09,0,.19.1.25.15l.78.67c.08.08.15.15.15.24,0,.13-.13.15-.22.15h-3.2v1.98h.79l.53-.62c.09-.11.15-.19.24-.19a.564.564,0,0,1,.27.15l.73.63a.316.316,0,0,1,.15.23c0,.15-.13.16-.22.16h-5.08a8.279,8.279,0,0,0,6.24,2.98v.09c-1.14.42-1.38.85-1.59,1.28Zm-7.89-9.1v2.06h1.86c.01-.68.01-1.37.01-2.06h-1.88Zm1.86,2.42H321.9v1.98h1.86Zm2.95,0h-1.92l-.02,1.98h1.94Zm0-2.42h-1.92v2.06h1.92Z"/>
      <path id="パス_4219" data-name="パス 4219" d="M337.8,175.5a5.961,5.961,0,0,1-2.13,1.32l-.03-.07A8.774,8.774,0,0,0,339,169.3c0-.99-.06-3.72-1.18-3.72-.6,0-1.02.62-1.16.81a10.669,10.669,0,0,0-1.59,4.96c0,.16.11.93.11,1.08,0,.17-.06.42-.36.42-.88,0-1.16-1.75-1.16-3.1a32.089,32.089,0,0,1,.53-4.34,4.309,4.309,0,0,0,.06-.57,1.547,1.547,0,0,0-.87-1.36,2.79,2.79,0,0,1,.67-.11,1.3,1.3,0,0,1,1.32,1.08,1.711,1.711,0,0,1-.18.66,10.849,10.849,0,0,0-.84,4.02c0,.23,0,1.08.15,1.08.09,0,.12-.07.14-.15.34-1.23,1.63-5.07,3.4-5.07,1.88,0,2.07,2.94,2.07,4.44,0,2.76-.63,4.55-2.31,6.07Z"/>
      <path id="パス_4220" data-name="パス 4220" d="M345.68,170c.01.95.09,4.33.09,4.96a1.575,1.575,0,0,1-1.5,1.77c-.15-.79-1.25-1.38-1.67-1.54v-.07c.36.04,1.14.09,1.53.09.57,0,.57-.02.57-.46v-4.1c-.94.59-1.04.66-1.33.84-.13.33-.17.45-.34.45-.08,0-.13-.06-.2-.19l-.66-1.35c.41.04.74.06,2.54-.63v-3.46h-.62a8.9,8.9,0,0,0-1.27.1l-.3-.54c.84.06,1.6.08,1.81.08h.38v-1.11a5.712,5.712,0,0,0-.42-1.88l1.62.56c.15.05.21.09.21.18,0,.11-.08.17-.43.51-.02.42-.02.56,0,1.74h.27l.27-.41c.07-.1.15-.19.22-.19a.457.457,0,0,1,.29.15l.42.42c.06.06.15.14.15.24,0,.13-.12.15-.22.15H345.7v3.04c.27-.11,1.45-.62,1.69-.72l.06.06a16.7,16.7,0,0,1-1.75,1.32Zm10.44,2.01h-4.91a5.627,5.627,0,0,0,4.89,3.24v.08a2.842,2.842,0,0,0-1.35,1.18,6.684,6.684,0,0,1-3.74-4.5h-.07a5.42,5.42,0,0,1-4.84,4.5v-.07a5.886,5.886,0,0,0,3.84-4.42H348.2a10.253,10.253,0,0,0-1.77.13l-.3-.6c.66.06.95.08,1.53.09-.01-2.23-.01-2.48-.03-4.63a4.391,4.391,0,0,1-.93.6l-.06-.03c.49-.56,2.76-3.3,2.61-4.59l1.29.51c.06.03.15.09.15.15,0,.13-.11.19-.45.34l-.21.27h1.65l.41-.35a.425.425,0,0,1,.25-.13.473.473,0,0,1,.24.1l.69.48a.259.259,0,0,1,.09.18c0,.21-.16.27-.56.39-.39.33-.51.45-1.65,1.5h2.09l.43-.4a.435.435,0,0,1,.25-.13.364.364,0,0,1,.23.09l.61.52a.241.241,0,0,1,.11.19c0,.1-.06.16-.5.52-.01.29,0,.5,0,2.48v1.95h.41l.36-.63c.03-.06.15-.18.23-.18a.41.41,0,0,1,.27.16l.57.6c.06.08.15.15.15.24,0,.15-.13.16-.24.16Zm-6.36-7.4a14.58,14.58,0,0,1-1.34,1.66l.23.15h2.22a11.171,11.171,0,0,0,.87-1.81Zm3.71,2.17h-1.48c0,.29.01,1.7.01,1.76a.214.214,0,0,0,.22.18c.32,0,.38-.18.53-.82h.09a1.5,1.5,0,0,0,.32.67.567.567,0,0,1,.21.39c0,.51-.66.61-1.16.61-.81,0-1.09-.21-1.09-.85,0-.3.03-1.65.03-1.94h-1.2l.55.08c.1.02.16.08.16.16,0,.12-.11.19-.21.24a3.14,3.14,0,0,1-1.83,2.68v-.07a4.177,4.177,0,0,0,.95-3.09h-1v4.86h1.44a6.081,6.081,0,0,0,.08-.98,2.234,2.234,0,0,0-.13-.87l1.45.44c.11.03.18.06.18.16,0,.15-.13.25-.42.45-.08.45-.09.58-.14.8h2.45v-4.86Z"/>
      <path id="パス_4221" data-name="パス 4221" d="M367.42,176.03a20.437,20.437,0,0,1-2.56-.19c-1.12-.34-1.29-1.12-1.52-2.31-.15-.76-.57-.98-1.06-.98-.66,0-.97.47-2.19,2.22a7.942,7.942,0,0,1-1.03,1.29.415.415,0,0,1-.3.11c-.25,0-.51-.21-.51-.67,0-.5.12-.6.98-1.32a30.731,30.731,0,0,0,2.95-3.07c.36-.4,2.21-2.42,2.24-2.48a.337.337,0,0,0,.04-.12c0-.15-.18-.15-.24-.15a11.177,11.177,0,0,0-2.65,1.05c-.42.3-.51.36-.74.36-.41,0-1.3-.62-1.3-1.23a1.592,1.592,0,0,1,.13-.54,1.291,1.291,0,0,0,1.05.63,16.255,16.255,0,0,0,3.27-.86c.44-.16.83-.3.84-.3.28,0,1.26.46,1.26.94,0,.27-.11.33-.53.62a20.037,20.037,0,0,0-3.58,3.21,3.214,3.214,0,0,1,.78-.09c1.2,0,1.39.81,1.55,1.44.3,1.29.46,1.58,1.56,1.58a7.523,7.523,0,0,0,1.73-.26,2.61,2.61,0,0,1,.78-.18c.38,0,.84.28.84.65,0,.61-1.25.66-1.77.66Zm-2.47-10.05c-.21,0-1.07-.2-1.25-.2a5.421,5.421,0,0,0-1.41.29.938.938,0,0,1-.24.06l-.04-.09c.25-.15.65-.39.87-.56.25-.18.35-.25.35-.39,0-.19-.12-.27-.53-.54-.95-.65-1.12-1.01-1.18-1.74a5.348,5.348,0,0,0,2.05,1.32c.76.3,1.74.66,1.74,1.41a.385.385,0,0,1-.36.43Z"/>
    </g>
    <g id="グループ_209" data-name="グループ 209" transform="translate(0 39.11)">
      <path id="パス_4182" data-name="パス 4182" d="M22.52,104.58H37.43v1.81H24.33V145.7H22.52Z"/>
      <path id="パス_4183" data-name="パス 4183" d="M55.68,127.72c-3.8,3.8-4.2,4.16-8.04,7.64a2.9,2.9,0,0,0-.5.5c.05.54.09,1.67-.68,1.67a.843.843,0,0,1-.63-.41l-2.62-3.3c1.22-.09,1.81-.23,3.98-1.45,2.39-1.31,7.23-4.29,8.72-5.33l.14.32-.36.36Zm5.24-17.26c-.13,5.29-.04,22.82.05,26.34.09,2.44,0,3.66-.81,4.79a5.969,5.969,0,0,1-4.52,2.44c-.36-1.04-.81-2.17-4.16-3.75l.09-.32a21.286,21.286,0,0,0,2.98.18c3.21,0,3.89-.09,3.89-2.08,0-1.67.14-14.41.14-19.65,0-2.67-.05-6.69-.09-8.9H50.36a38.673,38.673,0,0,0-5.83.54l-1.04-1.94c3.39.27,6.64.32,7.5.32h6.42l1.58-1.27c.27-.23.45-.41.72-.41a2.533,2.533,0,0,1,.81.45l1.45,1.04c.36.32.59.54.59.81,0,.54-1.13,1.13-1.63,1.4ZM50.94,122.3c-.86,0-1.04-.32-2.3-3.03a13.014,13.014,0,0,0-2.49-3.71l.09-.23c3.98,1.04,6.19,3.71,6.19,5.2a1.668,1.668,0,0,1-1.49,1.76Zm20.65,8.63c-1.08.99-2.85,2.58-4.29,3.98.09.54.18,1.58-.63,1.58-.23,0-.36-.18-.63-.5l-2.48-3.25a10.205,10.205,0,0,0,3.93-1.27c2.8-1.4,7.05-3.89,8.09-4.61l.18.23a55.191,55.191,0,0,1-4.16,3.84Zm8.67-20.47V129.3c0,1.85.09,6.42.09,8.04,0,.45.05,1.08.05,1.54a4.415,4.415,0,0,1-1.76,3.93,7.5,7.5,0,0,1-3.61,1.67c-.45-1.31-.95-1.85-4.07-3.89l.05-.18c.45.04,2.03.04,3.43.04h2.3c1.04,0,1.04-1.31,1.04-2.08.09-6.05.18-11.84.18-20.24,0-1.22-.04-7.73-.04-8.54h-7a36.516,36.516,0,0,0-5.78.5l-1.08-1.94c3.39.27,6.69.36,7.5.36H77.3l1.08-1.13c.36-.36.45-.45.68-.45.18,0,.41.18.59.27l1.67,1.26a.753.753,0,0,1,.36.59c0,.54-1.17,1.26-1.4,1.4Zm-8.99,11.11c-.63,0-.81-.36-1.58-1.63-2.3-3.93-3.03-4.56-3.61-5.11l.13-.18c2.44.63,6.64,2.66,6.64,5.15a1.708,1.708,0,0,1-1.58,1.76Z"/>
      <path id="パス_4184" data-name="パス 4184" d="M123.9,111.14c-.09,2.35-.14,4.34-.14,8.09s.32,19.16.54,22c0,.18.04.45.04.63,0,1.49-1.63,1.9-2.3,1.9-.9,0-.9-.18-.86-2.21H93.85c.05,1.22.09,2.8-1.81,2.8-1.04,0-1.08-.59-1.08-1.22,0-.68.41-19.97.41-23.72a88.546,88.546,0,0,0-.68-12.83l3.57,2.17h26.57l1.09-1.08c.45-.45.5-.5.68-.5a1.331,1.331,0,0,1,.72.36l2.08,1.49c.32.23.59.45.59.77,0,.54-.63.81-2.08,1.36Zm-17.58-1.31H93.85v14.46h12.47Zm0,15.54H93.85v15.09h12.47V125.37Zm14.91-15.54H108.67v14.46h12.56Zm0,15.54H108.67v15.09h12.56V125.37Z"/>
      <path id="パス_4185" data-name="パス 4185" d="M171.74,143.21H138.98a39.568,39.568,0,0,0-5.83.54l-1.04-1.94c2.35.18,5.15.32,7.5.32h11.3V131.51h-7.64a37.048,37.048,0,0,0-5.83.5l-1.04-1.94c2.35.18,5.15.36,7.5.36h17.89l1.72-1.9c.45-.5.5-.54.72-.54s.63.32.81.45l2.35,1.9c.13.13.45.36.45.68,0,.45-.5.5-.68.5H153.43v10.62h12.74l1.94-1.94c.5-.5.5-.54.68-.54a1.857,1.857,0,0,1,.86.5l2.3,1.94a.934.934,0,0,1,.45.68c0,.45-.45.45-.68.45Zm-1.45-19.29c-1.99.45-7.86.41-10.35.41-4.2,0-5.29-.23-5.38-2.17-.04-.63-.09-8.99-.09-10.26H138.75a5.875,5.875,0,0,1-.99,2.8,4.023,4.023,0,0,1-2.98,1.85,1.387,1.387,0,0,1-1.49-1.31c0-1.13.81-1.63,2.53-2.67a4.492,4.492,0,0,0,2.39-3.98h.5a5.748,5.748,0,0,1,.18,2.21h12.2a19.738,19.738,0,0,0-.59-6.42l3.62.9c.68.18.95.23.95.72a.772.772,0,0,1-.45.68,9.354,9.354,0,0,1-1.04.54v3.57h11.57l1.54-1.27c.36-.23.54-.41.9-.41a1.211,1.211,0,0,1,.72.36l2.49,2.12c.41.32.5.45.5.77,0,1.08-.99,1.08-2.58,1.04-.68.41-3.52,2.49-4.16,2.85l-.18-.23a18.736,18.736,0,0,0,1.13-4.16h-8.59v4.97c0,3.84,0,4.29.18,4.65.09.27.41.32.63.36a26.584,26.584,0,0,0,4.16.27,21.268,21.268,0,0,0,5.69-.59c1.04-.36,1.72-1.22,2.58-5.24h.32c.14.54.72,3.07.86,3.57.14.45.36.63.86,1.04a1.358,1.358,0,0,1,.54,1.04c0,.9-1.36,1.72-2.44,1.94Zm-21.91-8.27c-2.71,5.24-5.56,9.26-14.73,11.25l-.18-.41a19.454,19.454,0,0,0,12.92-14.41l3.25,1.9c.41.23.63.36.63.72,0,.68-.18.68-1.9.95Z"/>
      <path id="パス_4186" data-name="パス 4186" d="M181.09,121.98c-.77,0-.9-.27-1.58-1.45a11.62,11.62,0,0,0-2.98-3.79l.05-.27c.68.04,5.92.77,5.92,3.84a1.509,1.509,0,0,1-1.4,1.67Zm3.52,2.12c-.54,1.9-2.58,8.86-2.58,10.21a26.478,26.478,0,0,0,.45,3.57c.81,3.25.95,3.61.95,4.47,0,1.76-.99,2.3-1.76,2.3-1.67,0-1.67-1.94-1.67-2.8,0-.63.14-3.3.14-3.84,0-3.3-1.13-3.98-2.98-4.92v-.27a3.742,3.742,0,0,0,2.76-1.04c.95-1.04,6.28-15.9,6.64-17.39l.36.14a81.8,81.8,0,0,1-2.3,9.58Zm-.05-12.92c-.99,0-1.31-.68-2.03-2.35a19.38,19.38,0,0,0-2.03-3.79l.09-.23c2.08.81,5.56,2.53,5.56,4.61a1.618,1.618,0,0,1-1.58,1.76Zm30.45,21.14c-4.92-2.03-9.58-7.54-11.02-11.39H197.3c-1.9,3.52-7,10.35-12.56,13.42l-.09-.23c2.76-2.21,8.13-9.4,9.76-13.19a37.3,37.3,0,0,0-6.05.5l-1.08-1.94c2.71.23,5.06.32,5.69.32.23,0,1.36.04,1.63.04v-7.68a29.211,29.211,0,0,0-4.92.5l-1.04-1.94c3.12.23,5.51.32,5.96.32-.09-4.7-.14-5.2-.68-6.82l3.57,1.08c.23.09.68.23.68.54,0,.36-.27.59-1.22,1.31,0,1.31,0,2.21-.04,3.89h6.55c0-1.04-.09-4.07-.23-4.92a12.391,12.391,0,0,0-.5-1.72l3.66.95c.14.04.77.23.77.59,0,.5-.86,1.04-1.4,1.36v3.75h3.43l1.22-1.58c.23-.23.45-.54.68-.54.32,0,.68.36.86.5l1.63,1.54a.92.92,0,0,1,.5.72c0,.45-.5.45-.68.45h-7.64v2.21c0,1.31-.05,4.34,0,5.51h5.87l1.4-1.76c.18-.27.41-.59.68-.59.23,0,.63.32.81.45l1.81,1.81a1.062,1.062,0,0,1,.45.68c0,.5-.5.5-.72.5H204.58c.9,1.76,5.56,7.45,13.83,8.18v.27c-1.85.9-2.44,1.17-3.39,2.94Zm-2.53,11.48c-2.08.63-3.66.86-8.09.86-8.59,0-9.17-.27-9.99-1.08a2.509,2.509,0,0,1-.54-1.99v-6.14a11.466,11.466,0,0,0-.23-2.44l3.79,1.54h5.74v-5.74h-3.39a36.73,36.73,0,0,0-5.83.5l-1.08-1.94c3.39.27,6.69.36,7.54.36h2.3l.5-.54c.45-.45.54-.5.72-.5.14,0,.36.18.68.41l1.27.95c.45.36.59.45.59.72,0,.45-.36.68-1.04,1.13,0,.81.18,4.56.18,5.33a.971.971,0,0,1-.54.9,4.108,4.108,0,0,1-1.36.45c-.68,0-.59-.54-.54-.95h-6.87v4.97c0,1.67,0,1.76,4.92,1.76,1.54,0,7.64-.05,8.54-.86.5-.41,1.72-2.53,2.39-6.23l.23.04c.32,2.62.63,4.83,1.04,5.38a6.9,6.9,0,0,0,.72.81.711.711,0,0,1,.27.54c0,.45-.54,1.31-1.94,1.76Zm-8.99-29.32v-2.35h-6.6c0,.77-.14,4.52-.14,5.33,0,.63.05,1.76.09,2.39h6.64v-5.38Z"/>
      <path id="パス_4187" data-name="パス 4187" d="M241.01,113.37h-7.27c1.03.77,2.79,2.41,2.79,3.74a1.554,1.554,0,0,1-1.46,1.55c-.86,0-.99-.52-1.25-2.11a9.019,9.019,0,0,0-.86-3.18h-2.75a24.374,24.374,0,0,1-7.05,7.14l-.17-.17a55.684,55.684,0,0,0,6.24-9.07c1.76-3.31,1.72-4,1.59-5.25l3.53,1.81c.34.17.47.3.47.52,0,.34-.39.52-.52.56-.21.09-1.16.43-1.38.52-.9,1.38-.99,1.5-1.98,2.92h6.15l.95-1.29c.3-.43.43-.6.65-.6s.34.09.82.47l1.72,1.38a.825.825,0,0,1,.43.65c0,.39-.34.43-.65.43Zm17.2,19.13c-1.5,6.45-1.94,8.3-7.4,9.42a2.877,2.877,0,0,0-1.03-1.94,28.447,28.447,0,0,0-2.19-1.98l.09-.21a17.882,17.882,0,0,0,4.3.64c1.25,0,2.28-.26,2.97-2.32a28.093,28.093,0,0,0,.86-4.43H242.39c0,2.45.04,4.86.13,8.34.04,1.16.17,3.05.17,4.26s-1.59,1.51-1.85,1.51c-.69,0-.86-.47-.86-1.03,0-.34.09-2.11.09-2.54.09-3.22.13-7.14.17-9.72-3.4,4.26-8.6,8.56-16.47,11.87v-.26a59.827,59.827,0,0,0,14.06-12.43h-9.55c-.47,1.81-.73,2.62-2.15,2.62-.43,0-.9-.17-.9-.77a5.865,5.865,0,0,1,.56-1.72c.39-1.03.73-2.19,1.08-3.44a25.49,25.49,0,0,0,.9-5.07l2.88,1.63h9.67v-4.08h-6.41a33.9,33.9,0,0,0-5.5.47l-1.03-1.85c2.24.17,4.9.34,7.14.34h17.63l.95-1.08c.09-.09.21-.26.39-.26.13,0,.34.17.56.3l1.81,1.25c.17.13.39.3.39.52,0,.43-.47.73-1.55,1.25.04.65.26,3.78.26,3.87a1.686,1.686,0,0,1-1.68,1.72c-.95,0-.86-.73-.77-1.42H242.4v4.69h13.16l1.08-1.33c.17-.22.34-.39.56-.39a1.357,1.357,0,0,1,.69.39l1.85,1.59a.612.612,0,0,1,.21.47c0,.43-.39.65-1.72,1.12Zm-28.38-6.54c-.04.26-.39,1.46-.43,1.68-.52,1.85-.56,2.02-.82,3.01h11.7c.04-.73.04-4.04.04-4.69H229.83Zm30.01-12.17H247.76c2.32,1.16,2.58,1.29,3.14,1.94a2.469,2.469,0,0,1,.73,1.63,1.246,1.246,0,0,1-1.29,1.29c-.9,0-1.03-.47-1.63-2.24a7.633,7.633,0,0,0-1.46-2.62h-2.58a20.825,20.825,0,0,1-4.69,5.07l-.13-.13c1.16-1.63,5.29-8.26,5.29-11.91a2.954,2.954,0,0,0-.09-.69l3.7,1.59c.3.13.47.3.47.56,0,.3-.3.47-.56.6-.39.17-.99.43-1.46.6-.47.86-.95,1.81-1.85,3.27h10.02l1.16-1.72c.21-.3.34-.56.64-.56.13,0,.3-.04.82.43l2.06,1.76c.21.22.43.39.43.69,0,.39-.34.43-.64.43Zm-7.35,7.05H242.43c0,.47-.04,3.44-.04,4.08H252.5v-4.08Z"/>
      <path id="パス_4188" data-name="パス 4188" d="M283.28,134.05c0,4.9-4.26,9.07-10.23,9.07-5.29,0-8.6-3.31-8.6-6.28,0-1.38.69-2.54,2.11-2.54a2.141,2.141,0,0,1,2.06,2.32c0,.47-.39,1.72-.39,2.06,0,1.08,1.55,2.97,4.6,2.97,3.83,0,6.92-3.05,6.92-7.78,0-4.43-2.62-7.61-6.97-7.61-.21,0-1.38.13-1.63.13s-1.16,0-1.16-.9c0-.65.52-.77,1.12-.77.21,0,1.38.13,1.63.13a6.652,6.652,0,0,0,6.36-6.97c0-4.17-2.88-6.28-5.72-6.28-2.58,0-4.04,1.63-4.04,2.92,0,.21.13,1.29.13,1.55,0,.99-.47,2.54-2.02,2.54-1.25,0-1.76-1.16-1.76-2.28,0-3.18,3.7-6.19,8.08-6.19,4.82,0,8.73,3.05,8.73,7.35,0,3.1-2.45,6.75-7.52,7.95,6.41.86,8.3,5.63,8.3,8.6Z"/>
      <path id="パス_4189" data-name="パス 4189" d="M286.37,128.2c7.09-6.88,10.75-14.71,10.75-15.87,0-1.38-1.68-2.11-2.45-2.45a4.418,4.418,0,0,1,1.59-.3c2.67,0,4.6,2.19,4.6,2.97,0,.52-.26.73-1.12,1.38a8.175,8.175,0,0,0-1.16,1.68,8.355,8.355,0,0,0,1.89.13,44.05,44.05,0,0,0,7.05-.86,4.679,4.679,0,0,0,1.46-.86c.34-.26.47-.3.6-.3.34,0,1.16.73,1.55,1.08,1.38,1.25,1.55,1.42,1.55,1.76,0,.47-.43.65-.99.9-.95.39-1.38.86-2.49,3.27a50.536,50.536,0,0,1-11.05,15.78,31.148,31.148,0,0,1-11.52,6.41l-.13-.34c9.93-6.15,13.42-10.79,15.14-13.11-.52.04-.99-.34-1.85-1.29-2.49-2.79-3.35-3.78-6.23-5.33a21.251,21.251,0,0,1-7.05,5.72l-.13-.34Zm21.97-11.78c-1.2.09-7.05.95-8.38.95a6.224,6.224,0,0,1-2.15-.56c-1.03,1.46-2.45,3.61-3.05,4.43a12.448,12.448,0,0,1-.82,1.07c2.75.6,8.6,2.11,8.43,6.11a55.184,55.184,0,0,0,5.98-12Z"/>
      <path id="パス_4190" data-name="パス 4190" d="M321.29,124.8c.6.17,1.03.17,4.82.17.77,0,15.01-.09,18.02-.43a3.634,3.634,0,0,0,1.38-.3,2.431,2.431,0,0,1,.82-.13c.21,0,4,.43,4,1.68,0,1.03-1.12,1.03-2.28,1.03-.64,0-4.69-.26-5.59-.26-2.58,0-14.75.21-16.86.43a12.074,12.074,0,0,0-2.97.6,4.105,4.105,0,0,1-1.33.39c-.3,0-.56,0-1.59-1.25a4.74,4.74,0,0,1-1.25-3.1,3.3,3.3,0,0,1,.34-1.68,4.2,4.2,0,0,0,2.49,2.84Z"/>
      <path id="パス_4191" data-name="パス 4191" d="M373.15,136.89a5.982,5.982,0,0,1,3.05,4.17,1.152,1.152,0,0,1-1.2,1.16c-.73,0-1.25-.52-2.79-1.98-4.13-3.91-10.32-6.36-17.59-8.34a36.322,36.322,0,0,1,18.53,4.99Zm-13.89-26.06c1.5,0,8.81.56,12.81,2.88a4.02,4.02,0,0,1,2.11,2.84.906.906,0,0,1-.9,1.03,5.577,5.577,0,0,1-2.02-.95c-4.43-2.97-5.68-3.53-13.93-5.72a17.788,17.788,0,0,1,1.93-.09Zm.77,10.75a28.813,28.813,0,0,1,11.05,2.28,3.655,3.655,0,0,1,2.24,2.84.945.945,0,0,1-1.03,1.03c-.64,0-1.29-.52-2.45-1.38-1.72-1.29-4.34-2.45-11.35-4.69a10.585,10.585,0,0,1,1.55-.09Z"/>
      <path id="パス_4192" data-name="パス 4192" d="M386.09,144.37c8.73-5.25,9.89-14.23,10.36-22.1-2.41.3-9.29,1.2-10.92,2.15-.73.39-.86.47-1.33.47a4.477,4.477,0,0,1-3.66-4.47,7.8,7.8,0,0,1,.13-1.16c1.16,2.02,1.89,2.71,4.08,2.71.86,0,9.93-.99,11.78-1.16.09-1.16.13-2.32.13-3.53,0-5.76-.6-5.98-3.78-6.88a5.44,5.44,0,0,1,2.58-.77c1.07,0,4.47.99,4.47,2.28,0,.34-.04.47-.47,1.12a4.961,4.961,0,0,0-.34,1.72c-.17,3.05-.17,3.35-.3,5.89,1.38-.09,7.57-.34,8.82-.56.26-.04,1.55-.43,1.81-.43a10.868,10.868,0,0,1,3.57.99,1.485,1.485,0,0,1,.65,1.16,1.06,1.06,0,0,1-1.2,1.08,2.987,2.987,0,0,1-.64-.04c-5.33-.99-5.72-1.03-8.26-1.03-2.32,0-4.09.17-4.82.21-.39,7.27-1.12,18.83-12.51,22.62l-.13-.26Z"/>
      <path id="パス_4193" data-name="パス 4193" d="M417.7,141.01a23.772,23.772,0,0,0,6.02-8.21,27.79,27.79,0,0,0,2.24-12.34c0-3.53,0-3.96-3.05-4.64a3.044,3.044,0,0,1,2.15-1.08c1.33,0,3.74,1.12,3.74,2.06,0,.26-.3,1.38-.34,1.63-.04.64-.09,3.53-.13,4.08-.26,4.17-.86,9.16-4.43,13.89a14.793,14.793,0,0,1-5.98,4.9l-.22-.3Zm35-19.95c-2.28,5.98-7.09,10.62-12,14.53-.47.39-2.79,1.94-3.14,2.37-1.08,1.42-1.2,1.59-1.63,1.59-.82,0-2.45-3.1-2.45-3.53,0-.26.39-1.46.43-1.68.3-1.55.34-3.87.34-9.63,0-1.81,0-8.38-.21-9.85-.13-.95-.34-1.5-2.88-2.54a3.963,3.963,0,0,1,2.02-.77,7.371,7.371,0,0,1,3.74,1.81,1.094,1.094,0,0,1,.43.86,13.136,13.136,0,0,1-.39,1.5,17.15,17.15,0,0,0-.47,3.18c-.13,2.84-.21,12.25-.21,15.39,0,.65,0,.73.13.73.52,0,8.43-3.87,16-14.23l.3.26Z"/>
      <path id="パス_4194" data-name="パス 4194" d="M471.23,145.34H456.32v-1.81h13.1V104.22h1.81Z"/>
      <path id="パス_4195" data-name="パス 4195" d="M478.94,142.09c-.69,0-.98-.47-.98-1.08a6.094,6.094,0,0,1,.72-2.31,6.963,6.963,0,0,0,.61-3.25h.36c.04.14.11.33.65,1.88a5.492,5.492,0,0,1,.33,1.92c0,.33,0,2.85-1.7,2.85Zm13.33-10.77a46.521,46.521,0,0,1-2.1,10.12c-.51,1.26-1.26,2.17-3.61,3.11a5.553,5.553,0,0,0-2.78-2.96v-.25c1.01.18,3,.29,3.14.29.76,0,1.26-.04,1.77-1.41a32.016,32.016,0,0,0,1.59-9.5h-8.74c.14,1.34-.83,1.59-1.19,1.59-.83,0-.83-.61-.76-1.55.29-2.89.14-14.81.11-15.18a11.11,11.11,0,0,0-.29-2.24l2.46,1.19h7.33l.8-.83c.4-.43.47-.43.61-.43s.18.04.65.36l1.19.83c.11.11.36.29.36.54,0,.36-.33.4-.54.4h-5.35v4.23h2.28l.65-.65c.4-.4.43-.47.61-.47.14,0,.22.04.61.4l.87.65c.14.14.36.33.36.54,0,.36-.33.4-.54.4h-4.84v4.3h2.42l.69-.76c.36-.4.4-.43.58-.43a1.1,1.1,0,0,1,.61.36l.76.76c.33.33.33.47.33.54,0,.33-.29.4-.54.4h-4.84v4.19h2.89l.79-.83c.36-.4.4-.43.58-.43s.18,0,.65.43l1.08,1.01a.7.7,0,0,1,.29.51c0,.43-.51.61-.94.79Zm-7.12-15.93H481.5v4.23h3.65Zm0,5.09H481.5v4.3h3.65Zm0,5.17H481.5v4.19h3.65Zm-1.92,14.85c-.94,0-.94-.61-1.01-3.04a6.242,6.242,0,0,0-.51-2.85l.18-.11c.22.29,1.34,1.48,1.55,1.77a5.922,5.922,0,0,1,1.05,2.67,1.43,1.43,0,0,1-1.26,1.55Zm3.07-2.46c-.76,0-.87-.54-1.01-1.7a10.4,10.4,0,0,0-.94-3.18l.14-.11c.29.33,1.7,1.48,1.91,1.77a3.176,3.176,0,0,1,.94,1.99c0,.36-.22,1.23-1.05,1.23Zm2.13-2.75c-.69,0-.83-.4-1.19-1.73a5.03,5.03,0,0,0-.79-1.59l.29-.14c1.73.98,2.57,1.45,2.57,2.49a.909.909,0,0,1-.87.98Zm20.67,8.85a21.793,21.793,0,0,1-5.46-8.27,29.527,29.527,0,0,1-1.73-10.01h-4.16c-.22,5.31-.33,8.24-2.1,12.29a14.567,14.567,0,0,1-4.73,6.4l-.29-.18a16.183,16.183,0,0,0,3.25-5.78c1.26-3.61,1.95-6.14,1.95-18.9a31.44,31.44,0,0,0-.22-4.01c0-.33-.33-1.77-.36-2.1l2.89,1.37h8.06l1.08-1.08c.07-.07.33-.33.51-.33.14,0,.18.04.47.33l1.3,1.23a.62.62,0,0,1,.29.47c0,.18-.11.25-.36.43-.14.07-.79.54-.9.61,0,1.92-.04,5.02.07,7.73,0,.36.11,1.91.11,2.28a1.268,1.268,0,0,1-1.26,1.3c-1.05,0-.98-.94-.9-2.06h-4.12c.61,10.33,7.55,15.46,9.76,16.4v.25a5.718,5.718,0,0,0-3.14,1.63Zm-2.49-28.33h-8.85c.14,1.95.07,6.97.04,9.18h8.82v-9.18Z"/>
      <line id="線_100" data-name="線 100" x2="361.23" transform="translate(533.92 129.1)" fill="none" stroke="#000" stroke-miterlimit="10" stroke-width="1"/>
      <g id="グループ_207" data-name="グループ 207">
        <path id="パス_4222" data-name="パス 4222" d="M927.342,242.058a9.826,9.826,0,0,1,3.595,7.829c0,6.51-5.342,11.164-12.332,11.164-5.712,0-10.535-3.225-10.535-7.459a3.054,3.054,0,0,1,3.016-3.385,2.6,2.6,0,0,1,2.6,2.646,4.4,4.4,0,0,1-.32,1.7,3.67,3.67,0,0,0-.16,1.218c0,2.007,2.277,3.495,4.763,3.495,4.074,0,8.2-4.024,8.2-9.366s-4.024-9.686-8.258-9.686c-.32,0-1.8.21-2.117.21a1.05,1.05,0,0,1-1.168-1.108,1.2,1.2,0,0,1,1.218-1.218c.32,0,1.907.32,2.277.32,4.444,0,7.25-3.964,7.25-8.258s-2.486-7.938-6.67-7.938c-2.806,0-4.284,2.007-4.284,3.545a4.411,4.411,0,0,0,.16.789,5.021,5.021,0,0,1,.16,1.268,2.8,2.8,0,0,1-2.7,2.916,2.743,2.743,0,0,1-2.646-2.916c0-2.906,3.385-7.409,10.155-7.409s10.585,4.234,10.585,8.887a9.187,9.187,0,0,1-1.957,5.4,12.569,12.569,0,0,1-6.72,4.493,14.1,14.1,0,0,1,5.871,2.856Z" transform="translate(-0.038 -112.06)" fill="#1c2c5a"/>
        <path id="パス_4223" data-name="パス 4223" d="M944.746,236.826a8.936,8.936,0,0,1,4.6-1.378c5.242,0,9.476,5.292,9.476,11.693,0,7.359-5.242,13.92-11.323,13.92s-12.172-6.83-12.172-18.253c0-12.222,6.88-22.387,14.978-22.387,3.545,0,6.031,2.117,6.031,4.653a2.646,2.646,0,0,1-2.7,2.756c-1.058,0-2.806-.689-2.906-3.7-.05-1.168-.16-1.907-1.588-1.907a5.429,5.429,0,0,0-3.864,1.907c-4.713,5.182-4.973,12.961-5.182,17.724a13.249,13.249,0,0,1,4.653-5.033ZM943,256.407a5.237,5.237,0,0,0,4.284,2.856c2.806,0,6.77-2.916,6.77-11.643,0-2.377-.579-9.786-6.031-9.786-2.007,0-5.4,1.478-7.889,7.2.21,2.906.639,7.988,2.856,11.373Z" transform="translate(-0.078 -112.06)" fill="#1c2c5a"/>
        <path id="パス_4224" data-name="パス 4224" d="M973,235.614a27.97,27.97,0,0,1-10.035,11l-.16-.23c4.533-5.152,7.089-9.676,7.838-11.853a11.031,11.031,0,0,0,.519-2.077l2.786,1.877c.16.1.419.29.419.519,0,.389-.839.619-1.358.749Zm11.753,10.135c-.32,11.653-.969,14.019-6.8,14.539a4.675,4.675,0,0,0-2.426-3.565l.03-.23a20.383,20.383,0,0,0,3.755.549c1.557,0,2.167-.359,2.656-3.305a66.849,66.849,0,0,0,.489-9.326h-6.54c-.19,5.083-2.367,13.86-12.562,15.737l-.06-.26c6.57-3.045,9.906-7.928,10.235-15.477h-.939a20.614,20.614,0,0,0-3.824.32l-.619-1.3c2.007.16,3.984.19,4.953.19h9.167l.879-.779c.2-.19.39-.359.579-.359.16,0,.32.16.449.29l1.3,1.428a.863.863,0,0,1,.29.519c0,.29-.1.359-1.009,1Zm5.891-.03c-3.465-1.488-7.319-4.983-9.746-12.3h-2.586a15.746,15.746,0,0,0-2.716.19l-.419-1.128c1.458.13,2.886.16,3.525.16h1.618l1.039-1.038c.289-.29.419-.359.579-.359.19,0,.319.16.549.359l1.2,1.168a.581.581,0,0,1,.259.489c0,.649-1.488.909-2.077,1,1.558,4.174,6.93,8.318,11.883,8.677l.03.32a5.355,5.355,0,0,0-3.145,2.456Z" transform="translate(-0.118 -112.076)" fill="#1c2c5a"/>
        <path id="パス_4225" data-name="パス 4225" d="M1008.409,261.324a19.838,19.838,0,0,1,0-31.334l.29.449a21.9,21.9,0,0,0,0,30.435Z" transform="translate(-0.174 -112.074)" fill="#1c2c5a"/>
        <path id="パス_4226" data-name="パス 4226" d="M1024.223,246.951a6.022,6.022,0,0,1,2.207,4.793c0,3.984-3.275,6.83-7.549,6.83-3.495,0-6.44-1.977-6.44-4.563a1.871,1.871,0,0,1,1.847-2.077,1.587,1.587,0,0,1,1.588,1.618,2.826,2.826,0,0,1-.19,1.038,2.421,2.421,0,0,0-.1.749c0,1.228,1.388,2.137,2.916,2.137,2.5,0,5.023-2.456,5.023-5.732s-2.457-5.921-5.053-5.921c-.2,0-1.1.13-1.3.13a.633.633,0,0,1-.709-.679.736.736,0,0,1,.749-.749c.19,0,1.168.19,1.388.19,2.716,0,4.433-2.426,4.433-5.053s-1.518-4.853-4.074-4.853a2.428,2.428,0,0,0-2.626,2.167,3.059,3.059,0,0,0,.1.489,3.476,3.476,0,0,1,.1.779,1.707,1.707,0,0,1-1.648,1.777,1.674,1.674,0,0,1-1.618-1.777c0-1.777,2.077-4.533,6.221-4.533s6.481,2.586,6.481,5.442a5.605,5.605,0,0,1-1.2,3.305,7.752,7.752,0,0,1-4.114,2.756,8.706,8.706,0,0,1,3.595,1.747Z" transform="translate(-0.191 -112.079)" fill="#1c2c5a"/>
        <path id="パス_4227" data-name="パス 4227" d="M1034.872,243.745a5.491,5.491,0,0,1,2.815-.839c3.206,0,5.792,3.235,5.792,7.159,0,4.5-3.205,8.518-6.93,8.518s-7.449-4.174-7.449-11.174c0-7.479,4.2-13.7,9.167-13.7,2.167,0,3.695,1.3,3.695,2.846a1.621,1.621,0,0,1-1.648,1.688c-.649,0-1.717-.419-1.777-2.267-.03-.709-.1-1.168-.969-1.168a3.361,3.361,0,0,0-2.367,1.168c-2.886,3.175-3.046,7.928-3.175,10.844A8.152,8.152,0,0,1,1034.872,243.745Zm-1.068,11.982a3.187,3.187,0,0,0,2.626,1.747c1.717,0,4.144-1.777,4.144-7.12,0-1.458-.359-5.991-3.694-5.991-1.228,0-3.305.909-4.823,4.4C1032.186,250.545,1032.445,253.661,1033.8,255.728Z" transform="translate(-0.215 -112.08)" fill="#1c2c5a"/>
        <path id="パス_4228" data-name="パス 4228" d="M1056.655,235.614a27.966,27.966,0,0,1-10.035,11l-.16-.23c4.534-5.152,7.089-9.676,7.839-11.853a11.041,11.041,0,0,0,.519-2.077l2.786,1.877c.16.1.419.29.419.519,0,.389-.839.619-1.358.749Zm11.753,10.135c-.319,11.653-.969,14.019-6.8,14.539a4.675,4.675,0,0,0-2.426-3.565l.03-.23a20.382,20.382,0,0,0,3.755.549c1.558,0,2.167-.359,2.656-3.305a66.885,66.885,0,0,0,.489-9.326h-6.54c-.19,5.083-2.366,13.86-12.562,15.737l-.06-.26c6.57-3.045,9.905-7.928,10.235-15.477h-.938a20.613,20.613,0,0,0-3.824.32l-.619-1.3c2.007.16,3.984.19,4.953.19h9.167l.878-.779c.2-.19.39-.359.579-.359.16,0,.319.16.449.29l1.3,1.428a.863.863,0,0,1,.29.519c0,.29-.1.359-1.009,1Zm5.891-.03c-3.465-1.488-7.319-4.983-9.746-12.3h-2.586a15.737,15.737,0,0,0-2.716.19l-.42-1.128c1.458.13,2.886.16,3.525.16h1.618l1.038-1.038c.29-.29.42-.359.579-.359.19,0,.32.16.549.359l1.2,1.168a.581.581,0,0,1,.26.489c0,.649-1.488.909-2.077,1,1.558,4.174,6.929,8.318,11.883,8.677l.03.32a5.355,5.355,0,0,0-3.146,2.456Z" transform="translate(-0.241 -112.076)" fill="#1c2c5a"/>
        <path id="パス_4229" data-name="パス 4229" d="M1080.41,261.324l-.29-.449a21.9,21.9,0,0,0,0-30.435l.29-.449a19.838,19.838,0,0,1,0,31.334Z" transform="translate(-0.29 -112.074)" fill="#1c2c5a"/>
      </g>
    </g>
    <g id="グループ_206" data-name="グループ 206" transform="translate(-1 -58.27)">
      <path id="パス_3739" data-name="パス 3739" d="M30.338,13.2V36.769H29.2V12.03h9.025V13.2Z" transform="translate(-1.842 0.088)"/>
      <path id="パス_3740" data-name="パス 3740" d="M50.964,30.546a21.76,21.76,0,0,1-8.7,5.631l-.081-.191c2.448-1.491,6.638-5.49,7.373-7.907L51.81,29.79a.515.515,0,0,1,.272.4c0,.353-.272.383-1.118.353ZM66.707,16.464H46.26a17.089,17.089,0,0,0-3.183.272l-.544-1.088c1.853.161,3.777.161,4.19.161h7.071a9.61,9.61,0,0,0-.574-4.019l3.022.675c.191.05.463.131.463.353,0,.3-.242.433-.927.816-.03.9-.03,1.038-.03,2.176h6.991l1.249-1.33c.222-.242.272-.353.4-.353a1.424,1.424,0,0,1,.574.3l1.874,1.33a.629.629,0,0,1,.272.433C67.11,16.434,66.869,16.464,66.707,16.464Zm-4.865,4.563c0,.574,0,1.249.03,2.5.03.494.161,2.579.161,2.992A1.33,1.33,0,0,1,60.7,27.8c-.766,0-.766-.383-.705-1.36h-4.08c0,1.168.081,6.306.081,7.373,0,.977,0,2.579-2.851,3.233-.222-1.763-2.559-2.8-3.042-3.022l.03-.191a22.454,22.454,0,0,0,3.153.353c.786,0,.816-.161.816-1.279V26.436H49.352c.05.766.111,1.712-1.309,1.712-.594,0-.735-.322-.735-.735,0-.111.03-.463.03-.594.03-.816.081-3.344.081-4.321a16.735,16.735,0,0,0-.272-4.351l2.528,1.41H59.787l.816-.9c.111-.111.222-.222.353-.222a.657.657,0,0,1,.383.191l1.279,1.038c.272.222.322.3.322.433,0,.353-.222.433-1.088.927Zm-1.853-.816H49.332v5.57H59.989ZM64.34,35.33c-.735,0-.866-.242-2.015-1.9a13.025,13.025,0,0,0-4.11-4.3l.05-.191c2.8.463,7.091,2.689,7.091,5.2a1.112,1.112,0,0,1-1.037,1.2Z" transform="translate(-1.748 0.086)"/>
      <path id="パス_3741" data-name="パス 3741" d="M71.7,35.029a1.194,1.194,0,0,1-1.168-1.168c0-.675.594-1.138,1.44-1.793a6.361,6.361,0,0,0,2.1-2.911h.161c.03.322.05.675.05,1.168C74.277,32.854,73.219,35.029,71.7,35.029ZM92.338,19.4a6.805,6.805,0,0,0-.594.433c.05,2.75.081,3.808.131,4.9,0,.242.081,1.249.081,1.471a1.16,1.16,0,0,1-1.249,1.138c-.846,0-.846-.544-.846-.866v-.353H77.269a18.741,18.741,0,0,0-3.213.242l-.514-1.088c1.712.141,3.425.191,4.16.191H89.86V22.579H77.682a18.559,18.559,0,0,0-3.213.242l-.544-1.058c1.682.131,3.374.161,4.19.161H89.86v-2.77H74.932a21.655,21.655,0,0,1-3.808,2.478l-.081-.111a36.558,36.558,0,0,0,6.658-8.4,4.032,4.032,0,0,0,.383-1.521l2.4,1.168a.6.6,0,0,1,.383.514c0,.272-.574.463-1.007.574-.141.161-.4.494-.625.735H85.3l.977-.816c.161-.131.353-.3.463-.3a1.324,1.324,0,0,1,.574.3l1.279,1.007c.141.111.272.222.272.4,0,.322-.222.353-1.038.544-.322.081-.514.222-2.77,1.793-.463.322-1.058.735-1.44.977h5.9l.786-.766c.131-.131.322-.322.433-.322.141,0,.3.161.413.242l1.168.927c.161.131.3.272.3.433,0,.131-.111.242-.272.383Zm-13.7-4.16c-.383.413-2.559,2.83-2.961,3.264H82.96a32.894,32.894,0,0,0,2.015-3.264H78.639Zm9.73,20.579c-.927.191-6.195.191-7.776.191-2.992,0-3.213-.574-3.213-3.153,0-4.462,0-4.654-.222-5.6l2.559.816c.161.05.433.222.433.383a.43.43,0,0,1-.222.322c-.081.081-.514.4-.594.494,0,.353-.05,4,0,4.432.05.494.594.514,1.249.514a58.554,58.554,0,0,0,6.094-.191,1.275,1.275,0,0,0,.816-.816,26.65,26.65,0,0,0,.816-3.072H88.5c.161.9.514,2.941,1.037,3.395.433.4.594.574.594.9s-.3,1.118-1.763,1.39Zm-3.808-4.4c-.735,0-.866-.322-1.521-1.9a6.039,6.039,0,0,0-1.44-2.176l.111-.161C85.277,28.18,85.6,29.59,85.6,30,85.6,30.628,85.357,31.413,84.562,31.413Zm9.489,2.206c-.766,0-.846-.191-1.6-1.9a8.583,8.583,0,0,0-1.874-3.022l.03-.05c1.471.242,4.593,1.874,4.593,3.777a1.128,1.128,0,0,1-1.138,1.2Z" transform="translate(-1.541 0.085)"/>
      <path id="パス_3742" data-name="パス 3742" d="M113.016,14.689A6.961,6.961,0,0,0,112.634,12l2.579.625c.222.05.383.141.383.383,0,.353-.161.433-.786.786v.9h4.785l.866-1.219c.081-.131.242-.353.4-.353.131,0,.353.191.494.3l1.581,1.219a.516.516,0,0,1,.272.413c0,.272-.242.3-.4.3h-8a6.069,6.069,0,0,1,0,1.6c-.111.463-.675.655-1.168.655-.353,0-.625-.161-.655-.514,0-.111-.03-1.168,0-1.743h-4.674c0,.322.081,1.763.081,2.065,0,.655-.705.866-1.309.866-.4,0-.574-.222-.574-.766,0-.353.05-1.874.05-2.176h-3.153a19.459,19.459,0,0,0-3.183.242L99.68,14.5c1.39.131,2.77.191,4.16.191h2.689a6.959,6.959,0,0,0-.4-2.639l2.669.594a.347.347,0,0,1,.322.322c0,.4-.242.544-.786.866-.03.433-.03.574-.03.846h4.7ZM99.8,22.415c3.808.322,3.808,2.015,3.808,2.287a.977.977,0,0,1-.977,1.058c-.594,0-.766-.272-1.39-1.33a4.967,4.967,0,0,0-1.471-1.823Zm6.366-.141a43.955,43.955,0,0,1-1.954,6.306,13.414,13.414,0,0,0-.947,3.264,4.193,4.193,0,0,0,.514,1.551,4.191,4.191,0,0,1,.4,1.743c0,.494-.111,1.581-1.249,1.581s-1.2-1.138-1.2-1.712a13.662,13.662,0,0,0-.081-2.4,2.987,2.987,0,0,0-1.712-2.1v-.222c1.581.05,1.551.03,2.478-1.491.272-.463,1.823-3.072,3.586-6.638Zm-3.939-4.815c1.33.191,3.667.544,3.667,2.337a.958.958,0,0,1-1.007.977c-.735,0-1.007-.594-1.279-1.168a4.881,4.881,0,0,0-1.41-1.954l.03-.191Zm18.323,2.4.786-1.138c.131-.191.272-.383.433-.383a.874.874,0,0,1,.494.3l1.279,1.168c.161.131.272.242.272.4,0,.272-.242.3-.433.3h-8.24v2.367h3.838l.705-.735a.512.512,0,0,1,.322-.222,1.187,1.187,0,0,1,.594.3l1.118.947a.731.731,0,0,1,.272.463c0,.272-.383.494-.947.816-.05,1.219,0,3.485.05,6.336,0,.494.111,2.559.111,2.992,0,.816,0,2.287-2.72,2.83a3.444,3.444,0,0,0-1.853-2.448V34c.705.05,1.36.05,1.763.05.866,0,.9-.131.9-.735V30.373h-4.11c0,.816.111,4.382.111,5.107,0,.353,0,1.249-1.249,1.249-.735,0-.735-.433-.735-.866,0-.655.05-3.536.05-4.13v-1.36h-3.646c.03,1.058.081,3.425.081,4.4,0,.675,0,1.581-1.36,1.581-.544,0-.675-.191-.675-1.118,0-.111.141-6.195.141-7.091a52.51,52.51,0,0,0-.242-6.336l2.307,1.058h3.395c0-.131-.03-2.287-.03-2.367h-3.1a18.559,18.559,0,0,0-3.213.242l-.544-1.088c1.984.161,3.727.191,4.19.191h2.669a7.389,7.389,0,0,0-.272-2.146l2.609.655c.161.05.322.131.322.353,0,.322-.222.433-.866.766v.383h5.409Zm-7.182,6.467v-2.8h-3.646v2.8Zm0,3.395v-2.75h-3.646v2.75Zm1.763-6.195v2.8h4.16v-2.8Zm0,3.455c0,.625.03,1.984.05,2.75h4.11v-2.75Zm1.118-10.446c1.058.03,3.536.111,3.536,1.712a.9.9,0,0,1-.977.927c-.514,0-.625-.161-1.249-1.058a4.09,4.09,0,0,0-1.309-1.41v-.161Z" transform="translate(-1.329 0.087)"/>
      <path id="パス_3743" data-name="パス 3743" d="M146.878,14.79l.766-.705c.161-.141.242-.3.4-.3a.789.789,0,0,1,.4.191l1.471,1.088c.161.131.3.242.3.463,0,.383-.9.786-1.138.9-.081,2.669-.03,10.466.111,14.9,0,.4.161,2.337.161,2.72a1.409,1.409,0,0,1-1.551,1.41c-.866,0-.816-.494-.766-1.581H131.648c0,.161,0,.977-.03,1.088-.191.625-1.007.846-1.471.846a.722.722,0,0,1-.816-.766c0-.322.081-1.712.081-2.015.111-3.938.191-7.887.191-11.8,0-5.329-.131-6.285-.383-7.857l2.579,1.41h15.059Zm-15.23.655v8.431h6.658V15.445Zm0,9.086v8.7h6.658v-8.7Zm15.391-.655V15.445h-6.85v8.431Zm0,9.358v-8.7h-6.85v8.7Z" transform="translate(-1.113 0.097)"/>
      <path id="パス_3744" data-name="パス 3744" d="M155.29,36.559V35.391h7.887V11.81h1.138V36.549H155.29Z" transform="translate(-0.923 0.086)"/>
      <path id="パス_3745" data-name="パス 3745" d="M170.686,34.478a.889.889,0,0,1-.9-1.007,29.074,29.074,0,0,1,1.038-3.123,3.379,3.379,0,0,0,.05-1.168l.242-.03a5.994,5.994,0,0,1,1.007,3.233c0,.735-.222,2.1-1.44,2.1Zm10.033-7.907a23.457,23.457,0,0,1-1.662,7.5,3.942,3.942,0,0,1-2.941,2.256,3.881,3.881,0,0,0-2.226-2.689l.05-.191a14.331,14.331,0,0,0,2.639.3c.544,0,.766-.05,1.058-.705a22.27,22.27,0,0,0,1.2-7.1h-6.064a1.1,1.1,0,0,1-1.168,1.33c-.544,0-.675-.272-.675-.735,0-.161.05-.816.05-.947.111-1.712.141-6.447.141-8.32a29.032,29.032,0,0,0-.272-4.513l2.035,1.007h5.057l.655-.786c.191-.222.322-.353.463-.353.161,0,.3.141.544.3l1.058.786a.648.648,0,0,1,.3.433c0,.191-.242.272-.433.272h-3.757v3.153h1.168l.514-.655c.222-.272.3-.383.433-.383s.3.131.544.3l.866.655c.131.111.3.242.3.433,0,.242-.242.3-.433.3h-3.395v3.123h1.2l.655-.766c.191-.222.3-.322.433-.322.161,0,.272.081.494.272l.816.766a.659.659,0,0,1,.242.433c0,.161-.161.272-.4.272h-3.425V25.3H178.6l.705-.786c.161-.191.3-.322.433-.322s.3.111.544.353l1.058.977a.519.519,0,0,1,.191.353c0,.322-.625.625-.816.705Zm-6.88,6.739c-.9,0-.9-1.138-.9-1.712a7.3,7.3,0,0,0-.3-2.992l.161-.081c.191.222,1.168,1.2,1.309,1.44a3.919,3.919,0,0,1,.766,2.1A1.184,1.184,0,0,1,173.839,33.31Zm1.309-18.9h-2.4v3.153h2.4Zm0,3.808h-2.4v3.123h2.4Zm0,3.777h-2.4v3.294h2.4Zm.947,9.539c-.705,0-.786-.463-1.007-2.015a7.6,7.6,0,0,0-.514-1.984l.111-.081c1.44,1.249,2.256,1.984,2.256,3.042a.948.948,0,0,1-.846,1.038Zm1.521-2.015c-.544,0-.655-.433-.947-1.521a3.454,3.454,0,0,0-.625-1.249l.161-.161c1.279.594,2.1,1.168,2.1,2.065,0,.433-.242.866-.675.866Zm18,5.006a3.993,3.993,0,0,0-2.579,1.6c-3.042-2.478-5.3-7.152-5.3-13.568h-2.911c-.272,6.688-1.6,10.8-5.57,13.649l-.141-.111c3.808-4.13,3.938-11.715,3.938-17.376a24.945,24.945,0,0,0-.463-5.762l2.579,1.138h5.6l.786-.766a.659.659,0,0,1,.433-.242c.131,0,.242.05.463.242l1.088.927a.554.554,0,0,1,.242.433c0,.191-.514.574-.846.786-.03.463-.05.977-.05,1.712,0,.866.161,4.674.161,5.52S192.2,23.8,191.769,23.8c-.866,0-.816-.594-.786-1.249h-2.77c.624,5.923,4.543,10.627,7.424,11.8l-.03.161Zm-4.593-19.763H184.99c-.03,1.038-.131,6.034-.131,7.152h6.175V14.765Z" transform="translate(-0.818 0.092)"/>
      <path id="パス_3746" data-name="パス 3746" d="M210.072,33.829a4.146,4.146,0,0,1-2.4,1.44c-.675,0-.735-.322-.816-1.138-.081-.866-1.2-2.5-1.954-3.616l.03-.141a13.378,13.378,0,0,0,3.264,1.853c1.9,0,3.183-7.071,3.183-8.975,0-2.176-.574-2.83-1.853-2.83a10.592,10.592,0,0,0-1.793.242c-.383.866-2.1,4.785-2.4,5.439a82.018,82.018,0,0,1-4.11,7.827,1.076,1.076,0,0,1-.846.544c-.433,0-.846-.463-.846-1.219,0-.816.191-1.058,1.118-2.206a38.671,38.671,0,0,0,3.616-6.175c.594-1.219,1.168-2.478,1.682-3.757a15.477,15.477,0,0,0-3.777,1.662c-.655.4-.866.514-1.168.514a2.859,2.859,0,0,1-2.256-2.559,1.84,1.84,0,0,1,.3-.977c.675,1.219,1.36,1.33,1.853,1.33a6.27,6.27,0,0,0,1.581-.242c.4-.111,2.689-.675,4.029-1.007a16.64,16.64,0,0,0,1.249-4.13c0-1.118-.463-1.36-1.934-2.1a4.6,4.6,0,0,1,1.581-.322c1.038,0,2.77,1.2,2.77,1.934,0,.322-.05.463-.675,1.581-.161.272-.816,1.763-1.219,2.669.353-.03.9-.111,1.491-.111,2.579,0,3.153,2.125,3.153,4.382,0,1.9-.846,7.907-2.851,10.083Zm11.282-6.5a7.433,7.433,0,0,1-1.471-.735,21.159,21.159,0,0,0-3.757-.977v-.191c2.75-.272,3.425-.544,3.425-1.309,0-.3-.866-2.417-5.087-5.248,5.087.927,7.585,4.563,7.585,7.232,0,.222,0,1.219-.705,1.219Z" transform="translate(-0.607 0.097)"/>
      <path id="パス_3747" data-name="パス 3747" d="M231.213,35.083v-.161A19.6,19.6,0,0,0,237.6,32.7c1.934-1.038,3.536-2.337,3.536-4.654a3.2,3.2,0,0,0-3.425-3.485c-3.264,0-6.719,2.176-8.894,5.47a.823.823,0,0,1-.675.494c-1.007,0-1.44-1.6-1.44-2.176a8.609,8.609,0,0,1,.353-1.954,41.531,41.531,0,0,0,.494-5.711c0-2.478,0-3.888,4.7-4.623.161-.03.242-.05.242-.191s-.081-.191-.735-.625a3.663,3.663,0,0,1-1.682-2.689c1.168.947,1.39,1.038,3.918,2.1.594.242,2.125.866,2.125,2.5,0,.594-.222.846-.574.846a2.9,2.9,0,0,1-1.249-.433,8.065,8.065,0,0,0-2.83-.463c-2.065,0-2.941.655-2.941,1.44,0,.272.05.433.594,1.793a3.429,3.429,0,0,1,.191.947,13.743,13.743,0,0,1-.383,1.6,18.932,18.932,0,0,0-.574,3.7c0,.161.03.625.353.625.161,0,1.853-1.219,2.206-1.44a14.185,14.185,0,0,1,7.011-2.176c3.727,0,5.3,2.609,5.3,4.734,0,4.482-5.55,7.152-12.017,6.769Z" transform="translate(-0.403 0.091)"/>
      <path id="パス_3748" data-name="パス 3748" d="M255.784,30.546a21.76,21.76,0,0,1-8.7,5.631L247,35.985c2.448-1.491,6.638-5.49,7.373-7.907l2.256,1.712a.515.515,0,0,1,.272.4c0,.353-.272.383-1.118.353Zm15.744-14.082H251.079a17.089,17.089,0,0,0-3.183.272l-.544-1.088c1.853.161,3.777.161,4.19.161h7.071a9.611,9.611,0,0,0-.574-4.019l3.022.675c.191.05.463.131.463.353,0,.3-.242.433-.927.816-.03.9-.03,1.038-.03,2.176h6.991l1.249-1.33c.222-.242.272-.353.4-.353a1.424,1.424,0,0,1,.574.3l1.874,1.33a.629.629,0,0,1,.272.433c0,.242-.242.272-.4.272Zm-4.865,4.563c0,.574,0,1.249.03,2.5.03.494.161,2.579.161,2.992a1.33,1.33,0,0,1-1.33,1.279c-.766,0-.766-.383-.705-1.36h-4.079c0,1.168.081,6.306.081,7.373,0,.977,0,2.579-2.851,3.233-.222-1.763-2.559-2.8-3.042-3.022l.03-.191a22.454,22.454,0,0,0,3.153.353c.786,0,.816-.161.816-1.279V26.436h-4.754c.05.766.111,1.712-1.309,1.712-.594,0-.735-.322-.735-.735,0-.111.03-.463.03-.594.03-.816.081-3.344.081-4.321a16.734,16.734,0,0,0-.272-4.351l2.528,1.41h10.113l.816-.9c.111-.111.222-.222.353-.222a.657.657,0,0,1,.383.191l1.279,1.038c.272.222.322.3.322.433,0,.353-.222.433-1.088.927Zm-1.853-.816H254.152v5.57h10.657ZM269.16,35.33c-.735,0-.866-.242-2.015-1.9a13.025,13.025,0,0,0-4.11-4.3l.05-.191c2.8.463,7.091,2.689,7.091,5.2a1.112,1.112,0,0,1-1.038,1.2Z" transform="translate(-0.255 0.086)"/>
      <path id="パス_3749" data-name="パス 3749" d="M276.528,35.029a1.194,1.194,0,0,1-1.168-1.168c0-.675.594-1.138,1.44-1.793a6.362,6.362,0,0,0,2.1-2.911h.161c.03.322.05.675.05,1.168C279.107,32.854,278.049,35.029,276.528,35.029ZM297.168,19.4a6.806,6.806,0,0,0-.594.433c.05,2.75.081,3.808.131,4.9,0,.242.081,1.249.081,1.471a1.16,1.16,0,0,1-1.249,1.138c-.846,0-.846-.544-.846-.866v-.353H282.1a18.742,18.742,0,0,0-3.213.242l-.514-1.088c1.712.141,3.425.191,4.16.191H294.69V22.579H282.512a18.56,18.56,0,0,0-3.213.242l-.544-1.058c1.682.131,3.374.161,4.19.161H294.69v-2.77H279.762a21.656,21.656,0,0,1-3.807,2.478l-.081-.111a36.558,36.558,0,0,0,6.658-8.4,4.032,4.032,0,0,0,.383-1.521l2.4,1.168a.6.6,0,0,1,.383.514c0,.272-.574.463-1.007.574-.141.161-.4.494-.624.735h6.064l.977-.816c.161-.131.352-.3.463-.3a1.325,1.325,0,0,1,.574.3l1.279,1.007c.141.111.272.222.272.4,0,.322-.222.353-1.037.544-.322.081-.514.222-2.77,1.793-.463.322-1.058.735-1.441.977h5.9l.786-.766c.131-.131.322-.322.433-.322.141,0,.3.161.413.242l1.168.927c.161.131.3.272.3.433,0,.131-.111.242-.272.383Zm-13.7-4.16c-.383.413-2.559,2.83-2.961,3.264h7.283a32.9,32.9,0,0,0,2.015-3.264h-6.336Zm9.73,20.579c-.927.191-6.195.191-7.776.191-2.992,0-3.213-.574-3.213-3.153,0-4.462,0-4.654-.222-5.6l2.559.816c.161.05.433.222.433.383a.43.43,0,0,1-.222.322c-.081.081-.514.4-.594.494,0,.353-.05,4,0,4.432.05.494.594.514,1.249.514a58.554,58.554,0,0,0,6.094-.191,1.275,1.275,0,0,0,.816-.816,26.646,26.646,0,0,0,.816-3.072h.191c.161.9.514,2.941,1.037,3.395.433.4.594.574.594.9S294.66,35.543,293.2,35.815Zm-3.807-4.4c-.735,0-.866-.322-1.521-1.9a6.039,6.039,0,0,0-1.44-2.176l.111-.161c3.566,1.007,3.888,2.417,3.888,2.83C290.429,30.628,290.187,31.413,289.392,31.413Zm9.489,2.206c-.766,0-.846-.191-1.6-1.9a8.583,8.583,0,0,0-1.874-3.022l.03-.05c1.471.242,4.593,1.874,4.593,3.777a1.128,1.128,0,0,1-1.138,1.2Z" transform="translate(-0.048 0.085)"/>
      <path id="パス_3750" data-name="パス 3750" d="M328.011,35.36H308.077a19.965,19.965,0,0,0-3.213.242l-.544-1.088c1.39.131,2.8.191,4.19.191h6.85V28.289h-4.7a19.437,19.437,0,0,0-3.213.242l-.544-1.088c2.146.161,3.7.191,4.19.191h10.526l1.168-1.309c.222-.222.322-.353.433-.353.161,0,.383.191.514.3l1.6,1.309a.569.569,0,0,1,.272.4c0,.272-.272.3-.433.3h-7.887v6.416h7.011l1.2-1.44c.131-.161.242-.322.4-.322.111,0,.242.03.514.272l1.712,1.44c.111.081.3.222.3.4,0,.272-.272.3-.433.3Zm-.947-11.423a61.585,61.585,0,0,1-6.8.242c-2.77,0-2.77-.675-2.77-3.374,0-.594-.03-3.646-.03-4.321H308.6c-.353,3.042-2.448,3.042-2.528,3.042a1.036,1.036,0,0,1-1.088-.977c0-.675.514-1.007,1.44-1.6a3.413,3.413,0,0,0,1.823-2.448h.222a2.512,2.512,0,0,1,.191,1.33h6.85a11.821,11.821,0,0,0-.494-4l2.579.655c.222.05.594.131.594.494a.476.476,0,0,1-.191.383c-.111.081-.544.353-.624.433v2.035h6.416l1.058-.866c.222-.161.322-.272.574-.272a.622.622,0,0,1,.463.242l1.662,1.471a.74.74,0,0,1,.222.514c0,.494-.383.544-1.471.625-.433.272-2.367,1.551-2.77,1.793L323.4,19.2a23.058,23.058,0,0,0,.594-2.72h-4.623a46.371,46.371,0,0,0,.161,5.681,8.931,8.931,0,0,0,2.669.242c.947,0,3.022,0,3.505-.494a7.134,7.134,0,0,0,1.2-2.881h.222c.433,1.763.594,2.448.947,2.689a.978.978,0,0,1,.544.866c0,.786-.977,1.219-1.551,1.33Zm-12.7-5.137c-1.632,3.153-3.777,5.711-9.056,6.8l-.111-.222c5.983-2.992,7.313-7.041,7.535-8.784l2.256,1.168c.272.131.352.242.352.4,0,.322-.081.353-.977.625Z" transform="translate(0.163 0.086)"/>
      <path id="パス_3751" data-name="パス 3751" d="M335.072,22.719c-.655,0-.816-.272-1.682-1.954A7,7,0,0,0,332.03,19l.03-.161c.977.131,4.029.866,4.029,2.72a1.061,1.061,0,0,1-1.007,1.168Zm1.309,4.543a9.542,9.542,0,0,0-.493,2.579,10.306,10.306,0,0,0,.353,2.417,11.838,11.838,0,0,1,.494,2.417c0,.766-.353,1.521-1.2,1.521-1.279,0-1.279-1.36-1.279-1.954,0-.353.081-1.853.081-2.146a2.811,2.811,0,0,0-1.823-2.992v-.161a2.515,2.515,0,0,0,1.793-.816c.594-.786,3.666-9.519,3.888-10.3l.222.081C338.144,20.161,337.953,20.9,336.381,27.262Zm.735-10.959c-.816,0-1.058-.625-1.662-1.934a9.648,9.648,0,0,0-1.168-1.954l.05-.131c.514.111,3.888,1.058,3.888,2.8a1.13,1.13,0,0,1-1.118,1.219Zm19.2,11.151a4.483,4.483,0,0,0-1.118,1.471c-2.911-1.138-5.822-4.593-6.8-7.041h-3.485a20.861,20.861,0,0,1-2.851,3.918c1.934.161,3.777.191,4.11.191h1.36l.494-.494c.191-.191.322-.383.514-.383.161,0,.383.191.494.272l.9.705c.161.131.322.272.322.463,0,.3-.141.413-.625.846.03.4.111,2.206.111,2.559,0,.544,0,.866-.272,1.088a2.131,2.131,0,0,1-1.038.353c-.544,0-.574-.383-.574-.625h-3.586c-.161,3.646.03,3.646,1.491,3.646,4.563,0,5.6,0,6.195-.574.625-.594.9-1.712,1.41-3.616h.131a11.675,11.675,0,0,0,.846,3.213c.111.161.131.161.433.4.131.111.222.191.222.353,0,.111,0,.786-1.168,1.36-1.36.655-4.049.655-5.49.655-5.167,0-5.9-.161-5.923-2.146,0-1.682-.03-4.321-.161-5.107l2.5,1.168h3.123V26.648h-2.146a16.634,16.634,0,0,0-3.183.242l-.514-1.058a19.865,19.865,0,0,1-4.946,4.241l-.081-.161a30.344,30.344,0,0,0,5.651-8.018,20.183,20.183,0,0,0-3.455.242l-.544-1.088c1.41.111,1.682.141,4.11.191V16.615a16.255,16.255,0,0,0-2.8.242l-.544-1.088c.594.05,1.581.131,3.344.161a12.756,12.756,0,0,0-.463-4.19l2.5.735c.322.111.514.222.514.4,0,.3-.242.494-.786.866.03.574.03.735,0,2.206h3.485a11.121,11.121,0,0,0-.494-4.08l2.579.675c.3.081.514.242.514.383,0,.322-.433.655-.786.866-.03.353-.03,1.853-.03,2.146h1.551l.866-1.168c.111-.141.242-.353.4-.353s.383.222.514.322l1.2,1.138c.161.141.272.242.272.4,0,.272-.222.3-.4.3h-4.4v4.623h3.022l.927-1.219c.131-.191.242-.353.4-.353a.806.806,0,0,1,.514.3l1.309,1.219c.161.161.272.3.272.4,0,.272-.242.3-.4.3h-6.93a11.66,11.66,0,0,0,8.431,4.754v.161c-.161.111-.9.544-1.038.655Zm-8.29-10.848h-3.485v4.623h3.485C348.026,20.574,348.056,17.341,348.026,16.605Z" transform="translate(0.365 0.086)"/>
      <path id="パス_3752" data-name="パス 3752" d="M360.59,35.3a31.715,31.715,0,0,0,1.984-8.35,5.763,5.763,0,0,0-.081-.927l2.4.9c.111.05.3.141.3.353,0,.242-.081.3-.705.735-.574,1.743-1.763,5.2-3.7,7.363l-.191-.081Zm10.818-18.786a.436.436,0,0,1,.191.383c0,.322-.272.4-1.138.594-.927,1.249-2.367,3.153-4.785,5.872.131-.03,1.984-.081,3.395-.222a16.513,16.513,0,0,0-.977-1.934l.131-.191c1.471.625,3.314,1.823,3.314,3.233a1.121,1.121,0,0,1-1.088,1.219c-.705,0-.735-.222-1.249-1.954-.413.141-.866.272-1.934.574.03,3.757,0,5.681.05,8,0,.494.081,2.579.081,3.022,0,.4,0,1.491-1.219,1.491a.72.72,0,0,1-.766-.846c0-1.249.222-9.458.242-11.261-.675.161-1.551.383-3.485.766-.383.4-.4.463-.625.463-.191,0-.322-.191-.383-.383l-.574-2.307a8.283,8.283,0,0,0,2.528.4c.161,0,1.632-.05,1.853-.081,1.793-2.669,4.11-6.719,4.079-8.371l2.337,1.521Zm-9.761-.272a6.416,6.416,0,0,1,2.831.866c0-.03,1.36-3.586,1.168-5.329l2.609,1.36a.443.443,0,0,1,.272.353c0,.272-.242.383-1.2.766-.977,1.33-1.33,1.743-2.478,3.1a2.535,2.535,0,0,1,1.2,1.934,1.149,1.149,0,0,1-1.038,1.249c-.675,0-.927-.574-1.118-.977a8.754,8.754,0,0,0-2.337-3.123l.081-.191Zm6.285,10.5c1.823.655,3.213,1.934,3.213,3.042a1.052,1.052,0,0,1-1.038,1.168c-.766,0-.9-.433-1.31-1.9a5.607,5.607,0,0,0-1.037-2.146l.161-.161Zm4.21.463a6.028,6.028,0,0,0-1.36.111l-.383-.866c1.007.081,1.823.111,2.065.111h.846l.514-.625c.05-.05.191-.222.353-.222a.749.749,0,0,1,.4.242l1.088,1.038c.111.111.3.272.3.463,0,.222-.081.322-.9.625a13.869,13.869,0,0,1-6.366,6.96l-.05-.161a17.533,17.533,0,0,0,4.7-7.665h-1.219Zm5.651-3.566.494.161c.191.05.594.222.594.494,0,.322-.493.594-.705.705a9.583,9.583,0,0,0,1.581,3.727,10.761,10.761,0,0,0,2.941-3.7l1.873,1.874a.634.634,0,0,1,.141.353c0,.05-.03.353-.433.353-.081,0-.433-.03-.705-.05A38.576,38.576,0,0,1,379.93,29a11.224,11.224,0,0,0,6.578,4.432v.222c-1.9.463-2.287,1.058-2.75,1.743a15.088,15.088,0,0,1-5.52-8.078c0,1.007.161,5.439.161,6.336,0,.655,0,2.528-2.72,3.022-.3-.866-.594-1.712-2.8-2.639l.03-.222c.433.05,2.256.161,2.609.161,1.088,0,1.118-.222,1.118-1.038V25.592a12.416,12.416,0,0,0-.081-1.954H374.38a1,1,0,0,1-1.088,1.118c-.594,0-.866-.222-.866-.705,0-.383.131-3.938.131-4.674a44.463,44.463,0,0,0-.242-5.409l2.206,1.168h1.632a10.154,10.154,0,0,0,.242-2.256,6.162,6.162,0,0,0-.141-1.33l2.559.816c.222.081.463.191.463.463,0,.353-.272.433-.977.574a20.521,20.521,0,0,1-1.471,1.743h3.7l.735-.846a.834.834,0,0,1,.463-.3.753.753,0,0,1,.4.191l1.279.947c.161.111.353.3.353.463,0,.242-.111.3-1.007.947,0,1.118.242,6.366.242,6.96a1.139,1.139,0,0,1-1.279,1.2c-.735,0-.735-.433-.705-1.058h-3.213Zm-3.455-7.857v3.264H381V15.781h-6.658Zm6.658,7.2V19.689h-6.658v3.294Z" transform="translate(0.573 0.084)"/>
      <path id="パス_3753" data-name="パス 3753" d="M401.014,33.637a4.537,4.537,0,0,1-2.639,1.743c-.624,0-.735-.433-.816-.9-.191-1.138-.242-1.36-2.015-3.918l.081-.111c2.367,1.632,2.881,1.823,3.374,1.823a1.218,1.218,0,0,0,1.058-.786,17.924,17.924,0,0,0,1.9-8.129c0-1.058,0-2.961-1.823-2.961a7.408,7.408,0,0,0-1.793.272c-1.581,3.808-2.639,6.306-5.681,12.208-.353.675-.947,1.743-1.551,1.743-.544,0-.866-.655-.866-1.279a2.434,2.434,0,0,1,.594-1.491A46.542,46.542,0,0,0,396.582,21.2a22.807,22.807,0,0,0-3.838,1.743,2.094,2.094,0,0,1-1.138.494,2.753,2.753,0,0,1-2.256-2.5,2.234,2.234,0,0,1,.322-1.088c.494.927,1.088,1.41,1.853,1.41.655,0,4.674-1.118,5.57-1.33a18.457,18.457,0,0,0,1.219-4.271c0-1.088-1.6-1.793-1.984-1.934a2.274,2.274,0,0,1,1.36-.433c1.44,0,3.1,1.249,3.1,1.934a2.544,2.544,0,0,1-.4,1.118c-.594,1.088-1.058,2.065-1.581,3.233a6.329,6.329,0,0,1,1.471-.161c3.183,0,3.314,2.559,3.314,4.7,0,3.213-1.088,7.806-2.579,9.539Zm11.01-6.386a9.1,9.1,0,0,1-1.491-.675,11.129,11.129,0,0,0-3.7-.947v-.222c.413-.03,3.395-.272,3.395-1.2,0-.272-1.249-2.961-5.087-5.329,2.77.111,7.555,3.264,7.555,6.93,0,.222,0,1.44-.675,1.44Zm-1.39-8.29c-.242,0-.655-.353-1.309-.9a9.459,9.459,0,0,0-3.394-2.035,5.943,5.943,0,0,1,1.088-.111c1.44,0,4.351.655,4.351,2.226A.762.762,0,0,1,410.634,18.961Zm2.669-2.125c-.353,0-1.551-1.088-1.823-1.279a9.594,9.594,0,0,0-3.213-1.471,8.069,8.069,0,0,1,1.682-.191c.493,0,3.918.111,3.918,2.176,0,.353-.131.766-.574.766Z" transform="translate(0.782 0.097)"/>
      <path id="パス_3754" data-name="パス 3754" d="M426.9,20.157l.927-1.249c.131-.191.3-.353.433-.353.161,0,.383.191.514.3l1.39,1.219a.6.6,0,0,1,.272.433c0,.272-.242.3-.413.3h-5.359c0,.544.03,1.168.03,1.712,1.168.494,4.432,2.307,4.432,4.241a1.272,1.272,0,0,1-1.168,1.39c-.463,0-.735-.161-1.2-1.471a11.294,11.294,0,0,0-2.065-3.536c.03,1.682.081,9.106.111,10.607,0,.272.081,1.471.081,1.712,0,.846-.947,1.2-1.551,1.2a.677.677,0,0,1-.675-.766c0-.443.161-2.4.191-2.77.05-1.632.111-4.754.141-9.106a19.75,19.75,0,0,1-6.85,7.2l-.111-.141a38.747,38.747,0,0,0,6.547-10.274h-2.206a18.382,18.382,0,0,0-3.183.242l-.544-1.088c2.014.161,3.777.191,4.19.191h2.145V15.866a33.355,33.355,0,0,1-6.014.735V16.44a41.79,41.79,0,0,0,8.622-3.072,3.1,3.1,0,0,0,1.36-1.118l1.954,1.823a.5.5,0,0,1,.222.353c0,.191-.161.322-.4.322-.161,0-.866-.081-1.31-.131a20.608,20.608,0,0,1-2.75.866v4.674h2.226Zm7.182-4.7c.111.03.463.191.463.4,0,.191-.081.242-.846.947-.03.514-.03,1.058-.03,1.984,0,2.528.131,7.806.161,9.63,0,.353.03.816.03,1.038a1.435,1.435,0,0,1-1.41,1.39c-.494,0-.675-.242-.675-.675,0-.161.03-.4.03-.544.191-1.874.161-7.263.161-9.438,0-3.586-.03-4.19-.433-5.6l2.559.866Zm5.872-1.874c.191.05.4.141.4.413,0,.222-.111.3-.927.9-.05,1.853,0,9.217.05,11.342.05,2.065.141,5.872.141,6.225,0,1.44,0,3.213-3.888,3.747-.111-.705-.242-1.682-2.448-2.689l.03-.131c.594.05,2.4.161,3.042.161,1.33,0,1.33-.383,1.33-1.581,0-3.1-.111-14-.161-16.5a9.179,9.179,0,0,0-.4-2.8l2.83.927Z" transform="translate(0.977 0.089)"/>
      <path id="パス_3755" data-name="パス 3755" d="M464,13.819,464.95,13c.222-.191.322-.242.4-.242a.929.929,0,0,1,.433.191l1.36.977a.627.627,0,0,1,.272.4c0,.3-.353.574-1.138,1.038-.05,1.038-.05,1.138-.05,4.049,0,2.065.081,11.151.081,12.994,0,1.632,0,3.183-3.183,3.838a4.207,4.207,0,0,0-2.559-2.77l.05-.222a20.66,20.66,0,0,0,2.609.191c1.088,0,1.088-.222,1.088-2.146,0-.544,0-3.395.03-3.808h-6.467c0,1.581.03,3.969.111,6.195.03.383.03.766.03.9,0,.574,0,1.662-1.521,1.662-.816,0-.846-.574-.846-.927,0-.222.03-.9.05-1.138.222-3.294.242-5.742.242-6.688h-6.013a12.073,12.073,0,0,1-5.55,8.673l-.222-.222c4.08-3.757,4.271-10.3,4.271-17.617A27.075,27.075,0,0,0,448,12.54l2.689,1.279h13.3ZM450.385,20.81c0,1.581-.131,4.623-.322,6.034h5.923l.05-6.034Zm0-6.336v5.681h5.651V14.474h-5.651Zm13.971,12.369.03-6.034H457.94l-.05,6.034Zm.03-6.688.03-5.681H457.95v5.681H464.4Z" transform="translate(1.182 0.091)"/>
      <path id="パス_3756" data-name="パス 3756" d="M496.513,15.208h-4.835c0,1.44,0,18.272-.03,18.625-.161,1.551-1.763,2.287-3.022,2.528-.131-.866-.242-1.471-3.505-3.123v-.161c.353.05,2.559.242,3.233.242s1.2,0,1.309-.433c.081-.353.081-5.762.081-6.638,0-1.763-.081-9.458-.03-11.04h-13.3a19.631,19.631,0,0,0-3.213.242l-.544-1.088c1.9.161,3.938.191,4.19.191h15.986l1.249-1.44c.131-.161.3-.353.433-.353a.965.965,0,0,1,.494.3l1.662,1.44c.141.131.272.242.272.4,0,.272-.242.3-.433.3Zm-11.936,5.3c0,.786.03,3.314.03,4.13,0,.594.081,3.233.081,3.777,0,1.39-.977,1.44-1.279,1.44-.816,0-.786-.675-.786-1.551h-4c.05,1.471.131,2.579-1.31,2.579a.766.766,0,0,1-.866-.846c0-.222.081-1.249.081-1.471.081-2.83.081-4.926.081-7.232a9.926,9.926,0,0,0-.4-3.536l2.528,1.36h3.727l.735-.705c.222-.222.353-.322.463-.322s.191.03.463.242l1.088.866c.222.191.322.272.322.463,0,.242-.433.494-.947.786Zm-1.954-.675h-4v7.827h4Z" transform="translate(1.389 0.093)"/>
      <path id="パス_3757" data-name="パス 3757" d="M512.549,20.051c-.675,0-1.038-.675-1.2-1.058-.081-.191-.353-1.007-.433-1.168a75.258,75.258,0,0,1-7.5,1.551c-.161.383-.353.735-.655.735-.191,0-.322-.191-.4-.4l-.786-2.559a10.97,10.97,0,0,0,3.566.463c.3-.544,1.853-3.808,1.793-5.983l2.639,1.36a.514.514,0,0,1,.322.463c0,.191,0,.353-1.249.494a27.506,27.506,0,0,1-2.881,3.667c.322,0,3.838-.05,5.006-.131a6.5,6.5,0,0,0-1.581-2.206l.03-.111c2.609.625,4.351,2.4,4.351,3.667,0,.494-.272,1.219-1.007,1.219Zm-.927,2.83v9.106c0,2.307-.03,3.072-.766,3.757a3.574,3.574,0,0,1-1.984.866,3.928,3.928,0,0,0-1.954-2.559l.05-.161c1.007.141,1.954.222,2.146.222.161,0,.574,0,.624-.322.03-.322.081-3.374.081-3.536H505.2c.03.9.081,3.918.081,4.7,0,1.33-.947,1.471-1.249,1.471a.774.774,0,0,1-.846-.866,2.67,2.67,0,0,0,.03-.272c.222-3.374.242-6.769.242-10.143a25.355,25.355,0,0,0-.222-4.623l2.226,1.168h4.079l.705-.786c.111-.111.191-.191.322-.191.111,0,.161.03.383.161l1.249.846a.461.461,0,0,1,.242.383c0,.191-.242.494-.846.786Zm-1.793-.544h-4.623V25.6h4.623Zm0,3.918h-4.623V29.6h4.623ZM519.4,36.1c-4.734,0-4.734-.353-4.734-2.961,0-1.118,0-6.608-.03-7.454a4.885,4.885,0,0,0-.3-1.874l2.77.816c.161.05.383.191.383.413s-.191.544-1.038.786c0,.574-.05,3.1-.05,3.646,1.138-.514,4.049-2.1,5.218-4.08l1.984,1.853a.425.425,0,0,1,.161.322.356.356,0,0,1-.383.383,2.463,2.463,0,0,1-.7-.111,21.052,21.052,0,0,1-6.286,2.065,38.154,38.154,0,0,0,.05,3.938c.161.433.625.544,2.287.544,3.536,0,4.16,0,4.946-4.432h.191c.383,2.8.4,3.1.786,3.395.463.322.463.353.463.594,0,2.146-3.777,2.146-5.742,2.146Zm4.754-13.024a8.826,8.826,0,0,1-3.747.433c-5.651,0-5.651-.081-5.681-3.425-.081-6.225-.081-6.93-.322-8.129l2.8.9c.191.05.413.131.413.383,0,.433-.735.735-1.088.866-.05,1.058-.05,2.83-.05,3.938.705-.3,4.13-1.712,5.409-3.838l1.853,1.853a.525.525,0,0,1,.191.383c0,.191-.161.383-.494.383a1.166,1.166,0,0,1-.463-.111,25.932,25.932,0,0,1-6.5,1.743c0,.866,0,2.448.03,2.609a.727.727,0,0,0,.594.574c.353.05,2.83.111,3.234.111,1.743,0,2.226-.161,2.609-.9a11.721,11.721,0,0,0,.9-2.961h.191c.081.766.352,3.123.735,3.395.222.131.464.3.464.594,0,.272-.242.816-1.058,1.2Z" transform="translate(1.6 0.085)"/>
      <line id="線_93" data-name="線 93" x2="1095.5" transform="translate(0 52.883)" fill="none" stroke="#000" stroke-miterlimit="10" stroke-width="1"/>
      <rect id="長方形_146" data-name="長方形 146" width="9.066" height="52.883"/>
    </g>
  </g>
</svg>
