<svg xmlns="http://www.w3.org/2000/svg" width="202.016" height="20.478" viewBox="0 0 202.016 20.478">
  <g id="air02-sp" transform="translate(-15.484 -561.522)">
    <line id="線_106" data-name="線 106" x2="202.016" transform="translate(15.484 579.5)" fill="none" stroke="#b3a34b" stroke-width="5"/>
    <path id="パス_4507" data-name="パス 4507" d="M2.354-16.06.814-11.88l.638.286c.792-1.364,2.134-3.74,4.488-3.74a1.365,1.365,0,0,1,1.54,1.518V-2.222A1.411,1.411,0,0,1,5.918-.7H4.8V0H11.9V-.7H10.8A1.429,1.429,0,0,1,9.218-2.222V-13.816a1.381,1.381,0,0,1,1.562-1.518c2.332,0,3.674,2.354,4.466,3.74l.638-.286-1.54-4.18Zm17.182,0v.726h.682A1.419,1.419,0,0,1,21.8-13.816V-2.222A1.429,1.429,0,0,1,20.218-.7h-.682V0h6.27V-.7h-.7A1.422,1.422,0,0,1,23.54-2.222V-7.854h2.552L29.656,0h3.762V-.7h-.374A2.852,2.852,0,0,1,30.4-2.552L27.9-8.052a6.162,6.162,0,0,0,2.618-1.232,3.711,3.711,0,0,0,1.452-2.948c0-3.058-3.366-3.828-6.072-3.828Zm4,2.244A1.412,1.412,0,0,1,25.1-15.334H26.18c2.882,0,3.7,1.782,3.7,3.3,0,2.376-1.936,3.476-3.982,3.476H23.54ZM48.026-5.654l1.056,3.168a2.628,2.628,0,0,1,.2.814.961.961,0,0,1-.9.968h-.66V0H53.13V-.7h-.484c-.616,0-1.188-.22-1.628-1.5L46.2-16.478l-1.936.418L39.93-2.728C39.578-1.65,38.786-.7,37.862-.7h-.726V0H41.91V-.7h-.616a.81.81,0,0,1-.924-.88A1.941,1.941,0,0,1,40.5-2.31L41.58-5.654Zm-.242-.7H41.822l2.926-8.976Zm16.082-9.7H56.892v.726h1.034a1.418,1.418,0,0,1,1.584,1.518V-2.222A1.427,1.427,0,0,1,57.926-.7H56.892V0h6.974V-.7H62.81a1.412,1.412,0,0,1-1.562-1.518V-13.816a1.411,1.411,0,0,1,1.562-1.518h1.056ZM80.278,0V-13.6a1.548,1.548,0,0,1,1.672-1.738h.836v-.726H77.044v.726h.792A1.658,1.658,0,0,1,79.552-13.6V-3.234L71.28-16.06H67.21v.726h.7a1.675,1.675,0,0,1,1.8,1.716v11A1.7,1.7,0,0,1,67.914-.7h-.7V0h5.72V-.7h-.594a1.779,1.779,0,0,1-1.914-1.914V-14.146L79.64,0ZM106.92-5.654l1.056,3.168a2.628,2.628,0,0,1,.2.814.961.961,0,0,1-.9.968h-.66V0h5.412V-.7h-.484c-.616,0-1.188-.22-1.628-1.5l-4.818-14.278-1.936.418L98.824-2.728C98.472-1.65,97.68-.7,96.756-.7H96.03V0H100.8V-.7h-.616a.81.81,0,0,1-.924-.88A1.941,1.941,0,0,1,99.4-2.31l1.078-3.344Zm-.242-.7h-5.962l2.926-8.976Zm22.55-6.094-1.562-3.96a3.15,3.15,0,0,1-1.474.528c-.132,0-1.166-.286-1.342-.33A6.452,6.452,0,0,0,123-16.478c-3.718,0-6.908,3.652-6.908,8.8,0,4.334,2.266,8.1,6.908,8.1,4.092,0,5.632-2.948,6.49-4.642l-.594-.352c-.572,1.122-2.112,3.982-5.236,3.982-3.7,0-5.764-3.476-5.764-7.744,0-3.828,1.738-7.414,5.258-7.414,2.948,0,4.532,2.4,5.346,3.63Zm17.27,0-1.562-3.96a3.15,3.15,0,0,1-1.474.528c-.132,0-1.166-.286-1.342-.33a6.452,6.452,0,0,0-1.848-.264c-3.718,0-6.908,3.652-6.908,8.8,0,4.334,2.266,8.1,6.908,8.1,4.092,0,5.632-2.948,6.49-4.642l-.594-.352c-.572,1.122-2.112,3.982-5.236,3.982-3.7,0-5.764-3.476-5.764-7.744,0-3.828,1.738-7.414,5.258-7.414,2.948,0,4.532,2.4,5.346,3.63Zm10.626,4.488c1.342,0,2.486.594,2.486,2.178v.66h.7v-6.292h-.7v.572c0,1.474-.814,2.178-2.486,2.178h-2.508v-5.148a1.411,1.411,0,0,1,1.562-1.518h2.442c2.09,0,3.5,1.276,4.708,3.212l.594-.374-1.43-3.564H150.48v.726h.814a1.412,1.412,0,0,1,1.562,1.518V-2.222A1.411,1.411,0,0,1,151.294-.7h-.814V0h12.3l1.54-4.048-.638-.286c-.946,1.606-2.112,3.63-5.808,3.63h-1.694a1.4,1.4,0,0,1-1.562-1.518V-7.964Zm19.6-8.514a1.519,1.519,0,0,1-1.232.418,11.312,11.312,0,0,1-1.32-.242,7.35,7.35,0,0,0-1.562-.176,4.152,4.152,0,0,0-4.422,4.268c0,2.64,2,3.784,5.1,4.84,2.794.968,4.092,1.672,4.092,3.7A3.17,3.17,0,0,1,174.13-.352a6.159,6.159,0,0,1-3.96-1.628,7.759,7.759,0,0,1-1.738-2.288l-.836.4L169.224.374a3.958,3.958,0,0,1,1.76-.616,2.411,2.411,0,0,1,.9.22,7.644,7.644,0,0,0,2.354.44,4.664,4.664,0,0,0,4.774-4.752c0-2.156-1.166-3.19-2.882-4.07a17.178,17.178,0,0,0-2.156-.924c-2.882-1.012-4.2-1.694-4.2-3.52a2.81,2.81,0,0,1,3.014-2.9c2.816,0,4.092,2.178,4.8,3.41l.66-.264Zm14.828,0a1.519,1.519,0,0,1-1.232.418A11.312,11.312,0,0,1,189-16.3a7.35,7.35,0,0,0-1.562-.176,4.152,4.152,0,0,0-4.422,4.268c0,2.64,2,3.784,5.1,4.84,2.794.968,4.092,1.672,4.092,3.7a3.17,3.17,0,0,1-3.256,3.322A6.159,6.159,0,0,1,185-1.98a7.759,7.759,0,0,1-1.738-2.288l-.836.4L184.052.374a3.958,3.958,0,0,1,1.76-.616,2.411,2.411,0,0,1,.9.22,7.644,7.644,0,0,0,2.354.44,4.664,4.664,0,0,0,4.774-4.752c0-2.156-1.166-3.19-2.882-4.07a17.178,17.178,0,0,0-2.156-.924c-2.882-1.012-4.2-1.694-4.2-3.52a2.81,2.81,0,0,1,3.014-2.9c2.816,0,4.092,2.178,4.8,3.41l.66-.264Z" transform="translate(16 578)" fill="#040000"/>
  </g>
</svg>
