<svg id="air02-txt" xmlns="http://www.w3.org/2000/svg" xmlns:xlink="http://www.w3.org/1999/xlink" width="1096.99" height="247.37" viewBox="0 0 1096.99 247.37">
  <defs>
    <linearGradient id="linear-gradient" x1="0.5" y1="0.068" x2="0.5" y2="0.973" gradientUnits="objectBoundingBox">
      <stop offset="0" stop-color="#1c2c5a"/>
      <stop offset="0.47" stop-color="#10203f"/>
      <stop offset="1" stop-color="#00111d"/>
    </linearGradient>
  </defs>
  <g id="グループ_213" data-name="グループ 213" transform="translate(0 -14)">
    <path id="パス_4433" data-name="パス 4433" d="M33.02,190.78a12.488,12.488,0,0,0,8.6,4.2v.16a3.18,3.18,0,0,0-2.14,1.82c-.62-.2-5.08-2.5-6.82-6.08.02.9.04,4.84.08,5.64,0,.1.02.58.02.68a1.032,1.032,0,0,1-1.12.98.49.49,0,0,1-.52-.56c0-.06,0-.22.02-.44.1-1.38.22-3.1.22-5.44a18.056,18.056,0,0,1-8.44,5.28l-.06-.16c3.02-1.22,7.18-5.42,7.58-6.08H27.76c0,.68-.14,1.18-1.04,1.18-.42,0-.5-.2-.5-.44,0-.22.1-1.2.1-1.4.04-.66.06-1.74.06-2.82a12.1,12.1,0,0,0-.26-3.26l1.86.82h3.4c0-.46-.02-1.56-.04-2.06H25.9a13.454,13.454,0,0,0-2.36.18l-.4-.8c1.48.12,2.78.14,3.08.14h5.1a7.515,7.515,0,0,0-.4-2.6l2.08.54c.18.04.34.12.34.28,0,.22-.48.54-.66.66v1.12h5.44l.86-1c.14-.16.22-.26.32-.26s.22.1.36.22l1.22,1c.14.12.2.2.2.3,0,.18-.18.22-.3.22H32.66v2.06h3.42l.66-.58s.16-.14.24-.14a.47.47,0,0,1,.28.14l.9.72a.44.44,0,0,1,.2.32c0,.18-.12.26-.64.58-.02.44-.02,1.02.04,2.5.02.28.12,2.42.12,2.6,0,.64-.58.84-1.02.84-.54,0-.52-.42-.48-1.06H33.02Zm-5.28-5.44v2.16h3.62l.02-2.16H27.74Zm3.62,4.96v-2.32H27.74v2.32Zm5.02,0v-2.32H32.66c0,.32-.02,1.96-.02,2.32Zm0-2.8v-2.16H32.66v2.16Z"/>
    <path id="パス_4434" data-name="パス 4434" d="M43.69,196.86a.878.878,0,0,1-.86-.86c0-.5.44-.84,1.06-1.32a4.7,4.7,0,0,0,1.54-2.14h.12c.02.24.04.5.04.86C45.59,195.26,44.81,196.86,43.69,196.86Zm15.18-11.5c-.26.18-.34.24-.44.32.04,2.02.06,2.8.1,3.6,0,.18.06.92.06,1.08a.852.852,0,0,1-.92.84c-.62,0-.62-.4-.62-.64v-.26H47.79a13.573,13.573,0,0,0-2.36.18l-.38-.8c1.26.1,2.52.14,3.06.14h8.94V187.7H48.09a13.454,13.454,0,0,0-2.36.18l-.4-.78c1.24.1,2.48.12,3.08.12h8.64v-2.04H46.07a15.787,15.787,0,0,1-2.8,1.82l-.06-.08a26.92,26.92,0,0,0,4.9-6.18,2.982,2.982,0,0,0,.28-1.12l1.76.86a.452.452,0,0,1,.28.38c0,.2-.42.34-.74.42-.1.12-.3.36-.46.54h4.46l.72-.6c.12-.1.26-.22.34-.22a.949.949,0,0,1,.42.22l.94.74c.1.08.2.16.2.3,0,.24-.16.26-.76.4-.24.06-.38.16-2.04,1.32-.34.24-.78.54-1.06.72h4.34l.58-.56c.1-.1.24-.24.32-.24.1,0,.22.12.3.18l.86.68c.12.1.22.2.22.32,0,.1-.08.18-.2.28ZM48.79,182.3c-.28.3-1.88,2.08-2.18,2.4h5.36a25.309,25.309,0,0,0,1.48-2.4Zm7.16,15.14c-.68.14-4.56.14-5.72.14-2.2,0-2.36-.42-2.36-2.32,0-3.28,0-3.42-.16-4.12l1.88.6c.12.04.32.16.32.28a.329.329,0,0,1-.16.24c-.06.06-.38.3-.44.36,0,.26-.04,2.94,0,3.26.04.36.44.38.92.38a43.178,43.178,0,0,0,4.48-.14.933.933,0,0,0,.6-.6,18.3,18.3,0,0,0,.6-2.26h.14a6.693,6.693,0,0,0,.76,2.5c.32.3.44.42.44.66s-.22.82-1.3,1.02Zm-2.8-3.24c-.54,0-.64-.24-1.12-1.4a4.49,4.49,0,0,0-1.06-1.6l.08-.12c2.62.74,2.86,1.78,2.86,2.08,0,.46-.18,1.04-.76,1.04Zm6.98,1.62c-.56,0-.62-.14-1.18-1.4a6.209,6.209,0,0,0-1.38-2.22l.02-.04c1.08.18,3.38,1.38,3.38,2.78a.831.831,0,0,1-.84.88Z"/>
    <path id="パス_4435" data-name="パス 4435" d="M76.38,182.82c-3.22,3.38-5.12,5.08-7.66,6.28a19.279,19.279,0,0,1-5.84,1.86l-.08-.16a28.816,28.816,0,0,0,8.12-4.42,23.433,23.433,0,0,0,4.14-4.34H70.52c-.68.74-1.1,1.16-1.64,1.68,1.36.36,2.46.66,2.46,1.84a.824.824,0,0,1-.8.86c-.56,0-.76-.46-1.14-1.36a3.273,3.273,0,0,0-.72-1.14,17.1,17.1,0,0,1-5.22,3.3l-.1-.14c2.98-1.96,6.58-5.7,7.06-7.74l1.76.76a.337.337,0,0,1,.24.28c0,.2-.16.3-.84.4-.22.28-.34.42-.64.78h4.2l.78-.58c.12-.08.2-.16.28-.16a.479.479,0,0,1,.26.14l1.16.86c.1.08.24.24.24.34,0,.22-.22.36-1.48.66Zm2.76,7.38a27.605,27.605,0,0,1-5.9,5.34,20.161,20.161,0,0,1-9.26,2.8l-.04-.18a21.511,21.511,0,0,0,9.6-4.28,19.739,19.739,0,0,0,4.18-4.58H73.26a22.1,22.1,0,0,1-2.5,1.98c.16.04,2.68.72,2.68,2.08a.931.931,0,0,1-.9.94c-.48,0-.52-.14-1-1.3a5.633,5.633,0,0,0-1.06-1.54,18.093,18.093,0,0,1-6.32,2.66l-.14-.14a24.642,24.642,0,0,0,8.64-5.9,5.827,5.827,0,0,0,1.66-2.3l1.62.86c.12.06.24.14.24.28,0,.26-.36.3-.9.34a15.518,15.518,0,0,1-1.5,1.56h4.04l.62-.46c.08-.06.2-.18.3-.18s.16.08.26.16l1.2.98a.429.429,0,0,1,.2.32c0,.18-.14.3-1.26.56Z"/>
    <path id="パス_4436" data-name="パス 4436" d="M97.48,182.24l.64-.94c.1-.16.18-.26.3-.26s.22.08.42.24l1.16.92a.43.43,0,0,1,.2.3c0,.14-.12.22-.3.22H86.2c.02.4.06,2.6.06,2.76,0,5.86-.66,8.96-3.3,11.32l-.12-.08a9.833,9.833,0,0,0,1.5-3.7,32.178,32.178,0,0,0,.52-6.2,41.1,41.1,0,0,0-.34-5.62l1.92,1.04h5.38a7.191,7.191,0,0,0-.36-2.6l2,.52c.16.04.26.1.26.26s-.14.34-.58.56c.02.22.02,1.06,0,1.26h4.34Zm-10.46,8.84c2.36,0,7.96-1.14,9.3-1.88l1.02.8a.38.38,0,0,1,.16.3c0,.12-.06.3-.34.3-.1,0-.3-.04-.46-.06-1.12.22-2.08.4-3.34.58v1.54H95.5l.58-.8c.12-.16.2-.26.32-.26a.673.673,0,0,1,.4.22l.88.8a.481.481,0,0,1,.18.34c0,.12-.12.18-.28.18H93.36v1.4h4.66l.64-.9c.12-.18.22-.28.32-.28a.749.749,0,0,1,.44.24l1.04.9a.479.479,0,0,1,.2.32c0,.12-.1.2-.28.2H93.36c0,.24.02,1.3,0,1.5-.08,1.02-1.4,1.5-2.04,1.6a2.236,2.236,0,0,0-1.66-1.78l.02-.14c.24.02,1.3.08,1.52.08.9,0,.9-.12.92-1.26H88.1a14.243,14.243,0,0,0-2.36.18l-.48-.78c1.36.1,2.8.12,3.08.12h3.78v-1.4h-2.3a14.243,14.243,0,0,0-2.36.18l-.48-.8c1.38.12,2.8.14,3.08.14h2.06v-1.38a25.171,25.171,0,0,1-2.74.16,13.27,13.27,0,0,1-2.36-.2Zm-.2-6.34c.62.06,1.28.12,2.94.14a6.457,6.457,0,0,0-.28-1.9l1.58.4c.14.04.24.12.24.24,0,.16-.1.24-.44.4,0,.34-.02.46-.02.86h.72l.28-.46c.12-.2.18-.28.3-.28.1,0,.22.1.36.24l.46.46a.613.613,0,0,1,.2.34c0,.08-.1.18-.32.18h-2v.4c.76.1,1.82.6,1.82,1.4a.631.631,0,0,1-.6.7c-.42,0-.5-.24-.7-.9a2.662,2.662,0,0,0-.52-1c.02.5.1,3.12.1,3.18a.682.682,0,0,1-.76.8c-.5,0-.54-.28-.54-.66,0-.06.12-2.68.14-3.18a10.036,10.036,0,0,1-3.26,3.14l-.1-.14a16.438,16.438,0,0,0,2.54-3.72,13.154,13.154,0,0,0-1.76.16l-.38-.8Zm6.62-.04c.44.04.8.08,1.8.12a6.965,6.965,0,0,0-.24-1.86l1.5.38c.18.04.34.12.34.24,0,.16-.18.34-.48.5-.02.18,0,.4,0,.76h1.9l.42-.66c.1-.16.2-.26.32-.26s.22.08.38.22l.74.66a.41.41,0,0,1,.18.3c0,.14-.1.22-.28.22H96.76a7.822,7.822,0,0,0,4.6,2.34v.12A2.765,2.765,0,0,0,99.82,189a8.923,8.923,0,0,1-3.38-3.68h-.08c0,.5.06,2.62.06,3.1,0,.26,0,.74-.78.74-.36,0-.46-.2-.46-.56,0-.18.06-.98.06-1.14.02-.52.02-.86.02-1.12a8.909,8.909,0,0,1-3.32,2.7l-.04-.14a15.946,15.946,0,0,0,2.8-3.52,7.428,7.428,0,0,0-.86.12l-.4-.8Z"/>
    <path id="パス_4437" data-name="パス 4437" d="M107.41,182.2c.04,1.56.06,2.88.06,3.64,0,4.2-.06,9.6-4.18,11.68l-.08-.1c2-2.1,2.84-4.52,2.84-10.7a46.108,46.108,0,0,0-.3-6.04l2.06.54c.26.06.4.2.4.36s-.14.36-.8.62Zm5.34.3c-.02.58-.04,1.7-.04,3.44,0,2.52.16,6.54.16,9.06a.949.949,0,0,1-1.06.98c-.56,0-.58-.38-.58-.64,0-.2.1-2.04.1-2.34.04-1.4.08-2.58.08-6.34a33.219,33.219,0,0,0-.3-5.56l1.94.5c.18.04.34.16.34.28C113.39,182.06,113.27,182.22,112.75,182.5Zm6.12-.46c-.06,2.72-.06,4.5-.06,5.66,0,1.38.14,7.54.14,8.8a.977.977,0,0,1-1.08,1.14.553.553,0,0,1-.62-.64c0-.4.08-2.12.1-2.48.06-2.34.08-4.68.08-7,0-3.42-.02-4.66-.12-5.64a6.509,6.509,0,0,0-.24-1.38l2.14.66c.22.06.34.18.34.3,0,.24-.2.38-.68.58Z"/>
    <path id="パス_4438" data-name="パス 4438" d="M122.97,197.06a23.259,23.259,0,0,0,1.46-6.14,3.906,3.906,0,0,0-.06-.68l1.76.66c.08.04.22.1.22.26,0,.18-.06.22-.52.54a16.347,16.347,0,0,1-2.72,5.42l-.14-.06Zm7.96-13.82a.323.323,0,0,1,.14.28c0,.24-.2.3-.84.44-.68.92-1.74,2.32-3.52,4.32.1-.02,1.46-.06,2.5-.16a11.863,11.863,0,0,0-.72-1.42l.1-.14c1.08.46,2.44,1.34,2.44,2.38a.826.826,0,0,1-.8.9c-.52,0-.54-.16-.92-1.44-.3.1-.64.2-1.42.42.02,2.76,0,4.18.04,5.88,0,.36.06,1.9.06,2.22,0,.3,0,1.1-.9,1.1a.528.528,0,0,1-.56-.62c0-.92.16-6.96.18-8.28-.5.12-1.14.28-2.56.56-.28.3-.3.34-.46.34-.14,0-.24-.14-.28-.28l-.42-1.7a6.025,6.025,0,0,0,1.86.3c.12,0,1.2-.04,1.36-.06,1.32-1.96,3.02-4.94,3-6.16l1.72,1.12Zm-7.18-.2a4.75,4.75,0,0,1,2.08.64,12.619,12.619,0,0,0,.86-3.92l1.92,1a.32.32,0,0,1,.2.26c0,.2-.18.28-.88.56-.72.98-.98,1.28-1.82,2.28a1.862,1.862,0,0,1,.88,1.42.845.845,0,0,1-.76.92c-.5,0-.68-.42-.82-.72a6.358,6.358,0,0,0-1.72-2.3l.06-.14Zm4.62,7.72c1.34.48,2.36,1.42,2.36,2.24a.774.774,0,0,1-.76.86c-.56,0-.66-.32-.96-1.4a4.15,4.15,0,0,0-.76-1.58l.12-.12Zm3.1.34a4.706,4.706,0,0,0-1,.08l-.28-.64c.74.06,1.34.08,1.52.08h.62l.38-.46s.14-.16.26-.16a.6.6,0,0,1,.3.18l.8.76c.08.08.22.2.22.34,0,.16-.06.24-.66.46a10.206,10.206,0,0,1-4.68,5.12l-.04-.12a12.874,12.874,0,0,0,3.46-5.64h-.9Zm4.16-2.62.36.12c.14.04.44.16.44.36,0,.24-.36.44-.52.52a7.1,7.1,0,0,0,1.16,2.74,7.884,7.884,0,0,0,2.16-2.72l1.38,1.38a.683.683,0,0,1,.1.26c0,.04-.02.26-.32.26-.06,0-.32-.02-.52-.04a27.609,27.609,0,0,1-2.68,1.06,8.23,8.23,0,0,0,4.84,3.26v.16a2.687,2.687,0,0,0-2.02,1.28,11.1,11.1,0,0,1-4.06-5.94c0,.74.12,4,.12,4.66,0,.48,0,1.86-2,2.22-.22-.64-.44-1.26-2.06-1.94l.02-.16c.32.04,1.66.12,1.92.12.8,0,.82-.16.82-.76v-5.4a9.071,9.071,0,0,0-.06-1.44h-1.6a.733.733,0,0,1-.8.82c-.44,0-.64-.16-.64-.52,0-.28.1-2.9.1-3.44a31.856,31.856,0,0,0-.18-3.98l1.62.86h1.2a7.524,7.524,0,0,0,.18-1.66,4.64,4.64,0,0,0-.1-.98l1.88.6c.16.06.34.14.34.34,0,.26-.2.32-.72.42a14.492,14.492,0,0,1-1.08,1.28h2.72l.54-.62a.631.631,0,0,1,.34-.22.593.593,0,0,1,.3.14l.94.7c.12.08.26.22.26.34,0,.18-.08.22-.74.7,0,.82.18,4.68.18,5.12a.836.836,0,0,1-.94.88c-.54,0-.54-.32-.52-.78h-2.36Zm-2.54-5.78v2.4h4.9v-2.4Zm4.9,5.3v-2.42h-4.9V188Z"/>
    <path id="パス_4439" data-name="パス 4439" d="M150.77,185.92l.68-.92c.1-.14.22-.26.32-.26.12,0,.28.14.38.22l1.02.9a.44.44,0,0,1,.2.32c0,.2-.18.22-.3.22h-3.94c0,.4.02.86.02,1.26.86.36,3.26,1.7,3.26,3.12a.932.932,0,0,1-.86,1.02c-.34,0-.54-.12-.88-1.08a8.208,8.208,0,0,0-1.52-2.6c.02,1.24.06,6.7.08,7.8,0,.2.06,1.08.06,1.26,0,.62-.7.88-1.14.88a.5.5,0,0,1-.5-.56c0-.32.12-1.76.14-2.04.04-1.2.08-3.5.1-6.7a14.565,14.565,0,0,1-5.04,5.3l-.08-.1a28.608,28.608,0,0,0,4.82-7.56h-1.62a13.377,13.377,0,0,0-2.34.18l-.4-.8c1.48.12,2.78.14,3.08.14h1.58v-3.16a24.237,24.237,0,0,1-4.42.54v-.12a30.642,30.642,0,0,0,6.34-2.26,2.266,2.266,0,0,0,1-.82l1.44,1.34a.365.365,0,0,1,.16.26c0,.14-.12.24-.3.24-.12,0-.64-.06-.96-.1a15.039,15.039,0,0,1-2.02.64v3.44h1.64Zm5.28-3.46c.08.02.34.14.34.3,0,.14-.06.18-.62.7-.02.38-.02.78-.02,1.46,0,1.86.1,5.74.12,7.08,0,.26.02.6.02.76a1.055,1.055,0,0,1-1.04,1.02.437.437,0,0,1-.5-.5c0-.12.02-.3.02-.4.14-1.38.12-5.34.12-6.94,0-2.64-.02-3.08-.32-4.12l1.88.64Zm4.32-1.38c.14.04.3.1.3.3,0,.16-.08.22-.68.66-.04,1.36,0,6.78.04,8.34.04,1.52.1,4.32.1,4.58,0,1.06,0,2.36-2.86,2.76-.08-.52-.18-1.24-1.8-1.98l.02-.1c.44.04,1.76.12,2.24.12.98,0,.98-.28.98-1.16,0-2.28-.08-10.3-.12-12.14a6.445,6.445,0,0,0-.3-2.06l2.08.68Z"/>
    <path id="パス_4440" data-name="パス 4440" d="M177.32,181.26l.7-.6c.16-.14.24-.18.3-.18a.657.657,0,0,1,.32.14l1,.72a.445.445,0,0,1,.2.3c0,.22-.26.42-.84.76-.04.76-.04.84-.04,2.98,0,1.52.06,8.2.06,9.56,0,1.2,0,2.34-2.34,2.82a3.122,3.122,0,0,0-1.88-2.04l.04-.16a15.5,15.5,0,0,0,1.92.14c.8,0,.8-.16.8-1.58,0-.4,0-2.5.02-2.8h-4.76c0,1.16.02,2.92.08,4.56.02.28.02.56.02.66,0,.42,0,1.22-1.12,1.22-.6,0-.62-.42-.62-.68,0-.16.02-.66.04-.84.16-2.42.18-4.22.18-4.92h-4.42a8.9,8.9,0,0,1-4.08,6.38l-.16-.16c3-2.76,3.14-7.58,3.14-12.96a19.845,19.845,0,0,0-.32-4.26l1.98.94h9.78ZM167.3,186.4c0,1.16-.1,3.4-.24,4.44h4.36l.04-4.44H167.3Zm0-4.66v4.18h4.16v-4.18Zm10.28,9.1.02-4.44h-4.74l-.04,4.44Zm.02-4.92.02-4.18h-4.76v4.18h4.74Z"/>
    <path id="パス_4441" data-name="パス 4441" d="M186.89,197.34c-.64,0-.8-.52-1-1.18a7.789,7.789,0,0,0-2.62-3.84l.06-.18a8.474,8.474,0,0,1,3.18,1.58,3.639,3.639,0,0,1,1.36,2.46,1.077,1.077,0,0,1-.98,1.16Z"/>
    <path id="パス_4442" data-name="パス 4442" d="M205.06,180.8v17.34h-.84v-18.2h6.64v.86Z"/>
    <path id="パス_4443" data-name="パス 4443" d="M223.24,181.9a5.161,5.161,0,0,0-.28-1.98l1.9.46c.16.04.28.1.28.28,0,.26-.12.32-.58.58v.66h3.52l.64-.9c.06-.1.18-.26.3-.26.1,0,.26.14.36.22l1.16.9a.376.376,0,0,1,.2.3c0,.2-.18.22-.3.22h-5.88a4.175,4.175,0,0,1,0,1.18c-.08.34-.5.48-.86.48-.26,0-.46-.12-.48-.38,0-.08-.02-.86,0-1.28h-3.44c0,.24.06,1.3.06,1.52,0,.48-.52.64-.96.64-.3,0-.42-.16-.42-.56,0-.26.04-1.38.04-1.6h-2.32a14.125,14.125,0,0,0-2.34.18l-.4-.8c1.02.1,2.04.14,3.06.14h1.98a5.113,5.113,0,0,0-.3-1.94l1.96.44a.258.258,0,0,1,.24.24c0,.3-.18.4-.58.64-.02.32-.02.42-.02.62h3.46Zm-9.72,5.68c2.8.24,2.8,1.48,2.8,1.68a.721.721,0,0,1-.72.78c-.44,0-.56-.2-1.02-.98a3.623,3.623,0,0,0-1.08-1.34Zm4.68-.1a32.617,32.617,0,0,1-1.44,4.64,10.057,10.057,0,0,0-.7,2.4,3.063,3.063,0,0,0,.38,1.14,3.091,3.091,0,0,1,.3,1.28c0,.36-.08,1.16-.92,1.16s-.88-.84-.88-1.26a10.091,10.091,0,0,0-.06-1.76,2.206,2.206,0,0,0-1.26-1.54v-.16c1.16.04,1.14.02,1.82-1.1.2-.34,1.34-2.26,2.64-4.88l.12.08Zm-2.9-3.54c.98.14,2.7.4,2.7,1.72a.707.707,0,0,1-.74.72c-.54,0-.74-.44-.94-.86a3.626,3.626,0,0,0-1.04-1.44Zm13.48,1.76.58-.84c.1-.14.2-.28.32-.28a.635.635,0,0,1,.36.22l.94.86c.12.1.2.18.2.3,0,.2-.18.22-.32.22H224.8v1.74h2.82l.52-.54a.37.37,0,0,1,.24-.16.915.915,0,0,1,.44.22l.82.7a.54.54,0,0,1,.2.34c0,.2-.28.36-.7.6-.04.9,0,2.56.04,4.66,0,.36.08,1.88.08,2.2,0,.6,0,1.68-2,2.08a2.521,2.521,0,0,0-1.36-1.8v-.12c.52.04,1,.04,1.3.04.64,0,.66-.1.66-.54v-2.16h-3.02c0,.6.08,3.22.08,3.76,0,.26,0,.92-.92.92-.54,0-.54-.32-.54-.64,0-.48.04-2.6.04-3.04v-1h-2.68c.02.78.06,2.52.06,3.24,0,.5,0,1.16-1,1.16-.4,0-.5-.14-.5-.82,0-.08.1-4.56.1-5.22a38.148,38.148,0,0,0-.18-4.66l1.7.78h2.5c0-.1-.02-1.68-.02-1.74H221.2a13.454,13.454,0,0,0-2.36.18l-.4-.8c1.46.12,2.74.14,3.08.14h1.96a5.543,5.543,0,0,0-.2-1.58l1.92.48c.12.04.24.1.24.26,0,.24-.16.32-.64.56v.28h3.98Zm-5.28,4.76V188.4h-2.68v2.06Zm0,2.5v-2.02h-2.68v2.02Zm1.3-4.56v2.06h3.06V188.4Zm0,2.54c0,.46.02,1.46.04,2.02h3.02v-2.02Zm.82-7.68c.78.02,2.6.08,2.6,1.26a.661.661,0,0,1-.72.68c-.38,0-.46-.12-.92-.78a3.077,3.077,0,0,0-.96-1.04Z"/>
    <path id="パス_4444" data-name="パス 4444" d="M247.66,181.98l.56-.52c.12-.1.18-.22.3-.22a.593.593,0,0,1,.3.14l1.08.8c.12.1.22.18.22.34,0,.28-.66.58-.84.66-.06,1.96-.02,7.7.08,10.96,0,.3.12,1.72.12,2a1.042,1.042,0,0,1-1.14,1.04c-.64,0-.6-.36-.56-1.16H236.46c0,.12,0,.72-.02.8-.14.46-.74.62-1.08.62a.532.532,0,0,1-.6-.56c0-.24.06-1.26.06-1.48.08-2.9.14-5.8.14-8.68a31.182,31.182,0,0,0-.28-5.78l1.9,1.04Zm-11.2.48v6.2h4.9v-6.2Zm0,6.68v6.4h4.9v-6.4Zm11.32-.48v-6.2h-5.04v6.2Zm0,6.88v-6.4h-5.04v6.4Z"/>
    <path id="パス_4445" data-name="パス 4445" d="M253.33,197.98v-.86h5.8V179.78h.84v18.2Z"/>
    <path id="パス_4446" data-name="パス 4446" d="M273.73,196.46a.654.654,0,0,1-.66-.74,22.109,22.109,0,0,1,.76-2.3,2.591,2.591,0,0,0,.04-.86l.18-.02a4.411,4.411,0,0,1,.74,2.38c0,.54-.16,1.54-1.06,1.54Zm7.38-5.82a17.417,17.417,0,0,1-1.22,5.52,2.907,2.907,0,0,1-2.16,1.66,2.844,2.844,0,0,0-1.64-1.98l.04-.14a10.643,10.643,0,0,0,1.94.22c.4,0,.56-.04.78-.52a16.344,16.344,0,0,0,.88-5.22h-4.46a.808.808,0,0,1-.86.98c-.4,0-.5-.2-.5-.54,0-.12.04-.6.04-.7.08-1.26.1-4.74.1-6.12a21.359,21.359,0,0,0-.2-3.32l1.5.74h3.72l.48-.58c.14-.16.24-.26.34-.26.12,0,.22.1.4.22l.78.58a.487.487,0,0,1,.22.32c0,.14-.18.2-.32.2h-2.76v2.32h.86l.38-.48c.16-.2.22-.28.32-.28s.22.1.4.22l.64.48c.1.08.22.18.22.32,0,.18-.18.22-.32.22h-2.5v2.3h.88l.48-.56c.14-.16.22-.24.32-.24.12,0,.2.06.36.2l.6.56a.481.481,0,0,1,.18.32c0,.12-.12.2-.3.2h-2.52v2.42h1.34l.52-.58c.12-.14.22-.24.32-.24s.22.08.4.26l.78.72a.378.378,0,0,1,.14.26c0,.24-.46.46-.6.52Zm-5.06,4.96c-.66,0-.66-.84-.66-1.26a5.411,5.411,0,0,0-.22-2.2l.12-.06c.14.16.86.88.96,1.06a2.882,2.882,0,0,1,.56,1.54.873.873,0,0,1-.76.92Zm.96-13.9h-1.76v2.32h1.76Zm0,2.8h-1.76v2.3h1.76Zm0,2.78h-1.76v2.42h1.76Zm.7,7.02c-.52,0-.58-.34-.74-1.48a5.443,5.443,0,0,0-.38-1.46l.08-.06c1.06.92,1.66,1.46,1.66,2.24A.7.7,0,0,1,277.71,194.3Zm1.12-1.48c-.4,0-.48-.32-.7-1.12a2.52,2.52,0,0,0-.46-.92l.12-.12c.94.44,1.54.86,1.54,1.52,0,.32-.18.64-.5.64Zm13.24,3.68a2.973,2.973,0,0,0-1.9,1.18c-2.24-1.82-3.9-5.26-3.9-9.98h-2.14c-.2,4.92-1.18,7.94-4.1,10.04l-.1-.08c2.8-3.04,2.9-8.62,2.9-12.78a18.423,18.423,0,0,0-.34-4.24l1.9.84h4.12l.58-.56a.481.481,0,0,1,.32-.18c.1,0,.18.04.34.18l.8.68a.412.412,0,0,1,.18.32c0,.14-.38.42-.62.58-.02.34-.04.72-.04,1.26,0,.64.12,3.44.12,4.06s-.62.8-.94.8c-.64,0-.6-.44-.58-.92h-2.04c.46,4.36,3.34,7.82,5.46,8.68l-.02.12Zm-3.38-14.54h-4.44c-.02.76-.1,4.44-.1,5.26h4.54Z"/>
    <path id="パス_4447" data-name="パス 4447" d="M293.45,198l-.4-.4,17.68-17.68.4.4Z"/>
    <path id="パス_4448" data-name="パス 4448" d="M325.06,180.8v17.34h-.84v-18.2h6.64v.86h-5.8Z"/>
    <path id="パス_4449" data-name="パス 4449" d="M339.29,193.56a16.029,16.029,0,0,1-6.4,4.14l-.06-.14c1.8-1.1,4.88-4.04,5.42-5.82l1.66,1.26a.376.376,0,0,1,.2.3c0,.26-.2.28-.82.26Zm11.58-10.36H335.83a12.339,12.339,0,0,0-2.34.2l-.4-.8c1.36.12,2.78.12,3.08.12h5.2a7.146,7.146,0,0,0-.42-2.96l2.22.5c.14.04.34.1.34.26,0,.22-.18.32-.68.6-.02.66-.02.76-.02,1.6h5.14l.92-.98c.16-.18.2-.26.3-.26a1.054,1.054,0,0,1,.42.22l1.38.98a.472.472,0,0,1,.2.32c0,.18-.18.2-.3.2Zm-3.58,3.36c0,.42,0,.92.02,1.84.02.36.12,1.9.12,2.2a.981.981,0,0,1-.98.94c-.56,0-.56-.28-.52-1h-3c0,.86.06,4.64.06,5.42,0,.72,0,1.9-2.1,2.38-.16-1.3-1.88-2.06-2.24-2.22l.02-.14a16.156,16.156,0,0,0,2.32.26c.58,0,.6-.12.6-.94v-4.76h-3.5c.04.56.08,1.26-.96,1.26-.44,0-.54-.24-.54-.54,0-.08.02-.34.02-.44.02-.6.06-2.46.06-3.18a12.2,12.2,0,0,0-.2-3.2l1.86,1.04h7.44l.6-.66a.409.409,0,0,1,.26-.16.467.467,0,0,1,.28.14l.94.76c.2.16.24.22.24.32,0,.26-.16.32-.8.68Zm-1.36-.6h-7.84v4.1h7.84Zm3.2,11.12c-.54,0-.64-.18-1.48-1.4a9.52,9.52,0,0,0-3.02-3.16l.04-.14c2.06.34,5.22,1.98,5.22,3.82a.816.816,0,0,1-.76.88Z"/>
    <path id="パス_4450" data-name="パス 4450" d="M353.69,196.86a.878.878,0,0,1-.86-.86c0-.5.44-.84,1.06-1.32a4.7,4.7,0,0,0,1.54-2.14h.12c.02.24.04.5.04.86,0,1.86-.78,3.46-1.9,3.46Zm15.18-11.5c-.26.18-.34.24-.44.32.04,2.02.06,2.8.1,3.6,0,.18.06.92.06,1.08a.852.852,0,0,1-.92.84c-.62,0-.62-.4-.62-.64v-.26h-9.26a13.573,13.573,0,0,0-2.36.18l-.38-.8c1.26.1,2.52.14,3.06.14h8.94V187.7h-8.96a13.454,13.454,0,0,0-2.36.18l-.4-.78c1.24.1,2.48.12,3.08.12h8.64v-2.04H356.07a15.787,15.787,0,0,1-2.8,1.82l-.06-.08a26.92,26.92,0,0,0,4.9-6.18,2.982,2.982,0,0,0,.28-1.12l1.76.86a.452.452,0,0,1,.28.38c0,.2-.42.34-.74.42-.1.12-.3.36-.46.54h4.46l.72-.6c.12-.1.26-.22.34-.22a.949.949,0,0,1,.42.22l.94.74c.1.08.2.16.2.3,0,.24-.16.26-.76.4-.24.06-.38.16-2.04,1.32-.34.24-.78.54-1.06.72h4.34l.58-.56c.1-.1.24-.24.32-.24.1,0,.22.12.3.18l.86.68c.12.1.22.2.22.32,0,.1-.08.18-.2.28Zm-10.08-3.06c-.28.3-1.88,2.08-2.18,2.4h5.36a25.311,25.311,0,0,0,1.48-2.4Zm7.16,15.14c-.68.14-4.56.14-5.72.14-2.2,0-2.36-.42-2.36-2.32,0-3.28,0-3.42-.16-4.12l1.88.6c.12.04.32.16.32.28a.329.329,0,0,1-.16.24c-.06.06-.38.3-.44.36,0,.26-.04,2.94,0,3.26.04.36.44.38.92.38a43.178,43.178,0,0,0,4.48-.14.934.934,0,0,0,.6-.6,18.3,18.3,0,0,0,.6-2.26h.14a6.693,6.693,0,0,0,.76,2.5c.32.3.44.42.44.66s-.22.82-1.3,1.02Zm-2.8-3.24c-.54,0-.64-.24-1.12-1.4a4.49,4.49,0,0,0-1.06-1.6l.08-.12c2.62.74,2.86,1.78,2.86,2.08,0,.46-.18,1.04-.76,1.04Zm6.98,1.62c-.56,0-.62-.14-1.18-1.4a6.209,6.209,0,0,0-1.38-2.22l.02-.04c1.08.18,3.38,1.38,3.38,2.78a.831.831,0,0,1-.84.88Z"/>
    <path id="パス_4451" data-name="パス 4451" d="M383.24,181.9a5.161,5.161,0,0,0-.28-1.98l1.9.46c.16.04.28.1.28.28,0,.26-.12.32-.58.58v.66h3.52l.64-.9c.06-.1.18-.26.3-.26.1,0,.26.14.36.22l1.16.9a.376.376,0,0,1,.2.3c0,.2-.18.22-.3.22h-5.88a4.174,4.174,0,0,1,0,1.18c-.08.34-.5.48-.86.48-.26,0-.46-.12-.48-.38,0-.08-.02-.86,0-1.28h-3.44c0,.24.06,1.3.06,1.52,0,.48-.52.64-.96.64-.3,0-.42-.16-.42-.56,0-.26.04-1.38.04-1.6h-2.32a14.125,14.125,0,0,0-2.34.18l-.4-.8c1.02.1,2.04.14,3.06.14h1.98a5.114,5.114,0,0,0-.3-1.94l1.96.44a.258.258,0,0,1,.24.24c0,.3-.18.4-.58.64-.02.32-.02.42-.02.62h3.46Zm-9.72,5.68c2.8.24,2.8,1.48,2.8,1.68a.721.721,0,0,1-.72.78c-.44,0-.56-.2-1.02-.98a3.623,3.623,0,0,0-1.08-1.34Zm4.68-.1a32.619,32.619,0,0,1-1.44,4.64,10.057,10.057,0,0,0-.7,2.4,3.064,3.064,0,0,0,.38,1.14,3.091,3.091,0,0,1,.3,1.28c0,.36-.08,1.16-.92,1.16s-.88-.84-.88-1.26a10.092,10.092,0,0,0-.06-1.76,2.206,2.206,0,0,0-1.26-1.54v-.16c1.16.04,1.14.02,1.82-1.1.2-.34,1.34-2.26,2.64-4.88l.12.08Zm-2.9-3.54c.98.14,2.7.4,2.7,1.72a.707.707,0,0,1-.74.72c-.54,0-.74-.44-.94-.86a3.626,3.626,0,0,0-1.04-1.44Zm13.48,1.76.58-.84c.1-.14.2-.28.32-.28a.635.635,0,0,1,.36.22l.94.86c.12.1.2.18.2.3,0,.2-.18.22-.32.22H384.8v1.74h2.82l.52-.54a.37.37,0,0,1,.24-.16.915.915,0,0,1,.44.22l.82.7a.54.54,0,0,1,.2.34c0,.2-.28.36-.7.6-.04.9,0,2.56.04,4.66,0,.36.08,1.88.08,2.2,0,.6,0,1.68-2,2.08a2.521,2.521,0,0,0-1.36-1.8v-.12c.52.04,1,.04,1.3.04.64,0,.66-.1.66-.54v-2.16h-3.02c0,.6.08,3.22.08,3.76,0,.26,0,.92-.92.92-.54,0-.54-.32-.54-.64,0-.48.04-2.6.04-3.04v-1h-2.68c.02.78.06,2.52.06,3.24,0,.5,0,1.16-1,1.16-.4,0-.5-.14-.5-.82,0-.08.1-4.56.1-5.22a38.148,38.148,0,0,0-.18-4.66l1.7.78h2.5c0-.1-.02-1.68-.02-1.74H381.2a13.454,13.454,0,0,0-2.36.18l-.4-.8c1.46.12,2.74.14,3.08.14h1.96a5.542,5.542,0,0,0-.2-1.58l1.92.48c.12.04.24.1.24.26,0,.24-.16.32-.64.56v.28h3.98Zm-5.28,4.76V188.4h-2.68v2.06Zm0,2.5v-2.02h-2.68v2.02Zm1.3-4.56v2.06h3.06V188.4Zm0,2.54c0,.46.02,1.46.04,2.02h3.02v-2.02Zm.82-7.68c.78.02,2.6.08,2.6,1.26a.661.661,0,0,1-.72.68c-.38,0-.46-.12-.92-.78a3.077,3.077,0,0,0-.96-1.04Z"/>
    <path id="パス_4452" data-name="パス 4452" d="M407.66,181.98l.56-.52c.12-.1.18-.22.3-.22a.593.593,0,0,1,.3.14l1.08.8c.12.1.22.18.22.34,0,.28-.66.58-.84.66-.06,1.96-.02,7.7.08,10.96,0,.3.12,1.72.12,2a1.042,1.042,0,0,1-1.14,1.04c-.64,0-.6-.36-.56-1.16H396.46c0,.12,0,.72-.02.8-.14.46-.74.62-1.08.62a.532.532,0,0,1-.6-.56c0-.24.06-1.26.06-1.48.08-2.9.14-5.8.14-8.68a31.182,31.182,0,0,0-.28-5.78l1.9,1.04h11.08Zm-11.2.48v6.2h4.9v-6.2Zm0,6.68v6.4h4.9v-6.4Zm11.32-.48v-6.2h-5.04v6.2Zm0,6.88v-6.4h-5.04v6.4Z"/>
    <path id="パス_4453" data-name="パス 4453" d="M413.33,197.98v-.86h5.8V179.78h.84v18.2h-6.64Z"/>
    <path id="パス_4454" data-name="パス 4454" d="M433.73,196.46a.654.654,0,0,1-.66-.74,22.109,22.109,0,0,1,.76-2.3,2.591,2.591,0,0,0,.04-.86l.18-.02a4.411,4.411,0,0,1,.74,2.38c0,.54-.16,1.54-1.06,1.54Zm7.38-5.82a17.417,17.417,0,0,1-1.22,5.52,2.907,2.907,0,0,1-2.16,1.66,2.844,2.844,0,0,0-1.64-1.98l.04-.14a10.643,10.643,0,0,0,1.94.22c.4,0,.56-.04.78-.52a16.344,16.344,0,0,0,.88-5.22h-4.46a.808.808,0,0,1-.86.98c-.4,0-.5-.2-.5-.54,0-.12.04-.6.04-.7.08-1.26.1-4.74.1-6.12a21.359,21.359,0,0,0-.2-3.32l1.5.74h3.72l.48-.58c.14-.16.24-.26.34-.26.12,0,.22.1.4.22l.78.58a.487.487,0,0,1,.22.32c0,.14-.18.2-.32.2h-2.76v2.32h.86l.38-.48c.16-.2.22-.28.32-.28s.22.1.4.22l.64.48c.1.08.22.18.22.32,0,.18-.18.22-.32.22h-2.5v2.3h.88l.48-.56c.14-.16.22-.24.32-.24.12,0,.2.06.36.2l.6.56a.481.481,0,0,1,.18.32c0,.12-.12.2-.3.2h-2.52v2.42h1.34l.52-.58c.12-.14.22-.24.32-.24s.22.08.4.26l.78.72a.378.378,0,0,1,.14.26c0,.24-.46.46-.6.52Zm-5.06,4.96c-.66,0-.66-.84-.66-1.26a5.411,5.411,0,0,0-.22-2.2l.12-.06c.14.16.86.88.96,1.06a2.882,2.882,0,0,1,.56,1.54.873.873,0,0,1-.76.92Zm.96-13.9h-1.76v2.32h1.76Zm0,2.8h-1.76v2.3h1.76Zm0,2.78h-1.76v2.42h1.76Zm.7,7.02c-.52,0-.58-.34-.74-1.48a5.443,5.443,0,0,0-.38-1.46l.08-.06c1.06.92,1.66,1.46,1.66,2.24A.7.7,0,0,1,437.71,194.3Zm1.12-1.48c-.4,0-.48-.32-.7-1.12a2.52,2.52,0,0,0-.46-.92l.12-.12c.94.44,1.54.86,1.54,1.52,0,.32-.18.64-.5.64Zm13.24,3.68a2.973,2.973,0,0,0-1.9,1.18c-2.24-1.82-3.9-5.26-3.9-9.98h-2.14c-.2,4.92-1.18,7.94-4.1,10.04l-.1-.08c2.8-3.04,2.9-8.62,2.9-12.78a18.423,18.423,0,0,0-.34-4.24l1.9.84h4.12l.58-.56a.481.481,0,0,1,.32-.18c.1,0,.18.04.34.18l.8.68a.412.412,0,0,1,.18.32c0,.14-.38.42-.62.58-.02.34-.04.72-.04,1.26,0,.64.12,3.44.12,4.06s-.62.8-.94.8c-.64,0-.6-.44-.58-.92h-2.04c.46,4.36,3.34,7.82,5.46,8.68l-.02.12Zm-3.38-14.54h-4.44c-.02.76-.1,4.44-.1,5.26h4.54Z"/>
    <path id="パス_4455" data-name="パス 4455" d="M468.56,183.6c-2.56,0-3.32,0-4.66.8a7.525,7.525,0,0,0-3.38,5.96c0,3.34,3.52,4.12,5.32,4.52.3.06,1.14.24,1.14,1.1,0,.52-.5.56-.76.56-2.06,0-6.68-1.52-6.68-5.92a7.164,7.164,0,0,1,1.64-4.48,14.227,14.227,0,0,1,2.76-2.5,35.023,35.023,0,0,0-7.08,2.14c-.86.5-.96.54-1.28.54a1.719,1.719,0,0,1-1.46-1.76,1.776,1.776,0,0,1,.28-1.02c.38.6.68,1.06,1.56,1.06a15.691,15.691,0,0,0,2.94-.58c2.38-.58,6.22-1.44,8.6-2.02a4.19,4.19,0,0,1,.64-.1c.3,0,1.6.38,1.6,1.06,0,.64-.62.64-1.18.64Zm-.56,5.08c-.34,0-.4-.08-.88-.92a10.689,10.689,0,0,0-1.88-2.2c1.34.28,3.3,1.16,3.3,2.42,0,.34-.12.7-.54.7Zm2.34-.92c-.3,0-.36-.1-.94-.98a9.278,9.278,0,0,0-2.04-1.92c1.28.12,3.52.94,3.52,2.26a.566.566,0,0,1-.54.64Z"/>
    <path id="パス_4456" data-name="パス 4456" d="M479.29,193.56a16.029,16.029,0,0,1-6.4,4.14l-.06-.14c1.8-1.1,4.88-4.04,5.42-5.82l1.66,1.26a.376.376,0,0,1,.2.3c0,.26-.2.28-.82.26Zm11.58-10.36H475.83a12.339,12.339,0,0,0-2.34.2l-.4-.8c1.36.12,2.78.12,3.08.12h5.2a7.146,7.146,0,0,0-.42-2.96l2.22.5c.14.04.34.1.34.26,0,.22-.18.32-.68.6-.02.66-.02.76-.02,1.6h5.14l.92-.98c.16-.18.2-.26.3-.26a1.054,1.054,0,0,1,.42.22l1.38.98a.472.472,0,0,1,.2.32c0,.18-.18.2-.3.2Zm-3.58,3.36c0,.42,0,.92.02,1.84.02.36.12,1.9.12,2.2a.981.981,0,0,1-.98.94c-.56,0-.56-.28-.52-1h-3c0,.86.06,4.64.06,5.42,0,.72,0,1.9-2.1,2.38-.16-1.3-1.88-2.06-2.24-2.22l.02-.14a16.156,16.156,0,0,0,2.32.26c.58,0,.6-.12.6-.94v-4.76h-3.5c.04.56.08,1.26-.96,1.26-.44,0-.54-.24-.54-.54,0-.08.02-.34.02-.44.02-.6.06-2.46.06-3.18a12.2,12.2,0,0,0-.2-3.2l1.86,1.04h7.44l.6-.66a.409.409,0,0,1,.26-.16.467.467,0,0,1,.28.14l.94.76c.2.16.24.22.24.32,0,.26-.16.32-.8.68Zm-1.36-.6h-7.84v4.1h7.84Zm3.2,11.12c-.54,0-.64-.18-1.48-1.4a9.52,9.52,0,0,0-3.02-3.16l.04-.14c2.06.34,5.22,1.98,5.22,3.82a.816.816,0,0,1-.76.88Z"/>
    <path id="パス_4457" data-name="パス 4457" d="M493.69,196.86a.878.878,0,0,1-.86-.86c0-.5.44-.84,1.06-1.32a4.7,4.7,0,0,0,1.54-2.14h.12c.02.24.04.5.04.86,0,1.86-.78,3.46-1.9,3.46Zm15.18-11.5c-.26.18-.34.24-.44.32.04,2.02.06,2.8.1,3.6,0,.18.06.92.06,1.08a.852.852,0,0,1-.92.84c-.62,0-.62-.4-.62-.64v-.26h-9.26a13.573,13.573,0,0,0-2.36.18l-.38-.8c1.26.1,2.52.14,3.06.14h8.94V187.7h-8.96a13.454,13.454,0,0,0-2.36.18l-.4-.78c1.24.1,2.48.12,3.08.12h8.64v-2.04H496.07a15.787,15.787,0,0,1-2.8,1.82l-.06-.08a26.92,26.92,0,0,0,4.9-6.18,2.982,2.982,0,0,0,.28-1.12l1.76.86a.452.452,0,0,1,.28.38c0,.2-.42.34-.74.42-.1.12-.3.36-.46.54h4.46l.72-.6c.12-.1.26-.22.34-.22a.949.949,0,0,1,.42.22l.94.74c.1.08.2.16.2.3,0,.24-.16.26-.76.4-.24.06-.38.16-2.04,1.32-.34.24-.78.54-1.06.72h4.34l.58-.56c.1-.1.24-.24.32-.24.1,0,.22.12.3.18l.86.68c.12.1.22.2.22.32,0,.1-.08.18-.2.28Zm-10.08-3.06c-.28.3-1.88,2.08-2.18,2.4h5.36a25.311,25.311,0,0,0,1.48-2.4Zm7.16,15.14c-.68.14-4.56.14-5.72.14-2.2,0-2.36-.42-2.36-2.32,0-3.28,0-3.42-.16-4.12l1.88.6c.12.04.32.16.32.28a.329.329,0,0,1-.16.24c-.06.06-.38.3-.44.36,0,.26-.04,2.94,0,3.26.04.36.44.38.92.38a43.178,43.178,0,0,0,4.48-.14.934.934,0,0,0,.6-.6,18.3,18.3,0,0,0,.6-2.26h.14a6.693,6.693,0,0,0,.76,2.5c.32.3.44.42.44.66s-.22.82-1.3,1.02Zm-2.8-3.24c-.54,0-.64-.24-1.12-1.4a4.49,4.49,0,0,0-1.06-1.6l.08-.12c2.62.74,2.86,1.78,2.86,2.08,0,.46-.18,1.04-.76,1.04Zm6.98,1.62c-.56,0-.62-.14-1.18-1.4a6.209,6.209,0,0,0-1.38-2.22l.02-.04c1.08.18,3.38,1.38,3.38,2.78a.831.831,0,0,1-.84.88Z"/>
    <path id="パス_4458" data-name="パス 4458" d="M530.72,197.1H516.06a14.455,14.455,0,0,0-2.36.18l-.4-.8c1.02.1,2.06.14,3.08.14h5.04V191.9h-3.46a13.823,13.823,0,0,0-2.36.18l-.4-.8c1.58.12,2.72.14,3.08.14h7.74l.86-.96c.16-.16.24-.26.32-.26.12,0,.28.14.38.22l1.18.96a.43.43,0,0,1,.2.3c0,.2-.2.22-.32.22h-5.8v4.72H528l.88-1.06c.1-.12.18-.24.3-.24.08,0,.18.02.38.2l1.26,1.06c.08.06.22.16.22.3,0,.2-.2.22-.32.22Zm-.7-8.4a44.781,44.781,0,0,1-5,.18c-2.04,0-2.04-.5-2.04-2.48,0-.44-.02-2.68-.02-3.18h-6.52c-.26,2.24-1.8,2.24-1.86,2.24a.761.761,0,0,1-.8-.72c0-.5.38-.74,1.06-1.18a2.485,2.485,0,0,0,1.34-1.8h.16a1.834,1.834,0,0,1,.14.98h5.04a8.775,8.775,0,0,0-.36-2.94l1.9.48c.16.04.44.1.44.36a.35.35,0,0,1-.14.28c-.08.06-.4.26-.46.32v1.5h4.72l.78-.64c.16-.12.24-.2.42-.2a.446.446,0,0,1,.34.18l1.22,1.08a.557.557,0,0,1,.16.38c0,.36-.28.4-1.08.46-.32.2-1.74,1.14-2.04,1.32l-.1-.1a17.488,17.488,0,0,0,.44-2h-3.4a33.22,33.22,0,0,0,.12,4.18,6.477,6.477,0,0,0,1.96.18c.7,0,2.22,0,2.58-.36a5.106,5.106,0,0,0,.88-2.12h.16c.32,1.3.44,1.8.7,1.98a.721.721,0,0,1,.4.64C531.16,188.3,530.44,188.62,530.02,188.7Zm-9.34-3.78a8.626,8.626,0,0,1-6.66,5l-.08-.16c4.4-2.2,5.38-5.18,5.54-6.46l1.66.86c.2.1.26.18.26.3C521.4,184.7,521.34,184.72,520.68,184.92Z"/>
    <path id="パス_4459" data-name="パス 4459" d="M535.05,187.8c-.48,0-.6-.2-1.24-1.44a5.247,5.247,0,0,0-1-1.3l.02-.12c.72.1,2.96.64,2.96,2a.783.783,0,0,1-.74.86Zm.96,3.34a6.957,6.957,0,0,0-.36,1.9,7.653,7.653,0,0,0,.26,1.78,8.322,8.322,0,0,1,.36,1.78c0,.56-.26,1.12-.88,1.12-.94,0-.94-1-.94-1.44,0-.26.06-1.36.06-1.58a2.066,2.066,0,0,0-1.34-2.2v-.12a1.875,1.875,0,0,0,1.32-.6c.44-.58,2.7-7,2.86-7.58l.16.06a49.835,49.835,0,0,1-1.5,6.88Zm.54-8.06c-.6,0-.78-.46-1.22-1.42a7.034,7.034,0,0,0-.86-1.44l.04-.1c.38.08,2.86.78,2.86,2.06a.832.832,0,0,1-.82.9Zm14.12,8.2a3.152,3.152,0,0,0-.82,1.08,10.54,10.54,0,0,1-5-5.18h-2.56a15.283,15.283,0,0,1-2.1,2.88c1.42.12,2.78.14,3.02.14h1l.36-.36c.14-.14.24-.28.38-.28.12,0,.28.14.36.2l.66.52c.12.1.24.2.24.34,0,.22-.1.3-.46.62.02.3.08,1.62.08,1.88,0,.4,0,.64-.2.8a1.573,1.573,0,0,1-.76.26c-.4,0-.42-.28-.42-.46h-2.64c-.12,2.68.02,2.68,1.1,2.68,3.36,0,4.12,0,4.56-.42a6.169,6.169,0,0,0,1.04-2.66h.1a8.46,8.46,0,0,0,.62,2.36c.08.12.1.12.32.3.1.08.16.14.16.26,0,.08,0,.58-.86,1a11.5,11.5,0,0,1-4.04.48c-3.8,0-4.34-.12-4.36-1.58,0-1.24-.02-3.18-.12-3.76l1.84.86h2.3v-2.56h-1.58a12.051,12.051,0,0,0-2.34.18l-.38-.78a14.743,14.743,0,0,1-3.64,3.12l-.06-.12a22.207,22.207,0,0,0,4.16-5.9,14.676,14.676,0,0,0-2.54.18l-.4-.8c1.04.08,1.24.1,3.02.14v-3.4a11.775,11.775,0,0,0-2.06.18l-.4-.8c.44.04,1.16.1,2.46.12a9.482,9.482,0,0,0-.34-3.08l1.84.54c.24.08.38.16.38.3,0,.22-.18.36-.58.64.02.42.02.54,0,1.62h2.56a8.153,8.153,0,0,0-.36-3l1.9.5c.22.06.38.18.38.28,0,.24-.32.48-.58.64-.02.26-.02,1.36-.02,1.58h1.14l.64-.86c.08-.1.18-.26.3-.26s.28.16.38.24l.88.84c.12.1.2.18.2.3,0,.2-.16.22-.3.22h-3.24v3.4h2.22l.68-.9c.1-.14.18-.26.3-.26a.622.622,0,0,1,.38.22l.96.9c.12.12.2.22.2.3,0,.2-.18.22-.3.22h-5.1a8.6,8.6,0,0,0,6.2,3.5v.12c-.12.08-.66.4-.76.48Zm-6.1-7.98h-2.56v3.4h2.56C544.57,186.22,544.59,183.84,544.57,183.3Z"/>
    <path id="パス_4460" data-name="パス 4460" d="M552.97,197.06a23.26,23.26,0,0,0,1.46-6.14,3.908,3.908,0,0,0-.06-.68l1.76.66c.08.04.22.1.22.26,0,.18-.06.22-.52.54a16.347,16.347,0,0,1-2.72,5.42Zm7.96-13.82a.322.322,0,0,1,.14.28c0,.24-.2.3-.84.44-.68.92-1.74,2.32-3.52,4.32.1-.02,1.46-.06,2.5-.16a11.869,11.869,0,0,0-.72-1.42l.1-.14c1.08.46,2.44,1.34,2.44,2.38a.826.826,0,0,1-.8.9c-.52,0-.54-.16-.92-1.44-.3.1-.64.2-1.42.42.02,2.76,0,4.18.04,5.88,0,.36.06,1.9.06,2.22,0,.3,0,1.1-.9,1.1a.528.528,0,0,1-.56-.62c0-.92.16-6.96.18-8.28-.5.12-1.14.28-2.56.56-.28.3-.3.34-.46.34-.14,0-.24-.14-.28-.28l-.42-1.7a6.025,6.025,0,0,0,1.86.3c.12,0,1.2-.04,1.36-.06,1.32-1.96,3.02-4.94,3-6.16l1.72,1.12Zm-7.18-.2a4.75,4.75,0,0,1,2.08.64,12.618,12.618,0,0,0,.86-3.92l1.92,1a.32.32,0,0,1,.2.26c0,.2-.18.28-.88.56-.72.98-.98,1.28-1.82,2.28a1.862,1.862,0,0,1,.88,1.42.845.845,0,0,1-.76.92c-.5,0-.68-.42-.82-.72a6.358,6.358,0,0,0-1.72-2.3l.06-.14Zm4.62,7.72c1.34.48,2.36,1.42,2.36,2.24a.774.774,0,0,1-.76.86c-.56,0-.66-.32-.96-1.4a4.15,4.15,0,0,0-.76-1.58l.12-.12Zm3.1.34a4.706,4.706,0,0,0-1,.08l-.28-.64c.74.06,1.34.08,1.52.08h.62l.38-.46s.14-.16.26-.16a.6.6,0,0,1,.3.18l.8.76c.08.08.22.2.22.34,0,.16-.06.24-.66.46a10.206,10.206,0,0,1-4.68,5.12l-.04-.12a12.874,12.874,0,0,0,3.46-5.64h-.9Zm4.16-2.62.36.12c.14.04.44.16.44.36,0,.24-.36.44-.52.52a7.1,7.1,0,0,0,1.16,2.74,7.883,7.883,0,0,0,2.16-2.72l1.38,1.38a.683.683,0,0,1,.1.26c0,.04-.02.26-.32.26-.06,0-.32-.02-.52-.04a27.612,27.612,0,0,1-2.68,1.06,8.229,8.229,0,0,0,4.84,3.26v.16a2.687,2.687,0,0,0-2.02,1.28,11.1,11.1,0,0,1-4.06-5.94c0,.74.12,4,.12,4.66,0,.48,0,1.86-2,2.22-.22-.64-.44-1.26-2.06-1.94l.02-.16c.32.04,1.66.12,1.92.12.8,0,.82-.16.82-.76v-5.4a9.071,9.071,0,0,0-.06-1.44h-1.6a.733.733,0,0,1-.8.82c-.44,0-.64-.16-.64-.52,0-.28.1-2.9.1-3.44a31.859,31.859,0,0,0-.18-3.98l1.62.86h1.2a7.523,7.523,0,0,0,.18-1.66,4.643,4.643,0,0,0-.1-.98l1.88.6c.16.06.34.14.34.34,0,.26-.2.32-.72.42a14.494,14.494,0,0,1-1.08,1.28h2.72l.54-.62a.631.631,0,0,1,.34-.22.593.593,0,0,1,.3.14l.94.7c.12.08.26.22.26.34,0,.18-.08.22-.74.7,0,.82.18,4.68.18,5.12a.836.836,0,0,1-.94.88c-.54,0-.54-.32-.52-.78h-2.36Zm-2.54-5.78v2.4h4.9v-2.4Zm4.9,5.3v-2.42h-4.9V188Z"/>
    <path id="パス_4461" data-name="パス 4461" d="M590.06,193.74c-.22,0-1.18-.28-1.38-.32a26.35,26.35,0,0,0-4.5-.42,39.349,39.349,0,0,0-7.7.82c-.16.04-.92.38-1,.38a2.668,2.668,0,0,1-1.74-2.18,1.989,1.989,0,0,1,.12-.64,2.255,2.255,0,0,0,2.08,1.28c.14,0,2.2-.18,2.48-.2.46-.04,2.48-.2,2.88-.24.1-3.16.12-3.82.12-4.34,0-1.88-.26-2.08-.72-2.4-1.24.16-1.3.16-1.88.26-.1.02-.56.1-.62.1a2.342,2.342,0,0,1-1.68-1.9,4.049,4.049,0,0,0,2.5.76,50.217,50.217,0,0,0,6.04-.6,5.988,5.988,0,0,1,.76-.3c.2,0,1.54.32,1.54.96,0,.42-.48.44-.64.44-1.64,0-3.18.04-4.22.12.48.4.54.44.54.62,0,.16-.24.9-.26,1.06-.08.58-.08.74-.32,5.16,3-.12,3.32-.14,4-.14a6.461,6.461,0,0,0,1.18-.04c.16-.02.74-.14.84-.14.66,0,1.96.74,1.96,1.48,0,.22-.1.42-.38.42Z"/>
    <path id="パス_4462" data-name="パス 4462" d="M608.38,184.76a3.071,3.071,0,0,0-1.44.72,40.332,40.332,0,0,1-3.86,2.44c-.12.38-.6,2.14-.7,2.48-1.4,4.82-3.82,6.18-4.82,6.74l-.06-.12a17.73,17.73,0,0,0,4.14-9.6c0-.58-.34-.82-1.38-1.2a2.4,2.4,0,0,1,1.02-.32c.74,0,1.98.46,1.98,1a2.467,2.467,0,0,1-.04.4,12.788,12.788,0,0,0,3.34-3.5c0-.06-.02-.12-.28-.12a59.817,59.817,0,0,0-8.48,1.14,9.2,9.2,0,0,1-1.08.42c-.2,0-1.78-.82-1.78-1.92a3.1,3.1,0,0,1,.14-.96,2.139,2.139,0,0,0,2.06,1.24c.88,0,8.46-.76,9.36-.94.16-.02.84-.32.98-.32a5.308,5.308,0,0,1,1.86,1.96c0,.34-.08.34-.96.46Z"/>
    <path id="パス_4463" data-name="パス 4463" d="M615.17,194.08a.721.721,0,0,1-.78-.8c0-.62.26-.8,1.3-1.52a8.233,8.233,0,0,0,2.74-3.14c-.18,2.46-1.9,5.46-3.26,5.46Zm13.84-6.94c-.3,0-1.64-.26-1.84-.28-.34-.04-1.56-.12-2.9-.12-.82,0-1.34.02-1.7.04-.04,1.84-.06,4.38.04,6.22,0,.16.08,1.46.08,1.48,0,.24-.06,2.36-1.04,2.36-.38,0-.5-.26-.96-1.34-.14-.32-.48-.62-2.02-1.74l.02-.1a12.639,12.639,0,0,0,2.38.46c.26,0,.28-.12.3-.5.08-1.34.1-1.9.06-6.74a26.765,26.765,0,0,0-4.38.82,1.2,1.2,0,0,1-.64.22c-.8,0-1.7-1.3-1.7-2.1a4.16,4.16,0,0,1,.1-.82,3.5,3.5,0,0,0,1.2,1.22,1.569,1.569,0,0,0,.84.14c.04,0,3.96-.28,4.56-.32-.02-2.66-.04-2.96-.18-3.4-.2-.56-.86-.74-1.7-.96a2.412,2.412,0,0,1,1.28-.52c.78,0,2.36.74,2.36,1.28a4.771,4.771,0,0,1-.3.78,13.052,13.052,0,0,0-.28,2.72c.56-.02,3.96-.3,4.22-.36.12-.02.62-.18.7-.18.3,0,1.9.42,1.9,1.28a.4.4,0,0,1-.4.46Zm-.42,6.6c-.36,0-.46-.16-1.42-1.64a12.961,12.961,0,0,0-2.96-3.38,7.1,7.1,0,0,1,3.34,1.66c.46.34,1.72,1.28,1.72,2.38C629.27,193.38,628.87,193.74,628.59,193.74Zm-.02-9.26a1.89,1.89,0,1,1,1.88-1.88A1.882,1.882,0,0,1,628.57,184.48Zm0-3.06a1.16,1.16,0,1,0,1.16,1.16A1.161,1.161,0,0,0,628.57,181.42Z"/>
    <path id="パス_4464" data-name="パス 4464" d="M648.4,189.64c-.18,0-.66-.04-.7-.04a19.959,19.959,0,0,0-2.26-.08c-6.1,0-7.9.12-8.8.36-.06.02-.7.18-.76.18-.52,0-1.6-1.28-1.6-2.2a2.311,2.311,0,0,1,.24-.96c.68,1.52,1.3,1.52,3.38,1.52,1.38,0,7.88-.02,8.8-.24.12-.02.7-.18.82-.18s2.12.22,2.12,1C649.64,189.62,648.64,189.64,648.4,189.64Z"/>
    <path id="パス_4465" data-name="パス 4465" d="M666.8,191.22c-.3,0-.56-.26-.88-.6-1.84-2.04-2.88-2.76-4.26-3.28,0,.78-.04,4.26-.02,4.98,0,.52.12,2.82.12,3.28,0,.42,0,1.6-.78,1.6-.66,0-.94-1.16-.94-1.68a8.915,8.915,0,0,1,.14-1.34,56.639,56.639,0,0,0,.26-6.44c0-.86-.02-4.84-.18-5.48-.12-.44-.56-.64-1.6-1a2.792,2.792,0,0,1,1.32-.48c.3,0,2.26.42,2.26,1.06a9.33,9.33,0,0,1-.28,1,25.467,25.467,0,0,0-.28,4.04,11.046,11.046,0,0,1,5.16,2.16,1.828,1.828,0,0,1,.6,1.34c0,.66-.4.84-.64.84Z"/>
    <path id="パス_4466" data-name="パス 4466" d="M673.69,196.86a.878.878,0,0,1-.86-.86c0-.5.44-.84,1.06-1.32a4.7,4.7,0,0,0,1.54-2.14h.12c.02.24.04.5.04.86,0,1.86-.78,3.46-1.9,3.46Zm15.18-11.5c-.26.18-.34.24-.44.32.04,2.02.06,2.8.1,3.6,0,.18.06.92.06,1.08a.852.852,0,0,1-.92.84c-.62,0-.62-.4-.62-.64v-.26h-9.26a13.573,13.573,0,0,0-2.36.18l-.38-.8c1.26.1,2.52.14,3.06.14h8.94V187.7h-8.96a13.454,13.454,0,0,0-2.36.18l-.4-.78c1.24.1,2.48.12,3.08.12h8.64v-2.04H676.07a15.786,15.786,0,0,1-2.8,1.82l-.06-.08a26.92,26.92,0,0,0,4.9-6.18,2.983,2.983,0,0,0,.28-1.12l1.76.86a.452.452,0,0,1,.28.38c0,.2-.42.34-.74.42-.1.12-.3.36-.46.54h4.46l.72-.6c.12-.1.26-.22.34-.22a.949.949,0,0,1,.42.22l.94.74c.1.08.2.16.2.3,0,.24-.16.26-.76.4-.24.06-.38.16-2.04,1.32-.34.24-.78.54-1.06.72h4.34l.58-.56c.1-.1.24-.24.32-.24.1,0,.22.12.3.18l.86.68c.12.1.22.2.22.32,0,.1-.08.18-.2.28Zm-10.08-3.06c-.28.3-1.88,2.08-2.18,2.4h5.36a25.317,25.317,0,0,0,1.48-2.4Zm7.16,15.14c-.68.14-4.56.14-5.72.14-2.2,0-2.36-.42-2.36-2.32,0-3.28,0-3.42-.16-4.12l1.88.6c.12.04.32.16.32.28a.329.329,0,0,1-.16.24c-.06.06-.38.3-.44.36,0,.26-.04,2.94,0,3.26.04.36.44.38.92.38a43.177,43.177,0,0,0,4.48-.14.933.933,0,0,0,.6-.6,18.3,18.3,0,0,0,.6-2.26h.14a6.693,6.693,0,0,0,.76,2.5c.32.3.44.42.44.66s-.22.82-1.3,1.02Zm-2.8-3.24c-.54,0-.64-.24-1.12-1.4a4.491,4.491,0,0,0-1.06-1.6l.08-.12c2.62.74,2.86,1.78,2.86,2.08C683.91,193.62,683.73,194.2,683.15,194.2Zm6.98,1.62c-.56,0-.62-.14-1.18-1.4a6.21,6.21,0,0,0-1.38-2.22l.02-.04c1.08.18,3.38,1.38,3.38,2.78a.831.831,0,0,1-.84.88Z"/>
    <path id="パス_4467" data-name="パス 4467" d="M699.55,185.4c-.44.58-.8,1.02-1.32,1.62l.26.2a.486.486,0,0,1,.24.32c0,.08-.06.16-.4.46-.08,1.94-.08,5.36-.08,8.94,0,.44,0,1.14-1,1.14-.62,0-.62-.42-.62-.7,0-.22.3-4.96.3-5.26.02-.52.04-3.1.06-3.68a11.321,11.321,0,0,1-4.26,2.96v-.1a29,29,0,0,0,5.46-6.6,5.707,5.707,0,0,0,.5-1.26l1.62,1.32a.411.411,0,0,1,.16.3c0,.16-.18.24-.92.34Zm-.62-3.82a14.186,14.186,0,0,1-5.8,3.9l-.04-.12a21.035,21.035,0,0,0,4.52-4.6,4.268,4.268,0,0,0,.5-1.2l1.56,1.42a.36.36,0,0,1,.14.3c0,.2-.24.28-.88.3Zm11.94,5.44h-3.8c-.02.32-.02.66-.02,1.2.02,1.1.1,6.5.1,7.72a2.148,2.148,0,0,1-2.22,2.08c-.04-.4-.1-1.06-1.94-2.02v-.08c.48.02,1.26.04,1.76.04q1,0,1-1.14c0-1.26-.06-7.42-.08-7.8h-3.1a14.39,14.39,0,0,0-2.34.18l-.4-.78c.5.04,1.7.12,3.08.12h5.32l.88-1.04c.12-.14.22-.26.32-.26.12,0,.28.14.38.22l1.16,1.04a.429.429,0,0,1,.2.32c0,.2-.2.2-.3.2ZM709.69,182h-6.04a13.96,13.96,0,0,0-2.36.18l-.4-.8c1.38.12,2.82.14,3.08.14h3.28l.74-.92c.12-.14.24-.28.34-.28.12,0,.26.14.36.22l1.12.94c.1.1.2.18.2.3,0,.2-.18.22-.32.22Z"/>
    <path id="パス_4468" data-name="パス 4468" d="M718.31,191a23.082,23.082,0,0,0-.7,3.82c0,.22.1,1.18.1,1.38,0,.34-.04.74-.52.74-.82,0-2.12-1.84-2.12-5.9a49.8,49.8,0,0,1,.78-6.2,9.27,9.27,0,0,0,.12-1.34,2.692,2.692,0,0,0-.68-1.94.8.8,0,0,1,.36-.08c.72,0,2.02,1.12,2.02,1.9a2.681,2.681,0,0,1-.26.94,17.389,17.389,0,0,0-1.4,6.28c0,1.38.34,2.92.66,2.92.12,0,.22-.24.26-.38.22-.68,1.06-3,1.78-4.54l.16.04c-.12.56-.4,1.72-.56,2.36Zm9.62,4.2a19.867,19.867,0,0,1-4.9-.56,2.926,2.926,0,0,1-2.02-2.72,1.547,1.547,0,0,1,.2-.84c.46,1.52.82,2.68,4.6,2.68.4,0,2.34-.16,2.54-.16.7,0,1.54.3,1.54.86,0,.64-.7.74-1.96.74Zm-.16-10.58a9.375,9.375,0,0,0-3.86,1.48l-.12-.12c.3-.28,1.76-1.62,1.82-1.68a.182.182,0,0,0,.06-.16c0-.22-.62-.22-.74-.22a11.75,11.75,0,0,0-3.64.9c1.08-1.44,3.1-1.96,4.96-1.96,1.24,0,2.66.36,2.66,1.06,0,.46-.42.58-1.14.7Z"/>
    <path id="パス_4469" data-name="パス 4469" d="M749.2,196.44c-2.6-.78-5.46-3.82-6.48-5.8h-.2c0,1.42-.02,2.44.02,4.12,0,.34.06,1.86.06,2.16a.99.99,0,0,1-1.08,1.14c-.5,0-.56-.3-.56-.62,0-.26.12-1.92.12-2.28.04-1.4.08-2.84.08-4.26-4.08,4.52-6.66,5.18-8.42,5.54l-.06-.16a21.312,21.312,0,0,0,6.8-5.64h-2.56a13.573,13.573,0,0,0-2.36.18l-.38-.8c1.18.1,2.36.14,3.18.14v-2.64H735.7a14.243,14.243,0,0,0-2.36.18l-.38-.78c1.36.1,2.8.12,3.06.12h1.34V184.3a14.211,14.211,0,0,0-2.28.18l-.4-.8c1.26.1,2.52.14,3.08.14h3.44v-1.78a42.814,42.814,0,0,1-5.68.16v-.18c2.6-.28,8-1.26,9.02-2.22l1.5,1.08c.22.16.24.24.24.28,0,.24-.22.24-.32.24-.12,0-.5-.04-.64-.04-1,.22-1.76.38-2.76.52l-.02,1.94h4.56l.7-.78c.12-.14.2-.24.32-.24a.658.658,0,0,1,.36.2l.94.78c.1.08.22.18.22.3,0,.18-.16.22-.32.22h-2.86v2.74h1.92l.74-.88c.16-.2.22-.26.32-.26.12,0,.26.14.34.2l1.04.9c.1.1.2.2.2.32,0,.18-.18.2-.3.2h-4.26v2.64h1.06l.7-.82c.12-.14.2-.26.32-.26a.818.818,0,0,1,.36.2l.98.84a.43.43,0,0,1,.2.3c0,.2-.18.22-.3.22H743a11.065,11.065,0,0,0,8.32,3.98v.12a3.113,3.113,0,0,0-2.12,1.7ZM738.68,184.3v2.74h2.48c.02-.9.02-1.82.02-2.74Zm2.48,3.22h-2.48v2.64h2.48Zm3.94,0h-2.56l-.02,2.64h2.58Zm0-3.22h-2.56v2.74h2.56Z"/>
    <path id="パス_4470" data-name="パス 4470" d="M757.13,189.12c.02,1.26.12,5.78.12,6.62a2.1,2.1,0,0,1-2,2.36c-.2-1.06-1.66-1.84-2.22-2.06l.02-.1c.46.06,1.5.12,2.02.12.76,0,.76-.02.76-.62v-5.46c-1.26.78-1.38.88-1.78,1.12-.18.44-.22.6-.46.6-.1,0-.18-.08-.26-.26l-.88-1.8c.54.06.98.08,3.38-.84v-4.62h-.82a10.347,10.347,0,0,0-1.7.14l-.4-.72c1.12.08,2.14.1,2.42.1h.5v-1.48a7.519,7.519,0,0,0-.56-2.5l2.16.74c.2.06.28.12.28.24,0,.14-.1.22-.58.68-.02.56-.02.74,0,2.32h.36l.36-.54c.1-.14.2-.26.3-.26a.594.594,0,0,1,.38.2l.56.56c.08.08.2.18.2.32,0,.18-.16.2-.3.2h-1.86v4.06c.36-.14,1.94-.82,2.26-.96l.08.08a22.814,22.814,0,0,1-2.34,1.76Zm13.92,2.68h-6.54a7.481,7.481,0,0,0,6.52,4.32v.1a3.794,3.794,0,0,0-1.8,1.58,8.877,8.877,0,0,1-4.98-6h-.1c-.44,1.74-1.4,5.16-6.46,6v-.1c3.58-1.58,4.64-3.74,5.12-5.9h-2.32a13.823,13.823,0,0,0-2.36.18l-.4-.8c.88.08,1.26.1,2.04.12-.02-2.98-.02-3.3-.04-6.18a6.149,6.149,0,0,1-1.24.8l-.08-.04c.66-.74,3.68-4.4,3.48-6.12l1.72.68c.08.04.2.12.2.2,0,.18-.14.26-.6.46l-.28.36h2.2l.54-.46a.564.564,0,0,1,.34-.18.586.586,0,0,1,.32.14l.92.64a.346.346,0,0,1,.12.24c0,.28-.22.36-.74.52-.52.44-.68.6-2.2,2h2.78l.58-.54a.568.568,0,0,1,.34-.18.506.506,0,0,1,.3.12l.82.7a.342.342,0,0,1,.14.26c0,.14-.08.22-.66.7-.02.38,0,.66,0,3.3v2.6h.54l.48-.84c.04-.08.2-.24.3-.24a.544.544,0,0,1,.36.22l.76.8c.08.1.2.2.2.32,0,.2-.18.22-.32.22Zm-8.48-9.86a21.3,21.3,0,0,1-1.78,2.22l.3.2h2.96a14.5,14.5,0,0,0,1.16-2.42h-2.64Zm4.94,2.9h-1.98c0,.38.02,2.26.02,2.34a.3.3,0,0,0,.3.24c.42,0,.5-.24.7-1.1h.12a2.227,2.227,0,0,0,.42.9c.16.18.28.3.28.52,0,.68-.88.82-1.54.82-1.08,0-1.46-.28-1.46-1.14,0-.4.04-2.2.04-2.58h-1.6l.74.1c.14.02.22.1.22.22,0,.16-.14.26-.28.32a4.18,4.18,0,0,1-2.44,3.58l-.02-.1c.9-.7,1.34-2.56,1.28-4.12h-1.34v6.48h1.92a8.287,8.287,0,0,0,.1-1.3,2.874,2.874,0,0,0-.18-1.16l1.94.58c.14.04.24.08.24.22,0,.2-.18.34-.56.6-.1.6-.12.78-.18,1.06h3.26v-6.48Z"/>
    <path id="パス_4471" data-name="パス 4471" d="M787.3,197.16a25.262,25.262,0,0,1-3.42-.26c-1.5-.46-1.72-1.5-2.02-3.08-.2-1.02-.76-1.3-1.42-1.3-.88,0-1.3.62-2.92,2.96a10.3,10.3,0,0,1-1.38,1.72.53.53,0,0,1-.4.14c-.34,0-.68-.28-.68-.9,0-.66.16-.8,1.3-1.76a39.268,39.268,0,0,0,3.94-4.1c.48-.54,2.94-3.22,2.98-3.3a.382.382,0,0,0,.06-.16c0-.2-.24-.2-.32-.2a15.192,15.192,0,0,0-3.54,1.4c-.56.4-.68.48-.98.48-.54,0-1.74-.82-1.74-1.64a2.192,2.192,0,0,1,.18-.72,1.731,1.731,0,0,0,1.4.84,22.1,22.1,0,0,0,4.36-1.14c.58-.22,1.1-.4,1.12-.4.38,0,1.68.62,1.68,1.26,0,.36-.14.44-.7.82a26.738,26.738,0,0,0-4.78,4.28,4.647,4.647,0,0,1,1.04-.12c1.6,0,1.86,1.08,2.06,1.92.4,1.72.62,2.1,2.08,2.1a10.047,10.047,0,0,0,2.3-.34,3.327,3.327,0,0,1,1.04-.24c.5,0,1.12.38,1.12.86,0,.82-1.66.88-2.36.88Zm-3.3-13.4c-.28,0-1.42-.26-1.66-.26a7.427,7.427,0,0,0-1.88.38,1.872,1.872,0,0,1-.32.08l-.06-.12c.34-.2.86-.52,1.16-.74.34-.24.46-.34.46-.52,0-.26-.16-.36-.7-.72-1.26-.86-1.5-1.34-1.58-2.32a7.292,7.292,0,0,0,2.74,1.76c1.02.4,2.32.88,2.32,1.88A.519.519,0,0,1,784,183.76Z"/>
  </g>
  <g id="グループ_212" data-name="グループ 212" transform="translate(0 -14)">
    <g id="グループ_211" data-name="グループ 211">
      <path id="パス_4411" data-name="パス 4411" d="M927.37,242.09a9.84,9.84,0,0,1,3.6,7.84c0,6.52-5.35,11.18-12.35,11.18-5.72,0-10.55-3.23-10.55-7.47a3.059,3.059,0,0,1,3.02-3.39,2.6,2.6,0,0,1,2.6,2.65,4.411,4.411,0,0,1-.32,1.7,3.676,3.676,0,0,0-.16,1.22c0,2.01,2.28,3.5,4.77,3.5,4.08,0,8.21-4.03,8.21-9.38s-4.03-9.7-8.27-9.7c-.32,0-1.8.21-2.12.21a1.052,1.052,0,0,1-1.17-1.11,1.2,1.2,0,0,1,1.22-1.22c.32,0,1.91.32,2.28.32,4.45,0,7.26-3.97,7.26-8.27s-2.49-7.95-6.68-7.95c-2.81,0-4.29,2.01-4.29,3.55a4.429,4.429,0,0,0,.16.79,5.025,5.025,0,0,1,.16,1.27,2.806,2.806,0,0,1-2.7,2.92,2.747,2.747,0,0,1-2.65-2.92c0-2.91,3.39-7.42,10.17-7.42s10.6,4.24,10.6,8.9a9.2,9.2,0,0,1-1.96,5.41,12.587,12.587,0,0,1-6.73,4.5,14.126,14.126,0,0,1,5.88,2.86Z" fill="#1c2c5a"/>
      <path id="パス_4412" data-name="パス 4412" d="M944.76,236.85a8.949,8.949,0,0,1,4.61-1.38c5.25,0,9.49,5.3,9.49,11.71,0,7.37-5.25,13.94-11.34,13.94s-12.19-6.84-12.19-18.28c0-12.24,6.89-22.42,15-22.42,3.55,0,6.04,2.12,6.04,4.66a2.649,2.649,0,0,1-2.7,2.76c-1.06,0-2.81-.69-2.91-3.71-.05-1.17-.16-1.91-1.59-1.91a5.437,5.437,0,0,0-3.87,1.91c-4.72,5.19-4.98,12.98-5.19,17.75a13.266,13.266,0,0,1,4.66-5.04Zm-1.75,19.61a5.245,5.245,0,0,0,4.29,2.86c2.81,0,6.78-2.92,6.78-11.66,0-2.38-.58-9.8-6.04-9.8-2.01,0-5.41,1.48-7.9,7.21.21,2.91.64,8,2.86,11.39Z" fill="#1c2c5a"/>
      <path id="パス_4413" data-name="パス 4413" d="M973.01,235.62a28.009,28.009,0,0,1-10.05,11.02l-.16-.23c4.54-5.16,7.1-9.69,7.85-11.87a11.043,11.043,0,0,0,.52-2.08l2.79,1.88c.16.1.42.29.42.52,0,.39-.84.62-1.36.75Zm11.77,10.15c-.32,11.67-.97,14.04-6.81,14.56a4.682,4.682,0,0,0-2.43-3.57l.03-.23a20.413,20.413,0,0,0,3.76.55c1.56,0,2.17-.36,2.66-3.31a66.953,66.953,0,0,0,.49-9.34h-6.55c-.19,5.09-2.37,13.88-12.58,15.76l-.06-.26c6.58-3.05,9.92-7.94,10.25-15.5h-.94a20.648,20.648,0,0,0-3.83.32l-.62-1.3c2.01.16,3.99.19,4.96.19h9.18l.88-.78c.2-.19.39-.36.58-.36.16,0,.32.16.45.29l1.3,1.43a.864.864,0,0,1,.29.52c0,.29-.1.36-1.01,1Zm5.9-.03c-3.47-1.49-7.33-4.99-9.76-12.32h-2.59a15.766,15.766,0,0,0-2.72.19l-.42-1.13c1.46.13,2.89.16,3.53.16h1.62l1.04-1.04c.29-.29.42-.36.58-.36.19,0,.32.16.55.36l1.2,1.17a.582.582,0,0,1,.26.49c0,.65-1.49.91-2.08,1,1.56,4.18,6.94,8.33,11.9,8.69l.03.32a5.362,5.362,0,0,0-3.15,2.46Z" fill="#1c2c5a"/>
      <path id="パス_4414" data-name="パス 4414" d="M1008.42,261.37a19.867,19.867,0,0,1,0-31.38l.29.45a21.932,21.932,0,0,0,0,30.48Z" fill="#1c2c5a"/>
      <path id="パス_4415" data-name="パス 4415" d="M1024.24,246.97a6.032,6.032,0,0,1,2.21,4.8c0,3.99-3.28,6.84-7.56,6.84-3.5,0-6.45-1.98-6.45-4.57a1.873,1.873,0,0,1,1.85-2.08,1.59,1.59,0,0,1,1.59,1.62,2.83,2.83,0,0,1-.19,1.04,2.421,2.421,0,0,0-.1.75c0,1.23,1.39,2.14,2.92,2.14,2.5,0,5.03-2.46,5.03-5.74s-2.46-5.93-5.06-5.93c-.2,0-1.1.13-1.3.13a.634.634,0,0,1-.71-.68.737.737,0,0,1,.75-.75c.19,0,1.17.19,1.39.19,2.72,0,4.44-2.43,4.44-5.06s-1.52-4.86-4.08-4.86a2.432,2.432,0,0,0-2.63,2.17,3.05,3.05,0,0,0,.1.49,3.475,3.475,0,0,1,.1.78,1.709,1.709,0,0,1-1.65,1.78,1.677,1.677,0,0,1-1.62-1.78c0-1.78,2.08-4.54,6.23-4.54s6.49,2.59,6.49,5.45a5.613,5.613,0,0,1-1.2,3.31,7.764,7.764,0,0,1-4.12,2.76,8.718,8.718,0,0,1,3.6,1.75Z" fill="#1c2c5a"/>
      <path id="パス_4416" data-name="パス 4416" d="M1034.88,243.76a5.5,5.5,0,0,1,2.82-.84c3.21,0,5.8,3.24,5.8,7.16,0,4.51-3.21,8.53-6.94,8.53s-7.46-4.18-7.46-11.19c0-7.49,4.21-13.72,9.18-13.72,2.17,0,3.7,1.3,3.7,2.85a1.623,1.623,0,0,1-1.65,1.69c-.65,0-1.72-.42-1.78-2.27-.03-.71-.1-1.17-.97-1.17a3.366,3.366,0,0,0-2.37,1.17c-2.89,3.18-3.05,7.94-3.18,10.86a8.164,8.164,0,0,1,2.85-3.08Zm-1.07,12a3.192,3.192,0,0,0,2.63,1.75c1.72,0,4.15-1.78,4.15-7.13,0-1.46-.36-6-3.7-6-1.23,0-3.31.91-4.83,4.41.13,1.78.39,4.9,1.75,6.97Z" fill="#1c2c5a"/>
      <path id="パス_4417" data-name="パス 4417" d="M1056.67,235.62a28.007,28.007,0,0,1-10.05,11.02l-.16-.23c4.54-5.16,7.1-9.69,7.85-11.87a11.033,11.033,0,0,0,.52-2.08l2.79,1.88c.16.1.42.29.42.52,0,.39-.84.62-1.36.75Zm11.77,10.15c-.32,11.67-.97,14.04-6.81,14.56a4.682,4.682,0,0,0-2.43-3.57l.03-.23a20.413,20.413,0,0,0,3.76.55c1.56,0,2.17-.36,2.66-3.31a66.962,66.962,0,0,0,.49-9.34h-6.55c-.19,5.09-2.37,13.88-12.58,15.76l-.06-.26c6.58-3.05,9.92-7.94,10.25-15.5h-.94a20.647,20.647,0,0,0-3.83.32l-.62-1.3c2.01.16,3.99.19,4.96.19h9.18l.88-.78c.2-.19.39-.36.58-.36.16,0,.32.16.45.29l1.3,1.43a.864.864,0,0,1,.29.52c0,.29-.1.36-1.01,1Zm5.9-.03c-3.47-1.49-7.33-4.99-9.76-12.32h-2.59a15.766,15.766,0,0,0-2.72.19l-.42-1.13c1.46.13,2.89.16,3.53.16H1064l1.04-1.04c.29-.29.42-.36.58-.36.19,0,.32.16.55.36l1.2,1.17a.582.582,0,0,1,.26.49c0,.65-1.49.91-2.08,1,1.56,4.18,6.94,8.33,11.9,8.69l.03.32a5.362,5.362,0,0,0-3.15,2.46Z" fill="#1c2c5a"/>
      <path id="パス_4418" data-name="パス 4418" d="M1080.41,261.37l-.29-.45a21.932,21.932,0,0,0,0-30.48l.29-.45a19.867,19.867,0,0,1,0,31.38Z" fill="#1c2c5a"/>
    </g>
    <g id="グループ_210" data-name="グループ 210">
      <path id="パス_4419" data-name="パス 4419" d="M24.42,218.64v39.17h-1.9V216.69h15v1.94H24.42Z"/>
      <path id="パス_4420" data-name="パス 4420" d="M56.72,238.25a74.135,74.135,0,0,1-9.17,9.85c-.14.99-.27,1.67-.99,1.67-.32,0-.59-.32-.72-.5l-3.16-3.84c1.49.04,2.8.09,13.83-7.41l.23.23Zm-7.05-16.67a30.636,30.636,0,0,0-5.33.41l-.86-1.81c2.3.18,4.61.32,6.91.32h7.14l1.45-1.22c.36-.32.54-.41.77-.41s.63.32.81.45l1.76,1.4a1.035,1.035,0,0,1,.45.77c0,.45-.14.54-1.45,1.54-.05,1.27,0,24.04,0,26.79,0,1.81,0,5.78-5.92,6.6a8.477,8.477,0,0,0-4.25-4.52l.05-.36a19.733,19.733,0,0,0,3.57.23c2.89,0,3.07-.09,3.16-1.4.04-.5.18-20.92.18-21.1,0-3.21-.04-6.46-.09-7.68H49.66Zm-3.79,5.74c4.61.81,7,3.66,7,5.47a1.986,1.986,0,0,1-1.94,2.08c-1.31,0-1.67-.86-2.62-3.07a13.089,13.089,0,0,0-2.58-4.29l.14-.18Zm30.18,10.8c-2.26,2.76-6.6,7.09-8.72,9.26-.14.54-.23,1.4-.81,1.4-.27,0-.5-.27-.68-.5l-2.94-3.89c1.81-.09,3.66-.23,12.92-6.51l.23.23Zm-5.78-16.4a30.306,30.306,0,0,0-5.29.41l-.9-1.81c2.3.18,4.61.32,6.96.32h5.78l1.13-1.26a.991.991,0,0,1,.72-.32,1.171,1.171,0,0,1,.68.32l1.94,1.49a.679.679,0,0,1,.36.63c0,.41-.27.63-1.4,1.58v6.69c0,3.25.18,17.53.18,20.47,0,2.35,0,5.06-5.96,6.64-.23-.86-.63-2.21-4.16-4.7l.04-.23c.99.05,3.34.18,4.88.18s1.85-.41,1.85-1.94c0-4.52.05-24.67,0-28.46H70.27Zm-4.65,5.01c3.16.68,7.36,2.44,7.36,5.33a2,2,0,0,1-1.94,2.08c-1.13,0-1.4-.45-2.58-2.89a22.777,22.777,0,0,0-2.89-4.29l.04-.23Z"/>
      <path id="パス_4421" data-name="パス 4421" d="M120.1,221.31l1.26-1.17c.27-.23.41-.5.68-.5s.45.18.68.32l2.44,1.81c.27.23.5.41.5.77,0,.63-1.49,1.31-1.9,1.49-.14,4.43-.04,17.4.18,24.76,0,.68.27,3.89.27,4.52a2.356,2.356,0,0,1-2.58,2.35c-1.45,0-1.36-.81-1.27-2.62H94.79c0,.27,0,1.63-.05,1.81-.32,1.04-1.67,1.4-2.44,1.4a1.207,1.207,0,0,1-1.36-1.27c0-.54.14-2.85.14-3.34.18-6.55.32-13.1.32-19.61,0-8.86-.23-10.44-.63-13.06l4.29,2.35h25.03ZM94.8,222.4v14.01h11.07V222.4Zm0,15.09v14.46h11.07V237.49Zm25.57-1.08V222.4H108.98v14.01Zm0,15.54V237.49H108.98v14.46Z"/>
      <path id="パス_4422" data-name="パス 4422" d="M171.51,255.47H138.39a32.4,32.4,0,0,0-5.33.41l-.9-1.81c2.3.23,4.65.32,6.96.32h11.39V243.73h-7.82a30.418,30.418,0,0,0-5.33.41l-.9-1.81c3.57.27,6.14.32,6.96.32h17.49l1.94-2.17c.36-.36.54-.59.72-.59.27,0,.63.32.86.5l2.67,2.17a.961.961,0,0,1,.45.68c0,.45-.45.5-.72.5h-13.1V254.4h11.66l1.99-2.39c.23-.27.41-.54.68-.54.18,0,.41.04.86.45l2.85,2.39c.18.14.5.36.5.68,0,.45-.45.5-.72.5Zm-1.58-18.98c-2.03.41-8.86.41-11.29.41-4.61,0-4.61-1.13-4.61-5.6,0-.99-.05-6.05-.05-7.18H139.25c-.59,5.06-4.07,5.06-4.2,5.06a1.722,1.722,0,0,1-1.81-1.63c0-1.13.86-1.67,2.39-2.67,2.67-1.72,2.94-3.43,3.03-4.07h.36a4.134,4.134,0,0,1,.32,2.21h11.39a20.009,20.009,0,0,0-.81-6.64l4.29,1.09c.36.09.99.23.99.81a.758.758,0,0,1-.32.63c-.18.14-.9.59-1.04.72v3.39H164.5l1.76-1.45c.36-.27.54-.45.95-.45a1.01,1.01,0,0,1,.77.41l2.76,2.44a1.267,1.267,0,0,1,.36.86c0,.81-.63.9-2.44,1.04-.72.45-3.93,2.58-4.61,2.98l-.23-.23a37.564,37.564,0,0,0,.99-4.52h-7.68c0,1.58-.09,8.99.27,9.44.32.41,3.62.41,4.43.41,1.58,0,5.02,0,5.83-.81.99-.95,1.58-3.21,1.99-4.79h.36c.72,2.94.99,4.07,1.58,4.47a1.627,1.627,0,0,1,.9,1.45c0,1.31-1.63,2.03-2.58,2.21Zm-21.1-8.54c-2.71,5.24-6.28,9.49-15.05,11.3l-.18-.36c9.94-4.97,12.15-11.7,12.52-14.59l3.75,1.94c.45.23.59.41.59.68,0,.54-.14.59-1.63,1.04Z"/>
      <path id="パス_4423" data-name="パス 4423" d="M181.45,234.46c-1.08,0-1.36-.45-2.8-3.25a11.893,11.893,0,0,0-2.26-2.94l.04-.27c1.63.23,6.69,1.45,6.69,4.52A1.767,1.767,0,0,1,181.45,234.46Zm2.17,7.55c-.77,3.07-.81,3.43-.81,4.29a17.052,17.052,0,0,0,.59,4.02,18.521,18.521,0,0,1,.81,4.02c0,1.26-.59,2.53-1.99,2.53-2.12,0-2.12-2.26-2.12-3.25,0-.59.14-3.07.14-3.57,0-1.63-.14-3.7-3.03-4.97v-.27a4.24,4.24,0,0,0,2.98-1.35c.99-1.31,6.1-15.81,6.46-17.12l.36.14c-.45,3.75-.77,4.97-3.39,15.54Zm1.22-18.21c-1.36,0-1.76-1.04-2.76-3.21a15.786,15.786,0,0,0-1.94-3.25l.09-.23c.86.18,6.46,1.76,6.46,4.65a1.881,1.881,0,0,1-1.85,2.03Zm31.9,18.52a7.03,7.03,0,0,0-1.85,2.44c-4.83-1.9-9.67-7.64-11.3-11.7h-5.78a35.081,35.081,0,0,1-4.74,6.51c3.21.27,6.28.32,6.82.32h2.26l.81-.81c.32-.32.54-.63.86-.63.27,0,.63.32.81.45l1.49,1.17c.27.23.54.45.54.77,0,.5-.23.68-1.04,1.4.05.68.18,3.66.18,4.25,0,.9,0,1.45-.45,1.81a3.548,3.548,0,0,1-1.72.59c-.9,0-.95-.63-.95-1.04h-5.96c-.27,6.05.05,6.05,2.49,6.05,7.59,0,9.31,0,10.3-.95,1.04-.99,1.49-2.85,2.35-6.01h.23c.23,1.36.77,4.52,1.4,5.33.18.27.23.27.72.68a.7.7,0,0,1,.36.59c0,.18,0,1.31-1.94,2.26-2.26,1.08-6.73,1.08-9.13,1.08-8.59,0-9.8-.27-9.85-3.57,0-2.8-.04-7.18-.27-8.49l4.16,1.94h5.2v-5.78h-3.57a27.046,27.046,0,0,0-5.29.41l-.86-1.76a33.238,33.238,0,0,1-8.22,7.05l-.14-.27a50.2,50.2,0,0,0,9.4-13.33,32.909,32.909,0,0,0-5.74.41l-.9-1.81c2.35.18,2.8.23,6.82.32v-7.68a25.69,25.69,0,0,0-4.65.41l-.9-1.81c.99.09,2.62.23,5.56.27a21.382,21.382,0,0,0-.77-6.96l4.16,1.22c.54.18.86.36.86.68,0,.5-.41.81-1.31,1.45.04.95.04,1.22,0,3.66h5.78c-.05-3.7-.05-4.11-.81-6.78l4.29,1.13c.5.14.86.41.86.63,0,.54-.72,1.08-1.31,1.45-.05.59-.05,3.07-.05,3.57h2.58l1.45-1.94c.18-.23.41-.59.68-.59s.63.36.86.54l1.99,1.9c.27.23.45.41.45.68,0,.45-.36.5-.68.5h-7.32v7.68h5.02l1.54-2.03c.23-.32.41-.59.68-.59a1.4,1.4,0,0,1,.86.5l2.17,2.03c.27.27.45.5.45.68,0,.45-.41.5-.68.5H204.48c1.76,2.76,6.69,7.18,14.01,7.91v.27c-.27.18-1.49.9-1.72,1.09Zm-13.78-18.03h-5.78v7.68h5.78C202.96,230.89,203,225.51,202.96,224.29Z"/>
      <path id="パス_4424" data-name="パス 4424" d="M241.19,225.52h-7.48c2.37,1.5,3.53,2.24,3.53,3.83a1.747,1.747,0,0,1-1.63,1.89c-1.2,0-1.29-.64-1.59-2.54a9.931,9.931,0,0,0-.95-3.18h-1.89a25.125,25.125,0,0,1-7.57,7.44l-.17-.21a53.473,53.473,0,0,0,7.48-12.34,6.237,6.237,0,0,0,.26-2.32l3.96,2.06c.3.17.39.34.39.56,0,.43-.64.65-1.72.99-.56.82-1.68,2.45-1.89,2.79h4.82l1.29-1.59c.21-.26.47-.56.64-.56.22,0,.47.21.82.47l1.93,1.59a.994.994,0,0,1,.43.65c0,.39-.39.47-.65.47Zm17.24,19.35c-1.2,5.63-1.81,8.64-7.78,9.33-.09-1.63-1.55-3.31-3.27-4.56l.04-.26a30.9,30.9,0,0,0,4.86.73c1.33,0,2.54-.39,3.23-6.28H243c.04,1.5.13,8.86.17,10.54,0,.21.09,1.46.09,1.76a1.915,1.915,0,0,1-2.11,1.81c-.56,0-1.16-.17-1.16-1.29,0-2.11.22-9.25.26-11.48a36.451,36.451,0,0,1-16.08,11.22l-.09-.34c2.88-1.55,9.2-6.62,13.63-12.21H229.2c-.52,1.98-.73,2.75-2.19,2.75-.99,0-1.5-.34-1.5-1.03,0-.13.47-1.46.77-2.24,1.59-4.47,1.68-5.68,1.81-8.13l3.48,1.98h8.77c0-.39-.04-3.57-.04-4.26h-6.49a28.27,28.27,0,0,0-5.07.43l-.86-1.72c2.11.17,4.51.26,6.62.26h17.41l1.16-1.12a.746.746,0,0,1,.47-.26,1.079,1.079,0,0,1,.6.26l2.02,1.55c.13.13.34.26.34.52,0,.39-.47.73-1.38,1.33,0,.65.17,3.61.17,4.04,0,1.46-1.72,1.63-2.02,1.63-1.12,0-1.08-.95-1.03-1.63H243v4.6h12.21l1.5-1.55c.17-.17.39-.43.56-.43s.47.26.64.43l1.98,1.81a.728.728,0,0,1,.3.52c0,.56-.69.77-1.76,1.29Zm-18.1-6.66H230.7c-.43,1.33-.47,1.68-1.2,4.6h10.84v-4.6Zm19.74-12.25H247.56c3.22,1.25,4.47,1.76,4.47,3.57a1.514,1.514,0,0,1-1.55,1.59c-1.08,0-1.25-.64-1.93-2.54a8.471,8.471,0,0,0-1.68-2.62h-1.63a22.67,22.67,0,0,1-5.03,5.33l-.22-.17c2.71-4.56,5.2-9.12,5.07-12.86l4.17,1.89a.582.582,0,0,1,.39.52c0,.43-.6.73-1.85,1.12a33.745,33.745,0,0,1-1.85,3.14h9.07l1.42-2.02c.17-.26.39-.52.65-.52a1.558,1.558,0,0,1,.82.43l2.41,2.02a.944.944,0,0,1,.43.64c0,.39-.34.47-.65.47Zm-7.78,6.97H243v4.26h9.29Z"/>
      <path id="パス_4425" data-name="パス 4425" d="M280.32,239.8a7.982,7.982,0,0,1,2.92,6.36c0,5.29-4.34,9.07-10.02,9.07-4.64,0-8.56-2.62-8.56-6.06a2.482,2.482,0,0,1,2.45-2.75,2.111,2.111,0,0,1,2.11,2.15,3.588,3.588,0,0,1-.26,1.38,2.964,2.964,0,0,0-.13.99c0,1.63,1.85,2.84,3.87,2.84,3.31,0,6.66-3.27,6.66-7.61s-3.27-7.87-6.71-7.87c-.26,0-1.46.17-1.72.17a.85.85,0,0,1-.95-.9.974.974,0,0,1,.99-.99c.26,0,1.55.26,1.85.26,3.61,0,5.89-3.22,5.89-6.71s-2.02-6.45-5.42-6.45a3.216,3.216,0,0,0-3.48,2.88,3.633,3.633,0,0,0,.13.64,4.04,4.04,0,0,1,.13,1.03,2.278,2.278,0,0,1-2.19,2.37,2.229,2.229,0,0,1-2.15-2.37c0-2.37,2.75-6.02,8.26-6.02s8.6,3.44,8.6,7.22a7.471,7.471,0,0,1-1.59,4.39,10.293,10.293,0,0,1-5.46,3.66,11.445,11.445,0,0,1,4.77,2.32Z"/>
      <path id="パス_4426" data-name="パス 4426" d="M312.65,230c-.86.34-1.16.6-2.58,3.4-6.62,12.86-13.29,18.75-22.75,21.41l-.13-.3a47.078,47.078,0,0,0,14.79-12.94c-.43-.04-.9-.43-1.68-1.29-2.97-3.4-3.4-3.87-5.72-5.16a23.9,23.9,0,0,1-7.18,5.59l-.13-.26c5.42-5.25,10.58-14.1,10.58-15.78,0-1.42-1.68-2.06-2.54-2.41a4.611,4.611,0,0,1,2.15-.52c2.45,0,4.77,2.11,4.77,3.01,0,.47-.09.56-1.08,1.42a15.141,15.141,0,0,0-1.16,1.59c.3,0,.73.04,1.55.04a32.635,32.635,0,0,0,7.05-.99,9.489,9.489,0,0,1,1.81-1.03c.52,0,3.35,2.75,3.35,3.35,0,.43-.17.47-1.12.86Zm-11.27-.13a4.07,4.07,0,0,1-2.24-.82,67.216,67.216,0,0,1-4.13,5.55c2.41.3,7.91,1.38,8.17,5.25a48.78,48.78,0,0,0,5.46-10.96c-1.16.13-6.28.99-7.27.99Z"/>
      <path id="パス_4427" data-name="パス 4427" d="M350.19,239.54c-.39,0-1.42-.09-1.5-.09a42.853,42.853,0,0,0-4.86-.17c-13.12,0-16.98.26-18.92.77-.13.04-1.5.39-1.63.39-1.12,0-3.44-2.75-3.44-4.73a4.866,4.866,0,0,1,.52-2.06c1.46,3.27,2.79,3.27,7.27,3.27,2.97,0,16.94-.04,18.92-.52.26-.04,1.5-.39,1.76-.39s4.56.47,4.56,2.15c0,1.33-2.15,1.38-2.67,1.38Z"/>
      <path id="パス_4428" data-name="パス 4428" d="M377.32,253.99c-.65,0-1.03-.21-2.54-1.63-2.02-1.94-4.08-3.87-10.84-6.54-2.45-.95-4.17-1.5-6.06-2.11,10.32-.34,20.81,4.56,20.81,8.73a1.46,1.46,0,0,1-1.38,1.55Zm-1.33-23.91c-.52,0-.73-.13-2.45-1.29-4.51-3.1-8.81-4.47-13.76-5.8a29.276,29.276,0,0,1,3.01-.13c4.82,0,14.41,1.76,14.41,5.85a1.326,1.326,0,0,1-1.2,1.38Zm-1.08,9.89c-.6,0-.77-.17-2.45-1.38-2.92-2.15-7.48-3.87-11.52-5.16a14.6,14.6,0,0,1,2.06-.09c.6,0,13.07.13,13.07,5.29,0,.04,0,1.33-1.16,1.33Z"/>
      <path id="パス_4429" data-name="パス 4429" d="M415.34,235.07c-.34,0-3.78-.56-4.3-.65a22.3,22.3,0,0,0-3.96-.26c-2.28,0-3.66.09-4.69.17a48.749,48.749,0,0,1-1.42,10.06c-1.03,3.87-4.64,10.19-11.78,12.17l-.09-.34c7.52-5.07,9.89-12.51,10.45-21.67-2.58.26-8.43,1.07-10.15,2.11-.86.52-.95.6-1.46.6a5.518,5.518,0,0,1-4.26-5.07,6.06,6.06,0,0,1,.13-1.33c1.46,2.24,2.92,2.75,4.39,2.75a23.139,23.139,0,0,0,2.97-.21c1.33-.13,7.22-.69,8.43-.82.04-1.81.13-6.32-.3-7.83-.3-1.12-1.38-1.59-3.4-2.15a4.669,4.669,0,0,1,2.88-1.12c1.76,0,4.77,1.16,4.77,2.58a8.8,8.8,0,0,1-.73,1.85,37.617,37.617,0,0,0-.3,4.47c0,1.12-.04,1.46-.04,1.98.77-.04,7.44-.39,7.53-.43.47-.09,2.36-.65,2.67-.65.17,0,4.3.56,4.3,2.45,0,1.33-1.08,1.33-1.63,1.33Z"/>
      <path id="パス_4430" data-name="パス 4430" d="M432.15,230.77c-.09.99-.43,5.42-.52,6.32-1.12,9.25-6.66,14.15-10.32,15.65l-.21-.26c7.95-7.48,7.95-16.77,7.95-20.38s-.04-3.57-3.31-4.43a5.037,5.037,0,0,1,2.84-1.12c1.12,0,4.04.95,4.04,2.15,0,.34-.43,1.76-.47,2.06Zm10.45,17.76a12.221,12.221,0,0,0-2.71,2.41c-.21.22-.6.65-.86.65-.82,0-2.75-3.53-2.75-4.08,0-.3.52-1.59.56-1.89a67.818,67.818,0,0,0,.39-8.56c0-1.59-.04-9.55-.26-10.58-.17-.77-1.03-1.33-3.1-2.02a4.761,4.761,0,0,1,2.41-.9c1.29,0,4.64,1.29,4.64,2.58a23.681,23.681,0,0,1-.6,2.45c-.43,2.19-.64,14.23-.64,16.86,0,.17,0,.73.3.73,1.03,0,8.82-4.95,15.57-13.55l.34.26c-2.92,7.05-9.12,12.69-13.29,15.65Z"/>
      <path id="パス_4431" data-name="パス 4431" d="M459.42,257.45v-1.94h13.1V216.34h1.9v41.12h-15Z"/>
      <path id="パス_4432" data-name="パス 4432" d="M482.3,254.25a1.179,1.179,0,0,1-1.19-1.34,41.32,41.32,0,0,1,1.37-4.16,4.668,4.668,0,0,0,.07-1.55l.33-.04a7.986,7.986,0,0,1,1.34,4.3c0,.98-.29,2.78-1.92,2.78Zm13.33-10.51a31.823,31.823,0,0,1-2.2,9.97,5.241,5.241,0,0,1-3.9,3,5.138,5.138,0,0,0-2.96-3.58l.07-.25a19.119,19.119,0,0,0,3.5.4c.72,0,1.01-.07,1.41-.94,1.05-2.35,1.59-7.05,1.59-9.43h-8.06a1.457,1.457,0,0,1-1.55,1.77c-.72,0-.9-.36-.9-.98,0-.22.07-1.08.07-1.26.14-2.28.18-8.56.18-11.06a38.774,38.774,0,0,0-.36-6l2.71,1.34h6.72l.87-1.05c.25-.29.43-.47.61-.47.22,0,.4.18.72.4l1.41,1.05a.887.887,0,0,1,.4.58c0,.25-.33.36-.58.36h-4.99v4.19h1.55l.69-.87c.29-.36.4-.51.58-.51s.4.18.72.4l1.16.87c.18.14.4.33.4.58,0,.33-.33.4-.58.4h-4.52v4.16h1.59l.87-1.01c.25-.29.4-.43.58-.43.22,0,.36.11.65.36l1.08,1.01a.857.857,0,0,1,.33.58c0,.22-.22.36-.54.36H490.4v4.37h2.42l.94-1.05c.22-.25.4-.43.58-.43s.4.14.72.47l1.41,1.3a.689.689,0,0,1,.25.47c0,.43-.83.83-1.08.94Zm-9.14,8.96c-1.19,0-1.19-1.52-1.19-2.28,0-2.24,0-3-.4-3.97l.22-.11c.25.29,1.55,1.59,1.73,1.92a5.192,5.192,0,0,1,1.01,2.78,1.569,1.569,0,0,1-1.37,1.66Zm1.73-25.11h-3.18v4.19h3.18Zm0,5.06h-3.18v4.16h3.18Zm0,5.02h-3.18v4.37h3.18Zm1.26,12.68c-.94,0-1.05-.61-1.34-2.67a9.843,9.843,0,0,0-.69-2.64l.14-.11c1.91,1.66,3,2.64,3,4.05a1.254,1.254,0,0,1-1.12,1.37Zm2.02-2.67c-.72,0-.87-.58-1.26-2.02a4.551,4.551,0,0,0-.83-1.66l.22-.22c1.7.79,2.78,1.55,2.78,2.75,0,.58-.33,1.16-.9,1.16Zm23.92,6.65a5.4,5.4,0,0,0-3.43,2.13c-4.05-3.29-7.05-9.5-7.05-18.03h-3.87c-.36,8.89-2.13,14.34-7.41,18.14l-.18-.14c5.06-5.49,5.24-15.57,5.24-23.09a33.457,33.457,0,0,0-.61-7.66l3.43,1.52h7.44l1.05-1.01a.877.877,0,0,1,.58-.33c.18,0,.33.07.61.33l1.45,1.23a.739.739,0,0,1,.33.58c0,.25-.69.76-1.12,1.05-.04.61-.07,1.3-.07,2.28,0,1.16.22,6.21.22,7.34s-1.12,1.45-1.7,1.45c-1.16,0-1.08-.8-1.05-1.66h-3.69c.83,7.88,6.03,14.13,9.86,15.68l-.04.22Zm-6.11-26.27h-8.02c-.04,1.37-.18,8.02-.18,9.5h8.2v-9.5Z"/>
    </g>
    <line id="線_104" data-name="線 104" x2="361.23" transform="translate(533.92 241.22)" fill="none" stroke="#000" stroke-miterlimit="10" stroke-width="1"/>
  </g>
  <rect id="長方形_160" data-name="長方形 160" width="1095" height="63" transform="translate(0 69.17)" fill="url(#linear-gradient)"/>
  <path id="パス_4472" data-name="パス 4472" d="M37.48,103.69a16.9,16.9,0,0,0,11.61,5.67v.22a4.276,4.276,0,0,0-2.89,2.46c-.84-.27-6.86-3.37-9.2-8.21.03,1.21.05,6.53.11,7.61,0,.14.03.78.03.92a1.392,1.392,0,0,1-1.51,1.32c-.57,0-.7-.4-.7-.76a5.6,5.6,0,0,1,.03-.59c.14-1.86.3-4.18.3-7.34a24.416,24.416,0,0,1-11.39,7.13l-.08-.22c4.08-1.65,9.69-7.31,10.23-8.21H30.4c0,.92-.19,1.59-1.4,1.59-.57,0-.67-.27-.67-.59,0-.3.13-1.62.13-1.89.05-.89.08-2.35.08-3.81a16.325,16.325,0,0,0-.35-4.4L30.7,95.7h4.59c0-.62-.03-2.1-.05-2.78H27.9a18.266,18.266,0,0,0-3.18.24l-.54-1.08c2,.16,3.75.19,4.16.19h6.88a10.056,10.056,0,0,0-.54-3.51l2.81.73c.24.05.46.16.46.38,0,.3-.65.73-.89.89v1.51H44.4l1.16-1.35c.19-.22.3-.35.43-.35a.959.959,0,0,1,.49.3l1.65,1.35c.19.16.27.27.27.4,0,.24-.24.3-.4.3H37.04V95.7h4.62l.89-.78a.686.686,0,0,1,.32-.19.629.629,0,0,1,.38.19l1.21.97a.61.61,0,0,1,.27.43c0,.24-.16.35-.86.78-.03.59-.03,1.38.05,3.37.03.38.16,3.27.16,3.51,0,.86-.78,1.13-1.38,1.13-.73,0-.7-.57-.65-1.43H37.52Zm-7.13-7.34v2.92h4.89l.03-2.92H30.36Zm4.89,6.69V99.91H30.35v3.13Zm6.78,0V99.91H37c0,.43-.03,2.65-.03,3.13Zm0-3.78V96.34H37v2.92Z" fill="#fff"/>
  <path id="パス_4473" data-name="パス 4473" d="M53.26,111.9a1.186,1.186,0,0,1-1.16-1.16c0-.67.59-1.13,1.43-1.78a6.315,6.315,0,0,0,2.08-2.89h.16c.03.32.05.67.05,1.16C55.82,109.74,54.77,111.9,53.26,111.9ZM73.75,96.38a6.756,6.756,0,0,0-.59.43c.05,2.73.08,3.78.13,4.86,0,.24.08,1.24.08,1.46a1.151,1.151,0,0,1-1.24,1.13c-.84,0-.84-.54-.84-.86v-.35H58.79a18.606,18.606,0,0,0-3.19.24l-.51-1.08c1.7.14,3.4.19,4.13.19H71.29V99.54H59.2a18.425,18.425,0,0,0-3.19.24l-.54-1.05c1.67.13,3.35.16,4.16.16H71.29V96.14H56.47a21.5,21.5,0,0,1-3.78,2.46l-.08-.11a36.078,36.078,0,0,0,6.61-8.34,4,4,0,0,0,.38-1.51l2.38,1.16a.593.593,0,0,1,.38.51c0,.27-.57.46-1,.57-.14.16-.4.49-.62.73h6.02l.97-.81c.16-.13.35-.3.46-.3a1.315,1.315,0,0,1,.57.3l1.27,1c.14.11.27.22.27.4,0,.32-.22.35-1.03.54-.32.08-.51.22-2.75,1.78-.46.32-1.05.73-1.43.97h5.86l.78-.76c.13-.13.32-.32.43-.32.14,0,.3.16.41.24l1.16.92c.16.13.3.27.3.43,0,.13-.11.24-.27.38Zm-13.6-4.13c-.38.41-2.54,2.81-2.94,3.24h7.23a32.655,32.655,0,0,0,2-3.24Zm9.66,20.43c-.92.19-6.15.19-7.72.19-2.97,0-3.19-.57-3.19-3.13,0-4.43,0-4.62-.22-5.56l2.54.81c.16.05.43.22.43.38a.426.426,0,0,1-.22.32c-.08.08-.51.4-.59.49,0,.35-.05,3.97,0,4.4.05.49.59.51,1.24.51a58.132,58.132,0,0,0,6.05-.19,1.266,1.266,0,0,0,.81-.81,26.458,26.458,0,0,0,.81-3.05h.19c.16.89.51,2.91,1.03,3.37.43.4.59.57.59.89s-.3,1.11-1.75,1.38Zm-3.78-4.37c-.73,0-.86-.32-1.51-1.89a6,6,0,0,0-1.43-2.16l.11-.16c3.54,1,3.86,2.4,3.86,2.81,0,.62-.24,1.4-1.03,1.4Zm9.42,2.19c-.76,0-.84-.19-1.59-1.89a8.52,8.52,0,0,0-1.86-3l.03-.05c1.46.24,4.56,1.86,4.56,3.75a1.12,1.12,0,0,1-1.13,1.19Z" fill="#fff"/>
  <path id="パス_4474" data-name="パス 4474" d="M98.72,92.95c-4.35,4.56-6.91,6.86-10.34,8.48a25.982,25.982,0,0,1-7.88,2.51l-.11-.22a38.6,38.6,0,0,0,10.96-5.97,31.755,31.755,0,0,0,5.59-5.86H90.81c-.92,1-1.48,1.57-2.21,2.27,1.84.49,3.32.89,3.32,2.48a1.106,1.106,0,0,1-1.08,1.16c-.76,0-1.03-.62-1.54-1.84a4.47,4.47,0,0,0-.97-1.54,23.044,23.044,0,0,1-7.05,4.45l-.13-.19c4.02-2.65,8.88-7.69,9.53-10.45l2.38,1.03a.452.452,0,0,1,.32.38c0,.27-.22.41-1.13.54-.3.38-.46.57-.86,1.05h5.67l1.05-.78c.16-.11.27-.22.38-.22a.613.613,0,0,1,.35.19l1.57,1.16a.813.813,0,0,1,.32.46c0,.3-.3.49-2,.89Zm3.73,9.96a37.365,37.365,0,0,1-7.96,7.21,27.292,27.292,0,0,1-12.5,3.78l-.05-.24c4-.89,8.64-2.19,12.96-5.78a26.576,26.576,0,0,0,5.64-6.18H94.52a28.74,28.74,0,0,1-3.37,2.67c.22.05,3.62.97,3.62,2.81a1.261,1.261,0,0,1-1.21,1.27c-.64,0-.7-.19-1.35-1.75a7.669,7.669,0,0,0-1.43-2.08,24.487,24.487,0,0,1-8.53,3.59l-.19-.19a33.328,33.328,0,0,0,11.66-7.96c1.75-1.84,1.97-2.38,2.24-3.1l2.19,1.16c.16.08.32.19.32.38,0,.35-.49.41-1.21.46a20.866,20.866,0,0,1-2.02,2.11h5.45l.84-.62c.11-.08.27-.24.4-.24s.22.11.35.22l1.62,1.32a.592.592,0,0,1,.27.43c0,.24-.19.4-1.7.76Z" fill="#fff"/>
  <path id="パス_4475" data-name="パス 4475" d="M128.55,92.17l.86-1.27c.14-.22.24-.35.41-.35s.3.11.57.32l1.57,1.24c.13.11.27.24.27.4,0,.19-.16.3-.41.3H113.33c.03.54.08,3.51.08,3.73,0,7.91-.89,12.09-4.45,15.28l-.16-.11a13.143,13.143,0,0,0,2.02-4.99,43.4,43.4,0,0,0,.7-8.37,54.552,54.552,0,0,0-.46-7.58l2.59,1.4h7.26a9.518,9.518,0,0,0-.49-3.51l2.7.7c.22.05.35.14.35.35s-.19.46-.78.76a16.065,16.065,0,0,1,0,1.7h5.86ZM114.43,104.1c3.19,0,10.74-1.54,12.55-2.54l1.38,1.08a.5.5,0,0,1,.22.4c0,.16-.08.4-.46.4-.14,0-.4-.05-.62-.08-1.51.3-2.81.54-4.51.78v2.08h2.89l.78-1.08c.16-.22.27-.35.43-.35a.927.927,0,0,1,.54.3l1.19,1.08a.654.654,0,0,1,.24.46c0,.16-.16.24-.38.24h-5.7v1.89h6.29l.86-1.21c.16-.24.3-.38.43-.38a.97.97,0,0,1,.59.32l1.4,1.21a.65.65,0,0,1,.27.43c0,.16-.13.27-.38.27h-9.47c0,.32.03,1.75,0,2.02-.11,1.38-1.89,2.02-2.75,2.16a2.994,2.994,0,0,0-2.24-2.4l.03-.19c.32.03,1.75.11,2.05.11,1.21,0,1.21-.16,1.24-1.7h-5.43a19.965,19.965,0,0,0-3.19.24l-.65-1.05c1.84.13,3.78.16,4.16.16h5.1v-1.89h-3.1a19.965,19.965,0,0,0-3.19.24l-.65-1.08c1.86.16,3.78.19,4.16.19h2.78v-1.86a35.314,35.314,0,0,1-3.7.22,17.922,17.922,0,0,1-3.19-.27v-.22Zm-.27-8.56c.84.08,1.73.16,3.97.19a8.532,8.532,0,0,0-.38-2.56l2.13.54c.19.05.32.16.32.32,0,.22-.13.32-.59.54,0,.46-.03.62-.03,1.16h.97l.38-.62c.16-.27.24-.38.4-.38.14,0,.3.14.49.32l.62.62a.86.86,0,0,1,.27.46c0,.11-.14.24-.43.24h-2.7v.54c1.03.14,2.46.81,2.46,1.89a.847.847,0,0,1-.81.94c-.57,0-.67-.32-.94-1.21a3.7,3.7,0,0,0-.7-1.35c.03.67.13,4.21.13,4.29a.923.923,0,0,1-1.03,1.08c-.67,0-.73-.38-.73-.89,0-.08.16-3.62.19-4.29a13.64,13.64,0,0,1-4.4,4.24l-.13-.19a22.245,22.245,0,0,0,3.43-5.02,16.144,16.144,0,0,0-2.38.22l-.51-1.08Zm8.93-.05c.59.05,1.08.11,2.43.16a9.668,9.668,0,0,0-.32-2.51l2.02.51c.24.05.46.16.46.32,0,.22-.24.46-.65.67-.03.24,0,.54,0,1.03h2.56l.57-.89c.14-.22.27-.35.43-.35s.3.11.51.3l1,.89a.546.546,0,0,1,.24.4c0,.19-.13.3-.38.3h-4.4a10.6,10.6,0,0,0,6.21,3.16v.16a3.73,3.73,0,0,0-2.08,1.65,12.066,12.066,0,0,1-4.56-4.97h-.11c0,.67.08,3.54.08,4.18,0,.35,0,1-1.05,1-.49,0-.62-.27-.62-.76,0-.24.08-1.32.08-1.54.03-.7.03-1.16.03-1.51a12.011,12.011,0,0,1-4.48,3.64l-.05-.19a21.6,21.6,0,0,0,3.78-4.75,9.3,9.3,0,0,0-1.16.16l-.54-1.08Z" fill="#fff"/>
  <path id="パス_4476" data-name="パス 4476" d="M143.08,92.11c.05,2.11.08,3.89.08,4.91,0,5.67-.08,12.96-5.64,15.76l-.11-.14c2.7-2.83,3.83-6.1,3.83-14.44a60.612,60.612,0,0,0-.41-8.15l2.78.73c.35.08.54.27.54.49s-.19.49-1.08.84Zm7.21.4c-.03.78-.05,2.29-.05,4.64,0,3.4.22,8.83.22,12.23a1.278,1.278,0,0,1-1.43,1.32c-.76,0-.78-.51-.78-.86,0-.27.13-2.75.13-3.16.05-1.89.11-3.48.11-8.56a45.308,45.308,0,0,0-.4-7.5l2.62.67c.24.05.46.22.46.38,0,.24-.16.46-.86.84Zm8.26-.62c-.08,3.67-.08,6.07-.08,7.64,0,1.86.19,10.18.19,11.88a1.321,1.321,0,0,1-1.46,1.54.745.745,0,0,1-.84-.86c0-.54.11-2.86.14-3.35.08-3.16.11-6.32.11-9.45,0-4.62-.03-6.29-.16-7.61a9.063,9.063,0,0,0-.32-1.86l2.89.89c.3.08.46.24.46.41,0,.32-.27.51-.92.78Z" fill="#fff"/>
  <path id="パス_4477" data-name="パス 4477" d="M165.2,112.17a31.489,31.489,0,0,0,1.97-8.29,5.716,5.716,0,0,0-.08-.92l2.38.89c.11.05.3.14.3.35,0,.24-.08.3-.7.73-.57,1.73-1.75,5.16-3.67,7.31l-.19-.08Zm10.74-18.65a.433.433,0,0,1,.19.38c0,.32-.27.4-1.13.59-.92,1.24-2.35,3.13-4.75,5.83.13-.03,1.97-.08,3.37-.22a16.4,16.4,0,0,0-.97-1.92l.13-.19c1.46.62,3.29,1.81,3.29,3.21a1.113,1.113,0,0,1-1.08,1.21c-.7,0-.73-.22-1.24-1.94-.41.14-.86.27-1.92.57.03,3.73,0,5.64.05,7.94,0,.49.08,2.56.08,3,0,.4,0,1.48-1.21,1.48a.715.715,0,0,1-.76-.84c0-1.24.22-9.39.24-11.18-.67.16-1.54.38-3.45.76-.38.4-.4.46-.62.46-.19,0-.32-.19-.38-.38l-.57-2.29a8.223,8.223,0,0,0,2.51.4c.16,0,1.62-.05,1.84-.08,1.78-2.65,4.08-6.67,4.05-8.31l2.32,1.51Zm-9.69-.27a6.369,6.369,0,0,1,2.81.86c0-.03,1.35-3.56,1.16-5.29l2.59,1.35a.44.44,0,0,1,.27.35c0,.27-.24.38-1.19.76-.97,1.32-1.32,1.73-2.46,3.08a2.517,2.517,0,0,1,1.19,1.92,1.141,1.141,0,0,1-1.03,1.24c-.67,0-.92-.57-1.11-.97a8.691,8.691,0,0,0-2.32-3.1l.08-.19Zm6.24,10.42c1.81.65,3.19,1.92,3.19,3.02a1.044,1.044,0,0,1-1.03,1.16c-.76,0-.89-.43-1.3-1.89a5.567,5.567,0,0,0-1.03-2.13l.16-.16Zm4.18.46a5.985,5.985,0,0,0-1.35.11l-.38-.86c1,.08,1.81.11,2.05.11h.84l.51-.62c.05-.05.19-.22.35-.22a.744.744,0,0,1,.4.24l1.08,1.03c.11.11.3.27.3.46,0,.22-.08.32-.89.62a13.769,13.769,0,0,1-6.32,6.91l-.05-.16a17.406,17.406,0,0,0,4.67-7.61h-1.21Zm5.61-3.54.49.16c.19.05.59.22.59.49,0,.32-.49.59-.7.7a9.514,9.514,0,0,0,1.57,3.7,10.511,10.511,0,0,0,2.91-3.67l1.86,1.86a.629.629,0,0,1,.14.35c0,.05-.03.35-.43.35-.08,0-.43-.03-.7-.05a38.3,38.3,0,0,1-3.62,1.43,11.143,11.143,0,0,0,6.53,4.4v.22c-1.89.46-2.27,1.05-2.73,1.73a14.979,14.979,0,0,1-5.48-8.02c0,1,.16,5.4.16,6.29,0,.65,0,2.51-2.7,3-.3-.86-.59-1.7-2.78-2.62l.03-.22c.43.05,2.24.16,2.59.16,1.08,0,1.11-.22,1.11-1.03v-7.29a12.333,12.333,0,0,0-.08-1.94h-2.16a.989.989,0,0,1-1.08,1.11c-.59,0-.86-.22-.86-.7,0-.38.13-3.91.13-4.64a44.138,44.138,0,0,0-.24-5.37l2.19,1.16h1.62a10.085,10.085,0,0,0,.24-2.24,6.118,6.118,0,0,0-.14-1.32l2.54.81c.22.08.46.19.46.46,0,.35-.27.43-.97.57a20.365,20.365,0,0,1-1.46,1.73h3.67l.73-.84a.828.828,0,0,1,.46-.3.748.748,0,0,1,.4.19l1.27.94c.16.11.35.3.35.46,0,.24-.11.3-1,.94,0,1.11.24,6.32.24,6.91a1.13,1.13,0,0,1-1.27,1.19c-.73,0-.73-.43-.7-1.05h-3.19Zm-3.43-7.8v3.24h6.61V92.79Zm6.61,7.15V96.67h-6.61v3.27Z" fill="#fff"/>
  <path id="パス_4478" data-name="パス 4478" d="M198.51,90.22v23.4h-1.13V89.06h8.96v1.16h-7.83Z" fill="#fff"/>
  <path id="パス_4479" data-name="パス 4479" d="M234.26,92.52H223.11v4.43c2.67.46,6.78,1.97,6.78,4.59a1.157,1.157,0,0,1-1.13,1.27c-.7,0-.92-.35-1.89-1.92a11.537,11.537,0,0,0-3.75-3.62c.03,6.13.03,6.8.16,13.01,0,.19.03,1.08.03,1.27a1.3,1.3,0,0,1-1.46,1.4c-.92,0-.92-.59-.92-.89,0-.78.19-4.62.22-5.48.05-2.13.05-3.32.05-14.06h-6.56a19.187,19.187,0,0,0-3.16.24l-.54-1.08c1.38.11,2.75.19,4.16.19h15.01l1.51-1.46c.19-.16.35-.3.43-.3a.881.881,0,0,1,.51.27l1.86,1.43a.6.6,0,0,1,.27.4c0,.27-.27.3-.43.3Z" fill="#fff"/>
  <path id="パス_4480" data-name="パス 4480" d="M262.36,112.38c-.84.38-2.05.41-4.56.41-2.19,0-3.83-.05-3.83-2.48,0-2.24.62-12.12.7-14.14H250.3a38.226,38.226,0,0,1-1.05,6.24c.65.38,3.29,2,3.29,3.56a.979.979,0,0,1-1.08,1.05,1,1,0,0,1-.84-.43c-1.16-1.35-1.46-1.65-1.97-2.19a14.766,14.766,0,0,1-6.05,7.61,15.388,15.388,0,0,1-3.7,1.7l-.08-.16a17.619,17.619,0,0,0,8.37-10.53,15.151,15.151,0,0,0-4.02-2.67v-.16a16.4,16.4,0,0,1,4.4,1.35,30.615,30.615,0,0,0,.73-5.37h-4.62a18.606,18.606,0,0,0-3.19.24l-.51-1.05c1.67.13,3.35.16,4.13.16h4.24a26.852,26.852,0,0,0-.49-6.78l3.32.97a.435.435,0,0,1,.27.38c0,.22-.16.35-.84.89-.05,2.54-.22,4.13-.24,4.54h4.08l1.03-.89c.11-.08.3-.27.43-.27a.806.806,0,0,1,.43.19l1.32,1.13c.08.08.22.16.22.3,0,.27-.35.46-1.21.94-.27,1.78-.59,8.72-.67,11.01-.03.73-.05,1.4-.05,1.51,0,1.43.4,1.43,2.89,1.43,1.21,0,1.84,0,2.13-.94.24-.76.73-3.05.92-4h.16c.11.62.51,3.35.67,3.89.11.3.16.35.54.7a.759.759,0,0,1,.24.59c0,.4-.3.92-1.13,1.27Z" fill="#fff"/>
  <path id="パス_4481" data-name="パス 4481" d="M291.25,101.37H280.37v8.8c0,1.03,0,3-3.46,3.35-.08-.81-.27-1.75-3.16-3.08l.03-.19a22.8,22.8,0,0,0,2.94.27c1.27,0,1.65-.11,1.65-1.13v-8.02h-7.45a18.425,18.425,0,0,0-3.19.24l-.54-1.08c1.67.13,3.35.19,4.16.19h7.02V97.99a7.2,7.2,0,0,0-.46-3.19l2.51.7a38.865,38.865,0,0,0,2.7-4.13h-9.23a18.606,18.606,0,0,0-3.19.24l-.51-1.08c1.67.13,3.32.19,4.13.19h8.96l1.05-.92c.27-.22.32-.27.51-.27.11,0,.22.08.46.27l1.89,1.54a.626.626,0,0,1,.27.46c0,.4-.32.51-2,.57a51.478,51.478,0,0,1-4.51,3.29.419.419,0,0,1,.32.35c0,.35-.43.59-.92.89v3.81h6.83l1.4-1.54c.24-.24.3-.35.4-.35.13,0,.27.11.51.3l1.86,1.54a.592.592,0,0,1,.27.43c0,.24-.22.27-.41.27Z" fill="#fff"/>
  <path id="パス_4482" data-name="パス 4482" d="M296.09,113.41v-1.16h7.83V88.85h1.13v24.56h-8.96Z" fill="#fff"/>
  <path id="パス_4483" data-name="パス 4483" d="M311.48,111.36a.883.883,0,0,1-.89-1,29.629,29.629,0,0,1,1.03-3.1,3.354,3.354,0,0,0,.05-1.16l.24-.03a5.95,5.95,0,0,1,1,3.21c0,.73-.22,2.08-1.43,2.08Zm9.96-7.85a23.286,23.286,0,0,1-1.65,7.45,3.913,3.913,0,0,1-2.92,2.24,3.853,3.853,0,0,0-2.21-2.67l.05-.19a14.228,14.228,0,0,0,2.62.3c.54,0,.76-.05,1.05-.7a22.108,22.108,0,0,0,1.19-7.05h-6.02a1.089,1.089,0,0,1-1.16,1.32c-.54,0-.67-.27-.67-.73,0-.16.05-.81.05-.94.11-1.7.14-6.4.14-8.26a28.827,28.827,0,0,0-.27-4.48l2.02,1h5.02l.65-.78c.19-.22.32-.35.46-.35.16,0,.3.14.54.3l1.05.78a.643.643,0,0,1,.3.43c0,.19-.24.27-.43.27h-3.73v3.13h1.16l.51-.65c.22-.27.3-.38.43-.38s.3.13.54.3l.86.65c.13.11.3.24.3.43,0,.24-.24.3-.43.3h-3.37v3.1h1.19l.65-.76c.19-.22.3-.32.43-.32.16,0,.27.08.49.27l.81.76a.655.655,0,0,1,.24.43c0,.16-.16.27-.4.27h-3.4v3.27h1.81l.7-.78c.16-.19.3-.32.43-.32s.3.11.54.35l1.05.97a.516.516,0,0,1,.19.35c0,.32-.62.62-.81.7Zm-6.83,6.69c-.89,0-.89-1.13-.89-1.7a7.25,7.25,0,0,0-.3-2.97l.16-.08c.19.22,1.16,1.19,1.3,1.43a3.89,3.89,0,0,1,.76,2.08A1.175,1.175,0,0,1,314.61,110.2Zm1.3-18.76h-2.38v3.13h2.38Zm0,3.78h-2.38v3.1h2.38Zm0,3.75h-2.38v3.27h2.38Zm.94,9.47c-.7,0-.78-.46-1-2a7.549,7.549,0,0,0-.51-1.97l.11-.08c1.43,1.24,2.24,1.97,2.24,3.02a.941.941,0,0,1-.84,1.03Zm1.51-2c-.54,0-.65-.43-.94-1.51a3.429,3.429,0,0,0-.62-1.24l.16-.16c1.27.59,2.08,1.16,2.08,2.05,0,.43-.24.86-.67.86Zm17.87,4.97a3.964,3.964,0,0,0-2.56,1.59c-3.02-2.46-5.26-7.1-5.26-13.47h-2.89c-.27,6.64-1.59,10.72-5.53,13.55l-.14-.11c3.78-4.1,3.91-11.63,3.91-17.25A24.766,24.766,0,0,0,323.3,90l2.56,1.13h5.56l.78-.76a.655.655,0,0,1,.43-.24c.13,0,.24.05.46.24l1.08.92a.55.55,0,0,1,.24.43c0,.19-.51.57-.84.78-.03.46-.05.97-.05,1.7,0,.86.16,4.64.16,5.48s-.84,1.08-1.27,1.08c-.86,0-.81-.59-.78-1.24h-2.75c.62,5.88,4.51,10.55,7.37,11.71l-.03.16Zm-4.56-19.62h-5.99c-.03,1.03-.13,5.99-.13,7.1h6.13v-7.1Z" fill="#fff"/>
  <path id="パス_4484" data-name="パス 4484" d="M350.79,110.71a4.116,4.116,0,0,1-2.38,1.43c-.67,0-.73-.32-.81-1.13-.08-.86-1.19-2.48-1.94-3.59l.03-.14a13.283,13.283,0,0,0,3.24,1.84c1.89,0,3.16-7.02,3.16-8.91,0-2.16-.57-2.81-1.84-2.81a10.517,10.517,0,0,0-1.78.24c-.38.86-2.08,4.75-2.38,5.4a81.424,81.424,0,0,1-4.08,7.77,1.068,1.068,0,0,1-.84.54c-.43,0-.84-.46-.84-1.21,0-.81.19-1.05,1.11-2.19a38.4,38.4,0,0,0,3.59-6.13c.59-1.21,1.16-2.46,1.67-3.73a15.364,15.364,0,0,0-3.75,1.65c-.65.4-.86.51-1.16.51a2.838,2.838,0,0,1-2.24-2.54,1.827,1.827,0,0,1,.3-.97c.67,1.21,1.35,1.32,1.84,1.32a6.225,6.225,0,0,0,1.57-.24c.4-.11,2.67-.67,4-1a16.519,16.519,0,0,0,1.24-4.1c0-1.11-.46-1.35-1.92-2.08a4.57,4.57,0,0,1,1.57-.32c1.03,0,2.75,1.19,2.75,1.92,0,.32-.05.46-.67,1.57-.16.27-.81,1.75-1.21,2.64.35-.03.89-.11,1.48-.11,2.56,0,3.13,2.11,3.13,4.35,0,1.89-.84,7.85-2.83,10.01Zm11.2-6.45a7.378,7.378,0,0,1-1.46-.73,21.006,21.006,0,0,0-3.73-.97v-.19c2.73-.27,3.4-.54,3.4-1.3,0-.3-.86-2.4-5.05-5.21,5.05.92,7.53,4.53,7.53,7.18,0,.22,0,1.21-.7,1.21Z" fill="#fff"/>
  <path id="パス_4485" data-name="パス 4485" d="M371.99,111.95v-.16a19.455,19.455,0,0,0,6.34-2.21c1.92-1.03,3.51-2.32,3.51-4.62a3.173,3.173,0,0,0-3.4-3.46c-3.24,0-6.67,2.16-8.83,5.43a.817.817,0,0,1-.67.49c-1,0-1.43-1.59-1.43-2.16a8.546,8.546,0,0,1,.35-1.94,41.233,41.233,0,0,0,.49-5.67c0-2.46,0-3.86,4.67-4.59.16-.03.24-.05.24-.19s-.08-.19-.73-.62a3.637,3.637,0,0,1-1.67-2.67c1.16.94,1.38,1.03,3.89,2.08.59.24,2.11.86,2.11,2.48,0,.59-.22.84-.57.84a2.879,2.879,0,0,1-1.24-.43,8.007,8.007,0,0,0-2.81-.46c-2.05,0-2.91.65-2.91,1.43,0,.27.05.43.59,1.78a3.4,3.4,0,0,1,.19.94,13.648,13.648,0,0,1-.38,1.59,18.792,18.792,0,0,0-.57,3.67c0,.16.03.62.35.62.16,0,1.84-1.21,2.19-1.43a14.083,14.083,0,0,1,6.96-2.16c3.7,0,5.26,2.59,5.26,4.7,0,4.45-5.51,7.1-11.93,6.72Z" fill="#fff"/>
  <path id="パス_4486" data-name="パス 4486" d="M30.33,13.19v23.4H29.2V12.03h8.96v1.16Z"/>
  <path id="パス_4487" data-name="パス 4487" d="M50.9,30.41A21.6,21.6,0,0,1,42.26,36l-.08-.19c2.43-1.48,6.59-5.45,7.32-7.85l2.24,1.7a.511.511,0,0,1,.27.4c0,.35-.27.38-1.11.35ZM66.53,16.43H46.23a16.965,16.965,0,0,0-3.16.27l-.54-1.08c1.84.16,3.75.16,4.16.16h7.02a9.541,9.541,0,0,0-.57-3.99l3,.67c.19.05.46.13.46.35,0,.3-.24.43-.92.81-.03.89-.03,1.03-.03,2.16h6.94l1.24-1.32c.22-.24.27-.35.4-.35a1.414,1.414,0,0,1,.57.3l1.86,1.32a.624.624,0,0,1,.27.43c0,.24-.24.27-.4.27ZM61.7,20.96c0,.57,0,1.24.03,2.48.03.49.16,2.56.16,2.97a1.32,1.32,0,0,1-1.32,1.27c-.76,0-.76-.38-.7-1.35H55.82c0,1.16.08,6.26.08,7.32,0,.97,0,2.56-2.83,3.21-.22-1.75-2.54-2.78-3.02-3l.03-.19a22.291,22.291,0,0,0,3.13.35c.78,0,.81-.16.81-1.27V26.33H49.3c.05.76.11,1.7-1.3,1.7-.59,0-.73-.32-.73-.73,0-.11.03-.46.03-.59.03-.81.08-3.32.08-4.29a16.614,16.614,0,0,0-.27-4.32l2.51,1.4H59.66l.81-.89c.11-.11.22-.22.35-.22a.652.652,0,0,1,.38.19l1.27,1.03c.27.22.32.3.32.43,0,.35-.22.43-1.08.92Zm-1.84-.81H49.28v5.53H59.86V20.15Zm4.32,15.01c-.73,0-.86-.24-2-1.89A12.931,12.931,0,0,0,58.1,29l.05-.19c2.78.46,7.04,2.67,7.04,5.16a1.1,1.1,0,0,1-1.03,1.19Z"/>
  <path id="パス_4488" data-name="パス 4488" d="M71.69,34.86a1.186,1.186,0,0,1-1.16-1.16c0-.67.59-1.13,1.43-1.78a6.315,6.315,0,0,0,2.08-2.89h.16c.03.32.05.67.05,1.16,0,2.51-1.05,4.67-2.56,4.67ZM92.18,19.34a6.756,6.756,0,0,0-.59.43c.05,2.73.08,3.78.13,4.86,0,.24.08,1.24.08,1.46a1.151,1.151,0,0,1-1.24,1.13c-.84,0-.84-.54-.84-.86v-.35H77.22a18.606,18.606,0,0,0-3.19.24l-.51-1.08c1.7.14,3.4.19,4.13.19H89.72V22.5H77.63a18.425,18.425,0,0,0-3.19.24l-.54-1.05c1.67.13,3.35.16,4.16.16H89.72V19.1H74.9a21.5,21.5,0,0,1-3.78,2.46l-.08-.11a36.294,36.294,0,0,0,6.61-8.34,4,4,0,0,0,.38-1.51l2.38,1.16a.593.593,0,0,1,.38.51c0,.27-.57.46-1,.57-.14.16-.4.49-.62.73h6.02l.97-.81c.16-.13.35-.3.46-.3a1.315,1.315,0,0,1,.57.3l1.27,1c.14.11.27.22.27.4,0,.32-.22.35-1.03.54-.32.08-.51.22-2.75,1.78-.46.32-1.05.73-1.43.97h5.86l.78-.76c.13-.13.32-.32.43-.32.14,0,.3.16.41.24l1.16.92c.16.13.3.27.3.43,0,.13-.11.24-.27.38Zm-13.6-4.13c-.38.41-2.54,2.81-2.94,3.24h7.23a32.655,32.655,0,0,0,2-3.24H78.58Zm9.66,20.43c-.92.19-6.15.19-7.72.19-2.97,0-3.19-.57-3.19-3.13,0-4.43,0-4.62-.22-5.56l2.54.81c.16.05.43.22.43.38a.426.426,0,0,1-.22.32c-.08.08-.51.4-.59.49,0,.35-.05,3.97,0,4.4.05.49.59.51,1.24.51a58.133,58.133,0,0,0,6.05-.19,1.266,1.266,0,0,0,.81-.81A26.458,26.458,0,0,0,88.18,30h.19c.16.89.51,2.91,1.03,3.37.43.4.59.57.59.89s-.3,1.11-1.75,1.38Zm-3.78-4.37c-.73,0-.86-.32-1.51-1.89a6,6,0,0,0-1.43-2.16l.11-.16c3.54,1,3.86,2.4,3.86,2.81C85.49,30.49,85.25,31.27,84.46,31.27Zm9.42,2.19c-.76,0-.84-.19-1.59-1.89a8.52,8.52,0,0,0-1.86-3l.03-.05c1.46.24,4.56,1.86,4.56,3.75a1.12,1.12,0,0,1-1.13,1.19Z"/>
  <path id="パス_4489" data-name="パス 4489" d="M112.92,14.67a6.911,6.911,0,0,0-.38-2.67l2.56.62c.22.05.38.14.38.38,0,.35-.16.43-.78.78v.89h4.75l.86-1.21c.08-.13.24-.35.4-.35.13,0,.35.19.49.3l1.57,1.21a.512.512,0,0,1,.27.41c0,.27-.24.3-.4.3H114.7a6.024,6.024,0,0,1,0,1.59c-.11.46-.67.65-1.16.65-.35,0-.62-.16-.65-.51,0-.11-.03-1.16,0-1.73h-4.64c0,.32.08,1.75.08,2.05,0,.65-.7.86-1.3.86-.4,0-.57-.22-.57-.76,0-.35.05-1.86.05-2.16h-3.13a19.318,19.318,0,0,0-3.16.24l-.54-1.08c1.38.13,2.75.19,4.13.19h2.67a6.908,6.908,0,0,0-.4-2.62l2.65.59a.344.344,0,0,1,.32.32c0,.4-.24.54-.78.86-.03.43-.03.57-.03.84h4.67ZM99.8,22.34c3.78.32,3.78,2,3.78,2.27a.97.97,0,0,1-.97,1.05c-.59,0-.76-.27-1.38-1.32a4.931,4.931,0,0,0-1.46-1.81Zm6.32-.14a43.638,43.638,0,0,1-1.94,6.26,13.317,13.317,0,0,0-.94,3.24,4.162,4.162,0,0,0,.51,1.54,4.161,4.161,0,0,1,.4,1.73c0,.49-.11,1.57-1.24,1.57s-1.19-1.13-1.19-1.7a13.565,13.565,0,0,0-.08-2.38,2.966,2.966,0,0,0-1.7-2.08v-.22c1.57.05,1.54.03,2.46-1.48.27-.46,1.81-3.05,3.56-6.59Zm-3.91-4.78c1.32.19,3.64.54,3.64,2.32a.951.951,0,0,1-1,.97c-.73,0-1-.59-1.27-1.16a4.845,4.845,0,0,0-1.4-1.94l.03-.19ZM120.4,19.8l.78-1.13c.13-.19.27-.38.43-.38a.867.867,0,0,1,.49.3l1.27,1.16c.16.13.27.24.27.4,0,.27-.24.3-.43.3h-8.18V22.8h3.81l.7-.73a.508.508,0,0,1,.32-.22,1.178,1.178,0,0,1,.59.3l1.11.94a.726.726,0,0,1,.27.46c0,.27-.38.49-.94.81-.05,1.21,0,3.46.05,6.29,0,.49.11,2.54.11,2.97,0,.81,0,2.27-2.7,2.81A3.419,3.419,0,0,0,116.51,34v-.16c.7.05,1.35.05,1.75.05.86,0,.89-.13.89-.73V30.25h-4.08c0,.81.11,4.35.11,5.07,0,.35,0,1.24-1.24,1.24-.73,0-.73-.43-.73-.86,0-.65.05-3.51.05-4.1V30.25h-3.62c.03,1.05.08,3.4.08,4.37,0,.67,0,1.57-1.35,1.57-.54,0-.67-.19-.67-1.11,0-.11.14-6.15.14-7.04a52.13,52.13,0,0,0-.24-6.29l2.29,1.05h3.37c0-.13-.03-2.27-.03-2.35h-3.08a18.425,18.425,0,0,0-3.19.24l-.54-1.08c1.97.16,3.7.19,4.16.19h2.65a7.336,7.336,0,0,0-.27-2.13l2.59.65c.16.05.32.13.32.35,0,.32-.22.43-.86.76v.38h5.37Zm-7.13,6.42V23.44h-3.62v2.78Zm0,3.37V26.86h-3.62v2.73Zm1.75-6.15v2.78h4.13V23.44Zm0,3.43c0,.62.03,1.97.05,2.73h4.08V26.87h-4.13Zm1.11-10.37c1.05.03,3.51.11,3.51,1.7a.89.89,0,0,1-.97.92c-.51,0-.62-.16-1.24-1.05a4.06,4.06,0,0,0-1.3-1.4v-.16Z"/>
  <path id="パス_4490" data-name="パス 4490" d="M146.75,14.78l.76-.7c.16-.14.24-.3.4-.3a.784.784,0,0,1,.4.19l1.46,1.08c.16.13.3.24.3.46,0,.38-.89.78-1.13.89-.08,2.64-.03,10.39.11,14.79,0,.4.16,2.32.16,2.7a1.4,1.4,0,0,1-1.54,1.4c-.86,0-.81-.49-.76-1.57H131.63c0,.16,0,.97-.03,1.08-.19.62-1,.84-1.46.84a.717.717,0,0,1-.81-.76c0-.32.08-1.7.08-2,.11-3.91.19-7.83.19-11.71,0-5.29-.13-6.24-.38-7.8l2.56,1.4h14.95Zm-15.12.65V23.8h6.61V15.43Zm0,9.02v8.64h6.61V24.45Zm15.28-.65V15.43h-6.8V23.8Zm0,9.29V24.45h-6.8v8.64Z"/>
  <path id="パス_4491" data-name="パス 4491" d="M155.29,36.38V35.22h7.83V11.81h1.13V36.37h-8.96Z"/>
  <path id="パス_4492" data-name="パス 4492" d="M170.68,34.32a.883.883,0,0,1-.89-1,29.626,29.626,0,0,1,1.03-3.1,3.353,3.353,0,0,0,.05-1.16l.24-.03a5.95,5.95,0,0,1,1,3.21c0,.73-.22,2.08-1.43,2.08Zm9.96-7.85a23.286,23.286,0,0,1-1.65,7.45,3.913,3.913,0,0,1-2.92,2.24,3.853,3.853,0,0,0-2.21-2.67l.05-.19a14.228,14.228,0,0,0,2.62.3c.54,0,.76-.05,1.05-.7a22.108,22.108,0,0,0,1.19-7.05h-6.02a1.089,1.089,0,0,1-1.16,1.32c-.54,0-.67-.27-.67-.73,0-.16.05-.81.05-.94.11-1.7.14-6.4.14-8.26a28.825,28.825,0,0,0-.27-4.48l2.02,1h5.02l.65-.78c.19-.22.32-.35.46-.35.16,0,.3.14.54.3l1.05.78a.643.643,0,0,1,.3.43c0,.19-.24.27-.43.27h-3.73v3.13h1.16l.51-.65c.22-.27.3-.38.43-.38s.3.13.54.3l.86.65c.13.11.3.24.3.43,0,.24-.24.3-.43.3h-3.37v3.1h1.19l.65-.76c.19-.22.3-.32.43-.32.16,0,.27.08.49.27l.81.76a.655.655,0,0,1,.24.43c0,.16-.16.27-.4.27h-3.4v3.27h1.81l.7-.78c.16-.19.3-.32.43-.32s.3.11.54.35l1.05.97a.516.516,0,0,1,.19.35c0,.32-.62.62-.81.7Zm-6.83,6.69c-.89,0-.89-1.13-.89-1.7a7.25,7.25,0,0,0-.3-2.97l.16-.08c.19.22,1.16,1.19,1.3,1.43a3.89,3.89,0,0,1,.76,2.08A1.175,1.175,0,0,1,173.81,33.16Zm1.3-18.76h-2.38v3.13h2.38V14.4Zm0,3.78h-2.38v3.1h2.38Zm0,3.75h-2.38V25.2h2.38Zm.94,9.47c-.7,0-.78-.46-1-2a7.55,7.55,0,0,0-.51-1.97l.11-.08c1.43,1.24,2.24,1.97,2.24,3.02a.941.941,0,0,1-.84,1.03Zm1.51-2c-.54,0-.65-.43-.94-1.51a3.429,3.429,0,0,0-.62-1.24l.16-.16c1.27.59,2.08,1.16,2.08,2.05,0,.43-.24.86-.67.86Zm17.87,4.97a3.964,3.964,0,0,0-2.56,1.59c-3.02-2.46-5.26-7.1-5.26-13.47h-2.89c-.27,6.64-1.59,10.72-5.53,13.55l-.14-.11c3.78-4.1,3.91-11.63,3.91-17.25a24.764,24.764,0,0,0-.46-5.72l2.56,1.13h5.56l.78-.76a.655.655,0,0,1,.43-.24c.13,0,.24.05.46.24l1.08.92a.55.55,0,0,1,.24.43c0,.19-.51.57-.84.78-.03.46-.05.97-.05,1.7,0,.86.16,4.64.16,5.48s-.84,1.08-1.27,1.08c-.86,0-.81-.59-.78-1.24h-2.75c.62,5.88,4.51,10.55,7.37,11.71l-.03.16Zm-4.56-19.62h-5.99c-.03,1.03-.13,5.99-.13,7.1h6.13v-7.1Z"/>
  <path id="パス_4493" data-name="パス 4493" d="M209.99,33.68a4.116,4.116,0,0,1-2.38,1.43c-.67,0-.73-.32-.81-1.13-.08-.86-1.19-2.48-1.94-3.59l.03-.14a13.282,13.282,0,0,0,3.24,1.84c1.89,0,3.16-7.02,3.16-8.91,0-2.16-.57-2.81-1.84-2.81a10.516,10.516,0,0,0-1.78.24c-.38.86-2.08,4.75-2.38,5.4a81.425,81.425,0,0,1-4.08,7.77,1.068,1.068,0,0,1-.84.54c-.43,0-.84-.46-.84-1.21,0-.81.19-1.05,1.11-2.19a38.4,38.4,0,0,0,3.59-6.13c.59-1.21,1.16-2.46,1.67-3.73a15.365,15.365,0,0,0-3.75,1.65c-.65.4-.86.51-1.16.51a2.838,2.838,0,0,1-2.24-2.54,1.827,1.827,0,0,1,.3-.97c.67,1.21,1.35,1.32,1.84,1.32a6.225,6.225,0,0,0,1.57-.24c.4-.11,2.67-.67,4-1a16.519,16.519,0,0,0,1.24-4.1c0-1.11-.46-1.35-1.92-2.08a4.57,4.57,0,0,1,1.57-.32c1.03,0,2.75,1.19,2.75,1.92,0,.32-.05.46-.67,1.57-.16.27-.81,1.75-1.21,2.64.35-.03.89-.11,1.48-.11,2.56,0,3.13,2.11,3.13,4.35,0,1.89-.84,7.85-2.83,10.01Zm11.2-6.45a7.378,7.378,0,0,1-1.46-.73,21.005,21.005,0,0,0-3.73-.97v-.19c2.73-.27,3.4-.54,3.4-1.3,0-.3-.86-2.4-5.05-5.21,5.05.92,7.53,4.53,7.53,7.18,0,.22,0,1.21-.7,1.21Z"/>
  <path id="パス_4494" data-name="パス 4494" d="M231.18,34.92v-.16a19.455,19.455,0,0,0,6.34-2.21c1.92-1.03,3.51-2.32,3.51-4.62a3.173,3.173,0,0,0-3.4-3.46c-3.24,0-6.67,2.16-8.83,5.43a.817.817,0,0,1-.67.49c-1,0-1.43-1.59-1.43-2.16a8.547,8.547,0,0,1,.35-1.94,41.231,41.231,0,0,0,.49-5.67c0-2.46,0-3.86,4.67-4.59.16-.03.24-.05.24-.19s-.08-.19-.73-.62a3.637,3.637,0,0,1-1.67-2.67c1.16.94,1.38,1.03,3.89,2.08.59.24,2.11.86,2.11,2.48,0,.59-.22.84-.57.84a2.879,2.879,0,0,1-1.24-.43,8.007,8.007,0,0,0-2.81-.46c-2.05,0-2.92.65-2.92,1.43,0,.27.05.43.59,1.78a3.4,3.4,0,0,1,.19.94,13.648,13.648,0,0,1-.38,1.59,18.793,18.793,0,0,0-.57,3.67c0,.16.03.62.35.62.16,0,1.84-1.21,2.19-1.43a14.083,14.083,0,0,1,6.96-2.16c3.7,0,5.26,2.59,5.26,4.7,0,4.45-5.51,7.1-11.93,6.72Z"/>
  <path id="パス_4495" data-name="パス 4495" d="M255.72,30.41A21.6,21.6,0,0,1,247.08,36l-.08-.19c2.43-1.48,6.59-5.45,7.32-7.85l2.24,1.7a.511.511,0,0,1,.27.4c0,.35-.27.38-1.11.35Zm15.63-13.98h-20.3a16.965,16.965,0,0,0-3.16.27l-.54-1.08c1.84.16,3.75.16,4.16.16h7.02a9.541,9.541,0,0,0-.57-3.99l3,.67c.19.05.46.13.46.35,0,.3-.24.43-.92.81-.03.89-.03,1.03-.03,2.16h6.94l1.24-1.32c.22-.24.27-.35.4-.35a1.414,1.414,0,0,1,.57.3l1.86,1.32a.624.624,0,0,1,.27.43c0,.24-.24.27-.4.27Zm-4.83,4.53c0,.57,0,1.24.03,2.48.03.49.16,2.56.16,2.97a1.32,1.32,0,0,1-1.32,1.27c-.76,0-.76-.38-.7-1.35h-4.05c0,1.16.08,6.26.08,7.32,0,.97,0,2.56-2.83,3.21-.22-1.75-2.54-2.78-3.02-3l.03-.19a22.291,22.291,0,0,0,3.13.35c.78,0,.81-.16.81-1.27V26.33h-4.72c.05.76.11,1.7-1.3,1.7-.59,0-.73-.32-.73-.73,0-.11.03-.46.03-.59.03-.81.08-3.32.08-4.29a16.614,16.614,0,0,0-.27-4.32l2.51,1.4h10.04l.81-.89c.11-.11.22-.22.35-.22a.652.652,0,0,1,.38.19l1.27,1.03c.27.22.32.3.32.43,0,.35-.22.43-1.08.92Zm-1.84-.81H254.1v5.53h10.58ZM269,35.16c-.73,0-.86-.24-2-1.89A12.931,12.931,0,0,0,262.92,29l.05-.19c2.78.46,7.04,2.67,7.04,5.16a1.1,1.1,0,0,1-1.03,1.19Z"/>
  <path id="パス_4496" data-name="パス 4496" d="M276.52,34.86a1.186,1.186,0,0,1-1.16-1.16c0-.67.59-1.13,1.43-1.78a6.315,6.315,0,0,0,2.08-2.89h.16c.03.32.05.67.05,1.16,0,2.51-1.05,4.67-2.56,4.67Zm20.49-15.52a6.756,6.756,0,0,0-.59.43c.05,2.73.08,3.78.13,4.86,0,.24.08,1.24.08,1.46a1.151,1.151,0,0,1-1.24,1.13c-.84,0-.84-.54-.84-.86v-.35h-12.5a18.606,18.606,0,0,0-3.19.24l-.51-1.08c1.7.14,3.4.19,4.13.19h12.07V22.5H282.46a18.266,18.266,0,0,0-3.18.24l-.54-1.05c1.67.13,3.35.16,4.16.16h11.66V19.1H279.74a21.5,21.5,0,0,1-3.78,2.46l-.08-.11a36.294,36.294,0,0,0,6.61-8.34,4,4,0,0,0,.38-1.51l2.38,1.16a.593.593,0,0,1,.38.51c0,.27-.57.46-1,.57-.14.16-.4.49-.62.73h6.02l.97-.81c.16-.13.35-.3.46-.3a1.315,1.315,0,0,1,.57.3l1.27,1c.14.11.27.22.27.4,0,.32-.22.35-1.03.54-.32.08-.51.22-2.75,1.78-.46.32-1.05.73-1.43.97h5.86l.78-.76c.13-.13.32-.32.43-.32.14,0,.3.16.41.24l1.16.92c.16.13.3.27.3.43,0,.13-.11.24-.27.38Zm-13.6-4.13c-.38.41-2.54,2.81-2.94,3.24h7.23a32.656,32.656,0,0,0,2-3.24h-6.29Zm9.66,20.43c-.92.19-6.15.19-7.72.19-2.97,0-3.19-.57-3.19-3.13,0-4.43,0-4.62-.22-5.56l2.54.81c.16.05.43.22.43.38a.426.426,0,0,1-.22.32c-.08.08-.51.4-.59.49,0,.35-.05,3.97,0,4.4.05.49.59.51,1.24.51a58.132,58.132,0,0,0,6.05-.19,1.266,1.266,0,0,0,.81-.81,26.453,26.453,0,0,0,.81-3.05h.19c.16.89.51,2.91,1.03,3.37.43.4.59.57.59.89s-.3,1.11-1.75,1.38Zm-3.78-4.37c-.73,0-.86-.32-1.51-1.89a6,6,0,0,0-1.43-2.16l.11-.16c3.54,1,3.86,2.4,3.86,2.81,0,.62-.24,1.4-1.03,1.4Zm9.42,2.19c-.76,0-.84-.19-1.59-1.89a8.521,8.521,0,0,0-1.86-3l.03-.05c1.46.24,4.56,1.86,4.56,3.75a1.12,1.12,0,0,1-1.13,1.19Z"/>
  <path id="パス_4497" data-name="パス 4497" d="M327.84,35.19H308.05a19.821,19.821,0,0,0-3.19.24l-.54-1.08c1.38.13,2.78.19,4.16.19h6.8V28.17h-4.67a19.3,19.3,0,0,0-3.19.24l-.54-1.08c2.13.16,3.67.19,4.16.19h10.45l1.16-1.3c.22-.22.32-.35.43-.35.16,0,.38.19.51.3l1.59,1.3a.564.564,0,0,1,.27.4c0,.27-.27.3-.43.3h-7.83v6.37h6.96l1.19-1.43c.13-.16.24-.32.4-.32.11,0,.24.03.51.27l1.7,1.43c.11.08.3.22.3.4,0,.27-.27.3-.43.3Zm-.94-11.34a61.14,61.14,0,0,1-6.75.24c-2.75,0-2.75-.67-2.75-3.35,0-.59-.03-3.62-.03-4.29h-8.8c-.35,3.02-2.43,3.02-2.51,3.02a1.028,1.028,0,0,1-1.08-.97c0-.67.51-1,1.43-1.59a3.389,3.389,0,0,0,1.81-2.43h.22a2.494,2.494,0,0,1,.19,1.32h6.8a11.736,11.736,0,0,0-.49-3.97l2.56.65c.22.05.59.13.59.49a.473.473,0,0,1-.19.38c-.11.08-.54.35-.62.43V15.8h6.37l1.05-.86c.22-.16.32-.27.57-.27a.618.618,0,0,1,.46.24l1.65,1.46a.734.734,0,0,1,.22.51c0,.49-.38.54-1.46.62-.43.27-2.35,1.54-2.75,1.78l-.13-.13a22.9,22.9,0,0,0,.59-2.7h-4.59a46.041,46.041,0,0,0,.16,5.64,8.866,8.866,0,0,0,2.65.24c.94,0,3,0,3.48-.49a7.081,7.081,0,0,0,1.19-2.86h.22c.43,1.75.59,2.43.94,2.67a.971.971,0,0,1,.54.86c0,.78-.97,1.21-1.54,1.32Zm-12.61-5.1c-1.62,3.13-3.75,5.67-8.99,6.75l-.11-.22c5.94-2.97,7.26-6.99,7.48-8.72l2.24,1.16c.27.13.35.24.35.4,0,.32-.08.35-.97.62Z"/>
  <path id="パス_4498" data-name="パス 4498" d="M335.05,22.64c-.65,0-.81-.27-1.67-1.94a6.945,6.945,0,0,0-1.35-1.75l.03-.16c.97.13,4,.86,4,2.7a1.054,1.054,0,0,1-1,1.16Zm1.3,4.51a9.473,9.473,0,0,0-.49,2.56,10.231,10.231,0,0,0,.35,2.4,11.754,11.754,0,0,1,.49,2.4c0,.76-.35,1.51-1.19,1.51-1.27,0-1.27-1.35-1.27-1.94,0-.35.08-1.84.08-2.13a2.791,2.791,0,0,0-1.81-2.97v-.16a2.5,2.5,0,0,0,1.78-.81c.59-.78,3.64-9.45,3.86-10.23l.22.08c-.27,2.24-.46,2.97-2.02,9.29Zm.73-10.88c-.81,0-1.05-.62-1.65-1.92a9.581,9.581,0,0,0-1.16-1.94l.05-.13c.51.11,3.86,1.05,3.86,2.78a1.122,1.122,0,0,1-1.11,1.21Zm19.06,11.07a4.449,4.449,0,0,0-1.11,1.46c-2.89-1.13-5.78-4.56-6.75-6.99h-3.45A20.712,20.712,0,0,1,342,25.7c1.92.16,3.75.19,4.08.19h1.35l.49-.49c.19-.19.32-.38.51-.38.16,0,.38.19.49.27l.89.7c.16.13.32.27.32.46,0,.3-.14.41-.62.84.03.4.11,2.19.11,2.54,0,.54,0,.86-.27,1.08a2.116,2.116,0,0,1-1.03.35c-.54,0-.57-.38-.57-.62h-3.56c-.16,3.62.03,3.62,1.48,3.62,4.53,0,5.56,0,6.15-.57.62-.59.89-1.7,1.4-3.59h.13a11.59,11.59,0,0,0,.84,3.19c.11.16.13.16.43.4.13.11.22.19.22.35,0,.11,0,.78-1.16,1.35-1.35.65-4.02.65-5.45.65-5.13,0-5.86-.16-5.88-2.13,0-1.67-.03-4.29-.16-5.07L344.67,30h3.1V26.55h-2.13a16.513,16.513,0,0,0-3.16.24l-.51-1.05a19.72,19.72,0,0,1-4.91,4.21l-.08-.16a30.123,30.123,0,0,0,5.61-7.96,20.037,20.037,0,0,0-3.43.24l-.54-1.08c1.4.11,1.67.14,4.08.19V16.59a16.138,16.138,0,0,0-2.78.24l-.54-1.08c.59.05,1.57.13,3.32.16a12.664,12.664,0,0,0-.46-4.16l2.48.73c.32.11.51.22.51.4,0,.3-.24.49-.78.86.03.57.03.73,0,2.19h3.46a11.042,11.042,0,0,0-.49-4.05l2.56.67c.3.08.51.24.51.38,0,.32-.43.65-.78.86-.03.35-.03,1.84-.03,2.13h1.54l.86-1.16c.11-.14.24-.35.4-.35s.38.22.51.32l1.19,1.13c.16.14.27.24.27.4,0,.27-.22.3-.4.3h-4.37v4.59h3l.92-1.21c.13-.19.24-.35.4-.35a.8.8,0,0,1,.51.3l1.3,1.21c.16.16.27.3.27.4,0,.27-.24.3-.4.3H348.8a11.576,11.576,0,0,0,8.37,4.72v.16c-.16.11-.89.54-1.03.65Zm-8.23-10.77h-3.46v4.59h3.46C347.91,20.51,347.94,17.3,347.91,16.57Z"/>
  <path id="パス_4499" data-name="パス 4499" d="M360.59,35.13a31.488,31.488,0,0,0,1.97-8.29,5.717,5.717,0,0,0-.08-.92l2.38.89c.11.05.3.14.3.35,0,.24-.08.3-.7.73-.57,1.73-1.75,5.16-3.67,7.31l-.19-.08Zm10.74-18.65a.433.433,0,0,1,.19.38c0,.32-.27.4-1.13.59-.92,1.24-2.35,3.13-4.75,5.83.13-.03,1.97-.08,3.37-.22a16.4,16.4,0,0,0-.97-1.92l.13-.19c1.46.62,3.29,1.81,3.29,3.21a1.113,1.113,0,0,1-1.08,1.21c-.7,0-.73-.22-1.24-1.94-.41.14-.86.27-1.92.57.03,3.73,0,5.64.05,7.94,0,.49.08,2.56.08,3,0,.4,0,1.48-1.21,1.48a.715.715,0,0,1-.76-.84c0-1.24.22-9.39.24-11.18-.67.16-1.54.38-3.46.76-.38.4-.4.46-.62.46-.19,0-.32-.19-.38-.38l-.57-2.29a8.223,8.223,0,0,0,2.51.4c.16,0,1.62-.05,1.84-.08,1.78-2.65,4.08-6.67,4.05-8.31l2.32,1.51Zm-9.69-.27a6.369,6.369,0,0,1,2.81.86c0-.03,1.35-3.56,1.16-5.29l2.59,1.35a.44.44,0,0,1,.27.35c0,.27-.24.38-1.19.76-.97,1.32-1.32,1.73-2.46,3.08a2.517,2.517,0,0,1,1.19,1.92,1.141,1.141,0,0,1-1.03,1.24c-.67,0-.92-.57-1.11-.97a8.691,8.691,0,0,0-2.32-3.1l.08-.19Zm6.24,10.42c1.81.65,3.19,1.92,3.19,3.02a1.044,1.044,0,0,1-1.03,1.16c-.76,0-.89-.43-1.3-1.89a5.567,5.567,0,0,0-1.03-2.13l.16-.16Zm4.18.46a5.984,5.984,0,0,0-1.35.11l-.38-.86c1,.08,1.81.11,2.05.11h.84l.51-.62c.05-.05.19-.22.35-.22a.744.744,0,0,1,.4.24l1.08,1.03c.11.11.3.27.3.46,0,.22-.08.32-.89.62a13.769,13.769,0,0,1-6.32,6.91l-.05-.16a17.406,17.406,0,0,0,4.67-7.61h-1.21Zm5.61-3.54.49.16c.19.05.59.22.59.49,0,.32-.49.59-.7.7a9.514,9.514,0,0,0,1.57,3.7,10.682,10.682,0,0,0,2.92-3.67l1.86,1.86a.629.629,0,0,1,.14.35c0,.05-.03.35-.43.35-.08,0-.43-.03-.7-.05a38.3,38.3,0,0,1-3.62,1.43,11.143,11.143,0,0,0,6.53,4.4v.22c-1.89.46-2.27,1.05-2.73,1.73a14.979,14.979,0,0,1-5.48-8.02c0,1,.16,5.4.16,6.29,0,.65,0,2.51-2.7,3-.3-.86-.59-1.7-2.78-2.62l.03-.22c.43.05,2.24.16,2.59.16,1.08,0,1.11-.22,1.11-1.03V25.49a12.335,12.335,0,0,0-.08-1.94h-2.16a.989.989,0,0,1-1.08,1.11c-.59,0-.86-.22-.86-.7,0-.38.13-3.91.13-4.64a44.141,44.141,0,0,0-.24-5.37l2.19,1.16h1.62a10.086,10.086,0,0,0,.24-2.24,6.117,6.117,0,0,0-.14-1.32l2.54.81c.22.08.46.19.46.46,0,.35-.27.43-.97.57a20.373,20.373,0,0,1-1.46,1.73h3.67l.73-.84a.828.828,0,0,1,.46-.3.748.748,0,0,1,.4.19l1.27.94c.16.11.35.3.35.46,0,.24-.11.3-1,.94,0,1.11.24,6.32.24,6.91a1.13,1.13,0,0,1-1.27,1.19c-.73,0-.73-.43-.7-1.05h-3.19Zm-3.43-7.8v3.24h6.61V15.75h-6.61Zm6.61,7.15V19.63h-6.61V22.9Z"/>
  <path id="パス_4500" data-name="パス 4500" d="M400.93,33.49a4.5,4.5,0,0,1-2.62,1.73c-.62,0-.73-.43-.81-.89-.19-1.13-.24-1.35-2-3.89l.08-.11c2.35,1.62,2.86,1.81,3.35,1.81a1.209,1.209,0,0,0,1.05-.78,17.793,17.793,0,0,0,1.89-8.07c0-1.05,0-2.94-1.81-2.94a7.355,7.355,0,0,0-1.78.27c-1.57,3.78-2.62,6.26-5.64,12.12-.35.67-.94,1.73-1.54,1.73-.54,0-.86-.65-.86-1.27a2.416,2.416,0,0,1,.59-1.48,46.2,46.2,0,0,0,5.7-10.58,22.643,22.643,0,0,0-3.81,1.73,2.079,2.079,0,0,1-1.13.49,2.733,2.733,0,0,1-2.24-2.48,2.218,2.218,0,0,1,.32-1.08c.49.92,1.08,1.4,1.84,1.4.65,0,4.64-1.11,5.53-1.32a18.325,18.325,0,0,0,1.21-4.24c0-1.08-1.59-1.78-1.97-1.92a2.258,2.258,0,0,1,1.35-.43c1.43,0,3.08,1.24,3.08,1.92a2.526,2.526,0,0,1-.4,1.11c-.59,1.08-1.05,2.05-1.57,3.21a6.283,6.283,0,0,1,1.46-.16c3.16,0,3.29,2.54,3.29,4.67,0,3.19-1.08,7.75-2.56,9.47Zm10.93-6.34a9.031,9.031,0,0,1-1.48-.67,11.049,11.049,0,0,0-3.67-.94v-.22c.41-.03,3.37-.27,3.37-1.19,0-.27-1.24-2.94-5.05-5.29,2.75.11,7.5,3.24,7.5,6.88,0,.22,0,1.43-.67,1.43Zm-1.38-8.23c-.24,0-.65-.35-1.3-.89a9.39,9.39,0,0,0-3.37-2.02,5.9,5.9,0,0,1,1.08-.11c1.43,0,4.32.65,4.32,2.21A.756.756,0,0,1,410.48,18.92Zm2.64-2.11c-.35,0-1.54-1.08-1.81-1.27a9.524,9.524,0,0,0-3.19-1.46,8.01,8.01,0,0,1,1.67-.19c.49,0,3.89.11,3.89,2.16,0,.35-.13.76-.57.76Z"/>
  <path id="パス_4501" data-name="パス 4501" d="M426.82,20.1l.92-1.24c.13-.19.3-.35.43-.35.16,0,.38.19.51.3l1.38,1.21a.592.592,0,0,1,.27.43c0,.27-.24.3-.41.3H424.6c0,.54.03,1.16.03,1.7,1.16.49,4.4,2.29,4.4,4.21a1.263,1.263,0,0,1-1.16,1.38c-.46,0-.73-.16-1.19-1.46a11.212,11.212,0,0,0-2.05-3.51c.03,1.67.08,9.04.11,10.53,0,.27.08,1.46.08,1.7,0,.84-.94,1.19-1.54,1.19a.672.672,0,0,1-.67-.76c0-.44.16-2.38.19-2.75.05-1.62.11-4.72.14-9.04a19.606,19.606,0,0,1-6.8,7.15l-.11-.14a38.469,38.469,0,0,0,6.5-10.2h-2.19a18.248,18.248,0,0,0-3.16.24l-.54-1.08c2,.16,3.75.19,4.16.19h2.13V15.84a33.114,33.114,0,0,1-5.97.73v-.16a41.489,41.489,0,0,0,8.56-3.05,3.076,3.076,0,0,0,1.35-1.11l1.94,1.81a.5.5,0,0,1,.22.35c0,.19-.16.32-.4.32-.16,0-.86-.08-1.3-.13a20.463,20.463,0,0,1-2.73.86V20.1h2.21Zm7.13-4.67c.11.03.46.19.46.4,0,.19-.08.24-.84.94-.03.51-.03,1.05-.03,1.97,0,2.51.13,7.75.16,9.56,0,.35.03.81.03,1.03a1.425,1.425,0,0,1-1.4,1.38c-.49,0-.67-.24-.67-.67,0-.16.03-.4.03-.54.19-1.86.16-7.21.16-9.37,0-3.56-.03-4.16-.43-5.56l2.54.86Zm5.83-1.86c.19.05.4.14.4.41,0,.22-.11.3-.92.89-.05,1.84,0,9.15.05,11.26.05,2.05.14,5.83.14,6.18,0,1.43,0,3.19-3.86,3.72-.11-.7-.24-1.67-2.43-2.67l.03-.13c.59.05,2.38.16,3.02.16,1.32,0,1.32-.38,1.32-1.57,0-3.08-.11-13.9-.16-16.38a9.108,9.108,0,0,0-.4-2.78l2.81.92Z"/>
  <path id="パス_4502" data-name="パス 4502" d="M463.86,13.81l.94-.81c.22-.19.32-.24.4-.24a.921.921,0,0,1,.43.19l1.35.97a.622.622,0,0,1,.27.4c0,.3-.35.57-1.13,1.03-.05,1.03-.05,1.13-.05,4.02,0,2.05.08,11.07.08,12.9,0,1.62,0,3.16-3.16,3.81a4.177,4.177,0,0,0-2.54-2.75l.05-.22a20.512,20.512,0,0,0,2.59.19c1.08,0,1.08-.22,1.08-2.13,0-.54,0-3.37.03-3.78h-6.42c0,1.57.03,3.94.11,6.15.03.38.03.76.03.89,0,.57,0,1.65-1.51,1.65-.81,0-.84-.57-.84-.92,0-.22.03-.89.05-1.13.22-3.27.24-5.7.24-6.64h-5.97A11.986,11.986,0,0,1,444.38,36l-.22-.22c4.05-3.73,4.24-10.23,4.24-17.49a26.876,26.876,0,0,0-.43-5.75l2.67,1.27h13.2Zm-13.52,6.94c0,1.57-.13,4.59-.32,5.99h5.88l.05-5.99Zm0-6.29V20.1h5.61V14.46h-5.61Zm13.87,12.28.03-5.99h-6.4l-.05,5.99h6.42Zm.03-6.64.03-5.64h-6.42V20.1h6.4Z"/>
  <path id="パス_4503" data-name="パス 4503" d="M496.34,15.19h-4.8c0,1.43,0,18.14-.03,18.49-.16,1.54-1.75,2.27-3,2.51-.13-.86-.24-1.46-3.48-3.1v-.16c.35.05,2.54.24,3.21.24s1.19,0,1.3-.43c.08-.35.08-5.72.08-6.59,0-1.75-.08-9.39-.03-10.96h-13.2a19.489,19.489,0,0,0-3.19.24l-.54-1.08c1.89.16,3.91.19,4.16.19h15.87l1.24-1.43c.13-.16.3-.35.43-.35a.959.959,0,0,1,.49.3l1.65,1.43c.14.13.27.24.27.4,0,.27-.24.3-.43.3Zm-11.85,5.26c0,.78.03,3.29.03,4.1,0,.59.08,3.21.08,3.75,0,1.38-.97,1.43-1.27,1.43-.81,0-.78-.67-.78-1.54h-3.97c.05,1.46.13,2.56-1.3,2.56a.76.76,0,0,1-.86-.84c0-.22.08-1.24.08-1.46.08-2.81.08-4.89.08-7.18a9.855,9.855,0,0,0-.4-3.51l2.51,1.35h3.7l.73-.7c.22-.22.35-.32.46-.32s.19.03.46.24l1.08.86c.22.19.32.27.32.46,0,.24-.43.49-.94.78Zm-1.94-.67h-3.97v7.77h3.97Z"/>
  <path id="パス_4504" data-name="パス 4504" d="M512.47,19.99c-.67,0-1.03-.67-1.19-1.05-.08-.19-.35-1-.43-1.16a74.717,74.717,0,0,1-7.45,1.54c-.16.38-.35.73-.65.73-.19,0-.32-.19-.4-.4l-.78-2.54a10.891,10.891,0,0,0,3.54.46c.3-.54,1.84-3.78,1.78-5.94l2.62,1.35a.511.511,0,0,1,.32.46c0,.19,0,.35-1.24.49a27.308,27.308,0,0,1-2.86,3.64c.32,0,3.81-.05,4.97-.13a6.448,6.448,0,0,0-1.57-2.19l.03-.11c2.59.62,4.32,2.37,4.32,3.64,0,.49-.27,1.21-1,1.21Zm-.92,2.81v9.04c0,2.29-.03,3.05-.76,3.73a3.548,3.548,0,0,1-1.97.86,3.9,3.9,0,0,0-1.94-2.54l.05-.16c1,.14,1.94.22,2.13.22.16,0,.57,0,.62-.32.03-.32.08-3.35.08-3.51h-4.59c.03.89.08,3.89.08,4.67,0,1.32-.94,1.46-1.24,1.46a.769.769,0,0,1-.84-.86,2.652,2.652,0,0,0,.03-.27c.22-3.35.24-6.72.24-10.07a25.166,25.166,0,0,0-.22-4.59l2.21,1.16h4.05l.7-.78c.11-.11.19-.19.32-.19.11,0,.16.03.38.16l1.24.84a.457.457,0,0,1,.24.38c0,.19-.24.49-.84.78Zm-1.78-.54h-4.59V25.5h4.59Zm0,3.89h-4.59v3.32h4.59Zm9.5,9.77c-4.7,0-4.7-.35-4.7-2.94,0-1.11,0-6.56-.03-7.4a4.849,4.849,0,0,0-.3-1.86l2.75.81c.16.05.38.19.38.41s-.19.54-1.03.78c0,.57-.05,3.08-.05,3.62,1.13-.51,4.02-2.08,5.18-4.05l1.97,1.84a.422.422,0,0,1,.16.32.353.353,0,0,1-.38.38,2.447,2.447,0,0,1-.7-.11,20.9,20.9,0,0,1-6.24,2.05,37.851,37.851,0,0,0,.05,3.91c.16.43.62.54,2.27.54,3.51,0,4.13,0,4.91-4.4h.19c.38,2.78.4,3.08.78,3.37.46.32.46.35.46.59,0,2.13-3.75,2.13-5.7,2.13Zm4.72-12.93a8.762,8.762,0,0,1-3.72.43c-5.61,0-5.61-.08-5.64-3.4-.08-6.18-.08-6.88-.32-8.07l2.78.89c.19.05.41.13.41.38,0,.43-.73.73-1.08.86-.05,1.05-.05,2.81-.05,3.91.7-.3,4.1-1.7,5.37-3.81l1.84,1.84a.521.521,0,0,1,.19.38c0,.19-.16.38-.49.38a1.157,1.157,0,0,1-.46-.11,25.745,25.745,0,0,1-6.45,1.73c0,.86,0,2.43.03,2.59a.722.722,0,0,0,.59.57c.35.05,2.81.11,3.21.11,1.73,0,2.21-.16,2.59-.89a11.628,11.628,0,0,0,.89-2.94h.19c.08.76.35,3.1.73,3.37.22.13.46.3.46.59,0,.27-.24.81-1.05,1.19Z"/>
  <line id="線_105" data-name="線 105" x2="1094.95" transform="translate(2.04 52.5)" fill="none" stroke="#000" stroke-miterlimit="10" stroke-width="1"/>
  <rect id="長方形_161" data-name="長方形 161" width="9" height="52.5" transform="translate(2.04)"/>
</svg>
