<?xml version="1.0" encoding="UTF-8"?>
<svg id="_レイヤー_2" data-name="レイヤー 2" xmlns="http://www.w3.org/2000/svg" viewBox="0 0 430 130.85">
  <defs>
    <style>
      .cls-1 {
        fill: none;
        stroke: #000;
        stroke-miterlimit: 10;
      }

      .cls-2, .cls-3 {
        stroke-width: 0px;
      }

      .cls-3 {
        fill: #1f296a;
      }
    </style>
  </defs>
  <g id="_レイヤー_1-2" data-name="レイヤー 1">
    <g>
      <path class="cls-2" d="m98.92,106.65c.26.13.42.32.42.58,0,.29-.35.48-1.36.68-.42.52-1.32,1.58-2.71,3.29-1.23,1.49-2.29,2.68-3.16,3.58.16,0,2.87-.13,4.58-.36-.13-.23-.52-.97-1.32-1.84l.16-.19c2.52.97,4.45,2.42,4.45,3.91,0,.61-.36,1.32-1.23,1.32-.77,0-1.1-.39-1.39-1.48-.03-.1-.16-.55-.36-1.03l-2.94.65c0,1.39.1,8,.1,8.62.03.65.13,3.55.13,4.13,0,.84-.74,1.39-1.55,1.39-.68,0-.87-.42-.87-.97,0-.52.13-2.65.13-3.1.03-1.03.06-4.2.1-9.65-2.03.45-3.65.81-4.07.9-.19.32-.52.94-.81.94-.32,0-.52-.39-.58-.58l-.71-2.74c.55.13,1.48.23,2.29.23,1,0,2.48-.03,3-.06,2.19-2.97,4.16-7.07,4.61-8.36.13-.32.19-.9.19-1.29l2.87,1.45Zm-12.75,21.24c1.39-3.13,2.32-7.23,2.26-9.42l2.65.97c.23.1.45.29.45.45,0,.23-.19.39-1.03.71-1.03,3-1.97,4.81-4.16,7.39l-.16-.1Zm1.23-21.2c.9.23,1.97.52,2.78.9.9-1.81,2.32-5.33,2.13-7.23l3.07,1.52c.26.13.39.32.39.48,0,.48-.48.58-1.23.71-1.52,1.94-1.74,2.23-3.94,4.74.94.58,1.9,1.45,1.9,2.55,0,.74-.48,1.55-1.32,1.55-.74,0-.94-.39-1.65-1.97-.74-1.68-1.48-2.39-2.16-3.07l.03-.19Zm7.62,12.3c1.32.58,4.55,2.03,4.55,4.23,0,1.03-.74,1.58-1.42,1.58-.87,0-1.03-.65-1.45-2.13-.45-1.68-1.07-2.61-1.78-3.55l.1-.13Zm15.43-10.42l.97-.9c.16-.16.35-.36.45-.36.13,0,.35.19.45.29l1.55,1.32c.16.13.29.32.29.48,0,.23-.61.68-1.19,1.1-.19,8.94-.26,12.94-1.97,16.23-1.19,2.29-3.23,3.13-5,3.16-.26-1.52-1.26-2.52-2.94-3.65l.03-.19c1.48.29,3.45.65,4.29.65,3.26,0,3.42-10.65,3.42-13.97,0-.55-.03-2.84-.03-3.39h-8.71c-1.58,3-2.68,4.1-3.16,4.62l-.19-.13c2.39-4.74,3.49-10.2,3.49-11.88,0-.32-.1-.94-.16-1.23l3.49,1.48c.16.06.36.23.36.45,0,.32-.48.55-1.26.9-.35,1.03-.94,2.65-2.13,5h7.97Zm-8.81,6.16c3.07,1.26,4.58,2.29,4.58,4.03,0,.77-.39,1.52-1.29,1.52-.84,0-1.1-.36-1.81-2.58-.26-.84-.87-1.94-1.61-2.78l.13-.19Z"/>
      <path class="cls-3" d="m134.94,111.96c-1.19.73-2.94,1.47-4.91,1.47-5.59,0-10.11-5.65-10.11-12.53,0-7.79,5.59-14.85,12.08-14.85s12.99,7.34,12.99,19.48c0,13.04-7.34,23.88-15.98,23.88-3.78,0-6.44-2.26-6.44-4.91,0-2.03,1.58-2.94,2.88-2.94,1.13,0,2.99.73,3.11,3.9.06,1.24.17,2.03,1.69,2.03s3.05-.73,4.12-1.98c5.02-5.53,5.31-13.89,5.53-18.91-1.07,1.75-2.26,3.67-4.97,5.36Zm1.86-20.95c-.96-1.52-2.43-3.05-4.57-3.05-2.99,0-7.23,3.16-7.23,12.42,0,2.6.62,10.5,6.44,10.5,2.15,0,5.76-1.58,8.41-7.68-.23-3.11-.68-8.53-3.05-12.2Z"/>
      <path class="cls-2" d="m160.95,105.23c-2.68,5.49-7.55,9.62-10,10.97l-.16-.23c4.52-5.13,7.07-9.65,7.81-11.81.29-.81.42-1.45.52-2.07l2.78,1.87c.16.1.42.29.42.52,0,.39-.84.61-1.36.74Zm11.71,10.1c-.32,11.62-.97,13.97-6.78,14.49-.13-2.03-1.71-3.1-2.42-3.55l.03-.23c1.36.29,2.74.55,3.74.55,1.55,0,2.16-.36,2.65-3.29.39-2.39.58-7.78.48-9.29h-6.52c-.19,5.07-2.36,13.81-12.52,15.68l-.06-.26c6.55-3.03,9.88-7.91,10.2-15.43h-.94c-.81,0-2.36.03-3.81.32l-.61-1.29c2,.16,3.97.19,4.94.19h9.13l.87-.77c.19-.19.39-.36.58-.36.16,0,.32.16.45.29l1.29,1.42c.16.16.29.35.29.52,0,.29-.1.36-1,1Zm5.87-.03c-3.45-1.48-7.29-4.97-9.71-12.26h-2.58c-1.61,0-2.26.13-2.71.19l-.42-1.13c1.45.13,2.87.16,3.52.16h1.61l1.03-1.03c.29-.29.42-.35.58-.35.19,0,.32.16.55.35l1.19,1.16c.19.16.26.29.26.48,0,.65-1.48.9-2.07,1,1.55,4.16,6.91,8.29,11.84,8.65l.03.32c-1.81.55-2.55,1.58-3.13,2.45Z"/>
      <path class="cls-2" d="m197.16,130.85c-5.03-4.03-7.65-9.84-7.65-15.62s2.61-11.59,7.65-15.62l.29.45c-6,6.36-6.13,12.81-6.13,15.17s.13,8.81,6.13,15.17l-.29.45Z"/>
      <path class="cls-2" d="m215.48,106.65c.26.13.42.32.42.58,0,.29-.35.48-1.36.68-.42.52-1.32,1.58-2.71,3.29-1.23,1.49-2.29,2.68-3.16,3.58.16,0,2.87-.13,4.58-.36-.13-.23-.52-.97-1.32-1.84l.16-.19c2.52.97,4.45,2.42,4.45,3.91,0,.61-.35,1.32-1.23,1.32-.77,0-1.1-.39-1.39-1.48-.03-.1-.16-.55-.36-1.03l-2.94.65c0,1.39.1,8,.1,8.62.03.65.13,3.55.13,4.13,0,.84-.74,1.39-1.55,1.39-.68,0-.87-.42-.87-.97,0-.52.13-2.65.13-3.1.03-1.03.06-4.2.1-9.65-2.03.45-3.65.81-4.07.9-.19.32-.52.94-.81.94-.32,0-.52-.39-.58-.58l-.71-2.74c.55.13,1.48.23,2.29.23,1,0,2.48-.03,3-.06,2.19-2.97,4.16-7.07,4.61-8.36.13-.32.19-.9.19-1.29l2.87,1.45Zm-12.75,21.24c1.39-3.13,2.32-7.23,2.26-9.42l2.65.97c.23.1.45.29.45.45,0,.23-.19.39-1.03.71-1.03,3-1.97,4.81-4.16,7.39l-.16-.1Zm1.23-21.2c.9.23,1.97.52,2.78.9.9-1.81,2.32-5.33,2.13-7.23l3.07,1.52c.26.13.39.32.39.48,0,.48-.48.58-1.23.71-1.52,1.94-1.74,2.23-3.94,4.74.94.58,1.9,1.45,1.9,2.55,0,.74-.48,1.55-1.32,1.55-.74,0-.94-.39-1.65-1.97-.74-1.68-1.48-2.39-2.16-3.07l.03-.19Zm7.62,12.3c1.32.58,4.55,2.03,4.55,4.23,0,1.03-.74,1.58-1.42,1.58-.87,0-1.03-.65-1.45-2.13-.45-1.68-1.07-2.61-1.78-3.55l.1-.13Zm15.43-10.42l.97-.9c.16-.16.35-.36.45-.36.13,0,.36.19.45.29l1.55,1.32c.16.13.29.32.29.48,0,.23-.61.68-1.19,1.1-.19,8.94-.26,12.94-1.97,16.23-1.19,2.29-3.23,3.13-5,3.16-.26-1.52-1.26-2.52-2.94-3.65l.03-.19c1.48.29,3.45.65,4.29.65,3.26,0,3.42-10.65,3.42-13.97,0-.55-.03-2.84-.03-3.39h-8.71c-1.58,3-2.68,4.1-3.16,4.62l-.19-.13c2.39-4.74,3.49-10.2,3.49-11.88,0-.32-.1-.94-.16-1.23l3.49,1.48c.16.06.35.23.35.45,0,.32-.48.55-1.26.9-.35,1.03-.94,2.65-2.13,5h7.97Zm-8.81,6.16c3.07,1.26,4.58,2.29,4.58,4.03,0,.77-.39,1.52-1.29,1.52-.84,0-1.1-.36-1.81-2.58-.26-.84-.87-1.94-1.61-2.78l.13-.19Z"/>
      <path class="cls-2" d="m244.39,118.14c-.68.42-1.68.84-2.81.84-3.19,0-5.78-3.23-5.78-7.17,0-4.45,3.19-8.49,6.91-8.49s7.42,4.2,7.42,11.13c0,7.46-4.2,13.65-9.13,13.65-2.16,0-3.68-1.29-3.68-2.81,0-1.16.9-1.68,1.65-1.68.65,0,1.71.42,1.77,2.23.03.71.1,1.16.97,1.16s1.74-.42,2.36-1.13c2.87-3.16,3.03-7.94,3.16-10.81-.61,1-1.29,2.1-2.84,3.07Zm1.06-11.97c-.55-.87-1.39-1.74-2.61-1.74-1.71,0-4.13,1.81-4.13,7.1,0,1.48.35,6,3.68,6,1.23,0,3.29-.9,4.81-4.39-.13-1.78-.39-4.87-1.74-6.97Z"/>
      <path class="cls-2" d="m257.52,126.24c.03,1.07-.87,1.87-1.87,1.87-1.06,0-1.87-.84-1.87-1.87s.81-1.87,1.87-1.87c1,0,1.87.84,1.87,1.87Z"/>
      <path class="cls-2" d="m275.59,121.01c0,3.74-2.94,7.1-7.62,7.1-3.68,0-6.97-2.13-6.97-5.81,0-3.49,2.78-5.13,5.74-6.87-1.71-1-4.81-2.81-4.81-6.33,0-3.19,2.52-5.78,6.45-5.78,4.42,0,5.91,3.29,5.91,5.1,0,2.74-2.65,4.74-4.03,5.78,3.03,1.87,5.33,3.49,5.33,6.81Zm-11.88,1.19c0,2.84,2.13,4.81,4.65,4.81,2.81,0,4.91-2.49,4.91-4.87,0-3.07-3.19-4.87-5.55-6.2-1.45,1.1-4,3.07-4,6.26Zm8.23-13.43c0-2.45-1.65-4.36-4-4.36s-3.81,1.74-3.81,3.84c0,2.26,1.84,3.39,5.2,5.39.94-.81,2.61-2.19,2.61-4.87Z"/>
      <path class="cls-2" d="m283.88,119.69l4.68-4.55c.23-.19.42-.48.42-.84,0-.52-.65-1.03-1.36-1.03h-.61v-1.03h8.04v1.03h-.68c-1.81,0-3.2.81-4.94,2.48l-1.36,1.32,3.84,6.49c1.1,1.84,2.13,2.9,3.71,2.9v1.03h-7.16v-1.03c.39,0,1.68,0,1.68-1.03,0-.23-.1-.48-.19-.65l-3.58-6.03-2.48,2.39v3.39c0,1.94,1.16,1.94,2.39,1.94v1.03h-7.1v-1.03h.77c.9,0,1.61-.61,1.61-1.94v-17.98c0-1.36-1.16-1.58-2.13-1.48l-.13-.58,4.58-1.13v16.33Z"/>
      <path class="cls-2" d="m303.76,111.62v2.55c.87-.87,2.55-2.55,5.33-2.55,3.03,0,3.61,1.97,3.87,2.9,1.1-1.06,2.87-2.9,5.78-2.9s4.13,1.71,4.13,5.29v7.62c0,1.23.65,1.94,1.61,1.94h.61v1.03h-6.74v-1.03h.58c1.13,0,1.65-.87,1.65-1.94v-7.42c0-.9-.16-4.1-2.84-4.1-.9,0-2.94.52-4.55,2.81,0,.26.03.52.03,1.1v7.62c0,1.36.74,1.94,1.61,1.94h.94v1.03h-7.39v-1.03h.94c.87,0,1.61-.61,1.61-1.94v-7.42c0-.68-.06-4.1-2.81-4.1-.77,0-2.84.42-4.36,2.55v8.97c0,1.36.77,1.94,1.61,1.94h.58v1.03h-6.71v-1.03h.58c.97,0,1.61-.68,1.61-1.94v-9.71c0-1-.55-1.52-1.32-1.52-.36,0-.68.03-.97.13l-.13-.61,4.74-1.19Z"/>
      <path class="cls-2" d="m330.05,130.85l-.29-.45c6-6.36,6.13-12.81,6.13-15.17s-.13-8.81-6.13-15.17l.29-.45c5.03,4.03,7.65,9.84,7.65,15.62s-2.61,11.59-7.65,15.62Z"/>
    </g>
    <g>
      <path class="cls-2" d="m28.06.63h14.91v1.81h-13.1v39.31h-1.81V.63Z"/>
      <path class="cls-2" d="m66,4.47h-6.28v8.9h1.45l.9-.72c.36-.27.5-.41.77-.41.23,0,.63.18.9.36l1.49.95c.27.18.5.41.5.68,0,.36-.99,1.08-1.49,1.45,0,1.08,0,2.62.09,4.88.09,1.36.23,3.61.23,4.2s-.09.95-.41,1.22c-.45.36-1.13.54-1.49.54-.86,0-.86-.59-.81-1.17h-2.12v9.94h2.12l1.22-1.31c.32-.32.45-.54.77-.54s.59.32.81.5l1.36,1.27c.27.27.45.41.45.68,0,.41-.36.5-.68.5h-12.24v3.12c0,.45-.95,1.4-1.81,1.4-.99,0-.99-.63-.99-1.13,0-2.44.18-6.33.18-8.72.09-7.32,0-8.86,0-22.73v-2.67c0-2.44-.05-2.94-.41-3.88l3.34,1.63h7.82l1.17-1.45c.18-.23.45-.54.68-.54.32,0,.59.27.86.45l1.85,1.45c.23.18.45.36.45.68,0,.41-.36.5-.68.5Zm-8.63,0h-3.84v8.9h3.84V4.47Zm4.47,9.98h-8.31v9.8h8.31v-9.8Zm-4.34,10.89h-3.98v9.94h3.98v-9.94Zm30.32-17.53h-17.17c-.14.23-.41.59-.81,1.22-1.17,1.76-2.44,3.7-3.61,4.7l-.32-.23c1.76-3.52,2.67-5.65,3.48-7.95.23-.68,1.13-3.3,1.13-4.61,0-.36,0-.59-.04-.95l3.66,1.85c.27.13.5.32.5.59,0,.5-.32.59-1.67,1.08-.36.9-.59,1.36-1.67,3.21h11.52l1.85-2.03c.36-.36.45-.54.72-.54s.68.32.81.5l1.9,1.99c.27.27.41.5.41.72,0,.41-.36.45-.68.45Zm-12.83,19.92c0,.54.14,5.78.14,6.24,0,1.04.23,3.3.23,3.61,0,1.08-1.49,1.54-1.76,1.54-.72,0-.77-1.17-.77-1.72v-1.09h-3.61c.09,1.67.09,2.58.09,2.8,0,1.26-1.17,1.67-1.58,1.67-.86,0-.86-1.04-.86-1.49,0-2.67.14-6.91.14-9.58,0-1.31,0-2.89-.18-4.02-.09-.77-.09-.86-.14-1.31l2.85,1.49h2.53l1.04-.9c.27-.23.54-.41.72-.41.32,0,.45.18.68.32l1.4,1.04c.18.13.36.36.36.63,0,.32-.9.95-1.27,1.17Zm-2.17-.77h-3.66v8.27h3.66v-8.27Zm9.98-12.34c.04,1.13.18,5.87.18,6.69,0,.5-.05.72-.41.99-.18.14-.63.45-1.4.45-.59,0-.68-.27-.63-1.58h-6.69c.04.45.09.77-.05,1.04-.04.13-.95,1.08-1.67,1.08-.81,0-.81-.77-.81-1.22,0-.99.23-5.56.23-6.51,0-1.45-.23-3.7-.36-4.29l2.98,1.45h5.78l.95-.9c.23-.18.36-.41.63-.41.23,0,.45.18.68.32l1.58.99c.18.14.5.36.5.59,0,.18-1.13,1.08-1.49,1.31Zm-2.26-.81h-6.73v6.28h6.73v-6.28Zm6.64,13.74c.04,1.31.04,3.16.23,6.64.05.5.23,4.02.23,4.29,0,.54-.27,1.63-1.9,1.63-.63,0-.63-.9-.63-2.12v-1.67h-4.97c0,.32.09,1.72.09,1.99,0,.72,0,2.12-1.72,2.12-.63,0-.72-.68-.72-1.08,0-.72.09-1.9.09-2.62.05-1.58.09-3.16.09-4.74,0-3.57-.14-6.96-.23-7.73l2.53,1.45h4.2l.95-.95c.18-.18.41-.45.63-.45s.45.23.68.45l1.27,1.18c.18.13.41.36.41.59,0,.32-.36.54-1.22,1.04Zm-2.03-.77h-5.02v8.45h5.02v-8.45Z"/>
      <path class="cls-2" d="m98.53,18.66c-.81,0-1.08-.5-1.99-2.12-1.08-1.94-1.54-2.48-2.58-3.52l.14-.27c2.76.72,5.87,1.67,5.87,4.38,0,.9-.72,1.54-1.45,1.54Zm1.81,9.44c-.59,1.54-.95,2.53-.95,3.89,0,1.26.23,1.99.81,3.57.59,1.67.63,2.48.63,3.03,0,.99-.27,2.35-1.72,2.35-1.63,0-1.94-1.58-1.94-2.49,0-.72.36-3.8.36-4.43,0-3.25-1.49-4.52-2.71-5.2l.05-.27c1.49.23,2.39-.32,2.89-.99,1.13-1.54,4.07-7.73,7-16.4l.68.14c-3.3,11.38-4.02,13.92-5.11,16.81Zm1.85-20.2c-1.13,0-1.27-.36-2.58-3.39-.99-2.21-1.63-2.8-2.03-3.21l.18-.23c1.04.36,2.85.99,4.11,2.08.99.9,1.76,2.12,1.76,3.12,0,.18,0,1.63-1.45,1.63Zm32.3,15.36h-7.41c-.05,2.21-.23,6.6-.63,9.8h2.71l1.49-1.76c.45-.5.5-.59.72-.59.14,0,.27,0,.81.5l1.99,1.76c.27.23.45.41.45.68,0,.41-.41.5-.68.5h-7.64c-.63,3.52-1.27,6.73-6.42,7.54-.14-2.03-2.08-3.43-3.34-3.93l.09-.36c.95.23,2.76.63,4.07.63,1.49,0,2.58-.36,3.21-3.88h-12.74c-.18,1.54-.18,1.72-.36,1.99-.41.63-1.27.9-1.76.9-.77,0-.99-.45-.99-.95,0-.05.5-2.62.5-2.8.32-1.58,1.27-8.58,1.45-10.03-.27,0-2.89.13-4.88.54l-1.08-1.99c3.12.27,5.47.32,6.14.32.99-8.27.95-8.9.81-10.53l2.89,1.76h10.75l1.22-1.13c.36-.32.41-.36.63-.36s.5.23.63.36l1.45,1.49c.09.13.32.32.32.59s-.27.41-.63.59c-.18.09-.59.23-.95.36-.05.95-.09,1.31-.09,1.76-.04.81-.09,4.43-.09,5.15h2.98l.99-1.58c.18-.23.45-.59.72-.59.18,0,.41.14.81.45l2.08,1.63c.18.18.45.41.45.68,0,.45-.41.5-.68.5Zm-2.94-15.23h-18.98c-2.17,3.89-5.06,6.55-6.64,7.95l-.23-.27c3.21-4.11,5.38-9.08,6.33-12.47.23-.86.27-1.4.32-2.85l3.57,1.85c.27.14.54.27.54.68s-.14.45-1.58.86c-.45.86-.68,1.36-1.67,3.16h13.73l1.31-1.63c.27-.32.45-.54.72-.54s.72.36.86.45l1.99,1.67c.18.18.41.36.41.68,0,.41-.36.45-.68.45Zm-19.11,15.23l-1.13,9.8h4.92c.5-3.71.54-4.16,1.08-9.8h-4.88Zm1.04-8.81c-.18,1.08-.77,6.51-.9,7.73h4.88l.54-7.73h-4.52Zm6.23,8.81c-.63,5.92-.68,6.69-1.13,9.8h5.51c.18-1.58.54-4.88.63-9.8h-5.02Zm.77-8.81c-.09,1.13-.54,6.51-.68,7.73h4.97c.09-5.92.09-6.6.14-7.73h-4.43Z"/>
      <path class="cls-2" d="m163.54,5.56h-17.67c-1.58,0-4.07.23-5.78.54l-1.08-1.94c3.39.27,6.69.32,7.5.32h12.7l1.04-1.67c.36-.54.54-.63.72-.63.27,0,.45.13.81.45l1.99,1.81c.32.23.45.36.45.68,0,.41-.36.45-.68.45Zm-1.17,18.7c-.18.09-.95.54-1.08.63,0,1.54-.05,4.07.09,6.82.05,1.31.23,5.06.23,6.19,0,.9,0,2.21-1.67,2.21-.9,0-.9-.36-.86-2.71h-15.72c.05,1.31.05,2.98-1.85,2.98-.36,0-.86-.09-.86-.68,0-.23.05-.54.09-.86.32-1.58.32-7.41.32-9.26,0-7.23,0-7.55-.18-8.76l2.85,1.72h14.86l1.13-1.04c.45-.41.54-.45.63-.45.14,0,.27.18.63.5l1.54,1.49c.45.41.45.5.45.63,0,.23-.09.27-.59.59Zm-2.62-13.28c-.32.23-.5.36-.77.63,0,.95.09,4.97.09,5.78,0,.86-.27,1.08-.63,1.31-.45.32-.86.41-.99.41-.59,0-.54-.63-.5-1.36h-11.61c0,.59.04,1.76-1.72,1.76-.54,0-.68-.23-.68-.72,0-.23.09-1.27.14-1.49.04-2.03.04-3.71.04-4.7,0-3.52-.09-4.02-.23-4.79l2.85,1.81h10.84l.86-.95c.14-.14.36-.36.5-.36s.23.04.72.41l1.4.95c.09.04.36.27.36.59,0,.27-.14.36-.68.72Zm-9.71,12.65h-6.69v5.6h6.69v-5.6Zm0,6.69h-6.69v6.01h6.69v-6.01Zm6.96-19.61h-11.66v5.96h11.66v-5.96Zm2.08,12.92h-6.91v5.6h6.91v-5.6Zm0,6.69h-6.91v6.01h6.91v-6.01Zm9.71-22.28c-.05,1.9-.09,3.39-.09,6.05,0,4.47.18,11.61.18,16.04,0,2.58-1.81,2.58-1.94,2.58-.5,0-.95-.41-.95-1.18,0-.36.18-1.99.23-2.35.18-6.23.27-12.51.27-18.75,0-3.21-.09-3.75-.68-5.6l3.66,1.4c.23.09.54.23.54.59,0,.32-.18.45-1.22,1.22Zm7.82-3.66c0,2.12-.09,17.71-.09,21.01,0,1.63.09,8.77.09,10.21,0,1.9-.36,2.89-1.36,4.02-1.22,1.31-2.3,1.58-3.07,1.72-1.08-1.85-2.67-2.71-4.97-3.8v-.36c1.72.23,3.25.23,3.57.23,2.08,0,3.48-.05,3.48-2.98,0-4.83-.09-26.16-.09-30.54-.14-1.49-.32-1.99-.59-2.85l3.98,1.31c.36.14.63.23.63.63s-.18.72-1.58,1.4Z"/>
      <path class="cls-2" d="m207.49,16.26h-9.04c-3.07,3.89-3.39,4.34-4.88,5.87l.36.23h7.05l1.13-1.13c.27-.23.36-.27.54-.27.23,0,.45.14.59.18l1.81,1.22c.41.27.59.41.59.77,0,.41-.18.5-1.72,1.22.09,4.07.14,6.46.23,9.53,0,.68.18,3.84.18,4.52,0,1.45-1.9,1.54-1.9,1.54-.9,0-.9-.54-.86-2.03h-7.82c.05,1.49.05,2.89-1.85,2.89-.68,0-.95-.23-.95-.9,0-.23.09-1.18.14-1.4.14-1.85.59-8.95.36-14.37-4.07,3.52-7,4.88-8.63,5.6l-.27-.23c3.21-2.21,6.6-5.56,8.72-7.77,0-.14-.14-.99-.14-1.08l.72.45c1.58-1.72,3.16-3.57,4.2-4.83h-5.24c-1.58,0-4.07.18-5.78.5l-1.08-1.94c3.39.27,6.69.36,7.5.36h1.76v-6.64h-4.2c-.72,0-1.76.09-2.48.23l-.45-1.49c.81.09,2.53.18,3.21.18h3.93c0-.68.04-3.71.04-4.34,0-1.4-.14-1.85-.5-2.67l3.66,1.22c.36.14.72.27.72.68,0,.63-.81.95-1.45,1.17-.09.81-.14,1.67-.18,3.93h1.4l.77-.99c.36-.45.45-.54.68-.54.27,0,.68.32.86.45l1.22.99c.27.23.45.41.45.68,0,.36-.27.5-.68.5h-4.74v1.22c0,1.81-.05,3.62-.09,5.42h1.54c4.07-5.11,6.37-9.49,6.78-10.44.32-.72.36-1.13.36-1.58l3.07,2.12c.14.09.36.27.36.59,0,.59-.54.68-1.67.86-1.04,1.36-5.6,7.23-6.55,8.45h3.98l1.27-1.54c.27-.36.45-.54.68-.54.27,0,.81.41.86.45l1.67,1.54c.23.18.45.41.45.68,0,.45-.41.5-.68.5Zm-5.92,7.18h-7.82v6.01h7.82v-6.01Zm0,7.09h-7.82v6.28h7.82v-6.28Zm19.83,5.02c-1.4.81-2.48.9-3.34,1.04-.23-.81-1.08-2.85-3.34-3.93l.14-.36c1.85.36,2.71.54,4.02.54,1.81,0,2.89-1.08,2.89-3.61,0-3.84-1.72-7.68-6.96-11.88,1.4-2.8,3.98-9.71,4.88-12.2h-7.23c0,7,0,20.69.14,27.02,0,1.22.18,6.42.18,7.5,0,1.27-.95,1.94-2.17,1.94-.81,0-.81-.72-.81-.95s.09-1.13.09-1.31c.32-6.96.32-18.52.32-25.93,0-2.08,0-7.59-.36-9.35-.09-.45-.23-.86-.41-1.54l3.7,1.54h6.51l.81-.77c.09-.09.32-.27.54-.27s.54.27.72.41l2.21,2.08c.18.18.36.36.36.68,0,.81-.77.9-2.12,1.04-.54.77-1.63,2.26-3.34,4.97-.99,1.63-2.48,3.93-3.07,4.83,3.93,2.53,8.72,6.19,8.72,12.74,0,2.53-.54,4.34-3.07,5.78Z"/>
      <path class="cls-2" d="m231.12,30.68c-.81,0-1.67-.63-1.67-1.9,0-.81.45-1.17,1.31-1.81,1.31-1.04,4.25-4.43,4.43-8.63h.32c.14.54.45,1.72.45,3.52,0,4.25-1.81,8.81-4.83,8.81Zm27.11,8.67c-1.76.5-6.42.54-8.4.54-5.74,0-7.5-.36-7.55-5.29-.05-10.26-.05-11.34-.05-21.01,0-2.21-.14-2.58-.54-3.75l4.25,1.63c.5.18.68.27.68.59,0,.45-.41.63-1.76,1.27-.09,2.26-.09,13.51-.09,16.49,0,1.08-.04,5.47.14,6.19.23,1.04.63,1.4,5.47,1.4,5.38,0,6.69,0,8.13-7.46l.32.05c.05.63.09,3.48.18,4.02.23,1.67.59,2.03.95,2.35.41.36.5.5.5.86,0,.9-1.22,1.81-2.21,2.12Zm-5.74-30.59c-.81,0-1.58-.36-2.12-2.35-.77-2.8-.95-3.52-2.62-5.42l.32-.27c1.08.41,2.98,1.13,4.29,2.39,1.81,1.76,1.9,3.52,1.9,3.75,0,1.26-.86,1.9-1.76,1.9Zm16.04,21.42c-1.27,0-1.49-.77-2.17-2.76-1.31-3.98-3.12-6.05-5.74-8.58l.23-.36c3.03,1.58,5.38,2.94,6.78,4.38,1.4,1.4,2.71,3.39,2.71,5.29,0,.68-.27,2.03-1.81,2.03Z"/>
      <path class="cls-2" d="m290.34,41.39h-14.91v-1.81h13.1V.27h1.81v41.12Z"/>
      <path class="cls-2" d="m321.94,28.39c-.03,2.15.06,5.13.13,7.31,0,.32.09,1.74.09,2.03,0,1.04-1,1.36-1.63,1.36-.94,0-.94-.22-.88-2.31h-18.49c0,.16.03,1.39,0,1.65-.13,1.11-1.38,1.2-1.63,1.2-.53,0-.91-.19-.91-.76,0-.22.06-1.14.06-1.3.06-2.44.09-4.97.09-7.41,0-2.15-.06-2.78-.44-4.18l3.29.95c.25.06.5.16.5.44,0,.35-.47.63-1.03.98-.09,2.72,0,6.55.03,7.66h8.09c0-2.66,0-9.68-.03-11.87h-6.14c.03,1.27-.94,1.46-1.57,1.46-.85,0-.85-.47-.85-.73,0-1.04.09-5.73.09-6.68,0-2.12,0-2.75-.5-4.56l3.29,1.14c.19.06.47.25.47.47,0,.44-.66.79-.97.95-.06,1.14-.06,1.74.03,7.18h6.14c0-1.2-.06-6.46-.06-7.53-.03-1.99-.22-2.88-.69-4.3l3.64,1.23c.28.1.47.29.47.41,0,.44-.56.73-1.03.98-.06,2.06-.06,2.28-.06,4.15v5.06h6.43c.09-2.37.22-7.12-.44-9.27l3.35,1.08c.28.09.5.22.5.47,0,.29-.16.44-1.07.92-.06,1.8-.03,4.05.03,5.85,0,.29.03,1.42.03,1.65,0,1.04-1.1,1.3-1.66,1.3-.91,0-.88-.44-.81-1.23h-6.36c-.03.7,0,10.29,0,11.87h8.21c.06-2.66.09-3.92.09-4.4,0-3.86-.25-4.62-.53-5.54l3.32.98c.22.06.44.22.44.41,0,.38-.44.63-1.03.92Z"/>
      <path class="cls-2" d="m351.37,17.95c.03,1.61-.03,8.89.03,10.16.03,1.04.28,6.27.28,7.72,0,.76,0,2.12-1.69,2.12-.28,0-.94-.06-.94-.79,0-.19.06-1.36.06-1.61h-17.65c.03,1.42.03,1.93-.09,2.18-.25.6-1.1.85-1.69.85-.85,0-.88-.51-.88-.85,0-.32.09-1.71.09-1.99.16-4.14.28-9.75.28-14.62,0-4.15-.12-5.06-.5-6.96l3.35,1.9h16.64l.97-1.01c.28-.28.38-.44.53-.44s.38.16.56.32l1.72,1.36c.19.16.38.35.38.54,0,.29-.69.7-1.47,1.14Zm-2.26-1.14h-17.65v17.97h17.65v-17.97Z"/>
      <path class="cls-2" d="m375.48,18.1c-.81.35-3.54,1.01-7.08,1.58-.09,1.23-.13,3.29-.09,4.59.63-.16,3.35-1.08,3.92-1.27.22-.06.38-.1.56-.1.56,0,1.79.35,1.79,1.14,0,.47-.34.63-.66.76-.38.16-2.85.76-5.58,1.27.12,3.23.28,4.91.69,6.9,2.95.54,6.58,2.25,6.58,3.96,0,.41-.22,1.17-.97,1.17-.38,0-.47-.06-1.54-.82-1.72-1.23-3.32-1.87-3.95-2.12-.22,2.97-2.41,4.05-5.36,4.05-3.23,0-5.45-1.71-5.45-3.36,0-2.56,3.7-3.35,6.8-3.35.78,0,1.28.03,1.82.09-.34-2.72-.41-5.76-.41-6.23-1.44.16-2.98.29-4.45.29-1.75,0-3.23-.32-3.23-1.52,0-.66.78-1.61,2.04-1.77-.31.41-.53.73-.53,1.11,0,.54.63.57,1.6.57,2.16,0,3.82-.29,4.54-.38,0-1.58,0-2.15.09-4.71-2.57.38-4.83.44-5.61.44-2.6,0-3.85-.76-4.64-2.5,1.13.47,2.16.92,4.36.92.78,0,2.88-.16,5.96-.63,0-.44.06-2.47.06-2.69,0-1.42-.31-1.77-2.41-2.56.34-.32.75-.73,1.85-.73,1.47,0,3.26,1.01,3.26,2.06,0,.38-.03.51-.44,1.68-.25.73-.31,1.39-.38,1.84,1.44-.35,3.26-.98,4.89-1.55.19-.06.41-.13.63-.13.63,0,1.91.57,1.91,1.27,0,.32-.16.6-.56.76Zm-11.66,16.01c-2.32,0-4.39.63-4.39,1.84,0,.63.97,1.52,3.45,1.52,1,0,2.26-.22,3.07-.76,1-.63,1-1.65,1-2.21-.44-.16-1.13-.38-3.13-.38Z"/>
      <path class="cls-2" d="m402.62,17.47c-4.01,0-5.2,0-7.3,1.27-2.92,1.74-5.3,5.82-5.3,9.43,0,5.29,5.52,6.52,8.34,7.15.47.09,1.79.38,1.79,1.74,0,.82-.78.89-1.19.89-3.23,0-10.47-2.41-10.47-9.37,0-1.36.25-4.08,2.57-7.09.88-1.14,1.63-1.8,4.33-3.96-3.32.44-10.03,2.79-11.09,3.39-1.35.79-1.5.86-2.01.86-.78,0-2.29-.95-2.29-2.79,0-.82.22-1.23.44-1.61.6.95,1.07,1.68,2.44,1.68.63,0,1.44-.16,4.61-.92,3.73-.92,9.75-2.28,13.48-3.2.31-.06.75-.16,1-.16.47,0,2.51.6,2.51,1.68,0,1.01-.97,1.01-1.85,1.01Zm-.88,8.04c-.53,0-.63-.13-1.38-1.46-.63-1.11-1.44-1.96-2.95-3.48,2.1.44,5.17,1.84,5.17,3.83,0,.54-.19,1.11-.85,1.11Zm3.67-1.46c-.47,0-.56-.16-1.47-1.55-.75-1.11-2.16-2.28-3.2-3.04,2.01.19,5.52,1.49,5.52,3.58,0,.89-.66,1.01-.85,1.01Z"/>
    </g>
    <line class="cls-1" y1="65.09" x2="430" y2="65.09"/>
  </g>
</svg>