<?xml version="1.0" encoding="UTF-8"?>
<svg id="_レイヤー_2" data-name="レイヤー 2" xmlns="http://www.w3.org/2000/svg" viewBox="0 0 290 698.5">
  <defs>
    <style>
      .cls-1, .cls-2 {
        stroke-width: 0px;
      }

      .cls-2 {
        fill: #c5a764;
      }

      .cls-3 {
        fill: none;
        stroke: #000;
        stroke-miterlimit: 10;
        stroke-width: .5px;
      }
    </style>
  </defs>
  <g id="_レイヤー_1-2" data-name="レイヤー 1">
    <rect class="cls-2" x="0" y="61.5" width="10" height="123"/>
    <rect class="cls-2" x="0" y="232.83" width="10" height="123"/>
    <rect class="cls-2" x="0" y="404.16" width="10" height="123"/>
    <rect class="cls-2" x="0" y="575.5" width="10" height="123"/>
    <g>
      <path class="cls-1" d="m2.49.22h7.92v.96H3.45v20.88h-.96V.22Z"/>
      <path class="cls-1" d="m14.73,7.66c1.75,0,4.13.65,4.13,2.33,0,.07,0,.58-.46.58-.29,0-.5-.17-.98-.5-2.02-1.39-3.22-1.82-4.46-2.21.6-.12,1.08-.19,1.78-.19Zm2.04-5.21c2.38,0,4.32.86,4.32,2.33,0,.43-.22.79-.55.79-.22,0-.41-.14-.84-.55-1.87-1.71-3.43-2.23-4.2-2.5.5-.05.82-.07,1.27-.07Zm14.07,4.51c-1.51,3.36-6.12,8.16-10.97,11.4-.65.43-.86.6-1.73,1.44-.14.14-.26.19-.36.19-.65,0-1.63-1.18-1.73-1.32-.5-.6-.55-1.54-.5-2.3.53.74,1.46,1.51,1.9,1.51,1.42,0,8.88-5.69,13.25-11.02l.14.1Z"/>
      <path class="cls-1" d="m35.49,20.81c4.3-2.98,6.12-9.41,6.12-10.68,0-.46-.22-.65-.5-.91-4.13.48-4.92.72-5.83,1.1-.38.17-.55.24-.7.24-.26,0-1.68-.82-1.68-2.42,0-.24.05-.46.07-.7.31.5,1.1,1.51,2.33,1.51.94,0,6.77-.7,8.04-.82,1.39-.12,2.78-.26,4.18-.36.48-.05.6-.07.91-.22.05-.02.24-.12.36-.12.29,0,1.54.46,2.02.86.19.14.24.38.24.58,0,.26-.1.53-.43.53-.31,0-1.58-.22-1.85-.24-1.61-.19-2.95-.22-3.6-.22-1.42,0-2.47.1-2.93.14.34.24,1.32.94,1.32,1.18,0,.12-.41.58-.46.67-.12.19-.19.46-.26.7-1.18,3.91-3.24,7.94-7.3,9.34l-.05-.17Zm4.08-17.14c1.82,0,3.17-.19,4.34-.53.84-.24.94-.26,1.2-.26.58,0,1.92.14,1.92.84,0,.43-.29.43-1.15.48-3.43.14-3.79.22-6.96.5h-.26c-.36,0-.89,0-1.56-.55-.41-.34-.48-.7-.48-1.3,1.15.79,2.16.82,2.95.82Z"/>
      <path class="cls-1" d="m52.85,14.98c3.94-2.47,10.18-8.28,10.18-9.38,0-.29-.12-.36-1.18-.91.41-.07.7-.12,1.03-.12.6,0,.91.14,1.7.82.22.19.41.36.41.6,0,.22-.07.26-.62.6-.31.17-.5.36-.96.79-.72.72-2.33,2.3-2.83,2.76.67.36.91.5.91.74,0,.14-.22.7-.24.82-.1.6-.1,5.42-.1,6.38,0,.26.02,1.46.02,1.73s0,.84-.53.84c-.46,0-.82-.55-.82-1.13,0-.19.12-1.08.14-1.27.1-1.13.24-3,.24-4.1,0-.72,0-2.69-.17-3.22-.02-.1-.05-.14-.12-.24-1.9,1.54-4.94,3.72-7.01,4.51l-.07-.22Z"/>
      <path class="cls-1" d="m70.61,20.81c4.3-2.98,6.12-9.41,6.12-10.68,0-.46-.22-.65-.5-.91-4.13.48-4.92.72-5.83,1.1-.38.17-.55.24-.7.24-.26,0-1.68-.82-1.68-2.42,0-.24.05-.46.07-.7.31.5,1.1,1.51,2.33,1.51.94,0,6.77-.7,8.04-.82,1.39-.12,2.78-.26,4.18-.36.48-.05.6-.07.91-.22.05-.02.24-.12.36-.12.29,0,1.54.46,2.02.86.19.14.24.38.24.58,0,.26-.1.53-.43.53-.31,0-1.58-.22-1.85-.24-1.61-.19-2.95-.22-3.6-.22-1.42,0-2.47.1-2.93.14.34.24,1.32.94,1.32,1.18,0,.12-.41.58-.46.67-.12.19-.19.46-.26.7-1.18,3.91-3.24,7.94-7.3,9.34l-.05-.17Zm4.08-17.14c1.82,0,3.17-.19,4.34-.53.84-.24.94-.26,1.2-.26.58,0,1.92.14,1.92.84,0,.43-.29.43-1.15.48-3.43.14-3.79.22-6.96.5h-.26c-.36,0-.89,0-1.56-.55-.41-.34-.48-.7-.48-1.3,1.15.79,2.16.82,2.95.82Z"/>
      <path class="cls-1" d="m91.2,20.71c5.98-2.62,9.72-8.69,10.3-12.24-1.85.14-8.71.79-9.79,1.49-.46.31-.5.34-.67.34-.62,0-2.26-1.39-2.26-2.67,0-.19.02-.38.12-.74.58.91,1.46,1.56,2.59,1.56.89,0,8.9-.65,9.53-.79.22-.05.43-.12,1.03-.65.14-.14.24-.19.34-.19.26,0,1.9,1.2,1.9,1.66,0,.24-.07.26-.77.6-.48.24-.5.29-.79,1.06-.22.53-2.09,5.09-5.57,7.94-1.7,1.42-3.72,2.42-5.9,2.81l-.05-.17Zm2.45-16.9c1.2,0,4.9-.38,5.86-.72.77-.29.86-.31,1.1-.31.38,0,1.68.14,1.68.77s-.67.65-2.52.77c-1.13.07-6.6.65-7.15.65-.48,0-1.63-.53-1.82-2.28,1.08.91,1.44,1.13,2.86,1.13Z"/>
      <path class="cls-1" d="m105.98,19.01c5.33-2.23,10.9-8.35,13.11-14.45-.74.14-3.96.7-4.61.84-.96.24-1.97.5-2.76.94-.34.19-.43.24-.58.24-.31,0-.72-.58-1.01-.98-.24-.34-.43-.7-.43-1.15,0-.34.12-.72.22-1.06.12.22.22.46.5.79.41.48.62.62,1.18.62,1.06,0,5.93-.67,6.65-.96.29-.12.41-.19.96-.55.19-.14.26-.14.34-.14.24,0,1.87,1.25,1.87,1.63,0,.29-.14.34-.91.58-.12.02-.19.19-.26.34-1.34,2.98-2.66,4.8-3.38,5.76,3.14,1.51,7.06,4.15,7.06,6.53,0,.17,0,.94-.72.94-.36,0-.53-.24-.7-.53-1.58-2.62-3.19-4.75-5.93-6.55-1.49,1.9-4.99,6.19-10.54,7.37l-.05-.19Z"/>
      <path class="cls-1" d="m147.41,3.22h-10.13v3.96c.98.22,6.12,1.37,6.12,4.1,0,.46-.38.91-.79.91-.46,0-.65-.31-1.3-1.27-.98-1.46-2.45-2.62-4.03-3.43,0,4.85,0,5.52.14,11.59,0,.38.02.53.02,1.1,0,.53-.05.72-.22.86-.24.22-.55.31-.84.31-.67,0-.67-.43-.67-.67,0-.14.05-.84.05-.98.17-4.15.17-5.21.17-11.38V3.22h-5.69c-.5,0-1.94.07-3.1.29l-.58-1.03c1.25.1,2.76.17,4.01.17h13.73l.98-1.06c.24-.26.29-.31.38-.31.12,0,.36.19.46.26l1.39,1.06c.1.1.24.21.24.36,0,.26-.26.26-.36.26Z"/>
      <path class="cls-1" d="m170.9,21.07c-.46.17-.91.22-3.79.22-2.35,0-3.43,0-3.43-2.23,0-2.38.05-3.53.55-12.07,0-.17.02-.34.02-.46h-3.86c-.1,1.08-.26,2.98-.96,5.81,1.92,1.15,2.69,2.38,2.69,2.98,0,.29-.26.72-.84.72-.36,0-.48-.14-.72-.43-.79-.91-.91-1.06-1.58-1.75-1.46,4.3-4.94,7.13-8.81,8.28l-.07-.14c5.71-2.45,7.22-7.63,7.71-9.24-.84-.72-1.75-1.32-3.34-2.02v-.17c2.11.5,3,.84,3.62,1.1.41-1.68.65-3.41.84-5.14h-4.22c-.86,0-2.18.1-3.1.29l-.58-1.03c1.8.14,3.55.17,4.01.17h3.91c.05-.77.07-1.51.07-2.28,0-1.92-.07-2.28-.36-3.67l2.62.79s.19.14.19.31c0,.24-.43.53-.82.74-.02.94-.05,2.11-.22,4.1h3.48l.94-.67c.12-.1.34-.26.48-.26s.22.05.34.14l1.01.79c.07.07.19.19.19.29,0,.26-.17.34-.31.38-.29.12-.5.24-.89.48-.1,1.22-.26,3.22-.43,6.43-.07,1.44-.19,3.72-.19,5.14,0,.46.05,1.13.72,1.2.12.02,1.8.02,2.06.02,1.46,0,1.9,0,2.14-.72.12-.34.7-3.05.84-3.72h.12c.43,3.07.48,3.41.62,3.65.07.07.38.46.43.53.05.1.1.17.1.29,0,.34-.46.89-1.18,1.15Z"/>
      <path class="cls-1" d="m195.62,11.07h-9.84v8.02c0,.58.05,1.08-.38,1.56-.22.26-.84.89-2.45,1.15-.07-.53-.17-.86-.5-1.18-.14-.12-.82-.72-2.5-1.2l.05-.17c.79.1,2.26.31,3.07.31,1.01,0,1.37-.22,1.37-1.06v-7.44h-6.41c-.84,0-2.18.12-3.1.29l-.55-1.03c1.8.14,3.53.17,3.98.17h6.07v-2.42c0-1.58-.19-2.23-.31-2.62l1.8.46c1.49-1.82,1.56-1.94,2.69-3.65h-7.9c-.84,0-2.16.1-3.07.26l-.58-1.03c1.8.14,3.55.19,3.98.19h7.8l.74-.65c.14-.14.26-.24.46-.24s.38.14.48.22l1.39.98c.1.07.26.22.26.41,0,.29-.34.36-.5.38-.34.07-.84.1-1.27.14-.26.17-.48.36-2.42,1.9-.79.65-1.34.98-1.66,1.18.17.1.26.26.26.38,0,.38-.55.77-.82.94v3.17h6.6l1.08-1.18c.24-.26.26-.29.38-.29s.34.17.43.24l1.46,1.18c.12.1.24.22.24.38,0,.22-.19.24-.36.24Z"/>
      <path class="cls-1" d="m206.71,21.87h-7.92v-.96h6.96V.02h.96v21.84Z"/>
      <path class="cls-1" d="m216.19,16.63c.67.5,1.58,1.13,2.06,1.44.38.24.62.31.89.31.6,0,.96-.5,1.08-.72,1.42-2.45,1.9-6.86,1.9-7.75,0-1.68-.38-2.42-1.61-2.42-.62,0-1.44.14-2.04.29-.43.91-2.16,5.04-2.57,5.86-.96,1.92-1.97,4.01-3,5.69-.05.07-.41.67-.77.67-.34,0-.55-.31-.55-.89,0-.74.26-1.06.91-1.85.26-.31,1.56-2.45,2.47-4.22.86-1.68,2.04-4.44,2.23-4.92-.77.26-3.17,1.1-3.58,1.42-.48.34-.6.41-.89.41-.77,0-1.94-1.03-1.94-2.42,0-.14.02-.22.1-.36.36.58.96,1.22,1.73,1.22.34,0,.72-.1,1.54-.31,1.97-.55,2.04-.55,3.46-.94.41-.96,1.3-3.14,1.3-3.96,0-.62-.19-1.01-.79-1.3-.14-.07-.84-.41-.96-.46.26-.07.53-.12.96-.12,1.7,0,2.52,1.08,2.52,1.56,0,.22,0,.24-.46,1.06-.24.43-1.1,2.52-1.3,2.93.24-.05,1.01-.17,1.75-.17,2.5,0,2.64,2.42,2.64,3.55,0,1.44-.82,7.18-2.57,9.12-.31.34-1.3,1.37-2.02,1.37-.53,0-.55-.29-.58-.72,0-.38-.12-.86-1.99-3.24l.07-.12Zm9.98-4.49c1.63-.05,3.24-.07,3.24-1.22,0-.55-1.13-2.33-4.75-4.8,3.12.46,4.87,2.66,5.21,3.1,1.01,1.25,1.34,2.45,1.34,3.55,0,.53-.1.82-.43.82-.19,0-.29-.05-.79-.38-.29-.19-.48-.12-1.97-.48-.19-.05-1.25-.29-1.85-.43v-.14Z"/>
      <path class="cls-1" d="m238.29,20.5c1.97-.29,3.62-.94,4.37-1.25,2.45-1.03,4.42-2.45,4.42-4.8,0-1.9-1.42-3.24-3.26-3.24-3.6,0-7.2,3.1-8.16,4.73-.22.34-.29.48-.5.48-.62,0-1.08-1.3-1.08-1.87,0-.22.14-.84.24-1.32.19-.84.53-3.55.53-5.3,0-1.87,0-2.06.38-2.64.58-.86.91-.94,3.86-1.54.1,0,.22-.05.22-.19,0-.12-.12-.17-.43-.34-.5-.29-1.94-1.27-1.9-2.42.74.7,1.8,1.22,3.48,1.94,1.42.62,1.58,1.63,1.58,1.94,0,.48-.24.5-.46.5-.31,0-.55-.1-1.03-.34-.31-.14-1.37-.24-2.14-.24-.94,0-2.88.05-2.88,1.56,0,.48.19,1.08.24,1.18.07.24.26.84.26,1.1,0,.1-.17.89-.19,1.06-.05.17-.48,2.28-.48,3.79,0,.29.1.55.31.55.05,0,.12,0,.29-.14,2.21-1.99,5.5-3.24,7.94-3.24,3,0,4.54,2.23,4.54,4.18,0,2.45-2.14,4.06-3.31,4.61-1.78.82-3.94,1.37-6.84,1.42v-.17Z"/>
    </g>
    <g>
      <path class="cls-1" d="m34.26,157.8c.36.18.47.31.47.49,0,.31-.13.34-1.11.6-.8.8-4.04,4.61-4.76,5.33.23-.03,2.23-.13,3.37-.29-.47-.8-.75-1.09-1.06-1.4l.1-.13c1.84.52,3.88,1.73,3.88,3.19,0,.6-.36,1.16-1.06,1.16-.85,0-1.01-.44-1.17-.91-.05-.18-.31-1.01-.36-1.19l-2.05.49c0,.86.05,5.36.05,5.49.05,1.53.16,4.35.16,4.58,0,.34,0,1.3-1.42,1.3-.85,0-.85-.49-.85-.78,0-.23.03-.52.03-.78.1-3.81.1-4.35.13-9.37-.54.1-2.74.62-3,.7-.13.15-.26.29-.36.44-.13.21-.21.36-.41.36-.31,0-.44-.29-.49-.54l-.6-2.43c.72.16,1.22.18,2.3.18.67,0,1.35-.03,1.97-.05,1.42-2.02,3.34-5.72,3.68-6.68.1-.34.13-.7.13-1.04l2.46,1.27Zm-10.23,17.09c.41-1.09,1.68-4.51,1.68-7.87l2.25.88c.23.08.41.21.41.41,0,.26-.28.39-.73.6-.75,2.25-1.55,3.75-3.47,6.06l-.16-.08Zm.83-17.01c1.58.31,2.3.65,2.38.7.7-1.61,1.63-4.22,1.58-5.85l2.64,1.32c.13.05.36.21.36.44,0,.36-.41.44-.96.54-1.5,1.81-1.68,2.02-3.24,3.73.83.44,1.63,1.16,1.63,2.12,0,.6-.36,1.37-1.19,1.37-.73,0-.85-.26-1.5-1.68-.41-.93-.8-1.53-1.79-2.54l.08-.16Zm6.03,9.71c2.25.88,3.94,1.84,3.94,3.49,0,.98-.73,1.37-1.24,1.37-.85,0-1.04-.7-1.4-1.94-.26-.83-.85-2.07-1.4-2.8l.1-.13Zm12.12-8.21l.91-.8c.18-.18.28-.26.41-.26s.21.05.44.26l1.19.98c.16.13.29.23.29.44s-.7.86-.88,1.01c-.03.39-.05,1.01-.21,6.55-.03.47-.23,6.45-3,8.21-.52.34-1.5.72-2.59.7-.23-1.71-1.66-2.77-2.25-3.21l.08-.21c1.55.41,3.03.57,3.42.57.49,0,.88,0,1.55-1.81,1.01-2.67.96-8.83.88-11.81h-6.47c-1.29,2.23-2.23,3.13-2.72,3.62l-.16-.1c2.23-4.48,2.64-8.57,2.64-9.4,0-.36-.05-.73-.1-1.11l3,1.32c.28.13.39.26.39.41,0,.23-.1.29-1.04.67-.75,2.2-1.5,3.6-1.68,3.96h5.9Zm-6.89,4.87c3.44,1.19,3.96,2.28,3.96,3.29,0,.93-.67,1.3-1.24,1.3-.83,0-1.06-.62-1.37-1.61-.23-.7-.6-1.73-1.45-2.85l.1-.13Z"/>
      <path class="cls-1" d="m59.77,157.69c3.37,0,6.66,3.18,6.66,8.65,0,6.39-4.48,9.88-8.15,9.88-3.87,0-8.92-3.79-8.92-13.17,0-7.58,3.68-16.19,10.57-16.19,2.99,0,5.4,1.65,5.4,3.9,0,1.38-.92,2.34-2.22,2.34-1.23,0-2.41-.92-2.41-2.37,0-.19.15-1.11.15-1.3,0-1-.96-1.26-1.65-1.26-1.42,0-4.94,1.53-5.63,12.86,2.26-2.53,4.63-3.33,6.2-3.33Zm-1.45,17.19c3.06,0,4.02-4.75,4.02-8.08,0-3.9-1.34-7.2-3.87-7.2-.34,0-2.72,0-4.94,2.99.11,3.98.34,12.29,4.79,12.29Z"/>
      <path class="cls-1" d="m73.47,173.77c0,1.34-1.11,2.45-2.45,2.45s-2.45-1.11-2.45-2.45,1.11-2.45,2.45-2.45,2.45,1.07,2.45,2.45Z"/>
      <path class="cls-1" d="m76.65,153.98c0-3.98,3.22-7.12,7.66-7.12,4.1,0,7.27,2.76,7.27,6.2s-2.87,5.17-5.21,6.51c3.41,2.11,6.43,4.13,6.43,8.23s-3.02,8.42-8.92,8.42c-4.56,0-8.46-2.64-8.46-7.16,0-4.1,3.14-6.13,6.2-7.96-2.18-1.42-4.98-3.33-4.98-7.12Zm2.57,14.55c0,3.83,2.6,6.2,5.55,6.2,2.79,0,5.36-2.07,5.36-5.09,0-3.6-2.91-5.28-7.35-7.85-1.26,1-3.56,2.76-3.56,6.74Zm9.03-15.43c0-2.87-1.91-4.94-4.59-4.94s-4.4,1.91-4.4,4.37c0,2.83,2.37,4.4,5.67,6.32,1.19-.92,3.33-2.56,3.33-5.74Z"/>
      <path class="cls-1" d="m98.37,169.43v3.11c0,.54.57,1.16,1.09,1.16h.62v.83h-5.46v-.83h.65c.47,0,1.06-.49,1.06-1.19v-14.79c0-.8-.18-1.22-.85-1.22-.23,0-.57.08-.8.16l-.1-.62,3.81-.88v13.1l4.12-3.88c.21-.18.26-.47.26-.6,0-.44-.41-.67-.93-.67h-1.04v-.83h6.42v.83h-.44c-.41,0-1.97.21-3.39,1.58l-1.55,1.47,3.26,5.98c.39.7,1.14,1.55,1.97,1.55h.57v.83h-6.01v-.83h.83c.18,0,.57-.23.57-.67,0-.34-.16-.62-.31-.88l-2.46-4.51-1.86,1.79Z"/>
      <path class="cls-1" d="m109.4,162.83l3.91-1.14v2.36c1.76-1.76,3.11-2.25,4.22-2.25s2.69.57,3.24,2.43c.65-.67,2.23-2.43,4.25-2.43,1.4,0,3.34,1.01,3.34,3.5v7.2c0,.6.34,1.22.91,1.22h.88v.83h-5.62v-.83h.7c.57,0,1.09-.62,1.09-1.29v-6.63c0-1.58-1.06-2.56-2.23-2.56-1.27,0-2.49,1.01-3.24,2.12v7.15c0,.6.39,1.22.98,1.22h.78v.83h-5.59v-.83h.67c.6,0,1.11-.62,1.11-1.29v-6.63c0-1.55-.85-2.64-2.07-2.64-.78,0-1.94.31-3.42,1.92v7.51c0,.57.44,1.14,1.11,1.14h.67v.83h-5.62v-.83h.83c.57,0,.96-.52.96-1.14v-7.97c0-.62-.21-1.35-.91-1.35-.1,0-.44,0-.85.1l-.1-.52Z"/>
    </g>
    <g>
      <path class="cls-1" d="m34.26,333.8c.36.18.47.31.47.49,0,.31-.13.34-1.11.6-.8.8-4.04,4.61-4.76,5.33.23-.03,2.23-.13,3.37-.29-.47-.8-.75-1.09-1.06-1.4l.1-.13c1.84.52,3.88,1.73,3.88,3.19,0,.6-.36,1.16-1.06,1.16-.85,0-1.01-.44-1.17-.91-.05-.18-.31-1.01-.36-1.19l-2.05.49c0,.86.05,5.36.05,5.49.05,1.53.16,4.35.16,4.58,0,.34,0,1.3-1.42,1.3-.85,0-.85-.49-.85-.78,0-.23.03-.52.03-.78.1-3.81.1-4.35.13-9.37-.54.1-2.74.62-3,.7-.13.15-.26.29-.36.44-.13.21-.21.36-.41.36-.31,0-.44-.29-.49-.54l-.6-2.43c.72.16,1.22.18,2.3.18.67,0,1.35-.03,1.97-.05,1.42-2.02,3.34-5.72,3.68-6.68.1-.34.13-.7.13-1.04l2.46,1.27Zm-10.23,17.09c.41-1.09,1.68-4.51,1.68-7.87l2.25.88c.23.08.41.21.41.41,0,.26-.28.39-.73.6-.75,2.25-1.55,3.75-3.47,6.06l-.16-.08Zm.83-17.01c1.58.31,2.3.65,2.38.7.7-1.61,1.63-4.22,1.58-5.85l2.64,1.32c.13.05.36.21.36.44,0,.36-.41.44-.96.54-1.5,1.81-1.68,2.02-3.24,3.73.83.44,1.63,1.16,1.63,2.12,0,.6-.36,1.37-1.19,1.37-.73,0-.85-.26-1.5-1.68-.41-.93-.8-1.53-1.79-2.54l.08-.16Zm6.03,9.71c2.25.88,3.94,1.84,3.94,3.49,0,.98-.73,1.37-1.24,1.37-.85,0-1.04-.7-1.4-1.94-.26-.83-.85-2.07-1.4-2.8l.1-.13Zm12.12-8.21l.91-.8c.18-.18.28-.26.41-.26s.21.05.44.26l1.19.98c.16.13.29.23.29.44s-.7.86-.88,1.01c-.03.39-.05,1.01-.21,6.55-.03.47-.23,6.45-3,8.21-.52.34-1.5.72-2.59.7-.23-1.71-1.66-2.77-2.25-3.21l.08-.21c1.55.41,3.03.57,3.42.57.49,0,.88,0,1.55-1.81,1.01-2.67.96-8.83.88-11.81h-6.47c-1.29,2.23-2.23,3.13-2.72,3.62l-.16-.1c2.23-4.48,2.64-8.57,2.64-9.4,0-.36-.05-.73-.1-1.11l3,1.32c.28.13.39.26.39.41,0,.23-.1.29-1.04.67-.75,2.2-1.5,3.6-1.68,3.96h5.9Zm-6.89,4.87c3.44,1.19,3.96,2.28,3.96,3.29,0,.93-.67,1.3-1.24,1.3-.83,0-1.06-.62-1.37-1.61-.23-.7-.6-1.73-1.45-2.85l.1-.13Z"/>
      <path class="cls-1" d="m66.39,323.55v1.88c-4.25,6.66-7.73,14.09-8.38,22.47-.19,2.26-.34,4.33-2.64,4.33s-2.26-2.41-2.26-2.64c0-2.07,3.29-10.8,10.91-22.66h-9.38c-2.6,0-3.83,3.41-4.21,4.52l-1.03-.23,1.61-7.66h15.39Z"/>
      <path class="cls-1" d="m72.15,345.43v3.11c0,.54.57,1.16,1.09,1.16h.62v.83h-5.46v-.83h.65c.47,0,1.06-.49,1.06-1.19v-14.79c0-.8-.18-1.22-.85-1.22-.23,0-.57.08-.8.16l-.1-.62,3.81-.88v13.1l4.12-3.88c.21-.18.26-.47.26-.6,0-.44-.41-.67-.93-.67h-1.04v-.83h6.42v.83h-.44c-.41,0-1.97.21-3.39,1.58l-1.55,1.47,3.26,5.98c.39.7,1.14,1.55,1.97,1.55h.57v.83h-6.01v-.83h.83c.18,0,.57-.23.57-.67,0-.34-.16-.62-.31-.88l-2.46-4.51-1.86,1.79Z"/>
      <path class="cls-1" d="m83.18,338.83l3.91-1.14v2.36c1.76-1.76,3.11-2.25,4.22-2.25s2.69.57,3.24,2.43c.65-.67,2.23-2.43,4.25-2.43,1.4,0,3.34,1.01,3.34,3.5v7.2c0,.6.34,1.22.91,1.22h.88v.83h-5.62v-.83h.7c.57,0,1.09-.62,1.09-1.29v-6.63c0-1.58-1.06-2.56-2.23-2.56-1.27,0-2.49,1.01-3.24,2.12v7.15c0,.6.39,1.22.98,1.22h.78v.83h-5.59v-.83h.67c.6,0,1.11-.62,1.11-1.29v-6.63c0-1.55-.85-2.64-2.07-2.64-.78,0-1.94.31-3.42,1.92v7.51c0,.57.44,1.14,1.11,1.14h.67v.83h-5.62v-.83h.83c.57,0,.96-.52.96-1.14v-7.97c0-.62-.21-1.35-.91-1.35-.1,0-.44,0-.85.1l-.1-.52Z"/>
    </g>
    <g>
      <path class="cls-1" d="m34.26,505.8c.36.18.47.31.47.49,0,.31-.13.34-1.11.6-.8.8-4.04,4.61-4.76,5.33.23-.03,2.23-.13,3.37-.29-.47-.8-.75-1.09-1.06-1.4l.1-.13c1.84.52,3.88,1.73,3.88,3.19,0,.6-.36,1.16-1.06,1.16-.85,0-1.01-.44-1.17-.91-.05-.18-.31-1.01-.36-1.19l-2.05.49c0,.86.05,5.36.05,5.49.05,1.53.16,4.35.16,4.58,0,.34,0,1.3-1.42,1.3-.85,0-.85-.49-.85-.78,0-.23.03-.52.03-.78.1-3.81.1-4.35.13-9.37-.54.1-2.74.62-3,.7-.13.15-.26.29-.36.44-.13.21-.21.36-.41.36-.31,0-.44-.29-.49-.54l-.6-2.43c.72.16,1.22.18,2.3.18.67,0,1.35-.03,1.97-.05,1.42-2.02,3.34-5.72,3.68-6.68.1-.34.13-.7.13-1.04l2.46,1.27Zm-10.23,17.09c.41-1.09,1.68-4.51,1.68-7.87l2.25.88c.23.08.41.21.41.41,0,.26-.28.39-.73.6-.75,2.25-1.55,3.75-3.47,6.06l-.16-.08Zm.83-17.01c1.58.31,2.3.65,2.38.7.7-1.61,1.63-4.22,1.58-5.85l2.64,1.32c.13.05.36.21.36.44,0,.36-.41.44-.96.54-1.5,1.81-1.68,2.02-3.24,3.73.83.44,1.63,1.16,1.63,2.12,0,.6-.36,1.37-1.19,1.37-.73,0-.85-.26-1.5-1.68-.41-.93-.8-1.53-1.79-2.54l.08-.16Zm6.03,9.71c2.25.88,3.94,1.84,3.94,3.49,0,.98-.73,1.37-1.24,1.37-.85,0-1.04-.7-1.4-1.94-.26-.83-.85-2.07-1.4-2.8l.1-.13Zm12.12-8.21l.91-.8c.18-.18.28-.26.41-.26s.21.05.44.26l1.19.98c.16.13.29.23.29.44s-.7.86-.88,1.01c-.03.39-.05,1.01-.21,6.55-.03.47-.23,6.45-3,8.21-.52.34-1.5.72-2.59.7-.23-1.71-1.66-2.77-2.25-3.21l.08-.21c1.55.41,3.03.57,3.42.57.49,0,.88,0,1.55-1.81,1.01-2.67.96-8.83.88-11.81h-6.47c-1.29,2.23-2.23,3.13-2.72,3.62l-.16-.1c2.23-4.48,2.64-8.57,2.64-9.4,0-.36-.05-.73-.1-1.11l3,1.32c.28.13.39.26.39.41,0,.23-.1.29-1.04.67-.75,2.2-1.5,3.6-1.68,3.96h5.9Zm-6.89,4.87c3.44,1.19,3.96,2.28,3.96,3.29,0,.93-.67,1.3-1.24,1.3-.83,0-1.06-.62-1.37-1.61-.23-.7-.6-1.73-1.45-2.85l.1-.13Z"/>
      <path class="cls-1" d="m50.42,501.98c0-3.98,3.22-7.12,7.66-7.12,4.1,0,7.27,2.76,7.27,6.2s-2.87,5.17-5.21,6.51c3.41,2.11,6.43,4.13,6.43,8.23s-3.02,8.42-8.92,8.42c-4.56,0-8.46-2.64-8.46-7.16,0-4.1,3.14-6.13,6.2-7.96-2.18-1.42-4.98-3.33-4.98-7.12Zm2.57,14.55c0,3.83,2.6,6.2,5.55,6.2,2.79,0,5.36-2.07,5.36-5.09,0-3.6-2.91-5.28-7.35-7.85-1.26,1-3.56,2.76-3.56,6.74Zm9.03-15.43c0-2.87-1.91-4.94-4.59-4.94s-4.4,1.91-4.4,4.37c0,2.83,2.37,4.4,5.67,6.32,1.19-.92,3.33-2.56,3.33-5.74Z"/>
      <path class="cls-1" d="m73.47,521.77c0,1.34-1.11,2.45-2.45,2.45s-2.45-1.11-2.45-2.45,1.11-2.45,2.45-2.45,2.45,1.07,2.45,2.45Z"/>
      <path class="cls-1" d="m92.5,515.76c0,4.44-3.75,8.46-9.11,8.46-4.94,0-7.7-3.45-7.7-5.82,0-1.34,1.11-2.41,2.37-2.41.8,0,2.14.57,2.14,2.49,0,.5-.04.96-.23,1.42-.15.35-.27.69-.27,1.03,0,1.61,1.88,1.95,3.02,1.95,3.87,0,5.51-3.29,5.51-6.62,0-4.63-2.95-7.16-5.47-7.16-.19,0-1.15.19-1.38.19-.5,0-.84-.19-.84-.77,0-.5.31-.92.88-.92.19,0,1.19.19,1.38.19,2.68,0,4.75-2.26,4.75-6.05,0-3.1-1.53-5.59-4.17-5.59-1.72,0-2.76,1-2.76,2.26,0,.34.38,1.91.38,2.26,0,1.38-1.07,2.11-2.14,2.11-1.15,0-2.26-.88-2.26-2.22,0-2.53,2.64-5.7,7.47-5.7s7.58,3.37,7.58,6.58c0,1.91-1.07,5.25-6.16,6.89,2.18.73,7.01,2.45,7.01,7.43Z"/>
      <path class="cls-1" d="m98.37,517.43v3.11c0,.54.57,1.16,1.09,1.16h.62v.83h-5.46v-.83h.65c.47,0,1.06-.49,1.06-1.19v-14.79c0-.8-.18-1.22-.85-1.22-.23,0-.57.08-.8.16l-.1-.62,3.81-.88v13.1l4.12-3.88c.21-.18.26-.47.26-.6,0-.44-.41-.67-.93-.67h-1.04v-.83h6.42v.83h-.44c-.41,0-1.97.21-3.39,1.58l-1.55,1.47,3.26,5.98c.39.7,1.14,1.55,1.97,1.55h.57v.83h-6.01v-.83h.83c.18,0,.57-.23.57-.67,0-.34-.16-.62-.31-.88l-2.46-4.51-1.86,1.79Z"/>
      <path class="cls-1" d="m109.4,510.83l3.91-1.14v2.36c1.76-1.76,3.11-2.25,4.22-2.25s2.69.57,3.24,2.43c.65-.67,2.23-2.43,4.25-2.43,1.4,0,3.34,1.01,3.34,3.5v7.2c0,.6.34,1.22.91,1.22h.88v.83h-5.62v-.83h.7c.57,0,1.09-.62,1.09-1.29v-6.63c0-1.58-1.06-2.56-2.23-2.56-1.27,0-2.49,1.01-3.24,2.12v7.15c0,.6.39,1.22.98,1.22h.78v.83h-5.59v-.83h.67c.6,0,1.11-.62,1.11-1.29v-6.63c0-1.55-.85-2.64-2.07-2.64-.78,0-1.94.31-3.42,1.92v7.51c0,.57.44,1.14,1.11,1.14h.67v.83h-5.62v-.83h.83c.57,0,.96-.52.96-1.14v-7.97c0-.62-.21-1.35-.91-1.35-.1,0-.44,0-.85.1l-.1-.52Z"/>
    </g>
    <g>
      <path class="cls-1" d="m34.26,675.8c.36.18.47.31.47.49,0,.31-.13.34-1.11.6-.8.8-4.04,4.61-4.76,5.33.23-.03,2.23-.13,3.37-.29-.47-.8-.75-1.09-1.06-1.4l.1-.13c1.84.52,3.88,1.73,3.88,3.19,0,.6-.36,1.16-1.06,1.16-.85,0-1.01-.44-1.17-.91-.05-.18-.31-1.01-.36-1.19l-2.05.49c0,.86.05,5.36.05,5.49.05,1.53.16,4.35.16,4.58,0,.34,0,1.3-1.42,1.3-.85,0-.85-.49-.85-.78,0-.23.03-.52.03-.78.1-3.81.1-4.35.13-9.37-.54.1-2.74.62-3,.7-.13.15-.26.29-.36.44-.13.21-.21.36-.41.36-.31,0-.44-.29-.49-.54l-.6-2.43c.72.16,1.22.18,2.3.18.67,0,1.35-.03,1.97-.05,1.42-2.02,3.34-5.72,3.68-6.68.1-.34.13-.7.13-1.04l2.46,1.27Zm-10.23,17.09c.41-1.09,1.68-4.51,1.68-7.87l2.25.88c.23.08.41.21.41.41,0,.26-.28.39-.73.6-.75,2.25-1.55,3.75-3.47,6.06l-.16-.08Zm.83-17.01c1.58.31,2.3.65,2.38.7.7-1.61,1.63-4.22,1.58-5.85l2.64,1.32c.13.05.36.21.36.44,0,.36-.41.44-.96.54-1.5,1.81-1.68,2.02-3.24,3.73.83.44,1.63,1.16,1.63,2.12,0,.6-.36,1.37-1.19,1.37-.73,0-.85-.26-1.5-1.68-.41-.93-.8-1.53-1.79-2.54l.08-.16Zm6.03,9.71c2.25.88,3.94,1.84,3.94,3.49,0,.98-.73,1.37-1.24,1.37-.85,0-1.04-.7-1.4-1.94-.26-.83-.85-2.07-1.4-2.8l.1-.13Zm12.12-8.21l.91-.8c.18-.18.28-.26.41-.26s.21.05.44.26l1.19.98c.16.13.29.23.29.44s-.7.86-.88,1.01c-.03.39-.05,1.01-.21,6.55-.03.47-.23,6.45-3,8.21-.52.34-1.5.72-2.59.7-.23-1.71-1.66-2.77-2.25-3.21l.08-.21c1.55.41,3.03.57,3.42.57.49,0,.88,0,1.55-1.81,1.01-2.67.96-8.83.88-11.81h-6.47c-1.29,2.23-2.23,3.13-2.72,3.62l-.16-.1c2.23-4.48,2.64-8.57,2.64-9.4,0-.36-.05-.73-.1-1.11l3,1.32c.28.13.39.26.39.41,0,.23-.1.29-1.04.67-.75,2.2-1.5,3.6-1.68,3.96h5.9Zm-6.89,4.87c3.44,1.19,3.96,2.28,3.96,3.29,0,.93-.67,1.3-1.24,1.3-.83,0-1.06-.62-1.37-1.61-.23-.7-.6-1.73-1.45-2.85l.1-.13Z"/>
      <path class="cls-1" d="m56.01,683.35c-3.41,0-6.66-3.21-6.66-8.65,0-6.35,4.48-9.84,8.15-9.84,3.87,0,8.92,3.75,8.92,13.17,0,7.54-3.68,16.19-10.57,16.19-2.99,0-5.4-1.65-5.4-3.9,0-1.42.92-2.37,2.22-2.37,1.23,0,2.41.99,2.41,2.45,0,.19-.15,1.11-.15,1.3,0,1.04,1,1.26,1.65,1.26,1.45,0,4.94-1.61,5.63-12.94-2.14,2.37-4.48,3.33-6.2,3.33Zm1.45-17.19c-3.06,0-4.02,4.75-4.02,8.08,0,3.94,1.34,7.2,3.87,7.2.34,0,2.72,0,4.94-2.95-.11-4.02-.34-12.33-4.79-12.33Z"/>
      <path class="cls-1" d="m73.47,691.77c0,1.34-1.11,2.45-2.45,2.45s-2.45-1.11-2.45-2.45,1.11-2.45,2.45-2.45,2.45,1.07,2.45,2.45Z"/>
      <path class="cls-1" d="m76.65,671.98c0-3.98,3.22-7.12,7.66-7.12,4.1,0,7.27,2.76,7.27,6.2s-2.87,5.17-5.21,6.51c3.41,2.11,6.43,4.13,6.43,8.23s-3.02,8.42-8.92,8.42c-4.56,0-8.46-2.64-8.46-7.16,0-4.1,3.14-6.13,6.2-7.96-2.18-1.42-4.98-3.33-4.98-7.12Zm2.57,14.55c0,3.83,2.6,6.2,5.55,6.2,2.79,0,5.36-2.07,5.36-5.09,0-3.6-2.91-5.28-7.35-7.85-1.26,1-3.56,2.76-3.56,6.74Zm9.03-15.43c0-2.87-1.91-4.94-4.59-4.94s-4.4,1.91-4.4,4.37c0,2.83,2.37,4.4,5.67,6.32,1.19-.92,3.33-2.56,3.33-5.74Z"/>
      <path class="cls-1" d="m98.37,687.43v3.11c0,.54.57,1.16,1.09,1.16h.62v.83h-5.46v-.83h.65c.47,0,1.06-.49,1.06-1.19v-14.79c0-.8-.18-1.22-.85-1.22-.23,0-.57.08-.8.16l-.1-.62,3.81-.88v13.1l4.12-3.88c.21-.18.26-.47.26-.6,0-.44-.41-.67-.93-.67h-1.04v-.83h6.42v.83h-.44c-.41,0-1.97.21-3.39,1.58l-1.55,1.47,3.26,5.98c.39.7,1.14,1.55,1.97,1.55h.57v.83h-6.01v-.83h.83c.18,0,.57-.23.57-.67,0-.34-.16-.62-.31-.88l-2.46-4.51-1.86,1.79Z"/>
      <path class="cls-1" d="m109.4,680.83l3.91-1.14v2.36c1.76-1.76,3.11-2.25,4.22-2.25s2.69.57,3.24,2.43c.65-.67,2.23-2.43,4.25-2.43,1.4,0,3.34,1.01,3.34,3.5v7.2c0,.6.34,1.22.91,1.22h.88v.83h-5.62v-.83h.7c.57,0,1.09-.62,1.09-1.29v-6.63c0-1.58-1.06-2.56-2.23-2.56-1.27,0-2.49,1.01-3.24,2.12v7.15c0,.6.39,1.22.98,1.22h.78v.83h-5.59v-.83h.67c.6,0,1.11-.62,1.11-1.29v-6.63c0-1.55-.85-2.64-2.07-2.64-.78,0-1.94.31-3.42,1.92v7.51c0,.57.44,1.14,1.11,1.14h.67v.83h-5.62v-.83h.83c.57,0,.96-.52.96-1.14v-7.97c0-.62-.21-1.35-.91-1.35-.1,0-.44,0-.85.1l-.1-.52Z"/>
    </g>
    <g>
      <path class="cls-1" d="m39.22,68.22h-8.97c-.46.58-1.93,2.19-2.62,2.83h6.19l.62-.67c.18-.21.28-.28.41-.28s.23.07.41.23l.83.73c.16.14.3.32.3.44,0,.23-.16.39-.81.78,0,2.71.09,6.81.16,8.74.02.3.09,1.7.09,2.02,0,1.06-.83,1.06-1.17,1.06-.78,0-.76-.44-.71-1.31h-9.15c0,.09.02.6.02.71,0,.67-.69.94-1.24.94s-.57-.32-.57-.6c0-.04.02-.48.02-.55.12-2.07.16-7.87.16-9.43,0-1.33,0-2.88-.35-3.98l2.25,1.15h1.98c.48-1.15.76-2.53.83-2.83h-5.63c-.55,0-1.7.02-2.71.21l-.46-.92c1.82.14,3.15.16,3.54.16h7.91s1.2-2.14,1.4-4.21l2.16,1.27c.21.12.3.23.3.35,0,.25-.14.32-.94.41-.74.78-1.52,1.47-2.32,2.19h5.11l.94-1.31c.16-.21.28-.3.39-.3s.25.09.41.25l1.31,1.27c.14.12.23.28.23.41,0,.18-.14.23-.32.23Zm-12.37-.76c-.53,0-.58-.14-1.13-1.45-.62-1.45-1.03-1.82-1.33-2.09l.09-.12c1.77.35,3.33,1.54,3.33,2.62,0,.53-.35,1.04-.97,1.04Zm7.13,4.14h-9.18v3.15h9.18v-3.15Zm0,3.7h-9.18v3.15h9.18v-3.15Zm0,3.7h-9.18v3.24h9.18v-3.24Z"/>
      <path class="cls-1" d="m45,71.83c-.57,0-1.68.02-2.69.21l-.46-.9c1.56.14,3.24.14,3.54.14h1.06v-3.38h-1.45c-1.1,0-1.54.07-1.91.14l-.3-.8c1.03.09,2.05.12,2.51.12h1.15c0-.9-.02-2.46-.05-2.69-.05-.35-.16-.62-.25-.92l2.25.69c.18.04.32.14.32.32,0,.28-.16.37-.71.62-.09.41-.09.57-.11,1.98h.51l.51-.71c.14-.21.21-.3.34-.3.16,0,.25.07.44.25l.69.71c.14.14.23.23.23.34,0,.18-.14.25-.35.25h-2.39c0,.53-.02,2.9-.02,3.38h.46c1.24-1.65,3.47-4.8,3.66-6.32l1.77,1.29c.12.07.21.18.21.32,0,.32-.25.34-.83.41-1.26,1.77-2.23,3.1-3.24,4.3h1.45l.76-.94c.16-.19.23-.3.34-.3s.32.16.41.25l1.08.94c.12.09.21.21.21.37,0,.21-.18.23-.34.23h-4.35c-1.2,1.43-1.98,2.25-2.67,2.92l.3.14h3.15l.6-.67c.09-.12.18-.21.32-.21.09,0,.18.05.34.16l1.08.74c.28.18.32.3.32.41,0,.23-.14.32-.83.71-.02.85-.05,2.51.02,4.83.02.34.11,1.82.11,2.12,0,.78-.8.94-1.2.94-.55,0-.53-.25-.51-1.08h-3.63c.02.78.05,1.5-1.2,1.5-.41,0-.53-.21-.53-.55,0-.18.12-1.47.12-1.75.02-.46.21-4.14.14-6.07-1.82,1.52-3.38,2.35-4.18,2.76l-.16-.16c.76-.58,2.12-1.61,4.3-3.84-.02-.21-.05-.51-.09-.8l.55.3c.8-.85,1.22-1.33,2.07-2.39h-2.87Zm1.84,3.61v3.11h3.68v-3.11h-3.68Zm0,3.66v3.2h3.68v-3.2h-3.68Zm12.83-13.57l.53-.46s.16-.16.3-.16c.12,0,.28.18.34.23l1.31,1.24c.07.07.21.23.21.39,0,.32-.37.46-1.08.57-1.26,1.75-3.38,4.74-3.5,4.88.97.53,4.65,2.62,4.65,6.3,0,2.21-1.33,3.4-3.54,3.68-.25-1.43-1.13-2.05-1.66-2.37l.07-.14c1.01.23,1.63.3,2.07.3,1.36,0,1.36-1.33,1.36-1.59,0-2.05-1.03-4.12-3.43-6.07.9-1.93,2.05-5.08,2.39-6.25h-3.27c-.07,5.01-.09,11.89.12,16.85,0,.14.02.41.02.69.02,1.1-1.17,1.1-1.26,1.1-.39,0-.57-.16-.57-.62,0-.55.09-1.47.09-2.02.09-3.91.14-11.66.14-11.89,0-1.88,0-4.05-.39-5.59l2.09.92h3.01Z"/>
      <path class="cls-1" d="m84.97,67.58h-16.35c-.23,0-1.66,0-2.71.21l-.46-.92c1.59.14,3.33.16,3.54.16h5.61c.02-.92.05-2.16-.51-3.45l2.55.78c.12.05.35.14.35.34,0,.3-.6.53-.74.57,0,.28-.02,1.5-.02,1.75h5.66l1.03-1.24c.14-.18.28-.3.37-.3.12,0,.32.16.41.25l1.36,1.22c.16.16.25.25.25.37,0,.21-.21.25-.34.25Zm-1.06,8.67c-.05.9.09,4.81.09,5.61,0,.71,0,2.3-2.81,2.9-.12-1.17-1.45-2-2.07-2.28v-.16c1.31.11,2.46.11,2.55.11.74,0,.74-.3.74-1.33,0-.28-.05-4.39-.09-5.29h-13.8c-.02.85-.02,1.08-.02,1.52,0,.9.07,4.76.07,5.54,0,.74,0,1.63-1.17,1.63-.48,0-.67-.25-.67-.69,0-.23.23-3.98.23-4.48,0-3.63,0-3.96-.23-5.15l2.05,1.08h13.2l.71-.78c.09-.12.21-.23.34-.23.12,0,.28.12.37.18l1.03.78c.18.14.23.23.23.32,0,.19-.07.25-.76.71Zm-3.31-6.07c0,.46.12,2.48.12,2.9,0,.55-.6.92-1.13.92s-.6-.37-.53-.99h-7.75c-.02.51-.05,1.22-1.24,1.22-.44,0-.46-.28-.46-.46,0-.14.05-.8.05-.94.02-.44.05-1.04.05-1.82s-.05-2.05-.12-2.76l1.84.9h7.5l.53-.6c.07-.07.21-.18.32-.18s.21.07.34.16l1.03.78c.09.07.16.16.16.28,0,.16-.09.28-.71.6Zm-1.38,8.07c0,.44.09,2.39.09,2.78,0,.55-.51.97-1.08.97-.53,0-.53-.28-.53-.9h-4.97c.05.53.09,1.29-.99,1.29-.57,0-.6-.32-.6-.55,0-.12.11-2.46.11-2.94,0-.78-.02-1.56-.21-2.35l1.84.97h4.62l.55-.64c.09-.12.18-.23.3-.23s.23.09.32.16l.9.69c.12.09.18.21.18.3,0,.18-.18.28-.55.46Zm-.14-8.55h-7.77v2.76h7.77v-2.76Zm-1.38,8.37h-4.97v2.48h4.97v-2.48Z"/>
      <path class="cls-1" d="m107.6,84.02c-1.38,0-7.4-.02-8.62-.09-2.87-.16-5.01-.8-6.21-3.17-.57.48-2.23,2.23-2.69,2.8-.05.51-.11.69-.34.69-.14,0-.21-.09-.28-.19l-1.4-1.98c.55,0,.76-.02.97-.07.18-.05,1.15-.37,2.71-1.13v-6.6h-.39c-.57,0-1.68.02-2.71.21l-.46-.9c1.2.09,1.7.12,3.2.14l.69-.67c.14-.12.25-.23.39-.23s.21.09.32.18l1.01.78c.12.09.23.21.23.3,0,.21-.09.3-.76.85v4.83c0,2.76,4,2.76,5.08,2.76,2.48,0,8.9-.23,10.83-.99l.02.09c-.97.85-1.24,1.17-1.59,2.37Zm-14.72-15.15c-.62,0-.78-.39-1.1-1.24-.34-.94-.87-2.02-1.66-2.78l.05-.18c1.63.51,3.63,1.59,3.63,3.2,0,.55-.37,1.01-.92,1.01Zm14.95-1.49h-6v2.51h2.78l.64-.55c.09-.09.25-.21.34-.21.12,0,.21.04.3.12l.99.78c.07.04.16.16.16.25,0,.18-.16.32-.64.71,0,.25.05,1.4.05,1.63s.09,1.38.09,1.49c0,.9-1.03.9-1.1.9-.55,0-.53-.46-.53-.8h-3.08l.02,1.24c2.21.64,6.16,1.91,6.16,3.73,0,.51-.37.92-.87.92-.46,0-.74-.35-.97-.64-1.77-2.23-3.84-3.43-4.32-3.7.02.85.09,4.65.09,5.4,0,.55-.74.74-1.13.74-.57,0-.57-.39-.57-.55s.05-.9.05-1.03c.05-.76.02-4.07.05-4.74-1.49,1.82-4.07,3.93-5.86,4.48l-.05-.18c2.09-1.63,4.02-4,5.08-5.66h-2.39c.02.87-.76.99-1.17.99-.46,0-.53-.37-.53-.67,0-.25.09-2.3.09-2.71,0-1.75-.05-2.09-.14-2.8l1.86.87h3.08l-.05-2.51h-2.64c-.57,0-1.66.02-2.71.21l-.46-.92c1.47.12,2.9.16,3.54.16h2.28c-.09-2.23-.09-2.48-.32-3.24l2.3.69c.14.05.32.12.32.28,0,.23-.18.37-.74.76v1.52h3.36l.85-.92c.14-.14.25-.28.37-.28.14,0,.32.16.44.25l1.1.9c.09.09.23.21.23.37,0,.21-.21.23-.34.23Zm-7.52,3.06h-3.22v3.22h3.24c0-.23-.02-2.51-.02-3.22Zm4.6,0h-3.08v3.22h3.08v-3.22Z"/>
      <path class="cls-1" d="m111.79,82.22h1.26c1.2,0,1.61-.46,1.61-1.4v-12.44c0-.71-.67-.83-1.1-.83h-1.75v-.71h.41c1.77,0,3.47-.8,3.75-.96.16-.09.23-.14.32-.14.21,0,.25.14.25.32v14.76c0,.99.48,1.4,1.61,1.4h1.26v.74h-7.63v-.74Z"/>
      <path class="cls-1" d="m143.02,72.91h-11.41c-.6,1.1-1.26,2.62-1.56,3.31h6.44l.83-.71c.12-.09.23-.19.34-.19s.25.14.37.25l1.15,1.06c.09.09.21.23.21.37,0,.3-.44.41-1.15.62-1.03,4.8-1.56,7.34-5.93,7.24-.28-1.54-1.7-2.32-2.3-2.62l.02-.14c2.02.53,3.82.6,3.89.6,1.15,0,1.86-.76,2.71-5.93h-6.81c-.32.74-.94,2.16-1.26,2.62-.18.25-.48.39-.9.39-.39,0-.9-.21-.9-.58,0-.14.07-.34.14-.46,1.38-2.62,1.54-2.94,2.87-5.84h-4.3c-.62,0-1.7.02-2.71.21l-.46-.9c1.82.14,3.13.14,3.54.14h14.05l1.03-1.27c.11-.14.23-.28.37-.28.12,0,.3.14.41.23l1.43,1.29c.11.09.23.21.23.35,0,.23-.23.23-.35.23Zm-4.71-6.99c0,.9.02,3.17.02,4.02,0,.32,0,.94-.99.94-.74,0-.78-.34-.71-1.13h-7.96c0,.58-.02,1.29-1.13,1.29-.37,0-.62-.28-.62-.6,0-.16.09-.9.09-1.06.05-.8.12-1.89.12-3.01,0-1.2-.07-1.68-.28-2.6l2.14,1.01h7.45l.46-.55c.09-.12.23-.25.32-.25s.28.12.37.18l1.1.67c.14.09.25.25.25.39s-.16.32-.64.69Zm-1.66-.57h-7.96v3.86h7.96v-3.86Z"/>
      <path class="cls-1" d="m152.64,74.82c-1.59,2.16-3.79,4.21-4.67,5.01-.07.51-.14.85-.51.85-.16,0-.3-.16-.37-.25l-1.61-1.96c.76.02,1.43.05,7.04-3.77l.12.11Zm-3.59-8.48c-.39,0-1.59,0-2.71.21l-.44-.92c1.17.09,2.35.16,3.52.16h3.63l.74-.62c.18-.16.28-.21.39-.21s.32.16.41.23l.9.71c.12.09.23.23.23.39,0,.23-.07.28-.74.78-.02.64,0,12.23,0,13.63,0,.92,0,2.94-3.01,3.36-.28-.64-.71-1.52-2.16-2.3l.02-.18c.44.07.85.12,1.82.12,1.47,0,1.56-.05,1.61-.71.02-.25.09-10.65.09-10.74,0-1.63-.02-3.29-.05-3.91h-4.25Zm-1.93,2.92c2.35.41,3.56,1.86,3.56,2.78,0,.69-.53,1.06-.99,1.06-.67,0-.85-.44-1.33-1.56-.46-1.1-.78-1.59-1.31-2.19l.07-.09Zm15.36,5.5c-1.15,1.4-3.36,3.61-4.44,4.71-.07.28-.12.71-.41.71-.14,0-.25-.14-.34-.25l-1.49-1.98c.92-.05,1.86-.12,6.58-3.31l.12.12Zm-2.94-8.35c-.37,0-1.59,0-2.69.21l-.46-.92c1.17.09,2.35.16,3.54.16h2.94l.58-.64c.07-.09.23-.16.37-.16s.25.09.35.16l.99.76c.14.09.18.18.18.32,0,.21-.14.32-.71.8v3.4c0,1.66.09,8.92.09,10.42,0,1.2,0,2.58-3.04,3.38-.12-.44-.32-1.13-2.12-2.39l.02-.12c.51.02,1.7.09,2.48.09s.94-.21.94-.99c0-2.3.02-12.56,0-14.49h-3.47Zm-2.37,2.55c1.61.35,3.75,1.24,3.75,2.71,0,.64-.48,1.06-.99,1.06-.57,0-.71-.23-1.31-1.47-.21-.39-.74-1.36-1.47-2.19l.02-.12Z"/>
      <path class="cls-1" d="m184.84,66.19l.64-.6c.14-.12.21-.25.34-.25s.23.09.34.16l1.24.92c.14.12.25.21.25.39,0,.32-.76.67-.97.76-.07,2.25-.02,8.85.09,12.6,0,.34.14,1.98.14,2.3,0,.94-.8,1.2-1.31,1.2-.74,0-.69-.41-.64-1.33h-13.02c0,.14,0,.83-.02.92-.16.53-.85.71-1.24.71-.32,0-.69-.14-.69-.64,0-.28.07-1.45.07-1.7.09-3.33.16-6.67.16-9.98,0-4.51-.11-5.31-.32-6.65l2.18,1.2h12.74Zm-12.88.55v7.13h5.63v-7.13h-5.63Zm0,7.68v7.36h5.63v-7.36h-5.63Zm13.02-.55v-7.13h-5.79v7.13h5.79Zm0,7.91v-7.36h-5.79v7.36h5.79Z"/>
      <path class="cls-1" d="m190.55,83.53c1.29-3.15,1.68-6.76,1.68-7.06,0-.25-.02-.53-.07-.78l2.02.76c.09.05.25.12.25.3,0,.21-.07.25-.6.62-.48,1.47-1.5,4.39-3.13,6.23l-.16-.07Zm9.15-15.89c.09.07.16.16.16.32,0,.28-.23.35-.97.51-.78,1.06-2,2.67-4.05,4.97.11-.02,1.68-.07,2.87-.18-.16-.39-.44-.97-.83-1.63l.11-.16c1.24.53,2.81,1.54,2.81,2.74,0,.53-.32,1.03-.92,1.03s-.62-.18-1.06-1.65c-.35.12-.74.23-1.63.48.02,3.17,0,4.81.05,6.76,0,.41.07,2.19.07,2.55,0,.35,0,1.27-1.04,1.27-.64,0-.64-.53-.64-.71,0-1.06.18-8,.21-9.52-.58.14-1.31.32-2.94.64-.32.35-.35.39-.53.39-.16,0-.28-.16-.32-.32l-.48-1.96c.51.14,1.1.34,2.14.34.14,0,1.38-.04,1.56-.07,1.52-2.25,3.47-5.68,3.45-7.08l1.98,1.29Zm-8.25-.23c.48.05,1.38.14,2.39.74,0-.02,1.15-3.04.99-4.51l2.21,1.15c.14.07.23.18.23.3,0,.23-.21.32-1.01.64-.83,1.13-1.13,1.47-2.09,2.62.3.23,1.01.76,1.01,1.63,0,.62-.41,1.06-.87,1.06-.57,0-.78-.48-.94-.83-.25-.6-.87-1.72-1.98-2.64l.07-.16Zm5.31,8.88c1.54.55,2.71,1.63,2.71,2.58,0,.53-.3.99-.87.99-.64,0-.76-.37-1.1-1.61-.18-.64-.46-1.36-.87-1.82l.14-.14Zm3.56.39c-.57,0-.97.05-1.15.09l-.32-.74c.85.07,1.54.09,1.75.09h.71l.44-.53s.16-.18.3-.18c.09,0,.25.11.34.21l.92.87c.09.09.25.23.25.39,0,.18-.07.28-.76.53-1.1,2.41-2.81,4.62-5.38,5.89l-.05-.14c2.67-2.55,3.54-5.15,3.98-6.48h-1.03Zm4.78-3.01l.41.14c.16.05.51.19.51.41,0,.28-.41.51-.6.6,0,.85.9,2.51,1.33,3.15,1.31-1.2,2.12-2.18,2.48-3.13l1.59,1.59s.11.18.11.3c0,.05-.02.3-.37.3-.07,0-.37-.02-.6-.05-1.1.51-1.95.83-3.08,1.22,1.33,1.89,3.31,3.22,5.56,3.75v.18c-1.61.39-1.93.9-2.32,1.47-2.32-1.77-3.86-4.02-4.67-6.83,0,.85.14,4.6.14,5.36,0,.55,0,2.14-2.3,2.55-.25-.73-.51-1.45-2.37-2.23l.02-.18c.37.05,1.91.14,2.21.14.92,0,.94-.19.94-.88v-6.21c0-.78,0-1.26-.07-1.65h-1.84c.02.62-.37.94-.92.94-.51,0-.74-.18-.74-.6,0-.32.11-3.33.11-3.96,0-1.22-.02-3.52-.21-4.58l1.86.99h1.38c.09-.39.21-1.08.21-1.91,0-.41-.02-.6-.12-1.12l2.16.69c.18.07.39.16.39.39,0,.3-.23.37-.83.48-.46.62-.78.97-1.24,1.47h3.13l.62-.71c.07-.09.28-.25.39-.25s.25.09.34.16l1.08.8c.14.09.3.25.3.39,0,.21-.09.25-.85.8,0,.94.21,5.38.21,5.89,0,.69-.46,1.01-1.08,1.01s-.62-.37-.6-.9h-2.71Zm-2.92-6.65v2.76h5.63v-2.76h-5.63Zm5.63,6.09v-2.78h-5.63v2.78h5.63Z"/>
      <path class="cls-1" d="m22.55,101.63v27.44h-1.33v-28.8h10.51v1.36h-9.18Z"/>
      <path class="cls-1" d="m45.08,115.36c-2.18,2.97-5.22,5.79-6.42,6.9-.1.7-.19,1.17-.7,1.17-.22,0-.41-.22-.51-.35l-2.22-2.69c1.04.03,1.96.06,9.68-5.19l.16.16Zm-4.94-11.68c-.54,0-2.18,0-3.73.29l-.6-1.27c1.61.12,3.23.22,4.84.22h5l1.01-.85c.25-.22.38-.29.54-.29s.44.22.57.32l1.23.98c.16.13.32.32.32.54,0,.32-.09.38-1.01,1.08-.03.89,0,16.84,0,18.77,0,1.27,0,4.05-4.15,4.62-.38-.88-.98-2.09-2.97-3.16l.03-.25c.6.09,1.17.16,2.5.16,2.03,0,2.15-.06,2.21-.98.03-.35.13-14.65.13-14.78,0-2.25-.03-4.53-.06-5.38h-5.85Zm-2.66,4.02c3.23.57,4.91,2.56,4.91,3.83,0,.95-.73,1.46-1.36,1.46-.92,0-1.17-.6-1.84-2.15-.63-1.52-1.08-2.18-1.8-3.01l.09-.12Zm21.14,7.56c-1.58,1.93-4.62,4.97-6.11,6.49-.09.38-.16.98-.57.98-.19,0-.35-.19-.47-.35l-2.06-2.72c1.27-.06,2.56-.16,9.05-4.56l.16.16Zm-4.05-11.49c-.51,0-2.18,0-3.7.29l-.63-1.27c1.61.13,3.23.22,4.87.22h4.05l.79-.89c.1-.13.32-.22.51-.22s.35.12.48.22l1.36,1.05c.19.12.25.25.25.44,0,.29-.19.44-.98,1.11v4.68c0,2.28.13,12.28.13,14.34,0,1.64,0,3.54-4.18,4.65-.16-.6-.44-1.55-2.91-3.29l.03-.16c.7.03,2.34.13,3.42.13s1.3-.29,1.3-1.36c0-3.16.03-17.28,0-19.94h-4.78Zm-3.26,3.51c2.21.47,5.16,1.71,5.16,3.73,0,.89-.66,1.46-1.36,1.46-.79,0-.98-.32-1.8-2.03-.29-.54-1.01-1.87-2.03-3.01l.03-.16Z"/>
      <path class="cls-1" d="m89.38,103.49l.89-.82c.19-.16.28-.35.47-.35s.32.13.47.22l1.71,1.27c.19.16.35.29.35.54,0,.44-1.04.92-1.33,1.04-.1,3.1-.03,12.18.13,17.34,0,.47.19,2.72.19,3.16,0,1.3-1.11,1.65-1.8,1.65-1.01,0-.95-.57-.89-1.84h-17.91c0,.19,0,1.14-.03,1.27-.22.73-1.17.98-1.71.98-.44,0-.95-.19-.95-.89,0-.38.1-1.99.1-2.34.13-4.59.22-9.18.22-13.73,0-6.2-.16-7.31-.44-9.15l3.01,1.65h17.53Zm-17.72.76v9.81h7.75v-9.81h-7.75Zm0,10.57v10.13h7.75v-10.13h-7.75Zm17.91-.76v-9.81h-7.98v9.81h7.98Zm0,10.88v-10.13h-7.98v10.13h7.98Z"/>
      <path class="cls-1" d="m97.79,128.81v-1.36h9.18v-27.44h1.33v28.8h-10.51Z"/>
      <path class="cls-1" d="m138.58,116.97c-.03,2.15.06,5.13.13,7.31,0,.32.1,1.74.1,2.03,0,1.04-1.01,1.36-1.65,1.36-.95,0-.95-.22-.89-2.31h-18.67c0,.16.03,1.39,0,1.65-.13,1.11-1.39,1.2-1.65,1.2-.54,0-.92-.19-.92-.76,0-.22.06-1.14.06-1.3.06-2.44.1-4.97.1-7.4,0-2.15-.06-2.79-.44-4.18l3.32.95c.25.06.51.16.51.44,0,.35-.48.63-1.04.98-.1,2.72,0,6.55.03,7.66h8.16c0-2.66,0-9.68-.03-11.87h-6.2c.03,1.27-.95,1.46-1.58,1.46-.85,0-.85-.47-.85-.73,0-1.04.09-5.73.09-6.68,0-2.12,0-2.75-.51-4.56l3.32,1.14c.19.06.48.25.48.47,0,.44-.66.79-.98.95-.06,1.14-.06,1.74.03,7.18h6.2c0-1.2-.06-6.46-.06-7.53-.03-1.99-.22-2.88-.7-4.3l3.67,1.23c.28.1.47.29.47.41,0,.44-.57.73-1.04.98-.06,2.06-.06,2.28-.06,4.15v5.06h6.49c.1-2.37.22-7.12-.44-9.27l3.39,1.07c.28.1.51.22.51.48,0,.28-.16.44-1.08.92-.06,1.8-.03,4.05.03,5.86,0,.29.03,1.42.03,1.65,0,1.04-1.11,1.3-1.68,1.3-.92,0-.89-.44-.82-1.23h-6.42c-.03.7,0,10.29,0,11.87h8.29c.06-2.66.09-3.92.09-4.4,0-3.86-.25-4.62-.54-5.54l3.35.98c.22.06.44.22.44.41,0,.38-.44.63-1.04.92Z"/>
      <path class="cls-1" d="m169.18,127.99c-4.46-2.91-7.98-7.06-9.91-12.03-.48-1.23-.73-2.15-.89-2.69-1.74,4.81-4.56,9.24-8.73,12.22-2.72,1.93-5.13,2.66-6.17,2.97l-.09-.25c9.62-5.13,13.32-15.76,13.16-19.62l.95.16c-.35-2.75-.32-4.24-.32-5.66h-2.88c-.57,0-2.18,0-3.73.29l-.6-1.23c1.96.13,3.92.19,4.84.19h1.8l1.14-1.11c.19-.19.35-.32.54-.32.16,0,.38.13.6.29l1.8,1.33c.25.19.35.32.35.51,0,.51-1.77,1.2-2.72,1.55-.47,10.7,7.12,18.83,14.24,20.79v.29c-.73.13-2.28.47-3.39,2.34Z"/>
      <path class="cls-1" d="m199.93,106.53c.03,1.62-.03,8.89.03,10.16.03,1.04.28,6.27.28,7.72,0,.76,0,2.12-1.71,2.12-.28,0-.95-.06-.95-.79,0-.19.06-1.36.06-1.61h-17.82c.03,1.42.03,1.93-.09,2.18-.25.6-1.11.86-1.71.86-.85,0-.89-.51-.89-.86,0-.32.09-1.71.09-1.99.16-4.14.29-9.75.29-14.62,0-4.14-.13-5.06-.51-6.96l3.39,1.9h16.8l.98-1.01c.28-.28.38-.44.54-.44s.38.16.57.32l1.74,1.36c.19.16.38.35.38.54,0,.29-.7.7-1.49,1.14Zm-2.28-1.14h-17.82v17.97h17.82v-17.97Z"/>
      <path class="cls-1" d="m216.54,114.58c-.51.22-2.23.63-4.47.99-.06.77-.08,2.06-.06,2.87.4-.1,2.12-.67,2.47-.79.14-.04.24-.06.36-.06.36,0,1.13.22,1.13.71,0,.3-.22.4-.42.47-.24.1-1.8.47-3.52.79.08,2.02.18,3.07.43,4.31,1.86.34,4.15,1.4,4.15,2.47,0,.26-.14.73-.61.73-.24,0-.3-.04-.97-.52-1.09-.77-2.1-1.17-2.49-1.32-.14,1.86-1.52,2.53-3.38,2.53-2.04,0-3.44-1.07-3.44-2.1,0-1.6,2.33-2.1,4.29-2.1.49,0,.81.02,1.15.06-.22-1.7-.26-3.6-.26-3.9-.91.1-1.88.18-2.81.18-1.11,0-2.04-.2-2.04-.95,0-.41.49-1.01,1.29-1.11-.2.26-.34.46-.34.69,0,.34.4.36,1.01.36,1.36,0,2.41-.18,2.87-.24,0-.99,0-1.35.06-2.95-1.62.24-3.05.28-3.54.28-1.64,0-2.43-.47-2.93-1.56.71.3,1.36.57,2.75.57.49,0,1.82-.1,3.76-.39,0-.28.04-1.54.04-1.68,0-.89-.2-1.11-1.52-1.6.22-.2.47-.46,1.17-.46.93,0,2.06.63,2.06,1.29,0,.24-.02.32-.28,1.05-.16.45-.2.87-.24,1.15.91-.22,2.06-.61,3.09-.97.12-.04.26-.08.4-.08.4,0,1.21.36,1.21.79,0,.2-.1.38-.36.47Zm-7.36,10.01c-1.46,0-2.77.39-2.77,1.15,0,.4.61.95,2.17.95.63,0,1.42-.14,1.94-.47.63-.39.63-1.03.63-1.38-.28-.1-.71-.24-1.98-.24Z"/>
      <path class="cls-1" d="m233.66,114.18c-2.53,0-3.28,0-4.61.79-1.84,1.09-3.34,3.64-3.34,5.89,0,3.3,3.48,4.07,5.26,4.47.3.06,1.13.24,1.13,1.09,0,.51-.49.55-.75.55-2.04,0-6.61-1.5-6.61-5.85,0-.85.16-2.55,1.62-4.43.55-.71,1.03-1.13,2.73-2.47-2.1.28-6.33,1.74-7,2.12-.85.49-.95.53-1.27.53-.49,0-1.44-.59-1.44-1.74,0-.51.14-.77.28-1.01.38.59.67,1.05,1.54,1.05.4,0,.91-.1,2.91-.57,2.35-.57,6.15-1.42,8.5-2,.2-.04.47-.1.63-.1.3,0,1.58.38,1.58,1.05,0,.63-.61.63-1.17.63Zm-.55,5.02c-.34,0-.4-.08-.87-.91-.4-.69-.91-1.23-1.86-2.18,1.33.28,3.26,1.15,3.26,2.39,0,.34-.12.69-.53.69Zm2.31-.91c-.3,0-.36-.1-.93-.97-.47-.69-1.36-1.42-2.02-1.9,1.27.12,3.48.93,3.48,2.23,0,.55-.42.63-.53.63Z"/>
    </g>
    <g>
      <path class="cls-1" d="m29.15,235.5h-4c1.26.8,1.89,1.2,1.89,2.05,0,.48-.3,1.01-.87,1.01-.64,0-.69-.34-.85-1.36-.16-1.01-.41-1.52-.51-1.7h-1.01c-1.06,1.49-2.07,2.71-4.05,3.98l-.09-.12c1.43-1.66,3.43-5.01,4-6.6.07-.18.16-.57.14-1.24l2.12,1.1c.16.09.21.18.21.3,0,.23-.35.34-.92.53-.3.44-.9,1.31-1.01,1.49h2.58l.69-.85c.12-.14.25-.3.34-.3.12,0,.25.12.44.25l1.03.85c.12.09.23.23.23.34,0,.21-.21.25-.34.25Zm9.22,10.35c-.64,3.01-.97,4.62-4.16,4.99-.05-.87-.83-1.77-1.75-2.44l.02-.14c.92.18,1.95.39,2.6.39.71,0,1.36-.21,1.72-3.36h-6.69c.02.81.07,4.74.09,5.63,0,.12.05.78.05.94,0,.67-.6.97-1.13.97-.3,0-.62-.09-.62-.69,0-1.13.12-4.94.14-6.14-2.28,2.74-5.22,4.83-8.6,6l-.05-.18c1.54-.83,4.92-3.54,7.29-6.53h-4.55c-.28,1.06-.39,1.47-1.17,1.47-.53,0-.8-.18-.8-.55,0-.07.25-.78.41-1.2.85-2.39.9-3.04.97-4.35l1.86,1.06h4.69c0-.21-.02-1.91-.02-2.28h-3.47c-.18,0-1.63,0-2.71.23l-.46-.92c1.13.09,2.41.14,3.54.14h9.31l.62-.6c.07-.07.16-.14.25-.14.11,0,.23.07.32.14l1.08.83c.07.07.18.14.18.28,0,.21-.25.39-.74.71,0,.35.09,1.93.09,2.16,0,.78-.92.87-1.08.87-.6,0-.57-.51-.55-.87h-4.94v2.46h6.53l.8-.83c.09-.09.21-.23.3-.23s.25.14.34.23l1.06.97c.09.07.16.18.16.28,0,.3-.37.41-.94.69Zm-9.68-3.56h-5.15c-.23.71-.25.9-.64,2.46h5.79v-2.46Zm10.55-6.55h-6.69c1.72.67,2.39.94,2.39,1.91,0,.62-.48.85-.83.85-.57,0-.67-.35-1.03-1.36-.14-.41-.53-1.01-.9-1.4h-.87c-.74,1.04-1.61,2.07-2.69,2.85l-.12-.09c1.45-2.44,2.78-4.88,2.71-6.88l2.23,1.01c.14.07.21.16.21.28,0,.23-.32.39-.99.6-.23.44-.44.83-.99,1.68h4.85l.76-1.08c.09-.14.21-.28.35-.28.16,0,.32.14.44.23l1.29,1.08c.11.09.23.21.23.34,0,.21-.18.25-.35.25Zm-4.16,3.73h-4.97v2.28h4.97v-2.28Z"/>
      <path class="cls-1" d="m57.92,249.75l1.36-1.59c.12-.12.23-.3.37-.3s.3.16.41.25l1.79,1.63c.16.14.23.21.23.34,0,.21-.18.25-.35.25h-16.17c-.39,0-1.61,0-2.71.21l-.46-.97c1.7.16,3.38.16,3.54.16h11.98Zm-.39-15.2l1.08-1.33c.09-.09.23-.28.35-.28.14,0,.32.14.44.23l1.72,1.38c.11.09.23.18.23.34,0,.21-.18.25-.35.25h-14.53c-.39,0-1.61,0-2.71.21l-.46-.97c1.17.12,2.35.16,3.54.16h10.69Zm-1.86,7.22l1.2-1.36c.12-.14.25-.28.37-.28.09,0,.23.07.44.23l1.82,1.38c.09.07.23.21.23.37,0,.21-.21.23-.35.23h-11.7c-.41,0-1.61,0-2.71.21l-.46-.94c1.68.14,3.13.16,3.54.16h7.63Z"/>
      <path class="cls-1" d="m72.14,247.5c-1.29,1.33-3.89,3.66-7.36,4.76l-.07-.16c2.07-1.26,5.61-4.64,6.23-6.69l1.91,1.45c.14.09.23.21.23.34,0,.3-.23.32-.94.3Zm13.31-11.91h-17.29c-.58,0-1.68.02-2.69.23l-.46-.92c1.56.14,3.2.14,3.54.14h5.98c.05-1.96-.28-2.83-.48-3.4l2.55.57c.16.05.39.12.39.3,0,.25-.21.37-.78.69-.02.76-.02.87-.02,1.84h5.91l1.06-1.13c.18-.21.23-.3.34-.3s.28.11.48.25l1.59,1.13c.07.05.23.21.23.37,0,.21-.21.23-.34.23Zm-4.12,3.86c0,.48,0,1.06.02,2.12.02.41.14,2.18.14,2.53,0,.71-.67,1.08-1.13,1.08-.64,0-.64-.32-.6-1.15h-3.45c0,.99.07,5.33.07,6.23,0,.83,0,2.18-2.41,2.74-.18-1.5-2.16-2.37-2.58-2.55l.02-.16c1.4.21,2,.3,2.67.3s.69-.14.69-1.08v-5.47h-4.02c.05.64.09,1.45-1.1,1.45-.51,0-.62-.28-.62-.62,0-.09.02-.39.02-.51.02-.69.07-2.83.07-3.66,0-2.46-.02-2.67-.23-3.68l2.14,1.2h8.55l.69-.76c.09-.09.18-.18.3-.18s.21.07.32.16l1.08.87c.23.18.28.25.28.37,0,.3-.18.37-.92.78Zm-1.56-.69h-9.01v4.71h9.01v-4.71Zm3.68,12.79c-.62,0-.74-.21-1.7-1.61-.94-1.4-2-2.81-3.47-3.63l.05-.16c2.37.39,6,2.28,6,4.39,0,.39-.23,1.01-.87,1.01Z"/>
      <path class="cls-1" d="m90.63,241.5c-.46,0-.55-.14-1.22-1.33-.57-.99-.85-1.29-1.43-1.72v-.12c.85.12,1.82.25,2.44.62.8.46,1.15,1.15,1.15,1.56,0,.55-.41.99-.94.99Zm1.4,3.61c-.46,1.7-.6,2.23-.6,2.9,0,.62.16,1.31.32,1.89.21.71.37,1.33.37,1.56,0,.76-.62,1.2-1.22,1.2-1.1,0-1.1-1.08-1.1-1.29,0-.46.05-.67.18-1.22.05-.21.14-1.22.14-1.68,0-.48-.23-1.63-1.66-2.32v-.12c.34.02,1.24.09,1.68-.44.62-.74,3.15-6.78,3.61-8.05l.14.07c-.46,2.28-1.2,5.01-1.86,7.5Zm.76-9.75c-.69,0-.87-.41-1.4-1.54-.39-.87-1.03-1.5-1.31-1.72l.05-.12c1.72.28,3.56,1.1,3.56,2.41,0,.55-.39.97-.9.97Zm5.98,13.11c-2.58,2.18-3.86,3.04-6.16,3.86l-.02-.12c2.51-1.93,4.85-4.58,4.9-5.98l2.07,1.52c.14.09.18.18.18.32,0,.25-.3.37-.97.39Zm9.66-2.9h-12.51c-.41,0-1.59.02-2.71.23l-.44-.92c1.24.09,2.58.14,3.7.14,0-7.61,0-8.46-.05-9.73-.05-.92-.09-1.24-.18-1.89l1.98.92c.97-.16,5.43-1.2,6.25-2.55l1.75,1.56c.18.16.25.28.25.41,0,.16-.21.28-.44.28-.21,0-.53-.05-.97-.11-3.59.71-5.29.9-6.92.9,0,.55-.02,2.92-.02,3.4h6.83l.69-.99c.16-.21.25-.3.37-.3.14,0,.28.09.44.25l1.06.99c.16.14.23.28.23.39,0,.14-.14.21-.34.21h-3.89v6.25h2.18l.83-1.17c.12-.18.25-.28.37-.28s.25.12.41.25l1.24,1.17c.12.09.23.23.23.39,0,.11-.14.18-.34.18Zm-6.55-6.81h-3.75c0,1.06-.02,4.51-.02,6.25h3.77v-6.25Zm4.97,13.25c-.64,0-.97-.46-1.31-.94-.97-1.36-2-2.42-3.7-3.73l.05-.12c.87.23,2.87.81,4.07,1.54,1.68,1.04,1.84,1.96,1.84,2.21,0,.53-.34,1.03-.94,1.03Z"/>
      <path class="cls-1" d="m130.53,251.87c-.37.05-.46.07-.8.07-1.72,0-7.27,0-8.74-.16-3.73-.37-4.65-1.86-5.29-3.2-.58.74-1.59,2.14-2.39,3.22-.07.37-.11.62-.3.62-.14,0-.28-.16-.37-.28l-1.43-1.79c.32-.02.76-.05,1.38-.34.21-.09,1.29-.62,2.12-1.27v-6.48c-.62,0-1.95,0-3.04.21l-.46-.92c1.1.09,1.75.12,3.06.14l.87-.83c.18-.16.3-.21.41-.21s.21.05.41.21l.92.74c.11.09.18.21.18.32,0,.09-.05.21-.18.32-.09.09-.46.37-.62.51-.02.07-.05.41-.05.46v4.55c0,.07.02,1.91,2.64,2.35,1.03.18,2.05.28,4.09.28,2.97,0,5.96-.11,8.81-.99l.05.09c-1.04,1.33-1.15,1.72-1.29,2.39Zm-15.25-15.11c-.74,0-.9-.46-1.31-1.66-.41-1.24-.83-1.84-1.47-2.58l.07-.05c1.63.37,3.68,1.66,3.68,3.17,0,.6-.37,1.1-.97,1.1Zm15.77-.94h-6.65c-.53.87-.94,1.5-1.68,2.51h4.02l.62-.69c.18-.18.25-.25.37-.25s.28.09.44.23l.9.71c.16.12.28.28.28.41,0,.21-.16.34-.64.8-.07.8-.07,1.26-.07,1.68,0,1.49.07,3.47.11,5.61.02.14.05.87.05,1.04,0,.48-.18,1.08-1.06,1.08-.02,0-.6,0-.6-.51,0-.07.02-.39.02-.46h-6.67c.02.51.05.64-.18.94-.3.37-.71.41-.85.41-.34,0-.62-.23-.62-.67,0-.25.09-1.45.09-1.72.05-1.22.07-2.62.07-4.32s0-3.79-.28-5.13l1.98.83h1.47c.16-1.96.16-2.18.18-2.51h-2.3c-.51,0-1.7.02-2.71.23l-.46-.92c1.17.09,2.35.14,3.54.14h3.56c.41-.94,1.24-2.9,1.13-3.79l2.12.92c.23.09.3.18.3.34s-.11.28-.9.46c-.69.69-.94.92-2.21,2.07h3.68l.87-1.04c.18-.21.3-.3.41-.3s.25.07.46.25l1.31,1.06c.09.07.23.21.23.35,0,.18-.14.23-.35.23Zm-9.22-.78c-.53,0-.62-.23-1.08-1.29-.41-.9-.83-1.33-1.26-1.72l.05-.12c1.24.18,3.1.92,3.1,2.21,0,.46-.25.92-.8.92Zm5.36,3.84h-6.69v2.41h6.69v-2.41Zm0,2.97h-6.69v2.48h6.69v-2.48Zm0,3.04h-6.69v2.55h6.69v-2.55Z"/>
      <path class="cls-1" d="m140.52,233.29l.46-.44c.21-.21.3-.23.37-.23.09,0,.16.02.41.18l.9.6c.21.14.34.28.34.46,0,.23-.41.51-.85.76,0,.8.05,4.92.02,5.01-.16.6-.92.6-.94.6-.6,0-.57-.32-.57-.8h-.71v4.05h.46l.57-.87c.14-.21.28-.3.37-.3.11,0,.21.09.41.25l1.01.87c.14.12.23.21.23.34,0,.21-.21.25-.34.25h-2.71v4.76c2.53-.62,3.5-.92,4.32-1.17v.23c-2.21,1.15-2.64,1.31-8.32,3.4-.12.05-.21.12-.32.14-.39.62-.41.69-.62.69-.14,0-.3-.16-.35-.28l-1.01-2.16c.39.09.74.14,1.13.14.25,0,.37,0,.67-.05,0-5.5,0-6.46-.05-7.11-.05-.48-.14-.8-.3-1.33l2.09.53c.28.07.39.18.39.37s-.07.23-.67.62v6.65c.87-.18,1.15-.23,1.52-.32v-9.7h-1.38c.02.46.02.51-.05.62-.18.34-.97.53-1.1.53-.48,0-.48-.51-.48-.64s.05-.76.05-.87c.05-1.63.05-3.24.05-4.85,0-.18,0-1.26-.14-1.93l1.91,1.01h3.24Zm-3.47.55v5.04h3.63v-5.04h-3.63Zm13.31.94l.67-.58c.21-.18.28-.23.41-.23.09,0,.16.05.34.18l1.22,1.03c.12.09.21.23.21.44,0,.34-.14.37-1.4.55-1.08,2-2.28,3.43-2.51,3.7,1.68,1.5,3.93,2,6.16,2.28v.16c-.85.37-1.08.62-1.72,1.84-.9-.37-3.4-1.43-5.2-3.43-.71.78-1.95,1.98-3.56,2.97l1.75.74h4l.46-.55c.14-.18.23-.25.32-.25s.21.05.51.25l.92.62c.21.14.3.23.3.34,0,.14-.11.23-.71.69,0,.83.12,4.78.12,5.68,0,.44-.16,1.06-1.04,1.06-.62,0-.62-.21-.62-1.24h-4.6c.02.44.09,1.4-1.01,1.4-.62,0-.67-.51-.67-.71,0-.23.07-1.38.07-1.63.09-2.14.11-3.77.11-4.42,0-.51-.05-1.33-.09-1.89-1.13.64-1.82.92-2.41,1.13l-.07-.23c2.12-1.29,3.91-3.04,5.43-5.01-.69-1.04-1.13-1.95-1.59-3.63-1.1,1.77-2.41,3.43-4.09,4.64l-.14-.16c1.38-1.61,3.89-5.56,4.12-8.81l2.09,1.08c.18.09.3.21.3.34,0,.21-.64.41-.97.53-.35.67-.39.78-.55,1.1h3.45Zm.62,10.21h-4.6v5.5h4.6v-5.5Zm-4.39-9.66c-.07.11-.07.14-.11.21.41,1.1.97,2.23,1.84,3.33,1.22-1.7,1.61-2.67,1.98-3.54h-3.7Z"/>
      <path class="cls-1" d="m22.55,269.61v27.44h-1.33v-28.8h10.51v1.36h-9.18Z"/>
      <path class="cls-1" d="m63.02,294.87h-23.1c-.54,0-2.25.03-3.7.29l-.63-1.23c2.47.19,4.34.19,4.84.19h7.41v-12.12h-5.76c-.85,0-2.34.03-3.73.28l-.63-1.23c1.61.13,3.26.19,4.87.19h5.25v-9.53h-7.09c-.85,0-2.34.03-3.73.28l-.63-1.27c1.61.16,3.26.22,4.87.22h15.67l1.42-1.87c.16-.19.35-.41.51-.41.19,0,.38.19.57.35l1.9,1.87c.22.19.32.29.32.47,0,.35-.32.35-.47.35h-11.08v9.53h5.54l1.46-1.71c.19-.25.32-.41.51-.41s.38.16.6.38l1.77,1.68c.19.19.32.32.32.51,0,.32-.32.32-.48.32h-9.72v12.12h8.58l1.33-1.93c.13-.19.29-.44.51-.44.16,0,.38.19.57.35l2.12,1.96c.16.13.32.32.32.47,0,.35-.32.35-.47.35Zm-7.06-4.4c-.92,0-1.27-.89-1.42-1.33-1.08-2.75-1.96-3.61-2.69-4.3l.1-.19c1.39.38,5.32,1.39,5.32,4.3,0,.79-.54,1.52-1.3,1.52Z"/>
      <path class="cls-1" d="m73.46,271.83c.06,2.47.1,4.56.1,5.76,0,6.65-.1,15.19-6.61,18.48l-.13-.16c3.17-3.32,4.49-7.15,4.49-16.93,0-2.79-.06-6.93-.47-9.56l3.26.85c.41.1.63.32.63.57s-.22.57-1.27.98Zm8.45.47c-.03.92-.06,2.69-.06,5.44,0,3.99.25,10.35.25,14.34,0,1.55-1.42,1.55-1.68,1.55-.89,0-.92-.6-.92-1.01,0-.32.16-3.23.16-3.7.06-2.22.13-4.08.13-10.03,0-2.56,0-6.58-.48-8.8l3.07.79c.29.06.54.25.54.44,0,.28-.19.54-1.01.98Zm9.68-.73c-.1,4.3-.1,7.12-.1,8.96,0,2.18.22,11.93.22,13.92,0,.51,0,1.8-1.71,1.8-.98,0-.98-.73-.98-1.01,0-.63.13-3.35.16-3.92.09-3.7.13-7.41.13-11.08,0-5.41-.03-7.37-.19-8.92-.09-1.14-.22-1.58-.38-2.18l3.39,1.04c.35.09.54.29.54.47,0,.38-.32.6-1.08.92Z"/>
      <path class="cls-1" d="m98.36,296.8v-1.36h9.18v-27.44h1.33v28.8h-10.51Z"/>
      <path class="cls-1" d="m123.1,272.49h-1.52c-1.3,0-2.25.7-2.25,2.18v16.68c0,1.42.89,2.18,2.25,2.18h1.52v1.01h-10.03v-1.01h1.49c1.3,0,2.28-.7,2.28-2.18v-16.68c0-1.42-.89-2.18-2.28-2.18h-1.49v-1.04h10.03v1.04Z"/>
      <path class="cls-1" d="m128.7,293.32c.03,1.04-.85,1.84-1.84,1.84-1.04,0-1.84-.82-1.84-1.84s.79-1.84,1.84-1.84c.98,0,1.84.82,1.84,1.84Z"/>
      <path class="cls-1" d="m148.92,277.11c-1.17-1.77-3.45-5.22-7.69-5.22-5.06,0-7.56,5.16-7.56,10.67,0,6.14,2.97,11.14,8.29,11.14,4.49,0,6.71-4.11,7.53-5.73l.85.51c-1.23,2.44-3.45,6.68-9.34,6.68-6.68,0-9.94-5.41-9.94-11.65,0-7.41,4.59-12.66,9.94-12.66.79,0,1.71.09,2.66.38.25.06,1.74.47,1.93.47.66,0,1.52-.38,2.12-.76l2.25,5.7-1.04.47Z"/>
      <path class="cls-1" d="m156.23,293.32c.03,1.04-.85,1.84-1.84,1.84-1.04,0-1.84-.82-1.84-1.84s.79-1.84,1.84-1.84c.98,0,1.84.82,1.84,1.84Z"/>
      <path class="cls-1" d="m170.18,282.57c-.51.22-2.23.63-4.47.99-.06.77-.08,2.06-.06,2.87.4-.1,2.12-.67,2.47-.79.14-.04.24-.06.36-.06.36,0,1.13.22,1.13.71,0,.3-.22.4-.42.47-.24.1-1.8.47-3.52.79.08,2.02.18,3.07.43,4.31,1.86.34,4.15,1.4,4.15,2.47,0,.26-.14.73-.61.73-.24,0-.3-.04-.97-.51-1.09-.77-2.1-1.17-2.49-1.33-.14,1.86-1.52,2.53-3.38,2.53-2.04,0-3.44-1.07-3.44-2.1,0-1.6,2.33-2.1,4.29-2.1.49,0,.81.02,1.15.06-.22-1.7-.26-3.6-.26-3.9-.91.1-1.88.18-2.81.18-1.11,0-2.04-.2-2.04-.95,0-.42.49-1.01,1.29-1.11-.2.26-.34.45-.34.69,0,.34.4.36,1.01.36,1.36,0,2.41-.18,2.87-.24,0-.99,0-1.34.06-2.95-1.62.24-3.05.28-3.54.28-1.64,0-2.43-.47-2.93-1.56.71.3,1.36.57,2.75.57.49,0,1.82-.1,3.76-.4,0-.28.04-1.54.04-1.68,0-.89-.2-1.11-1.52-1.6.22-.2.47-.46,1.17-.46.93,0,2.06.63,2.06,1.29,0,.24-.02.32-.28,1.05-.16.45-.2.87-.24,1.15.91-.22,2.06-.61,3.09-.97.12-.04.26-.08.4-.08.4,0,1.21.36,1.21.79,0,.2-.1.38-.36.47Zm-7.36,10.01c-1.46,0-2.77.4-2.77,1.15,0,.4.61.95,2.17.95.63,0,1.42-.14,1.94-.47.63-.4.63-1.03.63-1.38-.28-.1-.71-.24-1.98-.24Z"/>
      <path class="cls-1" d="m187.31,282.17c-2.53,0-3.28,0-4.61.79-1.84,1.09-3.34,3.64-3.34,5.89,0,3.3,3.48,4.07,5.26,4.47.3.06,1.13.24,1.13,1.09,0,.51-.49.55-.75.55-2.04,0-6.61-1.5-6.61-5.85,0-.85.16-2.55,1.62-4.43.55-.71,1.03-1.13,2.73-2.47-2.1.28-6.33,1.74-7,2.12-.85.49-.95.53-1.27.53-.49,0-1.44-.59-1.44-1.74,0-.51.14-.77.28-1.01.38.59.67,1.05,1.54,1.05.4,0,.91-.1,2.91-.57,2.35-.57,6.15-1.42,8.5-2,.2-.04.47-.1.63-.1.3,0,1.58.38,1.58,1.05,0,.63-.61.63-1.17.63Zm-.55,5.02c-.34,0-.4-.08-.87-.91-.4-.69-.91-1.23-1.86-2.17,1.33.28,3.26,1.15,3.26,2.39,0,.34-.12.69-.53.69Zm2.31-.91c-.3,0-.36-.1-.93-.97-.47-.69-1.36-1.42-2.02-1.9,1.27.12,3.48.93,3.48,2.23,0,.55-.42.63-.53.63Z"/>
    </g>
    <g>
      <path class="cls-1" d="m30.42,588.78c2.07,2.41,5.75,4.64,9.89,4.83v.18c-1.36.34-2.07,1.26-2.46,2.09-.71-.23-5.84-2.87-7.84-6.99.02,1.04.05,5.56.09,6.48,0,.12.02.67.02.78,0,.81-.74,1.13-1.29,1.13-.48,0-.6-.34-.6-.64,0-.07,0-.25.02-.51.12-1.59.25-3.56.25-6.26-2.12,2.53-6.3,5.27-9.7,6.07l-.07-.19c3.47-1.4,8.25-6.23,8.71-6.99h-3.08c0,.78-.16,1.36-1.2,1.36-.48,0-.58-.23-.58-.51,0-.25.12-1.38.12-1.61.05-.76.07-2,.07-3.24,0-2.09-.07-2.83-.3-3.75l2.14.94h3.91c0-.53-.02-1.79-.05-2.37h-6.25c-.41,0-1.61,0-2.71.21l-.46-.92c1.7.14,3.2.16,3.54.16h5.86c-.07-1.4-.14-2.23-.46-2.99l2.39.62c.21.05.39.14.39.32,0,.25-.55.62-.76.76v1.29h6.25l.99-1.15c.16-.18.25-.3.37-.3s.25.12.41.25l1.4,1.15c.16.14.23.23.23.34,0,.21-.21.25-.34.25h-9.34v2.37h3.93l.76-.67s.18-.16.28-.16c.11,0,.25.09.32.16l1.03.83c.14.12.23.23.23.37,0,.21-.14.3-.74.67-.02.51-.02,1.17.05,2.87.02.32.14,2.78.14,2.99,0,.73-.67.96-1.17.96-.62,0-.6-.48-.55-1.22h-3.86Zm-6.07-6.25v2.48h4.16l.02-2.48h-4.19Zm4.16,5.7v-2.67h-4.16v2.67h4.16Zm5.77,0v-2.67h-4.28c0,.37-.02,2.25-.02,2.67h4.3Zm0-3.22v-2.48h-4.28v2.48h4.28Z"/>
      <path class="cls-1" d="m56.31,579.42l.83-.73c.12-.09.21-.21.3-.21.07,0,.25.16.39.28l1.15,1.01c.11.09.21.25.21.35,0,.37-.64.51-1.26.64-2.23,3.2-5.1,6.12-7.15,7.75h7.7l.9-.94c.09-.12.21-.23.35-.23s.25.12.37.21l.97.78c.16.14.32.28.32.48,0,.28-.44.55-.92.85,0,.67.02,2.44.05,2.96.05,1.06.12,3.08.12,3.17,0,.44,0,1.31-1.15,1.31-.67,0-.67-.34-.64-1.31h-8.62c.02.76-.07,1.49-1.2,1.49-.41,0-.64-.16-.64-.69,0-.34.14-1.79.14-2.09.05-1.08.05-1.95.05-4.44-1.89,1.15-3.7,2.09-6.58,2.74l-.09-.16c4.58-2.41,5.54-3.13,6.6-3.98-.07-.87-.07-.96-.14-1.33l1.08.58c4.44-3.86,6.44-7.24,6.76-7.93h-7.2c-.62.85-1.08,1.4-1.4,1.75,1.2.32,4.3,1.17,4.3,3.13,0,.57-.39.96-.9.96-.6,0-.78-.37-1.29-1.4-.44-.85-1.31-1.82-2.25-2.51-1.43,1.54-2.28,2.46-4.83,3.84l-.11-.16c4.55-4.23,6.53-8.44,6.67-9.75l1.95.99c.11.07.3.21.3.39,0,.25-.28.32-.85.46-.3.48-.62.96-1.17,1.75h6.92Zm-6.14,9.64v6.19h8.67v-6.19h-8.67Z"/>
      <path class="cls-1" d="m84.97,580.04h-16.35c-.23,0-1.66,0-2.71.21l-.46-.92c1.59.14,3.33.16,3.54.16h5.61c.02-.92.05-2.16-.51-3.45l2.55.78c.12.05.35.14.35.35,0,.3-.6.53-.74.57,0,.28-.02,1.49-.02,1.75h5.66l1.03-1.24c.14-.18.28-.3.37-.3.12,0,.32.16.41.25l1.36,1.22c.16.16.25.25.25.37,0,.21-.21.25-.34.25Zm-1.06,8.67c-.05.9.09,4.81.09,5.61,0,.71,0,2.3-2.81,2.9-.12-1.17-1.45-2-2.07-2.28v-.16c1.31.12,2.46.12,2.55.12.74,0,.74-.3.74-1.33,0-.28-.05-4.39-.09-5.29h-13.8c-.02.85-.02,1.08-.02,1.52,0,.9.07,4.76.07,5.54,0,.73,0,1.63-1.17,1.63-.48,0-.67-.25-.67-.69,0-.23.23-3.98.23-4.48,0-3.63,0-3.95-.23-5.15l2.05,1.08h13.2l.71-.78c.09-.12.21-.23.34-.23.12,0,.28.11.37.18l1.03.78c.18.14.23.23.23.32,0,.18-.07.25-.76.71Zm-3.31-6.07c0,.46.12,2.48.12,2.9,0,.55-.6.92-1.13.92s-.6-.37-.53-.99h-7.75c-.02.51-.05,1.22-1.24,1.22-.44,0-.46-.28-.46-.46,0-.14.05-.8.05-.94.02-.44.05-1.04.05-1.82s-.05-2.05-.12-2.76l1.84.9h7.5l.53-.6c.07-.07.21-.18.32-.18s.21.07.34.16l1.03.78c.09.07.16.16.16.28,0,.16-.09.28-.71.6Zm-1.38,8.07c0,.44.09,2.39.09,2.78,0,.55-.51.96-1.08.96-.53,0-.53-.28-.53-.9h-4.97c.05.53.09,1.29-.99,1.29-.57,0-.6-.32-.6-.55,0-.12.11-2.46.11-2.94,0-.78-.02-1.56-.21-2.35l1.84.96h4.62l.55-.64c.09-.12.18-.23.3-.23s.23.09.32.16l.9.69c.12.09.18.21.18.3,0,.18-.18.28-.55.46Zm-.14-8.55h-7.77v2.76h7.77v-2.76Zm-1.38,8.37h-4.97v2.48h4.97v-2.48Z"/>
      <path class="cls-1" d="m107.6,596.48c-1.38,0-7.4-.02-8.62-.09-2.87-.16-5.01-.8-6.21-3.17-.57.48-2.23,2.23-2.69,2.81-.05.51-.11.69-.34.69-.14,0-.21-.09-.28-.18l-1.4-1.98c.55,0,.76-.02.97-.07.18-.05,1.15-.37,2.71-1.13v-6.6h-.39c-.57,0-1.68.02-2.71.21l-.46-.9c1.2.09,1.7.12,3.2.14l.69-.67c.14-.12.25-.23.39-.23s.21.09.32.19l1.01.78c.12.09.23.21.23.3,0,.21-.09.3-.76.85v4.83c0,2.76,4,2.76,5.08,2.76,2.48,0,8.9-.23,10.83-.99l.02.09c-.97.85-1.24,1.17-1.59,2.37Zm-14.72-15.15c-.62,0-.78-.39-1.1-1.24-.34-.94-.87-2.02-1.66-2.78l.05-.18c1.63.51,3.63,1.59,3.63,3.2,0,.55-.37,1.01-.92,1.01Zm14.95-1.5h-6v2.51h2.78l.64-.55c.09-.09.25-.21.34-.21.12,0,.21.05.3.12l.99.78c.07.05.16.16.16.25,0,.18-.16.32-.64.71,0,.25.05,1.4.05,1.63s.09,1.38.09,1.49c0,.9-1.03.9-1.1.9-.55,0-.53-.46-.53-.8h-3.08l.02,1.24c2.21.64,6.16,1.91,6.16,3.72,0,.51-.37.92-.87.92-.46,0-.74-.35-.97-.64-1.77-2.23-3.84-3.43-4.32-3.7.02.85.09,4.64.09,5.4,0,.55-.74.73-1.13.73-.57,0-.57-.39-.57-.55s.05-.9.05-1.04c.05-.76.02-4.07.05-4.74-1.49,1.82-4.07,3.93-5.86,4.48l-.05-.19c2.09-1.63,4.02-4,5.08-5.66h-2.39c.02.87-.76.99-1.17.99-.46,0-.53-.37-.53-.67,0-.25.09-2.3.09-2.71,0-1.75-.05-2.09-.14-2.81l1.86.88h3.08l-.05-2.51h-2.64c-.57,0-1.66.02-2.71.21l-.46-.92c1.47.12,2.9.16,3.54.16h2.28c-.09-2.23-.09-2.48-.32-3.24l2.3.69c.14.05.32.12.32.28,0,.23-.18.37-.74.76v1.52h3.36l.85-.92c.14-.14.25-.28.37-.28.14,0,.32.16.44.25l1.1.9c.09.09.23.21.23.37,0,.21-.21.23-.34.23Zm-7.52,3.06h-3.22v3.22h3.24c0-.23-.02-2.51-.02-3.22Zm4.6,0h-3.08v3.22h3.08v-3.22Z"/>
      <path class="cls-1" d="m130.53,596.35c-.37.04-.46.07-.8.07-1.72,0-7.27,0-8.74-.16-3.73-.37-4.65-1.86-5.29-3.2-.58.74-1.59,2.14-2.39,3.22-.07.37-.11.62-.3.62-.14,0-.28-.16-.37-.28l-1.43-1.79c.32-.02.76-.05,1.38-.35.21-.09,1.29-.62,2.12-1.27v-6.48c-.62,0-1.95,0-3.04.21l-.46-.92c1.1.09,1.75.12,3.06.14l.87-.83c.18-.16.3-.21.41-.21s.21.05.41.21l.92.74c.11.09.18.21.18.32,0,.09-.05.21-.18.32-.09.09-.46.37-.62.51-.02.07-.05.41-.05.46v4.55c0,.07.02,1.91,2.64,2.35,1.03.18,2.05.28,4.09.28,2.97,0,5.96-.11,8.81-.99l.05.09c-1.04,1.33-1.15,1.72-1.29,2.39Zm-15.25-15.11c-.74,0-.9-.46-1.31-1.66-.41-1.24-.83-1.84-1.47-2.58l.07-.04c1.63.37,3.68,1.65,3.68,3.17,0,.6-.37,1.11-.97,1.11Zm15.77-.94h-6.65c-.53.87-.94,1.49-1.68,2.51h4.02l.62-.69c.18-.18.25-.25.37-.25s.28.09.44.23l.9.71c.16.12.28.28.28.41,0,.21-.16.35-.64.8-.07.8-.07,1.27-.07,1.68,0,1.49.07,3.47.11,5.61.02.14.05.88.05,1.04,0,.48-.18,1.08-1.06,1.08-.02,0-.6,0-.6-.51,0-.07.02-.39.02-.46h-6.67c.02.51.05.64-.18.94-.3.37-.71.41-.85.41-.34,0-.62-.23-.62-.67,0-.25.09-1.45.09-1.72.05-1.22.07-2.62.07-4.32s0-3.79-.28-5.13l1.98.83h1.47c.16-1.96.16-2.18.18-2.51h-2.3c-.51,0-1.7.02-2.71.23l-.46-.92c1.17.09,2.35.14,3.54.14h3.56c.41-.94,1.24-2.9,1.13-3.79l2.12.92c.23.09.3.18.3.34s-.11.28-.9.46c-.69.69-.94.92-2.21,2.07h3.68l.87-1.04c.18-.21.3-.3.41-.3s.25.07.46.25l1.31,1.06c.09.07.23.21.23.35,0,.18-.14.23-.35.23Zm-9.22-.78c-.53,0-.62-.23-1.08-1.29-.41-.9-.83-1.33-1.26-1.72l.05-.12c1.24.19,3.1.92,3.1,2.21,0,.46-.25.92-.8.92Zm5.36,3.84h-6.69v2.41h6.69v-2.41Zm0,2.96h-6.69v2.48h6.69v-2.48Zm0,3.04h-6.69v2.55h6.69v-2.55Z"/>
      <path class="cls-1" d="m140.52,577.77l.46-.44c.21-.21.3-.23.37-.23.09,0,.16.02.41.19l.9.6c.21.14.34.28.34.46,0,.23-.41.51-.85.76,0,.8.05,4.92.02,5.01-.16.6-.92.6-.94.6-.6,0-.57-.32-.57-.8h-.71v4.05h.46l.57-.87c.14-.21.28-.3.37-.3.11,0,.21.09.41.25l1.01.88c.14.12.23.21.23.34,0,.21-.21.25-.34.25h-2.71v4.76c2.53-.62,3.5-.92,4.32-1.17v.23c-2.21,1.15-2.64,1.31-8.32,3.4-.12.04-.21.12-.32.14-.39.62-.41.69-.62.69-.14,0-.3-.16-.35-.28l-1.01-2.16c.39.09.74.14,1.13.14.25,0,.37,0,.67-.04,0-5.5,0-6.46-.05-7.11-.05-.48-.14-.8-.3-1.33l2.09.53c.28.07.39.18.39.37s-.07.23-.67.62v6.64c.87-.18,1.15-.23,1.52-.32v-9.7h-1.38c.02.46.02.51-.05.62-.18.35-.97.53-1.1.53-.48,0-.48-.51-.48-.64s.05-.76.05-.87c.05-1.63.05-3.24.05-4.85,0-.19,0-1.27-.14-1.93l1.91,1.01h3.24Zm-3.47.55v5.04h3.63v-5.04h-3.63Zm13.31.94l.67-.57c.21-.19.28-.23.41-.23.09,0,.16.05.34.18l1.22,1.04c.12.09.21.23.21.44,0,.34-.14.37-1.4.55-1.08,2-2.28,3.43-2.51,3.7,1.68,1.49,3.93,2,6.16,2.28v.16c-.85.37-1.08.62-1.72,1.84-.9-.37-3.4-1.43-5.2-3.43-.71.78-1.95,1.98-3.56,2.97l1.75.74h4l.46-.55c.14-.18.23-.25.32-.25s.21.04.51.25l.92.62c.21.14.3.23.3.35,0,.14-.11.23-.71.69,0,.83.12,4.78.12,5.68,0,.44-.16,1.06-1.04,1.06-.62,0-.62-.21-.62-1.24h-4.6c.02.44.09,1.4-1.01,1.4-.62,0-.67-.51-.67-.71,0-.23.07-1.38.07-1.63.09-2.14.11-3.77.11-4.41,0-.51-.05-1.33-.09-1.89-1.13.64-1.82.92-2.41,1.13l-.07-.23c2.12-1.29,3.91-3.04,5.43-5.01-.69-1.04-1.13-1.96-1.59-3.63-1.1,1.77-2.41,3.43-4.09,4.64l-.14-.16c1.38-1.61,3.89-5.56,4.12-8.81l2.09,1.08c.18.09.3.21.3.34,0,.21-.64.41-.97.53-.35.67-.39.78-.55,1.1h3.45Zm.62,10.21h-4.6v5.5h4.6v-5.5Zm-4.39-9.66c-.07.11-.07.14-.11.21.41,1.1.97,2.23,1.84,3.33,1.22-1.7,1.61-2.67,1.98-3.54h-3.7Z"/>
      <path class="cls-1" d="m22.5,614.09v27.44h-1.32v-28.8h10.41v1.36h-9.09Z"/>
      <path class="cls-1" d="m50.65,629.89c2.82,3.32,7.84,6.39,13.48,6.64v.25c-1.85.47-2.82,1.74-3.35,2.88-.97-.32-7.96-3.96-10.69-9.62.03,1.42.06,7.66.13,8.92,0,.16.03.92.03,1.08,0,1.11-1,1.55-1.76,1.55-.66,0-.81-.47-.81-.89,0-.1,0-.35.03-.7.16-2.18.34-4.91.34-8.61-2.88,3.48-8.59,7.25-13.23,8.36l-.09-.25c4.73-1.93,11.25-8.58,11.88-9.62h-4.2c0,1.07-.22,1.87-1.63,1.87-.66,0-.78-.32-.78-.7,0-.35.16-1.9.16-2.21.06-1.04.09-2.75.09-4.46,0-2.88-.09-3.89-.41-5.16l2.91,1.3h5.33c0-.73-.03-2.47-.06-3.26h-8.52c-.56,0-2.19,0-3.7.29l-.63-1.27c2.32.19,4.36.22,4.83.22h7.99c-.09-1.93-.19-3.07-.63-4.12l3.26.86c.28.06.53.19.53.44,0,.35-.75.85-1.03,1.04v1.77h8.52l1.35-1.58c.22-.25.34-.41.5-.41s.34.16.56.35l1.91,1.58c.22.19.31.32.31.47,0,.29-.28.35-.47.35h-12.72v3.26h5.36l1.03-.92c.06-.06.25-.22.38-.22.16,0,.34.13.44.22l1.41,1.14c.19.16.31.32.31.51,0,.29-.19.41-1,.92-.03.7-.03,1.61.06,3.96.03.44.19,3.83.19,4.12,0,1.01-.91,1.33-1.6,1.33-.85,0-.81-.66-.75-1.68h-5.27Zm-8.27-8.61v3.42h5.67l.03-3.42h-5.7Zm5.67,7.85v-3.67h-5.67v3.67h5.67Zm7.87,0v-3.67h-5.83c0,.51-.03,3.1-.03,3.67h5.86Zm0-4.43v-3.42h-5.83v3.42h5.83Z"/>
      <path class="cls-1" d="m76.17,634.28c-1.76,1.84-5.3,5.03-10.03,6.55l-.09-.22c2.82-1.74,7.65-6.39,8.49-9.21l2.6,1.99c.19.13.31.29.31.47,0,.41-.31.44-1.28.41Zm18.15-16.39h-23.57c-.78,0-2.29.03-3.67.32l-.63-1.27c2.13.19,4.36.19,4.83.19h8.15c.06-2.69-.38-3.89-.66-4.68l3.48.79c.22.06.53.16.53.41,0,.35-.28.51-1.07.95-.03,1.04-.03,1.2-.03,2.53h8.06l1.44-1.55c.25-.29.31-.41.47-.41s.38.16.66.35l2.16,1.55c.09.06.31.29.31.51,0,.28-.28.32-.47.32Zm-5.61,5.32c0,.66,0,1.46.03,2.91.03.57.19,3.01.19,3.48,0,.98-.91,1.49-1.54,1.49-.88,0-.88-.44-.81-1.58h-4.7c0,1.36.09,7.34.09,8.58,0,1.14,0,3.01-3.29,3.77-.25-2.06-2.95-3.26-3.51-3.51l.03-.22c1.91.29,2.73.41,3.64.41s.94-.19.94-1.49v-7.53h-5.48c.06.89.13,1.99-1.5,1.99-.69,0-.85-.38-.85-.86,0-.12.03-.54.03-.7.03-.95.09-3.89.09-5.03,0-3.39-.03-3.67-.31-5.06l2.91,1.65h11.66l.94-1.04c.13-.13.25-.25.41-.25s.28.1.44.22l1.47,1.2c.31.25.38.35.38.51,0,.41-.25.51-1.25,1.08Zm-2.13-.95h-12.29v6.49h12.29v-6.49Zm5.01,17.6c-.85,0-1-.29-2.32-2.22-1.29-1.93-2.73-3.86-4.73-5l.06-.22c3.23.54,8.18,3.13,8.18,6.04,0,.54-.31,1.39-1.19,1.39Z"/>
      <path class="cls-1" d="m98.17,641.28v-1.36h9.09v-27.44h1.32v28.8h-10.41Z"/>
      <path class="cls-1" d="m122.69,616.97h-1.5c-1.29,0-2.23.7-2.23,2.18v16.68c0,1.42.88,2.18,2.23,2.18h1.5v1.01h-9.94v-1.01h1.47c1.29,0,2.26-.7,2.26-2.18v-16.68c0-1.42-.88-2.18-2.26-2.18h-1.47v-1.04h9.94v1.04Z"/>
      <path class="cls-1" d="m128.23,637.8c.03,1.04-.85,1.84-1.82,1.84-1.03,0-1.82-.82-1.82-1.84s.78-1.83,1.82-1.83c.97,0,1.82.82,1.82,1.83Z"/>
      <path class="cls-1" d="m148.26,621.59c-1.16-1.77-3.42-5.22-7.62-5.22-5.01,0-7.49,5.16-7.49,10.66,0,6.14,2.95,11.14,8.21,11.14,4.45,0,6.64-4.12,7.46-5.73l.85.51c-1.22,2.44-3.42,6.68-9.25,6.68-6.61,0-9.84-5.41-9.84-11.65,0-7.4,4.54-12.66,9.84-12.66.78,0,1.69.1,2.63.38.25.06,1.72.47,1.91.47.66,0,1.5-.38,2.1-.76l2.23,5.7-1.03.47Z"/>
      <path class="cls-1" d="m155.51,637.8c.03,1.04-.85,1.84-1.82,1.84-1.03,0-1.82-.82-1.82-1.84s.78-1.83,1.82-1.83c.97,0,1.82.82,1.82,1.83Z"/>
      <path class="cls-1" d="m169.33,627.05c-.51.22-2.21.63-4.43.99-.06.77-.08,2.06-.06,2.87.39-.1,2.1-.67,2.45-.79.14-.04.23-.06.35-.06.35,0,1.12.22,1.12.71,0,.3-.22.39-.41.47-.23.1-1.78.47-3.49.79.08,2.02.18,3.06.43,4.31,1.84.34,4.11,1.4,4.11,2.47,0,.26-.14.73-.61.73-.23,0-.29-.04-.96-.51-1.08-.77-2.08-1.17-2.47-1.32-.14,1.86-1.51,2.53-3.35,2.53-2.02,0-3.41-1.07-3.41-2.1,0-1.6,2.31-2.1,4.25-2.1.49,0,.8.02,1.14.06-.22-1.7-.25-3.6-.25-3.89-.9.1-1.86.18-2.78.18-1.1,0-2.02-.2-2.02-.95,0-.42.49-1.01,1.27-1.11-.2.26-.33.46-.33.69,0,.34.39.36,1,.36,1.35,0,2.39-.18,2.84-.24,0-.99,0-1.34.06-2.95-1.61.24-3.02.28-3.51.28-1.63,0-2.41-.47-2.9-1.56.71.3,1.35.57,2.72.57.49,0,1.8-.1,3.72-.4,0-.28.04-1.54.04-1.68,0-.89-.2-1.11-1.51-1.6.22-.2.47-.46,1.16-.46.92,0,2.04.63,2.04,1.29,0,.24-.02.32-.27,1.05-.16.45-.2.87-.24,1.15.9-.22,2.04-.61,3.06-.97.12-.04.25-.08.39-.08.39,0,1.2.36,1.2.79,0,.2-.1.38-.35.47Zm-7.29,10.01c-1.45,0-2.74.4-2.74,1.15,0,.39.61.95,2.15.95.63,0,1.41-.14,1.92-.47.63-.4.63-1.03.63-1.38-.27-.1-.71-.24-1.96-.24Z"/>
      <path class="cls-1" d="m186.3,626.65c-2.51,0-3.25,0-4.57.79-1.82,1.09-3.31,3.64-3.31,5.89,0,3.3,3.45,4.07,5.21,4.47.29.06,1.12.24,1.12,1.09,0,.51-.49.55-.74.55-2.02,0-6.54-1.5-6.54-5.85,0-.85.16-2.55,1.61-4.43.55-.71,1.02-1.13,2.7-2.47-2.08.28-6.27,1.74-6.94,2.12-.84.49-.94.54-1.25.54-.49,0-1.43-.59-1.43-1.74,0-.52.14-.77.27-1.01.37.59.67,1.05,1.53,1.05.39,0,.9-.1,2.88-.57,2.33-.57,6.09-1.42,8.42-2,.2-.04.47-.1.63-.1.29,0,1.57.38,1.57,1.05,0,.63-.61.63-1.16.63Zm-.55,5.02c-.33,0-.39-.08-.86-.91-.39-.69-.9-1.23-1.84-2.18,1.31.28,3.23,1.15,3.23,2.39,0,.34-.12.69-.53.69Zm2.29-.91c-.29,0-.35-.1-.92-.97-.47-.69-1.35-1.42-2-1.9,1.25.12,3.45.93,3.45,2.23,0,.55-.41.63-.53.63Z"/>
    </g>
    <g>
      <path class="cls-1" d="m39.22,406.7h-8.97c-.46.58-1.93,2.19-2.62,2.83h6.19l.62-.67c.18-.21.28-.28.41-.28s.23.07.41.23l.83.73c.16.14.3.32.3.44,0,.23-.16.39-.81.78,0,2.71.09,6.81.16,8.74.02.3.09,1.7.09,2.02,0,1.06-.83,1.06-1.17,1.06-.78,0-.76-.44-.71-1.31h-9.15c0,.09.02.6.02.71,0,.67-.69.94-1.24.94s-.57-.32-.57-.6c0-.04.02-.48.02-.55.12-2.07.16-7.87.16-9.43,0-1.33,0-2.88-.35-3.98l2.25,1.15h1.98c.48-1.15.76-2.53.83-2.83h-5.63c-.55,0-1.7.02-2.71.21l-.46-.92c1.82.14,3.15.16,3.54.16h7.91s1.2-2.14,1.4-4.21l2.16,1.27c.21.12.3.23.3.35,0,.25-.14.32-.94.41-.74.78-1.52,1.47-2.32,2.19h5.1l.94-1.31c.16-.21.28-.3.39-.3s.25.09.41.25l1.31,1.27c.14.12.23.28.23.41,0,.18-.14.23-.32.23Zm-12.37-.76c-.53,0-.58-.14-1.13-1.45-.62-1.45-1.03-1.82-1.33-2.09l.09-.12c1.77.35,3.33,1.54,3.33,2.62,0,.53-.35,1.04-.97,1.04Zm7.13,4.14h-9.18v3.15h9.18v-3.15Zm0,3.7h-9.18v3.15h9.18v-3.15Zm0,3.7h-9.18v3.24h9.18v-3.24Z"/>
      <path class="cls-1" d="m45,410.31c-.57,0-1.68.02-2.69.21l-.46-.9c1.56.14,3.24.14,3.54.14h1.06v-3.38h-1.45c-1.1,0-1.54.07-1.91.14l-.3-.8c1.03.09,2.05.12,2.51.12h1.15c0-.9-.02-2.46-.05-2.69-.05-.35-.16-.62-.25-.92l2.25.69c.18.04.32.14.32.32,0,.28-.16.37-.71.62-.09.41-.09.57-.11,1.98h.51l.51-.71c.14-.21.21-.3.34-.3.16,0,.25.07.44.25l.69.71c.14.14.23.23.23.34,0,.18-.14.25-.35.25h-2.39c0,.53-.02,2.9-.02,3.38h.46c1.24-1.65,3.47-4.8,3.66-6.32l1.77,1.29c.12.07.21.18.21.32,0,.32-.25.34-.83.41-1.26,1.77-2.23,3.1-3.24,4.3h1.45l.76-.94c.16-.19.23-.3.34-.3s.32.16.41.25l1.08.94c.12.09.21.21.21.37,0,.21-.18.23-.34.23h-4.35c-1.2,1.43-1.98,2.25-2.67,2.92l.3.14h3.15l.6-.67c.09-.12.18-.21.32-.21.09,0,.18.05.34.16l1.08.74c.28.18.32.3.32.41,0,.23-.14.32-.83.71-.02.85-.05,2.51.02,4.83.02.34.11,1.82.11,2.12,0,.78-.8.94-1.2.94-.55,0-.53-.25-.51-1.08h-3.63c.02.78.05,1.5-1.2,1.5-.41,0-.53-.21-.53-.55,0-.18.12-1.47.12-1.75.02-.46.21-4.14.14-6.07-1.82,1.52-3.38,2.35-4.18,2.76l-.16-.16c.76-.58,2.12-1.61,4.3-3.84-.02-.21-.05-.51-.09-.8l.55.3c.8-.85,1.22-1.33,2.07-2.39h-2.87Zm1.84,3.61v3.11h3.68v-3.11h-3.68Zm0,3.66v3.2h3.68v-3.2h-3.68Zm12.83-13.57l.53-.46s.16-.16.3-.16c.12,0,.28.18.34.23l1.31,1.24c.07.07.21.23.21.39,0,.32-.37.46-1.08.57-1.26,1.75-3.38,4.74-3.5,4.88.97.53,4.64,2.62,4.64,6.3,0,2.21-1.33,3.4-3.54,3.68-.25-1.43-1.13-2.05-1.66-2.37l.07-.14c1.01.23,1.63.3,2.07.3,1.36,0,1.36-1.33,1.36-1.59,0-2.05-1.03-4.12-3.43-6.07.9-1.93,2.05-5.08,2.39-6.25h-3.27c-.07,5.01-.09,11.89.12,16.85,0,.14.02.41.02.69.02,1.1-1.17,1.1-1.26,1.1-.39,0-.57-.16-.57-.62,0-.55.09-1.47.09-2.02.09-3.91.14-11.66.14-11.89,0-1.88,0-4.05-.39-5.59l2.09.92h3.01Z"/>
      <path class="cls-1" d="m84.97,406.05h-16.35c-.23,0-1.66,0-2.71.21l-.46-.92c1.59.14,3.33.16,3.54.16h5.61c.02-.92.05-2.16-.51-3.45l2.55.78c.12.04.35.14.35.34,0,.3-.6.53-.74.57,0,.28-.02,1.5-.02,1.75h5.66l1.03-1.24c.14-.18.28-.3.37-.3.12,0,.32.16.41.25l1.36,1.22c.16.16.25.25.25.37,0,.21-.21.25-.34.25Zm-1.06,8.67c-.05.9.09,4.81.09,5.61,0,.71,0,2.3-2.81,2.9-.12-1.17-1.45-2-2.07-2.28v-.16c1.31.11,2.46.11,2.55.11.74,0,.74-.3.74-1.33,0-.28-.05-4.39-.09-5.29h-13.8c-.02.85-.02,1.08-.02,1.52,0,.9.07,4.76.07,5.54,0,.74,0,1.63-1.17,1.63-.48,0-.67-.25-.67-.69,0-.23.23-3.98.23-4.48,0-3.63,0-3.96-.23-5.15l2.05,1.08h13.2l.71-.78c.09-.12.21-.23.34-.23.12,0,.28.12.37.18l1.03.78c.18.14.23.23.23.32,0,.19-.07.25-.76.71Zm-3.31-6.07c0,.46.12,2.48.12,2.9,0,.55-.6.92-1.13.92s-.6-.37-.53-.99h-7.75c-.02.51-.05,1.22-1.24,1.22-.44,0-.46-.28-.46-.46,0-.14.05-.8.05-.94.02-.44.05-1.04.05-1.82s-.05-2.05-.12-2.76l1.84.9h7.5l.53-.6c.07-.07.21-.18.32-.18s.21.07.34.16l1.03.78c.09.07.16.16.16.28,0,.16-.09.28-.71.6Zm-1.38,8.07c0,.44.09,2.39.09,2.78,0,.55-.51.97-1.08.97-.53,0-.53-.28-.53-.9h-4.97c.05.53.09,1.29-.99,1.29-.57,0-.6-.32-.6-.55,0-.12.11-2.46.11-2.94,0-.78-.02-1.56-.21-2.35l1.84.97h4.62l.55-.64c.09-.12.18-.23.3-.23s.23.09.32.16l.9.69c.12.09.18.21.18.3,0,.18-.18.28-.55.46Zm-.14-8.55h-7.77v2.76h7.77v-2.76Zm-1.38,8.37h-4.97v2.48h4.97v-2.48Z"/>
      <path class="cls-1" d="m107.6,422.5c-1.38,0-7.4-.02-8.62-.09-2.87-.16-5.01-.8-6.21-3.17-.57.48-2.23,2.23-2.69,2.8-.05.51-.11.69-.34.69-.14,0-.21-.09-.28-.19l-1.4-1.98c.55,0,.76-.02.97-.07.18-.05,1.15-.37,2.71-1.13v-6.6h-.39c-.57,0-1.68.02-2.71.21l-.46-.9c1.2.09,1.7.12,3.2.14l.69-.67c.14-.12.25-.23.39-.23s.21.09.32.18l1.01.78c.12.09.23.21.23.3,0,.21-.09.3-.76.85v4.83c0,2.76,4,2.76,5.08,2.76,2.48,0,8.9-.23,10.83-.99l.02.09c-.97.85-1.24,1.17-1.59,2.37Zm-14.72-15.15c-.62,0-.78-.39-1.1-1.24-.34-.94-.87-2.02-1.66-2.78l.05-.18c1.63.51,3.63,1.59,3.63,3.2,0,.55-.37,1.01-.92,1.01Zm14.95-1.49h-6v2.51h2.78l.64-.55c.09-.09.25-.21.34-.21.12,0,.21.04.3.12l.99.78c.07.04.16.16.16.25,0,.18-.16.32-.64.71,0,.25.05,1.4.05,1.63s.09,1.38.09,1.49c0,.9-1.03.9-1.1.9-.55,0-.53-.46-.53-.8h-3.08l.02,1.24c2.21.64,6.16,1.91,6.16,3.73,0,.51-.37.92-.87.92-.46,0-.74-.35-.97-.64-1.77-2.23-3.84-3.43-4.32-3.7.02.85.09,4.65.09,5.4,0,.55-.74.74-1.13.74-.57,0-.57-.39-.57-.55s.05-.9.05-1.03c.05-.76.02-4.07.05-4.74-1.49,1.82-4.07,3.93-5.86,4.48l-.05-.18c2.09-1.63,4.02-4,5.08-5.66h-2.39c.02.87-.76.99-1.17.99-.46,0-.53-.37-.53-.67,0-.25.09-2.3.09-2.71,0-1.75-.05-2.09-.14-2.8l1.86.87h3.08l-.05-2.51h-2.64c-.57,0-1.66.02-2.71.21l-.46-.92c1.47.12,2.9.16,3.54.16h2.28c-.09-2.23-.09-2.48-.32-3.24l2.3.69c.14.05.32.12.32.28,0,.23-.18.37-.74.76v1.52h3.36l.85-.92c.14-.14.25-.28.37-.28.14,0,.32.16.44.25l1.1.9c.09.09.23.21.23.37,0,.21-.21.23-.34.23Zm-7.52,3.06h-3.22v3.22h3.24c0-.23-.02-2.51-.02-3.22Zm4.6,0h-3.08v3.22h3.08v-3.22Z"/>
      <path class="cls-1" d="m119.38,407.71c-.55.76-1.38,1.91-2.78,3.56v.12c1.5.35,3.31,1.36,3.31,2.48,0,.3-.18.99-.83.99-.6,0-.78-.44-.97-.87-.3-.74-.94-1.91-1.52-2.35v5.08c0,.51.12,5.2.12,5.36,0,.99-.94,1.1-1.1,1.1-.32,0-.67-.14-.67-.69,0-.25.09-1.36.09-1.56.09-1.98.09-2.71.16-8.12-2.32,2.25-4.12,3.13-4.9,3.5l-.05-.09c3.43-3.01,5.1-5.36,7.52-9.11h-3.61c-.58,0-1.68,0-2.71.21l-.44-.92c1.56.14,3.22.16,3.52.16h.67c0-1.49-.02-3.47-.39-4.42l2.39.8c.21.07.23.25.23.3,0,.21-.41.46-.71.64-.05.35-.05.41-.05.99v1.68h1.13l.67-.62c.14-.14.21-.18.28-.18.09,0,.16.04.28.16l1.17,1.04c.07.07.16.21.16.32,0,.18,0,.21-.97.44Zm10.95.04c-.05.46-.07.87-.07,1.33,0,1.91.07,4.14.09,5.45.02.44.09,2.3.09,2.69,0,.96-.78,1.04-1.01,1.04-.62,0-.62-.48-.6-1.08h-2.58c.02.92.11,4.28.11,5.04,0,1.03-1.01,1.03-1.08,1.03-.6,0-.69-.34-.69-.62,0-.32.05-1.72.05-2.02,0-2.16,0-2.18.02-3.43h-2.35c.02.21.05.41-.09.67-.18.32-.62.46-.9.46-.25,0-.62-.12-.62-.6,0-.16.02-.25.02-.39.14-1.77.14-4.48.14-5.45,0-1.42,0-5.22-.23-6.32l1.98,1.1h2.02c0-.44,0-2.37-.02-2.78-.05-.6-.16-1.2-.39-1.77l2.37.62c.18.04.3.14.3.3,0,.18-.41.53-.69.78-.02.39-.02.46-.02,1.22v1.63h2.23l.74-.67c.16-.14.21-.18.3-.18s.16.02.28.14l1.08.92c.07.07.12.14.12.23,0,.16-.05.21-.6.67Zm-5.66-.55h-2.37v4.37h2.41l-.05-4.37Zm-2.37,4.92v4.51h2.39c0-.64.05-3.79.05-4.51h-2.44Zm6.53-4.92h-2.64l-.02,4.37h2.67v-4.37Zm0,4.92h-2.67c0,.41.07,3.79.09,4.51h2.58v-4.51Z"/>
      <path class="cls-1" d="m153.49,413.32c-2.6-1.08-5.13-2.83-7.01-6.64h-3.22c-2.21,3.66-5.04,6.25-9.52,7.98l-.07-.21c3.66-2.12,6.39-5.68,7.73-7.77h-3.17c-.21,0-1.63,0-2.71.21l-.44-.92c1.59.14,3.31.16,3.52.16h3.15c.8-1.38,1.43-2.8,1.43-4.28l2.23.99c.25.11.34.23.34.41,0,.25-.34.39-.97.6-.37.73-.67,1.38-1.2,2.28h6.92l.85-1.13c.14-.18.25-.28.39-.28s.28.12.46.25l1.31,1.11c.12.09.23.25.23.37,0,.16-.14.23-.34.23h-6.51c1.63,2.25,4.74,4.51,8.67,4.8v.16c-.44.14-1.38.48-2.07,1.68Zm-12.35,5.2c-1.75,2.02-3.17,3.2-5.86,4.39l-.12-.16c1.75-1.29,3.1-3.15,3.7-4,.78-1.13.85-1.56.94-2.14l1.77.94c.23.11.41.25.41.46,0,.32-.23.41-.85.51Zm11.45-3.01h-6.94c0,.83.09,4.88.09,5.22,0,1.06,0,2.35-2.41,2.76-.16-.69-.35-1.43-2.25-2.37l.02-.16c.6.12,2.25.21,2.55.21s.44-.07.44-.55c.02-.73-.02-4.28-.02-5.1h-5.06c-.55,0-1.7.02-2.71.21l-.44-.9c1.79.14,3.13.14,3.52.14h10.23l.9-1.22c.14-.21.23-.28.34-.28.14,0,.3.12.44.23l1.43,1.22c.11.11.23.23.23.37,0,.16-.14.23-.35.23Zm-4.28-3.86h-4.67c-.57,0-1.68.02-2.69.21l-.46-.92c1.56.14,3.2.16,3.52.16h1.91l.67-.9c.14-.18.23-.28.34-.28s.25.07.46.25l1.06.88c.14.12.23.23.23.37s-.14.23-.37.23Zm4.05,10.9c-.69,0-.99-.48-1.66-1.54-.99-1.56-2.55-2.71-3.29-3.24v-.16c3.06.76,5.82,2.19,5.82,3.91,0,.62-.39,1.03-.87,1.03Z"/>
      <path class="cls-1" d="m161.77,404.93c.05,1.79.07,3.31.07,4.19,0,4.83-.07,11.04-4.81,13.43l-.09-.11c2.3-2.42,3.27-5.2,3.27-12.3,0-2.02-.05-5.04-.35-6.95l2.37.62c.3.07.46.23.46.41s-.16.41-.92.71Zm6.14.35c-.02.67-.05,1.95-.05,3.95,0,2.9.18,7.52.18,10.42,0,1.13-1.04,1.13-1.22,1.13-.64,0-.67-.44-.67-.74,0-.23.11-2.35.11-2.69.05-1.61.09-2.97.09-7.29,0-1.86,0-4.78-.35-6.39l2.23.58c.21.04.39.18.39.32,0,.21-.14.39-.74.71Zm7.04-.53c-.07,3.13-.07,5.17-.07,6.51,0,1.59.16,8.67.16,10.12,0,.37,0,1.31-1.24,1.31-.71,0-.71-.53-.71-.74,0-.46.09-2.44.12-2.85.07-2.69.09-5.38.09-8.05,0-3.93-.02-5.36-.14-6.48-.07-.83-.16-1.15-.28-1.59l2.46.76c.25.07.39.21.39.34,0,.28-.23.44-.78.67Z"/>
      <path class="cls-1" d="m183.18,411.34c.48-.3,1.2-.6,2-.6,2.28,0,4.12,2.3,4.12,5.08,0,3.2-2.28,6.05-4.92,6.05s-5.29-2.97-5.29-7.93c0-5.31,2.99-9.73,6.51-9.73,1.54,0,2.62.92,2.62,2.02,0,.83-.64,1.2-1.17,1.2-.46,0-1.22-.3-1.26-1.61-.02-.51-.07-.83-.69-.83s-1.24.35-1.68.83c-2.05,2.25-2.16,5.63-2.25,7.7.44-.71.92-1.52,2.02-2.18Zm-.76,8.51c.39.62.99,1.24,1.86,1.24,1.22,0,2.94-1.27,2.94-5.06,0-1.03-.25-4.25-2.62-4.25-.87,0-2.35.64-3.43,3.13.09,1.26.28,3.47,1.24,4.94Z"/>
      <path class="cls-1" d="m211.61,411.39h-11.41c-.6,1.1-1.26,2.62-1.56,3.31h6.44l.83-.71c.12-.09.23-.19.34-.19s.25.14.37.25l1.15,1.06c.09.09.21.23.21.37,0,.3-.44.41-1.15.62-1.03,4.8-1.56,7.34-5.93,7.24-.28-1.54-1.7-2.32-2.3-2.62l.02-.14c2.02.53,3.82.6,3.89.6,1.15,0,1.86-.76,2.71-5.93h-6.81c-.32.74-.94,2.16-1.27,2.62-.18.25-.48.39-.9.39-.39,0-.9-.21-.9-.58,0-.14.07-.34.14-.46,1.38-2.62,1.54-2.94,2.87-5.84h-4.3c-.62,0-1.7.02-2.71.21l-.46-.9c1.82.14,3.13.14,3.54.14h14.05l1.03-1.27c.11-.14.23-.28.37-.28.12,0,.3.14.41.23l1.43,1.29c.11.09.23.21.23.35,0,.23-.23.23-.35.23Zm-4.71-6.99c0,.9.02,3.17.02,4.02,0,.32,0,.94-.99.94-.74,0-.78-.34-.71-1.13h-7.96c0,.58-.02,1.29-1.13,1.29-.37,0-.62-.28-.62-.6,0-.16.09-.9.09-1.06.05-.8.12-1.89.12-3.01,0-1.2-.07-1.68-.28-2.6l2.14,1.01h7.45l.46-.55c.09-.12.23-.25.32-.25s.28.12.37.18l1.1.67c.14.09.25.25.25.39s-.16.32-.64.69Zm-1.66-.57h-7.96v3.86h7.96v-3.86Z"/>
      <path class="cls-1" d="m218.86,404.93c.05,1.79.07,3.31.07,4.19,0,4.83-.07,11.04-4.81,13.43l-.09-.11c2.3-2.42,3.27-5.2,3.27-12.3,0-2.02-.05-5.04-.35-6.95l2.37.62c.3.07.46.23.46.41s-.16.41-.92.71Zm6.14.35c-.02.67-.05,1.95-.05,3.95,0,2.9.18,7.52.18,10.42,0,1.13-1.04,1.13-1.22,1.13-.64,0-.67-.44-.67-.74,0-.23.11-2.35.11-2.69.05-1.61.09-2.97.09-7.29,0-1.86,0-4.78-.35-6.39l2.23.58c.21.04.39.18.39.32,0,.21-.14.39-.74.71Zm7.04-.53c-.07,3.13-.07,5.17-.07,6.51,0,1.59.16,8.67.16,10.12,0,.37,0,1.31-1.24,1.31-.71,0-.71-.53-.71-.74,0-.46.09-2.44.12-2.85.07-2.69.09-5.38.09-8.05,0-3.93-.02-5.36-.14-6.48-.07-.83-.16-1.15-.28-1.59l2.46.76c.25.07.39.21.39.34,0,.28-.23.44-.78.67Z"/>
      <path class="cls-1" d="m242.8,416.47c.02-2.76.05-7.36-.02-9.43-.02-.44-.09-.85-.16-1.2l1.89.55c.18.05.3.19.3.32,0,.16-.21.32-.62.58,0,.85-.02,4.99-.02,5.31.05,2.51.12,4.62.12,5.11,0,.6-.41.94-.99.94-.46,0-.51-.14-.48-1.63h-4.21c0,.92-.02,2.25-.07,2.69-.02.25-.44.55-.92.55-.64,0-.64-.35-.64-.67,0-.64.11-3.59.14-4.18.09-2.94.09-4.53.09-5.38,0-1.5,0-3.2-.21-4.74l1.95.69c.09.02.28.09.28.25,0,.14-.18.32-.62.64,0,1.52-.02,8.23-.02,9.59h1.43c0-2.35-.02-10.6-.07-12.3-.02-.51-.07-1.17-.18-1.68l2,.55c.18.05.3.16.3.3,0,.21-.21.39-.6.67,0,3.47-.02,9.01-.02,12.46h1.38Zm10.74-11.18l.92-1.04c.12-.14.23-.28.35-.28.14,0,.32.16.44.25l1.17,1.01c.14.14.23.25.23.37,0,.21-.21.23-.34.23h-6.05c-.11.6-.18.92-.32,1.31,2.3.57,4.67,1.66,4.67,3.15,0,.39-.3.87-.92.87-.39,0-.53-.09-1.36-1.36-.39-.6-1.2-1.63-2.46-2.42-.34.9-1.13,2.9-4.65,4.23l-.09-.14c2.76-1.54,3.47-4.16,3.68-5.66h-.55c-.21,0-1.63,0-2.69.23l-.46-.92c1.49.12,2.97.14,3.77.14.05-.23.07-.69.07-1.1,0-.71-.07-1.43-.25-1.91l2.28.64c.18.04.28.18.28.3s-.21.32-.64.6c-.07.53-.16,1.08-.23,1.47h3.17Zm-5.29,7.31c-.39,0-1.59,0-2.71.21l-.44-.92c1.66.14,3.13.16,3.52.16h5.98l.78-.97c.14-.18.25-.3.34-.3.14,0,.3.14.44.25l1.17.96c.11.09.23.23.23.35,0,.23-.21.25-.35.25h-2.92c0,.64.02,8.28.02,8.46-.02,1.06-.6,1.96-2.53,2.23-.25-.92-.9-1.77-2.05-2.25v-.18c.9.14,1.7.25,2.18.25.8,0,.85-.09.85-.71v-7.8h-4.53Zm.85,2.28l.53-.6c.09-.12.18-.21.3-.21s.23.12.34.21l.85.67c.09.07.25.21.25.37,0,.23-.21.37-.67.64,0,.35.05,2.92,0,3.4-.05.41-.57.57-.94.57-.53,0-.51-.23-.48-.69h-2.25c0,.25,0,1.43-.02,1.61-.05.48-.48.67-.92.67-.55,0-.55-.44-.55-.62,0-.69.11-3.75.11-4.37,0-.55-.09-1.82-.16-2.48l1.75.83h1.86Zm-2.07.55v3.27h2.25v-3.27h-2.25Z"/>
      <path class="cls-1" d="m259.54,422.01c1.29-3.15,1.68-6.76,1.68-7.06,0-.25-.02-.53-.07-.78l2.02.76c.09.05.25.12.25.3,0,.21-.07.25-.6.62-.48,1.47-1.5,4.39-3.13,6.23l-.16-.07Zm9.15-15.89c.09.07.16.16.16.32,0,.28-.23.35-.97.51-.78,1.06-2,2.67-4.05,4.97.11-.02,1.68-.07,2.87-.18-.16-.39-.44-.97-.83-1.63l.11-.16c1.24.53,2.81,1.54,2.81,2.74,0,.53-.32,1.03-.92,1.03s-.62-.18-1.06-1.65c-.35.12-.74.23-1.63.48.02,3.17,0,4.81.05,6.76,0,.41.07,2.19.07,2.55,0,.35,0,1.27-1.04,1.27-.64,0-.64-.53-.64-.71,0-1.06.18-8,.21-9.52-.58.14-1.31.32-2.94.64-.32.35-.35.39-.53.39-.16,0-.28-.16-.32-.32l-.48-1.96c.51.14,1.1.34,2.14.34.14,0,1.38-.04,1.56-.07,1.52-2.25,3.47-5.68,3.45-7.08l1.98,1.29Zm-8.25-.23c.48.05,1.38.14,2.39.74,0-.02,1.15-3.04.99-4.51l2.21,1.15c.14.07.23.18.23.3,0,.23-.21.32-1.01.64-.83,1.13-1.13,1.47-2.09,2.62.3.23,1.01.76,1.01,1.63,0,.62-.41,1.06-.87,1.06-.57,0-.78-.48-.94-.83-.25-.6-.87-1.72-1.98-2.64l.07-.16Zm5.31,8.88c1.54.55,2.71,1.63,2.71,2.58,0,.53-.3.99-.87.99-.64,0-.76-.37-1.1-1.61-.18-.64-.46-1.36-.87-1.82l.14-.14Zm3.56.39c-.57,0-.97.05-1.15.09l-.32-.74c.85.07,1.54.09,1.75.09h.71l.44-.53s.16-.18.3-.18c.09,0,.25.11.34.21l.92.87c.09.09.25.23.25.39,0,.18-.07.28-.76.53-1.1,2.41-2.81,4.62-5.38,5.89l-.05-.14c2.67-2.55,3.54-5.15,3.98-6.48h-1.03Zm4.78-3.01l.41.14c.16.05.51.19.51.41,0,.28-.41.51-.6.6,0,.85.9,2.51,1.33,3.15,1.31-1.2,2.12-2.18,2.48-3.13l1.59,1.59s.11.18.11.3c0,.05-.02.3-.37.3-.07,0-.37-.02-.6-.05-1.1.51-1.95.83-3.08,1.22,1.33,1.89,3.31,3.22,5.56,3.75v.18c-1.61.39-1.93.9-2.32,1.47-2.32-1.77-3.86-4.02-4.67-6.83,0,.85.14,4.6.14,5.36,0,.55,0,2.14-2.3,2.55-.25-.73-.51-1.45-2.37-2.23l.02-.18c.37.05,1.91.14,2.21.14.92,0,.94-.19.94-.88v-6.21c0-.78,0-1.26-.07-1.65h-1.84c.02.62-.37.94-.92.94-.51,0-.74-.18-.74-.6,0-.32.11-3.33.11-3.96,0-1.22-.02-3.52-.21-4.58l1.86.99h1.38c.09-.39.21-1.08.21-1.91,0-.41-.02-.6-.12-1.12l2.16.69c.18.07.39.16.39.39,0,.3-.23.37-.83.48-.46.62-.78.97-1.24,1.47h3.13l.62-.71c.07-.09.28-.25.39-.25s.25.09.34.16l1.08.8c.14.09.3.25.3.39,0,.21-.09.25-.85.8,0,.94.21,5.38.21,5.89,0,.69-.46,1.01-1.08,1.01s-.62-.37-.6-.9h-2.71Zm-2.92-6.65v2.76h5.63v-2.76h-5.63Zm5.63,6.09v-2.78h-5.63v2.78h5.63Z"/>
      <path class="cls-1" d="m22.55,440.1v27.44h-1.33v-28.8h10.51v1.36h-9.18Z"/>
      <path class="cls-1" d="m60.8,466.56c-6.87-3.8-10.16-8.96-11.36-17.44-.57,5.57-2.6,14.81-14.24,18.01l-.13-.25c4.56-2.22,8.32-5.89,10.19-10.63.98-2.53,1.65-5.19,1.9-7.91h-7.6c-.25,0-2.25,0-3.73.29l-.63-1.23c2.5.19,4.72.19,4.87.19h7.18c.06-.73.16-1.71.16-3.29,0-1.2-.1-3.92-.7-5.57l3.64.98c.28.06.57.22.57.47,0,.35-.44.66-1.08,1.08-.03,2.06-.13,4.02-.25,6.33h8.67l1.42-1.65c.16-.19.32-.38.47-.38s.38.16.6.32l2.12,1.64c.13.1.32.29.32.47,0,.35-.32.35-.47.35h-12.82c.44,2.34,1.36,4.53,2.41,6.65,2.34,4.75,6.27,7.31,12.09,8.86v.25c-.7.19-2.31.57-3.61,2.47Z"/>
      <path class="cls-1" d="m71.56,443.27c.32-.73,1.04-2.85,1.04-3.95,0-.22-.03-.47-.06-.79l2.79,1.23c.32.13.54.25.54.51,0,.41-.38.47-1.23.6-.73.82-1.55,1.61-2.37,2.4h2.56l.63-.82c.16-.19.28-.29.44-.29.13,0,.32.13.44.22l1.23.79c.22.13.38.32.38.54,0,.19-.16.35-.76.85,0,.51-.03,1.42-.03,1.93,0,.57.19,3.35.19,3.58,0,1.42-1.23,1.46-1.49,1.46-.73,0-.7-.54-.7-1.2h-4.24v4.21h3.99l.7-.76c.16-.19.22-.25.35-.25.09,0,.25.09.41.19l1.3.82c.25.16.44.32.44.54,0,.25-.06.35-.89.95-.03.95,0,1.74.03,3.35.03.57.16,3.1.16,3.64,0,1.04-.89,1.36-1.36,1.36-.89,0-.89-.76-.89-1.27v-1.14h-4.24c.03.38.09,2.06.09,2.4,0,.48,0,1.58-1.36,1.58-.95,0-.95-.89-.95-1.14,0-2.21.16-11.93.16-13.92,0-6.52-.13-7.09-.47-9.05l2.63,1.42h.54Zm-.63.76v5.54h4.24v-5.54h-4.24Zm0,11.27v5.92h4.24v-5.92h-4.24Zm14.37-7.69v-5.06h-2.66c-.54,0-2.18,0-3.73.29l-.6-1.27c2.28.19,4.3.22,4.84.22h7.85l1.08-1.42c.22-.32.32-.44.51-.44.16,0,.32.13.6.35l1.8,1.46c.19.16.32.29.32.47,0,.29-.25.35-.47.35h-7.44v5.06h3.45l.82-.89c.19-.22.32-.25.44-.25s.29.09.41.19l1.46.98c.19.13.38.32.38.51s-.47.57-1.01,1.01c.03,4.21.06,4.94.06,5.25.09,1.93.19,5.63.19,5.76,0,.92,0,3.1-3.67,3.8-.13-1.08-.89-2.41-1.99-3.16l.1-.19c.85.16,1.58.22,2.18.22.66,0,.89-.06.95-.13.13-.19.13-.47.13-1.96,0-3.1,0-7.37-.13-10.38h-3.77c-.03,8.95-.03,11.74.19,16.14,0,.22.06,1.17.06,1.33,0,1.52-1.33,1.55-1.52,1.55-.98,0-.98-.7-.98-1.04,0-.22.06-1.05.06-1.2.13-3.1.13-7.18.13-10.57,0-.98-.03-5.32-.03-6.2h-3.26v6.96c0,.41.13,7.25.13,7.72,0,.51,0,1.55-1.49,1.55-.35,0-.89-.06-.89-1.08,0-.25.06-1.01.06-1.3.06-1.68.16-5.1.16-6.87,0-6.49-.13-7.56-.35-9.18l2.88,1.42h2.75Z"/>
      <path class="cls-1" d="m98.93,467.29v-1.36h9.18v-27.44h1.33v28.8h-10.51Z"/>
      <path class="cls-1" d="m139.72,455.45c-.03,2.15.06,5.13.13,7.31,0,.32.1,1.74.1,2.03,0,1.04-1.01,1.36-1.65,1.36-.95,0-.95-.22-.89-2.31h-18.67c0,.16.03,1.39,0,1.65-.13,1.11-1.39,1.2-1.65,1.2-.54,0-.92-.19-.92-.76,0-.22.06-1.14.06-1.3.06-2.44.1-4.97.1-7.4,0-2.15-.06-2.79-.44-4.18l3.32.95c.25.06.51.16.51.44,0,.35-.48.63-1.04.98-.1,2.72,0,6.55.03,7.66h8.16c0-2.66,0-9.68-.03-11.87h-6.2c.03,1.27-.95,1.46-1.58,1.46-.85,0-.85-.47-.85-.73,0-1.04.09-5.73.09-6.68,0-2.12,0-2.75-.51-4.56l3.32,1.14c.19.06.47.25.47.47,0,.44-.66.79-.98.95-.06,1.14-.06,1.74.03,7.18h6.2c0-1.2-.06-6.46-.06-7.53-.03-1.99-.22-2.88-.7-4.3l3.67,1.23c.28.1.47.29.47.41,0,.44-.57.73-1.04.98-.06,2.06-.06,2.28-.06,4.15v5.06h6.49c.1-2.37.22-7.12-.44-9.27l3.39,1.07c.28.1.51.22.51.48,0,.28-.16.44-1.08.92-.06,1.8-.03,4.05.03,5.86,0,.29.03,1.42.03,1.65,0,1.04-1.11,1.3-1.68,1.3-.92,0-.89-.44-.82-1.23h-6.42c-.03.7,0,10.29,0,11.87h8.29c.06-2.66.09-3.92.09-4.4,0-3.86-.25-4.62-.54-5.54l3.36.98c.22.06.44.22.44.41,0,.38-.44.63-1.04.92Z"/>
      <path class="cls-1" d="m170.31,466.47c-4.46-2.91-7.98-7.06-9.91-12.03-.48-1.23-.73-2.15-.89-2.69-1.74,4.81-4.56,9.24-8.73,12.22-2.72,1.93-5.13,2.66-6.17,2.97l-.09-.25c9.62-5.13,13.32-15.76,13.16-19.62l.95.16c-.35-2.75-.32-4.24-.32-5.66h-2.88c-.57,0-2.18,0-3.73.29l-.6-1.23c1.96.13,3.92.19,4.84.19h1.8l1.14-1.11c.19-.19.35-.32.54-.32.16,0,.38.13.6.29l1.8,1.33c.25.19.35.32.35.51,0,.51-1.77,1.2-2.72,1.55-.47,10.7,7.12,18.83,14.24,20.79v.29c-.73.13-2.28.47-3.39,2.34Z"/>
      <path class="cls-1" d="m201.07,445.01c.03,1.62-.03,8.89.03,10.16.03,1.04.28,6.27.28,7.72,0,.76,0,2.12-1.71,2.12-.28,0-.95-.06-.95-.79,0-.19.06-1.36.06-1.61h-17.82c.03,1.42.03,1.93-.1,2.18-.25.6-1.11.86-1.71.86-.85,0-.89-.51-.89-.86,0-.32.09-1.71.09-1.99.16-4.14.29-9.75.29-14.62,0-4.14-.13-5.06-.51-6.96l3.39,1.9h16.8l.98-1.01c.29-.28.38-.44.54-.44s.38.16.57.32l1.74,1.36c.19.16.38.35.38.54,0,.29-.7.7-1.49,1.14Zm-2.28-1.14h-17.82v17.97h17.82v-17.97Z"/>
      <path class="cls-1" d="m217.67,453.06c-.51.22-2.23.63-4.47.99-.06.77-.08,2.06-.06,2.87.4-.1,2.12-.67,2.47-.79.14-.04.24-.06.36-.06.36,0,1.13.22,1.13.71,0,.3-.22.4-.41.47-.24.1-1.8.47-3.52.79.08,2.02.18,3.07.44,4.31,1.86.34,4.15,1.4,4.15,2.47,0,.26-.14.73-.61.73-.24,0-.3-.04-.97-.52-1.09-.77-2.1-1.17-2.49-1.32-.14,1.86-1.52,2.53-3.38,2.53-2.04,0-3.44-1.07-3.44-2.1,0-1.6,2.33-2.1,4.29-2.1.49,0,.81.02,1.15.06-.22-1.7-.26-3.6-.26-3.9-.91.1-1.88.18-2.81.18-1.11,0-2.04-.2-2.04-.95,0-.41.49-1.01,1.29-1.11-.2.26-.34.45-.34.69,0,.34.4.36,1.01.36,1.36,0,2.41-.18,2.87-.24,0-.99,0-1.35.06-2.95-1.62.24-3.05.28-3.54.28-1.64,0-2.43-.47-2.93-1.56.71.3,1.36.57,2.75.57.49,0,1.82-.1,3.76-.39,0-.28.04-1.54.04-1.68,0-.89-.2-1.11-1.52-1.6.22-.2.47-.46,1.17-.46.93,0,2.06.63,2.06,1.29,0,.24-.02.32-.28,1.05-.16.46-.2.87-.24,1.15.91-.22,2.06-.61,3.08-.97.12-.04.26-.08.4-.08.4,0,1.21.36,1.21.79,0,.2-.1.38-.36.47Zm-7.36,10.01c-1.46,0-2.77.39-2.77,1.15,0,.4.61.95,2.18.95.63,0,1.42-.14,1.94-.47.63-.39.63-1.03.63-1.38-.28-.1-.71-.24-1.98-.24Z"/>
      <path class="cls-1" d="m234.8,452.66c-2.53,0-3.28,0-4.61.79-1.84,1.09-3.34,3.64-3.34,5.89,0,3.3,3.48,4.07,5.26,4.47.3.06,1.13.24,1.13,1.09,0,.51-.49.55-.75.55-2.04,0-6.6-1.5-6.6-5.85,0-.85.16-2.55,1.62-4.43.55-.71,1.03-1.13,2.73-2.47-2.1.28-6.33,1.74-7,2.12-.85.49-.95.53-1.27.53-.49,0-1.44-.59-1.44-1.74,0-.51.14-.77.28-1.01.38.59.67,1.05,1.54,1.05.4,0,.91-.1,2.91-.57,2.35-.57,6.15-1.42,8.5-2,.2-.04.47-.1.63-.1.3,0,1.58.38,1.58,1.05,0,.63-.61.63-1.17.63Zm-.55,5.02c-.34,0-.4-.08-.87-.91-.4-.69-.91-1.23-1.86-2.18,1.32.28,3.26,1.15,3.26,2.39,0,.34-.12.69-.53.69Zm2.31-.91c-.3,0-.36-.1-.93-.97-.47-.69-1.36-1.42-2.02-1.9,1.27.12,3.48.93,3.48,2.23,0,.55-.42.63-.53.63Z"/>
    </g>
    <line class="cls-3" y1="39.37" x2="290" y2="39.37"/>
  </g>
</svg>