<svg id="car01-sp" xmlns="http://www.w3.org/2000/svg" width="750" height="72.286" viewBox="0 0 750 72.286">
  <g id="_背景" transform="translate(0 69.618)">
    <line id="線_1" data-name="線 1" x2="750" transform="translate(0 0)" fill="none" stroke="#d4c194" stroke-miterlimit="10" stroke-width="2"/>
  </g>
  <g id="_レイヤー_2-2" transform="translate(15.989 0)">
    <path id="パス_86" data-name="パス 86" d="M193.709,12.161c.144,2.231.576,4.029.576,4.461,0,.648-.288,1.079-.72,1.079-.791,0-1.151-.576-2.015-2.806C189.176,8.779,180.47,3.742,172.124,3.742c-13.743,0-21.586,8.418-21.586,23.169,0,13.527,10.289,24.248,23.169,24.248,7.987,0,16.621-4.533,19.067-10,.36-.863.72-1.151,1.079-1.151s.5.216.5.863a41.028,41.028,0,0,1-1.3,6.332c-1.8,3.166-12.3,6.26-21.226,6.26-16.621,0-27.486-9.929-27.486-25.039S155.934,1.44,171.764,1.44a36.153,36.153,0,0,1,17.628,4.533,3.624,3.624,0,0,0,1.079.36,5.011,5.011,0,0,0,1.007-.216A3.578,3.578,0,0,1,192.63,5.9c.432,0,.576.144.648.791Z" transform="translate(-141.552 -0.289)" fill="#d4c194"/>
    <path id="パス_87" data-name="パス 87" d="M222.163,52.381c-.576,0-.863-.216-.863-.72,0-.576.288-.72,1.367-.863,1.655-.216,3.6-2.159,4.965-5.037q9.929-20.722,19.931-41.444C249.217.863,249.793,0,250.153,0c.5,0,.72.791,2.231,4.6.935,2.3,11.512,27.27,16.909,40.293,1.439,3.454,2.878,4.677,6.692,5.54,1.439.36,1.871.576,1.871,1.151,0,.5-.935,1.007-2.087,1.007a81.756,81.756,0,0,0-8.562-.648c-2.878,0-4.965.36-6.476.36-.72,0-1.3-.36-1.3-.791,0-.576.648-1.007,1.727-1.079,1.511-.216,2.374-.935,2.374-2.159,0-1.3-2.878-10.577-5.181-14.822-.432-.863-.576-1.079-2.015-1.079l-18.06.288c-1.007,0-1.223.072-1.439.648-3.6,7.843-5.9,12.376-5.9,13.527,0,2.015,1.079,2.806,4.965,3.885.576.144.791.36.791.791,0,.5-.432.791-1.439.791-1.727,0-4.029-.216-6.116-.216-3.238,0-6.548.288-6.979.288Zm33.53-26.406L250.3,13.6l-1.439-2.518c-.216-.5-.5-.791-.648-.791-.36,0-.791.72-1.8,2.806L239.648,27.63a2.407,2.407,0,0,0-.288,1.007c0,.576.576.863,1.367.863l14.318-.072c1.151,0,1.439-.216,1.439-1.079a.913.913,0,0,0-.072-.432Z" transform="translate(-156.983 0)" fill="#d4c194"/>
    <path id="パス_88" data-name="パス 88" d="M332.342,26.965c.863,1.511,1.583,2.662,2.015,3.382,1.151,1.943,2.087,3.382,2.662,4.317l4.389,6.188C347.236,49.2,349.611,51.5,352.2,51.5h.791c.5,0,.791.144.791.5,0,1.007-1.3,1.583-3.454,1.583-7.051,0-8.994-1.655-17.269-15.182-4.173-6.692-5.4-8.562-6.044-9.066-.72-.5-2.159-.72-5.9-.72-1.871,0-2.662.072-2.95.288-.5.36-.576.935-.576,3.526v.5l.072,8.131c.072,7.555,1.079,9.282,5.4,9.785,3.31.432,3.6.5,3.6,1.3,0,.576-.5.791-2.015.791H323.2l-3.6-.288c-1.727-.144-3.094-.216-4.461-.216a10.627,10.627,0,0,0-1.511.072l-3.6.144-2.015.072h-.791a1.072,1.072,0,0,1-.935-.863c0-.648.5-.863,2.446-1.3,3.166-.648,4.029-4.029,4.029-15.47,0-2.3-.072-5.109-.144-8.49-.072-3.813-.144-6.4-.216-7.843l-.432-7.843c-.216-5.468-.863-6.476-4.173-7.051l-1.3-.216c-.791-.144-1.151-.432-1.151-.935q0-.863,1.079-.863l.216.072,1.8.072c.576.072,1.439.072,2.662.144,2.015,0,3.382.072,4.029.072,1.439,0,3.454-.072,6.044-.288q3.238-.216,5.181-.216c9.138,0,15.686,5.109,15.686,12.376,0,5.181-3.31,9.642-9.714,12.879Zm-6.835-.576c6.476,0,10.937-4.029,10.937-9.929,0-7.339-6.188-12.664-14.75-12.664-3.166,0-3.813,1.727-3.813,10,0,.432.072,2.087.144,4.965v3.022c.072,3.166.216,3.742,1.007,4.1C319.822,26.318,321.333,26.39,325.507,26.39Z" transform="translate(-173.839 -0.343)" fill="#d4c194"/>
    <path id="パス_89" data-name="パス 89" d="M433.687,54.738c-3.885,2.806-6.907,3.885-10.937,3.885-5.109,0-8.131-2.518-8.131-6.764,0-4.6,2.95-7.339,9.57-8.922l7.915-1.8a1.989,1.989,0,0,0,1.511-1.871c0-5.324-1.583-9.929-7.843-9.929-3.094,0-5.612,1.583-5.612,3.454a10.029,10.029,0,0,0,.36,2.3,5.745,5.745,0,0,1,.36,1.871c0,.648-.36.935-1.079.935-2.446,0-4.749-1.3-4.749-2.662,0-4.389,5.828-8.059,12.736-8.059,6.044,0,10.865,3.094,10.865,7.051,0,3.094-.288,11.944-.288,15.9S439.8,56.1,442.681,56.1c.432,0,.863-.288,1.439-.288.216,0,.36.144.36.432,0,1.079-2.231,2.015-4.677,2.015-2.662,0-3.67-.576-6.116-3.526ZM432.9,42.65a1.225,1.225,0,0,0-.5.072c-9.714,1.871-12.52,3.813-12.52,8.131,0,3.238,2.662,5.54,6.548,5.54,4.461,0,6.476-1.727,6.763-5.612.216-3.166.288-5.037.288-7.411,0-.5-.216-.72-.576-.72Z" transform="translate(-195.749 -5.45)" fill="#d4c194"/>
    <path id="パス_90" data-name="パス 90" d="M489.79,27.827c1.367.36,1.511.576,1.511,3.166V33.44c0,.935-.216,1.439-.648,1.439-.5,0-.719-.216-2.015-1.655a12.708,12.708,0,0,0-8.778-4.1c-5.253,0-8.346,4.173-8.346,11.225,0,8.706,5.324,14.678,13.023,14.678a11.891,11.891,0,0,0,8.059-3.31,1.87,1.87,0,0,1,1.151-.576c.288,0,.432.216.432.576a1.853,1.853,0,0,1-.5,1.151,17.266,17.266,0,0,1-12.448,5.684A14.973,14.973,0,0,1,466.19,43.369c0-9.57,7.339-16.549,17.484-16.549a25.157,25.157,0,0,1,6.116,1.007Z" transform="translate(-206.091 -5.378)" fill="#d4c194"/>
    <path id="パス_91" data-name="パス 91" d="M538.84,27.827c1.367.36,1.511.576,1.511,3.166V33.44c0,.935-.216,1.439-.648,1.439-.5,0-.72-.216-2.015-1.655a12.708,12.708,0,0,0-8.778-4.1c-5.253,0-8.346,4.173-8.346,11.225,0,8.706,5.324,14.678,13.023,14.678a11.892,11.892,0,0,0,8.059-3.31,1.87,1.87,0,0,1,1.151-.576c.288,0,.432.216.432.576a1.853,1.853,0,0,1-.5,1.151,17.267,17.267,0,0,1-12.448,5.684A14.973,14.973,0,0,1,515.24,43.369c0-9.57,7.339-16.549,17.484-16.549a25.158,25.158,0,0,1,6.116,1.007Z" transform="translate(-215.927 -5.378)" fill="#d4c194"/>
    <path id="パス_92" data-name="パス 92" d="M570.388,39.592a.7.7,0,0,0-.792.72,19.534,19.534,0,0,0,3.238,9.714,10.681,10.681,0,0,0,8.994,4.677,16.758,16.758,0,0,0,8.2-2.662,2.485,2.485,0,0,1,1.439-.576c.216,0,.36.216.36.576,0,.72-.792,1.655-2.806,3.238a14.742,14.742,0,0,1-9.714,3.31c-8.706,0-14.75-6.26-14.75-15.182S570.892,27,578.734,27c5.468,0,9.714,2.878,12.376,8.346a6.8,6.8,0,0,1,.72,2.374c0,.935-.72,1.367-2.159,1.439l-19.283.432Zm1.439-7.843a11.686,11.686,0,0,0-1.871,5.109c0,.36.144.72.648.72,3.382,0,6.835-.072,10.217-.144,3.885-.072,4.533-.216,4.533-1.367,0-1.583-1.151-3.67-2.734-5.253a7.4,7.4,0,0,0-5.181-2.3A6.737,6.737,0,0,0,571.827,31.749Z" transform="translate(-225.817 -5.414)" fill="#d4c194"/>
    <path id="パス_93" data-name="パス 93" d="M614.834,53.748c0-2.95-.072-3.67-.144-4.821,0-1.079.288-1.511.863-1.511.791,0,.935.216,1.439,2.3,1.007,4.245,4.245,7.051,8.131,7.051,4.1,0,6.979-2.231,6.979-5.4,0-2.806-2.087-4.749-6.62-6.4-8.2-2.878-10.433-4.893-10.433-9.282,0-4.893,4.533-8.418,10.865-8.418,3.67,0,6.692.648,6.907,1.511l.863,3.813a9.706,9.706,0,0,1,.216,1.439.984.984,0,0,1-1.007,1.007c-.432,0-.72-.216-1.007-.935a7.926,7.926,0,0,0-7.771-4.893c-3.454,0-5.324,1.439-5.324,4.1,0,3.022,1.007,3.67,9.426,6.476,4.965,1.655,7.411,4.533,7.411,8.85a9.951,9.951,0,0,1-10.073,10A35.232,35.232,0,0,1,618,57.274c-2.518-.72-3.166-1.079-3.166-1.511V53.748Z" transform="translate(-235.869 -5.468)" fill="#d4c194"/>
    <path id="パス_94" data-name="パス 94" d="M658.844,53.748c0-2.95-.072-3.67-.144-4.821,0-1.079.288-1.511.863-1.511.791,0,.935.216,1.439,2.3,1.007,4.245,4.245,7.051,8.131,7.051,4.1,0,6.979-2.231,6.979-5.4,0-2.806-2.087-4.749-6.62-6.4-8.2-2.878-10.433-4.893-10.433-9.282,0-4.893,4.533-8.418,10.865-8.418,3.67,0,6.692.648,6.907,1.511l.863,3.813a9.7,9.7,0,0,1,.216,1.439.984.984,0,0,1-1.007,1.007c-.432,0-.72-.216-1.007-.935a7.926,7.926,0,0,0-7.771-4.893c-3.454,0-5.324,1.439-5.324,4.1,0,3.022,1.007,3.67,9.426,6.476,4.965,1.655,7.411,4.533,7.411,8.85a9.951,9.951,0,0,1-10.073,10,35.231,35.231,0,0,1-7.555-1.367c-2.518-.72-3.166-1.079-3.166-1.511V53.748Z" transform="translate(-244.695 -5.468)" fill="#d4c194"/>
    <line id="線_2" data-name="線 2" x2="404.348" transform="translate(0 69.786)" fill="none" stroke="#bba579" stroke-miterlimit="10" stroke-width="5"/>
  </g>
</svg>
