<?xml version="1.0" encoding="UTF-8"?>
<svg id="_レイヤー_2" data-name="レイヤー 2" xmlns="http://www.w3.org/2000/svg" viewBox="0 0 640 298.16">
  <defs>
    <style>
      .cls-1, .cls-2, .cls-3, .cls-4 {
        fill: none;
      }

      .cls-1, .cls-3 {
        stroke: #fff;
        stroke-linecap: round;
        stroke-linejoin: round;
      }

      .cls-2 {
        stroke: #000;
        stroke-width: .83px;
      }

      .cls-2, .cls-4 {
        stroke-miterlimit: 10;
      }

      .cls-3 {
        stroke-dasharray: 0 0 .99 3.96;
      }

      .cls-5, .cls-6, .cls-7 {
        stroke-width: 0px;
      }

      .cls-4 {
        stroke: #e1e1e1;
        stroke-width: .99px;
      }

      .cls-6 {
        fill: #ac1063;
      }

      .cls-7 {
        fill: #fff;
      }
    </style>
  </defs>
  <g id="_レイヤー_1-2" data-name="レイヤー 1">
    <g>
      <path class="cls-5" d="m329.68,292.1c0,.96.06,3.19.08,3.63,0,.12.03.69.03.81,0,.41-.4.56-.64.56-.34,0-.34-.11-.33-1.1h-9.27c.02.41.02.69,0,.86-.04.46-.52.52-.66.52s-.32-.03-.32-.36c0-.12.03-.61.03-.72.03-1.14.04-2.31.04-3.45,0-.96,0-1.26-.18-1.92l1.32.43c.18.06.24.14.24.21,0,.15-.23.31-.52.51-.02.34-.02.65-.02,1.17,0,.64,0,.88.06,2.38h4.15c0-1.89,0-3.86-.01-5.74h-3.23c.02.59-.52.59-.6.59-.06,0-.31,0-.31-.24,0-.34.02-1.89.02-2.22s.02-.66.02-.99c0-1.05-.02-1.29-.21-1.89l1.33.46c.09.03.21.08.21.19,0,.23-.35.38-.48.44-.02.18-.02.33-.02.56,0,.63,0,.84.03,2.74h3.24c-.02-.57-.05-3.09-.05-3.6-.01-.75-.04-.91-.3-1.84l1.5.52c.15.06.23.11.23.19,0,.24-.41.42-.53.46-.01.56-.01.91,0,4.26h3.39c.04-3.24-.06-3.66-.19-4.23l1.36.45c.1.03.27.08.27.23s-.27.3-.54.43c-.02.56.06,2.98.06,3.48s-.51.52-.72.52c-.28,0-.28-.09-.27-.52h-3.36v.31l.02,5.34v.09h4.27c.02-1.25.02-1.56.02-2.04,0-1.82-.06-2.11-.24-2.58l1.35.43c.16.06.23.08.23.2,0,.18-.21.3-.5.45Z"/>
      <path class="cls-5" d="m345.8,293.74h-10.93c-.54,0-1.36.07-1.93.18l-.54-.64c.42.03,1.08.09,2.34.11,0-1.66.02-4.35-.02-6.03,0-.45-.06-.68-.19-1.07l1.35.69h1.5c0-.29.02-1.54-.01-1.8-.09-.72-.11-.75-.2-.96l1.29.32s.23.06.23.18c0,.17-.48.44-.52.46v1.8h1.75c0-.29.01-1.5-.02-1.74,0-.03-.05-.5-.13-.94l1.3.33c.1.01.16.04.16.15,0,.09-.03.15-.08.19-.06.05-.38.23-.43.27-.05.36-.05.41-.05.73v1.01h1.81l.38-.44c.12-.14.16-.15.21-.15.09,0,.15.06.23.12l.58.42c.1.08.17.11.17.21,0,.09-.05.12-.1.18-.13.12-.38.3-.46.36.02.9,0,4.89.02,5.7h.7l.5-.64s.13-.18.23-.18c.1,0,.23.12.27.16l.71.63c.15.13.15.21.15.24,0,.13-.12.15-.24.15Zm-8.5,1.69c-1.32.96-3.19,2.01-4.69,2.29l-.06-.11c1.92-.93,3.19-2.01,3.96-2.77.24-.24.32-.38.43-.62l1.02.78c.06.03.08.1.08.17,0,.18-.21.19-.73.25Zm.07-8.1h-1.86v2.71h1.86v-2.71Zm0,3.07h-1.86v2.97h1.86v-2.97Zm2.54-3.07h-1.75v2.71h1.78c0-.63,0-.84-.03-2.71Zm.03,3.07h-1.78v2.97h1.78v-2.97Zm4.08,7.18c-.32,0-.5-.22-.66-.45-.94-1.23-1.84-1.74-3.11-2.44v-.09c.47.1,1.94.39,2.9.91,1.32.72,1.38,1.38,1.38,1.48,0,.38-.19.58-.51.58Zm-1.29-7.18h-2.07l-.03,2.97h2.1v-2.97Zm0-3.07h-2.06c0,.9-.01,1.82-.01,2.71h2.07v-2.71Z"/>
      <path class="cls-5" d="m349.91,287.83c0-.38.28-.75.76-.75s.77.39.77.75c0,.39-.3.76-.77.76s-.76-.36-.76-.76Zm0,6.15c0-.39.28-.76.76-.76s.77.39.77.76-.3.75-.77.75-.76-.36-.76-.75Z"/>
      <path class="cls-5" d="m367.85,296.84c-.66-.24-2.17-1.29-2.17-1.29-1.38-.83-2.27-1.98-3.12-3.21.02.69.03,3.69.06,4.3,0,.08.02.41.02.46,0,.26-.03.39-.2.51-.19.13-.42.19-.51.19-.25,0-.3-.27-.3-.42,0-.12.01-.64.03-.75,0-.6.06-3.22.08-3.76-2.02,2.22-4.69,3.66-6.31,4.08l-.06-.1c1.79-.75,4.62-3.11,5.76-4.53h-2.31c0,.35-.03.42-.07.48-.14.18-.35.27-.57.27-.26,0-.27-.17-.27-.25,0-.04.01-.21.03-.27.06-.72.09-2.09.09-2.76,0-1.41-.03-1.59-.19-2.46l1.11.51h2.84c0-.23,0-.63-.02-1.53h-4.03c-.52,0-1.35.06-1.92.17l-.36-.65c1.12.09,2.22.12,2.49.12h3.81c-.03-.83-.08-1.48-.31-1.94l1.41.36c.09.03.23.06.23.16,0,.09-.04.15-.18.25-.12.11-.23.18-.3.24,0,.06-.02.61-.02.92h4.47l.5-.72c.08-.11.14-.18.21-.18.11,0,.21.09.29.15l.81.72c.07.06.15.14.15.23,0,.14-.14.16-.23.16h-6.19v1.53h2.76l.5-.39c.08-.06.1-.08.16-.08.04,0,.1.03.15.06l.65.48c.09.07.14.11.14.19,0,.08-.05.14-.14.2q-.21.13-.36.25c0,1.14,0,1.19.12,3.51.01.15.01.3.01.31,0,.25-.05.36-.25.46-.13.08-.28.11-.36.11-.3,0-.3-.21-.29-.63h-2.8c1.09,1.19,3.42,3.15,6.49,3.24v.14c-.84.21-1.02.45-1.48,1.14Zm-6.09-8.64h-2.96v1.62h2.96v-1.62Zm0,1.98h-2.96v1.79h2.96v-1.79Zm3.88-1.98h-3.09v1.62h3.09v-1.62Zm0,1.98h-3.09v1.79h3.09v-1.79Z"/>
      <path class="cls-5" d="m371.26,296.8c-.29,0-.54-.25-.54-.51,0-.31.25-.52.62-.83.31-.27.85-.73,1.17-1.69h.07c.02.14.04.32.04.51,0,.84-.43,2.52-1.36,2.52Zm11.52-8.71c-.21.12-.23.13-.33.23-.02.27-.02.55.02,1.5.02.23.1,2,.1,2.07,0,.45-.38.55-.63.55-.35,0-.36-.21-.35-.52h-7.03c-.52,0-1.35.06-1.92.18l-.36-.64c1.12.09,2.22.11,2.49.11h6.82v-1.58h-6.82c-.52,0-1.36.06-1.94.17l-.34-.65c1.12.09,2.21.12,2.49.12h6.61v-1.54h-8.73c-.81.69-1.46,1.08-1.89,1.34l-.06-.11c2.25-1.9,3.78-4.12,3.9-5.37l1.14.55c.15.08.23.14.23.24,0,.18-.16.23-.58.3-.14.16-.32.39-.39.5h3.72l.45-.42c.17-.15.21-.17.25-.17.09,0,.13.04.3.17l.63.49c.06.06.1.11.1.2,0,.12-.1.18-.15.18-.12.05-.66.15-.76.18-.29.24-1.56,1.35-1.83,1.56h3.42l.51-.42c.16-.14.18-.15.26-.15.09,0,.21.11.22.14l.42.36c.14.12.18.16.18.24,0,.09-.04.15-.15.21Zm-7.86-2.2c-.8.98-1.18,1.39-1.65,1.83h4.35c.15-.22.79-1.26.87-1.38.11-.18.14-.24.24-.45h-3.81Zm5.62,11.34c-.25.05-.44.08-.83.08-1.2.03-2.38.03-3.58.03s-1.59-.06-1.59-1.36c0-.24.03-1.29.03-1.5,0-.92-.06-1.35-.15-1.69l1.18.35c.24.07.26.15.26.19,0,.12-.15.21-.2.23-.17.11-.18.11-.3.22v2.27c0,.4.16.46.33.51.13.03,2.02.05,2.32.05,1.79,0,1.98-.24,2.15-.71.09-.24.29-.96.38-1.56h.12c.06.25.24,1.36.33,1.58.05.15.08.16.33.34.09.08.15.15.15.25,0,0-.01.57-.93.73Zm-2.13-2.47c-.31,0-.36-.12-.62-.69-.4-.89-.66-1.11-.9-1.32l.03-.08c1.23.21,1.98,1.02,1.98,1.54,0,.19-.07.54-.49.54Zm5.34,1.23c-.38,0-.45-.18-.68-.66-.39-.88-.58-1.33-1.27-1.83l.05-.09c1.74.5,2.39,1.48,2.39,2,0,.36-.18.58-.48.58Z"/>
      <path class="cls-5" d="m396.26,285.94c-1.26,1.55-3.36,3.45-4.65,4.27-1.6,1.02-4.44,2.2-5.47,2.28l-.06-.13c1.5-.53,3.99-1.91,5.04-2.66,1.19-.84,2.94-2.47,4.25-4.26h-3.72c-.45.56-.66.81-1.23,1.41.07.03.13.04.63.23.21.07,1.3.48,1.3,1.27,0,.36-.27.52-.49.52-.3,0-.45-.21-.66-.66-.34-.72-.38-.81-.88-1.26-1.35,1.4-2.82,2.17-3.54,2.57l-.06-.12c.54-.39,2.29-1.83,3.63-3.6,1.04-1.38,1.1-1.75,1.18-2.29l1.09.61c.12.08.16.11.16.21,0,.21-.19.25-.55.33-.14.21-.2.27-.3.42h3.5l.65-.43c.15-.11.16-.11.19-.11t.15.08l.89.59c.09.06.15.12.15.23,0,.25-.09.3-1.19.51Zm2.1,5.62c-1.58,1.8-3.35,3.51-4.94,4.5-.99.62-3.3,1.82-6.37,2.01l-.02-.13c1.73-.4,4.3-1.06,7.02-3.33,1.96-1.63,2.92-3,3.27-3.64h-3.51c-.87.8-1.42,1.24-1.95,1.62.5.14,2.06.81,2.06,1.73,0,.36-.3.56-.54.56-.29,0-.35-.18-.5-.56-.09-.21-.39-.87-1.15-1.63-.36.25-.77.51-1.15.73-1.2.69-2.34,1.18-3.45,1.41l-.03-.12c.42-.18,1.26-.56,2.1-1.05,1.91-1.14,3.65-2.88,4.21-3.49.86-.92.91-1.14,1.08-1.73l1.12.64s.15.11.15.21c0,.21-.15.23-.61.29-.18.23-.42.52-.96,1.03h3.24l.51-.37c.14-.11.15-.11.2-.11.06,0,.09.03.21.12l.84.65c.14.1.18.15.18.23,0,.25-.23.3-1,.45Z"/>
      <path class="cls-5" d="m414.08,286.19h-10.54c.02,1.83.06,5.05-.27,6.75-.27,1.35-.81,2.92-1.92,3.88l-.07-.04c1.26-1.85,1.47-4.54,1.47-7.46,0-.19-.01-3.12-.21-4.11l1.17.62h4.38c-.09-1.36-.1-1.44-.25-1.88l1.26.32c.06.02.16.06.16.18,0,.16-.04.19-.43.42,0,.29-.01.77-.01.96h3.57l.45-.63c.04-.06.14-.2.23-.2.08,0,.25.14.29.16l.82.64c.09.08.15.12.15.23,0,.13-.12.15-.23.15Zm.36,9.43h-5.49c.02.98,0,1.2-.18,1.48-.03.05-.31.48-1.03.68-.11-.63-.63-.98-1.31-1.16l.03-.09c.79.04.97.06,1.15.06.66,0,.66-.08.65-.98h-2.85c-.31,0-1.21.04-1.93.18l-.36-.65c.78.06,1.73.11,2.5.11h2.64c0-.16-.02-1.05-.02-1.25h-1.6c-.3,0-1.21.03-1.92.18l-.36-.64c.78.06,1.71.1,2.49.1h1.39v-1.02c-.81.09-1.65.15-2.46.15-.48,0-.96-.01-1.42-.07v-.1c.9,0,2.97-.35,3.93-.5.84-.13,2.23-.4,3.03-.93l.7.55c.08.04.09.12.09.19,0,.09-.03.2-.24.2-.08,0-.1,0-.46-.08-.41.1-.99.24-2.48.48v1.12h1.93l.32-.48c.09-.13.12-.21.21-.21.1,0,.23.11.3.17l.58.5c.08.07.15.13.15.22,0,.16-.16.16-.23.16h-3.27v1.25h3.79l.51-.58c.12-.15.2-.23.27-.23.1,0,.26.14.3.16l.71.63c.07.06.15.12.15.23,0,.15-.17.15-.23.15Zm-5.65-7.42h-1.65v.37c.48.11,1.32.36,1.32,1.01,0,.24-.13.39-.31.39-.25,0-.36-.25-.44-.46-.15-.36-.49-.77-.57-.83,0,.39.03,2.31.03,2.41,0,.15,0,.21-.05.27-.06.11-.21.21-.4.21-.3,0-.3-.21-.3-.48,0-.4.09-2.25.1-2.62-.66,1.04-1.48,1.95-2.5,2.62l-.07-.09c.73-.73,1.59-2.09,1.96-2.79-.42.03-.9.08-1.32.15l-.35-.64c.42.05,1.04.09,2.27.12-.03-.6-.08-.87-.21-1.36l1.05.28s.17.05.17.18c0,.09-.03.15-.39.32,0,.24.02.33.02.58h.75l.19-.33c.09-.15.14-.19.21-.19s.09.02.27.19l.3.3c.12.12.15.15.15.23,0,.13-.12.17-.23.17Zm5.59,2.17c-.21.11-.3.27-.38.39-1.41-.64-2.4-2.14-2.59-2.61h-.14v.83c0,.24.05,1.38.05,1.47,0,.16,0,.26-.07.31-.1.08-.27.15-.41.15-.21,0-.22-.2-.22-.36,0-.3.04-1.66.04-1.93-.23.39-1.06,1.62-2.54,2.29l-.04-.11c.91-.64,2-2.34,2.15-2.58-.42.04-.48.06-.66.09l-.36-.64c.72.06.94.08,1.42.09-.04-.93-.06-1.04-.12-1.27l.91.22c.09.02.19.04.19.17,0,.08-.08.15-.12.2-.04.03-.21.15-.25.18.02.06.02.48.02.52.16.02.36.02.45.02h1.23l.33-.39c.15-.16.17-.18.24-.18.06,0,.15.04.3.18l.42.36c.09.07.15.13.15.22,0,.14-.12.17-.23.17h-2.52c.84.91,2.07,1.71,3.49,1.85v.06c-.12.05-.65.27-.75.32Z"/>
      <path class="cls-5" d="m419.63,285.83s-.02.18-.02.19v4.98c-.01,1.75-.38,5.2-3.07,6.54l-.06-.09c1.5-1.38,2.34-2.98,2.34-8.73,0-1.37-.02-2.66-.19-4.02l1.44.45c.12.03.19.06.19.17,0,.13-.15.27-.63.51Zm4.06.17c0,3.9,0,4.33.07,8.44,0,.21.02,1.12.02,1.32,0,.54-.67.54-.71.54-.33,0-.33-.18-.33-.31,0-.08.06-.99.06-1.12.1-1.85.1-3.73.1-5.61,0-.75-.01-2.92-.07-3.56-.03-.24-.06-.46-.11-.66l1.2.31c.21.06.25.09.25.17,0,.16-.32.36-.49.48Zm4.66-.36v.27l-.03,4.92c0,.16.12,4.77.12,5.65,0,.52,0,.58-.15.7-.16.12-.46.19-.6.19-.24,0-.33-.12-.33-.33,0-.17.06-.84.06-.99.07-2.55.1-5.1.1-6.22,0-3.63-.12-4.42-.25-5.26l1.38.43c.16.06.22.1.22.2,0,.19-.25.31-.52.43Z"/>
      <path class="cls-5" d="m433.55,293.03c-.73,2.16-1.08,2.91-1.9,3.96l-.12-.04c.57-1.35,1.16-3.68,1.16-4.48,0-.14-.03-.35-.06-.48l1.2.46c.11.04.17.11.17.19,0,.2-.18.27-.44.39Zm3.38-5.95c-.79,1.2-2.56,3.27-2.67,3.39.21-.02,1.69-.12,2.07-.15-.24-.71-.43-.99-.55-1.15l.06-.08c.33.18,1.66.88,1.66,1.74,0,.31-.19.6-.45.6-.38,0-.46-.3-.66-.93l-1.27.3c-.03,1.48-.02,2.19-.02,2.59.02.54.09,3.39.09,3.54,0,.57-.35.72-.59.72-.33,0-.33-.24-.33-.34,0-.54.07-2.87.07-3.34s.05-2.56.06-3c-.91.21-1.5.32-1.96.36-.13.24-.19.31-.33.31-.06,0-.18-.04-.21-.18l-.25-1.15c.67.24,1.56.21,2.35.18.93-1.34,2.4-4.02,2.25-4.61l1.15.7c.12.07.14.15.14.23,0,.17-.15.21-.62.27Zm-1.75-1.85c-.72,1.02-.96,1.35-1.4,1.9.32.24.63.48.63.9,0,.3-.18.61-.46.61s-.42-.21-.77-.88c-.28-.54-.43-.81-.99-1.22l.03-.06c.21.03.64.09,1.39.54.14-.34.79-1.93.79-2.62,0-.1-.03-.27-.04-.38l1.27.65c.09.04.15.1.15.21,0,.15-.1.21-.61.34Zm1.63,9.24c-.34,0-.4-.18-.6-.83-.03-.11-.24-.75-.57-1.2l.03-.06c.85.48,1.59.93,1.59,1.56,0,.25-.15.52-.45.52Zm2.71-1.56c-1.09,2.27-2.05,3.29-3.34,3.88l-.02-.11c1.22-.97,2.22-2.77,2.6-4.24h-.83c-.24,0-.59.03-.82.07l-.15-.49c.27.03.84.06,1.06.06h.72l.16-.24c.04-.07.11-.12.16-.12.07,0,.13.06.18.09l.68.57c.07.06.1.12.1.19,0,.27-.3.31-.51.33Zm4.96,4c-1.57-1.27-2.59-2.56-3.21-4.53,0,.25.02.54.02.79.02.48.08,2.98.08,3.03,0,.63-.27.87-.44.99-.19.16-.48.36-.91.44-.18-.41-.32-.74-1.53-1.25l.03-.06c.29.02,1.26.04,1.39.04.46,0,.65,0,.65-.32v-4.8c0-.54,0-.6-.02-.72h-1.51c0,.16.01.48-.51.48-.36,0-.38-.16-.38-.3,0-.34.04-1.9.04-2.22,0-.39-.03-2.07-.03-2.42,0-.23-.02-.58-.06-.84l1.04.54h1.18c.11-.42.15-.96.15-1.23,0-.23-.03-.5-.09-.68l1.32.38c.13.05.19.14.19.24,0,.25-.27.29-.6.31-.1.15-.6.84-.71.98h2.19l.42-.45c.06-.06.16-.13.26-.13s.17.04.23.09l.61.45c.09.06.15.15.15.25,0,.18-.19.29-.52.46,0,.15.03,1.9.03,1.95.02.31.08,1.77.08,1.96,0,.45-.27.61-.58.61-.27,0-.35-.13-.29-.45h-2.07l.25.06c.16.05.27.14.27.21,0,.15-.18.28-.34.38,0,.11.23,1.12.84,2.17.25-.21,1.06-1.12,1.29-1.88l.94.65c.12.07.15.15.15.27,0,.19-.24.21-.59.18-.57.31-1.15.62-1.72.9.12.21.38.62.85,1.07.82.78,1.71,1.2,2.89,1.5v.06c-1.05.15-1.27.52-1.44.81Zm-1.32-10.77h-4.14v1.86h4.14v-1.86Zm0,2.22h-4.14v1.82h4.14v-1.82Z"/>
      <path class="cls-5" d="m447.62,294.65c-.27,0-.43-.23-.43-.53,0-.4.24-.55.64-.79,1.14-.69,1.68-1.55,2.27-2.49-.3,2.5-1.85,3.81-2.48,3.81Zm2.76-.2c.78.25,1.79.51,1.92.51.12,0,.17-.09.17-.1.08-.15.08-1.11.08-1.37,0-.52-.02-2.86-.02-3.34,0-.24.02-.6.02-.9-2.77.38-3.06.4-3.6.64-.28.13-.32.15-.4.15-.24,0-1.08-.62-1.08-1.52,0-.07,0-.17.04-.42.5.71.78.92,1.41.92.31,0,3.09-.18,3.63-.21,0-.6,0-2.49-.21-2.83-.14-.19-.46-.39-1.2-.46.33-.21.62-.38.93-.38.43,0,1.26.45,1.42.57.06.03.18.12.18.27,0,.1-.21.52-.24.62-.18.48-.19,1.03-.21,2.17,2.85-.18,3.1-.21,3.29-.24.09-.01.48-.15.55-.15.12,0,1.39.18,1.39.78,0,.18-.08.31-.27.31-.23,0-.87-.12-1.25-.2-.85-.17-2.08-.17-2.37-.17-.81,0-1.11.03-1.36.05v3.18c0,.39.07,2.13.07,2.47,0,.66-.02,1.16-.3,1.65-.15.27-.29.27-.36.27-.3,0-.36-.24-.42-.46-.04-.12-.15-.45-.33-.61-.17-.14-.75-.62-1.49-1.11v-.09Zm6.86-2.22c.28.24,1.06.9,1.06,1.62,0,.11-.03.58-.44.58-.23,0-.25-.04-.69-.73-.69-1.09-1.54-2.07-2.52-2.89.98.21,1.81.78,2.58,1.42Z"/>
      <path class="cls-5" d="m461.75,290.5c.21.06.36.06,1.68.06.27,0,5.23-.03,6.28-.15.29-.03.3-.03.48-.11.09-.03.18-.04.29-.04.08,0,1.39.15,1.39.58,0,.36-.39.36-.79.36-.23,0-1.64-.09-1.95-.09-.9,0-5.14.08-5.88.15-.18.02-.62.06-1.04.21-.29.11-.36.14-.46.14s-.2,0-.56-.44c-.1-.12-.44-.51-.44-1.08,0-.21.02-.39.12-.58.19.54.52.9.87.99Z"/>
      <path class="cls-5" d="m479.72,293.62c.48-.08,2.56-.4,2.98-.46-.38-.74-.67-1.27-2.02-2.92.48.22,1.14.54,2.25,1.89.85,1.05,1.53,2.11,1.53,3.04,0,.48-.29.73-.5.73-.3,0-.36-.23-.54-.88-.19-.69-.43-1.26-.55-1.52-.56.14-1.88.45-2.97.68-1.36.28-2.55.54-3.79.86-.02,0-.41.09-.42.11-.05.03-.23.22-.26.25-.06.06-.15.12-.24.12-.25,0-1.26-1.07-1.2-2.01.48.57.62.68,1.85.6,2.01-4.17,2.23-4.63,2.59-5.55.09-.23.52-1.41.52-1.69,0-.45-.59-.83-.91-1.04.2-.04.41-.07.56-.07.63,0,1.21.59,1.47.87.18.21.23.3.23.44,0,.15-.05.18-.36.46-.15.14-.24.33-.44.77-.43.96-2,4.02-3.16,5.76.54-.06,2.91-.36,3.39-.42Z"/>
      <path class="cls-5" d="m487.57,291.49c.24,0,.27-.03.93-.75.44-.46.95-1.02,1.28-1.41,1.35-1.63,1.62-1.81,2.13-1.81.36,0,.61.15,1.29.81.32.31,1.7,1.71,1.98,1.98,1.37,1.32,2.29,1.95,3.3,2.64.56.39.95.9.95,1.26,0,.19-.12.44-.36.44-.28,0-.57-.24-1.74-1.29-1.55-1.36-2.98-2.92-4.39-4.47-.5-.54-.74-.77-1.02-.77-.31,0-.57.08-2.46,2.65-.65.87-.69.93-.92,1.58-.1.29-.16.45-.5.45s-1.46-.72-1.46-1.65c0-.06.02-.13.05-.33.33.34.63.67.94.67Zm9.63-2.48c-.8,0-1.42-.63-1.42-1.42s.63-1.44,1.42-1.44,1.43.64,1.43,1.44-.63,1.42-1.43,1.42Zm0-2.35c-.51,0-.93.41-.93.91s.42.93.93.93.93-.41.93-.93-.42-.91-.93-.91Z"/>
      <path class="cls-5" d="m502.64,290.5c.21.06.36.06,1.68.06.27,0,5.23-.03,6.28-.15.29-.03.3-.03.48-.11.09-.03.18-.04.29-.04.08,0,1.4.15,1.4.58,0,.36-.39.36-.8.36-.23,0-1.64-.09-1.95-.09-.9,0-5.14.08-5.88.15-.18.02-.62.06-1.04.21-.29.11-.36.14-.46.14s-.2,0-.56-.44c-.1-.12-.44-.51-.44-1.08,0-.21.02-.39.12-.58.19.54.52.9.87.99Z"/>
      <path class="cls-5" d="m515.3,288.85c.73,0,1.79.09,2.21.38.46.31.66.74.66,1.06,0,.21-.07.32-.31.32-.21,0-1.23-.72-1.47-.85-.64-.36-1.19-.57-1.96-.84.28-.03.52-.06.88-.06Zm10.45-.36c-1.94,2.96-4.38,5.56-7.44,7.33-.21.12-.23.13-.45.42-.16.21-.29.28-.45.28s-.66-.36-.99-.76c-.29-.36-.4-.81-.35-1.5.78.84.95.96,1.19.96.66,0,4.31-2.21,8.43-6.82l.06.09Zm-8.91-3c.77,0,2.01.27,2.38.66.26.25.42.63.42.9,0,.25-.09.41-.29.41s-.27-.08-.9-.59c-.84-.69-1.31-.93-2.27-1.34.29-.03.44-.05.65-.05Zm7.56.85c.18.11.65.39.65.95,0,.28-.13.42-.31.42-.17,0-.19-.04-.54-.46-.82-1.01-1.27-1.29-1.57-1.5.33.01.84.04,1.78.6Zm2.02-.42c0,.25-.18.36-.33.36-.16,0-.18,0-.59-.45-.44-.46-1.02-.83-1.71-1.21,2.04-.03,2.62.86,2.62,1.3Z"/>
      <path class="cls-5" d="m533.12,298.16c-.75-.6-3.49-3.16-3.49-7.26s2.74-6.66,3.49-7.26l.15.21c-2.44,2.54-2.98,5.31-2.98,7.05s.54,4.51,2.98,7.05l-.15.21Z"/>
      <path class="cls-5" d="m540.86,296.6h-5.96v-.4c.87-1.86,2.04-3.11,3.39-4.48.94-.96,2.04-2.16,2.04-3.81,0-.78-.27-2.07-1.98-2.07-1.31,0-1.94.71-1.94,1.19,0,.15.08.34.13.45.18.41.18.57.18.69,0,.52-.33.77-.73.77-.52,0-.69-.38-.69-.84,0-1.37,1.27-2.7,3.25-2.7,1.78,0,2.92,1.08,2.92,2.77,0,1.01-.36,1.6-1.11,2.46-.36.42-2.21,2.02-2.56,2.37-.2.19-1.31,1.32-2.01,2.61h3c1.77,0,2.23-1.29,2.5-2.02l.29.07-.73,2.96Z"/>
      <path class="cls-5" d="m546.05,296.89c-2.12,0-3.38-2.7-3.38-5.76s1.23-5.75,3.38-5.75,3.37,2.7,3.37,5.75-1.26,5.76-3.37,5.76Zm0-11.08c-1.14,0-2.27,1.43-2.27,5.33s1.15,5.34,2.27,5.34c1.05,0,2.26-1.23,2.26-5.34s-1.21-5.33-2.26-5.33Z"/>
      <path class="cls-5" d="m556.46,296.6h-5.96v-.4c.87-1.86,2.04-3.11,3.39-4.48.94-.96,2.04-2.16,2.04-3.81,0-.78-.27-2.07-1.98-2.07-1.31,0-1.94.71-1.94,1.19,0,.15.08.34.13.45.18.41.18.57.18.69,0,.52-.33.77-.73.77-.52,0-.69-.38-.69-.84,0-1.37,1.27-2.7,3.25-2.7,1.78,0,2.92,1.08,2.92,2.77,0,1.01-.36,1.6-1.11,2.46-.36.42-2.21,2.02-2.57,2.37-.19.19-1.31,1.32-2.01,2.61h3c1.77,0,2.23-1.29,2.5-2.02l.29.07-.73,2.96Z"/>
      <path class="cls-5" d="m564.94,293.72c0,1.71-1.48,3.17-3.57,3.17-1.84,0-3-1.16-3-2.19,0-.48.24-.89.73-.89s.72.44.72.81c0,.16-.13.6-.13.72,0,.38.54,1.03,1.6,1.03,1.34,0,2.42-1.07,2.42-2.71,0-1.54-.92-2.65-2.43-2.65-.08,0-.48.04-.57.04s-.4,0-.4-.31c0-.23.18-.27.39-.27.07,0,.48.04.57.04.84,0,2.22-.71,2.22-2.43,0-1.45-1-2.19-1.99-2.19-.9,0-1.41.57-1.41,1.02,0,.07.04.45.04.54,0,.34-.16.88-.7.88-.43,0-.62-.4-.62-.79,0-1.11,1.29-2.16,2.82-2.16,1.68,0,3.04,1.06,3.04,2.56,0,1.08-.85,2.36-2.62,2.77,2.23.3,2.9,1.96,2.9,3Z"/>
      <path class="cls-5" d="m579.58,293.53h-5.65c.02,1.14.02,1.26.03,1.65,0,.3.06,1.69.06,1.96,0,.24-.06.75-.69.75-.33,0-.33-.18-.33-.52,0-.05.08-2.79.08-2.89,0-.21,0-.29.02-.94h-4.34c-.54,0-1.36.06-1.93.16l-.36-.64c1.12.09,2.22.12,2.5.12h.6v-.9c0-1.72,0-2.14-.02-2.32-.03-.39-.1-.84-.15-1.17l1.2.73h2.52v-2.91h-2.73c-.66.97-1.62,2.32-3.79,3.57l-.09-.09c1.38-1.17,2.5-2.61,3.38-4.18.71-1.26.73-1.68.76-2.01l1.29.7c.14.08.15.18.15.23,0,.29-.6.32-.72.33-.29.45-.48.73-.73,1.09h6.16l.58-.69c.15-.16.17-.19.24-.19s.22.1.27.17l.86.69c.07.06.15.12.15.24,0,.14-.12.15-.23.15h-4.75v2.91h2.35l.48-.65s.13-.18.21-.18c.09,0,.25.14.29.15l.82.66c.08.04.15.12.15.23,0,.14-.12.15-.22.15h-4.08v.52c0,1.25,0,1.38.02,2.77h3.73l.65-.72c.15-.16.16-.18.23-.18.09,0,.25.14.28.15l.85.72c.08.06.14.12.14.23,0,.13-.12.17-.23.17Zm-9.22-3.66v3.3h2.73c.01-.75.03-2.65.03-3.3h-2.76Z"/>
      <path class="cls-5" d="m584.71,295.88c0,.28-.02,1-.81,1-.35,0-.74-.12-.74-.95,0-1.83,2.33-5.97,4.21-9.31h-3.45c-1.35,0-1.77,1.09-2.13,2.14l-.31-.04.64-3.08h6.01v.51c-1.9,3.22-3.4,6.03-3.43,9.72Z"/>
      <path class="cls-5" d="m598.1,284.93l.42-.35c.21-.16.24-.19.3-.19.08,0,.2.09.24.13l.6.48c.06.05.15.12.15.21,0,.12-.06.17-.63.62-.04,1.29,0,5.26.02,6.8,0,.39.06,2.11.06,2.47,0,1.44,0,2.19-2.1,2.54-.06-.47-.22-.72-1.24-1.33l.03-.12c.52.09,1.05.13,1.58.13s.76-.09.78-.78c.03-1.23.03-2.65.03-3.75h-5.37c-.27,2.58-1.29,4.89-3.59,6.06l-.06-.11c2.71-1.92,2.88-6.04,2.88-9.73,0-2.58-.14-3.13-.29-3.72l1.32.64h4.88Zm-5.01,3.63c0,.93-.03,1.93-.1,2.86h5.34v-2.86h-5.23Zm0-3.27v2.91h5.23v-2.91h-5.23Z"/>
      <path class="cls-5" d="m608.12,285.67h-2.41v3.72h.82l.51-.51c.11-.11.17-.2.24-.2.09,0,.18.08.27.16l.6.53c.06.04.15.12.15.22,0,.15-.17.15-.23.15h-2.37v3.66c.67-.21.75-.23,1.47-.44.62-.18.78-.24,1.02-.33l.06.14c-.64.33-4.02,1.89-4.98,2.26-.16.44-.19.48-.28.48-.15,0-.21-.12-.24-.19l-.57-1.25c.18.03.4.06.6.06.18,0,.28-.02.85-.16.61-.17.69-.18,1.23-.33v-3.9c-.42,0-1.27.06-1.91.18l-.36-.64c.79.06,1.29.09,2.27.1v-3.72c-.75,0-1.52.08-2.07.18l-.36-.64c.79.06,1.71.1,2.5.1h1.7l.48-.45c.11-.09.16-.18.24-.18s.21.09.27.15l.57.45c.06.05.15.14.15.23,0,.14-.1.16-.22.16Zm7.27,11.52c-.28.12-1.05.12-1.59.12-1.86,0-1.88,0-1.88-1.2v-3.34h-1.57l.87.73c.09.08.1.12.1.16,0,.15-.16.19-.28.23-.06.02-.31.08-.38.08-1.31,1.93-2.77,3.45-6.07,3.85v-.13c3.25-.77,5.31-3.5,5.56-4.92h-.4c.03.38-.29.57-.59.57-.12,0-.25-.06-.25-.28,0-.24.03-1.32.03-1.53.02-1.32.03-2.64.03-3.97,0-1.02,0-2.04-.15-3.04l1.19.51h3.31l.35-.32c.11-.11.18-.15.27-.15s.21.08.28.14l.51.42c.09.07.15.13.15.23s-.42.36-.64.51c0,1.4,0,3.27.03,4.09.02.42.1,2.31.1,2.69,0,.54-.46.61-.63.61-.24,0-.3-.12-.3-.46h-.7v2.52c0,.99,0,1,.02,1.05.07.19.51.19,1,.19.78,0,.98-.04,1.21-.7.08-.21.27-.78.38-1.49h.1c.03.2.12,1.04.15,1.22.06.3.1.55.35.69.11.06.15.09.15.18,0,.26-.36.63-.71.77Zm-1.95-11.82h-3.7v2.09h3.7v-2.09Zm0,2.44h-3.7v2.11h3.7v-2.11Zm0,2.47h-3.7v2.12h3.7v-2.12Z"/>
      <path class="cls-5" d="m630.68,287.11h-7.41c-.66,1.35-1.18,2.08-1.66,2.77-.02,1.45-.02,1.6-.04,3.23-.02,1.06-.03,2.16-.03,3.22,0,.15.03.77.03.88,0,.38-.36.54-.69.54-.15,0-.28-.05-.28-.3,0-.02,0-.11.02-.24.19-3.03.19-3.42.19-6.31-.83.98-1.96,2.1-3.43,2.88l-.06-.11c1.29-1.12,2.5-2.34,3.5-3.73,0-.67,0-1-.04-1.53l.84.34c.45-.77.69-1.29.86-1.65h-2.27c-.52,0-1.36.06-1.93.16l-.35-.64c1.12.09,2.21.12,2.49.12h2.21c.35-.83.72-1.96.72-2.48,0-.15-.03-.28-.05-.4l1.38.61c.06.03.12.09.12.21,0,.21-.16.27-.63.36-.24.64-.42,1.11-.69,1.69h5.44l.57-.72c.06-.07.14-.18.23-.18.08,0,.19.07.29.15l.78.72c.09.08.15.14.15.23,0,.14-.13.17-.22.17Zm.4,9.72h-6.82c-.52,0-1.35.06-1.92.16l-.36-.64c1.12.09,2.22.12,2.49.12h1.12c-.03-.63-.03-.99-.03-1.49,0-.52.03-2.88.02-3.36h-.85c-.52,0-1.35.06-1.92.16l-.36-.64c1.12.09,2.22.12,2.49.12h.64c0-1-.06-1.95-.09-2.43-.04-.5-.1-.64-.18-.83l1.39.39c.14.04.25.09.25.21s-.18.33-.52.51c-.02.24-.03.32-.03.98v1.17h2.2l.47-.54c.15-.16.16-.18.24-.18.06,0,.08.01.27.15l.77.54s.15.12.15.22c0,.14-.14.16-.23.16h-3.88c-.02,1.22-.04,3.33-.02,4.85h2.92l.54-.66c.17-.17.18-.18.24-.18.07,0,.23.11.28.15l.81.66c.06.06.14.12.14.23,0,.13-.12.17-.23.17Z"/>
      <path class="cls-5" d="m633.13,297.95c2.44-2.54,2.98-5.31,2.98-7.05s-.54-4.51-2.98-7.05l.15-.21c.75.6,3.49,3.18,3.49,7.26s-2.74,6.66-3.49,7.26l-.15-.21Z"/>
    </g>
    <rect class="cls-6" y="0" width="640" height="269.3"/>
    <g>
      <g>
        <path class="cls-7" d="m49.72,112.02v31.04h-1.5v-32.58h11.88v1.54h-10.38Z"/>
        <path class="cls-7" d="m84.05,113.99c-.04-2.11-.21-2.76-.5-3.54l3.4.82c.29.07.5.18.5.5,0,.47-.21.57-1.04,1.04v1.18h6.3l1.15-1.61c.11-.18.32-.47.54-.47.18,0,.47.25.64.39l2.08,1.61c.21.14.36.32.36.54,0,.36-.32.39-.54.39h-10.52c.07,1.72.07,1.9,0,2.11-.14.61-.89.86-1.54.86-.47,0-.82-.21-.86-.68,0-.14-.04-1.54,0-2.29h-6.16c0,.43.11,2.33.11,2.72,0,.86-.93,1.15-1.72,1.15-.54,0-.75-.29-.75-1,0-.47.07-2.47.07-2.86h-4.15c-.32,0-2.54,0-4.19.32l-.72-1.43c1.83.18,3.65.25,5.48.25h3.54c-.07-2.26-.32-2.9-.54-3.47l3.51.79c.21.04.43.18.43.43,0,.54-.32.72-1.04,1.15-.04.57-.04.75-.04,1.11h6.19Zm-17.4,10.17c5.01.43,5.01,2.65,5.01,3.01,0,.54-.29,1.4-1.29,1.4-.79,0-1-.36-1.83-1.75-.75-1.29-1.29-2-1.93-2.4l.04-.25Zm8.38-.18c-.36,1.68-.79,3.33-2.58,8.31-.86,2.47-1.25,3.58-1.25,4.3,0,.64.36,1.32.68,2.04.25.57.54,1.32.54,2.29,0,.64-.14,2.08-1.65,2.08s-1.58-1.5-1.58-2.26c0-1.5.04-2.58-.11-3.15-.32-1.15-1.15-2.43-2.25-2.76v-.29c2.08.07,2.04.04,3.26-1.97.36-.61,2.4-4.04,4.73-8.73l.21.14Zm-5.19-6.34c1.75.25,4.83.72,4.83,3.08,0,.86-.68,1.29-1.32,1.29-.97,0-1.32-.79-1.68-1.54-.47-1-1.11-2.08-1.86-2.58l.04-.25Zm24.13,3.15l1.04-1.5c.18-.25.36-.5.57-.5s.47.21.64.39l1.68,1.54c.21.18.36.32.36.54,0,.36-.32.39-.57.39h-10.85v3.11h5.05l.93-.97c.11-.14.29-.29.43-.29.29,0,.64.29.79.39l1.47,1.25c.14.14.36.36.36.61,0,.36-.5.64-1.25,1.07-.07,1.61,0,4.58.07,8.34,0,.64.14,3.36.14,3.94,0,1.07,0,3.01-3.58,3.72-.36-1.18-.64-2.22-2.43-3.22v-.21c.93.07,1.79.07,2.33.07,1.15,0,1.18-.18,1.18-.97v-3.87h-5.41c0,1.07.14,5.76.14,6.73,0,.47,0,1.65-1.65,1.65-.97,0-.97-.57-.97-1.15,0-.86.07-4.65.07-5.44v-1.79h-4.8c.04,1.4.11,4.51.11,5.8,0,.89,0,2.08-1.79,2.08-.72,0-.9-.25-.9-1.47,0-.14.18-8.16.18-9.34,0-2,0-6.8-.32-8.34l3.04,1.4h4.47c0-.18-.04-3.01-.04-3.11h-4.08c-.64,0-2.51,0-4.22.32l-.72-1.43c2.61.21,4.9.25,5.51.25h3.51c-.04-1.68-.18-2.08-.36-2.83l3.44.86c.21.07.43.18.43.47,0,.43-.29.57-1.15,1v.5h7.12Zm-9.45,8.52v-3.69h-4.8v3.69h4.8Zm0,4.47v-3.62h-4.8v3.62h4.8Zm2.33-8.16v3.69h5.48v-3.69h-5.48Zm0,4.55c0,.82.04,2.61.07,3.62h5.41v-3.62h-5.48Zm1.47-13.75c1.4.04,4.65.14,4.65,2.26,0,.39-.21,1.22-1.29,1.22-.68,0-.82-.21-1.65-1.4-.75-1.11-1.04-1.4-1.72-1.86v-.21Z"/>
        <path class="cls-7" d="m128.91,114.14l1-.93c.21-.18.32-.39.54-.39s.36.14.54.25l1.93,1.43c.21.18.39.32.39.61,0,.5-1.18,1.04-1.5,1.18-.11,3.51-.04,13.78.14,19.62,0,.54.21,3.08.21,3.58,0,1.47-1.25,1.86-2.04,1.86-1.15,0-1.07-.64-1-2.08h-20.26c0,.21,0,1.29-.04,1.43-.25.82-1.32,1.11-1.93,1.11-.5,0-1.07-.21-1.07-1,0-.43.11-2.26.11-2.65.14-5.19.25-10.38.25-15.54,0-7.02-.18-8.27-.5-10.35l3.4,1.86h19.83Zm-20.05.86v11.1h8.77v-11.1h-8.77Zm0,11.96v11.46h8.77v-11.46h-8.77Zm20.26-.86v-11.1h-9.02v11.1h9.02Zm0,12.31v-11.46h-9.02v11.46h9.02Z"/>
        <path class="cls-7" d="m140.22,142.77v-1.54h10.38v-31.04h1.5v32.58h-11.88Z"/>
        <path class="cls-7" d="m160.63,140.05c-.75,0-1.18-.54-1.18-1.32,0-.68,1.22-3.51,1.36-4.12s.11-1.11.07-1.54l.32-.04c.61,1,1.32,2.36,1.32,4.26,0,.97-.29,2.76-1.9,2.76Zm13.21-10.42c-.5,5.58-1.61,8.59-2.18,9.88-.82,1.79-2.11,2.51-3.87,2.97-.47-2.22-2.18-3.19-2.94-3.54l.07-.25c2,.39,3.36.39,3.47.39.72,0,1-.07,1.4-.93,1.04-2.33,1.57-6.98,1.57-9.34h-7.98c.04.57-.04,1.75-1.54,1.75-.72,0-.9-.36-.9-.97,0-.21.07-1.07.07-1.25.14-2.25.18-8.48.18-10.95,0-1.25,0-3.83-.36-5.94l2.68,1.32h6.66l.86-1.04c.25-.29.43-.47.61-.47.21,0,.39.18.72.39l1.4,1.04c.25.18.39.43.39.57,0,.25-.32.36-.57.36h-4.94v4.15h1.54l.68-.86c.29-.36.39-.5.57-.5s.39.18.72.39l1.15.86c.18.14.39.32.39.57,0,.32-.32.39-.57.39h-4.47v4.12h1.57l.86-1c.25-.29.39-.43.57-.43.21,0,.36.11.64.36l1.07,1c.21.18.32.43.32.57,0,.21-.21.36-.54.36h-4.51v4.33h2.4l.93-1.04c.21-.25.39-.43.57-.43s.39.14.72.47l1.4,1.29c.14.14.25.29.25.47,0,.43-.82.82-1.07.93Zm-9.06,8.88c-1.18,0-1.18-1.5-1.18-2.26,0-2.22,0-2.97-.39-3.94l.21-.11c.25.29,1.54,1.58,1.72,1.9.86,1.32,1,2.25,1,2.76,0,1.04-.79,1.65-1.36,1.65Zm1.72-24.88h-3.15v4.15h3.15v-4.15Zm0,5.01h-3.15v4.12h3.15v-4.12Zm0,4.98h-3.15v4.33h3.15v-4.33Zm1.25,12.57c-.93,0-1.04-.61-1.32-2.65-.11-.79-.29-1.72-.68-2.61l.14-.11c1.9,1.65,2.97,2.61,2.97,4.01,0,.61-.36,1.36-1.11,1.36Zm2-2.65c-.72,0-.86-.57-1.25-2-.29-.93-.57-1.32-.82-1.65l.21-.21c1.68.79,2.76,1.54,2.76,2.72,0,.57-.32,1.15-.9,1.15Zm23.7,6.59c-1.72.11-2.97,1.61-3.4,2.11-4.01-3.26-6.98-9.41-6.98-17.86h-3.83c-.36,8.81-2.11,14.21-7.34,17.97l-.18-.14c5.01-5.44,5.19-15.43,5.19-22.87,0-4.44-.25-5.62-.61-7.59l3.4,1.5h7.37l1.04-1c.21-.21.39-.32.57-.32s.32.07.61.32l1.43,1.22c.21.18.32.36.32.57,0,.25-.68.75-1.11,1.04-.04.61-.07,1.29-.07,2.26,0,1.15.21,6.16.21,7.27s-1.11,1.43-1.68,1.43c-1.15,0-1.07-.79-1.04-1.65h-3.65c.82,7.8,5.98,14,9.77,15.54l-.04.21Zm-6.05-26.02h-7.95c-.04,1.36-.18,7.95-.18,9.41h8.13v-9.41Z"/>
        <path class="cls-7" d="m213.88,135.27c-.82,0-4.62-2.64-6.06-3.96-.58-.52-3.58-3.24-4.16-3.78-.1-.08-.38-.28-.76-.28-.82,0-2.5,1.98-3.34,2.98-1.14,1.34-1.28,1.5-1.66,1.5-.72,0-1.84-.78-1.84-1.72,0-.08.02-.18.04-.32.2.12.58.36,1.08.36.62,0,1.48-.72,2.14-1.32.34-.3,1.78-1.62,2.08-1.86.58-.46,1.02-.72,1.56-.72.7,0,1.18.38,1.74.92,3.8,3.52,4.82,4.06,8.42,5.96.36.18,1.38.72,1.38,1.64,0,.58-.44.6-.62.6Z"/>
      </g>
      <g>
        <path class="cls-7" d="m496.54,128.85c2.29,1.94,3.38,4.43,3.38,7.36,0,6.12-5.02,10.49-11.59,10.49-5.37,0-9.9-3.03-9.9-7.01,0-2.19,1.44-3.18,2.83-3.18,1.69,0,2.44,1.44,2.44,2.49,0,.75-.15,1.19-.3,1.59-.1.3-.15.65-.15,1.14,0,1.89,2.14,3.28,4.48,3.28,3.83,0,7.71-3.78,7.71-8.8s-3.78-9.1-7.76-9.1c-.3,0-1.69.2-1.99.2-.75,0-1.09-.45-1.09-1.04,0-.65.5-1.14,1.14-1.14.3,0,1.79.3,2.14.3,4.18,0,6.81-3.73,6.81-7.76s-2.34-7.46-6.27-7.46c-2.64,0-4.03,1.89-4.03,3.33,0,.25.1.5.15.75.1.35.15.85.15,1.19,0,1.54-1.14,2.74-2.54,2.74-1.64,0-2.49-1.44-2.49-2.74,0-2.73,3.18-6.96,9.55-6.96s9.95,3.98,9.95,8.35c0,1.74-.65,3.43-1.84,5.07-2.04,2.69-4.28,3.53-6.32,4.23,2.29.7,3.78,1.19,5.52,2.69Z"/>
        <path class="cls-7" d="m507.03,145.26c-.75,0-1.18-.54-1.18-1.32,0-.68,1.22-3.51,1.36-4.12s.11-1.11.07-1.54l.32-.04c.61,1,1.32,2.36,1.32,4.26,0,.97-.29,2.76-1.9,2.76Zm13.21-10.42c-.5,5.58-1.61,8.59-2.18,9.88-.82,1.79-2.11,2.51-3.87,2.97-.47-2.22-2.18-3.19-2.94-3.54l.07-.25c2,.39,3.36.39,3.47.39.72,0,1-.07,1.4-.93,1.04-2.33,1.57-6.98,1.57-9.34h-7.98c.04.57-.04,1.75-1.54,1.75-.72,0-.9-.36-.9-.97,0-.21.07-1.07.07-1.25.14-2.25.18-8.48.18-10.95,0-1.25,0-3.83-.36-5.94l2.68,1.32h6.66l.86-1.04c.25-.29.43-.47.61-.47.21,0,.39.18.72.39l1.4,1.04c.25.18.39.43.39.57,0,.25-.32.36-.57.36h-4.94v4.15h1.54l.68-.86c.29-.36.39-.5.57-.5s.39.18.72.39l1.15.86c.18.14.39.32.39.57,0,.32-.32.39-.57.39h-4.47v4.12h1.57l.86-1c.25-.29.39-.43.57-.43.21,0,.36.11.64.36l1.07,1c.21.18.32.43.32.57,0,.21-.21.36-.54.36h-4.51v4.33h2.4l.93-1.04c.21-.25.39-.43.57-.43s.39.14.72.47l1.4,1.29c.14.14.25.29.25.47,0,.43-.82.82-1.07.93Zm-9.06,8.88c-1.18,0-1.18-1.5-1.18-2.26,0-2.22,0-2.97-.39-3.94l.21-.11c.25.29,1.54,1.58,1.72,1.9.86,1.32,1,2.25,1,2.76,0,1.04-.79,1.65-1.36,1.65Zm1.72-24.88h-3.15v4.15h3.15v-4.15Zm0,5.01h-3.15v4.12h3.15v-4.12Zm0,4.98h-3.15v4.33h3.15v-4.33Zm1.25,12.57c-.93,0-1.04-.61-1.32-2.65-.11-.79-.29-1.72-.68-2.61l.14-.11c1.9,1.65,2.97,2.61,2.97,4.01,0,.61-.36,1.36-1.11,1.36Zm2-2.65c-.72,0-.86-.57-1.25-2-.29-.93-.57-1.32-.82-1.65l.21-.21c1.68.79,2.76,1.54,2.76,2.72,0,.57-.32,1.15-.89,1.15Zm23.7,6.59c-1.72.11-2.97,1.61-3.4,2.11-4.01-3.26-6.98-9.41-6.98-17.86h-3.83c-.36,8.81-2.11,14.21-7.34,17.97l-.18-.14c5.01-5.44,5.19-15.43,5.19-22.87,0-4.44-.25-5.62-.61-7.59l3.4,1.5h7.37l1.04-1c.21-.21.39-.32.57-.32s.32.07.61.32l1.43,1.22c.21.18.32.36.32.57,0,.25-.68.75-1.11,1.04-.04.61-.07,1.29-.07,2.26,0,1.15.21,6.16.21,7.27s-1.11,1.43-1.68,1.43c-1.15,0-1.07-.79-1.04-1.65h-3.65c.82,7.8,5.98,14,9.77,15.54l-.04.21Zm-6.05-26.02h-7.95c-.04,1.36-.18,7.95-.18,9.41h8.13v-9.41Z"/>
        <path class="cls-7" d="m551.93,123.93c1.04-.65,2.59-1.29,4.33-1.29,4.92,0,8.9,4.97,8.9,10.99,0,6.91-4.92,13.08-10.64,13.08s-11.44-6.42-11.44-17.16c0-11.49,6.46-21.04,14.07-21.04,3.33,0,5.67,1.99,5.67,4.38,0,1.79-1.39,2.59-2.54,2.59-.99,0-2.64-.65-2.74-3.48-.05-1.09-.15-1.79-1.49-1.79s-2.69.75-3.63,1.79c-4.43,4.87-4.67,12.18-4.87,16.66.94-1.54,1.99-3.28,4.38-4.72Zm-1.64,18.4c.85,1.34,2.14,2.68,4.03,2.68,2.64,0,6.37-2.73,6.37-10.94,0-2.24-.55-9.2-5.67-9.2-1.89,0-5.07,1.39-7.41,6.76.2,2.74.6,7.51,2.69,10.69Z"/>
        <path class="cls-7" d="m581.85,120.74c-2.97,6.09-8.38,10.67-11.1,12.17l-.18-.25c5.01-5.69,7.84-10.7,8.66-13.1.32-.89.47-1.61.57-2.29l3.08,2.08c.18.11.47.32.47.57,0,.43-.93.68-1.5.82Zm12.99,11.2c-.36,12.89-1.07,15.5-7.52,16.07-.14-2.26-1.9-3.44-2.68-3.94l.04-.25c1.5.32,3.04.61,4.15.61,1.72,0,2.4-.39,2.94-3.65.43-2.65.64-8.63.54-10.31h-7.23c-.21,5.62-2.61,15.32-13.89,17.4l-.07-.29c7.27-3.37,10.95-8.77,11.31-17.11h-1.04c-.89,0-2.61.04-4.22.36l-.68-1.43c2.22.18,4.4.21,5.48.21h10.13l.97-.86c.21-.21.43-.39.64-.39.18,0,.36.18.5.32l1.43,1.57c.18.18.32.39.32.57,0,.32-.11.39-1.11,1.11Zm6.52-.04c-3.83-1.65-8.09-5.51-10.77-13.6h-2.86c-1.79,0-2.51.14-3.01.21l-.47-1.25c1.61.14,3.19.18,3.9.18h1.79l1.15-1.15c.32-.32.47-.39.64-.39.21,0,.36.18.61.39l1.32,1.29c.21.18.29.32.29.54,0,.72-1.65,1-2.29,1.11,1.72,4.62,7.66,9.2,13.14,9.59l.04.36c-2,.61-2.83,1.75-3.47,2.72Z"/>
      </g>
      <g>
        <path class="cls-7" d="m49.72,48.15v31.04h-1.5v-32.58h11.88v1.54h-10.38Z"/>
        <path class="cls-7" d="m97.79,51.2h-14.78v5.87c3.54.61,8.98,2.61,8.98,6.09,0,1.22-.86,1.68-1.5,1.68-.93,0-1.22-.47-2.51-2.54-1.25-2-3.4-3.94-4.98-4.8.04,8.13.04,9.02.21,17.25,0,.25.04,1.43.04,1.68,0,1.4-.93,1.86-1.93,1.86-1.22,0-1.22-.79-1.22-1.18,0-1.04.25-6.12.29-7.27.07-2.83.07-4.4.07-18.65h-8.7c-.93,0-2.61.04-4.19.32l-.72-1.43c1.83.14,3.65.25,5.51.25h19.9l2-1.93c.25-.21.47-.39.57-.39.21,0,.43.14.68.36l2.47,1.9c.14.11.36.32.36.54,0,.36-.36.39-.57.39Z"/>
        <path class="cls-7" d="m135.74,77.54c-1.11.5-2.72.54-6.05.54-2.9,0-5.08-.07-5.08-3.29,0-2.97.82-16.07.93-18.76h-5.8c-.39,3.47-.68,5.69-1.4,8.27.86.5,4.37,2.65,4.37,4.73,0,.18,0,1.4-1.43,1.4-.61,0-.86-.29-1.11-.57-1.54-1.79-1.93-2.18-2.61-2.9-2.04,5.62-5.69,8.63-8.02,10.09-2.18,1.4-3.87,1.9-4.9,2.26l-.11-.21c7.09-4.12,9.88-9.81,11.1-13.96-2.68-2.36-4.51-3.15-5.33-3.54v-.21c1.86.29,3.51.75,5.84,1.79.68-2.9.89-5.51.97-7.12h-6.12c-.64,0-2.47,0-4.22.32l-.68-1.4c2.22.18,4.44.21,5.48.21h5.62c.04-1.65.18-5.84-.64-8.98l4.4,1.29c.11.04.36.21.36.5s-.21.47-1.11,1.18c-.07,3.36-.29,5.48-.32,6.01h5.41l1.36-1.18c.14-.11.39-.36.57-.36.21,0,.43.14.57.25l1.75,1.5c.11.11.29.21.29.39,0,.36-.47.61-1.61,1.25-.36,2.36-.79,11.56-.89,14.61-.04.97-.07,1.86-.07,2,0,1.9.54,1.9,3.83,1.9,1.61,0,2.43,0,2.83-1.25.32-1,.97-4.04,1.22-5.3h.21c.14.82.68,4.44.89,5.15.14.39.21.47.72.93.14.11.32.39.32.79,0,.54-.39,1.22-1.5,1.68Z"/>
        <path class="cls-7" d="m174.73,62.94h-14.43v11.67c0,1.36,0,3.97-4.58,4.44-.11-1.07-.36-2.33-4.19-4.08l.04-.25c1.58.21,2.79.36,3.9.36,1.68,0,2.18-.14,2.18-1.5v-10.63h-9.88c-.64,0-2.51,0-4.22.32l-.72-1.43c2.22.18,4.44.25,5.51.25h9.31v-3.62c0-2.65-.25-3.26-.61-4.22l3.33.93c2.61-3.83,3.11-4.51,3.58-5.48h-12.24c-.64,0-2.47,0-4.22.32l-.68-1.43c2.22.18,4.4.25,5.48.25h11.88l1.4-1.22c.36-.29.43-.36.68-.36.14,0,.29.11.61.36l2.51,2.04c.29.25.36.47.36.61,0,.54-.43.68-2.65.75-3.69,2.83-4.08,3.15-5.98,4.37.25.07.43.29.43.47,0,.47-.57.79-1.22,1.18v5.05h9.06l1.86-2.04c.32-.32.39-.47.54-.47.18,0,.36.14.68.39l2.47,2.04c.18.14.36.32.36.57,0,.32-.29.36-.54.36Z"/>
        <path class="cls-7" d="m181.82,78.9v-1.54h10.38v-31.04h1.5v32.58h-11.88Z"/>
        <path class="cls-7" d="m202.91,76.18c-.75,0-1.18-.54-1.18-1.32,0-.68,1.22-3.51,1.36-4.12s.11-1.11.07-1.54l.32-.04c.61,1,1.32,2.36,1.32,4.26,0,.97-.29,2.76-1.9,2.76Zm13.21-10.42c-.5,5.58-1.61,8.59-2.18,9.88-.82,1.79-2.11,2.51-3.87,2.97-.47-2.22-2.18-3.19-2.94-3.54l.07-.25c2,.39,3.36.39,3.47.39.72,0,1-.07,1.4-.93,1.04-2.33,1.57-6.98,1.57-9.34h-7.98c.04.57-.04,1.75-1.54,1.75-.72,0-.89-.36-.89-.97,0-.21.07-1.07.07-1.25.14-2.25.18-8.48.18-10.95,0-1.25,0-3.83-.36-5.94l2.68,1.32h6.66l.86-1.04c.25-.29.43-.47.61-.47.21,0,.39.18.72.39l1.4,1.04c.25.18.39.43.39.57,0,.25-.32.36-.57.36h-4.94v4.15h1.54l.68-.86c.29-.36.39-.5.57-.5s.39.18.72.39l1.15.86c.18.14.39.32.39.57,0,.32-.32.39-.57.39h-4.47v4.12h1.57l.86-1c.25-.29.39-.43.57-.43.21,0,.36.11.64.36l1.07,1c.21.18.32.43.32.57,0,.21-.21.36-.54.36h-4.51v4.33h2.4l.93-1.04c.21-.25.39-.43.57-.43s.39.14.72.47l1.4,1.29c.14.14.25.29.25.47,0,.43-.82.82-1.07.93Zm-9.06,8.88c-1.18,0-1.18-1.5-1.18-2.26,0-2.22,0-2.97-.39-3.94l.21-.11c.25.29,1.54,1.58,1.72,1.9.86,1.32,1,2.25,1,2.76,0,1.04-.79,1.65-1.36,1.65Zm1.72-24.88h-3.15v4.15h3.15v-4.15Zm0,5.01h-3.15v4.12h3.15v-4.12Zm0,4.98h-3.15v4.33h3.15v-4.33Zm1.25,12.56c-.93,0-1.04-.61-1.32-2.65-.11-.79-.29-1.72-.68-2.61l.14-.11c1.9,1.65,2.97,2.61,2.97,4.01,0,.61-.36,1.36-1.11,1.36Zm2-2.65c-.72,0-.86-.57-1.25-2-.29-.93-.57-1.32-.82-1.65l.21-.21c1.68.79,2.76,1.54,2.76,2.72,0,.57-.32,1.15-.9,1.15Zm23.7,6.59c-1.72.11-2.97,1.61-3.4,2.11-4.01-3.26-6.98-9.41-6.98-17.86h-3.83c-.36,8.81-2.11,14.21-7.34,17.97l-.18-.14c5.01-5.44,5.19-15.43,5.19-22.87,0-4.44-.25-5.62-.61-7.59l3.4,1.5h7.37l1.04-1c.21-.21.39-.32.57-.32s.32.07.61.32l1.43,1.22c.21.18.32.36.32.57,0,.25-.68.75-1.11,1.04-.04.61-.07,1.29-.07,2.26,0,1.15.21,6.16.21,7.27s-1.11,1.43-1.68,1.43c-1.15,0-1.07-.79-1.04-1.65h-3.65c.82,7.8,5.98,14,9.77,15.54l-.04.21Zm-6.05-26.02h-7.95c-.04,1.36-.18,7.95-.18,9.41h8.13v-9.41Z"/>
        <path class="cls-7" d="m246.84,76.42c-3.12-2.5-4.74-6.1-4.74-9.68s1.62-7.18,4.74-9.68l.18.28c-3.72,3.94-3.8,7.94-3.8,9.4s.08,5.46,3.8,9.4l-.18.28Z"/>
        <path class="cls-7" d="m260.38,59.67c-.02-1.18-.12-1.54-.28-1.98l1.9.46c.16.04.28.1.28.28,0,.26-.12.32-.58.58v.66h3.52l.64-.9c.06-.1.18-.26.3-.26.1,0,.26.14.36.22l1.16.9c.12.08.2.18.2.3,0,.2-.18.22-.3.22h-5.88c.04.96.04,1.06,0,1.18-.08.34-.5.48-.86.48-.26,0-.46-.12-.48-.38,0-.08-.02-.86,0-1.28h-3.44c0,.24.06,1.3.06,1.52,0,.48-.52.64-.96.64-.3,0-.42-.16-.42-.56,0-.26.04-1.38.04-1.6h-2.32c-.18,0-1.42,0-2.34.18l-.4-.8c1.02.1,2.04.14,3.06.14h1.98c-.04-1.26-.18-1.62-.3-1.94l1.96.44c.12.02.24.1.24.24,0,.3-.18.4-.58.64-.02.32-.02.42-.02.62h3.46Zm-9.72,5.68c2.8.24,2.8,1.48,2.8,1.68,0,.3-.16.78-.72.78-.44,0-.56-.2-1.02-.98-.42-.72-.72-1.12-1.08-1.34l.02-.14Zm4.68-.1c-.2.94-.44,1.86-1.44,4.64-.48,1.38-.7,2-.7,2.4,0,.36.2.74.38,1.14.14.32.3.74.3,1.28,0,.36-.08,1.16-.92,1.16s-.88-.84-.88-1.26c0-.84.02-1.44-.06-1.76-.18-.64-.64-1.36-1.26-1.54v-.16c1.16.04,1.14.02,1.82-1.1.2-.34,1.34-2.26,2.64-4.88l.12.08Zm-2.9-3.54c.98.14,2.7.4,2.7,1.72,0,.48-.38.72-.74.72-.54,0-.74-.44-.94-.86-.26-.56-.62-1.16-1.04-1.44l.02-.14Zm13.48,1.76l.58-.84c.1-.14.2-.28.32-.28s.26.12.36.22l.94.86c.12.1.2.18.2.3,0,.2-.18.22-.32.22h-6.06v1.74h2.82l.52-.54c.06-.08.16-.16.24-.16.16,0,.36.16.44.22l.82.7c.08.08.2.2.2.34,0,.2-.28.36-.7.6-.04.9,0,2.56.04,4.66,0,.36.08,1.88.08,2.2,0,.6,0,1.68-2,2.08-.2-.66-.36-1.24-1.36-1.8v-.12c.52.04,1,.04,1.3.04.64,0,.66-.1.66-.54v-2.16h-3.02c0,.6.08,3.22.08,3.76,0,.26,0,.92-.92.92-.54,0-.54-.32-.54-.64,0-.48.04-2.6.04-3.04v-1h-2.68c.02.78.06,2.52.06,3.24,0,.5,0,1.16-1,1.16-.4,0-.5-.14-.5-.82,0-.08.1-4.56.1-5.22,0-1.12,0-3.8-.18-4.66l1.7.78h2.5c0-.1-.02-1.68-.02-1.74h-2.28c-.36,0-1.4,0-2.36.18l-.4-.8c1.46.12,2.74.14,3.08.14h1.96c-.02-.94-.1-1.16-.2-1.58l1.92.48c.12.04.24.1.24.26,0,.24-.16.32-.64.56v.28h3.98Zm-5.28,4.76v-2.06h-2.68v2.06h2.68Zm0,2.5v-2.02h-2.68v2.02h2.68Zm1.3-4.56v2.06h3.06v-2.06h-3.06Zm0,2.54c0,.46.02,1.46.04,2.02h3.02v-2.02h-3.06Zm.82-7.68c.78.02,2.6.08,2.6,1.26,0,.22-.12.68-.72.68-.38,0-.46-.12-.92-.78-.42-.62-.58-.78-.96-1.04v-.12Z"/>
        <path class="cls-7" d="m285.44,59.75l.56-.52c.12-.1.18-.22.3-.22s.2.08.3.14l1.08.8c.12.1.22.18.22.34,0,.28-.66.58-.84.66-.06,1.96-.02,7.7.08,10.96,0,.3.12,1.72.12,2,0,.82-.7,1.04-1.14,1.04-.64,0-.6-.36-.56-1.16h-11.32c0,.12,0,.72-.02.8-.14.46-.74.62-1.08.62-.28,0-.6-.12-.6-.56,0-.24.06-1.26.06-1.48.08-2.9.14-5.8.14-8.68,0-3.92-.1-4.62-.28-5.78l1.9,1.04h11.08Zm-11.2.48v6.2h4.9v-6.2h-4.9Zm0,6.68v6.4h4.9v-6.4h-4.9Zm11.32-.48v-6.2h-5.04v6.2h5.04Zm0,6.88v-6.4h-5.04v6.4h5.04Z"/>
        <path class="cls-7" d="m309.24,61.97h-9.2l.96.42c.1.04.22.14.22.28,0,.1-.1.2-.18.26-.06.04-.36.22-.52.34-.06.56-.14,1.36-.36,2.42h4.62l.56-.62c.1-.12.18-.2.28-.2.08,0,.2.06.3.14l1.14.86c.1.08.14.22.14.3,0,.26-.58.54-.78.64-.56,7.4-1.1,8.78-4.26,9.12-.24-1.08-.96-1.9-1.96-2.42l.02-.14c1.58.42,2.48.44,2.7.44.82,0,1.14-.2,1.48-1.84.46-2.24.56-5.32.54-5.8h-4.88c-.44,1.9-1.86,8-8.12,9.58l-.08-.18c6.26-2.64,7.08-11,7.08-12.82,0-.12,0-.48-.06-.78h-4.44c-.52,0-1.48.02-2.36.18l-.38-.8c1.02.1,2.04.14,3.06.14h4.58c0-2.56,0-2.58-.52-4l2.38.62c.14.04.3.16.3.28,0,.16-.2.28-.74.64-.04.44-.04,1.92-.04,2.46h5.72l.94-1.1c.12-.14.2-.26.32-.26.1,0,.26.12.36.22l1.28,1.1c.1.08.2.18.2.3,0,.22-.18.22-.3.22Z"/>
        <path class="cls-7" d="m319.38,62.81c.46-.96.98-2.52,1.18-3.34h-5.22c-.54,0-1.48.02-2.36.18l-.4-.8c1.02.08,2.04.14,3.08.14h11.92l.88-.86c.16-.16.32-.3.38-.3.1,0,.18.06.38.22l1.12.9c.08.06.2.18.2.3,0,.2-.2.22-.32.22h-7.78c-.56.92-2.06,2.74-2.58,3.34h7.28l.56-.58c.2-.2.26-.26.38-.26.1,0,.26.12.36.2l.92.78c.12.1.16.2.16.26,0,.18-.08.24-.8.64,0,2.26.02,5.12.04,7.38.02.94.1,2.42.1,3.34,0,.86-.72.94-1,.94-.6,0-.6-.32-.56-1.46h-11.38c0,.08.02.54.02.64,0,.72-.64.92-.98.92-.64,0-.64-.44-.64-.62,0-.08.06-1.06.06-1.22.04-2.18.14-6.78.14-8.68,0-1.44-.04-2.06-.28-3.28l2.06,1h3.08Zm-3.46.48v10.28h2.66v-10.28h-2.66Zm7.06,3.04v-3.04h-3.06v3.04h3.06Zm0,3.5v-3.02h-3.06v3.02h3.06Zm0,3.74v-3.26h-3.06v3.26h3.06Zm4.32,0v-10.28h-2.96v10.28h2.96Z"/>
        <path class="cls-7" d="m349.54,68.27c-.02,1.36.04,3.24.08,4.62,0,.2.06,1.1.06,1.28,0,.66-.64.86-1.04.86-.6,0-.6-.14-.56-1.46h-11.8c0,.1.02.88,0,1.04-.08.7-.88.76-1.04.76-.34,0-.58-.12-.58-.48,0-.14.04-.72.04-.82.04-1.54.06-3.14.06-4.68,0-1.36-.04-1.76-.28-2.64l2.1.6c.16.04.32.1.32.28,0,.22-.3.4-.66.62-.06,1.72,0,4.14.02,4.84h5.16c0-1.68,0-6.12-.02-7.5h-3.92c.02.8-.6.92-1,.92-.54,0-.54-.3-.54-.46,0-.66.06-3.62.06-4.22,0-1.34,0-1.74-.32-2.88l2.1.72c.12.04.3.16.3.3,0,.28-.42.5-.62.6-.04.72-.04,1.1.02,4.54h3.92c0-.76-.04-4.08-.04-4.76-.02-1.26-.14-1.82-.44-2.72l2.32.78c.18.06.3.18.3.26,0,.28-.36.46-.66.62-.04,1.3-.04,1.44-.04,2.62v3.2h4.1c.06-1.5.14-4.5-.28-5.86l2.14.68c.18.06.32.14.32.3,0,.18-.1.28-.68.58-.04,1.14-.02,2.56.02,3.7,0,.18.02.9.02,1.04,0,.66-.7.82-1.06.82-.58,0-.56-.28-.52-.78h-4.06c-.02.44,0,6.5,0,7.5h5.24c.04-1.68.06-2.48.06-2.78,0-2.44-.16-2.92-.34-3.5l2.12.62c.14.04.28.14.28.26,0,.24-.28.4-.66.58Z"/>
        <path class="cls-7" d="m369.88,75.24c-2.82-1.84-5.04-4.46-6.26-7.6-.3-.78-.46-1.36-.56-1.7-1.1,3.04-2.88,5.84-5.52,7.72-1.72,1.22-3.24,1.68-3.9,1.88l-.06-.16c6.08-3.24,8.42-9.96,8.32-12.4l.6.1c-.22-1.74-.2-2.68-.2-3.58h-1.82c-.36,0-1.38,0-2.36.18l-.38-.78c1.24.08,2.48.12,3.06.12h1.14l.72-.7c.12-.12.22-.2.34-.2.1,0,.24.08.38.18l1.14.84c.16.12.22.2.22.32,0,.32-1.12.76-1.72.98-.3,6.76,4.5,11.9,9,13.14v.18c-.46.08-1.44.3-2.14,1.48Z"/>
        <path class="cls-7" d="m390.32,61.67c.02,1.02-.02,5.62.02,6.42.02.66.18,3.96.18,4.88,0,.48,0,1.34-1.08,1.34-.18,0-.6-.04-.6-.5,0-.12.04-.86.04-1.02h-11.26c.02.9.02,1.22-.06,1.38-.16.38-.7.54-1.08.54-.54,0-.56-.32-.56-.54,0-.2.06-1.08.06-1.26.1-2.62.18-6.16.18-9.24,0-2.62-.08-3.2-.32-4.4l2.14,1.2h10.62l.62-.64c.18-.18.24-.28.34-.28s.24.1.36.2l1.1.86c.12.1.24.22.24.34,0,.18-.44.44-.94.72Zm-1.44-.72h-11.26v11.36h11.26v-11.36Z"/>
        <path class="cls-7" d="m395.08,76.42l-.18-.28c3.72-3.94,3.8-7.94,3.8-9.4s-.08-5.46-3.8-9.4l.18-.28c3.12,2.5,4.74,6.1,4.74,9.68s-1.62,7.18-4.74,9.68Z"/>
        <path class="cls-7" d="m417.7,61.77c-.52.22-2.26.64-4.52,1-.06.78-.08,2.08-.06,2.9.4-.1,2.14-.68,2.5-.8.14-.04.24-.06.36-.06.36,0,1.14.22,1.14.72,0,.3-.22.4-.42.48-.24.1-1.82.48-3.56.8.08,2.04.18,3.1.44,4.36,1.88.34,4.2,1.42,4.2,2.5,0,.26-.14.74-.62.74-.24,0-.3-.04-.98-.52-1.1-.78-2.12-1.18-2.52-1.34-.14,1.88-1.54,2.56-3.42,2.56-2.06,0-3.48-1.08-3.48-2.12,0-1.62,2.36-2.12,4.34-2.12.5,0,.82.02,1.16.06-.22-1.72-.26-3.64-.26-3.94-.92.1-1.9.18-2.84.18-1.12,0-2.06-.2-2.06-.96,0-.42.5-1.02,1.3-1.12-.2.26-.34.46-.34.7,0,.34.4.36,1.02.36,1.38,0,2.44-.18,2.9-.24,0-1,0-1.36.06-2.98-1.64.24-3.08.28-3.58.28-1.66,0-2.46-.48-2.96-1.58.72.3,1.38.58,2.78.58.5,0,1.84-.1,3.8-.4,0-.28.04-1.56.04-1.7,0-.9-.2-1.12-1.54-1.62.22-.2.48-.46,1.18-.46.94,0,2.08.64,2.08,1.3,0,.24-.02.32-.28,1.06-.16.46-.2.88-.24,1.16.92-.22,2.08-.62,3.12-.98.12-.04.26-.08.4-.08.4,0,1.22.36,1.22.8,0,.2-.1.38-.36.48Zm-7.44,10.12c-1.48,0-2.8.4-2.8,1.16,0,.4.62.96,2.2.96.64,0,1.44-.14,1.96-.48.64-.4.64-1.04.64-1.4-.28-.1-.72-.24-2-.24Z"/>
        <path class="cls-7" d="m436.02,61.37c-2.56,0-3.32,0-4.66.8-1.86,1.1-3.38,3.68-3.38,5.96,0,3.34,3.52,4.12,5.32,4.52.3.06,1.14.24,1.14,1.1,0,.52-.5.56-.76.56-2.06,0-6.68-1.52-6.68-5.92,0-.86.16-2.58,1.64-4.48.56-.72,1.04-1.14,2.76-2.5-2.12.28-6.4,1.76-7.08,2.14-.86.5-.96.54-1.28.54-.5,0-1.46-.6-1.46-1.76,0-.52.14-.78.28-1.02.38.6.68,1.06,1.56,1.06.4,0,.92-.1,2.94-.58,2.38-.58,6.22-1.44,8.6-2.02.2-.04.48-.1.64-.1.3,0,1.6.38,1.6,1.06,0,.64-.62.64-1.18.64Zm-.56,5.08c-.34,0-.4-.08-.88-.92-.4-.7-.92-1.24-1.88-2.2,1.34.28,3.3,1.16,3.3,2.42,0,.34-.12.7-.54.7Zm2.34-.92c-.3,0-.36-.1-.94-.98-.48-.7-1.38-1.44-2.04-1.92,1.28.12,3.52.94,3.52,2.26,0,.56-.42.64-.54.64Z"/>
      </g>
      <g>
        <path class="cls-7" d="m50.47,33.27c-1.01-.37-3.32-1.97-3.32-1.97-2.1-1.26-3.45-3.02-4.76-4.89.02,1.05.05,5.63.09,6.56,0,.11.02.62.02.71,0,.39-.05.59-.3.78-.3.21-.64.3-.78.3-.39,0-.46-.41-.46-.64,0-.18.02-.98.05-1.14,0-.91.09-4.92.11-5.74-3.09,3.39-7.16,5.58-9.63,6.22l-.09-.16c2.72-1.14,7.04-4.73,8.78-6.91h-3.52c0,.53-.05.64-.11.73-.21.27-.53.41-.87.41-.39,0-.41-.25-.41-.39,0-.07.02-.32.05-.41.09-1.1.14-3.18.14-4.21,0-2.15-.05-2.42-.3-3.75l1.69.78h4.32c0-.34,0-.96-.02-2.33h-6.15c-.8,0-2.06.09-2.93.25l-.55-.98c1.72.14,3.39.18,3.8.18h5.81c-.05-1.26-.11-2.26-.48-2.95l2.15.55c.14.05.34.09.34.25,0,.14-.07.23-.27.39-.18.16-.34.27-.46.37,0,.09-.02.94-.02,1.4h6.82l.75-1.1c.11-.16.21-.27.32-.27.16,0,.32.14.43.23l1.23,1.1c.11.09.23.21.23.34,0,.21-.21.25-.34.25h-9.45v2.33h4.21l.75-.59c.11-.09.16-.11.25-.11.07,0,.16.05.23.09l.98.73c.14.11.21.16.21.3,0,.11-.07.21-.21.3q-.32.21-.55.39c0,1.74,0,1.81.18,5.35.02.23.02.46.02.48,0,.39-.07.55-.39.71-.21.11-.44.16-.55.16-.46,0-.46-.32-.43-.96h-4.28c1.67,1.81,5.22,4.8,9.9,4.94v.21c-1.28.32-1.56.69-2.26,1.74Zm-9.29-13.17h-4.51v2.47h4.51v-2.47Zm0,3.02h-4.51v2.72h4.51v-2.72Zm5.92-3.02h-4.71v2.47h4.71v-2.47Zm0,3.02h-4.71v2.72h4.71v-2.72Z"/>
        <path class="cls-7" d="m56.35,33.2c-.43,0-.82-.39-.82-.78,0-.48.39-.8.94-1.26.48-.41,1.3-1.12,1.78-2.58h.11c.02.21.07.48.07.78,0,1.28-.66,3.84-2.08,3.84Zm17.57-13.29c-.32.18-.34.21-.5.34-.02.41-.02.85.02,2.29.02.34.16,3.04.16,3.16,0,.69-.57.85-.96.85-.53,0-.55-.32-.53-.8h-10.73c-.8,0-2.06.09-2.93.27l-.55-.98c1.72.14,3.38.16,3.8.16h10.41v-2.4h-10.41c-.8,0-2.08.09-2.95.25l-.53-.98c1.72.14,3.36.18,3.8.18h10.09v-2.36h-13.31c-1.23,1.05-2.22,1.65-2.88,2.04l-.09-.16c3.43-2.9,5.76-6.29,5.95-8.19l1.74.85c.23.11.34.21.34.37,0,.27-.25.34-.89.46-.21.25-.48.59-.59.75h5.67l.69-.64c.25-.23.32-.25.39-.25.14,0,.21.07.46.25l.96.75c.09.09.16.16.16.3,0,.18-.16.27-.23.27-.18.07-1.01.23-1.17.27-.43.37-2.38,2.06-2.79,2.38h5.21l.78-.64c.25-.21.27-.23.39-.23.14,0,.32.16.34.21l.64.55c.21.18.27.25.27.37,0,.14-.07.23-.23.32Zm-11.99-3.36c-1.21,1.49-1.81,2.13-2.52,2.79h6.63c.23-.34,1.21-1.92,1.33-2.1.16-.27.21-.37.37-.69h-5.81Zm8.58,17.29c-.39.07-.66.11-1.26.11-1.83.05-3.64.05-5.47.05s-2.42-.09-2.42-2.08c0-.37.05-1.97.05-2.29,0-1.39-.09-2.06-.23-2.58l1.81.53c.37.11.39.23.39.3,0,.18-.23.32-.3.34-.25.16-.27.16-.46.34v3.45c0,.62.25.71.5.78.21.05,3.09.07,3.55.07,2.72,0,3.02-.37,3.27-1.07.14-.37.43-1.46.57-2.38h.18c.09.39.37,2.08.5,2.4.07.23.11.25.5.53.14.11.23.23.23.39,0,0-.02.87-1.42,1.12Zm-3.25-3.77c-.48,0-.55-.18-.94-1.05-.62-1.35-1.01-1.69-1.37-2.01l.05-.11c1.88.32,3.02,1.56,3.02,2.36,0,.3-.11.82-.75.82Zm8.14,1.88c-.57,0-.69-.27-1.03-1.01-.59-1.35-.89-2.04-1.94-2.79l.07-.14c2.65.75,3.64,2.26,3.64,3.04,0,.55-.27.89-.73.89Z"/>
        <path class="cls-7" d="m95.16,16.64c-1.92,2.36-5.12,5.26-7.09,6.52-2.45,1.56-6.77,3.36-8.35,3.48l-.09-.21c2.29-.8,6.08-2.9,7.69-4.05,1.81-1.28,4.48-3.77,6.47-6.5h-5.67c-.69.85-1.01,1.24-1.88,2.15.11.05.21.07.96.34.32.11,1.99.73,1.99,1.94,0,.55-.41.8-.75.8-.46,0-.69-.32-1.01-1.01-.53-1.1-.57-1.23-1.35-1.92-2.06,2.13-4.3,3.32-5.4,3.91l-.09-.18c.82-.59,3.5-2.79,5.54-5.49,1.58-2.1,1.67-2.68,1.81-3.5l1.67.94c.18.11.25.16.25.32,0,.32-.3.39-.85.5-.21.32-.3.41-.46.64h5.33l.98-.66c.23-.16.25-.16.3-.16q.07,0,.23.11l1.35.89c.14.09.23.18.23.34,0,.39-.14.46-1.81.78Zm3.2,8.58c-2.4,2.75-5.1,5.35-7.52,6.86-1.51.94-5.03,2.77-9.72,3.06l-.02-.21c2.63-.62,6.56-1.62,10.7-5.08,3-2.49,4.46-4.57,4.99-5.56h-5.35c-1.33,1.21-2.17,1.9-2.97,2.47.75.21,3.13,1.23,3.13,2.63,0,.55-.46.85-.82.85-.43,0-.53-.27-.75-.85-.14-.32-.59-1.33-1.76-2.49-.55.39-1.17.78-1.76,1.12-1.83,1.05-3.57,1.81-5.26,2.15l-.05-.18c.64-.27,1.92-.85,3.2-1.6,2.9-1.74,5.56-4.39,6.43-5.33,1.3-1.39,1.4-1.74,1.65-2.63l1.72.98s.23.16.23.32c0,.32-.23.34-.94.43-.27.34-.64.8-1.46,1.58h4.94l.78-.57c.21-.16.23-.16.3-.16.09,0,.14.05.32.18l1.28.98c.21.16.27.23.27.34,0,.39-.34.46-1.53.69Z"/>
        <path class="cls-7" d="m123.02,17.02h-16.08c.02,2.79.09,7.71-.41,10.29-.41,2.06-1.23,4.46-2.93,5.92l-.11-.07c1.92-2.81,2.24-6.93,2.24-11.37,0-.3-.02-4.76-.32-6.27l1.78.94h6.68c-.14-2.08-.16-2.2-.39-2.86l1.92.48c.09.02.25.09.25.27,0,.25-.07.3-.66.64,0,.43-.02,1.17-.02,1.46h5.44l.69-.96c.07-.09.21-.3.34-.3.11,0,.39.21.43.25l1.26.98c.14.11.23.18.23.34,0,.21-.18.23-.34.23Zm.55,14.39h-8.37c.02,1.49,0,1.83-.27,2.26-.05.07-.48.73-1.58,1.03-.16-.96-.96-1.49-1.99-1.76l.05-.14c1.21.07,1.49.09,1.76.09,1.01,0,1.01-.11.98-1.49h-4.35c-.48,0-1.85.07-2.95.27l-.55-.98c1.19.09,2.63.16,3.82.16h4.03c0-.25-.02-1.6-.02-1.9h-2.45c-.46,0-1.85.05-2.93.27l-.55-.98c1.19.09,2.61.16,3.8.16h2.13v-1.56c-1.24.14-2.52.23-3.75.23-.73,0-1.46-.02-2.17-.11v-.16c1.37,0,4.53-.53,5.99-.75,1.28-.21,3.41-.62,4.62-1.42l1.07.85c.11.07.14.18.14.3,0,.14-.05.3-.37.3-.11,0-.16,0-.71-.11-.62.16-1.51.37-3.77.73v1.72h2.95l.48-.73c.14-.21.18-.32.32-.32.16,0,.34.16.46.25l.89.75c.11.11.23.21.23.34,0,.25-.25.25-.34.25h-4.99v1.9h5.79l.78-.89c.18-.23.3-.34.41-.34.16,0,.39.21.46.25l1.07.96c.11.09.23.18.23.34,0,.23-.25.23-.34.23Zm-8.62-11.32h-2.52v.57c.73.16,2.01.55,2.01,1.53,0,.37-.21.59-.48.59-.39,0-.55-.39-.66-.71-.23-.55-.75-1.17-.87-1.26,0,.59.05,3.52.05,3.68,0,.23,0,.32-.07.41-.09.16-.32.32-.62.32-.46,0-.46-.32-.46-.73,0-.62.14-3.43.16-4-1.01,1.58-2.26,2.97-3.82,4l-.11-.14c1.12-1.12,2.42-3.18,3-4.25-.64.05-1.37.11-2.01.23l-.53-.98c.64.07,1.58.14,3.45.18-.05-.91-.11-1.33-.32-2.08l1.6.43c.07.02.25.07.25.27,0,.14-.05.23-.59.48,0,.37.02.5.02.89h1.14l.3-.5c.14-.23.21-.3.32-.3s.14.02.41.3l.46.46c.18.18.23.23.23.34,0,.21-.18.25-.34.25Zm8.53,3.32c-.32.16-.46.41-.57.59-2.15-.98-3.66-3.27-3.96-3.98h-.21v1.26c0,.37.07,2.1.07,2.24,0,.25,0,.39-.11.48-.16.11-.41.23-.62.23-.32,0-.34-.3-.34-.55,0-.46.07-2.54.07-2.95-.34.59-1.62,2.47-3.87,3.5l-.07-.16c1.4-.98,3.04-3.57,3.27-3.93-.64.07-.73.09-1.01.14l-.55-.98c1.1.09,1.44.11,2.17.14-.07-1.42-.09-1.58-.18-1.94l1.4.34c.14.02.3.07.3.25,0,.11-.11.23-.18.3-.07.05-.32.23-.39.27.02.09.02.73.02.8.25.02.55.02.69.02h1.88l.5-.59c.23-.25.25-.27.37-.27.09,0,.23.07.46.27l.64.55c.14.11.23.21.23.34,0,.21-.18.25-.34.25h-3.84c1.28,1.4,3.16,2.61,5.33,2.81v.09c-.18.07-.98.41-1.14.48Z"/>
        <path class="cls-7" d="m132.17,16.48s-.02.27-.02.3l-.02,7.59c0,2.68-.55,7.94-4.67,9.97l-.09-.14c2.29-2.1,3.57-4.55,3.57-13.31,0-2.08-.02-4.05-.3-6.13l2.2.69c.18.05.3.09.3.25,0,.21-.23.41-.96.78Zm6.2.25c0,5.95,0,6.61.11,12.88,0,.32.02,1.72.02,2.01,0,.82-1.03.82-1.08.82-.5,0-.5-.27-.5-.48,0-.11.09-1.51.09-1.72.16-2.81.16-5.7.16-8.55,0-1.14-.02-4.46-.11-5.42-.05-.37-.09-.71-.16-1.01l1.83.48c.32.09.39.14.39.25,0,.25-.48.55-.75.73Zm7.11-.55v.41l-.05,7.5c0,.25.18,7.27.18,8.62,0,.8,0,.89-.23,1.08-.25.18-.71.3-.92.3-.37,0-.5-.18-.5-.5,0-.25.09-1.28.09-1.51.11-3.89.16-7.78.16-9.49,0-5.54-.18-6.75-.39-8.03l2.1.66c.25.09.34.16.34.3,0,.3-.39.48-.8.66Z"/>
        <path class="cls-7" d="m154.08,27.45c-1.12,3.29-1.65,4.44-2.9,6.04l-.18-.07c.87-2.06,1.76-5.6,1.76-6.84,0-.21-.05-.53-.09-.73l1.83.71c.16.07.25.16.25.3,0,.3-.27.41-.66.59Zm5.15-9.08c-1.21,1.83-3.91,4.99-4.07,5.17.32-.02,2.58-.18,3.16-.23-.37-1.07-.66-1.51-.85-1.76l.09-.11c.5.27,2.54,1.35,2.54,2.65,0,.48-.3.92-.69.92-.57,0-.71-.46-1.01-1.42l-1.94.46c-.05,2.26-.02,3.34-.02,3.96.02.82.14,5.17.14,5.4,0,.87-.53,1.1-.89,1.1-.5,0-.5-.37-.5-.53,0-.82.11-4.37.11-5.1s.07-3.91.09-4.57c-1.39.32-2.29.48-3,.55-.21.37-.3.48-.5.48-.09,0-.27-.07-.32-.27l-.39-1.76c1.03.37,2.38.32,3.59.27,1.42-2.04,3.66-6.13,3.43-7.02l1.76,1.07c.18.11.21.23.21.34,0,.25-.23.32-.94.41Zm-2.68-2.81c-1.1,1.56-1.46,2.06-2.13,2.91.48.37.96.73.96,1.37,0,.46-.27.94-.71.94s-.64-.32-1.17-1.35c-.43-.82-.66-1.24-1.51-1.85l.05-.09c.32.05.98.14,2.13.82.21-.53,1.21-2.95,1.21-4,0-.16-.05-.41-.07-.57l1.94.98c.14.07.23.16.23.32,0,.23-.16.32-.94.53Zm2.49,14.09c-.53,0-.62-.27-.91-1.26-.05-.16-.37-1.14-.87-1.83l.05-.09c1.3.73,2.42,1.42,2.42,2.38,0,.39-.23.8-.69.8Zm4.14-2.38c-1.67,3.45-3.13,5.01-5.1,5.92l-.02-.16c1.85-1.49,3.39-4.23,3.96-6.47h-1.26c-.37,0-.89.05-1.26.11l-.23-.75c.41.05,1.28.09,1.62.09h1.1l.25-.37c.07-.11.16-.18.25-.18.11,0,.21.09.27.14l1.03.87c.11.09.16.18.16.3,0,.41-.46.48-.78.5Zm7.57,6.11c-2.4-1.94-3.96-3.91-4.9-6.91,0,.39.02.82.02,1.21.02.73.11,4.55.11,4.62,0,.96-.41,1.33-.66,1.51-.3.25-.73.55-1.39.66-.27-.62-.48-1.12-2.33-1.9l.05-.09c.43.02,1.92.07,2.13.07.71,0,.98,0,.98-.48v-7.32c0-.82,0-.91-.02-1.1h-2.31c0,.25.02.73-.78.73-.55,0-.57-.25-.57-.46,0-.53.07-2.9.07-3.39,0-.59-.05-3.16-.05-3.68,0-.34-.02-.89-.09-1.28l1.58.82h1.81c.16-.64.23-1.46.23-1.88,0-.34-.05-.75-.14-1.03l2.01.57c.21.07.3.21.3.37,0,.39-.41.43-.92.48-.16.23-.91,1.28-1.07,1.49h3.34l.64-.69c.09-.09.25-.21.39-.21s.25.07.34.14l.94.69c.14.09.23.23.23.39,0,.27-.3.44-.8.71,0,.23.05,2.9.05,2.97.02.48.11,2.7.11,3,0,.69-.41.94-.89.94-.41,0-.53-.21-.43-.69h-3.16l.39.09c.25.07.41.21.41.32,0,.23-.27.43-.53.57,0,.16.34,1.72,1.28,3.32.39-.32,1.62-1.72,1.97-2.86l1.44.98c.18.11.23.23.23.41,0,.3-.37.32-.89.27-.87.48-1.76.94-2.63,1.37.18.32.57.94,1.3,1.62,1.26,1.19,2.61,1.83,4.41,2.29v.09c-1.6.23-1.94.8-2.2,1.24Zm-2.01-16.42h-6.31v2.84h6.31v-2.84Zm0,3.39h-6.31v2.77h6.31v-2.77Z"/>
      </g>
      <rect class="cls-7" x="31.28" y="162.65" width="576.87" height="91.14"/>
      <g>
        <path class="cls-5" d="m146.2,204.81l1.05-1.34c.23-.29.29-.35.44-.35.2,0,.46.23.55.29l1.42,1.34c.17.14.29.26.29.44,0,.26-.23.32-.44.32h-9.87c-1.77,0-2.41.06-3.14.17l-.46-1.05c1.36.12,2.76.17,4.12.17h6.04Zm-2.56-3.51l.99-1.31c.17-.23.26-.38.44-.38s.35.17.52.32l1.51,1.31c.17.17.29.26.29.46,0,.26-.23.29-.44.29h-5.6c-1.77,0-2.41.09-3.14.2l-.49-1.07c1.39.15,2.76.17,4.15.17h1.77Zm.03,7.17l.99-1.36c.2-.26.32-.38.46-.38.17,0,.44.23.52.32l1.51,1.36c.15.12.29.26.29.44,0,.26-.26.32-.46.32h-5.63c-1.77,0-2.41.06-3.14.2l-.46-1.07c1.36.12,2.76.17,4.12.17h1.8Zm.17,3.22l.84-1.16c.2-.29.32-.38.44-.38s.14.03.55.32l1.65,1.16c.15.09.32.23.32.44,0,.26-.26.32-.44.32h-5.69c-1.77,0-2.41.06-3.14.17l-.46-1.05c1.36.12,2.73.17,4.12.17h1.8Zm1.19,3.66l.9-1.13c.12-.15.38-.38.55-.38.15,0,.44.26.55.38l1.28,1.16c.06.06.15.17.15.41,0,.17-.35.55-.7.64,0,1.54,0,2.85.06,4.33,0,.26.09,1.34.09,1.57,0,1.13-.93,1.48-1.57,1.48-.55,0-1.07-.17-.99-1.45h-4.73c0,.2.06,1.05.06,1.22,0,1.36-1.1,1.51-1.63,1.51-.44,0-1.05-.23-1.05-.99,0-.14.09-.81.12-.93.03-.29.09-1.13.09-2.87,0-3.46-.09-5.17-.29-6.39l2.93,1.45h4.18Zm-4.41.7v5.6h4.73v-5.6h-4.73Zm17.97-7.87l1.31-1.65c.23-.29.29-.38.44-.38.12,0,.23.06.55.32l1.95,1.65c.15.12.29.26.29.44,0,.26-.23.32-.44.32h-6.3c.06,10.13.09,11.27.14,13.01.06,1.25.06,1.39.06,1.68,0,.7,0,1.97-1.77,1.97-1.02,0-1.07-.7-1.07-1.16,0-.73.15-3.92.17-4.56.06-1.8.06-2.73.09-10.95h-1.6c-1.77,0-2.41.06-3.14.2l-.46-1.07c1.36.12,2.76.17,4.12.17h1.05c-.12-6.59-.12-7.17-.84-9.29l3.63.87c.49.12.64.23.64.41,0,.38-.64.73-1.02.87v7.14h2.21Z"/>
        <path class="cls-5" d="m167.73,224.23h2.68c1.43,0,2.63-1.01,2.63-2.91v-24.03c0-1.11-.74-2.35-2.03-2.35h-3.55v-1.34c4.8-.18,7.75-1.52,8.4-1.8.18-.09,1.34-.6,1.43-.6.23,0,.28.18.28.46v29.75c0,1.38,1.11,2.81,3.09,2.81h2.21v1.48h-15.13v-1.48Z"/>
        <path class="cls-5" d="m200.61,204.26c4.06,0,8.03,3.83,8.03,10.42,0,7.7-5.4,11.9-9.83,11.9-4.66,0-10.75-4.57-10.75-15.87,0-9.13,4.43-19.51,12.73-19.51,3.6,0,6.5,1.98,6.5,4.71,0,1.66-1.11,2.81-2.68,2.81-1.48,0-2.91-1.11-2.91-2.86,0-.23.18-1.34.18-1.57,0-1.2-1.15-1.52-1.98-1.52-1.71,0-5.95,1.85-6.78,15.5,2.72-3.04,5.58-4.01,7.47-4.01Zm-1.75,20.71c3.69,0,4.84-5.72,4.84-9.73,0-4.71-1.61-8.67-4.66-8.67-.41,0-3.27,0-5.95,3.6.14,4.8.42,14.81,5.77,14.81Z"/>
        <path class="cls-5" d="m215.6,205.91c-1.77,0-2.41.06-3.14.2l-.49-1.07c1.77.14,3.83.17,4.15.17h7.23c0-.78-.03-4.41-.58-6.16l3.46,1.07c.29.09.35.2.35.38,0,.29-.29.49-.93.93.03.58-.03,3.22-.03,3.77h6.24l1.51-1.74c.17-.2.29-.35.44-.35.12,0,.35.14.55.29l2.47,1.74c.09.06.29.23.29.44,0,.26-.23.32-.44.32h-10.48c2.12,4.88,7.4,10.48,12.31,11.67v.17c-1.07.23-2.03.55-3.48,2.12-6.01-4.09-8.97-11.93-9.35-13.97h-.09c-.03,2.38-.03,3.28.03,11.32h1.25l1.16-1.37c.17-.2.29-.35.44-.35.12,0,.32.12.55.29l1.63,1.39c.15.12.29.23.29.44,0,.26-.23.29-.44.29h-4.88c0,1.22,0,3.28.06,4.44,0,.23.09,1.31.09,1.54,0,1.22-1.04,1.51-1.68,1.51-1.13,0-1.19-.52-1.19-1.07,0-.12.09-1.07.09-1.25.15-1.71.2-3.51.26-5.17h-1.83c-1.8,0-2.41.09-3.14.2l-.49-1.07c1.77.17,3.83.17,4.15.17h1.31c.03-2.85.06-5.69.09-8.57-5.37,8.91-11.56,10.89-12.31,11.09l-.09-.17c5.98-4.5,10.51-11.32,11.3-13.68h-6.62Z"/>
        <path class="cls-5" d="m244.02,212.27c-1.77,0-2.41.06-3.14.2l-.46-1.07c1.19.09,2.88.17,4.09.17l1.1-1.16c.12-.12.23-.2.35-.2s.26.09.38.17l1.42,1.16c.09.06.29.23.29.41,0,.35-.52.73-.93,1.05,0,.99-.06,6.01,0,6.3.52,2.87,6.36,2.9,8.3,2.9,3.05,0,7.78-.35,11.27-.99v.2c-1.31,1.31-1.6,2.38-1.77,3.28-13.12.32-16.35-.61-18.32-4.65-.26.26-.49.55-1.83,2.09-.2.26-1.31,1.36-1.51,1.6,0,.26,0,.78-.44.78-.17,0-.32-.12-.46-.29l-1.97-2.67c.64.03,2.35.09,4.44-1.05v-8.25h-.81Zm-1.57-12.28c3.37.52,4.94,2.44,4.94,3.98,0,.84-.58,1.51-1.39,1.51-1.05,0-1.31-.96-1.48-1.6-.64-2.27-1.63-3.25-2.06-3.66v-.23Zm10.48,14.98c-.03.84-.58,1.31-1.42,1.31-.52,0-.93-.26-.93-.84,0-.09.06-.64.06-.75.09-1.28.12-3.48.12-4.79,0-.84-.03-1.19-.06-1.63-.03-.2-.15-1.1-.2-1.39l2.61,1.42h2.38c0-.35-.03-1.77-.03-2h-2.7c-2,0-2.56.09-3.14.2l-.46-1.07c1.31.12,2.79.17,4.12.17h2.15c-.12-2.35-.32-3.02-.55-3.66l3.25.87c.12.03.38.12.38.38s-.26.49-.81.96v1.45h2.53l1.31-1.36c.23-.26.35-.38.46-.38.14,0,.23.06.52.29l1.74,1.39c.17.14.29.26.29.44,0,.29-.29.32-.44.32h-6.42v2h2.41l.93-.73c.15-.12.26-.2.41-.2.12,0,.23.12.41.23l1.25.96c.12.09.32.26.32.44,0,.23-.26.46-.67.87v2.41c0,.35.09,2.15.09,2.38,0,1.34-1.31,1.48-1.63,1.48-.81,0-.81-.64-.78-1.16h-2.67c0,.35.03,2.15.06,2.56h4.04l1.39-1.51c.2-.23.32-.35.46-.35.17,0,.32.09.55.29l1.71,1.51c.09.09.26.26.26.44,0,.32-.26.32-.44.32h-7.99c.03.23.06,1.77.06,1.92-.03,1.07-.78,1.57-1.6,1.57-.9,0-1.02-.61-1.02-.99,0-.12.15-2.18.17-2.5h-3.89c-2,0-2.56.12-3.14.2l-.46-1.07c1.31.12,2.79.17,4.12.17h3.4c.03-.64.09-1.71.09-2.56h-2.61Zm8.74-14.23l1.02-.67c.2-.14.32-.23.44-.23.15,0,.23.09.35.2l1.6,1.6c.17.17.35.35.35.61,0,.44-.49.52-.81.55-.26.03-.81.03-1.16.06-.84.41-1.86.9-2.56,1.28l-.15-.15c.52-1.05.87-1.92,1.13-2.56h-10.66c.03.67.2,3.48-1.95,3.48-.75,0-1.25-.58-1.25-1.19,0-.64.26-.93,1.28-2.06.81-.93,1.1-1.8,1.28-2.38h.15c.15.35.32.75.41,1.45h10.54Zm-6.13,10.51c0-.64-.03-1.57-.03-2.27h-2.58v2.27h2.61Zm.03,3.02v-2.32h-2.64v2.32h2.64Zm4.85-3.02v-2.27h-2.73v2.27h2.73Zm0,3.02v-2.32h-2.73l.06,2.32h2.67Z"/>
        <path class="cls-5" d="m280.17,206.23c.15.12.17.26.17.44,0,.2-.12.32-.26.38-.15.03-.9.12-1.07.17-.58.75-1.02,1.31-1.71,2.15.35.26.64.49.64.73,0,.12-.09.23-.15.29s-.26.23-.32.26c-.09.96-.17,1.74-.17,6.65,0,.9.03,5.31.03,6.33,0,1.89-1.45,1.89-1.6,1.89-.99,0-1.05-.78-1.05-1.34,0-.49.29-5.14.32-5.81.09-2.64.12-5.08.09-6.56-1.77,1.77-3.8,3.19-6.1,4.07l-.06-.12c2.67-2.47,6.16-6.74,7.81-9.87.17-.35.2-.41.73-1.83l2.7,2.18Zm-.99-5.4c.09.09.26.26.26.46,0,.23-.15.32-.41.35-.15.03-.78.03-.9.06-2.44,2.5-4.73,4.21-8.68,5.66l-.09-.23c2.32-1.63,5.46-4.97,6.59-6.94.26-.44.49-1.22.64-1.74l2.58,2.38Zm10.51,8.59v.15c0,1.54.15,10.6.15,12.57,0,.9,0,3.05-3.54,3.28-.29-1.51-1.16-2.24-2.87-3.31v-.2c.52.06,1.92.2,2.96.2s1.07-.29,1.07-1.16c0-2.9-.09-8.77-.17-11.53h-4.53c-2,0-2.58.09-3.14.17l-.46-1.05c1.31.12,2.79.17,4.12.17h7.49l1.54-1.77c.29-.35.32-.35.44-.35.17,0,.41.17.55.29l1.92,1.77c.17.15.29.26.29.44,0,.29-.29.32-.44.32h-5.37Zm-.2-7.87l1.25-1.51c.26-.32.32-.38.46-.38.17,0,.46.26.52.32l1.74,1.54c.17.14.29.23.29.44,0,.26-.26.29-.44.29h-9.12c-1.77,0-2.41.09-3.14.2l-.46-1.07c1.36.14,2.76.17,4.12.17h4.76Z"/>
      </g>
      <g>
        <path class="cls-5" d="m63.42,212.85h-6.86c0,1.61-.02,4.19-.02,5.8,0,.23,0,.49-.15.65-.17.18-.47.27-.64.27-.34,0-.4-.23-.4-.5,0-.07,0-.2.03-.59.05-.81.12-4.75.15-5.63h-4.56c-.35,0-1.36.03-2.16.18l-.4-.72c.87.07,1.93.13,2.8.13h4.33c.02-.65.03-1.24.03-1.44,0-.75-.02-4.38-.02-5.2h-3.71c-.34,0-1.36.03-2.16.18l-.39-.72c.86.08,1.91.13,2.78.13h8.55l.62-.8c.13-.18.2-.22.27-.22.08,0,.2.1.28.17l.96.82s.15.15.15.25c0,.18-.17.18-.25.18h-6.12c0,.85.02,5.08.02,6.04v.6h4.75l.72-.79c.17-.17.2-.22.27-.22.08,0,.23.12.3.18l.91.77s.17.15.17.27c0,.17-.18.18-.25.18Zm-11.03-1.89c.22,0,.52-.15.52-.64,0-.25-.15-.96-.89-1.78-.2-.22-.23-.25-1.69-1.43l-.12.08c.23.25.57.69,1.09,2.15.45,1.27.59,1.61,1.09,1.61Zm9.46-2.85c-.15.03-.2.03-.69.03-.94,1.41-1.51,1.96-3.27,3.52l-.08-.1c1.24-1.58,2.38-3.82,2.55-4.81l1.53.99c.1.05.13.08.13.2s-.08.15-.17.17Z"/>
        <path class="cls-5" d="m75.8,207c-.07,2.01-.02,7.9.05,10.13,0,.18.07.96.07,1.12,0,.6-.5.7-.7.7-.39,0-.39-.29-.39-.42,0-.05.03-.65.03-.74h-6.66c.02.45.02.62-.03.75-.03.08-.25.44-.65.44-.34,0-.42-.23-.42-.44,0-.17.07-.87.08-1.02.1-1.44.13-5.65.13-6.79,0-4.44-.07-4.8-.28-5.5l1.43.77h6.12l.49-.44s.18-.18.32-.18c.07,0,.12.03.27.15l.64.55c.15.12.2.22.2.32,0,.18-.34.37-.69.59Zm-.92-.59h-6.67v5.1h6.67v-5.1Zm0,5.5h-6.67v5.48h6.67v-5.48Z"/>
        <path class="cls-5" d="m83.03,217.41c0,.32-.02,1.12-.91,1.12-.39,0-.82-.13-.82-1.06,0-2.05,2.6-6.67,4.71-10.41h-3.86c-1.51,0-1.98,1.22-2.38,2.4l-.35-.05.72-3.44h6.72v.57c-2.13,3.61-3.81,6.74-3.84,10.87Z"/>
        <path class="cls-5" d="m93.76,206.71c-.02.34-.03.82-.03,1.56,0,1.84.07,4.21.13,6.07,0,.2.05,1.16.05,1.34,0,.15,0,.32-.18.49-.12.1-.29.15-.4.15-.4,0-.4-.13-.39-1.12h-2.38c0,.27.03,1.39.03,1.63,0,.4-.54.52-.65.52-.28,0-.32-.25-.32-.4,0-.1.02-.62.02-.92.07-2.26.08-4.51.08-6.76,0-2.41-.03-2.73-.17-3.91l1.21.6h1.98l.45-.42c.12-.1.2-.18.29-.18.1,0,.22.1.34.22l.37.37c.07.07.15.17.15.27,0,.13-.35.37-.57.5Zm-.81-.35h-2.41v3.92h2.41v-3.92Zm0,4.33h-2.41v4.11h2.41v-4.11Zm10.9-.32h-7.21c-.54,0-1.48.07-2.16.2l-.4-.72c.94.07,1.86.12,2.8.12h1.41v-2.57h-.72c-.52,0-1.48.07-2.16.2l-.39-.72c.92.07,1.86.12,2.78.12h.49c0-1.56-.05-1.91-.29-2.75l1.49.45c.15.05.25.08.25.25,0,.03,0,.12-.12.2-.22.15-.23.18-.37.29-.02.23-.03.67-.03,1.56h2.06l.45-.59c.05-.07.17-.2.25-.2.12,0,.23.08.32.17l.65.59c.08.08.17.15.17.25,0,.17-.15.18-.25.18h-3.66c-.02.87-.02,1.83-.02,2.57h2.97l.54-.67c.12-.15.18-.2.25-.2.1,0,.22.1.28.17l.7.69c.12.12.15.18.15.25,0,.17-.18.17-.25.17Zm-.02,3.32h-2.85c.02,1.16.05,2.75.05,3.94,0,.57-.05.92-.6,1.29-.57.39-1.11.5-1.33.55-.1-.34-.25-.77-1.58-1.43v-.13c.77.08,1.48.12,1.63.12.25,0,.79-.02.92-.2.08-.12.08-1.01.08-1.26,0-.57-.02-1.54-.05-2.88h-3.27c-.54,0-1.48.05-2.16.18l-.39-.72c.92.08,1.84.13,2.78.13h3.02c-.05-1.74-.05-1.95-.17-2.36l1.27.32c.17.05.23.08.23.18,0,.17-.34.44-.45.54-.02.2-.02.32-.02,1.32h1.27l.44-.64c.07-.08.15-.2.27-.2.1,0,.22.1.29.17l.7.64c.07.07.15.13.15.25,0,.15-.13.18-.25.18Zm-6.36,3.09c-.42,0-.47-.22-.6-.92-.05-.29-.15-.59-.18-.7-.22-.6-.35-.7-.45-.82l.05-.12c.87.35,1.78,1.26,1.78,1.93,0,.5-.39.64-.59.64Z"/>
        <path class="cls-5" d="m120.91,211.81c-.12,0-.4-.07-.84-.64-.87-1.11-.97-1.22-1.26-1.54-2.48.39-8.64,1.09-10.72,1.29-.17.32-.29.5-.45.5-.15,0-.18-.1-.25-.32l-.59-1.73c.22.12.54.27.96.32.96.1,1.9.1,2.85.07,1.24-2.01,2.48-4.86,2.48-5.32,0-.12,0-.29-.03-.47l1.76.96c.1.05.17.13.17.23,0,.25-.29.3-.87.37-2.08,2.87-2.31,3.17-3.22,4.23,1.02-.02,1.96-.07,2-.07.91-.05,4.9-.23,5.7-.27-.94-.92-1.86-1.54-2.3-1.84v-.08c1.49.47,5.16,2.13,5.16,3.62,0,.4-.35.69-.55.69Zm-1.93,1.66c0,1.14.05,2.7.07,3.54,0,.27.07,1.43.07,1.66,0,.62-.65.65-.69.65-.3,0-.39-.22-.39-.44,0-.17.03-.45.03-.59h-7.93c0,.52,0,.72-.1.89-.08.13-.3.37-.62.37-.34,0-.39-.22-.39-.42,0-.12.05-.65.05-.77.08-1.34.08-3,.08-4.36,0-.67.05-1.44-.15-2.16l1.46.81h7.24l.37-.44c.05-.07.15-.17.22-.17s.13.02.27.1l.92.55c.12.07.17.12.17.23,0,.17-.18.25-.69.54Zm-.89-.42h-7.95v4.85h7.95v-4.85Z"/>
      </g>
      <g>
        <path class="cls-5" d="m442.01,204.81l1.05-1.34c.23-.29.29-.35.44-.35.2,0,.46.23.55.29l1.42,1.34c.17.14.29.26.29.44,0,.26-.23.32-.44.32h-9.87c-1.77,0-2.41.06-3.14.17l-.46-1.05c1.36.12,2.76.17,4.12.17h6.04Zm-2.56-3.51l.99-1.31c.17-.23.26-.38.44-.38s.35.17.52.32l1.51,1.31c.17.17.29.26.29.46,0,.26-.23.29-.44.29h-5.6c-1.77,0-2.41.09-3.14.2l-.49-1.07c1.39.15,2.76.17,4.15.17h1.77Zm.03,7.17l.99-1.36c.2-.26.32-.38.46-.38.17,0,.44.23.52.32l1.51,1.36c.15.12.29.26.29.44,0,.26-.26.32-.46.32h-5.63c-1.77,0-2.41.06-3.14.2l-.46-1.07c1.36.12,2.76.17,4.12.17h1.8Zm.17,3.22l.84-1.16c.2-.29.32-.38.44-.38s.15.03.55.32l1.65,1.16c.15.09.32.23.32.44,0,.26-.26.32-.44.32h-5.69c-1.77,0-2.41.06-3.14.17l-.46-1.05c1.36.12,2.73.17,4.12.17h1.8Zm1.19,3.66l.9-1.13c.12-.15.38-.38.55-.38.14,0,.44.26.55.38l1.28,1.16c.06.06.15.17.15.41,0,.17-.35.55-.7.64,0,1.54,0,2.85.06,4.33,0,.26.09,1.34.09,1.57,0,1.13-.93,1.48-1.57,1.48-.55,0-1.07-.17-.99-1.45h-4.73c0,.2.06,1.05.06,1.22,0,1.36-1.1,1.51-1.63,1.51-.44,0-1.05-.23-1.05-.99,0-.14.09-.81.12-.93.03-.29.09-1.13.09-2.87,0-3.46-.09-5.17-.29-6.39l2.93,1.45h4.18Zm-4.41.7v5.6h4.73v-5.6h-4.73Zm17.97-7.87l1.31-1.65c.23-.29.29-.38.44-.38.12,0,.23.06.55.32l1.95,1.65c.14.12.29.26.29.44,0,.26-.23.32-.44.32h-6.3c.06,10.13.09,11.27.15,13.01.06,1.25.06,1.39.06,1.68,0,.7,0,1.97-1.77,1.97-1.02,0-1.07-.7-1.07-1.16,0-.73.15-3.92.17-4.56.06-1.8.06-2.73.09-10.95h-1.6c-1.77,0-2.41.06-3.14.2l-.46-1.07c1.36.12,2.76.17,4.12.17h1.05c-.12-6.59-.12-7.17-.84-9.29l3.63.87c.49.12.64.23.64.41,0,.38-.64.73-1.02.87v7.14h2.21Z"/>
        <path class="cls-5" d="m463.54,224.23h2.68c1.43,0,2.63-1.01,2.63-2.91v-24.03c0-1.11-.74-2.35-2.03-2.35h-3.55v-1.34c4.8-.18,7.75-1.52,8.39-1.8.18-.09,1.34-.6,1.43-.6.23,0,.28.18.28.46v29.75c0,1.38,1.11,2.81,3.09,2.81h2.21v1.48h-15.13v-1.48Z"/>
        <path class="cls-5" d="m496.42,204.26c4.06,0,8.03,3.83,8.03,10.42,0,7.7-5.4,11.9-9.83,11.9-4.66,0-10.75-4.57-10.75-15.87,0-9.13,4.43-19.51,12.73-19.51,3.6,0,6.5,1.98,6.5,4.71,0,1.66-1.11,2.81-2.68,2.81-1.48,0-2.91-1.11-2.91-2.86,0-.23.18-1.34.18-1.57,0-1.2-1.15-1.52-1.98-1.52-1.71,0-5.95,1.85-6.78,15.5,2.72-3.04,5.58-4.01,7.47-4.01Zm-1.75,20.71c3.69,0,4.84-5.72,4.84-9.73,0-4.71-1.61-8.67-4.66-8.67-.42,0-3.27,0-5.95,3.6.14,4.8.41,14.81,5.77,14.81Z"/>
        <path class="cls-5" d="m511.41,205.91c-1.77,0-2.41.06-3.14.2l-.49-1.07c1.77.14,3.83.17,4.15.17h7.23c0-.78-.03-4.41-.58-6.16l3.46,1.07c.29.09.35.2.35.38,0,.29-.29.49-.93.93.03.58-.03,3.22-.03,3.77h6.24l1.51-1.74c.17-.2.29-.35.44-.35.12,0,.35.14.55.29l2.47,1.74c.09.06.29.23.29.44,0,.26-.23.32-.44.32h-10.48c2.12,4.88,7.4,10.48,12.31,11.67v.17c-1.07.23-2.03.55-3.48,2.12-6.01-4.09-8.97-11.93-9.35-13.97h-.09c-.03,2.38-.03,3.28.03,11.32h1.25l1.16-1.37c.17-.2.29-.35.44-.35.12,0,.32.12.55.29l1.63,1.39c.15.12.29.23.29.44,0,.26-.23.29-.44.29h-4.88c0,1.22,0,3.28.06,4.44,0,.23.09,1.31.09,1.54,0,1.22-1.04,1.51-1.68,1.51-1.13,0-1.19-.52-1.19-1.07,0-.12.09-1.07.09-1.25.15-1.71.2-3.51.26-5.17h-1.83c-1.8,0-2.41.09-3.14.2l-.49-1.07c1.77.17,3.83.17,4.15.17h1.31c.03-2.85.06-5.69.09-8.57-5.37,8.91-11.56,10.89-12.31,11.09l-.09-.17c5.98-4.5,10.51-11.32,11.3-13.68h-6.62Z"/>
        <path class="cls-5" d="m539.83,212.27c-1.77,0-2.41.06-3.14.2l-.46-1.07c1.19.09,2.88.17,4.09.17l1.1-1.16c.12-.12.23-.2.35-.2s.26.09.38.17l1.42,1.16c.09.06.29.23.29.41,0,.35-.52.73-.93,1.05,0,.99-.06,6.01,0,6.3.52,2.87,6.36,2.9,8.3,2.9,3.05,0,7.78-.35,11.27-.99v.2c-1.31,1.31-1.6,2.38-1.77,3.28-13.12.32-16.35-.61-18.32-4.65-.26.26-.49.55-1.83,2.09-.2.26-1.31,1.36-1.51,1.6,0,.26,0,.78-.44.78-.17,0-.32-.12-.46-.29l-1.97-2.67c.64.03,2.35.09,4.44-1.05v-8.25h-.81Zm-1.57-12.28c3.37.52,4.94,2.44,4.94,3.98,0,.84-.58,1.51-1.39,1.51-1.04,0-1.31-.96-1.48-1.6-.64-2.27-1.63-3.25-2.06-3.66v-.23Zm10.48,14.98c-.03.84-.58,1.31-1.42,1.31-.52,0-.93-.26-.93-.84,0-.09.06-.64.06-.75.09-1.28.12-3.48.12-4.79,0-.84-.03-1.19-.06-1.63-.03-.2-.14-1.1-.2-1.39l2.61,1.42h2.38c0-.35-.03-1.77-.03-2h-2.7c-2,0-2.56.09-3.14.2l-.46-1.07c1.31.12,2.79.17,4.12.17h2.15c-.12-2.35-.32-3.02-.55-3.66l3.25.87c.12.03.38.12.38.38s-.26.49-.81.96v1.45h2.53l1.31-1.36c.23-.26.35-.38.46-.38.15,0,.23.06.52.29l1.74,1.39c.17.14.29.26.29.44,0,.29-.29.32-.44.32h-6.42v2h2.41l.93-.73c.15-.12.26-.2.41-.2.12,0,.23.12.41.23l1.25.96c.12.09.32.26.32.44,0,.23-.26.46-.67.87v2.41c0,.35.09,2.15.09,2.38,0,1.34-1.31,1.48-1.63,1.48-.81,0-.81-.64-.78-1.16h-2.67c0,.35.03,2.15.06,2.56h4.04l1.39-1.51c.2-.23.32-.35.46-.35.17,0,.32.09.55.29l1.71,1.51c.09.09.26.26.26.44,0,.32-.26.32-.44.32h-7.99c.03.23.06,1.77.06,1.92-.03,1.07-.78,1.57-1.6,1.57-.9,0-1.02-.61-1.02-.99,0-.12.14-2.18.17-2.5h-3.89c-2,0-2.56.12-3.14.2l-.46-1.07c1.31.12,2.79.17,4.12.17h3.4c.03-.64.09-1.71.09-2.56h-2.61Zm8.74-14.23l1.02-.67c.2-.14.32-.23.44-.23.14,0,.23.09.35.2l1.6,1.6c.17.17.35.35.35.61,0,.44-.49.52-.81.55-.26.03-.81.03-1.16.06-.84.41-1.86.9-2.56,1.28l-.15-.15c.52-1.05.87-1.92,1.13-2.56h-10.66c.03.67.2,3.48-1.95,3.48-.75,0-1.25-.58-1.25-1.19,0-.64.26-.93,1.28-2.06.81-.93,1.1-1.8,1.28-2.38h.15c.14.35.32.75.41,1.45h10.54Zm-6.13,10.51c0-.64-.03-1.57-.03-2.27h-2.58v2.27h2.61Zm.03,3.02v-2.32h-2.64v2.32h2.64Zm4.85-3.02v-2.27h-2.73v2.27h2.73Zm0,3.02v-2.32h-2.73l.06,2.32h2.67Z"/>
        <path class="cls-5" d="m575.98,206.23c.15.12.17.26.17.44,0,.2-.12.32-.26.38-.14.03-.9.12-1.07.17-.58.75-1.02,1.31-1.71,2.15.35.26.64.49.64.73,0,.12-.09.23-.14.29s-.26.23-.32.26c-.09.96-.17,1.74-.17,6.65,0,.9.03,5.31.03,6.33,0,1.89-1.45,1.89-1.6,1.89-.99,0-1.05-.78-1.05-1.34,0-.49.29-5.14.32-5.81.09-2.64.12-5.08.09-6.56-1.77,1.77-3.8,3.19-6.1,4.07l-.06-.12c2.67-2.47,6.16-6.74,7.81-9.87.17-.35.2-.41.73-1.83l2.7,2.18Zm-.99-5.4c.09.09.26.26.26.46,0,.23-.15.32-.41.35-.14.03-.78.03-.9.06-2.44,2.5-4.73,4.21-8.68,5.66l-.09-.23c2.32-1.63,5.46-4.97,6.59-6.94.26-.44.49-1.22.64-1.74l2.58,2.38Zm10.51,8.59v.15c0,1.54.14,10.6.14,12.57,0,.9,0,3.05-3.54,3.28-.29-1.51-1.16-2.24-2.87-3.31v-.2c.52.06,1.92.2,2.96.2s1.07-.29,1.07-1.16c0-2.9-.09-8.77-.17-11.53h-4.53c-2,0-2.58.09-3.14.17l-.46-1.05c1.31.12,2.79.17,4.12.17h7.49l1.54-1.77c.29-.35.32-.35.44-.35.17,0,.41.17.55.29l1.92,1.77c.17.15.29.26.29.44,0,.29-.29.32-.44.32h-5.37Zm-.2-7.87l1.25-1.51c.26-.32.32-.38.46-.38.17,0,.46.26.52.32l1.74,1.54c.17.14.29.23.29.44,0,.26-.26.29-.44.29h-9.12c-1.77,0-2.41.09-3.14.2l-.46-1.07c1.36.14,2.76.17,4.12.17h4.76Z"/>
      </g>
      <g>
        <path class="cls-5" d="m355.36,212.85h-6.86c0,1.61-.02,4.19-.02,5.8,0,.23,0,.49-.15.65-.17.18-.47.27-.64.27-.34,0-.4-.23-.4-.5,0-.07,0-.2.03-.59.05-.81.12-4.75.15-5.63h-4.56c-.35,0-1.36.03-2.16.18l-.4-.72c.87.07,1.93.13,2.8.13h4.33c.02-.65.03-1.24.03-1.44,0-.75-.02-4.38-.02-5.2h-3.71c-.34,0-1.36.03-2.16.18l-.39-.72c.86.08,1.91.13,2.78.13h8.55l.62-.8c.13-.18.2-.22.27-.22.08,0,.2.1.28.17l.96.82s.15.15.15.25c0,.18-.17.18-.25.18h-6.12c0,.85.02,5.08.02,6.04v.6h4.75l.72-.79c.17-.17.2-.22.27-.22.08,0,.23.12.3.18l.91.77s.17.15.17.27c0,.17-.18.18-.25.18Zm-11.03-1.89c.22,0,.52-.15.52-.64,0-.25-.15-.96-.89-1.78-.2-.22-.23-.25-1.69-1.43l-.12.08c.23.25.57.69,1.09,2.15.45,1.27.59,1.61,1.09,1.61Zm9.46-2.85c-.15.03-.2.03-.69.03-.94,1.41-1.51,1.96-3.27,3.52l-.08-.1c1.24-1.58,2.38-3.82,2.55-4.81l1.53.99c.1.05.13.08.13.2s-.08.15-.17.17Z"/>
        <path class="cls-5" d="m367.73,207c-.07,2.01-.02,7.9.05,10.13,0,.18.07.96.07,1.12,0,.6-.5.7-.7.7-.39,0-.39-.29-.39-.42,0-.05.03-.65.03-.74h-6.66c.02.45.02.62-.03.75-.03.08-.25.44-.65.44-.34,0-.42-.23-.42-.44,0-.17.07-.87.08-1.02.1-1.44.13-5.65.13-6.79,0-4.44-.07-4.8-.28-5.5l1.43.77h6.12l.49-.44s.18-.18.32-.18c.07,0,.12.03.27.15l.64.55c.15.12.2.22.2.32,0,.18-.34.37-.69.59Zm-.92-.59h-6.67v5.1h6.67v-5.1Zm0,5.5h-6.67v5.48h6.67v-5.48Z"/>
        <path class="cls-5" d="m374.88,218.54c-1.78,0-3.64-.96-3.64-3.04,0-1.69,1.26-2.5,3.04-3.49-.94-.47-2.58-1.31-2.58-3.19,0-1.76,1.56-3.15,3.42-3.15,1.68,0,3.05,1.11,3.05,2.67s-1.33,2.52-2.11,3.07c1.02.57,2.73,1.49,2.73,3.54s-1.51,3.59-3.91,3.59Zm-.17-6.32c-.92.64-2.23,1.54-2.23,3.24s1.11,2.57,2.53,2.57,2.78-.92,2.78-2.67c0-1.58-1.27-2.26-3.09-3.14Zm.27-6.04c-1.01,0-2.31.7-2.31,2.2,0,.82.37,1.27.97,1.73.5.39,1.21.77,1.95,1.07.47-.35,1.63-1.22,1.63-2.65,0-1.09-.75-2.35-2.23-2.35Z"/>
        <path class="cls-5" d="m385.69,206.71c-.02.34-.03.82-.03,1.56,0,1.84.07,4.21.13,6.07,0,.2.05,1.16.05,1.34,0,.15,0,.32-.18.49-.12.1-.29.15-.4.15-.4,0-.4-.13-.39-1.12h-2.38c0,.27.03,1.39.03,1.63,0,.4-.54.52-.65.52-.28,0-.32-.25-.32-.4,0-.1.02-.62.02-.92.07-2.26.08-4.51.08-6.76,0-2.41-.03-2.73-.17-3.91l1.21.6h1.98l.45-.42c.12-.1.2-.18.29-.18.1,0,.22.1.34.22l.37.37c.07.07.15.17.15.27,0,.13-.35.37-.57.5Zm-.81-.35h-2.41v3.92h2.41v-3.92Zm0,4.33h-2.41v4.11h2.41v-4.11Zm10.9-.32h-7.21c-.54,0-1.48.07-2.16.2l-.4-.72c.94.07,1.86.12,2.8.12h1.41v-2.57h-.72c-.52,0-1.48.07-2.16.2l-.39-.72c.92.07,1.86.12,2.78.12h.49c0-1.56-.05-1.91-.29-2.75l1.49.45c.15.05.25.08.25.25,0,.03,0,.12-.12.2-.22.15-.23.18-.37.29-.02.23-.03.67-.03,1.56h2.06l.45-.59c.05-.07.17-.2.25-.2.12,0,.23.08.32.17l.65.59c.08.08.17.15.17.25,0,.17-.15.18-.25.18h-3.66c-.02.87-.02,1.83-.02,2.57h2.97l.54-.67c.12-.15.18-.2.25-.2.1,0,.22.1.28.17l.7.69c.12.12.15.18.15.25,0,.17-.18.17-.25.17Zm-.02,3.32h-2.85c.02,1.16.05,2.75.05,3.94,0,.57-.05.92-.6,1.29-.57.39-1.11.5-1.33.55-.1-.34-.25-.77-1.58-1.43v-.13c.77.08,1.48.12,1.63.12.25,0,.79-.02.92-.2.08-.12.08-1.01.08-1.26,0-.57-.02-1.54-.05-2.88h-3.27c-.54,0-1.48.05-2.16.18l-.39-.72c.92.08,1.84.13,2.78.13h3.02c-.05-1.74-.05-1.95-.17-2.36l1.27.32c.17.05.23.08.23.18,0,.17-.34.44-.45.54-.02.2-.02.32-.02,1.32h1.27l.44-.64c.07-.08.15-.2.27-.2.1,0,.22.1.29.17l.7.64c.07.07.15.13.15.25,0,.15-.13.18-.25.18Zm-6.36,3.09c-.42,0-.47-.22-.6-.92-.05-.29-.15-.59-.18-.7-.22-.6-.35-.7-.45-.82l.05-.12c.87.35,1.78,1.26,1.78,1.93,0,.5-.39.64-.59.64Z"/>
        <path class="cls-5" d="m412.85,211.81c-.12,0-.4-.07-.84-.64-.87-1.11-.97-1.22-1.26-1.54-2.48.39-8.64,1.09-10.72,1.29-.17.32-.29.5-.45.5-.15,0-.18-.1-.25-.32l-.59-1.73c.22.12.54.27.96.32.96.1,1.9.1,2.85.07,1.24-2.01,2.48-4.86,2.48-5.32,0-.12,0-.29-.03-.47l1.76.96c.1.05.17.13.17.23,0,.25-.29.3-.87.37-2.08,2.87-2.31,3.17-3.22,4.23,1.02-.02,1.96-.07,2-.07.91-.05,4.9-.23,5.7-.27-.94-.92-1.86-1.54-2.3-1.84v-.08c1.49.47,5.16,2.13,5.16,3.62,0,.4-.35.69-.55.69Zm-1.93,1.66c0,1.14.05,2.7.07,3.54,0,.27.07,1.43.07,1.66,0,.62-.65.65-.69.65-.3,0-.39-.22-.39-.44,0-.17.03-.45.03-.59h-7.93c0,.52,0,.72-.1.89-.08.13-.3.37-.62.37-.34,0-.39-.22-.39-.42,0-.12.05-.65.05-.77.08-1.34.08-3,.08-4.36,0-.67.05-1.44-.15-2.16l1.46.81h7.24l.37-.44c.05-.07.15-.17.22-.17s.13.02.27.1l.92.55c.12.07.17.12.17.23,0,.17-.18.25-.69.54Zm-.89-.42h-7.95v4.85h7.95v-4.85Z"/>
      </g>
      <line class="cls-2" x1="319.72" y1="179.13" x2="319.72" y2="237.31"/>
      <line class="cls-4" x1="31.28" y1="92.84" x2="609.54" y2="92.84"/>
      <g>
        <line class="cls-1" x1="232.16" y1="129.86" x2="232.66" y2="129.86"/>
        <line class="cls-3" x1="236.62" y1="129.86" x2="452.51" y2="129.86"/>
        <line class="cls-1" x1="454.49" y1="129.86" x2="454.99" y2="129.86"/>
      </g>
      <g>
        <path class="cls-7" d="m467.01,68.55c3.44-3.4,7.37-9.52,8.38-11.88.29-.72.43-1.15.68-2.11l2.9,2.25c.14.11.21.29.21.47,0,.5-.57.5-1.4.64-.57.82-1.29,1.83-2.58,3.51.43.36.61.47.61.72,0,.21-.14.43-.93,1-.11,1.54-.11,2.94-.11,4.05,0,1.54.11,8.45.11,9.84,0,1.86,0,2.86-1.58,2.86-.64,0-1.25-.21-1.25-1,0-.47.21-2.51.21-2.9.11-2.18.07-3.11.14-11.28-2.58,2.61-4.55,3.69-5.26,4.08l-.14-.25Zm.14-10.49c5.01-4.69,7.91-9.38,8.3-10.88l2.69,1.93c.07.07.29.25.29.43,0,.39-.14.43-1.5.72-3.11,4.15-6.55,6.44-9.59,8.09l-.18-.29Zm28.53,1.9l1.29-1.79c.29-.43.43-.47.54-.47.21,0,.36.14.68.39l2.11,1.79c.21.18.36.32.36.54,0,.36-.29.39-.54.39h-12.74l3.33,1.07c.21.07.47.18.47.43,0,.47-.86.97-1.11,1.07v3.54h3.69l1.29-1.54c.29-.32.36-.43.57-.43.18,0,.29.07.68.39l1.79,1.5c.18.14.36.29.36.54,0,.32-.29.39-.54.39h-7.84c0,.5-.04,7.7-.04,7.88.82.11,2.76.39,5.33.39,3.29,0,4.94-.47,5.76-.64l.04.14c-.57.47-1.75,1.43-2.08,3.47-.57.04-1.18.11-2.04.11-11.53,0-13.42-6.48-14.25-9.41-.9,2.47-2.58,6.77-7.2,9.24l-.11-.14c5.3-5.98,5.83-12.92,5.83-14.43,0-.82-.07-1.25-.14-1.61l3.65,1.18c.21.07.39.18.39.5,0,.18-.07.29-.18.39-.14.11-.9.47-1.04.54-.36,1.68-.64,2.54-.97,3.51,1.58,3.51,3.51,5.3,4.62,5.94,0-9.42,0-10.02-.07-11.49-.04-.43-.25-2.18-.29-2.54h-3.76c-.9,0-2.61.04-4.22.32l-.72-1.43c2.47.21,5.01.25,5.51.25h3.47c0-2.11,0-4.37-.04-6.3h-2.76c-.64,0-2.47,0-4.19.32l-.72-1.4c2.22.18,4.44.21,5.51.21h2.15c-.07-3.44-.11-3.72-.64-5.55l3.72,1.11c.29.07.5.18.5.43s-.9,1.04-1.07,1.18v2.83h3.51l1.4-1.72c.21-.25.32-.43.57-.43s.36.11.64.36l1.9,1.72c.18.18.36.32.36.57,0,.32-.32.36-.54.36h-7.88v6.3h5.66Z"/>
        <path class="cls-7" d="m537.61,60.5h-15.97l1.25.29c.75.18.89.18.89.5,0,.29-.11.43-.89.86,0,1,.14,5.51.14,6.41,0,2.15,0,3.22-3.76,4.3-.39-1.5-1.47-2.51-3.04-3.29v-.21c.47,0,2.54.14,2.97.14,1.29,0,1.29-.04,1.32-1.32.04-1.68,0-5.76-.04-7.66h-9.74c-.9,0-2.61.04-4.22.32l-.72-1.43c2.43.21,4.98.25,5.51.25h1.68c0-6.34,0-7.02-.54-9.02l3.51.97c.54.14.68.29.68.61,0,.29-.11.39-1.11,1.07v6.37h4.9c0-8.05,0-8.95-.07-10.17-.04-.79-.14-1.61-.39-3.51l3.29.9c.39.11.68.21.68.61,0,.25,0,.39-1.07,1v4.62h5.15l1.4-2.04c.14-.18.36-.47.57-.47.18,0,.43.21.64.39l2.29,2.04c.21.21.36.32.36.54,0,.36-.29.39-.54.39h-9.88v5.69h9.84l1.68-2.15c.21-.29.43-.47.57-.47.18,0,.43.18.64.39l2.15,2.15c.25.25.36.39.36.54,0,.36-.29.39-.54.39Zm-20.33,4.33c-.14.07-.57.18-.89.29-2.4,4.01-5.73,7.05-9.7,9.38l-.14-.18c3.83-4.04,6.44-8.81,6.94-9.99.29-.64.47-1.29.68-2.15l2.79,1.47c.32.18.61.32.61.75,0,.18-.11.36-.29.43Zm10.95,6.37c-5.73,5.01-11.38,8.27-20.12,8.56l-.04-.25c5.33-1.32,10.77-3.4,15.89-8.13,1.18-1.07,2.43-2.25,3.19-3.54l2.18,2.15c.29.29.43.47.43.68,0,.43-.14.43-1.54.54Zm6.23.93c-1.04,0-1.54-.79-2.22-1.9-2.26-3.69-4.08-5.37-6.48-7.09l.14-.21c6.41,1.54,9.99,5.48,9.99,7.66,0,.75-.57,1.54-1.43,1.54Z"/>
        <path class="cls-7" d="m556.31,63.07c-1.04.65-2.59,1.29-4.33,1.29-4.92,0-8.9-4.97-8.9-11.04,0-6.86,4.92-13.08,10.64-13.08s11.44,6.46,11.44,17.16c0,11.49-6.46,21.04-14.07,21.04-3.33,0-5.67-1.99-5.67-4.33,0-1.79,1.39-2.59,2.54-2.59.99,0,2.64.65,2.74,3.43.05,1.09.15,1.79,1.49,1.79s2.69-.65,3.63-1.74c4.43-4.87,4.67-12.23,4.87-16.66-.94,1.54-1.99,3.23-4.38,4.72Zm1.64-18.45c-.85-1.34-2.14-2.69-4.03-2.69-2.64,0-6.37,2.78-6.37,10.94,0,2.29.55,9.25,5.67,9.25,1.89,0,5.07-1.39,7.41-6.76-.2-2.74-.6-7.51-2.69-10.74Z"/>
        <path class="cls-7" d="m581.85,52.48c-2.97,6.09-8.38,10.67-11.1,12.17l-.18-.25c5.01-5.69,7.84-10.7,8.66-13.1.32-.9.47-1.61.57-2.29l3.08,2.08c.18.11.47.32.47.57,0,.43-.93.68-1.5.82Zm12.99,11.2c-.36,12.89-1.07,15.5-7.52,16.07-.14-2.26-1.9-3.44-2.68-3.94l.04-.25c1.5.32,3.04.61,4.15.61,1.72,0,2.4-.39,2.94-3.65.43-2.65.64-8.63.54-10.31h-7.23c-.21,5.62-2.61,15.32-13.89,17.4l-.07-.29c7.27-3.37,10.95-8.77,11.31-17.11h-1.04c-.89,0-2.61.04-4.22.36l-.68-1.43c2.22.18,4.4.21,5.48.21h10.13l.97-.86c.21-.21.43-.39.64-.39.18,0,.36.18.5.32l1.43,1.57c.18.18.32.39.32.57,0,.32-.11.39-1.11,1.11Zm6.52-.04c-3.83-1.65-8.09-5.51-10.77-13.6h-2.86c-1.79,0-2.51.14-3.01.21l-.47-1.25c1.61.14,3.19.18,3.9.18h1.79l1.15-1.15c.32-.32.47-.39.64-.39.21,0,.36.18.61.39l1.32,1.29c.21.18.29.32.29.54,0,.72-1.65,1-2.29,1.11,1.72,4.62,7.66,9.2,13.14,9.59l.04.36c-2,.61-2.83,1.75-3.47,2.72Z"/>
      </g>
    </g>
  </g>
</svg>