<svg id="intro02" xmlns="http://www.w3.org/2000/svg" width="640" height="269.3" viewBox="0 0 640 269.3">
  <rect id="長方形_28" data-name="長方形 28" width="640" height="269.3" fill="#ac1063"/>
  <path id="パス_688" data-name="パス 688" d="M49.72,112.02v31.04h-1.5V110.48H60.1v1.54Z" fill="#fff"/>
  <path id="パス_689" data-name="パス 689" d="M84.05,113.99a9.21,9.21,0,0,0-.5-3.54l3.4.82c.29.07.5.18.5.5,0,.47-.21.57-1.04,1.04v1.18h6.3l1.15-1.61c.11-.18.32-.47.54-.47.18,0,.47.25.64.39l2.08,1.61a.68.68,0,0,1,.36.54c0,.36-.32.39-.54.39H86.42a7.594,7.594,0,0,1,0,2.11c-.14.61-.89.86-1.54.86-.47,0-.82-.21-.86-.68,0-.14-.04-1.54,0-2.29H77.86c0,.43.11,2.33.11,2.72,0,.86-.93,1.15-1.72,1.15-.54,0-.75-.29-.75-1,0-.47.07-2.47.07-2.86H71.42a25.5,25.5,0,0,0-4.19.32l-.72-1.43c1.83.18,3.65.25,5.48.25h3.54a8.925,8.925,0,0,0-.54-3.47l3.51.79a.471.471,0,0,1,.43.43c0,.54-.32.72-1.04,1.15-.04.57-.04.75-.04,1.11h6.19Zm-17.4,10.17c5.01.43,5.01,2.65,5.01,3.01a1.294,1.294,0,0,1-1.29,1.4c-.79,0-1-.36-1.83-1.75a6.562,6.562,0,0,0-1.93-2.4l.04-.25Zm8.38-.18a59.073,59.073,0,0,1-2.58,8.31,17.843,17.843,0,0,0-1.25,4.3,5.57,5.57,0,0,0,.68,2.04,5.509,5.509,0,0,1,.54,2.29c0,.64-.14,2.08-1.65,2.08s-1.58-1.5-1.58-2.26a17.318,17.318,0,0,0-.11-3.15,3.972,3.972,0,0,0-2.25-2.76v-.29c2.08.07,2.04.04,3.26-1.97.36-.61,2.4-4.04,4.73-8.73l.21.14Zm-5.19-6.34c1.75.25,4.83.72,4.83,3.08a1.266,1.266,0,0,1-1.32,1.29c-.97,0-1.32-.79-1.68-1.54a6.567,6.567,0,0,0-1.86-2.58l.04-.25Zm24.13,3.15,1.04-1.5c.18-.25.36-.5.57-.5a1.1,1.1,0,0,1,.64.39l1.68,1.54c.21.18.36.32.36.54,0,.36-.32.39-.57.39H86.84v3.11h5.05l.93-.97a.7.7,0,0,1,.43-.29,1.727,1.727,0,0,1,.79.39l1.47,1.25a.98.98,0,0,1,.36.61c0,.36-.5.64-1.25,1.07-.07,1.61,0,4.58.07,8.34,0,.64.14,3.36.14,3.94,0,1.07,0,3.01-3.58,3.72a4.505,4.505,0,0,0-2.43-3.22v-.21c.93.07,1.79.07,2.33.07,1.15,0,1.18-.18,1.18-.97v-3.87H86.92c0,1.07.14,5.76.14,6.73,0,.47,0,1.65-1.65,1.65-.97,0-.97-.57-.97-1.15,0-.86.07-4.65.07-5.44v-1.79h-4.8c.04,1.4.11,4.51.11,5.8,0,.89,0,2.08-1.79,2.08-.72,0-.9-.25-.9-1.47,0-.14.18-8.16.18-9.34a68.77,68.77,0,0,0-.32-8.34l3.04,1.4H84.5c0-.18-.04-3.01-.04-3.11H80.38a24.177,24.177,0,0,0-4.22.32l-.72-1.43c2.61.21,4.9.25,5.51.25h3.51a10.042,10.042,0,0,0-.36-2.83l3.44.86c.21.07.43.18.43.47,0,.43-.29.57-1.15,1v.5h7.12Zm-9.45,8.52v-3.69h-4.8v3.69Zm0,4.47v-3.62h-4.8v3.62Zm2.33-8.16v3.69h5.48v-3.69Zm0,4.55c0,.82.04,2.61.07,3.62h5.41v-3.62Zm1.47-13.75c1.4.04,4.65.14,4.65,2.26a1.184,1.184,0,0,1-1.29,1.22c-.68,0-.82-.21-1.65-1.4a5.431,5.431,0,0,0-1.72-1.86v-.21Z" fill="#fff"/>
  <path id="パス_690" data-name="パス 690" d="M128.91,114.14l1-.93c.21-.18.32-.39.54-.39a1.034,1.034,0,0,1,.54.25l1.93,1.43c.21.18.39.32.39.61,0,.5-1.18,1.04-1.5,1.18-.11,3.51-.04,13.78.14,19.62,0,.54.21,3.08.21,3.58a1.86,1.86,0,0,1-2.04,1.86c-1.15,0-1.07-.64-1-2.08H108.86c0,.21,0,1.29-.04,1.43-.25.82-1.32,1.11-1.93,1.11a.947.947,0,0,1-1.07-1c0-.43.11-2.26.11-2.65.14-5.19.25-10.38.25-15.54,0-7.02-.18-8.27-.5-10.35l3.4,1.86h19.83Zm-20.05.86v11.1h8.77V115Zm0,11.96v11.46h8.77V126.96Zm20.26-.86V115H120.1v11.1Zm0,12.31V126.95H120.1v11.46Z" fill="#fff"/>
  <path id="パス_691" data-name="パス 691" d="M140.22,142.77v-1.54H150.6V110.19h1.5v32.58H140.22Z" fill="#fff"/>
  <path id="パス_692" data-name="パス 692" d="M160.63,140.05a1.17,1.17,0,0,1-1.18-1.32,40.541,40.541,0,0,1,1.36-4.12,4.61,4.61,0,0,0,.07-1.54l.32-.04a7.87,7.87,0,0,1,1.32,4.26c0,.97-.29,2.76-1.9,2.76Zm13.21-10.42a31.308,31.308,0,0,1-2.18,9.88,5.179,5.179,0,0,1-3.87,2.97,5.058,5.058,0,0,0-2.94-3.54l.07-.25a19.154,19.154,0,0,0,3.47.39c.72,0,1-.07,1.4-.93,1.04-2.33,1.57-6.98,1.57-9.34h-7.98a1.444,1.444,0,0,1-1.54,1.75c-.72,0-.9-.36-.9-.97,0-.21.07-1.07.07-1.25.14-2.25.18-8.48.18-10.95a38,38,0,0,0-.36-5.94l2.68,1.32h6.66l.86-1.04c.25-.29.43-.47.61-.47.21,0,.39.18.72.39l1.4,1.04a.871.871,0,0,1,.39.57c0,.25-.32.36-.57.36h-4.94v4.15h1.54l.68-.86c.29-.36.39-.5.57-.5s.39.18.72.39l1.15.86a.794.794,0,0,1,.39.57c0,.32-.32.39-.57.39h-4.47v4.12h1.57l.86-1c.25-.29.39-.43.57-.43.21,0,.36.11.64.36l1.07,1a.881.881,0,0,1,.32.57c0,.21-.21.36-.54.36h-4.51v4.33h2.4l.93-1.04c.21-.25.39-.43.57-.43s.39.14.72.47l1.4,1.29a.689.689,0,0,1,.25.47c0,.43-.82.82-1.07.93Zm-9.06,8.88c-1.18,0-1.18-1.5-1.18-2.26,0-2.22,0-2.97-.39-3.94l.21-.11c.25.29,1.54,1.58,1.72,1.9a5.117,5.117,0,0,1,1,2.76,1.566,1.566,0,0,1-1.36,1.65Zm1.72-24.88h-3.15v4.15h3.15Zm0,5.01h-3.15v4.12h3.15Zm0,4.98h-3.15v4.33h3.15Zm1.25,12.57c-.93,0-1.04-.61-1.32-2.65a9.892,9.892,0,0,0-.68-2.61l.14-.11c1.9,1.65,2.97,2.61,2.97,4.01A1.244,1.244,0,0,1,167.75,136.19Zm2-2.65c-.72,0-.86-.57-1.25-2a4.692,4.692,0,0,0-.82-1.65l.21-.21c1.68.79,2.76,1.54,2.76,2.72,0,.57-.32,1.15-.9,1.15Zm23.7,6.59a5.329,5.329,0,0,0-3.4,2.11c-4.01-3.26-6.98-9.41-6.98-17.86h-3.83c-.36,8.81-2.11,14.21-7.34,17.97l-.18-.14c5.01-5.44,5.19-15.43,5.19-22.87a32.839,32.839,0,0,0-.61-7.59l3.4,1.5h7.37l1.04-1a.86.86,0,0,1,.57-.32c.18,0,.32.07.61.32l1.43,1.22a.752.752,0,0,1,.32.57c0,.25-.68.75-1.11,1.04-.04.61-.07,1.29-.07,2.26,0,1.15.21,6.16.21,7.27s-1.11,1.43-1.68,1.43c-1.15,0-1.07-.79-1.04-1.65H183.7c.82,7.8,5.98,14,9.77,15.54l-.04.21Zm-6.05-26.02h-7.95c-.04,1.36-.18,7.95-.18,9.41h8.13v-9.41Z" fill="#fff"/>
  <path id="パス_693" data-name="パス 693" d="M213.88,135.27c-.82,0-4.62-2.64-6.06-3.96-.58-.52-3.58-3.24-4.16-3.78a1.247,1.247,0,0,0-.76-.28c-.82,0-2.5,1.98-3.34,2.98-1.14,1.34-1.28,1.5-1.66,1.5a2.014,2.014,0,0,1-1.84-1.72,2.742,2.742,0,0,1,.04-.32,2.056,2.056,0,0,0,1.08.36c.62,0,1.48-.72,2.14-1.32.34-.3,1.78-1.62,2.08-1.86a2.507,2.507,0,0,1,1.56-.72,2.476,2.476,0,0,1,1.74.92,29.438,29.438,0,0,0,8.42,5.96c.36.18,1.38.72,1.38,1.64a.543.543,0,0,1-.62.6Z" fill="#fff"/>
  <path id="パス_694" data-name="パス 694" d="M496.54,128.85a9.234,9.234,0,0,1,3.38,7.36c0,6.12-5.02,10.49-11.59,10.49-5.37,0-9.9-3.03-9.9-7.01a2.864,2.864,0,0,1,2.83-3.18A2.438,2.438,0,0,1,483.7,139a4.064,4.064,0,0,1-.3,1.59,3.533,3.533,0,0,0-.15,1.14c0,1.89,2.14,3.28,4.48,3.28,3.83,0,7.71-3.78,7.71-8.8s-3.78-9.1-7.76-9.1c-.3,0-1.69.2-1.99.2a.976.976,0,0,1-1.09-1.04,1.121,1.121,0,0,1,1.14-1.14c.3,0,1.79.3,2.14.3,4.18,0,6.81-3.73,6.81-7.76s-2.34-7.46-6.27-7.46c-2.64,0-4.03,1.89-4.03,3.33a3.987,3.987,0,0,0,.15.75,4.912,4.912,0,0,1,.15,1.19,2.631,2.631,0,0,1-2.54,2.74,2.579,2.579,0,0,1-2.49-2.74c0-2.73,3.18-6.96,9.55-6.96s9.95,3.98,9.95,8.35a8.613,8.613,0,0,1-1.84,5.07,11.836,11.836,0,0,1-6.32,4.23,13.267,13.267,0,0,1,5.52,2.69Z" fill="#fff"/>
  <path id="パス_695" data-name="パス 695" d="M507.03,145.26a1.17,1.17,0,0,1-1.18-1.32,40.544,40.544,0,0,1,1.36-4.12,4.61,4.61,0,0,0,.07-1.54l.32-.04a7.87,7.87,0,0,1,1.32,4.26c0,.97-.29,2.76-1.9,2.76Zm13.21-10.42a31.307,31.307,0,0,1-2.18,9.88,5.179,5.179,0,0,1-3.87,2.97,5.058,5.058,0,0,0-2.94-3.54l.07-.25a19.154,19.154,0,0,0,3.47.39c.72,0,1-.07,1.4-.93,1.04-2.33,1.57-6.98,1.57-9.34h-7.98a1.444,1.444,0,0,1-1.54,1.75c-.72,0-.9-.36-.9-.97,0-.21.07-1.07.07-1.25.14-2.25.18-8.48.18-10.95a38,38,0,0,0-.36-5.94l2.68,1.32h6.66l.86-1.04c.25-.29.43-.47.61-.47.21,0,.39.18.72.39l1.4,1.04a.871.871,0,0,1,.39.57c0,.25-.32.36-.57.36h-4.94v4.15h1.54l.68-.86c.29-.36.39-.5.57-.5s.39.18.72.39l1.15.86a.794.794,0,0,1,.39.57c0,.32-.32.39-.57.39h-4.47v4.12h1.57l.86-1c.25-.29.39-.43.57-.43.21,0,.36.11.64.36l1.07,1a.881.881,0,0,1,.32.57c0,.21-.21.36-.54.36h-4.51v4.33h2.4l.93-1.04c.21-.25.39-.43.57-.43s.39.14.72.47l1.4,1.29a.689.689,0,0,1,.25.47c0,.43-.82.82-1.07.93Zm-9.06,8.88c-1.18,0-1.18-1.5-1.18-2.26,0-2.22,0-2.97-.39-3.94l.21-.11c.25.29,1.54,1.58,1.72,1.9a5.117,5.117,0,0,1,1,2.76,1.566,1.566,0,0,1-1.36,1.65Zm1.72-24.88h-3.15v4.15h3.15Zm0,5.01h-3.15v4.12h3.15Zm0,4.98h-3.15v4.33h3.15Zm1.25,12.57c-.93,0-1.04-.61-1.32-2.65a9.891,9.891,0,0,0-.68-2.61l.14-.11c1.9,1.65,2.97,2.61,2.97,4.01A1.244,1.244,0,0,1,514.15,141.4Zm2-2.65c-.72,0-.86-.57-1.25-2a4.692,4.692,0,0,0-.82-1.65l.21-.21c1.68.79,2.76,1.54,2.76,2.72,0,.57-.32,1.15-.89,1.15Zm23.7,6.59a5.33,5.33,0,0,0-3.4,2.11c-4.01-3.26-6.98-9.41-6.98-17.86h-3.83c-.36,8.81-2.11,14.21-7.34,17.97l-.18-.14c5.01-5.44,5.19-15.43,5.19-22.87a32.84,32.84,0,0,0-.61-7.59l3.4,1.5h7.37l1.04-1a.86.86,0,0,1,.57-.32c.18,0,.32.07.61.32l1.43,1.22a.752.752,0,0,1,.32.57c0,.25-.68.75-1.11,1.04-.04.61-.07,1.29-.07,2.26,0,1.15.21,6.16.21,7.27s-1.11,1.43-1.68,1.43c-1.15,0-1.07-.79-1.04-1.65H530.1c.82,7.8,5.98,14,9.77,15.54l-.04.21Zm-6.05-26.02h-7.95c-.04,1.36-.18,7.95-.18,9.41h8.13Z" fill="#fff"/>
  <path id="パス_696" data-name="パス 696" d="M551.93,123.93a8.372,8.372,0,0,1,4.33-1.29c4.92,0,8.9,4.97,8.9,10.99,0,6.91-4.92,13.08-10.64,13.08s-11.44-6.42-11.44-17.16c0-11.49,6.46-21.04,14.07-21.04,3.33,0,5.67,1.99,5.67,4.38a2.49,2.49,0,0,1-2.54,2.59c-.99,0-2.64-.65-2.74-3.48-.05-1.09-.15-1.79-1.49-1.79a5.127,5.127,0,0,0-3.63,1.79c-4.43,4.87-4.67,12.18-4.87,16.66a12.3,12.3,0,0,1,4.38-4.72Zm-1.64,18.4a4.931,4.931,0,0,0,4.03,2.68c2.64,0,6.37-2.73,6.37-10.94,0-2.24-.55-9.2-5.67-9.2-1.89,0-5.07,1.39-7.41,6.76.2,2.74.6,7.51,2.69,10.69Z" fill="#fff"/>
  <path id="パス_697" data-name="パス 697" d="M581.85,120.74a30.853,30.853,0,0,1-11.1,12.17l-.18-.25c5.01-5.69,7.84-10.7,8.66-13.1a11.362,11.362,0,0,0,.57-2.29l3.08,2.08c.18.11.47.32.47.57,0,.43-.93.68-1.5.82Zm12.99,11.2c-.36,12.89-1.07,15.5-7.52,16.07a5.136,5.136,0,0,0-2.68-3.94l.04-.25a22.481,22.481,0,0,0,4.15.61c1.72,0,2.4-.39,2.94-3.65a73.942,73.942,0,0,0,.54-10.31h-7.23c-.21,5.62-2.61,15.32-13.89,17.4l-.07-.29c7.27-3.37,10.95-8.77,11.31-17.11h-1.04a22.853,22.853,0,0,0-4.22.36l-.68-1.43c2.22.18,4.4.21,5.48.21H592.1l.97-.86a1.066,1.066,0,0,1,.64-.39c.18,0,.36.18.5.32l1.43,1.57a.928.928,0,0,1,.32.57c0,.32-.11.39-1.11,1.11Zm6.52-.04c-3.83-1.65-8.09-5.51-10.77-13.6h-2.86a17.12,17.12,0,0,0-3.01.21l-.47-1.25c1.61.14,3.19.18,3.9.18h1.79l1.15-1.15c.32-.32.47-.39.64-.39.21,0,.36.18.61.39l1.32,1.29a.649.649,0,0,1,.29.54c0,.72-1.65,1-2.29,1.11,1.72,4.62,7.66,9.2,13.14,9.59l.04.36a5.872,5.872,0,0,0-3.47,2.72Z" fill="#fff"/>
  <path id="パス_698" data-name="パス 698" d="M49.72,48.15V79.19h-1.5V46.61H60.1v1.54Z" fill="#fff"/>
  <path id="パス_699" data-name="パス 699" d="M97.79,51.2H83.01v5.87c3.54.61,8.98,2.61,8.98,6.09a1.529,1.529,0,0,1-1.5,1.68c-.93,0-1.22-.47-2.51-2.54A15.334,15.334,0,0,0,83,57.5c.04,8.13.04,9.02.21,17.25,0,.25.04,1.43.04,1.68a1.722,1.722,0,0,1-1.93,1.86c-1.22,0-1.22-.79-1.22-1.18,0-1.04.25-6.12.29-7.27.07-2.83.07-4.4.07-18.65h-8.7a25.305,25.305,0,0,0-4.19.32l-.72-1.43c1.83.14,3.65.25,5.51.25h19.9l2-1.93a1.689,1.689,0,0,1,.57-.39,1.137,1.137,0,0,1,.68.36l2.47,1.9a.824.824,0,0,1,.36.54c0,.36-.36.39-.57.39Z" fill="#fff"/>
  <path id="パス_700" data-name="パス 700" d="M135.74,77.54c-1.11.5-2.72.54-6.05.54-2.9,0-5.08-.07-5.08-3.29,0-2.97.82-16.07.93-18.76h-5.8a49.3,49.3,0,0,1-1.4,8.27c.86.5,4.37,2.65,4.37,4.73a1.408,1.408,0,0,1-2.54.83c-1.54-1.79-1.93-2.18-2.61-2.9a19.6,19.6,0,0,1-8.02,10.09,20.182,20.182,0,0,1-4.9,2.26l-.11-.21a23.353,23.353,0,0,0,11.1-13.96,20.3,20.3,0,0,0-5.33-3.54v-.21a21.432,21.432,0,0,1,5.84,1.79,40.2,40.2,0,0,0,.97-7.12h-6.12a24.417,24.417,0,0,0-4.22.32l-.68-1.4c2.22.18,4.44.21,5.48.21h5.62a35.48,35.48,0,0,0-.64-8.98l4.4,1.29a.569.569,0,0,1,.36.5c0,.29-.21.47-1.11,1.18-.07,3.36-.29,5.48-.32,6.01h5.41l1.36-1.18c.14-.11.39-.36.57-.36a1.026,1.026,0,0,1,.57.25l1.75,1.5c.11.11.29.21.29.39,0,.36-.47.61-1.61,1.25-.36,2.36-.79,11.56-.89,14.61-.04.97-.07,1.86-.07,2,0,1.9.54,1.9,3.83,1.9,1.61,0,2.43,0,2.83-1.25.32-1,.97-4.04,1.22-5.3h.21c.14.82.68,4.44.89,5.15.14.39.21.47.72.93a1.026,1.026,0,0,1,.32.79c0,.54-.39,1.22-1.5,1.68Z" fill="#fff"/>
  <path id="パス_701" data-name="パス 701" d="M174.73,62.94H160.3V74.61c0,1.36,0,3.97-4.58,4.44-.11-1.07-.36-2.33-4.19-4.08l.04-.25a30.583,30.583,0,0,0,3.9.36c1.68,0,2.18-.14,2.18-1.5V62.95h-9.88a24.177,24.177,0,0,0-4.22.32l-.72-1.43c2.22.18,4.44.25,5.51.25h9.31V58.47a9.441,9.441,0,0,0-.61-4.22l3.33.93a52.393,52.393,0,0,0,3.58-5.48H151.71a24.417,24.417,0,0,0-4.22.32l-.68-1.43c2.22.18,4.4.25,5.48.25h11.88l1.4-1.22c.36-.29.43-.36.68-.36.14,0,.29.11.61.36l2.51,2.04a.847.847,0,0,1,.36.61c0,.54-.43.68-2.65.75a70.653,70.653,0,0,1-5.98,4.37.567.567,0,0,1,.43.47c0,.47-.57.79-1.22,1.18v5.05h9.06l1.86-2.04c.32-.32.39-.47.54-.47.18,0,.36.14.68.39l2.47,2.04a.758.758,0,0,1,.36.57c0,.32-.29.36-.54.36Z" fill="#fff"/>
  <path id="パス_702" data-name="パス 702" d="M181.82,78.9V77.36H192.2V46.32h1.5V78.9Z" fill="#fff"/>
  <path id="パス_703" data-name="パス 703" d="M202.91,76.18a1.17,1.17,0,0,1-1.18-1.32,40.54,40.54,0,0,1,1.36-4.12,4.61,4.61,0,0,0,.07-1.54l.32-.04a7.87,7.87,0,0,1,1.32,4.26c0,.97-.29,2.76-1.9,2.76Zm13.21-10.42a31.308,31.308,0,0,1-2.18,9.88,5.179,5.179,0,0,1-3.87,2.97,5.058,5.058,0,0,0-2.94-3.54l.07-.25a19.154,19.154,0,0,0,3.47.39c.72,0,1-.07,1.4-.93,1.04-2.33,1.57-6.98,1.57-9.34h-7.98a1.444,1.444,0,0,1-1.54,1.75c-.72,0-.89-.36-.89-.97,0-.21.07-1.07.07-1.25.14-2.25.18-8.48.18-10.95a38,38,0,0,0-.36-5.94l2.68,1.32h6.66l.86-1.04c.25-.29.43-.47.61-.47.21,0,.39.18.72.39l1.4,1.04a.871.871,0,0,1,.39.57c0,.25-.32.36-.57.36h-4.94V53.9h1.54l.68-.86c.29-.36.39-.5.57-.5s.39.18.72.39l1.15.86a.794.794,0,0,1,.39.57c0,.32-.32.39-.57.39h-4.47v4.12h1.57l.86-1c.25-.29.39-.43.57-.43.21,0,.36.11.64.36l1.07,1a.881.881,0,0,1,.32.57c0,.21-.21.36-.54.36h-4.51v4.33h2.4l.93-1.04c.21-.25.39-.43.57-.43s.39.14.72.47l1.4,1.29a.689.689,0,0,1,.25.47c0,.43-.82.82-1.07.93Zm-9.06,8.88c-1.18,0-1.18-1.5-1.18-2.26,0-2.22,0-2.97-.39-3.94l.21-.11c.25.29,1.54,1.58,1.72,1.9a5.117,5.117,0,0,1,1,2.76,1.566,1.566,0,0,1-1.36,1.65Zm1.72-24.88h-3.15v4.15h3.15Zm0,5.01h-3.15v4.12h3.15Zm0,4.98h-3.15v4.33h3.15V59.75Zm1.25,12.56c-.93,0-1.04-.61-1.32-2.65a9.892,9.892,0,0,0-.68-2.61l.14-.11c1.9,1.65,2.97,2.61,2.97,4.01A1.244,1.244,0,0,1,210.03,72.31Zm2-2.65c-.72,0-.86-.57-1.25-2a4.692,4.692,0,0,0-.82-1.65l.21-.21c1.68.79,2.76,1.54,2.76,2.72,0,.57-.32,1.15-.9,1.15Zm23.7,6.59a5.329,5.329,0,0,0-3.4,2.11c-4.01-3.26-6.98-9.41-6.98-17.86h-3.83c-.36,8.81-2.11,14.21-7.34,17.97l-.18-.14c5.01-5.44,5.19-15.43,5.19-22.87a32.839,32.839,0,0,0-.61-7.59l3.4,1.5h7.37l1.04-1a.86.86,0,0,1,.57-.32c.18,0,.32.07.61.32L233,49.59a.752.752,0,0,1,.32.57c0,.25-.68.75-1.11,1.04-.04.61-.07,1.29-.07,2.26,0,1.15.21,6.16.21,7.27s-1.11,1.43-1.68,1.43c-1.15,0-1.07-.79-1.04-1.65h-3.65c.82,7.8,5.98,14,9.77,15.54l-.04.21Zm-6.05-26.02h-7.95c-.04,1.36-.18,7.95-.18,9.41h8.13V50.23Z" fill="#fff"/>
  <path id="パス_704" data-name="パス 704" d="M246.84,76.42a12.254,12.254,0,0,1,0-19.36l.18.28a13.526,13.526,0,0,0,0,18.8Z" fill="#fff"/>
  <path id="パス_705" data-name="パス 705" d="M260.38,59.67a5.161,5.161,0,0,0-.28-1.98l1.9.46c.16.04.28.1.28.28,0,.26-.12.32-.58.58v.66h3.52l.64-.9c.06-.1.18-.26.3-.26.1,0,.26.14.36.22l1.16.9a.377.377,0,0,1,.2.3c0,.2-.18.22-.3.22H261.7a4.174,4.174,0,0,1,0,1.18c-.08.34-.5.48-.86.48-.26,0-.46-.12-.48-.38,0-.08-.02-.86,0-1.28h-3.44c0,.24.06,1.3.06,1.52,0,.48-.52.64-.96.64-.3,0-.42-.16-.42-.56,0-.26.04-1.38.04-1.6h-2.32a14.124,14.124,0,0,0-2.34.18l-.4-.8c1.02.1,2.04.14,3.06.14h1.98a5.113,5.113,0,0,0-.3-1.94l1.96.44a.258.258,0,0,1,.24.24c0,.3-.18.4-.58.64-.02.32-.02.42-.02.62h3.46Zm-9.72,5.68c2.8.24,2.8,1.48,2.8,1.68a.721.721,0,0,1-.72.78c-.44,0-.56-.2-1.02-.98a3.623,3.623,0,0,0-1.08-1.34Zm4.68-.1a32.617,32.617,0,0,1-1.44,4.64,10.057,10.057,0,0,0-.7,2.4,3.063,3.063,0,0,0,.38,1.14,3.091,3.091,0,0,1,.3,1.28c0,.36-.08,1.16-.92,1.16s-.88-.84-.88-1.26a10.091,10.091,0,0,0-.06-1.76,2.206,2.206,0,0,0-1.26-1.54v-.16c1.16.04,1.14.02,1.82-1.1.2-.34,1.34-2.26,2.64-4.88l.12.08Zm-2.9-3.54c.98.14,2.7.4,2.7,1.72a.707.707,0,0,1-.74.72c-.54,0-.74-.44-.94-.86a3.626,3.626,0,0,0-1.04-1.44l.02-.14Zm13.48,1.76.58-.84c.1-.14.2-.28.32-.28a.635.635,0,0,1,.36.22l.94.86c.12.1.2.18.2.3,0,.2-.18.22-.32.22h-6.06v1.74h2.82l.52-.54a.37.37,0,0,1,.24-.16.915.915,0,0,1,.44.22l.82.7a.54.54,0,0,1,.2.34c0,.2-.28.36-.7.6-.04.9,0,2.56.04,4.66,0,.36.08,1.88.08,2.2,0,.6,0,1.68-2,2.08a2.521,2.521,0,0,0-1.36-1.8v-.12c.52.04,1,.04,1.3.04.64,0,.66-.1.66-.54V71.21h-3.02c0,.6.08,3.22.08,3.76,0,.26,0,.92-.92.92-.54,0-.54-.32-.54-.64,0-.48.04-2.6.04-3.04v-1h-2.68c.02.78.06,2.52.06,3.24,0,.5,0,1.16-1,1.16-.4,0-.5-.14-.5-.82,0-.08.1-4.56.1-5.22a38.148,38.148,0,0,0-.18-4.66l1.7.78h2.5c0-.1-.02-1.68-.02-1.74h-2.28a13.454,13.454,0,0,0-2.36.18l-.4-.8c1.46.12,2.74.14,3.08.14h1.96a5.542,5.542,0,0,0-.2-1.58l1.92.48c.12.04.24.1.24.26,0,.24-.16.32-.64.56v.28h3.98Zm-5.28,4.76V66.17h-2.68v2.06Zm0,2.5V68.71h-2.68v2.02Zm1.3-4.56v2.06H265V66.17Zm0,2.54c0,.46.02,1.46.04,2.02H265V68.71Zm.82-7.68c.78.02,2.6.08,2.6,1.26a.661.661,0,0,1-.72.68c-.38,0-.46-.12-.92-.78a3.077,3.077,0,0,0-.96-1.04Z" fill="#fff"/>
  <path id="パス_706" data-name="パス 706" d="M285.44,59.75l.56-.52c.12-.1.18-.22.3-.22a.593.593,0,0,1,.3.14l1.08.8c.12.1.22.18.22.34,0,.28-.66.58-.84.66-.06,1.96-.02,7.7.08,10.96,0,.3.12,1.72.12,2a1.042,1.042,0,0,1-1.14,1.04c-.64,0-.6-.36-.56-1.16H274.24c0,.12,0,.72-.02.8-.14.46-.74.62-1.08.62a.532.532,0,0,1-.6-.56c0-.24.06-1.26.06-1.48.08-2.9.14-5.8.14-8.68a31.182,31.182,0,0,0-.28-5.78l1.9,1.04h11.08Zm-11.2.48v6.2h4.9v-6.2Zm0,6.68v6.4h4.9v-6.4Zm11.32-.48v-6.2h-5.04v6.2Zm0,6.88v-6.4h-5.04v6.4Z" fill="#fff"/>
  <path id="パス_707" data-name="パス 707" d="M309.24,61.97h-9.2l.96.42a.327.327,0,0,1,.22.28.393.393,0,0,1-.18.26c-.06.04-.36.22-.52.34a22.99,22.99,0,0,1-.36,2.42h4.62l.56-.62c.1-.12.18-.2.28-.2a.575.575,0,0,1,.3.14l1.14.86a.417.417,0,0,1,.14.3c0,.26-.58.54-.78.64-.56,7.4-1.1,8.78-4.26,9.12a3.6,3.6,0,0,0-1.96-2.42l.02-.14a10.887,10.887,0,0,0,2.7.44c.82,0,1.14-.2,1.48-1.84a34.077,34.077,0,0,0,.54-5.8h-4.88c-.44,1.9-1.86,8-8.12,9.58l-.08-.18c6.26-2.64,7.08-11,7.08-12.82a4.3,4.3,0,0,0-.06-.78h-4.44a13.959,13.959,0,0,0-2.36.18l-.38-.8c1.02.1,2.04.14,3.06.14h4.58c0-2.56,0-2.58-.52-4l2.38.62c.14.04.3.16.3.28,0,.16-.2.28-.74.64-.04.44-.04,1.92-.04,2.46h5.72l.94-1.1c.12-.14.2-.26.32-.26a.705.705,0,0,1,.36.22l1.28,1.1a.43.43,0,0,1,.2.3c0,.22-.18.22-.3.22Z" fill="#fff"/>
  <path id="パス_708" data-name="パス 708" d="M319.38,62.81a21.061,21.061,0,0,0,1.18-3.34h-5.22a13.821,13.821,0,0,0-2.36.18l-.4-.8c1.02.08,2.04.14,3.08.14h11.92l.88-.86c.16-.16.32-.3.38-.3.1,0,.18.06.38.22l1.12.9a.453.453,0,0,1,.2.3c0,.2-.2.22-.32.22h-7.78a36.155,36.155,0,0,1-2.58,3.34h7.28l.56-.58c.2-.2.26-.26.38-.26a.817.817,0,0,1,.36.2l.92.78a.378.378,0,0,1,.16.26c0,.18-.08.24-.8.64,0,2.26.02,5.12.04,7.38.02.94.1,2.42.1,3.34a.9.9,0,0,1-1,.94c-.6,0-.6-.32-.56-1.46H315.92c0,.08.02.54.02.64a.927.927,0,0,1-.98.92c-.64,0-.64-.44-.64-.62,0-.08.06-1.06.06-1.22.04-2.18.14-6.78.14-8.68a14.03,14.03,0,0,0-.28-3.28l2.06,1h3.08Zm-3.46.48V73.57h2.66V63.29Zm7.06,3.04V63.29h-3.06v3.04Zm0,3.5V66.81h-3.06v3.02Zm0,3.74V70.31h-3.06v3.26Zm4.32,0V63.29h-2.96V73.57Z" fill="#fff"/>
  <path id="パス_709" data-name="パス 709" d="M349.54,68.27c-.02,1.36.04,3.24.08,4.62,0,.2.06,1.1.06,1.28,0,.66-.64.86-1.04.86-.6,0-.6-.14-.56-1.46h-11.8c0,.1.02.88,0,1.04-.08.7-.88.76-1.04.76-.34,0-.58-.12-.58-.48,0-.14.04-.72.04-.82.04-1.54.06-3.14.06-4.68a8.045,8.045,0,0,0-.28-2.64l2.1.6c.16.04.32.1.32.28,0,.22-.3.4-.66.62-.06,1.72,0,4.14.02,4.84h5.16c0-1.68,0-6.12-.02-7.5h-3.92c.02.8-.6.92-1,.92-.54,0-.54-.3-.54-.46,0-.66.06-3.62.06-4.22a8.278,8.278,0,0,0-.32-2.88l2.1.72c.12.04.3.16.3.3,0,.28-.42.5-.62.6-.04.72-.04,1.1.02,4.54h3.92c0-.76-.04-4.08-.04-4.76a7.589,7.589,0,0,0-.44-2.72l2.32.78c.18.06.3.18.3.26,0,.28-.36.46-.66.62-.04,1.3-.04,1.44-.04,2.62v3.2h4.1a23.685,23.685,0,0,0-.28-5.86l2.14.68c.18.06.32.14.32.3,0,.18-.1.28-.68.58-.04,1.14-.02,2.56.02,3.7,0,.18.02.9.02,1.04,0,.66-.7.82-1.06.82-.58,0-.56-.28-.52-.78h-4.06c-.02.44,0,6.5,0,7.5h5.24c.04-1.68.06-2.48.06-2.78a9.817,9.817,0,0,0-.34-3.5l2.12.62c.14.04.28.14.28.26,0,.24-.28.4-.66.58Z" fill="#fff"/>
  <path id="パス_710" data-name="パス 710" d="M369.88,75.24a16.062,16.062,0,0,1-6.26-7.6c-.3-.78-.46-1.36-.56-1.7a15.938,15.938,0,0,1-5.52,7.72,12.924,12.924,0,0,1-3.9,1.88l-.06-.16c6.08-3.24,8.42-9.96,8.32-12.4l.6.1a24.049,24.049,0,0,1-.2-3.58h-1.82a13.572,13.572,0,0,0-2.36.18l-.38-.78c1.24.08,2.48.12,3.06.12h1.14l.72-.7a.515.515,0,0,1,.34-.2.8.8,0,0,1,.38.18l1.14.84c.16.12.22.2.22.32,0,.32-1.12.76-1.72.98-.3,6.76,4.5,11.9,9,13.14v.18a2.933,2.933,0,0,0-2.14,1.48Z" fill="#fff"/>
  <path id="パス_711" data-name="パス 711" d="M390.32,61.67c.02,1.02-.02,5.62.02,6.42.02.66.18,3.96.18,4.88,0,.48,0,1.34-1.08,1.34-.18,0-.6-.04-.6-.5,0-.12.04-.86.04-1.02H377.62a4.084,4.084,0,0,1-.06,1.38,1.191,1.191,0,0,1-1.08.54c-.54,0-.56-.32-.56-.54,0-.2.06-1.08.06-1.26.1-2.62.18-6.16.18-9.24a17.948,17.948,0,0,0-.32-4.4l2.14,1.2H388.6l.62-.64c.18-.18.24-.28.34-.28a.732.732,0,0,1,.36.2l1.1.86c.12.1.24.22.24.34,0,.18-.44.44-.94.72Zm-1.44-.72H377.62V72.31h11.26Z" fill="#fff"/>
  <path id="パス_712" data-name="パス 712" d="M395.08,76.42l-.18-.28a13.526,13.526,0,0,0,0-18.8l.18-.28a12.254,12.254,0,0,1,0,19.36Z" fill="#fff"/>
  <path id="パス_713" data-name="パス 713" d="M417.7,61.77a27.576,27.576,0,0,1-4.52,1c-.06.78-.08,2.08-.06,2.9.4-.1,2.14-.68,2.5-.8a1.231,1.231,0,0,1,.36-.06c.36,0,1.14.22,1.14.72,0,.3-.22.4-.42.48a35.125,35.125,0,0,1-3.56.8,24.5,24.5,0,0,0,.44,4.36c1.88.34,4.2,1.42,4.2,2.5,0,.26-.14.74-.62.74-.24,0-.3-.04-.98-.52a11.749,11.749,0,0,0-2.52-1.34c-.14,1.88-1.54,2.56-3.42,2.56-2.06,0-3.48-1.08-3.48-2.12,0-1.62,2.36-2.12,4.34-2.12a9.241,9.241,0,0,1,1.16.06,38.22,38.22,0,0,1-.26-3.94,26.728,26.728,0,0,1-2.84.18c-1.12,0-2.06-.2-2.06-.96a1.4,1.4,0,0,1,1.3-1.12,1.2,1.2,0,0,0-.34.7c0,.34.4.36,1.02.36a19.683,19.683,0,0,0,2.9-.24c0-1,0-1.36.06-2.98a26.95,26.95,0,0,1-3.58.28c-1.66,0-2.46-.48-2.96-1.58a6.142,6.142,0,0,0,2.78.58,30.641,30.641,0,0,0,3.8-.4c0-.28.04-1.56.04-1.7,0-.9-.2-1.12-1.54-1.62a1.484,1.484,0,0,1,1.18-.46c.94,0,2.08.64,2.08,1.3a2.812,2.812,0,0,1-.28,1.06,5.692,5.692,0,0,0-.24,1.16c.92-.22,2.08-.62,3.12-.98a1.293,1.293,0,0,1,.4-.08c.4,0,1.22.36,1.22.8a.5.5,0,0,1-.36.48Zm-7.44,10.12c-1.48,0-2.8.4-2.8,1.16,0,.4.62.96,2.2.96a3.85,3.85,0,0,0,1.96-.48,1.477,1.477,0,0,0,.64-1.4,5.419,5.419,0,0,0-2-.24Z" fill="#fff"/>
  <path id="パス_714" data-name="パス 714" d="M436.02,61.37c-2.56,0-3.32,0-4.66.8a7.525,7.525,0,0,0-3.38,5.96c0,3.34,3.52,4.12,5.32,4.52.3.06,1.14.24,1.14,1.1,0,.52-.5.56-.76.56-2.06,0-6.68-1.52-6.68-5.92a7.164,7.164,0,0,1,1.64-4.48,14.227,14.227,0,0,1,2.76-2.5,35.024,35.024,0,0,0-7.08,2.14c-.86.5-.96.54-1.28.54a1.719,1.719,0,0,1-1.46-1.76,1.776,1.776,0,0,1,.28-1.02c.38.6.68,1.06,1.56,1.06a15.691,15.691,0,0,0,2.94-.58c2.38-.58,6.22-1.44,8.6-2.02a4.189,4.189,0,0,1,.64-.1c.3,0,1.6.38,1.6,1.06,0,.64-.62.64-1.18.64Zm-.56,5.08c-.34,0-.4-.08-.88-.92a10.69,10.69,0,0,0-1.88-2.2c1.34.28,3.3,1.16,3.3,2.42,0,.34-.12.7-.54.7Zm2.34-.92c-.3,0-.36-.1-.94-.98a9.278,9.278,0,0,0-2.04-1.92c1.28.12,3.52.94,3.52,2.26a.566.566,0,0,1-.54.64Z" fill="#fff"/>
  <path id="パス_715" data-name="パス 715" d="M50.47,33.27a24.168,24.168,0,0,1-3.32-1.97,15.839,15.839,0,0,1-4.76-4.89c.02,1.05.05,5.63.09,6.56,0,.11.02.62.02.71,0,.39-.05.59-.3.78a1.64,1.64,0,0,1-.78.3c-.39,0-.46-.41-.46-.64,0-.18.02-.98.05-1.14,0-.91.09-4.92.11-5.74a22.2,22.2,0,0,1-9.63,6.22l-.09-.16a29.5,29.5,0,0,0,8.78-6.91H36.66c0,.53-.05.64-.11.73a1.085,1.085,0,0,1-.87.41c-.39,0-.41-.25-.41-.39a2.08,2.08,0,0,1,.05-.41c.09-1.1.14-3.18.14-4.21a14.678,14.678,0,0,0-.3-3.75l1.69.78h4.32c0-.34,0-.96-.02-2.33H35a18.8,18.8,0,0,0-2.93.25l-.55-.98c1.72.14,3.39.18,3.8.18h5.81a7.268,7.268,0,0,0-.48-2.95l2.15.55c.14.05.34.09.34.25,0,.14-.07.23-.27.39-.18.16-.34.27-.46.37,0,.09-.02.94-.02,1.4h6.82l.75-1.1c.11-.16.21-.27.32-.27a.789.789,0,0,1,.43.23l1.23,1.1a.515.515,0,0,1,.23.34c0,.21-.21.25-.34.25H42.38v2.33h4.21l.75-.59a.342.342,0,0,1,.25-.11.552.552,0,0,1,.23.09l.98.73c.14.11.21.16.21.3a.373.373,0,0,1-.21.3q-.32.21-.55.39c0,1.74,0,1.81.18,5.35.02.23.02.46.02.48,0,.39-.07.55-.39.71a1.384,1.384,0,0,1-.55.16c-.46,0-.46-.32-.43-.96H42.8c1.67,1.81,5.22,4.8,9.9,4.94v.21a3.084,3.084,0,0,0-2.26,1.74ZM41.18,20.1H36.67v2.47h4.51Zm0,3.02H36.67v2.72h4.51ZM47.1,20.1H42.39v2.47H47.1Zm0,3.02H42.39v2.72H47.1Z" fill="#fff"/>
  <path id="パス_716" data-name="パス 716" d="M56.35,33.2a.846.846,0,0,1-.82-.78c0-.48.39-.8.94-1.26a5.379,5.379,0,0,0,1.78-2.58h.11a7.264,7.264,0,0,1,.07.78C58.43,30.64,57.77,33.2,56.35,33.2ZM73.92,19.91a2.417,2.417,0,0,0-.5.34c-.02.41-.02.85.02,2.29.02.34.16,3.04.16,3.16a.848.848,0,0,1-.96.85c-.53,0-.55-.32-.53-.8H61.38a16.724,16.724,0,0,0-2.93.27l-.55-.98c1.72.14,3.38.16,3.8.16H72.11V22.8H61.7a19.052,19.052,0,0,0-2.95.25l-.53-.98c1.72.14,3.36.18,3.8.18H72.11V19.89H58.8a19.255,19.255,0,0,1-2.88,2.04l-.09-.16c3.43-2.9,5.76-6.29,5.95-8.19l1.74.85c.23.11.34.21.34.37,0,.27-.25.34-.89.46-.21.25-.48.59-.59.75h5.67l.69-.64c.25-.23.32-.25.39-.25.14,0,.21.07.46.25l.96.75a.394.394,0,0,1,.16.3.271.271,0,0,1-.23.27c-.18.07-1.01.23-1.17.27-.43.37-2.38,2.06-2.79,2.38h5.21l.78-.64c.25-.21.27-.23.39-.23a.514.514,0,0,1,.34.21l.64.55c.21.18.27.25.27.37,0,.14-.07.23-.23.32ZM61.93,16.55a24.55,24.55,0,0,1-2.52,2.79h6.63c.23-.34,1.21-1.92,1.33-2.1.16-.27.21-.37.37-.69H61.93Zm8.58,17.29a5.989,5.989,0,0,1-1.26.11c-1.83.05-3.64.05-5.47.05s-2.42-.09-2.42-2.08c0-.37.05-1.97.05-2.29a9.735,9.735,0,0,0-.23-2.58l1.81.53c.37.11.39.23.39.3,0,.18-.23.32-.3.34a2.113,2.113,0,0,0-.46.34v3.45c0,.62.25.71.5.78.21.05,3.09.07,3.55.07,2.72,0,3.02-.37,3.27-1.07a15.192,15.192,0,0,0,.57-2.38h.18c.09.39.37,2.08.5,2.4.07.23.11.25.5.53a.5.5,0,0,1,.23.39s-.02.87-1.42,1.12Zm-3.25-3.77c-.48,0-.55-.18-.94-1.05a4.972,4.972,0,0,0-1.37-2.01L65,26.9c1.88.32,3.02,1.56,3.02,2.36a.729.729,0,0,1-.75.82Zm8.14,1.88c-.57,0-.69-.27-1.03-1.01a5.467,5.467,0,0,0-1.94-2.79l.07-.14c2.65.75,3.64,2.26,3.64,3.04,0,.55-.27.89-.73.89Z" fill="#fff"/>
  <path id="パス_717" data-name="パス 717" d="M95.16,16.64a36.711,36.711,0,0,1-7.09,6.52c-2.45,1.56-6.77,3.36-8.35,3.48l-.09-.21a40.248,40.248,0,0,0,7.69-4.05,31.205,31.205,0,0,0,6.47-6.5H88.12a28.288,28.288,0,0,1-1.88,2.15c.11.05.21.07.96.34.32.11,1.99.73,1.99,1.94a.753.753,0,0,1-.75.8c-.46,0-.69-.32-1.01-1.01a4.238,4.238,0,0,0-1.35-1.92,21.014,21.014,0,0,1-5.4,3.91l-.09-.18a30.2,30.2,0,0,0,5.54-5.49c1.58-2.1,1.67-2.68,1.81-3.5l1.67.94c.18.11.25.16.25.32,0,.32-.3.39-.85.5-.21.32-.3.41-.46.64h5.33l.98-.66c.23-.16.25-.16.3-.16a.512.512,0,0,1,.23.11l1.35.89a.391.391,0,0,1,.23.34c0,.39-.14.46-1.81.78Zm3.2,8.58a37.193,37.193,0,0,1-7.52,6.86,21.341,21.341,0,0,1-9.72,3.06l-.02-.21a24.111,24.111,0,0,0,10.7-5.08,20.713,20.713,0,0,0,4.99-5.56H91.44a31.686,31.686,0,0,1-2.97,2.47c.75.21,3.13,1.23,3.13,2.63a.841.841,0,0,1-.82.85c-.43,0-.53-.27-.75-.85a7.918,7.918,0,0,0-1.76-2.49c-.55.39-1.17.78-1.76,1.12a17.878,17.878,0,0,1-5.26,2.15l-.05-.18a29.031,29.031,0,0,0,3.2-1.6,33.164,33.164,0,0,0,6.43-5.33,4.992,4.992,0,0,0,1.65-2.63l1.72.98s.23.16.23.32c0,.32-.23.34-.94.43a13.8,13.8,0,0,1-1.46,1.58h4.94l.78-.57c.21-.16.23-.16.3-.16.09,0,.14.05.32.18l1.28.98c.21.16.27.23.27.34,0,.39-.34.46-1.53.69Z" fill="#fff"/>
  <path id="パス_718" data-name="パス 718" d="M123.02,17.02H106.94c.02,2.79.09,7.71-.41,10.29-.41,2.06-1.23,4.46-2.93,5.92l-.11-.07c1.92-2.81,2.24-6.93,2.24-11.37a54.084,54.084,0,0,0-.32-6.27l1.78.94h6.68a8.653,8.653,0,0,0-.39-2.86l1.92.48a.288.288,0,0,1,.25.27c0,.25-.07.3-.66.64,0,.43-.02,1.17-.02,1.46h5.44l.69-.96c.07-.09.21-.3.34-.3a1.191,1.191,0,0,1,.43.25l1.26.98c.14.11.23.18.23.34,0,.21-.18.23-.34.23Zm.55,14.39H115.2c.02,1.49,0,1.83-.27,2.26a2.715,2.715,0,0,1-1.58,1.03,2.352,2.352,0,0,0-1.99-1.76l.05-.14c1.21.07,1.49.09,1.76.09,1.01,0,1.01-.11.98-1.49H109.8a20,20,0,0,0-2.95.27l-.55-.98c1.19.09,2.63.16,3.82.16h4.03c0-.25-.02-1.6-.02-1.9h-2.45a17.357,17.357,0,0,0-2.93.27l-.55-.98c1.19.09,2.61.16,3.8.16h2.13V26.84a33.845,33.845,0,0,1-3.75.23,17.329,17.329,0,0,1-2.17-.11V26.8a58.678,58.678,0,0,0,5.99-.75,13.428,13.428,0,0,0,4.62-1.42l1.07.85a.325.325,0,0,1,.14.3c0,.14-.05.3-.37.3a3.249,3.249,0,0,1-.71-.11,38.2,38.2,0,0,1-3.77.73v1.72h2.95l.48-.73c.14-.21.18-.32.32-.32.16,0,.34.16.46.25l.89.75c.11.11.23.21.23.34,0,.25-.25.25-.34.25h-4.99v1.9h5.79l.78-.89c.18-.23.3-.34.41-.34.16,0,.39.21.46.25l1.07.96c.11.09.23.18.23.34,0,.23-.25.23-.34.23Zm-8.62-11.32h-2.52v.57c.73.16,2.01.55,2.01,1.53,0,.37-.21.59-.48.59-.39,0-.55-.39-.66-.71a4.4,4.4,0,0,0-.87-1.26c0,.59.05,3.52.05,3.68,0,.23,0,.32-.07.41a.716.716,0,0,1-.62.32c-.46,0-.46-.32-.46-.73,0-.62.14-3.43.16-4a13.26,13.26,0,0,1-3.82,4l-.11-.14a21.9,21.9,0,0,0,3-4.25,19.631,19.631,0,0,0-2.01.23l-.53-.98c.64.07,1.58.14,3.45.18a8.107,8.107,0,0,0-.32-2.08l1.6.43a.287.287,0,0,1,.25.27c0,.14-.05.23-.59.48,0,.37.02.5.02.89h1.14l.3-.5c.14-.23.21-.3.32-.3s.14.02.41.3l.46.46c.18.18.23.23.23.34,0,.21-.18.25-.34.25Zm8.53,3.32a1.372,1.372,0,0,0-.57.59,9.226,9.226,0,0,1-3.96-3.98h-.21v1.26c0,.37.07,2.1.07,2.24,0,.25,0,.39-.11.48a1.232,1.232,0,0,1-.62.23c-.32,0-.34-.3-.34-.55,0-.46.07-2.54.07-2.95a9.131,9.131,0,0,1-3.87,3.5l-.07-.16a16.868,16.868,0,0,0,3.27-3.93c-.64.07-.73.09-1.01.14l-.55-.98c1.1.09,1.44.11,2.17.14a9,9,0,0,0-.18-1.94l1.4.34c.14.02.3.07.3.25a.521.521,0,0,1-.18.3c-.07.05-.32.23-.39.27.02.09.02.73.02.8.25.02.55.02.69.02h1.88l.5-.59c.23-.25.25-.27.37-.27.09,0,.23.07.46.27l.64.55c.14.11.23.21.23.34,0,.21-.18.25-.34.25h-3.84a8.466,8.466,0,0,0,5.33,2.81v.09c-.18.07-.98.41-1.14.48Z" fill="#fff"/>
  <path id="パス_719" data-name="パス 719" d="M132.17,16.48s-.02.27-.02.3l-.02,7.59c0,2.68-.55,7.94-4.67,9.97l-.09-.14c2.29-2.1,3.57-4.55,3.57-13.31a44.948,44.948,0,0,0-.3-6.13l2.2.69c.18.05.3.09.3.25,0,.21-.23.41-.96.78Zm6.2.25c0,5.95,0,6.61.11,12.88,0,.32.02,1.72.02,2.01,0,.82-1.03.82-1.08.82-.5,0-.5-.27-.5-.48,0-.11.09-1.51.09-1.72.16-2.81.16-5.7.16-8.55,0-1.14-.02-4.46-.11-5.42-.05-.37-.09-.71-.16-1.01l1.83.48c.32.09.39.14.39.25,0,.25-.48.55-.75.73Zm7.11-.55v.41l-.05,7.5c0,.25.18,7.27.18,8.62,0,.8,0,.89-.23,1.08a1.986,1.986,0,0,1-.92.3c-.37,0-.5-.18-.5-.5,0-.25.09-1.28.09-1.51.11-3.89.16-7.78.16-9.49,0-5.54-.18-6.75-.39-8.03l2.1.66c.25.09.34.16.34.3,0,.3-.39.48-.8.66Z" fill="#fff"/>
  <path id="パス_720" data-name="パス 720" d="M154.08,27.45c-1.12,3.29-1.65,4.44-2.9,6.04l-.18-.07a25.876,25.876,0,0,0,1.76-6.84,4.415,4.415,0,0,0-.09-.73l1.83.71c.16.07.25.16.25.3,0,.3-.27.41-.66.59Zm5.15-9.08c-1.21,1.83-3.91,4.99-4.07,5.17.32-.02,2.58-.18,3.16-.23a5.947,5.947,0,0,0-.85-1.76l.09-.11c.5.27,2.54,1.35,2.54,2.65,0,.48-.3.92-.69.92-.57,0-.71-.46-1.01-1.42l-1.94.46c-.05,2.26-.02,3.34-.02,3.96.02.82.14,5.17.14,5.4,0,.87-.53,1.1-.89,1.1a.45.45,0,0,1-.5-.53c0-.82.11-4.37.11-5.1s.07-3.91.09-4.57a24.4,24.4,0,0,1-3,.55c-.21.37-.3.48-.5.48a.352.352,0,0,1-.32-.27l-.39-1.76a10.065,10.065,0,0,0,3.59.27c1.42-2.04,3.66-6.13,3.43-7.02l1.76,1.07a.367.367,0,0,1,.21.34c0,.25-.23.32-.94.41Zm-2.68-2.81c-1.1,1.56-1.46,2.06-2.13,2.91.48.37.96.73.96,1.37,0,.46-.27.94-.71.94s-.64-.32-1.17-1.35a4.231,4.231,0,0,0-1.51-1.85l.05-.09a5.412,5.412,0,0,1,2.13.82,16.523,16.523,0,0,0,1.21-4,5.54,5.54,0,0,0-.07-.57l1.94.98a.343.343,0,0,1,.23.32c0,.23-.16.32-.94.53Zm2.49,14.09c-.53,0-.62-.27-.91-1.26a7.217,7.217,0,0,0-.87-1.83l.05-.09c1.3.73,2.42,1.42,2.42,2.38A.73.73,0,0,1,159.04,29.65Zm4.14-2.38c-1.67,3.45-3.13,5.01-5.1,5.92l-.02-.16a13.209,13.209,0,0,0,3.96-6.47h-1.26a8.932,8.932,0,0,0-1.26.11l-.23-.75c.41.05,1.28.09,1.62.09h1.1l.25-.37a.328.328,0,0,1,.25-.18.469.469,0,0,1,.27.14l1.03.87a.366.366,0,0,1,.16.3c0,.41-.46.48-.78.5Zm7.57,6.11a13.6,13.6,0,0,1-4.9-6.91c0,.39.02.82.02,1.21.02.73.11,4.55.11,4.62a1.659,1.659,0,0,1-.66,1.51,2.817,2.817,0,0,1-1.39.66c-.27-.62-.48-1.12-2.33-1.9l.05-.09c.43.02,1.92.07,2.13.07.71,0,.98,0,.98-.48V24.75a10.473,10.473,0,0,0-.02-1.1h-2.31c0,.25.02.73-.78.73-.55,0-.57-.25-.57-.46,0-.53.07-2.9.07-3.39,0-.59-.05-3.16-.05-3.68a8.28,8.28,0,0,0-.09-1.28l1.58.82h1.81a9,9,0,0,0,.23-1.88,3.717,3.717,0,0,0-.14-1.03l2.01.57a.383.383,0,0,1,.3.37c0,.39-.41.43-.92.48-.16.23-.91,1.28-1.07,1.49h3.34l.64-.69a.655.655,0,0,1,.39-.21.553.553,0,0,1,.34.14l.94.69a.467.467,0,0,1,.23.39c0,.27-.3.44-.8.71,0,.23.05,2.9.05,2.97.02.48.11,2.7.11,3a.829.829,0,0,1-.89.94c-.41,0-.53-.21-.43-.69h-3.16l.39.09c.25.07.41.21.41.32,0,.23-.27.43-.53.57a10.363,10.363,0,0,0,1.28,3.32,8.008,8.008,0,0,0,1.97-2.86l1.44.98a.42.42,0,0,1,.23.41c0,.3-.37.32-.89.27-.87.48-1.76.94-2.63,1.37a6.744,6.744,0,0,0,1.3,1.62,9.343,9.343,0,0,0,4.41,2.29v.09c-1.6.23-1.94.8-2.2,1.24Zm-2.01-16.42h-6.31V19.8h6.31Zm0,3.39h-6.31v2.77h6.31Z" fill="#fff"/>
  <rect id="長方形_29" data-name="長方形 29" width="576.87" height="91.14" transform="translate(31.28 162.65)" fill="#fff"/>
  <path id="パス_721" data-name="パス 721" d="M146.2,204.81l1.05-1.34c.23-.29.29-.35.44-.35.2,0,.46.23.55.29l1.42,1.34c.17.14.29.26.29.44,0,.26-.23.32-.44.32h-9.87a18.68,18.68,0,0,0-3.14.17l-.46-1.05c1.36.12,2.76.17,4.12.17h6.04Zm-2.56-3.51.99-1.31c.17-.23.26-.38.44-.38s.35.17.52.32l1.51,1.31c.17.17.29.26.29.46,0,.26-.23.29-.44.29h-5.6a17.666,17.666,0,0,0-3.14.2l-.49-1.07a38.4,38.4,0,0,0,4.15.17h1.77Zm.03,7.17.99-1.36c.2-.26.32-.38.46-.38a1.026,1.026,0,0,1,.52.32l1.51,1.36a.613.613,0,0,1,.29.44c0,.26-.26.32-.46.32h-5.63a15.111,15.111,0,0,0-3.14.2l-.46-1.07c1.36.12,2.76.17,4.12.17h1.8Zm.17,3.22.84-1.16c.2-.29.32-.38.44-.38s.14.03.55.32l1.65,1.16a.55.55,0,0,1,.32.44c0,.26-.26.32-.44.32h-5.69a18.68,18.68,0,0,0-3.14.17l-.46-1.05c1.36.12,2.73.17,4.12.17h1.8Zm1.19,3.66.9-1.13c.12-.15.38-.38.55-.38.15,0,.44.26.55.38l1.28,1.16a.528.528,0,0,1,.15.41c0,.17-.35.55-.7.64,0,1.54,0,2.85.06,4.33,0,.26.09,1.34.09,1.57a1.457,1.457,0,0,1-1.57,1.48c-.55,0-1.07-.17-.99-1.45h-4.73c0,.2.06,1.05.06,1.22a1.441,1.441,0,0,1-1.63,1.51.966.966,0,0,1-1.05-.99,9.075,9.075,0,0,1,.12-.93c.03-.29.09-1.13.09-2.87a42.234,42.234,0,0,0-.29-6.39l2.93,1.45h4.18Zm-4.41.7v5.6h4.73v-5.6Zm17.97-7.87,1.31-1.65c.23-.29.29-.38.44-.38.12,0,.23.06.55.32l1.95,1.65a.613.613,0,0,1,.29.44c0,.26-.23.32-.44.32h-6.3c.06,10.13.09,11.27.14,13.01.06,1.25.06,1.39.06,1.68,0,.7,0,1.97-1.77,1.97-1.02,0-1.07-.7-1.07-1.16,0-.73.15-3.92.17-4.56.06-1.8.06-2.73.09-10.95h-1.6a15.111,15.111,0,0,0-3.14.2l-.46-1.07c1.36.12,2.76.17,4.12.17h1.05c-.12-6.59-.12-7.17-.84-9.29l3.63.87c.49.12.64.23.64.41,0,.38-.64.73-1.02.87v7.14h2.21Z"/>
  <path id="パス_722" data-name="パス 722" d="M167.73,224.23h2.68a2.623,2.623,0,0,0,2.63-2.91V197.29a2.208,2.208,0,0,0-2.03-2.35h-3.55V193.6a22.5,22.5,0,0,0,8.4-1.8c.18-.09,1.34-.6,1.43-.6.23,0,.28.18.28.46v29.75a2.9,2.9,0,0,0,3.09,2.81h2.21v1.48H167.74v-1.48Z"/>
  <path id="パス_723" data-name="パス 723" d="M200.61,204.26c4.06,0,8.03,3.83,8.03,10.42,0,7.7-5.4,11.9-9.83,11.9-4.66,0-10.75-4.57-10.75-15.87,0-9.13,4.43-19.51,12.73-19.51,3.6,0,6.5,1.98,6.5,4.71a2.63,2.63,0,0,1-2.68,2.81,2.855,2.855,0,0,1-2.91-2.86c0-.23.18-1.34.18-1.57,0-1.2-1.15-1.52-1.98-1.52-1.71,0-5.95,1.85-6.78,15.5,2.72-3.04,5.58-4.01,7.47-4.01Zm-1.75,20.71c3.69,0,4.84-5.72,4.84-9.73,0-4.71-1.61-8.67-4.66-8.67-.41,0-3.27,0-5.95,3.6.14,4.8.42,14.81,5.77,14.81Z"/>
  <path id="パス_724" data-name="パス 724" d="M215.6,205.91a15.111,15.111,0,0,0-3.14.2l-.49-1.07c1.77.14,3.83.17,4.15.17h7.23a27.607,27.607,0,0,0-.58-6.16l3.46,1.07c.29.09.35.2.35.38,0,.29-.29.49-.93.93.03.58-.03,3.22-.03,3.77h6.24l1.51-1.74c.17-.2.29-.35.44-.35a1.331,1.331,0,0,1,.55.29l2.47,1.74a.61.61,0,0,1,.29.44c0,.26-.23.32-.44.32H226.2c2.12,4.88,7.4,10.48,12.31,11.67v.17a5.83,5.83,0,0,0-3.48,2.12c-6.01-4.09-8.97-11.93-9.35-13.97h-.09c-.03,2.38-.03,3.28.03,11.32h1.25l1.16-1.37c.17-.2.29-.35.44-.35a1.262,1.262,0,0,1,.55.29l1.63,1.39c.15.12.29.23.29.44,0,.26-.23.29-.44.29h-4.88c0,1.22,0,3.28.06,4.44,0,.23.09,1.31.09,1.54a1.513,1.513,0,0,1-1.68,1.51c-1.13,0-1.19-.52-1.19-1.07,0-.12.09-1.07.09-1.25.15-1.71.2-3.51.26-5.17h-1.83a17.411,17.411,0,0,0-3.14.2l-.49-1.07c1.77.17,3.83.17,4.15.17h1.31c.03-2.85.06-5.69.09-8.57-5.37,8.91-11.56,10.89-12.31,11.09l-.09-.17c5.98-4.5,10.51-11.32,11.3-13.68h-6.62Z"/>
  <path id="パス_725" data-name="パス 725" d="M244.02,212.27a15.111,15.111,0,0,0-3.14.2l-.46-1.07c1.19.09,2.88.17,4.09.17l1.1-1.16a.534.534,0,0,1,.35-.2.8.8,0,0,1,.38.17l1.42,1.16c.09.06.29.23.29.41,0,.35-.52.73-.93,1.05,0,.99-.06,6.01,0,6.3.52,2.87,6.36,2.9,8.3,2.9a71.257,71.257,0,0,0,11.27-.99v.2a5.7,5.7,0,0,0-1.77,3.28c-13.12.32-16.35-.61-18.32-4.65-.26.26-.49.55-1.83,2.09-.2.26-1.31,1.36-1.51,1.6,0,.26,0,.78-.44.78a.642.642,0,0,1-.46-.29l-1.97-2.67a8.138,8.138,0,0,0,4.44-1.05v-8.25h-.81Zm-1.57-12.28c3.37.52,4.94,2.44,4.94,3.98a1.423,1.423,0,0,1-1.39,1.51c-1.05,0-1.31-.96-1.48-1.6a7.463,7.463,0,0,0-2.06-3.66v-.23Zm10.48,14.98a1.285,1.285,0,0,1-1.42,1.31.818.818,0,0,1-.93-.84c0-.09.06-.64.06-.75.09-1.28.12-3.48.12-4.79,0-.84-.03-1.19-.06-1.63-.03-.2-.15-1.1-.2-1.39l2.61,1.42h2.38c0-.35-.03-1.77-.03-2h-2.7a14.679,14.679,0,0,0-3.14.2l-.46-1.07c1.31.12,2.79.17,4.12.17h2.15a11.219,11.219,0,0,0-.55-3.66l3.25.87c.12.03.38.12.38.38s-.26.49-.81.96v1.45h2.53l1.31-1.36c.23-.26.35-.38.46-.38.14,0,.23.06.52.29l1.74,1.39c.17.14.29.26.29.44,0,.29-.29.32-.44.32h-6.42v2h2.41l.93-.73a.659.659,0,0,1,.41-.2c.12,0,.23.12.41.23l1.25.96c.12.09.32.26.32.44,0,.23-.26.46-.67.87v2.41c0,.35.09,2.15.09,2.38a1.517,1.517,0,0,1-1.63,1.48c-.81,0-.81-.64-.78-1.16h-2.67c0,.35.03,2.15.06,2.56h4.04l1.39-1.51c.2-.23.32-.35.46-.35a.868.868,0,0,1,.55.29l1.71,1.51a.728.728,0,0,1,.26.44c0,.32-.26.32-.44.32H257.8c.03.23.06,1.77.06,1.92a1.515,1.515,0,0,1-1.6,1.57.9.9,0,0,1-1.02-.99c0-.12.15-2.18.17-2.5h-3.89a17.242,17.242,0,0,0-3.14.2l-.46-1.07c1.31.12,2.79.17,4.12.17h3.4c.03-.64.09-1.71.09-2.56h-2.61Zm8.74-14.23,1.02-.67c.2-.14.32-.23.44-.23.15,0,.23.09.35.2l1.6,1.6a.894.894,0,0,1,.35.61c0,.44-.49.52-.81.55-.26.03-.81.03-1.16.06-.84.41-1.86.9-2.56,1.28l-.15-.15c.52-1.05.87-1.92,1.13-2.56H251.22c.03.67.2,3.48-1.95,3.48a1.213,1.213,0,0,1-1.25-1.19c0-.64.26-.93,1.28-2.06a6.156,6.156,0,0,0,1.28-2.38h.15a4.852,4.852,0,0,1,.41,1.45h10.54Zm-6.13,10.51c0-.64-.03-1.57-.03-2.27h-2.58v2.27Zm.03,3.02v-2.32h-2.64v2.32Zm4.85-3.02v-2.27h-2.73v2.27Zm0,3.02v-2.32h-2.73l.06,2.32Z"/>
  <path id="パス_726" data-name="パス 726" d="M280.17,206.23a.489.489,0,0,1,.17.44.4.4,0,0,1-.26.38c-.15.03-.9.12-1.07.17-.58.75-1.02,1.31-1.71,2.15.35.26.64.49.64.73a.453.453,0,0,1-.15.29,2.435,2.435,0,0,1-.32.26,62.019,62.019,0,0,0-.17,6.65c0,.9.03,5.31.03,6.33,0,1.89-1.45,1.89-1.6,1.89-.99,0-1.05-.78-1.05-1.34,0-.49.29-5.14.32-5.81.09-2.64.12-5.08.09-6.56a17.52,17.52,0,0,1-6.1,4.07l-.06-.12a43.885,43.885,0,0,0,7.81-9.87,17.02,17.02,0,0,0,.73-1.83l2.7,2.18Zm-.99-5.4a.724.724,0,0,1,.26.46c0,.23-.15.32-.41.35-.15.03-.78.03-.9.06a21.27,21.27,0,0,1-8.68,5.66l-.09-.23a27.98,27.98,0,0,0,6.59-6.94,8.779,8.779,0,0,0,.64-1.74l2.58,2.38Zm10.51,8.59v.15c0,1.54.15,10.6.15,12.57,0,.9,0,3.05-3.54,3.28-.29-1.51-1.16-2.24-2.87-3.31v-.2c.52.06,1.92.2,2.96.2s1.07-.29,1.07-1.16c0-2.9-.09-8.77-.17-11.53h-4.53a18.492,18.492,0,0,0-3.14.17l-.46-1.05c1.31.12,2.79.17,4.12.17h7.49l1.54-1.77c.29-.35.32-.35.44-.35a1.094,1.094,0,0,1,.55.29l1.92,1.77c.17.15.29.26.29.44,0,.29-.29.32-.44.32H289.7Zm-.2-7.87,1.25-1.51c.26-.32.32-.38.46-.38.17,0,.46.26.52.32l1.74,1.54c.17.14.29.23.29.44,0,.26-.26.29-.44.29h-9.12a17.666,17.666,0,0,0-3.14.2l-.46-1.07a40.545,40.545,0,0,0,4.12.17h4.76Z"/>
  <path id="パス_727" data-name="パス 727" d="M63.42,212.85H56.56c0,1.61-.02,4.19-.02,5.8a.945.945,0,0,1-.15.65,1,1,0,0,1-.64.27c-.34,0-.4-.23-.4-.5,0-.07,0-.2.03-.59.05-.81.12-4.75.15-5.63H50.97a13.636,13.636,0,0,0-2.16.18l-.4-.72c.87.07,1.93.13,2.8.13h4.33c.02-.65.03-1.24.03-1.44,0-.75-.02-4.38-.02-5.2H51.84a13.721,13.721,0,0,0-2.16.18l-.39-.72c.86.08,1.91.13,2.78.13h8.55l.62-.8c.13-.18.2-.22.27-.22s.2.1.28.17l.96.82s.15.15.15.25c0,.18-.17.18-.25.18H56.53c0,.85.02,5.08.02,6.04v.6H61.3l.72-.79c.17-.17.2-.22.27-.22s.23.12.3.18l.91.77s.17.15.17.27c0,.17-.18.18-.25.18Zm-11.03-1.89c.22,0,.52-.15.52-.64a3.011,3.011,0,0,0-.89-1.78,14.4,14.4,0,0,0-1.69-1.43l-.12.08a5.834,5.834,0,0,1,1.09,2.15c.45,1.27.59,1.61,1.09,1.61Zm9.46-2.85a3.085,3.085,0,0,1-.69.03,15.357,15.357,0,0,1-3.27,3.52l-.08-.1a14.6,14.6,0,0,0,2.55-4.81l1.53.99c.1.05.13.08.13.2S61.94,208.09,61.85,208.11Z"/>
  <path id="パス_728" data-name="パス 728" d="M75.8,207c-.07,2.01-.02,7.9.05,10.13,0,.18.07.96.07,1.12a.666.666,0,0,1-.7.7c-.39,0-.39-.29-.39-.42,0-.05.03-.65.03-.74H68.2a2.061,2.061,0,0,1-.03.75.761.761,0,0,1-.65.44.387.387,0,0,1-.42-.44c0-.17.07-.87.08-1.02.1-1.44.13-5.65.13-6.79,0-4.44-.07-4.8-.28-5.5l1.43.77h6.12l.49-.44s.18-.18.32-.18c.07,0,.12.03.27.15l.64.55a.416.416,0,0,1,.2.32c0,.18-.34.37-.69.59Zm-.92-.59H68.21v5.1h6.67Zm0,5.5H68.21v5.48h6.67Z"/>
  <path id="パス_729" data-name="パス 729" d="M83.03,217.41c0,.32-.02,1.12-.91,1.12-.39,0-.82-.13-.82-1.06,0-2.05,2.6-6.67,4.71-10.41H82.15c-1.51,0-1.98,1.22-2.38,2.4l-.35-.05.72-3.44h6.72v.57c-2.13,3.61-3.81,6.74-3.84,10.87Z"/>
  <path id="パス_730" data-name="パス 730" d="M93.76,206.71c-.02.34-.03.82-.03,1.56,0,1.84.07,4.21.13,6.07,0,.2.05,1.16.05,1.34a.584.584,0,0,1-.18.49.688.688,0,0,1-.4.15c-.4,0-.4-.13-.39-1.12H90.56c0,.27.03,1.39.03,1.63,0,.4-.54.52-.65.52-.28,0-.32-.25-.32-.4,0-.1.02-.62.02-.92.07-2.26.08-4.51.08-6.76a25,25,0,0,0-.17-3.91l1.21.6h1.98l.45-.42c.12-.1.2-.18.29-.18s.22.1.34.22l.37.37a.434.434,0,0,1,.15.27c0,.13-.35.37-.57.5Zm-.81-.35H90.54v3.92h2.41Zm0,4.33H90.54v4.11h2.41Zm10.9-.32H96.64a13.446,13.446,0,0,0-2.16.2l-.4-.72c.94.07,1.86.12,2.8.12h1.41V207.4h-.72a13.651,13.651,0,0,0-2.16.2l-.39-.72c.92.07,1.86.12,2.78.12h.49a7.891,7.891,0,0,0-.29-2.75l1.49.45c.15.05.25.08.25.25a.226.226,0,0,1-.12.2,4.044,4.044,0,0,0-.37.29c-.02.23-.03.67-.03,1.56h2.06l.45-.59c.05-.07.17-.2.25-.2a.485.485,0,0,1,.32.17l.65.59c.08.08.17.15.17.25,0,.17-.15.18-.25.18H99.21c-.02.87-.02,1.83-.02,2.57h2.97l.54-.67c.12-.15.18-.2.25-.2a.459.459,0,0,1,.28.17l.7.69c.12.12.15.18.15.25,0,.17-.18.17-.25.17Zm-.02,3.32h-2.85c.02,1.16.05,2.75.05,3.94a1.266,1.266,0,0,1-.6,1.29,3.651,3.651,0,0,1-1.33.55c-.1-.34-.25-.77-1.58-1.43v-.13c.77.08,1.48.12,1.63.12.25,0,.79-.02.92-.2a6.016,6.016,0,0,0,.08-1.26c0-.57-.02-1.54-.05-2.88H96.83a13.267,13.267,0,0,0-2.16.18l-.39-.72c.92.08,1.84.13,2.78.13h3.02a9.349,9.349,0,0,0-.17-2.36l1.27.32c.17.05.23.08.23.18,0,.17-.34.44-.45.54-.02.2-.02.32-.02,1.32h1.27l.44-.64c.07-.08.15-.2.27-.2a.512.512,0,0,1,.29.17l.7.64c.07.07.15.13.15.25,0,.15-.13.18-.25.18Zm-6.36,3.09c-.42,0-.47-.22-.6-.92a6.61,6.61,0,0,0-.18-.7,2.01,2.01,0,0,0-.45-.82l.05-.12c.87.35,1.78,1.26,1.78,1.93a.6.6,0,0,1-.59.64Z"/>
  <path id="パス_731" data-name="パス 731" d="M120.91,211.81c-.12,0-.4-.07-.84-.64-.87-1.11-.97-1.22-1.26-1.54-2.48.39-8.64,1.09-10.72,1.29-.17.32-.29.5-.45.5s-.18-.1-.25-.32l-.59-1.73a2.617,2.617,0,0,0,.96.32,20.909,20.909,0,0,0,2.85.07,23.1,23.1,0,0,0,2.48-5.32,2.809,2.809,0,0,0-.03-.47l1.76.96a.268.268,0,0,1,.17.23c0,.25-.29.3-.87.37a51.769,51.769,0,0,1-3.22,4.23c1.02-.02,1.96-.07,2-.07.91-.05,4.9-.23,5.7-.27a16.209,16.209,0,0,0-2.3-1.84v-.08c1.49.47,5.16,2.13,5.16,3.62a.7.7,0,0,1-.55.69Zm-1.93,1.66c0,1.14.05,2.7.07,3.54,0,.27.07,1.43.07,1.66,0,.62-.65.65-.69.65-.3,0-.39-.22-.39-.44,0-.17.03-.45.03-.59h-7.93c0,.52,0,.72-.1.89a.771.771,0,0,1-.62.37c-.34,0-.39-.22-.39-.42,0-.12.05-.65.05-.77.08-1.34.08-3,.08-4.36a8,8,0,0,0-.15-2.16l1.46.81h7.24l.37-.44c.05-.07.15-.17.22-.17a.523.523,0,0,1,.27.1l.92.55c.12.07.17.12.17.23,0,.17-.18.25-.69.54Zm-.89-.42h-7.95v4.85h7.95Z"/>
  <path id="パス_732" data-name="パス 732" d="M442.01,204.81l1.05-1.34c.23-.29.29-.35.44-.35.2,0,.46.23.55.29l1.42,1.34c.17.14.29.26.29.44,0,.26-.23.32-.44.32h-9.87a18.681,18.681,0,0,0-3.14.17l-.46-1.05c1.36.12,2.76.17,4.12.17h6.04Zm-2.56-3.51.99-1.31c.17-.23.26-.38.44-.38s.35.17.52.32l1.51,1.31c.17.17.29.26.29.46,0,.26-.23.29-.44.29h-5.6a17.666,17.666,0,0,0-3.14.2l-.49-1.07a38.4,38.4,0,0,0,4.15.17h1.77Zm.03,7.17.99-1.36c.2-.26.32-.38.46-.38a1.025,1.025,0,0,1,.52.32l1.51,1.36a.613.613,0,0,1,.29.44c0,.26-.26.32-.46.32h-5.63a15.112,15.112,0,0,0-3.14.2l-.46-1.07c1.36.12,2.76.17,4.12.17h1.8Zm.17,3.22.84-1.16c.2-.29.32-.38.44-.38s.15.03.55.32l1.65,1.16a.55.55,0,0,1,.32.44c0,.26-.26.32-.44.32h-5.69a18.681,18.681,0,0,0-3.14.17l-.46-1.05c1.36.12,2.73.17,4.12.17h1.8Zm1.19,3.66.9-1.13c.12-.15.38-.38.55-.38.14,0,.44.26.55.38l1.28,1.16a.528.528,0,0,1,.15.41c0,.17-.35.55-.7.64,0,1.54,0,2.85.06,4.33,0,.26.09,1.34.09,1.57a1.457,1.457,0,0,1-1.57,1.48c-.55,0-1.07-.17-.99-1.45h-4.73c0,.2.06,1.05.06,1.22a1.441,1.441,0,0,1-1.63,1.51.966.966,0,0,1-1.05-.99,9.075,9.075,0,0,1,.12-.93c.03-.29.09-1.13.09-2.87a42.231,42.231,0,0,0-.29-6.39l2.93,1.45h4.18Zm-4.41.7v5.6h4.73v-5.6Zm17.97-7.87,1.31-1.65c.23-.29.29-.38.44-.38.12,0,.23.06.55.32l1.95,1.65a.645.645,0,0,1,.29.44c0,.26-.23.32-.44.32h-6.3c.06,10.13.09,11.27.15,13.01.06,1.25.06,1.39.06,1.68,0,.7,0,1.97-1.77,1.97-1.02,0-1.07-.7-1.07-1.16,0-.73.15-3.92.17-4.56.06-1.8.06-2.73.09-10.95h-1.6a15.112,15.112,0,0,0-3.14.2l-.46-1.07c1.36.12,2.76.17,4.12.17h1.05c-.12-6.59-.12-7.17-.84-9.29l3.63.87c.49.12.64.23.64.41,0,.38-.64.73-1.02.87v7.14h2.21Z"/>
  <path id="パス_733" data-name="パス 733" d="M463.54,224.23h2.68a2.623,2.623,0,0,0,2.63-2.91V197.29a2.208,2.208,0,0,0-2.03-2.35h-3.55V193.6a22.362,22.362,0,0,0,8.39-1.8c.18-.09,1.34-.6,1.43-.6.23,0,.28.18.28.46v29.75a2.9,2.9,0,0,0,3.09,2.81h2.21v1.48H463.54v-1.48Z"/>
  <path id="パス_734" data-name="パス 734" d="M496.42,204.26c4.06,0,8.03,3.83,8.03,10.42,0,7.7-5.4,11.9-9.83,11.9-4.66,0-10.75-4.57-10.75-15.87,0-9.13,4.43-19.51,12.73-19.51,3.6,0,6.5,1.98,6.5,4.71a2.63,2.63,0,0,1-2.68,2.81,2.855,2.855,0,0,1-2.91-2.86c0-.23.18-1.34.18-1.57,0-1.2-1.15-1.52-1.98-1.52-1.71,0-5.95,1.85-6.78,15.5,2.72-3.04,5.58-4.01,7.47-4.01Zm-1.75,20.71c3.69,0,4.84-5.72,4.84-9.73,0-4.71-1.61-8.67-4.66-8.67-.42,0-3.27,0-5.95,3.6.14,4.8.41,14.81,5.77,14.81Z"/>
  <path id="パス_735" data-name="パス 735" d="M511.41,205.91a15.112,15.112,0,0,0-3.14.2l-.49-1.07c1.77.14,3.83.17,4.15.17h7.23a27.608,27.608,0,0,0-.58-6.16l3.46,1.07c.29.09.35.2.35.38,0,.29-.29.49-.93.93.03.58-.03,3.22-.03,3.77h6.24l1.51-1.74c.17-.2.29-.35.44-.35a1.331,1.331,0,0,1,.55.29l2.47,1.74a.61.61,0,0,1,.29.44c0,.26-.23.32-.44.32H522.01c2.12,4.88,7.4,10.48,12.31,11.67v.17a5.83,5.83,0,0,0-3.48,2.12c-6.01-4.09-8.97-11.93-9.35-13.97h-.09c-.03,2.38-.03,3.28.03,11.32h1.25l1.16-1.37c.17-.2.29-.35.44-.35a1.262,1.262,0,0,1,.55.29l1.63,1.39c.15.12.29.23.29.44,0,.26-.23.29-.44.29h-4.88c0,1.22,0,3.28.06,4.44,0,.23.09,1.31.09,1.54a1.513,1.513,0,0,1-1.68,1.51c-1.13,0-1.19-.52-1.19-1.07,0-.12.09-1.07.09-1.25.15-1.71.2-3.51.26-5.17h-1.83a17.412,17.412,0,0,0-3.14.2l-.49-1.07c1.77.17,3.83.17,4.15.17h1.31c.03-2.85.06-5.69.09-8.57-5.37,8.91-11.56,10.89-12.31,11.09l-.09-.17c5.98-4.5,10.51-11.32,11.3-13.68h-6.62Z"/>
  <path id="パス_736" data-name="パス 736" d="M539.83,212.27a15.112,15.112,0,0,0-3.14.2l-.46-1.07c1.19.09,2.88.17,4.09.17l1.1-1.16a.533.533,0,0,1,.35-.2.8.8,0,0,1,.38.17l1.42,1.16c.09.06.29.23.29.41,0,.35-.52.73-.93,1.05,0,.99-.06,6.01,0,6.3.52,2.87,6.36,2.9,8.3,2.9a71.257,71.257,0,0,0,11.27-.99v.2a5.7,5.7,0,0,0-1.77,3.28c-13.12.32-16.35-.61-18.32-4.65-.26.26-.49.55-1.83,2.09-.2.26-1.31,1.36-1.51,1.6,0,.26,0,.78-.44.78a.642.642,0,0,1-.46-.29l-1.97-2.67a8.138,8.138,0,0,0,4.44-1.05v-8.25h-.81Zm-1.57-12.28c3.37.52,4.94,2.44,4.94,3.98a1.423,1.423,0,0,1-1.39,1.51c-1.04,0-1.31-.96-1.48-1.6a7.463,7.463,0,0,0-2.06-3.66v-.23Zm10.48,14.98a1.285,1.285,0,0,1-1.42,1.31.818.818,0,0,1-.93-.84c0-.09.06-.64.06-.75.09-1.28.12-3.48.12-4.79,0-.84-.03-1.19-.06-1.63-.03-.2-.14-1.1-.2-1.39l2.61,1.42h2.38c0-.35-.03-1.77-.03-2h-2.7a14.68,14.68,0,0,0-3.14.2l-.46-1.07c1.31.12,2.79.17,4.12.17h2.15a11.219,11.219,0,0,0-.55-3.66l3.25.87c.12.03.38.12.38.38s-.26.49-.81.96v1.45h2.53l1.31-1.36c.23-.26.35-.38.46-.38.15,0,.23.06.52.29l1.74,1.39c.17.14.29.26.29.44,0,.29-.29.32-.44.32H553.5v2h2.41l.93-.73a.659.659,0,0,1,.41-.2c.12,0,.23.12.41.23l1.25.96c.12.09.32.26.32.44,0,.23-.26.46-.67.87v2.41c0,.35.09,2.15.09,2.38a1.517,1.517,0,0,1-1.63,1.48c-.81,0-.81-.64-.78-1.16h-2.67c0,.35.03,2.15.06,2.56h4.04l1.39-1.51c.2-.23.32-.35.46-.35a.868.868,0,0,1,.55.29l1.71,1.51a.728.728,0,0,1,.26.44c0,.32-.26.32-.44.32h-7.99c.03.23.06,1.77.06,1.92a1.515,1.515,0,0,1-1.6,1.57.9.9,0,0,1-1.02-.99c0-.12.14-2.18.17-2.5h-3.89a17.242,17.242,0,0,0-3.14.2l-.46-1.07c1.31.12,2.79.17,4.12.17h3.4c.03-.64.09-1.71.09-2.56h-2.61Zm8.74-14.23,1.02-.67c.2-.14.32-.23.44-.23.14,0,.23.09.35.2l1.6,1.6a.894.894,0,0,1,.35.61c0,.44-.49.52-.81.55-.26.03-.81.03-1.16.06-.84.41-1.86.9-2.56,1.28l-.15-.15c.52-1.05.87-1.92,1.13-2.56H547.03c.03.67.2,3.48-1.95,3.48a1.213,1.213,0,0,1-1.25-1.19c0-.64.26-.93,1.28-2.06a6.157,6.157,0,0,0,1.28-2.38h.15a5.17,5.17,0,0,1,.41,1.45h10.54Zm-6.13,10.51c0-.64-.03-1.57-.03-2.27h-2.58v2.27h2.61Zm.03,3.02v-2.32h-2.64v2.32Zm4.85-3.02v-2.27H553.5v2.27Zm0,3.02v-2.32H553.5l.06,2.32Z"/>
  <path id="パス_737" data-name="パス 737" d="M575.98,206.23a.489.489,0,0,1,.17.44.4.4,0,0,1-.26.38c-.14.03-.9.12-1.07.17-.58.75-1.02,1.31-1.71,2.15.35.26.64.49.64.73a.5.5,0,0,1-.14.29,1.92,1.92,0,0,1-.32.26,62.015,62.015,0,0,0-.17,6.65c0,.9.03,5.31.03,6.33,0,1.89-1.45,1.89-1.6,1.89-.99,0-1.05-.78-1.05-1.34,0-.49.29-5.14.32-5.81.09-2.64.12-5.08.09-6.56a17.521,17.521,0,0,1-6.1,4.07l-.06-.12a43.887,43.887,0,0,0,7.81-9.87,17.024,17.024,0,0,0,.73-1.83l2.7,2.18Zm-.99-5.4a.724.724,0,0,1,.26.46c0,.23-.15.32-.41.35-.14.03-.78.03-.9.06a21.27,21.27,0,0,1-8.68,5.66l-.09-.23a27.98,27.98,0,0,0,6.59-6.94,8.779,8.779,0,0,0,.64-1.74l2.58,2.38Zm10.51,8.59v.15c0,1.54.14,10.6.14,12.57,0,.9,0,3.05-3.54,3.28-.29-1.51-1.16-2.24-2.87-3.31v-.2c.52.06,1.92.2,2.96.2s1.07-.29,1.07-1.16c0-2.9-.09-8.77-.17-11.53h-4.53a18.492,18.492,0,0,0-3.14.17l-.46-1.05c1.31.12,2.79.17,4.12.17h7.49l1.54-1.77c.29-.35.32-.35.44-.35a1.094,1.094,0,0,1,.55.29l1.92,1.77c.17.15.29.26.29.44,0,.29-.29.32-.44.32H585.5Zm-.2-7.87,1.25-1.51c.26-.32.32-.38.46-.38.17,0,.46.26.52.32l1.74,1.54c.17.14.29.23.29.44,0,.26-.26.29-.44.29H580a17.666,17.666,0,0,0-3.14.2l-.46-1.07a40.545,40.545,0,0,0,4.12.17h4.76Z"/>
  <path id="パス_738" data-name="パス 738" d="M355.36,212.85H348.5c0,1.61-.02,4.19-.02,5.8a.945.945,0,0,1-.15.65,1,1,0,0,1-.64.27c-.34,0-.4-.23-.4-.5,0-.07,0-.2.03-.59.05-.81.12-4.75.15-5.63h-4.56a13.636,13.636,0,0,0-2.16.18l-.4-.72c.87.07,1.93.13,2.8.13h4.33c.02-.65.03-1.24.03-1.44,0-.75-.02-4.38-.02-5.2h-3.71a13.722,13.722,0,0,0-2.16.18l-.39-.72c.86.08,1.91.13,2.78.13h8.55l.62-.8c.13-.18.2-.22.27-.22s.2.1.28.17l.96.82s.15.15.15.25c0,.18-.17.18-.25.18h-6.12c0,.85.02,5.08.02,6.04v.6h4.75l.72-.79c.17-.17.2-.22.27-.22s.23.12.3.18l.91.77s.17.15.17.27c0,.17-.18.18-.25.18Zm-11.03-1.89c.22,0,.52-.15.52-.64a3.011,3.011,0,0,0-.89-1.78,14.4,14.4,0,0,0-1.69-1.43l-.12.08a5.833,5.833,0,0,1,1.09,2.15c.45,1.27.59,1.61,1.09,1.61Zm9.46-2.85a3.085,3.085,0,0,1-.69.03,15.358,15.358,0,0,1-3.27,3.52l-.08-.1a14.6,14.6,0,0,0,2.55-4.81l1.53.99c.1.05.13.08.13.2S353.88,208.09,353.79,208.11Z"/>
  <path id="パス_739" data-name="パス 739" d="M367.73,207c-.07,2.01-.02,7.9.05,10.13,0,.18.07.96.07,1.12a.666.666,0,0,1-.7.7c-.39,0-.39-.29-.39-.42,0-.05.03-.65.03-.74h-6.66a2.062,2.062,0,0,1-.03.75.761.761,0,0,1-.65.44.387.387,0,0,1-.42-.44c0-.17.07-.87.08-1.02.1-1.44.13-5.65.13-6.79,0-4.44-.07-4.8-.28-5.5l1.43.77h6.12l.49-.44s.18-.18.32-.18c.07,0,.12.03.27.15l.64.55a.416.416,0,0,1,.2.32c0,.18-.34.37-.69.59Zm-.92-.59h-6.67v5.1h6.67Zm0,5.5h-6.67v5.48h6.67Z"/>
  <path id="パス_740" data-name="パス 740" d="M374.88,218.54c-1.78,0-3.64-.96-3.64-3.04,0-1.69,1.26-2.5,3.04-3.49-.94-.47-2.58-1.31-2.58-3.19a3.3,3.3,0,0,1,3.42-3.15,2.826,2.826,0,0,1,3.05,2.67c0,1.56-1.33,2.52-2.11,3.07,1.02.57,2.73,1.49,2.73,3.54a3.579,3.579,0,0,1-3.91,3.59Zm-.17-6.32c-.92.64-2.23,1.54-2.23,3.24a2.377,2.377,0,0,0,2.53,2.57,2.624,2.624,0,0,0,2.78-2.67c0-1.58-1.27-2.26-3.09-3.14Zm.27-6.04a2.23,2.23,0,0,0-2.31,2.2,2.006,2.006,0,0,0,.97,1.73,8.495,8.495,0,0,0,1.95,1.07,3.442,3.442,0,0,0,1.63-2.65,2.256,2.256,0,0,0-2.23-2.35Z"/>
  <path id="パス_741" data-name="パス 741" d="M385.69,206.71c-.02.34-.03.82-.03,1.56,0,1.84.07,4.21.13,6.07,0,.2.05,1.16.05,1.34a.584.584,0,0,1-.18.49.688.688,0,0,1-.4.15c-.4,0-.4-.13-.39-1.12h-2.38c0,.27.03,1.39.03,1.63,0,.4-.54.52-.65.52-.28,0-.32-.25-.32-.4,0-.1.02-.62.02-.92.07-2.26.08-4.51.08-6.76a25,25,0,0,0-.17-3.91l1.21.6h1.98l.45-.42c.12-.1.2-.18.29-.18s.22.1.34.22l.37.37a.434.434,0,0,1,.15.27c0,.13-.35.37-.57.5Zm-.81-.35h-2.41v3.92h2.41Zm0,4.33h-2.41v4.11h2.41Zm10.9-.32h-7.21a13.445,13.445,0,0,0-2.16.2l-.4-.72c.94.07,1.86.12,2.8.12h1.41V207.4h-.72a13.651,13.651,0,0,0-2.16.2l-.39-.72c.92.07,1.86.12,2.78.12h.49a7.89,7.89,0,0,0-.29-2.75l1.49.45c.15.05.25.08.25.25a.226.226,0,0,1-.12.2,4.042,4.042,0,0,0-.37.29c-.02.23-.03.67-.03,1.56h2.06l.45-.59c.05-.07.17-.2.25-.2a.485.485,0,0,1,.32.17l.65.59c.08.08.17.15.17.25,0,.17-.15.18-.25.18h-3.66c-.02.87-.02,1.83-.02,2.57h2.97l.54-.67c.12-.15.18-.2.25-.2a.459.459,0,0,1,.28.17l.7.69c.12.12.15.18.15.25,0,.17-.18.17-.25.17Zm-.02,3.32h-2.85c.02,1.16.05,2.75.05,3.94a1.266,1.266,0,0,1-.6,1.29,3.651,3.651,0,0,1-1.33.55c-.1-.34-.25-.77-1.58-1.43v-.13c.77.08,1.48.12,1.63.12.25,0,.79-.02.92-.2a6.017,6.017,0,0,0,.08-1.26c0-.57-.02-1.54-.05-2.88h-3.27a13.267,13.267,0,0,0-2.16.18l-.39-.72c.92.08,1.84.13,2.78.13h3.02a9.346,9.346,0,0,0-.17-2.36l1.27.32c.17.05.23.08.23.18,0,.17-.34.44-.45.54-.02.2-.02.32-.02,1.32h1.27l.44-.64c.07-.08.15-.2.27-.2a.513.513,0,0,1,.29.17l.7.64c.07.07.15.13.15.25,0,.15-.13.18-.25.18Zm-6.36,3.09c-.42,0-.47-.22-.6-.92a6.607,6.607,0,0,0-.18-.7,2.01,2.01,0,0,0-.45-.82l.05-.12c.87.35,1.78,1.26,1.78,1.93a.6.6,0,0,1-.59.64Z"/>
  <path id="パス_742" data-name="パス 742" d="M412.85,211.81c-.12,0-.4-.07-.84-.64-.87-1.11-.97-1.22-1.26-1.54-2.48.39-8.64,1.09-10.72,1.29-.17.32-.29.5-.45.5s-.18-.1-.25-.32l-.59-1.73a2.617,2.617,0,0,0,.96.32,20.909,20.909,0,0,0,2.85.07,23.1,23.1,0,0,0,2.48-5.32,2.809,2.809,0,0,0-.03-.47l1.76.96a.268.268,0,0,1,.17.23c0,.25-.29.3-.87.37a51.765,51.765,0,0,1-3.22,4.23c1.02-.02,1.96-.07,2-.07.91-.05,4.9-.23,5.7-.27a16.209,16.209,0,0,0-2.3-1.84v-.08c1.49.47,5.16,2.13,5.16,3.62a.7.7,0,0,1-.55.69Zm-1.93,1.66c0,1.14.05,2.7.07,3.54,0,.27.07,1.43.07,1.66,0,.62-.65.65-.69.65-.3,0-.39-.22-.39-.44,0-.17.03-.45.03-.59h-7.93c0,.52,0,.72-.1.89a.771.771,0,0,1-.62.37c-.34,0-.39-.22-.39-.42,0-.12.05-.65.05-.77.08-1.34.08-3,.08-4.36a8,8,0,0,0-.15-2.16l1.46.81h7.24l.37-.44c.05-.07.15-.17.22-.17a.523.523,0,0,1,.27.1l.92.55c.12.07.17.12.17.23,0,.17-.18.25-.69.54Zm-.89-.42h-7.95v4.85h7.95Z"/>
  <line id="線_6" data-name="線 6" y2="58.18" transform="translate(319.72 179.13)" fill="none" stroke="#000" stroke-miterlimit="10" stroke-width="0.83"/>
  <line id="線_7" data-name="線 7" x2="578.26" transform="translate(31.28 92.84)" fill="none" stroke="#e1e1e1" stroke-miterlimit="10" stroke-width="0.99"/>
  <line id="線_8" data-name="線 8" x2="0.5" transform="translate(232.16 129.86)" fill="none" stroke="#fff" stroke-linecap="round" stroke-linejoin="round" stroke-width="1"/>
  <line id="線_9" data-name="線 9" x2="215.89" transform="translate(236.62 129.86)" fill="none" stroke="#fff" stroke-linecap="round" stroke-linejoin="round" stroke-width="1" stroke-dasharray="0 0 0.99 3.96"/>
  <line id="線_10" data-name="線 10" x2="0.5" transform="translate(454.49 129.86)" fill="none" stroke="#fff" stroke-linecap="round" stroke-linejoin="round" stroke-width="1"/>
  <path id="パス_743" data-name="パス 743" d="M467.01,68.55a50.406,50.406,0,0,0,8.38-11.88,14.609,14.609,0,0,0,.68-2.11l2.9,2.25a.594.594,0,0,1,.21.47c0,.5-.57.5-1.4.64-.57.82-1.29,1.83-2.58,3.51.43.36.61.47.61.72,0,.21-.14.43-.93,1-.11,1.54-.11,2.94-.11,4.05,0,1.54.11,8.45.11,9.84,0,1.86,0,2.86-1.58,2.86-.64,0-1.25-.21-1.25-1,0-.47.21-2.51.21-2.9.11-2.18.07-3.11.14-11.28a21.949,21.949,0,0,1-5.26,4.08l-.14-.25Zm.14-10.49c5.01-4.69,7.91-9.38,8.3-10.88l2.69,1.93c.07.07.29.25.29.43,0,.39-.14.43-1.5.72a28.2,28.2,0,0,1-9.59,8.09l-.18-.29Zm28.53,1.9,1.29-1.79c.29-.43.43-.47.54-.47.21,0,.36.14.68.39l2.11,1.79c.21.18.36.32.36.54,0,.36-.29.39-.54.39H487.38l3.33,1.07c.21.07.47.18.47.43,0,.47-.86.97-1.11,1.07v3.54h3.69l1.29-1.54c.29-.32.36-.43.57-.43.18,0,.29.07.68.39l1.79,1.5a.706.706,0,0,1,.36.54c0,.32-.29.39-.54.39h-7.84c0,.5-.04,7.7-.04,7.88a37.767,37.767,0,0,0,5.33.39,22.928,22.928,0,0,0,5.76-.64l.04.14a5.318,5.318,0,0,0-2.08,3.47c-.57.04-1.18.11-2.04.11-11.53,0-13.42-6.48-14.25-9.41-.9,2.47-2.58,6.77-7.2,9.24l-.11-.14a23.468,23.468,0,0,0,5.83-14.43,7.616,7.616,0,0,0-.14-1.61l3.65,1.18a.478.478,0,0,1,.39.5.485.485,0,0,1-.18.39c-.14.11-.9.47-1.04.54a27.062,27.062,0,0,1-.97,3.51c1.58,3.51,3.51,5.3,4.62,5.94,0-9.42,0-10.02-.07-11.49-.04-.43-.25-2.18-.29-2.54h-3.76a26.076,26.076,0,0,0-4.22.32l-.72-1.43c2.47.21,5.01.25,5.51.25h3.47c0-2.11,0-4.37-.04-6.3h-2.76a23.942,23.942,0,0,0-4.19.32l-.72-1.4c2.22.18,4.44.21,5.51.21h2.15c-.07-3.44-.11-3.72-.64-5.55l3.72,1.11c.29.07.5.18.5.43s-.9,1.04-1.07,1.18v2.83h3.51l1.4-1.72c.21-.25.32-.43.57-.43s.36.11.64.36l1.9,1.72c.18.18.36.32.36.57,0,.32-.32.36-.54.36h-7.88v6.3h5.66Z" fill="#fff"/>
  <path id="パス_744" data-name="パス 744" d="M537.61,60.5H521.64l1.25.29c.75.18.89.18.89.5,0,.29-.11.43-.89.86,0,1,.14,5.51.14,6.41,0,2.15,0,3.22-3.76,4.3a5.18,5.18,0,0,0-3.04-3.29v-.21c.47,0,2.54.14,2.97.14,1.29,0,1.29-.04,1.32-1.32.04-1.68,0-5.76-.04-7.66h-9.74a26.076,26.076,0,0,0-4.22.32l-.72-1.43c2.43.21,4.98.25,5.51.25h1.68c0-6.34,0-7.02-.54-9.02l3.51.97c.54.14.68.29.68.61,0,.29-.11.39-1.11,1.07v6.37h4.9c0-8.05,0-8.95-.07-10.17-.04-.79-.14-1.61-.39-3.51l3.29.9c.39.11.68.21.68.61,0,.25,0,.39-1.07,1v4.62h5.15l1.4-2.04c.14-.18.36-.47.57-.47.18,0,.43.21.64.39l2.29,2.04c.21.21.36.32.36.54,0,.36-.29.39-.54.39h-9.88v5.69h9.84l1.68-2.15c.21-.29.43-.47.57-.47a1.155,1.155,0,0,1,.64.39l2.15,2.15c.25.25.36.39.36.54,0,.36-.29.39-.54.39Zm-20.33,4.33c-.14.07-.57.18-.89.29a26.829,26.829,0,0,1-9.7,9.38l-.14-.18a41.88,41.88,0,0,0,6.94-9.99,11.87,11.87,0,0,0,.68-2.15l2.79,1.47c.32.18.61.32.61.75a.465.465,0,0,1-.29.43Zm10.95,6.37c-5.73,5.01-11.38,8.27-20.12,8.56l-.04-.25a34.393,34.393,0,0,0,15.89-8.13,16.562,16.562,0,0,0,3.19-3.54l2.18,2.15c.29.29.43.47.43.68,0,.43-.14.43-1.54.54Zm6.23.93c-1.04,0-1.54-.79-2.22-1.9a21.5,21.5,0,0,0-6.48-7.09l.14-.21c6.41,1.54,9.99,5.48,9.99,7.66a1.5,1.5,0,0,1-1.43,1.54Z" fill="#fff"/>
  <path id="パス_745" data-name="パス 745" d="M556.31,63.07a8.372,8.372,0,0,1-4.33,1.29c-4.92,0-8.9-4.97-8.9-11.04,0-6.86,4.92-13.08,10.64-13.08s11.44,6.46,11.44,17.16c0,11.49-6.46,21.04-14.07,21.04-3.33,0-5.67-1.99-5.67-4.33a2.49,2.49,0,0,1,2.54-2.59c.99,0,2.64.65,2.74,3.43.05,1.09.15,1.79,1.49,1.79A4.888,4.888,0,0,0,555.82,75c4.43-4.87,4.67-12.23,4.87-16.66a12.657,12.657,0,0,1-4.38,4.72Zm1.64-18.45a4.941,4.941,0,0,0-4.03-2.69c-2.64,0-6.37,2.78-6.37,10.94,0,2.29.55,9.25,5.67,9.25,1.89,0,5.07-1.39,7.41-6.76-.2-2.74-.6-7.51-2.69-10.74Z" fill="#fff"/>
  <path id="パス_746" data-name="パス 746" d="M581.85,52.48a30.853,30.853,0,0,1-11.1,12.17l-.18-.25c5.01-5.69,7.84-10.7,8.66-13.1a11.526,11.526,0,0,0,.57-2.29l3.08,2.08c.18.11.47.32.47.57,0,.43-.93.68-1.5.82Zm12.99,11.2c-.36,12.89-1.07,15.5-7.52,16.07a5.136,5.136,0,0,0-2.68-3.94l.04-.25a22.482,22.482,0,0,0,4.15.61c1.72,0,2.4-.39,2.94-3.65a73.942,73.942,0,0,0,.54-10.31h-7.23c-.21,5.62-2.61,15.32-13.89,17.4l-.07-.29c7.27-3.37,10.95-8.77,11.31-17.11h-1.04a22.854,22.854,0,0,0-4.22.36l-.68-1.43c2.22.18,4.4.21,5.48.21H592.1l.97-.86a1.066,1.066,0,0,1,.64-.39c.18,0,.36.18.5.32l1.43,1.57a.928.928,0,0,1,.32.57c0,.32-.11.39-1.11,1.11Zm6.52-.04c-3.83-1.65-8.09-5.51-10.77-13.6h-2.86a17.12,17.12,0,0,0-3.01.21L584.25,49c1.61.14,3.19.18,3.9.18h1.79l1.15-1.15c.32-.32.47-.39.64-.39.21,0,.36.18.61.39l1.32,1.29a.649.649,0,0,1,.29.54c0,.72-1.65,1-2.29,1.11,1.72,4.62,7.66,9.2,13.14,9.59l.04.36a5.872,5.872,0,0,0-3.47,2.72Z" fill="#fff"/>
  <path id="パス_747" data-name="パス 747" d="M595.34,42.22l-.58-.58,5.85-5.83-5.85-5.83.58-.58,5.83,5.85L607,29.4l.58.58-5.85,5.83,5.85,5.83-.58.58-5.83-5.85Zm2.43-6.41a1.5,1.5,0,1,1-1.49-1.49A1.5,1.5,0,0,1,597.77,35.81Zm4.9-4.9a1.49,1.49,0,1,1-2.98,0,1.49,1.49,0,1,1,2.98,0Zm0,9.79a1.49,1.49,0,1,1-1.49-1.49A1.5,1.5,0,0,1,602.67,40.7Zm4.92-4.9a1.5,1.5,0,0,1-1.51,1.49,1.481,1.481,0,0,1-1.49-1.49,1.5,1.5,0,0,1,1.49-1.49A1.524,1.524,0,0,1,607.59,35.8Z" fill="#fff"/>
  <path id="パス_748" data-name="パス 748" d="M617.71,42.65h-7.08v-.49a12.273,12.273,0,0,1,2.65-4.03c2.65-3.06,3.55-4.09,3.55-5.89a2.316,2.316,0,0,0-2.4-2.47c-1.26,0-2.02.76-2.02,1.4a1.007,1.007,0,0,0,.18.56,1.587,1.587,0,0,1,.38.9,1,1,0,0,1-.97,1.01,1.137,1.137,0,0,1-1.03-1.26,3.6,3.6,0,0,1,3.87-3.22,3.284,3.284,0,0,1,3.6,3.35c0,1.82-1.04,2.81-2.67,4.2a15.615,15.615,0,0,0-3.89,4.52h2.48c2.52,0,3.11-.97,3.65-2.47l.54.2-.86,3.69Z" fill="#fff"/>
</svg>
