<svg id="taxi01-sp" xmlns="http://www.w3.org/2000/svg" width="750" height="71.302" viewBox="0 0 750 71.302">
  <g id="_背景" transform="translate(0 68.802)">
    <line id="線_4" data-name="線 4" x2="750" transform="translate(0 0)" fill="none" stroke="#d4c194" stroke-miterlimit="10" stroke-width="2"/>
  </g>
  <g id="_レイヤー_2-2" transform="translate(15.989 0)">
    <path id="パス_115" data-name="パス 115" d="M175.917,1.368c6.4,0,19.139-.288,21.01-.288,1.079,0,1.583,1.511,1.655,4.965l.072,2.015c0,1.583-.288,2.3-.863,2.3-.5,0-.791-.432-.935-1.727-.216-2.446-1.367-3.238-4.749-3.454-2.518-.216-7.771-.288-11.656-.288-2.95,0-3.166.288-3.166,4.821-.072,11.225-.216,22.377-.216,33.6,0,5.109,1.439,7.267,4.677,7.267,1.3.072,1.8.288,1.8.935,0,.72-.432.935-2.159.935-3.885,0-5.253-.072-7.2-.072-2.662,0-5.4.216-8.49.216-.576,0-.935-.216-.935-.576,0-.648.5-.935,1.511-1.079,5.037-.5,5.324-1.223,5.468-12.592.144-9.714.288-19.355.288-29.788,0-3.454-.288-3.6-6.4-3.6-9.354,0-12.088.791-13.1,3.742l-.5,1.8c-.288.791-.576,1.151-.935,1.151s-.5-.216-.5-.72c0-.576.144-2.734.648-6.764.288-2.518.791-3.022,3.454-3.022,2.374,0,7.627.216,11.8.216h9.426Z" transform="translate(-147.84 -0.217)" fill="#d4c194"/>
    <path id="パス_116" data-name="パス 116" d="M225.163,52.381c-.576,0-.863-.216-.863-.72,0-.576.288-.72,1.367-.863,1.655-.216,3.6-2.159,4.965-5.037q9.929-20.722,19.931-41.444C252.217.863,252.793,0,253.153,0c.5,0,.72.791,2.231,4.6.935,2.3,11.512,27.27,16.909,40.293,1.439,3.454,2.878,4.677,6.692,5.54,1.439.36,1.871.576,1.871,1.151,0,.5-.935,1.007-2.087,1.007a81.754,81.754,0,0,0-8.562-.648c-2.878,0-4.965.36-6.476.36-.72,0-1.3-.36-1.3-.791,0-.576.648-1.007,1.727-1.079,1.511-.216,2.374-.935,2.374-2.159,0-1.3-2.878-10.577-5.181-14.822-.432-.863-.576-1.079-2.015-1.079l-18.06.288c-1.007,0-1.223.072-1.439.648-3.6,7.843-5.9,12.376-5.9,13.527,0,2.015,1.079,2.806,4.965,3.885.576.144.791.36.791.791,0,.5-.432.791-1.439.791-1.727,0-4.029-.216-6.116-.216-3.238,0-6.548.288-6.979.288Zm33.53-26.406L253.3,13.6l-1.439-2.518c-.216-.5-.5-.791-.648-.791-.36,0-.791.72-1.8,2.806L242.648,27.63a2.407,2.407,0,0,0-.288,1.007c0,.576.576.863,1.367.863l14.318-.072c1.151,0,1.439-.216,1.439-1.079a.913.913,0,0,0-.072-.432Z" transform="translate(-162.621 0)" fill="#d4c194"/>
    <path id="パス_117" data-name="パス 117" d="M331.33,30.221,320.9,44.9c-1.223,1.727-1.655,2.59-1.655,3.526,0,1.8.935,2.446,3.526,2.446.935,0,1.439.288,1.439.935s-.288.791-1.583.791a10.627,10.627,0,0,1-1.511-.072c-.863,0-2.087-.072-3.526-.072s-2.806.072-3.67.072c-2.015.072-3.094.144-3.31.144-2.159,0-2.374-.072-2.374-.791s.144-.791,1.8-1.223c2.159-.5,5.9-3.813,8.706-7.7L329.6,27.7,317.8,10.29c-2.806-4.173-6.044-6.764-8.562-6.835-1.223-.072-1.511-.216-1.511-.935,0-.648.288-.791,1.511-.791h.288l2.95.072,4.677.216,4.749-.144c1.3-.072,2.159-.144,2.662-.216a1.584,1.584,0,0,1,.576-.072.771.771,0,0,1,.288,1.511l-1.511.288a1.4,1.4,0,0,0-1.367,1.511c0,.935.36,1.655,1.871,3.957l8.994,13.6L343.2,8.635c1.079-1.439,1.439-2.231,1.439-3.022,0-1.655-.576-2.087-3.022-2.374-.863-.144-1.511-.5-1.511-.935s.72-.72,1.727-.72l2.806.072h1.079c1.151,0,2.159,0,3.022-.072l3.885-.144,2.015.072c.576,0,.863.144.863.576,0,.288-.288.576-.648.72l-2.662.863a9.652,9.652,0,0,0-2.3,1.511,15.127,15.127,0,0,0-2.374,2.446L334.928,24.465l14.1,21.082c2.159,3.238,3.813,4.533,6.835,5.109.935.216,1.367.576,1.367,1.223v.144c-.072.36-.288.576-.5.576,0,0-.72,0-2.087-.072l-3.526-.216-2.3-.144c-.648,0-1.943.144-3.885.288-1.079.072-2.087.216-2.878.288a3.5,3.5,0,0,1-.863.072c-1.079,0-1.727-.288-1.727-.935,0-.791.288-.935,2.3-1.367A1.546,1.546,0,0,0,343.2,49c0-.863-.072-1.007-1.439-3.094L331.33,30.221Z" transform="translate(-179.351 -0.289)" fill="#d4c194"/>
    <path id="パス_118" data-name="パス 118" d="M391.64,2.106c3.166,0,4.965-.144,8.131-.216,1.367.072,1.871.216,1.871.791s-.36.791-2.159,1.3c-2.374.576-3.31,1.943-3.382,5.109-.36,11.081-1.007,22.089-1.007,34.9,0,4.6,1.871,6.62,6.332,6.979,1.223.072,1.727.36,1.727,1.079,0,.432-.576.648-1.871.648-2.662,0-5.324-.36-8.275-.36-3.454,0-6.907.5-8.562.5-.648,0-1.3-.432-1.3-.863,0-.863.432-1.151,2.087-1.439,3.31-.576,3.67-1.223,3.885-5.253.863-14.75,1.079-26.838,1.079-35.544,0-3.957-1.223-5.468-5.037-5.972-2.015-.216-2.374-.432-2.374-1.079,0-.576.5-.791,1.727-.791,1.871,0,4.533.216,7.123.216Z" transform="translate(-194.403 -0.379)" fill="#d4c194"/>
    <path id="パス_119" data-name="パス 119" d="M476.377,54.738c-3.885,2.806-6.907,3.885-10.937,3.885-5.109,0-8.131-2.518-8.131-6.764,0-4.6,2.95-7.339,9.57-8.922l7.915-1.8a1.989,1.989,0,0,0,1.511-1.871c0-5.324-1.583-9.929-7.843-9.929-3.094,0-5.612,1.583-5.612,3.454a10.03,10.03,0,0,0,.36,2.3,5.745,5.745,0,0,1,.36,1.871c0,.648-.36.935-1.079.935-2.446,0-4.749-1.3-4.749-2.662,0-4.389,5.828-8.059,12.736-8.059,6.044,0,10.865,3.094,10.865,7.051,0,3.094-.288,11.944-.288,15.9s1.439,5.972,4.317,5.972c.432,0,.863-.288,1.439-.288.216,0,.36.144.36.432,0,1.079-2.23,2.015-4.677,2.015-2.662,0-3.67-.576-6.116-3.526Zm-.791-12.088a1.225,1.225,0,0,0-.5.072c-9.714,1.871-12.52,3.813-12.52,8.131,0,3.238,2.662,5.54,6.548,5.54,4.461,0,6.476-1.727,6.763-5.612.216-3.166.288-5.037.288-7.411,0-.5-.216-.72-.576-.72Z" transform="translate(-209.347 -5.45)" fill="#d4c194"/>
    <path id="パス_120" data-name="パス 120" d="M532.48,27.827c1.367.36,1.511.576,1.511,3.166V33.44c0,.935-.216,1.439-.648,1.439-.5,0-.72-.216-2.015-1.655a12.708,12.708,0,0,0-8.778-4.1c-5.253,0-8.346,4.173-8.346,11.225,0,8.706,5.324,14.678,13.023,14.678a11.891,11.891,0,0,0,8.059-3.31,1.87,1.87,0,0,1,1.151-.576c.288,0,.432.216.432.576a1.853,1.853,0,0,1-.5,1.151,17.267,17.267,0,0,1-12.448,5.684A14.973,14.973,0,0,1,508.88,43.369c0-9.57,7.339-16.549,17.484-16.549a25.158,25.158,0,0,1,6.116,1.007Z" transform="translate(-219.688 -5.378)" fill="#d4c194"/>
    <path id="パス_121" data-name="パス 121" d="M581.53,27.827c1.367.36,1.511.576,1.511,3.166V33.44c0,.935-.216,1.439-.648,1.439-.5,0-.72-.216-2.015-1.655a12.708,12.708,0,0,0-8.778-4.1c-5.253,0-8.346,4.173-8.346,11.225,0,8.706,5.324,14.678,13.023,14.678a11.891,11.891,0,0,0,8.059-3.31,1.87,1.87,0,0,1,1.151-.576c.288,0,.432.216.432.576a1.853,1.853,0,0,1-.5,1.151,17.267,17.267,0,0,1-12.448,5.684A14.973,14.973,0,0,1,557.93,43.369c0-9.57,7.339-16.549,17.484-16.549a25.157,25.157,0,0,1,6.116,1.007Z" transform="translate(-229.524 -5.378)" fill="#d4c194"/>
    <path id="パス_122" data-name="パス 122" d="M613.078,39.592a.7.7,0,0,0-.792.72,19.534,19.534,0,0,0,3.238,9.714,10.681,10.681,0,0,0,8.994,4.677,16.758,16.758,0,0,0,8.2-2.662,2.485,2.485,0,0,1,1.439-.576c.216,0,.36.216.36.576,0,.72-.791,1.655-2.806,3.238A14.742,14.742,0,0,1,622,58.587c-8.706,0-14.75-6.26-14.75-15.182S613.582,27,621.424,27c5.468,0,9.714,2.878,12.376,8.346a6.8,6.8,0,0,1,.72,2.374c0,.935-.72,1.367-2.159,1.439l-19.283.432Zm1.439-7.843a11.686,11.686,0,0,0-1.871,5.109c0,.36.144.72.648.72,3.382,0,6.835-.072,10.217-.144,3.885-.072,4.533-.216,4.533-1.367,0-1.583-1.151-3.67-2.734-5.253a7.4,7.4,0,0,0-5.181-2.3A6.737,6.737,0,0,0,614.517,31.749Z" transform="translate(-239.414 -5.414)" fill="#d4c194"/>
    <path id="パス_123" data-name="パス 123" d="M657.524,53.748c0-2.95-.072-3.67-.144-4.821,0-1.079.288-1.511.863-1.511.792,0,.935.216,1.439,2.3,1.007,4.245,4.245,7.051,8.131,7.051,4.1,0,6.979-2.231,6.979-5.4,0-2.806-2.087-4.749-6.62-6.4-8.2-2.878-10.433-4.893-10.433-9.282,0-4.893,4.533-8.418,10.865-8.418,3.67,0,6.692.648,6.907,1.511l.863,3.813a9.706,9.706,0,0,1,.216,1.439.984.984,0,0,1-1.007,1.007c-.432,0-.72-.216-1.007-.935a7.926,7.926,0,0,0-7.771-4.893c-3.454,0-5.325,1.439-5.325,4.1,0,3.022,1.007,3.67,9.426,6.476,4.965,1.655,7.411,4.533,7.411,8.85a9.951,9.951,0,0,1-10.073,10,35.233,35.233,0,0,1-7.555-1.367c-2.518-.72-3.166-1.079-3.166-1.511V53.748Z" transform="translate(-249.467 -5.468)" fill="#d4c194"/>
    <path id="パス_124" data-name="パス 124" d="M701.534,53.748c0-2.95-.072-3.67-.144-4.821,0-1.079.288-1.511.863-1.511.791,0,.935.216,1.439,2.3,1.007,4.245,4.245,7.051,8.131,7.051,4.1,0,6.979-2.231,6.979-5.4,0-2.806-2.087-4.749-6.62-6.4-8.2-2.878-10.433-4.893-10.433-9.282,0-4.893,4.533-8.418,10.865-8.418,3.67,0,6.692.648,6.907,1.511l.863,3.813a9.706,9.706,0,0,1,.216,1.439.984.984,0,0,1-1.007,1.007c-.432,0-.72-.216-1.007-.935a7.926,7.926,0,0,0-7.771-4.893c-3.454,0-5.324,1.439-5.324,4.1,0,3.022,1.007,3.67,9.426,6.476,4.965,1.655,7.411,4.533,7.411,8.85a9.951,9.951,0,0,1-10.073,10,35.233,35.233,0,0,1-7.555-1.367c-2.518-.72-3.166-1.079-3.166-1.511V53.748Z" transform="translate(-258.292 -5.468)" fill="#d4c194"/>
    <line id="線_6" data-name="線 6" x2="424.358" transform="translate(0 68.802)" fill="none" stroke="#bba579" stroke-miterlimit="10" stroke-width="5"/>
  </g>
</svg>
