<svg xmlns="http://www.w3.org/2000/svg" width="175.185" height="20.478" viewBox="0 0 175.185 20.478">
  <g id="air03-sp" transform="translate(-15.484 -610.381)">
    <line id="線_107" data-name="線 107" x2="175.185" transform="translate(15.484 628.359)" fill="none" stroke="#b3a34b" stroke-width="5"/>
    <path id="パス_4506" data-name="パス 4506" d="M.484-15.334h.88a1.412,1.412,0,0,1,1.562,1.518V-2.222A1.411,1.411,0,0,1,1.364-.7H.484V0H8.338c4.268,0,5.984-2.464,5.984-4.422a4.024,4.024,0,0,0-1.672-3.1A5.986,5.986,0,0,0,9.7-8.624a5.2,5.2,0,0,0,2.178-.968A3.761,3.761,0,0,0,13.4-12.5c0-2.244-2.222-3.564-5.588-3.564H.484Zm4.2,1.518a1.411,1.411,0,0,1,1.562-1.518H7.81c2.2,0,3.542,1.122,3.542,3.1,0,2.4-1.826,3.388-3.74,3.388H4.686ZM8.228-8.14a3.7,3.7,0,0,1,4,3.784c0,2.332-1.716,3.652-4.07,3.652H6.248A1.4,1.4,0,0,1,4.686-2.222V-8.14Zm16.06-7.92H18v.726h.77a1.412,1.412,0,0,1,1.562,1.518v9.35c0,3.718,3.344,4.884,5.566,4.884a4.82,4.82,0,0,0,5.148-5.17V-13.4c0-1.144.462-1.936,1.738-1.936h.462v-.726H28.226v.726c.9,0,2.09,0,2.09,1.936v8.536c0,3.058-1.958,4.444-4.114,4.444a3.97,3.97,0,0,1-4.136-4.268v-9.13a1.418,1.418,0,0,1,1.584-1.518h.638Zm21.6-.418a1.519,1.519,0,0,1-1.232.418,11.312,11.312,0,0,1-1.32-.242,7.35,7.35,0,0,0-1.562-.176,4.152,4.152,0,0,0-4.422,4.268c0,2.64,2,3.784,5.1,4.84,2.794.968,4.092,1.672,4.092,3.7A3.17,3.17,0,0,1,43.3-.352a6.159,6.159,0,0,1-3.96-1.628A7.759,7.759,0,0,1,37.6-4.268l-.836.4L38.39.374a3.958,3.958,0,0,1,1.76-.616,2.411,2.411,0,0,1,.9.22,7.644,7.644,0,0,0,2.354.44A4.664,4.664,0,0,0,48.18-4.334c0-2.156-1.166-3.19-2.882-4.07a17.178,17.178,0,0,0-2.156-.924c-2.882-1.012-4.2-1.694-4.2-3.52a2.81,2.81,0,0,1,3.014-2.9c2.816,0,4.092,2.178,4.8,3.41l.66-.264ZM72.38-5.654l1.056,3.168a2.628,2.628,0,0,1,.2.814.961.961,0,0,1-.9.968h-.66V0h5.412V-.7H77c-.616,0-1.188-.22-1.628-1.5L70.554-16.478l-1.936.418L64.284-2.728C63.932-1.65,63.14-.7,62.216-.7H61.49V0h4.774V-.7h-.616a.81.81,0,0,1-.924-.88,1.941,1.941,0,0,1,.132-.726l1.078-3.344Zm-.242-.7H66.176L69.1-15.334Zm22.55-6.094-1.562-3.96a3.15,3.15,0,0,1-1.474.528c-.132,0-1.166-.286-1.342-.33a6.452,6.452,0,0,0-1.848-.264c-3.718,0-6.908,3.652-6.908,8.8,0,4.334,2.266,8.1,6.908,8.1,4.092,0,5.632-2.948,6.49-4.642l-.594-.352c-.572,1.122-2.112,3.982-5.236,3.982-3.7,0-5.764-3.476-5.764-7.744,0-3.828,1.738-7.414,5.258-7.414,2.948,0,4.532,2.4,5.346,3.63Zm17.27,0-1.562-3.96a3.15,3.15,0,0,1-1.474.528c-.132,0-1.166-.286-1.342-.33a6.452,6.452,0,0,0-1.848-.264c-3.718,0-6.908,3.652-6.908,8.8,0,4.334,2.266,8.1,6.908,8.1,4.092,0,5.632-2.948,6.49-4.642l-.594-.352c-.572,1.122-2.112,3.982-5.236,3.982-3.7,0-5.764-3.476-5.764-7.744,0-3.828,1.738-7.414,5.258-7.414,2.948,0,4.532,2.4,5.346,3.63Zm10.626,4.488c1.342,0,2.486.594,2.486,2.178v.66h.7v-6.292h-.7v.572c0,1.474-.814,2.178-2.486,2.178h-2.508v-5.148a1.411,1.411,0,0,1,1.562-1.518h2.442c2.09,0,3.5,1.276,4.708,3.212l.594-.374-1.43-3.564H115.94v.726h.814a1.412,1.412,0,0,1,1.562,1.518V-2.222A1.411,1.411,0,0,1,116.754-.7h-.814V0h12.3l1.54-4.048-.638-.286c-.946,1.606-2.112,3.63-5.808,3.63h-1.694a1.4,1.4,0,0,1-1.562-1.518V-7.964Zm19.6-8.514a1.519,1.519,0,0,1-1.232.418,11.312,11.312,0,0,1-1.32-.242,7.35,7.35,0,0,0-1.562-.176,4.152,4.152,0,0,0-4.422,4.268c0,2.64,2,3.784,5.1,4.84,2.794.968,4.092,1.672,4.092,3.7A3.17,3.17,0,0,1,139.59-.352a6.159,6.159,0,0,1-3.96-1.628,7.759,7.759,0,0,1-1.738-2.288l-.836.4L134.684.374a3.958,3.958,0,0,1,1.76-.616,2.411,2.411,0,0,1,.9.22,7.644,7.644,0,0,0,2.354.44,4.664,4.664,0,0,0,4.774-4.752c0-2.156-1.166-3.19-2.882-4.07a17.178,17.178,0,0,0-2.156-.924c-2.882-1.012-4.2-1.694-4.2-3.52a2.81,2.81,0,0,1,3.014-2.9c2.816,0,4.092,2.178,4.8,3.41l.66-.264Zm14.828,0a1.519,1.519,0,0,1-1.232.418,11.312,11.312,0,0,1-1.32-.242,7.35,7.35,0,0,0-1.562-.176,4.152,4.152,0,0,0-4.422,4.268c0,2.64,2,3.784,5.1,4.84,2.794.968,4.092,1.672,4.092,3.7a3.17,3.17,0,0,1-3.256,3.322,6.159,6.159,0,0,1-3.96-1.628,7.759,7.759,0,0,1-1.738-2.288l-.836.4L149.512.374a3.958,3.958,0,0,1,1.76-.616,2.411,2.411,0,0,1,.9.22,7.644,7.644,0,0,0,2.354.44A4.664,4.664,0,0,0,159.3-4.334c0-2.156-1.166-3.19-2.882-4.07a17.178,17.178,0,0,0-2.156-.924c-2.882-1.012-4.2-1.694-4.2-3.52a2.81,2.81,0,0,1,3.014-2.9c2.816,0,4.092,2.178,4.8,3.41l.66-.264Z" transform="translate(16 626.859)" fill="#040000"/>
  </g>
</svg>
