<?xml version="1.0" encoding="UTF-8"?>
<svg id="_レイヤー_2" data-name="レイヤー 2" xmlns="http://www.w3.org/2000/svg" viewBox="0 0 430 130.81">
  <defs>
    <style>
      .cls-1 {
        fill: none;
        stroke: #000;
        stroke-miterlimit: 10;
      }

      .cls-2, .cls-3 {
        stroke-width: 0px;
      }

      .cls-3 {
        fill: #1f296a;
      }
    </style>
  </defs>
  <g id="_レイヤー_1-2" data-name="レイヤー 1">
    <g>
      <path class="cls-2" d="m74.52,106.6c.26.13.42.32.42.58,0,.29-.35.48-1.36.68-.42.52-1.32,1.58-2.71,3.29-1.23,1.49-2.29,2.68-3.16,3.58.16,0,2.87-.13,4.58-.36-.13-.23-.52-.97-1.32-1.84l.16-.19c2.52.97,4.45,2.42,4.45,3.91,0,.61-.35,1.32-1.23,1.32-.77,0-1.1-.39-1.39-1.48-.03-.1-.16-.55-.36-1.03l-2.94.65c0,1.39.1,8,.1,8.62.03.65.13,3.55.13,4.13,0,.84-.74,1.39-1.55,1.39-.68,0-.87-.42-.87-.97,0-.52.13-2.65.13-3.1.03-1.03.06-4.2.1-9.65-2.03.45-3.65.81-4.07.9-.19.32-.52.94-.81.94-.32,0-.52-.39-.58-.58l-.71-2.74c.55.13,1.48.23,2.29.23,1,0,2.48-.03,3-.06,2.19-2.97,4.16-7.07,4.61-8.36.13-.32.19-.9.19-1.29l2.87,1.45Zm-12.75,21.24c1.39-3.13,2.32-7.23,2.26-9.42l2.65.97c.23.1.45.29.45.45,0,.23-.19.39-1.03.71-1.03,3-1.97,4.81-4.16,7.39l-.16-.1Zm1.23-21.2c.9.23,1.97.52,2.78.9.9-1.81,2.32-5.33,2.13-7.23l3.07,1.52c.26.13.39.32.39.48,0,.48-.48.58-1.23.71-1.52,1.94-1.74,2.23-3.94,4.74.94.58,1.9,1.45,1.9,2.55,0,.74-.48,1.55-1.32,1.55-.74,0-.94-.39-1.65-1.97-.74-1.68-1.48-2.39-2.16-3.07l.03-.19Zm7.62,12.3c1.32.58,4.55,2.03,4.55,4.23,0,1.03-.74,1.58-1.42,1.58-.87,0-1.03-.65-1.45-2.13-.45-1.68-1.07-2.61-1.78-3.55l.1-.13Zm15.43-10.42l.97-.9c.16-.16.35-.36.45-.36.13,0,.36.19.45.29l1.55,1.32c.16.13.29.32.29.48,0,.23-.61.68-1.19,1.1-.19,8.94-.26,12.94-1.97,16.23-1.19,2.29-3.23,3.13-5,3.16-.26-1.52-1.26-2.52-2.94-3.65l.03-.19c1.48.29,3.45.65,4.29.65,3.26,0,3.42-10.65,3.42-13.97,0-.55-.03-2.84-.03-3.39h-8.71c-1.58,3-2.68,4.1-3.16,4.62l-.19-.13c2.39-4.74,3.49-10.2,3.49-11.88,0-.32-.1-.94-.16-1.23l3.49,1.48c.16.06.35.23.35.45,0,.32-.48.55-1.26.9-.35,1.03-.94,2.65-2.13,5h7.97Zm-8.81,6.16c3.07,1.26,4.58,2.29,4.58,4.03,0,.77-.39,1.52-1.29,1.52-.84,0-1.1-.36-1.81-2.58-.26-.84-.87-1.94-1.61-2.78l.13-.19Z"/>
      <path class="cls-3" d="m98.68,127.47h3.11c2.94,0,3.95-1.13,3.95-3.44v-30.54c0-1.75-1.64-2.03-2.71-2.03h-4.29v-1.75h1.02c4.35,0,8.53-1.98,9.2-2.37.4-.23.56-.34.79-.34.51,0,.62.34.62.79v36.25c0,2.43,1.19,3.44,3.95,3.44h3.1v1.81h-18.74v-1.81Z"/>
      <path class="cls-3" d="m151.87,117.93c0,6.55-5.14,12.42-13.32,12.42-6.44,0-12.19-3.73-12.19-10.16,0-6.1,4.86-8.98,10.05-12.03-2.99-1.75-8.41-4.91-8.41-11.06,0-5.59,4.4-10.11,11.29-10.11,7.73,0,10.33,5.76,10.33,8.92,0,4.8-4.63,8.3-7.06,10.11,5.31,3.27,9.32,6.1,9.32,11.91Zm-20.78,2.09c0,4.97,3.73,8.41,8.13,8.41,4.91,0,8.58-4.35,8.58-8.52,0-5.36-5.59-8.53-9.71-10.84-2.54,1.92-7,5.36-7,10.95Zm14.4-23.49c0-4.29-2.88-7.62-7-7.62s-6.66,3.05-6.66,6.72c0,3.95,3.22,5.93,9.09,9.43,1.64-1.41,4.57-3.84,4.57-8.53Z"/>
      <path class="cls-2" d="m167.6,105.18c-2.68,5.49-7.55,9.62-10,10.97l-.16-.23c4.52-5.13,7.07-9.65,7.81-11.81.29-.81.42-1.45.52-2.07l2.78,1.87c.16.1.42.29.42.52,0,.39-.84.61-1.36.74Zm11.71,10.1c-.32,11.62-.97,13.97-6.78,14.49-.13-2.03-1.71-3.1-2.42-3.55l.03-.23c1.36.29,2.74.55,3.74.55,1.55,0,2.16-.36,2.65-3.29.39-2.39.58-7.78.48-9.29h-6.52c-.19,5.07-2.36,13.81-12.52,15.68l-.06-.26c6.55-3.03,9.88-7.91,10.2-15.43h-.94c-.81,0-2.36.03-3.81.32l-.61-1.29c2,.16,3.97.19,4.94.19h9.13l.87-.77c.19-.19.39-.36.58-.36.16,0,.32.16.45.29l1.29,1.42c.16.16.29.35.29.52,0,.29-.1.36-1,1Zm5.87-.03c-3.45-1.48-7.29-4.97-9.71-12.26h-2.58c-1.61,0-2.26.13-2.71.19l-.42-1.13c1.45.13,2.87.16,3.52.16h1.61l1.03-1.03c.29-.29.42-.35.58-.35.19,0,.32.16.55.35l1.19,1.16c.19.16.26.29.26.48,0,.65-1.48.9-2.07,1,1.55,4.16,6.91,8.29,11.84,8.65l.03.32c-1.81.55-2.55,1.58-3.13,2.45Z"/>
      <path class="cls-2" d="m203.81,130.81c-5.03-4.03-7.65-9.84-7.65-15.62s2.61-11.59,7.65-15.62l.29.45c-6,6.36-6.13,12.81-6.13,15.17s.13,8.81,6.13,15.17l-.29.45Z"/>
      <path class="cls-2" d="m222.13,106.6c.26.13.42.32.42.58,0,.29-.35.48-1.36.68-.42.52-1.32,1.58-2.71,3.29-1.23,1.49-2.29,2.68-3.16,3.58.16,0,2.87-.13,4.58-.36-.13-.23-.52-.97-1.32-1.84l.16-.19c2.52.97,4.45,2.42,4.45,3.91,0,.61-.35,1.32-1.23,1.32-.77,0-1.1-.39-1.39-1.48-.03-.1-.16-.55-.36-1.03l-2.94.65c0,1.39.1,8,.1,8.62.03.65.13,3.55.13,4.13,0,.84-.74,1.39-1.55,1.39-.68,0-.87-.42-.87-.97,0-.52.13-2.65.13-3.1.03-1.03.06-4.2.1-9.65-2.03.45-3.65.81-4.07.9-.19.32-.52.94-.81.94-.32,0-.52-.39-.58-.58l-.71-2.74c.55.13,1.48.23,2.29.23,1,0,2.48-.03,3-.06,2.19-2.97,4.16-7.07,4.61-8.36.13-.32.19-.9.19-1.29l2.87,1.45Zm-12.75,21.24c1.39-3.13,2.32-7.23,2.26-9.42l2.65.97c.23.1.45.29.45.45,0,.23-.19.39-1.03.71-1.03,3-1.97,4.81-4.16,7.39l-.16-.1Zm1.23-21.2c.9.23,1.97.52,2.78.9.9-1.81,2.32-5.33,2.13-7.23l3.07,1.52c.26.13.39.32.39.48,0,.48-.48.58-1.23.71-1.52,1.94-1.74,2.23-3.94,4.74.94.58,1.9,1.45,1.9,2.55,0,.74-.48,1.55-1.32,1.55-.74,0-.94-.39-1.65-1.97-.74-1.68-1.48-2.39-2.16-3.07l.03-.19Zm7.62,12.3c1.32.58,4.55,2.03,4.55,4.23,0,1.03-.74,1.58-1.42,1.58-.87,0-1.03-.65-1.45-2.13-.45-1.68-1.07-2.61-1.78-3.55l.1-.13Zm15.43-10.42l.97-.9c.16-.16.35-.36.45-.36.13,0,.35.19.45.29l1.55,1.32c.16.13.29.32.29.48,0,.23-.61.68-1.19,1.1-.19,8.94-.26,12.94-1.97,16.23-1.19,2.29-3.23,3.13-5,3.16-.26-1.52-1.26-2.52-2.94-3.65l.03-.19c1.48.29,3.45.65,4.29.65,3.26,0,3.42-10.65,3.42-13.97,0-.55-.03-2.84-.03-3.39h-8.71c-1.58,3-2.68,4.1-3.16,4.62l-.19-.13c2.39-4.74,3.49-10.2,3.49-11.88,0-.32-.1-.94-.16-1.23l3.49,1.48c.16.06.35.23.35.45,0,.32-.48.55-1.26.9-.36,1.03-.94,2.65-2.13,5h7.97Zm-8.81,6.16c3.07,1.26,4.58,2.29,4.58,4.03,0,.77-.39,1.52-1.29,1.52-.84,0-1.1-.36-1.81-2.58-.26-.84-.87-1.94-1.61-2.78l.13-.19Z"/>
      <path class="cls-2" d="m255.08,127.45h-12.68v-.87c.65-2.03,2.16-4.29,4.74-7.23,4.74-5.49,6.36-7.33,6.36-10.55,0-2.42-1.55-4.42-4.29-4.42-2.26,0-3.61,1.36-3.61,2.52,0,.1,0,.52.32,1,.42.65.68,1,.68,1.61,0,.97-.77,1.81-1.74,1.81-1.13,0-1.84-1.07-1.84-2.26,0-2.36,2.29-5.78,6.94-5.78,4,0,6.45,2.52,6.45,6,0,3.26-1.87,5.03-4.78,7.52-1.1.9-5.36,4.55-6.97,8.1h4.45c4.52,0,5.58-1.74,6.55-4.42l.97.36-1.55,6.62Z"/>
      <path class="cls-2" d="m272.82,127.45h-12.68v-.87c.65-2.03,2.16-4.29,4.74-7.23,4.74-5.49,6.36-7.33,6.36-10.55,0-2.42-1.55-4.42-4.29-4.42-2.26,0-3.61,1.36-3.61,2.52,0,.1,0,.52.32,1,.42.65.68,1,.68,1.61,0,.97-.77,1.81-1.74,1.81-1.13,0-1.84-1.07-1.84-2.26,0-2.36,2.29-5.78,6.94-5.78,4,0,6.45,2.52,6.45,6,0,3.26-1.87,5.03-4.78,7.52-1.1.9-5.36,4.55-6.97,8.1h4.45c4.52,0,5.58-1.74,6.55-4.42l.97.36-1.55,6.62Z"/>
      <path class="cls-2" d="m281.92,126.19c.03,1.07-.87,1.87-1.87,1.87-1.06,0-1.87-.84-1.87-1.87s.81-1.87,1.87-1.87c1,0,1.87.84,1.87,1.87Z"/>
      <path class="cls-2" d="m295.21,103.28h1.32v16.39h3.65v1.03h-3.65v3.74c0,1.42.71,1.97,2.26,1.97h.52v1.03h-8.2v-1.03h.52c1.52,0,2.26-.52,2.26-1.97v-3.74h-8.68v-1.13l10-16.3Zm-1.32,4.26l-7.46,12.13h7.46v-12.13Z"/>
      <path class="cls-2" d="m308.28,119.64l4.68-4.55c.23-.19.42-.48.42-.84,0-.52-.65-1.03-1.36-1.03h-.61v-1.03h8.04v1.03h-.68c-1.81,0-3.2.81-4.94,2.48l-1.36,1.32,3.84,6.49c1.1,1.84,2.13,2.9,3.71,2.9v1.03h-7.16v-1.03c.39,0,1.68,0,1.68-1.03,0-.23-.1-.48-.19-.65l-3.58-6.03-2.48,2.39v3.39c0,1.94,1.16,1.94,2.39,1.94v1.03h-7.1v-1.03h.77c.9,0,1.61-.61,1.61-1.94v-17.98c0-1.36-1.16-1.58-2.13-1.48l-.13-.58,4.58-1.13v16.33Z"/>
      <path class="cls-2" d="m328.16,111.57v2.55c.87-.87,2.55-2.55,5.33-2.55,3.03,0,3.61,1.97,3.87,2.9,1.1-1.06,2.87-2.9,5.78-2.9s4.13,1.71,4.13,5.29v7.62c0,1.23.65,1.94,1.61,1.94h.61v1.03h-6.74v-1.03h.58c1.13,0,1.65-.87,1.65-1.94v-7.42c0-.9-.16-4.1-2.84-4.1-.9,0-2.94.52-4.55,2.81,0,.26.03.52.03,1.1v7.62c0,1.36.74,1.94,1.61,1.94h.94v1.03h-7.39v-1.03h.94c.87,0,1.61-.61,1.61-1.94v-7.42c0-.68-.06-4.1-2.81-4.1-.77,0-2.84.42-4.36,2.55v8.97c0,1.36.77,1.94,1.61,1.94h.58v1.03h-6.71v-1.03h.58c.97,0,1.61-.68,1.61-1.94v-9.71c0-1-.55-1.52-1.32-1.52-.35,0-.68.03-.97.13l-.13-.61,4.74-1.19Z"/>
      <path class="cls-2" d="m354.45,130.81l-.29-.45c6-6.36,6.13-12.81,6.13-15.17s-.13-8.81-6.13-15.17l.29-.45c5.03,4.03,7.65,9.84,7.65,15.62s-2.61,11.59-7.65,15.62Z"/>
    </g>
    <g>
      <path class="cls-2" d="m96.02.59h14.91v1.81h-13.1v39.31h-1.81V.59Z"/>
      <path class="cls-2" d="m120.91,17.48c-.95,0-1.22-.72-2.03-2.39-.9-1.9-1.85-2.67-2.44-3.12v-.23c1.85.32,5.87,1.4,5.87,4.11,0,1.04-.63,1.63-1.4,1.63Zm3.84,3.3c-2.76,8.86-3.07,9.85-3.07,11.07,0,.86.81,3.75,1.08,4.61.32.95.5,1.63.5,2.44,0,.5,0,2.26-1.76,2.26s-1.67-1.94-1.67-2.98c0-.59.05-3.12.05-3.66-.05-1.72-.09-4.88-2.94-5.6v-.41c2.44-.09,2.67-.09,3.93-2.53,1.81-3.48,3.25-6.73,6.33-14.23h.23c-.27,1.36-2.03,6.91-2.67,9.04Zm-.72-13.42c-.81,0-.95-.27-1.85-2.08-1.22-2.53-2.12-3.39-2.58-3.84l.14-.23c2.12.32,5.83,1.94,5.83,4.43,0,.77-.45,1.72-1.54,1.72Zm31.81,2.03h-14.23c0,1.4,0,3.71-.04,5.15h6.87l1.27-1.13c.5-.45.54-.5.68-.5.23,0,.36.13.63.32l1.94,1.45c.36.27.45.45.45.59,0,.41,0,.45-1.72,1.49-.09,4.97,0,11.52.04,15,.05,1.54.18,3.98.18,5.47,0,1.76-.86,3.34-3.84,3.8-.27-.81-.68-2.17-3.39-3.75l-.04-.23c.59.09,2.8.27,3.39.27,1.31,0,1.31-.22,1.31-1.81,0-.9-.05-4.74-.05-5.56h-7.68c.05,1.04.18,5.51.23,6.42,0,.54.09,2.94.09,3.43,0,.54-.05.81-.41,1.13-.59.59-1.4.63-1.63.63-.77,0-.9-.41-.9-1.04,0-1.49.14-8.68.18-10.57h-7.5c0,1.4.14,7.5.14,8.76s-1.4,1.67-2.03,1.67c-.68,0-.68-.45-.68-.68,0-.86.14-4.7.14-5.51.05-2.26.09-12.33.09-15.36,0-2.76,0-3.75-.27-6.1l3.25,1.81h6.96c0-.81.04-4.38.04-5.15h-5.06c-1.45,0-3.98.18-5.83.54l-1.04-1.94c2.48.18,4.97.32,7.5.32h4.38c0-4.97-.41-6.6-.77-7.91l3.61.9c.63.14.95.23.95.63,0,.36-.23.72-1.4,1.36,0,.27-.05,4.38-.05,5.02h8.86l1.81-1.99c.45-.5.54-.54.77-.54.18,0,.27.04.77.5l2.26,1.99c.36.32.5.36.5.63,0,.45-.41.5-.72.5Zm-24.17,6.24v6.01h7.55c0-.86,0-5.06.05-6.01h-7.59Zm0,7.09v6.14h7.5c0-1.85,0-4.88.05-6.14h-7.55Zm17.62-7.09h-7.77c0,.81,0,4.11.05,6.01h7.73v-6.01Zm0,7.09h-7.73v6.14h7.73v-6.14Zm-.59-16.67c-.72,0-.81-.18-1.72-1.76-.99-1.72-1.81-2.21-2.48-2.62v-.23c3.03,0,5.56.99,5.56,3.07,0,.68-.32,1.54-1.36,1.54Z"/>
      <path class="cls-2" d="m202.41,20.96h-13.15l2.03,1.09c.54.27.63.54.63.81,0,.77-.68.86-1.9.99-.9,2.26-2.26,5.38-4.92,8.72.95.27,3.66,1.08,7.36,2.67,2.58,1.13,5.51,3.25,5.51,4.88,0,.27-.23,1.58-1.45,1.58-.77,0-1.27-.5-2.44-1.58-1.81-1.63-5.92-4.11-10.35-5.96-.9.95-2.17,2.17-3.52,3.03-5.2,3.25-10.98,4.25-16.63,4.34v-.27c2.44-.41,9.17-1.58,15.54-6.55.95-.77,1.4-1.22,1.76-1.58-3.79-1.17-6.51-1.58-8.09-1.76-.09.27-.63,1.54-.72,1.67-.27.27-1.04.59-1.72.59s-1.36-.41-1.36-.86,1.13-2.03,1.31-2.39c1.58-3.12,3.12-6.24,4.56-9.4h-6.73c-1.58,0-4.07.18-5.78.5l-1.08-1.94c3.39.27,6.69.36,7.5.36h6.6c1.72-3.79,2.58-6.23,2.76-7,.14-.68.18-1.31.18-1.94l3.34,1.36c.27.13.59.32.59.68,0,.59-.86.81-1.58.99-.27.54-.41.86-.59,1.26-.36.77-1.81,3.98-2.12,4.65h18.34l1.99-2.17c.45-.5.5-.54.72-.54s.5.18.81.45l2.8,2.17c.23.18.45.36.45.68,0,.41-.36.5-.68.5Zm-2.44-10.98c-.36,0-.68-.04-1.85-.32-1.54.95-3.66,2.26-4.74,2.85l-.14-.18c.9-1.72,1.72-3.71,1.9-4.2h-27.02c-.09,2.98-1.99,6.51-4.56,6.51-.68,0-1.54-.41-1.54-1.54s.63-1.54,1.58-2.12c.9-.59,3.66-3.07,3.84-6.1h.41c.09.45.27,1.76.27,2.17h12.42c-.05-3.66-.05-4.88-.95-7.05l4.38,1.13c.32.09.72.32.72.72,0,.45-.18.59-1.54,1.45,0,.72,0,2.53.05,3.75h11.11l2.26-1.63c.45-.32.5-.36.72-.36.18,0,.41.09.68.41l2.67,2.85s.36.41.36.81c0,.45-.32.86-1.04.86Zm-22.5,10.98c-1.22,2.71-1.54,3.39-4.34,9.76,1.22,0,4.29,0,9.04,1.08,2.67-3.07,4.61-6.78,5.11-10.84h-9.8Z"/>
      <path class="cls-2" d="m222.38,41.34h-14.91v-1.81h13.1V.22h1.81v41.12Z"/>
      <path class="cls-2" d="m253.97,28.34c-.03,2.15.06,5.13.13,7.31,0,.32.09,1.74.09,2.03,0,1.04-1,1.36-1.63,1.36-.94,0-.94-.22-.88-2.31h-18.49c0,.16.03,1.39,0,1.65-.13,1.11-1.38,1.2-1.63,1.2-.53,0-.91-.19-.91-.76,0-.22.06-1.14.06-1.3.06-2.44.09-4.97.09-7.41,0-2.15-.06-2.78-.44-4.18l3.29.95c.25.06.5.16.5.44,0,.35-.47.63-1.03.98-.09,2.72,0,6.55.03,7.66h8.09c0-2.66,0-9.68-.03-11.87h-6.14c.03,1.27-.94,1.46-1.57,1.46-.85,0-.85-.47-.85-.73,0-1.04.09-5.73.09-6.68,0-2.12,0-2.75-.5-4.56l3.29,1.14c.19.06.47.25.47.47,0,.44-.66.79-.97.95-.06,1.14-.06,1.74.03,7.18h6.14c0-1.2-.06-6.46-.06-7.53-.03-1.99-.22-2.88-.69-4.3l3.64,1.23c.28.1.47.29.47.41,0,.44-.56.73-1.03.98-.06,2.06-.06,2.28-.06,4.15v5.06h6.43c.09-2.37.22-7.12-.44-9.27l3.35,1.08c.28.09.5.22.5.47,0,.29-.16.44-1.07.92-.06,1.8-.03,4.05.03,5.85,0,.29.03,1.42.03,1.65,0,1.04-1.1,1.3-1.66,1.3-.91,0-.88-.44-.81-1.23h-6.36c-.03.7,0,10.29,0,11.87h8.21c.06-2.66.09-3.92.09-4.4,0-3.86-.25-4.62-.53-5.54l3.32.98c.22.06.44.22.44.41,0,.38-.44.63-1.03.92Z"/>
      <path class="cls-2" d="m283.4,17.9c.03,1.61-.03,8.89.03,10.16.03,1.04.28,6.27.28,7.72,0,.76,0,2.12-1.69,2.12-.28,0-.94-.06-.94-.79,0-.19.06-1.36.06-1.61h-17.65c.03,1.42.03,1.93-.09,2.18-.25.6-1.1.85-1.69.85-.85,0-.88-.51-.88-.85,0-.32.09-1.71.09-1.99.16-4.14.28-9.75.28-14.62,0-4.15-.12-5.06-.5-6.96l3.35,1.9h16.64l.97-1.01c.28-.28.38-.44.53-.44s.38.16.56.32l1.72,1.36c.19.16.38.35.38.54,0,.29-.69.7-1.47,1.14Zm-2.26-1.14h-17.65v17.97h17.65v-17.97Z"/>
      <path class="cls-2" d="m307.51,18.06c-.81.35-3.54,1.01-7.08,1.58-.09,1.23-.13,3.29-.09,4.59.63-.16,3.35-1.08,3.92-1.27.22-.06.38-.1.56-.1.56,0,1.79.35,1.79,1.14,0,.47-.34.63-.66.76-.38.16-2.85.76-5.58,1.27.12,3.23.28,4.91.69,6.9,2.95.54,6.58,2.25,6.58,3.96,0,.41-.22,1.17-.97,1.17-.38,0-.47-.06-1.54-.82-1.72-1.23-3.32-1.87-3.95-2.12-.22,2.97-2.41,4.05-5.36,4.05-3.23,0-5.45-1.71-5.45-3.36,0-2.56,3.7-3.35,6.8-3.35.78,0,1.28.03,1.82.09-.34-2.72-.41-5.76-.41-6.23-1.44.16-2.98.29-4.45.29-1.75,0-3.23-.32-3.23-1.52,0-.66.78-1.61,2.04-1.77-.31.41-.53.73-.53,1.11,0,.54.63.57,1.6.57,2.16,0,3.82-.29,4.54-.38,0-1.58,0-2.15.09-4.71-2.57.38-4.83.44-5.61.44-2.6,0-3.85-.76-4.64-2.5,1.13.47,2.16.92,4.36.92.78,0,2.88-.16,5.96-.63,0-.44.06-2.47.06-2.69,0-1.42-.31-1.77-2.41-2.56.34-.32.75-.73,1.85-.73,1.47,0,3.26,1.01,3.26,2.06,0,.38-.03.51-.44,1.68-.25.73-.31,1.39-.38,1.84,1.44-.35,3.26-.98,4.89-1.55.19-.06.41-.13.63-.13.63,0,1.91.57,1.91,1.27,0,.32-.16.6-.56.76Zm-11.66,16.01c-2.32,0-4.39.63-4.39,1.84,0,.63.97,1.52,3.45,1.52,1,0,2.26-.22,3.07-.76,1-.63,1-1.65,1-2.21-.44-.16-1.13-.38-3.13-.38Z"/>
      <path class="cls-2" d="m334.66,17.43c-4.01,0-5.2,0-7.3,1.27-2.92,1.74-5.3,5.82-5.3,9.43,0,5.29,5.52,6.52,8.34,7.15.47.09,1.79.38,1.79,1.74,0,.82-.78.89-1.19.89-3.23,0-10.47-2.41-10.47-9.37,0-1.36.25-4.08,2.57-7.09.88-1.14,1.63-1.8,4.33-3.96-3.32.44-10.03,2.79-11.09,3.39-1.35.79-1.5.86-2.01.86-.78,0-2.29-.95-2.29-2.79,0-.82.22-1.23.44-1.61.6.95,1.07,1.68,2.44,1.68.63,0,1.44-.16,4.61-.92,3.73-.92,9.75-2.28,13.48-3.2.31-.06.75-.16,1-.16.47,0,2.51.6,2.51,1.68,0,1.01-.97,1.01-1.85,1.01Zm-.88,8.04c-.53,0-.63-.13-1.38-1.46-.63-1.11-1.44-1.96-2.95-3.48,2.1.44,5.17,1.84,5.17,3.83,0,.54-.19,1.11-.85,1.11Zm3.67-1.46c-.47,0-.56-.16-1.47-1.55-.75-1.11-2.16-2.28-3.2-3.04,2.01.19,5.52,1.49,5.52,3.58,0,.89-.66,1.01-.85,1.01Z"/>
    </g>
    <line class="cls-1" y1="65.04" x2="430" y2="65.04"/>
  </g>
</svg>