<?xml version="1.0" encoding="UTF-8"?>
<svg id="_レイヤー_2" data-name="レイヤー 2" xmlns="http://www.w3.org/2000/svg" viewBox="0 0 640 269.3">
  <defs>
    <style>
      .cls-1, .cls-2, .cls-3, .cls-4 {
        fill: none;
      }

      .cls-1, .cls-3 {
        stroke: #fff;
        stroke-linecap: round;
        stroke-linejoin: round;
      }

      .cls-2 {
        stroke: #000;
        stroke-width: .83px;
      }

      .cls-2, .cls-4 {
        stroke-miterlimit: 10;
      }

      .cls-3 {
        stroke-dasharray: 0 0 1.01 4.02;
      }

      .cls-5, .cls-6, .cls-7 {
        stroke-width: 0px;
      }

      .cls-4 {
        stroke: #e1e1e1;
        stroke-width: .99px;
      }

      .cls-6 {
        fill: #ac1063;
      }

      .cls-7 {
        fill: #fff;
      }
    </style>
  </defs>
  <g id="_レイヤー_1-2" data-name="レイヤー 1">
    <rect class="cls-6" y="0" width="640" height="269.3"/>
    <g>
      <g>
        <path class="cls-7" d="m44.94,114.02v31.04h-1.5v-32.58h11.88v1.54h-10.38Z"/>
        <path class="cls-7" d="m84.9,117.64c-5.76,6.05-9.16,9.09-13.71,11.24-2,.97-6.55,2.97-10.45,3.33l-.14-.29c3.01-.89,10.35-4.37,14.53-7.91,4.73-4.01,7.02-7.16,7.41-7.77h-8.13c-1.22,1.32-1.97,2.08-2.94,3.01,2.43.64,4.4,1.18,4.4,3.29,0,1.11-.89,1.54-1.43,1.54-1,0-1.36-.82-2.04-2.43-.47-1.15-.9-1.61-1.29-2.04-1.58,1.43-4.62,4.01-9.34,5.91l-.18-.25c5.33-3.51,11.78-10.2,12.64-13.85l3.15,1.36c.25.11.43.29.43.5,0,.36-.29.54-1.5.72-.39.5-.61.75-1.15,1.4h7.52l1.4-1.04c.21-.14.36-.29.5-.29s.29.11.47.25l2.08,1.54c.18.14.43.43.43.61,0,.39-.39.64-2.65,1.18Zm4.94,13.21c-3.54,4.26-7.8,7.84-10.56,9.56-4.19,2.61-10.74,4.83-16.57,5.01l-.07-.32c5.3-1.18,11.45-2.9,17.18-7.66,3.08-2.58,5.98-5.62,7.48-8.2h-7.98c-1.5,1.36-2.93,2.51-4.47,3.54.29.07,4.8,1.29,4.8,3.72,0,.93-.75,1.68-1.61,1.68s-.93-.25-1.79-2.33c-.36-.86-.64-1.22-1.9-2.76-2.36,1.61-6.59,3.83-11.31,4.76l-.25-.25c5.91-2.29,11.06-6.05,15.46-10.56,2.33-2.43,2.61-3.15,2.97-4.12l2.9,1.54c.21.11.43.25.43.5,0,.47-.64.54-1.61.61-.57.68-1.25,1.47-2.68,2.79h7.23l1.11-.82c.14-.11.36-.32.54-.32s.29.14.47.29l2.15,1.75c.18.14.36.32.36.57,0,.32-.25.54-2.26,1Z"/>
        <path class="cls-7" d="m124.46,116.6l1.15-1.68c.18-.29.32-.47.54-.47s.39.14.75.43l2.08,1.65c.18.14.36.32.36.54,0,.25-.21.39-.54.39h-24.52c.04.72.11,4.65.11,4.94,0,10.49-1.18,16.04-5.91,20.26l-.21-.14c1.36-1.97,2.22-4.26,2.68-6.62.72-3.65.93-7.37.93-11.1,0-1.32-.07-7.41-.61-10.06l3.44,1.86h9.63c-.07-2.36-.11-3.08-.64-4.65l3.58.93c.29.07.47.18.47.47s-.25.61-1.04,1c.04.39.04,1.9,0,2.25h7.77Zm-18.72,15.82c4.22,0,14.25-2.04,16.65-3.36l1.83,1.43c.18.14.29.32.29.54s-.11.54-.61.54c-.18,0-.54-.07-.82-.11-2,.39-3.72.72-5.98,1.04v2.76h3.83l1.04-1.43c.21-.29.36-.47.57-.47s.43.14.72.39l1.57,1.43c.18.18.32.36.32.61,0,.21-.21.32-.5.32h-7.55v2.51h8.34l1.15-1.61c.21-.32.39-.5.57-.5.25,0,.5.18.79.43l1.86,1.61c.21.18.36.39.36.57,0,.21-.18.36-.5.36h-12.56c0,.43.04,2.33,0,2.68-.14,1.83-2.51,2.69-3.65,2.86-.21-1.22-.89-2.43-2.97-3.19l.04-.25c.43.04,2.33.14,2.72.14,1.61,0,1.61-.21,1.65-2.26h-7.2c-.9,0-2.61.04-4.22.32l-.86-1.4c2.43.18,5.01.21,5.51.21h6.77v-2.51h-4.12c-.9,0-2.61.04-4.22.32l-.86-1.43c2.47.21,5.01.25,5.51.25h3.69v-2.47c-1.65.18-3.26.29-4.9.29-1.4,0-2.86-.11-4.22-.36v-.29Zm-.36-11.35c1.11.11,2.29.21,5.26.25-.07-1.54-.14-2.25-.5-3.4l2.83.72c.25.07.43.21.43.43,0,.29-.18.43-.79.72,0,.61-.04.82-.04,1.54h1.29l.5-.82c.21-.36.32-.5.54-.5.18,0,.39.18.64.43l.82.82c.18.18.36.43.36.61,0,.14-.18.32-.57.32h-3.58v.72c1.36.18,3.26,1.07,3.26,2.51,0,.5-.25,1.25-1.07,1.25-.75,0-.89-.43-1.25-1.61-.11-.32-.39-1.25-.93-1.79.04.89.18,5.58.18,5.69,0,.43,0,1.43-1.36,1.43-.9,0-.97-.5-.97-1.18,0-.11.21-4.8.25-5.69-.36.54-2.43,3.72-5.83,5.62l-.18-.25c1.68-1.68,3.9-5.19,4.55-6.66-1.86.07-2.68.21-3.15.29l-.68-1.43Zm11.85-.07c.79.07,1.43.14,3.22.21-.11-2.18-.25-2.69-.43-3.33l2.68.68c.32.07.61.21.61.43,0,.29-.32.61-.86.89-.04.32,0,.72,0,1.36h3.4l.75-1.18c.18-.29.36-.47.57-.47s.39.14.68.39l1.32,1.18c.21.18.32.36.32.54,0,.25-.18.39-.5.39h-5.84c2.65,2.72,6.12,4.05,8.23,4.19v.21c-1.15.36-2.18,1.18-2.76,2.18-3.29-1.93-5.33-5.01-6.05-6.59h-.14c0,.89.11,4.69.11,5.55,0,.47,0,1.32-1.4,1.32-.64,0-.82-.36-.82-1,0-.32.11-1.75.11-2.04.04-.93.04-1.54.04-2-.36.47-2.47,3.29-5.94,4.83l-.07-.25c2.11-1.75,4.37-5.19,5.01-6.3-.64.07-1.07.11-1.54.21l-.72-1.43Z"/>
        <path class="cls-7" d="m143.72,116.53c.07,2.79.11,5.15.11,6.52,0,7.52-.11,17.18-7.48,20.91l-.14-.18c3.58-3.76,5.08-8.09,5.08-19.15,0-3.15-.07-7.84-.54-10.81l3.69.97c.47.11.72.36.72.64s-.25.64-1.43,1.11Zm9.56.54c-.04,1.04-.07,3.04-.07,6.16,0,4.51.29,11.71.29,16.22,0,1.75-1.61,1.75-1.9,1.75-1,0-1.04-.68-1.04-1.15,0-.36.18-3.65.18-4.19.07-2.51.14-4.62.14-11.35,0-2.9,0-7.45-.54-9.95l3.47.89c.32.07.61.29.61.5,0,.32-.21.61-1.15,1.11Zm10.95-.82c-.11,4.87-.11,8.05-.11,10.13,0,2.47.25,13.5.25,15.75,0,.57,0,2.04-1.93,2.04-1.11,0-1.11-.82-1.11-1.15,0-.72.14-3.79.18-4.44.11-4.19.14-8.38.14-12.53,0-6.12-.04-8.34-.21-10.09-.11-1.29-.25-1.79-.43-2.47l3.83,1.18c.39.11.61.32.61.54,0,.43-.36.68-1.22,1.04Z"/>
        <path class="cls-7" d="m173.68,144.77v-1.54h10.38v-31.04h1.5v32.58h-11.88Z"/>
        <path class="cls-7" d="m194.09,142.05c-.75,0-1.18-.54-1.18-1.32,0-.68,1.22-3.51,1.36-4.12s.11-1.11.07-1.54l.32-.04c.61,1,1.32,2.36,1.32,4.26,0,.97-.29,2.76-1.9,2.76Zm13.21-10.42c-.5,5.58-1.61,8.59-2.18,9.88-.82,1.79-2.11,2.51-3.87,2.97-.47-2.22-2.18-3.19-2.94-3.54l.07-.25c2,.39,3.36.39,3.47.39.72,0,1-.07,1.4-.93,1.04-2.33,1.57-6.98,1.57-9.34h-7.98c.04.57-.04,1.75-1.54,1.75-.72,0-.89-.36-.89-.97,0-.21.07-1.07.07-1.25.14-2.25.18-8.48.18-10.95,0-1.25,0-3.83-.36-5.94l2.68,1.32h6.66l.86-1.04c.25-.29.43-.47.61-.47.21,0,.39.18.72.39l1.4,1.04c.25.18.39.43.39.57,0,.25-.32.36-.57.36h-4.94v4.15h1.54l.68-.86c.29-.36.39-.5.57-.5s.39.18.72.39l1.15.86c.18.14.39.32.39.57,0,.32-.32.39-.57.39h-4.47v4.12h1.57l.86-1c.25-.29.39-.43.57-.43.21,0,.36.11.64.36l1.07,1c.21.18.32.43.32.57,0,.21-.21.36-.54.36h-4.51v4.33h2.4l.93-1.04c.21-.25.39-.43.57-.43s.39.14.72.47l1.4,1.29c.14.14.25.29.25.47,0,.43-.82.82-1.07.93Zm-9.06,8.88c-1.18,0-1.18-1.5-1.18-2.26,0-2.22,0-2.97-.39-3.94l.21-.11c.25.29,1.54,1.58,1.72,1.9.86,1.32,1,2.25,1,2.76,0,1.04-.79,1.65-1.36,1.65Zm1.72-24.88h-3.15v4.15h3.15v-4.15Zm0,5.01h-3.15v4.12h3.15v-4.12Zm0,4.98h-3.15v4.33h3.15v-4.33Zm1.25,12.57c-.93,0-1.04-.61-1.32-2.65-.11-.79-.29-1.72-.68-2.61l.14-.11c1.9,1.65,2.97,2.61,2.97,4.01,0,.61-.36,1.36-1.11,1.36Zm2-2.65c-.72,0-.86-.57-1.25-2-.29-.93-.57-1.32-.82-1.65l.21-.21c1.68.79,2.76,1.54,2.76,2.72,0,.57-.32,1.15-.9,1.15Zm23.7,6.59c-1.72.11-2.97,1.61-3.4,2.11-4.01-3.26-6.98-9.41-6.98-17.86h-3.83c-.36,8.81-2.11,14.21-7.34,17.97l-.18-.14c5.01-5.44,5.19-15.43,5.19-22.87,0-4.44-.25-5.62-.61-7.59l3.4,1.5h7.37l1.04-1c.21-.21.39-.32.57-.32s.32.07.61.32l1.43,1.22c.21.18.32.36.32.57,0,.25-.68.75-1.11,1.04-.04.61-.07,1.29-.07,2.26,0,1.15.21,6.16.21,7.27s-1.11,1.43-1.68,1.43c-1.15,0-1.07-.79-1.04-1.65h-3.65c.82,7.8,5.98,14,9.77,15.54l-.04.21Zm-6.05-26.02h-7.95c-.04,1.36-.18,7.95-.18,9.41h8.13v-9.41Z"/>
        <path class="cls-7" d="m247.35,137.27c-.82,0-4.62-2.64-6.06-3.96-.58-.52-3.58-3.24-4.16-3.78-.1-.08-.38-.28-.76-.28-.82,0-2.5,1.98-3.34,2.98-1.14,1.34-1.28,1.5-1.66,1.5-.72,0-1.84-.78-1.84-1.72,0-.08.02-.18.04-.32.2.12.58.36,1.08.36.62,0,1.48-.72,2.14-1.32.34-.3,1.78-1.62,2.08-1.86.58-.46,1.02-.72,1.56-.72.7,0,1.18.38,1.74.92,3.8,3.52,4.82,4.06,8.42,5.96.36.18,1.38.72,1.38,1.64,0,.58-.44.6-.62.6Z"/>
      </g>
      <g>
        <path class="cls-7" d="m492.22,145.76h-19.54v-1.34c.99-3.13,3.33-6.61,7.31-11.14,7.31-8.45,9.8-11.29,9.8-16.26,0-3.73-2.39-6.81-6.61-6.81-3.48,0-5.57,2.09-5.57,3.88,0,.15,0,.8.5,1.54.65.99,1.04,1.54,1.04,2.49,0,1.49-1.19,2.78-2.69,2.78-1.74,0-2.83-1.64-2.83-3.48,0-3.63,3.53-8.9,10.69-8.9,6.17,0,9.95,3.88,9.95,9.25,0,5.02-2.88,7.76-7.36,11.59-1.69,1.39-8.25,7.01-10.74,12.48h6.86c6.96,0,8.6-2.68,10.1-6.81l1.49.55-2.39,10.19Z"/>
        <path class="cls-7" d="m504.35,145.26c-.75,0-1.18-.54-1.18-1.32,0-.68,1.22-3.51,1.36-4.12.14-.61.11-1.11.07-1.54l.32-.04c.61,1,1.32,2.36,1.32,4.26,0,.97-.29,2.76-1.9,2.76Zm13.21-10.42c-.5,5.58-1.61,8.59-2.18,9.88-.82,1.79-2.11,2.51-3.87,2.97-.47-2.22-2.18-3.19-2.94-3.54l.07-.25c2,.39,3.36.39,3.47.39.72,0,1-.07,1.4-.93,1.04-2.33,1.57-6.98,1.57-9.34h-7.98c.04.57-.04,1.75-1.54,1.75-.72,0-.9-.36-.9-.97,0-.21.07-1.07.07-1.25.14-2.25.18-8.48.18-10.95,0-1.25,0-3.83-.36-5.94l2.68,1.32h6.66l.86-1.04c.25-.29.43-.47.61-.47.21,0,.39.18.72.39l1.4,1.04c.25.18.39.43.39.57,0,.25-.32.36-.57.36h-4.94v4.15h1.54l.68-.86c.29-.36.39-.5.57-.5s.39.18.72.39l1.15.86c.18.14.39.32.39.57,0,.32-.32.39-.57.39h-4.47v4.12h1.57l.86-1c.25-.29.39-.43.57-.43.21,0,.36.11.64.36l1.07,1c.21.18.32.43.32.57,0,.21-.21.36-.54.36h-4.51v4.33h2.4l.93-1.04c.21-.25.39-.43.57-.43s.39.14.72.47l1.4,1.29c.14.14.25.29.25.47,0,.43-.82.82-1.07.93Zm-9.06,8.88c-1.18,0-1.18-1.5-1.18-2.26,0-2.22,0-2.97-.39-3.94l.21-.11c.25.29,1.54,1.58,1.72,1.9.86,1.32,1,2.25,1,2.76,0,1.04-.79,1.65-1.36,1.65Zm1.72-24.88h-3.15v4.15h3.15v-4.15Zm0,5.01h-3.15v4.12h3.15v-4.12Zm0,4.98h-3.15v4.33h3.15v-4.33Zm1.25,12.57c-.93,0-1.04-.61-1.32-2.65-.11-.79-.29-1.72-.68-2.61l.14-.11c1.9,1.65,2.97,2.61,2.97,4.01,0,.61-.36,1.36-1.11,1.36Zm2-2.65c-.72,0-.86-.57-1.25-2-.29-.93-.57-1.32-.82-1.65l.21-.21c1.68.79,2.76,1.54,2.76,2.72,0,.57-.32,1.15-.9,1.15Zm23.7,6.59c-1.72.11-2.97,1.61-3.4,2.11-4.01-3.26-6.98-9.41-6.98-17.86h-3.83c-.36,8.81-2.11,14.21-7.34,17.97l-.18-.14c5.01-5.44,5.19-15.43,5.19-22.87,0-4.44-.25-5.62-.61-7.59l3.4,1.5h7.37l1.04-1c.21-.21.39-.32.57-.32s.32.07.61.32l1.43,1.22c.21.18.32.36.32.57,0,.25-.68.75-1.11,1.04-.04.61-.07,1.29-.07,2.26,0,1.15.21,6.16.21,7.27s-1.11,1.43-1.68,1.43c-1.15,0-1.07-.79-1.04-1.65h-3.65c.82,7.8,5.98,14,9.77,15.54l-.04.21Zm-6.05-26.02h-7.95c-.04,1.36-.18,7.95-.18,9.41h8.13v-9.41Z"/>
        <path class="cls-7" d="m557.25,108.51h2.04v25.26h5.62v1.59h-5.62v5.77c0,2.19,1.09,3.03,3.48,3.03h.8v1.59h-12.63v-1.59h.8c2.34,0,3.48-.8,3.48-3.03v-5.77h-13.38v-1.74l15.42-25.11Zm-2.04,6.56l-11.49,18.7h11.49v-18.7Z"/>
        <path class="cls-7" d="m583.79,120.74c-2.97,6.09-8.38,10.67-11.1,12.17l-.18-.25c5.01-5.69,7.84-10.7,8.66-13.1.32-.89.47-1.61.57-2.29l3.08,2.08c.18.11.47.32.47.57,0,.43-.93.68-1.5.82Zm12.99,11.2c-.36,12.89-1.07,15.5-7.52,16.07-.14-2.26-1.9-3.44-2.69-3.94l.04-.25c1.5.32,3.04.61,4.15.61,1.72,0,2.4-.39,2.94-3.65.43-2.65.64-8.63.54-10.31h-7.23c-.21,5.62-2.61,15.32-13.89,17.4l-.07-.29c7.27-3.37,10.95-8.77,11.31-17.11h-1.04c-.89,0-2.61.04-4.22.36l-.68-1.43c2.22.18,4.4.21,5.48.21h10.13l.97-.86c.21-.21.43-.39.64-.39.18,0,.36.18.5.32l1.43,1.57c.18.18.32.39.32.57,0,.32-.11.39-1.11,1.11Zm6.52-.04c-3.83-1.65-8.09-5.51-10.77-13.6h-2.86c-1.79,0-2.51.14-3.01.21l-.47-1.25c1.61.14,3.19.18,3.9.18h1.79l1.15-1.15c.32-.32.47-.39.64-.39.21,0,.36.18.61.39l1.32,1.29c.21.18.29.32.29.54,0,.72-1.65,1-2.29,1.11,1.72,4.62,7.66,9.2,13.14,9.59l.04.36c-2,.61-2.83,1.75-3.47,2.72Z"/>
      </g>
      <g>
        <path class="cls-7" d="m468.95,68.55c3.44-3.4,7.37-9.52,8.38-11.88.29-.72.43-1.15.68-2.11l2.9,2.25c.14.11.21.29.21.47,0,.5-.57.5-1.4.64-.57.82-1.29,1.83-2.58,3.51.43.36.61.47.61.72,0,.21-.14.43-.93,1-.11,1.54-.11,2.94-.11,4.05,0,1.54.11,8.45.11,9.84,0,1.86,0,2.86-1.58,2.86-.64,0-1.25-.21-1.25-1,0-.47.21-2.51.21-2.9.11-2.18.07-3.11.14-11.28-2.58,2.61-4.55,3.69-5.26,4.08l-.14-.25Zm.14-10.49c5.01-4.69,7.91-9.38,8.3-10.88l2.69,1.93c.07.07.29.25.29.43,0,.39-.14.43-1.5.72-3.11,4.15-6.55,6.44-9.59,8.09l-.18-.29Zm28.53,1.9l1.29-1.79c.29-.43.43-.47.54-.47.21,0,.36.14.68.39l2.11,1.79c.21.18.36.32.36.54,0,.36-.29.39-.54.39h-12.74l3.33,1.07c.21.07.47.18.47.43,0,.47-.86.97-1.11,1.07v3.54h3.69l1.29-1.54c.29-.32.36-.43.57-.43.18,0,.29.07.68.39l1.79,1.5c.18.14.36.29.36.54,0,.32-.29.39-.54.39h-7.84c0,.5-.04,7.7-.04,7.88.82.11,2.76.39,5.33.39,3.29,0,4.94-.47,5.76-.64l.04.14c-.57.47-1.75,1.43-2.08,3.47-.57.04-1.18.11-2.04.11-11.53,0-13.42-6.48-14.25-9.41-.89,2.47-2.58,6.77-7.2,9.24l-.11-.14c5.3-5.98,5.83-12.92,5.83-14.43,0-.82-.07-1.25-.14-1.61l3.65,1.18c.21.07.39.18.39.5,0,.18-.07.29-.18.39-.14.11-.89.47-1.04.54-.36,1.68-.64,2.54-.97,3.51,1.58,3.51,3.51,5.3,4.62,5.94,0-9.42,0-10.02-.07-11.49-.04-.43-.25-2.18-.29-2.54h-3.76c-.9,0-2.61.04-4.22.32l-.72-1.43c2.47.21,5.01.25,5.51.25h3.47c0-2.11,0-4.37-.04-6.3h-2.76c-.64,0-2.47,0-4.19.32l-.72-1.4c2.22.18,4.44.21,5.51.21h2.15c-.07-3.44-.11-3.72-.64-5.55l3.72,1.11c.29.07.5.18.5.43s-.89,1.04-1.07,1.18v2.83h3.51l1.4-1.72c.21-.25.32-.43.57-.43s.36.11.64.36l1.9,1.72c.18.18.36.32.36.57,0,.32-.32.36-.54.36h-7.88v6.3h5.66Z"/>
        <path class="cls-7" d="m539.54,60.5h-15.97l1.25.29c.75.18.9.18.9.5,0,.29-.11.43-.9.86,0,1,.14,5.51.14,6.41,0,2.15,0,3.22-3.76,4.3-.39-1.5-1.47-2.51-3.04-3.29v-.21c.47,0,2.54.14,2.97.14,1.29,0,1.29-.04,1.32-1.32.04-1.68,0-5.76-.04-7.66h-9.74c-.9,0-2.61.04-4.22.32l-.72-1.43c2.43.21,4.98.25,5.51.25h1.68c0-6.34,0-7.02-.54-9.02l3.51.97c.54.14.68.29.68.61,0,.29-.11.39-1.11,1.07v6.37h4.9c0-8.05,0-8.95-.07-10.17-.04-.79-.14-1.61-.39-3.51l3.29.9c.39.11.68.21.68.61,0,.25,0,.39-1.07,1v4.62h5.15l1.4-2.04c.14-.18.36-.47.57-.47.18,0,.43.21.64.39l2.29,2.04c.21.21.36.32.36.54,0,.36-.29.39-.54.39h-9.88v5.69h9.84l1.68-2.15c.21-.29.43-.47.57-.47.18,0,.43.18.64.39l2.15,2.15c.25.25.36.39.36.54,0,.36-.29.39-.54.39Zm-20.33,4.33c-.14.07-.57.18-.9.29-2.4,4.01-5.73,7.05-9.7,9.38l-.14-.18c3.83-4.04,6.44-8.81,6.94-9.99.29-.64.47-1.29.68-2.15l2.79,1.47c.32.18.61.32.61.75,0,.18-.11.36-.29.43Zm10.95,6.37c-5.73,5.01-11.38,8.27-20.12,8.56l-.04-.25c5.33-1.32,10.77-3.4,15.89-8.13,1.18-1.07,2.43-2.25,3.19-3.54l2.18,2.15c.29.29.43.47.43.68,0,.43-.14.43-1.54.54Zm6.23.93c-1.04,0-1.54-.79-2.22-1.9-2.26-3.69-4.08-5.37-6.48-7.09l.14-.21c6.41,1.54,9.99,5.48,9.99,7.66,0,.75-.57,1.54-1.43,1.54Z"/>
        <path class="cls-7" d="m567.15,41.19v2.64c-7.91,12.18-10.69,19.1-11.34,30.18-.1,1.29-.25,4.43-2.79,4.43-1.24,0-2.54-1.04-2.54-2.73,0-3.53,3.48-13.97,13.97-30.58h-8.5c-7.21,0-8.3,3.33-9.4,6.51l-1.49-.35,2.04-10.09h20.04Z"/>
        <path class="cls-7" d="m583.79,52.48c-2.97,6.09-8.38,10.67-11.1,12.17l-.18-.25c5.01-5.69,7.84-10.7,8.66-13.1.32-.9.47-1.61.57-2.29l3.08,2.08c.18.11.47.32.47.57,0,.43-.93.68-1.5.82Zm12.99,11.2c-.36,12.89-1.07,15.5-7.52,16.07-.14-2.26-1.9-3.44-2.69-3.94l.04-.25c1.5.32,3.04.61,4.15.61,1.72,0,2.4-.39,2.94-3.65.43-2.65.64-8.63.54-10.31h-7.23c-.21,5.62-2.61,15.32-13.89,17.4l-.07-.29c7.27-3.37,10.95-8.77,11.31-17.11h-1.04c-.89,0-2.61.04-4.22.36l-.68-1.43c2.22.18,4.4.21,5.48.21h10.13l.97-.86c.21-.21.43-.39.64-.39.18,0,.36.18.5.32l1.43,1.57c.18.18.32.39.32.57,0,.32-.11.39-1.11,1.11Zm6.52-.04c-3.83-1.65-8.09-5.51-10.77-13.6h-2.86c-1.79,0-2.51.14-3.01.21l-.47-1.25c1.61.14,3.19.18,3.9.18h1.79l1.15-1.15c.32-.32.47-.39.64-.39.21,0,.36.18.61.39l1.32,1.29c.21.18.29.32.29.54,0,.72-1.65,1-2.29,1.11,1.72,4.62,7.66,9.2,13.14,9.59l.04.36c-2,.61-2.83,1.75-3.47,2.72Z"/>
      </g>
      <g>
        <path class="cls-7" d="m46.94,48.15v31.04h-1.5v-32.58h11.88v1.54h-10.38Z"/>
        <path class="cls-7" d="m78.45,66.52c0,4.12-.75,6.77-3.72,6.94-.32-1.36-1-1.86-1.97-2.61l.11-.21c.57.11,1.5.18,2.11.18.57,0,.93,0,1.11-1.5.21-1.65.21-1.83.18-3.47h-3.97c.04,1.54.18,8.91.18,10.6,0,.18-.04,1.11-.04,1.32,0,1.25-1.11,1.47-1.5,1.47-.61,0-.93-.36-.93-1,0-.14.04-.39.04-.57.04-.43.04-3.97.04-4.94,0-.89.04-2.54.07-3.51-.9,1.36-4.58,5.84-8.16,7.52l-.14-.21c2.97-3.04,6.19-6.84,7.95-10.67h-3.4c-.07.54-.39,2.33-.54,2.58-.21.36-.79.68-1.32.68-.57,0-.97-.36-.97-.79,0-.11.93-4.12,1.04-4.58.75-3.69.79-4.65.82-5.91l2.4,1.79h2.4v-4.62h-1.93c-.25,0-2.54,0-4.19.32l-.72-1.4c1.75.14,3.72.21,5.48.21h3.54c.39-.64,2.33-4.69,2.29-7.23l2.86,1.32c.36.18.54.32.54.57,0,.47-.64.72-1.25.79-1.22,1.54-3.19,4.01-3.72,4.55h2.33l.75-.75c.21-.21.36-.32.5-.32s.32.11.57.29l1.11.79c.25.18.39.39.39.57,0,.29-.14.54-.97.97.04.39.04.61.07,2.4,0,.39.11,2.33.11,2.61,0,1.18-1.22,1.32-1.61,1.32-.79,0-.79-.29-.75-1.54h-3.33v4.51h3.58l.89-1.04c.21-.25.39-.32.54-.32.21,0,.39.07.64.32l.97.86c.25.21.43.47.43.64,0,.25-.21.5-.9,1.07Zm-9.92-13.35c-.82,0-1.18-.72-1.43-1.65-.47-1.9-.64-2.51-1.86-4.12l.14-.21c1.5.57,4.47,2.29,4.47,4.47,0,1.11-.79,1.5-1.32,1.5Zm-1.11,7.3c-.32,1.22-.47,2.15-.9,4.51h3.65l.04-4.51h-2.79Zm8.2-5.48h-3.29c-.04.68-.04,3.9-.04,4.62h3.33v-4.62Zm3.19,21.84c-.75,0-1.18-.5-1.18-1.25,0-.39.07-.54.72-1.79.29-.54.68-1.75.68-2.83l.18-.04c.32.47,1.25,2,1.25,3.69,0,1-.57,2.22-1.65,2.22Zm15.89-12.31h-12.39v3.33h8.59l.82-.97c.21-.29.39-.43.57-.43.14,0,.36.11.64.32l1.25.9c.29.18.47.39.47.64,0,.39-.43.68-1.07,1-.9,7.73-2.72,9.95-6.87,9.95-.32-1.83-1.25-2.79-1.75-3.29l.04-.21c1.61.54,2.83.61,3.36.61.47,0,.97-.11,1.5-1.15.93-1.75,1.22-4.9,1.36-6.52h-8.91c0,.93-.72,1.36-1.54,1.36-.07,0-.9,0-.9-.68,0-.25.11-1.22.11-1.4.07-5.19.11-10.38.11-15.61,0-1.18,0-1.4-.18-3.54l2.79,1.75h.82c.97-2.47.9-3.4.82-4.47l2.65,1.22c.39.18.57.39.57.57,0,.36-.21.61-1.04.57-.47.47-1.4,1.4-2.22,2.11h5.05l.86-.93c.21-.21.36-.36.54-.36.14,0,.32.11.57.29l1.29.93c.21.18.32.32.32.54,0,.47-.64.89-1.15,1.15.04.61,0,.97.11,4.22,0,.57.21,3.44.21,3.62,0,1.22-1.22,1.36-1.58,1.36-.93,0-.97-.64-.97-1.29h-7.27v3.54h8.34l1.15-1.43c.25-.32.39-.47.57-.47.14,0,.36.14.68.39l1.86,1.43c.21.18.36.39.36.57,0,.25-.21.36-.57.36Zm-11.88,11.49c-.82,0-1.11-.61-1.11-1.36,0-.32.18-1.79.18-2.11,0-.75-.07-1.04-.21-1.47l.18-.04c2.11,1.32,2.26,3.22,2.26,3.51,0,.25-.11,1.47-1.29,1.47Zm6.77-24.56h-7.27v3.51h7.27v-3.51Zm0,4.37h-7.27v3.44h7.27v-3.44Zm-3.9,18.72c-.72,0-.93-.5-.93-1.07,0-1.61,0-2.36-.39-3.37l.18-.11c1.22.86,2.33,1.97,2.33,3.26,0,.79-.54,1.29-1.18,1.29Zm3.04-1.32c-.82,0-.93-.61-1.04-1.11-.36-1.65-.39-1.83-.9-2.54l.11-.18c1.75.47,2.79,1.68,2.79,2.72,0,.39-.21,1.11-.97,1.11Z"/>
        <path class="cls-7" d="m115.82,75.57l-.04-.29c7.66-2.72,11.24-7.77,11.24-13.21,0-6.05-4.87-9.63-11.1-9.63-.9,0-1.07.04-1.47.21,1.93,1.04,2.47,2.36,2.47,2.86,0,.39-.11.64-1.22,2.97-2.29,4.9-5.66,12.1-8.09,14.1-.25.18-.68.39-1.15.39-.82,0-1.15-.47-2.22-1.97-.25-.36-1.68-1.68-1.93-2-.39-.57-1-1.86-1-3.65,0-7.7,6.51-14.03,15.25-14.03,6.94,0,13.24,4.04,13.24,11.24s-5.8,12.28-14,12.99Zm-2.83-22.7c-3.94.64-9.41,5.73-9.41,12.31,0,2.43,1.4,5.12,2.79,5.12.97,0,2.36-2.54,2.97-3.76,3.58-7.19,4.76-9.52,4.76-11.38,0-.9-.43-1.65-1.11-2.29Z"/>
        <path class="cls-7" d="m153.23,56.5c1.36,3.26,4.47,7.55,7.09,9.74,1.75,1.5,5.83,4.04,8.88,4.58v.25c-2.47.47-3.19,1.32-4.26,2.65-9.31-5.33-12.14-16.68-12.17-16.75,0,2-.04,4.65,0,8.56,0,1.86.43,11.46.43,11.63,0,1.86-1.5,1.9-1.9,1.9-1.36,0-1.36-.72-1.36-1.22,0-.68.21-3.87.25-4.62.07-2.22.11-3.4.21-13.89-.79,1.61-2.04,4.01-4.83,7.23-3.29,3.79-5.73,5.41-9.7,7.52l-.07-.18c3.9-3.44,10.02-9.81,13.39-17.4h-7.91c-.97,0-2.65.04-4.22.32l-.72-1.43c1.83.14,3.69.25,5.51.25h8.56c-.11-6.16-.36-7.48-.89-9.41l4.08,1.04c.18.04.47.11.47.43,0,.43-.39.68-1.22,1.15,0,.97-.04,5.73-.04,6.8h9.09l1.65-1.97c.14-.14.36-.43.57-.43s.5.25.68.39l2.15,1.93c.18.14.36.29.36.54,0,.36-.36.39-.57.39h-13.5Z"/>
        <path class="cls-7" d="m173.68,78.9v-1.54h10.38v-31.04h1.5v32.58h-11.88Z"/>
        <path class="cls-7" d="m194.08,76.18c-.75,0-1.18-.54-1.18-1.32,0-.68,1.22-3.51,1.36-4.12.14-.61.11-1.11.07-1.54l.32-.04c.61,1,1.32,2.36,1.32,4.26,0,.97-.29,2.76-1.9,2.76Zm13.21-10.42c-.5,5.58-1.61,8.59-2.18,9.88-.82,1.79-2.11,2.51-3.87,2.97-.47-2.22-2.18-3.19-2.94-3.54l.07-.25c2,.39,3.36.39,3.47.39.72,0,1-.07,1.4-.93,1.04-2.33,1.57-6.98,1.57-9.34h-7.98c.04.57-.04,1.75-1.54,1.75-.72,0-.89-.36-.89-.97,0-.21.07-1.07.07-1.25.14-2.25.18-8.48.18-10.95,0-1.25,0-3.83-.36-5.94l2.68,1.32h6.66l.86-1.04c.25-.29.43-.47.61-.47.21,0,.39.18.72.39l1.4,1.04c.25.18.39.43.39.57,0,.25-.32.36-.57.36h-4.94v4.15h1.54l.68-.86c.29-.36.39-.5.57-.5s.39.18.72.39l1.15.86c.18.14.39.32.39.57,0,.32-.32.39-.57.39h-4.47v4.12h1.57l.86-1c.25-.29.39-.43.57-.43.21,0,.36.11.64.36l1.07,1c.21.18.32.43.32.57,0,.21-.21.36-.54.36h-4.51v4.33h2.4l.93-1.04c.21-.25.39-.43.57-.43s.39.14.72.47l1.4,1.29c.14.14.25.29.25.47,0,.43-.82.82-1.07.93Zm-9.06,8.88c-1.18,0-1.18-1.5-1.18-2.26,0-2.22,0-2.97-.39-3.94l.21-.11c.25.29,1.54,1.58,1.72,1.9.86,1.32,1,2.25,1,2.76,0,1.04-.79,1.65-1.36,1.65Zm1.72-24.88h-3.15v4.15h3.15v-4.15Zm0,5.01h-3.15v4.12h3.15v-4.12Zm0,4.98h-3.15v4.33h3.15v-4.33Zm1.25,12.56c-.93,0-1.04-.61-1.32-2.65-.11-.79-.29-1.72-.68-2.61l.14-.11c1.9,1.65,2.97,2.61,2.97,4.01,0,.61-.36,1.36-1.11,1.36Zm2-2.65c-.72,0-.86-.57-1.25-2-.29-.93-.57-1.32-.82-1.65l.21-.21c1.68.79,2.76,1.54,2.76,2.72,0,.57-.32,1.15-.9,1.15Zm23.7,6.59c-1.72.11-2.97,1.61-3.4,2.11-4.01-3.26-6.98-9.41-6.98-17.86h-3.83c-.36,8.81-2.11,14.21-7.34,17.97l-.18-.14c5.01-5.44,5.19-15.43,5.19-22.87,0-4.44-.25-5.62-.61-7.59l3.4,1.5h7.37l1.04-1c.21-.21.39-.32.57-.32s.32.07.61.32l1.43,1.22c.21.18.32.36.32.57,0,.25-.68.75-1.11,1.04-.04.61-.07,1.29-.07,2.26,0,1.15.21,6.16.21,7.27s-1.11,1.43-1.68,1.43c-1.15,0-1.07-.79-1.04-1.65h-3.65c.82,7.8,5.98,14,9.77,15.54l-.04.21Zm-6.05-26.02h-7.95c-.04,1.36-.18,7.95-.18,9.41h8.13v-9.41Z"/>
        <path class="cls-7" d="m237.34,77.44c-3.12-2.5-4.74-6.1-4.74-9.68s1.62-7.18,4.74-9.68l.18.28c-3.72,3.94-3.8,7.94-3.8,9.4s.08,5.46,3.8,9.4l-.18.28Z"/>
        <path class="cls-7" d="m254.02,60.59c-3.22,3.38-5.12,5.08-7.66,6.28-1.12.54-3.66,1.66-5.84,1.86l-.08-.16c1.68-.5,5.78-2.44,8.12-4.42,2.64-2.24,3.92-4,4.14-4.34h-4.54c-.68.74-1.1,1.16-1.64,1.68,1.36.36,2.46.66,2.46,1.84,0,.62-.5.86-.8.86-.56,0-.76-.46-1.14-1.36-.26-.64-.5-.9-.72-1.14-.88.8-2.58,2.24-5.22,3.3l-.1-.14c2.98-1.96,6.58-5.7,7.06-7.74l1.76.76c.14.06.24.16.24.28,0,.2-.16.3-.84.4-.22.28-.34.42-.64.78h4.2l.78-.58c.12-.08.2-.16.28-.16s.16.06.26.14l1.16.86c.1.08.24.24.24.34,0,.22-.22.36-1.48.66Zm2.76,7.38c-1.98,2.38-4.36,4.38-5.9,5.34-2.34,1.46-6,2.7-9.26,2.8l-.04-.18c2.96-.66,6.4-1.62,9.6-4.28,1.72-1.44,3.34-3.14,4.18-4.58h-4.46c-.84.76-1.64,1.4-2.5,1.98.16.04,2.68.72,2.68,2.08,0,.52-.42.94-.9.94s-.52-.14-1-1.3c-.2-.48-.36-.68-1.06-1.54-1.32.9-3.68,2.14-6.32,2.66l-.14-.14c3.3-1.28,6.18-3.38,8.64-5.9,1.3-1.36,1.46-1.76,1.66-2.3l1.62.86c.12.06.24.14.24.28,0,.26-.36.3-.9.34-.32.38-.7.82-1.5,1.56h4.04l.62-.46c.08-.06.2-.18.3-.18s.16.08.26.16l1.2.98c.1.08.2.18.2.32,0,.18-.14.3-1.26.56Z"/>
        <path class="cls-7" d="m276.12,60.01l.64-.94c.1-.16.18-.26.3-.26s.22.08.42.24l1.16.92c.1.08.2.18.2.3,0,.14-.12.22-.3.22h-13.7c.02.4.06,2.6.06,2.76,0,5.86-.66,8.96-3.3,11.32l-.12-.08c.76-1.1,1.24-2.38,1.5-3.7.4-2.04.52-4.12.52-6.2,0-.74-.04-4.14-.34-5.62l1.92,1.04h5.38c-.04-1.32-.06-1.72-.36-2.6l2,.52c.16.04.26.1.26.26s-.14.34-.58.56c.02.22.02,1.06,0,1.26h4.34Zm-10.46,8.84c2.36,0,7.96-1.14,9.3-1.88l1.02.8c.1.08.16.18.16.3s-.06.3-.34.3c-.1,0-.3-.04-.46-.06-1.12.22-2.08.4-3.34.58v1.54h2.14l.58-.8c.12-.16.2-.26.32-.26s.24.08.4.22l.88.8c.1.1.18.2.18.34,0,.12-.12.18-.28.18h-4.22v1.4h4.66l.64-.9c.12-.18.22-.28.32-.28.14,0,.28.1.44.24l1.04.9c.12.1.2.22.2.32,0,.12-.1.2-.28.2h-7.02c0,.24.02,1.3,0,1.5-.08,1.02-1.4,1.5-2.04,1.6-.12-.68-.5-1.36-1.66-1.78l.02-.14c.24.02,1.3.08,1.52.08.9,0,.9-.12.92-1.26h-4.02c-.5,0-1.46.02-2.36.18l-.48-.78c1.36.1,2.8.12,3.08.12h3.78v-1.4h-2.3c-.5,0-1.46.02-2.36.18l-.48-.8c1.38.12,2.8.14,3.08.14h2.06v-1.38c-.92.1-1.82.16-2.74.16-.78,0-1.6-.06-2.36-.2v-.16Zm-.2-6.34c.62.06,1.28.12,2.94.14-.04-.86-.08-1.26-.28-1.9l1.58.4c.14.04.24.12.24.24,0,.16-.1.24-.44.4,0,.34-.02.46-.02.86h.72l.28-.46c.12-.2.18-.28.3-.28.1,0,.22.1.36.24l.46.46c.1.1.2.24.2.34,0,.08-.1.18-.32.18h-2v.4c.76.1,1.82.6,1.82,1.4,0,.28-.14.7-.6.7-.42,0-.5-.24-.7-.9-.06-.18-.22-.7-.52-1,.02.5.1,3.12.1,3.18,0,.24,0,.8-.76.8-.5,0-.54-.28-.54-.66,0-.06.12-2.68.14-3.18-.2.3-1.36,2.08-3.26,3.14l-.1-.14c.94-.94,2.18-2.9,2.54-3.72-1.04.04-1.5.12-1.76.16l-.38-.8Zm6.62-.04c.44.04.8.08,1.8.12-.06-1.22-.14-1.5-.24-1.86l1.5.38c.18.04.34.12.34.24,0,.16-.18.34-.48.5-.02.18,0,.4,0,.76h1.9l.42-.66c.1-.16.2-.26.32-.26s.22.08.38.22l.74.66c.12.1.18.2.18.3,0,.14-.1.22-.28.22h-3.26c1.48,1.52,3.42,2.26,4.6,2.34v.12c-.64.2-1.22.66-1.54,1.22-1.84-1.08-2.98-2.8-3.38-3.68h-.08c0,.5.06,2.62.06,3.1,0,.26,0,.74-.78.74-.36,0-.46-.2-.46-.56,0-.18.06-.98.06-1.14.02-.52.02-.86.02-1.12-.2.26-1.38,1.84-3.32,2.7l-.04-.14c1.18-.98,2.44-2.9,2.8-3.52-.36.04-.6.06-.86.12l-.4-.8Z"/>
        <path class="cls-7" d="m286.88,59.97c.04,1.56.06,2.88.06,3.64,0,4.2-.06,9.6-4.18,11.68l-.08-.1c2-2.1,2.84-4.52,2.84-10.7,0-1.76-.04-4.38-.3-6.04l2.06.54c.26.06.4.2.4.36s-.14.36-.8.62Zm5.34.3c-.02.58-.04,1.7-.04,3.44,0,2.52.16,6.54.16,9.06,0,.98-.9.98-1.06.98-.56,0-.58-.38-.58-.64,0-.2.1-2.04.1-2.34.04-1.4.08-2.58.08-6.34,0-1.62,0-4.16-.3-5.56l1.94.5c.18.04.34.16.34.28,0,.18-.12.34-.64.62Zm6.12-.46c-.06,2.72-.06,4.5-.06,5.66,0,1.38.14,7.54.14,8.8,0,.32,0,1.14-1.08,1.14-.62,0-.62-.46-.62-.64,0-.4.08-2.12.1-2.48.06-2.34.08-4.68.08-7,0-3.42-.02-4.66-.12-5.64-.06-.72-.14-1-.24-1.38l2.14.66c.22.06.34.18.34.3,0,.24-.2.38-.68.58Z"/>
        <path class="cls-7" d="m321.1,61.97h-9.2l.96.42c.1.04.22.14.22.28,0,.1-.1.2-.18.26-.06.04-.36.22-.52.34-.06.56-.14,1.36-.36,2.42h4.62l.56-.62c.1-.12.18-.2.28-.2.08,0,.2.06.3.14l1.14.86c.1.08.14.22.14.3,0,.26-.58.54-.78.64-.56,7.4-1.1,8.78-4.26,9.12-.24-1.08-.96-1.9-1.96-2.42l.02-.14c1.58.42,2.48.44,2.7.44.82,0,1.14-.2,1.48-1.84.46-2.24.56-5.32.54-5.8h-4.88c-.44,1.9-1.86,8-8.12,9.58l-.08-.18c6.26-2.64,7.08-11,7.08-12.82,0-.12,0-.48-.06-.78h-4.44c-.52,0-1.48.02-2.36.18l-.38-.8c1.02.1,2.04.14,3.06.14h4.58c0-2.56,0-2.58-.52-4l2.38.62c.14.04.3.16.3.28,0,.16-.2.28-.74.64-.04.44-.04,1.92-.04,2.46h5.72l.94-1.1c.12-.14.2-.26.32-.26.1,0,.26.12.36.22l1.28,1.1c.1.08.2.18.2.3,0,.22-.18.22-.3.22Z"/>
        <path class="cls-7" d="m331.24,62.81c.46-.96.98-2.52,1.18-3.34h-5.22c-.54,0-1.48.02-2.36.18l-.4-.8c1.02.08,2.04.14,3.08.14h11.92l.88-.86c.16-.16.32-.3.38-.3.1,0,.18.06.38.22l1.12.9c.08.06.2.18.2.3,0,.2-.2.22-.32.22h-7.78c-.56.92-2.06,2.74-2.58,3.34h7.28l.56-.58c.2-.2.26-.26.38-.26.1,0,.26.12.36.2l.92.78c.12.1.16.2.16.26,0,.18-.08.24-.8.64,0,2.26.02,5.12.04,7.38.02.94.1,2.42.1,3.34,0,.86-.72.94-1,.94-.6,0-.6-.32-.56-1.46h-11.38c0,.08.02.54.02.64,0,.72-.64.92-.98.92-.64,0-.64-.44-.64-.62,0-.08.06-1.06.06-1.22.04-2.18.14-6.78.14-8.68,0-1.44-.04-2.06-.28-3.28l2.06,1h3.08Zm-3.46.48v10.28h2.66v-10.28h-2.66Zm7.06,3.04v-3.04h-3.06v3.04h3.06Zm0,3.5v-3.02h-3.06v3.02h3.06Zm0,3.74v-3.26h-3.06v3.26h3.06Zm4.32,0v-10.28h-2.96v10.28h2.96Z"/>
        <path class="cls-7" d="m361.4,68.27c-.02,1.36.04,3.24.08,4.62,0,.2.06,1.1.06,1.28,0,.66-.64.86-1.04.86-.6,0-.6-.14-.56-1.46h-11.8c0,.1.02.88,0,1.04-.08.7-.88.76-1.04.76-.34,0-.58-.12-.58-.48,0-.14.04-.72.04-.82.04-1.54.06-3.14.06-4.68,0-1.36-.04-1.76-.28-2.64l2.1.6c.16.04.32.1.32.28,0,.22-.3.4-.66.62-.06,1.72,0,4.14.02,4.84h5.16c0-1.68,0-6.12-.02-7.5h-3.92c.02.8-.6.92-1,.92-.54,0-.54-.3-.54-.46,0-.66.06-3.62.06-4.22,0-1.34,0-1.74-.32-2.88l2.1.72c.12.04.3.16.3.3,0,.28-.42.5-.62.6-.04.72-.04,1.1.02,4.54h3.92c0-.76-.04-4.08-.04-4.76-.02-1.26-.14-1.82-.44-2.72l2.32.78c.18.06.3.18.3.26,0,.28-.36.46-.66.62-.04,1.3-.04,1.44-.04,2.62v3.2h4.1c.06-1.5.14-4.5-.28-5.86l2.14.68c.18.06.32.14.32.3,0,.18-.1.28-.68.58-.04,1.14-.02,2.56.02,3.7,0,.18.02.9.02,1.04,0,.66-.7.82-1.06.82-.58,0-.56-.28-.52-.78h-4.06c-.02.44,0,6.5,0,7.5h5.24c.04-1.68.06-2.48.06-2.78,0-2.44-.16-2.92-.34-3.5l2.12.62c.14.04.28.14.28.26,0,.24-.28.4-.66.58Z"/>
        <path class="cls-7" d="m381.74,75.24c-2.82-1.84-5.04-4.46-6.26-7.6-.3-.78-.46-1.36-.56-1.7-1.1,3.04-2.88,5.84-5.52,7.72-1.72,1.22-3.24,1.68-3.9,1.88l-.06-.16c6.08-3.24,8.42-9.96,8.32-12.4l.6.1c-.22-1.74-.2-2.68-.2-3.58h-1.82c-.36,0-1.38,0-2.36.18l-.38-.78c1.24.08,2.48.12,3.06.12h1.14l.72-.7c.12-.12.22-.2.34-.2.1,0,.24.08.38.18l1.14.84c.16.12.22.2.22.32,0,.32-1.12.76-1.72.98-.3,6.76,4.5,11.9,9,13.14v.18c-.46.08-1.44.3-2.14,1.48Z"/>
        <path class="cls-7" d="m402.18,61.67c.02,1.02-.02,5.62.02,6.42.02.66.18,3.96.18,4.88,0,.48,0,1.34-1.08,1.34-.18,0-.6-.04-.6-.5,0-.12.04-.86.04-1.02h-11.26c.02.9.02,1.22-.06,1.38-.16.38-.7.54-1.08.54-.54,0-.56-.32-.56-.54,0-.2.06-1.08.06-1.26.1-2.62.18-6.16.18-9.24,0-2.62-.08-3.2-.32-4.4l2.14,1.2h10.62l.62-.64c.18-.18.24-.28.34-.28s.24.1.36.2l1.1.86c.12.1.24.22.24.34,0,.18-.44.44-.94.72Zm-1.44-.72h-11.26v11.36h11.26v-11.36Z"/>
        <path class="cls-7" d="m406.94,76.42l-.18-.28c3.72-3.94,3.8-7.94,3.8-9.4s-.08-5.46-3.8-9.4l.18-.28c3.12,2.5,4.74,6.1,4.74,9.68s-1.62,7.18-4.74,9.68Z"/>
        <path class="cls-7" d="m429.56,61.77c-.52.22-2.26.64-4.52,1-.06.78-.08,2.08-.06,2.9.4-.1,2.14-.68,2.5-.8.14-.04.24-.06.36-.06.36,0,1.14.22,1.14.72,0,.3-.22.4-.42.48-.24.1-1.82.48-3.56.8.08,2.04.18,3.1.44,4.36,1.88.34,4.2,1.42,4.2,2.5,0,.26-.14.74-.62.74-.24,0-.3-.04-.98-.52-1.1-.78-2.12-1.18-2.52-1.34-.14,1.88-1.54,2.56-3.42,2.56-2.06,0-3.48-1.08-3.48-2.12,0-1.62,2.36-2.12,4.34-2.12.5,0,.82.02,1.16.06-.22-1.72-.26-3.64-.26-3.94-.92.1-1.9.18-2.84.18-1.12,0-2.06-.2-2.06-.96,0-.42.5-1.02,1.3-1.12-.2.26-.34.46-.34.7,0,.34.4.36,1.02.36,1.38,0,2.44-.18,2.9-.24,0-1,0-1.36.06-2.98-1.64.24-3.08.28-3.58.28-1.66,0-2.46-.48-2.96-1.58.72.3,1.38.58,2.78.58.5,0,1.84-.1,3.8-.4,0-.28.04-1.56.04-1.7,0-.9-.2-1.12-1.54-1.62.22-.2.48-.46,1.18-.46.94,0,2.08.64,2.08,1.3,0,.24-.02.32-.28,1.06-.16.46-.2.88-.24,1.16.92-.22,2.08-.62,3.12-.98.12-.04.26-.08.4-.08.4,0,1.22.36,1.22.8,0,.2-.1.38-.36.48Zm-7.44,10.12c-1.48,0-2.8.4-2.8,1.16,0,.4.62.96,2.2.96.64,0,1.44-.14,1.96-.48.64-.4.64-1.04.64-1.4-.28-.1-.72-.24-2-.24Z"/>
        <path class="cls-7" d="m447.88,61.37c-2.56,0-3.32,0-4.66.8-1.86,1.1-3.38,3.68-3.38,5.96,0,3.34,3.52,4.12,5.32,4.52.3.06,1.14.24,1.14,1.1,0,.52-.5.56-.76.56-2.06,0-6.68-1.52-6.68-5.92,0-.86.16-2.58,1.64-4.48.56-.72,1.04-1.14,2.76-2.5-2.12.28-6.4,1.76-7.08,2.14-.86.5-.96.54-1.28.54-.5,0-1.46-.6-1.46-1.76,0-.52.14-.78.28-1.02.38.6.68,1.06,1.56,1.06.4,0,.92-.1,2.94-.58,2.38-.58,6.22-1.44,8.6-2.02.2-.04.48-.1.64-.1.3,0,1.6.38,1.6,1.06,0,.64-.62.64-1.18.64Zm-.56,5.08c-.34,0-.4-.08-.88-.92-.4-.7-.92-1.24-1.88-2.2,1.34.28,3.3,1.16,3.3,2.42,0,.34-.12.7-.54.7Zm2.34-.92c-.3,0-.36-.1-.94-.98-.48-.7-1.38-1.44-2.04-1.92,1.28.12,3.52.94,3.52,2.26,0,.56-.42.64-.54.64Z"/>
      </g>
      <g>
        <path class="cls-7" d="m58.7,35.27c-1.01-.37-3.32-1.97-3.32-1.97-2.1-1.26-3.45-3.02-4.76-4.89.02,1.05.05,5.63.09,6.56,0,.11.02.62.02.71,0,.39-.05.59-.3.78-.3.21-.64.3-.78.3-.39,0-.46-.41-.46-.64,0-.18.02-.98.05-1.14,0-.91.09-4.92.11-5.74-3.09,3.39-7.16,5.58-9.63,6.22l-.09-.16c2.72-1.14,7.05-4.73,8.78-6.91h-3.52c0,.53-.05.64-.11.73-.21.27-.53.41-.87.41-.39,0-.41-.25-.41-.39,0-.07.02-.32.05-.41.09-1.1.14-3.18.14-4.21,0-2.15-.05-2.42-.3-3.75l1.69.78h4.32c0-.34,0-.96-.02-2.33h-6.15c-.8,0-2.06.09-2.93.25l-.55-.98c1.72.14,3.39.18,3.8.18h5.81c-.05-1.26-.11-2.26-.48-2.95l2.15.55c.14.05.34.09.34.25,0,.14-.07.23-.27.39-.18.16-.34.27-.46.37,0,.09-.02.94-.02,1.4h6.82l.75-1.1c.11-.16.21-.27.32-.27.16,0,.32.14.43.23l1.23,1.1c.11.09.23.21.23.34,0,.21-.21.25-.34.25h-9.45v2.33h4.21l.75-.59c.11-.09.16-.11.25-.11.07,0,.16.05.23.09l.98.73c.14.11.21.16.21.3,0,.11-.07.21-.21.3q-.32.21-.55.39c0,1.74,0,1.81.18,5.35.02.23.02.46.02.48,0,.39-.07.55-.39.71-.21.11-.43.16-.55.16-.46,0-.46-.32-.43-.96h-4.28c1.67,1.81,5.22,4.8,9.9,4.94v.21c-1.28.32-1.56.69-2.26,1.74Zm-9.29-13.17h-4.51v2.47h4.51v-2.47Zm0,3.02h-4.51v2.72h4.51v-2.72Zm5.92-3.02h-4.71v2.47h4.71v-2.47Zm0,3.02h-4.71v2.72h4.71v-2.72Z"/>
        <path class="cls-7" d="m64.58,35.2c-.43,0-.82-.39-.82-.78,0-.48.39-.8.94-1.26.48-.41,1.3-1.12,1.78-2.58h.11c.02.21.07.48.07.78,0,1.28-.66,3.84-2.08,3.84Zm17.57-13.29c-.32.18-.34.21-.5.34-.02.41-.02.85.02,2.29.02.34.16,3.04.16,3.16,0,.69-.57.85-.96.85-.53,0-.55-.32-.53-.8h-10.73c-.8,0-2.06.09-2.93.27l-.55-.98c1.72.14,3.38.16,3.8.16h10.41v-2.4h-10.41c-.8,0-2.08.09-2.95.25l-.53-.98c1.72.14,3.36.18,3.8.18h10.09v-2.36h-13.31c-1.23,1.05-2.22,1.65-2.88,2.04l-.09-.16c3.43-2.9,5.76-6.29,5.95-8.19l1.74.85c.23.11.34.21.34.37,0,.27-.25.34-.89.46-.21.25-.48.59-.59.75h5.67l.69-.64c.25-.23.32-.25.39-.25.14,0,.21.07.46.25l.96.75c.09.09.16.16.16.3,0,.18-.16.27-.23.27-.18.07-1.01.23-1.17.27-.43.37-2.38,2.06-2.79,2.38h5.21l.78-.64c.25-.21.27-.23.39-.23.14,0,.32.16.34.21l.64.55c.21.18.27.25.27.37,0,.14-.07.23-.23.32Zm-11.99-3.36c-1.21,1.49-1.81,2.13-2.52,2.79h6.63c.23-.34,1.21-1.92,1.33-2.1.16-.27.21-.37.37-.69h-5.81Zm8.58,17.29c-.39.07-.66.11-1.26.11-1.83.05-3.64.05-5.47.05s-2.42-.09-2.42-2.08c0-.37.05-1.97.05-2.29,0-1.39-.09-2.06-.23-2.58l1.81.53c.37.11.39.23.39.3,0,.18-.23.32-.3.34-.25.16-.27.16-.46.34v3.45c0,.62.25.71.5.78.21.05,3.09.07,3.55.07,2.72,0,3.02-.37,3.27-1.07.14-.37.43-1.46.57-2.38h.18c.09.39.37,2.08.5,2.4.07.23.11.25.5.53.14.11.23.23.23.39,0,0-.02.87-1.42,1.12Zm-3.25-3.77c-.48,0-.55-.18-.94-1.05-.62-1.35-1.01-1.69-1.37-2.01l.05-.11c1.88.32,3.02,1.56,3.02,2.36,0,.3-.11.82-.75.82Zm8.14,1.88c-.57,0-.69-.27-1.03-1.01-.59-1.35-.89-2.04-1.94-2.79l.07-.14c2.65.75,3.64,2.26,3.64,3.04,0,.55-.27.89-.73.89Z"/>
        <path class="cls-7" d="m103.39,18.64c-1.92,2.36-5.12,5.26-7.09,6.52-2.45,1.56-6.77,3.36-8.35,3.48l-.09-.21c2.29-.8,6.08-2.9,7.69-4.05,1.81-1.28,4.48-3.77,6.47-6.5h-5.67c-.69.85-1.01,1.24-1.88,2.15.11.05.21.07.96.34.32.11,1.99.73,1.99,1.94,0,.55-.41.8-.75.8-.46,0-.69-.32-1.01-1.01-.53-1.1-.57-1.23-1.35-1.92-2.06,2.13-4.3,3.32-5.4,3.91l-.09-.18c.82-.59,3.5-2.79,5.54-5.49,1.58-2.1,1.67-2.68,1.81-3.5l1.67.94c.18.11.25.16.25.32,0,.32-.3.39-.85.5-.21.32-.3.41-.46.64h5.33l.98-.66c.23-.16.25-.16.3-.16q.07,0,.23.11l1.35.89c.14.09.23.18.23.34,0,.39-.14.46-1.81.78Zm3.2,8.58c-2.4,2.75-5.1,5.35-7.52,6.86-1.51.94-5.03,2.77-9.72,3.06l-.02-.21c2.63-.62,6.56-1.62,10.7-5.08,3-2.49,4.46-4.57,4.99-5.56h-5.35c-1.33,1.21-2.17,1.9-2.97,2.47.75.21,3.13,1.23,3.13,2.63,0,.55-.46.85-.82.85-.43,0-.53-.27-.75-.85-.14-.32-.59-1.33-1.76-2.49-.55.39-1.17.78-1.76,1.12-1.83,1.05-3.57,1.81-5.26,2.15l-.05-.18c.64-.27,1.92-.85,3.2-1.6,2.9-1.74,5.56-4.39,6.43-5.33,1.3-1.39,1.4-1.74,1.65-2.63l1.72.98s.23.16.23.32c0,.32-.23.34-.94.43-.27.34-.64.8-1.46,1.58h4.94l.78-.57c.21-.16.23-.16.3-.16.09,0,.14.05.32.18l1.28.98c.21.16.27.23.27.34,0,.39-.34.46-1.53.69Z"/>
        <path class="cls-7" d="m131.25,19.02h-16.08c.02,2.79.09,7.71-.41,10.29-.41,2.06-1.24,4.46-2.93,5.92l-.11-.07c1.92-2.81,2.24-6.93,2.24-11.37,0-.3-.02-4.76-.32-6.27l1.78.94h6.68c-.14-2.08-.16-2.2-.39-2.86l1.92.48c.09.02.25.09.25.27,0,.25-.07.3-.66.64,0,.43-.02,1.17-.02,1.46h5.44l.69-.96c.07-.09.21-.3.34-.3.11,0,.39.21.43.25l1.26.98c.14.11.23.18.23.34,0,.21-.18.23-.34.23Zm.55,14.39h-8.37c.02,1.49,0,1.83-.27,2.26-.05.07-.48.73-1.58,1.03-.16-.96-.96-1.49-1.99-1.76l.05-.14c1.21.07,1.49.09,1.76.09,1.01,0,1.01-.11.98-1.49h-4.35c-.48,0-1.85.07-2.95.27l-.55-.98c1.19.09,2.63.16,3.82.16h4.03c0-.25-.02-1.6-.02-1.9h-2.45c-.46,0-1.85.05-2.93.27l-.55-.98c1.19.09,2.61.16,3.8.16h2.13v-1.56c-1.24.14-2.52.23-3.75.23-.73,0-1.46-.02-2.17-.11v-.16c1.37,0,4.53-.53,5.99-.75,1.28-.21,3.41-.62,4.62-1.42l1.07.85c.11.07.14.18.14.3,0,.14-.05.3-.37.3-.11,0-.16,0-.71-.11-.62.16-1.51.37-3.77.73v1.72h2.95l.48-.73c.14-.21.18-.32.32-.32.16,0,.34.16.46.25l.89.75c.11.11.23.21.23.34,0,.25-.25.25-.34.25h-4.99v1.9h5.79l.78-.89c.18-.23.3-.34.41-.34.16,0,.39.21.46.25l1.07.96c.11.09.23.18.23.34,0,.23-.25.23-.34.23Zm-8.62-11.32h-2.52v.57c.73.16,2.01.55,2.01,1.53,0,.37-.21.59-.48.59-.39,0-.55-.39-.66-.71-.23-.55-.75-1.17-.87-1.26,0,.59.05,3.52.05,3.68,0,.23,0,.32-.07.41-.09.16-.32.32-.62.32-.46,0-.46-.32-.46-.73,0-.62.14-3.43.16-4-1.01,1.58-2.26,2.97-3.82,4l-.11-.14c1.12-1.12,2.42-3.18,3-4.25-.64.05-1.37.11-2.01.23l-.53-.98c.64.07,1.58.14,3.45.18-.05-.91-.11-1.33-.32-2.08l1.6.43c.07.02.25.07.25.27,0,.14-.05.23-.59.48,0,.37.02.5.02.89h1.14l.3-.5c.14-.23.21-.3.32-.3s.14.02.41.3l.46.46c.18.18.23.23.23.34,0,.21-.18.25-.34.25Zm8.53,3.32c-.32.16-.46.41-.57.59-2.15-.98-3.66-3.27-3.96-3.98h-.21v1.26c0,.37.07,2.1.07,2.24,0,.25,0,.39-.11.48-.16.11-.41.23-.62.23-.32,0-.34-.3-.34-.55,0-.46.07-2.54.07-2.95-.34.59-1.62,2.47-3.87,3.5l-.07-.16c1.4-.98,3.04-3.57,3.27-3.93-.64.07-.73.09-1.01.14l-.55-.98c1.1.09,1.44.11,2.17.14-.07-1.42-.09-1.58-.18-1.94l1.39.34c.14.02.3.07.3.25,0,.11-.11.23-.18.3-.07.05-.32.23-.39.27.02.09.02.73.02.8.25.02.55.02.69.02h1.88l.5-.59c.23-.25.25-.27.37-.27.09,0,.23.07.46.27l.64.55c.14.11.23.21.23.34,0,.21-.18.25-.34.25h-3.84c1.28,1.4,3.16,2.61,5.33,2.81v.09c-.18.07-.98.41-1.14.48Z"/>
        <path class="cls-7" d="m140.4,18.48s-.02.27-.02.3l-.02,7.59c0,2.68-.55,7.94-4.67,9.97l-.09-.14c2.29-2.1,3.57-4.55,3.57-13.31,0-2.08-.02-4.05-.3-6.13l2.2.69c.18.05.3.09.3.25,0,.21-.23.41-.96.78Zm6.2.25c0,5.95,0,6.61.11,12.88,0,.32.02,1.72.02,2.01,0,.82-1.03.82-1.08.82-.5,0-.5-.27-.5-.48,0-.11.09-1.51.09-1.72.16-2.81.16-5.7.16-8.55,0-1.14-.02-4.46-.11-5.42-.05-.37-.09-.71-.16-1.01l1.83.48c.32.09.39.14.39.25,0,.25-.48.55-.75.73Zm7.11-.55v.41l-.05,7.5c0,.25.18,7.27.18,8.62,0,.8,0,.89-.23,1.08-.25.18-.71.3-.92.3-.37,0-.5-.18-.5-.5,0-.25.09-1.28.09-1.51.11-3.89.16-7.78.16-9.49,0-5.54-.18-6.75-.39-8.03l2.1.66c.25.09.34.16.34.3,0,.3-.39.48-.8.66Z"/>
        <path class="cls-7" d="m162.31,29.45c-1.12,3.29-1.65,4.44-2.9,6.04l-.18-.07c.87-2.06,1.76-5.6,1.76-6.84,0-.21-.05-.53-.09-.73l1.83.71c.16.07.25.16.25.3,0,.3-.27.41-.66.59Zm5.15-9.08c-1.21,1.83-3.91,4.99-4.07,5.17.32-.02,2.58-.18,3.16-.23-.37-1.07-.66-1.51-.85-1.76l.09-.11c.5.27,2.54,1.35,2.54,2.65,0,.48-.3.92-.69.92-.57,0-.71-.46-1.01-1.42l-1.94.46c-.05,2.26-.02,3.34-.02,3.96.02.82.14,5.17.14,5.4,0,.87-.53,1.1-.89,1.1-.5,0-.5-.37-.5-.53,0-.82.11-4.37.11-5.1s.07-3.91.09-4.57c-1.39.32-2.29.48-3,.55-.21.37-.3.48-.5.48-.09,0-.27-.07-.32-.27l-.39-1.76c1.03.37,2.38.32,3.59.27,1.42-2.04,3.66-6.13,3.43-7.02l1.76,1.07c.18.11.21.23.21.34,0,.25-.23.32-.94.41Zm-2.68-2.81c-1.1,1.56-1.46,2.06-2.13,2.91.48.37.96.73.96,1.37,0,.46-.27.94-.71.94s-.64-.32-1.17-1.35c-.43-.82-.66-1.24-1.51-1.85l.05-.09c.32.05.98.14,2.13.82.21-.53,1.21-2.95,1.21-4,0-.16-.05-.41-.07-.57l1.94.98c.14.07.23.16.23.32,0,.23-.16.32-.94.53Zm2.49,14.09c-.53,0-.62-.27-.92-1.26-.05-.16-.37-1.14-.87-1.83l.05-.09c1.3.73,2.42,1.42,2.42,2.38,0,.39-.23.8-.69.8Zm4.14-2.38c-1.67,3.45-3.13,5.01-5.1,5.92l-.02-.16c1.85-1.49,3.39-4.23,3.96-6.47h-1.26c-.37,0-.89.05-1.26.11l-.23-.75c.41.05,1.28.09,1.62.09h1.1l.25-.37c.07-.11.16-.18.25-.18.11,0,.21.09.27.14l1.03.87c.11.09.16.18.16.3,0,.41-.46.48-.78.5Zm7.57,6.11c-2.4-1.94-3.96-3.91-4.89-6.91,0,.39.02.82.02,1.21.02.73.11,4.55.11,4.62,0,.96-.41,1.33-.66,1.51-.3.25-.73.55-1.39.66-.27-.62-.48-1.12-2.33-1.9l.05-.09c.43.02,1.92.07,2.13.07.71,0,.98,0,.98-.48v-7.32c0-.82,0-.91-.02-1.1h-2.31c0,.25.02.73-.78.73-.55,0-.57-.25-.57-.46,0-.53.07-2.9.07-3.39,0-.59-.05-3.16-.05-3.68,0-.34-.02-.89-.09-1.28l1.58.82h1.81c.16-.64.23-1.46.23-1.88,0-.34-.05-.75-.14-1.03l2.01.57c.21.07.3.21.3.37,0,.39-.41.43-.92.48-.16.23-.91,1.28-1.07,1.49h3.34l.64-.69c.09-.09.25-.21.39-.21s.25.07.34.14l.94.69c.14.09.23.23.23.39,0,.27-.3.44-.8.71,0,.23.05,2.9.05,2.97.02.48.11,2.7.11,3,0,.69-.41.94-.89.94-.41,0-.53-.21-.43-.69h-3.16l.39.09c.25.07.41.21.41.32,0,.23-.27.43-.53.57,0,.16.34,1.72,1.28,3.32.39-.32,1.62-1.72,1.97-2.86l1.44.98c.18.11.23.23.23.41,0,.3-.37.32-.89.27-.87.48-1.76.94-2.63,1.37.18.32.57.94,1.3,1.62,1.26,1.19,2.61,1.83,4.41,2.29v.09c-1.6.23-1.94.8-2.2,1.24Zm-2.01-16.42h-6.31v2.84h6.31v-2.84Zm0,3.39h-6.31v2.77h6.31v-2.77Z"/>
      </g>
      <rect class="cls-7" x="29.51" y="162.65" width="576.87" height="91.14"/>
      <g>
        <path class="cls-5" d="m144.43,204.81l1.05-1.34c.23-.29.29-.35.44-.35.2,0,.46.23.55.29l1.42,1.34c.17.14.29.26.29.44,0,.26-.23.32-.44.32h-9.87c-1.77,0-2.41.06-3.14.17l-.46-1.05c1.36.12,2.76.17,4.12.17h6.04Zm-2.56-3.51l.99-1.31c.17-.23.26-.38.44-.38s.35.17.52.32l1.51,1.31c.17.17.29.26.29.46,0,.26-.23.29-.44.29h-5.6c-1.77,0-2.41.09-3.14.2l-.49-1.07c1.39.15,2.76.17,4.15.17h1.77Zm.03,7.17l.99-1.36c.2-.26.32-.38.46-.38.17,0,.44.23.52.32l1.51,1.36c.15.12.29.26.29.44,0,.26-.26.32-.46.32h-5.63c-1.77,0-2.41.06-3.14.2l-.46-1.07c1.36.12,2.76.17,4.12.17h1.8Zm.17,3.22l.84-1.16c.2-.29.32-.38.44-.38s.14.03.55.32l1.65,1.16c.15.09.32.23.32.44,0,.26-.26.32-.44.32h-5.69c-1.77,0-2.41.06-3.14.17l-.46-1.05c1.36.12,2.73.17,4.12.17h1.8Zm1.19,3.66l.9-1.13c.12-.15.38-.38.55-.38.14,0,.44.26.55.38l1.28,1.16c.06.06.15.17.15.41,0,.17-.35.55-.7.64,0,1.54,0,2.85.06,4.33,0,.26.09,1.34.09,1.57,0,1.13-.93,1.48-1.57,1.48-.55,0-1.07-.17-.99-1.45h-4.73c0,.2.06,1.05.06,1.22,0,1.36-1.1,1.51-1.63,1.51-.44,0-1.05-.23-1.05-.99,0-.14.09-.81.12-.93.03-.29.09-1.13.09-2.87,0-3.46-.09-5.17-.29-6.39l2.93,1.45h4.18Zm-4.41.7v5.6h4.73v-5.6h-4.73Zm17.97-7.87l1.31-1.65c.23-.29.29-.38.44-.38.12,0,.23.06.55.32l1.95,1.65c.15.12.29.26.29.44,0,.26-.23.32-.44.32h-6.3c.06,10.13.09,11.27.15,13.01.06,1.25.06,1.39.06,1.68,0,.7,0,1.97-1.77,1.97-1.02,0-1.07-.7-1.07-1.16,0-.73.15-3.92.17-4.56.06-1.8.06-2.73.09-10.95h-1.6c-1.77,0-2.41.06-3.14.2l-.46-1.07c1.36.12,2.76.17,4.12.17h1.05c-.12-6.59-.12-7.17-.84-9.29l3.63.87c.49.12.64.23.64.41,0,.38-.64.73-1.02.87v7.14h2.21Z"/>
        <path class="cls-5" d="m165.96,224.23h2.68c1.43,0,2.63-1.01,2.63-2.91v-24.03c0-1.11-.74-2.35-2.03-2.35h-3.55v-1.34c4.8-.18,7.75-1.52,8.39-1.8.18-.09,1.34-.6,1.43-.6.23,0,.28.18.28.46v29.75c0,1.38,1.11,2.81,3.09,2.81h2.21v1.48h-15.13v-1.48Z"/>
        <path class="cls-5" d="m189.98,196.09l-.42,11.16c1.11-.92,3.97-3.27,7.47-3.27,4.06,0,9.78,3.37,9.78,10.24,0,7.52-6.37,12.36-11.9,12.36-4.89,0-8.58-3.74-8.58-7.01,0-2.12,1.66-3.41,3.14-3.41,1.15,0,2.58.92,2.58,2.91,0,.6-.09,1.02-.32,1.57-.18.42-.23.55-.23,1.43,0,1.01.18,2.91,3.18,2.91,4.24,0,7.01-4.43,7.01-10.29,0-5.35-2.4-8.58-6-8.58-3.37,0-5.86,2.72-7.06,4.11l-.65-.6.65-17.57h16.28l-.97,4.06h-13.98Z"/>
        <path class="cls-5" d="m213.83,205.91c-1.77,0-2.41.06-3.14.2l-.49-1.07c1.77.14,3.83.17,4.15.17h7.23c0-.78-.03-4.41-.58-6.16l3.46,1.07c.29.09.35.2.35.38,0,.29-.29.49-.93.93.03.58-.03,3.22-.03,3.77h6.24l1.51-1.74c.17-.2.29-.35.44-.35.12,0,.35.14.55.29l2.47,1.74c.09.06.29.23.29.44,0,.26-.23.32-.44.32h-10.48c2.12,4.88,7.4,10.48,12.31,11.67v.17c-1.07.23-2.03.55-3.48,2.12-6.01-4.09-8.97-11.93-9.35-13.97h-.09c-.03,2.38-.03,3.28.03,11.32h1.25l1.16-1.37c.17-.2.29-.35.44-.35.12,0,.32.12.55.29l1.63,1.39c.15.12.29.23.29.44,0,.26-.23.29-.44.29h-4.88c0,1.22,0,3.28.06,4.44,0,.23.09,1.31.09,1.54,0,1.22-1.04,1.51-1.68,1.51-1.13,0-1.19-.52-1.19-1.07,0-.12.09-1.07.09-1.25.15-1.71.2-3.51.26-5.17h-1.83c-1.8,0-2.41.09-3.14.2l-.49-1.07c1.77.17,3.83.17,4.15.17h1.31c.03-2.85.06-5.69.09-8.57-5.37,8.91-11.56,10.89-12.31,11.09l-.09-.17c5.98-4.5,10.51-11.32,11.3-13.68h-6.62Z"/>
        <path class="cls-5" d="m242.25,212.27c-1.77,0-2.41.06-3.14.2l-.46-1.07c1.19.09,2.88.17,4.09.17l1.1-1.16c.12-.12.23-.2.35-.2s.26.09.38.17l1.42,1.16c.09.06.29.23.29.41,0,.35-.52.73-.93,1.05,0,.99-.06,6.01,0,6.3.52,2.87,6.36,2.9,8.3,2.9,3.05,0,7.78-.35,11.27-.99v.2c-1.31,1.31-1.6,2.38-1.77,3.28-13.12.32-16.35-.61-18.32-4.65-.26.26-.49.55-1.83,2.09-.2.26-1.31,1.36-1.51,1.6,0,.26,0,.78-.44.78-.17,0-.32-.12-.46-.29l-1.97-2.67c.64.03,2.35.09,4.44-1.05v-8.25h-.81Zm-1.57-12.28c3.37.52,4.94,2.44,4.94,3.98,0,.84-.58,1.51-1.39,1.51-1.04,0-1.31-.96-1.48-1.6-.64-2.27-1.63-3.25-2.06-3.66v-.23Zm10.48,14.98c-.03.84-.58,1.31-1.42,1.31-.52,0-.93-.26-.93-.84,0-.09.06-.64.06-.75.09-1.28.12-3.48.12-4.79,0-.84-.03-1.19-.06-1.63-.03-.2-.15-1.1-.2-1.39l2.61,1.42h2.38c0-.35-.03-1.77-.03-2h-2.7c-2,0-2.56.09-3.14.2l-.46-1.07c1.31.12,2.79.17,4.12.17h2.15c-.12-2.35-.32-3.02-.55-3.66l3.25.87c.12.03.38.12.38.38s-.26.49-.81.96v1.45h2.53l1.31-1.36c.23-.26.35-.38.46-.38.15,0,.23.06.52.29l1.74,1.39c.17.14.29.26.29.44,0,.29-.29.32-.44.32h-6.42v2h2.41l.93-.73c.15-.12.26-.2.41-.2.12,0,.23.12.41.23l1.25.96c.12.09.32.26.32.44,0,.23-.26.46-.67.87v2.41c0,.35.09,2.15.09,2.38,0,1.34-1.31,1.48-1.63,1.48-.81,0-.81-.64-.78-1.16h-2.67c0,.35.03,2.15.06,2.56h4.04l1.39-1.51c.2-.23.32-.35.46-.35.17,0,.32.09.55.29l1.71,1.51c.09.09.26.26.26.44,0,.32-.26.32-.44.32h-7.99c.03.23.06,1.77.06,1.92-.03,1.07-.78,1.57-1.6,1.57-.9,0-1.02-.61-1.02-.99,0-.12.15-2.18.17-2.5h-3.89c-2,0-2.56.12-3.14.2l-.46-1.07c1.31.12,2.79.17,4.12.17h3.4c.03-.64.09-1.71.09-2.56h-2.61Zm8.74-14.23l1.02-.67c.2-.14.32-.23.44-.23.15,0,.23.09.35.2l1.6,1.6c.17.17.35.35.35.61,0,.44-.49.52-.81.55-.26.03-.81.03-1.16.06-.84.41-1.86.9-2.56,1.28l-.15-.15c.52-1.05.87-1.92,1.13-2.56h-10.66c.03.67.2,3.48-1.95,3.48-.75,0-1.25-.58-1.25-1.19,0-.64.26-.93,1.28-2.06.81-.93,1.1-1.8,1.28-2.38h.15c.15.35.32.75.41,1.45h10.54Zm-6.13,10.51c0-.64-.03-1.57-.03-2.27h-2.58v2.27h2.61Zm.03,3.02v-2.32h-2.64v2.32h2.64Zm4.85-3.02v-2.27h-2.73v2.27h2.73Zm0,3.02v-2.32h-2.73l.06,2.32h2.67Z"/>
        <path class="cls-5" d="m278.39,206.23c.15.12.17.26.17.44,0,.2-.12.32-.26.38-.15.03-.9.12-1.07.17-.58.75-1.02,1.31-1.71,2.15.35.26.64.49.64.73,0,.12-.09.23-.14.29s-.26.23-.32.26c-.09.96-.17,1.74-.17,6.65,0,.9.03,5.31.03,6.33,0,1.89-1.45,1.89-1.6,1.89-.99,0-1.05-.78-1.05-1.34,0-.49.29-5.14.32-5.81.09-2.64.12-5.08.09-6.56-1.77,1.77-3.8,3.19-6.1,4.07l-.06-.12c2.67-2.47,6.16-6.74,7.81-9.87.17-.35.2-.41.73-1.83l2.7,2.18Zm-.99-5.4c.09.09.26.26.26.46,0,.23-.15.32-.41.35-.14.03-.78.03-.9.06-2.44,2.5-4.73,4.21-8.68,5.66l-.09-.23c2.32-1.63,5.46-4.97,6.59-6.94.26-.44.49-1.22.64-1.74l2.58,2.38Zm10.51,8.59v.15c0,1.54.15,10.6.15,12.57,0,.9,0,3.05-3.54,3.28-.29-1.51-1.16-2.24-2.87-3.31v-.2c.52.06,1.92.2,2.96.2s1.07-.29,1.07-1.16c0-2.9-.09-8.77-.17-11.53h-4.53c-2,0-2.58.09-3.14.17l-.46-1.05c1.31.12,2.79.17,4.12.17h7.49l1.54-1.77c.29-.35.32-.35.44-.35.17,0,.41.17.55.29l1.92,1.77c.17.15.29.26.29.44,0,.29-.29.32-.44.32h-5.37Zm-.2-7.87l1.25-1.51c.26-.32.32-.38.46-.38.17,0,.46.26.52.32l1.74,1.54c.17.14.29.23.29.44,0,.26-.26.29-.44.29h-9.12c-1.77,0-2.41.09-3.14.2l-.46-1.07c1.36.14,2.76.17,4.12.17h4.76Z"/>
      </g>
      <g>
        <path class="cls-5" d="m61.65,212.85h-6.86c0,1.61-.02,4.19-.02,5.8,0,.23,0,.49-.15.65-.17.18-.47.27-.64.27-.34,0-.4-.23-.4-.5,0-.07,0-.2.03-.59.05-.81.12-4.75.15-5.63h-4.56c-.35,0-1.36.03-2.16.18l-.4-.72c.87.07,1.93.13,2.8.13h4.33c.02-.65.03-1.24.03-1.44,0-.75-.02-4.38-.02-5.2h-3.71c-.34,0-1.36.03-2.16.18l-.39-.72c.86.08,1.91.13,2.78.13h8.55l.62-.8c.13-.18.2-.22.27-.22.08,0,.2.1.28.17l.96.82s.15.15.15.25c0,.18-.17.18-.25.18h-6.12c0,.85.02,5.08.02,6.04v.6h4.75l.72-.79c.17-.17.2-.22.27-.22.08,0,.23.12.3.18l.91.77s.17.15.17.27c0,.17-.18.18-.25.18Zm-11.03-1.89c.22,0,.52-.15.52-.64,0-.25-.15-.96-.89-1.78-.2-.22-.23-.25-1.69-1.43l-.12.08c.23.25.57.69,1.09,2.15.45,1.27.59,1.61,1.09,1.61Zm9.46-2.85c-.15.03-.2.03-.69.03-.94,1.41-1.51,1.96-3.27,3.52l-.08-.1c1.24-1.58,2.38-3.82,2.55-4.81l1.53.99c.1.05.13.08.13.2s-.08.15-.17.17Z"/>
        <path class="cls-5" d="m74.03,207c-.07,2.01-.02,7.9.05,10.13,0,.18.07.96.07,1.12,0,.6-.5.7-.7.7-.39,0-.39-.29-.39-.42,0-.05.03-.65.03-.74h-6.66c.02.45.02.62-.03.75-.03.08-.25.44-.65.44-.34,0-.42-.23-.42-.44,0-.17.07-.87.08-1.02.1-1.44.13-5.65.13-6.79,0-4.44-.07-4.8-.29-5.5l1.43.77h6.12l.49-.44s.18-.18.32-.18c.07,0,.12.03.27.15l.64.55c.15.12.2.22.2.32,0,.18-.34.37-.69.59Zm-.92-.59h-6.67v5.1h6.67v-5.1Zm0,5.5h-6.67v5.48h6.67v-5.48Z"/>
        <path class="cls-5" d="m81.26,217.41c0,.32-.02,1.12-.91,1.12-.39,0-.82-.13-.82-1.06,0-2.05,2.6-6.67,4.71-10.41h-3.86c-1.51,0-1.98,1.22-2.38,2.4l-.35-.05.72-3.44h6.72v.57c-2.13,3.61-3.81,6.74-3.84,10.87Z"/>
        <path class="cls-5" d="m91.99,206.71c-.02.34-.03.82-.03,1.56,0,1.84.07,4.21.13,6.07,0,.2.05,1.16.05,1.34,0,.15,0,.32-.18.49-.12.1-.29.15-.4.15-.4,0-.4-.13-.39-1.12h-2.38c0,.27.03,1.39.03,1.63,0,.4-.54.52-.65.52-.28,0-.32-.25-.32-.4,0-.1.02-.62.02-.92.07-2.26.08-4.51.08-6.76,0-2.41-.03-2.73-.17-3.91l1.21.6h1.98l.45-.42c.12-.1.2-.18.29-.18.1,0,.22.1.34.22l.37.37c.07.07.15.17.15.27,0,.13-.35.37-.57.5Zm-.81-.35h-2.41v3.92h2.41v-3.92Zm0,4.33h-2.41v4.11h2.41v-4.11Zm10.9-.32h-7.21c-.54,0-1.48.07-2.16.2l-.4-.72c.94.07,1.86.12,2.8.12h1.41v-2.57h-.72c-.52,0-1.48.07-2.16.2l-.39-.72c.92.07,1.86.12,2.78.12h.49c0-1.56-.05-1.91-.29-2.75l1.49.45c.15.05.25.08.25.25,0,.03,0,.12-.12.2-.22.15-.23.18-.37.29-.02.23-.03.67-.03,1.56h2.06l.45-.59c.05-.07.17-.2.25-.2.12,0,.23.08.32.17l.65.59c.08.08.17.15.17.25,0,.17-.15.18-.25.18h-3.66c-.02.87-.02,1.83-.02,2.57h2.97l.54-.67c.12-.15.18-.2.25-.2.1,0,.22.1.28.17l.7.69c.12.12.15.18.15.25,0,.17-.18.17-.25.17Zm-.02,3.32h-2.85c.02,1.16.05,2.75.05,3.94,0,.57-.05.92-.6,1.29-.57.39-1.11.5-1.32.55-.1-.34-.25-.77-1.58-1.43v-.13c.77.08,1.48.12,1.63.12.25,0,.79-.02.92-.2.08-.12.08-1.01.08-1.26,0-.57-.02-1.54-.05-2.88h-3.27c-.54,0-1.48.05-2.16.18l-.39-.72c.92.08,1.84.13,2.78.13h3.02c-.05-1.74-.05-1.95-.17-2.36l1.27.32c.17.05.23.08.23.18,0,.17-.34.44-.45.54-.02.2-.02.32-.02,1.32h1.27l.44-.64c.07-.08.15-.2.27-.2.1,0,.22.1.29.17l.7.64c.07.07.15.13.15.25,0,.15-.13.18-.25.18Zm-6.36,3.09c-.42,0-.47-.22-.6-.92-.05-.29-.15-.59-.18-.7-.22-.6-.35-.7-.45-.82l.05-.12c.87.35,1.78,1.26,1.78,1.93,0,.5-.39.64-.59.64Z"/>
        <path class="cls-5" d="m119.14,211.81c-.12,0-.4-.07-.84-.64-.87-1.11-.97-1.22-1.26-1.54-2.48.39-8.64,1.09-10.72,1.29-.17.32-.29.5-.45.5-.15,0-.18-.1-.25-.32l-.59-1.73c.22.12.54.27.96.32.96.1,1.9.1,2.85.07,1.24-2.01,2.48-4.86,2.48-5.32,0-.12,0-.29-.03-.47l1.76.96c.1.05.17.13.17.23,0,.25-.29.3-.87.37-2.08,2.87-2.31,3.17-3.22,4.23,1.02-.02,1.96-.07,2-.07.91-.05,4.9-.23,5.7-.27-.94-.92-1.86-1.54-2.3-1.84v-.08c1.49.47,5.17,2.13,5.17,3.62,0,.4-.35.69-.55.69Zm-1.93,1.66c0,1.14.05,2.7.07,3.54,0,.27.07,1.43.07,1.66,0,.62-.65.65-.69.65-.3,0-.39-.22-.39-.44,0-.17.03-.45.03-.59h-7.93c0,.52,0,.72-.1.89-.08.13-.3.37-.62.37-.34,0-.39-.22-.39-.42,0-.12.05-.65.05-.77.08-1.34.08-3,.08-4.36,0-.67.05-1.44-.15-2.16l1.46.81h7.24l.37-.44c.05-.07.15-.17.22-.17s.13.02.27.1l.92.55c.12.07.17.12.17.23,0,.17-.18.25-.69.54Zm-.89-.42h-7.95v4.85h7.95v-4.85Z"/>
      </g>
      <g>
        <path class="cls-5" d="m440.24,204.81l1.05-1.34c.23-.29.29-.35.44-.35.2,0,.46.23.55.29l1.42,1.34c.17.14.29.26.29.44,0,.26-.23.32-.44.32h-9.87c-1.77,0-2.41.06-3.14.17l-.46-1.05c1.36.12,2.76.17,4.12.17h6.04Zm-2.56-3.51l.99-1.31c.17-.23.26-.38.44-.38s.35.17.52.32l1.51,1.31c.17.17.29.26.29.46,0,.26-.23.29-.44.29h-5.6c-1.77,0-2.41.09-3.14.2l-.49-1.07c1.39.15,2.76.17,4.15.17h1.77Zm.03,7.17l.99-1.36c.2-.26.32-.38.46-.38.17,0,.44.23.52.32l1.51,1.36c.15.12.29.26.29.44,0,.26-.26.32-.46.32h-5.63c-1.77,0-2.41.06-3.14.2l-.46-1.07c1.36.12,2.76.17,4.12.17h1.8Zm.17,3.22l.84-1.16c.2-.29.32-.38.44-.38s.15.03.55.32l1.65,1.16c.15.09.32.23.32.44,0,.26-.26.32-.44.32h-5.69c-1.77,0-2.41.06-3.14.17l-.46-1.05c1.36.12,2.73.17,4.12.17h1.8Zm1.19,3.66l.9-1.13c.12-.15.38-.38.55-.38.15,0,.44.26.55.38l1.28,1.16c.06.06.15.17.15.41,0,.17-.35.55-.7.64,0,1.54,0,2.85.06,4.33,0,.26.09,1.34.09,1.57,0,1.13-.93,1.48-1.57,1.48-.55,0-1.07-.17-.99-1.45h-4.73c0,.2.06,1.05.06,1.22,0,1.36-1.1,1.51-1.63,1.51-.44,0-1.05-.23-1.05-.99,0-.14.09-.81.12-.93.03-.29.09-1.13.09-2.87,0-3.46-.09-5.17-.29-6.39l2.93,1.45h4.18Zm-4.41.7v5.6h4.73v-5.6h-4.73Zm17.97-7.87l1.31-1.65c.23-.29.29-.38.44-.38.12,0,.23.06.55.32l1.95,1.65c.14.12.29.26.29.44,0,.26-.23.32-.44.32h-6.3c.06,10.13.09,11.27.15,13.01.06,1.25.06,1.39.06,1.68,0,.7,0,1.97-1.77,1.97-1.02,0-1.07-.7-1.07-1.16,0-.73.15-3.92.17-4.56.06-1.8.06-2.73.09-10.95h-1.6c-1.77,0-2.41.06-3.14.2l-.46-1.07c1.36.12,2.76.17,4.12.17h1.05c-.12-6.59-.12-7.17-.84-9.29l3.63.87c.49.12.64.23.64.41,0,.38-.64.73-1.02.87v7.14h2.21Z"/>
        <path class="cls-5" d="m461.77,224.23h2.68c1.43,0,2.63-1.01,2.63-2.91v-24.03c0-1.11-.74-2.35-2.03-2.35h-3.55v-1.34c4.8-.18,7.75-1.52,8.4-1.8.18-.09,1.34-.6,1.43-.6.23,0,.28.18.28.46v29.75c0,1.38,1.11,2.81,3.09,2.81h2.21v1.48h-15.13v-1.48Z"/>
        <path class="cls-5" d="m494.65,204.26c4.06,0,8.03,3.83,8.03,10.42,0,7.7-5.4,11.9-9.83,11.9-4.66,0-10.75-4.57-10.75-15.87,0-9.13,4.43-19.51,12.73-19.51,3.6,0,6.5,1.98,6.5,4.71,0,1.66-1.11,2.81-2.68,2.81-1.48,0-2.91-1.11-2.91-2.86,0-.23.18-1.34.18-1.57,0-1.2-1.15-1.52-1.98-1.52-1.71,0-5.95,1.85-6.78,15.5,2.72-3.04,5.58-4.01,7.47-4.01Zm-1.75,20.71c3.69,0,4.84-5.72,4.84-9.73,0-4.71-1.61-8.67-4.66-8.67-.42,0-3.27,0-5.95,3.6.14,4.8.42,14.81,5.77,14.81Z"/>
        <path class="cls-5" d="m509.64,205.91c-1.77,0-2.41.06-3.14.2l-.49-1.07c1.77.14,3.83.17,4.15.17h7.23c0-.78-.03-4.41-.58-6.16l3.46,1.07c.29.09.35.2.35.38,0,.29-.29.49-.93.93.03.58-.03,3.22-.03,3.77h6.24l1.51-1.74c.17-.2.29-.35.44-.35.12,0,.35.14.55.29l2.47,1.74c.09.06.29.23.29.44,0,.26-.23.32-.44.32h-10.48c2.12,4.88,7.4,10.48,12.31,11.67v.17c-1.07.23-2.03.55-3.48,2.12-6.01-4.09-8.97-11.93-9.35-13.97h-.09c-.03,2.38-.03,3.28.03,11.32h1.25l1.16-1.37c.17-.2.29-.35.44-.35.12,0,.32.12.55.29l1.63,1.39c.15.12.29.23.29.44,0,.26-.23.29-.44.29h-4.88c0,1.22,0,3.28.06,4.44,0,.23.09,1.31.09,1.54,0,1.22-1.04,1.51-1.68,1.51-1.13,0-1.19-.52-1.19-1.07,0-.12.09-1.07.09-1.25.15-1.71.2-3.51.26-5.17h-1.83c-1.8,0-2.41.09-3.14.2l-.49-1.07c1.77.17,3.83.17,4.15.17h1.31c.03-2.85.06-5.69.09-8.57-5.37,8.91-11.56,10.89-12.31,11.09l-.09-.17c5.98-4.5,10.51-11.32,11.3-13.68h-6.62Z"/>
        <path class="cls-5" d="m538.06,212.27c-1.77,0-2.41.06-3.14.2l-.46-1.07c1.19.09,2.88.17,4.09.17l1.1-1.16c.12-.12.23-.2.35-.2s.26.09.38.17l1.42,1.16c.09.06.29.23.29.41,0,.35-.52.73-.93,1.05,0,.99-.06,6.01,0,6.3.52,2.87,6.36,2.9,8.3,2.9,3.05,0,7.78-.35,11.27-.99v.2c-1.31,1.31-1.6,2.38-1.77,3.28-13.12.32-16.35-.61-18.32-4.65-.26.26-.49.55-1.83,2.09-.2.26-1.31,1.36-1.51,1.6,0,.26,0,.78-.44.78-.17,0-.32-.12-.46-.29l-1.97-2.67c.64.03,2.35.09,4.44-1.05v-8.25h-.81Zm-1.57-12.28c3.37.52,4.94,2.44,4.94,3.98,0,.84-.58,1.51-1.39,1.51-1.05,0-1.31-.96-1.48-1.6-.64-2.27-1.63-3.25-2.06-3.66v-.23Zm10.48,14.98c-.03.84-.58,1.31-1.42,1.31-.52,0-.93-.26-.93-.84,0-.09.06-.64.06-.75.09-1.28.12-3.48.12-4.79,0-.84-.03-1.19-.06-1.63-.03-.2-.15-1.1-.2-1.39l2.61,1.42h2.38c0-.35-.03-1.77-.03-2h-2.7c-2,0-2.56.09-3.14.2l-.46-1.07c1.31.12,2.79.17,4.12.17h2.15c-.12-2.35-.32-3.02-.55-3.66l3.25.87c.12.03.38.12.38.38s-.26.49-.81.96v1.45h2.53l1.31-1.36c.23-.26.35-.38.46-.38.14,0,.23.06.52.29l1.74,1.39c.17.14.29.26.29.44,0,.29-.29.32-.44.32h-6.42v2h2.41l.93-.73c.15-.12.26-.2.41-.2.12,0,.23.12.41.23l1.25.96c.12.09.32.26.32.44,0,.23-.26.46-.67.87v2.41c0,.35.09,2.15.09,2.38,0,1.34-1.31,1.48-1.63,1.48-.81,0-.81-.64-.78-1.16h-2.67c0,.35.03,2.15.06,2.56h4.04l1.39-1.51c.2-.23.32-.35.46-.35.17,0,.32.09.55.29l1.71,1.51c.09.09.26.26.26.44,0,.32-.26.32-.44.32h-7.99c.03.23.06,1.77.06,1.92-.03,1.07-.78,1.57-1.6,1.57-.9,0-1.02-.61-1.02-.99,0-.12.15-2.18.17-2.5h-3.89c-2,0-2.56.12-3.14.2l-.46-1.07c1.31.12,2.79.17,4.12.17h3.4c.03-.64.09-1.71.09-2.56h-2.61Zm8.74-14.23l1.02-.67c.2-.14.32-.23.44-.23.15,0,.23.09.35.2l1.6,1.6c.17.17.35.35.35.61,0,.44-.49.52-.81.55-.26.03-.81.03-1.16.06-.84.41-1.86.9-2.56,1.28l-.15-.15c.52-1.05.87-1.92,1.13-2.56h-10.66c.03.67.2,3.48-1.95,3.48-.75,0-1.25-.58-1.25-1.19,0-.64.26-.93,1.28-2.06.81-.93,1.1-1.8,1.28-2.38h.15c.14.35.32.75.41,1.45h10.54Zm-6.13,10.51c0-.64-.03-1.57-.03-2.27h-2.58v2.27h2.61Zm.03,3.02v-2.32h-2.64v2.32h2.64Zm4.85-3.02v-2.27h-2.73v2.27h2.73Zm0,3.02v-2.32h-2.73l.06,2.32h2.67Z"/>
        <path class="cls-5" d="m574.21,206.23c.15.12.17.26.17.44,0,.2-.12.32-.26.38-.15.03-.9.12-1.07.17-.58.75-1.02,1.31-1.71,2.15.35.26.64.49.64.73,0,.12-.09.23-.14.29s-.26.23-.32.26c-.09.96-.17,1.74-.17,6.65,0,.9.03,5.31.03,6.33,0,1.89-1.45,1.89-1.6,1.89-.99,0-1.05-.78-1.05-1.34,0-.49.29-5.14.32-5.81.09-2.64.12-5.08.09-6.56-1.77,1.77-3.8,3.19-6.1,4.07l-.06-.12c2.67-2.47,6.16-6.74,7.81-9.87.17-.35.2-.41.73-1.83l2.7,2.18Zm-.99-5.4c.09.09.26.26.26.46,0,.23-.15.32-.41.35-.15.03-.78.03-.9.06-2.44,2.5-4.73,4.21-8.68,5.66l-.09-.23c2.32-1.63,5.46-4.97,6.59-6.94.26-.44.49-1.22.64-1.74l2.58,2.38Zm10.51,8.59v.15c0,1.54.15,10.6.15,12.57,0,.9,0,3.05-3.54,3.28-.29-1.51-1.16-2.24-2.87-3.31v-.2c.52.06,1.92.2,2.96.2s1.07-.29,1.07-1.16c0-2.9-.09-8.77-.17-11.53h-4.53c-2,0-2.58.09-3.14.17l-.46-1.05c1.31.12,2.79.17,4.12.17h7.49l1.54-1.77c.29-.35.32-.35.44-.35.17,0,.41.17.55.29l1.92,1.77c.17.15.29.26.29.44,0,.29-.29.32-.44.32h-5.37Zm-.2-7.87l1.25-1.51c.26-.32.32-.38.46-.38.17,0,.46.26.52.32l1.74,1.54c.17.14.29.23.29.44,0,.26-.26.29-.44.29h-9.12c-1.77,0-2.41.09-3.14.2l-.46-1.07c1.36.14,2.76.17,4.12.17h4.76Z"/>
      </g>
      <g>
        <path class="cls-5" d="m353.58,212.85h-6.86c0,1.61-.02,4.19-.02,5.8,0,.23,0,.49-.15.65-.17.18-.47.27-.64.27-.34,0-.4-.23-.4-.5,0-.07,0-.2.03-.59.05-.81.12-4.75.15-5.63h-4.56c-.35,0-1.36.03-2.16.18l-.4-.72c.87.07,1.93.13,2.8.13h4.33c.02-.65.03-1.24.03-1.44,0-.75-.02-4.38-.02-5.2h-3.71c-.34,0-1.36.03-2.16.18l-.39-.72c.86.08,1.91.13,2.78.13h8.55l.62-.8c.13-.18.2-.22.27-.22.08,0,.2.1.28.17l.96.82s.15.15.15.25c0,.18-.17.18-.25.18h-6.12c0,.85.02,5.08.02,6.04v.6h4.75l.72-.79c.17-.17.2-.22.27-.22.08,0,.23.12.3.18l.91.77s.17.15.17.27c0,.17-.18.18-.25.18Zm-11.03-1.89c.22,0,.52-.15.52-.64,0-.25-.15-.96-.89-1.78-.2-.22-.23-.25-1.69-1.43l-.12.08c.23.25.57.69,1.09,2.15.45,1.27.59,1.61,1.09,1.61Zm9.46-2.85c-.15.03-.2.03-.69.03-.94,1.41-1.51,1.96-3.27,3.52l-.08-.1c1.24-1.58,2.38-3.82,2.55-4.81l1.53.99c.1.05.13.08.13.2s-.08.15-.17.17Z"/>
        <path class="cls-5" d="m365.96,207c-.07,2.01-.02,7.9.05,10.13,0,.18.07.96.07,1.12,0,.6-.5.7-.7.7-.39,0-.39-.29-.39-.42,0-.05.03-.65.03-.74h-6.66c.02.45.02.62-.03.75-.03.08-.25.44-.65.44-.34,0-.42-.23-.42-.44,0-.17.07-.87.08-1.02.1-1.44.13-5.65.13-6.79,0-4.44-.07-4.8-.29-5.5l1.43.77h6.12l.49-.44s.18-.18.32-.18c.07,0,.12.03.27.15l.64.55c.15.12.2.22.2.32,0,.18-.34.37-.69.59Zm-.92-.59h-6.67v5.1h6.67v-5.1Zm0,5.5h-6.67v5.48h6.67v-5.48Z"/>
        <path class="cls-5" d="m373.1,218.54c-1.78,0-3.64-.96-3.64-3.04,0-1.69,1.26-2.5,3.04-3.49-.94-.47-2.58-1.31-2.58-3.19,0-1.76,1.56-3.15,3.42-3.15,1.68,0,3.05,1.11,3.05,2.67s-1.33,2.52-2.11,3.07c1.02.57,2.73,1.49,2.73,3.54s-1.51,3.59-3.91,3.59Zm-.17-6.32c-.92.64-2.23,1.54-2.23,3.24s1.11,2.57,2.53,2.57,2.78-.92,2.78-2.67c0-1.58-1.27-2.26-3.09-3.14Zm.27-6.04c-1.01,0-2.31.7-2.31,2.2,0,.82.37,1.27.97,1.73.5.39,1.21.77,1.95,1.07.47-.35,1.63-1.22,1.63-2.65,0-1.09-.75-2.35-2.23-2.35Z"/>
        <path class="cls-5" d="m383.92,206.71c-.02.34-.03.82-.03,1.56,0,1.84.07,4.21.13,6.07,0,.2.05,1.16.05,1.34,0,.15,0,.32-.18.49-.12.1-.29.15-.4.15-.4,0-.4-.13-.39-1.12h-2.38c0,.27.03,1.39.03,1.63,0,.4-.54.52-.65.52-.28,0-.32-.25-.32-.4,0-.1.02-.62.02-.92.07-2.26.08-4.51.08-6.76,0-2.41-.03-2.73-.17-3.91l1.21.6h1.98l.45-.42c.12-.1.2-.18.29-.18.1,0,.22.1.34.22l.37.37c.07.07.15.17.15.27,0,.13-.35.37-.57.5Zm-.81-.35h-2.41v3.92h2.41v-3.92Zm0,4.33h-2.41v4.11h2.41v-4.11Zm10.9-.32h-7.21c-.54,0-1.48.07-2.16.2l-.4-.72c.94.07,1.86.12,2.8.12h1.41v-2.57h-.72c-.52,0-1.48.07-2.16.2l-.39-.72c.92.07,1.86.12,2.78.12h.49c0-1.56-.05-1.91-.29-2.75l1.49.45c.15.05.25.08.25.25,0,.03,0,.12-.12.2-.22.15-.23.18-.37.29-.02.23-.03.67-.03,1.56h2.06l.45-.59c.05-.07.17-.2.25-.2.12,0,.23.08.32.17l.65.59c.08.08.17.15.17.25,0,.17-.15.18-.25.18h-3.66c-.02.87-.02,1.83-.02,2.57h2.97l.54-.67c.12-.15.18-.2.25-.2.1,0,.22.1.28.17l.7.69c.12.12.15.18.15.25,0,.17-.18.17-.25.17Zm-.02,3.32h-2.85c.02,1.16.05,2.75.05,3.94,0,.57-.05.92-.6,1.29-.57.39-1.11.5-1.32.55-.1-.34-.25-.77-1.58-1.43v-.13c.77.08,1.48.12,1.63.12.25,0,.79-.02.92-.2.08-.12.08-1.01.08-1.26,0-.57-.02-1.54-.05-2.88h-3.27c-.54,0-1.48.05-2.16.18l-.39-.72c.92.08,1.84.13,2.78.13h3.02c-.05-1.74-.05-1.95-.17-2.36l1.27.32c.17.05.23.08.23.18,0,.17-.34.44-.45.54-.02.2-.02.32-.02,1.32h1.27l.44-.64c.07-.08.15-.2.27-.2.1,0,.22.1.29.17l.7.64c.07.07.15.13.15.25,0,.15-.13.18-.25.18Zm-6.36,3.09c-.42,0-.47-.22-.6-.92-.05-.29-.15-.59-.18-.7-.22-.6-.35-.7-.45-.82l.05-.12c.87.35,1.78,1.26,1.78,1.93,0,.5-.39.64-.59.64Z"/>
        <path class="cls-5" d="m411.07,211.81c-.12,0-.4-.07-.84-.64-.87-1.11-.97-1.22-1.26-1.54-2.48.39-8.64,1.09-10.72,1.29-.17.32-.29.5-.45.5-.15,0-.18-.1-.25-.32l-.59-1.73c.22.12.54.27.96.32.96.1,1.9.1,2.85.07,1.24-2.01,2.48-4.86,2.48-5.32,0-.12,0-.29-.03-.47l1.76.96c.1.05.17.13.17.23,0,.25-.29.3-.87.37-2.08,2.87-2.31,3.17-3.22,4.23,1.02-.02,1.96-.07,2-.07.91-.05,4.9-.23,5.7-.27-.94-.92-1.86-1.54-2.3-1.84v-.08c1.49.47,5.17,2.13,5.17,3.62,0,.4-.35.69-.55.69Zm-1.93,1.66c0,1.14.05,2.7.07,3.54,0,.27.07,1.43.07,1.66,0,.62-.65.65-.69.65-.3,0-.39-.22-.39-.44,0-.17.03-.45.03-.59h-7.93c0,.52,0,.72-.1.89-.08.13-.3.37-.62.37-.34,0-.39-.22-.39-.42,0-.12.05-.65.05-.77.08-1.34.08-3,.08-4.36,0-.67.05-1.44-.15-2.16l1.46.81h7.24l.37-.44c.05-.07.15-.17.22-.17s.13.02.27.1l.92.55c.12.07.17.12.17.23,0,.17-.18.25-.69.54Zm-.89-.42h-7.95v4.85h7.95v-4.85Z"/>
      </g>
      <line class="cls-2" x1="317.94" y1="179.13" x2="317.94" y2="237.31"/>
      <line class="cls-4" x1="29.51" y1="93.84" x2="607.77" y2="93.84"/>
      <g>
        <line class="cls-1" x1="264.66" y1="129.86" x2="265.16" y2="129.86"/>
        <line class="cls-3" x1="269.18" y1="129.86" x2="463.15" y2="129.86"/>
        <line class="cls-1" x1="465.16" y1="129.86" x2="465.66" y2="129.86"/>
      </g>
    </g>
  </g>
</svg>