<?xml version="1.0" encoding="UTF-8"?>
<svg id="_レイヤー_2" data-name="レイヤー 2" xmlns="http://www.w3.org/2000/svg" viewBox="0 0 430 120.37">
  <defs>
    <style>
      .cls-1 {
        fill: none;
        stroke: #000;
        stroke-miterlimit: 10;
      }

      .cls-2 {
        stroke-width: 0px;
      }
    </style>
  </defs>
  <g id="_レイヤー_1-2" data-name="レイヤー 1">
    <g>
      <path class="cls-2" d="m1.87,1.99h14.91v1.81H3.67v39.31h-1.81V1.99Z"/>
      <path class="cls-2" d="m26.39,18.93c-.99,0-1.31-.63-1.99-2.12-.99-2.12-1.9-2.76-2.58-3.21l.09-.36c3.48.5,5.96,2.08,5.96,4.11,0,.77-.41,1.58-1.49,1.58Zm6.64-3.71l-2.98,8.77c-.9,2.71-2.21,5.56-2.89,7.95-.05.23-.14.63-.14,1.22,0,1.36.36,2.39,1.17,4.38.32.86.81,2.3.81,3.21,0,1.4-1.04,1.85-1.9,1.85-1.81,0-1.76-1.36-1.85-4.43-.09-3.48-.14-3.84-.63-4.65-.81-1.27-1.76-1.63-2.39-1.85v-.36c1.81-.36,2.3-.63,3.07-1.9,2.58-4.25,5.24-9.62,7.59-15.09l.41.14-.27.77Zm-1.67-7.41c-.81,0-1.4-.72-1.94-1.45-1.72-2.21-2.12-2.76-3.48-3.57l.09-.36c2.21.36,6.69.99,6.69,3.93,0,.81-.63,1.45-1.36,1.45Zm31.18,13.46h-22.86c-1.58,0-4.11.18-5.83.5l-1.04-1.94c3.16.27,5.69.32,6.19.32,0-4.61,0-6.69-.09-9.35-.09-2.12-.41-2.89-.77-3.66l3.66,1.22c.86.27.9.45.9.68,0,.5-.72.86-1.27,1.08-.04,1.63-.04,8.63-.04,10.08h6.01c0-10.48,0-11.43-.14-14.28-.09-2.35-.59-3.39-.95-4.11l4.25,1.31c.54.18.77.23.77.59s-.36.9-1.45,1.45c-.05,1.04-.05,3.57-.05,5.33h5.02l1.04-1.4c.23-.32.41-.54.63-.54.27,0,.68.32.86.45l1.76,1.4c.18.18.45.41.45.72,0,.41-.41.45-.72.45h-9.04c-.04,3.84-.04,6.51,0,8.63h8.4l1.13-1.76c.14-.18.41-.54.68-.54s.81.45.81.45l1.94,1.76c.18.18.45.41.45.68,0,.41-.41.5-.72.5Zm-25.17,19.74c.04.5.09,1.54-.68,1.54-.18,0-.36-.18-.59-.5l-2.71-3.48c.5.04,1.58.09,2.44-.18,2.08-.63,4.97-2.26,10.21-5.24l.23.32c-3.25,3.34-5.24,5.02-8.9,7.55Zm5.69-10.17c-.81,0-1.13-.54-1.9-1.81-1.17-1.9-2.48-3.8-4.38-4.97l.09-.32c2.67.77,7.68,2.58,7.68,5.6,0,.86-.63,1.49-1.49,1.49Zm15.32-4.25c-.27,0-.9-.09-1.22-.09-1.81,1.58-5.87,4.29-7.64,5.2l-.23-.27c1.08-1.04,3.3-3.48,4.97-5.74,1.22-1.58,1.22-1.94,1.27-2.85l3.3,2.39c.41.32.5.45.5.68,0,.59-.5.68-.95.68Zm.9,16.08c-.9,0-1.04-.23-2.53-2.35-.36-.54-3.61-4.65-6.1-6.19l.14-.36c2.44.72,9.99,3.25,9.99,7.36,0,1.17-.95,1.54-1.49,1.54Z"/>
      <path class="cls-2" d="m106.18,27.11c-7.36-2.17-14.14-9.04-17.21-14.5-.27.09-.36.09-1.31.23-5.78,6.96-14.46,13.96-20.92,15.99l-.18-.32c4.61-2.8,13.19-9.67,18.52-17.26.77-1.08.86-1.63.99-2.26l3.34,1.9c.27.18.5.36.5.72,0,.45-.23.63-.41.77,3.21,4.43,7.77,7.68,12.92,9.49,3.16,1.08,5.51,1.31,7.36,1.49v.27c-2.21.95-3.07,2.48-3.61,3.48Zm-24.58-21.51c-4.61,4.29-6.91,6.1-13.06,8.95l-.23-.41c3.39-2.44,6.55-5.24,9.31-8.4,1.9-2.21,2.17-3.07,2.39-4.16l3.3,2.62c.36.32.54.5.54.77,0,.59-.72.72-2.26.63Zm16.22,22.55c0,1.4.04,1.85.14,5.69.05,1.08.23,5.87.23,6.6,0,1.54-1.45,1.94-1.9,1.94-.36,0-1.17-.14-1.17-1.22,0-.41.09-.81.14-1.17h-14.95q.09.54.09.72c0,1.4-.9,1.72-1.9,1.72s-1.22-.59-1.22-1.17c0-.32.05-.68.05-.77.18-3.34.36-7.64.36-8.58,0-4.11-.18-5.83-.32-7.55l3.25,1.67h14.05l1.04-1.08c.36-.41.5-.5.77-.5.09,0,.18,0,.63.36l1.81,1.31c.45.32.45.5.45.63,0,.45-.09.5-1.54,1.4Zm-2.49-1.04h-15.14v11.79h15.14v-11.79Zm6.96-14.95c-1.17,0-1.67-.72-2.8-2.39-.5-.72-2.94-3.89-8.09-7l.14-.32c3.98.72,12.33,4.43,12.33,7.86,0,.99-.68,1.85-1.58,1.85Z"/>
      <path class="cls-2" d="m128.22,42.74h-14.91v-1.81h13.1V1.62h1.81v41.12Z"/>
      <path class="cls-2" d="m135.92,39.5c-.69,0-.98-.47-.98-1.08,0-.58.18-1.01.72-2.31.18-.43.79-1.95.61-3.25h.36c.04.14.11.33.65,1.88.14.4.33,1.01.33,1.92,0,.33,0,2.85-1.7,2.85Zm13.33-10.77c-.33,3.18-1.19,7.91-2.1,10.12-.51,1.26-1.26,2.17-3.61,3.11-.72-1.77-2.1-2.67-2.78-2.96v-.25c1.01.18,3,.29,3.14.29.76,0,1.26-.04,1.77-1.41,1.01-2.75,1.63-7.15,1.59-9.5h-8.74c.14,1.34-.83,1.59-1.19,1.59-.83,0-.83-.61-.76-1.55.29-2.89.14-14.81.11-15.18-.14-1.7-.18-1.77-.29-2.24l2.46,1.19h7.34l.79-.83c.4-.43.47-.43.61-.43s.18.04.65.36l1.19.83c.11.11.36.29.36.54,0,.36-.33.4-.54.4h-5.35v4.23h2.28l.65-.65c.4-.4.43-.47.61-.47.14,0,.22.04.61.4l.87.65c.14.14.36.33.36.54,0,.36-.33.4-.54.4h-4.84v4.3h2.42l.69-.76c.36-.4.4-.43.58-.43.22,0,.51.25.61.36l.76.76c.33.33.33.47.33.54,0,.33-.29.4-.54.4h-4.84v4.19h2.89l.79-.83c.36-.4.4-.43.58-.43s.18,0,.65.43l1.08,1.01c.11.07.29.29.29.51,0,.43-.51.61-.94.79Zm-7.12-15.93h-3.65v4.23h3.65v-4.23Zm0,5.09h-3.65v4.3h3.65v-4.3Zm0,5.17h-3.65v4.19h3.65v-4.19Zm-1.91,14.85c-.94,0-.94-.61-1.01-3.04-.04-1.05-.07-2.13-.51-2.85l.18-.11c.22.29,1.34,1.48,1.55,1.77.65.94,1.05,2.13,1.05,2.67,0,.87-.58,1.55-1.26,1.55Zm3.07-2.46c-.76,0-.87-.54-1.01-1.7-.11-.69-.29-1.88-.94-3.18l.14-.11c.29.33,1.7,1.48,1.91,1.77.72.79.94,1.55.94,1.99,0,.36-.22,1.23-1.05,1.23Zm2.13-2.75c-.69,0-.83-.4-1.19-1.73-.14-.54-.43-1.08-.79-1.59l.29-.14c1.73.98,2.57,1.45,2.57,2.49,0,.33-.18.98-.87.98Zm20.67,8.85c-1.34-1.3-3.87-3.94-5.46-8.27-1.16-3.22-1.73-6.61-1.73-10.01h-4.16c-.22,5.31-.33,8.24-2.1,12.29-1.77,4.12-3.83,5.71-4.73,6.4l-.29-.18c1.37-1.45,2.38-3.36,3.25-5.78,1.26-3.61,1.95-6.14,1.95-18.9,0-1.66-.11-3.36-.22-4.01,0-.33-.33-1.77-.36-2.1l2.89,1.37h8.06l1.08-1.08c.07-.07.33-.33.51-.33.14,0,.18.04.47.33l1.3,1.23c.22.18.29.33.29.47,0,.18-.11.25-.36.43-.14.07-.79.54-.9.61,0,1.91-.04,5.02.07,7.73,0,.36.11,1.92.11,2.28,0,1.01-.87,1.3-1.26,1.3-1.05,0-.98-.94-.9-2.06h-4.12c.61,10.33,7.55,15.46,9.76,16.4v.25c-1.55.29-2.35.9-3.14,1.63Zm-2.49-28.33h-8.85c.14,1.95.07,6.97.04,9.18h8.82v-9.18Z"/>
    </g>
    <g>
      <path class="cls-2" d="m264.25,43.26h-22.96v-1.56c3.35-7.17,7.86-11.97,13.07-17.29,3.64-3.7,7.86-8.33,7.86-14.69,0-3.01-1.04-7.98-7.63-7.98-5.03,0-7.46,2.72-7.46,4.57,0,.58.29,1.33.52,1.74.69,1.56.69,2.2.69,2.66,0,2.02-1.27,2.95-2.83,2.95-2.02,0-2.66-1.45-2.66-3.24,0-5.26,4.92-10.41,12.55-10.41,6.88,0,11.28,4.16,11.28,10.7,0,3.87-1.39,6.19-4.28,9.48-1.39,1.62-8.5,7.81-9.89,9.14-.75.75-5.03,5.09-7.75,10.06h11.57c6.82,0,8.62-4.97,9.66-7.81l1.1.29-2.83,11.39Z"/>
      <path class="cls-2" d="m296.87,32.15c0,6.59-5.73,12.2-13.76,12.2-7.11,0-11.57-4.45-11.57-8.44,0-1.85.93-3.41,2.83-3.41s2.78,1.68,2.78,3.12c0,.64-.52,2.31-.52,2.78,0,1.45,2.08,3.99,6.19,3.99,5.15,0,9.31-4.11,9.31-10.47,0-5.96-3.53-10.24-9.37-10.24-.29,0-1.85.17-2.2.17s-1.56,0-1.56-1.21c0-.87.69-1.04,1.5-1.04.29,0,1.85.17,2.2.17,3.24,0,8.56-2.72,8.56-9.37,0-5.61-3.88-8.44-7.69-8.44-3.47,0-5.44,2.2-5.44,3.93,0,.29.17,1.73.17,2.08,0,1.33-.64,3.41-2.72,3.41-1.68,0-2.37-1.56-2.37-3.06,0-4.28,4.97-8.33,10.87-8.33,6.48,0,11.74,4.11,11.74,9.89,0,4.16-3.3,9.08-10.12,10.7,8.62,1.16,11.16,7.58,11.16,11.57Z"/>
      <path class="cls-2" d="m311.13,17.98c-2.45,4.69-6.18,9.06-9.98,11.5l-.13-.23c1.92-2.15,5.06-6.35,7.07-10.01,1.22-2.25,1.35-3.11,1.39-4.1l2.51,1.65c.33.2.46.3.46.46,0,.43-.83.63-1.32.73Zm13.06,9.88s-.33.26-.73.56c-.07,1.19-.26,6.48-.36,7.54-.43,3.87-.93,7.01-6.08,7.37-.1-1.55-1.16-2.48-2.51-2.94v-.3c.5.07.73.1,2.64.3.46.07.86.07,1.09.07.56,0,1.88,0,2.28-1.09.83-2.18,1.12-8.59,1.12-11.01,0-.53,0-.6-.07-1.16h-7.4c-.1,2.05-.43,4.06-.96,6.02-1.52,5.62-5.59,8.92-11.37,10.38l-.07-.26c8.43-3.9,10.18-9.95,10.44-16.13h-.56c-1.16,0-3.01.17-4.26.4l-.76-1.42c2.48.2,4.86.23,5.49.23h9.25l.76-.69c.23-.2.33-.3.5-.3s.26.1.43.26l1.19,1.26c.1.1.26.3.26.46,0,.2-.1.3-.33.46Zm5.19.23c-4.86-2.18-8.2-6.74-10.05-12.2h-3.54c-.53,0-1.29.07-1.82.2l-.33-1.09c.59.03,1.85.1,2.35.1h3.14l.76-.83c.33-.36.46-.36.59-.36.23,0,.46.2.56.33l1.16,1.09c.13.13.26.26.26.5,0,.63-.93.76-2.21.89,1.95,5.32,8.36,8.86,12.26,8.99v.26c-1.69.4-2.45,1.32-3.14,2.12Z"/>
      <path class="cls-2" d="m347.59,44.36c-1.65-1.32-7.7-6.97-7.7-16s6.05-14.67,7.7-16l.33.46c-5.39,5.59-6.58,11.7-6.58,15.53s1.19,9.95,6.58,15.53l-.33.46Z"/>
      <path class="cls-2" d="m364.6,40.92h-13.12v-.89c1.92-4.1,4.49-6.84,7.47-9.88,2.08-2.12,4.49-4.76,4.49-8.4,0-1.72-.59-4.56-4.36-4.56-2.88,0-4.26,1.55-4.26,2.61,0,.33.17.76.3.99.4.89.4,1.26.4,1.52,0,1.16-.73,1.69-1.62,1.69-1.16,0-1.52-.83-1.52-1.85,0-3.01,2.81-5.95,7.17-5.95,3.93,0,6.44,2.38,6.44,6.11,0,2.21-.79,3.54-2.45,5.42-.79.93-4.86,4.46-5.65,5.22-.43.43-2.88,2.91-4.43,5.75h6.61c3.9,0,4.92-2.84,5.52-4.46l.63.17-1.62,6.51Z"/>
      <path class="cls-2" d="m376.01,41.55c-4.66,0-7.44-5.95-7.44-12.69s2.71-12.66,7.44-12.66,7.44,5.95,7.44,12.66-2.78,12.69-7.44,12.69Zm0-24.42c-2.51,0-4.99,3.14-4.99,11.73s2.55,11.77,4.99,11.77c2.31,0,4.99-2.71,4.99-11.77s-2.68-11.73-4.99-11.73Z"/>
      <path class="cls-2" d="m396.26,17.98c-2.45,4.69-6.18,9.06-9.98,11.5l-.13-.23c1.92-2.15,5.06-6.35,7.07-10.01,1.22-2.25,1.35-3.11,1.39-4.1l2.51,1.65c.33.2.46.3.46.46,0,.43-.83.63-1.32.73Zm13.06,9.88s-.33.26-.73.56c-.07,1.19-.26,6.48-.36,7.54-.43,3.87-.93,7.01-6.08,7.37-.1-1.55-1.16-2.48-2.51-2.94v-.3c.5.07.73.1,2.64.3.46.07.86.07,1.09.07.56,0,1.88,0,2.28-1.09.83-2.18,1.12-8.59,1.12-11.01,0-.53,0-.6-.07-1.16h-7.4c-.1,2.05-.43,4.06-.96,6.02-1.52,5.62-5.59,8.92-11.37,10.38l-.07-.26c8.43-3.9,10.18-9.95,10.44-16.13h-.56c-1.16,0-3.01.17-4.26.4l-.76-1.42c2.48.2,4.86.23,5.49.23h9.25l.76-.69c.23-.2.33-.3.5-.3s.26.1.43.26l1.19,1.26c.1.1.26.3.26.46,0,.2-.1.3-.33.46Zm5.19.23c-4.86-2.18-8.2-6.74-10.05-12.2h-3.54c-.53,0-1.29.07-1.82.2l-.33-1.09c.59.03,1.85.1,2.35.1h3.14l.76-.83c.33-.36.46-.36.59-.36.23,0,.46.2.56.33l1.16,1.09c.13.13.26.26.26.5,0,.63-.93.76-2.21.89,1.95,5.32,8.36,8.86,12.26,8.99v.26c-1.69.4-2.45,1.32-3.14,2.12Z"/>
      <path class="cls-2" d="m420.62,43.89c5.39-5.59,6.58-11.7,6.58-15.53s-1.19-9.95-6.58-15.53l.33-.46c1.65,1.32,7.7,7.01,7.7,16s-6.05,14.67-7.7,16l-.33-.46Z"/>
    </g>
    <g>
      <path class="cls-2" d="m10.46,76.95v17.34h-.84v-18.2h6.64v.86h-5.8Z"/>
      <path class="cls-2" d="m27.18,87.21c0,2.3-.42,3.78-2.08,3.88-.18-.76-.56-1.04-1.1-1.46l.06-.12c.32.06.84.1,1.18.1.32,0,.52,0,.62-.84.12-.92.12-1.02.1-1.94h-2.22c.02.86.1,4.98.1,5.92,0,.1-.02.62-.02.74,0,.7-.62.82-.84.82-.34,0-.52-.2-.52-.56,0-.08.02-.22.02-.32.02-.24.02-2.22.02-2.76,0-.5.02-1.42.04-1.96-.5.76-2.56,3.26-4.56,4.2l-.08-.12c1.66-1.7,3.46-3.82,4.44-5.96h-1.9c-.04.3-.22,1.3-.3,1.44-.12.2-.44.38-.74.38-.32,0-.54-.2-.54-.44,0-.06.52-2.3.58-2.56.42-2.06.44-2.6.46-3.3l1.34,1h1.34v-2.58h-1.08c-.14,0-1.42,0-2.34.18l-.4-.78c.98.08,2.08.12,3.06.12h1.98c.22-.36,1.3-2.62,1.28-4.04l1.6.74c.2.1.3.18.3.32,0,.26-.36.4-.7.44-.68.86-1.78,2.24-2.08,2.54h1.3l.42-.42c.12-.12.2-.18.28-.18s.18.06.32.16l.62.44c.14.1.22.22.22.32,0,.16-.08.3-.54.54.02.22.02.34.04,1.34,0,.22.06,1.3.06,1.46,0,.66-.68.74-.9.74-.44,0-.44-.16-.42-.86h-1.86v2.52h2l.5-.58c.12-.14.22-.18.3-.18.12,0,.22.04.36.18l.54.48c.14.12.24.26.24.36,0,.14-.12.28-.5.6Zm-5.54-7.46c-.46,0-.66-.4-.8-.92-.26-1.06-.36-1.4-1.04-2.3l.08-.12c.84.32,2.5,1.28,2.5,2.5,0,.62-.44.84-.74.84Zm-.62,4.08c-.18.68-.26,1.2-.5,2.52h2.04l.02-2.52h-1.56Zm4.58-3.06h-1.84c-.02.38-.02,2.18-.02,2.58h1.86v-2.58Zm1.78,12.2c-.42,0-.66-.28-.66-.7,0-.22.04-.3.4-1,.16-.3.38-.98.38-1.58l.1-.02c.18.26.7,1.12.7,2.06,0,.56-.32,1.24-.92,1.24Zm8.88-6.88h-6.92v1.86h4.8l.46-.54c.12-.16.22-.24.32-.24.08,0,.2.06.36.18l.7.5c.16.1.26.22.26.36,0,.22-.24.38-.6.56-.5,4.32-1.52,5.56-3.84,5.56-.18-1.02-.7-1.56-.98-1.84l.02-.12c.9.3,1.58.34,1.88.34.26,0,.54-.06.84-.64.52-.98.68-2.74.76-3.64h-4.98c0,.52-.4.76-.86.76-.04,0-.5,0-.5-.38,0-.14.06-.68.06-.78.04-2.9.06-5.8.06-8.72,0-.66,0-.78-.1-1.98l1.56.98h.46c.54-1.38.5-1.9.46-2.5l1.48.68c.22.1.32.22.32.32,0,.2-.12.34-.58.32-.26.26-.78.78-1.24,1.18h2.82l.48-.52c.12-.12.2-.2.3-.2.08,0,.18.06.32.16l.72.52c.12.1.18.18.18.3,0,.26-.36.5-.64.64.02.34,0,.54.06,2.36,0,.32.12,1.92.12,2.02,0,.68-.68.76-.88.76-.52,0-.54-.36-.54-.72h-4.06v1.98h4.66l.64-.8c.14-.18.22-.26.32-.26.08,0,.2.08.38.22l1.04.8c.12.1.2.22.2.32,0,.14-.12.2-.32.2Zm-6.64,6.42c-.46,0-.62-.34-.62-.76,0-.18.1-1,.1-1.18,0-.42-.04-.58-.12-.82l.1-.02c1.18.74,1.26,1.8,1.26,1.96,0,.14-.06.82-.72.82Zm3.78-13.72h-4.06v1.96h4.06v-1.96Zm0,2.44h-4.06v1.92h4.06v-1.92Zm-2.18,10.46c-.4,0-.52-.28-.52-.6,0-.9,0-1.32-.22-1.88l.1-.06c.68.48,1.3,1.1,1.3,1.82,0,.44-.3.72-.66.72Zm1.7-.74c-.46,0-.52-.34-.58-.62-.2-.92-.22-1.02-.5-1.42l.06-.1c.98.26,1.56.94,1.56,1.52,0,.22-.12.62-.54.62Z"/>
      <path class="cls-2" d="m47.18,92.27l-.02-.16c4.28-1.52,6.28-4.34,6.28-7.38,0-3.38-2.72-5.38-6.2-5.38-.5,0-.6.02-.82.12,1.08.58,1.38,1.32,1.38,1.6,0,.22-.06.36-.68,1.66-1.28,2.74-3.16,6.76-4.52,7.88-.14.1-.38.22-.64.22-.46,0-.64-.26-1.24-1.1-.14-.2-.94-.94-1.08-1.12-.22-.32-.56-1.04-.56-2.04,0-4.3,3.64-7.84,8.52-7.84,3.88,0,7.4,2.26,7.4,6.28s-3.24,6.86-7.82,7.26Zm-1.58-12.68c-2.2.36-5.26,3.2-5.26,6.88,0,1.36.78,2.86,1.56,2.86.54,0,1.32-1.42,1.66-2.1,2-4.02,2.66-5.32,2.66-6.36,0-.5-.24-.92-.62-1.28Z"/>
      <path class="cls-2" d="m67.2,81.61c.76,1.82,2.5,4.22,3.96,5.44.98.84,3.26,2.26,4.96,2.56v.14c-1.38.26-1.78.74-2.38,1.48-5.2-2.98-6.78-9.32-6.8-9.36,0,1.12-.02,2.6,0,4.78,0,1.04.24,6.4.24,6.5,0,1.04-.84,1.06-1.06,1.06-.76,0-.76-.4-.76-.68,0-.38.12-2.16.14-2.58.04-1.24.06-1.9.12-7.76-.44.9-1.14,2.24-2.7,4.04-1.84,2.12-3.2,3.02-5.42,4.2l-.04-.1c2.18-1.92,5.6-5.48,7.48-9.72h-4.42c-.54,0-1.48.02-2.36.18l-.4-.8c1.02.08,2.06.14,3.08.14h4.78c-.06-3.44-.2-4.18-.5-5.26l2.28.58c.1.02.26.06.26.24,0,.24-.22.38-.68.64,0,.54-.02,3.2-.02,3.8h5.08l.92-1.1c.08-.08.2-.24.32-.24s.28.14.38.22l1.2,1.08c.1.08.2.16.2.3,0,.2-.2.22-.32.22h-7.54Z"/>
      <path class="cls-2" d="m77.73,94.13v-.86h5.8v-17.34h.84v18.2h-6.64Z"/>
      <path class="cls-2" d="m88.25,92.61c-.42,0-.66-.3-.66-.74,0-.38.68-1.96.76-2.3.08-.34.06-.62.04-.86l.18-.02c.34.56.74,1.32.74,2.38,0,.54-.16,1.54-1.06,1.54Zm7.38-5.82c-.28,3.12-.9,4.8-1.22,5.52-.46,1-1.18,1.4-2.16,1.66-.26-1.24-1.22-1.78-1.64-1.98l.04-.14c1.12.22,1.88.22,1.94.22.4,0,.56-.04.78-.52.58-1.3.88-3.9.88-5.22h-4.46c.02.32-.02.98-.86.98-.4,0-.5-.2-.5-.54,0-.12.04-.6.04-.7.08-1.26.1-4.74.1-6.12,0-.7,0-2.14-.2-3.32l1.5.74h3.72l.48-.58c.14-.16.24-.26.34-.26.12,0,.22.1.4.22l.78.58c.14.1.22.24.22.32,0,.14-.18.2-.32.2h-2.76v2.32h.86l.38-.48c.16-.2.22-.28.32-.28s.22.1.4.22l.64.48c.1.08.22.18.22.32,0,.18-.18.22-.32.22h-2.5v2.3h.88l.48-.56c.14-.16.22-.24.32-.24.12,0,.2.06.36.2l.6.56c.12.1.18.24.18.32,0,.12-.12.2-.3.2h-2.52v2.42h1.34l.52-.58c.12-.14.22-.24.32-.24s.22.08.4.26l.78.72c.08.08.14.16.14.26,0,.24-.46.46-.6.52Zm-5.06,4.96c-.66,0-.66-.84-.66-1.26,0-1.24,0-1.66-.22-2.2l.12-.06c.14.16.86.88.96,1.06.48.74.56,1.26.56,1.54,0,.58-.44.92-.76.92Zm.96-13.9h-1.76v2.32h1.76v-2.32Zm0,2.8h-1.76v2.3h1.76v-2.3Zm0,2.78h-1.76v2.42h1.76v-2.42Zm.7,7.02c-.52,0-.58-.34-.74-1.48-.06-.44-.16-.96-.38-1.46l.08-.06c1.06.92,1.66,1.46,1.66,2.24,0,.34-.2.76-.62.76Zm1.12-1.48c-.4,0-.48-.32-.7-1.12-.16-.52-.32-.74-.46-.92l.12-.12c.94.44,1.54.86,1.54,1.52,0,.32-.18.64-.5.64Zm13.24,3.68c-.96.06-1.66.9-1.9,1.18-2.24-1.82-3.9-5.26-3.9-9.98h-2.14c-.2,4.92-1.18,7.94-4.1,10.04l-.1-.08c2.8-3.04,2.9-8.62,2.9-12.78,0-2.48-.14-3.14-.34-4.24l1.9.84h4.12l.58-.56c.12-.12.22-.18.32-.18s.18.04.34.18l.8.68c.12.1.18.2.18.32,0,.14-.38.42-.62.58-.02.34-.04.72-.04,1.26,0,.64.12,3.44.12,4.06s-.62.8-.94.8c-.64,0-.6-.44-.58-.92h-2.04c.46,4.36,3.34,7.82,5.46,8.68l-.02.12Zm-3.38-14.54h-4.44c-.02.76-.1,4.44-.1,5.26h4.54v-5.26Z"/>
      <path class="cls-2" d="m119.43,92.03c-.28,0-1.02-.46-1.76-.94-1.36-.86-2.02-1.08-2.68-1.24-.12,1.14-.48,2.9-3.34,2.9-1.5,0-3.6-.74-3.6-2.1,0-1.04,1.08-1.74,1.76-1.94,1.54-.48,2.98-.42,3.76-.38-.12-.76-.26-1.86-.26-4.42,0-.4.02-4.22.02-4.36,0-1.2-.24-1.64-1.68-1.9.18-.2.5-.56,1.26-.56.7,0,2.18.54,2.18,1.32,0,.14-.18.9-.24,1.1-.08.34-.16.7-.28,1.6.86-.06,1.62-.3,3.18-.8.18-.06.36-.1.6-.1.28,0,1.1.12,1.1.66,0,.28-.12.42-.28.52-.46.32-2.2.74-3.36.74-.48,0-.94-.16-1.32-.34-.02.36-.08,1.1-.08,2.14,0,2.38.3,4,.44,4.64,1.9.34,5.16,1.38,5.16,2.72,0,.4-.16.74-.58.74Zm-7.48-2.68c-1.04,0-3.12.22-3.12,1.22,0,.8,1.44.98,2.3.98,2.4,0,2.48-1.34,2.48-2.04-.4-.08-.84-.16-1.66-.16Z"/>
      <path class="cls-2" d="m128.57,92.61c-.66.6-1.92,1.56-2.84,1.76l-.04-.1c3.46-2.5,4.48-6.36,4.48-9.94,0-1.32-.08-4.96-1.58-4.96-.8,0-1.36.82-1.54,1.08-.8,1.16-2.12,4.22-2.12,6.62,0,.22.14,1.24.14,1.44,0,.22-.08.56-.48.56-1.18,0-1.54-2.34-1.54-4.14,0-1.52.42-4.16.7-5.78.02-.1.08-.48.08-.76,0-1.08-.74-1.54-1.16-1.82.18-.04.52-.14.9-.14.92,0,1.76.74,1.76,1.44,0,.32-.12.58-.24.88-.62,1.44-1.12,3.46-1.12,5.36,0,.3,0,1.44.2,1.44.12,0,.16-.1.18-.2.46-1.64,2.18-6.76,4.54-6.76,2.5,0,2.76,3.92,2.76,5.92,0,3.68-.84,6.06-3.08,8.1Z"/>
      <path class="cls-2" d="m144.57,86.93c1.8,2.1,5,4.04,8.6,4.2v.16c-1.18.3-1.8,1.1-2.14,1.82-.62-.2-5.08-2.5-6.82-6.08.02.9.04,4.84.08,5.64,0,.1.02.58.02.68,0,.7-.64.98-1.12.98-.42,0-.52-.3-.52-.56,0-.06,0-.22.02-.44.1-1.38.22-3.1.22-5.44-1.84,2.2-5.48,4.58-8.44,5.28l-.06-.16c3.02-1.22,7.18-5.42,7.58-6.08h-2.68c0,.68-.14,1.18-1.04,1.18-.42,0-.5-.2-.5-.44,0-.22.1-1.2.1-1.4.04-.66.06-1.74.06-2.82,0-1.82-.06-2.46-.26-3.26l1.86.82h3.4c0-.46-.02-1.56-.04-2.06h-5.44c-.36,0-1.4,0-2.36.18l-.4-.8c1.48.12,2.78.14,3.08.14h5.1c-.06-1.22-.12-1.94-.4-2.6l2.08.54c.18.04.34.12.34.28,0,.22-.48.54-.66.66v1.12h5.44l.86-1c.14-.16.22-.26.32-.26s.22.1.36.22l1.22,1c.14.12.2.2.2.3,0,.18-.18.22-.3.22h-8.12v2.06h3.42l.66-.58s.16-.14.24-.14c.1,0,.22.08.28.14l.9.72c.12.1.2.2.2.32,0,.18-.12.26-.64.58-.02.44-.02,1.02.04,2.5.02.28.12,2.42.12,2.6,0,.64-.58.84-1.02.84-.54,0-.52-.42-.48-1.06h-3.36Zm-5.28-5.44v2.16h3.62l.02-2.16h-3.64Zm3.62,4.96v-2.32h-3.62v2.32h3.62Zm5.02,0v-2.32h-3.72c0,.32-.02,1.96-.02,2.32h3.74Zm0-2.8v-2.16h-3.72v2.16h3.72Z"/>
      <path class="cls-2" d="m155.36,93.01c-.52,0-.86-.46-.86-.86,0-.5.44-.84,1.06-1.32.88-.7,1.34-1.54,1.54-2.14h.12c.02.24.04.5.04.86,0,1.86-.78,3.46-1.9,3.46Zm15.18-11.5c-.26.18-.34.24-.44.32.04,2.02.06,2.8.1,3.6,0,.18.06.92.06,1.08,0,.64-.56.84-.92.84-.62,0-.62-.4-.62-.64v-.26h-9.26c-.36,0-1.38,0-2.36.18l-.38-.8c1.26.1,2.52.14,3.06.14h8.94v-2.12h-8.96c-.36,0-1.4,0-2.36.18l-.4-.78c1.24.1,2.48.12,3.08.12h8.64v-2.04h-10.98c-.66.54-1.44,1.1-2.8,1.82l-.06-.08c2.68-2.56,4.46-5.28,4.9-6.18.2-.42.22-.64.28-1.12l1.76.86c.1.04.28.18.28.38s-.42.34-.74.42c-.1.12-.3.36-.46.54h4.46l.72-.6c.12-.1.26-.22.34-.22.12,0,.32.14.42.22l.94.74c.1.08.2.16.2.3,0,.24-.16.26-.76.4-.24.06-.38.16-2.04,1.32-.34.24-.78.54-1.06.72h4.34l.58-.56c.1-.1.24-.24.32-.24.1,0,.22.12.3.18l.86.68c.12.1.22.2.22.32,0,.1-.08.18-.2.28Zm-10.08-3.06c-.28.3-1.88,2.08-2.18,2.4h5.36c.22-.3,1.16-1.74,1.48-2.4h-4.66Zm7.16,15.14c-.68.14-4.56.14-5.72.14-2.2,0-2.36-.42-2.36-2.32,0-3.28,0-3.42-.16-4.12l1.88.6c.12.04.32.16.32.28,0,.1-.08.18-.16.24-.06.06-.38.3-.44.36,0,.26-.04,2.94,0,3.26.04.36.44.38.92.38.9-.02,4.04.02,4.48-.14.24-.08.46-.24.6-.6.24-.62.5-1.78.6-2.26h.14c.12.66.38,2.16.76,2.5.32.3.44.42.44.66s-.22.82-1.3,1.02Zm-2.8-3.24c-.54,0-.64-.24-1.12-1.4-.12-.28-.46-1.08-1.06-1.6l.08-.12c2.62.74,2.86,1.78,2.86,2.08,0,.46-.18,1.04-.76,1.04Zm6.98,1.62c-.56,0-.62-.14-1.18-1.4-.4-.92-.68-1.52-1.38-2.22l.02-.04c1.08.18,3.38,1.38,3.38,2.78,0,.54-.38.88-.84.88Z"/>
      <path class="cls-2" d="m188.17,78.97c-3.22,3.38-5.12,5.08-7.66,6.28-1.12.54-3.66,1.66-5.84,1.86l-.08-.16c1.68-.5,5.78-2.44,8.12-4.42,2.64-2.24,3.92-4,4.14-4.34h-4.54c-.68.74-1.1,1.16-1.64,1.68,1.36.36,2.46.66,2.46,1.84,0,.62-.5.86-.8.86-.56,0-.76-.46-1.14-1.36-.26-.64-.5-.9-.72-1.14-.88.8-2.58,2.24-5.22,3.3l-.1-.14c2.98-1.96,6.58-5.7,7.06-7.74l1.76.76c.14.06.24.16.24.28,0,.2-.16.3-.84.4-.22.28-.34.42-.64.78h4.2l.78-.58c.12-.08.2-.16.28-.16s.16.06.26.14l1.16.86c.1.08.24.24.24.34,0,.22-.22.36-1.48.66Zm2.76,7.38c-1.98,2.38-4.36,4.38-5.9,5.34-2.34,1.46-6,2.7-9.26,2.8l-.04-.18c2.96-.66,6.4-1.62,9.6-4.28,1.72-1.44,3.34-3.14,4.18-4.58h-4.46c-.84.76-1.64,1.4-2.5,1.98.16.04,2.68.72,2.68,2.08,0,.52-.42.94-.9.94s-.52-.14-1-1.3c-.2-.48-.36-.68-1.06-1.54-1.32.9-3.68,2.14-6.32,2.66l-.14-.14c3.3-1.28,6.18-3.38,8.64-5.9,1.3-1.36,1.46-1.76,1.66-2.3l1.62.86c.12.06.24.14.24.28,0,.26-.36.3-.9.34-.32.38-.7.82-1.5,1.56h4.04l.62-.46c.08-.06.2-.18.3-.18s.16.08.26.16l1.2.98c.1.08.2.18.2.32,0,.18-.14.3-1.26.56Z"/>
      <path class="cls-2" d="m209.38,78.39l.64-.94c.1-.16.18-.26.3-.26s.22.08.42.24l1.16.92c.1.08.2.18.2.3,0,.14-.12.22-.3.22h-13.7c.02.4.06,2.6.06,2.76,0,5.86-.66,8.96-3.3,11.32l-.12-.08c.76-1.1,1.24-2.38,1.5-3.7.4-2.04.52-4.12.52-6.2,0-.74-.04-4.14-.34-5.62l1.92,1.04h5.38c-.04-1.32-.06-1.72-.36-2.6l2,.52c.16.04.26.1.26.26s-.14.34-.58.56c.02.22.02,1.06,0,1.26h4.34Zm-10.46,8.84c2.36,0,7.96-1.14,9.3-1.88l1.02.8c.1.08.16.18.16.3s-.06.3-.34.3c-.1,0-.3-.04-.46-.06-1.12.22-2.08.4-3.34.58v1.54h2.14l.58-.8c.12-.16.2-.26.32-.26s.24.08.4.22l.88.8c.1.1.18.2.18.34,0,.12-.12.18-.28.18h-4.22v1.4h4.66l.64-.9c.12-.18.22-.28.32-.28.14,0,.28.1.44.24l1.04.9c.12.1.2.22.2.32,0,.12-.1.2-.28.2h-7.02c0,.24.02,1.3,0,1.5-.08,1.02-1.4,1.5-2.04,1.6-.12-.68-.5-1.36-1.66-1.78l.02-.14c.24.02,1.3.08,1.52.08.9,0,.9-.12.92-1.26h-4.02c-.5,0-1.46.02-2.36.18l-.48-.78c1.36.1,2.8.12,3.08.12h3.78v-1.4h-2.3c-.5,0-1.46.02-2.36.18l-.48-.8c1.38.12,2.8.14,3.08.14h2.06v-1.38c-.92.1-1.82.16-2.74.16-.78,0-1.6-.06-2.36-.2v-.16Zm-.2-6.34c.62.06,1.28.12,2.94.14-.04-.86-.08-1.26-.28-1.9l1.58.4c.14.04.24.12.24.24,0,.16-.1.24-.44.4,0,.34-.02.46-.02.86h.72l.28-.46c.12-.2.18-.28.3-.28.1,0,.22.1.36.24l.46.46c.1.1.2.24.2.34,0,.08-.1.18-.32.18h-2v.4c.76.1,1.82.6,1.82,1.4,0,.28-.14.7-.6.7-.42,0-.5-.24-.7-.9-.06-.18-.22-.7-.52-1,.02.5.1,3.12.1,3.18,0,.24,0,.8-.76.8-.5,0-.54-.28-.54-.66,0-.06.12-2.68.14-3.18-.2.3-1.36,2.08-3.26,3.14l-.1-.14c.94-.94,2.18-2.9,2.54-3.72-1.04.04-1.5.12-1.76.16l-.38-.8Zm6.62-.04c.44.04.8.08,1.8.12-.06-1.22-.14-1.5-.24-1.86l1.5.38c.18.04.34.12.34.24,0,.16-.18.34-.48.5-.02.18,0,.4,0,.76h1.9l.42-.66c.1-.16.2-.26.32-.26s.22.08.38.22l.74.66c.12.1.18.2.18.3,0,.14-.1.22-.28.22h-3.26c1.48,1.52,3.42,2.26,4.6,2.34v.12c-.64.2-1.22.66-1.54,1.22-1.84-1.08-2.98-2.8-3.38-3.68h-.08c0,.5.06,2.62.06,3.1,0,.26,0,.74-.78.74-.36,0-.46-.2-.46-.56,0-.18.06-.98.06-1.14.02-.52.02-.86.02-1.12-.2.26-1.38,1.84-3.32,2.7l-.04-.14c1.18-.98,2.44-2.9,2.8-3.52-.36.04-.6.06-.86.12l-.4-.8Z"/>
      <path class="cls-2" d="m219.26,78.35c.04,1.56.06,2.88.06,3.64,0,4.2-.06,9.6-4.18,11.68l-.08-.1c2-2.1,2.84-4.52,2.84-10.7,0-1.76-.04-4.38-.3-6.04l2.06.54c.26.06.4.2.4.36s-.14.36-.8.62Zm5.34.3c-.02.58-.04,1.7-.04,3.44,0,2.52.16,6.54.16,9.06,0,.98-.9.98-1.06.98-.56,0-.58-.38-.58-.64,0-.2.1-2.04.1-2.34.04-1.4.08-2.58.08-6.34,0-1.62,0-4.16-.3-5.56l1.94.5c.18.04.34.16.34.28,0,.18-.12.34-.64.62Zm6.12-.46c-.06,2.72-.06,4.5-.06,5.66,0,1.38.14,7.54.14,8.8,0,.32,0,1.14-1.08,1.14-.62,0-.62-.46-.62-.64,0-.4.08-2.12.1-2.48.06-2.34.08-4.68.08-7,0-3.42-.02-4.66-.12-5.64-.06-.72-.14-1-.24-1.38l2.14.66c.22.06.34.18.34.3,0,.24-.2.38-.68.58Z"/>
      <path class="cls-2" d="m234.76,93.21c1.12-2.74,1.46-5.88,1.46-6.14,0-.22-.02-.46-.06-.68l1.76.66c.08.04.22.1.22.26,0,.18-.06.22-.52.54-.42,1.28-1.3,3.82-2.72,5.42l-.14-.06Zm7.96-13.82c.08.06.14.14.14.28,0,.24-.2.3-.84.44-.68.92-1.74,2.32-3.52,4.32.1-.02,1.46-.06,2.5-.16-.14-.34-.38-.84-.72-1.42l.1-.14c1.08.46,2.44,1.34,2.44,2.38,0,.46-.28.9-.8.9s-.54-.16-.92-1.44c-.3.1-.64.2-1.42.42.02,2.76,0,4.18.04,5.88,0,.36.06,1.9.06,2.22,0,.3,0,1.1-.9,1.1-.56,0-.56-.46-.56-.62,0-.92.16-6.96.18-8.28-.5.12-1.14.28-2.56.56-.28.3-.3.34-.46.34-.14,0-.24-.14-.28-.28l-.42-1.7c.44.12.96.3,1.86.3.12,0,1.2-.04,1.36-.06,1.32-1.96,3.02-4.94,3-6.16l1.72,1.12Zm-7.18-.2c.42.04,1.2.12,2.08.64,0-.02,1-2.64.86-3.92l1.92,1c.12.06.2.16.2.26,0,.2-.18.28-.88.56-.72.98-.98,1.28-1.82,2.28.26.2.88.66.88,1.42,0,.54-.36.92-.76.92-.5,0-.68-.42-.82-.72-.22-.52-.76-1.5-1.72-2.3l.06-.14Zm4.62,7.72c1.34.48,2.36,1.42,2.36,2.24,0,.46-.26.86-.76.86-.56,0-.66-.32-.96-1.4-.16-.56-.4-1.18-.76-1.58l.12-.12Zm3.1.34c-.5,0-.84.04-1,.08l-.28-.64c.74.06,1.34.08,1.52.08h.62l.38-.46s.14-.16.26-.16c.08,0,.22.1.3.18l.8.76c.08.08.22.2.22.34,0,.16-.06.24-.66.46-.96,2.1-2.44,4.02-4.68,5.12l-.04-.12c2.32-2.22,3.08-4.48,3.46-5.64h-.9Zm4.16-2.62l.36.12c.14.04.44.16.44.36,0,.24-.36.44-.52.52,0,.74.78,2.18,1.16,2.74,1.14-1.04,1.84-1.9,2.16-2.72l1.38,1.38s.1.16.1.26c0,.04-.02.26-.32.26-.06,0-.32-.02-.52-.04-.96.44-1.7.72-2.68,1.06,1.16,1.64,2.88,2.8,4.84,3.26v.16c-1.4.34-1.68.78-2.02,1.28-2.02-1.54-3.36-3.5-4.06-5.94,0,.74.12,4,.12,4.66,0,.48,0,1.86-2,2.22-.22-.64-.44-1.26-2.06-1.94l.02-.16c.32.04,1.66.12,1.92.12.8,0,.82-.16.82-.76v-5.4c0-.68,0-1.1-.06-1.44h-1.6c.02.54-.32.82-.8.82-.44,0-.64-.16-.64-.52,0-.28.1-2.9.1-3.44,0-1.06-.02-3.06-.18-3.98l1.62.86h1.2c.08-.34.18-.94.18-1.66,0-.36-.02-.52-.1-.98l1.88.6c.16.06.34.14.34.34,0,.26-.2.32-.72.42-.4.54-.68.84-1.08,1.28h2.72l.54-.62c.06-.08.24-.22.34-.22s.22.08.3.14l.94.7c.12.08.26.22.26.34,0,.18-.08.22-.74.7,0,.82.18,4.68.18,5.12,0,.6-.4.88-.94.88s-.54-.32-.52-.78h-2.36Zm-2.54-5.78v2.4h4.9v-2.4h-4.9Zm4.9,5.3v-2.42h-4.9v2.42h4.9Z"/>
      <path class="cls-2" d="m262.68,82.07l.68-.92c.1-.14.22-.26.32-.26.12,0,.28.14.38.22l1.02.9c.12.1.2.2.2.32,0,.2-.18.22-.3.22h-3.94c0,.4.02.86.02,1.26.86.36,3.26,1.7,3.26,3.12,0,.4-.22,1.02-.86,1.02-.34,0-.54-.12-.88-1.08-.28-.78-.88-1.94-1.52-2.6.02,1.24.06,6.7.08,7.8,0,.2.06,1.08.06,1.26,0,.62-.7.88-1.14.88-.32,0-.5-.24-.5-.56s.12-1.76.14-2.04c.04-1.2.08-3.5.1-6.7-1.1,2-3.06,4.18-5.04,5.3l-.08-.1c1.98-2.1,3.98-5.5,4.82-7.56h-1.62c-.36,0-1.36,0-2.34.18l-.4-.8c1.48.12,2.78.14,3.08.14h1.58v-3.16c-2.22.46-3.7.52-4.42.54v-.12c2.52-.62,4.72-1.44,6.34-2.26.5-.26.84-.52,1-.82l1.44,1.34c.08.06.16.16.16.26,0,.14-.12.24-.3.24-.12,0-.64-.06-.96-.1-.66.26-1.22.44-2.02.64v3.44h1.64Zm5.28-3.46c.08.02.34.14.34.3,0,.14-.06.18-.62.7-.02.38-.02.78-.02,1.46,0,1.86.1,5.74.12,7.08,0,.26.02.6.02.76,0,.8-.78,1.02-1.04,1.02-.36,0-.5-.18-.5-.5,0-.12.02-.3.02-.4.14-1.38.12-5.34.12-6.94,0-2.64-.02-3.08-.32-4.12l1.88.64Zm4.32-1.38c.14.04.3.1.3.3,0,.16-.08.22-.68.66-.04,1.36,0,6.78.04,8.34.04,1.52.1,4.32.1,4.58,0,1.06,0,2.36-2.86,2.76-.08-.52-.18-1.24-1.8-1.98l.02-.1c.44.04,1.76.12,2.24.12.98,0,.98-.28.98-1.16,0-2.28-.08-10.3-.12-12.14-.02-1.12-.16-1.6-.3-2.06l2.08.68Z"/>
      <path class="cls-2" d="m289.24,77.41l.7-.6c.16-.14.24-.18.3-.18.1,0,.24.08.32.14l1,.72c.12.08.2.22.2.3,0,.22-.26.42-.84.76-.04.76-.04.84-.04,2.98,0,1.52.06,8.2.06,9.56,0,1.2,0,2.34-2.34,2.82-.38-1.34-1.4-1.82-1.88-2.04l.04-.16c.64.08,1.28.14,1.92.14.8,0,.8-.16.8-1.58,0-.4,0-2.5.02-2.8h-4.76c0,1.16.02,2.92.08,4.56.02.28.02.56.02.66,0,.42,0,1.22-1.12,1.22-.6,0-.62-.42-.62-.68,0-.16.02-.66.04-.84.16-2.42.18-4.22.18-4.92h-4.42c-.26,1.66-.9,4.18-4.08,6.38l-.16-.16c3-2.76,3.14-7.58,3.14-12.96,0-2.02,0-2.08-.32-4.26l1.98.94h9.78Zm-10.02,5.14c0,1.16-.1,3.4-.24,4.44h4.36l.04-4.44h-4.16Zm0-4.66v4.18h4.16v-4.18h-4.16Zm10.28,9.1l.02-4.44h-4.74l-.04,4.44h4.76Zm.02-4.92l.02-4.18h-4.76v4.18h4.74Z"/>
      <path class="cls-2" d="m298.67,93.49c-.64,0-.8-.52-1-1.18-.12-.42-.7-2.3-2.62-3.84l.06-.18c1.4.46,2.22.78,3.18,1.58.34.3,1.36,1.26,1.36,2.46,0,.56-.36,1.16-.98,1.16Z"/>
      <path class="cls-2" d="m306.95,76.95v17.34h-.84v-18.2h6.64v.86h-5.8Z"/>
      <path class="cls-2" d="m328.39,78.97c-3.22,3.38-5.12,5.08-7.66,6.28-1.12.54-3.66,1.66-5.84,1.86l-.08-.16c1.68-.5,5.78-2.44,8.12-4.42,2.64-2.24,3.92-4,4.14-4.34h-4.54c-.68.74-1.1,1.16-1.64,1.68,1.36.36,2.46.66,2.46,1.84,0,.62-.5.86-.8.86-.56,0-.76-.46-1.14-1.36-.26-.64-.5-.9-.72-1.14-.88.8-2.58,2.24-5.22,3.3l-.1-.14c2.98-1.96,6.58-5.7,7.06-7.74l1.76.76c.14.06.24.16.24.28,0,.2-.16.3-.84.4-.22.28-.34.42-.64.78h4.2l.78-.58c.12-.08.2-.16.28-.16s.16.06.26.14l1.16.86c.1.08.24.24.24.34,0,.22-.22.36-1.48.66Zm2.76,7.38c-1.98,2.38-4.36,4.38-5.9,5.34-2.34,1.46-6,2.7-9.26,2.8l-.04-.18c2.96-.66,6.4-1.62,9.6-4.28,1.72-1.44,3.34-3.14,4.18-4.58h-4.46c-.84.76-1.64,1.4-2.5,1.98.16.04,2.68.72,2.68,2.08,0,.52-.42.94-.9.94s-.52-.14-1-1.3c-.2-.48-.36-.68-1.06-1.54-1.32.9-3.68,2.14-6.32,2.66l-.14-.14c3.3-1.28,6.18-3.38,8.64-5.9,1.3-1.36,1.46-1.76,1.66-2.3l1.62.86c.12.06.24.14.24.28,0,.26-.36.3-.9.34-.32.38-.7.82-1.5,1.56h4.04l.62-.46c.08-.06.2-.18.3-.18s.16.08.26.16l1.2.98c.1.08.2.18.2.32,0,.18-.14.3-1.26.56Z"/>
      <path class="cls-2" d="m349.61,78.39l.64-.94c.1-.16.18-.26.3-.26s.22.08.42.24l1.16.92c.1.08.2.18.2.3,0,.14-.12.22-.3.22h-13.7c.02.4.06,2.6.06,2.76,0,5.86-.66,8.96-3.3,11.32l-.12-.08c.76-1.1,1.24-2.38,1.5-3.7.4-2.04.52-4.12.52-6.2,0-.74-.04-4.14-.34-5.62l1.92,1.04h5.38c-.04-1.32-.06-1.72-.36-2.6l2,.52c.16.04.26.1.26.26s-.14.34-.58.56c.02.22.02,1.06,0,1.26h4.34Zm-10.46,8.84c2.36,0,7.96-1.14,9.3-1.88l1.02.8c.1.08.16.18.16.3s-.06.3-.34.3c-.1,0-.3-.04-.46-.06-1.12.22-2.08.4-3.34.58v1.54h2.14l.58-.8c.12-.16.2-.26.32-.26s.24.08.4.22l.88.8c.1.1.18.2.18.34,0,.12-.12.18-.28.18h-4.22v1.4h4.66l.64-.9c.12-.18.22-.28.32-.28.14,0,.28.1.44.24l1.04.9c.12.1.2.22.2.32,0,.12-.1.2-.28.2h-7.02c0,.24.02,1.3,0,1.5-.08,1.02-1.4,1.5-2.04,1.6-.12-.68-.5-1.36-1.66-1.78l.02-.14c.24.02,1.3.08,1.52.08.9,0,.9-.12.92-1.26h-4.02c-.5,0-1.46.02-2.36.18l-.48-.78c1.36.1,2.8.12,3.08.12h3.78v-1.4h-2.3c-.5,0-1.46.02-2.36.18l-.48-.8c1.38.12,2.8.14,3.08.14h2.06v-1.38c-.92.1-1.82.16-2.74.16-.78,0-1.6-.06-2.36-.2v-.16Zm-.2-6.34c.62.06,1.28.12,2.94.14-.04-.86-.08-1.26-.28-1.9l1.58.4c.14.04.24.12.24.24,0,.16-.1.24-.44.4,0,.34-.02.46-.02.86h.72l.28-.46c.12-.2.18-.28.3-.28.1,0,.22.1.36.24l.46.46c.1.1.2.24.2.34,0,.08-.1.18-.32.18h-2v.4c.76.1,1.82.6,1.82,1.4,0,.28-.14.7-.6.7-.42,0-.5-.24-.7-.9-.06-.18-.22-.7-.52-1,.02.5.1,3.12.1,3.18,0,.24,0,.8-.76.8-.5,0-.54-.28-.54-.66,0-.06.12-2.68.14-3.18-.2.3-1.36,2.08-3.26,3.14l-.1-.14c.94-.94,2.18-2.9,2.54-3.72-1.04.04-1.5.12-1.76.16l-.38-.8Zm6.62-.04c.44.04.8.08,1.8.12-.06-1.22-.14-1.5-.24-1.86l1.5.38c.18.04.34.12.34.24,0,.16-.18.34-.48.5-.02.18,0,.4,0,.76h1.9l.42-.66c.1-.16.2-.26.32-.26s.22.08.38.22l.74.66c.12.1.18.2.18.3,0,.14-.1.22-.28.22h-3.26c1.48,1.52,3.42,2.26,4.6,2.34v.12c-.64.2-1.22.66-1.54,1.22-1.84-1.08-2.98-2.8-3.38-3.68h-.08c0,.5.06,2.62.06,3.1,0,.26,0,.74-.78.74-.36,0-.46-.2-.46-.56,0-.18.06-.98.06-1.14.02-.52.02-.86.02-1.12-.2.26-1.38,1.84-3.32,2.7l-.04-.14c1.18-.98,2.44-2.9,2.8-3.52-.36.04-.6.06-.86.12l-.4-.8Z"/>
      <path class="cls-2" d="m359.49,78.35c.04,1.56.06,2.88.06,3.64,0,4.2-.06,9.6-4.18,11.68l-.08-.1c2-2.1,2.84-4.52,2.84-10.7,0-1.76-.04-4.38-.3-6.04l2.06.54c.26.06.4.2.4.36s-.14.36-.8.62Zm5.34.3c-.02.58-.04,1.7-.04,3.44,0,2.52.16,6.54.16,9.06,0,.98-.9.98-1.06.98-.56,0-.58-.38-.58-.64,0-.2.1-2.04.1-2.34.04-1.4.08-2.58.08-6.34,0-1.62,0-4.16-.3-5.56l1.94.5c.18.04.34.16.34.28,0,.18-.12.34-.64.62Zm6.12-.46c-.06,2.72-.06,4.5-.06,5.66,0,1.38.14,7.54.14,8.8,0,.32,0,1.14-1.08,1.14-.62,0-.62-.46-.62-.64,0-.4.08-2.12.1-2.48.06-2.34.08-4.68.08-7,0-3.42-.02-4.66-.12-5.64-.06-.72-.14-1-.24-1.38l2.14.66c.22.06.34.18.34.3,0,.24-.2.38-.68.58Z"/>
      <path class="cls-2" d="m375.34,94.13v-.86h5.8v-17.34h.84v18.2h-6.64Z"/>
      <path class="cls-2" d="m385.86,92.61c-.42,0-.66-.3-.66-.74,0-.38.68-1.96.76-2.3.08-.34.06-.62.04-.86l.18-.02c.34.56.74,1.32.74,2.38,0,.54-.16,1.54-1.06,1.54Zm7.38-5.82c-.28,3.12-.9,4.8-1.22,5.52-.46,1-1.18,1.4-2.16,1.66-.26-1.24-1.22-1.78-1.64-1.98l.04-.14c1.12.22,1.88.22,1.94.22.4,0,.56-.04.78-.52.58-1.3.88-3.9.88-5.22h-4.46c.02.32-.02.98-.86.98-.4,0-.5-.2-.5-.54,0-.12.04-.6.04-.7.08-1.26.1-4.74.1-6.12,0-.7,0-2.14-.2-3.32l1.5.74h3.72l.48-.58c.14-.16.24-.26.34-.26.12,0,.22.1.4.22l.78.58c.14.1.22.24.22.32,0,.14-.18.2-.32.2h-2.76v2.32h.86l.38-.48c.16-.2.22-.28.32-.28s.22.1.4.22l.64.48c.1.08.22.18.22.32,0,.18-.18.22-.32.22h-2.5v2.3h.88l.48-.56c.14-.16.22-.24.32-.24.12,0,.2.06.36.2l.6.56c.12.1.18.24.18.32,0,.12-.12.2-.3.2h-2.52v2.42h1.34l.52-.58c.12-.14.22-.24.32-.24s.22.08.4.26l.78.72c.08.08.14.16.14.26,0,.24-.46.46-.6.52Zm-5.06,4.96c-.66,0-.66-.84-.66-1.26,0-1.24,0-1.66-.22-2.2l.12-.06c.14.16.86.88.96,1.06.48.74.56,1.26.56,1.54,0,.58-.44.92-.76.92Zm.96-13.9h-1.76v2.32h1.76v-2.32Zm0,2.8h-1.76v2.3h1.76v-2.3Zm0,2.78h-1.76v2.42h1.76v-2.42Zm.7,7.02c-.52,0-.58-.34-.74-1.48-.06-.44-.16-.96-.38-1.46l.08-.06c1.06.92,1.66,1.46,1.66,2.24,0,.34-.2.76-.62.76Zm1.12-1.48c-.4,0-.48-.32-.7-1.12-.16-.52-.32-.74-.46-.92l.12-.12c.94.44,1.54.86,1.54,1.52,0,.32-.18.64-.5.64Zm13.24,3.68c-.96.06-1.66.9-1.9,1.18-2.24-1.82-3.9-5.26-3.9-9.98h-2.14c-.2,4.92-1.18,7.94-4.1,10.04l-.1-.08c2.8-3.04,2.9-8.62,2.9-12.78,0-2.48-.14-3.14-.34-4.24l1.9.84h4.12l.58-.56c.12-.12.22-.18.32-.18s.18.04.34.18l.8.68c.12.1.18.2.18.32,0,.14-.38.42-.62.58-.02.34-.04.72-.04,1.26,0,.64.12,3.44.12,4.06s-.62.8-.94.8c-.64,0-.6-.44-.58-.92h-2.04c.46,4.36,3.34,7.82,5.46,8.68l-.02.12Zm-3.38-14.54h-4.44c-.02.76-.1,4.44-.1,5.26h4.54v-5.26Z"/>
      <path class="cls-2" d="m419.88,79.75c-2.56,0-3.32,0-4.66.8-1.86,1.1-3.38,3.68-3.38,5.96,0,3.34,3.52,4.12,5.32,4.52.3.06,1.14.24,1.14,1.1,0,.52-.5.56-.76.56-2.06,0-6.68-1.52-6.68-5.92,0-.86.16-2.58,1.64-4.48.56-.72,1.04-1.14,2.76-2.5-2.12.28-6.4,1.76-7.08,2.14-.86.5-.96.54-1.28.54-.5,0-1.46-.6-1.46-1.76,0-.52.14-.78.28-1.02.38.6.68,1.06,1.56,1.06.4,0,.92-.1,2.94-.58,2.38-.58,6.22-1.44,8.6-2.02.2-.04.48-.1.64-.1.3,0,1.6.38,1.6,1.06,0,.64-.62.64-1.18.64Zm-.56,5.08c-.34,0-.4-.08-.88-.92-.4-.7-.92-1.24-1.88-2.2,1.34.28,3.3,1.16,3.3,2.42,0,.34-.12.7-.54.7Zm2.34-.92c-.3,0-.36-.1-.94-.98-.48-.7-1.38-1.44-2.04-1.92,1.28.12,3.52.94,3.52,2.26,0,.56-.42.64-.54.64Z"/>
      <path class="cls-2" d="m18.42,112.93c1.8,2.1,5,4.04,8.6,4.2v.16c-1.18.3-1.8,1.1-2.14,1.82-.62-.2-5.08-2.5-6.82-6.08.02.9.04,4.84.08,5.64,0,.1.02.58.02.68,0,.7-.64.98-1.12.98-.42,0-.52-.3-.52-.56,0-.06,0-.22.02-.44.1-1.38.22-3.1.22-5.44-1.84,2.2-5.48,4.58-8.44,5.28l-.06-.16c3.02-1.22,7.18-5.42,7.58-6.08h-2.68c0,.68-.14,1.18-1.04,1.18-.42,0-.5-.2-.5-.44,0-.22.1-1.2.1-1.4.04-.66.06-1.74.06-2.82,0-1.82-.06-2.46-.26-3.26l1.86.82h3.4c0-.46-.02-1.56-.04-2.06h-5.44c-.36,0-1.4,0-2.36.18l-.4-.8c1.48.12,2.78.14,3.08.14h5.1c-.06-1.22-.12-1.94-.4-2.6l2.08.54c.18.04.34.12.34.28,0,.22-.48.54-.66.66v1.12h5.44l.86-1c.14-.16.22-.26.32-.26s.22.1.36.22l1.22,1c.14.12.2.2.2.3,0,.18-.18.22-.3.22h-8.12v2.06h3.42l.66-.58s.16-.14.24-.14c.1,0,.22.08.28.14l.9.72c.12.1.2.2.2.32,0,.18-.12.26-.64.58-.02.44-.02,1.02.04,2.5.02.28.12,2.42.12,2.6,0,.64-.58.84-1.02.84-.54,0-.52-.42-.48-1.06h-3.36Zm-5.28-5.44v2.16h3.62l.02-2.16h-3.64Zm3.62,4.96v-2.32h-3.62v2.32h3.62Zm5.02,0v-2.32h-3.72c0,.32-.02,1.96-.02,2.32h3.74Zm0-2.8v-2.16h-3.72v2.16h3.72Z"/>
      <path class="cls-2" d="m28.9,119.01c-.52,0-.86-.46-.86-.86,0-.5.44-.84,1.06-1.32.88-.7,1.34-1.54,1.54-2.14h.12c.02.24.04.5.04.86,0,1.86-.78,3.46-1.9,3.46Zm15.18-11.5c-.26.18-.34.24-.44.32.04,2.02.06,2.8.1,3.6,0,.18.06.92.06,1.08,0,.64-.56.84-.92.84-.62,0-.62-.4-.62-.64v-.26h-9.26c-.36,0-1.38,0-2.36.18l-.38-.8c1.26.1,2.52.14,3.06.14h8.94v-2.12h-8.96c-.36,0-1.4,0-2.36.18l-.4-.78c1.24.1,2.48.12,3.08.12h8.64v-2.04h-10.98c-.66.54-1.44,1.1-2.8,1.82l-.06-.08c2.68-2.56,4.46-5.28,4.9-6.18.2-.42.22-.64.28-1.12l1.76.86c.1.04.28.18.28.38s-.42.34-.74.42c-.1.12-.3.36-.46.54h4.46l.72-.6c.12-.1.26-.22.34-.22.12,0,.32.14.42.22l.94.74c.1.08.2.16.2.3,0,.24-.16.26-.76.4-.24.06-.38.16-2.04,1.32-.34.24-.78.54-1.06.72h4.34l.58-.56c.1-.1.24-.24.32-.24.1,0,.22.12.3.18l.86.68c.12.1.22.2.22.32,0,.1-.08.18-.2.28Zm-10.08-3.06c-.28.3-1.88,2.08-2.18,2.4h5.36c.22-.3,1.16-1.74,1.48-2.4h-4.66Zm7.16,15.14c-.68.14-4.56.14-5.72.14-2.2,0-2.36-.42-2.36-2.32,0-3.28,0-3.42-.16-4.12l1.88.6c.12.04.32.16.32.28,0,.1-.08.18-.16.24-.06.06-.38.3-.44.36,0,.26-.04,2.94,0,3.26.04.36.44.38.92.38.9-.02,4.04.02,4.48-.14.24-.08.46-.24.6-.6.24-.62.5-1.78.6-2.26h.14c.12.66.38,2.16.76,2.5.32.3.44.42.44.66s-.22.82-1.3,1.02Zm-2.8-3.24c-.54,0-.64-.24-1.12-1.4-.12-.28-.46-1.08-1.06-1.6l.08-.12c2.62.74,2.86,1.78,2.86,2.08,0,.46-.18,1.04-.76,1.04Zm6.98,1.62c-.56,0-.62-.14-1.18-1.4-.4-.92-.68-1.52-1.38-2.22l.02-.04c1.08.18,3.38,1.38,3.38,2.78,0,.54-.38.88-.84.88Z"/>
      <path class="cls-2" d="m58.02,112.93c1.8,2.1,5,4.04,8.6,4.2v.16c-1.18.3-1.8,1.1-2.14,1.82-.62-.2-5.08-2.5-6.82-6.08.02.9.04,4.84.08,5.64,0,.1.02.58.02.68,0,.7-.64.98-1.12.98-.42,0-.52-.3-.52-.56,0-.06,0-.22.02-.44.1-1.38.22-3.1.22-5.44-1.84,2.2-5.48,4.58-8.44,5.28l-.06-.16c3.02-1.22,7.18-5.42,7.58-6.08h-2.68c0,.68-.14,1.18-1.04,1.18-.42,0-.5-.2-.5-.44,0-.22.1-1.2.1-1.4.04-.66.06-1.74.06-2.82,0-1.82-.06-2.46-.26-3.26l1.86.82h3.4c0-.46-.02-1.56-.04-2.06h-5.44c-.36,0-1.4,0-2.36.18l-.4-.8c1.48.12,2.78.14,3.08.14h5.1c-.06-1.22-.12-1.94-.4-2.6l2.08.54c.18.04.34.12.34.28,0,.22-.48.54-.66.66v1.12h5.44l.86-1c.14-.16.22-.26.32-.26s.22.1.36.22l1.22,1c.14.12.2.2.2.3,0,.18-.18.22-.3.22h-8.12v2.06h3.42l.66-.58s.16-.14.24-.14c.1,0,.22.08.28.14l.9.72c.12.1.2.2.2.32,0,.18-.12.26-.64.58-.02.44-.02,1.02.04,2.5.02.28.12,2.42.12,2.6,0,.64-.58.84-1.02.84-.54,0-.52-.42-.48-1.06h-3.36Zm-5.28-5.44v2.16h3.62l.02-2.16h-3.64Zm3.62,4.96v-2.32h-3.62v2.32h3.62Zm5.02,0v-2.32h-3.72c0,.32-.02,1.96-.02,2.32h3.74Zm0-2.8v-2.16h-3.72v2.16h3.72Z"/>
      <path class="cls-2" d="m74.46,107.35h-2.28c0,.88,0,1.08.02,1.74.74.28,2.26.86,2.26,1.96,0,.58-.44.76-.74.76-.5,0-.6-.22-.88-1.18-.2-.64-.34-.9-.64-1.28.02,2.32.02,2.72.02,6.24,0,.6.06,3.18.06,3.72,0,.18,0,.52-.28.72-.24.16-.56.22-.68.22-.62,0-.62-.46-.62-.66,0-.12.02-.16.04-.58.2-2.74.26-5.48.26-8.22-.52,1.22-1.14,2.44-3.66,5.08l-.14-.08c1.52-2.34,3.16-6.02,3.66-8.44h-.46c-.5,0-1.46.02-2.34.18l-.4-.78c1.18.1,2.42.12,3.32.12,0-.36-.02-3.32-.46-5l2,.68c.22.08.34.12.34.28,0,.12-.3.36-.64.62-.04.9-.04,2.46-.04,3.42h.7l.4-.5c.12-.14.2-.24.3-.24.12,0,.22.08.38.22l.62.48c.12.1.2.24.2.32,0,.18-.18.2-.32.2Zm3.42,10.76c-1.7,1.1-3.58,1.86-5.1,2l-.02-.12c2.14-1.02,3.88-2.46,4.5-3.48l1.32.98c.1.08.2.18.2.34,0,.28-.24.28-.9.28Zm7.7-9.76h-5.52v1.82h2.16l.5-.62c.1-.14.24-.3.34-.3s.22.1.34.2l.84.64c.08.06.18.16.18.28s-.12.2-.2.28c-.14.1-.32.26-.48.42-.06,1.4.1,3.64.1,5.04,0,.74-.66.82-.84.82-.56,0-.54-.36-.52-.56h-6c-.02.76-.78.76-.84.76-.32,0-.6-.14-.6-.54,0-.08.04-.52.04-.6.08-1.08.08-2.48.08-3.58,0-2.02-.06-2.36-.28-3.1l1.84.86h2.06v-1.82h-2.14c-.2,0-1.44,0-2.36.18l-.4-.8c1.26.12,2.24.12,3.06.14l-.04-2.48c-.68,0-1.52.04-2.2.18l-.4-.8c.82.06,1.48.1,2.6.12-.02-1.54-.04-1.96-.28-2.72l1.84.56c.18.06.34.1.34.28,0,.12-.08.18-.14.24-.08.06-.4.26-.56.36,0,.22-.02,1.1-.02,1.3h2.3c0-1.22-.04-1.82-.26-2.76l1.84.52c.14.04.32.14.32.3,0,.12-.08.18-.14.24-.14.12-.38.3-.52.42-.02.24-.02,1.16-.02,1.28h1.34l.46-.7c.06-.1.18-.24.3-.24s.24.1.38.22l.8.68c.18.16.18.22.18.3,0,.2-.18.22-.3.22h-3.16c0,.38-.02,2.12-.02,2.48h1.96l.68-.76c.12-.14.24-.24.3-.24.12,0,.26.12.38.22l.8.74c.1.1.18.18.18.3,0,.2-.16.22-.3.22Zm-6.8,2.3h-2.32v2.34h2.32v-2.34Zm0,2.82h-2.32v2.42h2.32v-2.42Zm1.6-8.08h-2.3c0,.34-.02,2.08,0,2.48h2.32c0-.36-.02-2.1-.02-2.48Zm2.1,5.26h-2.42v2.34h2.42v-2.34Zm0,2.82h-2.42v2.42h2.42v-2.42Zm2.02,6.66c-.52,0-.78-.34-1.24-.92-.5-.64-1.4-1.32-2.54-1.98l.08-.12c3.4.34,4.44,1.54,4.44,2.22,0,.44-.36.8-.74.8Z"/>
      <path class="cls-2" d="m87.58,119.21c1.12-2.74,1.46-5.88,1.46-6.14,0-.22-.02-.46-.06-.68l1.76.66c.08.04.22.1.22.26,0,.18-.06.22-.52.54-.42,1.28-1.3,3.82-2.72,5.42l-.14-.06Zm7.96-13.82c.08.06.14.14.14.28,0,.24-.2.3-.84.44-.68.92-1.74,2.32-3.52,4.32.1-.02,1.46-.06,2.5-.16-.14-.34-.38-.84-.72-1.42l.1-.14c1.08.46,2.44,1.34,2.44,2.38,0,.46-.28.9-.8.9s-.54-.16-.92-1.44c-.3.1-.64.2-1.42.42.02,2.76,0,4.18.04,5.88,0,.36.06,1.9.06,2.22,0,.3,0,1.1-.9,1.1-.56,0-.56-.46-.56-.62,0-.92.16-6.96.18-8.28-.5.12-1.14.28-2.56.56-.28.3-.3.34-.46.34-.14,0-.24-.14-.28-.28l-.42-1.7c.44.12.96.3,1.86.3.12,0,1.2-.04,1.36-.06,1.32-1.96,3.02-4.94,3-6.16l1.72,1.12Zm-7.18-.2c.42.04,1.2.12,2.08.64,0-.02,1-2.64.86-3.92l1.92,1c.12.06.2.16.2.26,0,.2-.18.28-.88.56-.72.98-.98,1.28-1.82,2.28.26.2.88.66.88,1.42,0,.54-.36.92-.76.92-.5,0-.68-.42-.82-.72-.22-.52-.76-1.5-1.72-2.3l.06-.14Zm4.62,7.72c1.34.48,2.36,1.42,2.36,2.24,0,.46-.26.86-.76.86-.56,0-.66-.32-.96-1.4-.16-.56-.4-1.18-.76-1.58l.12-.12Zm3.1.34c-.5,0-.84.04-1,.08l-.28-.64c.74.06,1.34.08,1.52.08h.62l.38-.46s.14-.16.26-.16c.08,0,.22.1.3.18l.8.76c.08.08.22.2.22.34,0,.16-.06.24-.66.46-.96,2.1-2.44,4.02-4.68,5.12l-.04-.12c2.32-2.22,3.08-4.48,3.46-5.64h-.9Zm4.16-2.62l.36.12c.14.04.44.16.44.36,0,.24-.36.44-.52.52,0,.74.78,2.18,1.16,2.74,1.14-1.04,1.84-1.9,2.16-2.72l1.38,1.38s.1.16.1.26c0,.04-.02.26-.32.26-.06,0-.32-.02-.52-.04-.96.44-1.7.72-2.68,1.06,1.16,1.64,2.88,2.8,4.84,3.26v.16c-1.4.34-1.68.78-2.02,1.28-2.02-1.54-3.36-3.5-4.06-5.94,0,.74.12,4,.12,4.66,0,.48,0,1.86-2,2.22-.22-.64-.44-1.26-2.06-1.94l.02-.16c.32.04,1.66.12,1.92.12.8,0,.82-.16.82-.76v-5.4c0-.68,0-1.1-.06-1.44h-1.6c.02.54-.32.82-.8.82-.44,0-.64-.16-.64-.52,0-.28.1-2.9.1-3.44,0-1.06-.02-3.06-.18-3.98l1.62.86h1.2c.08-.34.18-.94.18-1.66,0-.36-.02-.52-.1-.98l1.88.6c.16.06.34.14.34.34,0,.26-.2.32-.72.42-.4.54-.68.84-1.08,1.28h2.72l.54-.62c.06-.08.24-.22.34-.22s.22.08.3.14l.94.7c.12.08.26.22.26.34,0,.18-.08.22-.74.7,0,.82.18,4.68.18,5.12,0,.6-.4.88-.94.88s-.54-.32-.52-.78h-2.36Zm-2.54-5.78v2.4h4.9v-2.4h-4.9Zm4.9,5.3v-2.42h-4.9v2.42h4.9Z"/>
      <path class="cls-2" d="m108.1,119.01c-.52,0-.86-.46-.86-.86,0-.5.44-.84,1.06-1.32.88-.7,1.34-1.54,1.54-2.14h.12c.02.24.04.5.04.86,0,1.86-.78,3.46-1.9,3.46Zm15.18-11.5c-.26.18-.34.24-.44.32.04,2.02.06,2.8.1,3.6,0,.18.06.92.06,1.08,0,.64-.56.84-.92.84-.62,0-.62-.4-.62-.64v-.26h-9.26c-.36,0-1.38,0-2.36.18l-.38-.8c1.26.1,2.52.14,3.06.14h8.94v-2.12h-8.96c-.36,0-1.4,0-2.36.18l-.4-.78c1.24.1,2.48.12,3.08.12h8.64v-2.04h-10.98c-.66.54-1.44,1.1-2.8,1.82l-.06-.08c2.68-2.56,4.46-5.28,4.9-6.18.2-.42.22-.64.28-1.12l1.76.86c.1.04.28.18.28.38s-.42.34-.74.42c-.1.12-.3.36-.46.54h4.46l.72-.6c.12-.1.26-.22.34-.22.12,0,.32.14.42.22l.94.74c.1.08.2.16.2.3,0,.24-.16.26-.76.4-.24.06-.38.16-2.04,1.32-.34.24-.78.54-1.06.72h4.34l.58-.56c.1-.1.24-.24.32-.24.1,0,.22.12.3.18l.86.68c.12.1.22.2.22.32,0,.1-.08.18-.2.28Zm-10.08-3.06c-.28.3-1.88,2.08-2.18,2.4h5.36c.22-.3,1.16-1.74,1.48-2.4h-4.66Zm7.16,15.14c-.68.14-4.56.14-5.72.14-2.2,0-2.36-.42-2.36-2.32,0-3.28,0-3.42-.16-4.12l1.88.6c.12.04.32.16.32.28,0,.1-.08.18-.16.24-.06.06-.38.3-.44.36,0,.26-.04,2.94,0,3.26.04.36.44.38.92.38.9-.02,4.04.02,4.48-.14.24-.08.46-.24.6-.6.24-.62.5-1.78.6-2.26h.14c.12.66.38,2.16.76,2.5.32.3.44.42.44.66s-.22.82-1.3,1.02Zm-2.8-3.24c-.54,0-.64-.24-1.12-1.4-.12-.28-.46-1.08-1.06-1.6l.08-.12c2.62.74,2.86,1.78,2.86,2.08,0,.46-.18,1.04-.76,1.04Zm6.98,1.62c-.56,0-.62-.14-1.18-1.4-.4-.92-.68-1.52-1.38-2.22l.02-.04c1.08.18,3.38,1.38,3.38,2.78,0,.54-.38.88-.84.88Z"/>
      <path class="cls-2" d="m133.76,107.55c-.44.58-.8,1.02-1.32,1.62l.26.2c.14.1.24.22.24.32,0,.08-.06.16-.4.46-.08,1.94-.08,5.36-.08,8.94,0,.44,0,1.14-1,1.14-.62,0-.62-.42-.62-.7,0-.22.3-4.96.3-5.26.02-.52.04-3.1.06-3.68-1.68,1.76-3.02,2.46-4.26,2.96v-.1c2-1.78,4.18-4.36,5.46-6.6.18-.32.22-.42.5-1.26l1.62,1.32c.1.08.16.2.16.3,0,.16-.18.24-.92.34Zm-.62-3.82c-1.82,1.9-3.2,2.88-5.8,3.9l-.04-.12c1.4-1.02,3.4-2.92,4.52-4.6.26-.4.4-.84.5-1.2l1.56,1.42c.1.08.14.18.14.3,0,.2-.24.28-.88.3Zm11.94,5.44h-3.8c-.02.32-.02.66-.02,1.2.02,1.1.1,6.5.1,7.72,0,1.9-1.94,2.08-2.22,2.08-.04-.4-.1-1.06-1.94-2.02v-.08c.48.02,1.26.04,1.76.04q1,0,1-1.14c0-1.26-.06-7.42-.08-7.8h-3.1c-.14,0-1.42,0-2.34.18l-.4-.78c.5.04,1.7.12,3.08.12h5.32l.88-1.04c.12-.14.22-.26.32-.26.12,0,.28.14.38.22l1.16,1.04c.1.08.2.18.2.32,0,.2-.2.2-.3.2Zm-1.18-5.02h-6.04c-.52,0-1.48.02-2.36.18l-.4-.8c1.38.12,2.82.14,3.08.14h3.28l.74-.92c.12-.14.24-.28.34-.28.12,0,.26.14.36.22l1.12.94c.1.1.2.18.2.3,0,.2-.18.22-.32.22Z"/>
      <path class="cls-2" d="m151.02,113.15c-.24,1-.7,2.92-.7,3.82,0,.22.1,1.18.1,1.38,0,.34-.04.74-.52.74-.82,0-2.12-1.84-2.12-5.9,0-1.44.44-4.14.78-6.2.06-.38.12-.9.12-1.34,0-.7-.1-1.22-.68-1.94.1-.04.18-.08.36-.08.72,0,2.02,1.12,2.02,1.9,0,.18-.04.36-.26.94-.78,2-1.4,4.1-1.4,6.28,0,1.38.34,2.92.66,2.92.12,0,.22-.24.26-.38.22-.68,1.06-3,1.78-4.54l.16.04c-.12.56-.4,1.72-.56,2.36Zm9.62,4.2c-.48,0-3.16-.02-4.9-.56-1.2-.38-2.02-1.54-2.02-2.72,0-.46.1-.64.2-.84.46,1.52.82,2.68,4.6,2.68.4,0,2.34-.16,2.54-.16.7,0,1.54.3,1.54.86,0,.64-.7.74-1.96.74Zm-.16-10.58c-1.94.34-3.2,1-3.86,1.48l-.12-.12c.3-.28,1.76-1.62,1.82-1.68.06-.06.06-.1.06-.16,0-.22-.62-.22-.74-.22-.8,0-2.12.32-3.64.9,1.08-1.44,3.1-1.96,4.96-1.96,1.24,0,2.66.36,2.66,1.06,0,.46-.42.58-1.14.7Z"/>
      <path class="cls-2" d="m180.4,118.59c-2.6-.78-5.46-3.82-6.48-5.8h-.2c0,1.42-.02,2.44.02,4.12,0,.34.06,1.86.06,2.16,0,.28,0,1.14-1.08,1.14-.5,0-.56-.3-.56-.62,0-.26.12-1.92.12-2.28.04-1.4.08-2.84.08-4.26-4.08,4.52-6.66,5.18-8.42,5.54l-.06-.16c2.38-1.1,5.34-3.7,6.8-5.64h-2.56c-.36,0-1.38,0-2.36.18l-.38-.8c1.18.1,2.36.14,3.18.14v-2.64h-1.66c-.5,0-1.46.02-2.36.18l-.38-.78c1.36.1,2.8.12,3.06.12h1.34v-2.74c-.14,0-1.3,0-2.28.18l-.4-.8c1.26.1,2.52.14,3.08.14h3.44v-1.78c-1.56.16-3.14.22-5.68.16v-.18c2.6-.28,8-1.26,9.02-2.22l1.5,1.08c.22.16.24.24.24.28,0,.24-.22.24-.32.24-.12,0-.5-.04-.64-.04-1,.22-1.76.38-2.76.52l-.02,1.94h4.56l.7-.78c.12-.14.2-.24.32-.24s.24.1.36.2l.94.78c.1.08.22.18.22.3,0,.18-.16.22-.32.22h-2.86v2.74h1.92l.74-.88c.16-.2.22-.26.32-.26.12,0,.26.14.34.2l1.04.9c.1.1.2.2.2.32,0,.18-.18.2-.3.2h-4.26v2.64h1.06l.7-.82c.12-.14.2-.26.32-.26.1,0,.26.12.36.2l.98.84c.1.08.2.18.2.3,0,.2-.18.22-.3.22h-6.78c1.66,2.02,4.54,3.9,8.32,3.98v.12c-1.52.56-1.84,1.14-2.12,1.7Zm-10.52-12.14v2.74h2.48c.02-.9.02-1.82.02-2.74h-2.5Zm2.48,3.22h-2.48v2.64h2.48v-2.64Zm3.94,0h-2.56l-.02,2.64h2.58v-2.64Zm0-3.22h-2.56v2.74h2.56v-2.74Z"/>
      <path class="cls-2" d="m190.38,118.61c-.66.6-1.92,1.56-2.84,1.76l-.04-.1c3.46-2.5,4.48-6.36,4.48-9.94,0-1.32-.08-4.96-1.58-4.96-.8,0-1.36.82-1.54,1.08-.8,1.16-2.12,4.22-2.12,6.62,0,.22.14,1.24.14,1.44,0,.22-.08.56-.48.56-1.18,0-1.54-2.34-1.54-4.14,0-1.52.42-4.16.7-5.78.02-.1.08-.48.08-.76,0-1.08-.74-1.54-1.16-1.82.18-.04.52-.14.9-.14.92,0,1.76.74,1.76,1.44,0,.32-.12.58-.24.88-.62,1.44-1.12,3.46-1.12,5.36,0,.3,0,1.44.2,1.44.12,0,.16-.1.18-.2.46-1.64,2.18-6.76,4.54-6.76,2.5,0,2.76,3.92,2.76,5.92,0,3.68-.84,6.06-3.08,8.1Z"/>
      <path class="cls-2" d="m200.18,111.27c.02,1.26.12,5.78.12,6.62,0,.64,0,2-2,2.36-.2-1.06-1.66-1.84-2.22-2.06l.02-.1c.46.06,1.5.12,2.02.12.76,0,.76-.02.76-.62v-5.46c-1.26.78-1.38.88-1.78,1.12-.18.44-.22.6-.46.6-.1,0-.18-.08-.26-.26l-.88-1.8c.54.06.98.08,3.38-.84v-4.62h-.82c-.34,0-1.02.02-1.7.14l-.4-.72c1.12.08,2.14.1,2.42.1h.5v-1.48c0-.76-.16-1.26-.56-2.5l2.16.74c.2.06.28.12.28.24,0,.14-.1.22-.58.68-.02.56-.02.74,0,2.32h.36l.36-.54c.1-.14.2-.26.3-.26.14,0,.28.1.38.2l.56.56c.08.08.2.18.2.32,0,.18-.16.2-.3.2h-1.86v4.06c.36-.14,1.94-.82,2.26-.96l.08.08c-.42.36-1.06.9-2.34,1.76Zm13.92,2.68h-6.54c.52,1.36,2.66,4.14,6.52,4.32v.1c-1.16.6-1.44,1.02-1.8,1.58-2.78-1.42-4.42-3.5-4.98-6h-.1c-.44,1.74-1.4,5.16-6.46,6v-.1c3.58-1.58,4.64-3.74,5.12-5.9h-2.32c-.54,0-1.48.02-2.36.18l-.4-.8c.88.08,1.26.1,2.04.12-.02-2.98-.02-3.3-.04-6.18-.64.5-.92.64-1.24.8l-.08-.04c.66-.74,3.68-4.4,3.48-6.12l1.72.68c.08.04.2.12.2.2,0,.18-.14.26-.6.46l-.28.36h2.2l.54-.46c.14-.12.24-.18.34-.18.12,0,.24.08.32.14l.92.64c.08.06.12.18.12.24,0,.28-.22.36-.74.52-.52.44-.68.6-2.2,2h2.78l.58-.54c.08-.08.22-.18.34-.18.1,0,.24.06.3.12l.82.7c.1.08.14.18.14.26,0,.14-.08.22-.66.7-.02.38,0,.66,0,3.3v2.6h.54l.48-.84c.04-.08.2-.24.3-.24.12,0,.26.1.36.22l.76.8c.08.1.2.2.2.32,0,.2-.18.22-.32.22Zm-8.48-9.86c-.88,1.2-1.24,1.64-1.78,2.22l.3.2h2.96c.28-.42.34-.56,1.16-2.42h-2.64Zm4.94,2.9h-1.98c0,.38.02,2.26.02,2.34.02.16.18.24.3.24.42,0,.5-.24.7-1.1h.12c.04.16.18.66.42.9.16.18.28.3.28.52,0,.68-.88.82-1.54.82-1.08,0-1.46-.28-1.46-1.14,0-.4.04-2.2.04-2.58h-1.6l.74.1c.14.02.22.1.22.22,0,.16-.14.26-.28.32-.08.76-.3,2.5-2.44,3.58l-.02-.1c.9-.7,1.34-2.56,1.28-4.12h-1.34v6.48h1.92c.04-.24.1-.72.1-1.3,0-.62-.08-.9-.18-1.16l1.94.58c.14.04.24.08.24.22,0,.2-.18.34-.56.6-.1.6-.12.78-.18,1.06h3.26v-6.48Z"/>
      <path class="cls-2" d="m228.48,119.31s-2.8-.06-3.42-.26c-1.5-.46-1.72-1.5-2.02-3.08-.2-1.02-.76-1.3-1.42-1.3-.88,0-1.3.62-2.92,2.96-.38.54-1.04,1.48-1.38,1.72-.1.08-.18.14-.4.14-.34,0-.68-.28-.68-.9,0-.66.16-.8,1.3-1.76.7-.58.82-.7,3.94-4.1.48-.54,2.94-3.22,2.98-3.3.02-.04.06-.1.06-.16,0-.2-.24-.2-.32-.2-.66,0-3.24,1.2-3.54,1.4-.56.4-.68.48-.98.48-.54,0-1.74-.82-1.74-1.64,0-.16.02-.22.18-.72.4.48.74.84,1.4.84,1.16,0,4.3-1.12,4.36-1.14.58-.22,1.1-.4,1.12-.4.38,0,1.68.62,1.68,1.26,0,.36-.14.44-.7.82-1.08.72-3.62,2.8-4.78,4.28.28-.06.6-.12,1.04-.12,1.6,0,1.86,1.08,2.06,1.92.4,1.72.62,2.1,2.08,2.1.96,0,1.98-.26,2.3-.34.74-.22.82-.24,1.04-.24.5,0,1.12.38,1.12.86,0,.82-1.66.88-2.36.88Zm-3.3-13.4c-.28,0-1.42-.26-1.66-.26-.38,0-.52.04-1.88.38-.06.02-.26.08-.32.08l-.06-.12c.34-.2.86-.52,1.16-.74.34-.24.46-.34.46-.52,0-.26-.16-.36-.7-.72-1.26-.86-1.5-1.34-1.58-2.32.78.74,1.46,1.28,2.74,1.76,1.02.4,2.32.88,2.32,1.88,0,.24-.12.58-.48.58Z"/>
    </g>
    <line class="cls-1" y1="57.98" x2="430" y2="57.98"/>
  </g>
</svg>