<svg xmlns="http://www.w3.org/2000/svg" width="1055.54" height="71.11" viewBox="0 0 1055.54 71.11">
  <g id="_レイヤー_1-2" transform="translate(0)">
    <path id="パス_1" data-name="パス 1" d="M52.61,60.13Q45.05,70.72,31.55,70.72q-12.615,0-22.08-10.55A35.706,35.706,0,0,1,0,35.53,37.664,37.664,0,0,1,8.56,10.88Q17.275.29,29.72.28q13.05,0,21,7.39l-2.39,3A25.018,25.018,0,0,0,29.72,2.5q-10.05,0-16.17,9.66Q7.715,21.43,7.72,35.53c0,9.4,2.26,16.99,6.78,23.31q6.84,9.66,17.06,9.66a22.817,22.817,0,0,0,14.56-4.77V36.33h6.5V60.12Z" fill="#fff"/>
    <path id="パス_2" data-name="パス 2" d="M113.64,70.11h-7.31L84.27,31.78c1.07.08,2.11.11,3.11.11q14.715,0,14.72-13.83,0-15.285-18.5-15H79.1V70.12H72.43V1.17q1.56-.105,12.06-.11,24.27-.225,24.28,16.71a14.607,14.607,0,0,1-4.33,10.91q-4.32,4.245-11.76,5.14l20.95,36.29Z" fill="#fff"/>
    <path id="パス_3" data-name="パス 3" d="M178.44,70.06H171.4L160.03,40.84H144.15V38.73H159.2L148.76,11.71,126.21,70.06h-2.38L151.05,0Z" fill="#fff"/>
    <path id="パス_4" data-name="パス 4" d="M239.27,71.11,196.88,13.72V70.05h-2.06V0l42.39,56.83V1.11h2.06Z" fill="#fff"/>
    <path id="パス_5" data-name="パス 5" d="M310.22,35.34q0,18.945-13.94,28.28a38.231,38.231,0,0,1-21.61,6.5l-17.39-.06V1.17h17.11a39.154,39.154,0,0,1,21.83,6.28q13.995,9,14,27.89Zm-6.61,0Q303.5,17.565,291.72,9.17q-8.505-6-20.56-6h-7.28V68h6.22q13.275,0,21.94-6.22,11.61-8.385,11.56-26.44Z" fill="#fff"/>
    <path id="パス_6" data-name="パス 6" d="M387.99,70.06H355.88v-69h30.94V3.17H362.6V31.06h21.83v2.11H362.6V67.95h25.39Z" fill="#fff"/>
    <path id="パス_7" data-name="パス 7" d="M448.55,71.11,406.16,13.72V70.05H404.1V0l42.39,56.83V1.11h2.06Z" fill="#fff"/>
    <path id="パス_8" data-name="パス 8" d="M509.55,3.17H491.49V70.06h-6.72V3.17H466.49V1.06h43.06V3.17Z" fill="#fff"/>
    <path id="パス_9" data-name="パス 9" d="M552.91,70.11H545.6L523.54,31.78c1.07.08,2.11.11,3.11.11q14.715,0,14.72-13.83,0-15.285-18.5-15h-4.5V70.12H511.7V1.17q1.56-.105,12.06-.11,24.27-.225,24.28,16.71a14.607,14.607,0,0,1-4.33,10.91q-4.32,4.245-11.76,5.14L552.9,70.11Z" fill="#fff"/>
    <path id="パス_10" data-name="パス 10" d="M617.71,70.06h-7.04L599.3,40.84H583.42V38.73h15.05L588.03,11.71,565.48,70.06H563.1L590.32,0Z" fill="#fff"/>
    <path id="パス_11" data-name="パス 11" d="M678.54,71.11,636.15,13.72V70.05h-2.06V0l42.39,56.83V1.11h2.06Z" fill="#fff"/>
    <path id="パス_12" data-name="パス 12" d="M747.99,60.49Q740.2,70.72,726.93,70.72c-8.86,0-15.77-3.52-22.08-10.55a35.7,35.7,0,0,1-9.47-24.65,37.663,37.663,0,0,1,8.56-24.65Q712.655.325,725.11.32c8.3,0,14.83,2.3,20.17,6.89l-2.61,3.11a23.026,23.026,0,0,0-17.56-7.89c-6.86,0-12.09,3.24-16.17,9.73q-5.835,9.225-5.83,23.35c0,9.41,2.26,17.01,6.78,23.35q6.84,9.735,17.06,9.73,11.835,0,18.17-10.39l2.89,2.27Z" fill="#fff"/>
    <path id="パス_13" data-name="パス 13" d="M797.88,70.06H765.77v-69h30.94V3.17H772.49V31.06h21.83v2.11H772.49V67.95h25.39v2.11Z" fill="#fff"/>
    <path id="パス_14" data-name="パス 14" d="M889.32,70H882.6V33.17H849.66V70h-6.72V1.17h6.72V31.06H882.6V1.17h6.72Z" fill="#fff"/>
    <path id="パス_15" data-name="パス 15" d="M959.93,70.06h-7.04L941.52,40.84H925.64V38.73h15.05L930.25,11.71,907.7,70.06h-2.38L932.54,0Z" fill="#fff"/>
    <path id="パス_16" data-name="パス 16" d="M1008.43,70.06H976.32v-69h6.72V67.95h25.39Z" fill="#fff"/>
    <path id="パス_17" data-name="パス 17" d="M1055.54,70.06h-32.11v-69h6.72V67.95h25.39Z" fill="#fff"/>
  </g>
</svg>
