<?xml version="1.0" encoding="UTF-8"?><svg id="_レイヤー_2" xmlns="http://www.w3.org/2000/svg" viewBox="0 0 1055.54 144.48"><defs><style>.cls-1{fill:#fff;}</style></defs><g id="_レイヤー_1-2"><path class="cls-1" d="M52.61,60.13c-5.04,7.06-12.06,10.59-21.06,10.59-8.41,0-15.77-3.52-22.08-10.55C3.16,53.15,0,44.93,0,35.53S2.85,17.77,8.56,10.88C14.37,3.82,21.43.28,29.72.28c8.7,0,15.7,2.46,21,7.39l-2.39,3c-5.26-5.45-11.46-8.17-18.61-8.17-6.7,0-12.09,3.22-16.17,9.66-3.89,6.18-5.83,13.97-5.83,23.37s2.26,16.99,6.78,23.31c4.56,6.44,10.24,9.66,17.06,9.66,5.67,0,10.52-1.59,14.56-4.77v-27.4h6.5v23.79Z"/><path class="cls-1" d="M113.64,70.11h-7.31l-22.06-38.33c1.07.08,2.11.11,3.11.11,9.81,0,14.72-4.61,14.72-13.83,0-10.19-6.17-15.19-18.5-15h-4.5v67.06h-6.67V1.17c1.04-.07,5.06-.11,12.06-.11,16.18-.15,24.28,5.42,24.28,16.71,0,4.44-1.44,8.08-4.33,10.91-2.88,2.83-6.8,4.54-11.76,5.14l20.95,36.29Z"/><path class="cls-1" d="M178.44,70.06h-7.04l-11.37-29.22h-15.88v-2.11h15.05l-10.44-27.02-22.55,58.35h-2.38S151.05,0,151.05,0l27.39,70.06Z"/><path class="cls-1" d="M239.27,71.11l-42.39-57.39v56.33h-2.06V0l42.39,56.83V1.11h2.06v70Z"/><path class="cls-1" d="M310.22,35.34c0,12.63-4.65,22.06-13.94,28.28-6.52,4.33-13.72,6.5-21.61,6.5l-17.39-.06V1.17h17.11c8.11,0,15.39,2.09,21.83,6.28,9.33,6,14,15.3,14,27.89ZM303.61,35.34c-.07-11.85-4.04-20.57-11.89-26.17-5.67-4-12.52-6-20.56-6h-7.28v64.83h6.22c8.85,0,16.17-2.07,21.94-6.22,7.74-5.59,11.59-14.41,11.56-26.44Z"/><path class="cls-1" d="M387.99,70.06h-32.11V1.06h30.94v2.11h-24.22v27.89h21.83v2.11h-21.83v34.78h25.39v2.11Z"/><path class="cls-1" d="M448.55,71.11l-42.39-57.39v56.33h-2.06V0l42.39,56.83V1.11h2.06v70Z"/><path class="cls-1" d="M509.55,3.17h-18.06v66.89h-6.72V3.17h-18.28V1.06h43.06v2.11Z"/><path class="cls-1" d="M552.91,70.11h-7.31l-22.06-38.33c1.07.08,2.11.11,3.11.11,9.81,0,14.72-4.61,14.72-13.83,0-10.19-6.17-15.19-18.5-15h-4.5v67.06h-6.67V1.17c1.04-.07,5.06-.11,12.06-.11,16.18-.15,24.28,5.42,24.28,16.71,0,4.44-1.44,8.08-4.33,10.91-2.88,2.83-6.8,4.54-11.76,5.14l20.95,36.29Z"/><path class="cls-1" d="M617.71,70.06h-7.04l-11.37-29.22h-15.88v-2.11h15.05l-10.44-27.02-22.55,58.35h-2.38S590.32,0,590.32,0l27.39,70.06Z"/><path class="cls-1" d="M678.54,71.11l-42.39-57.39v56.33h-2.06V0l42.39,56.83V1.11h2.06v70Z"/><path class="cls-1" d="M747.99,60.49c-5.19,6.82-12.2,10.23-21.06,10.23s-15.77-3.52-22.08-10.55c-6.32-7.03-9.47-15.25-9.47-24.65s2.85-17.76,8.56-24.65c5.81-7.03,12.87-10.55,21.17-10.55s14.83,2.3,20.17,6.89l-2.61,3.11c-4.85-5.26-10.7-7.89-17.56-7.89s-12.09,3.24-16.17,9.73c-3.89,6.15-5.83,13.94-5.83,23.35s2.26,17.01,6.78,23.35c4.56,6.49,10.24,9.73,17.06,9.73,7.89,0,13.94-3.46,18.17-10.39l2.89,2.27Z"/><path class="cls-1" d="M797.88,70.06h-32.11V1.06h30.94v2.11h-24.22v27.89h21.83v2.11h-21.83v34.78h25.39v2.11Z"/><path class="cls-1" d="M889.32,70h-6.72v-36.83h-32.94v36.83h-6.72V1.17h6.72v29.89h32.94V1.17h6.72v68.83Z"/><path class="cls-1" d="M959.93,70.06h-7.04l-11.37-29.22h-15.88v-2.11h15.05l-10.44-27.02-22.55,58.35h-2.38S932.54,0,932.54,0l27.39,70.06Z"/><path class="cls-1" d="M1008.43,70.06h-32.11V1.06h6.72v66.89h25.39v2.11Z"/><path class="cls-1" d="M1055.54,70.06h-32.11V1.06h6.72v66.89h25.39v2.11Z"/><path class="cls-1" d="M363.05,88.98c-6.54,5.46-11.88,15.48-11.88,27.6s5.52,22.32,11.88,27.6v.3h-3.6c-6.06-5.46-11.46-15.54-11.46-27.9s5.4-22.44,11.46-27.9h3.6v.3Z"/><path class="cls-1" d="M397.42,137.33h-4.22l-6.82-17.53h-9.52v-1.27h9.03l-6.27-16.21-13.53,35.01h-1.43s16.33-42.03,16.33-42.03l16.43,42.03Z"/><path class="cls-1" d="M411.29,137.29h-4.03v-41.33h4.03v41.33Z"/><path class="cls-1" d="M449.14,137.36h-4.38l-13.23-23c.64.04,1.27.07,1.87.07,5.89,0,8.83-2.77,8.83-8.3,0-6.11-3.7-9.11-11.1-9h-2.7v40.23h-4v-41.37c.62-.04,3.03-.07,7.23-.07,9.71-.09,14.57,3.25,14.57,10.03,0,2.67-.87,4.85-2.6,6.55-1.73,1.7-4.08,2.73-7.05,3.08l12.57,21.78Z"/><path class="cls-1" d="M480.52,127.14c0,3.26-1.23,5.89-3.7,7.89-2.22,1.8-4.83,2.7-7.83,2.7-3.84,0-7.24-1.14-10.2-3.41l1.27-1.89c2.67,2.53,5.64,3.8,8.93,3.8,2.44,0,4.44-.73,5.98-2.18,1.54-1.45,2.32-3.46,2.32-6.01,0-4.35-2.82-8.09-8.47-11.21-6.33-3.53-9.37-7.81-9.1-12.85.13-2.55,1.21-4.6,3.23-6.16,1.96-1.49,4.37-2.23,7.23-2.23,1.24.07,2.4.24,3.47.53,2.58.66,4.48,1.83,5.7,3.51l-1.5,1.52c-.67-.97-1.58-1.83-2.73-2.58-1.58-1.06-3.24-1.59-5-1.59-2,0-3.7.56-5.1,1.68s-2.17,2.56-2.3,4.31c-.25,3.44,2.17,6.66,7.23,9.65,4.13,2.42,7.01,4.89,8.63,7.42,1.29,2.02,1.93,4.38,1.93,7.09Z"/><path class="cls-1" d="M538.89,131.59c-3.11,4.09-7.32,6.14-12.63,6.14s-9.46-2.11-13.25-6.33c-3.79-4.22-5.68-9.15-5.68-14.79s1.71-10.66,5.13-14.79c3.49-4.22,7.72-6.33,12.7-6.33s8.9,1.38,12.1,4.13l-1.57,1.87c-2.91-3.16-6.42-4.73-10.53-4.73s-7.26,1.95-9.7,5.84c-2.33,3.69-3.5,8.36-3.5,14.01s1.35,10.21,4.07,14.01c2.73,3.89,6.14,5.84,10.23,5.84,4.73,0,8.37-2.08,10.9-6.23l1.73,1.36Z"/><path class="cls-1" d="M590.82,116.61c0,5.95-1.91,10.92-5.73,14.92-3.89,4.13-8.86,6.2-14.9,6.2s-11.02-2.07-14.93-6.2c-3.8-4-5.7-8.97-5.7-14.92s1.9-10.9,5.7-14.92c3.91-4.13,8.89-6.2,14.93-6.2s11.01,2.07,14.9,6.2c3.82,4.02,5.73,8.99,5.73,14.92ZM586.39,116.61c0-5.71-1.46-10.45-4.37-14.22-3.04-3.93-6.99-5.9-11.83-5.9s-8.82,1.96-11.87,5.9c-2.91,3.77-4.37,8.51-4.37,14.22s1.46,10.45,4.37,14.22c3.04,3.93,7,5.9,11.87,5.9s8.79-1.96,11.83-5.9c2.91-3.77,4.37-8.51,4.37-14.22Z"/><path class="cls-1" d="M628.99,124.39c0,4.18-1.44,7.51-4.33,10-2.62,2.22-5.87,3.33-9.73,3.33s-7.09-1.12-9.73-3.37c-2.89-2.47-4.33-5.79-4.33-9.97v-28.43h4.03v28.17c0,8.13,3.34,12.2,10.03,12.2s10.03-4.07,10.03-12.2v-28.17h4.03v28.43Z"/><path class="cls-1" d="M664.34,137.36h-4.38l-13.23-23c.64.04,1.27.07,1.87.07,5.89,0,8.83-2.77,8.83-8.3,0-6.11-3.7-9.11-11.1-9h-2.7v40.23h-4v-41.37c.62-.04,3.03-.07,7.23-.07,9.71-.09,14.57,3.25,14.57,10.03,0,2.67-.87,4.85-2.6,6.55-1.73,1.7-4.08,2.73-7.05,3.08l12.57,21.78Z"/><path class="cls-1" d="M699.78,97.19h-10.83v40.13h-4.03v-40.13h-10.97v-1.27h25.83v1.27Z"/><path class="cls-1" d="M703.15,144.18c6.54-5.46,11.88-15.48,11.88-27.6s-5.52-22.32-11.88-27.6v-.3h3.6c6.12,5.46,11.46,15.54,11.46,27.9s-5.34,22.44-11.46,27.9h-3.6v-.3Z"/></g></svg>