<svg id="area03-01-txt" xmlns="http://www.w3.org/2000/svg" width="438.93" height="134.44" viewBox="0 0 438.93 134.44">
  <path id="パス_3200" data-name="パス 3200" d="M13.32,37.18a6.66,6.66,0,1,1-6.66-6.66A6.664,6.664,0,0,1,13.32,37.18Z" fill="#af9f4b"/>
  <path id="パス_3201" data-name="パス 3201" d="M29.72,37.42a17.276,17.276,0,0,0-3.98.41c.15.71.99,4.6.99,4.84,0,.46-.29.66-.48.66-.36,0-.81-.67-.84-1.53a25.421,25.421,0,0,0-.51-3.81,21.672,21.672,0,0,0-3.23.86c-.81.38-.82.38-.94.38-.27,0-1.47-.6-1.47-1.56,0-.12.03-.21.04-.34a1.809,1.809,0,0,0,1.38.78c.39,0,3.45-.64,4.09-.75-.04-.24-.33-1.71-.51-2.56a12.025,12.025,0,0,0-2.23.71c-.27.12-.3.13-.38.13-.1,0-.54-.09-1.06-.77a1.1,1.1,0,0,1-.24-.88,2.032,2.032,0,0,0,1.47.57,19.349,19.349,0,0,0,2.32-.38c-.46-2.29-.48-2.42-1.79-2.65a1.637,1.637,0,0,1,.98-.44c.03,0,1.62.11,1.62.69,0,.11-.1.54-.1.64A13.543,13.543,0,0,0,25.03,34c.3-.08,1.65-.35,1.91-.44a5.783,5.783,0,0,1,.75-.29,2.857,2.857,0,0,1,1.08.3.413.413,0,0,1,.14.31c0,.2-.15.4-.57.4a17.105,17.105,0,0,0-3.2.32c.21,1.3.3,1.84.47,2.58.27-.04,2.28-.46,2.35-.49.18-.07.73-.3.93-.35a2.229,2.229,0,0,1,.27-.03,3.081,3.081,0,0,1,1.36.33.464.464,0,0,1,.15.36c0,.42-.24.42-.96.42Z" fill="#040000"/>
  <path id="パス_3202" data-name="パス 3202" d="M33.26,37.8c-.33,0-.48-.34-.65-.72a6.558,6.558,0,0,0-1.09-1.62c.99.15,2.17.96,2.17,1.79,0,.3-.15.55-.44.55Zm6.18-1.51c-.09.1-.7,1.42-.84,1.68-2.16,4.06-4.83,4.77-5.88,5.05l-.03-.15a11.239,11.239,0,0,0,5.79-7.11c0-.36-.6-.71-.79-.81a2.923,2.923,0,0,1,.66-.11,1.906,1.906,0,0,1,1.41.98c0,.1-.03.15-.31.46Zm-3.6.87c-.31,0-.36-.13-.62-.82a5.513,5.513,0,0,0-.9-1.54c1.02.3,1.96,1.14,1.96,1.79,0,.31-.17.58-.45.58Z" fill="#040000"/>
  <path id="パス_3203" data-name="パス 3203" d="M51.14,42.33c-.33,0-.39-.11-.98-1.12a12.678,12.678,0,0,0-3.04-3.32,12.069,12.069,0,0,1-6.7,4.47v-.09a16.657,16.657,0,0,0,8.04-8.73,20.2,20.2,0,0,0-4.18.95c-.26.17-.35.21-.45.21a2.057,2.057,0,0,1-1.05-1.43,1.4,1.4,0,0,1,.15-.72c.46.81.69.92,1.08.92a28.341,28.341,0,0,0,4.21-.57c.12-.04.63-.46.75-.46a3.623,3.623,0,0,1,1.29,1.17c0,.15-.06.18-.55.4-.14.06-.19.15-.27.3a17,17,0,0,1-2.11,3.36c1.32.62,4.26,2.31,4.26,3.95,0,.49-.24.72-.44.72ZM51.16,33c-.18,0-.26-.08-.75-.71a4.433,4.433,0,0,0-1.53-1.21,3.534,3.534,0,0,1,1.85.44,1.028,1.028,0,0,1,.76.99c0,.48-.27.5-.33.5Zm1.53-.84c-.18,0-.25-.08-.9-.75a5.526,5.526,0,0,0-1.5-1.1c.48-.02,2.7.15,2.7,1.43C52.99,32.12,52.76,32.16,52.69,32.16Z" fill="#040000"/>
  <path id="パス_3204" data-name="パス 3204" d="M62.85,36.09c-.28.15-.31.21-.51.66-2.43,5.82-6.46,6.57-7.29,6.64l-.03-.11a12.13,12.13,0,0,0,6.36-7.51,35.659,35.659,0,0,0-5.71.84,3.4,3.4,0,0,1-.54.27,2.177,2.177,0,0,1-1.47-1.79,1.341,1.341,0,0,1,.1-.51,1.908,1.908,0,0,0,1.56.97c.72,0,5.79-.39,6.01-.49.13-.06.55-.54.67-.54.17,0,1.27.79,1.27,1.14,0,.2-.19.3-.44.42Zm-1.8-2.91c-1.15.06-3.58.27-3.93.33a6.081,6.081,0,0,1-1.05.12,1.568,1.568,0,0,1-1.2-1.62,2.36,2.36,0,0,0,1.95.71,12.746,12.746,0,0,0,3.57-.5c.3-.13.35-.16.48-.16.27,0,1.23.21,1.23.68,0,.3-.19.4-1.05.45Z" fill="#040000"/>
  <path id="パス_3205" data-name="パス 3205" d="M65.36,41.04a.566.566,0,0,1-.57-.62c0-.51.39-.78.98-1.14a7.025,7.025,0,0,0,2.04-2.33c-.17,2.19-1.53,4.08-2.45,4.08Zm10.35-5.26c-.15,0-1.06-.17-1.26-.2a18.545,18.545,0,0,0-1.95-.11c-.78,0-1.26.03-1.62.04-.03,1.21,0,3.66.08,4.86.01.15.04.92.04,1.01,0,.34-.12,1.7-.75,1.7-.24,0-.27-.08-.6-.75-.25-.53-.31-.59-1.65-1.54l.02-.08a13.731,13.731,0,0,0,1.75.33c.13,0,.19-.03.23-.15.07-.3.07-2.14.07-2.59s-.03-2.1-.04-2.7a13.316,13.316,0,0,0-3.3.69,1.1,1.1,0,0,1-.46.16,1.9,1.9,0,0,1-1.28-1.63,3.11,3.11,0,0,1,.09-.6c.72,1.04,1.2,1.04,1.47,1.04.12,0,.24-.02.31-.02,1.54-.12,2.31-.18,3.17-.25-.03-1.08-.06-2.18-.1-2.37-.15-.54-.38-.64-1.31-.88a1.621,1.621,0,0,1,.96-.39c.62,0,1.74.56,1.74.95,0,.09-.02.13-.18.54a6.663,6.663,0,0,0-.24,2.1c.49-.03,2.82-.22,3.15-.31.06-.02.54-.14.58-.14.24,0,1.41.35,1.41.93,0,.3-.17.38-.33.38Zm-.27,4.95c-.27,0-.31-.08-1.08-1.23a10.945,10.945,0,0,0-2.25-2.55c1.46.27,3.84,1.89,3.84,3.06,0,.39-.25.72-.51.72Zm.14-7.02c-.25,0-.31-.08-.85-.68a7.45,7.45,0,0,0-1.38-1.18c.84-.02,2.59.4,2.59,1.45A.37.37,0,0,1,75.58,33.71Zm1.44-1.05c-.23,0-.3-.07-.96-.76a3.854,3.854,0,0,0-1.37-.95c.75-.04,2.66.13,2.66,1.26C77.35,32.57,77.14,32.66,77.02,32.66Z" fill="#040000"/>
  <path id="パス_3206" data-name="パス 3206" d="M90.78,32.34H84.59V34.8c1.48.26,3.76,1.1,3.76,2.55a.647.647,0,0,1-.63.71c-.39,0-.51-.2-1.05-1.06a6.461,6.461,0,0,0-2.08-2.01c.02,3.4.02,3.78.09,7.23,0,.11.02.6.02.71a.721.721,0,0,1-.81.78c-.51,0-.51-.33-.51-.49,0-.44.1-2.56.12-3.04.03-1.19.03-1.85.03-7.81H79.88a11.3,11.3,0,0,0-1.75.13l-.3-.6c.76.06,1.53.11,2.31.11h8.34l.84-.81a.7.7,0,0,1,.24-.17.459.459,0,0,1,.28.15l1.04.79a.318.318,0,0,1,.15.22c0,.15-.15.17-.24.17Z" fill="#040000"/>
  <path id="パス_3207" data-name="パス 3207" d="M105.27,43.38a6.948,6.948,0,0,1-2.53.22c-1.21,0-2.13-.03-2.13-1.38,0-1.25.34-6.73.39-7.86H98.57a22.549,22.549,0,0,1-.58,3.46c.36.21,1.83,1.11,1.83,1.98a.547.547,0,0,1-.6.59.538.538,0,0,1-.46-.24c-.65-.75-.81-.91-1.1-1.21a8.148,8.148,0,0,1-3.36,4.23,8.73,8.73,0,0,1-2.05.94l-.05-.09a9.762,9.762,0,0,0,4.65-5.85,8.349,8.349,0,0,0-2.23-1.48V36.6a8.677,8.677,0,0,1,2.44.75,16.1,16.1,0,0,0,.41-2.98H94.91a10.533,10.533,0,0,0-1.77.13l-.29-.59c.93.08,1.86.09,2.29.09h2.35a14.438,14.438,0,0,0-.27-3.76l1.85.54s.15.09.15.21-.09.2-.46.49c-.03,1.41-.12,2.29-.14,2.52h2.27l.57-.49c.06-.04.17-.15.24-.15a.412.412,0,0,1,.24.11l.73.63s.12.09.12.17c0,.15-.19.25-.67.53-.15.99-.33,4.84-.38,6.12-.02.4-.03.78-.03.84,0,.79.23.79,1.6.79.67,0,1.02,0,1.19-.53.13-.42.4-1.69.51-2.22h.09c.06.34.28,1.86.38,2.16.06.16.09.19.3.39a.425.425,0,0,1,.13.33c0,.22-.17.51-.63.71Z" fill="#040000"/>
  <path id="パス_3208" data-name="パス 3208" d="M120.2,37.26h-6.04v4.89c0,.57,0,1.67-1.92,1.86-.04-.45-.15-.97-1.75-1.71l.02-.11a12.428,12.428,0,0,0,1.63.15c.71,0,.92-.06.92-.63V37.25h-4.14a10.471,10.471,0,0,0-1.77.13l-.3-.6c.93.07,1.86.11,2.31.11h3.9V35.37a4,4,0,0,0-.25-1.77l1.39.39a20.034,20.034,0,0,0,1.5-2.29h-5.13a9.852,9.852,0,0,0-1.77.14l-.29-.6c.93.08,1.84.11,2.29.11h4.98l.58-.51c.15-.12.18-.15.28-.15.06,0,.12.04.25.15l1.05.86a.357.357,0,0,1,.15.25c0,.22-.18.29-1.11.32a30.868,30.868,0,0,1-2.5,1.83.243.243,0,0,1,.18.2c0,.2-.24.33-.51.5v2.12h3.79l.78-.86c.14-.13.17-.2.23-.2.08,0,.15.06.29.16l1.03.86a.3.3,0,0,1,.15.24c0,.13-.12.15-.22.15Z" fill="#040000"/>
  <path id="パス_3209" data-name="パス 3209" d="M132.78,31.35l.44-.36a.426.426,0,0,1,.27-.13.412.412,0,0,1,.21.1l.65.56c.07.06.17.15.17.24,0,.18-.17.29-.5.51-.02.82-.03,2.55,0,5.25,0,.87.06,4.71.06,5.49a.757.757,0,0,1-.74.81c-.46,0-.43-.35-.4-.87h-9.31a2.41,2.41,0,0,1-.02.5c-.04.33-.48.51-.75.51-.31,0-.39-.21-.39-.46,0-.2.08-1.1.08-1.28.04-1,.06-1.74.06-7.14a30.2,30.2,0,0,0-.15-4.34l1.29.62h9.04Zm-9.16.36V42.59h9.31V31.71h-9.31ZM131.37,39a.358.358,0,0,1,.09.18c0,.2-.17.22-.29.22a1.533,1.533,0,0,1-.27-.02c-.48.2-.63.24-1.14.41.63.22,1.97.72,1.97,1.5a.474.474,0,0,1-.47.49c-.18,0-.25-.04-.84-.69a7.9,7.9,0,0,0-1.81-1.46c0,.29.04,1.68.04,1.83a.7.7,0,0,1-.69.67c-.24,0-.33-.21-.33-.45,0-.45.06-2.41.06-2.82a8.629,8.629,0,0,1-3.76,2.46l-.06-.09a13.339,13.339,0,0,0,3.42-3.17h-.89a.561.561,0,0,1-.6.57c-.39,0-.39-.27-.39-.44,0-.07.06-1.3.06-1.54a5.523,5.523,0,0,0-.1-1.18l1.12.45h3.4l.27-.25c.07-.08.15-.15.21-.15a.381.381,0,0,1,.21.12l.52.46a.259.259,0,0,1,.12.21c0,.06-.09.15-.35.38,0,.2.03,1.05.03,1.21a.507.507,0,0,1-.24.49l.69.59Zm-1.44-5.69.31-.45c.08-.12.15-.18.23-.18a.551.551,0,0,1,.29.15l.52.45c.08.06.17.13.17.22,0,.13-.14.16-.24.16h-2.58v1.11h2.07l.44-.51c.09-.11.15-.18.24-.18a.507.507,0,0,1,.29.15l.6.51c.09.08.15.13.15.23,0,.15-.14.16-.23.16h-6.21a11.047,11.047,0,0,0-1.77.13l-.3-.6c.77.07,1.54.11,2.31.11h1.47V33.66h-1.02a9.794,9.794,0,0,0-1.77.14l-.3-.6c.93.08,2.02.11,2.31.11h.78a5.584,5.584,0,0,0-.27-1.33l1.39.36c.09.03.2.06.2.18,0,.17-.15.26-.38.39v.4h1.3Zm.02,4.41V36.29h-3.54v1.43Zm-1.33.36c-.02.64-.02,1.05-.02,1.41a4.47,4.47,0,0,1,.85.2,7.185,7.185,0,0,0,1.06-1.21c-.34.09-.57-.07-.57-.39h-1.33Z" fill="#040000"/>
  <path id="パス_3210" data-name="パス 3210" d="M138.24,43.95V30.42h3.78v.64h-3.15V43.3h3.15v.64h-3.78Z" fill="#040000"/>
  <path id="パス_3211" data-name="パス 3211" d="M150.69,35.29h-2.96c0,.13,0,.9.02,1.54,1.11.3,2.44,1.2,2.44,2.03a.652.652,0,0,1-.58.69c-.4,0-.57-.35-.84-.96a3.765,3.765,0,0,0-1.02-1.47c0,.96.06,5.17.06,6.03,0,.69-.39.86-.69.86-.46,0-.46-.39-.46-.55,0-.74.13-3.96.15-4.62.01-.57.01-.93.01-1.26a13.151,13.151,0,0,1-3.49,4.12l-.09-.09a24.33,24.33,0,0,0,3.51-6.31h-1.06a9.552,9.552,0,0,0-1.77.13l-.3-.6c1.03.09,2.1.11,2.31.11h.89V32.45a15.2,15.2,0,0,1-2.9.22v-.13c1.63-.32,4.44-1.21,5.22-2.05l1,1.05a.283.283,0,0,1,.09.2c0,.12-.06.15-.23.15-.04,0-.41-.08-.48-.09-.33.09-.77.22-1.79.46v2.69h1.21l.53-.68c.09-.12.15-.18.22-.18a.571.571,0,0,1,.29.15l.78.67c.1.09.15.13.15.22,0,.13-.12.17-.23.17Zm5.4,7.98c-.5,0-.65-.52-.72-.85-.09-.41-.23-1.02-.27-1.2a50.328,50.328,0,0,1-5.26,1.38c-.04.04-.15.29-.19.33a.252.252,0,0,1-.18.07c-.09,0-.18-.04-.29-.29l-.57-1.33a6.262,6.262,0,0,0,.92.07c.18,0,.3,0,.76-.03,1.06-3.42,2.35-8.76,2.22-10.46l1.69.66c.08.03.21.11.21.24,0,.15-.06.18-.66.46a57.3,57.3,0,0,1-3.03,9.07,41.409,41.409,0,0,0,4.31-.45,11.316,11.316,0,0,0-1.71-3.06l.06-.07c1.84,1.08,3.4,3.31,3.4,4.6,0,.74-.51.84-.69.84Z" fill="#040000"/>
  <path id="パス_3212" data-name="パス 3212" d="M168.99,42.58l.78-.84c.08-.07.15-.2.24-.2s.18.08.28.17l1.04.84a.3.3,0,0,1,.15.22c0,.13-.12.16-.23.16H160.11a10.525,10.525,0,0,0-1.77.14l-.29-.6c.99.09,2.01.11,2.29.11h4.51c.35-.84,2.15-6.22,2.06-8.14l1.68.82a.27.27,0,0,1,.14.21c0,.16-.06.18-.6.4-.21.53-1.15,2.96-1.31,3.32a23.993,23.993,0,0,1-1.63,3.39h3.79Zm-.87-9.18.63-.84c.1-.13.17-.2.23-.2.09,0,.18.09.29.17l1.05.86c.09.07.14.13.14.21,0,.13-.1.17-.23.17h-9.18a11.32,11.32,0,0,0-1.77.13l-.28-.59c1.03.08,2.16.09,2.29.09h2.91a6.953,6.953,0,0,0-.39-2.88l1.8.45c.08.02.18.04.18.15,0,.15-.34.42-.54.58-.03.27-.03,1.46-.03,1.7h2.91Zm-7.17,1.39a8.659,8.659,0,0,1,2.56,5.61c0,.6-.35.96-.72.96-.6,0-.65-.69-.67-1.06a14.166,14.166,0,0,0-1.23-5.46l.06-.04Z" fill="#040000"/>
  <path id="パス_3213" data-name="パス 3213" d="M172.76,43.95v-.64h3.15V31.07h-3.15v-.64h3.78V43.96h-3.78Z" fill="#040000"/>
  <path id="パス_3214" data-name="パス 3214" d="M13.32,67.18a6.66,6.66,0,1,1-6.66-6.66,6.664,6.664,0,0,1,6.66,6.66Z" fill="#af9f4b"/>
  <path id="パス_3215" data-name="パス 3215" d="M29.22,64.03a2.277,2.277,0,0,0-1.08.54,31.262,31.262,0,0,1-2.89,1.83c-.09.29-.45,1.61-.53,1.86-1.05,3.62-2.86,4.63-3.61,5.05l-.04-.09a13.266,13.266,0,0,0,3.1-7.2c0-.44-.25-.62-1.04-.9a1.875,1.875,0,0,1,.77-.24c.55,0,1.48.35,1.48.75a2.534,2.534,0,0,1-.03.3,9.7,9.7,0,0,0,2.5-2.62c0-.04-.02-.09-.21-.09a44.193,44.193,0,0,0-6.36.86,8.3,8.3,0,0,1-.81.31c-.15,0-1.33-.62-1.33-1.44a2.457,2.457,0,0,1,.1-.72,1.606,1.606,0,0,0,1.54.93c.66,0,6.34-.57,7.02-.71.12-.01.63-.24.73-.24a4.032,4.032,0,0,1,1.4,1.47c0,.25-.06.26-.72.35Z" fill="#040000"/>
  <path id="パス_3216" data-name="パス 3216" d="M40.92,72.25c-.31,0-.48-.25-.61-.48a12.063,12.063,0,0,0-3.36-3.96c-2.67,3.36-5.22,4.3-6.63,4.59v-.12c3.46-1.53,7.12-6.12,7.95-8.91a27.243,27.243,0,0,0-3.87.86,5.609,5.609,0,0,1-.81.36,1.833,1.833,0,0,1-1.05-1.52,1.43,1.43,0,0,1,.13-.64c.57.9.83.91,1.12.91a19.371,19.371,0,0,0,4.29-.67,3.539,3.539,0,0,1,.69-.42c.17,0,1.27.95,1.27,1.2,0,.17-.1.2-.58.38-.1.04-.12.08-.31.44a19.772,19.772,0,0,1-2,3.3c1.8.79,4.29,2.58,4.29,3.99,0,.41-.17.71-.53.71Z" fill="#040000"/>
  <path id="パス_3217" data-name="パス 3217" d="M52,64.87c-.34.15-.48.29-.81.93a14.444,14.444,0,0,1-5.31,6.11,9.669,9.669,0,0,1-2.94,1.27l-.03-.1a18.089,18.089,0,0,0,7.68-8.62c-.62.06-1.64.21-2.25.3a4.491,4.491,0,0,1-.48.06,1.764,1.764,0,0,1-.77-.25,10.924,10.924,0,0,1-3.97,3.48l-.08-.12c2.46-2.25,3.92-4.95,3.92-5.43,0-.15-.03-.27-.83-.75a2.45,2.45,0,0,1,.74-.12c.6,0,1.69.69,1.69,1.08,0,.13-.06.21-.35.48a11,11,0,0,0-.73.88,12.369,12.369,0,0,0,2.94-.27c.13-.04.65-.45.79-.45.17,0,1.25.9,1.25,1.19,0,.11-.04.15-.47.35Z" fill="#040000"/>
  <path id="パス_3218" data-name="パス 3218" d="M57,74.35l-.07-.09a8.054,8.054,0,0,0,3.57-6.6c0-.97-.29-2.64-1.53-2.64a3.727,3.727,0,0,0-2.45,1.56c-.61.77-.79.99-1.11.99a1.613,1.613,0,0,1-1.51-1.61,1.843,1.843,0,0,1,.06-.4c.3.36.53.62.93.62.19,0,.29,0,1.25-.55a5.492,5.492,0,0,1,2.94-1.08c2.23,0,2.59,2.14,2.59,3.24A7.058,7.058,0,0,1,57,74.36Zm2.94-11.49c-.17,0-.93-.12-1.09-.12a4.554,4.554,0,0,0-1.58.45l-.04-.04c.81-.78.84-.81.84-.96,0-.09-.07-.15-.24-.22a3.62,3.62,0,0,1-1.74-1.21,1.06,1.06,0,0,1-.3-.78c.69.64,1.21.79,3,1.26,1.05.29,1.63.76,1.63,1.23,0,.35-.24.41-.48.41Z" fill="#040000"/>
  <path id="パス_3219" data-name="パス 3219" d="M69.8,72.55l-.02-.12c3.21-1.14,4.71-3.25,4.71-5.53,0-2.54-2.04-4.04-4.65-4.04a1.091,1.091,0,0,0-.61.09c.81.44,1.03.99,1.03,1.2,0,.17-.04.27-.51,1.25-.96,2.05-2.37,5.07-3.39,5.91a.807.807,0,0,1-.48.17c-.34,0-.48-.2-.93-.83-.1-.15-.71-.7-.81-.84a2.743,2.743,0,0,1-.42-1.53,6.087,6.087,0,0,1,6.39-5.88c2.91,0,5.55,1.69,5.55,4.71s-2.43,5.14-5.86,5.45Zm-1.19-9.51a5.456,5.456,0,0,0-3.94,5.16c0,1.02.58,2.14,1.17,2.14.4,0,.99-1.06,1.25-1.57,1.5-3.02,1.99-3.99,1.99-4.77a1.315,1.315,0,0,0-.46-.96Z" fill="#040000"/>
  <path id="パス_3220" data-name="パス 3220" d="M84.95,70.75c-.15,0-.22-.04-.85-.51a9.814,9.814,0,0,0-4.2-.97c-.58,0-2.08.12-2.08,1.54,0,1.56,2.19,1.7,3.19,1.7.29,0,1.52-.11,1.77-.11.39,0,.96.16.96.6,0,.55-.58.55-1.41.55-1.14,0-5.16,0-5.16-2.58,0-2.02,2.07-2.17,3.23-2.17a15.317,15.317,0,0,1,3.39.38.24.24,0,0,0,.1.02c.08,0,.14,0,.14-.09a.706.706,0,0,0-.15-.33c-.04-.08-.47-.69-1.54-2.24a12.7,12.7,0,0,1-3.42.69,2.058,2.058,0,0,1-1.88-1.2,3.978,3.978,0,0,0,1.8.45,9.426,9.426,0,0,0,3.04-.63,17.7,17.7,0,0,1-.94-1.8,9.135,9.135,0,0,1-2.04.44,1.978,1.978,0,0,1-1.68-1.02,2.927,2.927,0,0,0,1.36.31,6.177,6.177,0,0,0,2.05-.4c-.1-.22-.51-1.26-.61-1.46a1.555,1.555,0,0,0-1.56-.57,1.17,1.17,0,0,1,1.25-.73c.31,0,1.26.12,1.33.63.02.15.06.88.09,1.02a7.813,7.813,0,0,0,.21.81,5.752,5.752,0,0,0,.98-.54c.54-.36.6-.41.85-.41.33,0,.61.2.61.42,0,.17-.07.3-.38.47a9.748,9.748,0,0,1-1.78.81,11.123,11.123,0,0,0,.92,1.76,13.449,13.449,0,0,0,1.32-.72c.45-.27.51-.31.77-.31.39,0,.69.21.69.44,0,.21-.23.36-.42.46a19.088,19.088,0,0,1-1.88.84,25.057,25.057,0,0,0,2.01,2.46c.46.51.48.68.48.9,0,.33-.17,1.11-.56,1.11Z" fill="#040000"/>
  <path id="パス_3221" data-name="パス 3221" d="M90.17,64.05c.08.04.18.12.18.2,0,.2-.15.29-.36.44,0,2.7,0,5.4.01,8.08,0,.54,0,1.17-.78,1.17-.39,0-.46-.2-.46-.4,0-.22.13-1.89.15-2.25.09-1.98.09-3.6.1-6.45a12.646,12.646,0,0,1-2.37,2.8l-.09-.08A21.553,21.553,0,0,0,89.7,60.5c0-.09-.02-.2-.03-.3l1.41.76a.358.358,0,0,1,.21.29c0,.2-.18.26-.57.39a12.853,12.853,0,0,1-1.05,2.12l.49.3Zm2.29,3.98a10.454,10.454,0,0,0-1.75.13l-.3-.6c.76.06,1.53.11,2.31.11h2.05a10.847,10.847,0,0,0-.19-2.31l1.39.3c.08.02.2.06.2.18s-.1.21-.41.46c0,.41-.01.77-.01,1.37h2.62l.6-.69c.15-.18.17-.2.24-.2s.07.02.28.17l.95.69a.281.281,0,0,1,.15.22c0,.13-.12.17-.23.17H95.95a8.051,8.051,0,0,0,4.86,3.76v.09a2.9,2.9,0,0,0-1.33,1.06,10.723,10.723,0,0,1-3.72-4.92h-.01c0,.91.04,2.34.06,2.76.01.38.1,2.07.1,2.41,0,.26,0,.78-.79.78-.35,0-.47-.18-.47-.49,0-.02.1-2.36.1-2.62.02-.79.03-1.35.03-2.05a10.991,10.991,0,0,1-4.63,4.05l-.02-.1a17.375,17.375,0,0,0,3.99-4.72H92.45Zm4.98-6.84.31-.35c.06-.06.1-.13.23-.13a.517.517,0,0,1,.28.13l.6.45c.09.08.2.18.2.27,0,.15-.14.27-.51.45-.02,1.01.02,1.68.02,1.86.02.21.07,1.23.07,1.34,0,.39-.18.69-.73.69-.38,0-.36-.35-.34-.69H93.34c0,.45-.21.82-.69.82-.33,0-.42-.24-.42-.48,0-.12.1-2.5.1-2.98a10.108,10.108,0,0,0-.14-2.12l1.27.74h3.98Zm-4.14.36v3.3h4.26v-3.3Z" fill="#040000"/>
  <path id="パス_3222" data-name="パス 3222" d="M112.61,62.38l.65-.81c.09-.1.15-.21.25-.21s.21.11.29.16l.84.81c.07.06.17.15.17.24,0,.13-.12.16-.23.16h-6.6c-.6.57-1.33,1.23-2.13,1.86,1.81-.09,3.42-.17,5.47-.36a4.286,4.286,0,0,0-1.33-.81l.06-.12c2.23.35,4.09,1.23,4.09,2.21a.637.637,0,0,1-.61.66c-.3,0-.45-.15-.92-.68a8.012,8.012,0,0,0-1.02-1.04c-.31.06-3.63.74-8.52,1.32-.1.21-.2.39-.36.39-.13,0-.21-.13-.25-.27l-.54-1.46a6.224,6.224,0,0,0,1.74.22c.09,0,.55,0,1.77-.06a17.956,17.956,0,0,0,.93-1.88h-2.74a10.431,10.431,0,0,0-1.76.13l-.3-.6c1.02.08,2.08.11,2.29.11h3.78a5.209,5.209,0,0,0-.33-2.14l1.56.36c.14.03.27.07.27.22,0,.09-.29.36-.42.5v1.06h3.9Zm-1.62,3.75c.12-.13.2-.2.29-.2a.358.358,0,0,1,.21.09l.6.42c.07.06.18.18.18.26a.4.4,0,0,1-.13.21,2.89,2.89,0,0,0-.25.24c0,.82.1,4.62.1,5.28,0,1.37-1.59,1.63-1.8,1.67-.03-.27-.12-.88-1.27-1.39v-.12c.63.04,1.27.06,1.33.06.56,0,.63,0,.63-.27V70.79h-5.26c.02.4.08,2.25.08,2.53a.73.73,0,0,1-.78.78c-.42,0-.42-.27-.42-.48,0-.24.08-1.3.08-1.53.03-1.23.04-2.94.04-4.14a8.131,8.131,0,0,0-.19-2.08l1.39.64h4.88l.31-.38Zm-.12.73h-5.26V68.4h5.26Zm0,1.91h-5.26v1.65h5.26Z" fill="#040000"/>
  <path id="パス_3223" data-name="パス 3223" d="M127.34,61.35l.44-.36a.426.426,0,0,1,.27-.13.412.412,0,0,1,.21.1l.65.56c.07.06.16.15.16.24,0,.18-.16.29-.49.51-.02.82-.03,2.55,0,5.25,0,.87.06,4.71.06,5.49a.757.757,0,0,1-.74.81c-.46,0-.43-.35-.4-.87h-9.31a2.41,2.41,0,0,1-.02.5c-.04.33-.48.51-.75.51-.31,0-.39-.21-.39-.46,0-.2.08-1.1.08-1.28.04-1,.06-1.74.06-7.14a30.2,30.2,0,0,0-.15-4.34l1.29.62h9.04Zm-9.16.36V72.59h9.31V61.71h-9.31ZM125.93,69a.358.358,0,0,1,.09.18c0,.2-.17.22-.29.22a1.533,1.533,0,0,1-.27-.02c-.48.2-.63.24-1.14.41.63.22,1.97.72,1.97,1.5a.474.474,0,0,1-.47.49c-.18,0-.25-.04-.84-.69a7.9,7.9,0,0,0-1.81-1.46c0,.29.04,1.68.04,1.83a.7.7,0,0,1-.69.67c-.24,0-.33-.21-.33-.45,0-.45.06-2.41.06-2.82a8.629,8.629,0,0,1-3.76,2.46l-.06-.09a13.34,13.34,0,0,0,3.42-3.17h-.89a.561.561,0,0,1-.6.57c-.39,0-.39-.27-.39-.44,0-.07.06-1.3.06-1.54a5.523,5.523,0,0,0-.1-1.18l1.12.45h3.4l.27-.25c.07-.08.15-.15.21-.15a.381.381,0,0,1,.21.12l.52.46a.259.259,0,0,1,.12.21c0,.06-.09.15-.35.38,0,.2.03,1.05.03,1.21a.507.507,0,0,1-.24.49l.69.59Zm-1.44-5.69.31-.45c.08-.12.15-.18.23-.18a.551.551,0,0,1,.29.15l.52.45c.08.06.17.13.17.22,0,.13-.14.16-.24.16h-2.58v1.11h2.07l.44-.51c.09-.11.15-.18.24-.18a.507.507,0,0,1,.29.15l.6.51c.09.08.15.13.15.23,0,.15-.14.16-.23.16h-6.21a11.047,11.047,0,0,0-1.77.13l-.3-.6c.77.07,1.54.11,2.31.11h1.47V63.66h-1.02a9.794,9.794,0,0,0-1.77.14l-.3-.6c.93.08,2.02.11,2.31.11h.78a5.584,5.584,0,0,0-.27-1.33l1.39.36c.09.03.2.06.2.18,0,.17-.15.26-.38.39v.4h1.3Zm.02,4.41V66.29h-3.54v1.43Zm-1.33.36c-.02.64-.02,1.05-.02,1.41a4.47,4.47,0,0,1,.85.2,7.186,7.186,0,0,0,1.06-1.21c-.34.09-.57-.07-.57-.39h-1.33Z" fill="#040000"/>
  <path id="パス_3224" data-name="パス 3224" d="M132.8,73.95V60.42h3.78v.64h-3.15V73.3h3.15v.64H132.8Z" fill="#040000"/>
  <path id="パス_3225" data-name="パス 3225" d="M145.25,65.29h-2.96c0,.13,0,.9.02,1.54,1.11.3,2.44,1.2,2.44,2.03a.652.652,0,0,1-.58.69c-.4,0-.57-.35-.84-.96a3.765,3.765,0,0,0-1.02-1.47c0,.96.06,5.17.06,6.03,0,.69-.39.86-.69.86-.47,0-.47-.39-.47-.55,0-.74.14-3.96.15-4.62.01-.57.01-.93.01-1.26a13.151,13.151,0,0,1-3.49,4.12l-.09-.09a24.33,24.33,0,0,0,3.51-6.31h-1.06a9.552,9.552,0,0,0-1.77.13l-.3-.6c1.03.09,2.1.11,2.31.11h.89V62.45a15.2,15.2,0,0,1-2.9.22v-.13c1.63-.32,4.44-1.21,5.22-2.05l1,1.05a.283.283,0,0,1,.09.2c0,.12-.06.15-.23.15-.04,0-.41-.08-.48-.09-.33.09-.77.22-1.79.46v2.69h1.21l.53-.68c.09-.12.15-.18.22-.18a.571.571,0,0,1,.29.15l.78.67c.1.09.15.13.15.22,0,.13-.12.17-.23.17Zm5.4,7.98c-.5,0-.65-.52-.72-.85-.09-.41-.23-1.02-.27-1.2a50.325,50.325,0,0,1-5.26,1.38c-.04.04-.15.29-.19.33a.252.252,0,0,1-.18.07c-.09,0-.18-.04-.29-.29l-.57-1.33a6.262,6.262,0,0,0,.92.07c.18,0,.3,0,.76-.03,1.06-3.42,2.35-8.76,2.22-10.46l1.69.66c.08.03.21.11.21.24,0,.15-.06.18-.66.46a57.3,57.3,0,0,1-3.03,9.07,41.409,41.409,0,0,0,4.31-.45,11.316,11.316,0,0,0-1.71-3.06l.06-.07c1.85,1.08,3.41,3.31,3.41,4.6,0,.74-.51.84-.69.84Z" fill="#040000"/>
  <path id="パス_3226" data-name="パス 3226" d="M163.55,72.58l.78-.84c.08-.07.15-.2.24-.2s.18.08.28.17l1.04.84a.3.3,0,0,1,.15.22c0,.13-.12.16-.23.16H154.67a10.525,10.525,0,0,0-1.77.14l-.29-.6c.99.09,2.01.11,2.29.11h4.51c.35-.84,2.15-6.22,2.06-8.14l1.68.82a.27.27,0,0,1,.14.21c0,.16-.06.18-.6.4-.21.53-1.15,2.96-1.31,3.32a23.993,23.993,0,0,1-1.63,3.39h3.79Zm-.87-9.18.63-.84c.1-.13.17-.2.23-.2.09,0,.18.09.29.17l1.05.86c.09.07.14.13.14.21,0,.13-.1.17-.23.17h-9.18a11.32,11.32,0,0,0-1.77.13l-.28-.59c1.03.08,2.16.09,2.29.09h2.91a6.953,6.953,0,0,0-.39-2.88l1.8.45c.07.02.18.04.18.15,0,.15-.34.42-.54.58-.03.27-.03,1.46-.03,1.7h2.91Zm-7.17,1.39a8.659,8.659,0,0,1,2.56,5.61c0,.6-.35.96-.72.96-.6,0-.65-.69-.67-1.06a14.166,14.166,0,0,0-1.23-5.46l.06-.04Z" fill="#040000"/>
  <path id="パス_3227" data-name="パス 3227" d="M167.31,73.95v-.64h3.15V61.07h-3.15v-.64h3.78V73.96h-3.78Z" fill="#040000"/>
  <path id="パス_3228" data-name="パス 3228" d="M13.32,97.18a6.66,6.66,0,1,1-6.66-6.66,6.664,6.664,0,0,1,6.66,6.66Z" fill="#af9f4b"/>
  <path id="パス_3229" data-name="パス 3229" d="M19.05,103.14a18.076,18.076,0,0,0,7.68-8.62c-.6.06-1.62.23-2.25.3a3.7,3.7,0,0,1-.48.06,1.9,1.9,0,0,1-.76-.26,11.123,11.123,0,0,1-3.98,3.48l-.07-.12c2.46-2.25,3.91-4.93,3.91-5.43,0-.15-.03-.27-.82-.75a2.442,2.442,0,0,1,.73-.12c.6,0,1.69.69,1.69,1.08,0,.16-.06.21-.34.48a6.548,6.548,0,0,0-.74.88,12.421,12.421,0,0,0,2.94-.27c.14-.04.66-.45.79-.45s1.25.88,1.25,1.19c0,.12-.04.15-.46.35-.35.16-.48.28-.81.93a15.246,15.246,0,0,1-3.85,5.05,11.164,11.164,0,0,1-4.39,2.32l-.03-.11ZM29.61,93.3a.39.39,0,0,1-.39.44c-.18,0-.29-.07-.48-.3A7.692,7.692,0,0,0,27,91.79c1.37.12,2.61.71,2.61,1.51Zm1.44-.71c0,.39-.25.39-.36.39-.17,0-.19-.03-.84-.64a5.26,5.26,0,0,0-1.53-1.06c1.16.03,2.73.3,2.73,1.32Z" fill="#040000"/>
  <path id="パス_3230" data-name="パス 3230" d="M41.47,94.44c-.34.24-.36.26-.58,1.43-.22,1.2-.51,2.76-.7,3.57a.467.467,0,0,0-.03.17c0,.11.03.13.29.31.36.26.46.35.46.55a.356.356,0,0,1-.4.36c-.08,0-.18-.02-.29-.03a16.472,16.472,0,0,0-2.67-.13,30.292,30.292,0,0,0-3.46.17c0,.29-.03.84-.4.84-.53,0-.78-1.05-.78-1.46,0-.11.06-.57.06-.66a36.7,36.7,0,0,0-.45-5.36c-.15-.53-.41-.67-1.02-.9a1.55,1.55,0,0,1,.76-.25c.39,0,.62.12,1.33.55a.822.822,0,0,0,.48.12c.17,0,.92-.07,1.06-.09.71-.04,3.78-.22,4.4-.33a1.161,1.161,0,0,0,.78-.34.285.285,0,0,1,.2-.11c.18,0,1.32.97,1.32,1.21,0,.12-.09.21-.35.38Zm-1.86-.4c-.44,0-2.35.1-4.12.29-.15.01-.89.12-1.06.12-.11,0-.58-.18-.71-.18-.04,0-.06.02-.06.13,0,.29.33,5.65.33,5.69.48,0,4.66-.23,5.28-.27.06-.49.63-4.57.63-5.44,0-.17-.06-.33-.29-.33Z" fill="#040000"/>
  <path id="パス_3231" data-name="パス 3231" d="M54.17,97.69c-.14,0-.5-.03-.52-.03a16.34,16.34,0,0,0-1.7-.06c-4.57,0-5.92.09-6.6.27-.04.01-.52.13-.57.13-.39,0-1.2-.96-1.2-1.65a1.8,1.8,0,0,1,.18-.72c.51,1.14.98,1.14,2.53,1.14,1.04,0,5.91-.02,6.6-.18.09-.02.52-.13.61-.13s1.59.16,1.59.75c0,.46-.75.48-.93.48Z" fill="#040000"/>
  <path id="パス_3232" data-name="パス 3232" d="M61.49,95.4c-.26.31-1.12,1.84-1.32,2.14a9.928,9.928,0,0,1-4.15,3.78l-.03-.13c2.82-2.49,4.21-5.61,4.21-6.25,0-.38-.14-.72-.94-1.08a2.4,2.4,0,0,1,.76-.14,2.644,2.644,0,0,1,1.79,1.23,1.381,1.381,0,0,1-.31.45Zm6.63,5.11c-.43,0-.52-.33-.91-1.56a13.634,13.634,0,0,0-3.24-5.03c1.91.57,4.71,3.53,4.71,5.76,0,.4-.23.82-.56.82Zm-.4-5.95c-.21,0-.27-.08-.79-.69a6.081,6.081,0,0,0-1.41-1.2c.95-.02,2.55.51,2.55,1.44C68.07,94.41,67.89,94.56,67.72,94.56Zm1.25-1.37c-.18,0-.23-.04-.63-.48a6.59,6.59,0,0,0-1.66-1.17c.96-.06,2.65.36,2.65,1.23A.376.376,0,0,1,68.97,93.19Z" fill="#040000"/>
  <path id="パス_3233" data-name="パス 3233" d="M74.1,94.63c-.03.35-.15,1.89-.18,2.21a6.621,6.621,0,0,1-3.6,5.46l-.08-.09a9.254,9.254,0,0,0,2.77-7.11c0-1.26-.01-1.24-1.15-1.54a1.787,1.787,0,0,1,.99-.39c.39,0,1.41.33,1.41.75,0,.12-.15.62-.17.72Zm3.65,6.2a4.053,4.053,0,0,0-.94.84c-.08.07-.21.22-.3.22-.28,0-.96-1.23-.96-1.43,0-.1.18-.55.2-.66a24.682,24.682,0,0,0,.13-2.98c0-.55-.02-3.33-.09-3.69-.06-.27-.36-.46-1.08-.71a1.644,1.644,0,0,1,.84-.31c.45,0,1.62.45,1.62.9a8.112,8.112,0,0,1-.21.85c-.15.77-.23,4.96-.23,5.88,0,.06,0,.25.1.25.36,0,3.07-1.72,5.43-4.72l.12.09a13.775,13.775,0,0,1-4.63,5.46Z" fill="#040000"/>
  <path id="パス_3234" data-name="パス 3234" d="M93.53,97.42a17.276,17.276,0,0,0-3.98.41c.15.71.99,4.6.99,4.84,0,.46-.29.66-.48.66-.36,0-.81-.67-.84-1.53a25.421,25.421,0,0,0-.51-3.81,21.672,21.672,0,0,0-3.23.86c-.81.38-.82.38-.94.38-.27,0-1.47-.6-1.47-1.56,0-.12.03-.21.04-.34a1.809,1.809,0,0,0,1.38.78c.39,0,3.45-.64,4.09-.75-.04-.24-.33-1.71-.51-2.56a12.025,12.025,0,0,0-2.23.71c-.27.12-.3.13-.38.13-.1,0-.54-.09-1.06-.77a1.1,1.1,0,0,1-.24-.88,2.032,2.032,0,0,0,1.47.57,19.35,19.35,0,0,0,2.32-.38c-.46-2.29-.48-2.42-1.79-2.65a1.637,1.637,0,0,1,.98-.44c.03,0,1.62.11,1.62.69,0,.11-.1.54-.1.64A13.542,13.542,0,0,0,88.84,94c.3-.08,1.65-.35,1.91-.44a5.783,5.783,0,0,1,.75-.29,2.857,2.857,0,0,1,1.08.3.413.413,0,0,1,.14.31c0,.2-.15.4-.57.4a17.105,17.105,0,0,0-3.2.32c.21,1.3.3,1.84.47,2.58.27-.04,2.28-.46,2.35-.49.18-.07.73-.3.93-.35a2.228,2.228,0,0,1,.27-.03,3.081,3.081,0,0,1,1.36.33.464.464,0,0,1,.15.36c0,.42-.24.42-.96.42Z" fill="#040000"/>
  <path id="パス_3235" data-name="パス 3235" d="M97.07,97.8c-.33,0-.48-.34-.65-.72a6.558,6.558,0,0,0-1.09-1.62c.99.15,2.17.96,2.17,1.79,0,.3-.15.55-.44.55Zm6.18-1.51c-.09.1-.7,1.42-.84,1.68-2.16,4.06-4.83,4.77-5.88,5.05l-.03-.15a11.239,11.239,0,0,0,5.79-7.11c0-.36-.6-.71-.79-.81a2.923,2.923,0,0,1,.66-.11,1.906,1.906,0,0,1,1.41.98c0,.1-.03.15-.31.46Zm-3.6.87c-.31,0-.36-.13-.62-.82a5.513,5.513,0,0,0-.9-1.54c1.02.3,1.96,1.14,1.96,1.79,0,.31-.17.58-.45.58Z" fill="#040000"/>
  <path id="パス_3236" data-name="パス 3236" d="M114.95,102.33c-.33,0-.39-.11-.98-1.12a12.678,12.678,0,0,0-3.04-3.32,12.069,12.069,0,0,1-6.7,4.47v-.09a16.657,16.657,0,0,0,8.04-8.73,20.2,20.2,0,0,0-4.18.95c-.26.17-.35.21-.45.21a2.057,2.057,0,0,1-1.05-1.43,1.4,1.4,0,0,1,.15-.72c.46.81.69.92,1.08.92a28.34,28.34,0,0,0,4.21-.57c.12-.04.63-.46.75-.46a3.623,3.623,0,0,1,1.29,1.17c0,.15-.06.18-.55.4-.14.06-.19.15-.27.3a17,17,0,0,1-2.11,3.36c1.32.62,4.26,2.31,4.26,3.95,0,.49-.24.72-.44.72Zm.02-9.33c-.18,0-.26-.08-.75-.71a4.433,4.433,0,0,0-1.53-1.21,3.534,3.534,0,0,1,1.85.44,1.028,1.028,0,0,1,.76.99c0,.48-.27.5-.33.5Zm1.53-.84c-.18,0-.25-.08-.9-.75a5.526,5.526,0,0,0-1.5-1.1c.48-.02,2.7.15,2.7,1.43,0,.38-.23.42-.3.42Z" fill="#040000"/>
  <path id="パス_3237" data-name="パス 3237" d="M123.81,98.76c0,1.72-.32,2.83-1.56,2.91a1.8,1.8,0,0,0-.83-1.1l.04-.09a6.416,6.416,0,0,0,.89.07c.24,0,.39,0,.46-.63a7.157,7.157,0,0,0,.08-1.46h-1.67c.02.64.08,3.73.08,4.44,0,.08-.02.46-.02.55a.6.6,0,0,1-.63.62c-.26,0-.39-.15-.39-.42,0-.06.02-.16.02-.24.01-.18.01-1.66.01-2.07,0-.38.02-1.06.03-1.47a10.761,10.761,0,0,1-3.42,3.15l-.06-.09a17.034,17.034,0,0,0,3.33-4.47h-1.43a9.7,9.7,0,0,1-.22,1.08.705.705,0,0,1-.56.29.36.36,0,0,1-.4-.33c0-.04.39-1.72.43-1.92a13,13,0,0,0,.35-2.47l1,.75h1V93.92h-.81a11.183,11.183,0,0,0-1.75.13l-.3-.58c.73.06,1.56.09,2.29.09h1.48a7.829,7.829,0,0,0,.96-3.03l1.2.56c.15.07.22.13.22.24,0,.2-.27.3-.52.33-.51.65-1.33,1.68-1.56,1.91h.98l.31-.32c.09-.09.15-.13.21-.13a.44.44,0,0,1,.24.12l.46.33a.342.342,0,0,1,.17.24c0,.12-.06.22-.4.4.01.16.01.25.03,1,0,.17.04.98.04,1.1,0,.49-.51.55-.67.55-.33,0-.33-.12-.31-.64h-1.4v1.89h1.5l.38-.44a.289.289,0,0,1,.23-.13.375.375,0,0,1,.27.13l.4.36a.487.487,0,0,1,.18.27c0,.11-.09.21-.38.45Zm-4.16-5.6c-.34,0-.49-.3-.6-.69a3.644,3.644,0,0,0-.78-1.72l.06-.09c.63.24,1.88.96,1.88,1.88a.576.576,0,0,1-.56.63Zm-.46,3.06c-.13.51-.19.9-.38,1.89h1.53V96.22h-1.16Zm3.44-2.29h-1.38c-.02.29-.02,1.63-.02,1.94h1.4V93.93Zm1.33,9.15a.481.481,0,0,1-.5-.53c0-.17.03-.22.3-.75a2.872,2.872,0,0,0,.29-1.19l.08-.02a3.044,3.044,0,0,1,.52,1.54c0,.42-.24.93-.69.93Zm6.66-5.16h-5.19v1.39h3.6l.34-.4q.135-.18.24-.18a.569.569,0,0,1,.27.14l.52.38a.321.321,0,0,1,.19.27c0,.16-.18.29-.45.42-.38,3.24-1.14,4.17-2.88,4.17a2.45,2.45,0,0,0-.74-1.38l.02-.09a4.79,4.79,0,0,0,1.41.26c.19,0,.4-.04.63-.48a8.339,8.339,0,0,0,.57-2.73h-3.73a.574.574,0,0,1-.65.57c-.03,0-.38,0-.38-.29,0-.11.04-.51.04-.58.03-2.18.05-4.35.05-6.54a12.135,12.135,0,0,0-.08-1.48l1.17.73h.35a3.52,3.52,0,0,0,.34-1.88l1.11.51c.17.07.24.16.24.24,0,.15-.09.26-.44.24a12.129,12.129,0,0,1-.93.88h2.12l.36-.39c.09-.09.15-.15.23-.15a.473.473,0,0,1,.24.12l.54.39a.276.276,0,0,1,.14.22c0,.2-.27.38-.48.48.01.26,0,.4.04,1.77,0,.24.09,1.44.09,1.52,0,.51-.51.57-.66.57-.39,0-.4-.27-.4-.54h-3.04v1.48h3.5l.48-.6c.1-.13.17-.2.24-.2s.15.06.29.17l.78.6a.382.382,0,0,1,.15.24c0,.11-.09.15-.24.15Zm-4.98,4.81c-.34,0-.46-.26-.46-.57,0-.13.08-.75.08-.88a1.657,1.657,0,0,0-.09-.62l.08-.02a1.869,1.869,0,0,1,.94,1.47c0,.11-.04.62-.54.62Zm2.83-10.29h-3.04v1.47h3.04Zm0,1.83h-3.04v1.44h3.04Zm-1.63,7.84c-.3,0-.39-.21-.39-.45a3.349,3.349,0,0,0-.17-1.41l.08-.04a1.878,1.878,0,0,1,.97,1.37.5.5,0,0,1-.49.54Zm1.27-.55c-.35,0-.39-.26-.44-.46a2.123,2.123,0,0,0-.38-1.06l.04-.08c.73.2,1.17.71,1.17,1.14a.426.426,0,0,1-.4.46Z" fill="#040000"/>
  <path id="パス_3238" data-name="パス 3238" d="M138.35,102.55l-.02-.12c3.21-1.14,4.71-3.25,4.71-5.53,0-2.54-2.04-4.04-4.65-4.04a1.091,1.091,0,0,0-.61.09c.81.44,1.03.99,1.03,1.2,0,.17-.04.27-.51,1.25-.96,2.05-2.37,5.07-3.39,5.91a.807.807,0,0,1-.48.17c-.34,0-.48-.2-.93-.83-.1-.15-.71-.7-.81-.84a2.743,2.743,0,0,1-.42-1.53,6.087,6.087,0,0,1,6.39-5.88c2.91,0,5.55,1.69,5.55,4.71s-2.43,5.14-5.86,5.45Zm-1.19-9.51a5.456,5.456,0,0,0-3.94,5.16c0,1.02.58,2.14,1.17,2.14.41,0,.99-1.06,1.25-1.57,1.5-3.02,1.99-3.99,1.99-4.77a1.315,1.315,0,0,0-.46-.96Z" fill="#040000"/>
  <path id="パス_3239" data-name="パス 3239" d="M152.9,94.56a12.623,12.623,0,0,0,2.97,4.08,9.563,9.563,0,0,0,3.72,1.92v.11a2.485,2.485,0,0,0-1.78,1.11c-3.9-2.23-5.08-6.99-5.1-7.02,0,.84-.01,1.95,0,3.59,0,.78.18,4.8.18,4.88a.716.716,0,0,1-.79.79c-.57,0-.57-.3-.57-.51,0-.29.09-1.62.1-1.94.03-.93.04-1.43.09-5.82a12.974,12.974,0,0,1-2.02,3.03,12.271,12.271,0,0,1-4.06,3.15l-.03-.07a22.83,22.83,0,0,0,5.61-7.29h-3.31a10.255,10.255,0,0,0-1.77.13l-.3-.6c.76.06,1.54.11,2.31.11h3.58a13.182,13.182,0,0,0-.38-3.95l1.71.44c.08.02.19.04.19.18,0,.18-.17.29-.51.48,0,.4-.02,2.4-.02,2.85h3.81l.69-.82c.06-.06.15-.18.24-.18s.21.1.29.16l.9.81c.08.06.15.12.15.22,0,.15-.15.17-.24.17h-5.65Z" fill="#040000"/>
  <path id="パス_3240" data-name="パス 3240" d="M171.36,91.35l.44-.36a.426.426,0,0,1,.27-.13.412.412,0,0,1,.21.1l.65.56c.07.06.16.15.16.24,0,.18-.16.29-.49.51-.02.82-.03,2.55,0,5.25,0,.87.06,4.71.06,5.49a.757.757,0,0,1-.74.81c-.46,0-.43-.35-.4-.87h-9.31a2.41,2.41,0,0,1-.02.5c-.04.33-.48.51-.75.51-.31,0-.39-.21-.39-.46,0-.2.08-1.1.08-1.28.04-1,.06-1.74.06-7.14a30.2,30.2,0,0,0-.15-4.34l1.29.62h9.04Zm-9.16.36v10.88h9.31V91.71ZM169.95,99a.358.358,0,0,1,.09.18c0,.2-.17.22-.29.22a1.533,1.533,0,0,1-.27-.02c-.48.2-.63.24-1.14.41.63.22,1.97.72,1.97,1.5a.474.474,0,0,1-.47.49c-.18,0-.25-.04-.84-.69a7.9,7.9,0,0,0-1.81-1.46c0,.29.04,1.68.04,1.83a.7.7,0,0,1-.69.67c-.24,0-.33-.21-.33-.45,0-.45.06-2.41.06-2.82a8.629,8.629,0,0,1-3.76,2.46l-.06-.09a13.34,13.34,0,0,0,3.42-3.17h-.89a.561.561,0,0,1-.6.57c-.39,0-.39-.27-.39-.44,0-.07.06-1.3.06-1.54a5.523,5.523,0,0,0-.1-1.18l1.12.45h3.4l.27-.25c.07-.08.15-.15.21-.15a.381.381,0,0,1,.21.12l.52.46a.259.259,0,0,1,.12.21c0,.06-.09.15-.35.38,0,.2.03,1.05.03,1.21a.507.507,0,0,1-.24.49l.69.59Zm-1.44-5.69.31-.45c.08-.12.15-.18.23-.18a.551.551,0,0,1,.29.15l.52.45c.08.06.17.13.17.22,0,.13-.14.16-.24.16h-2.58v1.11h2.07l.44-.51c.09-.11.15-.18.24-.18a.507.507,0,0,1,.29.15l.6.51c.09.08.15.13.15.23,0,.15-.14.16-.23.16h-6.21a11.047,11.047,0,0,0-1.77.13l-.3-.6c.77.07,1.54.11,2.31.11h1.47V93.66h-1.02a9.794,9.794,0,0,0-1.77.14l-.3-.6c.93.08,2.02.11,2.31.11h.78a5.583,5.583,0,0,0-.27-1.33l1.39.36c.09.03.2.06.2.18,0,.17-.15.26-.38.39v.4h1.3Zm.02,4.41V96.29h-3.54v1.43Zm-1.33.36c-.02.64-.02,1.05-.02,1.41a4.47,4.47,0,0,1,.85.2,7.186,7.186,0,0,0,1.06-1.21c-.34.09-.57-.07-.57-.39h-1.33Z" fill="#040000"/>
  <path id="パス_3241" data-name="パス 3241" d="M176.82,103.95V90.42h3.78v.64h-3.15V103.3h3.15v.64h-3.78Z" fill="#040000"/>
  <path id="パス_3242" data-name="パス 3242" d="M189.27,95.29h-2.96c0,.13,0,.9.02,1.54,1.11.3,2.44,1.2,2.44,2.03a.652.652,0,0,1-.58.69c-.4,0-.57-.35-.84-.96a3.765,3.765,0,0,0-1.02-1.47c0,.96.06,5.17.06,6.03,0,.69-.39.86-.69.86-.47,0-.47-.39-.47-.55,0-.74.14-3.96.15-4.62.01-.57.01-.93.01-1.26a13.151,13.151,0,0,1-3.49,4.12l-.09-.09a24.33,24.33,0,0,0,3.51-6.31h-1.06a9.552,9.552,0,0,0-1.77.13l-.3-.6c1.03.09,2.1.11,2.31.11h.89V92.45a15.2,15.2,0,0,1-2.9.22v-.13c1.63-.32,4.44-1.21,5.22-2.05l1,1.05a.283.283,0,0,1,.09.2c0,.12-.06.15-.23.15-.04,0-.41-.08-.48-.09-.33.09-.77.22-1.79.46v2.69h1.21l.53-.68c.09-.12.15-.18.22-.18a.571.571,0,0,1,.29.15l.78.67c.1.09.15.13.15.22,0,.13-.12.17-.23.17Zm5.4,7.98c-.5,0-.65-.52-.72-.85-.09-.41-.23-1.02-.27-1.2a50.325,50.325,0,0,1-5.26,1.38c-.04.04-.15.29-.19.33a.252.252,0,0,1-.18.07c-.09,0-.18-.04-.29-.29l-.57-1.33a6.262,6.262,0,0,0,.92.07c.18,0,.3,0,.76-.03,1.06-3.42,2.35-8.76,2.22-10.46l1.69.66c.08.03.21.11.21.24,0,.15-.06.18-.66.46a57.3,57.3,0,0,1-3.03,9.07,41.409,41.409,0,0,0,4.31-.45,11.316,11.316,0,0,0-1.71-3.06l.06-.07c1.85,1.08,3.41,3.31,3.41,4.6,0,.74-.51.84-.69.84Z" fill="#040000"/>
  <path id="パス_3243" data-name="パス 3243" d="M207.57,102.58l.78-.84c.08-.07.15-.2.24-.2s.18.08.28.17l1.04.84a.3.3,0,0,1,.15.22c0,.13-.12.16-.23.16H198.69a10.525,10.525,0,0,0-1.77.14l-.29-.6c.99.09,2.01.11,2.29.11h4.51c.35-.84,2.15-6.22,2.06-8.14l1.68.82a.27.27,0,0,1,.14.21c0,.16-.06.18-.6.4-.21.53-1.15,2.96-1.31,3.32a23.993,23.993,0,0,1-1.63,3.39h3.79Zm-.87-9.18.63-.84c.1-.13.17-.2.23-.2.09,0,.18.09.29.17l1.05.86c.09.07.14.13.14.21,0,.13-.1.17-.23.17h-9.18a11.32,11.32,0,0,0-1.77.13l-.28-.59c1.03.08,2.16.09,2.29.09h2.91a6.953,6.953,0,0,0-.39-2.88l1.8.45c.07.02.18.04.18.15,0,.15-.34.42-.54.58-.03.27-.03,1.46-.03,1.7h2.91Zm-7.17,1.39a8.659,8.659,0,0,1,2.56,5.61c0,.6-.35.96-.72.96-.6,0-.65-.69-.67-1.06a14.166,14.166,0,0,0-1.23-5.46l.06-.04Z" fill="#040000"/>
  <path id="パス_3244" data-name="パス 3244" d="M211.34,103.95v-.64h3.15V91.07h-3.15v-.64h3.78v13.53h-3.78Z" fill="#040000"/>
  <path id="パス_3245" data-name="パス 3245" d="M13.32,127.18a6.66,6.66,0,1,1-6.66-6.66,6.664,6.664,0,0,1,6.66,6.66Z" fill="#af9f4b"/>
  <path id="パス_3246" data-name="パス 3246" d="M19.74,131.02a.537.537,0,0,1-.58-.6c0-.46.19-.6.97-1.14a6.2,6.2,0,0,0,2.06-2.36c-.14,1.85-1.42,4.09-2.44,4.09Zm10.38-5.2c-.23,0-1.23-.2-1.38-.21-.25-.03-1.17-.09-2.17-.09-.62,0-1,.02-1.27.03-.03,1.38-.05,3.29.03,4.67,0,.12.06,1.09.06,1.11,0,.18-.04,1.77-.78,1.77-.29,0-.38-.2-.72-1-.1-.24-.36-.46-1.52-1.3l.02-.08a9.726,9.726,0,0,0,1.79.35c.19,0,.21-.09.22-.38.06-1.01.08-1.43.05-5.05a19.748,19.748,0,0,0-3.29.62.905.905,0,0,1-.48.16c-.6,0-1.27-.97-1.27-1.57a2.851,2.851,0,0,1,.08-.62,2.533,2.533,0,0,0,.9.91,1.146,1.146,0,0,0,.63.11c.03,0,2.97-.21,3.42-.24a9.244,9.244,0,0,0-.14-2.55c-.15-.42-.64-.55-1.27-.72a1.827,1.827,0,0,1,.96-.39c.58,0,1.77.56,1.77.96a3.319,3.319,0,0,1-.23.58,10.215,10.215,0,0,0-.21,2.04c.42-.02,2.97-.22,3.17-.27.09-.02.46-.14.52-.14.23,0,1.42.32,1.42.96a.3.3,0,0,1-.3.35Zm-.31,4.95c-.27,0-.35-.12-1.06-1.23A9.777,9.777,0,0,0,26.53,127a5.262,5.262,0,0,1,2.5,1.25c.34.25,1.29.96,1.29,1.79,0,.46-.3.73-.51.73Zm-.02-6.95a1.415,1.415,0,1,1,1.41-1.41A1.411,1.411,0,0,1,29.79,123.82Zm0-2.29a.87.87,0,1,0,.87.87A.871.871,0,0,0,29.79,121.53Z" fill="#040000"/>
  <path id="パス_3247" data-name="パス 3247" d="M41.19,131.67a16.4,16.4,0,0,1-3.82.3c-2.8,0-3.3-.54-3.55-.84-.42-.49-.53-.82-.53-4.02,0-.57.03-3.53.02-3.66-.06-.46-.17-.78-1.19-1.18a1.15,1.15,0,0,1,.74-.35c.61,0,1.84.57,1.84,1.05a2.959,2.959,0,0,1-.24.57,32.216,32.216,0,0,0-.3,3.75c2.58-.86,5.1-2.8,5.1-3.16a.7.7,0,0,0-.14-.27,5.547,5.547,0,0,0-.42-.42,1.529,1.529,0,0,1,.38-.04,2.061,2.061,0,0,1,1.78,1.45c0,.2-.03.21-.7.39a2.09,2.09,0,0,0-.44.2,17.524,17.524,0,0,1-5.58,2.19,9.164,9.164,0,0,0,.24,2.87c.3.46.94.59,2.37.59a8.967,8.967,0,0,0,2.94-.38,2.655,2.655,0,0,1,.68-.14c.3,0,1.23.12,1.23.63a.563.563,0,0,1-.41.48Zm.18-8.61a1.435,1.435,0,1,1,1.42-1.43A1.428,1.428,0,0,1,41.37,123.06Zm0-2.29a.87.87,0,1,0,.85.86.843.843,0,0,0-.85-.85Z" fill="#040000"/>
  <path id="パス_3248" data-name="パス 3248" d="M46.88,124.75c-.25,0-.43-.18-.91-.66a7.538,7.538,0,0,0-2.46-1.71c1.8-.12,3.93.53,3.93,1.77a.581.581,0,0,1-.56.6Zm1.31,5.14c-.31.24-1.73,1.26-1.98,1.52-.07.08-.4.45-.48.53a.4.4,0,0,1-.25.09c-.52,0-1.52-1.26-1.52-1.96a1.892,1.892,0,0,1,.15-.66c.35.68.78.99,1.1.99.5,0,2.82-1.72,3.46-2.22a27.772,27.772,0,0,0,4.78-4.53l.08.04c-.36,1.1-2.04,3.68-5.34,6.21Z" fill="#040000"/>
  <path id="パス_3249" data-name="パス 3249" d="M64.43,132.33c-.33,0-.39-.11-.98-1.12a12.678,12.678,0,0,0-3.04-3.32,12.069,12.069,0,0,1-6.7,4.47v-.09a16.657,16.657,0,0,0,8.04-8.73,20.2,20.2,0,0,0-4.18.95c-.26.17-.35.21-.45.21a2.057,2.057,0,0,1-1.05-1.43,1.4,1.4,0,0,1,.15-.72c.46.81.69.92,1.08.92a28.34,28.34,0,0,0,4.21-.57c.12-.04.63-.46.75-.46a3.623,3.623,0,0,1,1.29,1.17c0,.15-.06.18-.55.4a.5.5,0,0,0-.27.3,17,17,0,0,1-2.11,3.36c1.32.62,4.26,2.31,4.26,3.95,0,.49-.24.72-.44.72Zm.02-9.33c-.18,0-.26-.08-.75-.71a4.433,4.433,0,0,0-1.53-1.21,3.534,3.534,0,0,1,1.85.44,1.028,1.028,0,0,1,.76.99c0,.48-.27.5-.33.5Zm1.53-.84c-.18,0-.25-.08-.9-.75a5.526,5.526,0,0,0-1.5-1.1c.48-.02,2.7.15,2.7,1.43,0,.38-.23.42-.3.42Z" fill="#040000"/>
  <path id="パス_3250" data-name="パス 3250" d="M77.91,126.13c-.12,0-1.32-.2-1.5-.22a7.866,7.866,0,0,0-1.38-.09c-.79,0-1.27.03-1.64.06a16.654,16.654,0,0,1-.49,3.51,6.162,6.162,0,0,1-4.11,4.25l-.03-.12c2.62-1.77,3.45-4.36,3.65-7.56a13.839,13.839,0,0,0-3.54.73c-.3.18-.33.21-.51.21a1.921,1.921,0,0,1-1.48-1.77,2.189,2.189,0,0,1,.04-.46,1.728,1.728,0,0,0,1.53.96,7.52,7.52,0,0,0,1.04-.08c.46-.04,2.52-.24,2.94-.29a16.218,16.218,0,0,0-.1-2.73c-.1-.39-.48-.55-1.19-.75a1.579,1.579,0,0,1,1-.39c.61,0,1.67.4,1.67.9a3.275,3.275,0,0,1-.25.64,13.173,13.173,0,0,0-.11,1.56c0,.39-.01.51-.01.69.27-.02,2.59-.13,2.62-.15.16-.03.82-.22.93-.22.06,0,1.5.2,1.5.86,0,.46-.38.46-.57.46Z" fill="#040000"/>
  <path id="パス_3251" data-name="パス 3251" d="M90.45,127.69c-.14,0-.5-.03-.52-.03a16.34,16.34,0,0,0-1.7-.06c-4.57,0-5.92.09-6.6.27-.04.01-.52.13-.57.13-.39,0-1.2-.96-1.2-1.65a1.8,1.8,0,0,1,.18-.72c.51,1.14.98,1.14,2.53,1.14,1.04,0,5.91-.02,6.6-.18.09-.02.52-.13.61-.13s1.59.16,1.59.75c0,.46-.75.48-.93.48Z" fill="#040000"/>
  <path id="パス_3252" data-name="パス 3252" d="M105.02,125.88c-.12,0-1.53-.22-1.83-.25a14.388,14.388,0,0,0-1.73-.09c0,3.24-.15,5.88-3.48,7.95l-.1-.11c2.47-2.5,2.52-4.74,2.58-7.81a26.735,26.735,0,0,0-3.13.31c0,.46.06,2.52.06,2.94s0,.87-.42.87-.63-.79-.63-1.05c0-.16.09-.85.09-.99,0-.26.02-1.38.02-1.61a13.45,13.45,0,0,0-2.04.53c-.3.13-.33.15-.4.15-.53,0-1.14-.94-1.14-1.51a1.46,1.46,0,0,1,.12-.62c.58.78.67.9,1.3.9.23,0,1.81-.2,2.16-.23a10.686,10.686,0,0,0-.23-2.58c-.14-.27-.4-.36-1.04-.54a1.57,1.57,0,0,1,.92-.36c.39,0,1.44.39,1.44.78,0,.09-.12.45-.13.53a9.112,9.112,0,0,0-.09,2.08c1.05-.1,2.28-.24,3.17-.3a12.13,12.13,0,0,0-.09-2.76c-.14-.45-.98-.59-1.21-.63a1.835,1.835,0,0,1,.94-.38c.44,0,1.67.3,1.67.81,0,.11-.14.58-.15.69a17.767,17.767,0,0,0-.15,2.22c.62-.02,1.53-.06,1.86-.12.1-.01.53-.18.62-.18a2.658,2.658,0,0,1,1.24.51.433.433,0,0,1,.23.42c0,.42-.25.42-.4.42Z" fill="#040000"/>
  <path id="パス_3253" data-name="パス 3253" d="M108.63,123.51a12.731,12.731,0,0,0-.13,2.27c0,.27.01,1.5.01,1.75,0,.22,0,1.1-.48,1.1-.4,0-.69-.63-.69-1.23,0-.15.09-.82.1-.96.03-.24.05-.76.05-1.6q0-1.94-1.19-2.27a1.645,1.645,0,0,1,.87-.35c.36,0,1.62.35,1.62.78a4.357,4.357,0,0,1-.17.51Zm5.28-.29c-.03.2-.09,2.8-.1,3.35-.1,2.76-.78,4.12-1.75,5.2a4.829,4.829,0,0,1-2.71,1.65l-.04-.11c3.34-2.14,3.52-5.43,3.52-8.86,0-2.29-.04-2.38-1.38-2.6a1.434,1.434,0,0,1,1.02-.44c.54,0,1.7.35,1.7.75,0,.17-.23.9-.24,1.05Z" fill="#040000"/>
  <path id="パス_3254" data-name="パス 3254" d="M126.83,127.69c-.14,0-.5-.03-.52-.03a16.34,16.34,0,0,0-1.7-.06c-4.57,0-5.92.09-6.6.27-.04.01-.52.13-.57.13-.39,0-1.2-.96-1.2-1.65a1.8,1.8,0,0,1,.18-.72c.51,1.14.98,1.14,2.53,1.14,1.04,0,5.91-.02,6.6-.18.09-.02.52-.13.61-.13s1.59.16,1.59.75c0,.46-.75.48-.93.48Z" fill="#040000"/>
  <path id="パス_3255" data-name="パス 3255" d="M139.1,132.25c-.31,0-.48-.25-.61-.48a12.063,12.063,0,0,0-3.36-3.96c-2.67,3.36-5.22,4.3-6.63,4.59v-.12c3.46-1.53,7.12-6.12,7.95-8.91a27.243,27.243,0,0,0-3.87.86,5.609,5.609,0,0,1-.81.36,1.833,1.833,0,0,1-1.05-1.52,1.429,1.429,0,0,1,.13-.64c.57.9.83.91,1.12.91a19.371,19.371,0,0,0,4.29-.67,3.539,3.539,0,0,1,.69-.42c.17,0,1.27.95,1.27,1.2,0,.17-.1.2-.58.38-.1.04-.12.08-.31.44a19.772,19.772,0,0,1-2,3.3c1.8.79,4.29,2.58,4.29,3.99,0,.41-.17.71-.53.71Z" fill="#040000"/>
  <path id="パス_3256" data-name="パス 3256" d="M150.18,124.87c-.34.15-.48.29-.81.93a14.444,14.444,0,0,1-5.31,6.11,9.668,9.668,0,0,1-2.94,1.27l-.03-.1a18.089,18.089,0,0,0,7.68-8.62c-.62.06-1.64.21-2.25.3a4.491,4.491,0,0,1-.48.06,1.764,1.764,0,0,1-.77-.25,10.924,10.924,0,0,1-3.97,3.48l-.08-.12c2.46-2.25,3.92-4.95,3.92-5.43,0-.15-.03-.27-.83-.75a2.449,2.449,0,0,1,.74-.12c.6,0,1.69.69,1.69,1.08,0,.13-.06.21-.35.48a11,11,0,0,0-.73.88,12.369,12.369,0,0,0,2.94-.27c.13-.04.65-.45.79-.45.17,0,1.25.9,1.25,1.19,0,.11-.04.15-.47.35Z" fill="#040000"/>
  <path id="パス_3257" data-name="パス 3257" d="M162.93,127.69c-.14,0-.5-.03-.52-.03a16.34,16.34,0,0,0-1.7-.06c-4.57,0-5.92.09-6.6.27-.04.01-.52.13-.57.13-.39,0-1.2-.96-1.2-1.65a1.805,1.805,0,0,1,.18-.72c.51,1.14.98,1.14,2.53,1.14,1.04,0,5.91-.02,6.6-.18.09-.02.52-.13.61-.13s1.59.16,1.59.75c0,.46-.75.48-.93.48Z" fill="#040000"/>
  <path id="パス_3258" data-name="パス 3258" d="M169.08,124.63c-.03.35-.15,1.89-.18,2.21a6.621,6.621,0,0,1-3.6,5.46l-.07-.09A9.254,9.254,0,0,0,168,125.1c0-1.26-.01-1.24-1.15-1.54a1.787,1.787,0,0,1,.99-.39c.39,0,1.41.33,1.41.75,0,.12-.15.62-.17.72Zm3.65,6.2a4.053,4.053,0,0,0-.94.84c-.08.07-.21.22-.3.22-.28,0-.96-1.23-.96-1.43,0-.1.18-.55.2-.66a24.68,24.68,0,0,0,.13-2.98c0-.55-.02-3.33-.09-3.69-.06-.27-.36-.46-1.08-.71a1.644,1.644,0,0,1,.84-.31c.45,0,1.62.45,1.62.9a8.109,8.109,0,0,1-.21.85c-.15.77-.23,4.96-.23,5.88,0,.06,0,.25.1.25.36,0,3.07-1.72,5.43-4.72l.12.09a13.775,13.775,0,0,1-4.63,5.46Z" fill="#040000"/>
  <path id="パス_3259" data-name="パス 3259" d="M191.03,122.34h-6.19v2.46c1.48.26,3.76,1.1,3.76,2.55a.647.647,0,0,1-.63.71c-.39,0-.51-.2-1.05-1.06a6.461,6.461,0,0,0-2.08-2.01c.02,3.4.02,3.78.09,7.23,0,.11.02.6.02.71a.721.721,0,0,1-.81.78c-.51,0-.51-.33-.51-.49,0-.44.1-2.56.12-3.04.03-1.19.03-1.85.03-7.81h-3.65a11.3,11.3,0,0,0-1.75.13l-.3-.6c.76.06,1.53.11,2.31.11h8.34l.84-.81a.7.7,0,0,1,.24-.17.459.459,0,0,1,.28.15l1.04.79a.318.318,0,0,1,.15.22c0,.15-.15.17-.24.17Z" fill="#040000"/>
  <path id="パス_3260" data-name="パス 3260" d="M205.52,133.38a6.947,6.947,0,0,1-2.53.22c-1.21,0-2.13-.03-2.13-1.38,0-1.25.34-6.73.39-7.86h-2.43a22.548,22.548,0,0,1-.58,3.46c.36.21,1.83,1.11,1.83,1.98a.547.547,0,0,1-.6.59.538.538,0,0,1-.46-.24c-.65-.75-.81-.91-1.1-1.21a8.148,8.148,0,0,1-3.36,4.23,8.73,8.73,0,0,1-2.05.94l-.05-.09a9.762,9.762,0,0,0,4.65-5.85,8.349,8.349,0,0,0-2.23-1.48v-.09a8.677,8.677,0,0,1,2.44.75,16.1,16.1,0,0,0,.41-2.98h-2.56a10.533,10.533,0,0,0-1.77.13l-.29-.59c.93.08,1.86.09,2.29.09h2.35a14.437,14.437,0,0,0-.27-3.76l1.85.54s.15.09.15.21-.09.2-.46.49c-.03,1.41-.12,2.29-.14,2.52h2.27l.57-.49c.06-.04.17-.15.24-.15a.412.412,0,0,1,.24.11l.73.63s.12.09.12.17c0,.15-.19.25-.67.53-.15.99-.33,4.84-.38,6.12-.02.4-.03.78-.03.84,0,.79.23.79,1.6.79.67,0,1.02,0,1.19-.53.13-.42.4-1.69.51-2.22h.09c.06.34.28,1.86.38,2.16.06.16.09.19.3.39a.425.425,0,0,1,.13.33c0,.22-.17.51-.63.71Z" fill="#040000"/>
  <path id="パス_3261" data-name="パス 3261" d="M220.44,127.26H214.4v4.89c0,.57,0,1.67-1.92,1.86-.04-.45-.15-.97-1.75-1.71l.02-.11a12.428,12.428,0,0,0,1.63.15c.71,0,.92-.06.92-.63v-4.46h-4.14a10.471,10.471,0,0,0-1.77.13l-.3-.6c.93.07,1.86.11,2.31.11h3.9v-1.52a4,4,0,0,0-.25-1.77l1.39.39a20.033,20.033,0,0,0,1.5-2.29h-5.13a9.852,9.852,0,0,0-1.77.14l-.29-.6c.93.08,1.84.11,2.29.11h4.98l.58-.51c.15-.12.18-.15.28-.15.06,0,.12.04.25.15l1.05.86a.357.357,0,0,1,.15.25c0,.22-.18.29-1.11.32a30.868,30.868,0,0,1-2.5,1.83.243.243,0,0,1,.18.2c0,.2-.24.33-.51.5v2.12h3.79l.78-.86c.14-.13.17-.2.23-.2.08,0,.15.06.29.16l1.03.86a.3.3,0,0,1,.15.24c0,.13-.12.15-.22.15Z" fill="#040000"/>
  <path id="パス_3262" data-name="パス 3262" d="M223.86,133.95V120.42h3.78v.64h-3.15V133.3h3.15v.64h-3.78Z" fill="#040000"/>
  <path id="パス_3263" data-name="パス 3263" d="M236.31,125.29h-2.96c0,.13,0,.9.02,1.54,1.11.3,2.44,1.2,2.44,2.03a.652.652,0,0,1-.58.69c-.4,0-.57-.35-.84-.96a3.765,3.765,0,0,0-1.02-1.47c0,.96.06,5.17.06,6.03,0,.69-.39.86-.69.86-.46,0-.46-.39-.46-.55,0-.74.13-3.96.15-4.62.01-.57.01-.93.01-1.26a13.151,13.151,0,0,1-3.49,4.12l-.09-.09a24.33,24.33,0,0,0,3.51-6.31h-1.06a9.552,9.552,0,0,0-1.77.13l-.3-.6c1.03.09,2.1.11,2.31.11h.89v-2.49a15.2,15.2,0,0,1-2.9.22v-.13c1.63-.32,4.44-1.21,5.22-2.05l1,1.05a.283.283,0,0,1,.09.2c0,.12-.06.15-.23.15-.04,0-.41-.08-.48-.09-.33.09-.77.22-1.79.46v2.69h1.21l.53-.68c.09-.12.15-.18.22-.18a.571.571,0,0,1,.29.15l.78.67c.1.09.15.13.15.22,0,.13-.12.17-.23.17Zm5.4,7.98c-.5,0-.65-.52-.72-.85-.09-.41-.23-1.02-.27-1.2a50.327,50.327,0,0,1-5.26,1.38c-.04.04-.15.29-.19.33a.252.252,0,0,1-.18.07c-.09,0-.18-.04-.29-.29l-.57-1.33a6.262,6.262,0,0,0,.92.07c.18,0,.3,0,.76-.03,1.06-3.42,2.35-8.76,2.22-10.46l1.69.66c.08.03.21.11.21.24,0,.15-.06.18-.66.46a57.3,57.3,0,0,1-3.03,9.07,41.411,41.411,0,0,0,4.31-.45,11.316,11.316,0,0,0-1.71-3.06l.06-.07c1.84,1.08,3.4,3.31,3.4,4.6,0,.74-.51.84-.69.84Z" fill="#040000"/>
  <path id="パス_3264" data-name="パス 3264" d="M254.61,132.58l.78-.84c.08-.07.15-.2.24-.2s.18.08.28.17l1.04.84a.3.3,0,0,1,.15.22c0,.13-.12.16-.23.16H245.73a10.525,10.525,0,0,0-1.77.14l-.29-.6c.99.09,2.01.11,2.29.11h4.51c.35-.84,2.15-6.22,2.06-8.14l1.68.82a.27.27,0,0,1,.14.21c0,.16-.06.18-.6.4-.21.53-1.15,2.96-1.31,3.32a23.993,23.993,0,0,1-1.63,3.39h3.79Zm-.87-9.18.63-.84c.1-.13.17-.2.23-.2.09,0,.18.09.29.17l1.05.86c.09.07.14.13.14.21,0,.13-.1.17-.23.17h-9.18a11.32,11.32,0,0,0-1.77.13l-.28-.59c1.03.08,2.16.09,2.29.09h2.91a6.953,6.953,0,0,0-.39-2.88l1.8.45c.08.02.18.04.18.15,0,.15-.34.42-.54.58-.03.27-.03,1.46-.03,1.7h2.91Zm-7.17,1.39a8.659,8.659,0,0,1,2.56,5.61c0,.6-.35.96-.72.96-.6,0-.65-.69-.67-1.06a14.166,14.166,0,0,0-1.23-5.46l.06-.04Z" fill="#040000"/>
  <path id="パス_3265" data-name="パス 3265" d="M258.38,133.95v-.64h3.15V121.07h-3.15v-.64h3.78v13.53h-3.78Z" fill="#040000"/>
  <path id="パス_3282" data-name="パス 3282" d="M281.02,44.44a9.2,9.2,0,0,1,0-14.52l.14.21a10.145,10.145,0,0,0,0,14.1Z" fill="#040000"/>
  <path id="パス_3283" data-name="パス 3283" d="M285.39,39.03l-.73,2.28a1.239,1.239,0,0,0-.09.5.555.555,0,0,0,.63.6h.42v.48h-3.25v-.48h.49c.63,0,1.17-.64,1.41-1.38l2.96-9.09,1.32-.29,3.28,9.73c.3.87.69,1.02,1.11,1.02h.33v.48h-3.69V42.4h.45a.648.648,0,0,0,.61-.66,1.728,1.728,0,0,0-.13-.55l-.72-2.16H285.4Zm2.16-6.6-1.99,6.12h4.06Z" fill="#040000"/>
  <path id="パス_3284" data-name="パス 3284" d="M298.17,34.23a.87.87,0,1,1-1.74,0,.87.87,0,1,1,1.74,0Zm0,5.91a.87.87,0,1,1-1.74,0,.877.877,0,0,1,.87-.87A.864.864,0,0,1,298.17,40.14Z" fill="#040000"/>
  <path id="パス_3285" data-name="パス 3285" d="M300.88,39.27a21.147,21.147,0,0,0,3.51-4.98,6.987,6.987,0,0,0,.29-.88l1.21.95a.238.238,0,0,1,.09.2c0,.21-.24.21-.58.27-.24.35-.54.77-1.08,1.47.18.15.25.2.25.3s-.06.18-.39.42c-.04.65-.04,1.23-.04,1.7,0,.64.04,3.54.04,4.12,0,.78,0,1.2-.66,1.2-.27,0-.53-.09-.53-.42,0-.19.09-1.05.09-1.21.04-.91.03-1.3.06-4.72a9.118,9.118,0,0,1-2.21,1.71l-.06-.11Zm.06-4.39a13.961,13.961,0,0,0,3.48-4.56l1.12.81s.12.11.12.18c0,.17-.06.18-.63.3A11.708,11.708,0,0,1,301.01,35l-.08-.12Zm11.95.79.54-.75c.12-.18.18-.2.22-.2.09,0,.15.06.29.16l.89.75c.09.08.15.14.15.23,0,.15-.12.16-.23.16h-5.34l1.4.45c.09.03.19.07.19.18,0,.2-.36.4-.46.45v1.48h1.54l.54-.64c.12-.13.15-.18.24-.18s.12.03.29.16l.75.63c.08.06.15.12.15.22,0,.13-.12.17-.23.17h-3.28c0,.21-.02,3.22-.02,3.3a16.629,16.629,0,0,0,2.23.17,9.744,9.744,0,0,0,2.42-.27l.02.06a2.242,2.242,0,0,0-.87,1.46c-.24.02-.5.04-.85.04-4.83,0-5.62-2.71-5.97-3.95a6.62,6.62,0,0,1-3.01,3.87l-.05-.06a9.845,9.845,0,0,0,2.45-6.04,2.949,2.949,0,0,0-.06-.67l1.53.49a.2.2,0,0,1,.17.21.214.214,0,0,1-.08.17,4.512,4.512,0,0,1-.44.22,12.745,12.745,0,0,1-.4,1.47,5.416,5.416,0,0,0,1.94,2.49c0-3.95,0-4.2-.03-4.82-.01-.18-.1-.91-.12-1.06h-1.58a11.783,11.783,0,0,0-1.77.13l-.3-.6c1.04.09,2.1.11,2.31.11h1.45c0-.88,0-1.83-.01-2.64h-1.16a10.269,10.269,0,0,0-1.75.13l-.3-.58c.93.07,1.86.09,2.31.09h.9a6.557,6.557,0,0,0-.27-2.32l1.56.46c.12.03.21.07.21.18s-.38.43-.45.49v1.19h1.47l.58-.72c.09-.1.14-.18.24-.18s.15.04.27.15l.79.72c.08.07.15.13.15.24,0,.14-.13.15-.23.15h-3.3v2.64h2.37Z" fill="#040000"/>
  <path id="パス_3286" data-name="パス 3286" d="M329.34,35.89h-6.69l.52.12c.31.08.38.08.38.21s-.04.18-.38.36c0,.42.06,2.31.06,2.69,0,.9,0,1.35-1.57,1.8a2.208,2.208,0,0,0-1.27-1.38V39.6c.19,0,1.06.06,1.24.06.54,0,.54-.02.56-.56.02-.7,0-2.41-.02-3.21h-4.08a11.7,11.7,0,0,0-1.77.13l-.3-.6c1.02.09,2.08.11,2.31.11h.71c0-2.66,0-2.94-.23-3.78l1.47.41c.22.06.28.12.28.25s-.04.17-.46.45v2.67h2.05c0-3.38,0-3.75-.03-4.26-.02-.33-.06-.68-.17-1.47l1.38.38c.17.04.29.09.29.26,0,.1,0,.16-.45.42v1.93h2.16l.58-.85c.06-.08.15-.2.24-.2s.18.09.27.16l.96.86c.09.09.15.13.15.22,0,.15-.12.17-.23.17h-4.14v2.38h4.12l.71-.9c.09-.12.18-.2.24-.2a.434.434,0,0,1,.27.17l.9.9c.1.11.15.17.15.23,0,.15-.12.16-.23.16Zm-8.52,1.81a3.557,3.557,0,0,1-.38.12,11.241,11.241,0,0,1-4.06,3.93l-.06-.08a17.791,17.791,0,0,0,2.91-4.18,5.3,5.3,0,0,0,.29-.9l1.17.62c.14.07.25.13.25.31a.183.183,0,0,1-.12.18Zm4.59,2.67a12.556,12.556,0,0,1-8.43,3.59l-.02-.11a14.523,14.523,0,0,0,6.66-3.4,6.627,6.627,0,0,0,1.33-1.49l.92.9c.12.12.18.2.18.29,0,.18-.06.18-.65.22Zm2.61.39c-.43,0-.64-.33-.93-.79A9.039,9.039,0,0,0,324.38,37l.06-.09c2.68.64,4.18,2.29,4.18,3.21a.629.629,0,0,1-.6.64Z" fill="#040000"/>
  <path id="パス_3287" data-name="パス 3287" d="M334.84,31.65h.61v7.62h1.69v.48h-1.69v1.74c0,.66.33.91,1.05.91h.24v.48h-3.81V42.4h.24c.71,0,1.05-.24,1.05-.91V39.75h-4.03v-.53l4.65-7.57Zm-.62,1.98-3.46,5.64h3.46Z" fill="#040000"/>
  <path id="パス_3288" data-name="パス 3288" d="M342.42,32.53a12.919,12.919,0,0,1-4.65,5.1l-.08-.11a19.471,19.471,0,0,0,3.63-5.49,5.822,5.822,0,0,0,.24-.96l1.29.87a.314.314,0,0,1,.19.24c0,.18-.39.29-.63.35Zm5.44,4.7c-.15,5.4-.45,6.49-3.15,6.73a2.139,2.139,0,0,0-1.12-1.65l.02-.11a9.8,9.8,0,0,0,1.74.26c.72,0,1.01-.17,1.23-1.53a31.323,31.323,0,0,0,.23-4.32h-3.03c-.09,2.35-1.09,6.42-5.82,7.29l-.03-.12a7.588,7.588,0,0,0,4.74-7.17h-.44a9.019,9.019,0,0,0-1.77.15l-.29-.6c.93.08,1.85.09,2.29.09h4.25l.4-.36a.434.434,0,0,1,.27-.16c.08,0,.15.07.21.13l.6.66a.359.359,0,0,1,.14.24c0,.14-.05.17-.47.47Zm2.73-.02c-1.6-.69-3.39-2.31-4.51-5.7h-1.2a7,7,0,0,0-1.26.09l-.2-.53c.68.06,1.33.07,1.64.07h.75l.48-.48c.13-.13.19-.16.27-.16s.15.07.25.16l.56.54a.252.252,0,0,1,.12.22c0,.3-.69.42-.96.46a6.985,6.985,0,0,0,5.5,4.02l.02.15a2.479,2.479,0,0,0-1.46,1.14Z" fill="#040000"/>
  <path id="パス_3289" data-name="パス 3289" d="M352.69,43.96l-.3-.3L365.65,30.4l.3.3Z" fill="#040000"/>
  <path id="パス_3290" data-name="パス 3290" d="M366.63,31.93h4.99c2.29,0,3.81.9,3.81,2.43a2.575,2.575,0,0,1-1.04,1.98,3.463,3.463,0,0,1-1.48.66,4.149,4.149,0,0,1,2.01.75,2.739,2.739,0,0,1,1.14,2.12c0,1.34-1.17,3.02-4.08,3.02h-5.35v-.48h.6a.962.962,0,0,0,1.06-1.04v-7.9a.967.967,0,0,0-1.06-1.04h-.6v-.49Zm2.86,4.92h2a2.286,2.286,0,0,0,2.55-2.31c0-1.35-.92-2.12-2.42-2.12h-1.06a.962.962,0,0,0-1.06,1.04v3.39Zm0,.48v4.04a.963.963,0,0,0,1.06,1.04h1.31a2.475,2.475,0,0,0,2.77-2.49,2.523,2.523,0,0,0-2.73-2.58h-2.42Z" fill="#040000"/>
  <path id="パス_3291" data-name="パス 3291" d="M380.82,34.23a.87.87,0,1,1-1.74,0,.87.87,0,1,1,1.74,0Zm0,5.91a.87.87,0,1,1-1.74,0,.877.877,0,0,1,.87-.87A.864.864,0,0,1,380.82,40.14Z" fill="#040000"/>
  <path id="パス_3292" data-name="パス 3292" d="M383.53,39.27a21.147,21.147,0,0,0,3.51-4.98,6.987,6.987,0,0,0,.29-.88l1.21.95a.238.238,0,0,1,.09.2c0,.21-.24.21-.58.27-.24.35-.54.77-1.08,1.47.18.15.25.2.25.3s-.06.18-.39.42c-.04.65-.04,1.23-.04,1.7,0,.64.04,3.54.04,4.12,0,.78,0,1.2-.66,1.2-.27,0-.53-.09-.53-.42,0-.19.09-1.05.09-1.21.04-.91.03-1.3.06-4.72a9.118,9.118,0,0,1-2.21,1.71l-.06-.11Zm.06-4.39a13.961,13.961,0,0,0,3.48-4.56l1.12.81s.12.11.12.18c0,.17-.06.18-.63.3A11.708,11.708,0,0,1,383.66,35l-.08-.12Zm11.95.79.54-.75c.12-.18.18-.2.22-.2.09,0,.15.06.29.16l.88.75c.09.08.15.14.15.23,0,.15-.12.16-.23.16h-5.34l1.4.45c.09.03.19.07.19.18,0,.2-.36.4-.46.45v1.48h1.54l.54-.64c.12-.13.15-.18.24-.18s.12.03.29.16l.75.63c.08.06.15.12.15.22,0,.13-.12.17-.23.17h-3.28c0,.21-.02,3.22-.02,3.3a16.629,16.629,0,0,0,2.23.17,9.744,9.744,0,0,0,2.42-.27l.02.06a2.242,2.242,0,0,0-.87,1.46c-.24.02-.5.04-.85.04-4.83,0-5.62-2.71-5.97-3.95a6.62,6.62,0,0,1-3.01,3.87l-.05-.06a9.845,9.845,0,0,0,2.45-6.04,2.949,2.949,0,0,0-.06-.67l1.53.49a.2.2,0,0,1,.17.21.214.214,0,0,1-.08.17,4.512,4.512,0,0,1-.44.22,12.745,12.745,0,0,1-.4,1.47,5.416,5.416,0,0,0,1.94,2.49c0-3.95,0-4.2-.03-4.82-.01-.18-.1-.91-.12-1.06h-1.58a11.783,11.783,0,0,0-1.77.13l-.3-.6c1.04.09,2.1.11,2.31.11h1.45c0-.88,0-1.83-.01-2.64h-1.16a10.269,10.269,0,0,0-1.75.13l-.3-.58c.93.07,1.86.09,2.31.09h.9a6.557,6.557,0,0,0-.27-2.32l1.56.46c.12.03.21.07.21.18s-.37.43-.45.49v1.19h1.47l.58-.72c.09-.1.14-.18.24-.18s.15.04.27.15l.79.72c.08.07.15.13.15.24,0,.14-.13.15-.23.15h-3.3v2.64h2.37Z" fill="#040000"/>
  <path id="パス_3293" data-name="パス 3293" d="M411.99,35.89H405.3l.52.12c.31.08.38.08.38.21s-.04.18-.38.36c0,.42.06,2.31.06,2.69,0,.9,0,1.35-1.57,1.8a2.208,2.208,0,0,0-1.27-1.38V39.6c.19,0,1.06.06,1.24.06.54,0,.54-.02.56-.56.02-.7,0-2.41-.02-3.21h-4.08a11.7,11.7,0,0,0-1.77.13l-.3-.6c1.02.09,2.08.11,2.31.11h.71c0-2.66,0-2.94-.23-3.78l1.47.41c.22.06.28.12.28.25s-.04.17-.46.45v2.67h2.05c0-3.38,0-3.75-.03-4.26-.02-.33-.06-.68-.17-1.47l1.38.38c.17.04.29.09.29.26,0,.1,0,.16-.45.42v1.93h2.16l.58-.85c.06-.08.15-.2.24-.2s.18.09.27.16l.96.86c.09.09.15.13.15.22,0,.15-.12.17-.22.17h-4.14v2.38h4.12l.71-.9c.09-.12.18-.2.24-.2a.434.434,0,0,1,.27.17l.9.9c.1.11.15.17.15.23,0,.15-.12.16-.23.16Zm-8.52,1.81c-.06.03-.24.08-.37.12a11.241,11.241,0,0,1-4.06,3.93l-.06-.08a17.791,17.791,0,0,0,2.91-4.18,5.3,5.3,0,0,0,.29-.9l1.17.62c.13.07.25.13.25.31a.183.183,0,0,1-.12.18Zm4.59,2.67a12.556,12.556,0,0,1-8.43,3.59v-.11a14.54,14.54,0,0,0,6.65-3.4,6.627,6.627,0,0,0,1.33-1.49l.92.9c.12.12.18.2.18.29C408.71,40.33,408.65,40.33,408.06,40.37Zm2.61.39c-.44,0-.65-.33-.93-.79A9.039,9.039,0,0,0,407.03,37l.06-.09c2.68.64,4.18,2.29,4.18,3.21a.629.629,0,0,1-.6.64Z" fill="#040000"/>
  <path id="パス_3294" data-name="パス 3294" d="M415.66,36.3a2.571,2.571,0,0,1,1.31-.39c1.48,0,2.68,1.5,2.68,3.31,0,2.08-1.48,3.95-3.21,3.95s-3.45-1.94-3.45-5.18c0-3.46,1.95-6.34,4.25-6.34,1,0,1.71.6,1.71,1.32a.749.749,0,0,1-.76.78c-.3,0-.79-.2-.83-1.05-.01-.33-.04-.54-.45-.54a1.535,1.535,0,0,0-1.1.54c-1.33,1.47-1.41,3.68-1.47,5.03a3.767,3.767,0,0,1,1.32-1.43Zm-.5,5.55a1.511,1.511,0,0,0,1.22.81c.79,0,1.92-.83,1.92-3.3,0-.68-.17-2.78-1.71-2.78-.57,0-1.53.42-2.23,2.04a7.156,7.156,0,0,0,.81,3.22Z" fill="#040000"/>
  <path id="パス_3295" data-name="パス 3295" d="M425.07,32.53a12.919,12.919,0,0,1-4.65,5.1l-.07-.11a19.471,19.471,0,0,0,3.63-5.49,5.822,5.822,0,0,0,.24-.96l1.29.87c.08.04.2.13.2.24,0,.18-.39.29-.63.35Zm5.44,4.7c-.15,5.4-.45,6.49-3.15,6.73a2.139,2.139,0,0,0-1.12-1.65l.02-.11a9.8,9.8,0,0,0,1.74.26c.72,0,1.01-.17,1.23-1.53a31.323,31.323,0,0,0,.23-4.32h-3.03c-.09,2.35-1.09,6.42-5.82,7.29l-.03-.12a7.588,7.588,0,0,0,4.74-7.17h-.44a9.076,9.076,0,0,0-1.77.15l-.28-.6c.93.08,1.84.09,2.29.09h4.25l.4-.36a.434.434,0,0,1,.27-.16c.08,0,.15.07.21.13l.6.66a.343.343,0,0,1,.13.24c0,.14-.04.17-.46.47Zm2.73-.02c-1.6-.69-3.39-2.31-4.51-5.7h-1.2a7,7,0,0,0-1.26.09l-.2-.53c.68.06,1.33.07,1.64.07h.75l.48-.48c.13-.13.19-.16.27-.16s.15.07.25.16l.55.54a.252.252,0,0,1,.12.22c0,.3-.69.42-.96.46a6.985,6.985,0,0,0,5.5,4.02l.02.15a2.479,2.479,0,0,0-1.46,1.14Z" fill="#040000"/>
  <path id="パス_3296" data-name="パス 3296" d="M435.37,44.44l-.13-.21a10.145,10.145,0,0,0,0-14.1l.13-.21a9.183,9.183,0,0,1,0,14.52Z" fill="#040000"/>
  <path id="パス_3297" data-name="パス 3297" d="M281.02,74.44a9.2,9.2,0,0,1,0-14.52l.14.21a10.145,10.145,0,0,0,0,14.1Z" fill="#040000"/>
  <path id="パス_3298" data-name="パス 3298" d="M285.39,69.03l-.73,2.28a1.239,1.239,0,0,0-.09.5.555.555,0,0,0,.63.6h.42v.48h-3.25v-.48h.49c.63,0,1.17-.64,1.41-1.38l2.96-9.09,1.32-.29,3.28,9.73c.3.87.69,1.02,1.11,1.02h.33v.48h-3.69V72.4h.45a.648.648,0,0,0,.61-.66,1.728,1.728,0,0,0-.13-.55l-.72-2.16H285.4Zm2.16-6.6-1.99,6.12h4.06l-2.07-6.12Z" fill="#040000"/>
  <path id="パス_3299" data-name="パス 3299" d="M298.17,64.23a.87.87,0,1,1-1.74,0,.87.87,0,1,1,1.74,0Zm0,5.91a.87.87,0,1,1-1.74,0,.877.877,0,0,1,.87-.87A.864.864,0,0,1,298.17,70.14Z" fill="#040000"/>
  <path id="パス_3300" data-name="パス 3300" d="M300.88,69.27a21.147,21.147,0,0,0,3.51-4.98,6.987,6.987,0,0,0,.29-.88l1.21.95a.238.238,0,0,1,.09.2c0,.21-.24.21-.58.27-.24.35-.54.77-1.08,1.47.18.15.25.2.25.3s-.06.18-.39.42c-.04.65-.04,1.23-.04,1.7,0,.64.04,3.54.04,4.12,0,.78,0,1.2-.66,1.2-.27,0-.53-.09-.53-.42,0-.19.09-1.05.09-1.21.04-.91.03-1.3.06-4.72a9.118,9.118,0,0,1-2.21,1.71l-.06-.11Zm.06-4.39a13.961,13.961,0,0,0,3.48-4.56l1.12.81s.12.11.12.18c0,.17-.06.18-.63.3A11.708,11.708,0,0,1,301.01,65l-.08-.12Zm11.95.79.54-.75c.12-.18.18-.2.22-.2.09,0,.15.06.29.16l.89.75c.09.08.15.14.15.23,0,.15-.12.16-.23.16h-5.34l1.4.45c.09.03.19.07.19.18,0,.2-.36.4-.46.45v1.48h1.54l.54-.64c.12-.13.15-.18.24-.18s.12.03.29.16l.75.63c.08.06.15.12.15.22,0,.13-.12.17-.23.17h-3.28c0,.21-.02,3.22-.02,3.3a16.629,16.629,0,0,0,2.23.17,9.744,9.744,0,0,0,2.42-.27l.02.06a2.242,2.242,0,0,0-.87,1.46c-.24.02-.5.04-.85.04-4.83,0-5.62-2.71-5.97-3.95a6.62,6.62,0,0,1-3.01,3.87l-.05-.06a9.845,9.845,0,0,0,2.45-6.04,2.949,2.949,0,0,0-.06-.67l1.53.49a.2.2,0,0,1,.17.21.214.214,0,0,1-.08.17,4.513,4.513,0,0,1-.44.22,12.745,12.745,0,0,1-.4,1.47,5.416,5.416,0,0,0,1.94,2.49c0-3.95,0-4.2-.03-4.82-.01-.18-.1-.91-.12-1.06h-1.58a11.783,11.783,0,0,0-1.77.13l-.3-.6c1.04.09,2.1.11,2.31.11h1.45c0-.88,0-1.83-.01-2.64h-1.16a10.269,10.269,0,0,0-1.75.13l-.3-.58c.93.07,1.86.09,2.31.09h.9a6.557,6.557,0,0,0-.27-2.32l1.56.46c.12.03.21.07.21.18s-.38.43-.45.49v1.19h1.47l.58-.72c.09-.1.14-.18.24-.18s.15.04.27.15l.79.72c.08.07.15.13.15.24,0,.14-.13.15-.23.15h-3.3v2.64h2.37Z" fill="#040000"/>
  <path id="パス_3301" data-name="パス 3301" d="M329.34,65.89h-6.69l.52.12c.31.08.38.08.38.21s-.04.18-.38.36c0,.42.06,2.31.06,2.69,0,.9,0,1.35-1.57,1.8a2.208,2.208,0,0,0-1.27-1.38V69.6c.19,0,1.06.06,1.24.06.54,0,.54-.02.56-.56.02-.7,0-2.41-.02-3.21h-4.08a11.7,11.7,0,0,0-1.77.13l-.3-.6c1.02.09,2.08.11,2.31.11h.71c0-2.66,0-2.94-.23-3.78l1.47.41c.22.06.28.12.28.25s-.04.17-.46.45v2.67h2.05c0-3.38,0-3.75-.03-4.26-.02-.33-.06-.68-.17-1.47l1.38.38c.17.04.29.09.29.26,0,.1,0,.16-.45.42v1.93h2.16l.58-.85c.06-.08.15-.2.24-.2s.18.09.27.16l.96.86c.09.09.15.13.15.22,0,.15-.12.17-.23.17h-4.14v2.38h4.12l.71-.9c.09-.12.18-.2.24-.2a.434.434,0,0,1,.27.17l.9.9c.1.11.15.17.15.23,0,.15-.12.16-.23.16Zm-8.52,1.81a3.558,3.558,0,0,1-.38.12,11.241,11.241,0,0,1-4.06,3.93l-.06-.08a17.791,17.791,0,0,0,2.91-4.18,5.3,5.3,0,0,0,.29-.9l1.17.62c.14.07.25.13.25.31a.183.183,0,0,1-.12.18Zm4.59,2.67a12.556,12.556,0,0,1-8.43,3.59l-.02-.11a14.523,14.523,0,0,0,6.66-3.4,6.627,6.627,0,0,0,1.33-1.49l.92.9c.12.12.18.2.18.29,0,.18-.06.18-.65.22Zm2.61.39c-.43,0-.64-.33-.93-.79A9.039,9.039,0,0,0,324.38,67l.06-.09c2.68.64,4.18,2.29,4.18,3.21A.629.629,0,0,1,328.02,70.76Z" fill="#040000"/>
  <path id="パス_3302" data-name="パス 3302" d="M333.01,66.3a2.571,2.571,0,0,1,1.31-.39c1.48,0,2.68,1.5,2.68,3.31,0,2.08-1.48,3.95-3.21,3.95s-3.45-1.94-3.45-5.18c0-3.46,1.95-6.34,4.25-6.34,1,0,1.71.6,1.71,1.32a.749.749,0,0,1-.76.78c-.3,0-.79-.2-.83-1.05-.01-.33-.04-.54-.45-.54a1.535,1.535,0,0,0-1.1.54c-1.33,1.47-1.41,3.68-1.47,5.03a3.767,3.767,0,0,1,1.32-1.43Zm-.5,5.55a1.511,1.511,0,0,0,1.22.81c.79,0,1.92-.83,1.92-3.3,0-.68-.17-2.78-1.71-2.78-.57,0-1.53.42-2.23,2.04a7.156,7.156,0,0,0,.81,3.22Z" fill="#040000"/>
  <path id="パス_3303" data-name="パス 3303" d="M342.42,62.53a12.919,12.919,0,0,1-4.65,5.1l-.08-.11a19.471,19.471,0,0,0,3.63-5.49,5.822,5.822,0,0,0,.24-.96l1.29.87a.314.314,0,0,1,.19.24c0,.18-.39.29-.63.35Zm5.44,4.7c-.15,5.4-.45,6.49-3.15,6.73a2.139,2.139,0,0,0-1.12-1.65l.02-.11a9.8,9.8,0,0,0,1.74.26c.72,0,1.01-.17,1.23-1.53a31.323,31.323,0,0,0,.23-4.32h-3.03c-.09,2.35-1.09,6.42-5.82,7.29l-.03-.12a7.588,7.588,0,0,0,4.74-7.17h-.44a9.02,9.02,0,0,0-1.77.15l-.29-.6c.93.08,1.85.09,2.29.09h4.25l.4-.36a.434.434,0,0,1,.27-.16c.08,0,.15.07.21.13l.6.66a.359.359,0,0,1,.14.24C348.33,66.9,348.28,66.93,347.86,67.23Zm2.73-.02c-1.6-.69-3.39-2.31-4.51-5.7h-1.2a7,7,0,0,0-1.26.09l-.2-.53c.68.06,1.33.07,1.64.07h.75l.48-.48c.13-.13.19-.16.27-.16s.15.07.25.16l.56.54a.252.252,0,0,1,.12.22c0,.3-.69.42-.96.46a6.985,6.985,0,0,0,5.5,4.02l.02.15a2.479,2.479,0,0,0-1.46,1.14Z" fill="#040000"/>
  <path id="パス_3304" data-name="パス 3304" d="M352.69,73.96l-.3-.3L365.65,60.4l.3.3L352.69,73.96Z" fill="#040000"/>
  <path id="パス_3305" data-name="パス 3305" d="M366.63,61.93h4.99c2.29,0,3.81.9,3.81,2.43a2.575,2.575,0,0,1-1.04,1.98,3.463,3.463,0,0,1-1.48.66,4.149,4.149,0,0,1,2.01.75,2.739,2.739,0,0,1,1.14,2.12c0,1.34-1.17,3.02-4.08,3.02h-5.35v-.48h.6a.962.962,0,0,0,1.06-1.04v-7.9a.967.967,0,0,0-1.06-1.04h-.6v-.49Zm2.86,4.92h2a2.286,2.286,0,0,0,2.55-2.31c0-1.35-.92-2.12-2.42-2.12h-1.06a.962.962,0,0,0-1.06,1.04v3.39Zm0,.48v4.04a.963.963,0,0,0,1.06,1.04h1.31a2.475,2.475,0,0,0,2.77-2.49,2.523,2.523,0,0,0-2.73-2.58h-2.42Z" fill="#040000"/>
  <path id="パス_3306" data-name="パス 3306" d="M380.82,64.23a.87.87,0,1,1-1.74,0,.87.87,0,1,1,1.74,0Zm0,5.91a.87.87,0,1,1-1.74,0,.877.877,0,0,1,.87-.87A.864.864,0,0,1,380.82,70.14Z" fill="#040000"/>
  <path id="パス_3307" data-name="パス 3307" d="M383.53,69.27a21.147,21.147,0,0,0,3.51-4.98,6.987,6.987,0,0,0,.29-.88l1.21.95a.238.238,0,0,1,.09.2c0,.21-.24.21-.58.27-.24.35-.54.77-1.08,1.47.18.15.25.2.25.3s-.06.18-.39.42c-.04.65-.04,1.23-.04,1.7,0,.64.04,3.54.04,4.12,0,.78,0,1.2-.66,1.2-.27,0-.53-.09-.53-.42,0-.19.09-1.05.09-1.21.04-.91.03-1.3.06-4.72a9.118,9.118,0,0,1-2.21,1.71l-.06-.11Zm.06-4.39a13.961,13.961,0,0,0,3.48-4.56l1.12.81s.12.11.12.18c0,.17-.06.18-.63.3A11.708,11.708,0,0,1,383.66,65l-.08-.12Zm11.95.79.54-.75c.12-.18.18-.2.22-.2.09,0,.15.06.29.16l.88.75c.09.08.15.14.15.23,0,.15-.12.16-.23.16h-5.34l1.4.45c.09.03.19.07.19.18,0,.2-.36.4-.46.45v1.48h1.54l.54-.64c.12-.13.15-.18.24-.18s.12.03.29.16l.75.63c.08.06.15.12.15.22,0,.13-.12.17-.23.17h-3.28c0,.21-.02,3.22-.02,3.3a16.629,16.629,0,0,0,2.23.17,9.744,9.744,0,0,0,2.42-.27l.02.06a2.242,2.242,0,0,0-.87,1.46c-.24.02-.5.04-.85.04-4.83,0-5.62-2.71-5.97-3.95a6.62,6.62,0,0,1-3.01,3.87l-.05-.06a9.845,9.845,0,0,0,2.45-6.04,2.949,2.949,0,0,0-.06-.67l1.53.49a.2.2,0,0,1,.17.21.214.214,0,0,1-.08.17,4.513,4.513,0,0,1-.44.22,12.745,12.745,0,0,1-.4,1.47,5.416,5.416,0,0,0,1.94,2.49c0-3.95,0-4.2-.03-4.82-.01-.18-.1-.91-.12-1.06h-1.58a11.783,11.783,0,0,0-1.77.13l-.3-.6c1.04.09,2.1.11,2.31.11h1.45c0-.88,0-1.83-.01-2.64h-1.16a10.269,10.269,0,0,0-1.75.13l-.3-.58c.93.07,1.86.09,2.31.09h.9a6.557,6.557,0,0,0-.27-2.32l1.56.46c.12.03.21.07.21.18s-.37.43-.45.49v1.19h1.47l.58-.72c.09-.1.14-.18.24-.18s.15.04.27.15l.79.72c.08.07.15.13.15.24,0,.14-.13.15-.23.15h-3.3v2.64h2.37Z" fill="#040000"/>
  <path id="パス_3308" data-name="パス 3308" d="M411.99,65.89H405.3l.52.12c.31.08.38.08.38.21s-.04.18-.38.36c0,.42.06,2.31.06,2.69,0,.9,0,1.35-1.57,1.8a2.208,2.208,0,0,0-1.27-1.38V69.6c.19,0,1.06.06,1.24.06.54,0,.54-.02.56-.56.02-.7,0-2.41-.02-3.21h-4.08a11.7,11.7,0,0,0-1.77.13l-.3-.6c1.02.09,2.08.11,2.31.11h.71c0-2.66,0-2.94-.23-3.78l1.47.41c.22.06.28.12.28.25s-.04.17-.46.45v2.67h2.05c0-3.38,0-3.75-.03-4.26-.02-.33-.06-.68-.17-1.47l1.38.38c.17.04.29.09.29.26,0,.1,0,.16-.45.42v1.93h2.16l.58-.85c.06-.08.15-.2.24-.2s.18.09.27.16l.96.86c.09.09.15.13.15.22,0,.15-.12.17-.22.17h-4.14v2.38h4.12l.71-.9c.09-.12.18-.2.24-.2a.434.434,0,0,1,.27.17l.9.9c.1.11.15.17.15.23,0,.15-.12.16-.23.16Zm-8.52,1.81c-.06.03-.24.08-.37.12a11.241,11.241,0,0,1-4.06,3.93l-.06-.08a17.791,17.791,0,0,0,2.91-4.18,5.3,5.3,0,0,0,.29-.9l1.17.62c.13.07.25.13.25.31a.183.183,0,0,1-.12.18Zm4.59,2.67a12.556,12.556,0,0,1-8.43,3.59v-.11a14.54,14.54,0,0,0,6.65-3.4,6.627,6.627,0,0,0,1.33-1.49l.92.9c.12.12.18.2.18.29C408.71,70.33,408.65,70.33,408.06,70.37Zm2.61.39c-.44,0-.65-.33-.93-.79A9.039,9.039,0,0,0,407.03,67l.06-.09c2.68.64,4.18,2.29,4.18,3.21A.629.629,0,0,1,410.67,70.76Z" fill="#040000"/>
  <path id="パス_3309" data-name="パス 3309" d="M414.21,63.12l-.13,3.78a3.166,3.166,0,0,1,2.32-1.04,3.213,3.213,0,0,1,3.19,3.43,3.8,3.8,0,0,1-3.7,3.87,2.694,2.694,0,0,1-2.83-2.21.852.852,0,0,1,.87-.93.74.74,0,0,1,.78.78,1.573,1.573,0,0,1-.08.45,2.194,2.194,0,0,0-.04.42c0,.65.68.98,1.27.98,1.22,0,2.35-1.16,2.35-3.17,0-1.9-1-2.96-2.1-2.96a3.26,3.26,0,0,0-2.34,1.3l-.23-.12.23-5.79h5.22l-.3,1.18h-4.48Z" fill="#040000"/>
  <path id="パス_3310" data-name="パス 3310" d="M425.07,62.53a12.919,12.919,0,0,1-4.65,5.1l-.07-.11a19.471,19.471,0,0,0,3.63-5.49,5.822,5.822,0,0,0,.24-.96l1.29.87c.08.04.2.13.2.24,0,.18-.39.29-.63.35Zm5.44,4.7c-.15,5.4-.45,6.49-3.15,6.73a2.139,2.139,0,0,0-1.12-1.65l.02-.11a9.8,9.8,0,0,0,1.74.26c.72,0,1.01-.17,1.23-1.53a31.323,31.323,0,0,0,.23-4.32h-3.03c-.09,2.35-1.09,6.42-5.82,7.29l-.03-.12a7.588,7.588,0,0,0,4.74-7.17h-.44a9.076,9.076,0,0,0-1.77.15l-.28-.6c.93.08,1.84.09,2.29.09h4.25l.4-.36a.434.434,0,0,1,.27-.16c.08,0,.15.07.21.13l.6.66a.343.343,0,0,1,.13.24c0,.14-.04.17-.46.47Zm2.73-.02c-1.6-.69-3.39-2.31-4.51-5.7h-1.2a7,7,0,0,0-1.26.09l-.2-.53c.68.06,1.33.07,1.64.07h.75l.48-.48c.13-.13.19-.16.27-.16s.15.07.25.16l.55.54a.252.252,0,0,1,.12.22c0,.3-.69.42-.96.46a6.985,6.985,0,0,0,5.5,4.02l.02.15a2.479,2.479,0,0,0-1.46,1.14Z" fill="#040000"/>
  <path id="パス_3311" data-name="パス 3311" d="M435.37,74.44l-.13-.21a10.145,10.145,0,0,0,0-14.1l.13-.21a9.183,9.183,0,0,1,0,14.52Z" fill="#040000"/>
  <path id="パス_3312" data-name="パス 3312" d="M281.02,104.44a9.2,9.2,0,0,1,0-14.52l.14.21a10.145,10.145,0,0,0,0,14.1Z" fill="#040000"/>
  <path id="パス_3313" data-name="パス 3313" d="M285.39,99.03l-.73,2.28a1.239,1.239,0,0,0-.09.5.555.555,0,0,0,.63.6h.42v.48h-3.25v-.48h.49c.63,0,1.17-.64,1.41-1.38l2.96-9.09,1.32-.29,3.28,9.73c.3.87.69,1.02,1.11,1.02h.33v.48h-3.69v-.48h.45a.648.648,0,0,0,.61-.66,1.728,1.728,0,0,0-.13-.55l-.72-2.16H285.4Zm2.16-6.6-1.99,6.12h4.06Z" fill="#040000"/>
  <path id="パス_3314" data-name="パス 3314" d="M298.17,94.23a.87.87,0,1,1-1.74,0,.87.87,0,1,1,1.74,0Zm0,5.91a.87.87,0,1,1-1.74,0,.877.877,0,0,1,.87-.87A.864.864,0,0,1,298.17,100.14Z" fill="#040000"/>
  <path id="パス_3315" data-name="パス 3315" d="M300.88,99.27a21.147,21.147,0,0,0,3.51-4.98,6.987,6.987,0,0,0,.29-.88l1.21.95a.238.238,0,0,1,.09.2c0,.21-.24.21-.58.27-.24.35-.54.77-1.08,1.47.18.15.25.2.25.3s-.06.18-.39.42c-.04.65-.04,1.23-.04,1.7,0,.64.04,3.54.04,4.12,0,.78,0,1.2-.66,1.2-.27,0-.53-.09-.53-.42,0-.19.09-1.05.09-1.21.04-.91.03-1.3.06-4.72a9.118,9.118,0,0,1-2.21,1.71l-.06-.11Zm.06-4.39a13.961,13.961,0,0,0,3.48-4.56l1.12.81s.12.11.12.18c0,.17-.06.18-.63.3A11.708,11.708,0,0,1,301.01,95l-.08-.12Zm11.95.79.54-.75c.12-.18.18-.2.22-.2.09,0,.15.06.29.16l.89.75c.09.08.15.14.15.23,0,.15-.12.16-.23.16h-5.34l1.4.45c.09.03.19.07.19.18,0,.2-.36.4-.46.45v1.48h1.54l.54-.64c.12-.13.15-.18.24-.18s.12.03.29.16l.75.63c.08.06.15.12.15.22,0,.13-.12.17-.23.17h-3.28c0,.21-.02,3.22-.02,3.3a16.629,16.629,0,0,0,2.23.17,9.744,9.744,0,0,0,2.42-.27l.02.06a2.242,2.242,0,0,0-.87,1.46c-.24.02-.5.04-.85.04-4.83,0-5.62-2.71-5.97-3.95a6.62,6.62,0,0,1-3.01,3.87l-.05-.06a9.845,9.845,0,0,0,2.45-6.04,2.949,2.949,0,0,0-.06-.67l1.53.49a.2.2,0,0,1,.17.21.214.214,0,0,1-.08.17,4.513,4.513,0,0,1-.44.22,12.745,12.745,0,0,1-.4,1.47,5.416,5.416,0,0,0,1.94,2.49c0-3.95,0-4.2-.03-4.82-.01-.18-.1-.91-.12-1.06h-1.58a11.783,11.783,0,0,0-1.77.13l-.3-.6c1.04.09,2.1.11,2.31.11h1.45c0-.88,0-1.83-.01-2.64h-1.16a10.269,10.269,0,0,0-1.75.13l-.3-.58c.93.07,1.86.09,2.31.09h.9a6.557,6.557,0,0,0-.27-2.32l1.56.46c.12.03.21.07.21.18s-.38.43-.45.49v1.19h1.47l.58-.72c.09-.1.14-.18.24-.18s.15.04.27.15l.79.72c.08.07.15.13.15.24,0,.14-.13.15-.23.15h-3.3v2.64h2.37Z" fill="#040000"/>
  <path id="パス_3316" data-name="パス 3316" d="M329.34,95.89h-6.69l.52.12c.31.08.38.08.38.21s-.04.18-.38.36c0,.42.06,2.31.06,2.69,0,.9,0,1.35-1.57,1.8a2.208,2.208,0,0,0-1.27-1.38V99.6c.19,0,1.06.06,1.24.06.54,0,.54-.02.56-.56.02-.7,0-2.41-.02-3.21h-4.08a11.7,11.7,0,0,0-1.77.13l-.3-.6c1.02.09,2.08.11,2.31.11h.71c0-2.66,0-2.94-.23-3.78l1.47.41c.22.06.28.12.28.25s-.04.17-.46.45v2.67h2.05c0-3.38,0-3.75-.03-4.26-.02-.33-.06-.68-.17-1.47l1.38.38c.17.04.29.09.29.26,0,.1,0,.16-.45.42v1.93h2.16l.58-.85c.06-.08.15-.2.24-.2s.18.09.27.16l.96.86c.09.09.15.13.15.22,0,.15-.12.17-.23.17h-4.14v2.38h4.12l.71-.9c.09-.12.18-.2.24-.2a.434.434,0,0,1,.27.17l.9.9c.1.11.15.17.15.23,0,.15-.12.16-.23.16Zm-8.52,1.81a3.558,3.558,0,0,1-.38.12,11.241,11.241,0,0,1-4.06,3.93l-.06-.08a17.791,17.791,0,0,0,2.91-4.18,5.3,5.3,0,0,0,.29-.9l1.17.62c.14.07.25.13.25.31a.183.183,0,0,1-.12.18Zm4.59,2.67a12.556,12.556,0,0,1-8.43,3.59l-.02-.11a14.523,14.523,0,0,0,6.66-3.4,6.627,6.627,0,0,0,1.33-1.49l.92.9c.12.12.18.2.18.29,0,.18-.06.18-.65.22Zm2.61.39c-.43,0-.64-.33-.93-.79A9.039,9.039,0,0,0,324.38,97l.06-.09c2.68.64,4.18,2.29,4.18,3.21A.629.629,0,0,1,328.02,100.76Z" fill="#040000"/>
  <path id="パス_3317" data-name="パス 3317" d="M333.01,96.3a2.571,2.571,0,0,1,1.31-.39c1.48,0,2.68,1.5,2.68,3.31,0,2.08-1.48,3.95-3.21,3.95s-3.45-1.94-3.45-5.18c0-3.46,1.95-6.34,4.25-6.34,1,0,1.71.6,1.71,1.32a.749.749,0,0,1-.76.78c-.3,0-.79-.2-.83-1.05-.01-.33-.04-.54-.45-.54a1.535,1.535,0,0,0-1.1.54c-1.33,1.47-1.41,3.68-1.47,5.03a3.767,3.767,0,0,1,1.32-1.43Zm-.5,5.55a1.511,1.511,0,0,0,1.22.81c.79,0,1.92-.83,1.92-3.3,0-.68-.17-2.78-1.71-2.78-.57,0-1.53.42-2.23,2.04a7.156,7.156,0,0,0,.81,3.22Z" fill="#040000"/>
  <path id="パス_3318" data-name="パス 3318" d="M342.42,92.53a12.919,12.919,0,0,1-4.65,5.1l-.08-.11a19.471,19.471,0,0,0,3.63-5.49,5.822,5.822,0,0,0,.24-.96l1.29.87a.314.314,0,0,1,.19.24c0,.18-.39.29-.63.35Zm5.44,4.7c-.15,5.4-.45,6.49-3.15,6.73a2.139,2.139,0,0,0-1.12-1.65l.02-.11a9.8,9.8,0,0,0,1.74.26c.72,0,1.01-.17,1.23-1.53a31.323,31.323,0,0,0,.23-4.32h-3.03c-.09,2.35-1.09,6.42-5.82,7.29l-.03-.12a7.588,7.588,0,0,0,4.74-7.17h-.44a9.02,9.02,0,0,0-1.77.15l-.29-.6c.93.08,1.85.09,2.29.09h4.25l.4-.36a.434.434,0,0,1,.27-.16c.08,0,.15.07.21.13l.6.66a.359.359,0,0,1,.14.24C348.33,96.9,348.28,96.93,347.86,97.23Zm2.73-.02c-1.6-.69-3.39-2.31-4.51-5.7h-1.2a7,7,0,0,0-1.26.09l-.2-.53c.68.06,1.33.07,1.64.07h.75l.48-.48c.13-.13.19-.16.27-.16s.15.07.25.16l.56.54a.252.252,0,0,1,.12.22c0,.3-.69.42-.96.46a6.985,6.985,0,0,0,5.5,4.02l.02.15a2.479,2.479,0,0,0-1.46,1.14Z" fill="#040000"/>
  <path id="パス_3319" data-name="パス 3319" d="M352.69,103.96l-.3-.3L365.65,90.4l.3.3Z" fill="#040000"/>
  <path id="パス_3320" data-name="パス 3320" d="M366.63,91.93h4.99c2.29,0,3.81.9,3.81,2.43a2.575,2.575,0,0,1-1.04,1.98,3.463,3.463,0,0,1-1.48.66,4.149,4.149,0,0,1,2.01.75,2.739,2.739,0,0,1,1.14,2.12c0,1.34-1.17,3.02-4.08,3.02h-5.35v-.48h.6a.962.962,0,0,0,1.06-1.04v-7.9a.967.967,0,0,0-1.06-1.04h-.6v-.49Zm2.86,4.92h2a2.286,2.286,0,0,0,2.55-2.31c0-1.35-.92-2.12-2.42-2.12h-1.06a.962.962,0,0,0-1.06,1.04v3.39Zm0,.48v4.04a.963.963,0,0,0,1.06,1.04h1.31a2.475,2.475,0,0,0,2.77-2.49,2.523,2.523,0,0,0-2.73-2.58h-2.42Z" fill="#040000"/>
  <path id="パス_3321" data-name="パス 3321" d="M380.82,94.23a.87.87,0,1,1-1.74,0,.87.87,0,1,1,1.74,0Zm0,5.91a.87.87,0,1,1-1.74,0,.877.877,0,0,1,.87-.87A.864.864,0,0,1,380.82,100.14Z" fill="#040000"/>
  <path id="パス_3322" data-name="パス 3322" d="M383.53,99.27a21.147,21.147,0,0,0,3.51-4.98,6.987,6.987,0,0,0,.29-.88l1.21.95a.238.238,0,0,1,.09.2c0,.21-.24.21-.58.27-.24.35-.54.77-1.08,1.47.18.15.25.2.25.3s-.06.18-.39.42c-.04.65-.04,1.23-.04,1.7,0,.64.04,3.54.04,4.12,0,.78,0,1.2-.66,1.2-.27,0-.53-.09-.53-.42,0-.19.09-1.05.09-1.21.04-.91.03-1.3.06-4.72a9.118,9.118,0,0,1-2.21,1.71l-.06-.11Zm.06-4.39a13.961,13.961,0,0,0,3.48-4.56l1.12.81s.12.11.12.18c0,.17-.06.18-.63.3A11.708,11.708,0,0,1,383.66,95l-.08-.12Zm11.95.79.54-.75c.12-.18.18-.2.22-.2.09,0,.15.06.29.16l.88.75c.09.08.15.14.15.23,0,.15-.12.16-.23.16h-5.34l1.4.45c.09.03.19.07.19.18,0,.2-.36.4-.46.45v1.48h1.54l.54-.64c.12-.13.15-.18.24-.18s.12.03.29.16l.75.63c.08.06.15.12.15.22,0,.13-.12.17-.23.17h-3.28c0,.21-.02,3.22-.02,3.3a16.629,16.629,0,0,0,2.23.17,9.744,9.744,0,0,0,2.42-.27l.02.06a2.242,2.242,0,0,0-.87,1.46c-.24.02-.5.04-.85.04-4.83,0-5.62-2.71-5.97-3.95a6.62,6.62,0,0,1-3.01,3.87l-.05-.06a9.845,9.845,0,0,0,2.45-6.04,2.949,2.949,0,0,0-.06-.67l1.53.49a.2.2,0,0,1,.17.21.214.214,0,0,1-.08.17,4.513,4.513,0,0,1-.44.22,12.745,12.745,0,0,1-.4,1.47,5.416,5.416,0,0,0,1.94,2.49c0-3.95,0-4.2-.03-4.82-.01-.18-.1-.91-.12-1.06h-1.58a11.783,11.783,0,0,0-1.77.13l-.3-.6c1.04.09,2.1.11,2.31.11h1.45c0-.88,0-1.83-.01-2.64h-1.16a10.269,10.269,0,0,0-1.75.13l-.3-.58c.93.07,1.86.09,2.31.09h.9a6.557,6.557,0,0,0-.27-2.32l1.56.46c.12.03.21.07.21.18s-.37.43-.45.49v1.19h1.47l.58-.72c.09-.1.14-.18.24-.18s.15.04.27.15l.79.72c.08.07.15.13.15.24,0,.14-.13.15-.23.15h-3.3v2.64h2.37Z" fill="#040000"/>
  <path id="パス_3323" data-name="パス 3323" d="M411.99,95.89H405.3l.52.12c.31.08.38.08.38.21s-.04.18-.38.36c0,.42.06,2.31.06,2.69,0,.9,0,1.35-1.57,1.8a2.208,2.208,0,0,0-1.27-1.38V99.6c.19,0,1.06.06,1.24.06.54,0,.54-.02.56-.56.02-.7,0-2.41-.02-3.21h-4.08a11.7,11.7,0,0,0-1.77.13l-.3-.6c1.02.09,2.08.11,2.31.11h.71c0-2.66,0-2.94-.23-3.78l1.47.41c.22.06.28.12.28.25s-.04.17-.46.45v2.67h2.05c0-3.38,0-3.75-.03-4.26-.02-.33-.06-.68-.17-1.47l1.38.38c.17.04.29.09.29.26,0,.1,0,.16-.45.42v1.93h2.16l.58-.85c.06-.08.15-.2.24-.2s.18.09.27.16l.96.86c.09.09.15.13.15.22,0,.15-.12.17-.22.17h-4.14v2.38h4.12l.71-.9c.09-.12.18-.2.24-.2a.434.434,0,0,1,.27.17l.9.9c.1.11.15.17.15.23,0,.15-.12.16-.23.16Zm-8.52,1.81c-.06.03-.24.08-.37.12a11.241,11.241,0,0,1-4.06,3.93l-.06-.08a17.791,17.791,0,0,0,2.91-4.18,5.3,5.3,0,0,0,.29-.9l1.17.62c.13.07.25.13.25.31a.183.183,0,0,1-.12.18Zm4.59,2.67a12.556,12.556,0,0,1-8.43,3.59v-.11a14.54,14.54,0,0,0,6.65-3.4,6.627,6.627,0,0,0,1.33-1.49l.92.9c.12.12.18.2.18.29C408.71,100.33,408.65,100.33,408.06,100.37Zm2.61.39c-.44,0-.65-.33-.93-.79A9.039,9.039,0,0,0,407.03,97l.06-.09c2.68.64,4.18,2.29,4.18,3.21A.629.629,0,0,1,410.67,100.76Z" fill="#040000"/>
  <path id="パス_3324" data-name="パス 3324" d="M414.21,93.12l-.13,3.78a3.166,3.166,0,0,1,2.32-1.04,3.213,3.213,0,0,1,3.19,3.43,3.8,3.8,0,0,1-3.7,3.87,2.694,2.694,0,0,1-2.83-2.21.852.852,0,0,1,.87-.93.74.74,0,0,1,.78.78,1.573,1.573,0,0,1-.08.45,2.194,2.194,0,0,0-.04.42c0,.65.68.98,1.27.98,1.22,0,2.35-1.16,2.35-3.17,0-1.9-1-2.96-2.1-2.96a3.26,3.26,0,0,0-2.34,1.3l-.23-.12.23-5.79h5.22l-.3,1.18h-4.48Z" fill="#040000"/>
  <path id="パス_3325" data-name="パス 3325" d="M425.07,92.53a12.919,12.919,0,0,1-4.65,5.1l-.07-.11a19.471,19.471,0,0,0,3.63-5.49,5.822,5.822,0,0,0,.24-.96l1.29.87c.08.04.2.13.2.24,0,.18-.39.29-.63.35Zm5.44,4.7c-.15,5.4-.45,6.49-3.15,6.73a2.139,2.139,0,0,0-1.12-1.65l.02-.11a9.8,9.8,0,0,0,1.74.26c.72,0,1.01-.17,1.23-1.53a31.323,31.323,0,0,0,.23-4.32h-3.03c-.09,2.35-1.09,6.42-5.82,7.29l-.03-.12a7.588,7.588,0,0,0,4.74-7.17h-.44a9.076,9.076,0,0,0-1.77.15l-.28-.6c.93.08,1.84.09,2.29.09h4.25l.4-.36a.434.434,0,0,1,.27-.16c.08,0,.15.07.21.13l.6.66a.343.343,0,0,1,.13.24c0,.14-.04.17-.46.47Zm2.73-.02c-1.6-.69-3.39-2.31-4.51-5.7h-1.2a7,7,0,0,0-1.26.09l-.2-.53c.68.06,1.33.07,1.64.07h.75l.48-.48c.13-.13.19-.16.27-.16s.15.07.25.16l.55.54a.252.252,0,0,1,.12.22c0,.3-.69.42-.96.46a6.985,6.985,0,0,0,5.5,4.02l.02.15a2.479,2.479,0,0,0-1.46,1.14Z" fill="#040000"/>
  <path id="パス_3326" data-name="パス 3326" d="M435.37,104.44l-.13-.21a10.145,10.145,0,0,0,0-14.1l.13-.21a9.183,9.183,0,0,1,0,14.52Z" fill="#040000"/>
  <path id="パス_3327" data-name="パス 3327" d="M281.02,134.44a9.2,9.2,0,0,1,0-14.52l.14.21a10.145,10.145,0,0,0,0,14.1Z" fill="#040000"/>
  <path id="パス_3328" data-name="パス 3328" d="M285.39,129.03l-.73,2.28a1.239,1.239,0,0,0-.09.5.555.555,0,0,0,.63.6h.42v.48h-3.25v-.48h.49c.63,0,1.17-.64,1.41-1.38l2.96-9.09,1.32-.29,3.28,9.73c.3.87.69,1.02,1.11,1.02h.33v.48h-3.69v-.48h.45a.648.648,0,0,0,.61-.66,1.728,1.728,0,0,0-.13-.55l-.72-2.16H285.4Zm2.16-6.6-1.99,6.12h4.06Z" fill="#040000"/>
  <path id="パス_3329" data-name="パス 3329" d="M298.17,124.23a.87.87,0,1,1-1.74,0,.87.87,0,1,1,1.74,0Zm0,5.91a.87.87,0,1,1-1.74,0,.877.877,0,0,1,.87-.87A.864.864,0,0,1,298.17,130.14Z" fill="#040000"/>
  <path id="パス_3330" data-name="パス 3330" d="M300.88,129.27a21.147,21.147,0,0,0,3.51-4.98,6.987,6.987,0,0,0,.29-.88l1.21.95a.238.238,0,0,1,.09.2c0,.21-.24.21-.58.27-.24.35-.54.77-1.08,1.47.18.15.25.2.25.3s-.06.18-.39.42c-.04.65-.04,1.23-.04,1.7,0,.64.04,3.54.04,4.12,0,.78,0,1.2-.66,1.2-.27,0-.53-.09-.53-.42,0-.19.09-1.05.09-1.21.04-.91.03-1.3.06-4.72a9.118,9.118,0,0,1-2.21,1.71l-.06-.11Zm.06-4.39a13.961,13.961,0,0,0,3.48-4.56l1.12.81s.12.11.12.18c0,.17-.06.18-.63.3a11.708,11.708,0,0,1-4.02,3.39l-.08-.12Zm11.95.79.54-.75c.12-.18.18-.2.22-.2.09,0,.15.06.29.16l.89.75c.09.08.15.14.15.23,0,.15-.12.16-.23.16h-5.34l1.4.45c.09.03.19.07.19.18,0,.2-.36.4-.46.45v1.48h1.54l.54-.64c.12-.13.15-.18.24-.18s.12.03.29.16l.75.63c.08.06.15.12.15.22,0,.13-.12.17-.23.17h-3.28c0,.21-.02,3.22-.02,3.3a16.63,16.63,0,0,0,2.23.17,9.743,9.743,0,0,0,2.42-.27l.02.06a2.242,2.242,0,0,0-.87,1.46c-.24.02-.5.04-.85.04-4.83,0-5.62-2.71-5.97-3.95a6.62,6.62,0,0,1-3.01,3.87l-.05-.06a9.845,9.845,0,0,0,2.45-6.04,2.949,2.949,0,0,0-.06-.67l1.53.49a.2.2,0,0,1,.17.21.214.214,0,0,1-.08.17,4.513,4.513,0,0,1-.44.22,12.744,12.744,0,0,1-.4,1.47,5.416,5.416,0,0,0,1.94,2.49c0-3.95,0-4.2-.03-4.82-.01-.18-.1-.91-.12-1.06h-1.58a11.783,11.783,0,0,0-1.77.13l-.3-.6c1.04.09,2.1.11,2.31.11h1.45c0-.88,0-1.83-.01-2.64h-1.16a10.269,10.269,0,0,0-1.75.13l-.3-.58c.93.07,1.86.09,2.31.09h.9a6.557,6.557,0,0,0-.27-2.32l1.56.46c.12.03.21.07.21.18s-.38.43-.45.49v1.19h1.47l.58-.72c.09-.1.14-.18.24-.18s.15.04.27.15l.79.72c.08.07.15.13.15.24,0,.14-.13.15-.23.15h-3.3v2.64h2.37Z" fill="#040000"/>
  <path id="パス_3331" data-name="パス 3331" d="M329.34,125.89h-6.69l.52.12c.31.08.38.08.38.21s-.04.18-.38.36c0,.42.06,2.31.06,2.69,0,.9,0,1.35-1.57,1.8a2.208,2.208,0,0,0-1.27-1.38v-.09c.19,0,1.06.06,1.24.06.54,0,.54-.02.56-.56.02-.7,0-2.41-.02-3.21h-4.08a11.7,11.7,0,0,0-1.77.13l-.3-.6c1.02.09,2.08.11,2.31.11h.71c0-2.66,0-2.94-.23-3.78l1.47.41c.22.06.28.12.28.25s-.04.17-.46.45v2.67h2.05c0-3.38,0-3.75-.03-4.26-.02-.33-.06-.68-.17-1.47l1.38.38c.17.04.29.09.29.26,0,.1,0,.16-.45.42v1.93h2.16l.58-.85c.06-.08.15-.2.24-.2s.18.09.27.16l.96.86c.09.09.15.13.15.22,0,.15-.12.17-.23.17h-4.14v2.38h4.12l.71-.9c.09-.12.18-.2.24-.2a.434.434,0,0,1,.27.17l.9.9c.1.11.15.17.15.23,0,.15-.12.16-.23.16Zm-8.52,1.81a3.558,3.558,0,0,1-.38.12,11.241,11.241,0,0,1-4.06,3.93l-.06-.08a17.791,17.791,0,0,0,2.91-4.18,5.3,5.3,0,0,0,.29-.9l1.17.62c.14.07.25.13.25.31a.183.183,0,0,1-.12.18Zm4.59,2.67a12.555,12.555,0,0,1-8.43,3.59l-.02-.11a14.523,14.523,0,0,0,6.66-3.4,6.627,6.627,0,0,0,1.33-1.49l.92.9c.12.12.18.2.18.29,0,.18-.06.18-.65.22Zm2.61.39c-.43,0-.64-.33-.93-.79a9.039,9.039,0,0,0-2.71-2.97l.06-.09c2.68.64,4.18,2.29,4.18,3.21a.629.629,0,0,1-.6.64Z" fill="#040000"/>
  <path id="パス_3332" data-name="パス 3332" d="M333.01,126.3a2.571,2.571,0,0,1,1.31-.39c1.48,0,2.68,1.5,2.68,3.31,0,2.08-1.48,3.95-3.21,3.95s-3.45-1.94-3.45-5.18c0-3.46,1.95-6.34,4.25-6.34,1,0,1.71.6,1.71,1.32a.749.749,0,0,1-.76.78c-.3,0-.79-.2-.83-1.05-.01-.33-.04-.54-.45-.54a1.535,1.535,0,0,0-1.1.54c-1.33,1.47-1.41,3.68-1.47,5.03a3.767,3.767,0,0,1,1.32-1.43Zm-.5,5.55a1.511,1.511,0,0,0,1.22.81c.79,0,1.92-.83,1.92-3.3,0-.68-.17-2.78-1.71-2.78-.57,0-1.53.42-2.23,2.04a7.156,7.156,0,0,0,.81,3.22Z" fill="#040000"/>
  <path id="パス_3333" data-name="パス 3333" d="M342.42,122.53a12.919,12.919,0,0,1-4.65,5.1l-.08-.11a19.471,19.471,0,0,0,3.63-5.49,5.822,5.822,0,0,0,.24-.96l1.29.87a.314.314,0,0,1,.19.24c0,.18-.39.29-.63.35Zm5.44,4.7c-.15,5.4-.45,6.49-3.15,6.73a2.139,2.139,0,0,0-1.12-1.65l.02-.11a9.8,9.8,0,0,0,1.74.26c.72,0,1.01-.17,1.23-1.53a31.323,31.323,0,0,0,.23-4.32h-3.03c-.09,2.35-1.09,6.42-5.82,7.29l-.03-.12a7.588,7.588,0,0,0,4.74-7.17h-.44a9.02,9.02,0,0,0-1.77.15l-.29-.6c.93.08,1.85.09,2.29.09h4.25l.4-.36a.434.434,0,0,1,.27-.16c.08,0,.15.07.21.13l.6.66a.359.359,0,0,1,.14.24C348.33,126.9,348.28,126.93,347.86,127.23Zm2.73-.02c-1.6-.69-3.39-2.31-4.51-5.7h-1.2a7,7,0,0,0-1.26.09l-.2-.53c.68.06,1.33.07,1.64.07h.75l.48-.48c.13-.13.19-.16.27-.16s.15.07.25.16l.56.54a.252.252,0,0,1,.12.22c0,.3-.69.42-.96.46a6.985,6.985,0,0,0,5.5,4.02l.02.15a2.479,2.479,0,0,0-1.46,1.14Z" fill="#040000"/>
  <path id="パス_3334" data-name="パス 3334" d="M352.69,133.96l-.3-.3,13.26-13.26.3.3Z" fill="#040000"/>
  <path id="パス_3335" data-name="パス 3335" d="M366.63,121.93h4.99c2.29,0,3.81.9,3.81,2.43a2.575,2.575,0,0,1-1.04,1.98,3.463,3.463,0,0,1-1.48.66,4.149,4.149,0,0,1,2.01.75,2.739,2.739,0,0,1,1.14,2.12c0,1.34-1.17,3.02-4.08,3.02h-5.35v-.48h.6a.962.962,0,0,0,1.06-1.04v-7.9a.967.967,0,0,0-1.06-1.04h-.6v-.49Zm2.86,4.92h2a2.286,2.286,0,0,0,2.55-2.31c0-1.35-.92-2.12-2.42-2.12h-1.06a.962.962,0,0,0-1.06,1.04v3.39Zm0,.48v4.04a.963.963,0,0,0,1.06,1.04h1.31a2.475,2.475,0,0,0,2.77-2.49,2.523,2.523,0,0,0-2.73-2.58h-2.42Z" fill="#040000"/>
  <path id="パス_3336" data-name="パス 3336" d="M380.82,124.23a.87.87,0,1,1-1.74,0,.87.87,0,1,1,1.74,0Zm0,5.91a.87.87,0,0,1-1.74,0,.877.877,0,0,1,.87-.87A.864.864,0,0,1,380.82,130.14Z" fill="#040000"/>
  <path id="パス_3337" data-name="パス 3337" d="M383.53,129.27a21.147,21.147,0,0,0,3.51-4.98,6.987,6.987,0,0,0,.29-.88l1.21.95a.238.238,0,0,1,.09.2c0,.21-.24.21-.58.27-.24.35-.54.77-1.08,1.47.18.15.25.2.25.3s-.06.18-.39.42c-.04.65-.04,1.23-.04,1.7,0,.64.04,3.54.04,4.12,0,.78,0,1.2-.66,1.2-.27,0-.53-.09-.53-.42,0-.19.09-1.05.09-1.21.04-.91.03-1.3.06-4.72a9.118,9.118,0,0,1-2.21,1.71l-.06-.11Zm.06-4.39a13.961,13.961,0,0,0,3.48-4.56l1.12.81s.12.11.12.18c0,.17-.06.18-.63.3a11.708,11.708,0,0,1-4.02,3.39l-.08-.12Zm11.95.79.54-.75c.12-.18.18-.2.22-.2.09,0,.15.06.29.16l.88.75c.09.08.15.14.15.23,0,.15-.12.16-.23.16h-5.34l1.4.45c.09.03.19.07.19.18,0,.2-.36.4-.46.45v1.48h1.54l.54-.64c.12-.13.15-.18.24-.18s.12.03.29.16l.75.63c.08.06.15.12.15.22,0,.13-.12.17-.23.17h-3.28c0,.21-.02,3.22-.02,3.3a16.63,16.63,0,0,0,2.23.17,9.743,9.743,0,0,0,2.42-.27l.02.06a2.242,2.242,0,0,0-.87,1.46c-.24.02-.5.04-.85.04-4.83,0-5.62-2.71-5.97-3.95a6.62,6.62,0,0,1-3.01,3.87l-.05-.06a9.845,9.845,0,0,0,2.45-6.04,2.949,2.949,0,0,0-.06-.67l1.53.49a.2.2,0,0,1,.17.21.214.214,0,0,1-.08.17,4.513,4.513,0,0,1-.44.22,12.744,12.744,0,0,1-.4,1.47,5.416,5.416,0,0,0,1.94,2.49c0-3.95,0-4.2-.03-4.82-.01-.18-.1-.91-.12-1.06h-1.58a11.783,11.783,0,0,0-1.77.13l-.3-.6c1.04.09,2.1.11,2.31.11h1.45c0-.88,0-1.83-.01-2.64h-1.16a10.269,10.269,0,0,0-1.75.13l-.3-.58c.93.07,1.86.09,2.31.09h.9a6.557,6.557,0,0,0-.27-2.32l1.56.46c.12.03.21.07.21.18s-.37.43-.45.49v1.19h1.47l.58-.72c.09-.1.14-.18.24-.18s.15.04.27.15l.79.72c.08.07.15.13.15.24,0,.14-.13.15-.23.15h-3.3v2.64h2.37Z" fill="#040000"/>
  <path id="パス_3338" data-name="パス 3338" d="M411.99,125.89H405.3l.52.12c.31.08.38.08.38.21s-.04.18-.38.36c0,.42.06,2.31.06,2.69,0,.9,0,1.35-1.57,1.8a2.208,2.208,0,0,0-1.27-1.38v-.09c.19,0,1.06.06,1.24.06.54,0,.54-.02.56-.56.02-.7,0-2.41-.02-3.21h-4.08a11.7,11.7,0,0,0-1.77.13l-.3-.6c1.02.09,2.08.11,2.31.11h.71c0-2.66,0-2.94-.23-3.78l1.47.41c.22.06.28.12.28.25s-.04.17-.46.45v2.67h2.05c0-3.38,0-3.75-.03-4.26-.02-.33-.06-.68-.17-1.47l1.38.38c.17.04.29.09.29.26,0,.1,0,.16-.45.42v1.93h2.16l.58-.85c.06-.08.15-.2.24-.2s.18.09.27.16l.96.86c.09.09.15.13.15.22,0,.15-.12.17-.22.17h-4.14v2.38h4.12l.71-.9c.09-.12.18-.2.24-.2a.434.434,0,0,1,.27.17l.9.9c.1.11.15.17.15.23,0,.15-.12.16-.23.16Zm-8.52,1.81c-.06.03-.24.08-.37.12a11.241,11.241,0,0,1-4.06,3.93l-.06-.08a17.791,17.791,0,0,0,2.91-4.18,5.3,5.3,0,0,0,.29-.9l1.17.62c.13.07.25.13.25.31a.183.183,0,0,1-.12.18Zm4.59,2.67a12.555,12.555,0,0,1-8.43,3.59v-.11a14.54,14.54,0,0,0,6.65-3.4,6.627,6.627,0,0,0,1.33-1.49l.92.9c.12.12.18.2.18.29,0,.18-.06.18-.65.22Zm2.61.39c-.44,0-.65-.33-.93-.79a9.039,9.039,0,0,0-2.71-2.97l.06-.09c2.68.64,4.18,2.29,4.18,3.21a.629.629,0,0,1-.6.64Z" fill="#040000"/>
  <path id="パス_3339" data-name="パス 3339" d="M419.67,121.93v.79c-2.38,3.67-3.23,5.76-3.42,9.1-.03.39-.08,1.34-.84,1.34a.8.8,0,0,1-.77-.83c0-1.06,1.05-4.21,4.21-9.22h-2.56c-2.17,0-2.5,1.01-2.83,1.96l-.45-.1.61-3.04h6.04Z" fill="#040000"/>
  <path id="パス_3340" data-name="パス 3340" d="M425.07,122.53a12.919,12.919,0,0,1-4.65,5.1l-.07-.11a19.471,19.471,0,0,0,3.63-5.49,5.822,5.822,0,0,0,.24-.96l1.29.87c.08.04.2.13.2.24,0,.18-.39.29-.63.35Zm5.44,4.7c-.15,5.4-.45,6.49-3.15,6.73a2.139,2.139,0,0,0-1.12-1.65l.02-.11a9.8,9.8,0,0,0,1.74.26c.72,0,1.01-.17,1.23-1.53a31.323,31.323,0,0,0,.23-4.32h-3.03c-.09,2.35-1.09,6.42-5.82,7.29l-.03-.12a7.588,7.588,0,0,0,4.74-7.17h-.44a9.076,9.076,0,0,0-1.77.15l-.28-.6c.93.08,1.84.09,2.29.09h4.25l.4-.36a.434.434,0,0,1,.27-.16c.08,0,.15.07.21.13l.6.66a.343.343,0,0,1,.13.24c0,.14-.04.17-.46.47Zm2.73-.02c-1.6-.69-3.39-2.31-4.51-5.7h-1.2a7,7,0,0,0-1.26.09l-.2-.53c.68.06,1.33.07,1.64.07h.75l.48-.48c.13-.13.19-.16.27-.16s.15.07.25.16l.55.54a.252.252,0,0,1,.12.22c0,.3-.69.42-.96.46a6.985,6.985,0,0,0,5.5,4.02l.02.15a2.479,2.479,0,0,0-1.46,1.14Z" fill="#040000"/>
  <path id="パス_3341" data-name="パス 3341" d="M435.37,134.44l-.13-.21a10.145,10.145,0,0,0,0-14.1l.13-.21a9.183,9.183,0,0,1,0,14.52Z" fill="#040000"/>
  <path id="パス_3357" data-name="パス 3357" d="M4.28,16.45.01,8.23,4.28,0l.49.27L.64,8.23l4.13,7.96-.49.27Zm1.85,0L1.86,8.23,6.13,0l.49.27L2.51,8.23l4.11,7.96-.49.27Z" fill="#af9f4b"/>
  <path id="パス_3358" data-name="パス 3358" d="M12.23,4.67c.08.05.2.14.2.22,0,.22-.17.32-.41.49,0,3.06,0,6.12.02,9.16,0,.61,0,1.33-.88,1.33-.44,0-.53-.22-.53-.46s.15-2.14.17-2.55c.1-2.24.1-4.08.12-7.31A14.463,14.463,0,0,1,8.23,8.73l-.1-.08A24.318,24.318,0,0,0,11.7.64c0-.1-.02-.22-.03-.34l1.6.87a.4.4,0,0,1,.24.32c0,.22-.2.29-.65.44a15.483,15.483,0,0,1-1.19,2.4l.56.34Zm2.6,4.5a11.683,11.683,0,0,0-1.99.15l-.34-.68c.87.07,1.73.12,2.62.12h2.33a11.639,11.639,0,0,0-.22-2.62l1.58.34c.08.02.22.07.22.2,0,.15-.12.24-.46.53,0,.46-.02.87-.02,1.55h2.97l.68-.78c.17-.2.19-.22.27-.22s.09.02.32.19l1.07.78a.314.314,0,0,1,.17.25c0,.15-.14.19-.25.19h-5a9.166,9.166,0,0,0,5.51,4.27v.1a3.257,3.257,0,0,0-1.51,1.21,12.136,12.136,0,0,1-4.22-5.58h-.02c0,1.04.05,2.65.07,3.13.02.43.12,2.35.12,2.74,0,.29,0,.88-.9.88-.39,0-.53-.2-.53-.56,0-.02.12-2.67.12-2.97.02-.9.03-1.53.03-2.33a12.444,12.444,0,0,1-5.25,4.59l-.02-.12A19.563,19.563,0,0,0,16.7,9.18H14.81Zm5.64-7.75.36-.39c.07-.07.12-.15.25-.15a.592.592,0,0,1,.32.15l.68.51c.1.08.22.2.22.31,0,.17-.15.31-.58.51-.02,1.14.02,1.9.02,2.11.02.24.08,1.39.08,1.51,0,.44-.2.78-.83.78-.42,0-.41-.39-.39-.78H15.81c0,.51-.24.94-.78.94-.37,0-.48-.27-.48-.54,0-.14.12-2.84.12-3.38A11.43,11.43,0,0,0,14.52.6l1.45.83h4.5Zm-4.69.41V5.57h4.83V1.84H15.78Z" fill="#af9f4b"/>
  <path id="パス_3359" data-name="パス 3359" d="M38.09,2.79l.73-.92c.1-.12.17-.24.29-.24.1,0,.24.12.32.19l.95.92c.08.07.19.17.19.27,0,.15-.14.19-.25.19H32.84c-.68.65-1.51,1.39-2.41,2.11,2.06-.1,3.88-.19,6.2-.41a4.819,4.819,0,0,0-1.51-.92l.07-.14c2.53.39,4.64,1.39,4.64,2.5a.727.727,0,0,1-.7.75c-.34,0-.51-.17-1.04-.77a8.369,8.369,0,0,0-1.16-1.17c-.36.07-4.11.83-9.66,1.5-.12.24-.22.44-.41.44-.15,0-.24-.15-.29-.31l-.61-1.65a6.932,6.932,0,0,0,1.97.25c.1,0,.63,0,2.01-.07a19.585,19.585,0,0,0,1.05-2.12H27.88a11.622,11.622,0,0,0-1.99.15l-.34-.68c1.16.08,2.36.12,2.6.12h4.28A6,6,0,0,0,32.06.35l1.77.41c.15.03.31.08.31.25,0,.1-.32.41-.48.56V2.78h4.42ZM36.25,7.04c.14-.15.22-.22.32-.22a.46.46,0,0,1,.24.1l.68.48c.08.07.2.2.2.29a.457.457,0,0,1-.15.24,3.84,3.84,0,0,0-.29.27c0,.93.12,5.24.12,5.98,0,1.55-1.8,1.85-2.04,1.89-.03-.31-.14-1-1.44-1.58v-.14c.71.05,1.44.07,1.51.07.63,0,.71,0,.71-.31v-1.8H30.14c.02.46.08,2.55.08,2.87a.824.824,0,0,1-.88.88c-.48,0-.48-.31-.48-.54,0-.27.08-1.48.08-1.73.03-1.39.05-3.33.05-4.69a9.17,9.17,0,0,0-.22-2.36l1.58.73h5.52l.36-.43Zm-.14.83H30.14V9.62h5.97Zm0,2.16H30.14V11.9h5.97Z" fill="#af9f4b"/>
  <path id="パス_3360" data-name="パス 3360" d="M55.21,1.62l.49-.41a.53.53,0,0,1,.31-.15.457.457,0,0,1,.24.12l.73.63c.08.07.19.17.19.27,0,.2-.19.32-.56.58-.02.93-.03,2.89,0,5.95,0,.99.07,5.34.07,6.22a.858.858,0,0,1-.83.92c-.53,0-.49-.39-.46-.99H44.83a2.314,2.314,0,0,1-.02.56c-.05.37-.54.58-.85.58-.36,0-.44-.24-.44-.53,0-.22.08-1.24.08-1.44.05-1.14.07-1.97.07-8.09A33.479,33.479,0,0,0,43.5.93l1.46.7H55.21Zm-10.39.41V14.35H55.38V2.02H44.82Zm8.79,8.26a.3.3,0,0,1,.1.2c0,.22-.19.25-.32.25a2.023,2.023,0,0,1-.31-.02c-.54.22-.71.27-1.29.46.71.25,2.23.82,2.23,1.7a.534.534,0,0,1-.53.56c-.2,0-.29-.05-.95-.78a8.8,8.8,0,0,0-2.06-1.65c0,.32.05,1.9.05,2.07a.791.791,0,0,1-.78.76c-.27,0-.37-.24-.37-.51,0-.51.07-2.74.07-3.2a9.755,9.755,0,0,1-4.27,2.79l-.07-.1a15.2,15.2,0,0,0,3.88-3.59h-1a.64.64,0,0,1-.68.65c-.44,0-.44-.31-.44-.49,0-.08.07-1.48.07-1.75a5.714,5.714,0,0,0-.12-1.34l1.28.51h3.86l.31-.29c.08-.08.17-.17.24-.17a.433.433,0,0,1,.24.14l.59.53a.339.339,0,0,1,.14.24c0,.07-.1.17-.39.42,0,.22.03,1.19.03,1.38a.581.581,0,0,1-.27.56l.78.66ZM51.98,3.85l.36-.51c.08-.14.17-.2.25-.2a.61.61,0,0,1,.32.17l.59.51c.08.07.19.15.19.25,0,.15-.15.19-.27.19H50.5V5.52h2.35l.49-.58c.1-.12.17-.2.27-.2a.56.56,0,0,1,.32.17l.68.58c.1.08.17.15.17.25,0,.17-.15.19-.25.19H47.49a12.4,12.4,0,0,0-2.01.15l-.34-.68c.87.08,1.75.12,2.62.12h1.67V4.26H48.27a11.822,11.822,0,0,0-2.01.15l-.34-.68c1.05.08,2.29.12,2.62.12h.88a5.909,5.909,0,0,0-.31-1.51l1.58.41c.1.03.22.07.22.2,0,.19-.17.29-.43.44v.46h1.48Zm.02,5V7.24H47.99V8.85Zm-1.51.41c-.02.73-.02,1.19-.02,1.6a5.491,5.491,0,0,1,.97.22A7.983,7.983,0,0,0,52.65,9.7c-.39.1-.65-.08-.65-.44H50.49Z" fill="#af9f4b"/>
  <path id="パス_3361" data-name="パス 3361" d="M60.19,16.45l-.49-.27,4.11-7.96L59.7.27,60.19,0l4.27,8.23-4.27,8.23Zm1.85,0-.49-.27,4.13-7.96L61.55.27,62.04,0l4.27,8.23-4.27,8.23Z" fill="#af9f4b"/>
</svg>
