<svg xmlns="http://www.w3.org/2000/svg" width="1600" height="102.03" viewBox="0 0 1600 102.03">
  <g id="area03-01" transform="translate(0 -14.5)">
    <line id="線_21" data-name="線 21" x2="1600" transform="translate(0 113.53)" fill="none" stroke="#bba579" stroke-miterlimit="10" stroke-width="3"/>
    <path id="パス_130" data-name="パス 130" d="M40.3,1.3q-4.8,0-12.65-2.45T12.8-11.55q-7-7.95-7-22.95A45.06,45.06,0,0,1,9.65-52.1a39.762,39.762,0,0,1,11.2-15.25A26.049,26.049,0,0,1,38.1-73.5a25.86,25.86,0,0,1,6.75.8,44.652,44.652,0,0,1,6.85,2.6,7.881,7.881,0,0,0,3.1.8,5.442,5.442,0,0,0,2.6-.7,14.443,14.443,0,0,0,2.9-2.2l4,16.5.2,1.1a.527.527,0,0,1-.2.45q-.2.15-.5.35a1.232,1.232,0,0,1-.7.2,1.3,1.3,0,0,1-1.2-.7,80.955,80.955,0,0,0-6.2-8,24.742,24.742,0,0,0-7.2-5.35A22.571,22.571,0,0,0,38.1-69.9q-9.5,0-14.7,7.1a39.723,39.723,0,0,0-6.95,15.25A65.574,65.574,0,0,0,14.7-34.5q0,13.6,5.3,20.75t11.2,9.3A29.6,29.6,0,0,0,40.8-2.3q6.6,0,10.15-3a13.9,13.9,0,0,0,4.65-7.1,27.5,27.5,0,0,0,1.1-6.9q0-.8-.2-2.6a7.884,7.884,0,0,0-.85-2.8,5.407,5.407,0,0,0-2.8-2.1,16.863,16.863,0,0,0-6.25-.9.63.63,0,0,1-.65-.35,2.8,2.8,0,0,1-.15-1.05q0-1.4.8-1.4H72.8q.8,0,.8,1.4t-.8,1.4a10.4,10.4,0,0,0-5.9,1.6,6.187,6.187,0,0,0-2.8,4.5,37.881,37.881,0,0,0-.2,4.7q0,5.3.3,13.7a11.005,11.005,0,0,0-1.7-.1,18.9,18.9,0,0,0-4.6.55Q55.7-2.2,52-1.1,48.3.1,45.75.7A23.746,23.746,0,0,1,40.3,1.3Zm72.8.1a21.143,21.143,0,0,1-12.45-3.75,24.914,24.914,0,0,1-8.2-9.55A26.5,26.5,0,0,1,89.6-23.7a27.718,27.718,0,0,1,2.8-12.2,23.4,23.4,0,0,1,8.15-9.4,21.944,21.944,0,0,1,12.55-3.6,22.182,22.182,0,0,1,12.6,3.6,23.644,23.644,0,0,1,8.25,9.4,27.317,27.317,0,0,1,2.85,12.2,26.5,26.5,0,0,1-2.85,11.8,24.762,24.762,0,0,1-8.25,9.55A21.538,21.538,0,0,1,113.1,1.4Zm0-3.5a12.916,12.916,0,0,0,11.25-6.15q4.15-6.15,4.15-15.45,0-9.8-4.1-15.75a12.993,12.993,0,0,0-11.3-5.95,12.875,12.875,0,0,0-11.2,6q-4.1,6-4.1,15.7a31.063,31.063,0,0,0,1.85,10.95,18.039,18.039,0,0,0,5.3,7.8A12.4,12.4,0,0,0,113.1-2.1Zm93.1-1.7a2.882,2.882,0,0,1,1.65.3,1.12,1.12,0,0,1,.35.9q0,1-.7,1.2L193.4.9l-.1-9q-6.6,9-15.9,9-8.6,0-12.25-4.4a16.353,16.353,0,0,1-3.65-10.8l-.1-23.3a4.369,4.369,0,0,0-.95-3.1A4.446,4.446,0,0,0,158.1-42q-1.4-.3-4.2-.6-.7-.1-.85-.45a2.155,2.155,0,0,1-.15-.85q0-1.1.6-1.3,1.5-.5,15-3.8v14.9q0,16.2.1,18.6a15.164,15.164,0,0,0,2.55,8.05Q173.5-4,179-4a15.384,15.384,0,0,0,7.8-2.2,17.747,17.747,0,0,0,6.4-6.7l-.4-24.6a4.369,4.369,0,0,0-.95-3.1,4.419,4.419,0,0,0-2.25-1.3q-1.3-.3-4.3-.7-.9-.1-.9-1.6a.85.85,0,0,1,.6-.9q1.5-.5,14.9-3.8l.2,40.4q0,3.7,4,4.5A12.986,12.986,0,0,0,206.2-3.8Zm52-45.1a8.349,8.349,0,0,1,5.1,1.55,4.72,4.72,0,0,1,2.1,3.95,3.873,3.873,0,0,1-1.25,2.9A4.366,4.366,0,0,1,261-39.3a7.531,7.531,0,0,1-3.8-1.5q-1.5-.8-2.4-1.2a4.871,4.871,0,0,0-2-.4,9.14,9.14,0,0,0-5.2,2A30.036,30.036,0,0,0,242-35l-.1,28.2q0,2.5,1.75,3.3a11.618,11.618,0,0,0,4.75.8h1.3q.8,0,.8,1.4,0,1.3-.8,1.3H227.3q-.7,0-.7-1.3,0-1.4.7-1.4h1.3a11.318,11.318,0,0,0,4.65-.8Q235-4.3,235-6.8l-.3-30.8a4.369,4.369,0,0,0-.95-3.1,4.1,4.1,0,0,0-2.2-1.25q-1.25-.25-4.35-.65a.867.867,0,0,1-.75-.5,3.62,3.62,0,0,1-.15-1.2.859.859,0,0,1,.5-.9q1.5-.6,15.2-3.8v9.8a40.779,40.779,0,0,1,8.05-6.95A15.075,15.075,0,0,1,258.2-48.9ZM367.5-2.7q.8,0,.8,1.4,0,1.3-.8,1.3H345.1q-.7,0-.7-1.3a2.8,2.8,0,0,1,.15-1.05.548.548,0,0,1,.55-.35h1.3a11.318,11.318,0,0,0,4.65-.8q1.75-.8,1.75-3.4V-20.5q0-7.1-.2-11.3Q352.2-44,342.3-44a15.318,15.318,0,0,0-8,2.35,19.058,19.058,0,0,0-6.6,7.05,3.033,3.033,0,0,1,.1.9q.1,1.6.1,6.2,0,8.3-.4,20.6a3.336,3.336,0,0,0,1.8,3.35,11.077,11.077,0,0,0,4.7.85h1.3q.7,0,.7,1.4,0,1.3-.7,1.3H312.9q-.8,0-.8-1.3,0-1.4.8-1.4h1.3a11.318,11.318,0,0,0,4.65-.8q1.75-.8,1.75-3.4V-20q0-7.6-.2-11.8Q320-44,310.1-44a15.3,15.3,0,0,0-7.9,2.25,18.715,18.715,0,0,0-6.5,6.85l-.1,28a3.336,3.336,0,0,0,1.8,3.35,11.077,11.077,0,0,0,4.7.85h1.3q.8,0,.8,1.4,0,1.3-.8,1.3H281q-.7,0-.7-1.3a2.8,2.8,0,0,1,.15-1.05A.548.548,0,0,1,281-2.7h1.3a11.077,11.077,0,0,0,4.7-.85,3.336,3.336,0,0,0,1.8-3.35l-.4-30.5a4.369,4.369,0,0,0-.95-3.1,4.43,4.43,0,0,0-2.3-1.3q-1.35-.3-4.25-.7-.9-.1-.9-1.6a.859.859,0,0,1,.5-.9q1.5-.6,15.2-3.9v9q6.5-9,15.8-9,6.2,0,10.05,2.9a14.994,14.994,0,0,1,5.35,7.5q7-10.4,16.8-10.4,7.8,0,11.9,4.4A16.44,16.44,0,0,1,360-33.7q.1,1.6.1,6.2,0,8.3-.4,20.6a3.336,3.336,0,0,0,1.8,3.35,11.077,11.077,0,0,0,4.7.85Zm62.7-10a.9.9,0,0,1,.5.8,2.359,2.359,0,0,1-.3,1,21.465,21.465,0,0,1-6.95,8.6Q418.6,1.4,411.1,1.4a25.688,25.688,0,0,1-12.25-2.95A21.774,21.774,0,0,1,390.1-10a24.991,24.991,0,0,1-3.2-12.8,30.883,30.883,0,0,1,2.6-12.4,24.346,24.346,0,0,1,7.75-9.9A20.025,20.025,0,0,1,409.7-49q8.8,0,14.3,5.7t6.6,15.6l-35.3.2q-.2,2.4-.2,3.7a23.968,23.968,0,0,0,2.45,11.45,15.974,15.974,0,0,0,6.4,6.7A17.8,17.8,0,0,0,412.6-3.5q9.6,0,15.8-9a1.112,1.112,0,0,1,.9-.6A1.926,1.926,0,0,1,430.2-12.7ZM409.1-45.4a11.206,11.206,0,0,0-8.35,3.7,20.736,20.736,0,0,0-4.95,10.3l25.2-.2v-1q-.3-6.6-3.65-9.7A11.693,11.693,0,0,0,409.1-45.4ZM466.6,1.4q-5.5,0-8.45-2.85T455.2-10.2V-44.3h-8.1V-48a17.525,17.525,0,0,0,6.15-3.2,15.985,15.985,0,0,0,4.05-5.9,48.992,48.992,0,0,0,2.9-10.8h2.2V-48h13.1v3.7H462.3v24.5l.1,9a8.353,8.353,0,0,0,1.9,5.45,5.848,5.848,0,0,0,4.6,2.05,8.653,8.653,0,0,0,3.75-.7,9.209,9.209,0,0,0,2.85-2.3,1.365,1.365,0,0,1,1-.6,1.287,1.287,0,0,1,.95.5,1.507,1.507,0,0,1,.45,1,1.232,1.232,0,0,1-.2.7A12.583,12.583,0,0,1,466.6,1.4Z" transform="translate(161.73 88)" fill="#bba579"/>
    <line id="線_24" data-name="線 24" x2="482.94" transform="translate(156.56 113.53)" fill="none" stroke="#bba579" stroke-miterlimit="10" stroke-width="6"/>
  </g>
</svg>
