<?xml version="1.0" encoding="UTF-8"?>
<svg id="_レイヤー_2" data-name="レイヤー 2" xmlns="http://www.w3.org/2000/svg" viewBox="0 0 416.98 164.44">
  <defs>
    <style>
      .cls-1 {
        fill: #af9f4b;
      }

      .cls-1, .cls-2 {
        stroke-width: 0px;
      }

      .cls-2 {
        fill: #040000;
      }
    </style>
  </defs>
  <g id="_レイヤー_1-2" data-name="レイヤー 1">
    <g>
      <path class="cls-1" d="m13.32,37.18c0,3.67-2.99,6.66-6.66,6.66s-6.66-2.97-6.66-6.66,3.02-6.66,6.66-6.66,6.66,2.96,6.66,6.66Z"/>
      <path class="cls-2" d="m29.72,37.42c-1.1,0-1.79,0-3.98.41.15.7.99,4.6.99,4.84,0,.46-.29.66-.48.66-.36,0-.81-.67-.84-1.53-.03-.63-.06-1.3-.51-3.81-1.92.39-3.04.78-3.23.85-.81.38-.82.38-.94.38-.27,0-1.47-.6-1.47-1.56,0-.12.03-.21.04-.34.34.5.92.78,1.38.78.39,0,3.45-.64,4.09-.75-.04-.24-.33-1.71-.51-2.56-1.04.24-1.74.5-2.23.71-.27.12-.3.13-.38.13-.1,0-.54-.09-1.06-.76-.26-.33-.26-.58-.24-.88.57.54,1.17.57,1.47.57.49,0,2.11-.33,2.32-.38-.46-2.29-.48-2.41-1.79-2.65.42-.3.64-.44.98-.44.03,0,1.62.11,1.62.69,0,.1-.1.54-.1.64,0,.21.06.83.18,1.58.3-.08,1.65-.34,1.91-.44.12-.04.63-.28.75-.28.1,0,.88.12,1.08.3.08.08.14.18.14.31,0,.2-.15.41-.57.41-1.08,0-2.14.12-3.2.32.21,1.3.3,1.84.47,2.58.27-.05,2.28-.46,2.35-.49.18-.08.73-.3.93-.35.09-.01.17-.03.27-.03.52,0,1.19.19,1.36.33.09.08.15.21.15.36,0,.42-.24.42-.96.42Z"/>
      <path class="cls-2" d="m33.26,37.8c-.33,0-.48-.34-.64-.72-.19-.42-.6-1.09-1.09-1.62.99.15,2.17.96,2.17,1.79,0,.3-.15.55-.44.55Zm6.18-1.51c-.09.1-.7,1.42-.84,1.68-2.16,4.07-4.83,4.77-5.88,5.05l-.03-.15c4.5-2.1,5.79-6.9,5.79-7.11,0-.36-.6-.71-.8-.81.2-.04.39-.11.66-.11.65,0,1.41.79,1.41.98,0,.1-.03.15-.31.46Zm-3.6.87c-.31,0-.36-.14-.62-.83-.19-.55-.55-1.09-.9-1.55,1.02.3,1.96,1.14,1.96,1.79,0,.31-.16.58-.45.58Z"/>
      <path class="cls-2" d="m51.14,42.33c-.33,0-.39-.11-.98-1.12-.06-.09-1.03-1.77-3.04-3.32-1.77,2.13-3.99,3.93-6.7,4.47v-.09c3.88-1.71,7.27-6.13,8.04-8.73-.9.15-3.55.55-4.18.95-.26.17-.35.21-.45.21-.21,0-1.05-.83-1.05-1.42,0-.38.06-.53.15-.72.46.81.69.92,1.08.92.63,0,3.76-.38,4.21-.57.12-.04.63-.46.75-.46.19,0,1.29.96,1.29,1.17,0,.15-.06.18-.55.4-.14.06-.19.15-.27.3-.87,1.64-1.12,2.12-2.11,3.36,1.32.62,4.26,2.31,4.26,3.94,0,.5-.24.72-.44.72Zm.02-9.33c-.18,0-.26-.08-.75-.71-.12-.15-.62-.76-1.53-1.21.38-.01.83-.01,1.85.44.36.17.76.38.76.99,0,.48-.27.5-.33.5Zm1.53-.84c-.18,0-.25-.08-.9-.75-.43-.45-.95-.83-1.5-1.09.48-.02,2.7.15,2.7,1.42,0,.38-.23.42-.3.42Z"/>
      <path class="cls-2" d="m62.85,36.09c-.28.15-.32.21-.51.66-2.43,5.82-6.46,6.57-7.29,6.64l-.03-.1c.93-.39,5.13-2.76,6.36-7.51-.43.03-4.75.42-5.71.84-.09.04-.45.27-.54.27-.38,0-1.47-.88-1.47-1.79,0-.13.01-.25.1-.51.25.39.76.98,1.56.98.72,0,5.79-.39,6.01-.5.13-.06.55-.54.67-.54.17,0,1.27.79,1.27,1.14,0,.2-.19.3-.43.42Zm-1.8-2.91c-1.15.06-3.58.27-3.93.33-.73.11-.81.12-1.05.12-.48,0-1.2-.67-1.2-1.62.66.62,1.12.7,1.95.7,1.01,0,2.94-.21,3.57-.5.3-.13.35-.16.48-.16.27,0,1.23.21,1.23.67,0,.3-.19.4-1.05.45Z"/>
      <path class="cls-2" d="m65.36,41.04c-.33,0-.57-.24-.57-.62,0-.51.39-.78.98-1.14,1-.63,1.73-1.8,2.04-2.33-.17,2.19-1.53,4.08-2.45,4.08Zm10.35-5.26c-.15,0-1.06-.17-1.26-.2-.4-.05-1.08-.11-1.95-.11-.78,0-1.26.03-1.62.05-.03,1.21,0,3.66.08,4.86.01.15.05.91.05,1,0,.34-.12,1.7-.75,1.7-.24,0-.27-.08-.6-.75-.25-.53-.31-.58-1.65-1.55l.02-.08c.48.1,1.44.33,1.75.33.13,0,.19-.03.23-.15.07-.3.07-2.14.07-2.59s-.03-2.1-.04-2.7c-1.32.14-2.85.45-3.3.69-.14.08-.3.17-.46.17-.38,0-1.28-.81-1.28-1.63,0-.2.05-.41.09-.6.72,1.04,1.2,1.04,1.47,1.04.12,0,.24-.01.31-.01,1.54-.12,2.31-.18,3.17-.25-.03-1.08-.06-2.18-.1-2.37-.15-.54-.38-.65-1.31-.88.18-.14.51-.39.96-.39.62,0,1.74.56,1.74.95,0,.09-.02.13-.18.54-.21.48-.24,1.48-.24,2.1.49-.03,2.82-.22,3.15-.31.06-.02.54-.14.58-.14.24,0,1.41.35,1.41.93,0,.3-.16.38-.33.38Zm-.27,4.95c-.27,0-.31-.08-1.08-1.23-1-1.5-1.77-2.15-2.25-2.55,1.46.27,3.84,1.89,3.84,3.06,0,.39-.25.72-.51.72Zm.14-7.02c-.25,0-.32-.08-.86-.67-.6-.65-1.04-.95-1.38-1.18.84-.02,2.59.4,2.59,1.45,0,.35-.27.41-.36.41Zm1.44-1.05c-.23,0-.3-.08-.96-.76-.52-.56-.98-.77-1.37-.95.75-.04,2.66.13,2.66,1.26,0,.36-.21.45-.33.45Z"/>
      <path class="cls-2" d="m90.78,32.34h-6.19v2.46c1.48.25,3.76,1.1,3.76,2.55,0,.51-.36.71-.63.71-.39,0-.51-.19-1.05-1.06-.52-.84-1.43-1.65-2.09-2.01.02,3.4.02,3.78.09,7.23,0,.1.02.6.02.71,0,.59-.39.78-.81.78-.51,0-.51-.33-.51-.49,0-.44.1-2.57.12-3.04.03-1.19.03-1.85.03-7.82h-3.65c-.39,0-1.09.02-1.75.14l-.3-.6c.76.06,1.53.11,2.31.11h8.34l.84-.81c.1-.09.2-.16.24-.16.09,0,.18.06.28.15l1.04.79c.06.04.15.13.15.22,0,.15-.15.17-.24.17Z"/>
      <path class="cls-2" d="m105.27,43.38c-.46.21-1.14.22-2.53.22-1.21,0-2.13-.03-2.13-1.38,0-1.25.34-6.73.39-7.86h-2.43c-.17,1.46-.29,2.38-.59,3.46.36.21,1.83,1.11,1.83,1.98,0,.08,0,.58-.6.58-.25,0-.36-.12-.46-.24-.65-.75-.81-.92-1.1-1.22-.85,2.36-2.38,3.62-3.36,4.23-.92.59-1.62.79-2.05.94l-.05-.09c2.97-1.72,4.14-4.11,4.65-5.85-1.12-.99-1.89-1.32-2.23-1.48v-.09c.78.12,1.47.32,2.44.75.29-1.21.38-2.31.41-2.98h-2.56c-.27,0-1.04,0-1.77.13l-.29-.59c.93.08,1.86.09,2.29.09h2.36c.02-.69.08-2.44-.27-3.76l1.85.54s.15.09.15.21-.09.2-.46.5c-.03,1.41-.12,2.29-.14,2.52h2.27l.57-.5c.06-.05.16-.15.24-.15.09,0,.18.06.24.1l.73.63s.12.09.12.17c0,.15-.19.25-.67.53-.15.99-.33,4.84-.38,6.12-.02.4-.03.78-.03.84,0,.79.23.79,1.6.79.67,0,1.02,0,1.19-.53.13-.42.4-1.69.51-2.22h.09c.06.34.28,1.86.38,2.16.06.17.09.19.3.39.06.04.13.17.13.33,0,.22-.17.51-.63.71Z"/>
      <path class="cls-2" d="m120.2,37.26h-6.05v4.89c0,.57,0,1.67-1.92,1.86-.04-.45-.15-.97-1.75-1.71l.02-.11c.66.09,1.17.15,1.63.15.71,0,.92-.06.92-.63v-4.45h-4.14c-.27,0-1.05,0-1.77.13l-.3-.6c.93.08,1.86.11,2.31.11h3.9v-1.52c0-1.11-.1-1.36-.25-1.77l1.39.39c1.1-1.6,1.31-1.89,1.5-2.3h-5.13c-.27,0-1.03,0-1.77.14l-.29-.6c.93.08,1.84.11,2.29.11h4.98l.58-.51c.15-.12.18-.15.28-.15.06,0,.12.04.25.15l1.05.86c.12.1.15.2.15.25,0,.22-.18.29-1.11.32-1.54,1.18-1.71,1.32-2.5,1.83.1.03.18.12.18.2,0,.2-.24.33-.51.5v2.12h3.8l.78-.86c.14-.13.16-.2.23-.2.08,0,.15.06.29.16l1.03.86c.08.06.15.13.15.24,0,.13-.12.15-.22.15Z"/>
      <path class="cls-2" d="m132.78,31.35l.44-.36c.09-.08.18-.13.27-.13.06,0,.16.06.21.1l.64.56c.07.06.16.15.16.24,0,.18-.16.29-.5.51-.02.82-.03,2.55,0,5.25,0,.87.06,4.71.06,5.49,0,.5-.35.81-.74.81-.46,0-.43-.34-.4-.87h-9.31c.01.18,0,.42-.02.5-.04.33-.48.51-.75.51-.31,0-.39-.21-.39-.47,0-.19.08-1.09.08-1.27.04-1,.06-1.74.06-7.14,0-2.75-.03-3.5-.15-4.33l1.29.62h9.04Zm-9.16.36v10.88h9.31v-10.88h-9.31Zm7.75,7.29s.09.1.09.18c0,.2-.16.23-.29.23-.06,0-.15,0-.27-.02-.48.2-.63.24-1.14.41.63.22,1.97.72,1.97,1.5,0,.27-.2.5-.47.5-.18,0-.25-.04-.84-.69-.51-.55-1.17-1.09-1.81-1.46,0,.29.04,1.68.04,1.83,0,.45-.42.67-.69.67-.24,0-.33-.21-.33-.45,0-.45.06-2.42.06-2.82-.48.57-1.83,1.84-3.76,2.46l-.06-.09c1.3-.87,2.58-1.98,3.42-3.17h-.89c0,.41-.33.57-.6.57-.39,0-.39-.27-.39-.44,0-.08.06-1.3.06-1.54,0-.46-.02-.78-.1-1.18l1.12.45h3.4l.27-.25c.07-.08.15-.15.21-.15s.15.06.21.12l.52.46c.08.06.12.13.12.21,0,.06-.09.15-.35.38,0,.2.03,1.05.03,1.21,0,.32-.12.41-.24.5l.69.59Zm-1.44-5.68l.31-.45c.08-.12.15-.18.23-.18.06,0,.15.05.29.15l.52.45c.08.06.17.13.17.22,0,.14-.14.16-.24.16h-2.58v1.11h2.07l.43-.51c.09-.11.15-.18.24-.18s.18.06.29.15l.6.51c.09.08.15.13.15.23,0,.15-.14.16-.23.16h-6.21c-.15,0-1.08,0-1.77.13l-.3-.6c.77.08,1.55.11,2.31.11h1.47v-1.11h-1.02c-.26,0-1.05,0-1.77.14l-.3-.6c.93.08,2.02.11,2.31.11h.78c-.03-.54-.18-1.04-.27-1.33l1.39.36c.09.03.2.06.2.18,0,.17-.15.25-.38.39v.41h1.3Zm.02,4.41v-1.42h-3.54v1.42h3.54Zm-1.34.36c-.02.64-.02,1.05-.02,1.41.21.03.41.06.85.19.3-.25.85-.87,1.06-1.21-.34.09-.57-.07-.57-.39h-1.34Z"/>
      <path class="cls-2" d="m138.24,43.95v-13.53h3.78v.65h-3.15v12.24h3.15v.65h-3.78Z"/>
      <path class="cls-2" d="m150.69,35.29h-2.96c0,.13,0,.9.02,1.54,1.11.3,2.44,1.2,2.44,2.03,0,.31-.21.69-.59.69-.4,0-.57-.34-.84-.96-.45-.99-.83-1.3-1.02-1.47,0,.96.06,5.17.06,6.03,0,.69-.39.86-.69.86-.46,0-.46-.39-.46-.55,0-.74.13-3.96.15-4.62.01-.57.01-.93.01-1.26-.7,1.27-1.95,3-3.49,4.12l-.09-.09c1.69-2.02,3.13-5.19,3.51-6.31h-1.06c-.38,0-1.1,0-1.77.13l-.3-.6c1.03.09,2.1.11,2.31.11h.89v-2.49c-1.35.24-2.37.22-2.9.22v-.13c1.63-.32,4.44-1.21,5.22-2.05l1,1.05c.06.06.09.13.09.2,0,.12-.06.15-.23.15-.04,0-.41-.08-.48-.09-.33.09-.77.22-1.79.46v2.69h1.21l.53-.68c.09-.12.15-.18.22-.18s.18.06.29.15l.78.67c.11.09.15.13.15.22,0,.13-.12.16-.23.16Zm5.4,7.98c-.5,0-.64-.52-.72-.85-.09-.41-.23-1.02-.27-1.2-1.51.55-4.24,1.16-5.26,1.38-.04.04-.15.29-.19.33-.03.03-.09.08-.18.08s-.18-.05-.29-.29l-.57-1.33c.25.03.48.08.92.08.18,0,.3,0,.76-.03,1.07-3.42,2.35-8.76,2.22-10.45l1.69.66c.08.03.21.11.21.24,0,.15-.06.18-.66.46-.85,3.3-1.42,5.17-3.03,9.08,1.33-.09,3-.21,4.31-.45-.27-.83-.91-2.04-1.71-3.06l.06-.08c1.84,1.08,3.4,3.31,3.4,4.6,0,.74-.51.84-.69.84Z"/>
      <path class="cls-2" d="m168.99,42.58l.78-.84c.08-.08.15-.2.24-.2.11,0,.18.08.28.17l1.04.84c.08.06.15.13.15.22,0,.14-.12.17-.23.17h-11.14c-.13,0-1.06,0-1.77.14l-.29-.6c.99.09,2.01.11,2.29.11h4.51c.35-.84,2.14-6.22,2.06-8.14l1.68.82c.06.03.14.12.14.21,0,.16-.06.18-.6.41-.21.53-1.15,2.95-1.31,3.32-.34.85-.91,2.2-1.63,3.39h3.79Zm-.87-9.18l.63-.84c.1-.13.16-.2.23-.2.09,0,.18.09.29.16l1.05.86c.09.07.14.13.14.21,0,.13-.11.16-.23.16h-9.18c-.13,0-1.06,0-1.77.13l-.28-.58c1.03.08,2.16.09,2.29.09h2.91c0-1.82-.18-2.29-.39-2.88l1.8.45c.08.01.18.04.18.15,0,.15-.34.42-.54.58-.03.27-.03,1.46-.03,1.7h2.91Zm-7.17,1.39c1.69,1.63,2.56,4.07,2.56,5.61,0,.6-.35.96-.72.96-.6,0-.65-.69-.67-1.07-.11-1.59-.24-3.27-1.23-5.46l.06-.04Z"/>
      <path class="cls-2" d="m172.76,43.95v-.65h3.15v-12.24h-3.15v-.65h3.78v13.53h-3.78Z"/>
      <path class="cls-1" d="m13.32,67.18c0,3.67-2.99,6.66-6.66,6.66s-6.66-2.97-6.66-6.66,3.02-6.66,6.66-6.66,6.66,2.96,6.66,6.66Z"/>
      <path class="cls-2" d="m29.22,64.03c-.39.06-.52.17-1.08.54-.94.64-2.16,1.47-2.89,1.83-.09.29-.45,1.6-.53,1.86-1.05,3.62-2.86,4.63-3.61,5.05l-.04-.09c2.31-2.44,3.1-6.33,3.1-7.2,0-.44-.25-.62-1.04-.9.38-.17.52-.24.77-.24.55,0,1.48.35,1.48.75,0,.09-.02.23-.03.3,1.5-1.19,2.5-2.43,2.5-2.62,0-.04-.02-.09-.21-.09-.78,0-5.31.51-6.36.85-.14.04-.69.32-.81.32-.15,0-1.34-.62-1.34-1.44,0-.25.03-.48.11-.72.56.93,1.2.93,1.54.93.66,0,6.34-.57,7.02-.71.12-.01.63-.24.73-.24.24,0,1.4,1.22,1.4,1.47s-.06.25-.72.34Z"/>
      <path class="cls-2" d="m40.92,72.25c-.31,0-.48-.25-.61-.48-1.2-1.98-2.02-2.97-3.36-3.96-2.67,3.36-5.22,4.3-6.63,4.59v-.12c3.46-1.53,7.12-6.12,7.95-8.91-.57.08-3.06.54-3.87.86-.14.06-.69.36-.81.36-.23,0-1.05-.73-1.05-1.51,0-.3.06-.5.13-.64.57.9.83.91,1.12.91.42,0,3.67-.31,4.29-.67.11-.06.57-.42.69-.42.16,0,1.27.95,1.27,1.2,0,.17-.1.2-.58.38-.11.04-.12.08-.31.43-.66,1.28-1.04,2.01-2,3.3,1.8.79,4.29,2.58,4.29,3.99,0,.41-.17.71-.53.71Z"/>
      <path class="cls-2" d="m52,64.87c-.34.15-.48.29-.81.93-1.44,2.81-3.02,4.68-5.31,6.11-.79.49-1.81,1.02-2.94,1.27l-.03-.1c3.27-1.82,6.3-5.13,7.68-8.62-.62.06-1.64.21-2.25.3-.11.02-.4.06-.48.06-.15,0-.42-.06-.77-.25-1.39,1.84-2.49,2.7-3.97,3.48l-.08-.12c2.46-2.25,3.92-4.95,3.92-5.43,0-.15-.03-.27-.83-.75.36-.12.69-.12.74-.12.6,0,1.69.69,1.69,1.08,0,.13-.06.21-.35.48-.15.14-.54.65-.73.89.67.07,2.55-.14,2.94-.27.13-.04.65-.45.8-.45.16,0,1.25.9,1.25,1.19,0,.1-.05.15-.47.34Z"/>
      <path class="cls-2" d="m57,74.35l-.07-.09c3.15-2.14,3.57-5.34,3.57-6.6,0-.97-.29-2.64-1.53-2.64-.84,0-1.81.76-2.45,1.56-.61.76-.79.99-1.11.99-.59,0-1.51-.56-1.51-1.61,0-.15.03-.25.06-.4.3.36.53.61.93.61.19,0,.29,0,1.25-.55,1.32-.76,1.99-1.08,2.94-1.08,2.23,0,2.59,2.15,2.59,3.24,0,2.97-1.9,5.52-4.67,6.57Zm2.94-11.49c-.17,0-.93-.12-1.09-.12-.52,0-1.12.25-1.58.45l-.04-.04c.81-.78.84-.81.84-.96,0-.09-.07-.15-.24-.23-.9-.42-1.26-.57-1.74-1.21-.3-.39-.3-.57-.3-.78.69.64,1.21.79,3,1.26,1.05.29,1.63.76,1.63,1.23,0,.34-.24.41-.48.41Z"/>
      <path class="cls-2" d="m69.8,72.55l-.02-.12c3.21-1.14,4.71-3.25,4.71-5.53,0-2.54-2.04-4.04-4.65-4.04-.38,0-.45.01-.61.09.81.44,1.03.99,1.03,1.2,0,.17-.04.27-.51,1.25-.96,2.05-2.37,5.07-3.39,5.91-.11.08-.28.17-.48.17-.34,0-.48-.19-.93-.83-.11-.15-.71-.7-.81-.84-.17-.24-.42-.78-.42-1.53,0-3.23,2.73-5.88,6.39-5.88,2.91,0,5.55,1.69,5.55,4.71s-2.43,5.14-5.86,5.44Zm-1.19-9.51c-1.65.27-3.94,2.4-3.94,5.16,0,1.02.58,2.14,1.17,2.14.4,0,.99-1.06,1.25-1.57,1.5-3.02,1.99-3.99,1.99-4.77,0-.38-.18-.69-.46-.96Z"/>
      <path class="cls-2" d="m84.95,70.75c-.15,0-.22-.05-.86-.51-.67-.48-2.8-.98-4.2-.98-.58,0-2.08.12-2.08,1.54,0,1.56,2.19,1.7,3.19,1.7.29,0,1.52-.11,1.77-.11.39,0,.96.17.96.6,0,.55-.58.55-1.41.55-1.14,0-5.16,0-5.16-2.58,0-2.02,2.07-2.17,3.23-2.17s2.28.13,3.39.38c.05.02.08.02.1.02.08,0,.14,0,.14-.09s-.06-.19-.15-.33c-.04-.08-.47-.69-1.54-2.24-1.56.53-2.97.69-3.42.69-.87,0-1.6-.54-1.88-1.2.54.24,1.02.45,1.8.45.62,0,1.85-.17,3.05-.63-.54-.91-.81-1.51-.94-1.8-.27.09-1.44.44-2.04.44-.52,0-1.36-.33-1.68-1.02.51.21.76.32,1.36.32.72,0,1.44-.18,2.05-.41-.1-.22-.51-1.26-.61-1.46-.29-.51-.94-.61-1.56-.57.17-.33.38-.74,1.25-.74.31,0,1.26.12,1.33.63.02.15.06.88.09,1.02.06.31.14.59.21.81.2-.08.6-.29.98-.54.54-.36.6-.41.85-.41.33,0,.61.2.61.42,0,.17-.07.3-.38.47-.69.39-1.17.6-1.78.81.34.79.61,1.27.91,1.75.31-.15.72-.34,1.32-.72.45-.27.51-.32.77-.32.39,0,.69.21.69.44,0,.21-.23.36-.42.46-.18.09-.93.48-1.88.84.61.87,1.3,1.68,2.01,2.46.46.51.48.67.48.9,0,.33-.16,1.11-.56,1.11Z"/>
      <path class="cls-2" d="m90.17,64.05c.08.04.18.12.18.2,0,.2-.15.29-.36.43,0,2.7,0,5.4.01,8.08,0,.54,0,1.17-.78,1.17-.39,0-.46-.2-.46-.41,0-.22.13-1.89.15-2.25.09-1.98.09-3.6.1-6.45-.21.33-1.44,2.16-2.37,2.8l-.09-.08c1.54-2.01,3.15-6.28,3.15-7.06,0-.09-.02-.2-.03-.3l1.41.76c.11.06.21.15.21.29,0,.2-.18.25-.57.39-.19.48-.4,1.02-1.05,2.12l.49.3Zm2.29,3.98c-.25,0-1.02,0-1.75.13l-.3-.6c.76.06,1.53.11,2.31.11h2.05c-.02-.78-.03-1.83-.19-2.31l1.39.3c.08.01.2.06.2.18,0,.13-.1.21-.41.46,0,.41-.01.77-.01,1.37h2.62l.6-.69c.15-.18.16-.19.24-.19.06,0,.07.01.28.17l.95.69c.06.03.15.12.15.23,0,.13-.12.17-.23.17h-4.41c.66,1.41,2.65,3.19,4.86,3.76v.09c-.54.21-1.01.58-1.34,1.06-2.29-1.56-3.36-3.99-3.72-4.92h-.01c0,.91.04,2.34.06,2.76.01.38.1,2.07.1,2.42,0,.25,0,.78-.79.78-.35,0-.47-.18-.47-.5,0-.01.1-2.35.1-2.62.02-.8.03-1.35.03-2.05-1.62,2.52-3.65,3.57-4.63,4.05l-.02-.1c1.57-1.3,2.82-2.75,3.99-4.72h-1.66Zm4.98-6.84l.31-.35c.06-.06.11-.13.23-.13.09,0,.21.08.28.13l.6.45c.09.08.2.18.2.27,0,.15-.14.27-.51.45-.02,1.01.02,1.68.02,1.86.02.21.07,1.23.07,1.33,0,.39-.18.69-.73.69-.38,0-.36-.35-.34-.69h-4.23c0,.45-.21.83-.69.83-.33,0-.42-.24-.42-.48,0-.12.1-2.5.1-2.98,0-1.42-.08-1.75-.14-2.12l1.27.74h3.98Zm-4.14.36v3.3h4.26v-3.3h-4.26Z"/>
      <path class="cls-2" d="m112.61,62.38l.64-.81c.09-.1.15-.21.25-.21.09,0,.21.11.29.17l.84.81c.07.06.17.15.17.24,0,.13-.12.17-.23.17h-6.6c-.6.57-1.34,1.23-2.13,1.86,1.81-.09,3.42-.17,5.47-.36-.65-.54-.99-.67-1.34-.81l.06-.12c2.23.34,4.09,1.23,4.09,2.21,0,.4-.31.66-.61.66s-.45-.15-.92-.67c-.57-.66-.86-.9-1.02-1.04-.31.06-3.63.74-8.52,1.32-.11.21-.2.39-.36.39-.13,0-.21-.13-.25-.27l-.54-1.45c.83.21,1.29.22,1.74.22.09,0,.55,0,1.77-.06.42-.74.67-1.29.93-1.88h-2.74c-.26,0-1.04,0-1.76.13l-.3-.6c1.02.08,2.08.1,2.29.1h3.78c0-.59,0-1.39-.33-2.14l1.56.36c.14.03.27.07.27.22,0,.09-.29.36-.42.5v1.06h3.9Zm-1.62,3.75c.12-.13.2-.19.29-.19.07,0,.15.04.21.09l.6.42c.07.06.18.18.18.25,0,.06-.07.15-.13.21-.12.1-.15.13-.25.24,0,.82.1,4.62.1,5.28,0,1.37-1.59,1.63-1.8,1.67-.03-.27-.12-.88-1.27-1.39v-.12c.63.05,1.27.06,1.34.06.56,0,.63,0,.63-.27v-1.59h-5.26c.02.4.08,2.25.08,2.53,0,.5-.33.78-.78.78-.42,0-.42-.27-.42-.48,0-.24.08-1.31.08-1.53.03-1.23.04-2.94.04-4.14,0-1.09-.04-1.31-.19-2.08l1.39.64h4.88l.31-.38Zm-.12.74h-5.26v1.54h5.26v-1.54Zm0,1.91h-5.26v1.65h5.26v-1.65Z"/>
      <path class="cls-2" d="m127.34,61.35l.44-.36c.09-.08.18-.13.27-.13.06,0,.16.06.21.1l.65.56c.07.06.16.15.16.24,0,.18-.16.29-.49.51-.02.82-.03,2.55,0,5.25,0,.87.06,4.71.06,5.49,0,.5-.35.81-.74.81-.46,0-.43-.34-.4-.87h-9.31c.01.18,0,.42-.02.5-.04.33-.48.51-.75.51-.31,0-.39-.21-.39-.47,0-.19.08-1.09.08-1.27.04-1,.06-1.74.06-7.14,0-2.75-.03-3.5-.15-4.33l1.29.62h9.04Zm-9.16.36v10.88h9.31v-10.88h-9.31Zm7.75,7.29s.09.1.09.18c0,.2-.17.23-.29.23-.06,0-.15,0-.27-.02-.48.2-.63.24-1.14.41.63.22,1.97.72,1.97,1.5,0,.27-.2.5-.47.5-.18,0-.25-.04-.84-.69-.51-.55-1.17-1.09-1.81-1.46,0,.29.04,1.68.04,1.83,0,.45-.42.67-.69.67-.24,0-.33-.21-.33-.45,0-.45.06-2.42.06-2.82-.48.57-1.83,1.84-3.76,2.46l-.06-.09c1.3-.87,2.58-1.98,3.42-3.17h-.89c0,.41-.33.57-.6.57-.39,0-.39-.27-.39-.44,0-.08.06-1.3.06-1.54,0-.46-.02-.78-.1-1.18l1.12.45h3.4l.27-.25c.07-.08.15-.15.21-.15s.15.06.21.12l.52.46c.08.06.12.13.12.21,0,.06-.09.15-.35.38,0,.2.03,1.05.03,1.21,0,.32-.12.41-.24.5l.69.59Zm-1.44-5.68l.31-.45c.08-.12.15-.18.23-.18.06,0,.15.05.29.15l.52.45c.08.06.16.13.16.22,0,.14-.14.16-.24.16h-2.58v1.11h2.07l.44-.51c.09-.11.15-.18.24-.18s.18.06.29.15l.6.51c.09.08.15.13.15.23,0,.15-.14.16-.23.16h-6.21c-.15,0-1.08,0-1.77.13l-.3-.6c.77.08,1.54.11,2.31.11h1.47v-1.11h-1.02c-.26,0-1.05,0-1.77.14l-.3-.6c.93.08,2.02.11,2.31.11h.78c-.03-.54-.18-1.04-.27-1.33l1.39.36c.09.03.2.06.2.18,0,.17-.15.25-.38.39v.41h1.3Zm.02,4.41v-1.42h-3.54v1.42h3.54Zm-1.33.36c-.02.64-.02,1.05-.02,1.41.21.03.41.06.85.19.3-.25.86-.87,1.07-1.21-.34.09-.57-.07-.57-.39h-1.33Z"/>
      <path class="cls-2" d="m132.8,73.95v-13.53h3.78v.65h-3.15v12.24h3.15v.65h-3.78Z"/>
      <path class="cls-2" d="m145.25,65.29h-2.96c0,.13,0,.9.02,1.54,1.11.3,2.44,1.2,2.44,2.03,0,.31-.21.69-.58.69-.4,0-.57-.34-.84-.96-.45-.99-.83-1.3-1.02-1.47,0,.96.06,5.17.06,6.03,0,.69-.39.86-.69.86-.47,0-.47-.39-.47-.55,0-.74.14-3.96.15-4.62.01-.57.01-.93.01-1.26-.7,1.27-1.95,3-3.49,4.12l-.09-.09c1.69-2.02,3.13-5.19,3.51-6.31h-1.06c-.38,0-1.1,0-1.77.13l-.3-.6c1.03.09,2.1.11,2.31.11h.89v-2.49c-1.35.24-2.37.22-2.9.22v-.13c1.63-.32,4.44-1.21,5.22-2.05l1,1.05c.06.06.09.13.09.2,0,.12-.06.15-.23.15-.04,0-.41-.08-.48-.09-.33.09-.77.22-1.79.46v2.69h1.21l.53-.68c.09-.12.15-.18.22-.18s.18.06.29.15l.78.67c.1.09.15.13.15.22,0,.13-.12.16-.23.16Zm5.4,7.98c-.5,0-.65-.52-.72-.85-.09-.41-.23-1.02-.27-1.2-1.51.55-4.24,1.16-5.26,1.38-.04.04-.15.29-.19.33-.03.03-.09.08-.18.08s-.18-.05-.29-.29l-.57-1.33c.25.03.48.08.91.08.18,0,.3,0,.76-.03,1.06-3.42,2.36-8.76,2.22-10.45l1.69.66c.08.03.21.11.21.24,0,.15-.06.18-.66.46-.85,3.3-1.42,5.17-3.03,9.08,1.34-.09,3-.21,4.31-.45-.27-.83-.91-2.04-1.71-3.06l.06-.08c1.85,1.08,3.41,3.31,3.41,4.6,0,.74-.51.84-.69.84Z"/>
      <path class="cls-2" d="m163.55,72.58l.78-.84c.08-.08.15-.2.24-.2.1,0,.18.08.28.17l1.04.84c.08.06.15.13.15.22,0,.14-.12.17-.23.17h-11.14c-.13,0-1.06,0-1.77.14l-.29-.6c.99.09,2.01.11,2.29.11h4.51c.35-.84,2.15-6.22,2.06-8.14l1.68.82c.06.03.14.12.14.21,0,.16-.06.18-.6.41-.21.53-1.15,2.95-1.31,3.32-.34.85-.91,2.2-1.63,3.39h3.8Zm-.87-9.18l.63-.84c.1-.13.17-.2.23-.2.09,0,.18.09.29.16l1.05.86c.09.07.14.13.14.21,0,.13-.1.16-.23.16h-9.18c-.13,0-1.06,0-1.77.13l-.28-.58c1.03.08,2.16.09,2.29.09h2.91c0-1.82-.18-2.29-.39-2.88l1.8.45c.07.01.18.04.18.15,0,.15-.34.42-.54.58-.03.27-.03,1.46-.03,1.7h2.91Zm-7.17,1.39c1.69,1.63,2.57,4.07,2.57,5.61,0,.6-.35.96-.72.96-.6,0-.65-.69-.67-1.07-.1-1.59-.24-3.27-1.23-5.46l.06-.04Z"/>
      <path class="cls-2" d="m167.31,73.95v-.65h3.15v-12.24h-3.15v-.65h3.78v13.53h-3.78Z"/>
      <path class="cls-1" d="m13.32,97.18c0,3.67-2.99,6.66-6.66,6.66s-6.66-2.97-6.66-6.66,3.02-6.66,6.66-6.66,6.66,2.96,6.66,6.66Z"/>
      <path class="cls-2" d="m19.05,103.14c3.23-1.8,6.28-5.08,7.68-8.62-.6.06-1.62.23-2.25.3-.07.01-.4.06-.48.06-.25,0-.6-.17-.76-.25-.96,1.21-1.86,2.37-3.98,3.48l-.07-.12c2.46-2.25,3.91-4.93,3.91-5.43,0-.15-.03-.27-.82-.75.36-.12.69-.12.73-.12.6,0,1.69.69,1.69,1.08,0,.16-.06.21-.34.48-.21.2-.3.31-.74.88.66.08,2.55-.13,2.94-.27.14-.05.66-.45.79-.45s1.25.88,1.25,1.18c0,.12-.04.15-.46.35-.35.16-.48.28-.81.93-1.33,2.58-2.59,4-3.85,5.05-.61.51-2.37,1.88-4.39,2.33l-.03-.11Zm10.56-9.84c0,.21-.11.44-.39.44-.18,0-.29-.08-.48-.3-.54-.63-.9-1.08-1.74-1.65,1.37.12,2.61.71,2.61,1.51Zm1.44-.71c0,.39-.25.39-.36.39-.16,0-.19-.03-.84-.65-.12-.12-.72-.7-1.53-1.06,1.16.03,2.73.3,2.73,1.32Z"/>
      <path class="cls-2" d="m41.47,94.44c-.34.24-.36.25-.59,1.42-.22,1.2-.51,2.76-.7,3.57-.02.04-.03.12-.03.17,0,.11.03.14.29.32.36.25.46.34.46.55,0,.36-.34.36-.4.36-.08,0-.18-.02-.29-.03-.72-.09-1.02-.13-2.67-.13-1.81,0-2.92.1-3.46.17,0,.29-.03.84-.4.84-.53,0-.78-1.05-.78-1.46,0-.1.06-.57.06-.66,0-.39-.12-4.14-.45-5.35-.15-.53-.41-.67-1.02-.9.18-.1.44-.25.76-.25.39,0,.62.12,1.33.56.2.12.35.12.48.12.16,0,.91-.07,1.06-.09.71-.05,3.78-.22,4.4-.33.48-.07.57-.16.78-.34.09-.09.15-.1.2-.1.18,0,1.32.97,1.32,1.21,0,.12-.09.21-.35.38Zm-1.86-.41c-.44,0-2.36.1-4.12.29-.15.01-.89.12-1.06.12-.11,0-.58-.18-.7-.18-.05,0-.06.02-.06.14,0,.28.33,5.65.33,5.68.48,0,4.66-.23,5.28-.27.06-.5.63-4.57.63-5.44,0-.17-.06-.33-.29-.33Z"/>
      <path class="cls-2" d="m54.16,97.69c-.14,0-.5-.03-.52-.03-.54-.04-.69-.06-1.7-.06-4.57,0-5.92.09-6.6.27-.05.01-.52.13-.57.13-.39,0-1.2-.96-1.2-1.65,0-.09.02-.38.18-.72.51,1.14.98,1.14,2.53,1.14,1.04,0,5.91-.02,6.6-.18.09-.01.52-.13.61-.13s1.59.17,1.59.75c0,.46-.75.48-.93.48Z"/>
      <path class="cls-2" d="m61.49,95.4c-.26.31-1.12,1.84-1.32,2.14-.9,1.42-1.98,2.66-4.15,3.78l-.03-.14c2.82-2.49,4.21-5.61,4.21-6.25,0-.38-.14-.72-.94-1.08.17-.06.46-.14.76-.14.71,0,1.79.98,1.79,1.23,0,.08-.17.29-.31.45Zm6.63,5.11c-.43,0-.52-.33-.91-1.56-.62-2-2.25-4.08-3.24-5.03,1.91.57,4.71,3.53,4.71,5.76,0,.41-.23.83-.56.83Zm-.4-5.95c-.21,0-.27-.08-.79-.69-.06-.08-.62-.74-1.41-1.2.95-.01,2.55.51,2.55,1.44,0,.3-.18.45-.35.45Zm1.25-1.37c-.18,0-.23-.04-.63-.48-.13-.15-.81-.75-1.66-1.17.96-.06,2.65.36,2.65,1.23,0,.29-.19.42-.36.42Z"/>
      <path class="cls-2" d="m74.1,94.63c-.03.35-.15,1.89-.18,2.2-.39,3.22-2.33,4.93-3.6,5.46l-.08-.09c2.77-2.61,2.77-5.85,2.77-7.11s-.01-1.24-1.15-1.54c.24-.16.57-.39.99-.39.39,0,1.41.33,1.41.75,0,.12-.15.62-.17.72Zm3.65,6.2c-.51.36-.56.42-.94.84-.08.08-.21.22-.3.22-.28,0-.96-1.23-.96-1.42,0-.1.18-.55.2-.66.13-.63.13-2.58.13-2.98,0-.55-.02-3.33-.09-3.69-.06-.27-.36-.46-1.08-.7.19-.12.5-.32.84-.32.45,0,1.62.45,1.62.9,0,.13-.18.73-.21.85-.15.76-.23,4.96-.23,5.88,0,.06,0,.25.1.25.36,0,3.07-1.72,5.43-4.72l.12.09c-1.02,2.46-3.18,4.42-4.63,5.46Z"/>
      <path class="cls-2" d="m93.53,97.42c-1.1,0-1.79,0-3.98.41.15.7.99,4.6.99,4.84,0,.46-.29.66-.48.66-.36,0-.81-.67-.84-1.53-.03-.63-.06-1.3-.51-3.81-1.92.39-3.04.78-3.23.85-.81.38-.82.38-.94.38-.27,0-1.47-.6-1.47-1.56,0-.12.03-.21.05-.34.34.5.91.78,1.38.78.39,0,3.45-.64,4.09-.75-.04-.24-.33-1.71-.51-2.56-1.04.24-1.74.5-2.23.71-.27.12-.3.13-.38.13-.1,0-.54-.09-1.06-.76-.26-.33-.26-.58-.24-.88.57.54,1.17.57,1.47.57.49,0,2.11-.33,2.32-.38-.46-2.29-.48-2.41-1.79-2.65.42-.3.65-.44.98-.44.03,0,1.62.11,1.62.69,0,.1-.1.54-.1.64,0,.21.06.83.18,1.58.3-.08,1.65-.34,1.91-.44.12-.04.63-.28.75-.28.11,0,.88.12,1.08.3.08.08.14.18.14.31,0,.2-.15.41-.57.41-1.08,0-2.15.12-3.2.32.21,1.3.3,1.84.47,2.58.27-.05,2.28-.46,2.35-.49.18-.08.73-.3.93-.35.09-.01.17-.03.27-.03.52,0,1.19.19,1.36.33.09.08.15.21.15.36,0,.42-.24.42-.96.42Z"/>
      <path class="cls-2" d="m97.07,97.8c-.33,0-.48-.34-.65-.72-.19-.42-.6-1.09-1.09-1.62.99.15,2.17.96,2.17,1.79,0,.3-.15.55-.43.55Zm6.18-1.51c-.09.1-.7,1.42-.84,1.68-2.16,4.07-4.83,4.77-5.88,5.05l-.03-.15c4.5-2.1,5.79-6.9,5.79-7.11,0-.36-.6-.71-.79-.81.2-.04.39-.11.66-.11.65,0,1.41.79,1.41.98,0,.1-.03.15-.31.46Zm-3.6.87c-.31,0-.36-.14-.62-.83-.19-.55-.55-1.09-.9-1.55,1.02.3,1.96,1.14,1.96,1.79,0,.31-.17.58-.45.58Z"/>
      <path class="cls-2" d="m114.95,102.33c-.33,0-.39-.11-.98-1.12-.06-.09-1.03-1.77-3.04-3.32-1.77,2.13-3.99,3.93-6.7,4.47v-.09c3.88-1.71,7.27-6.13,8.04-8.73-.9.15-3.55.55-4.18.95-.26.17-.35.21-.45.21-.21,0-1.05-.83-1.05-1.42,0-.38.06-.53.15-.72.46.81.69.92,1.08.92.63,0,3.76-.38,4.21-.57.12-.04.63-.46.75-.46.19,0,1.29.96,1.29,1.17,0,.15-.06.18-.55.4-.14.06-.19.15-.27.3-.87,1.64-1.12,2.12-2.11,3.36,1.32.62,4.26,2.31,4.26,3.94,0,.5-.24.72-.43.72Zm.02-9.33c-.18,0-.26-.08-.75-.71-.12-.15-.62-.76-1.53-1.21.38-.01.83-.01,1.85.44.36.17.76.38.76.99,0,.48-.27.5-.33.5Zm1.53-.84c-.18,0-.25-.08-.9-.75-.44-.45-.95-.83-1.5-1.09.48-.02,2.7.15,2.7,1.42,0,.38-.23.42-.3.42Z"/>
      <path class="cls-2" d="m123.81,98.76c0,1.72-.32,2.83-1.56,2.91-.14-.57-.42-.78-.83-1.09l.04-.09c.24.05.63.08.89.08.24,0,.39,0,.46-.63.09-.69.09-.76.08-1.46h-1.67c.02.65.08,3.74.08,4.44,0,.08-.02.46-.02.55,0,.53-.46.62-.63.62-.26,0-.39-.15-.39-.42,0-.06.02-.16.02-.24.01-.18.01-1.66.01-2.07,0-.38.02-1.06.03-1.47-.38.57-1.92,2.45-3.42,3.15l-.06-.09c1.25-1.27,2.59-2.86,3.33-4.47h-1.43c-.03.23-.16.98-.22,1.08-.09.15-.33.29-.56.29-.24,0-.4-.15-.4-.33,0-.05.39-1.72.43-1.92.32-1.54.33-1.95.35-2.47l1,.75h1v-1.94h-.81c-.1,0-1.06,0-1.75.14l-.3-.58c.73.06,1.56.09,2.3.09h1.48c.17-.27.98-1.96.96-3.03l1.2.56c.15.07.22.13.22.24,0,.2-.27.3-.52.33-.51.65-1.33,1.68-1.56,1.91h.98l.31-.32c.09-.09.15-.13.21-.13s.14.04.24.12l.46.33c.1.08.17.17.17.24,0,.12-.06.22-.4.4.01.17.01.25.03,1,0,.17.04.98.04,1.1,0,.49-.51.55-.67.55-.33,0-.33-.12-.32-.65h-1.39v1.89h1.5l.38-.44c.09-.1.17-.13.23-.13.09,0,.16.03.27.13l.4.36c.11.09.18.2.18.27,0,.11-.09.21-.38.45Zm-4.16-5.59c-.34,0-.49-.3-.6-.69-.2-.8-.27-1.05-.78-1.73l.06-.09c.63.24,1.88.96,1.88,1.88,0,.46-.33.63-.56.63Zm-.46,3.06c-.13.51-.19.9-.38,1.89h1.53v-1.89s-1.16,0-1.16,0Zm3.43-2.29h-1.38c-.02.29-.02,1.64-.02,1.94h1.39v-1.94Zm1.34,9.15c-.31,0-.5-.21-.5-.53,0-.17.03-.22.3-.75.12-.22.29-.73.29-1.18l.08-.02c.13.2.52.84.52,1.54,0,.42-.24.93-.69.93Zm6.66-5.16h-5.19v1.39h3.6l.34-.4c.09-.12.17-.18.24-.18.06,0,.15.05.27.14l.52.38c.12.07.19.17.19.27,0,.16-.18.29-.45.42-.38,3.24-1.14,4.17-2.88,4.17-.14-.76-.53-1.17-.74-1.38l.02-.09c.67.22,1.19.25,1.41.25.19,0,.4-.05.63-.48.39-.73.51-2.05.57-2.73h-3.73c0,.39-.3.57-.65.57-.03,0-.38,0-.38-.29,0-.11.04-.51.04-.58.03-2.17.05-4.35.05-6.54,0-.5,0-.58-.08-1.48l1.17.73h.35c.4-1.04.38-1.42.34-1.88l1.11.51c.17.07.24.16.24.24,0,.15-.09.25-.44.24-.19.2-.58.58-.93.88h2.12l.36-.39c.09-.09.15-.15.23-.15.06,0,.13.04.24.12l.54.39c.09.07.14.13.14.22,0,.2-.27.38-.48.48.01.26,0,.41.04,1.77,0,.24.09,1.44.09,1.51,0,.51-.51.57-.66.57-.39,0-.4-.27-.4-.54h-3.04v1.48h3.5l.48-.6c.1-.13.17-.2.24-.2.06,0,.15.06.29.17l.78.6c.09.08.15.17.15.24,0,.11-.09.15-.24.15Zm-4.98,4.81c-.34,0-.46-.25-.46-.57,0-.13.08-.75.08-.88,0-.32-.03-.44-.09-.62l.08-.02c.88.56.94,1.35.94,1.47,0,.1-.04.61-.54.61Zm2.83-10.29h-3.04v1.47h3.04v-1.47Zm0,1.83h-3.04v1.44h3.04v-1.44Zm-1.63,7.84c-.3,0-.39-.21-.39-.45,0-.67,0-.99-.16-1.41l.08-.05c.51.36.97.83.97,1.37,0,.33-.22.54-.49.54Zm1.27-.56c-.35,0-.39-.25-.44-.46-.15-.69-.17-.76-.38-1.06l.04-.08c.73.2,1.17.71,1.17,1.14,0,.16-.09.46-.4.46Z"/>
      <path class="cls-2" d="m138.35,102.55l-.02-.12c3.21-1.14,4.71-3.25,4.71-5.53,0-2.54-2.04-4.04-4.65-4.04-.38,0-.45.01-.61.09.81.44,1.03.99,1.03,1.2,0,.17-.04.27-.51,1.25-.96,2.05-2.37,5.07-3.39,5.91-.1.08-.28.17-.48.17-.34,0-.48-.19-.93-.83-.1-.15-.71-.7-.81-.84-.17-.24-.42-.78-.42-1.53,0-3.23,2.73-5.88,6.39-5.88,2.91,0,5.55,1.69,5.55,4.71s-2.43,5.14-5.86,5.44Zm-1.18-9.51c-1.65.27-3.94,2.4-3.94,5.16,0,1.02.58,2.14,1.17,2.14.41,0,.99-1.06,1.25-1.57,1.5-3.02,1.99-3.99,1.99-4.77,0-.38-.18-.69-.46-.96Z"/>
      <path class="cls-2" d="m152.9,94.56c.57,1.36,1.88,3.16,2.97,4.08.73.63,2.44,1.7,3.72,1.92v.11c-1.03.19-1.34.55-1.78,1.11-3.9-2.23-5.08-6.99-5.1-7.02,0,.84-.01,1.95,0,3.58,0,.78.18,4.8.18,4.88,0,.78-.63.8-.79.8-.57,0-.57-.3-.57-.51,0-.29.09-1.62.1-1.94.03-.93.05-1.42.09-5.82-.33.67-.85,1.68-2.02,3.03-1.38,1.59-2.4,2.26-4.07,3.15l-.03-.08c1.63-1.44,4.2-4.11,5.61-7.29h-3.31c-.41,0-1.11.01-1.77.13l-.3-.6c.76.06,1.54.11,2.31.11h3.59c-.04-2.58-.15-3.13-.38-3.95l1.71.44c.08.01.19.04.19.18,0,.18-.17.29-.51.48,0,.4-.02,2.4-.02,2.85h3.81l.69-.83c.06-.06.15-.18.24-.18s.21.1.29.17l.9.81c.08.06.15.12.15.23,0,.15-.15.17-.24.17h-5.65Z"/>
      <path class="cls-2" d="m171.36,91.35l.44-.36c.09-.08.18-.13.27-.13.06,0,.16.06.21.1l.65.56c.07.06.16.15.16.24,0,.18-.16.29-.49.51-.02.82-.03,2.55,0,5.25,0,.87.06,4.71.06,5.49,0,.5-.35.81-.74.81-.46,0-.43-.34-.4-.87h-9.31c.01.18,0,.42-.02.5-.04.33-.48.51-.75.51-.31,0-.39-.21-.39-.47,0-.19.08-1.09.08-1.27.04-1,.06-1.74.06-7.14,0-2.75-.03-3.5-.15-4.33l1.29.62h9.04Zm-9.16.36v10.88h9.31v-10.88h-9.31Zm7.75,7.29s.09.1.09.18c0,.2-.17.23-.29.23-.06,0-.15,0-.27-.02-.48.2-.63.24-1.14.41.63.22,1.97.72,1.97,1.5,0,.27-.2.5-.47.5-.18,0-.25-.04-.84-.69-.51-.55-1.17-1.09-1.81-1.46,0,.29.04,1.68.04,1.83,0,.45-.42.67-.69.67-.24,0-.33-.21-.33-.45,0-.45.06-2.42.06-2.82-.48.57-1.83,1.84-3.76,2.46l-.06-.09c1.3-.87,2.58-1.98,3.42-3.17h-.89c0,.41-.33.57-.6.57-.39,0-.39-.27-.39-.44,0-.08.06-1.3.06-1.54,0-.46-.02-.78-.11-1.18l1.12.45h3.4l.27-.25c.07-.08.15-.15.21-.15s.15.06.21.12l.52.46c.08.06.12.13.12.21,0,.06-.09.15-.35.38,0,.2.03,1.05.03,1.21,0,.32-.12.41-.24.5l.69.59Zm-1.44-5.68l.31-.45c.08-.12.15-.18.23-.18.06,0,.15.05.29.15l.52.45c.08.06.16.13.16.22,0,.14-.14.16-.24.16h-2.58v1.11h2.07l.44-.51c.09-.11.15-.18.24-.18s.18.06.29.15l.6.51c.09.08.15.13.15.23,0,.15-.14.16-.23.16h-6.21c-.15,0-1.08,0-1.77.13l-.3-.6c.77.08,1.54.11,2.31.11h1.47v-1.11h-1.02c-.26,0-1.05,0-1.77.14l-.3-.6c.93.08,2.02.11,2.31.11h.78c-.03-.54-.18-1.04-.27-1.33l1.39.36c.09.03.2.06.2.18,0,.17-.15.25-.38.39v.41h1.3Zm.02,4.41v-1.42h-3.54v1.42h3.54Zm-1.33.36c-.02.64-.02,1.05-.02,1.41.21.03.41.06.85.19.3-.25.85-.87,1.06-1.21-.34.09-.57-.07-.57-.39h-1.33Z"/>
      <path class="cls-2" d="m176.82,103.95v-13.53h3.78v.65h-3.15v12.24h3.15v.65h-3.78Z"/>
      <path class="cls-2" d="m189.27,95.29h-2.96c0,.13,0,.9.02,1.54,1.11.3,2.44,1.2,2.44,2.03,0,.31-.21.69-.58.69-.4,0-.57-.34-.84-.96-.45-.99-.83-1.3-1.02-1.47,0,.96.06,5.17.06,6.03,0,.69-.39.86-.69.86-.47,0-.47-.39-.47-.55,0-.74.14-3.96.15-4.62.01-.57.01-.93.01-1.26-.7,1.27-1.95,3-3.49,4.12l-.09-.09c1.69-2.02,3.13-5.19,3.51-6.31h-1.06c-.38,0-1.1,0-1.77.13l-.3-.6c1.03.09,2.1.11,2.31.11h.89v-2.49c-1.35.24-2.37.22-2.89.22v-.13c1.63-.32,4.44-1.21,5.22-2.05l1,1.05c.06.06.09.13.09.2,0,.12-.06.15-.23.15-.04,0-.41-.08-.48-.09-.33.09-.77.22-1.79.46v2.69h1.21l.53-.68c.09-.12.15-.18.22-.18s.18.06.29.15l.78.67c.1.09.15.13.15.22,0,.13-.12.16-.23.16Zm5.4,7.98c-.5,0-.65-.52-.72-.85-.09-.41-.23-1.02-.27-1.2-1.51.55-4.24,1.16-5.26,1.38-.05.04-.15.29-.19.33-.03.03-.09.08-.18.08s-.18-.05-.29-.29l-.57-1.33c.25.03.48.08.91.08.18,0,.3,0,.76-.03,1.06-3.42,2.35-8.76,2.22-10.45l1.69.66c.08.03.21.11.21.24,0,.15-.06.18-.66.46-.85,3.3-1.42,5.17-3.03,9.08,1.33-.09,3-.21,4.31-.45-.27-.83-.91-2.04-1.71-3.06l.06-.08c1.85,1.08,3.41,3.31,3.41,4.6,0,.74-.51.84-.69.84Z"/>
      <path class="cls-2" d="m207.57,102.58l.78-.84c.08-.08.15-.2.24-.2.11,0,.18.08.28.17l1.04.84c.08.06.15.13.15.22,0,.14-.12.17-.23.17h-11.14c-.13,0-1.07,0-1.77.14l-.29-.6c.99.09,2.01.11,2.29.11h4.51c.35-.84,2.14-6.22,2.06-8.14l1.68.82c.06.03.14.12.14.21,0,.16-.06.18-.6.41-.21.53-1.15,2.95-1.31,3.32-.34.85-.91,2.2-1.63,3.39h3.8Zm-.87-9.18l.63-.84c.11-.13.17-.2.23-.2.09,0,.18.09.29.16l1.05.86c.09.07.14.13.14.21,0,.13-.1.16-.23.16h-9.18c-.13,0-1.06,0-1.77.13l-.28-.58c1.03.08,2.16.09,2.29.09h2.91c0-1.82-.18-2.29-.39-2.88l1.8.45c.07.01.18.04.18.15,0,.15-.34.42-.54.58-.03.27-.03,1.46-.03,1.7h2.91Zm-7.17,1.39c1.69,1.63,2.56,4.07,2.56,5.61,0,.6-.35.96-.72.96-.6,0-.64-.69-.67-1.07-.11-1.59-.24-3.27-1.23-5.46l.06-.04Z"/>
      <path class="cls-2" d="m211.34,103.95v-.65h3.15v-12.24h-3.15v-.65h3.78v13.53h-3.78Z"/>
      <path class="cls-1" d="m13.32,127.18c0,3.67-2.99,6.66-6.66,6.66s-6.66-2.97-6.66-6.66,3.02-6.66,6.66-6.66,6.66,2.96,6.66,6.66Z"/>
      <path class="cls-2" d="m19.74,131.02c-.09,0-.59,0-.59-.6,0-.46.19-.6.97-1.14.6-.42,1.12-.79,2.06-2.36-.14,1.85-1.42,4.09-2.44,4.09Zm10.38-5.2c-.23,0-1.23-.2-1.38-.21-.25-.03-1.17-.09-2.17-.09-.62,0-1,.01-1.27.03-.03,1.38-.05,3.29.03,4.67,0,.12.06,1.09.06,1.11,0,.18-.04,1.77-.78,1.77-.29,0-.38-.2-.72-1-.1-.24-.36-.46-1.52-1.3l.02-.08c1.34.3,1.52.34,1.79.34.19,0,.21-.09.22-.38.06-1,.08-1.42.05-5.05-.27.03-2.82.36-3.29.62-.3.17-.4.17-.48.17-.6,0-1.27-.98-1.27-1.58,0-.2.03-.39.08-.62.23.36.52.71.9.92.1.06.24.11.63.11.03,0,2.97-.21,3.42-.24-.02-2-.03-2.22-.14-2.55-.15-.42-.64-.55-1.27-.72.23-.15.57-.39.96-.39.58,0,1.77.56,1.77.96,0,.08-.18.5-.23.59-.15.38-.19,1.58-.21,2.04.42-.01,2.97-.22,3.17-.27.09-.02.46-.14.52-.14.23,0,1.42.32,1.42.96,0,.09-.01.35-.3.35Zm-.31,4.95c-.27,0-.35-.12-1.06-1.23-1.06-1.61-1.77-2.17-2.22-2.54.78.09,1.53.51,2.5,1.25.34.25,1.29.96,1.29,1.79,0,.46-.3.73-.51.73Zm-.02-6.94c-.79,0-1.42-.63-1.42-1.41s.63-1.42,1.42-1.42,1.41.63,1.41,1.42-.63,1.41-1.41,1.41Zm0-2.29c-.48,0-.87.39-.87.87s.39.87.87.87.87-.39.87-.87-.39-.87-.87-.87Z"/>
      <path class="cls-2" d="m41.19,131.67c-.72.29-2.97.3-3.82.3-2.8,0-3.3-.54-3.55-.84-.42-.5-.53-.83-.53-4.02,0-.57.03-3.53.02-3.66-.06-.46-.17-.78-1.19-1.18.21-.16.42-.35.74-.35.61,0,1.84.57,1.84,1.05,0,.11-.21.5-.24.57-.12.27-.27,2.8-.3,3.75,2.58-.86,5.1-2.8,5.1-3.16,0-.06-.09-.21-.14-.27-.06-.08-.35-.36-.42-.42.13-.03.23-.04.38-.04,1.05,0,1.78,1.15,1.78,1.45,0,.2-.03.21-.7.39-.15.04-.27.1-.43.19-2.62,1.4-3.9,1.89-5.58,2.19-.01.64-.04,2.4.24,2.86.3.47.94.59,2.37.59,1.05,0,1.98-.06,2.94-.38.2-.06.47-.14.68-.14.3,0,1.23.12,1.23.63,0,.27-.27.44-.41.48Zm.18-8.61c-.79,0-1.42-.65-1.42-1.43s.63-1.44,1.42-1.44,1.42.64,1.42,1.44-.64,1.43-1.42,1.43Zm0-2.29c-.48,0-.84.4-.84.87s.36.87.85.87.84-.4.84-.88-.38-.85-.86-.85Z"/>
      <path class="cls-2" d="m46.88,124.75c-.25,0-.43-.18-.91-.66-1.05-1.06-1.89-1.45-2.46-1.71,1.8-.12,3.93.53,3.93,1.77,0,.33-.25.6-.56.6Zm1.31,5.14c-.31.24-1.73,1.26-1.98,1.52-.07.08-.4.45-.48.52-.06.06-.18.09-.25.09-.52,0-1.52-1.26-1.52-1.97,0-.27.09-.49.15-.66.35.67.78.99,1.1.99.5,0,2.82-1.72,3.46-2.22,2.42-1.84,3.57-3.13,4.78-4.53l.08.04c-.36,1.09-2.04,3.67-5.34,6.21Z"/>
      <path class="cls-2" d="m64.43,132.33c-.33,0-.39-.11-.98-1.12-.06-.09-1.03-1.77-3.04-3.32-1.77,2.13-3.99,3.93-6.7,4.47v-.09c3.88-1.71,7.27-6.13,8.04-8.73-.9.15-3.55.55-4.18.95-.26.17-.35.21-.45.21-.21,0-1.05-.83-1.05-1.42,0-.38.06-.53.15-.72.46.81.69.92,1.08.92.63,0,3.76-.38,4.21-.57.12-.04.63-.46.75-.46.19,0,1.29.96,1.29,1.17,0,.15-.06.18-.55.4-.14.06-.2.15-.27.3-.87,1.64-1.12,2.12-2.11,3.36,1.32.62,4.26,2.31,4.26,3.94,0,.5-.24.72-.44.72Zm.02-9.33c-.18,0-.26-.08-.75-.71-.12-.15-.62-.76-1.53-1.21.38-.01.83-.01,1.85.44.36.17.76.38.76.99,0,.48-.27.5-.33.5Zm1.53-.84c-.18,0-.25-.08-.9-.75-.44-.45-.95-.83-1.5-1.09.48-.02,2.7.15,2.7,1.42,0,.38-.23.42-.3.42Z"/>
      <path class="cls-2" d="m77.91,126.13c-.12,0-1.32-.19-1.5-.22-.56-.09-.96-.09-1.38-.09-.79,0-1.27.03-1.64.06-.01.25-.07,2-.49,3.51-.36,1.35-1.62,3.55-4.11,4.25l-.03-.12c2.62-1.77,3.45-4.36,3.65-7.56-.9.09-2.94.38-3.54.74-.3.18-.33.21-.51.21-.35,0-1.48-.65-1.48-1.77,0-.18.01-.31.05-.46.51.78,1.02.96,1.53.96.24,0,.31,0,1.04-.08.46-.04,2.52-.24,2.94-.29.01-.63.05-2.2-.1-2.73-.11-.39-.48-.55-1.19-.75.4-.34.86-.39,1-.39.61,0,1.66.4,1.66.9,0,.12-.21.56-.25.65-.03.08-.11,1.06-.11,1.56,0,.39-.01.51-.01.69.27-.02,2.59-.14,2.62-.15.16-.03.82-.22.93-.22.06,0,1.5.19,1.5.85,0,.46-.38.46-.57.46Z"/>
      <path class="cls-2" d="m90.45,127.69c-.14,0-.5-.03-.52-.03-.54-.04-.69-.06-1.7-.06-4.57,0-5.92.09-6.6.27-.04.01-.52.13-.57.13-.39,0-1.2-.96-1.2-1.65,0-.09.02-.38.18-.72.51,1.14.98,1.14,2.53,1.14,1.04,0,5.91-.02,6.6-.18.09-.01.52-.13.61-.13s1.59.17,1.59.75c0,.46-.75.48-.93.48Z"/>
      <path class="cls-2" d="m105.02,125.88c-.12,0-1.53-.22-1.83-.25-.84-.09-1.34-.09-1.73-.09,0,3.24-.15,5.88-3.48,7.95l-.11-.1c2.47-2.5,2.52-4.74,2.58-7.81-.39.01-1.57.06-3.13.31,0,.46.06,2.52.06,2.94s0,.87-.42.87-.63-.79-.63-1.05c0-.16.09-.85.09-.99,0-.26.02-1.38.02-1.61-.57.12-1.61.33-2.04.53-.3.13-.33.15-.4.15-.53,0-1.14-.94-1.14-1.51,0-.22.03-.42.12-.62.59.78.67.9,1.3.9.23,0,1.81-.2,2.16-.23,0-.51-.03-2.19-.23-2.58-.14-.27-.4-.36-1.04-.54.33-.23.57-.36.92-.36.39,0,1.44.39,1.44.78,0,.09-.12.45-.13.52-.12.5-.1,1.05-.09,2.08,1.05-.1,2.28-.24,3.17-.3,0-2.22,0-2.47-.09-2.76-.14-.45-.98-.58-1.21-.63.37-.23.61-.38.94-.38.44,0,1.66.3,1.66.81,0,.11-.14.59-.15.69-.1.57-.13,1.46-.15,2.22.62-.01,1.53-.06,1.86-.12.11-.01.53-.18.62-.18.24,0,.78.18,1.24.51.16.12.23.21.23.42,0,.42-.25.42-.4.42Z"/>
      <path class="cls-2" d="m108.63,123.51c-.13.42-.13,1.75-.13,2.27,0,.27.01,1.5.01,1.75,0,.22,0,1.09-.48,1.09-.4,0-.69-.63-.69-1.23,0-.15.09-.82.11-.96.03-.24.05-.76.05-1.6q0-1.93-1.19-2.26c.28-.18.55-.35.87-.35.36,0,1.62.35,1.62.78,0,.06-.15.46-.17.51Zm5.28-.28c-.03.19-.09,2.8-.1,3.34-.11,2.76-.78,4.12-1.75,5.2-1.14,1.29-2.28,1.56-2.71,1.65l-.04-.11c3.34-2.14,3.52-5.43,3.52-8.86,0-2.3-.04-2.38-1.38-2.59.19-.18.51-.44,1.02-.44.54,0,1.7.35,1.7.75,0,.17-.23.9-.24,1.05Z"/>
      <path class="cls-2" d="m126.83,127.69c-.14,0-.5-.03-.52-.03-.54-.04-.69-.06-1.7-.06-4.57,0-5.92.09-6.6.27-.04.01-.52.13-.57.13-.39,0-1.2-.96-1.2-1.65,0-.09.02-.38.18-.72.51,1.14.98,1.14,2.53,1.14,1.04,0,5.91-.02,6.6-.18.09-.01.52-.13.61-.13s1.59.17,1.59.75c0,.46-.75.48-.93.48Z"/>
      <path class="cls-2" d="m139.1,132.25c-.31,0-.48-.25-.61-.48-1.2-1.98-2.02-2.97-3.36-3.96-2.67,3.36-5.22,4.3-6.63,4.59v-.12c3.46-1.53,7.12-6.12,7.95-8.91-.57.08-3.06.54-3.87.86-.14.06-.69.36-.81.36-.23,0-1.05-.73-1.05-1.51,0-.3.06-.5.13-.64.57.9.83.91,1.12.91.42,0,3.67-.31,4.29-.67.11-.06.57-.42.69-.42.17,0,1.27.95,1.27,1.2,0,.17-.1.2-.58.38-.1.04-.12.08-.31.43-.66,1.28-1.04,2.01-2,3.3,1.8.79,4.29,2.58,4.29,3.99,0,.41-.16.71-.53.71Z"/>
      <path class="cls-2" d="m150.18,124.87c-.34.15-.48.29-.81.93-1.44,2.81-3.02,4.68-5.31,6.11-.79.49-1.82,1.02-2.94,1.27l-.03-.1c3.27-1.82,6.3-5.13,7.68-8.62-.62.06-1.64.21-2.25.3-.1.02-.4.06-.48.06-.15,0-.42-.06-.77-.25-1.39,1.84-2.49,2.7-3.97,3.48l-.08-.12c2.46-2.25,3.92-4.95,3.92-5.43,0-.15-.03-.27-.83-.75.36-.12.69-.12.74-.12.6,0,1.69.69,1.69,1.08,0,.13-.06.21-.35.48-.15.14-.54.65-.73.89.67.07,2.55-.14,2.94-.27.13-.04.64-.45.79-.45.17,0,1.25.9,1.25,1.19,0,.1-.05.15-.47.34Z"/>
      <path class="cls-2" d="m162.93,127.69c-.14,0-.5-.03-.52-.03-.54-.04-.69-.06-1.7-.06-4.57,0-5.92.09-6.6.27-.04.01-.52.13-.57.13-.39,0-1.2-.96-1.2-1.65,0-.09.02-.38.18-.72.51,1.14.98,1.14,2.53,1.14,1.04,0,5.91-.02,6.6-.18.09-.01.52-.13.61-.13s1.59.17,1.59.75c0,.46-.75.48-.93.48Z"/>
      <path class="cls-2" d="m169.08,124.63c-.03.35-.15,1.89-.18,2.2-.39,3.22-2.33,4.93-3.6,5.46l-.07-.09c2.77-2.61,2.77-5.85,2.77-7.11s-.01-1.24-1.15-1.54c.24-.16.57-.39.99-.39.39,0,1.41.33,1.41.75,0,.12-.15.62-.16.72Zm3.64,6.2c-.51.36-.56.42-.94.84-.08.08-.21.22-.3.22-.28,0-.96-1.23-.96-1.42,0-.1.18-.55.2-.66.13-.63.13-2.58.13-2.98,0-.55-.02-3.33-.09-3.69-.06-.27-.36-.46-1.08-.7.19-.12.5-.32.84-.32.45,0,1.62.45,1.62.9,0,.13-.18.73-.21.85-.15.76-.23,4.96-.23,5.88,0,.06,0,.25.11.25.36,0,3.07-1.72,5.43-4.72l.12.09c-1.02,2.46-3.18,4.42-4.63,5.46Z"/>
      <path class="cls-2" d="m191.03,122.34h-6.19v2.46c1.48.25,3.76,1.1,3.76,2.55,0,.51-.36.71-.63.71-.39,0-.51-.19-1.05-1.06-.52-.84-1.43-1.65-2.09-2.01.02,3.4.02,3.78.09,7.23,0,.1.02.6.02.71,0,.59-.39.78-.81.78-.51,0-.51-.33-.51-.49,0-.44.1-2.57.12-3.04.03-1.19.03-1.85.03-7.82h-3.65c-.39,0-1.09.02-1.75.14l-.3-.6c.76.06,1.53.11,2.31.11h8.34l.84-.81c.1-.09.2-.16.24-.16.09,0,.18.06.28.15l1.04.79c.06.04.15.13.15.22,0,.15-.15.17-.24.17Z"/>
      <path class="cls-2" d="m205.52,133.38c-.46.21-1.14.22-2.53.22-1.21,0-2.13-.03-2.13-1.38,0-1.25.34-6.73.39-7.86h-2.43c-.17,1.46-.29,2.38-.59,3.46.36.21,1.83,1.11,1.83,1.98,0,.08,0,.58-.6.58-.25,0-.36-.12-.46-.24-.65-.75-.81-.92-1.1-1.22-.85,2.36-2.38,3.62-3.36,4.23-.92.59-1.62.79-2.05.94l-.05-.09c2.97-1.72,4.14-4.11,4.65-5.85-1.12-.99-1.89-1.32-2.23-1.48v-.09c.78.12,1.47.32,2.44.75.29-1.21.38-2.31.41-2.98h-2.56c-.27,0-1.04,0-1.77.13l-.29-.59c.93.08,1.86.09,2.29.09h2.35c.02-.69.08-2.44-.27-3.76l1.85.54s.15.09.15.21-.09.2-.46.5c-.03,1.41-.12,2.29-.14,2.52h2.27l.57-.5c.06-.05.16-.15.24-.15.09,0,.18.06.24.1l.73.63s.12.09.12.17c0,.15-.19.25-.67.53-.15.99-.33,4.84-.38,6.12-.02.4-.03.78-.03.84,0,.79.23.79,1.6.79.67,0,1.02,0,1.19-.53.13-.42.4-1.69.51-2.22h.09c.06.34.28,1.86.38,2.16.06.17.09.19.3.39.06.04.13.17.13.33,0,.22-.17.51-.63.71Z"/>
      <path class="cls-2" d="m220.44,127.26h-6.05v4.89c0,.57,0,1.67-1.92,1.86-.04-.45-.15-.97-1.75-1.71l.02-.11c.66.09,1.17.15,1.63.15.71,0,.92-.06.92-.63v-4.45h-4.14c-.27,0-1.05,0-1.77.13l-.3-.6c.93.08,1.86.11,2.31.11h3.9v-1.52c0-1.11-.11-1.36-.25-1.77l1.39.39c1.1-1.6,1.31-1.89,1.5-2.3h-5.13c-.27,0-1.03,0-1.77.14l-.29-.6c.93.08,1.84.11,2.29.11h4.98l.58-.51c.15-.12.18-.15.28-.15.06,0,.12.04.25.15l1.05.86c.12.1.15.2.15.25,0,.22-.18.29-1.11.32-1.54,1.18-1.71,1.32-2.5,1.83.11.03.18.12.18.2,0,.2-.24.33-.51.5v2.12h3.8l.78-.86c.14-.13.17-.2.23-.2.08,0,.15.06.29.16l1.03.86c.08.06.15.13.15.24,0,.13-.12.15-.22.15Z"/>
      <path class="cls-2" d="m223.86,133.95v-13.53h3.78v.65h-3.15v12.24h3.15v.65h-3.78Z"/>
      <path class="cls-2" d="m236.31,125.29h-2.96c0,.13,0,.9.02,1.54,1.11.3,2.44,1.2,2.44,2.03,0,.31-.21.69-.59.69-.4,0-.57-.34-.84-.96-.45-.99-.83-1.3-1.02-1.47,0,.96.06,5.17.06,6.03,0,.69-.39.86-.69.86-.46,0-.46-.39-.46-.55,0-.74.13-3.96.15-4.62.01-.57.01-.93.01-1.26-.7,1.27-1.95,3-3.49,4.12l-.09-.09c1.69-2.02,3.13-5.19,3.51-6.31h-1.07c-.38,0-1.1,0-1.77.13l-.3-.6c1.03.09,2.1.11,2.31.11h.89v-2.49c-1.35.24-2.37.22-2.89.22v-.13c1.63-.32,4.44-1.21,5.22-2.05l1,1.05c.06.06.09.13.09.2,0,.12-.06.15-.23.15-.04,0-.41-.08-.48-.09-.33.09-.77.22-1.79.46v2.69h1.21l.53-.68c.09-.12.15-.18.22-.18s.18.06.29.15l.78.67c.11.09.15.13.15.22,0,.13-.12.16-.23.16Zm5.4,7.98c-.5,0-.64-.52-.72-.85-.09-.41-.23-1.02-.27-1.2-1.51.55-4.24,1.16-5.26,1.38-.04.04-.15.29-.19.33-.03.03-.09.08-.18.08s-.18-.05-.29-.29l-.57-1.33c.25.03.48.08.92.08.18,0,.3,0,.76-.03,1.06-3.42,2.35-8.76,2.22-10.45l1.69.66c.08.03.21.11.21.24,0,.15-.06.18-.66.46-.85,3.3-1.42,5.17-3.03,9.08,1.33-.09,3-.21,4.31-.45-.27-.83-.92-2.04-1.71-3.06l.06-.08c1.84,1.08,3.4,3.31,3.4,4.6,0,.74-.51.84-.69.84Z"/>
      <path class="cls-2" d="m254.61,132.58l.78-.84c.08-.08.15-.2.24-.2.11,0,.18.08.28.17l1.04.84c.08.06.15.13.15.22,0,.14-.12.17-.23.17h-11.14c-.13,0-1.06,0-1.77.14l-.29-.6c.99.09,2.01.11,2.29.11h4.51c.35-.84,2.14-6.22,2.06-8.14l1.68.82c.06.03.14.12.14.21,0,.16-.06.18-.6.41-.21.53-1.15,2.95-1.31,3.32-.34.85-.91,2.2-1.63,3.39h3.79Zm-.87-9.18l.63-.84c.1-.13.17-.2.23-.2.09,0,.18.09.29.16l1.05.86c.09.07.14.13.14.21,0,.13-.11.16-.23.16h-9.18c-.13,0-1.07,0-1.77.13l-.28-.58c1.03.08,2.16.09,2.29.09h2.91c0-1.82-.18-2.29-.39-2.88l1.8.45c.08.01.18.04.18.15,0,.15-.34.42-.54.58-.03.27-.03,1.46-.03,1.7h2.91Zm-7.17,1.39c1.69,1.63,2.56,4.07,2.56,5.61,0,.6-.35.96-.72.96-.6,0-.65-.69-.67-1.07-.11-1.59-.24-3.27-1.23-5.46l.06-.04Z"/>
      <path class="cls-2" d="m258.38,133.95v-.65h3.15v-12.24h-3.15v-.65h3.78v13.53h-3.78Z"/>
      <path class="cls-1" d="m13.32,157.18c0,3.67-2.99,6.66-6.66,6.66s-6.66-2.97-6.66-6.66,3.02-6.66,6.66-6.66,6.66,2.96,6.66,6.66Z"/>
      <path class="cls-2" d="m28.56,161.92c-.82.3-2.95.33-3.7.33-2.13,0-3.3-.22-4.32-.95-.39-.29-1.11-.94-1.11-2.05,0-.13,0-1.16.7-1.68-.07.22-.15.48-.15,1,0,2.65,3.1,2.65,3.93,2.65,1.24,0,2.49-.09,3.67-.45.09-.03.24-.08.44-.08.46,0,1.08.3,1.08.67,0,.33-.32.45-.54.54Zm-1.68-7.83c-1.11,0-1.23.02-1.59.08-.47.09-.66.15-2.73.99l-.06-.09c.29-.23,1.81-1.26,1.81-1.4,0-.04-.09-.07-.18-.09-1.21-.18-3.34-.48-3.37-2.05,1.08,1.02,2.4,1.12,4.18,1.12,1.32,0,1.74,0,2.35.43.27.2.31.41.31.51,0,.12-.06.49-.73.49Z"/>
      <path class="cls-2" d="m36.78,162.55l-.02-.12c3.21-1.14,4.71-3.25,4.71-5.53,0-2.54-2.04-4.04-4.65-4.04-.38,0-.45.01-.61.09.81.44,1.03.99,1.03,1.2,0,.17-.04.27-.51,1.25-.96,2.05-2.37,5.07-3.39,5.91-.11.08-.28.17-.48.17-.34,0-.48-.19-.93-.83-.11-.15-.71-.7-.81-.84-.16-.24-.42-.78-.42-1.53,0-3.23,2.73-5.88,6.39-5.88,2.91,0,5.55,1.69,5.55,4.71s-2.43,5.14-5.86,5.44Zm-1.18-9.51c-1.65.27-3.94,2.4-3.94,5.16,0,1.02.59,2.14,1.17,2.14.4,0,.99-1.06,1.25-1.57,1.5-3.02,1.99-3.99,1.99-4.77,0-.38-.18-.69-.46-.96Z"/>
      <path class="cls-2" d="m53.37,163.33s-2.1-.04-2.56-.2c-1.12-.34-1.29-1.12-1.51-2.31-.15-.77-.57-.98-1.06-.98-.66,0-.98.47-2.19,2.22-.29.4-.78,1.11-1.04,1.29-.07.06-.13.1-.3.1-.25,0-.51-.21-.51-.67,0-.5.12-.6.98-1.32.52-.43.62-.52,2.96-3.07.36-.41,2.2-2.42,2.23-2.48.02-.03.04-.08.04-.12,0-.15-.18-.15-.24-.15-.49,0-2.43.9-2.65,1.05-.42.3-.51.36-.73.36-.4,0-1.31-.62-1.31-1.23,0-.12.02-.17.14-.54.3.36.56.63,1.05.63.87,0,3.23-.84,3.27-.85.44-.17.82-.3.84-.3.29,0,1.26.46,1.26.94,0,.27-.1.33-.53.62-.81.54-2.71,2.1-3.58,3.21.21-.04.45-.09.78-.09,1.2,0,1.39.81,1.54,1.44.3,1.29.46,1.58,1.56,1.58.72,0,1.48-.2,1.72-.25.56-.17.62-.18.78-.18.38,0,.84.28.84.64,0,.62-1.25.66-1.77.66Zm-2.47-10.05c-.21,0-1.06-.2-1.25-.2-.29,0-.39.03-1.41.29-.04.02-.19.06-.24.06l-.04-.09c.25-.15.65-.39.87-.55.26-.18.35-.25.35-.39,0-.2-.12-.27-.52-.54-.94-.65-1.12-1-1.19-1.74.59.55,1.1.96,2.06,1.32.76.3,1.74.66,1.74,1.41,0,.18-.09.43-.36.43Z"/>
      <path class="cls-2" d="m62.52,158.76c0,1.72-.32,2.83-1.56,2.91-.14-.57-.42-.78-.83-1.09l.04-.09c.24.05.63.08.89.08.24,0,.39,0,.46-.63.09-.69.09-.76.08-1.46h-1.66c.02.65.08,3.74.08,4.44,0,.08-.02.46-.02.55,0,.53-.46.62-.63.62-.26,0-.39-.15-.39-.42,0-.06.02-.16.02-.24.01-.18.01-1.66.01-2.07,0-.38.02-1.06.03-1.47-.38.57-1.92,2.45-3.42,3.15l-.06-.09c1.25-1.27,2.59-2.86,3.33-4.47h-1.43c-.03.23-.17.98-.22,1.08-.09.15-.33.29-.56.29-.24,0-.4-.15-.4-.33,0-.05.39-1.72.43-1.92.31-1.54.33-1.95.35-2.47l1,.75h1v-1.94h-.81c-.1,0-1.06,0-1.75.14l-.3-.58c.73.06,1.56.09,2.29.09h1.48c.16-.27.98-1.96.96-3.03l1.2.56c.15.07.22.13.22.24,0,.2-.27.3-.52.33-.51.65-1.34,1.68-1.56,1.91h.98l.31-.32c.09-.09.15-.13.21-.13s.14.04.24.12l.46.33c.1.08.16.17.16.24,0,.12-.06.22-.4.4.01.17.01.25.03,1,0,.17.04.98.04,1.1,0,.49-.51.55-.67.55-.33,0-.33-.12-.31-.65h-1.39v1.89h1.5l.38-.44c.09-.1.16-.13.23-.13.09,0,.16.03.27.13l.4.36c.11.09.18.2.18.27,0,.11-.09.21-.38.45Zm-4.16-5.59c-.34,0-.49-.3-.6-.69-.2-.8-.27-1.05-.78-1.73l.06-.09c.63.24,1.88.96,1.88,1.88,0,.46-.33.63-.56.63Zm-.46,3.06c-.13.51-.19.9-.38,1.89h1.53v-1.89s-1.16,0-1.16,0Zm3.44-2.29h-1.38c-.02.29-.02,1.64-.02,1.94h1.39v-1.94Zm1.34,9.15c-.31,0-.5-.21-.5-.53,0-.17.03-.22.3-.75.12-.22.29-.73.29-1.18l.08-.02c.13.2.52.84.52,1.54,0,.42-.24.93-.69.93Zm6.66-5.16h-5.19v1.39h3.6l.34-.4c.09-.12.16-.18.24-.18.06,0,.15.05.27.14l.52.38c.12.07.19.17.19.27,0,.16-.18.29-.45.42-.38,3.24-1.14,4.17-2.88,4.17-.14-.76-.53-1.17-.74-1.38l.02-.09c.67.22,1.19.25,1.41.25.19,0,.4-.05.63-.48.39-.73.51-2.05.57-2.73h-3.73c0,.39-.3.57-.64.57-.03,0-.38,0-.38-.29,0-.11.04-.51.04-.58.03-2.17.05-4.35.05-6.54,0-.5,0-.58-.08-1.48l1.17.73h.35c.4-1.04.38-1.42.34-1.88l1.11.51c.17.07.24.16.24.24,0,.15-.09.25-.44.24-.19.2-.59.58-.93.88h2.12l.36-.39c.09-.09.15-.15.23-.15.06,0,.13.04.24.12l.54.39c.09.07.14.13.14.22,0,.2-.27.38-.48.48.01.26,0,.41.04,1.77,0,.24.09,1.44.09,1.51,0,.51-.51.57-.66.57-.39,0-.4-.27-.4-.54h-3.04v1.48h3.5l.48-.6c.1-.13.16-.2.24-.2.06,0,.15.06.29.17l.78.6c.09.08.15.17.15.24,0,.11-.09.15-.24.15Zm-4.98,4.81c-.34,0-.46-.25-.46-.57,0-.13.08-.75.08-.88,0-.32-.03-.44-.09-.62l.08-.02c.88.56.94,1.35.94,1.47,0,.1-.04.61-.54.61Zm2.84-10.29h-3.04v1.47h3.04v-1.47Zm0,1.83h-3.04v1.44h3.04v-1.44Zm-1.63,7.84c-.3,0-.39-.21-.39-.45,0-.67,0-.99-.16-1.41l.08-.05c.51.36.97.83.97,1.37,0,.33-.22.54-.49.54Zm1.27-.56c-.35,0-.39-.25-.44-.46-.15-.69-.17-.76-.38-1.06l.04-.08c.73.2,1.17.71,1.17,1.14,0,.16-.09.46-.4.46Z"/>
      <path class="cls-2" d="m77.06,162.55l-.02-.12c3.21-1.14,4.71-3.25,4.71-5.53,0-2.54-2.04-4.04-4.65-4.04-.38,0-.45.01-.61.09.81.44,1.03.99,1.03,1.2,0,.17-.05.27-.51,1.25-.96,2.05-2.37,5.07-3.39,5.91-.1.08-.28.17-.48.17-.34,0-.48-.19-.93-.83-.11-.15-.71-.7-.81-.84-.16-.24-.42-.78-.42-1.53,0-3.23,2.73-5.88,6.39-5.88,2.91,0,5.55,1.69,5.55,4.71s-2.43,5.14-5.86,5.44Zm-1.19-9.51c-1.65.27-3.94,2.4-3.94,5.16,0,1.02.59,2.14,1.17,2.14.41,0,.99-1.06,1.25-1.57,1.5-3.02,1.99-3.99,1.99-4.77,0-.38-.18-.69-.46-.96Z"/>
      <path class="cls-2" d="m91.61,154.56c.57,1.36,1.88,3.16,2.97,4.08.73.63,2.44,1.7,3.72,1.92v.11c-1.03.19-1.34.55-1.78,1.11-3.9-2.23-5.08-6.99-5.1-7.02,0,.84-.02,1.95,0,3.58,0,.78.18,4.8.18,4.88,0,.78-.63.8-.79.8-.57,0-.57-.3-.57-.51,0-.29.09-1.62.1-1.94.03-.93.04-1.42.09-5.82-.33.67-.85,1.68-2.02,3.03-1.38,1.59-2.4,2.26-4.06,3.15l-.03-.08c1.63-1.44,4.2-4.11,5.61-7.29h-3.31c-.41,0-1.11.01-1.77.13l-.3-.6c.76.06,1.55.11,2.31.11h3.59c-.05-2.58-.15-3.13-.38-3.95l1.71.44c.08.01.19.04.19.18,0,.18-.17.29-.51.48,0,.4-.02,2.4-.02,2.85h3.81l.69-.83c.06-.06.15-.18.24-.18s.21.1.29.17l.9.81c.08.06.15.12.15.23,0,.15-.15.17-.24.17h-5.65Z"/>
      <path class="cls-2" d="m102.15,154.05c.08.04.18.12.18.2,0,.2-.15.29-.36.43,0,2.7,0,5.4.01,8.08,0,.54,0,1.17-.78,1.17-.39,0-.46-.2-.46-.41,0-.22.13-1.89.15-2.25.09-1.98.09-3.6.11-6.45-.21.33-1.44,2.16-2.37,2.8l-.09-.08c1.54-2.01,3.15-6.28,3.15-7.06,0-.09-.02-.2-.03-.3l1.41.76c.1.06.21.15.21.29,0,.2-.18.25-.57.39-.19.48-.4,1.02-1.05,2.12l.49.3Zm2.3,3.98c-.25,0-1.02,0-1.75.13l-.3-.6c.77.06,1.53.11,2.31.11h2.05c-.02-.78-.03-1.83-.19-2.31l1.39.3c.07.01.19.06.19.18,0,.13-.1.21-.41.46,0,.41-.01.77-.01,1.37h2.62l.6-.69c.15-.18.17-.19.24-.19.06,0,.07.01.28.17l.95.69c.06.03.15.12.15.23,0,.13-.12.17-.23.17h-4.41c.66,1.41,2.65,3.19,4.86,3.76v.09c-.54.21-1,.58-1.33,1.06-2.29-1.56-3.36-3.99-3.72-4.92h-.01c0,.91.04,2.34.06,2.76.01.38.1,2.07.1,2.42,0,.25,0,.78-.79.78-.35,0-.47-.18-.47-.5,0-.01.11-2.35.11-2.62.02-.8.03-1.35.03-2.05-1.62,2.52-3.65,3.57-4.63,4.05l-.02-.1c1.57-1.3,2.82-2.75,3.99-4.72h-1.66Zm4.98-6.84l.31-.35c.06-.06.11-.13.23-.13.09,0,.21.08.28.13l.6.45c.09.08.2.18.2.27,0,.15-.14.27-.51.45-.02,1.01.02,1.68.02,1.86.02.21.07,1.23.07,1.33,0,.39-.18.69-.73.69-.38,0-.36-.35-.34-.69h-4.23c0,.45-.21.83-.69.83-.33,0-.42-.24-.42-.48,0-.12.11-2.5.11-2.98,0-1.42-.08-1.75-.14-2.12l1.27.74h3.98Zm-4.14.36v3.3h4.26v-3.3h-4.26Z"/>
      <path class="cls-2" d="m124.59,152.38l.65-.81c.09-.1.15-.21.25-.21.09,0,.21.11.29.17l.84.81c.07.06.16.15.16.24,0,.13-.12.17-.23.17h-6.6c-.6.57-1.33,1.23-2.13,1.86,1.81-.09,3.42-.17,5.47-.36-.65-.54-.99-.67-1.33-.81l.06-.12c2.23.34,4.09,1.23,4.09,2.21,0,.4-.31.66-.61.66s-.45-.15-.91-.67c-.57-.66-.85-.9-1.02-1.04-.32.06-3.63.74-8.52,1.32-.1.21-.2.39-.36.39-.13,0-.21-.13-.25-.27l-.54-1.45c.83.21,1.29.22,1.74.22.09,0,.55,0,1.77-.06.42-.74.67-1.29.93-1.88h-2.74c-.26,0-1.04,0-1.76.13l-.3-.6c1.02.08,2.09.1,2.29.1h3.78c0-.59,0-1.39-.33-2.14l1.56.36c.14.03.27.07.27.22,0,.09-.29.36-.42.5v1.06h3.9Zm-1.62,3.75c.12-.13.2-.19.29-.19.07,0,.15.04.21.09l.6.42c.07.06.18.18.18.25,0,.06-.07.15-.13.21-.12.1-.15.13-.25.24,0,.82.1,4.62.1,5.28,0,1.37-1.59,1.63-1.8,1.67-.03-.27-.12-.88-1.27-1.39v-.12c.63.05,1.27.06,1.34.06.56,0,.63,0,.63-.27v-1.59h-5.26c.02.4.08,2.25.08,2.53,0,.5-.33.78-.78.78-.42,0-.42-.27-.42-.48,0-.24.08-1.31.08-1.53.03-1.23.04-2.94.04-4.14,0-1.09-.04-1.31-.19-2.08l1.4.64h4.87l.32-.38Zm-.12.74h-5.26v1.54h5.26v-1.54Zm0,1.91h-5.26v1.65h5.26v-1.65Z"/>
      <path class="cls-2" d="m139.32,151.35l.43-.36c.09-.08.18-.13.27-.13.06,0,.17.06.21.1l.64.56c.07.06.17.15.17.24,0,.18-.17.29-.5.51-.02.82-.03,2.55,0,5.25,0,.87.06,4.71.06,5.49,0,.5-.35.81-.74.81-.46,0-.43-.34-.4-.87h-9.31c.01.18,0,.42-.02.5-.04.33-.48.51-.75.51-.31,0-.39-.21-.39-.47,0-.19.08-1.09.08-1.27.05-1,.06-1.74.06-7.14,0-2.75-.03-3.5-.15-4.33l1.29.62h9.05Zm-9.16.36v10.88h9.31v-10.88h-9.31Zm7.75,7.29s.09.1.09.18c0,.2-.16.23-.29.23-.06,0-.15,0-.27-.02-.48.2-.63.24-1.14.41.63.22,1.97.72,1.97,1.5,0,.27-.2.5-.47.5-.18,0-.25-.04-.84-.69-.51-.55-1.17-1.09-1.81-1.46,0,.29.05,1.68.05,1.83,0,.45-.42.67-.69.67-.24,0-.33-.21-.33-.45,0-.45.06-2.42.06-2.82-.48.57-1.83,1.84-3.76,2.46l-.06-.09c1.3-.87,2.58-1.98,3.42-3.17h-.89c0,.41-.33.57-.6.57-.39,0-.39-.27-.39-.44,0-.08.06-1.3.06-1.54,0-.46-.02-.78-.1-1.18l1.12.45h3.4l.27-.25c.07-.08.15-.15.21-.15s.15.06.21.12l.52.46c.08.06.12.13.12.21,0,.06-.09.15-.35.38,0,.2.03,1.05.03,1.21,0,.32-.12.41-.24.5l.69.59Zm-1.44-5.68l.31-.45c.08-.12.15-.18.23-.18.06,0,.15.05.29.15l.52.45c.08.06.16.13.16.22,0,.14-.14.16-.24.16h-2.58v1.11h2.07l.44-.51c.09-.11.15-.18.24-.18s.18.06.29.15l.6.51c.09.08.15.13.15.23,0,.15-.14.16-.23.16h-6.21c-.15,0-1.08,0-1.77.13l-.3-.6c.77.08,1.54.11,2.31.11h1.47v-1.11h-1.02c-.26,0-1.05,0-1.77.14l-.3-.6c.93.08,2.02.11,2.31.11h.78c-.03-.54-.18-1.04-.27-1.33l1.39.36c.09.03.2.06.2.18,0,.17-.15.25-.38.39v.41h1.3Zm.02,4.41v-1.42h-3.54v1.42h3.54Zm-1.34.36c-.02.64-.02,1.05-.02,1.41.21.03.41.06.86.19.3-.25.86-.87,1.06-1.21-.34.09-.57-.07-.57-.39h-1.34Z"/>
      <path class="cls-2" d="m147.36,152.53c-1.24,2.55-3.51,4.47-4.65,5.1l-.07-.1c2.1-2.38,3.28-4.49,3.63-5.49.13-.38.19-.67.24-.96l1.29.87c.08.04.2.13.2.24,0,.18-.39.29-.63.34Zm5.44,4.7c-.15,5.4-.45,6.49-3.15,6.73-.06-.95-.79-1.44-1.12-1.65l.02-.1c.63.13,1.27.25,1.74.25.72,0,1.01-.17,1.23-1.53.18-1.11.27-3.61.23-4.32h-3.03c-.09,2.35-1.09,6.42-5.82,7.29l-.03-.12c3.04-1.41,4.59-3.67,4.74-7.17h-.44c-.38,0-1.09.01-1.77.15l-.28-.6c.93.08,1.84.09,2.29.09h4.25l.4-.36c.09-.09.18-.16.27-.16.08,0,.15.07.21.13l.6.66c.08.07.13.17.13.24,0,.14-.04.17-.46.47Zm2.73-.02c-1.6-.69-3.39-2.31-4.51-5.7h-1.2c-.75,0-1.05.06-1.26.09l-.2-.53c.68.06,1.34.08,1.64.08h.75l.48-.48c.13-.13.19-.16.27-.16.09,0,.15.07.25.16l.55.54c.09.08.12.14.12.23,0,.3-.69.42-.96.46.72,1.93,3.21,3.85,5.5,4.02l.02.15c-.84.25-1.19.73-1.46,1.14Z"/>
      <path class="cls-2" d="m168.57,151.35l.43-.36c.09-.08.18-.13.27-.13.06,0,.17.06.21.1l.64.56c.07.06.17.15.17.24,0,.18-.17.29-.5.51-.02.82-.03,2.55,0,5.25,0,.87.06,4.71.06,5.49,0,.5-.35.81-.74.81-.46,0-.43-.34-.4-.87h-9.31c.01.18,0,.42-.02.5-.04.33-.48.51-.75.51-.31,0-.39-.21-.39-.47,0-.19.08-1.09.08-1.27.05-1,.06-1.74.06-7.14,0-2.75-.03-3.5-.15-4.33l1.29.62h9.05Zm-9.16.36v10.88h9.31v-10.88h-9.31Zm7.75,7.29s.09.1.09.18c0,.2-.16.23-.29.23-.06,0-.15,0-.27-.02-.48.2-.63.24-1.14.41.63.22,1.97.72,1.97,1.5,0,.27-.2.5-.47.5-.18,0-.25-.04-.84-.69-.51-.55-1.17-1.09-1.81-1.46,0,.29.05,1.68.05,1.83,0,.45-.42.67-.69.67-.24,0-.33-.21-.33-.45,0-.45.06-2.42.06-2.82-.48.57-1.83,1.84-3.76,2.46l-.06-.09c1.3-.87,2.58-1.98,3.42-3.17h-.89c0,.41-.33.57-.6.57-.39,0-.39-.27-.39-.44,0-.08.06-1.3.06-1.54,0-.46-.02-.78-.1-1.18l1.12.45h3.4l.27-.25c.07-.08.15-.15.21-.15s.15.06.21.12l.52.46c.08.06.12.13.12.21,0,.06-.09.15-.35.38,0,.2.03,1.05.03,1.21,0,.32-.12.41-.24.5l.69.59Zm-1.44-5.68l.31-.45c.08-.12.15-.18.23-.18.06,0,.15.05.29.15l.52.45c.08.06.16.13.16.22,0,.14-.14.16-.24.16h-2.58v1.11h2.07l.44-.51c.09-.11.15-.18.24-.18s.18.06.29.15l.6.51c.09.08.15.13.15.23,0,.15-.14.16-.23.16h-6.21c-.15,0-1.08,0-1.77.13l-.3-.6c.77.08,1.54.11,2.31.11h1.47v-1.11h-1.02c-.26,0-1.05,0-1.77.14l-.3-.6c.93.08,2.02.11,2.31.11h.78c-.03-.54-.18-1.04-.27-1.33l1.39.36c.09.03.2.06.2.18,0,.17-.15.25-.38.39v.41h1.3Zm.02,4.41v-1.42h-3.54v1.42h3.54Zm-1.34.36c-.02.64-.02,1.05-.02,1.41.21.03.41.06.86.19.3-.25.86-.87,1.06-1.21-.34.09-.57-.07-.57-.39h-1.34Z"/>
      <path class="cls-2" d="m174.03,163.95v-13.53h3.78v.65h-3.15v12.24h3.15v.65h-3.78Z"/>
      <path class="cls-2" d="m186.48,155.29h-2.96c0,.13,0,.9.02,1.54,1.11.3,2.44,1.2,2.44,2.03,0,.31-.21.69-.59.69-.4,0-.57-.34-.84-.96-.45-.99-.83-1.3-1.02-1.47,0,.96.06,5.17.06,6.03,0,.69-.39.86-.69.86-.46,0-.46-.39-.46-.55,0-.74.13-3.96.15-4.62.01-.57.01-.93.01-1.26-.7,1.27-1.95,3-3.49,4.12l-.09-.09c1.69-2.02,3.13-5.19,3.51-6.31h-1.06c-.38,0-1.1,0-1.77.13l-.3-.6c1.03.09,2.1.11,2.31.11h.89v-2.49c-1.35.24-2.37.22-2.9.22v-.13c1.63-.32,4.44-1.21,5.22-2.05l1,1.05c.06.06.09.13.09.2,0,.12-.06.15-.23.15-.04,0-.41-.08-.48-.09-.33.09-.77.22-1.79.46v2.69h1.21l.53-.68c.09-.12.15-.18.22-.18s.18.06.29.15l.78.67c.1.09.15.13.15.22,0,.13-.12.16-.23.16Zm5.4,7.98c-.5,0-.64-.52-.72-.85-.09-.41-.23-1.02-.27-1.2-1.51.55-4.24,1.16-5.26,1.38-.04.04-.15.29-.19.33-.03.03-.09.08-.18.08s-.18-.05-.29-.29l-.57-1.33c.25.03.48.08.92.08.18,0,.3,0,.76-.03,1.06-3.42,2.35-8.76,2.22-10.45l1.69.66c.08.03.21.11.21.24,0,.15-.06.18-.66.46-.85,3.3-1.42,5.17-3.03,9.08,1.34-.09,3-.21,4.31-.45-.27-.83-.92-2.04-1.71-3.06l.06-.08c1.84,1.08,3.4,3.31,3.4,4.6,0,.74-.51.84-.69.84Z"/>
      <path class="cls-2" d="m204.78,162.58l.78-.84c.08-.08.15-.2.24-.2.1,0,.18.08.28.17l1.04.84c.08.06.15.13.15.22,0,.14-.12.17-.23.17h-11.14c-.13,0-1.06,0-1.77.14l-.29-.6c.99.09,2.01.11,2.29.11h4.51c.35-.84,2.15-6.22,2.06-8.14l1.68.82c.06.03.14.12.14.21,0,.16-.06.18-.6.41-.21.53-1.15,2.95-1.31,3.32-.34.85-.91,2.2-1.63,3.39h3.79Zm-.87-9.18l.63-.84c.11-.13.16-.2.23-.2.09,0,.18.09.29.16l1.05.86c.09.07.14.13.14.21,0,.13-.11.16-.23.16h-9.18c-.13,0-1.06,0-1.77.13l-.28-.58c1.03.08,2.16.09,2.3.09h2.91c0-1.82-.18-2.29-.39-2.88l1.8.45c.08.01.18.04.18.15,0,.15-.34.42-.54.58-.03.27-.03,1.46-.03,1.7h2.91Zm-7.17,1.39c1.69,1.63,2.56,4.07,2.56,5.61,0,.6-.35.96-.72.96-.6,0-.64-.69-.67-1.07-.1-1.59-.24-3.27-1.23-5.46l.06-.04Z"/>
      <path class="cls-2" d="m208.55,163.95v-.65h3.15v-12.24h-3.15v-.65h3.78v13.53h-3.78Z"/>
    </g>
    <g>
      <path class="cls-2" d="m290.26,44.44c-2.34-1.88-3.55-4.57-3.55-7.26s1.21-5.38,3.55-7.26l.14.21c-2.79,2.95-2.85,5.95-2.85,7.05s.06,4.1,2.85,7.05l-.14.21Z"/>
      <path class="cls-2" d="m297.65,33.19c.12.06.19.15.19.27,0,.14-.17.23-.63.32-.19.24-.61.73-1.26,1.53-.57.69-1.06,1.24-1.47,1.66.08,0,1.34-.06,2.13-.17-.06-.1-.24-.45-.61-.85l.08-.09c1.17.45,2.07,1.12,2.07,1.81,0,.29-.17.62-.57.62-.36,0-.51-.18-.64-.69-.02-.05-.08-.26-.16-.48l-1.37.3c0,.65.04,3.72.04,4,.02.3.06,1.65.06,1.92,0,.39-.34.65-.72.65-.31,0-.41-.2-.41-.45,0-.24.06-1.23.06-1.44.02-.48.03-1.95.04-4.48-.94.21-1.69.38-1.89.42-.09.15-.24.43-.38.43-.15,0-.24-.18-.27-.27l-.33-1.28c.25.06.69.11,1.06.11.46,0,1.15-.02,1.4-.03,1.02-1.38,1.94-3.29,2.15-3.88.06-.15.09-.42.09-.6l1.34.67Zm-5.92,9.87c.65-1.45,1.08-3.36,1.05-4.38l1.23.45c.1.04.21.13.21.21,0,.11-.09.18-.48.33-.48,1.4-.91,2.24-1.93,3.43l-.08-.05Zm.57-9.85c.42.11.91.24,1.29.42.42-.84,1.08-2.47.99-3.36l1.42.71c.12.06.18.15.18.22,0,.22-.23.27-.57.33-.71.9-.81,1.04-1.83,2.21.43.27.88.67.88,1.18,0,.34-.23.72-.61.72-.35,0-.44-.18-.77-.91-.35-.78-.69-1.11-1-1.42v-.09Zm3.54,5.71c.61.27,2.11.95,2.11,1.96,0,.48-.34.74-.66.74-.41,0-.48-.3-.68-.99-.21-.78-.49-1.21-.82-1.65l.04-.06Zm7.17-4.84l.45-.42c.08-.08.17-.16.21-.16.06,0,.17.09.21.13l.72.62c.07.06.13.15.13.22,0,.11-.28.32-.55.51-.09,4.15-.12,6.01-.92,7.54-.56,1.07-1.5,1.46-2.33,1.47-.12-.71-.58-1.17-1.36-1.7l.02-.09c.69.13,1.6.3,1.99.3,1.52,0,1.59-4.95,1.59-6.5,0-.25-.01-1.32-.01-1.57h-4.05c-.74,1.39-1.25,1.9-1.47,2.14l-.09-.06c1.11-2.21,1.62-4.74,1.62-5.52,0-.15-.05-.43-.08-.57l1.62.69c.07.03.17.11.17.21,0,.15-.23.25-.59.42-.16.48-.43,1.23-.99,2.33h3.7Zm-4.1,2.87c1.43.58,2.13,1.06,2.13,1.88,0,.36-.18.71-.6.71-.39,0-.51-.17-.84-1.2-.12-.39-.4-.9-.75-1.29l.06-.09Z"/>
      <path class="cls-2" d="m311.53,37.78c.69.59,1.02,1.34,1.02,2.22,0,1.84-1.52,3.16-3.5,3.16-1.62,0-2.98-.91-2.98-2.12,0-.66.44-.96.86-.96.51,0,.74.44.74.75,0,.23-.05.36-.09.48-.03.09-.04.19-.04.34,0,.57.64.99,1.35.99,1.15,0,2.32-1.14,2.32-2.66s-1.14-2.75-2.34-2.75c-.09,0-.51.06-.6.06-.22,0-.33-.14-.33-.32,0-.2.15-.34.34-.34.09,0,.54.09.64.09,1.26,0,2.05-1.12,2.05-2.34s-.7-2.25-1.89-2.25c-.79,0-1.21.57-1.21,1,0,.08.03.15.04.23.03.1.04.25.04.36,0,.46-.35.83-.77.83-.49,0-.75-.44-.75-.83,0-.83.96-2.1,2.88-2.1s3,1.2,3,2.52c0,.53-.19,1.04-.55,1.53-.62.81-1.29,1.06-1.91,1.27.69.21,1.14.36,1.67.81Z"/>
      <path class="cls-2" d="m318.97,42.88h-5.89v-.41c.3-.94,1-2,2.2-3.36,2.2-2.55,2.95-3.41,2.95-4.91,0-1.12-.72-2.05-2-2.05-1.05,0-1.68.63-1.68,1.17,0,.04,0,.24.15.46.19.3.31.46.31.75,0,.45-.36.84-.81.84-.52,0-.86-.5-.86-1.05,0-1.09,1.07-2.68,3.23-2.68,1.86,0,3,1.17,3,2.79,0,1.51-.87,2.34-2.22,3.49-.51.42-2.49,2.12-3.24,3.77h2.07c2.1,0,2.6-.81,3.04-2.06l.45.17-.72,3.08Z"/>
      <path class="cls-2" d="m323.56,43.17c-1.04,0-1.91-.72-2.46-1.62-.63-1.04-.92-2.88-.92-4.27,0-3.2,1.36-5.62,3.38-5.62,1.55,0,3.37,1.67,3.37,5.76,0,3.67-1.54,5.76-3.37,5.76Zm-1.68-9.01c-.21.75-.34,2.01-.34,3.25,0,3.34.8,5.25,2.02,5.25,1.03,0,1.5-1.38,1.66-1.95.21-.76.36-2.04.36-3.3,0-3.42-.83-5.25-2.02-5.25-1.06,0-1.53,1.47-1.68,2Z"/>
      <path class="cls-2" d="m329.56,35.5v1.19c.4-.41,1.19-1.19,2.47-1.19,1.41,0,1.68.91,1.8,1.35.51-.5,1.33-1.35,2.68-1.35s1.92.79,1.92,2.46v3.54c0,.57.3.9.75.9h.29v.48h-3.13v-.48h.27c.52,0,.76-.4.76-.9v-3.45c0-.42-.07-1.9-1.32-1.9-.42,0-1.36.24-2.11,1.3,0,.12.01.24.01.51v3.54c0,.63.35.9.75.9h.44v.48h-3.43v-.48h.43c.41,0,.75-.28.75-.9v-3.45c0-.31-.03-1.9-1.3-1.9-.36,0-1.32.19-2.02,1.18v4.17c0,.63.36.9.75.9h.27v.48h-3.12v-.48h.27c.45,0,.75-.31.75-.9v-4.51c0-.46-.25-.71-.61-.71-.16,0-.32.01-.45.06l-.06-.29,2.2-.55Z"/>
      <path class="cls-2" d="m340.63,43.96l-.3-.3,13.26-13.26.3.3-13.26,13.26Z"/>
      <path class="cls-2" d="m354.44,39.27c1.44-1.42,3.09-3.99,3.51-4.98.12-.3.18-.48.29-.88l1.21.95c.06.04.09.12.09.19,0,.21-.24.21-.58.27-.24.34-.54.76-1.08,1.47.18.15.25.2.25.3,0,.09-.06.18-.39.42-.04.65-.04,1.23-.04,1.7,0,.64.04,3.54.04,4.12,0,.78,0,1.2-.66,1.2-.27,0-.53-.09-.53-.42,0-.19.09-1.05.09-1.21.04-.91.03-1.3.06-4.72-1.08,1.09-1.91,1.54-2.2,1.71l-.06-.11Zm.06-4.39c2.1-1.96,3.31-3.93,3.48-4.56l1.12.81s.12.11.12.18c0,.17-.06.18-.63.3-1.3,1.74-2.74,2.7-4.02,3.39l-.08-.12Zm11.95.79l.54-.75c.12-.18.18-.2.22-.2.09,0,.15.06.29.16l.88.75c.09.08.15.14.15.23,0,.15-.12.17-.23.17h-5.34l1.4.45c.09.03.19.07.19.18,0,.2-.36.41-.46.45v1.48h1.54l.54-.64c.12-.13.15-.18.24-.18.08,0,.12.03.29.17l.75.63c.08.06.15.12.15.23,0,.13-.12.17-.23.17h-3.28c0,.21-.02,3.22-.02,3.3.35.04,1.16.16,2.23.16,1.38,0,2.07-.2,2.42-.27l.02.06c-.24.19-.73.6-.87,1.46-.24.01-.5.04-.86.04-4.83,0-5.62-2.71-5.97-3.95-.38,1.04-1.08,2.84-3.01,3.87l-.05-.06c2.22-2.5,2.45-5.42,2.45-6.04,0-.35-.03-.53-.06-.67l1.53.49c.09.03.17.08.17.21,0,.08-.03.12-.08.17-.06.04-.38.2-.44.23-.15.71-.27,1.06-.4,1.47.66,1.47,1.47,2.22,1.94,2.49,0-3.95,0-4.2-.03-4.82-.01-.18-.1-.92-.12-1.06h-1.58c-.38,0-1.09.01-1.77.13l-.3-.6c1.04.09,2.1.1,2.31.1h1.45c0-.88,0-1.83-.01-2.64h-1.16c-.27,0-1.03,0-1.75.13l-.3-.58c.93.08,1.86.09,2.31.09h.9c-.03-1.44-.05-1.56-.27-2.32l1.56.46c.12.03.21.07.21.18s-.37.43-.45.5v1.18h1.47l.59-.72c.09-.1.14-.18.24-.18s.15.04.27.15l.79.72c.08.07.15.13.15.24,0,.14-.13.15-.23.15h-3.3v2.64h2.37Z"/>
      <path class="cls-2" d="m382.9,35.89h-6.69l.52.12c.31.08.38.08.38.21,0,.12-.05.18-.38.36,0,.42.06,2.31.06,2.68,0,.9,0,1.35-1.57,1.8-.16-.63-.62-1.05-1.27-1.38v-.09c.19,0,1.06.06,1.24.06.54,0,.54-.02.56-.56.02-.7,0-2.41-.02-3.21h-4.08c-.38,0-1.1.01-1.77.13l-.3-.6c1.02.09,2.08.11,2.31.11h.71c0-2.66,0-2.94-.23-3.78l1.47.41c.22.06.28.12.28.25,0,.12-.04.17-.46.45v2.67h2.05c0-3.38,0-3.75-.03-4.26-.02-.33-.06-.67-.16-1.47l1.38.38c.16.05.29.09.29.25,0,.1,0,.17-.45.42v1.93h2.16l.59-.85c.06-.08.15-.2.24-.2.08,0,.18.09.27.17l.96.85c.09.09.15.14.15.23,0,.15-.12.17-.22.17h-4.14v2.38h4.12l.7-.9c.09-.12.18-.19.24-.19.08,0,.18.07.27.17l.9.9c.1.11.15.16.15.23,0,.15-.12.16-.23.16Zm-8.52,1.81c-.06.03-.24.08-.37.12-1.01,1.68-2.4,2.95-4.07,3.93l-.06-.08c1.6-1.69,2.7-3.69,2.91-4.18.12-.27.2-.54.29-.9l1.17.62c.13.08.25.13.25.32,0,.08-.04.15-.12.18Zm4.59,2.67c-2.4,2.1-4.77,3.46-8.43,3.58v-.11c2.22-.55,4.5-1.42,6.65-3.4.5-.45,1.02-.95,1.34-1.49l.91.9c.12.12.18.19.18.29,0,.18-.06.18-.65.22Zm2.61.39c-.44,0-.65-.33-.93-.79-.94-1.54-1.71-2.25-2.71-2.97l.06-.09c2.68.64,4.18,2.29,4.18,3.21,0,.31-.24.64-.6.64Z"/>
      <path class="cls-2" d="m395.54,31.65h.61v7.62h1.69v.48h-1.69v1.74c0,.66.33.91,1.05.91h.24v.48h-3.81v-.48h.24c.7,0,1.05-.24,1.05-.91v-1.74h-4.03v-.53l4.65-7.57Zm-.62,1.98l-3.46,5.64h3.46v-5.64Z"/>
      <path class="cls-2" d="m403.12,32.53c-1.24,2.55-3.51,4.47-4.65,5.1l-.08-.1c2.1-2.38,3.28-4.49,3.63-5.49.13-.38.19-.67.24-.96l1.29.87c.08.04.19.13.19.24,0,.18-.39.29-.63.34Zm5.44,4.7c-.15,5.4-.45,6.49-3.15,6.73-.06-.95-.79-1.44-1.12-1.65l.02-.1c.63.13,1.27.25,1.74.25.72,0,1.01-.17,1.23-1.53.18-1.11.27-3.61.23-4.32h-3.03c-.09,2.35-1.09,6.42-5.82,7.29l-.03-.12c3.04-1.41,4.59-3.67,4.74-7.17h-.43c-.38,0-1.1.01-1.77.15l-.29-.6c.93.08,1.85.09,2.29.09h4.25l.4-.36c.09-.09.18-.16.27-.16.08,0,.15.07.21.13l.6.66c.08.07.14.17.14.24,0,.14-.05.17-.47.47Zm2.73-.02c-1.61-.69-3.39-2.31-4.51-5.7h-1.2c-.75,0-1.05.06-1.26.09l-.2-.53c.68.06,1.33.08,1.64.08h.75l.48-.48c.13-.13.19-.16.27-.16.09,0,.15.07.25.16l.56.54c.09.08.12.14.12.23,0,.3-.69.42-.96.46.72,1.93,3.21,3.85,5.5,4.02l.02.15c-.84.25-1.19.73-1.46,1.14Z"/>
      <path class="cls-2" d="m413.42,44.44l-.13-.21c2.79-2.95,2.85-5.95,2.85-7.05s-.06-4.09-2.85-7.05l.13-.21c2.34,1.87,3.56,4.57,3.56,7.26s-1.22,5.38-3.56,7.26Z"/>
      <path class="cls-2" d="m290.26,74.44c-2.34-1.88-3.55-4.57-3.55-7.26s1.21-5.38,3.55-7.26l.14.21c-2.79,2.95-2.85,5.95-2.85,7.05s.06,4.1,2.85,7.05l-.14.21Z"/>
      <path class="cls-2" d="m297.65,63.19c.12.06.19.15.19.27,0,.14-.17.23-.63.32-.19.24-.61.73-1.26,1.53-.57.69-1.06,1.24-1.47,1.66.08,0,1.34-.06,2.13-.17-.06-.1-.24-.45-.61-.85l.08-.09c1.17.45,2.07,1.12,2.07,1.81,0,.29-.17.62-.57.62-.36,0-.51-.18-.64-.69-.02-.05-.08-.26-.16-.48l-1.37.3c0,.65.04,3.72.04,4,.02.3.06,1.65.06,1.92,0,.39-.34.65-.72.65-.31,0-.41-.2-.41-.45,0-.24.06-1.23.06-1.44.02-.48.03-1.95.04-4.48-.94.21-1.69.38-1.89.42-.09.15-.24.43-.38.43-.15,0-.24-.18-.27-.27l-.33-1.28c.25.06.69.11,1.06.11.46,0,1.15-.02,1.4-.03,1.02-1.38,1.94-3.29,2.15-3.88.06-.15.09-.42.09-.6l1.34.67Zm-5.92,9.87c.65-1.45,1.08-3.36,1.05-4.38l1.23.45c.1.04.21.13.21.21,0,.11-.09.18-.48.33-.48,1.4-.91,2.24-1.93,3.43l-.08-.05Zm.57-9.85c.42.11.91.24,1.29.42.42-.84,1.08-2.47.99-3.36l1.42.71c.12.06.18.15.18.22,0,.22-.23.27-.57.33-.71.9-.81,1.04-1.83,2.21.43.27.88.67.88,1.18,0,.34-.23.72-.61.72-.35,0-.44-.18-.77-.91-.35-.78-.69-1.11-1-1.42v-.09Zm3.54,5.71c.61.27,2.11.95,2.11,1.96,0,.48-.34.74-.66.74-.41,0-.48-.3-.68-.99-.21-.78-.49-1.21-.82-1.65l.04-.06Zm7.17-4.84l.45-.42c.08-.08.17-.16.21-.16.06,0,.17.09.21.13l.72.62c.07.06.13.15.13.22,0,.11-.28.32-.55.51-.09,4.15-.12,6.01-.92,7.54-.56,1.07-1.5,1.46-2.33,1.47-.12-.71-.58-1.17-1.36-1.7l.02-.09c.69.13,1.6.3,1.99.3,1.52,0,1.59-4.95,1.59-6.5,0-.25-.01-1.32-.01-1.57h-4.05c-.74,1.39-1.25,1.9-1.47,2.14l-.09-.06c1.11-2.21,1.62-4.74,1.62-5.52,0-.15-.05-.43-.08-.57l1.62.69c.07.03.17.11.17.21,0,.15-.23.25-.59.42-.16.48-.43,1.23-.99,2.33h3.7Zm-4.1,2.87c1.43.58,2.13,1.06,2.13,1.88,0,.36-.18.71-.6.71-.39,0-.51-.17-.84-1.2-.12-.39-.4-.9-.75-1.29l.06-.09Z"/>
      <path class="cls-2" d="m311.53,67.78c.69.59,1.02,1.34,1.02,2.22,0,1.84-1.52,3.16-3.5,3.16-1.62,0-2.98-.91-2.98-2.12,0-.66.44-.96.86-.96.51,0,.74.44.74.75,0,.23-.05.36-.09.48-.03.09-.04.19-.04.34,0,.57.64.99,1.35.99,1.15,0,2.32-1.14,2.32-2.66s-1.14-2.75-2.34-2.75c-.09,0-.51.06-.6.06-.22,0-.33-.14-.33-.32,0-.2.15-.34.34-.34.09,0,.54.09.64.09,1.26,0,2.05-1.12,2.05-2.34s-.7-2.25-1.89-2.25c-.79,0-1.21.57-1.21,1,0,.08.03.15.04.23.03.1.04.25.04.36,0,.46-.35.83-.77.83-.49,0-.75-.44-.75-.83,0-.83.96-2.1,2.88-2.1s3,1.2,3,2.52c0,.53-.19,1.04-.55,1.53-.62.81-1.29,1.06-1.91,1.27.69.21,1.14.36,1.67.81Z"/>
      <path class="cls-2" d="m319.78,61.93v.8c-2.38,3.67-3.23,5.76-3.42,9.1-.03.39-.08,1.33-.84,1.33-.38,0-.77-.32-.77-.83,0-1.06,1.05-4.21,4.21-9.22h-2.56c-2.17,0-2.5,1-2.84,1.96l-.45-.1.61-3.05h6.05Z"/>
      <path class="cls-2" d="m323.56,73.17c-1.04,0-1.91-.72-2.46-1.62-.63-1.04-.92-2.88-.92-4.27,0-3.2,1.36-5.62,3.38-5.62,1.55,0,3.37,1.67,3.37,5.76,0,3.67-1.54,5.76-3.37,5.76Zm-1.68-9.01c-.21.75-.34,2.01-.34,3.25,0,3.34.8,5.25,2.02,5.25,1.03,0,1.5-1.38,1.66-1.95.21-.76.36-2.04.36-3.3,0-3.42-.83-5.25-2.02-5.25-1.06,0-1.53,1.47-1.68,2Z"/>
      <path class="cls-2" d="m329.56,65.5v1.19c.4-.41,1.19-1.19,2.47-1.19,1.41,0,1.68.91,1.8,1.35.51-.5,1.33-1.35,2.68-1.35s1.92.79,1.92,2.46v3.54c0,.57.3.9.75.9h.29v.48h-3.13v-.48h.27c.52,0,.76-.4.76-.9v-3.45c0-.42-.07-1.9-1.32-1.9-.42,0-1.36.24-2.11,1.3,0,.12.01.24.01.51v3.54c0,.63.35.9.75.9h.44v.48h-3.43v-.48h.43c.41,0,.75-.28.75-.9v-3.45c0-.31-.03-1.9-1.3-1.9-.36,0-1.32.19-2.02,1.18v4.17c0,.63.36.9.75.9h.27v.48h-3.12v-.48h.27c.45,0,.75-.31.75-.9v-4.51c0-.46-.25-.71-.61-.71-.16,0-.32.01-.45.06l-.06-.29,2.2-.55Z"/>
      <path class="cls-2" d="m340.63,73.96l-.3-.3,13.26-13.26.3.3-13.26,13.26Z"/>
      <path class="cls-2" d="m354.44,69.27c1.44-1.42,3.09-3.99,3.51-4.98.12-.3.18-.48.29-.88l1.21.95c.06.04.09.12.09.19,0,.21-.24.21-.58.27-.24.34-.54.76-1.08,1.47.18.15.25.2.25.3,0,.09-.06.18-.39.42-.04.65-.04,1.23-.04,1.7,0,.64.04,3.54.04,4.12,0,.78,0,1.2-.66,1.2-.27,0-.53-.09-.53-.42,0-.19.09-1.05.09-1.21.04-.91.03-1.3.06-4.72-1.08,1.09-1.91,1.54-2.2,1.71l-.06-.11Zm.06-4.39c2.1-1.96,3.31-3.93,3.48-4.56l1.12.81s.12.11.12.18c0,.17-.06.18-.63.3-1.3,1.74-2.74,2.7-4.02,3.39l-.08-.12Zm11.95.79l.54-.75c.12-.18.18-.2.22-.2.09,0,.15.06.29.16l.88.75c.09.08.15.14.15.23,0,.15-.12.17-.23.17h-5.34l1.4.45c.09.03.19.07.19.18,0,.2-.36.41-.46.45v1.48h1.54l.54-.64c.12-.13.15-.18.24-.18.08,0,.12.03.29.17l.75.63c.08.06.15.12.15.23,0,.13-.12.17-.23.17h-3.28c0,.21-.02,3.22-.02,3.3.35.04,1.16.16,2.23.16,1.38,0,2.07-.2,2.42-.27l.02.06c-.24.19-.73.6-.87,1.46-.24.01-.5.04-.86.04-4.83,0-5.62-2.71-5.97-3.95-.38,1.04-1.08,2.84-3.01,3.87l-.05-.06c2.22-2.5,2.45-5.42,2.45-6.04,0-.35-.03-.53-.06-.67l1.53.49c.09.03.17.08.17.21,0,.08-.03.12-.08.17-.06.04-.38.2-.44.23-.15.71-.27,1.06-.4,1.47.66,1.47,1.47,2.22,1.94,2.49,0-3.95,0-4.2-.03-4.82-.01-.18-.1-.92-.12-1.06h-1.58c-.38,0-1.09.01-1.77.13l-.3-.6c1.04.09,2.1.1,2.31.1h1.45c0-.88,0-1.83-.01-2.64h-1.16c-.27,0-1.03,0-1.75.13l-.3-.58c.93.08,1.86.09,2.31.09h.9c-.03-1.44-.05-1.56-.27-2.32l1.56.46c.12.03.21.07.21.18s-.37.43-.45.5v1.18h1.47l.59-.72c.09-.1.14-.18.24-.18s.15.04.27.15l.79.72c.08.07.15.13.15.24,0,.14-.13.15-.23.15h-3.3v2.64h2.37Z"/>
      <path class="cls-2" d="m382.9,65.89h-6.69l.52.12c.31.08.38.08.38.21,0,.12-.05.18-.38.36,0,.42.06,2.31.06,2.68,0,.9,0,1.35-1.57,1.8-.16-.63-.62-1.05-1.27-1.38v-.09c.19,0,1.06.06,1.24.06.54,0,.54-.02.56-.56.02-.7,0-2.41-.02-3.21h-4.08c-.38,0-1.1.01-1.77.13l-.3-.6c1.02.09,2.08.11,2.31.11h.71c0-2.66,0-2.94-.23-3.78l1.47.41c.22.06.28.12.28.25,0,.12-.04.17-.46.45v2.67h2.05c0-3.38,0-3.75-.03-4.26-.02-.33-.06-.67-.16-1.47l1.38.38c.16.05.29.09.29.25,0,.1,0,.17-.45.42v1.93h2.16l.59-.85c.06-.08.15-.2.24-.2.08,0,.18.09.27.17l.96.85c.09.09.15.14.15.23,0,.15-.12.17-.22.17h-4.14v2.38h4.12l.7-.9c.09-.12.18-.19.24-.19.08,0,.18.07.27.17l.9.9c.1.11.15.16.15.23,0,.15-.12.16-.23.16Zm-8.52,1.81c-.06.03-.24.08-.37.12-1.01,1.68-2.4,2.95-4.07,3.93l-.06-.08c1.6-1.69,2.7-3.69,2.91-4.18.12-.27.2-.54.29-.9l1.17.62c.13.08.25.13.25.32,0,.08-.04.15-.12.18Zm4.59,2.67c-2.4,2.1-4.77,3.46-8.43,3.58v-.11c2.22-.55,4.5-1.42,6.65-3.4.5-.45,1.02-.95,1.34-1.49l.91.9c.12.12.18.19.18.29,0,.18-.06.18-.65.22Zm2.61.39c-.44,0-.65-.33-.93-.79-.94-1.54-1.71-2.25-2.71-2.97l.06-.09c2.68.64,4.18,2.29,4.18,3.21,0,.31-.24.64-.6.64Z"/>
      <path class="cls-2" d="m392.26,63.12l-.13,3.78c.64-.57,1.21-1.04,2.32-1.04,2.16,0,3.19,1.79,3.19,3.43,0,2.17-1.72,3.87-3.7,3.87-1.71,0-2.83-1.28-2.83-2.21,0-.57.36-.93.87-.93.45,0,.78.3.78.78,0,.15-.02.21-.08.45-.03.12-.05.33-.05.42,0,.65.68.98,1.27.98,1.22,0,2.36-1.16,2.36-3.16,0-1.91-1-2.96-2.1-2.96-.6,0-1.52.33-2.34,1.3l-.22-.12.22-5.79h5.22l-.3,1.18h-4.48Z"/>
      <path class="cls-2" d="m403.12,62.53c-1.24,2.55-3.51,4.47-4.65,5.1l-.08-.1c2.1-2.38,3.28-4.49,3.63-5.49.13-.38.19-.67.24-.96l1.29.87c.08.04.19.13.19.24,0,.18-.39.29-.63.34Zm5.44,4.7c-.15,5.4-.45,6.49-3.15,6.73-.06-.95-.79-1.44-1.12-1.65l.02-.1c.63.13,1.27.25,1.74.25.72,0,1.01-.17,1.23-1.53.18-1.11.27-3.61.23-4.32h-3.03c-.09,2.35-1.09,6.42-5.82,7.29l-.03-.12c3.04-1.41,4.59-3.67,4.74-7.17h-.43c-.38,0-1.1.01-1.77.15l-.29-.6c.93.08,1.85.09,2.29.09h4.25l.4-.36c.09-.09.18-.16.27-.16.08,0,.15.07.21.13l.6.66c.08.07.14.17.14.24,0,.14-.05.17-.47.47Zm2.73-.02c-1.61-.69-3.39-2.31-4.51-5.7h-1.2c-.75,0-1.05.06-1.26.09l-.2-.53c.68.06,1.33.08,1.64.08h.75l.48-.48c.13-.13.19-.16.27-.16.09,0,.15.07.25.16l.56.54c.09.08.12.14.12.23,0,.3-.69.42-.96.46.72,1.93,3.21,3.85,5.5,4.02l.02.15c-.84.25-1.19.73-1.46,1.14Z"/>
      <path class="cls-2" d="m413.42,74.44l-.13-.21c2.79-2.95,2.85-5.95,2.85-7.05s-.06-4.09-2.85-7.05l.13-.21c2.34,1.87,3.56,4.57,3.56,7.26s-1.22,5.38-3.56,7.26Z"/>
      <path class="cls-2" d="m290.26,104.44c-2.34-1.88-3.55-4.57-3.55-7.26s1.21-5.38,3.55-7.26l.14.21c-2.79,2.95-2.85,5.95-2.85,7.05s.06,4.1,2.85,7.05l-.14.21Z"/>
      <path class="cls-2" d="m297.65,93.19c.12.06.19.15.19.27,0,.14-.17.23-.63.32-.19.24-.61.73-1.26,1.53-.57.69-1.06,1.24-1.47,1.66.08,0,1.34-.06,2.13-.17-.06-.1-.24-.45-.61-.85l.08-.09c1.17.45,2.07,1.12,2.07,1.81,0,.29-.17.62-.57.62-.36,0-.51-.18-.64-.69-.02-.05-.08-.26-.16-.48l-1.37.3c0,.65.04,3.72.04,4,.02.3.06,1.65.06,1.92,0,.39-.34.65-.72.65-.31,0-.41-.2-.41-.45,0-.24.06-1.23.06-1.44.02-.48.03-1.95.04-4.48-.94.21-1.69.38-1.89.42-.09.15-.24.43-.38.43-.15,0-.24-.18-.27-.27l-.33-1.28c.25.06.69.11,1.06.11.46,0,1.15-.02,1.4-.03,1.02-1.38,1.94-3.29,2.15-3.88.06-.15.09-.42.09-.6l1.34.67Zm-5.92,9.87c.65-1.45,1.08-3.36,1.05-4.38l1.23.45c.1.04.21.13.21.21,0,.11-.09.18-.48.33-.48,1.4-.91,2.24-1.93,3.43l-.08-.05Zm.57-9.85c.42.11.91.24,1.29.42.42-.84,1.08-2.47.99-3.36l1.42.71c.12.06.18.15.18.22,0,.22-.23.27-.57.33-.71.9-.81,1.04-1.83,2.21.43.27.88.67.88,1.18,0,.34-.23.72-.61.72-.35,0-.44-.18-.77-.91-.35-.78-.69-1.11-1-1.42v-.09Zm3.54,5.71c.61.27,2.11.95,2.11,1.96,0,.48-.34.74-.66.74-.41,0-.48-.3-.68-.99-.21-.78-.49-1.21-.82-1.65l.04-.06Zm7.17-4.84l.45-.42c.08-.08.17-.16.21-.16.06,0,.17.09.21.13l.72.62c.07.06.13.15.13.22,0,.11-.28.32-.55.51-.09,4.15-.12,6.01-.92,7.54-.56,1.07-1.5,1.46-2.33,1.47-.12-.71-.58-1.17-1.36-1.7l.02-.09c.69.13,1.6.3,1.99.3,1.52,0,1.59-4.95,1.59-6.5,0-.25-.01-1.32-.01-1.57h-4.05c-.74,1.39-1.25,1.9-1.47,2.14l-.09-.06c1.11-2.21,1.62-4.74,1.62-5.52,0-.15-.05-.43-.08-.57l1.62.69c.07.03.17.11.17.21,0,.15-.23.25-.59.42-.16.48-.43,1.23-.99,2.33h3.7Zm-4.1,2.87c1.43.58,2.13,1.06,2.13,1.88,0,.36-.18.71-.6.71-.39,0-.51-.17-.84-1.2-.12-.39-.4-.9-.75-1.29l.06-.09Z"/>
      <path class="cls-2" d="m311.53,97.78c.69.59,1.02,1.34,1.02,2.22,0,1.84-1.52,3.16-3.5,3.16-1.62,0-2.98-.91-2.98-2.12,0-.66.44-.96.86-.96.51,0,.74.44.74.75,0,.23-.05.36-.09.48-.03.09-.04.19-.04.34,0,.57.64.99,1.35.99,1.15,0,2.32-1.14,2.32-2.66s-1.14-2.75-2.34-2.75c-.09,0-.51.06-.6.06-.22,0-.33-.14-.33-.32,0-.2.15-.34.34-.34.09,0,.54.09.64.09,1.26,0,2.05-1.12,2.05-2.34s-.7-2.25-1.89-2.25c-.79,0-1.21.57-1.21,1,0,.08.03.15.04.23.03.1.04.25.04.36,0,.46-.35.83-.77.83-.49,0-.75-.44-.75-.83,0-.83.96-2.1,2.88-2.1s3,1.2,3,2.52c0,.53-.19,1.04-.55,1.53-.62.81-1.29,1.06-1.91,1.27.69.21,1.14.36,1.67.81Z"/>
      <path class="cls-2" d="m319.82,99.87c0,1.74-1.36,3.3-3.54,3.3-1.71,0-3.24-.99-3.24-2.7,0-1.62,1.29-2.38,2.67-3.19-.79-.47-2.23-1.31-2.23-2.94,0-1.48,1.17-2.68,3-2.68,2.05,0,2.74,1.53,2.74,2.37,0,1.27-1.23,2.2-1.87,2.68,1.41.87,2.47,1.62,2.47,3.17Zm-5.52.55c0,1.32.99,2.24,2.16,2.24,1.31,0,2.28-1.16,2.28-2.27,0-1.42-1.48-2.26-2.58-2.88-.68.51-1.86,1.42-1.86,2.91Zm3.82-6.24c0-1.14-.77-2.03-1.86-2.03s-1.77.81-1.77,1.79c0,1.05.85,1.58,2.41,2.5.44-.38,1.21-1.02,1.21-2.26Z"/>
      <path class="cls-2" d="m323.56,103.17c-1.04,0-1.91-.72-2.46-1.62-.63-1.04-.92-2.88-.92-4.27,0-3.2,1.36-5.62,3.38-5.62,1.55,0,3.37,1.67,3.37,5.76,0,3.67-1.54,5.76-3.37,5.76Zm-1.68-9.01c-.21.75-.34,2.01-.34,3.25,0,3.34.8,5.25,2.02,5.25,1.03,0,1.5-1.38,1.66-1.95.21-.76.36-2.04.36-3.3,0-3.42-.83-5.25-2.02-5.25-1.06,0-1.53,1.47-1.68,2Z"/>
      <path class="cls-2" d="m329.56,95.5v1.19c.4-.41,1.19-1.19,2.47-1.19,1.41,0,1.68.91,1.8,1.35.51-.5,1.33-1.35,2.68-1.35s1.92.79,1.92,2.46v3.54c0,.57.3.9.75.9h.29v.48h-3.13v-.48h.27c.52,0,.76-.4.76-.9v-3.45c0-.42-.07-1.9-1.32-1.9-.42,0-1.36.24-2.11,1.3,0,.12.01.24.01.51v3.54c0,.63.35.9.75.9h.44v.48h-3.43v-.48h.43c.41,0,.75-.28.75-.9v-3.45c0-.31-.03-1.9-1.3-1.9-.36,0-1.32.19-2.02,1.18v4.17c0,.63.36.9.75.9h.27v.48h-3.12v-.48h.27c.45,0,.75-.31.75-.9v-4.51c0-.46-.25-.71-.61-.71-.16,0-.32.01-.45.06l-.06-.29,2.2-.55Z"/>
      <path class="cls-2" d="m340.63,103.96l-.3-.3,13.26-13.26.3.3-13.26,13.26Z"/>
      <path class="cls-2" d="m354.44,99.27c1.44-1.42,3.09-3.99,3.51-4.98.12-.3.18-.48.29-.88l1.21.95c.06.04.09.12.09.19,0,.21-.24.21-.58.27-.24.34-.54.76-1.08,1.47.18.15.25.2.25.3,0,.09-.06.18-.39.42-.04.65-.04,1.23-.04,1.7,0,.64.04,3.54.04,4.12,0,.78,0,1.2-.66,1.2-.27,0-.53-.09-.53-.42,0-.19.09-1.05.09-1.21.04-.91.03-1.3.06-4.72-1.08,1.09-1.91,1.54-2.2,1.71l-.06-.11Zm.06-4.39c2.1-1.96,3.31-3.93,3.48-4.56l1.12.81s.12.11.12.18c0,.17-.06.18-.63.3-1.3,1.74-2.74,2.7-4.02,3.39l-.08-.12Zm11.95.79l.54-.75c.12-.18.18-.2.22-.2.09,0,.15.06.29.16l.88.75c.09.08.15.14.15.23,0,.15-.12.17-.23.17h-5.34l1.4.45c.09.03.19.07.19.18,0,.2-.36.41-.46.45v1.48h1.54l.54-.64c.12-.13.15-.18.24-.18.08,0,.12.03.29.17l.75.63c.08.06.15.12.15.23,0,.13-.12.17-.23.17h-3.28c0,.21-.02,3.22-.02,3.3.35.04,1.16.16,2.23.16,1.38,0,2.07-.2,2.42-.27l.02.06c-.24.19-.73.6-.87,1.46-.24.01-.5.04-.86.04-4.83,0-5.62-2.71-5.97-3.95-.38,1.04-1.08,2.84-3.01,3.87l-.05-.06c2.22-2.5,2.45-5.42,2.45-6.04,0-.35-.03-.53-.06-.67l1.53.49c.09.03.17.08.17.21,0,.08-.03.12-.08.17-.06.04-.38.2-.44.23-.15.71-.27,1.06-.4,1.47.66,1.47,1.47,2.22,1.94,2.49,0-3.95,0-4.2-.03-4.82-.01-.18-.1-.92-.12-1.06h-1.58c-.38,0-1.09.01-1.77.13l-.3-.6c1.04.09,2.1.1,2.31.1h1.45c0-.88,0-1.83-.01-2.64h-1.16c-.27,0-1.03,0-1.75.13l-.3-.58c.93.08,1.86.09,2.31.09h.9c-.03-1.44-.05-1.56-.27-2.32l1.56.46c.12.03.21.07.21.18s-.37.43-.45.5v1.18h1.47l.59-.72c.09-.1.14-.18.24-.18s.15.04.27.15l.79.72c.08.07.15.13.15.24,0,.14-.13.15-.23.15h-3.3v2.64h2.37Z"/>
      <path class="cls-2" d="m382.9,95.89h-6.69l.52.12c.31.08.38.08.38.21,0,.12-.05.18-.38.36,0,.42.06,2.31.06,2.68,0,.9,0,1.35-1.57,1.8-.16-.63-.62-1.05-1.27-1.38v-.09c.19,0,1.06.06,1.24.06.54,0,.54-.02.56-.56.02-.7,0-2.41-.02-3.21h-4.08c-.38,0-1.1.01-1.77.13l-.3-.6c1.02.09,2.08.11,2.31.11h.71c0-2.66,0-2.94-.23-3.78l1.47.41c.22.06.28.12.28.25,0,.12-.04.17-.46.45v2.67h2.05c0-3.38,0-3.75-.03-4.26-.02-.33-.06-.67-.16-1.47l1.38.38c.16.05.29.09.29.25,0,.1,0,.17-.45.42v1.93h2.16l.59-.85c.06-.08.15-.2.24-.2.08,0,.18.09.27.17l.96.85c.09.09.15.14.15.23,0,.15-.12.17-.22.17h-4.14v2.38h4.12l.7-.9c.09-.12.18-.19.24-.19.08,0,.18.07.27.17l.9.9c.1.11.15.16.15.23,0,.15-.12.16-.23.16Zm-8.52,1.81c-.06.03-.24.08-.37.12-1.01,1.68-2.4,2.95-4.07,3.93l-.06-.08c1.6-1.69,2.7-3.69,2.91-4.18.12-.27.2-.54.29-.9l1.17.62c.13.08.25.13.25.32,0,.08-.04.15-.12.18Zm4.59,2.67c-2.4,2.1-4.77,3.46-8.43,3.58v-.11c2.22-.55,4.5-1.42,6.65-3.4.5-.45,1.02-.95,1.34-1.49l.91.9c.12.12.18.19.18.29,0,.18-.06.18-.65.22Zm2.61.39c-.44,0-.65-.33-.93-.79-.94-1.54-1.71-2.25-2.71-2.97l.06-.09c2.68.64,4.18,2.29,4.18,3.21,0,.31-.24.64-.6.64Z"/>
      <path class="cls-2" d="m392.26,93.12l-.13,3.78c.64-.57,1.21-1.04,2.32-1.04,2.16,0,3.19,1.79,3.19,3.43,0,2.17-1.72,3.87-3.7,3.87-1.71,0-2.83-1.28-2.83-2.21,0-.57.36-.93.87-.93.45,0,.78.3.78.78,0,.15-.02.21-.08.45-.03.12-.05.33-.05.42,0,.65.68.98,1.27.98,1.22,0,2.36-1.16,2.36-3.16,0-1.91-1-2.96-2.1-2.96-.6,0-1.52.33-2.34,1.3l-.22-.12.22-5.79h5.22l-.3,1.18h-4.48Z"/>
      <path class="cls-2" d="m403.12,92.53c-1.24,2.55-3.51,4.47-4.65,5.1l-.08-.1c2.1-2.38,3.28-4.49,3.63-5.49.13-.38.19-.67.24-.96l1.29.87c.08.04.19.13.19.24,0,.18-.39.29-.63.34Zm5.44,4.7c-.15,5.4-.45,6.49-3.15,6.73-.06-.95-.79-1.44-1.12-1.65l.02-.1c.63.13,1.27.25,1.74.25.72,0,1.01-.17,1.23-1.53.18-1.11.27-3.61.23-4.32h-3.03c-.09,2.35-1.09,6.42-5.82,7.29l-.03-.12c3.04-1.41,4.59-3.67,4.74-7.17h-.43c-.38,0-1.1.01-1.77.15l-.29-.6c.93.08,1.85.09,2.29.09h4.25l.4-.36c.09-.09.18-.16.27-.16.08,0,.15.07.21.13l.6.66c.08.07.14.17.14.24,0,.14-.05.17-.47.47Zm2.73-.02c-1.61-.69-3.39-2.31-4.51-5.7h-1.2c-.75,0-1.05.06-1.26.09l-.2-.53c.68.06,1.33.08,1.64.08h.75l.48-.48c.13-.13.19-.16.27-.16.09,0,.15.07.25.16l.56.54c.09.08.12.14.12.23,0,.3-.69.42-.96.46.72,1.93,3.21,3.85,5.5,4.02l.02.15c-.84.25-1.19.73-1.46,1.14Z"/>
      <path class="cls-2" d="m413.42,104.44l-.13-.21c2.79-2.95,2.85-5.95,2.85-7.05s-.06-4.09-2.85-7.05l.13-.21c2.34,1.87,3.56,4.57,3.56,7.26s-1.22,5.38-3.56,7.26Z"/>
      <path class="cls-2" d="m290.26,134.44c-2.34-1.88-3.55-4.57-3.55-7.26s1.21-5.38,3.55-7.26l.14.21c-2.79,2.95-2.85,5.95-2.85,7.05s.06,4.1,2.85,7.05l-.14.21Z"/>
      <path class="cls-2" d="m297.65,123.19c.12.06.19.15.19.27,0,.14-.17.23-.63.32-.19.24-.61.73-1.26,1.53-.57.69-1.06,1.24-1.47,1.66.08,0,1.34-.06,2.13-.17-.06-.1-.24-.45-.61-.85l.08-.09c1.17.45,2.07,1.12,2.07,1.81,0,.29-.17.62-.57.62-.36,0-.51-.18-.64-.69-.02-.05-.08-.26-.16-.48l-1.37.3c0,.65.04,3.72.04,4,.02.3.06,1.65.06,1.92,0,.39-.34.65-.72.65-.31,0-.41-.2-.41-.45,0-.24.06-1.23.06-1.44.02-.48.03-1.95.04-4.48-.94.21-1.69.38-1.89.42-.09.15-.24.43-.38.43-.15,0-.24-.18-.27-.27l-.33-1.28c.25.06.69.11,1.06.11.46,0,1.15-.02,1.4-.03,1.02-1.38,1.94-3.29,2.15-3.88.06-.15.09-.42.09-.6l1.34.67Zm-5.92,9.87c.65-1.45,1.08-3.36,1.05-4.38l1.23.45c.1.04.21.13.21.21,0,.11-.09.18-.48.33-.48,1.4-.91,2.24-1.93,3.43l-.08-.05Zm.57-9.85c.42.11.91.24,1.29.42.42-.84,1.08-2.47.99-3.36l1.42.71c.12.06.18.15.18.22,0,.22-.23.27-.57.33-.71.9-.81,1.04-1.83,2.21.43.27.88.67.88,1.18,0,.34-.23.72-.61.72-.35,0-.44-.18-.77-.91-.35-.78-.69-1.11-1-1.42v-.09Zm3.54,5.71c.61.27,2.11.95,2.11,1.96,0,.48-.34.74-.66.74-.41,0-.48-.3-.68-.99-.21-.78-.49-1.21-.82-1.65l.04-.06Zm7.17-4.84l.45-.42c.08-.08.17-.16.21-.16.06,0,.17.09.21.13l.72.62c.07.06.13.15.13.22,0,.11-.28.32-.55.51-.09,4.15-.12,6.01-.92,7.54-.56,1.07-1.5,1.46-2.33,1.47-.12-.71-.58-1.17-1.36-1.7l.02-.09c.69.13,1.6.3,1.99.3,1.52,0,1.59-4.95,1.59-6.5,0-.25-.01-1.32-.01-1.57h-4.05c-.74,1.39-1.25,1.9-1.47,2.14l-.09-.06c1.11-2.21,1.62-4.74,1.62-5.52,0-.15-.05-.43-.08-.57l1.62.69c.07.03.17.11.17.21,0,.15-.23.25-.59.42-.16.48-.43,1.23-.99,2.33h3.7Zm-4.1,2.87c1.43.58,2.13,1.06,2.13,1.88,0,.36-.18.71-.6.71-.39,0-.51-.17-.84-1.2-.12-.39-.4-.9-.75-1.29l.06-.09Z"/>
      <path class="cls-2" d="m310.48,121.65h.61v7.62h1.69v.48h-1.69v1.74c0,.66.33.91,1.05.91h.24v.48h-3.81v-.48h.24c.71,0,1.05-.24,1.05-.91v-1.74h-4.03v-.53l4.65-7.57Zm-.62,1.98l-3.46,5.64h3.46v-5.64Z"/>
      <path class="cls-2" d="m318.97,132.88h-5.89v-.41c.3-.94,1-2,2.2-3.36,2.2-2.55,2.95-3.41,2.95-4.91,0-1.12-.72-2.05-2-2.05-1.05,0-1.68.63-1.68,1.17,0,.04,0,.24.15.46.19.3.31.46.31.75,0,.45-.36.84-.81.84-.52,0-.86-.5-.86-1.05,0-1.09,1.07-2.68,3.23-2.68,1.86,0,3,1.17,3,2.79,0,1.51-.87,2.34-2.22,3.49-.51.42-2.49,2.12-3.24,3.77h2.07c2.1,0,2.6-.81,3.04-2.06l.45.17-.72,3.08Z"/>
      <path class="cls-2" d="m323.56,133.17c-1.04,0-1.91-.72-2.46-1.62-.63-1.04-.92-2.88-.92-4.27,0-3.2,1.36-5.62,3.38-5.62,1.55,0,3.37,1.67,3.37,5.76,0,3.67-1.54,5.76-3.37,5.76Zm-1.68-9.01c-.21.75-.34,2.01-.34,3.25,0,3.34.8,5.25,2.02,5.25,1.03,0,1.5-1.38,1.66-1.95.21-.76.36-2.04.36-3.3,0-3.42-.83-5.25-2.02-5.25-1.06,0-1.53,1.47-1.68,2Z"/>
      <path class="cls-2" d="m329.56,125.5v1.19c.4-.41,1.19-1.19,2.47-1.19,1.41,0,1.68.91,1.8,1.35.51-.5,1.33-1.35,2.68-1.35s1.92.79,1.92,2.46v3.54c0,.57.3.9.75.9h.29v.48h-3.13v-.48h.27c.52,0,.76-.4.76-.9v-3.45c0-.42-.07-1.9-1.32-1.9-.42,0-1.36.24-2.11,1.3,0,.12.01.24.01.51v3.54c0,.63.35.9.75.9h.44v.48h-3.43v-.48h.43c.41,0,.75-.28.75-.9v-3.45c0-.31-.03-1.9-1.3-1.9-.36,0-1.32.19-2.02,1.18v4.17c0,.63.36.9.75.9h.27v.48h-3.12v-.48h.27c.45,0,.75-.31.75-.9v-4.51c0-.46-.25-.71-.61-.71-.16,0-.32.01-.45.06l-.06-.29,2.2-.55Z"/>
      <path class="cls-2" d="m340.63,133.96l-.3-.3,13.26-13.26.3.3-13.26,13.26Z"/>
      <path class="cls-2" d="m354.44,129.27c1.44-1.42,3.09-3.99,3.51-4.98.12-.3.18-.48.29-.88l1.21.95c.06.04.09.12.09.19,0,.21-.24.21-.58.27-.24.34-.54.76-1.08,1.47.18.15.25.2.25.3,0,.09-.06.18-.39.42-.04.65-.04,1.23-.04,1.7,0,.64.04,3.54.04,4.12,0,.78,0,1.2-.66,1.2-.27,0-.53-.09-.53-.42,0-.19.09-1.05.09-1.21.04-.91.03-1.3.06-4.72-1.08,1.09-1.91,1.54-2.2,1.71l-.06-.11Zm.06-4.39c2.1-1.96,3.31-3.93,3.48-4.56l1.12.81s.12.11.12.18c0,.17-.06.18-.63.3-1.3,1.74-2.74,2.7-4.02,3.39l-.08-.12Zm11.95.79l.54-.75c.12-.18.18-.2.22-.2.09,0,.15.06.29.16l.88.75c.09.08.15.14.15.23,0,.15-.12.17-.23.17h-5.34l1.4.45c.09.03.19.07.19.18,0,.2-.36.41-.46.45v1.48h1.54l.54-.64c.12-.13.15-.18.24-.18.08,0,.12.03.29.17l.75.63c.08.06.15.12.15.23,0,.13-.12.17-.23.17h-3.28c0,.21-.02,3.22-.02,3.3.35.04,1.16.16,2.23.16,1.38,0,2.07-.2,2.42-.27l.02.06c-.24.19-.73.6-.87,1.46-.24.01-.5.04-.86.04-4.83,0-5.62-2.71-5.97-3.95-.38,1.04-1.08,2.84-3.01,3.87l-.05-.06c2.22-2.5,2.45-5.42,2.45-6.04,0-.35-.03-.53-.06-.67l1.53.49c.09.03.17.08.17.21,0,.08-.03.12-.08.17-.06.04-.38.2-.44.23-.15.71-.27,1.06-.4,1.47.66,1.47,1.47,2.22,1.94,2.49,0-3.95,0-4.2-.03-4.82-.01-.18-.1-.92-.12-1.06h-1.58c-.38,0-1.09.01-1.77.13l-.3-.6c1.04.09,2.1.1,2.31.1h1.45c0-.88,0-1.83-.01-2.64h-1.16c-.27,0-1.03,0-1.75.13l-.3-.58c.93.08,1.86.09,2.31.09h.9c-.03-1.44-.05-1.56-.27-2.32l1.56.46c.12.03.21.07.21.18s-.37.43-.45.5v1.18h1.47l.59-.72c.09-.1.14-.18.24-.18s.15.04.27.15l.79.72c.08.07.15.13.15.24,0,.14-.13.15-.23.15h-3.3v2.64h2.37Z"/>
      <path class="cls-2" d="m382.9,125.89h-6.69l.52.12c.31.08.38.08.38.21,0,.12-.05.18-.38.36,0,.42.06,2.31.06,2.68,0,.9,0,1.35-1.57,1.8-.16-.63-.62-1.05-1.27-1.38v-.09c.19,0,1.06.06,1.24.06.54,0,.54-.02.56-.56.02-.7,0-2.41-.02-3.21h-4.08c-.38,0-1.1.01-1.77.13l-.3-.6c1.02.09,2.08.11,2.31.11h.71c0-2.66,0-2.94-.23-3.78l1.47.41c.22.06.28.12.28.25,0,.12-.04.17-.46.45v2.67h2.05c0-3.38,0-3.75-.03-4.26-.02-.33-.06-.67-.16-1.47l1.38.38c.16.05.29.09.29.25,0,.1,0,.17-.45.42v1.93h2.16l.59-.85c.06-.08.15-.2.24-.2.08,0,.18.09.27.17l.96.85c.09.09.15.14.15.23,0,.15-.12.17-.22.17h-4.14v2.38h4.12l.7-.9c.09-.12.18-.19.24-.19.08,0,.18.07.27.17l.9.9c.1.11.15.16.15.23,0,.15-.12.16-.23.16Zm-8.52,1.81c-.06.03-.24.08-.37.12-1.01,1.68-2.4,2.95-4.07,3.93l-.06-.08c1.6-1.69,2.7-3.69,2.91-4.18.12-.27.2-.54.29-.9l1.17.62c.13.08.25.13.25.32,0,.08-.04.15-.12.18Zm4.59,2.67c-2.4,2.1-4.77,3.46-8.43,3.58v-.11c2.22-.55,4.5-1.42,6.65-3.4.5-.45,1.02-.95,1.34-1.49l.91.9c.12.12.18.19.18.29,0,.18-.06.18-.65.22Zm2.61.39c-.44,0-.65-.33-.93-.79-.94-1.54-1.71-2.25-2.71-2.97l.06-.09c2.68.64,4.18,2.29,4.18,3.21,0,.31-.24.64-.6.64Z"/>
      <path class="cls-2" d="m393.71,126.3c.31-.19.78-.39,1.31-.39,1.48,0,2.68,1.5,2.68,3.31,0,2.08-1.48,3.95-3.21,3.95s-3.45-1.94-3.45-5.17c0-3.46,1.95-6.34,4.25-6.34,1,0,1.71.6,1.71,1.32,0,.54-.42.78-.76.78-.3,0-.79-.2-.83-1.05-.01-.33-.04-.54-.45-.54s-.81.22-1.1.54c-1.33,1.47-1.41,3.67-1.47,5.02.28-.46.6-.99,1.32-1.42Zm-.5,5.55c.26.41.64.81,1.22.81.8,0,1.92-.83,1.92-3.3,0-.68-.17-2.78-1.71-2.78-.57,0-1.53.42-2.23,2.04.06.83.18,2.26.81,3.22Z"/>
      <path class="cls-2" d="m403.12,122.53c-1.24,2.55-3.51,4.47-4.65,5.1l-.08-.1c2.1-2.38,3.28-4.49,3.63-5.49.13-.38.19-.67.24-.96l1.29.87c.08.04.19.13.19.24,0,.18-.39.29-.63.34Zm5.44,4.7c-.15,5.4-.45,6.49-3.15,6.73-.06-.95-.79-1.44-1.12-1.65l.02-.1c.63.13,1.27.25,1.74.25.72,0,1.01-.17,1.23-1.53.18-1.11.27-3.61.23-4.32h-3.03c-.09,2.35-1.09,6.42-5.82,7.29l-.03-.12c3.04-1.41,4.59-3.67,4.74-7.17h-.43c-.38,0-1.1.01-1.77.15l-.29-.6c.93.08,1.85.09,2.29.09h4.25l.4-.36c.09-.09.18-.16.27-.16.08,0,.15.07.21.13l.6.66c.08.07.14.17.14.24,0,.14-.05.17-.47.47Zm2.73-.02c-1.61-.69-3.39-2.31-4.51-5.7h-1.2c-.75,0-1.05.06-1.26.09l-.2-.53c.68.06,1.33.08,1.64.08h.75l.48-.48c.13-.13.19-.16.27-.16.09,0,.15.07.25.16l.56.54c.09.08.12.14.12.23,0,.3-.69.42-.96.46.72,1.93,3.21,3.85,5.5,4.02l.02.15c-.84.25-1.19.73-1.46,1.14Z"/>
      <path class="cls-2" d="m413.42,134.44l-.13-.21c2.79-2.95,2.85-5.95,2.85-7.05s-.06-4.09-2.85-7.05l.13-.21c2.34,1.87,3.56,4.57,3.56,7.26s-1.22,5.38-3.56,7.26Z"/>
      <path class="cls-2" d="m290.26,164.44c-2.34-1.88-3.55-4.57-3.55-7.26s1.21-5.38,3.55-7.26l.14.21c-2.79,2.95-2.85,5.95-2.85,7.05s.06,4.1,2.85,7.05l-.14.21Z"/>
      <path class="cls-2" d="m297.65,153.19c.12.06.19.15.19.27,0,.14-.17.23-.63.32-.19.24-.61.73-1.26,1.53-.57.69-1.06,1.24-1.47,1.66.08,0,1.34-.06,2.13-.17-.06-.1-.24-.45-.61-.85l.08-.09c1.17.45,2.07,1.12,2.07,1.81,0,.29-.17.62-.57.62-.36,0-.51-.18-.64-.69-.02-.05-.08-.26-.16-.48l-1.37.3c0,.65.04,3.72.04,4,.02.3.06,1.65.06,1.92,0,.39-.34.65-.72.65-.31,0-.41-.2-.41-.45,0-.24.06-1.23.06-1.44.02-.48.03-1.95.04-4.48-.94.21-1.69.38-1.89.42-.09.15-.24.43-.38.43-.15,0-.24-.18-.27-.27l-.33-1.28c.25.06.69.11,1.06.11.46,0,1.15-.02,1.4-.03,1.02-1.38,1.94-3.29,2.15-3.88.06-.15.09-.42.09-.6l1.34.67Zm-5.92,9.87c.65-1.45,1.08-3.36,1.05-4.38l1.23.45c.1.04.21.13.21.21,0,.11-.09.18-.48.33-.48,1.4-.91,2.24-1.93,3.43l-.08-.05Zm.57-9.85c.42.11.91.24,1.29.42.42-.84,1.08-2.47.99-3.36l1.42.71c.12.06.18.15.18.22,0,.22-.23.27-.57.33-.71.9-.81,1.04-1.83,2.21.43.27.88.67.88,1.18,0,.34-.23.72-.61.72-.35,0-.44-.18-.77-.91-.35-.78-.69-1.11-1-1.42v-.09Zm3.54,5.71c.61.27,2.11.95,2.11,1.96,0,.48-.34.74-.66.74-.41,0-.48-.3-.68-.99-.21-.78-.49-1.21-.82-1.65l.04-.06Zm7.17-4.84l.45-.42c.08-.08.17-.16.21-.16.06,0,.17.09.21.13l.72.62c.07.06.13.15.13.22,0,.11-.28.32-.55.51-.09,4.15-.12,6.01-.92,7.54-.56,1.07-1.5,1.46-2.33,1.47-.12-.71-.58-1.17-1.36-1.7l.02-.09c.69.13,1.6.3,1.99.3,1.52,0,1.59-4.95,1.59-6.5,0-.25-.01-1.32-.01-1.57h-4.05c-.74,1.39-1.25,1.9-1.47,2.14l-.09-.06c1.11-2.21,1.62-4.74,1.62-5.52,0-.15-.05-.43-.08-.57l1.62.69c.07.03.17.11.17.21,0,.15-.23.25-.59.42-.16.48-.43,1.23-.99,2.33h3.7Zm-4.1,2.87c1.43.58,2.13,1.06,2.13,1.88,0,.36-.18.71-.6.71-.39,0-.51-.17-.84-1.2-.12-.39-.4-.9-.75-1.29l.06-.09Z"/>
      <path class="cls-2" d="m310.48,151.65h.61v7.62h1.69v.48h-1.69v1.74c0,.66.33.91,1.05.91h.24v.48h-3.81v-.48h.24c.71,0,1.05-.24,1.05-.91v-1.74h-4.03v-.53l4.65-7.57Zm-.62,1.98l-3.46,5.64h3.46v-5.64Z"/>
      <path class="cls-2" d="m319.78,151.93v.8c-2.38,3.67-3.23,5.76-3.42,9.1-.03.39-.08,1.33-.84,1.33-.38,0-.77-.32-.77-.83,0-1.06,1.05-4.21,4.21-9.22h-2.56c-2.17,0-2.5,1-2.84,1.96l-.45-.1.61-3.05h6.05Z"/>
      <path class="cls-2" d="m323.56,163.17c-1.04,0-1.91-.72-2.46-1.62-.63-1.04-.92-2.88-.92-4.27,0-3.2,1.36-5.62,3.38-5.62,1.55,0,3.37,1.67,3.37,5.76,0,3.67-1.54,5.76-3.37,5.76Zm-1.68-9.01c-.21.75-.34,2.01-.34,3.25,0,3.34.8,5.25,2.02,5.25,1.03,0,1.5-1.38,1.66-1.95.21-.76.36-2.04.36-3.3,0-3.42-.83-5.25-2.02-5.25-1.06,0-1.53,1.47-1.68,2Z"/>
      <path class="cls-2" d="m329.56,155.5v1.19c.4-.41,1.19-1.19,2.47-1.19,1.41,0,1.68.91,1.8,1.35.51-.5,1.33-1.35,2.68-1.35s1.92.79,1.92,2.46v3.54c0,.57.3.9.75.9h.29v.48h-3.13v-.48h.27c.52,0,.76-.4.76-.9v-3.45c0-.42-.07-1.9-1.32-1.9-.42,0-1.36.24-2.11,1.3,0,.12.01.24.01.51v3.54c0,.63.35.9.75.9h.44v.48h-3.43v-.48h.43c.41,0,.75-.28.75-.9v-3.45c0-.31-.03-1.9-1.3-1.9-.36,0-1.32.19-2.02,1.18v4.17c0,.63.36.9.75.9h.27v.48h-3.12v-.48h.27c.45,0,.75-.31.75-.9v-4.51c0-.46-.25-.71-.61-.71-.16,0-.32.01-.45.06l-.06-.29,2.2-.55Z"/>
      <path class="cls-2" d="m340.63,163.96l-.3-.3,13.26-13.26.3.3-13.26,13.26Z"/>
      <path class="cls-2" d="m354.44,159.27c1.44-1.42,3.09-3.99,3.51-4.98.12-.3.18-.48.29-.88l1.21.95c.06.04.09.12.09.19,0,.21-.24.21-.58.27-.24.34-.54.76-1.08,1.47.18.15.25.2.25.3,0,.09-.06.18-.39.42-.04.65-.04,1.23-.04,1.7,0,.64.04,3.54.04,4.12,0,.78,0,1.2-.66,1.2-.27,0-.53-.09-.53-.42,0-.19.09-1.05.09-1.21.04-.91.03-1.3.06-4.72-1.08,1.09-1.91,1.54-2.2,1.71l-.06-.11Zm.06-4.39c2.1-1.96,3.31-3.93,3.48-4.56l1.12.81s.12.11.12.18c0,.17-.06.18-.63.3-1.3,1.74-2.74,2.7-4.02,3.39l-.08-.12Zm11.95.79l.54-.75c.12-.18.18-.2.22-.2.09,0,.15.06.29.16l.88.75c.09.08.15.14.15.23,0,.15-.12.17-.23.17h-5.34l1.4.45c.09.03.19.07.19.18,0,.2-.36.41-.46.45v1.48h1.54l.54-.64c.12-.13.15-.18.24-.18.08,0,.12.03.29.17l.75.63c.08.06.15.12.15.23,0,.13-.12.17-.23.17h-3.28c0,.21-.02,3.22-.02,3.3.35.04,1.16.16,2.23.16,1.38,0,2.07-.2,2.42-.27l.02.06c-.24.19-.73.6-.87,1.46-.24.01-.5.04-.86.04-4.83,0-5.62-2.71-5.97-3.95-.38,1.04-1.08,2.84-3.01,3.87l-.05-.06c2.22-2.5,2.45-5.42,2.45-6.04,0-.35-.03-.53-.06-.67l1.53.49c.09.03.17.08.17.21,0,.08-.03.12-.08.17-.06.04-.38.2-.44.23-.15.71-.27,1.06-.4,1.47.66,1.47,1.47,2.22,1.94,2.49,0-3.95,0-4.2-.03-4.82-.01-.18-.1-.92-.12-1.06h-1.58c-.38,0-1.09.01-1.77.13l-.3-.6c1.04.09,2.1.1,2.31.1h1.45c0-.88,0-1.83-.01-2.64h-1.16c-.27,0-1.03,0-1.75.13l-.3-.58c.93.08,1.86.09,2.31.09h.9c-.03-1.44-.05-1.56-.27-2.32l1.56.46c.12.03.21.07.21.18s-.37.43-.45.5v1.18h1.47l.59-.72c.09-.1.14-.18.24-.18s.15.04.27.15l.79.72c.08.07.15.13.15.24,0,.14-.13.15-.23.15h-3.3v2.64h2.37Z"/>
      <path class="cls-2" d="m382.9,155.89h-6.69l.52.12c.31.08.38.08.38.21,0,.12-.05.18-.38.36,0,.42.06,2.31.06,2.68,0,.9,0,1.35-1.57,1.8-.16-.63-.62-1.05-1.27-1.38v-.09c.19,0,1.06.06,1.24.06.54,0,.54-.02.56-.56.02-.7,0-2.41-.02-3.21h-4.08c-.38,0-1.1.01-1.77.13l-.3-.6c1.02.09,2.08.11,2.31.11h.71c0-2.66,0-2.94-.23-3.78l1.47.41c.22.06.28.12.28.25,0,.12-.04.17-.46.45v2.67h2.05c0-3.38,0-3.75-.03-4.26-.02-.33-.06-.67-.16-1.47l1.38.38c.16.05.29.09.29.25,0,.1,0,.17-.45.42v1.93h2.16l.59-.85c.06-.08.15-.2.24-.2.08,0,.18.09.27.17l.96.85c.09.09.15.14.15.23,0,.15-.12.17-.22.17h-4.14v2.38h4.12l.7-.9c.09-.12.18-.19.24-.19.08,0,.18.07.27.17l.9.9c.1.11.15.16.15.23,0,.15-.12.16-.23.16Zm-8.52,1.81c-.06.03-.24.08-.37.12-1.01,1.68-2.4,2.95-4.07,3.93l-.06-.08c1.6-1.69,2.7-3.69,2.91-4.18.12-.27.2-.54.29-.9l1.17.62c.13.08.25.13.25.32,0,.08-.04.15-.12.18Zm4.59,2.67c-2.4,2.1-4.77,3.46-8.43,3.58v-.11c2.22-.55,4.5-1.42,6.65-3.4.5-.45,1.02-.95,1.34-1.49l.91.9c.12.12.18.19.18.29,0,.18-.06.18-.65.22Zm2.61.39c-.44,0-.65-.33-.93-.79-.94-1.54-1.71-2.25-2.71-2.97l.06-.09c2.68.64,4.18,2.29,4.18,3.21,0,.31-.24.64-.6.64Z"/>
      <path class="cls-2" d="m393.71,156.3c.31-.19.78-.39,1.31-.39,1.48,0,2.68,1.5,2.68,3.31,0,2.08-1.48,3.95-3.21,3.95s-3.45-1.94-3.45-5.17c0-3.46,1.95-6.34,4.25-6.34,1,0,1.71.6,1.71,1.32,0,.54-.42.78-.76.78-.3,0-.79-.2-.83-1.05-.01-.33-.04-.54-.45-.54s-.81.22-1.1.54c-1.33,1.47-1.41,3.67-1.47,5.02.28-.46.6-.99,1.32-1.42Zm-.5,5.55c.26.41.64.81,1.22.81.8,0,1.92-.83,1.92-3.3,0-.68-.17-2.78-1.71-2.78-.57,0-1.53.42-2.23,2.04.06.83.18,2.26.81,3.22Z"/>
      <path class="cls-2" d="m403.12,152.53c-1.24,2.55-3.51,4.47-4.65,5.1l-.08-.1c2.1-2.38,3.28-4.49,3.63-5.49.13-.38.19-.67.24-.96l1.29.87c.08.04.19.13.19.24,0,.18-.39.29-.63.34Zm5.44,4.7c-.15,5.4-.45,6.49-3.15,6.73-.06-.95-.79-1.44-1.12-1.65l.02-.1c.63.13,1.27.25,1.74.25.72,0,1.01-.17,1.23-1.53.18-1.11.27-3.61.23-4.32h-3.03c-.09,2.35-1.09,6.42-5.82,7.29l-.03-.12c3.04-1.41,4.59-3.67,4.74-7.17h-.43c-.38,0-1.1.01-1.77.15l-.29-.6c.93.08,1.85.09,2.29.09h4.25l.4-.36c.09-.09.18-.16.27-.16.08,0,.15.07.21.13l.6.66c.08.07.14.17.14.24,0,.14-.05.17-.47.47Zm2.73-.02c-1.61-.69-3.39-2.31-4.51-5.7h-1.2c-.75,0-1.05.06-1.26.09l-.2-.53c.68.06,1.33.08,1.64.08h.75l.48-.48c.13-.13.19-.16.27-.16.09,0,.15.07.25.16l.56.54c.09.08.12.14.12.23,0,.3-.69.42-.96.46.72,1.93,3.21,3.85,5.5,4.02l.02.15c-.84.25-1.19.73-1.46,1.14Z"/>
      <path class="cls-2" d="m413.42,164.44l-.13-.21c2.79-2.95,2.85-5.95,2.85-7.05s-.06-4.09-2.85-7.05l.13-.21c2.34,1.87,3.56,4.57,3.56,7.26s-1.22,5.38-3.56,7.26Z"/>
    </g>
    <g>
      <path class="cls-1" d="m4.28,16.45L0,8.23,4.28,0l.49.27L.64,8.23l4.13,7.96-.49.27Zm1.85,0L1.86,8.23,6.13,0l.49.27-4.11,7.95,4.11,7.96-.49.27Z"/>
      <path class="cls-1" d="m12.23,4.67c.08.05.2.14.2.22,0,.22-.17.32-.41.49,0,3.06,0,6.12.02,9.16,0,.61,0,1.33-.88,1.33-.44,0-.53-.22-.53-.46,0-.25.15-2.14.17-2.55.1-2.24.1-4.08.12-7.31-.24.37-1.63,2.45-2.69,3.18l-.1-.08c1.75-2.28,3.57-7.12,3.57-8.01,0-.1-.02-.22-.03-.34l1.6.87c.12.07.24.17.24.32,0,.22-.2.29-.65.44-.22.54-.46,1.16-1.19,2.4l.56.34Zm2.6,4.5c-.29,0-1.16,0-1.99.15l-.34-.68c.87.07,1.73.12,2.62.12h2.33c-.02-.88-.03-2.07-.22-2.62l1.58.34c.08.02.22.07.22.2,0,.15-.12.24-.46.53,0,.46-.02.87-.02,1.55h2.97l.68-.78c.17-.2.19-.22.27-.22.07,0,.09.02.32.19l1.07.78c.07.03.17.14.17.25,0,.15-.14.19-.25.19h-5c.75,1.6,3.01,3.62,5.51,4.27v.1c-.61.24-1.14.66-1.51,1.21-2.6-1.77-3.81-4.52-4.22-5.58h-.02c0,1.04.05,2.65.07,3.13.02.42.12,2.35.12,2.74,0,.29,0,.88-.9.88-.39,0-.53-.2-.53-.56,0-.02.12-2.67.12-2.97.02-.9.03-1.53.03-2.33-1.84,2.86-4.13,4.04-5.25,4.59l-.02-.12c1.78-1.48,3.2-3.11,4.52-5.36h-1.89Zm5.64-7.75l.36-.39c.07-.07.12-.15.25-.15.1,0,.24.08.32.15l.68.51c.1.08.22.2.22.31,0,.17-.15.31-.58.51-.02,1.14.02,1.9.02,2.11.02.24.09,1.39.09,1.51,0,.44-.2.78-.83.78-.42,0-.41-.39-.39-.78h-4.79c0,.51-.24.94-.78.94-.37,0-.48-.27-.48-.54,0-.14.12-2.84.12-3.38,0-1.61-.09-1.99-.15-2.4l1.44.83h4.5Zm-4.69.41v3.74h4.83V1.84h-4.83Z"/>
      <path class="cls-1" d="m38.09,2.79l.73-.92c.1-.12.17-.24.29-.24.1,0,.24.12.32.19l.95.92c.09.07.19.17.19.27,0,.15-.14.19-.25.19h-7.48c-.68.65-1.51,1.39-2.41,2.11,2.06-.1,3.88-.19,6.2-.41-.73-.61-1.12-.77-1.51-.92l.07-.14c2.53.39,4.64,1.39,4.64,2.5,0,.46-.36.75-.7.75s-.51-.17-1.04-.77c-.65-.75-.97-1.02-1.16-1.17-.36.07-4.11.83-9.66,1.5-.12.24-.22.44-.41.44-.15,0-.24-.15-.29-.31l-.61-1.65c.93.24,1.46.25,1.97.25.1,0,.63,0,2.01-.07.48-.83.76-1.46,1.05-2.12h-3.11c-.29,0-1.17,0-1.99.15l-.34-.68c1.16.08,2.36.12,2.6.12h4.28c0-.66,0-1.58-.37-2.43l1.77.41c.15.03.31.09.31.26,0,.1-.32.41-.48.56v1.21h4.42Zm-1.84,4.25c.14-.15.22-.22.32-.22.09,0,.17.05.24.1l.68.47c.09.07.2.21.2.29,0,.07-.08.17-.15.24-.14.12-.17.15-.29.27,0,.93.12,5.24.12,5.98,0,1.55-1.8,1.85-2.04,1.89-.03-.31-.14-1-1.44-1.58v-.14c.71.05,1.44.07,1.51.07.63,0,.71,0,.71-.31v-1.8h-5.97c.02.46.09,2.55.09,2.87,0,.56-.37.88-.88.88-.48,0-.48-.31-.48-.54,0-.27.09-1.48.09-1.73.03-1.39.05-3.33.05-4.69,0-1.24-.05-1.48-.22-2.36l1.58.73h5.52l.36-.42Zm-.14.83h-5.97v1.75h5.97v-1.75Zm0,2.16h-5.97v1.87h5.97v-1.87Z"/>
      <path class="cls-1" d="m55.21,1.61l.49-.41c.1-.08.2-.15.31-.15.07,0,.19.07.24.12l.73.63c.09.07.19.17.19.27,0,.21-.19.32-.56.58-.02.94-.03,2.89,0,5.95,0,.99.07,5.34.07,6.22,0,.56-.39.92-.83.92-.53,0-.49-.39-.46-.99h-10.56c.02.2,0,.48-.02.56-.05.37-.54.58-.85.58-.36,0-.44-.24-.44-.53,0-.22.09-1.24.09-1.45.05-1.14.07-1.97.07-8.09,0-3.11-.03-3.96-.17-4.91l1.46.7h10.25Zm-10.39.41v12.32h10.56V2.02h-10.56Zm8.79,8.26c.05.05.1.12.1.2,0,.22-.19.26-.32.26-.07,0-.17,0-.31-.02-.54.22-.71.27-1.29.46.71.26,2.23.82,2.23,1.7,0,.31-.22.56-.53.56-.2,0-.29-.05-.95-.78-.58-.63-1.33-1.24-2.06-1.65,0,.32.05,1.9.05,2.07,0,.51-.48.76-.78.76-.27,0-.37-.24-.37-.51,0-.51.07-2.74.07-3.2-.54.65-2.07,2.09-4.27,2.79l-.07-.1c1.48-.99,2.92-2.24,3.88-3.59h-1c0,.46-.37.65-.68.65-.44,0-.44-.31-.44-.49,0-.08.07-1.48.07-1.75,0-.53-.02-.88-.12-1.34l1.27.51h3.86l.31-.29c.09-.08.17-.17.24-.17s.17.07.24.14l.59.53c.09.07.14.15.14.24,0,.07-.1.17-.39.42,0,.22.03,1.19.03,1.38,0,.36-.14.46-.27.56l.78.66Zm-1.63-6.44l.36-.51c.09-.13.17-.2.25-.2.07,0,.17.05.32.17l.59.51c.08.07.19.15.19.25,0,.15-.15.19-.27.19h-2.92v1.26h2.35l.49-.58c.1-.12.17-.2.27-.2s.2.07.32.17l.68.58c.1.09.17.15.17.25,0,.17-.15.19-.25.19h-7.04c-.17,0-1.22,0-2.01.15l-.34-.68c.87.08,1.75.12,2.62.12h1.67v-1.26h-1.16c-.29,0-1.19,0-2.01.15l-.34-.68c1.05.09,2.29.12,2.62.12h.88c-.03-.61-.2-1.17-.31-1.51l1.58.41c.1.03.22.07.22.2,0,.19-.17.29-.43.44v.46h1.48Zm.02,5v-1.62h-4.01v1.62h4.01Zm-1.51.41c-.02.73-.02,1.19-.02,1.6.24.03.46.07.97.22.34-.29.97-.99,1.21-1.38-.39.1-.65-.08-.65-.44h-1.51Z"/>
      <path class="cls-1" d="m60.19,16.45l-.49-.27,4.11-7.96L59.7.27l.49-.27,4.27,8.23-4.27,8.23Zm1.85,0l-.49-.27,4.13-7.96L61.55.27l.49-.27,4.27,8.23-4.27,8.23Z"/>
    </g>
  </g>
</svg>