<svg xmlns="http://www.w3.org/2000/svg" width="439.65" height="104.62" viewBox="0 0 439.65 104.62">
  <g id="area03-03-txt" transform="translate(0 30.95)">
    <path id="パス_3170" data-name="パス 3170" d="M258.48,73.67a9.2,9.2,0,0,1,0-14.52l.13.21a10.145,10.145,0,0,0,0,14.1Z" fill="#040000"/>
    <path id="パス_3171" data-name="パス 3171" d="M262.84,68.25l-.73,2.28a1.239,1.239,0,0,0-.09.5.555.555,0,0,0,.63.6h.42v.48h-3.25v-.48h.49c.63,0,1.17-.64,1.41-1.38l2.96-9.09,1.32-.29,3.28,9.73c.3.87.69,1.02,1.11,1.02h.33v.48h-3.69v-.48h.45a.655.655,0,0,0,.62-.66,1.774,1.774,0,0,0-.13-.56l-.72-2.16h-4.39Zm2.16-6.6-2,6.12h4.06l-2.07-6.12Z" fill="#040000"/>
    <path id="パス_3172" data-name="パス 3172" d="M275.62,63.45a.87.87,0,1,1-1.74,0,.87.87,0,1,1,1.74,0Zm0,5.91a.87.87,0,1,1-1.74,0,.877.877,0,0,1,.87-.87A.864.864,0,0,1,275.62,69.36Z" fill="#040000"/>
    <path id="パス_3173" data-name="パス 3173" d="M278.34,68.49a20.946,20.946,0,0,0,3.51-4.98,6.987,6.987,0,0,0,.29-.88l1.21.95a.232.232,0,0,1,.09.19c0,.21-.24.21-.58.27-.24.34-.54.76-1.08,1.47.18.15.25.2.25.3s-.06.18-.39.42c-.04.65-.04,1.23-.04,1.7,0,.64.04,3.54.04,4.12,0,.78,0,1.2-.66,1.2-.27,0-.53-.09-.53-.42,0-.19.09-1.05.09-1.21.04-.92.03-1.3.06-4.72a9.413,9.413,0,0,1-2.21,1.71l-.06-.11Zm.06-4.39a13.806,13.806,0,0,0,3.48-4.56l1.12.81s.12.11.12.18c0,.17-.06.18-.63.3a11.708,11.708,0,0,1-4.02,3.39l-.08-.12Zm11.96.79.54-.75c.12-.18.18-.2.22-.2.09,0,.15.06.29.17l.88.75c.09.08.15.14.15.23,0,.15-.12.17-.23.17h-5.34l1.4.45c.09.03.19.07.19.18,0,.2-.36.41-.46.45v1.48h1.54l.54-.64c.12-.13.15-.18.24-.18s.12.03.29.17l.75.63a.284.284,0,0,1,.15.23c0,.13-.12.17-.22.17H288c0,.21-.01,3.22-.01,3.3a16.469,16.469,0,0,0,2.23.17,9.744,9.744,0,0,0,2.42-.27l.02.06a2.176,2.176,0,0,0-.87,1.46c-.24.01-.5.04-.86.04-4.83,0-5.62-2.71-5.97-3.95a6.649,6.649,0,0,1-3.01,3.87l-.04-.06a9.865,9.865,0,0,0,2.45-6.04,2.949,2.949,0,0,0-.06-.67l1.53.49a.208.208,0,0,1,.17.21.214.214,0,0,1-.08.17c-.06.04-.38.2-.44.23a12.745,12.745,0,0,1-.4,1.47,5.483,5.483,0,0,0,1.93,2.49c0-3.95,0-4.2-.03-4.82-.01-.18-.1-.92-.12-1.06h-1.58a10.583,10.583,0,0,0-1.77.13l-.3-.6c1.04.09,2.1.1,2.31.1h1.45c0-.88,0-1.83-.01-2.64H285.8a10.269,10.269,0,0,0-1.75.13l-.3-.58c.93.08,1.86.09,2.31.09h.9a6.328,6.328,0,0,0-.27-2.32l1.56.46c.12.03.21.07.21.18s-.38.43-.45.5v1.18h1.47l.58-.72c.09-.1.14-.18.24-.18s.15.04.27.15l.79.72c.08.07.15.13.15.24,0,.14-.13.15-.22.15h-3.3v2.64h2.37Z" fill="#040000"/>
    <path id="パス_3174" data-name="パス 3174" d="M306.79,65.12H300.1l.52.12c.32.08.38.08.38.21s-.04.18-.38.36c0,.42.06,2.31.06,2.68,0,.9,0,1.35-1.58,1.8a2.208,2.208,0,0,0-1.27-1.38v-.09c.19,0,1.06.06,1.24.06.54,0,.54-.02.56-.56.01-.7,0-2.41-.02-3.21h-4.08a10.516,10.516,0,0,0-1.77.13l-.3-.6c1.02.09,2.08.11,2.31.11h.71c0-2.66,0-2.94-.22-3.78l1.47.41c.22.06.29.12.29.25s-.04.17-.46.45v2.67h2.05c0-3.38,0-3.75-.03-4.26-.01-.33-.06-.67-.17-1.47l1.38.38c.17.04.29.09.29.25,0,.1,0,.17-.45.42V62h2.16l.58-.85c.06-.08.15-.2.24-.2s.18.09.27.17l.96.85c.09.09.15.14.15.23,0,.15-.12.17-.22.17h-4.14v2.38h4.12l.71-.9c.09-.12.18-.19.24-.19a.434.434,0,0,1,.27.17l.9.9c.1.11.15.17.15.23,0,.15-.12.17-.23.17Zm-8.52,1.81a3.558,3.558,0,0,1-.38.12,11.163,11.163,0,0,1-4.06,3.93l-.06-.08a17.472,17.472,0,0,0,2.91-4.18,5.3,5.3,0,0,0,.29-.9l1.17.62c.13.08.25.13.25.32a.183.183,0,0,1-.12.18Zm4.59,2.67a12.5,12.5,0,0,1-8.43,3.58v-.11a14.367,14.367,0,0,0,6.64-3.4,6.627,6.627,0,0,0,1.33-1.49l.92.9c.12.12.18.19.18.29,0,.18-.06.18-.64.22Zm2.61.39c-.43,0-.64-.33-.93-.79a9.039,9.039,0,0,0-2.71-2.97l.06-.09c2.68.64,4.18,2.29,4.18,3.21A.629.629,0,0,1,305.47,69.99Z" fill="#040000"/>
    <path id="パス_3175" data-name="パス 3175" d="M314.47,61.16v.79c-2.38,3.67-3.23,5.76-3.42,9.1-.03.39-.08,1.33-.84,1.33a.8.8,0,0,1-.77-.83c0-1.06,1.05-4.21,4.21-9.22h-2.56c-2.17,0-2.5,1-2.83,1.96l-.45-.1.62-3.04h6.04Z" fill="#040000"/>
    <path id="パス_3176" data-name="パス 3176" d="M319.87,61.76a12.919,12.919,0,0,1-4.65,5.1l-.08-.1a19.378,19.378,0,0,0,3.63-5.49,4.961,4.961,0,0,0,.24-.96l1.29.87a.314.314,0,0,1,.19.24c0,.18-.39.29-.63.34Zm5.45,4.7c-.15,5.4-.45,6.49-3.15,6.73a2.139,2.139,0,0,0-1.12-1.65l.02-.1a9.689,9.689,0,0,0,1.74.25c.72,0,1.01-.17,1.23-1.53a29.682,29.682,0,0,0,.22-4.32h-3.03c-.09,2.35-1.09,6.42-5.82,7.29l-.03-.12a7.578,7.578,0,0,0,4.74-7.17h-.43a9.02,9.02,0,0,0-1.77.15l-.29-.6c.93.08,1.85.09,2.29.09h4.25l.41-.36a.455.455,0,0,1,.27-.17c.08,0,.15.07.21.13l.6.66a.363.363,0,0,1,.13.24c0,.14-.04.17-.46.47Zm2.73-.02c-1.6-.69-3.39-2.31-4.51-5.7h-1.2a7,7,0,0,0-1.26.09l-.2-.53c.68.06,1.33.08,1.64.08h.75l.48-.48c.13-.13.2-.16.27-.16.09,0,.15.07.25.16l.55.54a.279.279,0,0,1,.12.23c0,.3-.69.42-.96.46a7.027,7.027,0,0,0,5.5,4.02v.15a2.423,2.423,0,0,0-1.44,1.14Z" fill="#040000"/>
    <path id="パス_3177" data-name="パス 3177" d="M330.15,73.19l-.3-.3,13.26-13.26.3.3L330.15,73.19Z" fill="#040000"/>
    <path id="パス_3178" data-name="パス 3178" d="M344.08,61.16h4.99c2.29,0,3.81.9,3.81,2.43a2.575,2.575,0,0,1-1.04,1.98,3.45,3.45,0,0,1-1.49.66,4.149,4.149,0,0,1,2.01.75,2.739,2.739,0,0,1,1.14,2.12c0,1.33-1.17,3.01-4.08,3.01h-5.35v-.48h.6a.962.962,0,0,0,1.07-1.03V62.69a.963.963,0,0,0-1.07-1.03h-.6v-.5Zm2.86,4.92h2a2.286,2.286,0,0,0,2.55-2.31c0-1.35-.92-2.11-2.42-2.11h-1.06a.962.962,0,0,0-1.07,1.03v3.39Zm0,.48V70.6a.958.958,0,0,0,1.07,1.03h1.3a2.478,2.478,0,0,0,2.78-2.49,2.523,2.523,0,0,0-2.73-2.58h-2.42Z" fill="#040000"/>
    <path id="パス_3179" data-name="パス 3179" d="M358.27,63.45a.87.87,0,1,1-1.74,0,.87.87,0,1,1,1.74,0Zm0,5.91a.87.87,0,1,1-.87-.87A.87.87,0,0,1,358.27,69.36Z" fill="#040000"/>
    <path id="パス_3180" data-name="パス 3180" d="M360.99,68.49a20.946,20.946,0,0,0,3.51-4.98,6.987,6.987,0,0,0,.29-.88l1.21.95a.232.232,0,0,1,.09.19c0,.21-.24.21-.58.27-.24.34-.54.76-1.08,1.47.18.15.25.2.25.3s-.06.18-.39.42c-.04.65-.04,1.23-.04,1.7,0,.64.04,3.54.04,4.12,0,.78,0,1.2-.66,1.2-.27,0-.53-.09-.53-.42,0-.19.09-1.05.09-1.21.04-.92.03-1.3.06-4.72a9.413,9.413,0,0,1-2.21,1.71l-.06-.11Zm.06-4.39a13.961,13.961,0,0,0,3.48-4.56l1.12.81s.12.11.12.18c0,.17-.06.18-.63.3a11.8,11.8,0,0,1-4.02,3.39l-.08-.12Zm11.95.79.54-.75c.12-.18.18-.2.22-.2.09,0,.15.06.29.17l.88.75c.09.08.15.14.15.23,0,.15-.12.17-.22.17h-5.34l1.39.45c.09.03.2.07.2.18,0,.2-.36.41-.46.45v1.48h1.54l.54-.64c.12-.13.15-.18.24-.18s.12.03.29.17l.75.63a.284.284,0,0,1,.15.23c0,.13-.12.17-.23.17h-3.28c0,.21-.02,3.22-.02,3.3a16.668,16.668,0,0,0,2.24.17,9.744,9.744,0,0,0,2.42-.27v.06a2.252,2.252,0,0,0-.86,1.46c-.24.01-.5.04-.85.04-4.83,0-5.62-2.71-5.97-3.95a6.649,6.649,0,0,1-3.01,3.87l-.05-.06A9.865,9.865,0,0,0,367,66.78a2.949,2.949,0,0,0-.06-.67l1.53.49a.208.208,0,0,1,.17.21.214.214,0,0,1-.08.17c-.06.04-.38.2-.43.23a10.726,10.726,0,0,1-.41,1.47,5.416,5.416,0,0,0,1.94,2.49c0-3.95,0-4.2-.03-4.82-.01-.18-.11-.92-.12-1.06h-1.58a10.583,10.583,0,0,0-1.77.13l-.3-.6c1.04.09,2.1.1,2.31.1h1.46c0-.88,0-1.83-.01-2.64h-1.16a10.208,10.208,0,0,0-1.75.13l-.3-.58c.93.08,1.86.09,2.31.09h.9a6.557,6.557,0,0,0-.27-2.32l1.56.46c.12.03.21.07.21.18s-.37.43-.45.5v1.18h1.47l.58-.72c.09-.1.13-.18.24-.18s.15.04.27.15l.79.72c.08.07.15.13.15.24,0,.14-.13.15-.23.15h-3.3v2.64h2.37Z" fill="#040000"/>
    <path id="パス_3181" data-name="パス 3181" d="M389.44,65.12h-6.69l.53.12c.31.08.38.08.38.21s-.04.18-.38.36c0,.42.06,2.31.06,2.68,0,.9,0,1.35-1.57,1.8a2.2,2.2,0,0,0-1.28-1.38v-.09c.2,0,1.07.06,1.25.06.54,0,.54-.02.55-.56.02-.7,0-2.41-.01-3.21H378.2a10.583,10.583,0,0,0-1.77.13l-.3-.6c1.02.09,2.08.11,2.31.11h.71c0-2.66,0-2.94-.23-3.78l1.47.41c.22.06.28.12.28.25s-.04.17-.46.45v2.67h2.05c0-3.38,0-3.75-.03-4.26-.02-.33-.06-.67-.17-1.47l1.38.38c.17.04.29.09.29.25,0,.1,0,.17-.45.42V62h2.16l.58-.85c.06-.08.15-.2.24-.2s.18.09.27.17l.96.85c.09.09.15.14.15.23,0,.15-.12.17-.22.17h-4.14v2.38h4.12l.71-.9c.09-.12.18-.19.24-.19a.434.434,0,0,1,.27.17l.9.9c.11.11.15.17.15.23,0,.15-.12.17-.22.17Zm-8.52,1.81c-.06.03-.24.08-.37.12a11.191,11.191,0,0,1-4.07,3.93l-.06-.08a17.791,17.791,0,0,0,2.91-4.18,5.3,5.3,0,0,0,.29-.9l1.17.62c.13.08.25.13.25.32a.183.183,0,0,1-.12.18Zm4.59,2.67a12.5,12.5,0,0,1-8.43,3.58v-.11a14.444,14.444,0,0,0,6.65-3.4,6.627,6.627,0,0,0,1.33-1.49l.92.9c.12.12.18.19.18.29,0,.18-.06.18-.65.22Zm2.61.39c-.43,0-.64-.33-.93-.79a9.147,9.147,0,0,0-2.71-2.97l.06-.09c2.68.64,4.18,2.29,4.18,3.21A.629.629,0,0,1,388.12,69.99Z" fill="#040000"/>
    <path id="パス_3182" data-name="パス 3182" d="M391.66,62.34l-.13,3.78a3.172,3.172,0,0,1,2.33-1.04,3.213,3.213,0,0,1,3.19,3.43,3.808,3.808,0,0,1-3.7,3.87,2.694,2.694,0,0,1-2.83-2.21.852.852,0,0,1,.87-.93.74.74,0,0,1,.78.78,1.285,1.285,0,0,1-.08.45,2.194,2.194,0,0,0-.04.42c0,.65.68.98,1.28.98,1.21,0,2.35-1.16,2.35-3.17,0-1.91-1-2.96-2.1-2.96a3.277,3.277,0,0,0-2.34,1.3l-.22-.12.22-5.79h5.22l-.3,1.18h-4.49Z" fill="#040000"/>
    <path id="パス_3183" data-name="パス 3183" d="M402.52,61.76a12.992,12.992,0,0,1-4.65,5.1l-.07-.1a19.613,19.613,0,0,0,3.63-5.49,5.822,5.822,0,0,0,.24-.96l1.29.87c.08.04.2.13.2.24,0,.18-.39.29-.63.34Zm5.44,4.7c-.15,5.4-.45,6.49-3.15,6.73a2.139,2.139,0,0,0-1.12-1.65v-.1a10.04,10.04,0,0,0,1.75.25c.72,0,1-.17,1.23-1.53a31.323,31.323,0,0,0,.23-4.32h-3.03c-.09,2.35-1.09,6.42-5.82,7.29l-.03-.12a7.578,7.578,0,0,0,4.74-7.17h-.44a9.076,9.076,0,0,0-1.77.15l-.29-.6c.93.08,1.84.09,2.29.09h4.25l.4-.36a.455.455,0,0,1,.27-.17c.08,0,.15.07.21.13l.6.66a.363.363,0,0,1,.13.24c0,.14-.04.17-.46.47Zm2.73-.02c-1.61-.69-3.39-2.31-4.51-5.7h-1.2a7,7,0,0,0-1.26.09l-.2-.53c.67.06,1.33.08,1.63.08h.75l.48-.48c.13-.13.19-.16.27-.16s.15.07.25.16l.55.54a.279.279,0,0,1,.12.23c0,.3-.69.42-.96.46a7.027,7.027,0,0,0,5.5,4.02l.02.15a2.443,2.443,0,0,0-1.46,1.14Z" fill="#040000"/>
    <path id="パス_3184" data-name="パス 3184" d="M412.83,73.67l-.13-.21a10.145,10.145,0,0,0,0-14.1l.13-.21a9.183,9.183,0,0,1,0,14.52Z" fill="#040000"/>
    <path id="パス_3185" data-name="パス 3185" d="M13.32,66.53a6.66,6.66,0,1,1-6.66-6.66A6.664,6.664,0,0,1,13.32,66.53Z" fill="#af9f4b"/>
    <path id="パス_3186" data-name="パス 3186" d="M23.31,63.33a.217.217,0,0,1,.14.2c0,.13-.15.18-.47.27a1.66,1.66,0,0,1-.12.2c1.86.54,2.25,1.17,2.25,1.57a.512.512,0,0,1-.55.56c-.38,0-.52-.29-.68-.57a4.983,4.983,0,0,0-1.09-1.44,14.11,14.11,0,0,1-4.08,3.81l-.04-.06c1.46-1.48,3.08-3.4,3.56-5.17l1.09.65Zm-.92,5.38c0,.6.03,3.59.03,4.26,0,.24,0,.57-.63.57-.24,0-.4-.06-.4-.5,0-.08.04-1.84.04-2.07,0-.33.02-1.9.02-2.26a10.474,10.474,0,0,0-1.96.13l-.3-.6c1.2.09,2.07.1,2.31.1h2.01l.41-.33c.09-.07.15-.13.24-.13a.309.309,0,0,1,.2.11l.54.48s.12.12.12.2c0,.1-.1.21-.4.39,0,.24.06,1.47.06,1.75a1.018,1.018,0,0,1-.57,1.02,2.065,2.065,0,0,1-.75.3,1.8,1.8,0,0,0-.9-1.32v-.08c.2.03.81.09.95.09.22,0,.33-.02.33-.39V68.71H22.42Zm.48-2.01.3-.35c.07-.07.15-.19.24-.19s.18.08.29.15l.46.36c.08.06.15.12.15.22,0,.12-.11.17-.24.17H22.13a5.794,5.794,0,0,0-1.25.09l-.19-.53c.67.04,1.34.08,1.63.08h.54Zm6.72-4.71a8.364,8.364,0,0,0-.13-2.01l1.48.4a.246.246,0,0,1,.17.21c0,.17-.35.3-.5.39-.02.24.03,1.32.03,1.53a.618.618,0,0,1-.69.56c-.39,0-.39-.12-.36-.72H22.14c.02.38.02.42-.08.52a.792.792,0,0,1-.6.24c-.31,0-.38-.2-.38-.51a13.836,13.836,0,0,0-.12-2.67l1.42.42a.174.174,0,0,1,.12.18c0,.11-.05.13-.36.33,0,.18-.02.96-.02,1.12h3.24a11.558,11.558,0,0,0-.21-2.4l1.48.42s.14.06.14.17c0,.09,0,.15-.44.39,0,.22-.02,1.21,0,1.42h3.24ZM23.26,73.43c.96-.34,2.9-1.2,3.58-2.25l.97.65a.456.456,0,0,1,.1.19c0,.18-.18.2-.6.23a8.3,8.3,0,0,1-4.05,1.23l-.02-.04Zm5.62-9.36a15.269,15.269,0,0,1-1.09,1.32h2.5l.3-.34c.06-.06.11-.15.2-.15a.408.408,0,0,1,.25.13l.6.46s.1.11.1.17c0,.15-.29.34-.44.43,0,.62.07,3.59.07,4.26a2.014,2.014,0,0,1-.09.77,1.019,1.019,0,0,1-.59.25c-.4,0-.39-.25-.39-.48H26.67c.02.09-.03.54-.61.54-.39,0-.42-.13-.42-.46,0-.08.09-2.49.09-2.96a25.966,25.966,0,0,0-.15-3.1l1.09.48h.8c.03-.18.16-1.11.19-1.32h-.9a10.384,10.384,0,0,0-1.77.13l-.29-.6a22.047,22.047,0,0,0,2.29.1h3.83l.48-.55c.06-.06.12-.18.22-.18a.577.577,0,0,1,.29.15l.73.56a.283.283,0,0,1,.15.22c0,.17-.15.17-.24.17h-3.6Zm-2.19,1.68v1.32h3.64V65.75Zm0,1.68v1.38h3.64V67.43Zm0,1.74v1.37h3.64V69.17Zm2.42,2.19c1.66.22,2.2.4,2.73.84a1.211,1.211,0,0,1,.52.79.529.529,0,0,1-.52.57c-.25,0-.31-.06-.9-.69a5.09,5.09,0,0,0-1.85-1.42Z" fill="#040000"/>
    <path id="パス_3187" data-name="パス 3187" d="M40.31,61.49c-.03.92-.05,6.09.01,7.6,0,.12.03.8.03.85a.623.623,0,0,1-.69.71c-.41,0-.41-.27-.41-.42,0-.13.03-.72.03-.84H35.69c.02.3.03,1.12.03,1.3,0,.21,0,.69-.75.69-.39,0-.43-.2-.43-.39,0-.17.07-1.23.09-1.46,0-.11.11-4.49.11-6.01a15.507,15.507,0,0,0-.24-3.57l1.41.71h3.3l.31-.33c.08-.08.17-.17.23-.17s.18.11.24.15l.66.51a.307.307,0,0,1,.15.22c0,.14-.06.16-.49.44Zm-3.25-.46H35.71v3.66h1.35Zm0,4.02H35.71v3.99h1.35Zm2.25-4.02H37.98v3.66h1.33Zm0,4.02H37.98v3.99h1.33Zm7.88-3.18H44.4c-.03,1.48.06,7.99.06,9.33,0,.67,0,1.73-1.79,2-.19-.55-.49-1-1.77-1.47v-.09c.25,0,1.32.03,1.54.03.76,0,.88-.04.9-.57.04-3.45.04-8.22.03-9.22h-.63a10.208,10.208,0,0,0-1.75.13l-.3-.6c.93.07,1.84.1,2.29.1h2.26l.66-.78c.06-.07.17-.18.24-.18a.507.507,0,0,1,.29.15l.82.78c.09.09.15.14.15.24,0,.13-.14.15-.23.15Z" fill="#040000"/>
    <path id="パス_3188" data-name="パス 3188" d="M54.65,64.11a.259.259,0,0,1,.17.24c0,.18-.12.24-.62.39a59.445,59.445,0,0,1-4.12,5.62c.52-.06,2.23-.33,3.34-.6a5.667,5.667,0,0,0-1.11-1.51l.07-.12c.65.29,2.73,1.2,2.73,2.62a.67.67,0,0,1-.65.66c-.28,0-.45-.14-.61-.63-.08-.23-.23-.57-.31-.77a30.958,30.958,0,0,1-3.57,1.38c-.23.08-.36.13-.54.21-.15.3-.27.48-.38.48-.14,0-.24-.2-.27-.29l-.63-1.51a2.707,2.707,0,0,0,1,.15,5.17,5.17,0,0,0,.54-.03,52.348,52.348,0,0,0,2.8-5.06,5.749,5.749,0,0,0,.67-1.99l1.47.75Zm-6.01-1.02a4.649,4.649,0,0,1,1.69.71,16.414,16.414,0,0,0,1.47-3.58,3.411,3.411,0,0,0,.09-.73l1.42.76a.273.273,0,0,1,.16.22c0,.23-.42.3-.54.33a28.425,28.425,0,0,1-2.35,3.17,2.326,2.326,0,0,1,1.05,1.68.615.615,0,0,1-.61.65c-.45,0-.54-.23-.88-.96a6.018,6.018,0,0,0-1.56-2.12l.06-.12Zm4.75,10.12c3.04-2.34,3.55-5.43,3.72-9.7h-.44a11.047,11.047,0,0,0-1.77.13l-.3-.6c.86.08,1.74.11,2.52.11a13,13,0,0,0-.32-3.5l1.47.42c.18.04.25.15.25.22,0,.09-.04.18-.39.39,0,.73,0,1.41-.01,2.46h1.93l.41-.47a.463.463,0,0,1,.23-.12.449.449,0,0,1,.24.09l.66.46a.453.453,0,0,1,.19.29c0,.16-.21.33-.54.5.05,1.93.15,6.58-.91,8.29a2.717,2.717,0,0,1-2.02,1.25,2.381,2.381,0,0,0-1.3-1.67l.06-.1a7.72,7.72,0,0,0,1.45.21.908.908,0,0,0,.9-.42c.75-1.14.82-3.87.82-5.91,0-.93-.03-1.49-.05-2.04H58.12c-.1,5.08-1.05,7.91-4.66,9.84l-.07-.13Z" fill="#040000"/>
    <path id="パス_3189" data-name="パス 3189" d="M66.6,63.98l.36-.5c.06-.09.15-.19.25-.19s.15.08.26.16l.51.5c.09.07.15.13.15.22,0,.15-.13.17-.24.17h-1.6c0,.79,0,1-.02,1.7.87.27,1.94.93,1.94,1.68a.53.53,0,0,1-.52.57c-.44,0-.54-.36-.72-.91a2.576,2.576,0,0,0-.69-1.14c0,1.28-.02,6.41-.02,6.51a.671.671,0,0,1-.73.67.407.407,0,0,1-.44-.43c0-.15.09-.79.09-.93.11-1.89.15-4.62.15-5.08v-.24a9.028,9.028,0,0,1-2.71,3.22l-.08-.06a17.474,17.474,0,0,0,2.7-5.55h-.32a10.721,10.721,0,0,0-1.77.13l-.3-.6c.83.08,1.67.1,2.49.1V61.61a16.072,16.072,0,0,1-2.37.33v-.1a15.6,15.6,0,0,0,3.72-1.65,1.352,1.352,0,0,0,.41-.42l1.05.96a.434.434,0,0,1,.08.18c0,.15-.18.18-.26.18s-.28-.03-.4-.04c-.27.09-.57.18-1.25.34,0,.42-.03,2.22-.03,2.59h.31Zm6.01-.4V66.1h1.17l.43-.55c.06-.08.15-.18.23-.18a.523.523,0,0,1,.27.15l.61.55c.09.08.15.14.15.23,0,.15-.11.16-.24.16H72.61v2.5h1.14l.48-.56c.07-.09.15-.19.23-.19s.15.07.27.17l.67.55a.369.369,0,0,1,.15.24c0,.15-.13.15-.23.15H72.61v2.61h1.81l.59-.75c.09-.12.16-.2.23-.2a.575.575,0,0,1,.29.17l.73.75c.06.08.15.13.15.24,0,.15-.15.15-.23.15H69.85c.03.39.08,1.04-.69,1.04-.42,0-.42-.29-.42-.45,0-.18.05-1.02.05-1.2.03-1.02.04-3.46.06-6.76a13.049,13.049,0,0,1-1.14,1.45l-.09-.04c.66-1.26,2.13-4.8,1.98-6.42l1.4.63a.258.258,0,0,1,.17.21c0,.19-.2.27-.5.34-.23.55-.39.96-.89,2.1l.08.03h1.89a7.807,7.807,0,0,0,.7-3.06l1.43.66c.09.05.17.13.17.21,0,.13-.12.18-.51.31a10.63,10.63,0,0,1-1.52,1.88h2.16l.52-.59c.09-.11.15-.18.24-.18a.675.675,0,0,1,.27.15l.7.59c.08.08.15.15.15.24,0,.15-.15.15-.23.15H72.6Zm-.98,2.52V63.58h-1.8V66.1Zm0,2.87v-2.5h-1.8v2.5Zm0,2.97V69.33h-1.8v2.61Z" fill="#040000"/>
    <path id="パス_3190" data-name="パス 3190" d="M88.86,60.69l.43-.36a.426.426,0,0,1,.27-.13.454.454,0,0,1,.21.1l.64.56c.07.06.17.15.17.24,0,.18-.17.29-.5.51-.02.82-.03,2.55,0,5.25,0,.87.06,4.71.06,5.49a.757.757,0,0,1-.74.81c-.46,0-.43-.34-.4-.87H79.69a2.41,2.41,0,0,1-.02.5c-.04.33-.48.51-.75.51-.31,0-.39-.21-.39-.47,0-.19.08-1.09.08-1.27.04-1,.06-1.74.06-7.14a30.2,30.2,0,0,0-.15-4.34l1.29.62h9.04Zm-9.16.36V71.93h9.31V61.05Zm7.75,7.29a.358.358,0,0,1,.09.18c0,.2-.17.23-.29.23a1.533,1.533,0,0,1-.27-.02c-.48.2-.63.24-1.14.41.63.22,1.97.72,1.97,1.5a.483.483,0,0,1-.47.5c-.18,0-.25-.04-.84-.69a8.171,8.171,0,0,0-1.81-1.46c0,.29.04,1.68.04,1.83a.7.7,0,0,1-.69.67c-.24,0-.33-.21-.33-.45,0-.45.06-2.42.06-2.82a8.719,8.719,0,0,1-3.76,2.46l-.06-.09a13.483,13.483,0,0,0,3.42-3.16h-.89a.561.561,0,0,1-.6.57c-.39,0-.39-.27-.39-.44,0-.08.06-1.3.06-1.55a5.523,5.523,0,0,0-.1-1.18l1.12.45h3.4l.27-.25c.07-.08.15-.15.21-.15a.381.381,0,0,1,.21.12l.52.46a.259.259,0,0,1,.12.21c0,.06-.09.15-.35.38,0,.2.03,1.05.03,1.21a.514.514,0,0,1-.24.5l.69.58Zm-1.44-5.68.31-.45c.08-.12.15-.18.23-.18a.551.551,0,0,1,.29.15l.52.45c.08.06.16.13.16.22,0,.14-.14.17-.24.17H84.7v1.11h2.07l.44-.51c.09-.11.15-.18.24-.18a.507.507,0,0,1,.29.15l.6.51c.09.08.15.13.15.23,0,.15-.14.17-.23.17H82.05a11.047,11.047,0,0,0-1.77.13l-.3-.6a22.324,22.324,0,0,0,2.31.11h1.47V63.03H82.74a9.794,9.794,0,0,0-1.77.14l-.3-.6c.93.08,2.02.11,2.31.11h.78a5.8,5.8,0,0,0-.27-1.34l1.39.36c.09.03.2.06.2.18,0,.17-.15.25-.38.39v.41H86Zm.02,4.41V65.65H82.49v1.42Zm-1.33.36c-.02.64-.02,1.05-.02,1.41a5.378,5.378,0,0,1,.86.19,6.815,6.815,0,0,0,1.06-1.21c-.34.09-.57-.07-.57-.39H84.7Z" fill="#040000"/>
    <path id="パス_3191" data-name="パス 3191" d="M94.32,73.29V59.76H98.1v.65H94.95V72.65H98.1v.65H94.32Z" fill="#040000"/>
    <path id="パス_3192" data-name="パス 3192" d="M106.77,64.64h-2.95c0,.13,0,.9.02,1.54,1.11.3,2.44,1.2,2.44,2.03a.652.652,0,0,1-.58.69c-.4,0-.57-.34-.84-.96a3.765,3.765,0,0,0-1.02-1.47c0,.96.06,5.17.06,6.03,0,.69-.39.86-.69.86-.46,0-.46-.39-.46-.55,0-.74.13-3.96.15-4.62.01-.57.01-.93.01-1.26a13.263,13.263,0,0,1-3.49,4.12l-.09-.09a24.172,24.172,0,0,0,3.51-6.31h-1.06a9.552,9.552,0,0,0-1.77.13l-.3-.6c1.03.09,2.1.11,2.31.11h.89V61.8a15.158,15.158,0,0,1-2.89.22v-.13c1.63-.32,4.44-1.21,5.22-2.05l1,1.05a.283.283,0,0,1,.09.2c0,.12-.06.15-.23.15-.04,0-.41-.08-.48-.09-.33.09-.77.22-1.79.46V64.3h1.21l.53-.68c.09-.12.15-.18.22-.18a.571.571,0,0,1,.29.15l.78.67c.11.09.15.13.15.22,0,.13-.12.17-.23.17Zm5.4,7.98c-.5,0-.64-.52-.72-.85-.09-.41-.23-1.02-.27-1.2a50.324,50.324,0,0,1-5.26,1.38c-.05.04-.15.29-.19.33a.253.253,0,0,1-.18.08c-.09,0-.18-.04-.29-.29l-.57-1.34a5.975,5.975,0,0,0,.91.08c.18,0,.3,0,.76-.03,1.06-3.42,2.35-8.76,2.22-10.45l1.69.66c.08.03.21.11.21.24,0,.15-.06.18-.66.46a58.78,58.78,0,0,1-3.03,9.08,41.127,41.127,0,0,0,4.31-.45,11.05,11.05,0,0,0-1.71-3.06l.06-.08c1.84,1.08,3.4,3.31,3.4,4.6,0,.74-.51.84-.69.84Z" fill="#040000"/>
    <path id="パス_3193" data-name="パス 3193" d="M125.07,71.93l.78-.84c.08-.08.15-.2.24-.2s.18.08.28.17l1.04.84a.3.3,0,0,1,.15.22c0,.14-.12.17-.23.17H116.19a10.461,10.461,0,0,0-1.77.14l-.29-.6c.99.09,2.01.11,2.29.11h4.51c.35-.84,2.15-6.22,2.06-8.14l1.68.82a.27.27,0,0,1,.14.21c0,.16-.06.18-.6.41-.21.53-1.15,2.96-1.31,3.32a23.994,23.994,0,0,1-1.63,3.39h3.79Zm-.87-9.18.63-.84c.11-.13.16-.2.23-.2.09,0,.18.09.29.16l1.05.86c.09.07.14.13.14.21,0,.13-.11.17-.23.17h-9.18a11.32,11.32,0,0,0-1.77.13l-.28-.58c1.03.08,2.16.09,2.29.09h2.91a6.917,6.917,0,0,0-.39-2.88l1.8.45c.08.01.18.05.18.15,0,.15-.34.42-.54.59-.03.27-.03,1.46-.03,1.7h2.91Zm-7.17,1.39a8.659,8.659,0,0,1,2.56,5.61c0,.6-.35.96-.72.96-.6,0-.65-.69-.67-1.07a14.353,14.353,0,0,0-1.23-5.46l.06-.05Z" fill="#040000"/>
    <path id="パス_3194" data-name="パス 3194" d="M128.84,73.29v-.65h3.15V60.4h-3.15v-.65h3.78V73.28h-3.78Z" fill="#040000"/>
    <path id="パス_3195" data-name="パス 3195" d="M4.28,47.25,0,39.03,4.27,30.8l.49.27L.63,39.02l4.13,7.96-.49.27Zm1.85,0L1.86,39.02l4.27-8.23.49.27L2.51,39.01l4.11,7.96-.49.27Z" fill="#af9f4b"/>
    <path id="パス_3196" data-name="パス 3196" d="M15.58,36.29a.288.288,0,0,1,.19.27c0,.2-.14.27-.7.44a67.8,67.8,0,0,1-4.67,6.37c.59-.07,2.53-.37,3.79-.68a6.342,6.342,0,0,0-1.26-1.72l.09-.14c.73.32,3.09,1.36,3.09,2.97a.765.765,0,0,1-.73.75c-.32,0-.51-.15-.7-.71-.09-.25-.26-.65-.36-.87a34.063,34.063,0,0,1-4.05,1.56,5.18,5.18,0,0,0-.61.24c-.17.34-.31.54-.42.54-.15,0-.27-.22-.31-.32l-.71-1.72a3.035,3.035,0,0,0,1.14.17c.2,0,.39-.02.61-.03a59.537,59.537,0,0,0,3.18-5.73,7.191,7.191,0,0,0,.77-2.26l1.67.85ZM8.76,35.13a5.325,5.325,0,0,1,1.92.8,18.551,18.551,0,0,0,1.67-4.06,4.864,4.864,0,0,0,.1-.83l1.61.87a.319.319,0,0,1,.19.25c0,.25-.48.34-.61.37a31.306,31.306,0,0,1-2.67,3.59,2.6,2.6,0,0,1,1.19,1.9.7.7,0,0,1-.7.73c-.51,0-.61-.25-1-1.09a6.9,6.9,0,0,0-1.77-2.4l.07-.14ZM14.15,46.6c3.45-2.65,4.03-6.15,4.22-11h-.49a12.4,12.4,0,0,0-2.01.15l-.34-.68c.97.08,1.97.12,2.86.12a15.022,15.022,0,0,0-.36-3.96l1.67.48c.2.05.29.17.29.25,0,.1-.05.2-.44.44,0,.83,0,1.6-.02,2.79h2.19l.46-.53s.15-.14.25-.14a.453.453,0,0,1,.27.1l.75.53a.523.523,0,0,1,.22.32c0,.19-.24.37-.61.56.05,2.19.17,7.46-1.04,9.4a3.136,3.136,0,0,1-2.29,1.41,2.678,2.678,0,0,0-1.48-1.89l.07-.12a8.788,8.788,0,0,0,1.65.24,1.009,1.009,0,0,0,1.02-.48c.85-1.29.94-4.39.94-6.7,0-1.05-.03-1.68-.05-2.31H19.53c-.12,5.76-1.19,8.96-5.29,11.15l-.09-.15Z" fill="#af9f4b"/>
    <path id="パス_3197" data-name="パス 3197" d="M29.56,36.14l.41-.56c.07-.1.17-.22.29-.22.1,0,.17.08.29.19l.58.56c.1.08.17.15.17.25,0,.17-.15.19-.27.19H29.21c0,.9,0,1.14-.02,1.92.99.31,2.19,1.05,2.19,1.9a.6.6,0,0,1-.6.65c-.49,0-.61-.41-.82-1.04a2.882,2.882,0,0,0-.78-1.29c0,1.45-.02,7.26-.02,7.38a.757.757,0,0,1-.83.76.452.452,0,0,1-.49-.49c0-.17.1-.9.1-1.05.12-2.14.17-5.24.17-5.76v-.27a10.193,10.193,0,0,1-3.08,3.65l-.09-.07A19.582,19.582,0,0,0,28,36.55h-.36a11.945,11.945,0,0,0-2.01.15l-.34-.68c.94.09,1.89.12,2.82.12V33.45a16.773,16.773,0,0,1-2.69.37V33.7a18.094,18.094,0,0,0,4.22-1.87,1.59,1.59,0,0,0,.46-.48l1.19,1.09a.279.279,0,0,1,.08.2c0,.17-.2.2-.29.2s-.32-.03-.46-.05c-.31.1-.65.2-1.41.39,0,.48-.03,2.52-.03,2.94h.36Zm6.82-.46v2.86h1.33l.49-.63c.07-.08.17-.2.25-.2a.64.64,0,0,1,.31.17l.7.63c.1.08.17.15.17.25,0,.17-.12.19-.27.19H36.39v2.84h1.29l.54-.63c.09-.1.17-.22.25-.22.1,0,.17.08.31.19l.77.63a.385.385,0,0,1,.17.27c0,.17-.15.17-.25.17H36.39v2.96h2.06l.66-.85c.1-.14.19-.22.25-.22a.625.625,0,0,1,.32.19l.83.85c.07.08.17.15.17.27,0,.17-.17.17-.25.17H33.26c.03.44.08,1.17-.78,1.17-.48,0-.48-.32-.48-.51s.05-1.16.05-1.36c.03-1.16.05-3.93.07-7.67a15.3,15.3,0,0,1-1.29,1.65l-.1-.05c.75-1.43,2.41-5.44,2.24-7.28l1.58.71a.305.305,0,0,1,.19.24c0,.22-.22.31-.56.39-.25.63-.44,1.09-1,2.38l.09.03h2.14a8.909,8.909,0,0,0,.8-3.47l1.61.75a.32.32,0,0,1,.19.24c0,.15-.14.2-.58.36a11.387,11.387,0,0,1-1.72,2.12h2.45l.6-.66c.1-.12.17-.2.27-.2a.741.741,0,0,1,.31.17l.8.66a.405.405,0,0,1,.17.27c0,.17-.17.17-.26.17H36.4Zm-1.11,2.86V35.68H33.23v2.86Zm0,3.25V38.95H33.23v2.84Zm0,3.37V42.2H33.23v2.96Z" fill="#af9f4b"/>
    <path id="パス_3198" data-name="パス 3198" d="M55.21,32.41,55.7,32a.53.53,0,0,1,.31-.15.457.457,0,0,1,.24.12l.73.63c.09.07.19.17.19.27,0,.2-.19.32-.56.58-.02.93-.03,2.89,0,5.95,0,.99.07,5.34.07,6.22a.858.858,0,0,1-.83.92c-.53,0-.49-.39-.46-.99H44.83a2.314,2.314,0,0,1-.02.56c-.05.37-.54.58-.85.58-.36,0-.44-.24-.44-.53,0-.22.09-1.24.09-1.45.05-1.14.07-1.97.07-8.09a33.479,33.479,0,0,0-.17-4.91l1.46.7H55.22Zm-10.39.41V45.14H55.38V32.82Zm8.79,8.26a.3.3,0,0,1,.1.2c0,.22-.19.26-.32.26a2.023,2.023,0,0,1-.31-.02c-.54.22-.71.27-1.29.46.71.25,2.23.82,2.23,1.7a.534.534,0,0,1-.53.56c-.2,0-.29-.05-.95-.78a8.8,8.8,0,0,0-2.06-1.65c0,.32.05,1.9.05,2.07a.791.791,0,0,1-.78.76c-.27,0-.37-.24-.37-.51,0-.51.07-2.74.07-3.2a9.755,9.755,0,0,1-4.27,2.79l-.07-.1a15.2,15.2,0,0,0,3.88-3.59h-1a.64.64,0,0,1-.68.65c-.44,0-.44-.31-.44-.49,0-.08.07-1.48.07-1.75a5.714,5.714,0,0,0-.12-1.34l1.27.51h3.86l.31-.29c.09-.08.17-.17.24-.17a.433.433,0,0,1,.24.14l.59.53a.308.308,0,0,1,.14.24c0,.07-.1.17-.39.42,0,.22.03,1.19.03,1.38a.581.581,0,0,1-.27.56l.78.66Zm-1.63-6.44.36-.51c.08-.14.17-.2.25-.2a.61.61,0,0,1,.32.17l.59.51c.09.07.19.15.19.25,0,.15-.15.19-.27.19H50.5v1.26h2.35l.49-.58c.1-.12.17-.2.27-.2a.56.56,0,0,1,.32.17l.68.58c.1.08.17.15.17.25,0,.17-.15.19-.25.19H47.49a12.4,12.4,0,0,0-2.01.15l-.34-.68a25.521,25.521,0,0,0,2.62.12h1.67V35.05H48.27a11.821,11.821,0,0,0-2.01.15l-.34-.68c1.05.08,2.29.12,2.62.12h.88a5.909,5.909,0,0,0-.31-1.51l1.58.41c.1.03.22.07.22.2,0,.19-.17.29-.43.44v.46h1.48Zm.02,5V38.02H47.99v1.62Zm-1.51.41c-.02.73-.02,1.19-.02,1.6a5.491,5.491,0,0,1,.97.22,7.983,7.983,0,0,0,1.21-1.38c-.39.1-.65-.08-.65-.44Z" fill="#af9f4b"/>
    <path id="パス_3199" data-name="パス 3199" d="M60.19,47.25l-.49-.27,4.11-7.96L59.7,31.07l.49-.27,4.27,8.23-4.27,8.23Zm1.85,0-.49-.27,4.13-7.96-4.13-7.95.49-.27,4.27,8.23-4.27,8.23Z" fill="#af9f4b"/>
    <g id="グループ_116" data-name="グループ 116" transform="translate(0 -180.62)">
      <path id="パス_3440" data-name="パス 3440" d="M13.32,157.38a6.66,6.66,0,1,1-6.66-6.66A6.664,6.664,0,0,1,13.32,157.38Z" fill="#af9f4b"/>
      <path id="パス_3441" data-name="パス 3441" d="M28.56,162.12a15.769,15.769,0,0,1-3.7.33c-2.13,0-3.3-.22-4.32-.95a2.542,2.542,0,0,1-1.11-2.05,2.193,2.193,0,0,1,.7-1.68,2.908,2.908,0,0,0-.15,1.01c0,2.65,3.1,2.65,3.93,2.65a12.566,12.566,0,0,0,3.67-.45,1.325,1.325,0,0,1,.44-.08c.46,0,1.08.3,1.08.68,0,.33-.31.45-.54.54Zm-1.68-7.83a7.609,7.609,0,0,0-1.59.08,14.018,14.018,0,0,0-2.73.99l-.06-.09a16.306,16.306,0,0,0,1.81-1.4c0-.04-.09-.07-.18-.09-1.21-.18-3.34-.48-3.37-2.05,1.08,1.02,2.4,1.12,4.18,1.12,1.32,0,1.74,0,2.35.44a.637.637,0,0,1,.31.51c0,.12-.06.49-.73.49Z" fill="#040000"/>
      <path id="パス_3442" data-name="パス 3442" d="M36.78,162.75l-.02-.12c3.21-1.14,4.71-3.25,4.71-5.53,0-2.54-2.04-4.04-4.65-4.04a1.091,1.091,0,0,0-.61.09c.81.44,1.03.99,1.03,1.2,0,.17-.04.27-.51,1.25-.96,2.05-2.37,5.07-3.39,5.91a.807.807,0,0,1-.48.17c-.34,0-.48-.2-.93-.83-.1-.15-.71-.7-.81-.84a2.743,2.743,0,0,1-.42-1.53,6.087,6.087,0,0,1,6.39-5.88c2.91,0,5.55,1.69,5.55,4.71s-2.43,5.14-5.86,5.45Zm-1.19-9.51a5.456,5.456,0,0,0-3.94,5.16c0,1.02.58,2.14,1.17,2.14.4,0,.99-1.06,1.25-1.57,1.5-3.02,1.99-3.99,1.99-4.77a1.315,1.315,0,0,0-.46-.96Z" fill="#040000"/>
      <path id="パス_3443" data-name="パス 3443" d="M53.37,163.53a17.457,17.457,0,0,1-2.56-.2c-1.12-.34-1.29-1.12-1.51-2.31-.15-.77-.57-.98-1.06-.98-.66,0-.98.47-2.19,2.22a7.94,7.94,0,0,1-1.04,1.29.382.382,0,0,1-.3.1c-.25,0-.51-.21-.51-.67,0-.5.12-.6.98-1.32a31.376,31.376,0,0,0,2.96-3.07c.36-.41,2.2-2.42,2.23-2.48a.214.214,0,0,0,.04-.12c0-.15-.18-.15-.24-.15a11.351,11.351,0,0,0-2.65,1.05c-.42.3-.51.36-.73.36-.4,0-1.31-.62-1.31-1.23a1.758,1.758,0,0,1,.14-.54,1.306,1.306,0,0,0,1.05.63,16.908,16.908,0,0,0,3.27-.85c.44-.17.82-.3.84-.3.29,0,1.26.46,1.26.95,0,.27-.1.33-.53.62a20.037,20.037,0,0,0-3.58,3.21,3.806,3.806,0,0,1,.78-.09c1.2,0,1.4.81,1.54,1.44.3,1.29.46,1.58,1.56,1.58a7.412,7.412,0,0,0,1.72-.26,2.74,2.74,0,0,1,.78-.18c.38,0,.84.29.84.64,0,.62-1.25.66-1.77.66ZM50.9,153.48c-.21,0-1.06-.2-1.25-.2a5.421,5.421,0,0,0-1.41.29.938.938,0,0,1-.24.06l-.04-.09c.25-.15.65-.39.87-.55.26-.18.35-.25.35-.39,0-.2-.12-.27-.52-.54-.94-.64-1.12-1-1.19-1.74a5.512,5.512,0,0,0,2.06,1.32c.76.3,1.74.66,1.74,1.41,0,.18-.09.44-.36.44Z" fill="#040000"/>
      <path id="パス_3444" data-name="パス 3444" d="M62.52,158.96c0,1.72-.32,2.83-1.56,2.91a1.8,1.8,0,0,0-.83-1.1l.04-.09a6.418,6.418,0,0,0,.89.07c.24,0,.39,0,.46-.63a7.156,7.156,0,0,0,.08-1.46H59.93c.02.64.08,3.73.08,4.44,0,.08-.02.46-.02.55a.6.6,0,0,1-.63.62c-.26,0-.39-.15-.39-.42,0-.06.02-.16.02-.24.01-.18.01-1.66.01-2.07,0-.38.02-1.06.03-1.47a10.761,10.761,0,0,1-3.42,3.15l-.06-.09a17.034,17.034,0,0,0,3.33-4.47H57.45a9.7,9.7,0,0,1-.22,1.08.705.705,0,0,1-.56.29.36.36,0,0,1-.4-.33c0-.04.39-1.72.43-1.92a13,13,0,0,0,.35-2.47l1,.75h1v-1.94h-.81a11.182,11.182,0,0,0-1.75.13l-.3-.58c.73.06,1.56.09,2.29.09h1.48a7.829,7.829,0,0,0,.96-3.03l1.2.56c.15.07.22.13.22.24,0,.2-.27.3-.52.33-.51.65-1.33,1.68-1.56,1.91h.98l.31-.32c.09-.09.15-.13.21-.13a.44.44,0,0,1,.24.12l.46.33a.342.342,0,0,1,.17.24c0,.12-.06.22-.4.4.01.16.01.25.03,1,0,.17.04.98.04,1.1,0,.49-.51.55-.67.55-.33,0-.33-.12-.31-.64h-1.4v1.89h1.5l.38-.44a.289.289,0,0,1,.23-.13.375.375,0,0,1,.27.13l.4.36a.487.487,0,0,1,.18.27c0,.11-.09.21-.38.45Zm-4.16-5.6c-.34,0-.49-.3-.6-.69a3.644,3.644,0,0,0-.78-1.72l.06-.09c.63.24,1.88.96,1.88,1.88a.576.576,0,0,1-.56.63Zm-.46,3.06c-.13.51-.19.9-.38,1.89h1.53v-1.89H57.89Zm3.44-2.29H59.96c-.02.29-.02,1.63-.02,1.94h1.4Zm1.33,9.15a.481.481,0,0,1-.5-.53c0-.17.03-.22.3-.75a2.872,2.872,0,0,0,.29-1.19l.08-.02a3.044,3.044,0,0,1,.52,1.54c0,.42-.24.93-.69.93Zm6.66-5.16H64.14v1.39h3.6l.34-.4q.135-.18.24-.18a.569.569,0,0,1,.27.14l.52.38a.321.321,0,0,1,.19.27c0,.16-.18.29-.45.42-.38,3.24-1.14,4.17-2.88,4.17a2.45,2.45,0,0,0-.74-1.38l.02-.09a4.79,4.79,0,0,0,1.41.26c.19,0,.4-.04.63-.48a8.339,8.339,0,0,0,.57-2.73H64.13a.574.574,0,0,1-.65.57c-.03,0-.38,0-.38-.29,0-.11.04-.51.04-.58.03-2.18.05-4.35.05-6.54a12.135,12.135,0,0,0-.08-1.48l1.17.73h.35a3.52,3.52,0,0,0,.34-1.88l1.11.51c.17.07.24.16.24.24,0,.15-.09.26-.44.24a12.131,12.131,0,0,1-.93.88h2.12l.36-.39c.09-.09.15-.15.23-.15a.473.473,0,0,1,.24.12l.54.39a.276.276,0,0,1,.14.22c0,.2-.27.38-.48.48.01.26,0,.4.04,1.77,0,.24.09,1.44.09,1.52,0,.51-.51.57-.66.57-.39,0-.4-.27-.4-.54H64.13v1.48h3.5l.48-.6c.1-.13.17-.2.24-.2s.15.06.29.17l.78.6a.382.382,0,0,1,.15.24c0,.11-.09.15-.24.15Zm-4.98,4.81c-.34,0-.46-.26-.46-.57,0-.13.08-.75.08-.88a1.657,1.657,0,0,0-.09-.62l.08-.02a1.868,1.868,0,0,1,.94,1.47c0,.11-.04.62-.54.62Zm2.83-10.29H64.14v1.47h3.04Zm0,1.83H64.14v1.44h3.04Zm-1.63,7.84c-.3,0-.39-.21-.39-.45a3.349,3.349,0,0,0-.17-1.41l.08-.04a1.878,1.878,0,0,1,.97,1.37.5.5,0,0,1-.49.54Zm1.27-.55c-.35,0-.39-.26-.44-.46a2.123,2.123,0,0,0-.38-1.06l.04-.08c.73.2,1.17.71,1.17,1.14a.426.426,0,0,1-.4.46Z" fill="#040000"/>
      <path id="パス_3445" data-name="パス 3445" d="M77.06,162.75l-.02-.12c3.21-1.14,4.71-3.25,4.71-5.53,0-2.54-2.04-4.04-4.65-4.04a1.091,1.091,0,0,0-.61.09c.81.44,1.03.99,1.03,1.2,0,.17-.04.27-.51,1.25-.96,2.05-2.37,5.07-3.39,5.91a.807.807,0,0,1-.48.17c-.34,0-.48-.2-.93-.83-.1-.15-.71-.7-.81-.84a2.743,2.743,0,0,1-.42-1.53,6.087,6.087,0,0,1,6.39-5.88c2.91,0,5.55,1.69,5.55,4.71s-2.43,5.14-5.86,5.45Zm-1.19-9.51a5.456,5.456,0,0,0-3.94,5.16c0,1.02.58,2.14,1.17,2.14.41,0,.99-1.06,1.25-1.57,1.5-3.02,1.99-3.99,1.99-4.77a1.315,1.315,0,0,0-.46-.96Z" fill="#040000"/>
      <path id="パス_3446" data-name="パス 3446" d="M91.61,154.76a12.622,12.622,0,0,0,2.97,4.08,9.563,9.563,0,0,0,3.72,1.92v.11a2.485,2.485,0,0,0-1.78,1.11c-3.9-2.23-5.08-6.99-5.1-7.02,0,.84-.02,1.95,0,3.59,0,.78.18,4.8.18,4.88a.716.716,0,0,1-.79.79c-.57,0-.57-.3-.57-.51,0-.29.09-1.62.1-1.94.03-.93.04-1.43.09-5.82a12.974,12.974,0,0,1-2.02,3.03,12.271,12.271,0,0,1-4.06,3.15l-.03-.07a22.83,22.83,0,0,0,5.61-7.29H86.62a10.253,10.253,0,0,0-1.77.13l-.3-.6c.76.06,1.54.11,2.31.11h3.58a13.183,13.183,0,0,0-.38-3.95l1.71.44c.08.02.19.04.19.18,0,.18-.17.29-.51.48,0,.4-.02,2.4-.02,2.85h3.81l.69-.82c.06-.06.15-.18.24-.18s.21.1.29.16l.9.81c.08.06.15.12.15.22,0,.15-.15.17-.24.17H91.62Z" fill="#040000"/>
      <path id="パス_3447" data-name="パス 3447" d="M102.15,154.24c.08.04.18.12.18.2,0,.2-.15.29-.36.44,0,2.7,0,5.4.01,8.08,0,.54,0,1.17-.78,1.17-.39,0-.46-.2-.46-.4,0-.22.13-1.89.15-2.25.09-1.98.09-3.6.1-6.45a12.646,12.646,0,0,1-2.37,2.8l-.09-.08a21.553,21.553,0,0,0,3.15-7.06c0-.09-.02-.2-.03-.3l1.41.76a.358.358,0,0,1,.21.29c0,.2-.18.26-.57.39a12.853,12.853,0,0,1-1.05,2.12l.49.3Zm2.29,3.98a10.454,10.454,0,0,0-1.75.13l-.3-.6c.77.06,1.53.11,2.31.11h2.05a10.847,10.847,0,0,0-.19-2.31l1.4.3c.07.02.19.06.19.18s-.1.21-.41.46c0,.41-.01.77-.01,1.37h2.62l.6-.69c.15-.18.17-.2.24-.2s.07.02.28.17l.95.69a.281.281,0,0,1,.15.22c0,.13-.12.17-.23.17h-4.41a8.051,8.051,0,0,0,4.86,3.76v.09a2.948,2.948,0,0,0-1.33,1.06,10.723,10.723,0,0,1-3.72-4.92h-.01c0,.91.04,2.34.06,2.76.01.38.1,2.07.1,2.41,0,.26,0,.78-.79.78-.35,0-.47-.18-.47-.49,0-.02.1-2.36.1-2.62.02-.79.03-1.35.03-2.05a10.991,10.991,0,0,1-4.63,4.05l-.02-.1a17.375,17.375,0,0,0,3.99-4.72h-1.67Zm4.98-6.84.31-.35c.06-.06.1-.13.23-.13a.517.517,0,0,1,.28.13l.6.45c.09.08.2.18.2.27,0,.15-.14.27-.51.45-.02,1.01.02,1.68.02,1.86.02.21.07,1.23.07,1.34,0,.39-.18.69-.73.69-.38,0-.36-.35-.34-.69h-4.23c0,.45-.21.82-.69.82-.33,0-.42-.24-.42-.48,0-.12.1-2.5.1-2.98a10.108,10.108,0,0,0-.14-2.12l1.27.74h3.98Zm-4.14.36v3.3h4.26v-3.3Z" fill="#040000"/>
      <path id="パス_3448" data-name="パス 3448" d="M124.59,152.58l.65-.81c.09-.1.15-.21.25-.21s.21.11.29.16l.84.81c.07.06.17.15.17.24,0,.13-.12.16-.23.16h-6.6c-.6.57-1.33,1.23-2.13,1.86,1.81-.09,3.42-.17,5.47-.36a4.286,4.286,0,0,0-1.33-.81l.06-.12c2.23.35,4.09,1.23,4.09,2.21a.637.637,0,0,1-.61.66c-.3,0-.45-.15-.92-.68a8.012,8.012,0,0,0-1.02-1.04c-.31.06-3.63.74-8.52,1.32-.1.21-.2.39-.36.39-.13,0-.21-.13-.25-.27l-.54-1.46a6.223,6.223,0,0,0,1.74.22c.09,0,.55,0,1.77-.06a17.955,17.955,0,0,0,.93-1.88H115.6a10.431,10.431,0,0,0-1.76.13l-.3-.6c1.02.08,2.08.11,2.29.11h3.78a5.209,5.209,0,0,0-.33-2.14l1.56.36c.14.03.27.07.27.22,0,.09-.29.36-.42.5v1.06h3.9Zm-1.62,3.75c.12-.13.2-.2.29-.2a.358.358,0,0,1,.21.09l.6.42c.07.06.18.18.18.26a.4.4,0,0,1-.13.21,2.89,2.89,0,0,0-.25.24c0,.82.1,4.62.1,5.28,0,1.37-1.59,1.63-1.8,1.67-.03-.27-.12-.88-1.27-1.39v-.12c.63.04,1.27.06,1.33.06.56,0,.63,0,.63-.27v-1.59H117.6c.02.4.08,2.25.08,2.53a.73.73,0,0,1-.78.78c-.42,0-.42-.27-.42-.48,0-.24.08-1.3.08-1.53.03-1.23.04-2.94.04-4.14a8.131,8.131,0,0,0-.19-2.08l1.4.64h4.87l.31-.38Zm-.12.73h-5.26v1.54h5.26Zm0,1.91h-5.26v1.65h5.26Z" fill="#040000"/>
      <path id="パス_3449" data-name="パス 3449" d="M139.32,151.54l.44-.36a.426.426,0,0,1,.27-.13.412.412,0,0,1,.21.1l.65.56c.07.06.17.15.17.24,0,.18-.17.29-.5.51-.02.82-.03,2.55,0,5.25,0,.87.06,4.71.06,5.49a.757.757,0,0,1-.74.81c-.46,0-.43-.35-.4-.87h-9.31a2.41,2.41,0,0,1-.02.5c-.04.33-.48.51-.75.51-.31,0-.39-.21-.39-.46,0-.2.08-1.1.08-1.28.04-1,.06-1.74.06-7.14a30.2,30.2,0,0,0-.15-4.34l1.29.62h9.04Zm-9.16.36v10.88h9.31V151.9Zm7.75,7.29a.358.358,0,0,1,.09.18c0,.2-.17.22-.29.22a1.532,1.532,0,0,1-.27-.02c-.48.2-.63.24-1.14.41.63.22,1.97.72,1.97,1.5a.474.474,0,0,1-.47.49c-.18,0-.25-.04-.84-.69a7.9,7.9,0,0,0-1.81-1.46c0,.29.04,1.68.04,1.83a.7.7,0,0,1-.69.67c-.24,0-.33-.21-.33-.45,0-.45.06-2.41.06-2.82a8.629,8.629,0,0,1-3.76,2.46l-.06-.09a13.339,13.339,0,0,0,3.42-3.17h-.89a.561.561,0,0,1-.6.57c-.39,0-.39-.27-.39-.44,0-.07.06-1.3.06-1.54a5.523,5.523,0,0,0-.1-1.18l1.12.45h3.4l.27-.25c.07-.08.15-.15.21-.15a.381.381,0,0,1,.21.12l.52.46a.259.259,0,0,1,.12.21c0,.06-.09.15-.35.38,0,.2.03,1.05.03,1.21a.507.507,0,0,1-.24.49l.69.59Zm-1.44-5.69.31-.45c.08-.12.15-.18.23-.18a.551.551,0,0,1,.29.15l.52.45c.08.06.17.13.17.22,0,.13-.14.16-.24.16h-2.58v1.11h2.07l.44-.51c.09-.11.15-.18.24-.18a.507.507,0,0,1,.29.15l.6.51c.09.08.15.13.15.23,0,.15-.14.16-.23.16h-6.21a11.047,11.047,0,0,0-1.77.13l-.3-.6c.77.07,1.54.11,2.31.11h1.47v-1.11h-1.02a9.794,9.794,0,0,0-1.77.14l-.3-.6c.93.08,2.02.11,2.31.11h.78a5.583,5.583,0,0,0-.27-1.33l1.39.36c.09.03.2.06.2.18,0,.17-.15.26-.38.39v.4h1.3Zm.02,4.41v-1.43h-3.54v1.43Zm-1.33.36c-.02.64-.02,1.05-.02,1.41a4.47,4.47,0,0,1,.85.2,7.185,7.185,0,0,0,1.06-1.21c-.34.09-.57-.07-.57-.39h-1.33Z" fill="#040000"/>
      <path id="パス_3450" data-name="パス 3450" d="M145.13,154.05a9.605,9.605,0,0,0-1.77.13l-.3-.6c1.02.09,2.08.1,2.31.1h3.64a12.435,12.435,0,0,0-.3-3.09l1.62.5c.13.04.21.09.21.2,0,.13-.08.24-.54.48,0,.11-.02,1.28-.03,1.92h3.54l.71-.84c.1-.13.18-.2.25-.2a.581.581,0,0,1,.3.17l1.1.82a.343.343,0,0,1,.15.24c0,.11-.08.17-.23.17h-5.5c1.17,2.7,3.89,5.53,6.46,6.16v.11a2.625,2.625,0,0,0-1.72.93,12.7,12.7,0,0,1-3.46-3.78,14.727,14.727,0,0,1-1.52-3.42h-.08c-.01.94-.03,1.59-.03,1.75,0,.66.03,3.57.03,4.17h.9l.52-.63c.1-.12.18-.18.25-.18a.494.494,0,0,1,.27.15l.72.62c.1.09.15.16.15.24s-.09.16-.23.16h-2.6c.02.48.09,2.66.09,3.11a.744.744,0,0,1-.79.75c-.5,0-.5-.31-.5-.46,0-.45.09-1.15.1-1.61.04-.87.06-1.39.06-1.79h-.83a9.605,9.605,0,0,0-1.77.13l-.3-.6c.93.08,1.86.11,2.31.11h.58c.02-.68.07-4.32.07-4.72-.96,1.7-3.1,4.79-6.4,6.03l-.04-.09a18.854,18.854,0,0,0,5.88-7.14H145.1Z" fill="#040000"/>
      <path id="パス_3451" data-name="パス 3451" d="M168.57,151.54l.44-.36a.426.426,0,0,1,.27-.13.412.412,0,0,1,.21.1l.65.56c.07.06.17.15.17.24,0,.18-.17.29-.5.51-.02.82-.03,2.55,0,5.25,0,.87.06,4.71.06,5.49a.757.757,0,0,1-.74.81c-.46,0-.43-.35-.4-.87h-9.31a2.41,2.41,0,0,1-.02.5c-.04.33-.48.51-.75.51-.31,0-.39-.21-.39-.46,0-.2.08-1.1.08-1.28.04-1,.06-1.74.06-7.14a30.2,30.2,0,0,0-.15-4.34l1.29.62h9.04Zm-9.16.36v10.88h9.31V151.9Zm7.75,7.29a.358.358,0,0,1,.09.18c0,.2-.17.22-.29.22a1.532,1.532,0,0,1-.27-.02c-.48.2-.63.24-1.14.41.63.22,1.97.72,1.97,1.5a.474.474,0,0,1-.47.49c-.18,0-.25-.04-.84-.69a7.9,7.9,0,0,0-1.81-1.46c0,.29.04,1.68.04,1.83a.7.7,0,0,1-.69.67c-.24,0-.33-.21-.33-.45,0-.45.06-2.41.06-2.82a8.629,8.629,0,0,1-3.76,2.46l-.06-.09a13.339,13.339,0,0,0,3.42-3.17h-.89a.561.561,0,0,1-.6.57c-.39,0-.39-.27-.39-.44,0-.07.06-1.3.06-1.54a5.523,5.523,0,0,0-.1-1.18l1.12.45h3.4l.27-.25c.07-.08.15-.15.21-.15a.381.381,0,0,1,.21.12l.52.46a.259.259,0,0,1,.12.21c0,.06-.09.15-.35.38,0,.2.03,1.05.03,1.21a.507.507,0,0,1-.24.49l.69.59Zm-1.44-5.69.31-.45c.08-.12.15-.18.23-.18a.551.551,0,0,1,.29.15l.52.45c.08.06.17.13.17.22,0,.13-.14.16-.24.16h-2.58v1.11h2.07l.44-.51c.09-.11.15-.18.24-.18a.507.507,0,0,1,.29.15l.6.51c.09.08.15.13.15.23,0,.15-.14.16-.23.16h-6.21a11.047,11.047,0,0,0-1.77.13l-.3-.6c.77.07,1.54.11,2.31.11h1.47v-1.11h-1.02a9.794,9.794,0,0,0-1.77.14l-.3-.6c.93.08,2.02.11,2.31.11h.78a5.583,5.583,0,0,0-.27-1.33l1.39.36c.09.03.2.06.2.18,0,.17-.15.26-.38.39v.4h1.3Zm.02,4.41v-1.43H162.2v1.43Zm-1.33.36c-.02.64-.02,1.05-.02,1.41a4.47,4.47,0,0,1,.85.2,7.185,7.185,0,0,0,1.06-1.21c-.34.09-.57-.07-.57-.39H164.4Z" fill="#040000"/>
      <path id="パス_3452" data-name="パス 3452" d="M174.03,164.14V150.61h3.78v.64h-3.15v12.24h3.15v.64h-3.78Z" fill="#040000"/>
      <path id="パス_3453" data-name="パス 3453" d="M186.48,155.49h-2.96c0,.13,0,.9.02,1.54,1.11.3,2.44,1.2,2.44,2.03a.652.652,0,0,1-.58.69c-.4,0-.57-.35-.84-.96a3.765,3.765,0,0,0-1.02-1.47c0,.96.06,5.17.06,6.03,0,.69-.39.86-.69.86-.46,0-.46-.39-.46-.55,0-.74.13-3.96.15-4.62.01-.57.01-.93.01-1.26a13.151,13.151,0,0,1-3.49,4.12l-.09-.09a24.33,24.33,0,0,0,3.51-6.31h-1.06a9.551,9.551,0,0,0-1.77.13l-.3-.6c1.03.09,2.1.11,2.31.11h.89v-2.49a15.2,15.2,0,0,1-2.9.22v-.13c1.63-.32,4.44-1.21,5.22-2.05l1,1.05a.283.283,0,0,1,.09.2c0,.12-.06.15-.23.15-.04,0-.41-.08-.48-.09-.33.09-.77.22-1.79.46v2.69h1.21l.53-.68c.09-.12.15-.18.22-.18a.571.571,0,0,1,.29.15l.78.67c.1.09.15.13.15.22,0,.13-.12.17-.23.17Zm5.4,7.98c-.5,0-.65-.52-.72-.85-.09-.41-.23-1.02-.27-1.2a50.327,50.327,0,0,1-5.26,1.38c-.04.04-.15.29-.19.33a.252.252,0,0,1-.18.07c-.09,0-.18-.04-.29-.29l-.57-1.33a6.262,6.262,0,0,0,.92.07c.18,0,.3,0,.76-.03,1.06-3.42,2.35-8.76,2.22-10.46l1.69.66c.08.03.21.11.21.24,0,.15-.06.18-.66.46a57.3,57.3,0,0,1-3.03,9.07,41.411,41.411,0,0,0,4.31-.45,11.316,11.316,0,0,0-1.71-3.06l.06-.07c1.84,1.08,3.4,3.31,3.4,4.6,0,.74-.51.84-.69.84Z" fill="#040000"/>
      <path id="パス_3454" data-name="パス 3454" d="M204.78,162.78l.78-.84c.08-.07.15-.2.24-.2s.18.08.28.17l1.04.84a.3.3,0,0,1,.15.22c0,.13-.12.16-.23.16H195.9a10.525,10.525,0,0,0-1.77.14l-.29-.6c.99.09,2.01.11,2.29.11h4.51c.35-.84,2.15-6.22,2.06-8.14l1.68.82a.27.27,0,0,1,.14.21c0,.16-.06.18-.6.4-.21.53-1.15,2.96-1.31,3.32a23.993,23.993,0,0,1-1.63,3.39h3.79Zm-.87-9.18.63-.84c.1-.13.17-.2.23-.2.09,0,.18.09.29.17l1.05.86c.09.07.14.13.14.21,0,.13-.1.17-.23.17h-9.18a11.32,11.32,0,0,0-1.77.13l-.28-.59c1.03.08,2.16.09,2.29.09h2.91a6.953,6.953,0,0,0-.39-2.88l1.8.45c.08.02.18.04.18.15,0,.15-.34.42-.54.58-.03.27-.03,1.46-.03,1.7h2.91Zm-7.17,1.39a8.659,8.659,0,0,1,2.56,5.61c0,.6-.35.96-.72.96-.6,0-.65-.69-.67-1.06a14.166,14.166,0,0,0-1.23-5.46l.06-.04Z" fill="#040000"/>
      <path id="パス_3455" data-name="パス 3455" d="M208.55,164.14v-.64h3.15V151.26h-3.15v-.64h3.78v13.53h-3.78Z" fill="#040000"/>
    </g>
    <g id="グループ_117" data-name="グループ 117" transform="translate(5 -180.95)">
      <path id="パス_3531" data-name="パス 3531" d="M276.74,164.64a9.2,9.2,0,0,1,0-14.52l.14.21a10.145,10.145,0,0,0,0,14.1l-.14.21Z" fill="#040000"/>
      <path id="パス_3532" data-name="パス 3532" d="M281.11,159.22l-.73,2.28a1.239,1.239,0,0,0-.09.5.555.555,0,0,0,.63.6h.42v.48h-3.25v-.48h.49c.63,0,1.17-.64,1.41-1.38l2.96-9.09,1.32-.29,3.28,9.73c.3.87.69,1.02,1.11,1.02h.33v.48H285.3v-.48h.45a.648.648,0,0,0,.61-.66,1.728,1.728,0,0,0-.13-.55l-.72-2.16h-4.39Zm2.16-6.6-1.99,6.12h4.06Z" fill="#040000"/>
      <path id="パス_3533" data-name="パス 3533" d="M293.89,154.43a.87.87,0,0,1-1.74,0,.87.87,0,0,1,1.74,0Zm0,5.91a.87.87,0,1,1-1.74,0,.877.877,0,0,1,.87-.87A.864.864,0,0,1,293.89,160.34Z" fill="#040000"/>
      <path id="パス_3534" data-name="パス 3534" d="M296.6,159.46a21.147,21.147,0,0,0,3.51-4.98,6.987,6.987,0,0,0,.29-.88l1.21.95a.238.238,0,0,1,.09.2c0,.21-.24.21-.58.27-.24.35-.54.77-1.08,1.47.18.15.25.2.25.3s-.06.18-.39.42c-.04.65-.04,1.23-.04,1.7,0,.64.04,3.54.04,4.12,0,.78,0,1.2-.66,1.2-.27,0-.53-.09-.53-.42,0-.19.09-1.05.09-1.21.04-.91.03-1.3.06-4.72a9.118,9.118,0,0,1-2.21,1.71l-.06-.11Zm.06-4.39a13.961,13.961,0,0,0,3.48-4.56l1.12.81s.12.11.12.18c0,.17-.06.18-.63.3a11.708,11.708,0,0,1-4.02,3.39l-.08-.12Zm11.95.79.54-.75c.12-.18.18-.2.22-.2.09,0,.15.06.29.16l.89.75c.09.08.15.14.15.23,0,.15-.12.16-.23.16h-5.34l1.4.45c.09.03.19.07.19.18,0,.2-.36.4-.46.45v1.48h1.54l.54-.64c.12-.13.15-.18.24-.18s.12.03.29.16l.75.63c.08.06.15.12.15.22,0,.13-.12.17-.23.17h-3.28c0,.21-.02,3.22-.02,3.3a16.63,16.63,0,0,0,2.23.17,9.743,9.743,0,0,0,2.42-.27l.02.06a2.242,2.242,0,0,0-.87,1.46c-.24.02-.5.04-.85.04-4.83,0-5.62-2.71-5.97-3.95a6.62,6.62,0,0,1-3.01,3.87l-.05-.06a9.845,9.845,0,0,0,2.45-6.04,2.949,2.949,0,0,0-.06-.67l1.53.49a.2.2,0,0,1,.17.21.214.214,0,0,1-.08.17,4.514,4.514,0,0,1-.44.22,12.744,12.744,0,0,1-.4,1.47,5.416,5.416,0,0,0,1.94,2.49c0-3.95,0-4.2-.03-4.82-.01-.18-.1-.91-.12-1.06h-1.58a11.783,11.783,0,0,0-1.77.13l-.3-.6c1.04.09,2.1.11,2.31.11h1.45c0-.88,0-1.83-.01-2.64h-1.16a10.268,10.268,0,0,0-1.75.13l-.3-.58c.93.07,1.86.09,2.31.09h.9a6.557,6.557,0,0,0-.27-2.32l1.56.46c.12.03.21.07.21.18s-.38.43-.45.49v1.19h1.47l.58-.72c.09-.1.14-.18.24-.18s.15.04.27.15l.79.72c.08.07.15.13.15.24,0,.14-.13.15-.23.15h-3.3v2.64h2.37Z" fill="#040000"/>
      <path id="パス_3535" data-name="パス 3535" d="M325.06,156.09h-6.69l.52.12c.31.08.38.08.38.21s-.04.18-.38.36c0,.42.06,2.31.06,2.69,0,.9,0,1.35-1.57,1.8a2.208,2.208,0,0,0-1.27-1.38v-.09c.19,0,1.06.06,1.24.06.54,0,.54-.02.56-.56.02-.7,0-2.41-.02-3.21h-4.08a11.7,11.7,0,0,0-1.77.13l-.3-.6c1.02.09,2.08.11,2.31.11h.71c0-2.66,0-2.94-.23-3.78l1.47.41c.22.06.28.12.28.25s-.04.17-.46.45v2.67h2.05c0-3.38,0-3.75-.03-4.26-.02-.33-.06-.68-.17-1.47l1.38.38c.17.04.29.09.29.26,0,.1,0,.16-.45.42v1.93h2.16l.58-.85c.06-.08.15-.2.24-.2s.18.09.27.16l.96.86c.09.09.15.13.15.22,0,.15-.12.17-.23.17h-4.14v2.38H323l.71-.9c.09-.12.18-.2.24-.2a.434.434,0,0,1,.27.17l.9.9c.1.11.15.17.15.23,0,.15-.12.16-.23.16Zm-8.52,1.81a3.556,3.556,0,0,1-.38.12,11.241,11.241,0,0,1-4.06,3.93l-.06-.08a17.791,17.791,0,0,0,2.91-4.18,5.3,5.3,0,0,0,.29-.9l1.17.62c.14.07.25.13.25.31a.183.183,0,0,1-.12.18Zm4.59,2.67a12.555,12.555,0,0,1-8.43,3.59l-.02-.11a14.523,14.523,0,0,0,6.66-3.4,6.627,6.627,0,0,0,1.33-1.49l.92.9c.12.12.18.2.18.29,0,.18-.06.18-.65.22Zm2.61.39c-.43,0-.64-.33-.93-.79a9.039,9.039,0,0,0-2.71-2.97l.06-.09c2.68.64,4.18,2.29,4.18,3.21a.629.629,0,0,1-.6.64Z" fill="#040000"/>
      <path id="パス_3536" data-name="パス 3536" d="M330.05,158.73a2.563,2.563,0,0,1-1.3.39c-1.48,0-2.69-1.5-2.69-3.33,0-2.07,1.48-3.94,3.21-3.94s3.45,1.95,3.45,5.17c0,3.46-1.95,6.35-4.24,6.35-1,0-1.71-.6-1.71-1.3a.751.751,0,0,1,.77-.78c.3,0,.79.2.82,1.04.02.33.04.54.45.54a1.451,1.451,0,0,0,1.09-.53c1.33-1.47,1.41-3.69,1.47-5.03a4.006,4.006,0,0,1-1.32,1.43Zm.5-5.57a1.494,1.494,0,0,0-1.21-.81c-.79,0-1.92.84-1.92,3.3,0,.69.17,2.79,1.71,2.79.57,0,1.53-.42,2.23-2.04A7.3,7.3,0,0,0,330.55,153.16Z" fill="#040000"/>
      <path id="パス_3537" data-name="パス 3537" d="M338.14,152.73a12.919,12.919,0,0,1-4.65,5.1l-.08-.11a19.47,19.47,0,0,0,3.63-5.49,5.822,5.822,0,0,0,.24-.96l1.29.87a.314.314,0,0,1,.19.24c0,.18-.39.29-.63.35Zm5.44,4.7c-.15,5.4-.45,6.49-3.15,6.73a2.139,2.139,0,0,0-1.12-1.65l.02-.11a9.8,9.8,0,0,0,1.74.26c.72,0,1.01-.17,1.23-1.53a31.323,31.323,0,0,0,.23-4.32H339.5c-.09,2.35-1.09,6.42-5.82,7.29l-.03-.12a7.588,7.588,0,0,0,4.74-7.17h-.44a9.02,9.02,0,0,0-1.77.15l-.29-.6c.93.08,1.85.09,2.29.09h4.25l.4-.36a.434.434,0,0,1,.27-.16c.08,0,.15.07.21.13l.6.66a.359.359,0,0,1,.14.24c0,.14-.05.17-.47.47Zm2.73-.02c-1.6-.69-3.39-2.31-4.51-5.7h-1.2a7,7,0,0,0-1.26.09l-.2-.53c.68.06,1.33.07,1.64.07h.75l.48-.48c.13-.13.19-.16.27-.16s.15.07.25.16l.56.54a.252.252,0,0,1,.12.22c0,.3-.69.42-.96.46a6.985,6.985,0,0,0,5.5,4.02l.02.15a2.479,2.479,0,0,0-1.46,1.14Z" fill="#040000"/>
      <path id="パス_3538" data-name="パス 3538" d="M348.41,164.16l-.3-.3,13.26-13.26.3.3Z" fill="#040000"/>
      <path id="パス_3539" data-name="パス 3539" d="M362.35,152.13h4.99c2.29,0,3.81.9,3.81,2.43a2.575,2.575,0,0,1-1.04,1.98,3.463,3.463,0,0,1-1.48.66,4.149,4.149,0,0,1,2.01.75,2.739,2.739,0,0,1,1.14,2.12c0,1.34-1.17,3.02-4.08,3.02h-5.35v-.48h.6a.962.962,0,0,0,1.06-1.04v-7.9a.967.967,0,0,0-1.06-1.04h-.6v-.49Zm2.86,4.92h2a2.286,2.286,0,0,0,2.55-2.31c0-1.35-.92-2.12-2.42-2.12h-1.06a.962.962,0,0,0-1.06,1.04v3.39Zm0,.48v4.04a.963.963,0,0,0,1.06,1.04h1.31a2.475,2.475,0,0,0,2.77-2.49,2.523,2.523,0,0,0-2.73-2.58H365.2Z" fill="#040000"/>
      <path id="パス_3540" data-name="パス 3540" d="M376.54,154.43a.87.87,0,0,1-1.74,0,.87.87,0,0,1,1.74,0Zm0,5.91a.87.87,0,1,1-1.74,0,.877.877,0,0,1,.87-.87A.864.864,0,0,1,376.54,160.34Z" fill="#040000"/>
      <path id="パス_3541" data-name="パス 3541" d="M379.25,159.46a21.147,21.147,0,0,0,3.51-4.98,6.987,6.987,0,0,0,.29-.88l1.21.95a.238.238,0,0,1,.09.2c0,.21-.24.21-.58.27-.24.35-.54.77-1.08,1.47.18.15.25.2.25.3s-.06.18-.39.42c-.04.65-.04,1.23-.04,1.7,0,.64.04,3.54.04,4.12,0,.78,0,1.2-.66,1.2-.27,0-.53-.09-.53-.42,0-.19.09-1.05.09-1.21.04-.91.03-1.3.06-4.72a9.118,9.118,0,0,1-2.21,1.71l-.06-.11Zm.06-4.39a13.961,13.961,0,0,0,3.48-4.56l1.12.81s.12.11.12.18c0,.17-.06.18-.63.3a11.708,11.708,0,0,1-4.02,3.39l-.08-.12Zm11.95.79.54-.75c.12-.18.18-.2.22-.2.09,0,.15.06.29.16l.88.75c.09.08.15.14.15.23,0,.15-.12.16-.23.16h-5.34l1.4.45c.09.03.19.07.19.18,0,.2-.36.4-.46.45v1.48h1.54l.54-.64c.12-.13.15-.18.24-.18s.12.03.29.16l.75.63c.08.06.15.12.15.22,0,.13-.12.17-.23.17H388.9c0,.21-.02,3.22-.02,3.3a16.63,16.63,0,0,0,2.23.17,9.743,9.743,0,0,0,2.42-.27l.02.06a2.242,2.242,0,0,0-.87,1.46c-.24.02-.5.04-.85.04-4.83,0-5.62-2.71-5.97-3.95a6.62,6.62,0,0,1-3.01,3.87l-.05-.06a9.845,9.845,0,0,0,2.45-6.04,2.949,2.949,0,0,0-.06-.67l1.53.49a.2.2,0,0,1,.17.21.214.214,0,0,1-.08.17,4.514,4.514,0,0,1-.44.22,12.744,12.744,0,0,1-.4,1.47,5.416,5.416,0,0,0,1.94,2.49c0-3.95,0-4.2-.03-4.82-.01-.18-.1-.91-.12-1.06h-1.58a11.783,11.783,0,0,0-1.77.13l-.3-.6c1.04.09,2.1.11,2.31.11h1.45c0-.88,0-1.83-.01-2.64H386.7a10.268,10.268,0,0,0-1.75.13l-.3-.58c.93.07,1.86.09,2.31.09h.9a6.557,6.557,0,0,0-.27-2.32l1.56.46c.12.03.21.07.21.18s-.37.43-.45.49v1.19h1.47l.58-.72c.09-.1.14-.18.24-.18s.15.04.27.15l.79.72c.08.07.15.13.15.24,0,.14-.13.15-.23.15h-3.3v2.64h2.37Z" fill="#040000"/>
      <path id="パス_3542" data-name="パス 3542" d="M407.71,156.09h-6.69l.52.12c.31.08.38.08.38.21s-.04.18-.38.36c0,.42.06,2.31.06,2.69,0,.9,0,1.35-1.57,1.8a2.208,2.208,0,0,0-1.27-1.38v-.09c.19,0,1.06.06,1.24.06.54,0,.54-.02.56-.56.02-.7,0-2.41-.02-3.21h-4.08a11.7,11.7,0,0,0-1.77.13l-.3-.6c1.02.09,2.08.11,2.31.11h.71c0-2.66,0-2.94-.23-3.78l1.47.41c.22.06.28.12.28.25s-.04.17-.46.45v2.67h2.05c0-3.38,0-3.75-.03-4.26-.02-.33-.06-.68-.17-1.47l1.38.38c.17.04.29.09.29.26,0,.1,0,.16-.45.42v1.93h2.16l.58-.85c.06-.08.15-.2.24-.2s.18.09.27.16l.96.86c.09.09.15.13.15.22,0,.15-.12.17-.22.17h-4.14v2.38h4.12l.71-.9c.09-.12.18-.2.24-.2a.434.434,0,0,1,.27.17l.9.9c.1.11.15.17.15.23,0,.15-.12.16-.23.16Zm-8.52,1.81c-.06.03-.24.08-.37.12a11.241,11.241,0,0,1-4.06,3.93l-.06-.08a17.791,17.791,0,0,0,2.91-4.18,5.3,5.3,0,0,0,.29-.9l1.17.62c.13.07.25.13.25.31a.183.183,0,0,1-.12.18Zm4.59,2.67a12.555,12.555,0,0,1-8.43,3.59v-.11a14.54,14.54,0,0,0,6.65-3.4,6.627,6.627,0,0,0,1.33-1.49l.92.9c.12.12.18.2.18.29,0,.18-.06.18-.65.22Zm2.61.39c-.44,0-.65-.33-.93-.79a9.039,9.039,0,0,0-2.71-2.97l.06-.09c2.68.64,4.18,2.29,4.18,3.21a.629.629,0,0,1-.6.64Z" fill="#040000"/>
      <path id="パス_3543" data-name="パス 3543" d="M415.43,160.06a3.339,3.339,0,0,1-3.54,3.3c-1.71,0-3.24-.99-3.24-2.7,0-1.62,1.29-2.38,2.67-3.19-.79-.47-2.23-1.31-2.23-2.94a2.75,2.75,0,0,1,3-2.68,2.517,2.517,0,0,1,2.74,2.37c0,1.28-1.23,2.21-1.87,2.69,1.41.87,2.47,1.62,2.47,3.16Zm-5.52.55a2.164,2.164,0,0,0,2.16,2.24,2.336,2.336,0,0,0,2.28-2.27c0-1.43-1.48-2.27-2.58-2.88a3.8,3.8,0,0,0-1.86,2.91Zm3.82-6.24a1.9,1.9,0,0,0-1.86-2.03,1.717,1.717,0,0,0-1.77,1.79c0,1.05.85,1.57,2.42,2.5a2.844,2.844,0,0,0,1.21-2.26Z" fill="#040000"/>
      <path id="パス_3544" data-name="パス 3544" d="M420.79,152.73a12.919,12.919,0,0,1-4.65,5.1l-.07-.11a19.47,19.47,0,0,0,3.63-5.49,5.822,5.822,0,0,0,.24-.96l1.29.87c.08.04.2.13.2.24,0,.18-.39.29-.63.35Zm5.44,4.7c-.15,5.4-.45,6.49-3.15,6.73a2.139,2.139,0,0,0-1.12-1.65l.02-.11a9.8,9.8,0,0,0,1.74.26c.72,0,1.01-.17,1.23-1.53a31.323,31.323,0,0,0,.23-4.32h-3.03c-.09,2.35-1.09,6.42-5.82,7.29l-.03-.12a7.588,7.588,0,0,0,4.74-7.17h-.44a9.076,9.076,0,0,0-1.77.15l-.28-.6c.93.08,1.84.09,2.29.09h4.25l.4-.36a.434.434,0,0,1,.27-.16c.08,0,.15.07.21.13l.6.66a.343.343,0,0,1,.13.24c0,.14-.04.17-.46.47Zm2.73-.02c-1.6-.69-3.39-2.31-4.51-5.7h-1.2a7,7,0,0,0-1.26.09l-.2-.53c.68.06,1.33.07,1.64.07h.75l.48-.48c.13-.13.19-.16.27-.16s.15.07.25.16l.55.54a.252.252,0,0,1,.12.22c0,.3-.69.42-.96.46a6.985,6.985,0,0,0,5.5,4.02l.02.15a2.479,2.479,0,0,0-1.46,1.14Z" fill="#040000"/>
      <path id="パス_3545" data-name="パス 3545" d="M431.09,164.64l-.13-.21a10.145,10.145,0,0,0,0-14.1l.13-.21a9.183,9.183,0,0,1,0,14.52Z" fill="#040000"/>
    </g>
    <g id="グループ_118" data-name="グループ 118" transform="translate(0 -1.65)">
      <path id="パス_3137" data-name="パス 3137" d="M13.32,7.38A6.66,6.66,0,1,1,6.66.72,6.664,6.664,0,0,1,13.32,7.38Z" fill="#af9f4b"/>
      <path id="パス_3138" data-name="パス 3138" d="M28.11,9.91c-.11,0-.18-.03-.81-.39a8.567,8.567,0,0,0-3.49-.86c-1.56,0-2.91.63-2.91,1.88,0,1.66,2.19,1.88,3.9,1.88a5.007,5.007,0,0,1,1.43.07.713.713,0,0,1,.52.62c0,.44-.54.48-.81.48a13.2,13.2,0,0,1-3.07-.35c-.77-.2-2.42-.78-2.42-2.43a2.492,2.492,0,0,1,1.31-2.12,5.436,5.436,0,0,1,2.82-.55,9.582,9.582,0,0,1,2.53.29.609.609,0,0,0,.17.03c.06,0,.1-.01.1-.09a15.618,15.618,0,0,0-2.8-3.43,10.471,10.471,0,0,1-3.4.75,1.892,1.892,0,0,1-1.89-1.38A3.075,3.075,0,0,0,21,4.85a8.423,8.423,0,0,0,2.82-.56c-.93-.73-1.25-.94-1.57-1.17-.57-.38-.57-.71-.57-.85,0-.46.42-1.04.87-1.04a2.88,2.88,0,0,1,1.21.53c-.1.01-.61.04-.69.07a.346.346,0,0,0-.21.33c0,.35.75,1.04,1.67,1.88.51-.2,1.83-.73,1.83-1.1,0-.18-.18-.29-.51-.49l.02-.06a5.052,5.052,0,0,0,.78.11c.14,0,.69-.17.81-.17a.529.529,0,0,1,.56.5.625.625,0,0,1-.23.46A7.557,7.557,0,0,1,25.25,4.7a38.661,38.661,0,0,1,2.84,2.92,2.066,2.066,0,0,1,.7,1.2c0,.49-.36,1.09-.66,1.09Z" fill="#040000"/>
      <path id="パス_3139" data-name="パス 3139" d="M38.42,12.81c-1.68,0-1.83-1.26-2.02-2.76-.1-.9-.23-1.88-1.14-1.88-1.88,0-3.04,2.72-3.46,3.69-.48,1.09-.52,1.21-.88,1.21-.41,0-.51-.63-.51-.97,0-.2,0-.39.51-1.08.94-1.3,4.39-7.63,4.39-8.33,0-.34-.22-.49-.82-.88a1.248,1.248,0,0,1,.59-.15,1.684,1.684,0,0,1,1.61,1.35c0,.29-.05.34-.52.93a39.614,39.614,0,0,0-3.09,4.81A4.057,4.057,0,0,1,35.6,7.64c1.46,0,1.6,1.02,1.79,2.12.24,1.44.54,1.92,1.24,1.92,1.83,0,3.23-2.66,3.73-3.71l.15.03c-.26,1.01-1.25,4.8-4.06,4.8Z" fill="#040000"/>
      <path id="パス_3140" data-name="パス 3140" d="M52.08,9.91c-.11,0-.18-.03-.81-.39a8.567,8.567,0,0,0-3.49-.86c-1.56,0-2.91.63-2.91,1.88,0,1.66,2.19,1.88,3.9,1.88a5.057,5.057,0,0,1,1.43.07.713.713,0,0,1,.52.62c0,.44-.54.48-.81.48a13.2,13.2,0,0,1-3.07-.35c-.77-.2-2.41-.78-2.41-2.43a2.492,2.492,0,0,1,1.31-2.12,5.436,5.436,0,0,1,2.82-.55,9.582,9.582,0,0,1,2.53.29.555.555,0,0,0,.17.03c.07,0,.1-.01.1-.09a15.618,15.618,0,0,0-2.8-3.43,10.471,10.471,0,0,1-3.4.75,1.885,1.885,0,0,1-1.89-1.38,3.075,3.075,0,0,0,1.71.54,8.423,8.423,0,0,0,2.82-.56c-.93-.73-1.25-.94-1.57-1.17-.57-.38-.57-.71-.57-.85,0-.46.42-1.04.87-1.04a2.88,2.88,0,0,1,1.21.53c-.1.01-.61.04-.69.07a.346.346,0,0,0-.21.33c0,.35.75,1.04,1.66,1.88.51-.2,1.83-.73,1.83-1.1,0-.18-.18-.29-.51-.49l.02-.06a5.052,5.052,0,0,0,.78.11c.14,0,.69-.17.81-.17a.529.529,0,0,1,.56.5.625.625,0,0,1-.23.46A7.557,7.557,0,0,1,49.22,4.7a38.661,38.661,0,0,1,2.84,2.92,2.091,2.091,0,0,1,.71,1.2c0,.49-.36,1.09-.66,1.09Z" fill="#040000"/>
      <path id="パス_3141" data-name="パス 3141" d="M62.39,12.81c-1.68,0-1.83-1.26-2.02-2.76-.1-.9-.23-1.88-1.14-1.88-1.88,0-3.04,2.72-3.46,3.69-.48,1.09-.52,1.21-.88,1.21-.41,0-.51-.63-.51-.97,0-.2,0-.39.51-1.08.94-1.3,4.39-7.63,4.39-8.33,0-.34-.22-.49-.82-.88a1.248,1.248,0,0,1,.59-.15,1.673,1.673,0,0,1,1.6,1.35c0,.29-.04.34-.52.93a39.614,39.614,0,0,0-3.09,4.81,4.057,4.057,0,0,1,2.52-1.11c1.46,0,1.6,1.02,1.79,2.12.24,1.44.54,1.92,1.24,1.92,1.83,0,3.23-2.66,3.73-3.71l.15.03c-.26,1.01-1.25,4.8-4.06,4.8Z" fill="#040000"/>
      <path id="パス_3142" data-name="パス 3142" d="M73.2,8.67H71.21l-.02.51c.39.11,1.86.54,1.86,1.44a.531.531,0,0,1-.52.53c-.36,0-.61-.46-.77-.79-.33-.72-.36-.81-.57-.97-.02,1.15.02,3.01.02,4.17a.607.607,0,0,1-.69.7c-.42,0-.42-.24-.42-.38,0-.59.13-3.17.15-3.7a10.251,10.251,0,0,1-3.24,2.61l-.05-.07a14.773,14.773,0,0,0,3.23-4.04H69.08a11.7,11.7,0,0,0-1.77.13l-.3-.58c1.03.07,2.1.09,2.31.09h.95a6.421,6.421,0,0,0-.24-2.16l1.27.34c.25.08.35.12.35.23,0,.18-.15.27-.42.45,0,.54-.02.82-.02,1.14h.63l.4-.45c.12-.12.16-.2.24-.2s.13.06.27.17l.52.45c.08.08.15.13.15.24,0,.13-.12.15-.23.15Zm5.34-2.28c-1.72-.54-4.08-2.55-4.48-3.78h-.01c0,.45.01.88.03,1.46.03.66.09,1.7.09,2.36a.7.7,0,0,1-.78.75c-.39,0-.4-.27-.4-.45,0-.38.09-2.15.11-2.55.01-.46.01-.73.01-.93a10.946,10.946,0,0,1-5.25,3.2V6.36a17.359,17.359,0,0,0,4.48-3.74H70.17a11.216,11.216,0,0,0-1.76.13l-.3-.6c1.17.11,2.28.11,2.29.11h2.67a6.507,6.507,0,0,0-.3-1.85l1.41.38c.25.08.32.15.32.27s-.05.15-.42.42a7.078,7.078,0,0,0-.03.78h3.42l.54-.73c.09-.12.15-.2.23-.2s.15.06.27.16l.81.74c.08.07.15.13.15.22,0,.16-.15.16-.24.16H74.28a8.166,8.166,0,0,0,5.7,2.47v.08a2.962,2.962,0,0,0-1.43,1.23Zm1.12,6.49A7.689,7.689,0,0,1,76.8,8.97c.02.69.12,4.23.12,4.47,0,.35-.12.78-.7.78a.4.4,0,0,1-.44-.39c0-.09.04-.53.04-.62.06-1.68.09-3.17.09-3.45a9.957,9.957,0,0,1-3.96,3.03l-.04-.09a15.5,15.5,0,0,0,3.58-3.96,8.613,8.613,0,0,0-1.38.13l-.3-.6c.34.03.93.09,2.1.11a6.669,6.669,0,0,0-.36-2.32l1.31.33c.19.04.36.09.36.25a.248.248,0,0,1-.1.18,3.414,3.414,0,0,0-.3.23c-.02.28-.03.57-.03,1.33H78.8l.49-.68c.1-.15.16-.19.24-.19s.16.06.27.16l.66.68c.11.12.15.15.15.22,0,.15-.12.16-.23.16H76.94a6.1,6.1,0,0,0,4.05,3.13v.06a2.955,2.955,0,0,0-1.33.95Z" fill="#040000"/>
      <path id="パス_3143" data-name="パス 3143" d="M88.05,12.75l-.02-.12c3.21-1.14,4.71-3.25,4.71-5.53,0-2.54-2.04-4.04-4.65-4.04a1.091,1.091,0,0,0-.61.09c.81.44,1.03.99,1.03,1.2,0,.17-.04.27-.51,1.25-.96,2.05-2.37,5.07-3.39,5.91a.807.807,0,0,1-.48.17c-.34,0-.48-.2-.93-.83-.11-.15-.71-.7-.81-.84a2.829,2.829,0,0,1-.42-1.53A6.087,6.087,0,0,1,88.36,2.6c2.91,0,5.55,1.69,5.55,4.71s-2.43,5.14-5.86,5.45ZM86.86,3.24A5.456,5.456,0,0,0,82.92,8.4c0,1.02.59,2.14,1.17,2.14.4,0,.99-1.06,1.25-1.57,1.5-3.02,1.99-3.99,1.99-4.77a1.315,1.315,0,0,0-.46-.96Z" fill="#040000"/>
      <path id="パス_3144" data-name="パス 3144" d="M98.52,4.24c.08.04.18.12.18.2,0,.2-.15.29-.36.44,0,2.7,0,5.4.01,8.08,0,.54,0,1.17-.78,1.17-.39,0-.46-.2-.46-.4,0-.22.13-1.89.15-2.25.09-1.98.09-3.6.1-6.45a12.646,12.646,0,0,1-2.37,2.8l-.09-.08A21.553,21.553,0,0,0,98.05.69c0-.09-.02-.2-.03-.3l1.41.76a.358.358,0,0,1,.21.29c0,.2-.18.26-.57.39a12.853,12.853,0,0,1-1.05,2.12l.49.3Zm2.29,3.98a10.454,10.454,0,0,0-1.75.13l-.3-.6c.77.06,1.53.11,2.31.11h2.05a10.847,10.847,0,0,0-.19-2.31l1.4.3c.07.02.19.06.19.18s-.1.21-.41.46c0,.41-.01.77-.01,1.37h2.62l.6-.69c.15-.18.17-.2.24-.2s.07.02.28.17l.95.69a.281.281,0,0,1,.15.22c0,.13-.12.17-.23.17H104.3a8.051,8.051,0,0,0,4.86,3.76v.09a2.948,2.948,0,0,0-1.33,1.06,10.65,10.65,0,0,1-3.72-4.92h-.01c0,.91.04,2.34.06,2.76.01.38.1,2.07.1,2.41,0,.26,0,.78-.79.78-.35,0-.47-.18-.47-.49,0-.02.1-2.36.1-2.62.02-.79.03-1.35.03-2.05a10.934,10.934,0,0,1-4.63,4.05l-.02-.1a17.375,17.375,0,0,0,3.99-4.72H100.8Zm4.98-6.84.31-.35a.3.3,0,0,1,.23-.13.517.517,0,0,1,.28.13l.6.45c.09.08.2.18.2.27,0,.15-.14.27-.51.45-.02,1.01.02,1.68.02,1.86.02.21.07,1.23.07,1.34,0,.39-.18.69-.73.69-.38,0-.36-.35-.34-.69h-4.23c0,.45-.21.82-.69.82-.33,0-.42-.24-.42-.48,0-.12.1-2.5.1-2.98a10.108,10.108,0,0,0-.14-2.12l1.27.74h3.98Zm-4.14.36v3.3h4.26V1.74h-4.26Z" fill="#040000"/>
      <path id="パス_3145" data-name="パス 3145" d="M120.96,2.58l.64-.81c.09-.1.15-.21.25-.21s.21.11.29.16l.84.81c.07.06.17.15.17.24,0,.13-.12.16-.23.16h-6.6c-.6.57-1.34,1.23-2.13,1.86,1.81-.09,3.42-.17,5.47-.36a4.176,4.176,0,0,0-1.33-.81l.06-.12c2.23.35,4.09,1.23,4.09,2.21a.644.644,0,0,1-.61.66c-.29,0-.45-.15-.91-.68a8.787,8.787,0,0,0-1.02-1.04c-.31.06-3.63.74-8.52,1.32-.11.21-.2.39-.36.39-.13,0-.21-.13-.25-.27l-.54-1.46a6.224,6.224,0,0,0,1.74.22c.09,0,.55,0,1.77-.06a17.956,17.956,0,0,0,.93-1.88h-2.74a10.431,10.431,0,0,0-1.76.13l-.3-.6c1.02.08,2.08.11,2.29.11h3.78a5.209,5.209,0,0,0-.33-2.14l1.56.36c.14.03.27.07.27.22,0,.09-.29.36-.42.5V2.55h3.9Zm-1.62,3.75c.12-.13.2-.2.29-.2a.358.358,0,0,1,.21.09l.6.42c.07.06.18.18.18.26a.4.4,0,0,1-.13.21,2.89,2.89,0,0,0-.25.24c0,.82.11,4.62.11,5.28,0,1.37-1.59,1.63-1.8,1.67-.03-.27-.12-.88-1.27-1.39v-.12c.63.05,1.27.06,1.34.06.56,0,.63,0,.63-.27V10.99h-5.26c.02.4.08,2.25.08,2.53a.73.73,0,0,1-.78.78c-.42,0-.42-.27-.42-.48,0-.24.08-1.3.08-1.53.03-1.23.04-2.94.04-4.14a8.131,8.131,0,0,0-.19-2.08l1.39.64h4.87l.31-.38Zm-.12.73h-5.26V8.6h5.26V7.06Zm0,1.91h-5.26v1.65h5.26Z" fill="#040000"/>
      <path id="パス_3146" data-name="パス 3146" d="M135.69,1.55l.44-.36a.426.426,0,0,1,.27-.13.412.412,0,0,1,.21.1l.65.56c.07.06.16.15.16.24,0,.18-.16.29-.5.51-.02.82-.03,2.55,0,5.25,0,.87.06,4.71.06,5.49a.757.757,0,0,1-.74.81c-.46,0-.43-.35-.4-.87h-9.31a2.41,2.41,0,0,1-.02.5c-.05.33-.48.51-.75.51-.31,0-.39-.21-.39-.46,0-.2.08-1.1.08-1.28.04-1,.06-1.74.06-7.14a30.2,30.2,0,0,0-.15-4.34l1.29.62h9.04Zm-9.16.36V12.79h9.31V1.9h-9.31Zm7.75,7.29a.358.358,0,0,1,.09.18c0,.2-.16.22-.29.22a1.533,1.533,0,0,1-.27-.02c-.48.2-.63.24-1.14.41.63.22,1.97.72,1.97,1.5a.474.474,0,0,1-.47.49c-.18,0-.25-.04-.84-.69a7.739,7.739,0,0,0-1.82-1.46c0,.29.04,1.68.04,1.83a.7.7,0,0,1-.69.67c-.24,0-.33-.21-.33-.45,0-.45.06-2.41.06-2.82a8.629,8.629,0,0,1-3.76,2.46l-.06-.09a13.34,13.34,0,0,0,3.42-3.17h-.89a.561.561,0,0,1-.6.57c-.39,0-.39-.27-.39-.44,0-.07.06-1.3.06-1.54a5.523,5.523,0,0,0-.1-1.18l1.12.45h3.4l.27-.25c.07-.08.15-.15.21-.15a.381.381,0,0,1,.21.12l.52.46a.259.259,0,0,1,.12.21c0,.06-.09.15-.35.38,0,.2.03,1.05.03,1.21a.507.507,0,0,1-.24.49l.69.59Zm-1.44-5.69.31-.45c.08-.12.15-.18.23-.18a.551.551,0,0,1,.29.15l.52.45c.08.06.17.13.17.22,0,.13-.14.16-.24.16h-2.58V4.97h2.07l.44-.51c.09-.11.15-.18.24-.18a.507.507,0,0,1,.29.15l.6.51c.09.08.15.13.15.23,0,.15-.14.16-.23.16h-6.21a11.047,11.047,0,0,0-1.77.13l-.3-.6c.77.07,1.54.11,2.31.11h1.47V3.86h-1.02a9.794,9.794,0,0,0-1.77.14l-.3-.6c.93.08,2.02.11,2.31.11h.78a5.583,5.583,0,0,0-.27-1.33l1.39.36c.09.03.2.06.2.18,0,.17-.15.26-.38.39v.4h1.3Zm.02,4.41V6.49h-3.54V7.92Zm-1.34.36c-.02.64-.02,1.05-.02,1.41a4.47,4.47,0,0,1,.85.2,6.766,6.766,0,0,0,1.06-1.21c-.34.09-.57-.07-.57-.39H131.5Z" fill="#040000"/>
      <path id="パス_3147" data-name="パス 3147" d="M152.19,2.54H146V5c1.48.26,3.76,1.1,3.76,2.55a.638.638,0,0,1-.63.7c-.39,0-.51-.2-1.05-1.06a6.387,6.387,0,0,0-2.09-2.01c.02,3.4.02,3.78.09,7.23,0,.11.02.6.02.71a.721.721,0,0,1-.81.78c-.51,0-.51-.33-.51-.49,0-.44.1-2.56.12-3.04.03-1.19.03-1.85.03-7.81h-3.64a11.3,11.3,0,0,0-1.75.13l-.3-.6c.76.06,1.53.11,2.31.11h8.34l.84-.81c.11-.09.2-.17.24-.17a.459.459,0,0,1,.28.15l1.04.79a.318.318,0,0,1,.15.22c0,.15-.15.17-.24.17Z" fill="#040000"/>
      <path id="パス_3148" data-name="パス 3148" d="M166.68,13.57a6.948,6.948,0,0,1-2.53.22c-1.21,0-2.13-.03-2.13-1.38,0-1.25.34-6.73.39-7.86h-2.43a20.265,20.265,0,0,1-.59,3.46c.36.21,1.83,1.11,1.83,1.98a.547.547,0,0,1-.6.59.538.538,0,0,1-.46-.24c-.65-.75-.81-.91-1.1-1.21a8.148,8.148,0,0,1-3.36,4.23,8.552,8.552,0,0,1-2.05.94l-.05-.09a9.762,9.762,0,0,0,4.65-5.85,8.349,8.349,0,0,0-2.23-1.48V6.79a8.677,8.677,0,0,1,2.44.75,16.1,16.1,0,0,0,.41-2.98h-2.56a10.533,10.533,0,0,0-1.77.13l-.29-.59c.93.08,1.86.09,2.29.09h2.35a14.437,14.437,0,0,0-.27-3.76l1.85.54s.15.09.15.21-.09.2-.46.49c-.03,1.41-.12,2.3-.14,2.52h2.27l.57-.49c.06-.04.16-.15.24-.15a.412.412,0,0,1,.24.11l.73.63s.12.09.12.17c0,.15-.19.25-.67.53-.15.99-.33,4.84-.38,6.12-.02.4-.03.78-.03.84,0,.79.23.79,1.61.79.67,0,1.02,0,1.19-.53.13-.42.4-1.69.51-2.22h.09c.06.34.28,1.86.38,2.16.06.16.09.19.3.39a.425.425,0,0,1,.13.33c0,.22-.17.51-.63.71Z" fill="#040000"/>
      <path id="パス_3149" data-name="パス 3149" d="M181.61,7.46h-6.04v4.89c0,.57,0,1.67-1.92,1.86-.04-.45-.15-.97-1.75-1.71l.02-.11a12.428,12.428,0,0,0,1.63.15c.7,0,.91-.06.91-.63V7.45h-4.14a10.471,10.471,0,0,0-1.77.13l-.3-.6c.93.07,1.86.11,2.31.11h3.9V5.57a4.161,4.161,0,0,0-.25-1.77l1.39.39a18.706,18.706,0,0,0,1.5-2.3h-5.13a9.852,9.852,0,0,0-1.77.14l-.29-.6c.93.08,1.84.11,2.29.11h4.98l.58-.51c.15-.12.18-.15.28-.15.06,0,.12.04.25.15l1.05.86a.357.357,0,0,1,.15.25c0,.22-.18.29-1.11.32a30.867,30.867,0,0,1-2.5,1.83.229.229,0,0,1,.18.2c0,.2-.24.33-.51.5V7.11h3.79l.78-.86c.14-.13.16-.2.23-.2s.15.06.29.16l1.03.86a.3.3,0,0,1,.15.24c0,.13-.12.15-.22.15Z" fill="#040000"/>
      <path id="パス_3150" data-name="パス 3150" d="M185.03,14.14V.62h3.78v.64h-3.15V13.5h3.15v.64Z" fill="#040000"/>
      <path id="パス_3151" data-name="パス 3151" d="M197.48,5.49h-2.96c0,.13,0,.9.02,1.54,1.11.3,2.44,1.2,2.44,2.03a.652.652,0,0,1-.58.69c-.4,0-.57-.35-.84-.96a3.765,3.765,0,0,0-1.02-1.47c0,.96.06,5.17.06,6.03,0,.69-.39.86-.69.86-.46,0-.46-.39-.46-.55,0-.74.13-3.96.15-4.62.01-.57.01-.93.01-1.26a13.151,13.151,0,0,1-3.49,4.12l-.09-.09a24.33,24.33,0,0,0,3.51-6.31h-1.07a9.552,9.552,0,0,0-1.77.13l-.3-.6c1.03.09,2.1.11,2.31.11h.89V2.65a15.158,15.158,0,0,1-2.89.22V2.74c1.63-.32,4.44-1.21,5.22-2.05l1,1.05a.283.283,0,0,1,.09.2c0,.12-.06.15-.23.15-.05,0-.41-.08-.48-.09-.33.09-.77.22-1.79.46V5.15h1.21l.53-.68c.09-.12.15-.18.22-.18a.571.571,0,0,1,.29.15l.78.67c.11.09.15.13.15.22,0,.13-.12.17-.23.17Zm5.4,7.98c-.5,0-.65-.52-.72-.85-.09-.41-.23-1.02-.27-1.2a50.327,50.327,0,0,1-5.26,1.38c-.04.04-.15.29-.19.33a.252.252,0,0,1-.18.07c-.09,0-.18-.05-.29-.29l-.57-1.33a6.262,6.262,0,0,0,.92.07c.18,0,.3,0,.76-.03,1.06-3.42,2.35-8.76,2.22-10.45l1.69.66c.08.03.21.11.21.24,0,.15-.06.18-.66.46a58.344,58.344,0,0,1-3.03,9.07,41.127,41.127,0,0,0,4.31-.45,11.316,11.316,0,0,0-1.71-3.06l.06-.07c1.84,1.08,3.4,3.31,3.4,4.6,0,.74-.51.84-.69.84Z" fill="#040000"/>
      <path id="パス_3152" data-name="パス 3152" d="M215.78,12.78l.78-.84c.08-.07.15-.2.24-.2.11,0,.18.08.28.17l1.04.84a.3.3,0,0,1,.15.22c0,.13-.12.16-.23.16H206.9a10.525,10.525,0,0,0-1.77.14l-.29-.6c.99.09,2.01.11,2.3.11h4.51c.35-.84,2.14-6.22,2.06-8.14l1.68.82a.27.27,0,0,1,.14.21c0,.16-.06.18-.6.4-.21.53-1.15,2.95-1.31,3.32a23.993,23.993,0,0,1-1.63,3.39h3.79Zm-.87-9.18.63-.84c.1-.13.16-.2.23-.2.09,0,.18.09.29.17l1.05.86c.09.07.14.13.14.21,0,.13-.1.17-.23.17h-9.18a11.32,11.32,0,0,0-1.77.13l-.28-.59c1.03.08,2.16.09,2.29.09h2.91A6.917,6.917,0,0,0,210.6.72l1.8.45c.08.02.18.04.18.15,0,.15-.34.42-.54.58-.03.27-.03,1.46-.03,1.7h2.91Zm-7.17,1.39a8.659,8.659,0,0,1,2.56,5.61c0,.6-.35.96-.72.96-.6,0-.65-.69-.67-1.06a14.353,14.353,0,0,0-1.23-5.46l.06-.04Z" fill="#040000"/>
      <path id="パス_3153" data-name="パス 3153" d="M219.54,14.14V13.5h3.15V1.26h-3.15V.62h3.78V14.15h-3.78Z" fill="#040000"/>
    </g>
    <g id="グループ_119" data-name="グループ 119" transform="translate(23.01 -1.65)">
      <path id="パス_3154" data-name="パス 3154" d="M251.61,14.64a9.312,9.312,0,0,1-3.55-7.26A9.312,9.312,0,0,1,251.61.12l.14.21a9.862,9.862,0,0,0-2.85,7.05,9.849,9.849,0,0,0,2.85,7.05Z" fill="#040000"/>
      <path id="パス_3155" data-name="パス 3155" d="M255.98,9.22l-.73,2.28a1.239,1.239,0,0,0-.09.5.555.555,0,0,0,.63.6h.42v.48h-3.25V12.6h.49c.63,0,1.17-.64,1.41-1.38l2.96-9.09,1.32-.29,3.28,9.73c.3.87.69,1.02,1.11,1.02h.33v.48h-3.69v-.48h.45a.648.648,0,0,0,.61-.66,1.728,1.728,0,0,0-.13-.55l-.72-2.16h-4.39Zm2.16-6.6-1.99,6.12h4.06l-2.07-6.12Z" fill="#040000"/>
      <path id="パス_3156" data-name="パス 3156" d="M268.75,4.43a.87.87,0,1,1-1.74,0,.87.87,0,1,1,1.74,0Zm0,5.91a.87.87,0,1,1-1.74,0,.877.877,0,0,1,.87-.87A.864.864,0,0,1,268.75,10.34Z" fill="#040000"/>
      <path id="パス_3157" data-name="パス 3157" d="M271.47,9.46a21.147,21.147,0,0,0,3.51-4.98,6.987,6.987,0,0,0,.29-.88l1.21.95a.238.238,0,0,1,.09.2c0,.21-.24.21-.59.27-.24.35-.54.77-1.08,1.47.18.15.25.2.25.3s-.06.18-.39.42c-.05.65-.05,1.23-.05,1.7,0,.64.05,3.54.05,4.12,0,.78,0,1.2-.66,1.2-.27,0-.53-.09-.53-.42,0-.19.09-1.05.09-1.21.04-.91.03-1.3.06-4.72a9.118,9.118,0,0,1-2.21,1.71l-.06-.11Zm.06-4.39A13.961,13.961,0,0,0,275.01.51l1.12.81s.12.11.12.18c0,.17-.06.18-.63.3a11.708,11.708,0,0,1-4.02,3.39l-.08-.12Zm11.95.79.54-.75c.12-.18.18-.2.22-.2.09,0,.15.06.29.16l.89.75c.09.08.15.14.15.23,0,.15-.12.16-.23.16H280l1.4.45c.09.03.19.07.19.18,0,.2-.36.4-.46.45V8.77h1.54l.54-.64c.12-.13.15-.18.24-.18s.12.03.29.16l.75.63c.08.06.15.12.15.22,0,.13-.12.17-.23.17h-3.28c0,.21-.02,3.22-.02,3.3a16.629,16.629,0,0,0,2.23.17,9.744,9.744,0,0,0,2.42-.27l.02.06a2.242,2.242,0,0,0-.87,1.46c-.24.02-.5.04-.85.04-4.83,0-5.62-2.71-5.97-3.95a6.62,6.62,0,0,1-3.01,3.87l-.05-.06a9.845,9.845,0,0,0,2.45-6.04,2.949,2.949,0,0,0-.06-.67l1.53.49a.193.193,0,0,1,.16.21.214.214,0,0,1-.08.17,4.512,4.512,0,0,1-.44.22,12.744,12.744,0,0,1-.4,1.47,5.483,5.483,0,0,0,1.93,2.49c0-3.95,0-4.2-.03-4.82-.01-.18-.1-.91-.12-1.06h-1.58a11.783,11.783,0,0,0-1.77.13l-.3-.6c1.04.09,2.1.11,2.31.11h1.45c0-.88,0-1.83-.01-2.64h-1.16a10.269,10.269,0,0,0-1.75.13l-.3-.58c.93.07,1.86.09,2.31.09h.9A6.557,6.557,0,0,0,279.8.53l1.56.46c.12.03.21.07.21.18s-.38.43-.45.49V2.85h1.47l.59-.72c.09-.1.14-.18.24-.18s.15.04.27.15l.79.72c.08.07.15.13.15.24,0,.14-.13.15-.23.15h-3.3V5.85h2.37Z" fill="#040000"/>
      <path id="パス_3158" data-name="パス 3158" d="M299.92,6.09h-6.69l.52.12c.31.08.38.08.38.21s-.04.18-.38.36c0,.42.06,2.31.06,2.69,0,.9,0,1.35-1.57,1.8a2.182,2.182,0,0,0-1.27-1.38V9.8c.19,0,1.07.06,1.24.06.54,0,.54-.02.56-.56.02-.7,0-2.41-.02-3.21h-4.08a11.7,11.7,0,0,0-1.77.13l-.3-.6c1.02.09,2.08.11,2.31.11h.7c0-2.66,0-2.94-.23-3.78l1.47.41c.22.06.28.12.28.25s-.04.17-.46.45V5.73h2.05c0-3.38,0-3.75-.03-4.26-.02-.33-.06-.68-.16-1.47l1.38.38c.17.05.29.09.29.26,0,.1,0,.16-.45.42V2.99h2.16l.58-.85c.06-.08.15-.2.24-.2s.18.09.27.16l.96.86c.09.09.15.13.15.22,0,.15-.12.17-.23.17h-4.14V5.73h4.12l.71-.9c.09-.12.18-.2.24-.2a.434.434,0,0,1,.27.17l.9.9c.11.11.15.17.15.23,0,.15-.12.16-.23.16ZM291.4,7.9a3.558,3.558,0,0,1-.38.12,11.241,11.241,0,0,1-4.06,3.93l-.06-.08a17.791,17.791,0,0,0,2.91-4.18,5.3,5.3,0,0,0,.29-.9l1.17.62c.14.07.25.13.25.31a.183.183,0,0,1-.12.18Zm4.59,2.67a12.556,12.556,0,0,1-8.43,3.59l-.02-.11a14.523,14.523,0,0,0,6.66-3.4,6.933,6.933,0,0,0,1.34-1.49l.91.9c.12.12.18.2.18.29C296.63,10.53,296.57,10.53,295.99,10.57Zm2.61.39c-.43,0-.64-.33-.93-.79a8.938,8.938,0,0,0-2.71-2.97l.06-.09c2.68.64,4.18,2.29,4.18,3.21A.629.629,0,0,1,298.6,10.96Z" fill="#040000"/>
      <path id="パス_3159" data-name="パス 3159" d="M307.65,10.06a3.339,3.339,0,0,1-3.54,3.3c-1.71,0-3.24-.99-3.24-2.7,0-1.62,1.29-2.38,2.67-3.19-.8-.47-2.23-1.31-2.23-2.94a2.75,2.75,0,0,1,3-2.68,2.517,2.517,0,0,1,2.74,2.37c0,1.28-1.23,2.21-1.87,2.69,1.41.87,2.47,1.62,2.47,3.16Zm-5.52.55a2.164,2.164,0,0,0,2.16,2.24,2.336,2.336,0,0,0,2.28-2.27c0-1.43-1.48-2.27-2.58-2.88a3.8,3.8,0,0,0-1.86,2.91Zm3.82-6.24a1.9,1.9,0,0,0-1.86-2.03,1.717,1.717,0,0,0-1.77,1.79c0,1.05.85,1.57,2.42,2.5a2.872,2.872,0,0,0,1.21-2.26Z" fill="#040000"/>
      <path id="パス_3160" data-name="パス 3160" d="M313,2.73a12.919,12.919,0,0,1-4.65,5.1l-.08-.11a19.471,19.471,0,0,0,3.63-5.49,5.822,5.822,0,0,0,.24-.96l1.29.87a.314.314,0,0,1,.19.24c0,.18-.39.29-.63.35Zm5.44,4.7c-.15,5.4-.45,6.49-3.15,6.73a2.139,2.139,0,0,0-1.12-1.65l.02-.11a9.8,9.8,0,0,0,1.74.26c.72,0,1.01-.17,1.23-1.53a31.323,31.323,0,0,0,.23-4.32h-3.03c-.09,2.35-1.09,6.42-5.82,7.29l-.03-.12a7.588,7.588,0,0,0,4.74-7.17h-.43a9.02,9.02,0,0,0-1.77.15l-.29-.6c.93.08,1.85.09,2.29.09h4.25l.4-.36a.434.434,0,0,1,.27-.16c.08,0,.15.07.21.13l.6.66a.359.359,0,0,1,.14.24c0,.14-.05.17-.47.47Zm2.73-.02c-1.61-.69-3.39-2.31-4.51-5.7h-1.2a7,7,0,0,0-1.26.09l-.2-.53c.68.06,1.34.07,1.64.07h.75l.48-.48c.13-.13.19-.16.27-.16s.15.07.25.16l.56.54a.252.252,0,0,1,.12.22c0,.3-.69.42-.96.46a6.985,6.985,0,0,0,5.5,4.02l.02.15a2.479,2.479,0,0,0-1.46,1.14Z" fill="#040000"/>
      <path id="パス_3161" data-name="パス 3161" d="M323.28,14.16l-.3-.3L336.24.6l.3.3Z" fill="#040000"/>
      <path id="パス_3162" data-name="パス 3162" d="M337.21,2.13h4.99c2.29,0,3.81.9,3.81,2.43a2.575,2.575,0,0,1-1.04,1.98,3.463,3.463,0,0,1-1.48.66,4.115,4.115,0,0,1,2.01.75,2.739,2.739,0,0,1,1.14,2.12c0,1.34-1.17,3.02-4.08,3.02h-5.35v-.48h.6a.962.962,0,0,0,1.06-1.04V3.66a.967.967,0,0,0-1.06-1.04h-.6Zm2.86,4.92h2a2.286,2.286,0,0,0,2.55-2.31c0-1.35-.91-2.12-2.41-2.12h-1.06a.962.962,0,0,0-1.06,1.04V7.05Zm0,.48v4.04a.963.963,0,0,0,1.06,1.04h1.31a2.475,2.475,0,0,0,2.77-2.49,2.517,2.517,0,0,0-2.73-2.58h-2.41Z" fill="#040000"/>
      <path id="パス_3163" data-name="パス 3163" d="M351.4,4.43a.87.87,0,1,1-1.74,0,.87.87,0,1,1,1.74,0Zm0,5.91a.87.87,0,1,1-1.74,0,.877.877,0,0,1,.87-.87A.864.864,0,0,1,351.4,10.34Z" fill="#040000"/>
      <path id="パス_3164" data-name="パス 3164" d="M354.12,9.46a21.147,21.147,0,0,0,3.51-4.98,6.987,6.987,0,0,0,.29-.88l1.21.95a.238.238,0,0,1,.09.2c0,.21-.24.21-.59.27-.24.35-.54.77-1.08,1.47.18.15.25.2.25.3s-.06.18-.39.42c-.05.65-.05,1.23-.05,1.7,0,.64.05,3.54.05,4.12,0,.78,0,1.2-.66,1.2-.27,0-.53-.09-.53-.42,0-.19.09-1.05.09-1.21.04-.91.03-1.3.06-4.72a9.118,9.118,0,0,1-2.21,1.71l-.06-.11Zm.06-4.39A13.961,13.961,0,0,0,357.66.51l1.12.81s.12.11.12.18c0,.17-.06.18-.63.3a11.708,11.708,0,0,1-4.02,3.39l-.08-.12Zm11.95.79.54-.75c.12-.18.18-.2.22-.2.09,0,.15.06.29.16l.88.75c.09.08.15.14.15.23,0,.15-.12.16-.23.16h-5.34l1.39.45c.09.03.19.07.19.18,0,.2-.36.4-.46.45V8.77h1.54l.54-.64c.12-.13.15-.18.24-.18s.12.03.29.16l.75.63c.08.06.15.12.15.22,0,.13-.12.17-.23.17h-3.28c0,.21-.02,3.22-.02,3.3a16.629,16.629,0,0,0,2.23.17,9.744,9.744,0,0,0,2.42-.27l.02.06a2.242,2.242,0,0,0-.87,1.46c-.24.02-.5.04-.86.04-4.83,0-5.62-2.71-5.97-3.95a6.62,6.62,0,0,1-3.01,3.87l-.05-.06a9.845,9.845,0,0,0,2.45-6.04,2.949,2.949,0,0,0-.06-.67l1.53.49a.193.193,0,0,1,.16.21.214.214,0,0,1-.08.17,4.512,4.512,0,0,1-.44.22,12.744,12.744,0,0,1-.4,1.47,5.416,5.416,0,0,0,1.94,2.49c0-3.95,0-4.2-.03-4.82-.01-.18-.11-.91-.12-1.06h-1.58a11.783,11.783,0,0,0-1.77.13l-.3-.6c1.04.09,2.1.11,2.31.11h1.45c0-.88,0-1.83-.01-2.64h-1.16a10.269,10.269,0,0,0-1.75.13l-.3-.58c.93.07,1.86.09,2.31.09h.9a6.557,6.557,0,0,0-.27-2.32l1.56.46c.12.03.21.07.21.18s-.37.43-.45.49V2.85h1.47l.59-.72c.09-.1.14-.18.24-.18s.15.04.27.15l.79.72c.08.07.15.13.15.24,0,.14-.13.15-.23.15h-3.3V5.85h2.37Z" fill="#040000"/>
      <path id="パス_3165" data-name="パス 3165" d="M382.57,6.09h-6.69l.52.12c.31.08.38.08.38.21s-.04.18-.38.36c0,.42.06,2.31.06,2.69,0,.9,0,1.35-1.57,1.8a2.208,2.208,0,0,0-1.27-1.38V9.8c.19,0,1.07.06,1.24.06.54,0,.54-.02.56-.56.02-.7,0-2.41-.02-3.21h-4.08a11.7,11.7,0,0,0-1.77.13l-.3-.6c1.02.09,2.09.11,2.31.11h.71c0-2.66,0-2.94-.23-3.78l1.47.41c.22.06.28.12.28.25s-.04.17-.46.45V5.73h2.05c0-3.38,0-3.75-.03-4.26-.02-.33-.06-.68-.16-1.47l1.38.38c.17.05.29.09.29.26,0,.1,0,.16-.45.42V2.99h2.16l.58-.85c.06-.08.15-.2.24-.2s.18.09.27.16l.96.86c.09.09.15.13.15.22,0,.15-.12.17-.22.17h-4.14V5.73h4.12l.71-.9c.09-.12.18-.2.24-.2a.434.434,0,0,1,.27.17l.9.9c.1.11.15.17.15.23,0,.15-.12.16-.23.16ZM374.05,7.9c-.06.03-.24.08-.37.12a11.241,11.241,0,0,1-4.06,3.93l-.06-.08a17.472,17.472,0,0,0,2.91-4.18,5.3,5.3,0,0,0,.29-.9l1.17.62c.13.07.25.13.25.31a.183.183,0,0,1-.12.18Zm4.59,2.67a12.556,12.556,0,0,1-8.43,3.59v-.11a14.54,14.54,0,0,0,6.65-3.4,6.933,6.933,0,0,0,1.34-1.49l.91.9c.12.12.18.2.18.29,0,.18-.06.18-.64.22Zm2.61.39c-.43,0-.64-.33-.93-.79a8.938,8.938,0,0,0-2.71-2.97l.06-.09c2.68.64,4.18,2.29,4.18,3.21A.629.629,0,0,1,381.25,10.96Z" fill="#040000"/>
      <path id="パス_3166" data-name="パス 3166" d="M384.42,12.6h.83c.78,0,1.05-.3,1.05-.91V3.57c0-.46-.44-.54-.72-.54h-1.14V2.57h.27a5.646,5.646,0,0,0,2.44-.63.432.432,0,0,1,.21-.09c.14,0,.16.09.16.21v9.63c0,.64.31.91,1.05.91h.83v.48h-4.98V12.6Z" fill="#040000"/>
      <path id="パス_3167" data-name="パス 3167" d="M394.03,13.37a3.022,3.022,0,0,1-2.46-1.62,9.337,9.337,0,0,1-.91-4.27c0-3.2,1.36-5.62,3.38-5.62,1.54,0,3.37,1.66,3.37,5.76,0,3.67-1.54,5.76-3.37,5.76Zm-1.68-9.02a13.623,13.623,0,0,0-.34,3.26c0,3.34.79,5.25,2.02,5.25,1.03,0,1.5-1.38,1.66-1.95a13.858,13.858,0,0,0,.36-3.3c0-3.42-.83-5.25-2.02-5.25C392.96,2.36,392.5,3.83,392.35,4.35Z" fill="#040000"/>
      <path id="パス_3168" data-name="パス 3168" d="M402.78,2.73a12.919,12.919,0,0,1-4.65,5.1l-.07-.11a19.471,19.471,0,0,0,3.63-5.49,5.822,5.822,0,0,0,.24-.96l1.29.87c.08.04.2.13.2.24,0,.18-.39.29-.63.35Zm5.44,4.7c-.15,5.4-.45,6.49-3.15,6.73a2.139,2.139,0,0,0-1.12-1.65l.02-.11a9.8,9.8,0,0,0,1.74.26c.72,0,1.01-.17,1.23-1.53a31.323,31.323,0,0,0,.23-4.32h-3.03c-.09,2.35-1.09,6.42-5.82,7.29l-.03-.12a7.588,7.588,0,0,0,4.74-7.17h-.44a9.076,9.076,0,0,0-1.77.15l-.28-.6c.93.08,1.84.09,2.29.09h4.25l.4-.36a.434.434,0,0,1,.27-.16c.08,0,.15.07.21.13l.6.66a.343.343,0,0,1,.13.24c0,.14-.04.17-.46.47Zm2.73-.02c-1.6-.69-3.39-2.31-4.51-5.7h-1.2a7,7,0,0,0-1.26.09l-.2-.53c.68.06,1.34.07,1.64.07h.75l.48-.48c.13-.13.19-.16.27-.16s.15.07.25.16l.55.54a.252.252,0,0,1,.12.22c0,.3-.69.42-.96.46a6.985,6.985,0,0,0,5.5,4.02l.02.15a2.479,2.479,0,0,0-1.46,1.14Z" fill="#040000"/>
      <path id="パス_3169" data-name="パス 3169" d="M413.08,14.64l-.13-.21a9.836,9.836,0,0,0,2.85-7.05A9.849,9.849,0,0,0,412.95.33l.13-.21a9.308,9.308,0,0,1,3.56,7.26A9.322,9.322,0,0,1,413.08,14.64Z" fill="#040000"/>
    </g>
  </g>
</svg>
