<svg id="area03-01-sp" xmlns="http://www.w3.org/2000/svg" width="750.5" height="75.644" viewBox="0 0 750.5 75.644">
  <line id="線_21" data-name="線 21" x2="750.5" transform="translate(0 72.643)" fill="none" stroke="#bba579" stroke-miterlimit="10" stroke-width="3"/>
  <path id="パス_130" data-name="パス 130" d="M31.107-18.631a32.932,32.932,0,0,1-9.279-1.8q-5.758-1.8-10.893-7.629T5.8-44.892A33.054,33.054,0,0,1,8.624-57.8,29.167,29.167,0,0,1,16.84-68.989,19.108,19.108,0,0,1,29.494-73.5a18.97,18.97,0,0,1,4.951.587,32.755,32.755,0,0,1,5.025,1.907,5.781,5.781,0,0,0,2.274.587,3.992,3.992,0,0,0,1.907-.513,10.594,10.594,0,0,0,2.127-1.614l2.934,12.1.147.807a.386.386,0,0,1-.147.33q-.147.11-.367.257a.9.9,0,0,1-.513.147.952.952,0,0,1-.88-.513A59.384,59.384,0,0,0,42.4-65.284a18.149,18.149,0,0,0-5.282-3.924,16.557,16.557,0,0,0-7.629-1.65A12.58,12.58,0,0,0,18.71-65.651a29.139,29.139,0,0,0-5.1,11.187,48.1,48.1,0,0,0-1.284,9.573q0,9.976,3.888,15.221t8.216,6.822a21.715,21.715,0,0,0,7.042,1.577q4.841,0,7.445-2.2a10.2,10.2,0,0,0,3.411-5.208,20.172,20.172,0,0,0,.807-5.061q0-.587-.147-1.907a5.783,5.783,0,0,0-.624-2.054,3.966,3.966,0,0,0-2.054-1.54,12.37,12.37,0,0,0-4.585-.66.462.462,0,0,1-.477-.257,2.054,2.054,0,0,1-.11-.77q0-1.027.587-1.027H54.948q.587,0,.587,1.027T54.948-39.9A7.629,7.629,0,0,0,50.62-38.73a4.539,4.539,0,0,0-2.054,3.3,27.788,27.788,0,0,0-.147,3.448q0,3.888.22,10.05a8.073,8.073,0,0,0-1.247-.073,13.863,13.863,0,0,0-3.374.4q-1.614.4-4.328,1.21-2.714.88-4.585,1.32A17.419,17.419,0,0,1,31.107-18.631Zm53.4.073a15.509,15.509,0,0,1-9.133-2.751,18.275,18.275,0,0,1-6.015-7.005,19.436,19.436,0,0,1-2.091-8.656,20.333,20.333,0,0,1,2.054-8.949,17.165,17.165,0,0,1,5.978-6.9,16.1,16.1,0,0,1,9.206-2.641,16.271,16.271,0,0,1,9.243,2.641,17.344,17.344,0,0,1,6.052,6.9,20.038,20.038,0,0,1,2.091,8.949A19.436,19.436,0,0,1,99.8-28.314a18.164,18.164,0,0,1-6.052,7.005A15.8,15.8,0,0,1,84.509-18.557Zm0-2.567a9.475,9.475,0,0,0,8.252-4.511,19.826,19.826,0,0,0,3.044-11.333q0-7.189-3.008-11.553a9.531,9.531,0,0,0-8.289-4.365,9.445,9.445,0,0,0-8.216,4.4q-3.008,4.4-3.008,11.517a22.786,22.786,0,0,0,1.357,8.032,13.232,13.232,0,0,0,3.888,5.722A9.094,9.094,0,0,0,84.509-21.125ZM152.8-22.372a2.114,2.114,0,0,1,1.21.22.822.822,0,0,1,.257.66q0,.734-.513.88l-10.343,1.687-.073-6.6q-4.841,6.6-11.663,6.6-6.308,0-8.986-3.228a12,12,0,0,1-2.677-7.922l-.073-17.092a3.2,3.2,0,0,0-.7-2.274,3.262,3.262,0,0,0-1.724-.954q-1.027-.22-3.081-.44-.513-.073-.624-.33a1.581,1.581,0,0,1-.11-.624q0-.807.44-.954,1.1-.367,11-2.787V-44.6q0,11.883.073,13.644a11.123,11.123,0,0,0,1.871,5.905q1.724,2.531,5.758,2.531a11.285,11.285,0,0,0,5.722-1.614,13.018,13.018,0,0,0,4.695-4.915l-.293-18.045a3.2,3.2,0,0,0-.7-2.274,3.242,3.242,0,0,0-1.65-.954q-.954-.22-3.154-.513-.66-.073-.66-1.174a.623.623,0,0,1,.44-.66q1.1-.367,10.93-2.787l.147,29.635q0,2.714,2.934,3.3A9.526,9.526,0,0,0,152.8-22.372Zm38.144-33.083a6.124,6.124,0,0,1,3.741,1.137,3.462,3.462,0,0,1,1.54,2.9,2.841,2.841,0,0,1-.917,2.127,3.2,3.2,0,0,1-2.311.88,5.524,5.524,0,0,1-2.787-1.1q-1.1-.587-1.761-.88a3.573,3.573,0,0,0-1.467-.293,6.7,6.7,0,0,0-3.814,1.467,22.032,22.032,0,0,0-4.108,3.961l-.073,20.686a2.384,2.384,0,0,0,1.284,2.421,8.522,8.522,0,0,0,3.484.587h.954q.587,0,.587,1.027,0,.954-.587.954H168.28q-.513,0-.513-.954,0-1.027.513-1.027h.954a8.3,8.3,0,0,0,3.411-.587,2.384,2.384,0,0,0,1.284-2.421l-.22-22.593a3.2,3.2,0,0,0-.7-2.274,3.007,3.007,0,0,0-1.614-.917q-.917-.183-3.191-.477a.636.636,0,0,1-.55-.367,2.656,2.656,0,0,1-.11-.88.63.63,0,0,1,.367-.66q1.1-.44,11.15-2.787v7.189a29.913,29.913,0,0,1,5.905-5.1A11.058,11.058,0,0,1,190.947-55.455Zm80.177,33.89q.587,0,.587,1.027,0,.954-.587.954H254.692q-.513,0-.513-.954a2.055,2.055,0,0,1,.11-.77.4.4,0,0,1,.4-.257h.954a8.3,8.3,0,0,0,3.411-.587,2.452,2.452,0,0,0,1.284-2.494v-9.976q0-5.208-.147-8.289-.293-8.949-7.556-8.949a11.237,11.237,0,0,0-5.868,1.724,13.98,13.98,0,0,0-4.841,5.171,2.225,2.225,0,0,1,.073.66q.073,1.174.073,4.548,0,6.088-.293,15.111a2.447,2.447,0,0,0,1.32,2.457,8.125,8.125,0,0,0,3.448.624h.954q.513,0,.513,1.027,0,.954-.513.954H231.072q-.587,0-.587-.954,0-1.027.587-1.027h.954a8.3,8.3,0,0,0,3.411-.587,2.452,2.452,0,0,0,1.284-2.494v-9.609q0-5.575-.147-8.656-.293-8.949-7.556-8.949a11.219,11.219,0,0,0-5.8,1.65,13.728,13.728,0,0,0-4.768,5.025l-.073,20.539a2.447,2.447,0,0,0,1.32,2.457,8.126,8.126,0,0,0,3.448.624h.954q.587,0,.587,1.027,0,.954-.587.954H207.672q-.513,0-.513-.954a2.054,2.054,0,0,1,.11-.77.4.4,0,0,1,.4-.257h.954a8.125,8.125,0,0,0,3.448-.624,2.447,2.447,0,0,0,1.32-2.457L213.1-47.019a3.2,3.2,0,0,0-.7-2.274,3.249,3.249,0,0,0-1.687-.954q-.99-.22-3.118-.513-.66-.073-.66-1.174a.63.63,0,0,1,.367-.66q1.1-.44,11.15-2.861v6.6q4.768-6.6,11.59-6.6a11.935,11.935,0,0,1,7.372,2.127,11,11,0,0,1,3.924,5.5q5.135-7.629,12.324-7.629,5.722,0,8.729,3.228a12.06,12.06,0,0,1,3.228,7.922q.073,1.174.073,4.548,0,6.088-.293,15.111a2.447,2.447,0,0,0,1.32,2.457,8.125,8.125,0,0,0,3.448.624ZM317.117-28.9a.663.663,0,0,1,.367.587,1.731,1.731,0,0,1-.22.734,15.745,15.745,0,0,1-5.1,6.308,14.512,14.512,0,0,1-9.059,2.714,18.844,18.844,0,0,1-8.986-2.164,15.972,15.972,0,0,1-6.418-6.2,18.332,18.332,0,0,1-2.347-9.389,22.653,22.653,0,0,1,1.907-9.1,17.858,17.858,0,0,1,5.685-7.262,14.689,14.689,0,0,1,9.133-2.861,13.923,13.923,0,0,1,10.49,4.181Q316.6-47.166,317.41-39.9l-25.894.147q-.147,1.761-.147,2.714a17.582,17.582,0,0,0,1.8,8.4,11.717,11.717,0,0,0,4.695,4.915,13.057,13.057,0,0,0,6.345,1.577q7.042,0,11.59-6.6a.815.815,0,0,1,.66-.44A1.413,1.413,0,0,1,317.117-28.9ZM301.639-52.887a8.22,8.22,0,0,0-6.125,2.714,15.211,15.211,0,0,0-3.631,7.556l18.485-.147V-43.5q-.22-4.841-2.677-7.115A8.577,8.577,0,0,0,301.639-52.887Zm42.179,34.33a8.565,8.565,0,0,1-6.2-2.091q-2.164-2.091-2.164-6.419V-52.08h-5.942v-2.714a12.855,12.855,0,0,0,4.511-2.347A11.726,11.726,0,0,0,337-61.47a35.939,35.939,0,0,0,2.127-7.922h1.614v14.6h9.609v2.714h-9.683v17.972l.073,6.6a6.128,6.128,0,0,0,1.394,4,4.29,4.29,0,0,0,3.374,1.5,6.348,6.348,0,0,0,2.751-.513,6.756,6.756,0,0,0,2.091-1.687,1,1,0,0,1,.734-.44.944.944,0,0,1,.7.367,1.105,1.105,0,0,1,.33.734.9.9,0,0,1-.147.513A9.23,9.23,0,0,1,343.818-18.557Z" transform="translate(22.247 73.5)" fill="#bba579"/>
  <line id="線_24" data-name="線 24" x2="354.258" transform="translate(20 72.643)" fill="none" stroke="#bba579" stroke-miterlimit="10" stroke-width="6"/>
</svg>
