<?xml version="1.0" encoding="UTF-8"?><svg id="_レイヤー_2" xmlns="http://www.w3.org/2000/svg" viewBox="0 0 416.64 73.79"><defs><style>.cls-1{fill:#af9f4b;}.cls-1,.cls-2{stroke-width:0px;}.cls-2{fill:#040000;}</style></defs><g id="_レイヤー_1-2"><g id="area03-03-txt"><path class="cls-1" d="m13.32,7.38c0,3.68-2.99,6.66-6.66,6.66S0,11.07,0,7.38,3.02.72,6.66.72s6.66,2.96,6.66,6.66Z"/><path class="cls-2" d="m28.11,9.91c-.1,0-.18-.03-.81-.39-.52-.29-2.08-.86-3.49-.86-1.56,0-2.91.63-2.91,1.88,0,1.66,2.19,1.88,3.9,1.88,1.06,0,1.2,0,1.43.07.21.08.52.27.52.62,0,.44-.54.48-.81.48-.99,0-2.11-.11-3.07-.35-.77-.2-2.42-.78-2.42-2.43,0-.88.56-1.72,1.31-2.12.69-.38,1.45-.55,2.82-.55s1.99.17,2.53.29c.08.02.1.03.17.03s.1-.01.1-.09c0-.31-1.74-2.46-2.8-3.43-1.1.4-2.31.75-3.4.75-.56,0-1.67-.3-1.89-1.38.5.3.98.54,1.71.54,1.17,0,2.16-.33,2.82-.56-.93-.73-1.25-.94-1.57-1.17-.57-.38-.57-.71-.57-.85,0-.46.42-1.04.87-1.04.24,0,.73.21,1.21.53-.1.01-.61.04-.69.07-.06.03-.21.11-.21.33,0,.35.75,1.04,1.67,1.88.51-.2,1.83-.73,1.83-1.1,0-.18-.18-.29-.51-.49l.02-.06c.23.04.54.11.78.11.14,0,.69-.17.81-.17.18,0,.56.11.56.5,0,.18-.09.33-.23.46-.47.42-1.12.87-2.54,1.41,1.33,1.26,2.21,2.19,2.83,2.92.41.45.71.83.71,1.2,0,.49-.36,1.09-.66,1.09Z"/><path class="cls-2" d="m38.42,12.81c-1.68,0-1.83-1.26-2.02-2.76-.1-.9-.23-1.88-1.14-1.88-1.88,0-3.04,2.72-3.46,3.69-.48,1.09-.52,1.21-.88,1.21-.41,0-.51-.63-.51-.97,0-.2,0-.39.51-1.08.94-1.3,4.39-7.63,4.39-8.33,0-.34-.22-.49-.82-.88.13-.06.3-.15.58-.15.78,0,1.6.73,1.6,1.35,0,.29-.04.34-.52.93-.35.44-2.55,3.57-3.09,4.81.96-.73,1.64-1.11,2.52-1.11,1.46,0,1.6,1.02,1.79,2.12.24,1.44.54,1.92,1.24,1.92,1.83,0,3.23-2.66,3.73-3.71l.15.03c-.26,1.01-1.25,4.8-4.06,4.8Z"/><path class="cls-2" d="m52.08,9.91c-.1,0-.18-.03-.81-.39-.52-.29-2.08-.86-3.49-.86-1.56,0-2.91.63-2.91,1.88,0,1.66,2.19,1.88,3.9,1.88,1.06,0,1.2,0,1.43.07.21.08.52.27.52.62,0,.44-.54.48-.81.48-.99,0-2.11-.11-3.07-.35-.77-.2-2.42-.78-2.42-2.43,0-.88.56-1.72,1.31-2.12.69-.38,1.45-.55,2.82-.55s1.99.17,2.53.29c.08.02.1.03.17.03s.1-.01.1-.09c0-.31-1.74-2.46-2.8-3.43-1.1.4-2.31.75-3.4.75-.56,0-1.67-.3-1.89-1.38.5.3.98.54,1.71.54,1.17,0,2.16-.33,2.82-.56-.93-.73-1.25-.94-1.57-1.17-.57-.38-.57-.71-.57-.85,0-.46.42-1.04.87-1.04.24,0,.73.21,1.21.53-.1.01-.61.04-.69.07-.06.03-.21.11-.21.33,0,.35.75,1.04,1.67,1.88.51-.2,1.83-.73,1.83-1.1,0-.18-.18-.29-.51-.49l.02-.06c.23.04.54.11.78.11.14,0,.69-.17.81-.17.18,0,.56.11.56.5,0,.18-.09.33-.23.46-.47.42-1.12.87-2.54,1.41,1.33,1.26,2.21,2.19,2.83,2.92.41.45.71.83.71,1.2,0,.49-.36,1.09-.66,1.09Z"/><path class="cls-2" d="m62.39,12.81c-1.68,0-1.83-1.26-2.02-2.76-.1-.9-.23-1.88-1.14-1.88-1.88,0-3.04,2.72-3.46,3.69-.48,1.09-.52,1.21-.88,1.21-.41,0-.51-.63-.51-.97,0-.2,0-.39.51-1.08.94-1.3,4.39-7.63,4.39-8.33,0-.34-.22-.49-.82-.88.13-.06.3-.15.58-.15.78,0,1.6.73,1.6,1.35,0,.29-.04.34-.52.93-.35.44-2.55,3.57-3.09,4.81.96-.73,1.64-1.11,2.52-1.11,1.46,0,1.6,1.02,1.79,2.12.24,1.44.54,1.92,1.24,1.92,1.83,0,3.23-2.66,3.73-3.71l.15.03c-.26,1.01-1.25,4.8-4.06,4.8Z"/><path class="cls-2" d="m73.2,8.67h-1.99l-.02.51c.39.11,1.86.54,1.86,1.44,0,.32-.27.53-.52.53-.36,0-.61-.46-.77-.79-.33-.72-.36-.81-.57-.97-.02,1.15.02,3.01.02,4.17,0,.2,0,.71-.69.71-.42,0-.42-.24-.42-.38,0-.59.13-3.17.15-3.71-.81,1.02-2.27,2.19-3.24,2.61l-.05-.07c1.44-1.26,2.72-2.98,3.23-4.04h-1.11c-.38,0-1.1.02-1.77.13l-.3-.58c1.03.07,2.1.09,2.31.09h.95c0-1.41-.15-1.86-.24-2.16l1.27.34c.25.08.35.12.35.23,0,.18-.15.27-.42.45,0,.54-.02.82-.02,1.14h.63l.4-.45c.12-.12.17-.2.24-.2s.13.06.27.17l.52.45c.08.08.15.13.15.24,0,.13-.12.15-.23.15Zm5.34-2.28c-1.72-.54-4.08-2.55-4.48-3.78h-.01c0,.45.01.88.03,1.46.03.66.09,1.7.09,2.36,0,.6-.43.75-.78.75-.39,0-.4-.27-.4-.45,0-.38.09-2.15.1-2.55.01-.46.01-.73.01-.93-1.12,1.29-3.27,2.76-5.25,3.2v-.09c1.05-.51,3-2.03,4.48-3.74h-2.17c-.1,0-1.06,0-1.76.13l-.3-.6c1.17.11,2.28.11,2.29.11h2.67c-.04-.75-.08-1.12-.3-1.85l1.41.38c.25.08.31.15.31.27s-.04.15-.42.42c-.02.22-.03.36-.03.78h3.42l.54-.73c.09-.12.15-.2.23-.2.09,0,.15.06.27.16l.81.74c.08.07.15.13.15.22,0,.16-.15.16-.24.16h-4.95c1.2,1.25,3.29,2.47,5.7,2.47v.08c-.85.4-1.19.84-1.43,1.23Zm1.12,6.49c-1.45-.87-2.56-2.87-2.86-3.91.02.69.12,4.23.12,4.47,0,.35-.12.78-.71.78-.25,0-.44-.15-.44-.39,0-.09.04-.53.04-.62.06-1.68.09-3.17.09-3.45-1.04,1.38-2.79,2.61-3.96,3.03l-.04-.09c1.48-1.1,2.91-2.84,3.58-3.96-.81.03-1.09.08-1.38.13l-.3-.6c.34.03.93.09,2.1.11-.02-.93-.05-1.33-.36-2.32l1.31.33c.19.04.36.09.36.25,0,.08-.06.15-.1.18-.1.08-.29.21-.3.23-.02.28-.03.57-.03,1.33h2.01l.49-.68c.1-.15.17-.19.24-.19s.17.06.27.16l.66.68c.1.12.15.15.15.22,0,.15-.12.16-.23.16h-3.44c.57,1.17,1.89,2.6,4.05,3.13v.06c-.36.17-1.02.44-1.33.95Z"/><path class="cls-2" d="m88.05,12.75l-.02-.12c3.21-1.14,4.71-3.25,4.71-5.53,0-2.54-2.04-4.04-4.65-4.04-.38,0-.45.01-.61.09.81.44,1.03.99,1.03,1.2,0,.17-.04.27-.51,1.25-.96,2.05-2.37,5.07-3.39,5.91-.1.08-.28.17-.48.17-.34,0-.48-.2-.93-.83-.1-.15-.71-.7-.81-.84-.17-.24-.42-.78-.42-1.53,0-3.22,2.73-5.88,6.39-5.88,2.91,0,5.55,1.69,5.55,4.71s-2.43,5.14-5.86,5.45Zm-1.19-9.51c-1.65.27-3.94,2.4-3.94,5.16,0,1.02.58,2.14,1.17,2.14.4,0,.99-1.06,1.25-1.57,1.5-3.02,1.99-3.99,1.99-4.77,0-.38-.18-.69-.46-.96Z"/><path class="cls-2" d="m98.52,4.24c.08.04.18.12.18.2,0,.2-.15.29-.36.44,0,2.7,0,5.4.01,8.08,0,.54,0,1.17-.78,1.17-.39,0-.46-.2-.46-.4,0-.22.13-1.89.15-2.25.09-1.98.09-3.6.1-6.45-.21.33-1.44,2.16-2.37,2.8l-.09-.08c1.54-2.01,3.15-6.28,3.15-7.06,0-.09-.02-.2-.03-.3l1.41.76c.1.06.21.15.21.29,0,.2-.18.26-.57.39-.19.48-.4,1.02-1.05,2.12l.49.3Zm2.29,3.98c-.25,0-1.02,0-1.75.13l-.3-.6c.77.06,1.53.11,2.31.11h2.05c-.02-.78-.03-1.83-.19-2.31l1.4.3c.07.02.19.06.19.18,0,.13-.1.21-.41.46,0,.41-.01.77-.01,1.37h2.62l.6-.69c.15-.18.17-.2.24-.2.06,0,.07.02.28.17l.95.69c.06.03.15.12.15.22,0,.13-.12.17-.23.17h-4.41c.66,1.41,2.65,3.19,4.86,3.76v.09c-.54.21-1,.59-1.33,1.06-2.29-1.56-3.36-3.99-3.72-4.92h-.01c0,.91.04,2.34.06,2.76.01.38.1,2.07.1,2.41,0,.26,0,.78-.79.78-.35,0-.47-.18-.47-.49,0-.02.1-2.36.1-2.62.02-.79.03-1.35.03-2.05-1.62,2.52-3.65,3.57-4.63,4.05l-.02-.1c1.57-1.3,2.82-2.75,3.99-4.72h-1.67Zm4.98-6.84l.31-.35c.06-.06.1-.13.23-.13.09,0,.21.07.28.13l.6.45c.09.08.2.18.2.27,0,.15-.14.27-.51.45-.02,1.01.02,1.68.02,1.86.02.21.07,1.23.07,1.34,0,.39-.18.69-.73.69-.38,0-.36-.35-.34-.69h-4.23c0,.45-.21.82-.69.82-.33,0-.42-.24-.42-.48,0-.12.1-2.5.1-2.98,0-1.42-.08-1.75-.14-2.12l1.27.74h3.98Zm-4.14.36v3.3h4.26V1.74h-4.26Z"/><path class="cls-2" d="m120.96,2.58l.65-.81c.09-.1.15-.21.25-.21.09,0,.21.11.29.16l.84.81c.07.06.17.15.17.24,0,.13-.12.16-.23.16h-6.6c-.6.57-1.33,1.23-2.13,1.86,1.81-.09,3.42-.17,5.47-.36-.65-.54-.99-.67-1.33-.81l.06-.12c2.23.35,4.09,1.23,4.09,2.21,0,.4-.31.66-.61.66s-.45-.15-.92-.68c-.57-.66-.85-.9-1.02-1.04-.31.06-3.63.74-8.52,1.32-.1.21-.2.39-.36.39-.13,0-.21-.13-.25-.27l-.54-1.46c.83.21,1.29.22,1.74.22.09,0,.55,0,1.77-.06.42-.73.67-1.29.93-1.88h-2.74c-.26,0-1.04,0-1.76.13l-.3-.6c1.02.08,2.08.11,2.29.11h3.78c0-.59,0-1.39-.33-2.14l1.56.36c.14.03.27.07.27.22,0,.09-.29.36-.42.5v1.06h3.9Zm-1.62,3.75c.12-.13.2-.2.29-.2.07,0,.15.04.21.09l.6.42c.07.06.18.18.18.26,0,.06-.07.15-.13.21-.12.11-.15.13-.25.24,0,.82.1,4.62.1,5.28,0,1.37-1.59,1.63-1.8,1.67-.03-.27-.12-.88-1.27-1.39v-.12c.63.04,1.27.06,1.33.06.56,0,.63,0,.63-.27v-1.59h-5.26c.02.4.08,2.25.08,2.53,0,.5-.33.78-.78.78-.42,0-.42-.27-.42-.48,0-.24.08-1.3.08-1.53.03-1.23.04-2.94.04-4.14,0-1.09-.04-1.3-.19-2.08l1.4.64h4.87l.31-.38Zm-.12.73h-5.26v1.54h5.26v-1.54Zm0,1.91h-5.26v1.65h5.26v-1.65Z"/><path class="cls-2" d="m135.69,1.54l.44-.36c.09-.08.18-.13.27-.13.06,0,.17.06.21.1l.65.56c.07.06.17.15.17.24,0,.18-.17.29-.5.51-.02.82-.03,2.55,0,5.25,0,.87.06,4.71.06,5.49,0,.5-.35.81-.74.81-.46,0-.43-.35-.4-.87h-9.31c.01.18,0,.42-.02.5-.04.33-.48.51-.75.51-.31,0-.39-.21-.39-.46,0-.2.08-1.1.08-1.28.04-1,.06-1.74.06-7.14,0-2.75-.03-3.5-.15-4.34l1.29.62h9.04Zm-9.16.36v10.88h9.31V1.9h-9.31Zm7.75,7.29s.09.1.09.18c0,.2-.17.22-.29.22-.06,0-.15,0-.27-.02-.48.2-.63.24-1.14.41.63.22,1.97.72,1.97,1.5,0,.27-.2.49-.47.49-.18,0-.25-.04-.84-.69-.51-.55-1.17-1.1-1.81-1.46,0,.29.04,1.68.04,1.83,0,.45-.42.67-.69.67-.24,0-.33-.21-.33-.45,0-.45.06-2.41.06-2.82-.48.57-1.83,1.85-3.76,2.46l-.06-.09c1.3-.87,2.58-1.98,3.42-3.17h-.89c0,.41-.33.57-.6.57-.39,0-.39-.27-.39-.44,0-.07.06-1.3.06-1.54,0-.46-.02-.78-.1-1.18l1.12.45h3.4l.27-.25c.07-.08.15-.15.21-.15s.15.06.21.12l.52.46c.08.06.12.13.12.21,0,.06-.09.15-.35.38,0,.2.03,1.05.03,1.21,0,.31-.12.4-.24.49l.69.59Zm-1.44-5.69l.31-.45c.08-.12.15-.18.23-.18.06,0,.15.04.29.15l.52.45c.08.06.17.13.17.22,0,.13-.14.16-.24.16h-2.58v1.11h2.07l.44-.51c.09-.11.15-.18.24-.18s.18.06.29.15l.6.51c.09.08.15.13.15.23,0,.15-.14.16-.23.16h-6.21c-.15,0-1.08,0-1.77.13l-.3-.6c.77.07,1.54.11,2.31.11h1.47v-1.11h-1.02c-.26,0-1.05,0-1.77.14l-.3-.6c.93.08,2.02.11,2.31.11h.78c-.03-.54-.18-1.04-.27-1.33l1.39.36c.09.03.2.06.2.18,0,.17-.15.26-.38.39v.4h1.3Zm.02,4.41v-1.43h-3.54v1.43h3.54Zm-1.33.36c-.02.64-.02,1.05-.02,1.41.21.03.41.06.85.2.3-.26.85-.87,1.06-1.21-.34.09-.57-.07-.57-.39h-1.33Z"/><path class="cls-2" d="m152.19,2.54h-6.19v2.46c1.48.26,3.76,1.1,3.76,2.55,0,.51-.36.71-.63.71-.39,0-.51-.2-1.05-1.06-.52-.84-1.43-1.65-2.08-2.01.02,3.4.02,3.78.09,7.23,0,.11.02.6.02.71,0,.59-.39.78-.81.78-.51,0-.51-.33-.51-.49,0-.44.1-2.56.12-3.04.03-1.19.03-1.85.03-7.81h-3.65c-.39,0-1.09.02-1.75.13l-.3-.6c.76.06,1.53.11,2.31.11h8.34l.84-.81c.1-.09.2-.17.24-.17.09,0,.18.06.28.15l1.04.79c.06.04.15.13.15.22,0,.15-.15.17-.24.17Z"/><path class="cls-2" d="m166.68,13.57c-.46.21-1.14.22-2.53.22-1.21,0-2.13-.03-2.13-1.38,0-1.25.34-6.73.39-7.86h-2.43c-.17,1.46-.29,2.38-.58,3.46.36.21,1.83,1.11,1.83,1.98,0,.08,0,.59-.6.59-.25,0-.36-.12-.46-.24-.65-.75-.81-.91-1.1-1.21-.85,2.36-2.38,3.62-3.36,4.23-.92.58-1.62.79-2.05.94l-.05-.09c2.97-1.72,4.14-4.11,4.65-5.85-1.12-.99-1.89-1.32-2.23-1.48v-.09c.78.12,1.47.31,2.44.75.29-1.21.38-2.31.41-2.98h-2.56c-.27,0-1.04,0-1.77.13l-.29-.59c.93.08,1.86.09,2.29.09h2.35c.02-.69.08-2.44-.27-3.76l1.85.54s.15.09.15.21-.09.2-.46.49c-.03,1.41-.12,2.29-.14,2.52h2.27l.57-.49c.06-.04.17-.15.24-.15.09,0,.18.06.24.11l.73.63s.12.09.12.17c0,.15-.19.25-.67.53-.15.99-.33,4.84-.38,6.12-.02.4-.03.78-.03.84,0,.79.23.79,1.6.79.67,0,1.02,0,1.19-.53.13-.42.4-1.69.51-2.22h.09c.06.34.28,1.86.38,2.16.06.16.09.19.3.39.06.04.13.17.13.33,0,.22-.17.51-.63.71Z"/><path class="cls-2" d="m181.61,7.46h-6.04v4.89c0,.57,0,1.67-1.92,1.86-.04-.45-.15-.97-1.75-1.71l.02-.11c.66.09,1.17.15,1.63.15.71,0,.92-.06.92-.63v-4.46h-4.14c-.27,0-1.05,0-1.77.13l-.3-.6c.93.07,1.86.11,2.31.11h3.9v-1.52c0-1.11-.1-1.37-.25-1.77l1.39.39c1.1-1.6,1.31-1.89,1.5-2.29h-5.13c-.27,0-1.03,0-1.77.14l-.29-.6c.93.08,1.84.11,2.29.11h4.98l.58-.51c.15-.12.18-.15.28-.15.06,0,.12.04.25.15l1.05.86c.12.1.15.2.15.25,0,.22-.18.29-1.11.32-1.54,1.18-1.71,1.32-2.5,1.83.1.03.18.12.18.2,0,.2-.24.33-.51.5v2.12h3.79l.78-.86c.14-.13.17-.2.23-.2.08,0,.15.06.29.16l1.03.86c.08.06.15.13.15.24,0,.13-.12.15-.22.15Z"/><path class="cls-2" d="m185.03,14.14V.62h3.78v.64h-3.15v12.24h3.15v.64h-3.78Z"/><path class="cls-2" d="m197.48,5.49h-2.96c0,.13,0,.9.02,1.54,1.11.3,2.44,1.2,2.44,2.03,0,.31-.21.69-.58.69-.4,0-.57-.35-.84-.96-.45-.99-.83-1.3-1.02-1.47,0,.96.06,5.17.06,6.03,0,.69-.39.86-.69.86-.46,0-.46-.39-.46-.55,0-.74.13-3.96.15-4.62.01-.57.01-.93.01-1.26-.7,1.28-1.95,3-3.49,4.12l-.09-.09c1.69-2.03,3.13-5.19,3.51-6.31h-1.06c-.38,0-1.1,0-1.77.13l-.3-.6c1.03.09,2.1.11,2.31.11h.89v-2.49c-1.35.24-2.37.22-2.9.22v-.13c1.63-.32,4.44-1.21,5.22-2.05l1,1.05c.06.06.09.13.09.2,0,.12-.06.15-.23.15-.04,0-.41-.08-.48-.09-.33.09-.77.22-1.79.46v2.69h1.21l.53-.68c.09-.12.15-.18.22-.18s.18.06.29.15l.78.67c.1.09.15.13.15.22,0,.13-.12.17-.23.17Zm5.4,7.98c-.5,0-.65-.52-.72-.85-.09-.41-.23-1.02-.27-1.2-1.51.55-4.24,1.16-5.26,1.38-.04.04-.15.29-.19.33-.03.03-.09.07-.18.07s-.18-.04-.29-.29l-.57-1.33c.25.03.48.07.92.07.18,0,.3,0,.76-.03,1.06-3.42,2.35-8.76,2.22-10.46l1.69.66c.08.03.21.11.21.24,0,.15-.06.18-.66.46-.85,3.3-1.42,5.17-3.03,9.07,1.33-.09,3-.21,4.31-.45-.27-.83-.92-2.04-1.71-3.06l.06-.07c1.84,1.08,3.4,3.31,3.4,4.6,0,.74-.51.84-.69.84Z"/><path class="cls-2" d="m215.78,12.78l.78-.84c.08-.07.15-.2.24-.2.1,0,.18.08.28.17l1.04.84c.08.06.15.13.15.22,0,.13-.12.16-.23.16h-11.14c-.13,0-1.06,0-1.77.14l-.29-.6c.99.09,2.01.11,2.29.11h4.51c.35-.84,2.15-6.22,2.06-8.14l1.68.82c.06.03.14.12.14.21,0,.16-.06.18-.6.4-.21.53-1.15,2.96-1.31,3.32-.34.85-.91,2.2-1.63,3.39h3.79Zm-.87-9.18l.63-.84c.1-.13.17-.2.23-.2.09,0,.18.09.29.17l1.05.86c.09.07.14.13.14.21,0,.13-.1.17-.23.17h-9.18c-.13,0-1.06,0-1.77.13l-.28-.59c1.03.08,2.16.09,2.29.09h2.91c0-1.81-.18-2.29-.39-2.88l1.8.45c.08.02.18.04.18.15,0,.15-.34.42-.54.58-.03.27-.03,1.46-.03,1.7h2.91Zm-7.17,1.39c1.69,1.63,2.56,4.07,2.56,5.61,0,.6-.35.96-.72.96-.6,0-.65-.69-.67-1.06-.1-1.59-.24-3.27-1.23-5.46l.06-.04Z"/><path class="cls-2" d="m219.54,14.14v-.64h3.15V1.26h-3.15v-.64h3.78v13.53h-3.78Z"/><path class="cls-2" d="m251.61,14.64c-2.34-1.88-3.55-4.57-3.55-7.26s1.21-5.38,3.55-7.26l.14.21c-2.79,2.96-2.85,5.96-2.85,7.05s.06,4.1,2.85,7.05l-.14.21Z"/><path class="cls-2" d="m255.98,9.22l-.73,2.28c-.05.12-.09.27-.09.5,0,.55.42.6.63.6h.42v.48h-3.25v-.48h.49c.63,0,1.17-.64,1.41-1.38l2.96-9.09,1.32-.29,3.28,9.73c.3.87.69,1.02,1.11,1.02h.33v.48h-3.69v-.48h.45c.23,0,.61-.21.61-.66,0-.16-.04-.27-.13-.55l-.72-2.16h-4.39Zm2.16-6.6l-1.99,6.12h4.06l-2.07-6.12Z"/><path class="cls-2" d="m268.75,4.43c0,.48-.4.87-.87.87s-.87-.39-.87-.87.38-.87.87-.87.87.38.87.87Zm0,5.91c0,.5-.4.87-.87.87s-.87-.38-.87-.87c0-.46.38-.87.87-.87s.87.39.87.87Z"/><path class="cls-2" d="m271.47,9.46c1.44-1.43,3.09-3.99,3.51-4.98.12-.3.18-.48.29-.88l1.21.95c.06.04.09.12.09.2,0,.21-.24.21-.58.27-.24.35-.54.77-1.08,1.47.18.15.25.2.25.3,0,.09-.06.18-.39.42-.04.65-.04,1.23-.04,1.7,0,.64.04,3.54.04,4.12,0,.78,0,1.2-.66,1.2-.27,0-.53-.09-.53-.42,0-.19.09-1.05.09-1.21.04-.91.03-1.3.06-4.72-1.08,1.1-1.91,1.54-2.21,1.71l-.06-.11Zm.06-4.39c2.1-1.96,3.31-3.93,3.48-4.56l1.12.81s.12.11.12.18c0,.17-.06.18-.63.3-1.3,1.74-2.74,2.7-4.02,3.39l-.08-.12Zm11.95.79l.54-.75c.12-.18.18-.2.22-.2.09,0,.15.06.29.16l.89.75c.09.08.15.14.15.23,0,.15-.12.16-.23.16h-5.34l1.4.45c.09.03.19.07.19.18,0,.2-.36.4-.46.45v1.48h1.54l.54-.64c.12-.13.15-.18.24-.18.08,0,.12.03.29.16l.75.63c.08.06.15.12.15.22,0,.13-.12.17-.23.17h-3.28c0,.21-.02,3.22-.02,3.3.35.04,1.16.17,2.23.17,1.38,0,2.07-.2,2.42-.27l.02.06c-.24.2-.73.6-.87,1.46-.24.02-.5.04-.85.04-4.83,0-5.62-2.71-5.97-3.95-.38,1.04-1.08,2.84-3.01,3.87l-.05-.06c2.22-2.5,2.45-5.41,2.45-6.04,0-.35-.03-.53-.06-.67l1.53.49c.09.03.17.07.17.21,0,.08-.03.12-.08.17-.06.04-.38.2-.44.22-.15.71-.27,1.06-.4,1.47.66,1.47,1.47,2.22,1.94,2.49,0-3.95,0-4.2-.03-4.82-.01-.18-.1-.91-.12-1.06h-1.58c-.38,0-1.09.02-1.77.13l-.3-.6c1.04.09,2.1.11,2.31.11h1.45c0-.88,0-1.83-.01-2.64h-1.16c-.27,0-1.03,0-1.75.13l-.3-.58c.93.07,1.86.09,2.31.09h.9c-.03-1.44-.05-1.56-.27-2.32l1.56.46c.12.03.21.07.21.18s-.38.43-.45.49v1.19h1.47l.58-.72c.09-.1.14-.18.24-.18s.15.04.27.15l.79.72c.08.07.15.13.15.24,0,.14-.13.15-.23.15h-3.3v2.64h2.37Z"/><path class="cls-2" d="m299.92,6.09h-6.69l.52.12c.31.08.38.08.38.21,0,.12-.04.18-.38.36,0,.42.06,2.31.06,2.69,0,.9,0,1.35-1.57,1.8-.17-.63-.62-1.05-1.27-1.38v-.09c.19,0,1.06.06,1.24.06.54,0,.54-.02.56-.56.02-.7,0-2.41-.02-3.21h-4.08c-.38,0-1.1.02-1.77.13l-.3-.6c1.02.09,2.08.11,2.31.11h.71c0-2.66,0-2.94-.23-3.78l1.47.41c.22.06.28.12.28.25,0,.12-.04.17-.46.45v2.67h2.05c0-3.38,0-3.75-.03-4.26-.02-.33-.06-.68-.17-1.47l1.38.38c.17.04.29.09.29.26,0,.1,0,.16-.45.42v1.93h2.16l.58-.85c.06-.08.15-.2.24-.2.08,0,.18.09.27.16l.96.86c.09.09.15.13.15.22,0,.15-.12.17-.23.17h-4.14v2.38h4.12l.71-.9c.09-.12.18-.2.24-.2.08,0,.18.07.27.17l.9.9c.1.11.15.17.15.23,0,.15-.12.16-.23.16Zm-8.52,1.81c-.06.03-.24.08-.38.12-1.01,1.68-2.4,2.96-4.06,3.93l-.06-.08c1.6-1.69,2.7-3.69,2.91-4.18.12-.27.2-.54.29-.9l1.17.62c.14.07.25.13.25.31,0,.08-.04.15-.12.18Zm4.59,2.67c-2.4,2.1-4.77,3.46-8.43,3.59l-.02-.11c2.23-.55,4.51-1.43,6.66-3.4.5-.45,1.02-.95,1.33-1.49l.92.9c.12.12.18.2.18.29,0,.18-.06.18-.65.22Zm2.61.39c-.43,0-.64-.33-.93-.79-.94-1.54-1.71-2.25-2.71-2.97l.06-.09c2.68.64,4.18,2.29,4.18,3.21,0,.31-.24.64-.6.64Z"/><path class="cls-2" d="m307.65,10.06c0,1.74-1.36,3.3-3.54,3.3-1.71,0-3.24-.99-3.24-2.7,0-1.62,1.29-2.38,2.67-3.19-.79-.47-2.23-1.31-2.23-2.94,0-1.48,1.17-2.68,3-2.68,2.05,0,2.74,1.53,2.74,2.37,0,1.28-1.23,2.21-1.87,2.69,1.41.87,2.47,1.62,2.47,3.16Zm-5.52.55c0,1.32.99,2.24,2.16,2.24,1.31,0,2.28-1.16,2.28-2.27,0-1.43-1.48-2.27-2.58-2.88-.68.51-1.86,1.43-1.86,2.91Zm3.82-6.24c0-1.14-.77-2.03-1.86-2.03s-1.77.81-1.77,1.79c0,1.05.85,1.57,2.42,2.5.44-.38,1.21-1.02,1.21-2.26Z"/><path class="cls-2" d="m313,2.73c-1.24,2.55-3.51,4.47-4.65,5.1l-.08-.11c2.1-2.38,3.28-4.48,3.63-5.49.13-.38.19-.67.24-.96l1.29.87c.08.04.19.13.19.24,0,.18-.39.29-.63.35Zm5.44,4.7c-.15,5.4-.45,6.49-3.15,6.73-.06-.95-.79-1.44-1.12-1.65l.02-.11c.63.13,1.27.26,1.74.26.72,0,1.01-.17,1.23-1.53.18-1.11.27-3.61.23-4.32h-3.03c-.09,2.35-1.09,6.42-5.82,7.29l-.03-.12c3.04-1.41,4.59-3.68,4.74-7.17h-.44c-.38,0-1.1.01-1.77.15l-.29-.6c.93.08,1.85.09,2.29.09h4.25l.4-.36c.09-.09.18-.16.27-.16.08,0,.15.07.21.13l.6.66c.08.07.14.16.14.24,0,.14-.05.17-.47.47Zm2.73-.02c-1.6-.69-3.39-2.31-4.51-5.7h-1.2c-.75,0-1.05.06-1.26.09l-.2-.53c.68.06,1.33.07,1.64.07h.75l.48-.48c.13-.13.19-.16.27-.16.09,0,.15.07.25.16l.56.54c.09.07.12.13.12.22,0,.3-.69.42-.96.46.72,1.94,3.21,3.86,5.5,4.02l.02.15c-.84.26-1.19.73-1.46,1.14Z"/><path class="cls-2" d="m323.28,14.16l-.3-.3,13.26-13.26.3.3-13.26,13.26Z"/><path class="cls-2" d="m337.21,2.13h4.99c2.29,0,3.81.9,3.81,2.43,0,1.05-.71,1.72-1.04,1.98-.46.36-.84.5-1.48.66.58.09,1.26.2,2.01.75.65.5,1.14,1.26,1.14,2.12,0,1.34-1.17,3.02-4.08,3.02h-5.35v-.48h.6c.63,0,1.06-.35,1.06-1.04V3.66c0-.64-.39-1.04-1.06-1.04h-.6v-.49Zm2.86,4.92h2c1.3,0,2.55-.68,2.55-2.31,0-1.35-.92-2.12-2.42-2.12h-1.06c-.63,0-1.06.35-1.06,1.04v3.39Zm0,.48v4.04c0,.64.38,1.04,1.06,1.04h1.31c1.6,0,2.77-.9,2.77-2.49,0-1.35-.92-2.58-2.73-2.58h-2.42Z"/><path class="cls-2" d="m351.4,4.43c0,.48-.4.87-.87.87s-.87-.39-.87-.87.38-.87.87-.87.87.38.87.87Zm0,5.91c0,.5-.4.87-.87.87s-.87-.38-.87-.87c0-.46.38-.87.87-.87s.87.39.87.87Z"/><path class="cls-2" d="m354.12,9.46c1.44-1.43,3.09-3.99,3.51-4.98.12-.3.18-.48.29-.88l1.21.95c.06.04.09.12.09.2,0,.21-.24.21-.58.27-.24.35-.54.77-1.08,1.47.18.15.25.2.25.3,0,.09-.06.18-.39.42-.04.65-.04,1.23-.04,1.7,0,.64.04,3.54.04,4.12,0,.78,0,1.2-.66,1.2-.27,0-.53-.09-.53-.42,0-.19.09-1.05.09-1.21.04-.91.03-1.3.06-4.72-1.08,1.1-1.91,1.54-2.21,1.71l-.06-.11Zm.06-4.39c2.1-1.96,3.31-3.93,3.48-4.56l1.12.81s.12.11.12.18c0,.17-.06.18-.63.3-1.3,1.74-2.74,2.7-4.02,3.39l-.08-.12Zm11.95.79l.54-.75c.12-.18.18-.2.22-.2.09,0,.15.06.29.16l.88.75c.09.08.15.14.15.23,0,.15-.12.16-.23.16h-5.34l1.4.45c.09.03.19.07.19.18,0,.2-.36.4-.46.45v1.48h1.54l.54-.64c.12-.13.15-.18.24-.18.08,0,.12.03.29.16l.75.63c.08.06.15.12.15.22,0,.13-.12.17-.23.17h-3.28c0,.21-.02,3.22-.02,3.3.35.04,1.16.17,2.23.17,1.38,0,2.07-.2,2.42-.27l.02.06c-.24.2-.73.6-.87,1.46-.24.02-.5.04-.85.04-4.83,0-5.62-2.71-5.97-3.95-.38,1.04-1.08,2.84-3.01,3.87l-.05-.06c2.22-2.5,2.45-5.41,2.45-6.04,0-.35-.03-.53-.06-.67l1.53.49c.09.03.17.07.17.21,0,.08-.03.12-.08.17-.06.04-.38.2-.44.22-.15.71-.27,1.06-.4,1.47.66,1.47,1.47,2.22,1.94,2.49,0-3.95,0-4.2-.03-4.82-.01-.18-.1-.91-.12-1.06h-1.58c-.38,0-1.09.02-1.77.13l-.3-.6c1.04.09,2.1.11,2.31.11h1.45c0-.88,0-1.83-.01-2.64h-1.16c-.27,0-1.03,0-1.75.13l-.3-.58c.93.07,1.86.09,2.31.09h.9c-.03-1.44-.05-1.56-.27-2.32l1.56.46c.12.03.21.07.21.18s-.37.43-.45.49v1.19h1.47l.58-.72c.09-.1.14-.18.24-.18s.15.04.27.15l.79.72c.08.07.15.13.15.24,0,.14-.13.15-.23.15h-3.3v2.64h2.37Z"/><path class="cls-2" d="m382.57,6.09h-6.69l.52.12c.31.08.38.08.38.21,0,.12-.04.18-.38.36,0,.42.06,2.31.06,2.69,0,.9,0,1.35-1.57,1.8-.17-.63-.62-1.05-1.27-1.38v-.09c.19,0,1.06.06,1.24.06.54,0,.54-.02.56-.56.02-.7,0-2.41-.02-3.21h-4.08c-.38,0-1.1.02-1.77.13l-.3-.6c1.02.09,2.08.11,2.31.11h.71c0-2.66,0-2.94-.23-3.78l1.47.41c.22.06.28.12.28.25,0,.12-.04.17-.46.45v2.67h2.05c0-3.38,0-3.75-.03-4.26-.02-.33-.06-.68-.17-1.47l1.38.38c.17.04.29.09.29.26,0,.1,0,.16-.45.42v1.93h2.16l.58-.85c.06-.08.15-.2.24-.2.08,0,.18.09.27.16l.96.86c.09.09.15.13.15.22,0,.15-.12.17-.22.17h-4.14v2.38h4.12l.71-.9c.09-.12.18-.2.24-.2.08,0,.18.07.27.17l.9.9c.1.11.15.17.15.23,0,.15-.12.16-.23.16Zm-8.52,1.81c-.06.03-.24.08-.37.12-1.01,1.68-2.4,2.96-4.06,3.93l-.06-.08c1.6-1.69,2.7-3.69,2.91-4.18.12-.27.2-.54.29-.9l1.17.62c.13.07.25.13.25.31,0,.08-.04.15-.12.18Zm4.59,2.67c-2.4,2.1-4.77,3.46-8.43,3.59v-.11c2.22-.55,4.5-1.43,6.65-3.4.5-.45,1.02-.95,1.33-1.49l.92.9c.12.12.18.2.18.29,0,.18-.06.18-.65.22Zm2.61.39c-.44,0-.65-.33-.93-.79-.94-1.54-1.71-2.25-2.71-2.97l.06-.09c2.68.64,4.18,2.29,4.18,3.21,0,.31-.24.64-.6.64Z"/><path class="cls-2" d="m384.42,12.6h.83c.78,0,1.05-.3,1.05-.91V3.57c0-.46-.44-.54-.72-.54h-1.14v-.46h.27c1.15,0,2.27-.52,2.44-.63.1-.06.15-.09.21-.09.14,0,.17.09.17.21v9.63c0,.64.31.91,1.05.91h.83v.48h-4.98v-.48Z"/><path class="cls-2" d="m394.03,13.37c-1.04,0-1.91-.72-2.46-1.62-.63-1.04-.92-2.88-.92-4.27,0-3.2,1.36-5.62,3.38-5.62,1.54,0,3.37,1.66,3.37,5.76,0,3.67-1.54,5.76-3.37,5.76Zm-1.68-9.02c-.21.75-.34,2.01-.34,3.26,0,3.34.79,5.25,2.02,5.25,1.03,0,1.5-1.38,1.66-1.95.21-.76.36-2.04.36-3.3,0-3.42-.83-5.25-2.02-5.25-1.06,0-1.53,1.47-1.68,1.99Z"/><path class="cls-2" d="m402.78,2.73c-1.24,2.55-3.51,4.47-4.65,5.1l-.07-.11c2.1-2.38,3.28-4.48,3.63-5.49.13-.38.19-.67.24-.96l1.29.87c.08.04.2.13.2.24,0,.18-.39.29-.63.35Zm5.44,4.7c-.15,5.4-.45,6.49-3.15,6.73-.06-.95-.79-1.44-1.12-1.65l.02-.11c.63.13,1.27.26,1.74.26.72,0,1.01-.17,1.23-1.53.18-1.11.27-3.61.23-4.32h-3.03c-.09,2.35-1.09,6.42-5.82,7.29l-.03-.12c3.04-1.41,4.59-3.68,4.74-7.17h-.44c-.38,0-1.09.01-1.77.15l-.28-.6c.93.08,1.84.09,2.29.09h4.25l.4-.36c.09-.09.18-.16.27-.16.08,0,.15.07.21.13l.6.66c.08.07.13.16.13.24,0,.14-.04.17-.46.47Zm2.73-.02c-1.6-.69-3.39-2.31-4.51-5.7h-1.2c-.75,0-1.05.06-1.26.09l-.2-.53c.68.06,1.33.07,1.64.07h.75l.48-.48c.13-.13.19-.16.27-.16.09,0,.15.07.25.16l.55.54c.09.07.12.13.12.22,0,.3-.69.42-.96.46.72,1.94,3.21,3.86,5.5,4.02l.02.15c-.84.26-1.19.73-1.46,1.14Z"/><path class="cls-2" d="m413.08,14.64l-.13-.21c2.79-2.96,2.85-5.96,2.85-7.05s-.06-4.09-2.85-7.05l.13-.21c2.34,1.87,3.56,4.57,3.56,7.26s-1.22,5.38-3.56,7.26Z"/><path class="cls-2" d="m289.92,73.79c-2.34-1.88-3.55-4.57-3.55-7.26s1.21-5.38,3.55-7.26l.14.21c-2.79,2.95-2.85,5.95-2.85,7.05s.06,4.1,2.85,7.05l-.14.21Z"/><path class="cls-2" d="m297.31,62.54c.12.06.19.15.19.27,0,.14-.17.23-.63.32-.19.24-.61.73-1.26,1.53-.57.69-1.06,1.24-1.47,1.66.08,0,1.33-.06,2.13-.17-.06-.1-.24-.45-.61-.85l.08-.09c1.17.45,2.07,1.12,2.07,1.81,0,.29-.17.62-.57.62-.36,0-.51-.18-.64-.69-.02-.05-.08-.26-.17-.48l-1.37.3c0,.65.04,3.72.04,4,.02.3.06,1.65.06,1.92,0,.39-.34.65-.72.65-.31,0-.41-.2-.41-.45,0-.24.06-1.23.06-1.44.02-.48.03-1.95.04-4.48-.94.21-1.69.38-1.89.42-.09.15-.24.43-.38.43-.15,0-.24-.18-.27-.27l-.33-1.28c.25.06.69.11,1.06.11.46,0,1.15-.02,1.4-.03,1.02-1.38,1.94-3.29,2.15-3.88.06-.15.09-.42.09-.6l1.33.67Zm-5.92,9.87c.65-1.46,1.08-3.36,1.05-4.38l1.23.45c.1.04.21.13.21.21,0,.11-.09.18-.48.33-.48,1.4-.91,2.24-1.93,3.43l-.08-.04Zm.57-9.85c.42.11.92.24,1.29.42.42-.84,1.08-2.47.99-3.36l1.42.71c.12.06.18.15.18.22,0,.22-.23.27-.57.33-.71.9-.81,1.04-1.83,2.21.43.27.88.67.88,1.18,0,.34-.23.72-.61.72-.35,0-.44-.18-.77-.92-.35-.78-.69-1.11-1-1.42v-.09Zm3.54,5.71c.61.27,2.11.95,2.11,1.96,0,.48-.34.74-.66.74-.41,0-.48-.3-.68-.99-.21-.78-.49-1.21-.82-1.65l.04-.06Zm7.17-4.84l.45-.42c.08-.08.17-.17.21-.17.06,0,.17.09.21.13l.72.62c.07.06.13.15.13.22,0,.11-.28.32-.55.51-.09,4.15-.12,6.01-.92,7.54-.56,1.07-1.5,1.46-2.33,1.47-.12-.71-.58-1.17-1.36-1.7l.02-.09c.69.13,1.6.3,1.99.3,1.52,0,1.59-4.95,1.59-6.5,0-.25-.01-1.32-.01-1.57h-4.05c-.74,1.39-1.25,1.9-1.47,2.14l-.09-.06c1.11-2.21,1.62-4.74,1.62-5.52,0-.15-.05-.43-.08-.57l1.62.69c.07.03.17.11.17.21,0,.15-.23.25-.59.42-.16.48-.43,1.23-.99,2.33h3.71Zm-4.1,2.87c1.43.58,2.13,1.06,2.13,1.88,0,.36-.18.71-.6.71-.39,0-.51-.17-.84-1.2-.12-.39-.4-.9-.75-1.29l.06-.09Z"/><path class="cls-2" d="m310.14,60.99h.61v7.62h1.69v.48h-1.69v1.74c0,.66.33.91,1.05.91h.24v.48h-3.81v-.48h.24c.71,0,1.05-.24,1.05-.91v-1.74h-4.03v-.53l4.65-7.57Zm-.62,1.98l-3.46,5.64h3.46v-5.64Z"/><path class="cls-2" d="m316.1,72.51c-1.04,0-1.91-.72-2.46-1.62-.63-1.04-.92-2.88-.92-4.27,0-3.2,1.36-5.62,3.38-5.62,1.54,0,3.37,1.67,3.37,5.76,0,3.67-1.54,5.76-3.37,5.76Zm-1.68-9.01c-.21.75-.34,2.01-.34,3.25,0,3.34.79,5.25,2.02,5.25,1.03,0,1.5-1.38,1.66-1.95.21-.76.36-2.04.36-3.3,0-3.42-.83-5.25-2.02-5.25-1.06,0-1.53,1.47-1.68,2Z"/><path class="cls-2" d="m323.22,72.51c-1.04,0-1.91-.72-2.46-1.62-.63-1.04-.92-2.88-.92-4.27,0-3.2,1.36-5.62,3.38-5.62,1.54,0,3.37,1.67,3.37,5.76,0,3.67-1.54,5.76-3.37,5.76Zm-1.68-9.01c-.21.75-.34,2.01-.34,3.25,0,3.34.79,5.25,2.02,5.25,1.03,0,1.5-1.38,1.66-1.95.21-.76.36-2.04.36-3.3,0-3.42-.83-5.25-2.02-5.25-1.06,0-1.53,1.47-1.68,2Z"/><path class="cls-2" d="m329.22,64.85v1.19c.4-.41,1.19-1.19,2.47-1.19,1.41,0,1.68.92,1.8,1.35.51-.5,1.33-1.35,2.68-1.35s1.92.79,1.92,2.46v3.54c0,.57.3.9.75.9h.29v.48h-3.13v-.48h.27c.52,0,.76-.4.76-.9v-3.45c0-.42-.07-1.9-1.32-1.9-.42,0-1.36.24-2.11,1.3,0,.12.01.24.01.51v3.54c0,.63.35.9.75.9h.44v.48h-3.43v-.48h.43c.41,0,.75-.28.75-.9v-3.45c0-.31-.03-1.9-1.3-1.9-.36,0-1.32.19-2.02,1.18v4.17c0,.63.36.9.75.9h.27v.48h-3.12v-.48h.27c.45,0,.75-.31.75-.9v-4.51c0-.46-.25-.71-.61-.71-.17,0-.32.01-.45.06l-.06-.29,2.21-.55Z"/><path class="cls-2" d="m340.29,73.31l-.3-.3,13.26-13.26.3.3-13.26,13.26Z"/><path class="cls-2" d="m354.1,68.61c1.44-1.42,3.09-3.99,3.51-4.98.12-.3.18-.48.29-.88l1.21.95c.06.04.09.12.09.19,0,.21-.24.21-.58.27-.24.34-.54.76-1.08,1.47.18.15.25.2.25.3,0,.09-.06.18-.39.42-.04.65-.04,1.23-.04,1.7,0,.64.04,3.54.04,4.12,0,.78,0,1.2-.66,1.2-.27,0-.53-.09-.53-.42,0-.19.09-1.05.09-1.21.04-.92.03-1.3.06-4.72-1.08,1.09-1.91,1.54-2.21,1.71l-.06-.11Zm.06-4.39c2.1-1.96,3.31-3.93,3.48-4.56l1.12.81s.12.11.12.18c0,.17-.06.18-.63.3-1.3,1.74-2.74,2.7-4.02,3.39l-.08-.12Zm11.95.79l.54-.75c.12-.18.18-.2.22-.2.09,0,.15.06.29.17l.88.75c.09.08.15.14.15.23,0,.15-.12.17-.23.17h-5.34l1.4.45c.09.03.19.07.19.18,0,.2-.36.41-.46.45v1.48h1.54l.54-.64c.12-.13.15-.18.24-.18.08,0,.12.03.29.17l.75.63c.08.06.15.12.15.23,0,.13-.12.17-.23.17h-3.28c0,.21-.02,3.22-.02,3.3.35.04,1.16.17,2.23.17,1.38,0,2.07-.2,2.42-.27l.02.06c-.24.19-.73.6-.87,1.46-.24.01-.5.04-.85.04-4.83,0-5.62-2.71-5.97-3.95-.38,1.04-1.08,2.83-3.01,3.87l-.05-.06c2.22-2.5,2.45-5.42,2.45-6.04,0-.35-.03-.53-.06-.67l1.53.49c.09.03.17.08.17.21,0,.08-.03.12-.08.17-.06.04-.38.2-.44.23-.15.71-.27,1.06-.4,1.47.66,1.47,1.47,2.22,1.94,2.49,0-3.95,0-4.2-.03-4.82-.01-.18-.1-.92-.12-1.06h-1.58c-.38,0-1.09.01-1.77.13l-.3-.6c1.04.09,2.1.1,2.31.1h1.45c0-.88,0-1.83-.01-2.64h-1.16c-.27,0-1.03,0-1.75.13l-.3-.58c.93.08,1.86.09,2.31.09h.9c-.03-1.44-.05-1.56-.27-2.32l1.56.46c.12.03.21.07.21.18s-.37.43-.45.5v1.18h1.47l.58-.72c.09-.1.14-.18.24-.18s.15.04.27.15l.79.72c.08.07.15.13.15.24,0,.14-.13.15-.23.15h-3.3v2.64h2.37Z"/><path class="cls-2" d="m382.56,65.24h-6.69l.52.12c.31.08.38.08.38.21,0,.12-.04.18-.38.36,0,.42.06,2.31.06,2.68,0,.9,0,1.35-1.57,1.8-.17-.63-.62-1.05-1.27-1.38v-.09c.19,0,1.06.06,1.24.06.54,0,.54-.02.56-.56.02-.7,0-2.41-.02-3.21h-4.08c-.38,0-1.1.01-1.77.13l-.3-.6c1.02.09,2.08.11,2.31.11h.71c0-2.66,0-2.94-.23-3.78l1.47.41c.22.06.28.12.28.25,0,.12-.04.17-.46.45v2.67h2.05c0-3.38,0-3.75-.03-4.26-.02-.33-.06-.67-.17-1.47l1.38.38c.17.04.29.09.29.25,0,.1,0,.17-.45.42v1.93h2.16l.58-.85c.06-.08.15-.2.24-.2.08,0,.18.09.27.17l.96.85c.09.09.15.14.15.23,0,.15-.12.17-.22.17h-4.14v2.38h4.12l.71-.9c.09-.12.18-.19.24-.19.08,0,.18.07.27.17l.9.9c.1.11.15.17.15.23,0,.15-.12.17-.23.17Zm-8.52,1.81c-.06.03-.24.08-.37.12-1.01,1.68-2.4,2.96-4.06,3.93l-.06-.08c1.6-1.69,2.7-3.69,2.91-4.18.12-.27.2-.54.29-.9l1.17.62c.13.08.25.13.25.32,0,.08-.04.15-.12.18Zm4.59,2.67c-2.4,2.1-4.77,3.46-8.43,3.58v-.11c2.22-.55,4.5-1.42,6.65-3.4.5-.45,1.02-.95,1.33-1.49l.92.9c.12.12.18.19.18.29,0,.18-.06.18-.65.22Zm2.61.39c-.44,0-.65-.33-.93-.79-.94-1.54-1.71-2.25-2.71-2.97l.06-.09c2.68.64,4.18,2.29,4.18,3.21,0,.31-.24.64-.6.64Z"/><path class="cls-2" d="m391.92,62.46l-.13,3.78c.65-.57,1.21-1.04,2.32-1.04,2.16,0,3.19,1.79,3.19,3.43,0,2.17-1.72,3.87-3.7,3.87-1.71,0-2.83-1.28-2.83-2.21,0-.57.36-.93.87-.93.45,0,.78.3.78.78,0,.15-.02.21-.08.45-.03.12-.04.33-.04.42,0,.65.68.98,1.27.98,1.22,0,2.35-1.16,2.35-3.17,0-1.91-1-2.96-2.1-2.96-.6,0-1.52.33-2.34,1.3l-.22-.12.22-5.79h5.22l-.3,1.18h-4.48Z"/><path class="cls-2" d="m402.78,61.88c-1.24,2.55-3.51,4.47-4.65,5.1l-.08-.1c2.1-2.38,3.28-4.49,3.63-5.49.13-.38.19-.67.24-.96l1.29.87c.08.04.19.13.19.24,0,.18-.39.29-.63.34Zm5.44,4.7c-.15,5.4-.45,6.49-3.15,6.73-.06-.95-.79-1.44-1.12-1.65l.02-.1c.63.13,1.27.25,1.74.25.72,0,1.01-.17,1.23-1.53.18-1.11.27-3.61.23-4.32h-3.03c-.09,2.35-1.09,6.42-5.82,7.29l-.03-.12c3.04-1.41,4.59-3.67,4.74-7.17h-.44c-.38,0-1.1.01-1.77.15l-.29-.6c.93.08,1.85.09,2.29.09h4.25l.4-.36c.09-.09.18-.17.27-.17.08,0,.15.07.21.13l.6.66c.08.07.14.17.14.24,0,.14-.05.17-.47.47Zm2.73-.02c-1.6-.69-3.39-2.31-4.51-5.7h-1.2c-.75,0-1.05.06-1.26.09l-.2-.53c.68.06,1.33.08,1.64.08h.75l.48-.48c.13-.13.19-.16.27-.16.09,0,.15.07.25.16l.56.54c.09.08.12.14.12.23,0,.3-.69.42-.96.46.72,1.93,3.21,3.85,5.5,4.02l.02.15c-.84.25-1.19.73-1.46,1.14Z"/><path class="cls-2" d="m413.08,73.79l-.13-.21c2.79-2.95,2.85-5.95,2.85-7.05s-.06-4.09-2.85-7.05l.13-.21c2.34,1.87,3.56,4.57,3.56,7.26s-1.22,5.38-3.56,7.26Z"/><path class="cls-1" d="m13.32,66.53c0,3.67-2.98,6.66-6.66,6.66s-6.66-2.97-6.66-6.66,3.02-6.66,6.66-6.66,6.66,2.96,6.66,6.66Z"/><path class="cls-2" d="m23.31,63.33c.08.04.14.1.14.2,0,.13-.15.18-.47.27-.06.12-.09.15-.12.2,1.86.54,2.25,1.17,2.25,1.57,0,.35-.21.56-.55.56-.38,0-.52-.29-.68-.57-.43-.81-.88-1.26-1.09-1.44-.67.99-2.21,2.7-4.08,3.81l-.04-.06c1.46-1.48,3.08-3.4,3.56-5.17l1.09.65Zm-.92,5.38c0,.6.03,3.58.03,4.26,0,.24,0,.57-.63.57-.24,0-.4-.06-.4-.5,0-.08.04-1.84.04-2.07,0-.33.02-1.9.02-2.26-.69,0-1.32.01-1.96.13l-.3-.6c1.2.09,2.07.1,2.31.1h2.01l.41-.33c.09-.07.15-.13.24-.13.08,0,.15.06.2.11l.54.48s.12.12.12.2c0,.1-.1.21-.4.39,0,.24.06,1.47.06,1.75,0,.57-.2.79-.57,1.02-.19.1-.45.27-.75.3-.1-.42-.24-.95-.9-1.32v-.08c.2.03.81.09.95.09.22,0,.33-.02.33-.39v-1.72h-1.32Zm.48-2.01l.3-.35c.07-.07.15-.19.24-.19.1,0,.18.08.29.15l.46.36c.08.06.15.12.15.22,0,.12-.1.17-.24.17h-1.94c-.72,0-1,.04-1.25.09l-.19-.53c.67.04,1.33.08,1.63.08h.54Zm6.72-4.71c.03-.97,0-1.08-.13-2.01l1.48.4c.09.03.17.12.17.21,0,.17-.35.3-.5.39-.02.24.03,1.32.03,1.53,0,.38-.36.56-.69.56-.39,0-.39-.12-.36-.72h-7.45c.02.38.02.42-.08.52-.15.17-.38.24-.6.24-.31,0-.38-.2-.38-.51,0-1.77,0-1.82-.12-2.67l1.42.42c.1.03.12.12.12.18,0,.11-.04.13-.36.33,0,.18-.02.96-.02,1.12h3.24c0-.41,0-1.46-.21-2.4l1.48.42s.14.06.14.17c0,.09,0,.15-.44.39,0,.22-.02,1.21,0,1.42h3.24Zm-6.33,11.44c.96-.34,2.9-1.2,3.58-2.25l.97.65s.1.12.1.19c0,.18-.18.2-.6.23-1.25.75-2.35,1.11-4.05,1.23l-.02-.04Zm5.62-9.36c-.49.64-.55.72-1.09,1.32h2.5l.3-.34c.06-.06.1-.15.2-.15s.17.06.25.13l.6.46s.1.11.1.17c0,.15-.29.34-.44.43,0,.62.07,3.58.07,4.26,0,.18,0,.68-.09.77-.12.12-.4.25-.58.25-.4,0-.39-.25-.39-.48h-3.63c.02.09-.03.54-.61.54-.39,0-.42-.13-.42-.46,0-.08.09-2.49.09-2.96,0-.84-.03-2.34-.15-3.1l1.09.48h.8c.03-.18.16-1.11.19-1.32h-.9c-.39,0-1.11.01-1.77.13l-.29-.6c.77.08,1.53.1,2.29.1h3.83l.48-.55c.06-.06.12-.18.22-.18.09,0,.18.07.29.15l.73.56c.08.04.15.13.15.22,0,.17-.15.17-.24.17h-3.6Zm-2.19,1.68v1.32h3.65v-1.32h-3.65Zm0,1.68v1.38h3.65v-1.38h-3.65Zm0,1.74v1.37h3.65v-1.37h-3.65Zm2.42,2.19c1.67.22,2.21.4,2.73.84.1.07.52.43.52.79,0,.39-.28.57-.52.57-.25,0-.31-.06-.9-.69-.81-.86-1.12-1.07-1.85-1.42l.02-.09Z"/><path class="cls-2" d="m40.31,61.49c-.03.92-.05,6.09.01,7.6,0,.12.03.79.03.85,0,.17,0,.71-.69.71-.41,0-.41-.27-.41-.42,0-.13.03-.72.03-.84h-3.58c.02.3.03,1.12.03,1.3,0,.21,0,.69-.75.69-.39,0-.43-.2-.43-.39,0-.17.07-1.23.09-1.46,0-.11.1-4.49.1-6.01,0-2.12-.06-2.64-.24-3.57l1.41.71h3.3l.31-.33c.08-.08.17-.17.23-.17s.18.11.24.15l.66.51c.09.06.15.15.15.22,0,.14-.06.17-.49.44Zm-3.25-.46h-1.35v3.66h1.35v-3.66Zm0,4.02h-1.35v3.99h1.35v-3.99Zm2.25-4.02h-1.33v3.66h1.33v-3.66Zm0,4.02h-1.33v3.99h1.33v-3.99Zm7.88-3.18h-2.79c-.03,1.48.06,7.99.06,9.33,0,.67,0,1.73-1.79,2-.19-.55-.49-1-1.77-1.47v-.09c.25,0,1.32.03,1.54.03.76,0,.88-.04.9-.57.04-3.45.04-8.22.03-9.22h-.63c-.27,0-1.04,0-1.75.13l-.3-.6c.93.07,1.84.1,2.29.1h2.26l.66-.78c.06-.07.17-.18.24-.18s.2.06.29.15l.82.78c.09.09.15.14.15.24,0,.13-.14.15-.23.15Z"/><path class="cls-2" d="m54.65,64.11c.1.04.17.13.17.24,0,.18-.12.24-.62.39-.76,1.18-2.92,4.3-4.12,5.62.52-.06,2.23-.33,3.34-.6-.17-.34-.69-1.18-1.11-1.51l.07-.12c.65.29,2.73,1.2,2.73,2.62,0,.33-.28.66-.65.66-.28,0-.45-.14-.61-.63-.08-.23-.23-.57-.31-.77-.63.32-.73.34-3.57,1.38-.23.08-.36.13-.54.21-.15.3-.27.48-.38.48-.14,0-.24-.2-.27-.29l-.63-1.51c.22.07.44.15,1,.15.18,0,.34-.01.54-.03.24-.36,1.62-2.6,2.8-5.06.44-.92.56-1.26.67-1.99l1.47.75Zm-6.01-1.02c.52.11,1.08.3,1.69.71.82-1.49,1.35-3.03,1.47-3.58.05-.18.05-.24.09-.73l1.42.76c.09.04.17.13.17.22,0,.23-.42.3-.54.33-.56.95-1.89,2.66-2.35,3.17.31.25,1.05.83,1.05,1.68,0,.33-.22.65-.61.65-.45,0-.54-.23-.88-.96-.1-.24-.66-1.41-1.56-2.12l.06-.12Zm4.75,10.12c3.04-2.34,3.55-5.43,3.72-9.71h-.44c-.15,0-1.08,0-1.77.13l-.3-.6c.85.08,1.74.11,2.52.11,0-.36.04-2.52-.32-3.5l1.47.42c.18.04.25.15.25.22,0,.09-.04.18-.39.39,0,.73,0,1.41-.01,2.46h1.93l.41-.47s.13-.12.23-.12c.06,0,.16.03.24.09l.66.46c.09.06.19.2.19.29,0,.17-.21.33-.54.5.04,1.93.15,6.58-.92,8.29-.31.53-.88,1.04-2.02,1.25-.22-.99-.81-1.39-1.3-1.67l.06-.1c.49.15,1.38.21,1.45.21.57,0,.75-.2.9-.42.75-1.14.82-3.87.82-5.91,0-.93-.03-1.49-.04-2.04h-2.07c-.1,5.08-1.05,7.91-4.67,9.84l-.07-.13Z"/><path class="cls-2" d="m66.6,63.98l.36-.5c.06-.09.15-.19.25-.19.09,0,.15.08.26.17l.51.5c.09.07.15.13.15.22,0,.15-.13.17-.24.17h-1.6c0,.79,0,1-.02,1.7.87.27,1.94.93,1.94,1.68,0,.34-.23.57-.52.57-.44,0-.54-.36-.72-.91-.23-.71-.6-1.07-.69-1.14,0,1.28-.02,6.41-.02,6.51-.03.46-.34.67-.73.67-.28,0-.44-.18-.44-.43,0-.15.09-.79.09-.93.1-1.89.15-4.62.15-5.08v-.24c-.71,1.37-1.47,2.25-2.71,3.22l-.08-.06c1.02-1.26,2.29-3.87,2.7-5.55h-.32c-.25,0-1.03,0-1.77.13l-.3-.6c.83.08,1.67.1,2.49.1v-2.37c-.5.1-1.52.3-2.37.33v-.1c1.8-.51,3.18-1.33,3.72-1.65.18-.1.33-.3.41-.42l1.05.96s.08.11.08.18c0,.15-.18.18-.26.18s-.28-.03-.4-.04c-.27.09-.57.18-1.25.34,0,.42-.03,2.22-.03,2.59h.31Zm6.01-.4v2.52h1.17l.44-.55c.06-.08.15-.18.23-.18s.21.09.27.15l.61.55c.09.08.15.14.15.23,0,.15-.1.17-.24.17h-2.62v2.5h1.14l.48-.56c.07-.09.15-.19.23-.19.09,0,.15.07.27.17l.67.55c.07.06.15.15.15.24,0,.15-.13.15-.23.15h-2.71v2.61h1.81l.58-.75c.09-.12.17-.2.23-.2.09,0,.23.11.29.17l.73.75c.06.08.15.13.15.24,0,.15-.15.15-.23.15h-6.33c.03.39.08,1.04-.69,1.04-.42,0-.42-.29-.42-.45,0-.18.04-1.02.04-1.2.03-1.02.04-3.46.06-6.76-.58.84-.93,1.21-1.14,1.45l-.09-.04c.66-1.26,2.13-4.8,1.98-6.42l1.4.63c.09.04.17.12.17.21,0,.19-.2.27-.5.34-.23.55-.39.96-.89,2.1l.08.03h1.89c.25-.54.69-1.72.7-3.06l1.43.66c.09.04.17.13.17.21,0,.13-.12.18-.51.31-.71,1-1.11,1.53-1.52,1.88h2.16l.52-.58c.09-.11.15-.18.24-.18.04,0,.17.06.27.15l.7.58c.08.08.15.15.15.24,0,.15-.15.15-.23.15h-3.23Zm-.98,2.52v-2.52h-1.8v2.52h1.8Zm0,2.87v-2.5h-1.8v2.5h1.8Zm0,2.97v-2.61h-1.8v2.61h1.8Z"/><path class="cls-2" d="m88.86,60.69l.44-.36c.09-.08.18-.13.27-.13.06,0,.17.06.21.1l.65.56c.07.06.17.15.17.24,0,.18-.17.29-.5.51-.02.82-.03,2.55,0,5.25,0,.87.06,4.71.06,5.49,0,.5-.35.81-.74.81-.46,0-.43-.34-.4-.87h-9.31c.01.18,0,.42-.02.5-.04.33-.48.51-.75.51-.31,0-.39-.21-.39-.47,0-.19.08-1.09.08-1.27.04-1,.06-1.74.06-7.14,0-2.75-.03-3.5-.15-4.33l1.29.62h9.04Zm-9.16.36v10.88h9.31v-10.88h-9.31Zm7.75,7.29s.09.1.09.18c0,.2-.17.23-.29.23-.06,0-.15,0-.27-.02-.48.2-.63.24-1.14.41.63.22,1.97.72,1.97,1.5,0,.27-.2.5-.47.5-.18,0-.25-.04-.84-.69-.51-.55-1.17-1.09-1.81-1.46,0,.29.04,1.68.04,1.83,0,.45-.42.67-.69.67-.24,0-.33-.21-.33-.45,0-.45.06-2.42.06-2.82-.48.57-1.83,1.84-3.76,2.46l-.06-.09c1.3-.87,2.58-1.98,3.42-3.17h-.89c0,.41-.33.57-.6.57-.39,0-.39-.27-.39-.44,0-.08.06-1.3.06-1.54,0-.46-.02-.78-.1-1.18l1.12.45h3.4l.27-.25c.07-.08.15-.15.21-.15s.15.06.21.12l.52.46c.08.06.12.13.12.21,0,.06-.09.15-.35.38,0,.2.03,1.05.03,1.21,0,.32-.12.41-.24.5l.69.58Zm-1.44-5.68l.31-.45c.08-.12.15-.18.23-.18.06,0,.15.04.29.15l.52.45c.08.06.17.13.17.22,0,.14-.14.17-.24.17h-2.58v1.11h2.07l.44-.51c.09-.11.15-.18.24-.18s.18.06.29.15l.6.51c.09.08.15.13.15.23,0,.15-.14.17-.23.17h-6.21c-.15,0-1.08,0-1.77.13l-.3-.6c.77.08,1.54.11,2.31.11h1.47v-1.11h-1.02c-.26,0-1.05,0-1.77.14l-.3-.6c.93.08,2.02.11,2.31.11h.78c-.03-.54-.18-1.04-.27-1.33l1.39.36c.09.03.2.06.2.18,0,.17-.15.25-.38.39v.41h1.3Zm.02,4.41v-1.42h-3.54v1.42h3.54Zm-1.33.36c-.02.64-.02,1.05-.02,1.41.21.03.41.06.85.19.3-.25.85-.87,1.06-1.21-.34.09-.57-.07-.57-.39h-1.33Z"/><path class="cls-2" d="m94.32,73.29v-13.53h3.78v.65h-3.15v12.24h3.15v.65h-3.78Z"/><path class="cls-2" d="m106.77,64.64h-2.96c0,.13,0,.9.02,1.54,1.11.3,2.44,1.2,2.44,2.03,0,.31-.21.69-.58.69-.4,0-.57-.34-.84-.96-.45-.99-.83-1.3-1.02-1.47,0,.96.06,5.17.06,6.03,0,.69-.39.86-.69.86-.46,0-.46-.39-.46-.55,0-.74.13-3.96.15-4.62.01-.57.01-.93.01-1.26-.7,1.27-1.95,3-3.49,4.12l-.09-.09c1.69-2.02,3.13-5.19,3.51-6.31h-1.06c-.38,0-1.1,0-1.77.13l-.3-.6c1.03.09,2.1.11,2.31.11h.89v-2.49c-1.35.24-2.37.22-2.9.22v-.13c1.63-.32,4.44-1.21,5.22-2.05l1,1.05c.06.06.09.13.09.2,0,.12-.06.15-.23.15-.04,0-.41-.08-.48-.09-.33.09-.77.22-1.79.46v2.69h1.21l.53-.68c.09-.12.15-.18.22-.18s.18.06.29.15l.78.67c.1.09.15.13.15.22,0,.13-.12.17-.23.17Zm5.4,7.98c-.5,0-.65-.52-.72-.85-.09-.41-.23-1.02-.27-1.2-1.51.55-4.24,1.16-5.26,1.38-.04.04-.15.29-.19.33-.03.03-.09.08-.18.08s-.18-.04-.29-.29l-.57-1.33c.25.03.48.08.92.08.18,0,.3,0,.76-.03,1.06-3.42,2.35-8.76,2.22-10.45l1.69.66c.08.03.21.11.21.24,0,.15-.06.18-.66.46-.85,3.3-1.42,5.17-3.03,9.08,1.33-.09,3-.21,4.31-.45-.27-.83-.92-2.04-1.71-3.06l.06-.08c1.84,1.08,3.4,3.31,3.4,4.6,0,.74-.51.84-.69.84Z"/><path class="cls-2" d="m125.07,71.93l.78-.84c.08-.08.15-.2.24-.2.1,0,.18.08.28.17l1.04.84c.08.06.15.13.15.22,0,.14-.12.17-.23.17h-11.14c-.13,0-1.06,0-1.77.14l-.29-.6c.99.09,2.01.11,2.29.11h4.51c.35-.84,2.15-6.22,2.06-8.14l1.68.82c.06.03.14.12.14.21,0,.17-.06.18-.6.41-.21.53-1.15,2.96-1.31,3.32-.34.85-.91,2.2-1.63,3.39h3.79Zm-.87-9.18l.63-.84c.1-.13.17-.2.23-.2.09,0,.18.09.29.17l1.05.86c.09.07.14.13.14.21,0,.13-.1.17-.23.17h-9.18c-.13,0-1.06,0-1.77.13l-.28-.58c1.03.08,2.16.09,2.29.09h2.91c0-1.82-.18-2.29-.39-2.88l1.8.45c.08.01.18.04.18.15,0,.15-.34.42-.54.58-.03.27-.03,1.46-.03,1.7h2.91Zm-7.17,1.39c1.69,1.63,2.56,4.07,2.56,5.61,0,.6-.35.96-.72.96-.6,0-.65-.69-.67-1.07-.1-1.59-.24-3.27-1.23-5.46l.06-.04Z"/><path class="cls-2" d="m128.84,73.29v-.65h3.15v-12.24h-3.15v-.65h3.78v13.53h-3.78Z"/><path class="cls-1" d="m4.28,47.25L0,39.03l4.27-8.23.49.27-4.13,7.96,4.13,7.96-.49.27Zm1.85,0l-4.27-8.23,4.27-8.23.49.27-4.11,7.96,4.11,7.96-.49.27Z"/><path class="cls-1" d="m15.58,36.29c.12.05.19.15.19.27,0,.2-.14.27-.7.44-.87,1.34-3.31,4.88-4.67,6.37.59-.07,2.53-.37,3.79-.68-.19-.39-.78-1.34-1.26-1.72l.08-.14c.73.32,3.09,1.36,3.09,2.97,0,.37-.32.75-.73.75-.32,0-.51-.15-.7-.71-.08-.25-.26-.65-.36-.87-.71.36-.83.39-4.05,1.56-.25.08-.41.15-.61.24-.17.34-.31.54-.42.54-.15,0-.27-.22-.31-.32l-.71-1.72c.25.08.49.17,1.14.17.2,0,.39-.02.61-.03.27-.41,1.84-2.94,3.18-5.73.49-1.04.63-1.43.77-2.26l1.67.85Zm-6.82-1.16c.59.12,1.22.34,1.92.8.93-1.68,1.53-3.43,1.67-4.06.05-.2.05-.27.1-.83l1.61.87c.1.05.19.15.19.25,0,.25-.48.34-.61.37-.63,1.07-2.14,3.01-2.67,3.59.36.29,1.19.93,1.19,1.9,0,.37-.25.73-.7.73-.51,0-.61-.25-1-1.09-.12-.27-.75-1.6-1.77-2.4l.07-.14Zm5.39,11.47c3.45-2.65,4.03-6.15,4.22-11h-.49c-.17,0-1.22,0-2.01.15l-.34-.68c.97.08,1.97.12,2.86.12,0-.41.05-2.86-.36-3.96l1.67.48c.2.05.29.17.29.25,0,.1-.05.2-.44.44,0,.83,0,1.6-.02,2.79h2.19l.46-.53s.15-.14.25-.14c.07,0,.19.03.27.1l.75.53c.1.07.22.22.22.32,0,.19-.24.37-.61.56.05,2.19.17,7.46-1.04,9.4-.36.59-1,1.17-2.29,1.41-.25-1.12-.92-1.58-1.48-1.89l.07-.12c.56.17,1.56.24,1.65.24.65,0,.85-.22,1.02-.48.85-1.29.94-4.39.94-6.7,0-1.05-.03-1.68-.05-2.31h-2.35c-.12,5.76-1.19,8.96-5.29,11.15l-.08-.15Z"/><path class="cls-1" d="m29.56,36.14l.41-.56c.07-.1.17-.22.29-.22.1,0,.17.08.29.19l.58.56c.1.08.17.15.17.25,0,.17-.15.19-.27.19h-1.82c0,.9,0,1.14-.02,1.92.99.31,2.19,1.05,2.19,1.9,0,.39-.25.65-.6.65-.49,0-.61-.41-.82-1.04-.26-.8-.68-1.21-.78-1.29,0,1.45-.02,7.26-.02,7.38-.03.53-.39.76-.83.76-.32,0-.49-.2-.49-.49,0-.17.1-.9.1-1.05.12-2.14.17-5.24.17-5.76v-.27c-.8,1.55-1.67,2.55-3.08,3.65l-.08-.07c1.16-1.43,2.6-4.38,3.06-6.29h-.36c-.29,0-1.17,0-2.01.15l-.34-.68c.94.09,1.89.12,2.82.12v-2.69c-.56.12-1.72.34-2.69.37v-.12c2.04-.58,3.6-1.51,4.22-1.87.2-.12.37-.34.46-.48l1.19,1.09c.05.05.08.12.08.2,0,.17-.2.2-.29.2s-.32-.03-.46-.05c-.31.1-.65.2-1.41.39,0,.48-.03,2.52-.03,2.94h.36Zm6.82-.46v2.86h1.33l.49-.63c.07-.08.17-.2.25-.2s.24.1.31.17l.7.63c.1.08.17.15.17.25,0,.17-.12.19-.27.19h-2.97v2.84h1.29l.54-.63c.08-.1.17-.22.25-.22.1,0,.17.08.31.19l.77.63c.08.07.17.17.17.27,0,.17-.15.17-.25.17h-3.08v2.96h2.06l.66-.85c.1-.14.19-.22.25-.22.1,0,.25.12.32.19l.83.85c.07.08.17.15.17.27,0,.17-.17.17-.25.17h-7.17c.03.44.08,1.17-.78,1.17-.48,0-.48-.32-.48-.51,0-.2.05-1.16.05-1.36.03-1.16.05-3.93.07-7.67-.66.95-1.05,1.38-1.29,1.65l-.1-.05c.75-1.43,2.41-5.44,2.24-7.28l1.58.71c.1.05.19.14.19.24,0,.22-.22.31-.56.39-.25.63-.44,1.09-1,2.38l.08.03h2.14c.29-.61.78-1.96.8-3.47l1.61.75c.1.05.19.15.19.24,0,.15-.14.2-.58.36-.8,1.14-1.26,1.73-1.72,2.12h2.45l.6-.66c.1-.12.17-.2.27-.2.05,0,.19.07.31.17l.8.66c.08.08.17.17.17.27,0,.17-.17.17-.26.17h-3.65Zm-1.1,2.86v-2.86h-2.04v2.86h2.04Zm0,3.25v-2.84h-2.04v2.84h2.04Zm0,3.37v-2.96h-2.04v2.96h2.04Z"/><path class="cls-1" d="m55.21,32.41l.49-.41c.1-.08.2-.15.31-.15.07,0,.19.07.24.12l.73.63c.08.07.19.17.19.27,0,.2-.19.32-.56.58-.02.93-.03,2.89,0,5.95,0,.99.07,5.34.07,6.22,0,.56-.39.92-.83.92-.53,0-.49-.39-.46-.99h-10.56c.02.2,0,.48-.02.56-.05.37-.54.58-.85.58-.36,0-.44-.24-.44-.53,0-.22.08-1.24.08-1.45.05-1.14.07-1.97.07-8.09,0-3.11-.03-3.96-.17-4.91l1.46.7h10.25Zm-10.39.41v12.32h10.56v-12.32h-10.56Zm8.79,8.26c.05.05.1.12.1.2,0,.22-.19.26-.32.26-.07,0-.17,0-.31-.02-.54.22-.71.27-1.29.46.71.25,2.23.82,2.23,1.7,0,.31-.22.56-.53.56-.2,0-.29-.05-.95-.78-.58-.63-1.33-1.24-2.06-1.65,0,.32.05,1.9.05,2.07,0,.51-.48.76-.78.76-.27,0-.37-.24-.37-.51,0-.51.07-2.74.07-3.2-.54.65-2.07,2.09-4.27,2.79l-.07-.1c1.48-.99,2.92-2.24,3.88-3.59h-1c0,.46-.37.65-.68.65-.44,0-.44-.31-.44-.49,0-.08.07-1.48.07-1.75,0-.53-.02-.88-.12-1.34l1.27.51h3.86l.31-.29c.08-.08.17-.17.24-.17s.17.07.24.14l.59.53c.08.07.14.15.14.24,0,.07-.1.17-.39.42,0,.22.03,1.19.03,1.38,0,.36-.14.46-.27.56l.78.66Zm-1.63-6.44l.36-.51c.08-.14.17-.2.25-.2.07,0,.17.05.32.17l.59.51c.08.07.19.15.19.25,0,.15-.15.19-.27.19h-2.92v1.26h2.35l.49-.58c.1-.12.17-.2.27-.2s.2.07.32.17l.68.58c.1.08.17.15.17.25,0,.17-.15.19-.25.19h-7.04c-.17,0-1.22,0-2.01.15l-.34-.68c.87.08,1.75.12,2.62.12h1.67v-1.26h-1.16c-.29,0-1.19,0-2.01.15l-.34-.68c1.05.08,2.29.12,2.62.12h.88c-.03-.61-.2-1.17-.31-1.51l1.58.41c.1.03.22.07.22.2,0,.19-.17.29-.43.44v.46h1.48Zm.02,5v-1.62h-4.01v1.62h4.01Zm-1.51.41c-.02.73-.02,1.19-.02,1.6.24.03.46.07.97.22.34-.29.97-.99,1.21-1.38-.39.1-.65-.08-.65-.44h-1.51Z"/><path class="cls-1" d="m60.19,47.25l-.49-.27,4.11-7.96-4.11-7.96.49-.27,4.27,8.23-4.27,8.23Zm1.85,0l-.49-.27,4.13-7.96-4.13-7.96.49-.27,4.27,8.23-4.27,8.23Z"/></g></g></svg>