<svg xmlns="http://www.w3.org/2000/svg" width="1600" height="91.609" viewBox="0 0 1600 91.609">
  <g id="area02-01" transform="translate(0 -14.4)">
    <line id="線_22" data-name="線 22" x2="1600" transform="translate(0 103.28)" fill="none" stroke="#bba579" stroke-miterlimit="10" stroke-width="2"/>
    <path id="パス_129" data-name="パス 129" d="M38-72.6a30.6,30.6,0,0,1,11.75,2.45,21.9,21.9,0,0,1,8.8,6.65A15.955,15.955,0,0,1,61.9-53.4q0,10.8-7.35,14.95T35.8-33.5q-1.3.1-5.7.1H24.4V-9.1q0,3.5,2,4.9T33-2.8h1.6q.7,0,.7,1.3,0,1.5-.7,1.5H6.2q-.7,0-.7-1.4t.7-1.4H7.8q4.3,0,6.45-1.4T16.4-9.1V-63.5q0-3.4-2.1-4.85T7.8-69.8H6.2q-.7,0-.7-1.4t.7-1.4H38ZM32.2-36.3q11.2-.1,15.8-4.8t4.6-12.7q0-10.2-6.65-13.1A33.147,33.147,0,0,0,32.6-69.8q-8.2,0-8.2,6.3v27.2h7.8ZM80.6-.1q-.8,0-.8-1.4,0-1.3.8-1.3h1.3a11.318,11.318,0,0,0,4.65-.8Q88.3-4.4,88.3-7L88-62.2q0-3.1-1.95-4.1a12.415,12.415,0,0,0-5.55-1q-.7,0-.85-.45a3.7,3.7,0,0,1-.15-1.15.85.85,0,0,1,.6-.9q1.5-.5,15.2-3.8L95.2-7A3.336,3.336,0,0,0,97-3.65a11.077,11.077,0,0,0,4.7.85H103q.7,0,.7,1.3,0,1.4-.7,1.4Zm85.2-12.6a.9.9,0,0,1,.5.8,2.359,2.359,0,0,1-.3,1,21.465,21.465,0,0,1-6.95,8.6Q154.2,1.4,146.7,1.4a25.688,25.688,0,0,1-12.25-2.95A21.774,21.774,0,0,1,125.7-10a24.991,24.991,0,0,1-3.2-12.8,30.882,30.882,0,0,1,2.6-12.4,24.346,24.346,0,0,1,7.75-9.9A20.025,20.025,0,0,1,145.3-49q8.8,0,14.3,5.7t6.6,15.6l-35.3.2q-.2,2.4-.2,3.7a23.968,23.968,0,0,0,2.45,11.45,15.974,15.974,0,0,0,6.4,6.7A17.8,17.8,0,0,0,148.2-3.5q9.6,0,15.8-9a1.112,1.112,0,0,1,.9-.6A1.926,1.926,0,0,1,165.8-12.7ZM144.7-45.4a11.206,11.206,0,0,0-8.35,3.7,20.736,20.736,0,0,0-4.95,10.3l25.2-.2v-1q-.3-6.6-3.65-9.7A11.693,11.693,0,0,0,144.7-45.4ZM234.7-8q.8,0,.8.7l-.1.6a10.957,10.957,0,0,1-4.5,6.1,11.139,11.139,0,0,1-5.7,1.8,6.876,6.876,0,0,1-5-1.95,10.591,10.591,0,0,1-2.8-5.15,24.112,24.112,0,0,1-8.3,5.45,25.5,25.5,0,0,1-9.4,1.85,15.044,15.044,0,0,1-9.35-2.7,8.79,8.79,0,0,1-3.55-7.4,12.326,12.326,0,0,1,1.6-6.4,14.079,14.079,0,0,1,5.2-4.8,30.483,30.483,0,0,1,5.8-2.4q3.5-1.1,9.6-2.7l8.2-2.3v-4.3a36.529,36.529,0,0,0-.5-7.1,9.447,9.447,0,0,0-2-4.1q-2.2-2.7-7.5-2.7a7.854,7.854,0,0,0-5.6,1.8,13.77,13.77,0,0,0-3.2,5.5q-1.7,4.8-4.9,4.8a5.1,5.1,0,0,1-3.25-1.15,3.7,3.7,0,0,1-1.45-3.05,9.826,9.826,0,0,1,1.35-4.45q1.35-2.55,5.5-4.7T207.5-48.9a23.714,23.714,0,0,1,8.55,1.55,12.5,12.5,0,0,1,5.75,3.85,12.629,12.629,0,0,1,2.05,4.35,22.767,22.767,0,0,1,.55,5.35q0,4.7-.1,8.3L224.2-11q0,4.1,1.55,5.5a4.619,4.619,0,0,0,3.05,1.4,5.467,5.467,0,0,0,2.75-.85A6.948,6.948,0,0,0,234-7.5.844.844,0,0,1,234.7-8ZM203.3-3.4a17.618,17.618,0,0,0,7.2-1.65,18.263,18.263,0,0,0,6.4-4.75v-.3l.2-13.5q-7.7,1.9-12.35,3.55A20.9,20.9,0,0,0,197.5-16a7.716,7.716,0,0,0-2.6,5.9,6.464,6.464,0,0,0,1.95,4.75Q198.8-3.4,203.3-3.4Zm48.8-9.8-.1-.5q0-.6.8-1a1.113,1.113,0,0,1,.5-.1,1.426,1.426,0,0,1,1.2.8q2.4,3.1,4.7,5.55a23.433,23.433,0,0,0,6.55,4.6A21.309,21.309,0,0,0,275.5-1.7a10.607,10.607,0,0,0,7.35-2.55,8.28,8.28,0,0,0,2.85-6.45,7.276,7.276,0,0,0-1.3-4.2,8.786,8.786,0,0,0-3.7-3,78.794,78.794,0,0,0-10.1-3.4,40.537,40.537,0,0,1-6.3-1.9q-9.9-4.1-9.9-12.4a15.306,15.306,0,0,1,1.15-5.25,12.823,12.823,0,0,1,4.4-5.55q3.25-2.5,9.15-2.5a18.325,18.325,0,0,1,5.55.75q2.35.75,2.75.85a9.661,9.661,0,0,0,2.5.7,6.6,6.6,0,0,0,3.1-.85,5.819,5.819,0,0,0,2.4-2.25l4.1,13.1.2.7q0,.5-.8,1a1.393,1.393,0,0,1-.6.1,1.529,1.529,0,0,1-1.1-.5,49.143,49.143,0,0,0-7.9-7.25,17.449,17.449,0,0,0-10.6-3.15,10.389,10.389,0,0,0-5.45,1.3,8.12,8.12,0,0,0-3.1,3.1,7.315,7.315,0,0,0-.95,3.4,5.291,5.291,0,0,0,1.45,3.75A16.375,16.375,0,0,0,265.4-31a49.372,49.372,0,0,0,8.1,2.8q6.5,2,9.5,3.3,8.8,4,8.8,12.1a12.761,12.761,0,0,1-4.7,10.25Q282.4,1.4,274.3,1.4A36.584,36.584,0,0,1,263.5-.7a16.847,16.847,0,0,0-2.9-.7,3.982,3.982,0,0,0-2.25.7,14.356,14.356,0,0,0-2.55,2.4ZM359.6-8q.8,0,.8.7l-.1.6a10.957,10.957,0,0,1-4.5,6.1,11.139,11.139,0,0,1-5.7,1.8,6.876,6.876,0,0,1-5-1.95,10.591,10.591,0,0,1-2.8-5.15A24.112,24.112,0,0,1,334-.45a25.5,25.5,0,0,1-9.4,1.85,15.044,15.044,0,0,1-9.35-2.7,8.79,8.79,0,0,1-3.55-7.4,12.326,12.326,0,0,1,1.6-6.4,14.08,14.08,0,0,1,5.2-4.8,30.482,30.482,0,0,1,5.8-2.4q3.5-1.1,9.6-2.7l8.2-2.3v-4.3a36.528,36.528,0,0,0-.5-7.1,9.447,9.447,0,0,0-2-4.1q-2.2-2.7-7.5-2.7a7.854,7.854,0,0,0-5.6,1.8,13.77,13.77,0,0,0-3.2,5.5q-1.7,4.8-4.9,4.8a5.1,5.1,0,0,1-3.25-1.15,3.7,3.7,0,0,1-1.45-3.05,9.826,9.826,0,0,1,1.35-4.45q1.35-2.55,5.5-4.7T332.4-48.9a23.715,23.715,0,0,1,8.55,1.55,12.5,12.5,0,0,1,5.75,3.85,12.629,12.629,0,0,1,2.05,4.35,22.767,22.767,0,0,1,.55,5.35q0,4.7-.1,8.3L349.1-11q0,4.1,1.55,5.5a4.619,4.619,0,0,0,3.05,1.4,5.467,5.467,0,0,0,2.75-.85A6.948,6.948,0,0,0,358.9-7.5.844.844,0,0,1,359.6-8ZM328.2-3.4a17.618,17.618,0,0,0,7.2-1.65,18.262,18.262,0,0,0,6.4-4.75v-.3l.2-13.5q-7.7,1.9-12.35,3.55A20.9,20.9,0,0,0,322.4-16a7.716,7.716,0,0,0-2.6,5.9,6.464,6.464,0,0,0,1.95,4.75Q323.7-3.4,328.2-3.4Zm102.4.7q.8,0,.8,1.4,0,1.3-.8,1.3H408.2q-.7,0-.7-1.3,0-1.4.7-1.4h1.4a10.958,10.958,0,0,0,4.6-.8q1.7-.8,1.7-3.4l-.1-18.6-.1-6.4a15.211,15.211,0,0,0-2.35-8.75Q411-44.1,405.4-44.1a15.3,15.3,0,0,0-7.9,2.25A17.981,17.981,0,0,0,391.1-35L391-6.9a3.336,3.336,0,0,0,1.8,3.35,11.077,11.077,0,0,0,4.7.85h1.3q.7,0,.7,1.4,0,1.3-.7,1.3H376.4q-.8,0-.8-1.3,0-1.4.8-1.4h1.3a11.077,11.077,0,0,0,4.7-.85,3.336,3.336,0,0,0,1.8-3.35l-.3-30.6a4.369,4.369,0,0,0-.95-3.1,4.43,4.43,0,0,0-2.3-1.3q-1.35-.3-4.35-.7a.9.9,0,0,1-.75-.45,3.167,3.167,0,0,1-.15-1.15.859.859,0,0,1,.5-.9q1.5-.6,15.2-3.8V-40q6.6-8.9,15.7-8.9,7.9,0,11.95,4.35A16.364,16.364,0,0,1,423.1-33.8q.1,1.8.1,7.2,0,8.2-.3,19.7,0,2.6,1.75,3.4a11.318,11.318,0,0,0,4.65.8Zm34.8,4.1q-5.5,0-8.45-2.85T454-10.2V-44.3h-8.1V-48a17.525,17.525,0,0,0,6.15-3.2,15.985,15.985,0,0,0,4.05-5.9A48.992,48.992,0,0,0,459-67.9h2.2V-48h13.1v3.7H461.1v24.5l.1,9a8.353,8.353,0,0,0,1.9,5.45,5.848,5.848,0,0,0,4.6,2.05,8.653,8.653,0,0,0,3.75-.7,9.209,9.209,0,0,0,2.85-2.3,1.365,1.365,0,0,1,1-.6,1.287,1.287,0,0,1,.95.5,1.507,1.507,0,0,1,.45,1,1.232,1.232,0,0,1-.2.7A12.583,12.583,0,0,1,465.4,1.4Z" transform="translate(155.75 88)" fill="#bba579"/>
    <line id="線_23" data-name="線 23" x2="475.94" transform="translate(156.56 103.01)" fill="none" stroke="#bba579" stroke-miterlimit="10" stroke-width="6"/>
  </g>
</svg>
