<svg xmlns="http://www.w3.org/2000/svg" width="1600" height="91.42" viewBox="0 0 1600 91.42">
  <g id="area04-01" transform="translate(0 -14.5)">
    <line id="線_19" data-name="線 19" x2="1600" transform="translate(0 103.28)" fill="none" stroke="#bba579" stroke-miterlimit="10" stroke-width="2"/>
    <path id="パス_131" data-name="パス 131" d="M38-72.6a30.6,30.6,0,0,1,11.75,2.45,21.9,21.9,0,0,1,8.8,6.65A15.955,15.955,0,0,1,61.9-53.4q0,10.8-7.35,14.95T35.8-33.5q-1.3.1-5.7.1H24.4V-9.1q0,3.5,2,4.9T33-2.8h1.6q.7,0,.7,1.3,0,1.5-.7,1.5H6.2q-.7,0-.7-1.4t.7-1.4H7.8q4.3,0,6.45-1.4T16.4-9.1V-63.5q0-3.4-2.1-4.85T7.8-69.8H6.2q-.7,0-.7-1.4t.7-1.4H38ZM32.2-36.3q11.2-.1,15.8-4.8t4.6-12.7q0-10.2-6.65-13.1A33.147,33.147,0,0,0,32.6-69.8q-8.2,0-8.2,6.3v27.2h7.8ZM138.6-8q.8,0,.8.7l-.1.6a10.957,10.957,0,0,1-4.5,6.1,11.139,11.139,0,0,1-5.7,1.8,6.876,6.876,0,0,1-5-1.95,10.591,10.591,0,0,1-2.8-5.15A24.112,24.112,0,0,1,113-.45a25.5,25.5,0,0,1-9.4,1.85,15.044,15.044,0,0,1-9.35-2.7A8.79,8.79,0,0,1,90.7-8.7a12.326,12.326,0,0,1,1.6-6.4,14.08,14.08,0,0,1,5.2-4.8,30.483,30.483,0,0,1,5.8-2.4q3.5-1.1,9.6-2.7l8.2-2.3v-4.3a36.529,36.529,0,0,0-.5-7.1,9.447,9.447,0,0,0-2-4.1q-2.2-2.7-7.5-2.7a7.854,7.854,0,0,0-5.6,1.8,13.77,13.77,0,0,0-3.2,5.5q-1.7,4.8-4.9,4.8a5.1,5.1,0,0,1-3.25-1.15A3.7,3.7,0,0,1,92.7-37.6a9.826,9.826,0,0,1,1.35-4.45q1.35-2.55,5.5-4.7T111.4-48.9a23.714,23.714,0,0,1,8.55,1.55,12.5,12.5,0,0,1,5.75,3.85,12.629,12.629,0,0,1,2.05,4.35,22.767,22.767,0,0,1,.55,5.35q0,4.7-.1,8.3L128.1-11q0,4.1,1.55,5.5a4.619,4.619,0,0,0,3.05,1.4,5.467,5.467,0,0,0,2.75-.85A6.948,6.948,0,0,0,137.9-7.5.844.844,0,0,1,138.6-8ZM107.2-3.4a17.618,17.618,0,0,0,7.2-1.65,18.263,18.263,0,0,0,6.4-4.75v-.3l.2-13.5q-7.7,1.9-12.35,3.55A20.9,20.9,0,0,0,101.4-16a7.716,7.716,0,0,0-2.6,5.9,6.464,6.464,0,0,0,1.95,4.75Q102.7-3.4,107.2-3.4Zm89.1-45.5a8.349,8.349,0,0,1,5.1,1.55,4.72,4.72,0,0,1,2.1,3.95,3.873,3.873,0,0,1-1.25,2.9,4.366,4.366,0,0,1-3.15,1.2,7.53,7.53,0,0,1-3.8-1.5q-1.5-.8-2.4-1.2a4.871,4.871,0,0,0-2-.4,9.14,9.14,0,0,0-5.2,2,30.036,30.036,0,0,0-5.6,5.4L180-6.8q0,2.5,1.75,3.3a11.618,11.618,0,0,0,4.75.8h1.3q.8,0,.8,1.4,0,1.3-.8,1.3H165.4q-.7,0-.7-1.3,0-1.4.7-1.4h1.3a11.318,11.318,0,0,0,4.65-.8q1.75-.8,1.75-3.3l-.3-30.8a4.369,4.369,0,0,0-.95-3.1,4.1,4.1,0,0,0-2.2-1.25q-1.25-.25-4.35-.65a.867.867,0,0,1-.75-.5,3.62,3.62,0,0,1-.15-1.2.859.859,0,0,1,.5-.9q1.5-.6,15.2-3.8v9.8a40.779,40.779,0,0,1,8.05-6.95A15.075,15.075,0,0,1,196.3-48.9ZM281.9-2.7q.8,0,.8,1.3,0,1.4-.8,1.4H259.6a.779.779,0,0,1-.7-.3,2.132,2.132,0,0,1-.2-1.1q0-1.3.9-1.3h1.2a4.82,4.82,0,0,0,2.9-.8,2.394,2.394,0,0,0,1.1-2,3,3,0,0,0-.5-1.6q-.6-1-4.95-6.7T253.1-22l-2.3-3.1-7.6,7.3V-6.9A3.336,3.336,0,0,0,245-3.55a11.077,11.077,0,0,0,4.7.85H251q.7,0,.7,1.3,0,1.4-.7,1.4H228.6q-.8,0-.8-1.4,0-1.3.8-1.3h1.3a11.318,11.318,0,0,0,4.65-.8q1.75-.8,1.75-3.4L236-62.1q0-3.1-1.95-4.1a12.415,12.415,0,0,0-5.55-1q-.7,0-.85-.45a3.7,3.7,0,0,1-.15-1.15.85.85,0,0,1,.6-.9q1.5-.5,15.2-3.8l-.1,51,19.1-18.2a2.929,2.929,0,0,0,.7-1.8,2.394,2.394,0,0,0-1.1-2,5.812,5.812,0,0,0-3.4-.8h-1.3q-.8,0-.8-1.3,0-1.4.8-1.4h22.3q.9,0,.9,1.4,0,1.3-.9,1.3h-1.2a13.677,13.677,0,0,0-4.9,1,14.451,14.451,0,0,0-4.5,2.7q-5.2,4.5-13.4,12.2L273.1-7q3.4,4.3,7.6,4.3Z" transform="translate(167.68 88)" fill="#bba579"/>
    <line id="線_20" data-name="線 20" x2="289.31" transform="translate(161.19 103.42)" fill="none" stroke="#bba579" stroke-miterlimit="10" stroke-width="5"/>
  </g>
</svg>
