<svg id="area04-01-sp" xmlns="http://www.w3.org/2000/svg" width="750.5" height="67.999" viewBox="0 0 750.5 67.999">
  <line id="線_22" data-name="線 22" x2="750.5" transform="translate(0 65.197)" fill="none" stroke="#bba579" stroke-miterlimit="10" stroke-width="2"/>
  <path id="パス_129" data-name="パス 129" d="M29.34-72.866a22.45,22.45,0,0,1,8.619,1.8,16.064,16.064,0,0,1,6.455,4.878,11.7,11.7,0,0,1,2.457,7.409q0,7.922-5.392,10.966T27.726-44.185q-.954.073-4.181.073H19.364v17.825a4.083,4.083,0,0,0,1.467,3.594,8.687,8.687,0,0,0,4.841,1.027h1.174q.513,0,.513.954,0,1.1-.513,1.1H6.013q-.513,0-.513-1.027t.513-1.027H7.187a8.769,8.769,0,0,0,4.731-1.027A3.96,3.96,0,0,0,13.5-26.286v-39.9a4.012,4.012,0,0,0-1.54-3.558,8.5,8.5,0,0,0-4.768-1.064H6.013q-.513,0-.513-1.027t.513-1.027H29.34ZM25.086-46.239q8.216-.073,11.59-3.521t3.374-9.316q0-7.482-4.878-9.609a24.315,24.315,0,0,0-9.793-2.127q-6.015,0-6.015,4.621v19.952h5.722Zm35.5,26.554q-.587,0-.587-1.027,0-.954.587-.954h.954a8.3,8.3,0,0,0,3.411-.587,2.452,2.452,0,0,0,1.284-2.494l-.22-40.492q0-2.274-1.43-3.008a9.107,9.107,0,0,0-4.071-.734q-.513,0-.624-.33a2.715,2.715,0,0,1-.11-.844.623.623,0,0,1,.44-.66q1.1-.367,11.15-2.787L71.3-24.746a2.447,2.447,0,0,0,1.32,2.457,8.126,8.126,0,0,0,3.448.624h.954q.513,0,.513.954,0,1.027-.513,1.027Zm62.5-9.243a.663.663,0,0,1,.367.587,1.73,1.73,0,0,1-.22.734,15.746,15.746,0,0,1-5.1,6.308,14.512,14.512,0,0,1-9.059,2.714,18.844,18.844,0,0,1-8.986-2.164,15.972,15.972,0,0,1-6.419-6.2,18.332,18.332,0,0,1-2.347-9.389,22.653,22.653,0,0,1,1.907-9.1,17.859,17.859,0,0,1,5.685-7.262,14.689,14.689,0,0,1,9.133-2.861,13.923,13.923,0,0,1,10.49,4.181q4.035,4.181,4.841,11.443l-25.894.147q-.147,1.761-.147,2.714a17.582,17.582,0,0,0,1.8,8.4,11.717,11.717,0,0,0,4.695,4.915,13.057,13.057,0,0,0,6.345,1.577q7.042,0,11.59-6.6a.815.815,0,0,1,.66-.44A1.413,1.413,0,0,1,123.087-28.927ZM107.61-52.914a8.22,8.22,0,0,0-6.125,2.714,15.211,15.211,0,0,0-3.631,7.556l18.485-.147v-.734q-.22-4.841-2.677-7.115A8.577,8.577,0,0,0,107.61-52.914Zm66.019,27.435q.587,0,.587.513l-.073.44a8.037,8.037,0,0,1-3.3,4.475,8.171,8.171,0,0,1-4.181,1.32,5.044,5.044,0,0,1-3.668-1.43,7.769,7.769,0,0,1-2.054-3.778,17.687,17.687,0,0,1-6.088,4,18.706,18.706,0,0,1-6.9,1.357,11.035,11.035,0,0,1-6.859-1.981,6.448,6.448,0,0,1-2.6-5.428,9.041,9.041,0,0,1,1.174-4.695,10.328,10.328,0,0,1,3.814-3.521,22.36,22.36,0,0,1,4.255-1.761q2.567-.807,7.042-1.981l6.015-1.687v-3.154A26.8,26.8,0,0,0,160.425-48a6.93,6.93,0,0,0-1.467-3.008q-1.614-1.981-5.5-1.981a5.761,5.761,0,0,0-4.108,1.32A10.1,10.1,0,0,0,147-47.632q-1.247,3.521-3.594,3.521a3.74,3.74,0,0,1-2.384-.844,2.713,2.713,0,0,1-1.064-2.237,7.208,7.208,0,0,1,.99-3.264,9.092,9.092,0,0,1,4.034-3.448q3.044-1.577,8.693-1.577a17.4,17.4,0,0,1,6.272,1.137,9.166,9.166,0,0,1,4.218,2.824,9.264,9.264,0,0,1,1.5,3.191,16.7,16.7,0,0,1,.4,3.924q0,3.448-.073,6.088l-.073,10.636q0,3.008,1.137,4.034a3.388,3.388,0,0,0,2.237,1.027,4.01,4.01,0,0,0,2.017-.624,5.1,5.1,0,0,0,1.8-1.871A.619.619,0,0,1,173.629-25.479ZM150.6-22.105a12.924,12.924,0,0,0,5.282-1.21,13.4,13.4,0,0,0,4.695-3.484v-.22l.147-9.9q-5.648,1.394-9.059,2.6a15.33,15.33,0,0,0-5.318,2.971,5.66,5.66,0,0,0-1.907,4.328,4.742,4.742,0,0,0,1.43,3.484Q147.294-22.105,150.6-22.105Zm35.8-7.189-.073-.367q0-.44.587-.734a.817.817,0,0,1,.367-.073,1.046,1.046,0,0,1,.88.587q1.761,2.274,3.448,4.071a17.189,17.189,0,0,0,4.8,3.374,15.631,15.631,0,0,0,7.152,1.577,7.781,7.781,0,0,0,5.392-1.871,6.074,6.074,0,0,0,2.091-4.731,5.337,5.337,0,0,0-.954-3.081,6.445,6.445,0,0,0-2.714-2.2,57.8,57.8,0,0,0-7.409-2.494,29.735,29.735,0,0,1-4.621-1.394q-7.262-3.008-7.262-9.1a11.228,11.228,0,0,1,.844-3.851,9.406,9.406,0,0,1,3.228-4.071,10.8,10.8,0,0,1,6.712-1.834,13.443,13.443,0,0,1,4.071.55q1.724.55,2.017.624a7.087,7.087,0,0,0,1.834.513,4.838,4.838,0,0,0,2.274-.624,4.268,4.268,0,0,0,1.761-1.65l3.008,9.609.147.513q0,.367-.587.734a1.022,1.022,0,0,1-.44.073,1.122,1.122,0,0,1-.807-.367,36.049,36.049,0,0,0-5.8-5.318,12.8,12.8,0,0,0-7.776-2.311,7.621,7.621,0,0,0-4,.954,5.957,5.957,0,0,0-2.274,2.274,5.366,5.366,0,0,0-.7,2.494,3.881,3.881,0,0,0,1.064,2.751,12.011,12.011,0,0,0,3.484,2.311A36.216,36.216,0,0,0,202.09-40.3q4.768,1.467,6.969,2.421,6.455,2.934,6.455,8.876a9.361,9.361,0,0,1-3.448,7.519q-3.448,2.9-9.389,2.9a26.836,26.836,0,0,1-7.922-1.54,12.358,12.358,0,0,0-2.127-.513,2.921,2.921,0,0,0-1.65.513,10.53,10.53,0,0,0-1.871,1.761Zm78.856,3.814q.587,0,.587.513l-.073.44a8.037,8.037,0,0,1-3.3,4.475,8.171,8.171,0,0,1-4.181,1.32,5.044,5.044,0,0,1-3.668-1.43,7.769,7.769,0,0,1-2.054-3.778,17.687,17.687,0,0,1-6.088,4,18.7,18.7,0,0,1-6.9,1.357,11.035,11.035,0,0,1-6.859-1.981,6.448,6.448,0,0,1-2.6-5.428,9.042,9.042,0,0,1,1.174-4.695,10.328,10.328,0,0,1,3.814-3.521,22.36,22.36,0,0,1,4.255-1.761q2.567-.807,7.042-1.981l6.015-1.687v-3.154A26.8,26.8,0,0,0,252.045-48a6.93,6.93,0,0,0-1.467-3.008q-1.614-1.981-5.5-1.981a5.761,5.761,0,0,0-4.108,1.32,10.1,10.1,0,0,0-2.347,4.034q-1.247,3.521-3.594,3.521a3.74,3.74,0,0,1-2.384-.844,2.713,2.713,0,0,1-1.064-2.237,7.208,7.208,0,0,1,.99-3.264A9.092,9.092,0,0,1,236.6-53.9q3.044-1.577,8.693-1.577a17.4,17.4,0,0,1,6.272,1.137,9.166,9.166,0,0,1,4.218,2.824,9.263,9.263,0,0,1,1.5,3.191,16.7,16.7,0,0,1,.4,3.924q0,3.448-.073,6.088l-.073,10.636q0,3.008,1.137,4.034a3.388,3.388,0,0,0,2.237,1.027,4.01,4.01,0,0,0,2.017-.624,5.1,5.1,0,0,0,1.8-1.871A.619.619,0,0,1,265.248-25.479Zm-23.033,3.374a12.924,12.924,0,0,0,5.282-1.21,13.4,13.4,0,0,0,4.695-3.484v-.22l.147-9.9q-5.648,1.394-9.059,2.6a15.329,15.329,0,0,0-5.318,2.971,5.66,5.66,0,0,0-1.907,4.328,4.742,4.742,0,0,0,1.43,3.484Q238.914-22.105,242.215-22.105Zm75.115.513q.587,0,.587,1.027,0,.954-.587.954H300.9q-.513,0-.513-.954,0-1.027.513-1.027h1.027a8.038,8.038,0,0,0,3.374-.587,2.469,2.469,0,0,0,1.247-2.494l-.073-13.644-.073-4.695a11.158,11.158,0,0,0-1.724-6.419q-1.724-2.531-5.832-2.531a11.219,11.219,0,0,0-5.8,1.65,13.19,13.19,0,0,0-4.695,5.025l-.073,20.613a2.447,2.447,0,0,0,1.32,2.457,8.126,8.126,0,0,0,3.448.624H294q.513,0,.513,1.027,0,.954-.513.954H277.572q-.587,0-.587-.954,0-1.027.587-1.027h.954a8.125,8.125,0,0,0,3.448-.624,2.447,2.447,0,0,0,1.32-2.457l-.22-22.446a3.2,3.2,0,0,0-.7-2.274,3.249,3.249,0,0,0-1.687-.954q-.99-.22-3.191-.513a.658.658,0,0,1-.55-.33,2.323,2.323,0,0,1-.11-.844.63.63,0,0,1,.367-.66q1.1-.44,11.15-2.787v6.529q4.841-6.529,11.517-6.529,5.8,0,8.766,3.191a12,12,0,0,1,3.191,7.886q.073,1.32.073,5.282,0,6.015-.22,14.451a2.452,2.452,0,0,0,1.284,2.494,8.3,8.3,0,0,0,3.411.587Zm25.527,3.008a8.565,8.565,0,0,1-6.2-2.091q-2.164-2.091-2.164-6.419V-52.107h-5.942v-2.714a12.855,12.855,0,0,0,4.511-2.347,11.726,11.726,0,0,0,2.971-4.328,35.939,35.939,0,0,0,2.127-7.922h1.614v14.6h9.609v2.714H339.7v17.972l.073,6.6a6.128,6.128,0,0,0,1.394,4,4.29,4.29,0,0,0,3.374,1.5,6.348,6.348,0,0,0,2.751-.513,6.755,6.755,0,0,0,2.091-1.687,1,1,0,0,1,.734-.44.944.944,0,0,1,.7.367,1.105,1.105,0,0,1,.33.734.9.9,0,0,1-.147.513A9.23,9.23,0,0,1,342.858-18.584Z" transform="translate(17.94 73.6)" fill="#bba579"/>
  <line id="線_23" data-name="線 23" x2="349.124" transform="translate(20 64.999)" fill="none" stroke="#bba579" stroke-miterlimit="10" stroke-width="6"/>
</svg>
