<?xml version="1.0" encoding="UTF-8"?>
<svg id="_レイヤー_2" data-name="レイヤー 2" xmlns="http://www.w3.org/2000/svg" viewBox="0 0 429.33 168.27">
  <defs>
    <style>
      .cls-1 {
        fill: #af9f4b;
      }

      .cls-1, .cls-2 {
        stroke-width: 0px;
      }

      .cls-2 {
        fill: #040000;
      }

      .cls-3 {
        fill: none;
        stroke: #af9f4b;
        stroke-miterlimit: 10;
        stroke-width: .5px;
      }
    </style>
  </defs>
  <g id="_レイヤー_1-2" data-name="レイヤー 1">
    <g>
      <path class="cls-1" d="m26.01,7.38c0,3.67-2.99,6.66-6.66,6.66s-6.66-2.97-6.66-6.66S15.71.72,19.35.72s6.66,2.96,6.66,6.66Z"/>
      <path class="cls-2" d="m40.8,9.91c-.1,0-.18-.03-.81-.39-.52-.29-2.08-.86-3.49-.86-1.56,0-2.91.63-2.91,1.88,0,1.66,2.19,1.88,3.9,1.88,1.06,0,1.2,0,1.43.08.21.08.52.27.52.62,0,.43-.54.48-.81.48-.99,0-2.11-.1-3.07-.34-.77-.2-2.41-.78-2.41-2.43,0-.88.56-1.73,1.31-2.12.69-.38,1.45-.55,2.82-.55s1.99.17,2.53.29c.08.01.1.03.17.03s.1-.01.1-.09c0-.31-1.74-2.46-2.8-3.43-1.1.41-2.31.75-3.4.75-.56,0-1.66-.3-1.89-1.38.5.3.98.54,1.71.54,1.17,0,2.16-.33,2.82-.56-.93-.73-1.25-.94-1.57-1.17-.57-.38-.57-.7-.57-.85,0-.46.42-1.04.87-1.04.24,0,.73.21,1.21.53-.1.01-.61.04-.69.07-.06.03-.21.11-.21.33,0,.35.75,1.04,1.66,1.88.51-.19,1.83-.73,1.83-1.09,0-.18-.18-.29-.51-.5l.02-.06c.23.04.54.1.78.1.14,0,.69-.17.81-.17.18,0,.56.11.56.5,0,.18-.09.33-.23.46-.47.42-1.12.87-2.54,1.41,1.34,1.26,2.21,2.19,2.84,2.92.41.45.71.83.71,1.2,0,.5-.36,1.09-.66,1.09Z"/>
      <path class="cls-2" d="m51.11,12.81c-1.68,0-1.83-1.26-2.02-2.76-.11-.9-.23-1.88-1.14-1.88-1.88,0-3.05,2.72-3.46,3.69-.48,1.09-.52,1.21-.88,1.21-.41,0-.51-.63-.51-.97,0-.2,0-.39.51-1.08.94-1.3,4.39-7.63,4.39-8.33,0-.34-.22-.5-.82-.88.13-.06.3-.15.58-.15.78,0,1.6.73,1.6,1.35,0,.29-.04.34-.52.93-.35.44-2.55,3.57-3.09,4.81.96-.73,1.64-1.11,2.52-1.11,1.46,0,1.6,1.02,1.79,2.12.24,1.44.54,1.92,1.24,1.92,1.83,0,3.23-2.66,3.73-3.71l.15.03c-.26,1-1.25,4.8-4.06,4.8Z"/>
      <path class="cls-2" d="m64.77,9.91c-.1,0-.18-.03-.81-.39-.52-.29-2.08-.86-3.49-.86-1.56,0-2.91.63-2.91,1.88,0,1.66,2.19,1.88,3.9,1.88,1.06,0,1.2,0,1.43.08.21.08.52.27.52.62,0,.43-.54.48-.81.48-.99,0-2.11-.1-3.07-.34-.77-.2-2.41-.78-2.41-2.43,0-.88.56-1.73,1.31-2.12.69-.38,1.45-.55,2.82-.55s1.99.17,2.53.29c.08.01.11.03.16.03s.11-.01.11-.09c0-.31-1.74-2.46-2.8-3.43-1.1.41-2.31.75-3.4.75-.56,0-1.66-.3-1.89-1.38.5.3.98.54,1.71.54,1.17,0,2.16-.33,2.82-.56-.93-.73-1.25-.94-1.57-1.17-.57-.38-.57-.7-.57-.85,0-.46.42-1.04.87-1.04.24,0,.73.21,1.21.53-.11.01-.61.04-.69.07-.06.03-.21.11-.21.33,0,.35.75,1.04,1.66,1.88.51-.19,1.83-.73,1.83-1.09,0-.18-.18-.29-.51-.5l.02-.06c.23.04.54.1.78.1.14,0,.69-.17.81-.17.18,0,.56.11.56.5,0,.18-.09.33-.23.46-.47.42-1.12.87-2.54,1.41,1.33,1.26,2.21,2.19,2.83,2.92.41.45.71.83.71,1.2,0,.5-.36,1.09-.66,1.09Z"/>
      <path class="cls-2" d="m75.08,12.81c-1.68,0-1.83-1.26-2.02-2.76-.1-.9-.23-1.88-1.14-1.88-1.88,0-3.04,2.72-3.46,3.69-.48,1.09-.52,1.21-.88,1.21-.41,0-.51-.63-.51-.97,0-.2,0-.39.51-1.08.94-1.3,4.39-7.63,4.39-8.33,0-.34-.22-.5-.82-.88.13-.06.3-.15.59-.15.78,0,1.6.73,1.6,1.35,0,.29-.04.34-.52.93-.35.44-2.55,3.57-3.09,4.81.96-.73,1.64-1.11,2.52-1.11,1.46,0,1.61,1.02,1.79,2.12.24,1.44.54,1.92,1.24,1.92,1.83,0,3.23-2.66,3.73-3.71l.15.03c-.26,1-1.25,4.8-4.06,4.8Z"/>
      <path class="cls-2" d="m85.89,8.67h-1.99l-.02.51c.39.1,1.86.54,1.86,1.44,0,.32-.27.53-.52.53-.36,0-.61-.47-.77-.79-.33-.72-.36-.81-.57-.98-.02,1.16.02,3.01.02,4.17,0,.2,0,.7-.69.7-.42,0-.42-.24-.42-.38,0-.58.13-3.17.15-3.7-.81,1.02-2.27,2.19-3.24,2.61l-.05-.08c1.44-1.26,2.72-2.98,3.23-4.04h-1.11c-.38,0-1.1.02-1.77.14l-.3-.58c1.03.07,2.1.09,2.31.09h.95c0-1.41-.15-1.86-.24-2.16l1.27.34c.25.08.35.12.35.23,0,.18-.15.27-.42.45,0,.54-.02.83-.02,1.14h.63l.4-.45c.12-.12.16-.2.24-.2s.13.06.27.16l.52.45c.08.08.15.13.15.24,0,.13-.12.15-.23.15Zm5.34-2.28c-1.72-.54-4.08-2.55-4.48-3.78h-.01c0,.45.01.88.03,1.46.03.66.09,1.7.09,2.35,0,.6-.43.75-.78.75-.39,0-.4-.27-.4-.45,0-.38.09-2.15.1-2.55.01-.47.01-.74.01-.93-1.12,1.29-3.27,2.76-5.25,3.2v-.09c1.05-.51,3-2.03,4.48-3.74h-2.17c-.1,0-1.06,0-1.76.13l-.3-.6c1.17.11,2.28.11,2.29.11h2.67c-.04-.75-.08-1.12-.3-1.85l1.41.38c.25.08.31.15.31.27s-.04.15-.42.42c-.02.22-.03.36-.03.78h3.42l.54-.74c.09-.12.15-.2.23-.2.09,0,.15.06.27.17l.81.74c.08.08.15.13.15.22,0,.17-.15.17-.24.17h-4.95c1.2,1.25,3.29,2.47,5.7,2.47v.08c-.85.41-1.19.84-1.43,1.23Zm1.12,6.49c-1.45-.87-2.56-2.86-2.86-3.91.02.69.12,4.23.12,4.47,0,.34-.12.78-.71.78-.25,0-.44-.15-.44-.39,0-.09.05-.53.05-.62.06-1.68.09-3.17.09-3.45-1.04,1.38-2.79,2.61-3.96,3.03l-.04-.09c1.48-1.09,2.91-2.83,3.58-3.96-.81.03-1.09.08-1.38.13l-.3-.6c.34.03.93.09,2.1.11-.02-.93-.05-1.34-.36-2.33l1.31.33c.19.04.36.09.36.25,0,.08-.06.15-.11.18-.1.08-.29.21-.3.23-.02.28-.03.57-.03,1.34h2.01l.49-.68c.11-.15.16-.19.24-.19s.17.06.27.16l.66.67c.11.12.15.15.15.22,0,.15-.12.17-.23.17h-3.44c.57,1.17,1.89,2.59,4.05,3.13v.06c-.36.17-1.02.43-1.34.94Z"/>
      <path class="cls-2" d="m100.74,12.75l-.02-.12c3.21-1.14,4.71-3.25,4.71-5.53,0-2.54-2.04-4.04-4.65-4.04-.38,0-.45.01-.61.09.81.44,1.03.99,1.03,1.2,0,.17-.04.27-.51,1.25-.96,2.05-2.37,5.07-3.39,5.91-.1.08-.28.17-.48.17-.34,0-.48-.19-.93-.83-.1-.15-.71-.7-.81-.84-.17-.24-.42-.78-.42-1.53,0-3.23,2.73-5.88,6.39-5.88,2.91,0,5.55,1.69,5.55,4.71s-2.43,5.14-5.86,5.44Zm-1.19-9.51c-1.65.27-3.94,2.4-3.94,5.16,0,1.02.58,2.14,1.17,2.14.4,0,.99-1.06,1.25-1.57,1.5-3.02,1.99-3.99,1.99-4.77,0-.38-.18-.69-.46-.96Z"/>
      <path class="cls-2" d="m111.21,4.24c.08.05.18.12.18.2,0,.2-.15.29-.36.43,0,2.7,0,5.4.01,8.08,0,.54,0,1.17-.78,1.17-.39,0-.46-.2-.46-.41,0-.22.13-1.89.15-2.25.09-1.98.09-3.6.1-6.45-.21.33-1.44,2.16-2.37,2.8l-.09-.08c1.55-2.01,3.15-6.28,3.15-7.06,0-.09-.02-.2-.03-.3l1.41.76c.1.06.21.15.21.29,0,.2-.18.25-.57.39-.19.48-.4,1.02-1.05,2.12l.49.3Zm2.29,3.98c-.25,0-1.02,0-1.75.13l-.3-.6c.77.06,1.53.11,2.31.11h2.05c-.02-.78-.03-1.83-.19-2.31l1.4.3c.07.01.19.06.19.18,0,.13-.11.21-.41.46,0,.41-.01.77-.01,1.37h2.62l.6-.69c.15-.18.16-.19.24-.19.06,0,.07.01.28.17l.95.69c.06.03.15.12.15.23,0,.13-.12.17-.23.17h-4.41c.66,1.41,2.65,3.19,4.86,3.76v.09c-.54.21-1,.59-1.34,1.06-2.29-1.56-3.36-3.99-3.72-4.92h-.01c0,.91.04,2.34.06,2.76.01.38.11,2.07.11,2.42,0,.25,0,.78-.79.78-.35,0-.47-.18-.47-.5,0-.01.1-2.35.1-2.62.02-.79.03-1.35.03-2.05-1.62,2.52-3.65,3.57-4.63,4.05l-.02-.1c1.57-1.3,2.82-2.75,3.99-4.72h-1.66Zm4.98-6.84l.31-.35c.06-.06.1-.13.23-.13.09,0,.21.08.28.13l.6.45c.09.08.2.18.2.27,0,.15-.14.27-.51.45-.02,1.01.02,1.68.02,1.86.02.21.07,1.23.07,1.33,0,.39-.18.69-.73.69-.38,0-.36-.35-.34-.69h-4.23c0,.45-.21.83-.69.83-.33,0-.42-.24-.42-.48,0-.12.1-2.5.1-2.98,0-1.42-.08-1.75-.14-2.12l1.27.74h3.98Zm-4.14.36v3.3h4.26V1.74h-4.26Z"/>
      <path class="cls-2" d="m133.65,2.58l.65-.81c.09-.1.15-.21.25-.21.09,0,.21.11.29.17l.84.81c.07.06.17.15.17.24,0,.13-.12.17-.23.17h-6.6c-.6.57-1.34,1.23-2.13,1.86,1.81-.09,3.42-.16,5.47-.36-.64-.54-.99-.67-1.34-.81l.06-.12c2.23.34,4.09,1.23,4.09,2.2,0,.4-.31.66-.61.66s-.45-.15-.92-.67c-.57-.66-.85-.9-1.02-1.04-.31.06-3.63.74-8.52,1.32-.1.21-.2.39-.36.39-.13,0-.21-.13-.25-.27l-.54-1.46c.83.21,1.29.22,1.74.22.09,0,.55,0,1.77-.06.42-.74.67-1.29.93-1.88h-2.74c-.26,0-1.04,0-1.76.13l-.3-.6c1.02.08,2.09.1,2.3.1h3.78c0-.58,0-1.39-.33-2.14l1.56.36c.14.03.27.07.27.22,0,.09-.29.36-.42.5v1.06h3.9Zm-1.62,3.75c.12-.13.2-.19.29-.19.07,0,.15.04.21.09l.6.42c.07.06.18.18.18.25,0,.06-.07.15-.13.21-.12.1-.15.13-.25.24,0,.82.1,4.62.1,5.28,0,1.37-1.59,1.63-1.8,1.67-.03-.27-.12-.88-1.27-1.39v-.12c.63.04,1.27.06,1.33.06.56,0,.63,0,.63-.27v-1.59h-5.26c.02.4.08,2.25.08,2.53,0,.5-.33.78-.78.78-.42,0-.42-.27-.42-.48,0-.24.08-1.31.08-1.53.03-1.23.05-2.94.05-4.14,0-1.09-.05-1.31-.19-2.08l1.4.64h4.87l.31-.38Zm-.12.74h-5.26v1.54h5.26v-1.54Zm0,1.91h-5.26v1.65h5.26v-1.65Z"/>
      <path class="cls-2" d="m148.38,1.54l.44-.36c.09-.08.18-.13.27-.13.06,0,.16.06.21.1l.65.56c.07.06.16.15.16.24,0,.18-.16.29-.5.51-.02.82-.03,2.55,0,5.25,0,.87.06,4.71.06,5.49,0,.5-.35.81-.74.81-.46,0-.43-.34-.4-.87h-9.31c.01.18,0,.42-.02.5-.04.33-.48.51-.75.51-.31,0-.39-.21-.39-.47,0-.19.08-1.09.08-1.27.04-1,.06-1.74.06-7.14,0-2.75-.03-3.5-.15-4.34l1.29.62h9.04Zm-9.16.36v10.88h9.31V1.9h-9.31Zm7.75,7.29s.09.1.09.18c0,.2-.17.23-.29.23-.06,0-.15,0-.27-.02-.48.2-.63.24-1.14.41.63.22,1.97.72,1.97,1.5,0,.27-.2.5-.47.5-.18,0-.25-.04-.84-.69-.51-.55-1.17-1.09-1.81-1.46,0,.29.04,1.68.04,1.83,0,.45-.42.67-.69.67-.24,0-.33-.21-.33-.45,0-.45.06-2.42.06-2.82-.48.57-1.83,1.84-3.76,2.46l-.06-.09c1.3-.87,2.58-1.98,3.42-3.16h-.89c0,.41-.33.57-.6.57-.39,0-.39-.27-.39-.44,0-.08.06-1.3.06-1.55,0-.46-.02-.78-.11-1.18l1.12.45h3.4l.27-.25c.07-.08.15-.15.21-.15s.15.06.21.12l.52.46c.08.06.12.13.12.21,0,.06-.09.15-.35.38,0,.2.03,1.05.03,1.21,0,.32-.12.41-.24.5l.69.58Zm-1.44-5.68l.31-.45c.08-.12.15-.18.23-.18.06,0,.15.04.29.15l.52.45c.08.06.16.13.16.22,0,.14-.14.17-.24.17h-2.58v1.11h2.07l.44-.51c.09-.11.15-.18.24-.18s.18.06.29.15l.6.51c.09.08.15.13.15.23,0,.15-.14.17-.23.17h-6.21c-.15,0-1.08,0-1.77.13l-.3-.6c.77.08,1.54.11,2.31.11h1.47v-1.11h-1.02c-.26,0-1.05,0-1.77.14l-.3-.6c.93.08,2.02.11,2.31.11h.78c-.03-.54-.18-1.04-.27-1.34l1.39.36c.09.03.2.06.2.18,0,.17-.15.25-.38.39v.41h1.3Zm.02,4.41v-1.42h-3.54v1.42h3.54Zm-1.33.36c-.02.64-.02,1.05-.02,1.41.21.03.41.06.85.19.3-.25.85-.87,1.07-1.21-.34.09-.57-.07-.57-.39h-1.33Z"/>
      <path class="cls-2" d="m164.88,2.53h-6.19v2.46c1.48.25,3.76,1.1,3.76,2.55,0,.51-.36.7-.63.7-.39,0-.51-.19-1.05-1.06-.52-.84-1.43-1.65-2.08-2.01.02,3.4.02,3.78.09,7.23,0,.1.02.6.02.71,0,.58-.39.78-.81.78-.51,0-.51-.33-.51-.49,0-.44.11-2.57.12-3.04.03-1.19.03-1.85.03-7.82h-3.65c-.39,0-1.09.02-1.75.14l-.3-.6c.76.06,1.53.11,2.31.11h8.34l.84-.81c.1-.09.2-.17.24-.17.09,0,.18.06.28.15l1.04.79c.06.04.15.13.15.22,0,.15-.15.17-.24.17Z"/>
      <path class="cls-2" d="m179.37,13.57c-.46.21-1.14.22-2.53.22-1.21,0-2.13-.03-2.13-1.38,0-1.25.34-6.73.39-7.86h-2.43c-.17,1.46-.29,2.38-.59,3.46.36.21,1.83,1.11,1.83,1.98,0,.08,0,.58-.6.58-.25,0-.36-.12-.46-.24-.64-.75-.81-.92-1.1-1.22-.86,2.36-2.38,3.62-3.36,4.23-.92.58-1.62.79-2.05.94l-.05-.09c2.97-1.72,4.14-4.11,4.65-5.85-1.12-.99-1.89-1.32-2.23-1.48v-.09c.78.12,1.47.32,2.44.75.29-1.21.38-2.31.41-2.98h-2.56c-.27,0-1.04,0-1.77.13l-.29-.58c.93.08,1.86.09,2.29.09h2.36c.02-.69.08-2.44-.27-3.76l1.85.54s.15.09.15.21-.09.2-.46.5c-.03,1.41-.12,2.29-.14,2.52h2.27l.57-.5c.06-.04.17-.15.24-.15.09,0,.18.06.24.1l.73.63s.12.09.12.16c0,.15-.19.25-.67.53-.15.99-.33,4.84-.38,6.12-.02.4-.03.78-.03.84,0,.79.23.79,1.6.79.67,0,1.02,0,1.19-.53.13-.42.4-1.69.51-2.22h.09c.06.34.28,1.86.38,2.16.06.17.09.19.3.39.06.04.13.16.13.33,0,.22-.16.51-.63.71Z"/>
      <path class="cls-2" d="m194.3,7.45h-6.04v4.89c0,.57,0,1.67-1.92,1.86-.04-.45-.15-.97-1.75-1.71l.02-.11c.66.09,1.17.15,1.63.15.71,0,.92-.06.92-.63v-4.46h-4.14c-.27,0-1.05,0-1.77.13l-.3-.6c.93.08,1.86.11,2.31.11h3.9v-1.52c0-1.11-.11-1.36-.25-1.77l1.39.39c1.1-1.6,1.31-1.89,1.5-2.29h-5.13c-.27,0-1.03,0-1.77.14l-.29-.6c.93.08,1.84.11,2.3.11h4.98l.59-.51c.15-.12.18-.15.28-.15.06,0,.12.04.25.15l1.05.86c.12.1.15.2.15.25,0,.22-.18.29-1.11.32-1.54,1.18-1.71,1.32-2.5,1.83.1.03.18.12.18.2,0,.2-.24.33-.51.5v2.12h3.79l.78-.86c.14-.13.17-.2.23-.2.08,0,.15.06.29.16l1.03.86c.08.06.15.13.15.24,0,.13-.12.15-.22.15Z"/>
      <path class="cls-2" d="m197.72,14.14V.61h3.78v.65h-3.15v12.24h3.15v.65h-3.78Z"/>
      <path class="cls-2" d="m210.17,5.49h-2.96c0,.13,0,.9.02,1.54,1.11.3,2.44,1.2,2.44,2.03,0,.31-.21.69-.58.69-.4,0-.57-.34-.84-.96-.45-.99-.83-1.3-1.02-1.47,0,.96.06,5.17.06,6.03,0,.69-.39.86-.69.86-.46,0-.46-.39-.46-.55,0-.74.13-3.96.15-4.62.01-.57.01-.93.01-1.26-.7,1.27-1.95,3-3.49,4.12l-.09-.09c1.69-2.02,3.13-5.19,3.51-6.31h-1.06c-.38,0-1.1,0-1.77.13l-.3-.6c1.03.09,2.1.11,2.31.11h.89v-2.49c-1.35.24-2.37.22-2.89.22v-.13c1.63-.32,4.44-1.21,5.22-2.05l1,1.05c.06.06.09.13.09.2,0,.12-.06.15-.23.15-.04,0-.41-.08-.48-.09-.33.09-.77.22-1.79.46v2.69h1.21l.53-.68c.09-.12.15-.18.22-.18s.18.06.29.15l.78.67c.1.09.15.13.15.22,0,.13-.12.17-.23.17Zm5.4,7.98c-.5,0-.65-.52-.72-.85-.09-.41-.23-1.02-.27-1.2-1.51.55-4.24,1.16-5.26,1.38-.04.04-.15.29-.19.33-.03.03-.09.08-.18.08s-.18-.04-.29-.29l-.57-1.34c.25.03.48.08.91.08.18,0,.3,0,.76-.03,1.06-3.42,2.36-8.76,2.22-10.45l1.69.66c.08.03.21.11.21.24,0,.15-.06.18-.66.46-.85,3.3-1.42,5.17-3.03,9.08,1.33-.09,3-.21,4.31-.45-.27-.83-.91-2.04-1.71-3.06l.06-.08c1.84,1.08,3.4,3.31,3.4,4.6,0,.74-.51.84-.69.84Z"/>
      <path class="cls-2" d="m228.47,12.78l.78-.84c.08-.08.15-.2.24-.2.11,0,.18.08.28.17l1.04.84c.08.06.15.13.15.22,0,.14-.12.17-.23.17h-11.14c-.13,0-1.07,0-1.77.14l-.29-.6c.99.09,2.01.11,2.29.11h4.51c.35-.84,2.14-6.22,2.06-8.14l1.68.82c.06.03.14.12.14.21,0,.16-.06.18-.6.41-.21.53-1.15,2.96-1.31,3.32-.34.85-.91,2.2-1.63,3.39h3.8Zm-.87-9.18l.63-.84c.11-.13.17-.2.23-.2.09,0,.18.09.29.17l1.05.86c.09.07.14.13.14.21,0,.13-.1.17-.23.17h-9.18c-.13,0-1.06,0-1.77.13l-.28-.58c1.03.08,2.16.09,2.29.09h2.91c0-1.82-.18-2.29-.39-2.88l1.8.45c.08.01.18.04.18.15,0,.15-.34.42-.54.59-.03.27-.03,1.46-.03,1.7h2.91Zm-7.17,1.39c1.69,1.63,2.56,4.07,2.56,5.61,0,.6-.35.96-.72.96-.6,0-.64-.69-.67-1.07-.1-1.59-.24-3.27-1.23-5.46l.06-.05Z"/>
      <path class="cls-2" d="m232.23,14.14v-.65h3.15V1.26h-3.15v-.65h3.78v13.53h-3.78Z"/>
      <path class="cls-1" d="m26.01,37.38c0,3.67-2.99,6.66-6.66,6.66s-6.66-2.97-6.66-6.66,3.02-6.66,6.66-6.66,6.66,2.96,6.66,6.66Z"/>
      <path class="cls-2" d="m41.22,35.55c-.25.19-.25.27-.35.84-.38,2.28-.79,4.75-1.9,5.91-.39.42-.72.54-.88.54-.23,0-.29-.22-.33-.43-.12-.62-.16-.81-1.23-1.91l.05-.08c.77.36,1.53.74,1.75.74.15,0,.25-.06.35-.21,1.03-1.8,1.3-4.56,1.23-5.77-.54.04-.77.09-2.75.36-.66,2.28-1.73,5.82-5.41,7.32l-.05-.09c1.74-1.45,3.34-3.33,4.44-7.09-1.14.16-1.89.27-2.32.5-.41.21-.45.23-.59.23-.31,0-1.17-.67-1.17-1.52,0-.17.04-.25.11-.42.23.38.87.77,1.41.77.17,0,1.05-.08,1.58-.14l1.19-.13c.33-1.32.33-1.93.33-2.07,0-.65-.28-.78-.86-1.04.2-.11.44-.24.83-.24.45,0,1.56.48,1.56.88,0,.12-.09.23-.27.45-.08.09-.12.18-.23.57-.06.21-.3,1.15-.35,1.33.29-.03,1.98-.21,2.09-.25.12-.06.59-.5.71-.5.23,0,1.37.8,1.37,1.09,0,.13-.06.18-.29.36Z"/>
      <path class="cls-2" d="m51.56,34.03c-.19.16-.3.38-.45.75-.48,1.14-.78,1.66-1.2,2.38.38.29,1.86,1.47,1.86,2.49,0,.27-.17.66-.52.66-.27,0-.39-.16-.66-.6-.38-.6-.78-1.16-1.24-1.68-2.21,3.13-5.04,4.41-6.57,4.77l-.06-.11c1.54-.72,4.21-2.79,5.86-5.41-.99-.9-2.22-1.56-3.36-2.13,1.05.09,2.16.36,3.81,1.38.38-.66,1.35-2.73,1.35-3.17,0-.49-.61-.82-.96-1,.23-.07.5-.17.78-.17.69,0,1.79.9,1.79,1.31,0,.15-.08.21-.42.52Z"/>
      <path class="cls-2" d="m56.22,33.7c-.13.42-.13,1.75-.13,2.27,0,.27.01,1.5.01,1.75,0,.22,0,1.09-.48,1.09-.4,0-.69-.63-.69-1.23,0-.15.09-.82.11-.96.03-.24.05-.76.05-1.6q0-1.93-1.19-2.26c.28-.18.55-.35.87-.35.36,0,1.62.35,1.62.78,0,.06-.15.46-.17.51Zm5.28-.28c-.03.19-.09,2.8-.11,3.34-.1,2.76-.78,4.12-1.75,5.2-1.14,1.29-2.28,1.56-2.71,1.65l-.04-.11c3.34-2.14,3.52-5.43,3.52-8.86,0-2.29-.04-2.38-1.38-2.59.19-.18.51-.44,1.02-.44.54,0,1.7.35,1.7.75,0,.17-.23.9-.24,1.05Z"/>
      <path class="cls-2" d="m73.58,34.23c-.39.06-.52.17-1.08.54-.94.64-2.16,1.47-2.89,1.83-.09.29-.45,1.6-.53,1.86-1.05,3.62-2.86,4.63-3.61,5.05l-.04-.09c2.31-2.44,3.1-6.33,3.1-7.2,0-.44-.25-.62-1.04-.9.38-.16.52-.24.77-.24.56,0,1.48.35,1.48.75,0,.09-.02.23-.03.3,1.5-1.19,2.5-2.43,2.5-2.62,0-.05-.02-.09-.21-.09-.78,0-5.31.51-6.36.85-.14.04-.69.32-.81.32-.15,0-1.34-.62-1.34-1.44,0-.25.03-.48.1-.72.56.93,1.2.93,1.54.93.66,0,6.34-.57,7.02-.71.12-.01.63-.24.74-.24.24,0,1.4,1.22,1.4,1.47s-.06.25-.72.34Z"/>
      <path class="cls-2" d="m85.91,37.62c-1.1,0-1.79,0-3.98.41.15.71.99,4.6.99,4.84,0,.46-.29.66-.48.66-.36,0-.81-.67-.84-1.53-.03-.63-.06-1.3-.51-3.81-1.92.39-3.04.78-3.23.85-.81.38-.82.38-.94.38-.27,0-1.47-.6-1.47-1.56,0-.12.03-.21.04-.34.34.5.92.78,1.38.78.39,0,3.45-.64,4.09-.75-.04-.24-.33-1.71-.51-2.56-1.04.24-1.74.5-2.23.71-.27.12-.3.13-.38.13-.1,0-.54-.09-1.06-.76-.26-.33-.26-.58-.24-.88.57.54,1.17.57,1.47.57.49,0,2.11-.33,2.32-.38-.46-2.3-.48-2.42-1.79-2.65.42-.3.65-.44.98-.44.03,0,1.62.11,1.62.69,0,.1-.1.54-.1.64,0,.21.06.83.18,1.58.3-.08,1.65-.34,1.91-.44.12-.04.63-.28.75-.28.1,0,.88.12,1.08.3.08.08.14.18.14.31,0,.2-.15.41-.57.41-1.08,0-2.14.12-3.2.32.21,1.3.3,1.84.47,2.58.27-.04,2.28-.46,2.35-.49.18-.08.73-.3.93-.35.09-.01.16-.03.27-.03.52,0,1.19.19,1.36.33.09.08.15.21.15.36,0,.42-.24.42-.96.42Z"/>
      <path class="cls-2" d="m89.45,37.99c-.33,0-.48-.34-.64-.72-.19-.42-.6-1.09-1.09-1.62.99.15,2.17.96,2.17,1.79,0,.3-.15.55-.44.55Zm6.18-1.51c-.09.1-.7,1.42-.84,1.68-2.16,4.07-4.83,4.77-5.88,5.05l-.03-.15c4.5-2.1,5.79-6.9,5.79-7.11,0-.36-.6-.71-.8-.81.2-.04.39-.11.66-.11.65,0,1.41.79,1.41.98,0,.1-.03.15-.31.46Zm-3.6.87c-.31,0-.36-.14-.62-.83-.19-.55-.55-1.09-.9-1.54,1.02.3,1.96,1.14,1.96,1.79,0,.31-.16.58-.45.58Z"/>
      <path class="cls-2" d="m107.33,42.52c-.33,0-.39-.11-.98-1.12-.06-.09-1.03-1.77-3.04-3.32-1.77,2.13-3.99,3.93-6.7,4.47v-.09c3.88-1.71,7.27-6.13,8.04-8.73-.9.15-3.55.55-4.18.95-.26.17-.35.21-.45.21-.21,0-1.05-.83-1.05-1.42,0-.38.06-.53.15-.72.46.81.69.92,1.08.92.63,0,3.76-.38,4.21-.57.12-.04.63-.46.75-.46.19,0,1.29.96,1.29,1.17,0,.15-.06.18-.55.4-.14.06-.19.15-.27.3-.87,1.64-1.12,2.12-2.11,3.36,1.32.62,4.26,2.31,4.26,3.94,0,.5-.24.72-.44.72Zm.02-9.33c-.18,0-.26-.08-.75-.7-.12-.15-.62-.76-1.53-1.21.38-.01.83-.01,1.85.44.36.17.76.38.76.99,0,.48-.27.5-.33.5Zm1.53-.84c-.18,0-.25-.08-.9-.75-.44-.45-.95-.83-1.5-1.09.48-.02,2.7.15,2.7,1.42,0,.38-.23.42-.3.42Z"/>
      <path class="cls-2" d="m122.85,32.53h-6.19v2.46c1.48.25,3.76,1.1,3.76,2.55,0,.51-.36.7-.63.7-.39,0-.51-.19-1.05-1.06-.52-.84-1.43-1.65-2.08-2.01.02,3.4.02,3.78.09,7.23,0,.1.02.6.02.71,0,.58-.39.78-.81.78-.51,0-.51-.33-.51-.49,0-.44.11-2.57.12-3.04.03-1.19.03-1.85.03-7.82h-3.65c-.39,0-1.09.02-1.75.14l-.3-.6c.76.06,1.53.11,2.31.11h8.34l.84-.81c.1-.09.2-.17.24-.17.09,0,.18.06.28.15l1.04.79c.06.04.15.13.15.22,0,.15-.15.17-.24.17Z"/>
      <path class="cls-2" d="m137.34,43.57c-.46.21-1.14.22-2.53.22-1.21,0-2.13-.03-2.13-1.38,0-1.25.34-6.73.39-7.86h-2.43c-.17,1.46-.29,2.38-.59,3.46.36.21,1.83,1.11,1.83,1.98,0,.08,0,.58-.6.58-.25,0-.36-.12-.46-.24-.64-.75-.81-.92-1.1-1.22-.85,2.36-2.38,3.62-3.36,4.23-.92.58-1.62.79-2.05.94l-.05-.09c2.97-1.72,4.14-4.11,4.65-5.85-1.12-.99-1.89-1.32-2.23-1.48v-.09c.78.12,1.47.32,2.44.75.29-1.21.38-2.31.41-2.98h-2.56c-.27,0-1.04,0-1.77.13l-.29-.58c.93.08,1.86.09,2.29.09h2.35c.02-.69.08-2.44-.27-3.76l1.85.54s.15.09.15.21-.09.2-.46.5c-.03,1.41-.12,2.29-.14,2.52h2.27l.57-.5c.06-.04.16-.15.24-.15.09,0,.18.06.24.1l.73.63s.12.09.12.16c0,.15-.19.25-.67.53-.15.99-.33,4.84-.38,6.12-.02.4-.03.78-.03.84,0,.79.23.79,1.61.79.67,0,1.02,0,1.19-.53.13-.42.4-1.69.51-2.22h.09c.06.34.28,1.86.38,2.16.06.17.09.19.3.39.06.04.13.16.13.33,0,.22-.16.51-.63.71Z"/>
      <path class="cls-2" d="m152.27,37.45h-6.05v4.89c0,.57,0,1.67-1.92,1.86-.04-.45-.15-.97-1.75-1.71l.02-.11c.66.09,1.17.15,1.63.15.71,0,.92-.06.92-.63v-4.46h-4.14c-.27,0-1.05,0-1.77.13l-.3-.6c.93.08,1.86.11,2.31.11h3.9v-1.52c0-1.11-.1-1.36-.25-1.77l1.39.39c1.1-1.6,1.31-1.89,1.5-2.29h-5.13c-.27,0-1.03,0-1.77.14l-.29-.6c.93.08,1.84.11,2.3.11h4.98l.59-.51c.15-.12.18-.15.28-.15.06,0,.12.04.25.15l1.05.86c.12.1.15.2.15.25,0,.22-.18.29-1.11.32-1.54,1.18-1.71,1.32-2.5,1.83.1.03.18.12.18.2,0,.2-.24.33-.51.5v2.12h3.8l.78-.86c.14-.13.17-.2.23-.2.08,0,.15.06.29.16l1.03.86c.08.06.15.13.15.24,0,.13-.12.15-.22.15Z"/>
      <path class="cls-2" d="m164.85,31.54l.44-.36c.09-.08.18-.13.27-.13.06,0,.16.06.21.1l.64.56c.07.06.16.15.16.24,0,.18-.16.29-.49.51-.02.82-.03,2.55,0,5.25,0,.87.06,4.71.06,5.49,0,.5-.35.81-.74.81-.46,0-.43-.34-.4-.87h-9.31c.01.18,0,.42-.02.5-.04.33-.48.51-.75.51-.31,0-.39-.21-.39-.47,0-.19.08-1.09.08-1.27.04-1,.06-1.74.06-7.14,0-2.75-.03-3.5-.15-4.34l1.29.62h9.04Zm-9.16.36v10.88h9.31v-10.88h-9.31Zm7.75,7.29s.09.1.09.18c0,.2-.17.23-.29.23-.06,0-.15,0-.27-.02-.48.2-.63.24-1.14.41.63.22,1.97.72,1.97,1.5,0,.27-.2.5-.47.5-.18,0-.25-.04-.84-.69-.51-.55-1.17-1.09-1.81-1.46,0,.29.04,1.68.04,1.83,0,.45-.42.67-.69.67-.24,0-.33-.21-.33-.45,0-.45.06-2.42.06-2.82-.48.57-1.83,1.84-3.76,2.46l-.06-.09c1.3-.87,2.58-1.98,3.42-3.16h-.89c0,.41-.33.57-.6.57-.39,0-.39-.27-.39-.44,0-.08.06-1.3.06-1.55,0-.46-.02-.78-.11-1.18l1.12.45h3.4l.27-.25c.07-.08.15-.15.21-.15s.15.06.21.12l.52.46c.08.06.12.13.12.21,0,.06-.09.15-.35.38,0,.2.03,1.05.03,1.21,0,.32-.12.41-.24.5l.69.58Zm-1.44-5.68l.31-.45c.08-.12.15-.18.23-.18.06,0,.15.04.29.15l.52.45c.08.06.17.13.17.22,0,.14-.14.17-.24.17h-2.58v1.11h2.07l.44-.51c.09-.11.15-.18.24-.18s.18.06.29.15l.6.51c.09.08.15.13.15.23,0,.15-.14.17-.23.17h-6.21c-.15,0-1.08,0-1.77.13l-.3-.6c.77.08,1.55.11,2.31.11h1.47v-1.11h-1.02c-.26,0-1.05,0-1.77.14l-.3-.6c.93.08,2.02.11,2.31.11h.78c-.03-.54-.18-1.04-.27-1.34l1.39.36c.09.03.2.06.2.18,0,.17-.15.25-.38.39v.41h1.3Zm.02,4.41v-1.42h-3.54v1.42h3.54Zm-1.34.36c-.02.64-.02,1.05-.02,1.41.21.03.41.06.85.19.3-.25.86-.87,1.07-1.21-.34.09-.57-.07-.57-.39h-1.34Z"/>
      <path class="cls-2" d="m170.31,44.14v-13.53h3.78v.65h-3.15v12.24h3.15v.65h-3.78Z"/>
      <path class="cls-2" d="m182.76,35.49h-2.96c0,.13,0,.9.02,1.54,1.11.3,2.44,1.2,2.44,2.03,0,.31-.21.69-.59.69-.4,0-.57-.34-.84-.96-.45-.99-.83-1.3-1.02-1.47,0,.96.06,5.17.06,6.03,0,.69-.39.86-.69.86-.47,0-.47-.39-.47-.55,0-.74.14-3.96.15-4.62.01-.57.01-.93.01-1.26-.7,1.27-1.95,3-3.49,4.12l-.09-.09c1.69-2.02,3.13-5.19,3.51-6.31h-1.06c-.38,0-1.1,0-1.77.13l-.3-.6c1.03.09,2.1.11,2.31.11h.89v-2.49c-1.35.24-2.37.22-2.9.22v-.13c1.63-.32,4.44-1.21,5.22-2.05l1,1.05c.06.06.09.13.09.2,0,.12-.06.15-.23.15-.04,0-.41-.08-.48-.09-.33.09-.77.22-1.79.46v2.69h1.21l.53-.68c.09-.12.15-.18.22-.18s.18.06.29.15l.78.67c.1.09.15.13.15.22,0,.13-.12.17-.23.17Zm5.4,7.98c-.5,0-.64-.52-.72-.85-.09-.41-.23-1.02-.27-1.2-1.51.55-4.24,1.16-5.26,1.38-.04.04-.15.29-.19.33-.03.03-.09.08-.18.08s-.18-.04-.29-.29l-.57-1.34c.25.03.48.08.91.08.18,0,.3,0,.76-.03,1.06-3.42,2.36-8.76,2.22-10.45l1.69.66c.08.03.21.11.21.24,0,.15-.06.18-.66.46-.85,3.3-1.42,5.17-3.03,9.08,1.33-.09,3-.21,4.31-.45-.27-.83-.91-2.04-1.71-3.06l.06-.08c1.85,1.08,3.41,3.31,3.41,4.6,0,.74-.51.84-.69.84Z"/>
      <path class="cls-2" d="m201.06,42.78l.78-.84c.08-.08.15-.2.24-.2.1,0,.18.08.28.17l1.04.84c.08.06.15.13.15.22,0,.14-.12.17-.23.17h-11.14c-.13,0-1.06,0-1.77.14l-.29-.6c.99.09,2.01.11,2.29.11h4.51c.35-.84,2.15-6.22,2.06-8.14l1.68.82c.06.03.14.12.14.21,0,.16-.06.18-.6.41-.21.53-1.15,2.96-1.31,3.32-.34.85-.91,2.2-1.63,3.39h3.79Zm-.87-9.18l.63-.84c.1-.13.17-.2.23-.2.09,0,.18.09.29.17l1.05.86c.09.07.14.13.14.21,0,.13-.11.17-.23.17h-9.18c-.13,0-1.06,0-1.77.13l-.28-.58c1.03.08,2.16.09,2.29.09h2.91c0-1.82-.18-2.29-.39-2.88l1.8.45c.07.01.18.04.18.15,0,.15-.34.42-.54.59-.03.27-.03,1.46-.03,1.7h2.91Zm-7.17,1.39c1.69,1.63,2.57,4.07,2.57,5.61,0,.6-.35.96-.72.96-.6,0-.65-.69-.67-1.07-.1-1.59-.24-3.27-1.23-5.46l.06-.05Z"/>
      <path class="cls-2" d="m204.83,44.14v-.65h3.15v-12.24h-3.15v-.65h3.78v13.53h-3.78Z"/>
      <path class="cls-1" d="m26.01,67.38c0,3.67-2.99,6.66-6.66,6.66s-6.66-2.97-6.66-6.66,3.02-6.66,6.66-6.66,6.66,2.96,6.66,6.66Z"/>
      <path class="cls-2" d="m42.06,66.33c-.11,0-1.23-.19-1.4-.22-.52-.09-.89-.09-1.28-.09-.74,0-1.19.03-1.52.06-.01.25-.07,2-.46,3.51-.34,1.35-1.51,3.55-3.82,4.25l-.03-.12c2.44-1.77,3.21-4.36,3.39-7.56-.84.09-2.73.38-3.29.74-.28.18-.31.21-.47.21-.32,0-1.38-.65-1.38-1.77,0-.18.01-.31.04-.46.47.78.95.96,1.42.96.22,0,.29,0,.96-.08.43-.04,2.34-.24,2.73-.29.01-.63.04-2.2-.1-2.73-.1-.39-.45-.55-1.1-.75.38-.34.79-.39.93-.39.57,0,1.55.4,1.55.9,0,.12-.2.56-.24.65-.03.08-.1,1.06-.1,1.56,0,.39-.01.51-.01.69.25-.02,2.41-.14,2.44-.15.15-.03.77-.22.86-.22.06,0,1.39.19,1.39.85,0,.46-.35.46-.53.46Z"/>
      <path class="cls-2" d="m53.72,67.89c-.13,0-.46-.03-.49-.03-.5-.04-.64-.06-1.58-.06-4.25,0-5.51.09-6.14.27-.04.01-.49.13-.53.13-.36,0-1.12-.96-1.12-1.65,0-.09.01-.38.17-.72.47,1.14.91,1.14,2.36,1.14.96,0,5.5-.02,6.14-.18.08-.01.49-.13.57-.13s1.48.16,1.48.75c0,.46-.7.48-.86.48Z"/>
      <path class="cls-2" d="m67.27,66.07c-.11,0-1.42-.22-1.7-.25-.78-.09-1.24-.09-1.6-.09,0,3.24-.14,5.88-3.24,7.95l-.1-.1c2.3-2.5,2.34-4.74,2.4-7.81-.36.01-1.46.06-2.91.31,0,.46.06,2.52.06,2.94s0,.87-.39.87-.59-.79-.59-1.05c0-.16.08-.85.08-.99,0-.26.01-1.38.01-1.61-.53.12-1.49.33-1.9.53-.28.13-.31.15-.38.15-.49,0-1.06-.94-1.06-1.51,0-.22.03-.42.11-.62.54.78.63.9,1.21.9.21,0,1.69-.2,2.01-.23,0-.51-.03-2.19-.21-2.58-.13-.27-.38-.36-.96-.54.31-.23.53-.36.85-.36.36,0,1.34.39,1.34.78,0,.09-.11.45-.13.52-.11.5-.1,1.05-.08,2.08.98-.1,2.12-.24,2.94-.3,0-2.22,0-2.47-.08-2.76-.13-.45-.91-.58-1.13-.63.35-.23.57-.38.88-.38.4,0,1.55.3,1.55.81,0,.11-.13.58-.14.69-.1.57-.13,1.46-.14,2.22.57-.01,1.42-.06,1.73-.12.1-.01.49-.18.57-.18.22,0,.73.18,1.16.51.15.12.21.21.21.42,0,.42-.24.42-.38.42Z"/>
      <path class="cls-2" d="m70.63,63.7c-.13.42-.13,1.75-.13,2.27,0,.27.01,1.5.01,1.75,0,.22,0,1.09-.45,1.09-.38,0-.64-.63-.64-1.23,0-.15.08-.82.1-.96.03-.24.04-.76.04-1.6q0-1.93-1.1-2.26c.27-.18.52-.35.81-.35.34,0,1.51.35,1.51.78,0,.06-.14.46-.15.51Zm4.91-.28c-.03.19-.08,2.8-.1,3.34-.1,2.76-.73,4.12-1.63,5.2-1.06,1.29-2.12,1.56-2.52,1.65l-.04-.11c3.11-2.14,3.28-5.43,3.28-8.86,0-2.29-.04-2.38-1.28-2.59.18-.18.47-.44.95-.44.5,0,1.58.35,1.58.75,0,.17-.21.9-.22,1.05Z"/>
      <path class="cls-2" d="m87.55,67.89c-.13,0-.46-.03-.49-.03-.5-.04-.64-.06-1.58-.06-4.25,0-5.51.09-6.14.27-.04.01-.49.13-.53.13-.36,0-1.12-.96-1.12-1.65,0-.09.01-.38.17-.72.47,1.14.91,1.14,2.36,1.14.96,0,5.5-.02,6.14-.18.08-.01.49-.13.57-.13s1.48.16,1.48.75c0,.46-.7.48-.86.48Z"/>
      <path class="cls-2" d="m93.27,64.83c-.03.35-.14,1.89-.17,2.21-.36,3.22-2.16,4.93-3.35,5.46l-.07-.09c2.58-2.61,2.58-5.85,2.58-7.11s-.01-1.24-1.07-1.55c.22-.16.53-.39.92-.39.36,0,1.31.33,1.31.75,0,.12-.14.62-.15.72Zm3.39,6.2c-.47.36-.52.42-.88.84-.07.08-.2.22-.28.22-.27,0-.89-1.23-.89-1.42,0-.1.17-.55.18-.66.13-.63.13-2.58.13-2.98,0-.55-.01-3.33-.08-3.69-.06-.27-.33-.46-1-.7.18-.12.46-.32.78-.32.42,0,1.51.45,1.51.9,0,.13-.17.73-.2.85-.14.76-.21,4.96-.21,5.88,0,.06,0,.25.1.25.33,0,2.86-1.72,5.05-4.72l.11.09c-.95,2.46-2.96,4.42-4.31,5.46Z"/>
      <path class="cls-2" d="m111.66,67.89c-.13,0-.46-.03-.49-.03-.5-.04-.64-.06-1.58-.06-4.25,0-5.51.09-6.14.27-.04.01-.49.13-.53.13-.36,0-1.12-.96-1.12-1.65,0-.09.01-.38.17-.72.47,1.14.91,1.14,2.36,1.14.96,0,5.5-.02,6.14-.18.08-.01.49-.13.57-.13s1.48.16,1.48.75c0,.46-.7.48-.86.48Z"/>
      <path class="cls-2" d="m123.01,72.22c-.36,0-.49-.39-.6-.78-.15-.55-.28-.99-.56-1.68-1.33.49-4.37,1.26-6.08,1.68-.25.06-.31.1-.46.29-.13.17-.21.22-.31.22-.27,0-1.26-1.09-1.14-2.23.43.49.57.61,1.23.61.08,0,.38-.01.47-.03,1.8-4.16,2.69-6.23,2.69-7.04,0-.5-.39-.75-.96-1.09.32-.09.56-.15.75-.15.64,0,1.65.88,1.65,1.42,0,.18-.06.27-.35.56-.21.19-.53,1.08-.81,1.68-.52,1.09-1.53,3.07-2.5,4.57,1.92-.21,2.25-.25,5.68-.82-.46-1.02-.95-1.75-1.87-2.91,1.1.53,2.01,1.5,2.8,2.64.56.79.88,1.45.88,2.25,0,.53-.28.81-.52.81Z"/>
      <path class="cls-2" d="m136.38,71.11c-.75,0-4-3.76-4.85-4.81-.61-.78-1.31-1.66-1.72-1.66-.47,0-1.17,1.05-1.53,1.57-1.19,1.77-1.28,2.04-1.55,2.7-.11.27-.2.32-.32.32-.36,0-1.49-.93-1.49-1.86,0-.13.03-.27.06-.48.46.58.68.75.88.75s.39-.23.57-.45c.64-.78,2.47-2.94,2.91-3.21.11-.08.29-.15.52-.15.46,0,.75.17,2.11,1.77,1.74,2.05,2.4,2.52,3.74,3.46.4.29,1.03.93,1.03,1.54,0,.24-.1.51-.35.51Zm-1.48-5.71c-.21,0-.27-.08-.71-.71-.43-.62-.99-1.04-1.41-1.32,1.45.15,2.44.8,2.44,1.52,0,.27-.14.51-.32.51Zm1.37-1.3c-.17,0-.24-.08-.88-.77-.1-.1-.56-.6-1.37-1.08,1.1-.05,2.57.57,2.57,1.41,0,.27-.17.44-.32.44Z"/>
      <path class="cls-2" d="m139.84,63.7c-.13.42-.13,1.75-.13,2.27,0,.27.01,1.5.01,1.75,0,.22,0,1.09-.45,1.09-.38,0-.64-.63-.64-1.23,0-.15.08-.82.1-.96.03-.24.04-.76.04-1.6q0-1.93-1.1-2.26c.27-.18.52-.35.81-.35.34,0,1.51.35,1.51.78,0,.06-.14.46-.15.51Zm4.91-.28c-.03.19-.08,2.8-.1,3.34-.1,2.76-.73,4.12-1.63,5.2-1.06,1.29-2.12,1.56-2.52,1.65l-.04-.11c3.11-2.14,3.28-5.43,3.28-8.86,0-2.29-.04-2.38-1.28-2.59.18-.18.47-.44.95-.44.5,0,1.58.35,1.58.75,0,.17-.21.9-.22,1.05Z"/>
      <path class="cls-2" d="m156.76,67.89c-.13,0-.46-.03-.49-.03-.5-.04-.64-.06-1.58-.06-4.25,0-5.51.09-6.14.27-.04.01-.49.13-.53.13-.36,0-1.12-.96-1.12-1.65,0-.09.01-.38.17-.72.47,1.14.91,1.14,2.36,1.14.96,0,5.5-.02,6.14-.18.08-.01.49-.13.57-.13s1.48.16,1.48.75c0,.46-.7.48-.86.48Z"/>
      <path class="cls-2" d="m170.47,71.11c-.75,0-4-3.76-4.85-4.81-.61-.78-1.31-1.66-1.72-1.66-.47,0-1.17,1.05-1.53,1.57-1.19,1.77-1.28,2.04-1.55,2.7-.11.27-.2.32-.32.32-.36,0-1.49-.93-1.49-1.86,0-.13.03-.27.06-.48.46.58.68.75.88.75s.39-.23.57-.45c.64-.78,2.47-2.94,2.91-3.21.11-.08.29-.15.52-.15.46,0,.75.17,2.11,1.77,1.74,2.05,2.4,2.52,3.74,3.46.4.29,1.03.93,1.03,1.54,0,.24-.1.51-.35.51Zm-1.48-5.71c-.21,0-.27-.08-.71-.71-.43-.62-.99-1.04-1.41-1.32,1.45.15,2.44.8,2.44,1.52,0,.27-.14.51-.32.51Zm1.37-1.3c-.17,0-.24-.08-.88-.77-.1-.1-.56-.6-1.37-1.08,1.1-.05,2.57.57,2.57,1.41,0,.27-.17.44-.32.44Z"/>
      <path class="cls-2" d="m181.38,64.23c-.36.06-.49.17-1,.54-.88.64-2.01,1.47-2.69,1.83-.08.29-.42,1.6-.49,1.86-.98,3.62-2.66,4.63-3.36,5.05l-.04-.09c2.15-2.44,2.89-6.33,2.89-7.2,0-.44-.24-.62-.96-.9.35-.16.49-.24.71-.24.52,0,1.38.35,1.38.75,0,.09-.01.23-.03.3,1.39-1.19,2.33-2.43,2.33-2.62,0-.05-.01-.09-.2-.09-.73,0-4.94.51-5.91.85-.13.04-.64.32-.75.32-.14,0-1.24-.62-1.24-1.44,0-.25.03-.48.1-.72.52.93,1.12.93,1.44.93.61,0,5.9-.57,6.53-.71.11-.01.59-.24.68-.24.22,0,1.3,1.22,1.3,1.47s-.06.25-.67.34Z"/>
      <path class="cls-2" d="m193.17,67.89c-.13,0-.46-.03-.49-.03-.5-.04-.64-.06-1.58-.06-4.25,0-5.51.09-6.14.27-.04.01-.49.13-.53.13-.36,0-1.12-.96-1.12-1.65,0-.09.01-.38.17-.72.47,1.14.91,1.14,2.36,1.14.96,0,5.5-.02,6.14-.18.08-.01.49-.13.57-.13s1.48.16,1.48.75c0,.46-.7.48-.86.48Z"/>
      <path class="cls-2" d="m207.51,62.53h-5.76v2.46c1.38.25,3.5,1.1,3.5,2.55,0,.51-.34.7-.59.7-.36,0-.47-.19-.98-1.06-.49-.84-1.32-1.65-1.94-2.01.01,3.4.01,3.78.08,7.23,0,.1.01.6.01.71,0,.58-.36.78-.75.78-.47,0-.47-.33-.47-.49,0-.44.1-2.57.11-3.04.03-1.19.03-1.85.03-7.82h-3.39c-.36,0-1.02.02-1.63.14l-.28-.6c.71.06,1.42.11,2.15.11h7.75l.78-.81c.1-.09.18-.17.22-.17.08,0,.17.06.27.15l.96.79c.06.04.14.13.14.22,0,.15-.14.17-.22.17Z"/>
      <path class="cls-2" d="m220.99,73.57c-.43.21-1.06.22-2.36.22-1.13,0-1.98-.03-1.98-1.38,0-1.25.32-6.73.36-7.86h-2.26c-.15,1.46-.27,2.38-.54,3.46.33.21,1.7,1.11,1.7,1.98,0,.08,0,.58-.56.58-.24,0-.33-.12-.43-.24-.6-.75-.75-.92-1.02-1.22-.79,2.36-2.22,3.62-3.12,4.23-.85.58-1.51.79-1.91.94l-.04-.09c2.76-1.72,3.85-4.11,4.32-5.85-1.05-.99-1.76-1.32-2.08-1.48v-.09c.73.12,1.37.32,2.27.75.27-1.21.35-2.31.38-2.98h-2.38c-.25,0-.96,0-1.65.13l-.27-.58c.86.08,1.73.09,2.13.09h2.19c.01-.69.07-2.44-.25-3.76l1.72.54s.14.09.14.21-.08.2-.43.5c-.03,1.41-.11,2.29-.13,2.52h2.11l.53-.5c.06-.04.15-.15.22-.15.08,0,.17.06.22.1l.68.63s.11.09.11.16c0,.15-.18.25-.63.53-.14.99-.31,4.84-.35,6.12-.01.4-.03.78-.03.84,0,.79.21.79,1.49.79.63,0,.95,0,1.1-.53.13-.42.38-1.69.47-2.22h.08c.06.34.27,1.86.35,2.16.06.17.08.19.28.39.06.04.13.16.13.33,0,.22-.15.51-.59.71Z"/>
      <path class="cls-2" d="m234.87,67.45h-5.62v4.89c0,.57,0,1.67-1.79,1.86-.04-.45-.14-.97-1.63-1.71v-.11c.63.09,1.1.15,1.53.15.66,0,.85-.06.85-.63v-4.46h-3.85c-.25,0-.98,0-1.65.13l-.28-.6c.86.08,1.73.11,2.15.11h3.63v-1.52c0-1.11-.1-1.36-.24-1.77l1.3.39c1.02-1.6,1.21-1.89,1.4-2.29h-4.77c-.25,0-.96,0-1.65.14l-.27-.6c.86.08,1.72.11,2.13.11h4.63l.54-.51c.14-.12.17-.15.27-.15.06,0,.11.04.24.15l.98.86c.11.1.14.2.14.25,0,.22-.17.29-1.03.32-1.44,1.18-1.59,1.32-2.33,1.83.1.03.17.12.17.2,0,.2-.22.33-.47.5v2.12h3.53l.73-.86c.13-.13.15-.2.21-.2.07,0,.14.06.27.16l.96.86c.07.06.14.13.14.24,0,.13-.11.15-.21.15Z"/>
      <path class="cls-2" d="m246.57,61.54l.4-.36c.08-.08.17-.13.25-.13.06,0,.15.06.2.1l.6.56c.07.06.15.15.15.24,0,.18-.15.29-.46.51-.01.82-.03,2.55,0,5.25,0,.87.06,4.71.06,5.49,0,.5-.32.81-.68.81-.43,0-.4-.34-.38-.87h-8.66c.01.18,0,.42-.01.5-.04.33-.45.51-.7.51-.29,0-.36-.21-.36-.47,0-.19.07-1.09.07-1.27.04-1,.06-1.74.06-7.14,0-2.75-.03-3.5-.14-4.34l1.2.62h8.41Zm-8.52.36v10.88h8.66v-10.88h-8.66Zm7.21,7.29s.08.1.08.18c0,.2-.15.23-.27.23-.06,0-.14,0-.25-.02-.45.2-.59.24-1.06.41.59.22,1.83.72,1.83,1.5,0,.27-.18.5-.43.5-.17,0-.24-.04-.78-.69-.47-.55-1.09-1.09-1.69-1.46,0,.29.04,1.68.04,1.83,0,.45-.39.67-.64.67-.22,0-.31-.21-.31-.45,0-.45.06-2.42.06-2.82-.45.57-1.7,1.84-3.5,2.46l-.06-.09c1.21-.87,2.4-1.98,3.18-3.16h-.82c0,.41-.31.57-.56.57-.36,0-.36-.27-.36-.44,0-.08.06-1.3.06-1.55,0-.46-.01-.78-.1-1.18l1.05.45h3.17l.25-.25c.07-.08.14-.15.2-.15s.14.06.2.12l.49.46c.07.06.11.13.11.21,0,.06-.08.15-.32.38,0,.2.03,1.05.03,1.21,0,.32-.11.41-.22.5l.64.58Zm-1.34-5.68l.29-.45c.07-.12.14-.18.21-.18.06,0,.14.04.26.15l.49.45c.07.06.15.13.15.22,0,.14-.13.17-.22.17h-2.4v1.11h1.92l.4-.51c.08-.11.14-.18.22-.18s.17.06.27.15l.56.51c.08.08.14.13.14.23,0,.15-.13.17-.21.17h-5.77c-.14,0-1,0-1.65.13l-.28-.6c.71.08,1.44.11,2.15.11h1.37v-1.11h-.95c-.24,0-.98,0-1.65.14l-.28-.6c.86.08,1.88.11,2.15.11h.73c-.03-.54-.17-1.04-.25-1.34l1.3.36c.08.03.18.06.18.18,0,.17-.14.25-.35.39v.41h1.21Zm.01,4.41v-1.42h-3.29v1.42h3.29Zm-1.24.36c-.01.64-.01,1.05-.01,1.41.2.03.38.06.79.19.28-.25.8-.87.99-1.21-.32.09-.53-.07-.53-.39h-1.24Z"/>
      <path class="cls-2" d="m251.65,74.14v-13.53h3.51v.65h-2.93v12.24h2.93v.65h-3.51Z"/>
      <path class="cls-2" d="m263.23,65.49h-2.75c0,.13,0,.9.01,1.54,1.03.3,2.27,1.2,2.27,2.03,0,.31-.2.69-.54.69-.38,0-.53-.34-.78-.96-.42-.99-.77-1.3-.95-1.47,0,.96.06,5.17.06,6.03,0,.69-.36.86-.64.86-.43,0-.43-.39-.43-.55,0-.74.13-3.96.14-4.62.01-.57.01-.93.01-1.26-.66,1.27-1.81,3-3.25,4.12l-.08-.09c1.58-2.02,2.91-5.19,3.26-6.31h-.99c-.35,0-1.02,0-1.65.13l-.28-.6c.96.09,1.95.11,2.15.11h.82v-2.49c-1.26.24-2.2.22-2.69.22v-.13c1.52-.32,4.13-1.21,4.85-2.05l.93,1.05c.06.06.08.13.08.2,0,.12-.06.15-.21.15-.04,0-.38-.08-.45-.09-.31.09-.71.22-1.66.46v2.69h1.13l.49-.68c.08-.12.14-.18.21-.18s.17.06.27.15l.73.67c.1.09.14.13.14.22,0,.13-.11.17-.21.17Zm5.02,7.98c-.46,0-.6-.52-.67-.85-.08-.41-.21-1.02-.25-1.2-1.41.55-3.95,1.16-4.9,1.38-.04.04-.14.29-.18.33-.03.03-.08.08-.17.08s-.17-.04-.26-.29l-.53-1.34c.24.03.45.08.85.08.17,0,.28,0,.71-.03.99-3.42,2.19-8.76,2.06-10.45l1.58.66c.07.03.2.11.2.24,0,.15-.06.18-.61.46-.79,3.3-1.32,5.17-2.82,9.08,1.24-.09,2.79-.21,4-.45-.25-.83-.85-2.04-1.59-3.06l.06-.08c1.72,1.08,3.17,3.31,3.17,4.6,0,.74-.47.84-.64.84Z"/>
      <path class="cls-2" d="m280.25,72.78l.73-.84c.07-.08.14-.2.22-.2.1,0,.17.08.27.17l.96.84c.07.06.14.13.14.22,0,.14-.11.17-.21.17h-10.36c-.13,0-.99,0-1.65.14l-.27-.6c.92.09,1.87.11,2.13.11h4.2c.32-.84,1.99-6.22,1.91-8.14l1.56.82c.06.03.13.12.13.21,0,.16-.06.18-.56.41-.2.53-1.07,2.96-1.21,3.32-.32.85-.85,2.2-1.52,3.39h3.53Zm-.81-9.18l.59-.84c.1-.13.15-.2.21-.2.08,0,.17.09.26.17l.98.86c.08.07.13.13.13.21,0,.13-.1.17-.21.17h-8.54c-.13,0-.99,0-1.65.13l-.27-.58c.96.08,2.01.09,2.13.09h2.71c0-1.82-.17-2.29-.36-2.88l1.67.45c.07.01.17.04.17.15,0,.15-.32.42-.5.59-.03.27-.03,1.46-.03,1.7h2.71Zm-6.67,1.39c1.58,1.63,2.38,4.07,2.38,5.61,0,.6-.32.96-.67.96-.56,0-.6-.69-.63-1.07-.1-1.59-.22-3.27-1.14-5.46l.06-.05Z"/>
      <path class="cls-2" d="m283.75,74.14v-.65h2.93v-12.24h-2.93v-.65h3.51v13.53h-3.51Z"/>
    </g>
    <g>
      <path class="cls-2" d="m302.61,14.64c-2.34-1.88-3.55-4.57-3.55-7.26s1.21-5.38,3.55-7.26l.14.21c-2.79,2.95-2.85,5.95-2.85,7.05s.06,4.1,2.85,7.05l-.14.21Z"/>
      <path class="cls-2" d="m310.01,3.39c.12.06.19.15.19.27,0,.14-.16.23-.63.32-.19.24-.61.73-1.26,1.53-.57.69-1.06,1.24-1.47,1.66.08,0,1.33-.06,2.13-.17-.06-.1-.24-.45-.61-.85l.08-.09c1.17.45,2.07,1.12,2.07,1.81,0,.29-.16.62-.57.62-.36,0-.51-.18-.64-.69-.02-.05-.08-.26-.17-.48l-1.37.3c0,.65.04,3.72.04,4,.02.3.06,1.65.06,1.92,0,.39-.34.65-.72.65-.31,0-.41-.2-.41-.45,0-.24.06-1.23.06-1.44.02-.48.03-1.95.05-4.48-.94.21-1.69.38-1.89.42-.09.15-.24.43-.38.43-.15,0-.24-.18-.27-.27l-.33-1.28c.25.06.69.11,1.07.11.46,0,1.15-.02,1.39-.03,1.02-1.38,1.94-3.29,2.15-3.88.06-.15.09-.42.09-.6l1.34.67Zm-5.92,9.87c.64-1.46,1.08-3.36,1.05-4.38l1.23.45c.1.04.21.13.21.21,0,.11-.09.18-.48.33-.48,1.4-.91,2.24-1.93,3.43l-.08-.04Zm.57-9.85c.42.11.92.24,1.29.42.42-.84,1.08-2.47.99-3.36l1.42.71c.12.06.18.15.18.22,0,.22-.23.27-.57.33-.71.9-.81,1.04-1.83,2.21.43.27.88.67.88,1.18,0,.34-.23.72-.61.72-.35,0-.44-.18-.77-.91-.35-.78-.69-1.11-1-1.42v-.09Zm3.54,5.71c.61.27,2.11.95,2.11,1.96,0,.48-.34.74-.66.74-.41,0-.48-.3-.68-.99-.21-.78-.49-1.21-.82-1.65l.05-.06Zm7.17-4.84l.45-.42c.08-.08.16-.17.21-.17.06,0,.16.09.21.13l.72.62c.07.06.13.15.13.22,0,.11-.28.32-.55.51-.09,4.15-.12,6.01-.91,7.54-.56,1.07-1.5,1.45-2.33,1.47-.12-.71-.59-1.17-1.36-1.7l.02-.09c.69.13,1.6.3,1.99.3,1.52,0,1.59-4.95,1.59-6.5,0-.25-.01-1.32-.01-1.57h-4.05c-.74,1.39-1.25,1.9-1.47,2.14l-.09-.06c1.11-2.2,1.62-4.74,1.62-5.52,0-.15-.05-.43-.08-.57l1.62.69c.07.03.16.11.16.21,0,.15-.23.25-.59.42-.16.48-.43,1.23-.99,2.33h3.71Zm-4.1,2.87c1.43.58,2.13,1.06,2.13,1.88,0,.36-.18.7-.6.7-.39,0-.51-.17-.84-1.2-.12-.39-.4-.9-.75-1.29l.06-.09Z"/>
      <path class="cls-2" d="m321,6.49c.31-.19.78-.39,1.31-.39,1.48,0,2.68,1.5,2.68,3.31,0,2.08-1.48,3.95-3.21,3.95s-3.45-1.94-3.45-5.17c0-3.46,1.95-6.34,4.25-6.34,1,0,1.71.6,1.71,1.32,0,.54-.42.78-.76.78-.3,0-.79-.2-.83-1.05-.01-.33-.05-.54-.45-.54s-.81.22-1.1.54c-1.33,1.47-1.41,3.67-1.47,5.02.28-.46.6-.99,1.32-1.42Zm-.5,5.55c.26.41.64.81,1.22.81.8,0,1.92-.83,1.92-3.3,0-.68-.17-2.78-1.71-2.78-.57,0-1.53.42-2.23,2.04.06.83.18,2.26.81,3.22Z"/>
      <path class="cls-2" d="m329.96,1.84h.61v7.62h1.69v.48h-1.69v1.74c0,.66.33.91,1.05.91h.24v.48h-3.81v-.48h.24c.7,0,1.05-.24,1.05-.91v-1.74h-4.03v-.53l4.65-7.57Zm-.62,1.98l-3.46,5.64h3.46V3.82Z"/>
      <path class="cls-2" d="m335.91,13.36c-1.04,0-1.91-.72-2.46-1.62-.63-1.04-.91-2.88-.91-4.27,0-3.2,1.36-5.62,3.38-5.62,1.54,0,3.37,1.67,3.37,5.76,0,3.67-1.54,5.76-3.37,5.76Zm-1.68-9.01c-.21.75-.34,2.01-.34,3.25,0,3.34.79,5.25,2.02,5.25,1.03,0,1.5-1.38,1.66-1.95.21-.76.36-2.04.36-3.3,0-3.42-.83-5.25-2.02-5.25-1.07,0-1.53,1.47-1.68,2Z"/>
      <path class="cls-2" d="m341.91,5.7v1.19c.4-.41,1.18-1.19,2.47-1.19,1.41,0,1.68.92,1.8,1.35.51-.5,1.33-1.35,2.68-1.35s1.92.79,1.92,2.46v3.54c0,.57.3.9.75.9h.29v.48h-3.13v-.48h.27c.52,0,.76-.4.76-.9v-3.45c0-.42-.07-1.9-1.32-1.9-.42,0-1.36.24-2.11,1.3,0,.12.01.24.01.51v3.54c0,.63.35.9.75.9h.44v.48h-3.43v-.48h.43c.41,0,.75-.28.75-.9v-3.45c0-.31-.03-1.9-1.3-1.9-.36,0-1.32.19-2.02,1.18v4.17c0,.63.36.9.75.9h.27v.48h-3.12v-.48h.27c.45,0,.75-.31.75-.9v-4.51c0-.46-.25-.71-.61-.71-.17,0-.32.01-.45.06l-.06-.29,2.21-.55Z"/>
      <path class="cls-2" d="m352.98,14.16l-.3-.3,13.26-13.26.3.3-13.26,13.26Z"/>
      <path class="cls-2" d="m366.8,9.46c1.44-1.42,3.09-3.99,3.51-4.98.12-.3.18-.48.29-.88l1.21.95c.06.04.09.12.09.19,0,.21-.24.21-.59.27-.24.34-.54.76-1.08,1.47.18.15.25.2.25.3,0,.09-.06.18-.39.42-.05.65-.05,1.23-.05,1.7,0,.64.05,3.54.05,4.12,0,.78,0,1.2-.66,1.2-.27,0-.53-.09-.53-.42,0-.19.09-1.05.09-1.21.04-.91.03-1.3.06-4.72-1.08,1.09-1.91,1.54-2.21,1.71l-.06-.11Zm.06-4.39c2.1-1.96,3.31-3.93,3.48-4.56l1.12.81s.12.11.12.18c0,.16-.06.18-.63.3-1.3,1.74-2.74,2.7-4.02,3.39l-.08-.12Zm11.95.8l.54-.75c.12-.18.18-.2.22-.2.09,0,.15.06.29.16l.88.75c.09.08.15.14.15.23,0,.15-.12.17-.23.17h-5.34l1.39.45c.09.03.19.07.19.18,0,.2-.36.41-.46.45v1.48h1.54l.54-.64c.12-.13.15-.18.24-.18.08,0,.12.03.29.17l.75.63c.08.06.15.12.15.23,0,.13-.12.17-.23.17h-3.28c0,.21-.02,3.22-.02,3.3.35.04,1.16.17,2.23.17,1.38,0,2.07-.2,2.42-.27l.02.06c-.24.19-.73.6-.87,1.46-.24.01-.5.04-.86.04-4.83,0-5.62-2.71-5.97-3.95-.38,1.04-1.08,2.84-3.01,3.87l-.05-.06c2.22-2.5,2.45-5.42,2.45-6.04,0-.35-.03-.53-.06-.67l1.53.49c.09.03.16.08.16.21,0,.08-.03.12-.08.17-.06.04-.38.2-.44.23-.15.71-.27,1.06-.4,1.47.66,1.47,1.47,2.22,1.94,2.49,0-3.95,0-4.2-.03-4.82-.01-.18-.11-.92-.12-1.06h-1.58c-.38,0-1.09.01-1.77.13l-.3-.6c1.04.09,2.1.1,2.31.1h1.45c0-.88,0-1.83-.01-2.64h-1.16c-.27,0-1.03,0-1.75.13l-.3-.58c.93.08,1.86.09,2.31.09h.9c-.03-1.44-.05-1.56-.27-2.32l1.56.46c.12.03.21.07.21.18s-.37.43-.45.5v1.18h1.47l.59-.72c.09-.1.14-.18.24-.18s.15.05.27.15l.79.72c.08.07.15.13.15.24,0,.14-.13.15-.23.15h-3.3v2.64h2.37Z"/>
      <path class="cls-2" d="m395.25,6.09h-6.69l.52.12c.31.08.38.08.38.21,0,.12-.04.18-.38.36,0,.42.06,2.31.06,2.68,0,.9,0,1.35-1.57,1.8-.17-.63-.62-1.05-1.27-1.38v-.09c.19,0,1.07.06,1.24.06.54,0,.54-.02.56-.56.02-.7,0-2.41-.02-3.21h-4.08c-.38,0-1.1.01-1.77.13l-.3-.6c1.02.09,2.09.11,2.31.11h.71c0-2.66,0-2.94-.23-3.78l1.47.41c.22.06.28.12.28.25,0,.12-.04.17-.46.45v2.67h2.05c0-3.38,0-3.75-.03-4.26-.02-.33-.06-.67-.16-1.47l1.38.38c.17.04.29.09.29.25,0,.1,0,.16-.45.42v1.93h2.16l.58-.85c.06-.08.15-.2.24-.2.08,0,.18.09.27.17l.96.85c.09.09.15.14.15.23,0,.15-.12.17-.22.17h-4.14v2.38h4.12l.71-.9c.09-.12.18-.19.24-.19.08,0,.18.07.27.16l.9.9c.1.11.15.17.15.23,0,.15-.12.17-.23.17Zm-8.52,1.81c-.06.03-.24.08-.37.12-1.01,1.68-2.4,2.96-4.06,3.93l-.06-.08c1.61-1.69,2.7-3.69,2.91-4.18.12-.27.2-.54.29-.9l1.17.62c.13.08.25.13.25.32,0,.08-.04.15-.12.18Zm4.59,2.67c-2.4,2.1-4.77,3.46-8.43,3.59v-.11c2.22-.55,4.5-1.42,6.65-3.4.5-.45,1.02-.95,1.34-1.49l.91.9c.12.12.18.19.18.29,0,.18-.06.18-.64.22Zm2.61.39c-.43,0-.64-.33-.93-.79-.94-1.55-1.71-2.25-2.71-2.97l.06-.09c2.68.64,4.18,2.29,4.18,3.21,0,.31-.24.64-.6.64Z"/>
      <path class="cls-2" d="m410.12,10.06c0,1.74-1.36,3.3-3.54,3.3-1.71,0-3.24-.99-3.24-2.7,0-1.62,1.29-2.38,2.67-3.19-.79-.47-2.23-1.31-2.23-2.94,0-1.48,1.17-2.68,3-2.68,2.05,0,2.74,1.53,2.74,2.37,0,1.27-1.23,2.2-1.87,2.68,1.41.87,2.47,1.62,2.47,3.17Zm-5.52.55c0,1.32.99,2.24,2.16,2.24,1.31,0,2.28-1.16,2.28-2.27,0-1.42-1.48-2.26-2.58-2.88-.68.51-1.86,1.42-1.86,2.91Zm3.82-6.24c0-1.14-.77-2.03-1.86-2.03s-1.77.81-1.77,1.79c0,1.05.85,1.58,2.41,2.5.44-.38,1.21-1.02,1.21-2.26Z"/>
      <path class="cls-2" d="m415.47,2.73c-1.24,2.55-3.51,4.47-4.65,5.1l-.08-.1c2.1-2.38,3.28-4.49,3.63-5.49.13-.38.19-.67.24-.96l1.29.87c.08.04.19.13.19.24,0,.18-.39.29-.63.34Zm5.44,4.7c-.15,5.4-.45,6.49-3.15,6.73-.06-.95-.79-1.44-1.12-1.65l.02-.1c.63.13,1.27.25,1.74.25.72,0,1.01-.17,1.23-1.53.18-1.11.27-3.61.23-4.32h-3.03c-.09,2.35-1.09,6.42-5.82,7.29l-.03-.12c3.05-1.41,4.59-3.67,4.74-7.17h-.44c-.38,0-1.1.01-1.77.15l-.29-.6c.93.08,1.85.09,2.29.09h4.25l.4-.36c.09-.09.18-.17.27-.17.08,0,.15.07.21.13l.6.66c.08.07.14.17.14.24,0,.14-.05.17-.47.47Zm2.73-.02c-1.6-.69-3.39-2.31-4.51-5.7h-1.2c-.75,0-1.05.06-1.26.09l-.2-.53c.68.06,1.34.08,1.64.08h.75l.48-.48c.13-.13.19-.16.27-.16.09,0,.15.07.25.16l.56.54c.09.08.12.14.12.23,0,.3-.69.42-.96.46.72,1.93,3.21,3.85,5.5,4.02l.02.15c-.84.25-1.18.73-1.45,1.14Z"/>
      <path class="cls-2" d="m425.78,14.64l-.13-.21c2.79-2.95,2.85-5.95,2.85-7.05s-.06-4.09-2.85-7.05l.13-.21c2.34,1.87,3.56,4.57,3.56,7.26s-1.22,5.38-3.56,7.26Z"/>
      <path class="cls-2" d="m302.63,44.64c-2.34-1.88-3.55-4.57-3.55-7.26s1.21-5.38,3.55-7.26l.14.21c-2.79,2.95-2.85,5.95-2.85,7.05s.06,4.1,2.85,7.05l-.14.21Z"/>
      <path class="cls-2" d="m310.02,33.39c.12.06.19.15.19.27,0,.14-.17.23-.63.32-.19.24-.61.73-1.26,1.53-.57.69-1.06,1.24-1.47,1.66.08,0,1.34-.06,2.13-.17-.06-.1-.24-.45-.61-.85l.08-.09c1.17.45,2.07,1.12,2.07,1.81,0,.29-.17.62-.57.62-.36,0-.51-.18-.65-.69-.01-.05-.07-.26-.16-.48l-1.37.3c0,.65.05,3.72.05,4,.02.3.06,1.65.06,1.92,0,.39-.34.65-.72.65-.31,0-.41-.2-.41-.45,0-.24.06-1.23.06-1.44.02-.48.03-1.95.04-4.48-.94.21-1.69.38-1.89.42-.09.15-.24.43-.38.43-.15,0-.24-.18-.27-.27l-.33-1.28c.25.06.69.11,1.06.11.46,0,1.15-.02,1.4-.03,1.02-1.38,1.94-3.29,2.14-3.88.06-.15.09-.42.09-.6l1.33.67Zm-5.92,9.87c.65-1.46,1.08-3.36,1.05-4.38l1.23.45c.1.04.21.13.21.21,0,.11-.09.18-.48.33-.48,1.4-.91,2.24-1.93,3.43l-.08-.04Zm.57-9.85c.42.11.91.24,1.29.42.42-.84,1.08-2.47.99-3.36l1.42.71c.12.06.18.15.18.22,0,.22-.23.27-.57.33-.71.9-.81,1.04-1.83,2.21.43.27.88.67.88,1.18,0,.34-.23.72-.62.72-.34,0-.43-.18-.76-.91-.35-.78-.69-1.11-1-1.42v-.09Zm3.54,5.71c.62.27,2.11.95,2.11,1.96,0,.48-.34.74-.66.74-.41,0-.48-.3-.68-.99-.21-.78-.49-1.21-.82-1.65l.04-.06Zm7.17-4.84l.45-.42c.08-.08.17-.17.21-.17.06,0,.16.09.21.13l.72.62c.07.06.13.15.13.22,0,.11-.28.32-.55.51-.09,4.15-.12,6.01-.91,7.54-.56,1.07-1.5,1.45-2.33,1.47-.12-.71-.58-1.17-1.36-1.7l.02-.09c.69.13,1.6.3,1.99.3,1.52,0,1.59-4.95,1.59-6.5,0-.25-.02-1.32-.02-1.57h-4.05c-.73,1.39-1.25,1.9-1.47,2.14l-.09-.06c1.11-2.2,1.62-4.74,1.62-5.52,0-.15-.05-.43-.08-.57l1.62.69c.07.03.16.11.16.21,0,.15-.23.25-.58.42-.17.48-.44,1.23-.99,2.33h3.71Zm-4.1,2.87c1.43.58,2.13,1.06,2.13,1.88,0,.36-.18.7-.6.7-.39,0-.51-.17-.84-1.2-.12-.39-.4-.9-.75-1.29l.06-.09Z"/>
      <path class="cls-2" d="m325.02,32.13v.79c-2.38,3.67-3.23,5.76-3.42,9.1-.03.39-.07,1.33-.84,1.33-.38,0-.77-.32-.77-.83,0-1.06,1.05-4.21,4.21-9.22h-2.57c-2.17,0-2.5,1-2.83,1.96l-.45-.1.61-3.04h6.04Z"/>
      <path class="cls-2" d="m331.02,37.98c.69.58,1.02,1.33,1.02,2.22,0,1.84-1.52,3.17-3.5,3.17-1.62,0-2.98-.92-2.98-2.12,0-.66.44-.96.86-.96.51,0,.74.44.74.75,0,.23-.05.36-.09.48-.03.09-.04.19-.04.34,0,.57.65.99,1.35.99,1.15,0,2.32-1.14,2.32-2.66s-1.14-2.75-2.34-2.75c-.09,0-.51.06-.6.06-.22,0-.33-.14-.33-.32,0-.2.15-.34.34-.34.09,0,.54.09.65.09,1.26,0,2.05-1.12,2.05-2.34s-.7-2.25-1.89-2.25c-.79,0-1.21.57-1.21,1,0,.08.03.15.04.23.03.1.04.25.04.36,0,.46-.35.83-.77.83-.49,0-.75-.44-.75-.83,0-.83.96-2.1,2.88-2.1s3,1.2,3,2.52c0,.53-.19,1.04-.55,1.53-.62.81-1.29,1.06-1.91,1.27.69.21,1.14.36,1.66.81Z"/>
      <path class="cls-2" d="m335.93,43.36c-1.04,0-1.91-.72-2.46-1.62-.63-1.04-.92-2.88-.92-4.27,0-3.2,1.36-5.62,3.38-5.62,1.54,0,3.37,1.67,3.37,5.76,0,3.67-1.54,5.76-3.37,5.76Zm-1.68-9.01c-.21.75-.34,2.01-.34,3.25,0,3.34.79,5.25,2.02,5.25,1.03,0,1.5-1.38,1.66-1.95.21-.76.36-2.04.36-3.3,0-3.42-.83-5.25-2.02-5.25-1.06,0-1.53,1.47-1.68,2Z"/>
      <path class="cls-2" d="m341.93,35.7v1.19c.4-.41,1.19-1.19,2.47-1.19,1.41,0,1.68.92,1.8,1.35.51-.5,1.34-1.35,2.68-1.35s1.92.79,1.92,2.46v3.54c0,.57.3.9.75.9h.29v.48h-3.13v-.48h.27c.52,0,.76-.4.76-.9v-3.45c0-.42-.07-1.9-1.32-1.9-.42,0-1.36.24-2.11,1.3,0,.12.01.24.01.51v3.54c0,.63.35.9.75.9h.44v.48h-3.43v-.48h.43c.41,0,.75-.28.75-.9v-3.45c0-.31-.03-1.9-1.3-1.9-.36,0-1.32.19-2.02,1.18v4.17c0,.63.36.9.75.9h.27v.48h-3.12v-.48h.27c.45,0,.75-.31.75-.9v-4.51c0-.46-.25-.71-.61-.71-.16,0-.32.01-.45.06l-.06-.29,2.21-.55Z"/>
      <path class="cls-2" d="m353,44.16l-.3-.3,13.26-13.26.3.3-13.26,13.26Z"/>
      <path class="cls-2" d="m366.81,39.46c1.44-1.42,3.09-3.99,3.51-4.98.12-.3.18-.48.29-.88l1.21.95c.06.04.09.12.09.19,0,.21-.24.21-.59.27-.24.34-.54.76-1.08,1.47.18.15.25.2.25.3,0,.09-.06.18-.39.42-.04.65-.04,1.23-.04,1.7,0,.64.04,3.54.04,4.12,0,.78,0,1.2-.66,1.2-.27,0-.53-.09-.53-.42,0-.19.09-1.05.09-1.21.04-.91.03-1.3.06-4.72-1.08,1.09-1.91,1.54-2.21,1.71l-.06-.11Zm.06-4.39c2.1-1.96,3.31-3.93,3.48-4.56l1.12.81s.12.11.12.18c0,.16-.06.18-.63.3-1.3,1.74-2.74,2.7-4.02,3.39l-.08-.12Zm11.95.8l.54-.75c.12-.18.18-.2.22-.2.09,0,.15.06.29.16l.89.75c.09.08.15.14.15.23,0,.15-.12.17-.23.17h-5.34l1.4.45c.09.03.19.07.19.18,0,.2-.36.41-.46.45v1.48h1.54l.54-.64c.12-.13.15-.18.24-.18.08,0,.12.03.29.17l.75.63c.08.06.15.12.15.23,0,.13-.12.17-.23.17h-3.28c0,.21-.02,3.22-.02,3.3.35.04,1.16.17,2.23.17,1.38,0,2.07-.2,2.42-.27l.02.06c-.24.19-.73.6-.87,1.46-.24.01-.5.04-.85.04-4.83,0-5.62-2.71-5.97-3.95-.38,1.04-1.08,2.84-3.01,3.87l-.05-.06c2.22-2.5,2.45-5.42,2.45-6.04,0-.35-.03-.53-.06-.67l1.53.49c.09.03.17.08.17.21,0,.08-.03.12-.08.17-.06.04-.38.2-.44.23-.15.71-.27,1.06-.4,1.47.66,1.47,1.47,2.22,1.94,2.49,0-3.95,0-4.2-.03-4.82-.01-.18-.1-.92-.12-1.06h-1.58c-.38,0-1.09.01-1.77.13l-.3-.6c1.04.09,2.1.1,2.31.1h1.45c0-.88,0-1.83-.01-2.64h-1.16c-.27,0-1.03,0-1.75.13l-.3-.58c.93.08,1.86.09,2.31.09h.9c-.03-1.44-.05-1.56-.27-2.32l1.56.46c.12.03.21.07.21.18s-.38.43-.45.5v1.18h1.47l.58-.72c.09-.1.14-.18.24-.18s.15.05.27.15l.79.72c.08.07.15.13.15.24,0,.14-.13.15-.23.15h-3.3v2.64h2.37Z"/>
      <path class="cls-2" d="m395.27,36.09h-6.69l.52.12c.32.08.38.08.38.21,0,.12-.04.18-.38.36,0,.42.06,2.31.06,2.68,0,.9,0,1.35-1.57,1.8-.17-.63-.62-1.05-1.27-1.38v-.09c.19,0,1.06.06,1.24.06.54,0,.54-.02.56-.56.02-.7,0-2.41-.02-3.21h-4.08c-.38,0-1.1.01-1.77.13l-.3-.6c1.02.09,2.08.11,2.31.11h.71c0-2.66,0-2.94-.23-3.78l1.47.41c.22.06.28.12.28.25,0,.12-.04.17-.46.45v2.67h2.05c0-3.38,0-3.75-.03-4.26-.02-.33-.06-.67-.16-1.47l1.38.38c.16.04.29.09.29.25,0,.1,0,.16-.45.42v1.93h2.16l.59-.85c.06-.08.15-.2.24-.2.08,0,.18.09.27.17l.96.85c.09.09.15.14.15.23,0,.15-.12.17-.23.17h-4.14v2.38h4.12l.71-.9c.09-.12.18-.19.24-.19.08,0,.18.07.27.16l.9.9c.11.11.15.17.15.23,0,.15-.12.17-.23.17Zm-8.52,1.81c-.06.03-.24.08-.38.12-1.01,1.68-2.4,2.96-4.06,3.93l-.06-.08c1.6-1.69,2.7-3.69,2.91-4.18.12-.27.2-.54.29-.9l1.17.62c.14.08.25.13.25.32,0,.08-.04.15-.12.18Zm4.59,2.67c-2.4,2.1-4.77,3.46-8.43,3.59l-.02-.11c2.23-.55,4.51-1.42,6.66-3.4.5-.45,1.02-.95,1.34-1.49l.91.9c.12.12.18.19.18.29,0,.18-.06.18-.65.22Zm2.61.39c-.43,0-.64-.33-.93-.79-.94-1.55-1.71-2.25-2.71-2.97l.06-.09c2.68.64,4.18,2.29,4.18,3.21,0,.31-.24.64-.6.64Z"/>
      <path class="cls-2" d="m397.11,42.6h.83c.78,0,1.05-.3,1.05-.91v-8.12c0-.46-.44-.54-.72-.54h-1.14v-.46h.27c1.15,0,2.27-.52,2.44-.63.1-.06.15-.09.21-.09.14,0,.17.09.17.21v9.63c0,.64.31.91,1.05.91h.83v.48h-4.98v-.48Z"/>
      <path class="cls-2" d="m406.73,43.36c-1.04,0-1.91-.72-2.46-1.62-.63-1.04-.92-2.88-.92-4.27,0-3.2,1.36-5.62,3.38-5.62,1.54,0,3.37,1.67,3.37,5.76,0,3.67-1.54,5.76-3.37,5.76Zm-1.68-9.01c-.21.75-.34,2.01-.34,3.25,0,3.34.79,5.25,2.02,5.25,1.03,0,1.5-1.38,1.66-1.95.21-.76.36-2.04.36-3.3,0-3.42-.83-5.25-2.02-5.25-1.06,0-1.53,1.47-1.68,2Z"/>
      <path class="cls-2" d="m415.47,32.73c-1.24,2.55-3.51,4.47-4.65,5.1l-.08-.1c2.1-2.38,3.28-4.49,3.63-5.49.13-.38.19-.67.24-.96l1.29.87c.08.04.19.13.19.24,0,.18-.39.29-.63.34Zm5.44,4.7c-.15,5.4-.45,6.49-3.15,6.73-.06-.95-.79-1.44-1.12-1.65l.02-.1c.63.13,1.27.25,1.74.25.72,0,1.01-.17,1.23-1.53.18-1.11.27-3.61.23-4.32h-3.03c-.09,2.35-1.09,6.42-5.82,7.29l-.03-.12c3.05-1.41,4.59-3.67,4.74-7.17h-.44c-.38,0-1.1.01-1.77.15l-.29-.6c.93.08,1.85.09,2.29.09h4.25l.4-.36c.09-.09.18-.17.27-.17.08,0,.15.07.21.13l.6.66c.08.07.14.17.14.24,0,.14-.05.17-.47.47Zm2.73-.02c-1.6-.69-3.39-2.31-4.51-5.7h-1.2c-.75,0-1.05.06-1.26.09l-.2-.53c.68.06,1.34.08,1.64.08h.75l.48-.48c.13-.13.19-.16.27-.16.09,0,.15.07.25.16l.56.54c.09.08.12.14.12.23,0,.3-.69.42-.96.46.72,1.93,3.21,3.85,5.5,4.02l.02.15c-.84.25-1.18.73-1.45,1.14Z"/>
      <path class="cls-2" d="m425.78,44.64l-.13-.21c2.79-2.95,2.85-5.95,2.85-7.05s-.06-4.09-2.85-7.05l.13-.21c2.34,1.87,3.56,4.57,3.56,7.26s-1.22,5.38-3.56,7.26Z"/>
      <path class="cls-2" d="m302.63,74.64c-2.34-1.88-3.55-4.57-3.55-7.26s1.21-5.38,3.55-7.26l.14.21c-2.79,2.95-2.85,5.95-2.85,7.05s.06,4.1,2.85,7.05l-.14.21Z"/>
      <path class="cls-2" d="m310.02,63.39c.12.06.19.15.19.27,0,.14-.17.23-.63.32-.19.24-.61.73-1.26,1.53-.57.69-1.06,1.24-1.47,1.66.08,0,1.34-.06,2.13-.17-.06-.1-.24-.45-.61-.85l.08-.09c1.17.45,2.07,1.12,2.07,1.81,0,.29-.17.62-.57.62-.36,0-.51-.18-.65-.69-.01-.05-.07-.26-.16-.48l-1.37.3c0,.65.05,3.72.05,4,.02.3.06,1.65.06,1.92,0,.39-.34.65-.72.65-.31,0-.41-.2-.41-.45,0-.24.06-1.23.06-1.44.02-.48.03-1.95.04-4.48-.94.21-1.69.38-1.89.42-.09.15-.24.43-.38.43-.15,0-.24-.18-.27-.27l-.33-1.28c.25.06.69.11,1.06.11.46,0,1.15-.02,1.4-.03,1.02-1.38,1.94-3.29,2.14-3.88.06-.15.09-.42.09-.6l1.33.67Zm-5.92,9.87c.65-1.46,1.08-3.36,1.05-4.38l1.23.45c.1.04.21.13.21.21,0,.11-.09.18-.48.33-.48,1.4-.91,2.24-1.93,3.43l-.08-.04Zm.57-9.85c.42.11.91.24,1.29.42.42-.84,1.08-2.47.99-3.36l1.42.71c.12.06.18.15.18.22,0,.22-.23.27-.57.33-.71.9-.81,1.04-1.83,2.21.43.27.88.67.88,1.18,0,.34-.23.72-.62.72-.34,0-.43-.18-.76-.91-.35-.78-.69-1.11-1-1.42v-.09Zm3.54,5.71c.62.27,2.11.95,2.11,1.96,0,.48-.34.74-.66.74-.41,0-.48-.3-.68-.99-.21-.78-.49-1.21-.82-1.65l.04-.06Zm7.17-4.84l.45-.42c.08-.08.17-.17.21-.17.06,0,.16.09.21.13l.72.62c.07.06.13.15.13.22,0,.11-.28.32-.55.51-.09,4.15-.12,6.01-.91,7.54-.56,1.07-1.5,1.45-2.33,1.47-.12-.71-.58-1.17-1.36-1.7l.02-.09c.69.13,1.6.3,1.99.3,1.52,0,1.59-4.95,1.59-6.5,0-.25-.02-1.32-.02-1.57h-4.05c-.73,1.39-1.25,1.9-1.47,2.14l-.09-.06c1.11-2.2,1.62-4.74,1.62-5.52,0-.15-.05-.43-.08-.57l1.62.69c.07.03.16.11.16.21,0,.15-.23.25-.58.42-.17.48-.44,1.23-.99,2.33h3.71Zm-4.1,2.87c1.43.58,2.13,1.06,2.13,1.88,0,.36-.18.7-.6.7-.39,0-.51-.17-.84-1.2-.12-.39-.4-.9-.75-1.29l.06-.09Z"/>
      <path class="cls-2" d="m325.02,62.13v.79c-2.38,3.67-3.23,5.76-3.42,9.1-.03.39-.07,1.33-.84,1.33-.38,0-.77-.32-.77-.83,0-1.06,1.05-4.21,4.21-9.22h-2.57c-2.17,0-2.5,1-2.83,1.96l-.45-.1.61-3.04h6.04Z"/>
      <path class="cls-2" d="m332.15,62.13v.79c-2.38,3.67-3.23,5.76-3.42,9.1-.03.39-.07,1.33-.84,1.33-.38,0-.77-.32-.77-.83,0-1.06,1.05-4.21,4.21-9.22h-2.57c-2.17,0-2.5,1-2.83,1.96l-.45-.1.61-3.04h6.04Z"/>
      <path class="cls-2" d="m335.93,73.36c-1.04,0-1.91-.72-2.46-1.62-.63-1.04-.92-2.88-.92-4.27,0-3.2,1.36-5.62,3.38-5.62,1.54,0,3.37,1.67,3.37,5.76,0,3.67-1.54,5.76-3.37,5.76Zm-1.68-9.01c-.21.75-.34,2.01-.34,3.25,0,3.34.79,5.25,2.02,5.25,1.03,0,1.5-1.38,1.66-1.95.21-.76.36-2.04.36-3.3,0-3.42-.83-5.25-2.02-5.25-1.06,0-1.53,1.47-1.68,2Z"/>
      <path class="cls-2" d="m341.93,65.7v1.19c.4-.41,1.19-1.19,2.47-1.19,1.41,0,1.68.92,1.8,1.35.51-.5,1.34-1.35,2.68-1.35s1.92.79,1.92,2.46v3.54c0,.57.3.9.75.9h.29v.48h-3.13v-.48h.27c.52,0,.76-.4.76-.9v-3.45c0-.42-.07-1.9-1.32-1.9-.42,0-1.36.24-2.11,1.3,0,.12.01.24.01.51v3.54c0,.63.35.9.75.9h.44v.48h-3.43v-.48h.43c.41,0,.75-.28.75-.9v-3.45c0-.31-.03-1.9-1.3-1.9-.36,0-1.32.19-2.02,1.18v4.17c0,.63.36.9.75.9h.27v.48h-3.12v-.48h.27c.45,0,.75-.31.75-.9v-4.51c0-.46-.25-.71-.61-.71-.16,0-.32.01-.45.06l-.06-.29,2.21-.55Z"/>
      <path class="cls-2" d="m353,74.16l-.3-.3,13.26-13.26.3.3-13.26,13.26Z"/>
      <path class="cls-2" d="m366.81,69.46c1.44-1.42,3.09-3.99,3.51-4.98.12-.3.18-.48.29-.88l1.21.95c.06.04.09.12.09.19,0,.21-.24.21-.59.27-.24.34-.54.76-1.08,1.47.18.15.25.2.25.3,0,.09-.06.18-.39.42-.04.65-.04,1.23-.04,1.7,0,.64.04,3.54.04,4.12,0,.78,0,1.2-.66,1.2-.27,0-.53-.09-.53-.42,0-.19.09-1.05.09-1.21.04-.91.03-1.3.06-4.72-1.08,1.09-1.91,1.54-2.21,1.71l-.06-.11Zm.06-4.39c2.1-1.96,3.31-3.93,3.48-4.56l1.12.81s.12.11.12.18c0,.16-.06.18-.63.3-1.3,1.74-2.74,2.7-4.02,3.39l-.08-.12Zm11.95.8l.54-.75c.12-.18.18-.2.22-.2.09,0,.15.06.29.16l.89.75c.09.08.15.14.15.23,0,.15-.12.17-.23.17h-5.34l1.4.45c.09.03.19.07.19.18,0,.2-.36.41-.46.45v1.48h1.54l.54-.64c.12-.13.15-.18.24-.18.08,0,.12.03.29.17l.75.63c.08.06.15.12.15.23,0,.13-.12.17-.23.17h-3.28c0,.21-.02,3.22-.02,3.3.35.04,1.16.17,2.23.17,1.38,0,2.07-.2,2.42-.27l.02.06c-.24.19-.73.6-.87,1.46-.24.01-.5.04-.85.04-4.83,0-5.62-2.71-5.97-3.95-.38,1.04-1.08,2.84-3.01,3.87l-.05-.06c2.22-2.5,2.45-5.42,2.45-6.04,0-.35-.03-.53-.06-.67l1.53.49c.09.03.17.08.17.21,0,.08-.03.12-.08.17-.06.04-.38.2-.44.23-.15.71-.27,1.06-.4,1.47.66,1.47,1.47,2.22,1.94,2.49,0-3.95,0-4.2-.03-4.82-.01-.18-.1-.92-.12-1.06h-1.58c-.38,0-1.09.01-1.77.13l-.3-.6c1.04.09,2.1.1,2.31.1h1.45c0-.88,0-1.83-.01-2.64h-1.16c-.27,0-1.03,0-1.75.13l-.3-.58c.93.08,1.86.09,2.31.09h.9c-.03-1.44-.05-1.56-.27-2.32l1.56.46c.12.03.21.07.21.18s-.38.43-.45.5v1.18h1.47l.58-.72c.09-.1.14-.18.24-.18s.15.05.27.15l.79.72c.08.07.15.13.15.24,0,.14-.13.15-.23.15h-3.3v2.64h2.37Z"/>
      <path class="cls-2" d="m395.27,66.09h-6.69l.52.12c.32.08.38.08.38.21,0,.12-.04.18-.38.36,0,.42.06,2.31.06,2.68,0,.9,0,1.35-1.57,1.8-.17-.63-.62-1.05-1.27-1.38v-.09c.19,0,1.06.06,1.24.06.54,0,.54-.02.56-.56.02-.7,0-2.41-.02-3.21h-4.08c-.38,0-1.1.01-1.77.13l-.3-.6c1.02.09,2.08.11,2.31.11h.71c0-2.66,0-2.94-.23-3.78l1.47.41c.22.06.28.12.28.25,0,.12-.04.17-.46.45v2.67h2.05c0-3.38,0-3.75-.03-4.26-.02-.33-.06-.67-.16-1.47l1.38.38c.16.04.29.09.29.25,0,.1,0,.16-.45.42v1.93h2.16l.59-.85c.06-.08.15-.2.24-.2.08,0,.18.09.27.17l.96.85c.09.09.15.14.15.23,0,.15-.12.17-.23.17h-4.14v2.38h4.12l.71-.9c.09-.12.18-.19.24-.19.08,0,.18.07.27.16l.9.9c.11.11.15.17.15.23,0,.15-.12.17-.23.17Zm-8.52,1.81c-.06.03-.24.08-.38.12-1.01,1.68-2.4,2.96-4.06,3.93l-.06-.08c1.6-1.69,2.7-3.69,2.91-4.18.12-.27.2-.54.29-.9l1.17.62c.14.08.25.13.25.32,0,.08-.04.15-.12.18Zm4.59,2.67c-2.4,2.1-4.77,3.46-8.43,3.59l-.02-.11c2.23-.55,4.51-1.42,6.66-3.4.5-.45,1.02-.95,1.34-1.49l.91.9c.12.12.18.19.18.29,0,.18-.06.18-.65.22Zm2.61.39c-.43,0-.64-.33-.93-.79-.94-1.55-1.71-2.25-2.71-2.97l.06-.09c2.68.64,4.18,2.29,4.18,3.21,0,.31-.24.64-.6.64Z"/>
      <path class="cls-2" d="m397.11,72.6h.83c.78,0,1.05-.3,1.05-.91v-8.12c0-.46-.44-.54-.72-.54h-1.14v-.46h.27c1.15,0,2.27-.52,2.44-.63.1-.06.15-.09.21-.09.14,0,.17.09.17.21v9.63c0,.64.31.91,1.05.91h.83v.48h-4.98v-.48Z"/>
      <path class="cls-2" d="m406.73,73.36c-1.04,0-1.91-.72-2.46-1.62-.63-1.04-.92-2.88-.92-4.27,0-3.2,1.36-5.62,3.38-5.62,1.54,0,3.37,1.67,3.37,5.76,0,3.67-1.54,5.76-3.37,5.76Zm-1.68-9.01c-.21.75-.34,2.01-.34,3.25,0,3.34.79,5.25,2.02,5.25,1.03,0,1.5-1.38,1.66-1.95.21-.76.36-2.04.36-3.3,0-3.42-.83-5.25-2.02-5.25-1.06,0-1.53,1.47-1.68,2Z"/>
      <path class="cls-2" d="m415.47,62.73c-1.24,2.55-3.51,4.47-4.65,5.1l-.08-.1c2.1-2.38,3.28-4.49,3.63-5.49.13-.38.19-.67.24-.96l1.29.87c.08.04.19.13.19.24,0,.18-.39.29-.63.34Zm5.44,4.7c-.15,5.4-.45,6.49-3.15,6.73-.06-.95-.79-1.44-1.12-1.65l.02-.1c.63.13,1.27.25,1.74.25.72,0,1.01-.17,1.23-1.53.18-1.11.27-3.61.23-4.32h-3.03c-.09,2.35-1.09,6.42-5.82,7.29l-.03-.12c3.05-1.41,4.59-3.67,4.74-7.17h-.44c-.38,0-1.1.01-1.77.15l-.29-.6c.93.08,1.85.09,2.29.09h4.25l.4-.36c.09-.09.18-.17.27-.17.08,0,.15.07.21.13l.6.66c.08.07.14.17.14.24,0,.14-.05.17-.47.47Zm2.73-.02c-1.6-.69-3.39-2.31-4.51-5.7h-1.2c-.75,0-1.05.06-1.26.09l-.2-.53c.68.06,1.34.08,1.64.08h.75l.48-.48c.13-.13.19-.16.27-.16.09,0,.15.07.25.16l.56.54c.09.08.12.14.12.23,0,.3-.69.42-.96.46.72,1.93,3.21,3.85,5.5,4.02l.02.15c-.84.25-1.18.73-1.45,1.14Z"/>
      <path class="cls-2" d="m425.78,74.64l-.13-.21c2.79-2.95,2.85-5.95,2.85-7.05s-.06-4.09-2.85-7.05l.13-.21c2.34,1.87,3.56,4.57,3.56,7.26s-1.22,5.38-3.56,7.26Z"/>
    </g>
    <g>
      <path class="cls-2" d="m302.61,134.64c-2.34-1.88-3.55-4.57-3.55-7.26s1.21-5.38,3.55-7.26l.14.21c-2.79,2.95-2.85,5.95-2.85,7.05s.06,4.1,2.85,7.05l-.14.21Z"/>
      <path class="cls-2" d="m310.01,123.39c.12.06.19.15.19.27,0,.14-.16.23-.63.32-.19.24-.61.73-1.26,1.53-.57.69-1.06,1.24-1.47,1.66.08,0,1.33-.06,2.13-.17-.06-.1-.24-.45-.61-.85l.08-.09c1.17.45,2.07,1.12,2.07,1.81,0,.29-.16.62-.57.62-.36,0-.51-.18-.64-.69-.02-.05-.08-.26-.17-.48l-1.37.3c0,.65.04,3.72.04,4,.02.3.06,1.65.06,1.92,0,.39-.34.65-.72.65-.31,0-.41-.2-.41-.45,0-.24.06-1.23.06-1.44.02-.48.03-1.95.05-4.48-.94.21-1.69.38-1.89.42-.09.15-.24.43-.38.43-.15,0-.24-.18-.27-.27l-.33-1.28c.25.06.69.11,1.07.11.46,0,1.15-.02,1.39-.03,1.02-1.38,1.94-3.29,2.15-3.88.06-.15.09-.42.09-.6l1.34.67Zm-5.92,9.87c.64-1.46,1.08-3.36,1.05-4.38l1.23.45c.1.04.21.13.21.21,0,.11-.09.18-.48.33-.48,1.4-.91,2.24-1.93,3.43l-.08-.04Zm.57-9.85c.42.11.92.24,1.29.42.42-.84,1.08-2.47.99-3.36l1.42.71c.12.06.18.15.18.22,0,.22-.23.27-.57.33-.71.9-.81,1.04-1.83,2.21.43.27.88.67.88,1.18,0,.34-.23.72-.61.72-.35,0-.44-.18-.77-.91-.35-.78-.69-1.11-1-1.42v-.09Zm3.54,5.71c.61.27,2.11.95,2.11,1.96,0,.48-.34.74-.66.74-.41,0-.48-.3-.68-.99-.21-.78-.49-1.21-.82-1.65l.05-.06Zm7.17-4.84l.45-.42c.08-.08.16-.17.21-.17.06,0,.16.09.21.13l.72.62c.07.06.13.15.13.22,0,.11-.28.32-.55.51-.09,4.15-.12,6.01-.91,7.54-.56,1.07-1.5,1.45-2.33,1.47-.12-.71-.59-1.17-1.36-1.7l.02-.09c.69.13,1.6.3,1.99.3,1.52,0,1.59-4.95,1.59-6.5,0-.25-.01-1.32-.01-1.57h-4.05c-.74,1.39-1.25,1.9-1.47,2.14l-.09-.06c1.11-2.2,1.62-4.74,1.62-5.52,0-.15-.05-.43-.08-.57l1.62.69c.07.03.16.11.16.21,0,.15-.23.25-.59.42-.16.48-.43,1.23-.99,2.33h3.71Zm-4.1,2.87c1.43.58,2.13,1.06,2.13,1.88,0,.36-.18.7-.6.7-.39,0-.51-.17-.84-1.2-.12-.39-.4-.9-.75-1.29l.06-.09Z"/>
      <path class="cls-2" d="m322.83,121.84h.61v7.62h1.69v.48h-1.69v1.74c0,.66.33.91,1.05.91h.24v.48h-3.81v-.48h.24c.7,0,1.05-.24,1.05-.91v-1.74h-4.03v-.53l4.65-7.57Zm-.62,1.98l-3.46,5.64h3.46v-5.64Z"/>
      <path class="cls-2" d="m328.79,133.36c-1.04,0-1.91-.72-2.46-1.62-.63-1.04-.91-2.88-.91-4.27,0-3.2,1.36-5.62,3.38-5.62,1.54,0,3.37,1.67,3.37,5.76,0,3.67-1.54,5.76-3.37,5.76Zm-1.68-9.01c-.21.75-.34,2.01-.34,3.25,0,3.34.79,5.25,2.02,5.25,1.03,0,1.5-1.38,1.66-1.95.21-.76.36-2.04.36-3.3,0-3.42-.83-5.25-2.02-5.25-1.07,0-1.53,1.47-1.68,2Z"/>
      <path class="cls-2" d="m335.91,133.36c-1.04,0-1.91-.72-2.46-1.62-.63-1.04-.91-2.88-.91-4.27,0-3.2,1.36-5.62,3.38-5.62,1.54,0,3.37,1.67,3.37,5.76,0,3.67-1.54,5.76-3.37,5.76Zm-1.68-9.01c-.21.75-.34,2.01-.34,3.25,0,3.34.79,5.25,2.02,5.25,1.03,0,1.5-1.38,1.66-1.95.21-.76.36-2.04.36-3.3,0-3.42-.83-5.25-2.02-5.25-1.07,0-1.53,1.47-1.68,2Z"/>
      <path class="cls-2" d="m341.91,125.7v1.19c.4-.41,1.18-1.19,2.47-1.19,1.41,0,1.68.92,1.8,1.35.51-.5,1.33-1.35,2.68-1.35s1.92.79,1.92,2.46v3.54c0,.57.3.9.75.9h.29v.48h-3.13v-.48h.27c.52,0,.76-.4.76-.9v-3.45c0-.42-.07-1.9-1.32-1.9-.42,0-1.36.24-2.11,1.3,0,.12.01.24.01.51v3.54c0,.63.35.9.75.9h.44v.48h-3.43v-.48h.43c.41,0,.75-.28.75-.9v-3.45c0-.31-.03-1.9-1.3-1.9-.36,0-1.32.19-2.02,1.18v4.17c0,.63.36.9.75.9h.27v.48h-3.12v-.48h.27c.45,0,.75-.31.75-.9v-4.51c0-.46-.25-.71-.61-.71-.17,0-.32.01-.45.06l-.06-.29,2.21-.55Z"/>
      <path class="cls-2" d="m352.98,134.16l-.3-.3,13.26-13.26.3.3-13.26,13.26Z"/>
      <path class="cls-2" d="m366.8,129.46c1.44-1.42,3.09-3.99,3.51-4.98.12-.3.18-.48.29-.88l1.21.95c.06.04.09.12.09.19,0,.21-.24.21-.59.27-.24.34-.54.76-1.08,1.47.18.15.25.2.25.3,0,.09-.06.18-.39.42-.05.65-.05,1.23-.05,1.7,0,.64.05,3.54.05,4.12,0,.78,0,1.2-.66,1.2-.27,0-.53-.09-.53-.42,0-.19.09-1.05.09-1.21.04-.91.03-1.3.06-4.72-1.08,1.09-1.91,1.54-2.21,1.71l-.06-.11Zm.06-4.39c2.1-1.96,3.31-3.93,3.48-4.56l1.12.81s.12.11.12.18c0,.16-.06.18-.63.3-1.3,1.74-2.74,2.7-4.02,3.39l-.08-.12Zm11.95.8l.54-.75c.12-.18.18-.2.22-.2.09,0,.15.06.29.16l.88.75c.09.08.15.14.15.23,0,.15-.12.17-.23.17h-5.34l1.39.45c.09.03.19.07.19.18,0,.2-.36.41-.46.45v1.48h1.54l.54-.64c.12-.13.15-.18.24-.18.08,0,.12.03.29.17l.75.63c.08.06.15.12.15.23,0,.13-.12.17-.23.17h-3.28c0,.21-.02,3.22-.02,3.3.35.04,1.16.17,2.23.17,1.38,0,2.07-.2,2.42-.27l.02.06c-.24.19-.73.6-.87,1.46-.24.01-.5.04-.86.04-4.83,0-5.62-2.71-5.97-3.95-.38,1.04-1.08,2.84-3.01,3.87l-.05-.06c2.22-2.5,2.45-5.42,2.45-6.04,0-.35-.03-.53-.06-.67l1.53.49c.09.03.16.08.16.21,0,.08-.03.12-.08.17-.06.04-.38.2-.44.23-.15.71-.27,1.06-.4,1.47.66,1.47,1.47,2.22,1.94,2.49,0-3.95,0-4.2-.03-4.82-.01-.18-.11-.92-.12-1.06h-1.58c-.38,0-1.09.01-1.77.13l-.3-.6c1.04.09,2.1.1,2.31.1h1.45c0-.88,0-1.83-.01-2.64h-1.16c-.27,0-1.03,0-1.75.13l-.3-.58c.93.08,1.86.09,2.31.09h.9c-.03-1.44-.05-1.56-.27-2.32l1.56.46c.12.03.21.07.21.18s-.37.43-.45.5v1.18h1.47l.59-.72c.09-.1.14-.18.24-.18s.15.05.27.15l.79.72c.08.07.15.13.15.24,0,.14-.13.15-.23.15h-3.3v2.64h2.37Z"/>
      <path class="cls-2" d="m395.25,126.09h-6.69l.52.12c.31.08.38.08.38.21,0,.12-.04.18-.38.36,0,.42.06,2.31.06,2.68,0,.9,0,1.35-1.57,1.8-.17-.63-.62-1.05-1.27-1.38v-.09c.19,0,1.07.06,1.24.06.54,0,.54-.02.56-.56.02-.7,0-2.41-.02-3.21h-4.08c-.38,0-1.1.01-1.77.13l-.3-.6c1.02.09,2.09.11,2.31.11h.71c0-2.66,0-2.94-.23-3.78l1.47.41c.22.06.28.12.28.25,0,.12-.04.17-.46.45v2.67h2.05c0-3.38,0-3.75-.03-4.26-.02-.33-.06-.67-.16-1.47l1.38.38c.17.04.29.09.29.25,0,.1,0,.16-.45.42v1.93h2.16l.58-.85c.06-.08.15-.2.24-.2.08,0,.18.09.27.17l.96.85c.09.09.15.14.15.23,0,.15-.12.17-.22.17h-4.14v2.38h4.12l.71-.9c.09-.12.18-.19.24-.19.08,0,.18.07.27.16l.9.9c.1.11.15.17.15.23,0,.15-.12.17-.23.17Zm-8.52,1.81c-.06.03-.24.08-.37.12-1.01,1.68-2.4,2.96-4.06,3.93l-.06-.08c1.61-1.69,2.7-3.69,2.91-4.18.12-.27.2-.54.29-.9l1.17.62c.13.08.25.13.25.32,0,.08-.04.15-.12.18Zm4.59,2.67c-2.4,2.1-4.77,3.46-8.43,3.59v-.11c2.22-.55,4.5-1.42,6.65-3.4.5-.45,1.02-.95,1.34-1.49l.91.9c.12.12.18.19.18.29,0,.18-.06.18-.64.22Zm2.61.39c-.43,0-.64-.33-.93-.79-.94-1.55-1.71-2.25-2.71-2.97l.06-.09c2.68.64,4.18,2.29,4.18,3.21,0,.31-.24.64-.6.64Z"/>
      <path class="cls-2" d="m404.61,123.31l-.13,3.78c.65-.57,1.21-1.04,2.32-1.04,2.16,0,3.19,1.79,3.19,3.43,0,2.17-1.72,3.87-3.7,3.87-1.71,0-2.84-1.28-2.84-2.21,0-.57.36-.93.87-.93.45,0,.78.3.78.78,0,.15-.02.21-.08.45-.03.12-.04.33-.04.42,0,.65.68.98,1.27.98,1.22,0,2.36-1.16,2.36-3.17,0-1.91-1-2.96-2.1-2.96-.6,0-1.52.33-2.34,1.3l-.22-.12.22-5.79h5.22l-.3,1.18h-4.48Z"/>
      <path class="cls-2" d="m415.47,122.73c-1.24,2.55-3.51,4.47-4.65,5.1l-.08-.1c2.1-2.38,3.28-4.49,3.63-5.49.13-.38.19-.67.24-.96l1.29.87c.08.04.19.13.19.24,0,.18-.39.29-.63.34Zm5.44,4.7c-.15,5.4-.45,6.49-3.15,6.73-.06-.95-.79-1.44-1.12-1.65l.02-.1c.63.13,1.27.25,1.74.25.72,0,1.01-.17,1.23-1.53.18-1.11.27-3.61.23-4.32h-3.03c-.09,2.35-1.09,6.42-5.82,7.29l-.03-.12c3.05-1.41,4.59-3.67,4.74-7.17h-.44c-.38,0-1.1.01-1.77.15l-.29-.6c.93.08,1.85.09,2.29.09h4.25l.4-.36c.09-.09.18-.17.27-.17.08,0,.15.07.21.13l.6.66c.08.07.14.17.14.24,0,.14-.05.17-.47.47Zm2.73-.02c-1.6-.69-3.39-2.31-4.51-5.7h-1.2c-.75,0-1.05.06-1.26.09l-.2-.53c.68.06,1.34.08,1.64.08h.75l.48-.48c.13-.13.19-.16.27-.16.09,0,.15.07.25.16l.56.54c.09.08.12.14.12.23,0,.3-.69.42-.96.46.72,1.93,3.21,3.85,5.5,4.02l.02.15c-.84.25-1.18.73-1.45,1.14Z"/>
      <path class="cls-2" d="m425.78,134.64l-.13-.21c2.79-2.95,2.85-5.95,2.85-7.05s-.06-4.09-2.85-7.05l.13-.21c2.34,1.87,3.56,4.57,3.56,7.26s-1.22,5.38-3.56,7.26Z"/>
      <path class="cls-2" d="m302.63,164.64c-2.34-1.88-3.55-4.57-3.55-7.26s1.21-5.38,3.55-7.26l.14.21c-2.79,2.95-2.85,5.95-2.85,7.05s.06,4.1,2.85,7.05l-.14.21Z"/>
      <path class="cls-2" d="m310.02,153.39c.12.06.19.15.19.27,0,.14-.17.23-.63.32-.19.24-.61.73-1.26,1.53-.57.69-1.06,1.24-1.47,1.66.08,0,1.34-.06,2.13-.17-.06-.1-.24-.45-.61-.85l.08-.09c1.17.45,2.07,1.12,2.07,1.81,0,.29-.17.62-.57.62-.36,0-.51-.18-.65-.69-.01-.05-.07-.26-.16-.48l-1.37.3c0,.65.05,3.72.05,4,.02.3.06,1.65.06,1.92,0,.39-.34.65-.72.65-.31,0-.41-.2-.41-.45,0-.24.06-1.23.06-1.44.02-.48.03-1.95.04-4.48-.94.21-1.69.38-1.89.42-.09.15-.24.43-.38.43-.15,0-.24-.18-.27-.27l-.33-1.28c.25.06.69.11,1.06.11.46,0,1.15-.02,1.4-.03,1.02-1.38,1.94-3.29,2.14-3.88.06-.15.09-.42.09-.6l1.33.67Zm-5.92,9.87c.65-1.46,1.08-3.36,1.05-4.38l1.23.45c.1.04.21.13.21.21,0,.11-.09.18-.48.33-.48,1.4-.91,2.24-1.93,3.43l-.08-.04Zm.57-9.85c.42.11.91.24,1.29.42.42-.84,1.08-2.47.99-3.36l1.42.71c.12.06.18.15.18.22,0,.22-.23.27-.57.33-.71.9-.81,1.04-1.83,2.21.43.27.88.67.88,1.18,0,.34-.23.72-.62.72-.34,0-.43-.18-.76-.91-.35-.78-.69-1.11-1-1.42v-.09Zm3.54,5.71c.62.27,2.11.95,2.11,1.96,0,.48-.34.74-.66.74-.41,0-.48-.3-.68-.99-.21-.78-.49-1.21-.82-1.65l.04-.06Zm7.17-4.84l.45-.42c.08-.08.17-.17.21-.17.06,0,.16.09.21.13l.72.62c.07.06.13.15.13.22,0,.11-.28.32-.55.51-.09,4.15-.12,6.01-.91,7.54-.56,1.07-1.5,1.45-2.33,1.47-.12-.71-.58-1.17-1.36-1.7l.02-.09c.69.13,1.6.3,1.99.3,1.52,0,1.59-4.95,1.59-6.5,0-.25-.02-1.32-.02-1.57h-4.05c-.73,1.39-1.25,1.9-1.47,2.14l-.09-.06c1.11-2.2,1.62-4.74,1.62-5.52,0-.15-.05-.43-.08-.57l1.62.69c.07.03.16.11.16.21,0,.15-.23.25-.58.42-.17.48-.44,1.23-.99,2.33h3.71Zm-4.1,2.87c1.43.58,2.13,1.06,2.13,1.88,0,.36-.18.7-.6.7-.39,0-.51-.17-.84-1.2-.12-.39-.4-.9-.75-1.29l.06-.09Z"/>
      <path class="cls-2" d="m325.02,152.13v.79c-2.38,3.67-3.23,5.76-3.42,9.1-.03.39-.07,1.33-.84,1.33-.38,0-.77-.32-.77-.83,0-1.06,1.05-4.21,4.21-9.22h-2.57c-2.17,0-2.5,1-2.83,1.96l-.45-.1.61-3.04h6.04Z"/>
      <path class="cls-2" d="m332.19,160.06c0,1.74-1.36,3.3-3.54,3.3-1.71,0-3.24-.99-3.24-2.7,0-1.62,1.29-2.38,2.67-3.19-.79-.47-2.23-1.31-2.23-2.94,0-1.48,1.17-2.68,3-2.68,2.05,0,2.74,1.53,2.74,2.37,0,1.27-1.23,2.2-1.87,2.68,1.41.87,2.47,1.62,2.47,3.17Zm-5.52.55c0,1.32.99,2.24,2.16,2.24,1.31,0,2.28-1.16,2.28-2.27,0-1.42-1.48-2.26-2.58-2.88-.68.51-1.86,1.42-1.86,2.91Zm3.82-6.24c0-1.14-.77-2.03-1.86-2.03s-1.77.81-1.77,1.79c0,1.05.85,1.58,2.41,2.5.44-.38,1.21-1.02,1.21-2.26Z"/>
      <path class="cls-2" d="m335.93,163.36c-1.04,0-1.91-.72-2.46-1.62-.63-1.04-.92-2.88-.92-4.27,0-3.2,1.36-5.62,3.38-5.62,1.54,0,3.37,1.67,3.37,5.76,0,3.67-1.54,5.76-3.37,5.76Zm-1.68-9.01c-.21.75-.34,2.01-.34,3.25,0,3.34.79,5.25,2.02,5.25,1.03,0,1.5-1.38,1.66-1.95.21-.76.36-2.04.36-3.3,0-3.42-.83-5.25-2.02-5.25-1.06,0-1.53,1.47-1.68,2Z"/>
      <path class="cls-2" d="m341.93,155.7v1.19c.4-.41,1.19-1.19,2.47-1.19,1.41,0,1.68.92,1.8,1.35.51-.5,1.34-1.35,2.68-1.35s1.92.79,1.92,2.46v3.54c0,.57.3.9.75.9h.29v.48h-3.13v-.48h.27c.52,0,.76-.4.76-.9v-3.45c0-.42-.07-1.9-1.32-1.9-.42,0-1.36.24-2.11,1.3,0,.12.01.24.01.51v3.54c0,.63.35.9.75.9h.44v.48h-3.43v-.48h.43c.41,0,.75-.28.75-.9v-3.45c0-.31-.03-1.9-1.3-1.9-.36,0-1.32.19-2.02,1.18v4.17c0,.63.36.9.75.9h.27v.48h-3.12v-.48h.27c.45,0,.75-.31.75-.9v-4.51c0-.46-.25-.71-.61-.71-.16,0-.32.01-.45.06l-.06-.29,2.21-.55Z"/>
      <path class="cls-2" d="m353,164.16l-.3-.3,13.26-13.26.3.3-13.26,13.26Z"/>
      <path class="cls-2" d="m366.81,159.46c1.44-1.42,3.09-3.99,3.51-4.98.12-.3.18-.48.29-.88l1.21.95c.06.04.09.12.09.19,0,.21-.24.21-.59.27-.24.34-.54.76-1.08,1.47.18.15.25.2.25.3,0,.09-.06.18-.39.42-.04.65-.04,1.23-.04,1.7,0,.64.04,3.54.04,4.12,0,.78,0,1.2-.66,1.2-.27,0-.53-.09-.53-.42,0-.19.09-1.05.09-1.21.04-.91.03-1.3.06-4.72-1.08,1.09-1.91,1.54-2.21,1.71l-.06-.11Zm.06-4.39c2.1-1.96,3.31-3.93,3.48-4.56l1.12.81s.12.11.12.18c0,.16-.06.18-.63.3-1.3,1.74-2.74,2.7-4.02,3.39l-.08-.12Zm11.95.8l.54-.75c.12-.18.18-.2.22-.2.09,0,.15.06.29.16l.89.75c.09.08.15.14.15.23,0,.15-.12.17-.23.17h-5.34l1.4.45c.09.03.19.07.19.18,0,.2-.36.41-.46.45v1.48h1.54l.54-.64c.12-.13.15-.18.24-.18.08,0,.12.03.29.17l.75.63c.08.06.15.12.15.23,0,.13-.12.17-.23.17h-3.28c0,.21-.02,3.22-.02,3.3.35.04,1.16.17,2.23.17,1.38,0,2.07-.2,2.42-.27l.02.06c-.24.19-.73.6-.87,1.46-.24.01-.5.04-.85.04-4.83,0-5.62-2.71-5.97-3.95-.38,1.04-1.08,2.84-3.01,3.87l-.05-.06c2.22-2.5,2.45-5.42,2.45-6.04,0-.35-.03-.53-.06-.67l1.53.49c.09.03.17.08.17.21,0,.08-.03.12-.08.17-.06.04-.38.2-.44.23-.15.71-.27,1.06-.4,1.47.66,1.47,1.47,2.22,1.94,2.49,0-3.95,0-4.2-.03-4.82-.01-.18-.1-.92-.12-1.06h-1.58c-.38,0-1.09.01-1.77.13l-.3-.6c1.04.09,2.1.1,2.31.1h1.45c0-.88,0-1.83-.01-2.64h-1.16c-.27,0-1.03,0-1.75.13l-.3-.58c.93.08,1.86.09,2.31.09h.9c-.03-1.44-.05-1.56-.27-2.32l1.56.46c.12.03.21.07.21.18s-.38.43-.45.5v1.18h1.47l.58-.72c.09-.1.14-.18.24-.18s.15.05.27.15l.79.72c.08.07.15.13.15.24,0,.14-.13.15-.23.15h-3.3v2.64h2.37Z"/>
      <path class="cls-2" d="m395.27,156.09h-6.69l.52.12c.32.08.38.08.38.21,0,.12-.04.18-.38.36,0,.42.06,2.31.06,2.68,0,.9,0,1.35-1.57,1.8-.17-.63-.62-1.05-1.27-1.38v-.09c.19,0,1.06.06,1.24.06.54,0,.54-.02.56-.56.02-.7,0-2.41-.02-3.21h-4.08c-.38,0-1.1.01-1.77.13l-.3-.6c1.02.09,2.08.11,2.31.11h.71c0-2.66,0-2.94-.23-3.78l1.47.41c.22.06.28.12.28.25,0,.12-.04.17-.46.45v2.67h2.05c0-3.38,0-3.75-.03-4.26-.02-.33-.06-.67-.16-1.47l1.38.38c.16.04.29.09.29.25,0,.1,0,.16-.45.42v1.93h2.16l.59-.85c.06-.08.15-.2.24-.2.08,0,.18.09.27.17l.96.85c.09.09.15.14.15.23,0,.15-.12.17-.23.17h-4.14v2.38h4.12l.71-.9c.09-.12.18-.19.24-.19.08,0,.18.07.27.16l.9.9c.11.11.15.17.15.23,0,.15-.12.17-.23.17Zm-8.52,1.81c-.06.03-.24.08-.38.12-1.01,1.68-2.4,2.96-4.06,3.93l-.06-.08c1.6-1.69,2.7-3.69,2.91-4.18.12-.27.2-.54.29-.9l1.17.62c.14.08.25.13.25.32,0,.08-.04.15-.12.18Zm4.59,2.67c-2.4,2.1-4.77,3.46-8.43,3.59l-.02-.11c2.23-.55,4.51-1.42,6.66-3.4.5-.45,1.02-.95,1.34-1.49l.91.9c.12.12.18.19.18.29,0,.18-.06.18-.65.22Zm2.61.39c-.43,0-.64-.33-.93-.79-.94-1.55-1.71-2.25-2.71-2.97l.06-.09c2.68.64,4.18,2.29,4.18,3.21,0,.31-.24.64-.6.64Z"/>
      <path class="cls-2" d="m397.11,162.6h.83c.78,0,1.05-.3,1.05-.91v-8.12c0-.46-.44-.54-.72-.54h-1.14v-.46h.27c1.15,0,2.27-.52,2.44-.63.1-.06.15-.09.21-.09.14,0,.17.09.17.21v9.63c0,.64.31.91,1.05.91h.83v.48h-4.98v-.48Z"/>
      <path class="cls-2" d="m406.73,163.36c-1.04,0-1.91-.72-2.46-1.62-.63-1.04-.92-2.88-.92-4.27,0-3.2,1.36-5.62,3.38-5.62,1.54,0,3.37,1.67,3.37,5.76,0,3.67-1.54,5.76-3.37,5.76Zm-1.68-9.01c-.21.75-.34,2.01-.34,3.25,0,3.34.79,5.25,2.02,5.25,1.03,0,1.5-1.38,1.66-1.95.21-.76.36-2.04.36-3.3,0-3.42-.83-5.25-2.02-5.25-1.06,0-1.53,1.47-1.68,2Z"/>
      <path class="cls-2" d="m415.47,152.73c-1.24,2.55-3.51,4.47-4.65,5.1l-.08-.1c2.1-2.38,3.28-4.49,3.63-5.49.13-.38.19-.67.24-.96l1.29.87c.08.04.19.13.19.24,0,.18-.39.29-.63.34Zm5.44,4.7c-.15,5.4-.45,6.49-3.15,6.73-.06-.95-.79-1.44-1.12-1.65l.02-.1c.63.13,1.27.25,1.74.25.72,0,1.01-.17,1.23-1.53.18-1.11.27-3.61.23-4.32h-3.03c-.09,2.35-1.09,6.42-5.82,7.29l-.03-.12c3.05-1.41,4.59-3.67,4.74-7.17h-.44c-.38,0-1.1.01-1.77.15l-.29-.6c.93.08,1.85.09,2.29.09h4.25l.4-.36c.09-.09.18-.17.27-.17.08,0,.15.07.21.13l.6.66c.08.07.14.17.14.24,0,.14-.05.17-.47.47Zm2.73-.02c-1.6-.69-3.39-2.31-4.51-5.7h-1.2c-.75,0-1.05.06-1.26.09l-.2-.53c.68.06,1.34.08,1.64.08h.75l.48-.48c.13-.13.19-.16.27-.16.09,0,.15.07.25.16l.56.54c.09.08.12.14.12.23,0,.3-.69.42-.96.46.72,1.93,3.21,3.85,5.5,4.02l.02.15c-.84.25-1.18.73-1.45,1.14Z"/>
      <path class="cls-2" d="m425.78,164.64l-.13-.21c2.79-2.95,2.85-5.95,2.85-7.05s-.06-4.09-2.85-7.05l.13-.21c2.34,1.87,3.56,4.57,3.56,7.26s-1.22,5.38-3.56,7.26Z"/>
    </g>
    <g>
      <path class="cls-1" d="m26.01,127.38c0,3.67-2.98,6.66-6.66,6.66s-6.66-2.97-6.66-6.66,3.02-6.66,6.66-6.66,6.66,2.96,6.66,6.66Z"/>
      <path class="cls-2" d="m36,124.18c.08.04.14.1.14.2,0,.13-.15.18-.47.27-.06.12-.09.15-.12.2,1.86.54,2.25,1.17,2.25,1.57,0,.35-.21.56-.55.56-.38,0-.52-.29-.68-.57-.43-.81-.88-1.26-1.09-1.44-.67.99-2.21,2.7-4.08,3.81l-.04-.06c1.46-1.48,3.08-3.4,3.56-5.17l1.09.65Zm-.91,5.38c0,.6.03,3.59.03,4.26,0,.24,0,.57-.63.57-.24,0-.4-.06-.4-.5,0-.08.04-1.84.04-2.07,0-.33.02-1.9.02-2.26-.69,0-1.32.01-1.96.13l-.3-.6c1.2.09,2.07.1,2.31.1h2.01l.41-.33c.09-.07.15-.13.24-.13.08,0,.15.06.2.11l.54.48s.12.12.12.2c0,.1-.1.21-.4.39,0,.24.06,1.47.06,1.75,0,.57-.2.79-.57,1.02-.19.1-.45.27-.75.3-.11-.42-.24-.95-.9-1.32v-.08c.2.03.81.09.95.09.22,0,.33-.02.33-.39v-1.72h-1.32Zm.48-2.01l.3-.35c.07-.07.15-.19.24-.19.11,0,.18.08.29.15l.46.36c.08.06.15.12.15.22,0,.12-.11.17-.24.17h-1.94c-.72,0-1,.04-1.25.09l-.19-.53c.67.04,1.33.08,1.63.08h.54Zm6.72-4.71c.03-.97,0-1.08-.13-2.01l1.48.4c.09.03.16.12.16.21,0,.17-.35.3-.5.39-.02.24.03,1.32.03,1.53,0,.38-.36.56-.69.56-.39,0-.39-.12-.36-.72h-7.45c.02.38.02.42-.08.52-.15.17-.38.24-.6.24-.31,0-.38-.2-.38-.51,0-1.77,0-1.82-.12-2.67l1.42.42c.1.03.12.12.12.18,0,.11-.04.13-.36.33,0,.18-.02.96-.02,1.12h3.24c0-.41,0-1.46-.21-2.4l1.48.42s.14.06.14.17c0,.09,0,.15-.44.39,0,.22-.02,1.21,0,1.42h3.24Zm-6.33,11.44c.96-.34,2.89-1.2,3.59-2.25l.97.65s.11.12.11.19c0,.18-.18.2-.6.23-1.25.75-2.35,1.11-4.05,1.23l-.02-.04Zm5.62-9.36c-.49.64-.55.72-1.09,1.32h2.5l.3-.34c.06-.06.1-.15.2-.15s.16.06.25.13l.6.46s.1.11.1.17c0,.15-.29.34-.44.43,0,.62.07,3.59.07,4.26,0,.18,0,.68-.09.77-.12.12-.4.25-.59.25-.4,0-.39-.25-.39-.48h-3.63c.02.09-.03.54-.61.54-.39,0-.42-.13-.42-.46,0-.08.09-2.49.09-2.96,0-.84-.03-2.34-.15-3.1l1.09.48h.8c.03-.18.16-1.11.19-1.32h-.9c-.39,0-1.11.01-1.77.13l-.29-.6c.77.08,1.53.1,2.3.1h3.83l.48-.55c.06-.06.12-.18.22-.18.09,0,.18.07.29.15l.73.56c.08.04.15.13.15.22,0,.17-.15.17-.24.17h-3.6Zm-2.19,1.68v1.32h3.65v-1.32h-3.65Zm0,1.68v1.38h3.65v-1.38h-3.65Zm0,1.74v1.37h3.65v-1.37h-3.65Zm2.41,2.19c1.67.22,2.21.4,2.73.84.1.07.52.43.52.79,0,.39-.28.57-.52.57-.25,0-.31-.06-.9-.69-.81-.86-1.12-1.07-1.85-1.42l.02-.09Z"/>
      <path class="cls-2" d="m53,122.34c-.03.92-.05,6.09.01,7.6,0,.12.03.8.03.85,0,.17,0,.71-.69.71-.41,0-.41-.27-.41-.42,0-.13.03-.72.03-.84h-3.58c.02.3.03,1.12.03,1.3,0,.21,0,.69-.75.69-.39,0-.43-.2-.43-.39,0-.17.07-1.23.09-1.46,0-.11.1-4.49.1-6.01,0-2.12-.06-2.64-.24-3.57l1.41.71h3.3l.32-.33c.08-.08.16-.17.23-.17s.18.11.24.15l.66.51c.09.06.15.15.15.22,0,.14-.06.16-.49.44Zm-3.25-.46h-1.35v3.66h1.35v-3.66Zm0,4.02h-1.35v3.99h1.35v-3.99Zm2.25-4.02h-1.34v3.66h1.34v-3.66Zm0,4.02h-1.34v3.99h1.34v-3.99Zm7.88-3.18h-2.79c-.03,1.48.06,7.99.06,9.33,0,.67,0,1.73-1.79,2-.19-.55-.49-1-1.77-1.47v-.09c.25,0,1.32.03,1.54.03.76,0,.88-.04.9-.57.05-3.45.05-8.22.03-9.22h-.63c-.27,0-1.04,0-1.75.13l-.3-.6c.93.07,1.84.1,2.3.1h2.26l.66-.78c.06-.07.16-.18.24-.18s.2.06.29.15l.82.78c.09.09.15.14.15.24,0,.13-.14.15-.23.15Z"/>
      <path class="cls-2" d="m67.34,124.96c.1.05.16.13.16.24,0,.18-.12.24-.62.39-.76,1.18-2.92,4.3-4.12,5.62.52-.06,2.23-.33,3.34-.6-.16-.34-.69-1.18-1.11-1.51l.07-.12c.65.29,2.73,1.2,2.73,2.62,0,.33-.28.66-.64.66-.28,0-.45-.14-.61-.63-.08-.23-.23-.57-.32-.77-.63.32-.73.34-3.57,1.38-.23.08-.36.13-.54.21-.15.3-.27.48-.38.48-.14,0-.24-.2-.27-.29l-.63-1.51c.22.07.43.15,1,.15.18,0,.34-.01.54-.03.24-.36,1.62-2.6,2.8-5.06.44-.91.56-1.26.67-1.99l1.47.75Zm-6.01-1.02c.52.11,1.08.3,1.69.71.82-1.49,1.35-3.03,1.47-3.58.05-.18.05-.24.09-.73l1.42.76c.09.05.17.13.17.22,0,.23-.42.3-.54.33-.56.95-1.89,2.66-2.36,3.17.32.25,1.05.83,1.05,1.68,0,.33-.22.65-.61.65-.45,0-.54-.23-.88-.96-.1-.24-.66-1.41-1.56-2.12l.06-.12Zm4.75,10.12c3.04-2.34,3.55-5.43,3.72-9.7h-.43c-.15,0-1.08,0-1.77.13l-.3-.6c.85.08,1.74.11,2.52.11,0-.36.04-2.52-.32-3.5l1.47.42c.18.04.25.15.25.22,0,.09-.05.18-.39.39,0,.73,0,1.41-.01,2.46h1.93l.41-.47s.13-.12.23-.12c.06,0,.16.03.24.09l.66.46c.09.06.19.2.19.29,0,.16-.21.33-.54.5.04,1.93.15,6.58-.91,8.29-.31.53-.88,1.04-2.02,1.25-.22-.99-.81-1.39-1.3-1.67l.06-.1c.49.15,1.38.21,1.45.21.57,0,.75-.2.9-.42.75-1.14.82-3.87.82-5.91,0-.93-.03-1.49-.04-2.04h-2.07c-.1,5.08-1.05,7.91-4.67,9.84l-.07-.13Z"/>
      <path class="cls-2" d="m79.29,124.83l.36-.5c.06-.09.15-.19.25-.19.09,0,.15.08.26.16l.51.5c.09.07.15.13.15.22,0,.15-.13.17-.24.17h-1.61c0,.79,0,1-.02,1.7.87.27,1.93.93,1.93,1.68,0,.34-.23.57-.52.57-.44,0-.54-.36-.72-.91-.23-.7-.6-1.07-.69-1.14,0,1.28-.02,6.41-.02,6.51-.03.46-.34.67-.73.67-.28,0-.44-.18-.44-.43,0-.15.09-.79.09-.93.1-1.89.15-4.62.15-5.08v-.24c-.71,1.37-1.47,2.25-2.71,3.22l-.08-.06c1.02-1.26,2.29-3.87,2.7-5.55h-.32c-.25,0-1.03,0-1.77.13l-.3-.6c.83.08,1.66.1,2.49.1v-2.37c-.5.1-1.52.3-2.37.33v-.1c1.8-.51,3.18-1.33,3.72-1.65.18-.1.33-.3.41-.42l1.05.96s.08.11.08.18c0,.15-.18.18-.26.18s-.28-.03-.4-.04c-.27.09-.57.18-1.25.34,0,.42-.03,2.22-.03,2.59h.32Zm6.01-.4v2.52h1.17l.44-.55c.06-.08.15-.18.23-.18s.21.09.27.15l.61.55c.09.08.15.14.15.23,0,.15-.11.16-.24.16h-2.62v2.5h1.14l.48-.56c.07-.09.15-.19.23-.19.09,0,.15.07.27.17l.67.55c.07.06.15.15.15.24,0,.15-.13.15-.23.15h-2.71v2.61h1.82l.58-.75c.09-.12.17-.2.23-.2.09,0,.23.11.29.17l.73.75c.06.08.15.13.15.24,0,.15-.15.15-.23.15h-6.33c.03.39.08,1.04-.69,1.04-.42,0-.42-.29-.42-.45,0-.18.04-1.02.04-1.2.03-1.02.04-3.46.06-6.76-.59.84-.93,1.21-1.14,1.45l-.09-.04c.66-1.26,2.13-4.8,1.98-6.42l1.39.63c.09.04.16.12.16.21,0,.19-.2.27-.5.34-.23.55-.39.96-.89,2.1l.08.03h1.89c.25-.54.69-1.72.7-3.06l1.43.66c.09.05.16.13.16.21,0,.13-.12.18-.51.31-.71,1-1.11,1.53-1.52,1.88h2.16l.52-.58c.09-.11.15-.18.24-.18.04,0,.16.06.27.15l.7.59c.08.08.15.15.15.24,0,.15-.15.15-.23.15h-3.23Zm-.98,2.52v-2.52h-1.8v2.52h1.8Zm0,2.87v-2.5h-1.8v2.5h1.8Zm0,2.97v-2.61h-1.8v2.61h1.8Z"/>
      <path class="cls-2" d="m101.55,121.54l.44-.36c.09-.08.18-.13.27-.13.06,0,.16.06.21.1l.65.56c.07.06.16.15.16.24,0,.18-.16.29-.5.51-.02.82-.03,2.55,0,5.25,0,.87.06,4.71.06,5.49,0,.5-.35.81-.74.81-.46,0-.43-.34-.4-.87h-9.31c.01.18,0,.42-.02.5-.04.33-.48.51-.75.51-.31,0-.39-.21-.39-.47,0-.19.08-1.09.08-1.27.04-1,.06-1.74.06-7.14,0-2.75-.03-3.5-.15-4.34l1.29.62h9.04Zm-9.16.36v10.88h9.31v-10.88h-9.31Zm7.75,7.29s.09.1.09.18c0,.2-.16.23-.29.23-.06,0-.15,0-.27-.02-.48.2-.63.24-1.14.41.63.22,1.97.72,1.97,1.5,0,.27-.2.5-.47.5-.18,0-.25-.04-.84-.69-.51-.55-1.17-1.09-1.81-1.46,0,.29.04,1.68.04,1.83,0,.45-.42.67-.69.67-.24,0-.33-.21-.33-.45,0-.45.06-2.42.06-2.82-.48.57-1.83,1.84-3.76,2.46l-.06-.09c1.3-.87,2.58-1.98,3.42-3.16h-.89c0,.41-.33.57-.6.57-.39,0-.39-.27-.39-.44,0-.08.06-1.3.06-1.55,0-.46-.02-.78-.1-1.18l1.12.45h3.4l.27-.25c.07-.08.15-.15.21-.15s.15.06.21.12l.52.46c.08.06.12.13.12.21,0,.06-.09.15-.35.38,0,.2.03,1.05.03,1.21,0,.32-.12.41-.24.5l.69.58Zm-1.44-5.68l.31-.45c.08-.12.15-.18.23-.18.06,0,.15.04.29.15l.52.45c.08.06.17.13.17.22,0,.14-.14.17-.24.17h-2.58v1.11h2.07l.43-.51c.09-.11.15-.18.24-.18s.18.06.29.15l.6.51c.09.08.15.13.15.23,0,.15-.14.17-.23.17h-6.21c-.15,0-1.08,0-1.77.13l-.3-.6c.77.08,1.55.11,2.31.11h1.47v-1.11h-1.02c-.26,0-1.05,0-1.77.14l-.3-.6c.93.08,2.02.11,2.31.11h.78c-.03-.54-.18-1.04-.27-1.34l1.39.36c.09.03.2.06.2.18,0,.17-.15.25-.38.39v.41h1.3Zm.02,4.41v-1.42h-3.54v1.42h3.54Zm-1.34.36c-.02.64-.02,1.05-.02,1.41.21.03.41.06.85.19.3-.25.85-.87,1.06-1.21-.34.09-.57-.07-.57-.39h-1.34Z"/>
      <path class="cls-2" d="m107.01,134.14v-13.53h3.78v.65h-3.15v12.24h3.15v.65h-3.78Z"/>
      <path class="cls-2" d="m119.46,125.49h-2.96c0,.13,0,.9.02,1.54,1.11.3,2.44,1.2,2.44,2.03,0,.31-.21.69-.59.69-.4,0-.57-.34-.84-.96-.45-.99-.83-1.3-1.02-1.47,0,.96.06,5.17.06,6.03,0,.69-.39.86-.69.86-.46,0-.46-.39-.46-.55,0-.74.13-3.96.15-4.62.01-.57.01-.93.01-1.26-.7,1.27-1.95,3-3.49,4.12l-.09-.09c1.69-2.02,3.13-5.19,3.51-6.31h-1.06c-.38,0-1.1,0-1.77.13l-.3-.6c1.03.09,2.1.11,2.31.11h.89v-2.49c-1.35.24-2.37.22-2.9.22v-.13c1.63-.32,4.44-1.21,5.22-2.05l1,1.05c.06.06.09.13.09.2,0,.12-.06.15-.23.15-.04,0-.41-.08-.48-.09-.33.09-.77.22-1.79.46v2.69h1.21l.53-.68c.09-.12.15-.18.22-.18s.18.06.29.15l.78.67c.1.09.15.13.15.22,0,.13-.12.17-.23.17Zm5.4,7.98c-.5,0-.65-.52-.72-.85-.09-.41-.23-1.02-.27-1.2-1.51.55-4.24,1.16-5.26,1.38-.04.04-.15.29-.19.33-.03.03-.09.08-.18.08s-.18-.04-.29-.29l-.57-1.34c.25.03.48.08.92.08.18,0,.3,0,.76-.03,1.07-3.42,2.36-8.76,2.22-10.45l1.69.66c.08.03.21.11.21.24,0,.15-.06.18-.66.46-.85,3.3-1.42,5.17-3.03,9.08,1.33-.09,3-.21,4.31-.45-.27-.83-.91-2.04-1.71-3.06l.06-.08c1.84,1.08,3.4,3.31,3.4,4.6,0,.74-.51.84-.69.84Z"/>
      <path class="cls-2" d="m137.76,132.78l.78-.84c.08-.08.15-.2.24-.2.1,0,.18.08.28.17l1.04.84c.08.06.15.13.15.22,0,.14-.12.17-.23.17h-11.14c-.13,0-1.06,0-1.77.14l-.29-.6c.99.09,2.01.11,2.29.11h4.51c.35-.84,2.15-6.22,2.06-8.14l1.68.82c.06.03.14.12.14.21,0,.16-.06.18-.6.41-.21.53-1.15,2.96-1.31,3.32-.34.85-.91,2.2-1.63,3.39h3.79Zm-.87-9.18l.63-.84c.1-.13.16-.2.23-.2.09,0,.18.09.29.17l1.05.86c.09.07.14.13.14.21,0,.13-.1.17-.23.17h-9.18c-.13,0-1.06,0-1.77.13l-.28-.58c1.03.08,2.16.09,2.29.09h2.91c0-1.82-.18-2.29-.39-2.88l1.8.45c.08.01.18.04.18.15,0,.15-.34.42-.54.59-.03.27-.03,1.46-.03,1.7h2.91Zm-7.17,1.39c1.69,1.63,2.57,4.07,2.57,5.61,0,.6-.35.96-.72.96-.6,0-.65-.69-.67-1.07-.1-1.59-.24-3.27-1.23-5.46l.06-.05Z"/>
      <path class="cls-2" d="m141.53,134.14v-.65h3.15v-12.24h-3.15v-.65h3.78v13.53h-3.78Z"/>
      <path class="cls-1" d="m26.01,157.38c0,3.67-2.98,6.66-6.66,6.66s-6.66-2.97-6.66-6.66,3.02-6.66,6.66-6.66,6.66,2.96,6.66,6.66Z"/>
      <path class="cls-2" d="m36.12,163.08h-4.47v-.48h.54c.66,0,1.08-.37,1.08-1.03v-7.91c0-.64-.39-1.03-1.08-1.03h-.54v-.5h8.52l.9,2.59-.45.21c-.45-.76-1.36-2.31-3.42-2.31h-1.66c-.66,0-1.08.36-1.08,1.03v3.51h2.17c1.08,0,1.47-.42,1.47-1.48v-.3h.48v4.29h-.48v-.54c0-.91-.36-1.48-1.47-1.48h-2.17v3.92c0,.64.39,1.03,1.08,1.03h.58v.48Z"/>
      <path class="cls-2" d="m45.78,152.62h-.44c-.64,0-1.08.34-1.08,1.03v6.22c0,1.62,1,2.91,2.82,2.91,1.47,0,2.8-.94,2.8-3.03v-5.82c0-1.32-.81-1.32-1.42-1.32v-.5h3.42v.5h-.31c-.87,0-1.19.54-1.19,1.32v5.89c0,1.82-1.05,3.53-3.51,3.53-1.52,0-3.79-.8-3.79-3.33v-6.38c0-.67-.42-1.03-1.06-1.03h-.52v-.5h4.29v.5Z"/>
      <path class="cls-2" d="m61.79,152.13l1.05,2.85-.44.2c-.54-.95-1.46-2.55-3.04-2.55-.76,0-1.06.43-1.06,1.03v7.91c0,.66.42,1.03,1.08,1.03h.75v.48h-4.84v-.48h.76c.63,0,1.06-.34,1.06-1.03v-7.91c0-.73-.42-1.03-1.05-1.03-1.6,0-2.52,1.62-3.06,2.55l-.43-.2,1.05-2.85h8.17Z"/>
      <path class="cls-2" d="m67.8,152.62h-.43c-.64,0-1.08.34-1.08,1.03v6.22c0,1.62,1,2.91,2.82,2.91,1.47,0,2.8-.94,2.8-3.03v-5.82c0-1.32-.81-1.32-1.42-1.32v-.5h3.42v.5h-.31c-.87,0-1.19.54-1.19,1.32v5.89c0,1.82-1.05,3.53-3.51,3.53-1.52,0-3.8-.8-3.8-3.33v-6.38c0-.67-.42-1.03-1.06-1.03h-.52v-.5h4.29v.5Z"/>
      <path class="cls-2" d="m78.8,152.13c1.84,0,4.14.52,4.14,2.61,0,.69-.25,1.4-.99,2.01-.61.51-1.17.68-1.78.84l1.71,3.75c.34.75.94,1.26,1.8,1.26h.25v.48h-2.56l-2.43-5.35h-1.74v3.84c0,.66.42,1.03,1.06,1.03h.48v.48h-4.27v-.48h.46c.66,0,1.08-.37,1.08-1.03v-7.91c0-.64-.39-1.03-1.08-1.03h-.46v-.5h4.34Zm-1.61,5.11h1.61c1.39,0,2.71-.75,2.71-2.37,0-1.03-.56-2.25-2.52-2.25h-.73c-.64,0-1.06.36-1.06,1.03v3.58Z"/>
      <path class="cls-2" d="m87.26,157.65v3.92c0,.64.38,1.03,1.06,1.03h1.15c2.52,0,3.31-1.38,3.96-2.47l.44.2-1.05,2.76h-8.38v-.48h.56c.61,0,1.06-.33,1.06-1.03v-7.91c0-.67-.42-1.03-1.06-1.03h-.56v-.5h8.19l.98,2.43-.41.25c-.82-1.32-1.78-2.19-3.21-2.19h-1.66c-.63,0-1.06.34-1.06,1.03v3.51h1.71c1.14,0,1.69-.48,1.69-1.48v-.39h.48v4.29h-.48v-.45c0-1.08-.78-1.48-1.69-1.48h-1.71Z"/>
      <path class="cls-2" d="m99.81,159.3c-.2.09-.25.11-.45.24-1.27,3.66-3.34,4.49-5.08,4.74v-.04c3.75-2.08,4.08-5.12,4.02-6.17l1.5.8c.11.06.18.13.18.24,0,.09-.04.15-.17.19Zm-1.98-8.01c-.06.06-.33.28-.39.33,0,.83-.01,1.65-.01,2.49,0,.57.07,3.46.07,3.62,0,.69-.72.78-.81.78-.34,0-.42-.25-.42-.46,0-.08.02-.1.02-.18.1-1.5.1-3.63.1-4.11,0-.64,0-2.56-.17-3.25l1.5.41c.07.02.19.08.19.21,0,.09-.06.15-.09.18Zm8.35,1.08c-.03.9,0,1.85.03,2.76.01.39.11,2.11.11,2.47,0,.62-.57.71-.74.71-.45,0-.45-.21-.43-.88h-4.26c.01.43-.23.73-.66.73-.04,0-.48-.01-.48-.39,0-.02,0-.11.02-.24.07-1.18.09-2.43.09-3.08,0-1.02-.02-2.65-.19-3.58l1.41.75h3.91l.44-.42c.11-.1.15-.12.21-.12s.11.03.19.09l.72.52c.08.06.12.11.12.2,0,.1-.04.15-.48.48Zm-1.02-.39h-4.29v2.33h4.29v-2.33Zm0,2.68h-4.29v2.4h4.29v-2.4Zm.35,9.08h-2.44c-1.52,0-1.86-.2-1.86-1.2,0-.41.03-2.17.03-2.54,0-1.12-.03-1.29-.19-2.1l1.53.5c.12.04.16.1.16.2,0,.13-.11.22-.19.28-.14.08-.15.09-.24.24-.06,1.02-.09,2.03-.09,3.05,0,.57.25.58.84.58h2.08c.99,0,1.26-.04,1.74-3.19h.08c.06.4.39,2.38.58,2.61.04.04.29.25.31.3.04.06.09.15.09.25,0,.45-.76,1.02-2.43,1.02Z"/>
      <path class="cls-2" d="m122.41,163.51h-11.2c-.27,0-1.03,0-1.77.14l-.28-.6c.93.08,1.84.11,2.29.11h3.88v-1.49h-2.61c-.27,0-1.04,0-1.77.13l-.3-.6c.96.08,1.89.11,2.31.11h2.37v-1.38h-2.52c.06.64-.55.69-.72.69-.2,0-.42-.04-.42-.39,0-.45.06-2.4.06-2.8,0-1.26-.06-1.7-.13-2.19l1.33.72h5.77l.38-.43c.12-.13.19-.2.27-.2.09,0,.16.06.33.17l.6.42c.08.06.14.13.14.23,0,.16-.15.27-.51.55.02.46.12,2.49.12,2.89s-.16.79-.79.79c-.33,0-.33-.21-.33-.38v-.07h-2.55v1.38h3.01l.41-.53c.09-.12.16-.18.24-.18s.16.04.29.15l.63.53c.09.08.15.16.15.24,0,.1-.09.15-.23.15h-4.5v1.49h4.3l.52-.65c.1-.13.17-.18.24-.18s.18.04.3.15l.77.64c.07.06.15.17.15.24,0,.09-.08.15-.23.15Zm-.1-8.67h-10.84c-.37,0-1.09.01-1.77.13l-.3-.6c1.04.09,2.1.1,2.31.1h1.96c-.17-.15-.17-.21-.24-.76-.03-.25-.2-.79-.47-1.23h-.7c-.38,0-1.1.02-1.77.14l-.3-.6c1.04.09,2.1.11,2.31.11h2.82c-.03-.99-.23-1.54-.34-1.88l1.53.46c.17.05.27.12.27.22,0,.15-.12.24-.41.46,0,.21-.01.47-.01.72h3.06l.47-.57c.09-.12.17-.18.25-.18s.18.06.29.15l.67.57c.07.06.15.17.15.24,0,.12-.12.15-.23.15h-3.22l.81.46c.09.06.19.15.19.24,0,.18-.15.23-.52.27-.14.15-.73.69-1.11,1.02h3.43l.51-.63c.12-.13.18-.2.25-.2s.16.06.27.15l.76.64c.08.06.15.17.15.23,0,.13-.1.17-.24.17Zm-6.97,1.44h-2.54v1.46h2.54v-1.46Zm0,1.79h-2.54v1.53h2.54v-1.53Zm-2.04-5.58c1.27.65,1.38,1.14,1.38,1.5,0,.2-.07.36-.21.5h2.31c.04-.1.39-.97.48-2h-3.96Zm5.61,3.79h-2.55v1.46h2.55v-1.46Zm0,1.79h-2.55v1.53h2.55v-1.53Z"/>
      <path class="cls-2" d="m135.03,151.54l.44-.36c.09-.08.18-.13.27-.13.06,0,.17.06.21.1l.64.56c.07.06.16.15.16.24,0,.18-.16.29-.49.51-.02.82-.03,2.55,0,5.25,0,.87.06,4.71.06,5.49,0,.5-.35.81-.74.81-.46,0-.43-.34-.4-.87h-9.31c.01.18,0,.42-.02.5-.04.33-.48.51-.75.51-.31,0-.39-.21-.39-.47,0-.19.08-1.09.08-1.27.04-1,.06-1.74.06-7.14,0-2.75-.03-3.5-.15-4.34l1.29.62h9.04Zm-9.16.36v10.88h9.31v-10.88h-9.31Zm7.75,7.29s.09.1.09.18c0,.2-.16.23-.29.23-.06,0-.15,0-.27-.02-.48.2-.63.24-1.14.41.63.22,1.97.72,1.97,1.5,0,.27-.2.5-.47.5-.18,0-.25-.04-.84-.69-.51-.55-1.17-1.09-1.81-1.46,0,.29.04,1.68.04,1.83,0,.45-.42.67-.69.67-.24,0-.33-.21-.33-.45,0-.45.06-2.42.06-2.82-.48.57-1.83,1.84-3.76,2.46l-.06-.09c1.3-.87,2.58-1.98,3.42-3.16h-.89c0,.41-.33.57-.6.57-.39,0-.39-.27-.39-.44,0-.08.06-1.3.06-1.55,0-.46-.02-.78-.1-1.18l1.12.45h3.4l.27-.25c.07-.08.15-.15.21-.15s.15.06.21.12l.52.46c.08.06.12.13.12.21,0,.06-.09.15-.35.38,0,.2.03,1.05.03,1.21,0,.32-.12.41-.24.5l.69.58Zm-1.44-5.68l.32-.45c.08-.12.15-.18.23-.18.06,0,.15.04.29.15l.52.45c.08.06.17.13.17.22,0,.14-.14.17-.24.17h-2.58v1.11h2.07l.43-.51c.09-.11.15-.18.24-.18s.18.06.29.15l.6.51c.09.08.15.13.15.23,0,.15-.14.17-.23.17h-6.21c-.15,0-1.08,0-1.77.13l-.3-.6c.77.08,1.54.11,2.31.11h1.47v-1.11h-1.02c-.26,0-1.05,0-1.77.14l-.3-.6c.93.08,2.02.11,2.31.11h.78c-.03-.54-.18-1.04-.27-1.34l1.39.36c.09.03.2.06.2.18,0,.17-.15.25-.38.39v.41h1.3Zm.02,4.41v-1.42h-3.54v1.42h3.54Zm-1.34.36c-.02.64-.02,1.05-.02,1.41.21.03.41.06.86.19.3-.25.85-.87,1.06-1.21-.34.09-.57-.07-.57-.39h-1.34Z"/>
      <path class="cls-2" d="m141.45,158.58c-.66,0-1.2-.54-1.2-1.2s.54-1.2,1.2-1.2,1.2.51,1.2,1.2-.56,1.2-1.2,1.2Z"/>
      <path class="cls-2" d="m158.66,152.53h-6.19v2.46c1.48.25,3.76,1.1,3.76,2.55,0,.51-.36.7-.63.7-.39,0-.51-.19-1.05-1.06-.52-.84-1.43-1.65-2.09-2.01.02,3.4.02,3.78.09,7.23,0,.1.02.6.02.71,0,.58-.39.78-.81.78-.51,0-.51-.33-.51-.49,0-.44.1-2.57.12-3.04.03-1.19.03-1.85.03-7.82h-3.64c-.39,0-1.09.02-1.75.14l-.3-.6c.76.06,1.53.11,2.31.11h8.34l.84-.81c.1-.09.2-.17.24-.17.09,0,.18.06.28.15l1.04.79c.06.04.15.13.15.22,0,.15-.15.17-.24.17Z"/>
      <path class="cls-2" d="m173.15,163.57c-.46.21-1.14.22-2.53.22-1.21,0-2.13-.03-2.13-1.38,0-1.25.34-6.73.39-7.86h-2.43c-.16,1.46-.29,2.38-.59,3.46.36.21,1.83,1.11,1.83,1.98,0,.08,0,.58-.6.58-.25,0-.36-.12-.46-.24-.65-.75-.81-.92-1.1-1.22-.86,2.36-2.38,3.62-3.36,4.23-.91.58-1.62.79-2.05.94l-.05-.09c2.97-1.72,4.14-4.11,4.65-5.85-1.12-.99-1.89-1.32-2.23-1.48v-.09c.78.12,1.47.32,2.44.75.29-1.21.38-2.31.41-2.98h-2.56c-.27,0-1.04,0-1.77.13l-.29-.58c.93.08,1.86.09,2.29.09h2.36c.02-.69.08-2.44-.27-3.76l1.85.54s.15.09.15.21-.09.2-.46.5c-.03,1.41-.12,2.29-.14,2.52h2.27l.57-.5c.06-.04.16-.15.24-.15.09,0,.18.06.24.1l.73.63s.12.09.12.16c0,.15-.19.25-.67.53-.15.99-.33,4.84-.38,6.12-.02.4-.03.78-.03.84,0,.79.23.79,1.6.79.67,0,1.02,0,1.19-.53.13-.42.4-1.69.51-2.22h.09c.06.34.28,1.86.38,2.16.06.17.09.19.3.39.06.04.13.16.13.33,0,.22-.16.51-.63.71Z"/>
      <path class="cls-2" d="m188.07,157.45h-6.04v4.89c0,.57,0,1.67-1.92,1.86-.04-.45-.15-.97-1.75-1.71l.02-.11c.66.09,1.17.15,1.63.15.7,0,.91-.06.91-.63v-4.46h-4.14c-.27,0-1.05,0-1.77.13l-.3-.6c.93.08,1.86.11,2.31.11h3.9v-1.52c0-1.11-.11-1.36-.25-1.77l1.39.39c1.1-1.6,1.31-1.89,1.5-2.29h-5.13c-.27,0-1.03,0-1.77.14l-.29-.6c.93.08,1.84.11,2.29.11h4.98l.58-.51c.15-.12.18-.15.28-.15.06,0,.12.04.25.15l1.05.86c.12.1.15.2.15.25,0,.22-.18.29-1.11.32-1.54,1.18-1.71,1.32-2.5,1.83.1.03.18.12.18.2,0,.2-.24.33-.51.5v2.12h3.79l.78-.86c.14-.13.16-.2.23-.2.08,0,.15.06.29.16l1.03.86c.08.06.15.13.15.24,0,.13-.12.15-.22.15Z"/>
      <path class="cls-2" d="m191.49,164.14v-13.53h3.78v.65h-3.15v12.24h3.15v.65h-3.78Z"/>
      <path class="cls-2" d="m203.94,155.49h-2.96c0,.13,0,.9.02,1.54,1.11.3,2.44,1.2,2.44,2.03,0,.31-.21.69-.59.69-.4,0-.57-.34-.84-.96-.45-.99-.83-1.3-1.02-1.47,0,.96.06,5.17.06,6.03,0,.69-.39.86-.69.86-.47,0-.47-.39-.47-.55,0-.74.14-3.96.15-4.62.01-.57.01-.93.01-1.26-.7,1.27-1.95,3-3.49,4.12l-.09-.09c1.69-2.02,3.13-5.19,3.51-6.31h-1.07c-.38,0-1.1,0-1.77.13l-.3-.6c1.03.09,2.1.11,2.31.11h.89v-2.49c-1.35.24-2.37.22-2.89.22v-.13c1.63-.32,4.44-1.21,5.22-2.05l1,1.05c.06.06.09.13.09.2,0,.12-.06.15-.23.15-.05,0-.41-.08-.48-.09-.33.09-.77.22-1.79.46v2.69h1.21l.53-.68c.09-.12.15-.18.22-.18s.18.06.29.15l.78.67c.11.09.15.13.15.22,0,.13-.12.17-.23.17Zm5.4,7.98c-.5,0-.64-.52-.72-.85-.09-.41-.23-1.02-.27-1.2-1.51.55-4.24,1.16-5.26,1.38-.04.04-.15.29-.19.33-.03.03-.09.08-.18.08s-.18-.04-.29-.29l-.57-1.34c.25.03.48.08.92.08.18,0,.3,0,.76-.03,1.06-3.42,2.35-8.76,2.22-10.45l1.69.66c.08.03.21.11.21.24,0,.15-.06.18-.66.46-.85,3.3-1.42,5.17-3.03,9.08,1.33-.09,3-.21,4.31-.45-.27-.83-.92-2.04-1.71-3.06l.06-.08c1.85,1.08,3.41,3.31,3.41,4.6,0,.74-.51.84-.69.84Z"/>
      <path class="cls-2" d="m222.24,162.78l.78-.84c.08-.08.15-.2.24-.2.11,0,.18.08.28.17l1.04.84c.08.06.15.13.15.22,0,.14-.12.17-.23.17h-11.14c-.13,0-1.06,0-1.77.14l-.29-.6c.99.09,2.01.11,2.29.11h4.51c.35-.84,2.14-6.22,2.06-8.14l1.68.82c.06.03.14.12.14.21,0,.16-.06.18-.6.41-.21.53-1.15,2.96-1.31,3.32-.34.85-.91,2.2-1.63,3.39h3.79Zm-.87-9.18l.63-.84c.1-.13.16-.2.23-.2.09,0,.18.09.29.17l1.05.86c.09.07.14.13.14.21,0,.13-.11.17-.23.17h-9.18c-.13,0-1.06,0-1.77.13l-.28-.58c1.03.08,2.16.09,2.29.09h2.91c0-1.82-.18-2.29-.39-2.88l1.8.45c.07.01.18.04.18.15,0,.15-.34.42-.54.59-.03.27-.03,1.46-.03,1.7h2.91Zm-7.17,1.39c1.69,1.63,2.56,4.07,2.56,5.61,0,.6-.35.96-.72.96-.6,0-.64-.69-.67-1.07-.11-1.59-.24-3.27-1.23-5.46l.06-.05Z"/>
      <path class="cls-2" d="m226.01,164.14v-.65h3.15v-12.24h-3.15v-.65h3.78v13.53h-3.78Z"/>
    </g>
    <g>
      <path class="cls-1" d="m16.97,108.11l-4.27-8.23,4.27-8.23.49.27-4.13,7.95,4.13,7.96-.49.27Zm1.85,0l-4.27-8.23,4.27-8.23.49.27-4.11,7.95,4.11,7.96-.49.27Z"/>
      <path class="cls-1" d="m28.27,97.14c.12.05.19.15.19.27,0,.2-.14.27-.7.44-.87,1.34-3.31,4.88-4.67,6.37.59-.07,2.53-.37,3.79-.68-.19-.39-.78-1.34-1.26-1.72l.08-.14c.73.32,3.09,1.36,3.09,2.97,0,.37-.32.75-.73.75-.32,0-.51-.15-.7-.71-.08-.25-.26-.65-.36-.87-.71.36-.83.39-4.05,1.56-.25.08-.41.15-.61.24-.17.34-.31.54-.42.54-.15,0-.27-.22-.31-.32l-.71-1.72c.25.08.49.17,1.14.17.2,0,.39-.02.61-.03.27-.41,1.84-2.94,3.18-5.73.49-1.04.63-1.43.77-2.26l1.67.85Zm-6.82-1.16c.59.12,1.22.34,1.92.8.93-1.68,1.53-3.43,1.67-4.06.05-.2.05-.27.1-.83l1.61.87c.1.05.19.15.19.25,0,.25-.48.34-.61.37-.63,1.07-2.14,3.01-2.67,3.59.36.29,1.19.94,1.19,1.9,0,.37-.25.73-.7.73-.51,0-.61-.25-1-1.09-.12-.27-.75-1.6-1.77-2.4l.07-.14Zm5.39,11.47c3.45-2.65,4.03-6.15,4.22-11h-.49c-.17,0-1.22,0-2.01.15l-.34-.68c.97.08,1.97.12,2.86.12,0-.41.05-2.86-.36-3.96l1.67.48c.2.05.29.17.29.26,0,.1-.05.2-.44.44,0,.83,0,1.6-.02,2.79h2.19l.46-.53s.15-.14.25-.14c.07,0,.19.03.27.1l.75.53c.1.07.22.22.22.32,0,.19-.24.38-.61.56.05,2.19.17,7.46-1.04,9.4-.36.6-1,1.17-2.29,1.41-.25-1.12-.92-1.58-1.48-1.89l.07-.12c.56.17,1.56.24,1.65.24.65,0,.85-.22,1.02-.48.85-1.29.93-4.39.93-6.7,0-1.05-.03-1.68-.05-2.31h-2.35c-.12,5.76-1.19,8.96-5.29,11.15l-.08-.15Z"/>
      <path class="cls-1" d="m42.25,96.99l.41-.56c.07-.1.17-.22.29-.22.1,0,.17.08.29.19l.58.56c.1.08.17.15.17.25,0,.17-.15.19-.27.19h-1.82c0,.9,0,1.14-.02,1.92.99.31,2.19,1.05,2.19,1.9,0,.39-.25.65-.6.65-.49,0-.61-.41-.82-1.04-.26-.8-.68-1.21-.78-1.29,0,1.44-.02,7.26-.02,7.38-.03.53-.39.76-.83.76-.32,0-.49-.2-.49-.49,0-.17.1-.9.1-1.05.12-2.14.17-5.23.17-5.76v-.27c-.8,1.55-1.67,2.55-3.08,3.65l-.08-.07c1.16-1.43,2.6-4.38,3.06-6.29h-.36c-.29,0-1.17,0-2.01.15l-.34-.68c.94.09,1.89.12,2.82.12v-2.69c-.56.12-1.72.34-2.69.37v-.12c2.04-.58,3.6-1.51,4.22-1.87.2-.12.37-.34.46-.48l1.19,1.09c.05.05.09.12.09.2,0,.17-.2.2-.29.2s-.32-.03-.46-.05c-.31.1-.65.2-1.41.39,0,.48-.03,2.52-.03,2.94h.36Zm6.82-.46v2.86h1.33l.49-.63c.07-.08.17-.2.25-.2s.24.1.31.17l.7.63c.1.08.17.15.17.25,0,.17-.12.19-.27.19h-2.97v2.84h1.29l.54-.63c.08-.1.17-.22.25-.22.1,0,.17.09.31.19l.77.63c.08.07.17.17.17.27,0,.17-.15.17-.25.17h-3.08v2.96h2.06l.66-.85c.1-.14.19-.22.25-.22.1,0,.25.12.32.19l.83.85c.07.09.17.15.17.27,0,.17-.17.17-.25.17h-7.17c.03.44.09,1.17-.78,1.17-.48,0-.48-.32-.48-.51,0-.2.05-1.16.05-1.36.03-1.16.05-3.93.07-7.67-.66.95-1.05,1.38-1.29,1.65l-.1-.05c.75-1.43,2.41-5.44,2.24-7.28l1.58.71c.1.05.19.14.19.24,0,.22-.22.31-.56.39-.25.63-.44,1.09-1,2.38l.08.03h2.14c.29-.61.78-1.96.8-3.47l1.61.75c.1.05.19.15.19.24,0,.15-.14.2-.58.36-.8,1.14-1.26,1.73-1.72,2.12h2.45l.6-.66c.1-.12.17-.21.27-.21.05,0,.19.07.31.17l.8.66c.08.08.17.17.17.27,0,.17-.17.17-.26.17h-3.65Zm-1.1,2.86v-2.86h-2.04v2.86h2.04Zm0,3.25v-2.84h-2.04v2.84h2.04Zm0,3.37v-2.96h-2.04v2.96h2.04Z"/>
      <path class="cls-1" d="m67.9,93.27l.49-.41c.1-.08.2-.15.31-.15.07,0,.19.07.24.12l.73.63c.08.07.19.17.19.27,0,.2-.19.32-.56.58-.02.93-.03,2.89,0,5.95,0,.99.07,5.34.07,6.22,0,.56-.39.92-.83.92-.53,0-.49-.39-.46-.99h-10.56c.02.2,0,.48-.02.56-.05.37-.54.58-.85.58-.36,0-.44-.24-.44-.53,0-.22.08-1.24.08-1.45.05-1.14.07-1.97.07-8.09,0-3.11-.03-3.96-.17-4.91l1.46.7h10.25Zm-10.39.41v12.32h10.56v-12.32h-10.56Zm8.79,8.26c.05.05.1.12.1.2,0,.22-.19.26-.32.26-.07,0-.17,0-.31-.02-.54.22-.71.27-1.29.46.71.25,2.23.82,2.23,1.7,0,.31-.22.56-.53.56-.2,0-.29-.05-.95-.78-.58-.63-1.33-1.24-2.06-1.65,0,.32.05,1.9.05,2.07,0,.51-.48.76-.78.76-.27,0-.37-.24-.37-.51,0-.51.07-2.74.07-3.2-.54.65-2.07,2.09-4.27,2.79l-.07-.1c1.48-.99,2.92-2.24,3.88-3.59h-1c0,.46-.37.65-.68.65-.44,0-.44-.31-.44-.49,0-.08.07-1.48.07-1.75,0-.53-.02-.88-.12-1.34l1.27.51h3.86l.31-.29c.08-.08.17-.17.24-.17s.17.07.24.14l.59.53c.08.07.14.15.14.24,0,.07-.1.17-.39.42,0,.22.03,1.19.03,1.38,0,.36-.14.46-.27.56l.78.66Zm-1.63-6.44l.36-.51c.09-.14.17-.2.25-.2.07,0,.17.05.32.17l.59.51c.08.07.19.15.19.25,0,.15-.15.19-.27.19h-2.92v1.26h2.35l.49-.58c.1-.12.17-.2.27-.2s.2.07.32.17l.68.58c.1.08.17.15.17.25,0,.17-.15.19-.25.19h-7.04c-.17,0-1.22,0-2.01.15l-.34-.68c.87.09,1.75.12,2.62.12h1.67v-1.26h-1.16c-.29,0-1.19,0-2.01.15l-.34-.68c1.05.09,2.29.12,2.62.12h.88c-.03-.61-.2-1.17-.31-1.51l1.58.41c.1.03.22.07.22.2,0,.19-.17.29-.43.44v.46h1.48Zm.02,5v-1.62h-4.01v1.62h4.01Zm-1.51.41c-.02.73-.02,1.19-.02,1.6.24.03.46.07.97.22.34-.29.97-.99,1.21-1.38-.39.1-.65-.08-.65-.44h-1.51Z"/>
      <path class="cls-1" d="m72.88,108.11l-.49-.27,4.11-7.96-4.11-7.95.49-.27,4.27,8.23-4.27,8.23Zm1.85,0l-.49-.27,4.13-7.96-4.13-7.95.49-.27,4.27,8.23-4.27,8.23Z"/>
    </g>
    <line class="cls-3" x1=".25" y1=".28" x2=".25" y2="168.27"/>
  </g>
</svg>