<svg xmlns="http://www.w3.org/2000/svg" width="416.39" height="42.88" viewBox="0 0 416.39 42.88">
  <g id="area03-03-txt" transform="translate(0 -30.79)">
    <path id="パス_3170" data-name="パス 3170" d="M258.48,73.67a9.2,9.2,0,0,1,0-14.52l.13.21a10.145,10.145,0,0,0,0,14.1Z" fill="#040000"/>
    <path id="パス_3171" data-name="パス 3171" d="M262.84,68.25l-.73,2.28a1.239,1.239,0,0,0-.09.5.555.555,0,0,0,.63.6h.42v.48h-3.25v-.48h.49c.63,0,1.17-.64,1.41-1.38l2.96-9.09,1.32-.29,3.28,9.73c.3.87.69,1.02,1.11,1.02h.33v.48h-3.69v-.48h.45a.655.655,0,0,0,.62-.66,1.774,1.774,0,0,0-.13-.56l-.72-2.16h-4.39Zm2.16-6.6-2,6.12h4.06l-2.07-6.12Z" fill="#040000"/>
    <path id="パス_3172" data-name="パス 3172" d="M275.62,63.45a.87.87,0,1,1-1.74,0,.87.87,0,1,1,1.74,0Zm0,5.91a.87.87,0,1,1-1.74,0,.877.877,0,0,1,.87-.87A.864.864,0,0,1,275.62,69.36Z" fill="#040000"/>
    <path id="パス_3173" data-name="パス 3173" d="M278.34,68.49a20.946,20.946,0,0,0,3.51-4.98,6.987,6.987,0,0,0,.29-.88l1.21.95a.232.232,0,0,1,.09.19c0,.21-.24.21-.58.27-.24.34-.54.76-1.08,1.47.18.15.25.2.25.3s-.06.18-.39.42c-.04.65-.04,1.23-.04,1.7,0,.64.04,3.54.04,4.12,0,.78,0,1.2-.66,1.2-.27,0-.53-.09-.53-.42,0-.19.09-1.05.09-1.21.04-.92.03-1.3.06-4.72a9.413,9.413,0,0,1-2.21,1.71l-.06-.11Zm.06-4.39a13.806,13.806,0,0,0,3.48-4.56l1.12.81s.12.11.12.18c0,.17-.06.18-.63.3a11.708,11.708,0,0,1-4.02,3.39l-.08-.12Zm11.96.79.54-.75c.12-.18.18-.2.22-.2.09,0,.15.06.29.17l.88.75c.09.08.15.14.15.23,0,.15-.12.17-.23.17h-5.34l1.4.45c.09.03.19.07.19.18,0,.2-.36.41-.46.45v1.48h1.54l.54-.64c.12-.13.15-.18.24-.18s.12.03.29.17l.75.63a.284.284,0,0,1,.15.23c0,.13-.12.17-.22.17H288c0,.21-.01,3.22-.01,3.3a16.469,16.469,0,0,0,2.23.17,9.744,9.744,0,0,0,2.42-.27l.02.06a2.176,2.176,0,0,0-.87,1.46c-.24.01-.5.04-.86.04-4.83,0-5.62-2.71-5.97-3.95a6.649,6.649,0,0,1-3.01,3.87l-.04-.06a9.865,9.865,0,0,0,2.45-6.04,2.949,2.949,0,0,0-.06-.67l1.53.49a.208.208,0,0,1,.17.21.214.214,0,0,1-.08.17c-.06.04-.38.2-.44.23a12.745,12.745,0,0,1-.4,1.47,5.483,5.483,0,0,0,1.93,2.49c0-3.95,0-4.2-.03-4.82-.01-.18-.1-.92-.12-1.06h-1.58a10.583,10.583,0,0,0-1.77.13l-.3-.6c1.04.09,2.1.1,2.31.1h1.45c0-.88,0-1.83-.01-2.64H285.8a10.269,10.269,0,0,0-1.75.13l-.3-.58c.93.08,1.86.09,2.31.09h.9a6.328,6.328,0,0,0-.27-2.32l1.56.46c.12.03.21.07.21.18s-.38.43-.45.5v1.18h1.47l.58-.72c.09-.1.14-.18.24-.18s.15.04.27.15l.79.72c.08.07.15.13.15.24,0,.14-.13.15-.22.15h-3.3v2.64h2.37Z" fill="#040000"/>
    <path id="パス_3174" data-name="パス 3174" d="M306.79,65.12H300.1l.52.12c.32.08.38.08.38.21s-.04.18-.38.36c0,.42.06,2.31.06,2.68,0,.9,0,1.35-1.58,1.8a2.208,2.208,0,0,0-1.27-1.38v-.09c.19,0,1.06.06,1.24.06.54,0,.54-.02.56-.56.01-.7,0-2.41-.02-3.21h-4.08a10.516,10.516,0,0,0-1.77.13l-.3-.6c1.02.09,2.08.11,2.31.11h.71c0-2.66,0-2.94-.22-3.78l1.47.41c.22.06.29.12.29.25s-.04.17-.46.45v2.67h2.05c0-3.38,0-3.75-.03-4.26-.01-.33-.06-.67-.17-1.47l1.38.38c.17.04.29.09.29.25,0,.1,0,.17-.45.42V62h2.16l.58-.85c.06-.08.15-.2.24-.2s.18.09.27.17l.96.85c.09.09.15.14.15.23,0,.15-.12.17-.22.17h-4.14v2.38h4.12l.71-.9c.09-.12.18-.19.24-.19a.434.434,0,0,1,.27.17l.9.9c.1.11.15.17.15.23,0,.15-.12.17-.23.17Zm-8.52,1.81a3.558,3.558,0,0,1-.38.12,11.163,11.163,0,0,1-4.06,3.93l-.06-.08a17.472,17.472,0,0,0,2.91-4.18,5.3,5.3,0,0,0,.29-.9l1.17.62c.13.08.25.13.25.32a.183.183,0,0,1-.12.18Zm4.59,2.67a12.5,12.5,0,0,1-8.43,3.58v-.11a14.367,14.367,0,0,0,6.64-3.4,6.627,6.627,0,0,0,1.33-1.49l.92.9c.12.12.18.19.18.29,0,.18-.06.18-.64.22Zm2.61.39c-.43,0-.64-.33-.93-.79a9.039,9.039,0,0,0-2.71-2.97l.06-.09c2.68.64,4.18,2.29,4.18,3.21A.629.629,0,0,1,305.47,69.99Z" fill="#040000"/>
    <path id="パス_3175" data-name="パス 3175" d="M314.47,61.16v.79c-2.38,3.67-3.23,5.76-3.42,9.1-.03.39-.08,1.33-.84,1.33a.8.8,0,0,1-.77-.83c0-1.06,1.05-4.21,4.21-9.22h-2.56c-2.17,0-2.5,1-2.83,1.96l-.45-.1.62-3.04h6.04Z" fill="#040000"/>
    <path id="パス_3176" data-name="パス 3176" d="M319.87,61.76a12.919,12.919,0,0,1-4.65,5.1l-.08-.1a19.378,19.378,0,0,0,3.63-5.49,4.961,4.961,0,0,0,.24-.96l1.29.87a.314.314,0,0,1,.19.24c0,.18-.39.29-.63.34Zm5.45,4.7c-.15,5.4-.45,6.49-3.15,6.73a2.139,2.139,0,0,0-1.12-1.65l.02-.1a9.689,9.689,0,0,0,1.74.25c.72,0,1.01-.17,1.23-1.53a29.682,29.682,0,0,0,.22-4.32h-3.03c-.09,2.35-1.09,6.42-5.82,7.29l-.03-.12a7.578,7.578,0,0,0,4.74-7.17h-.43a9.02,9.02,0,0,0-1.77.15l-.29-.6c.93.08,1.85.09,2.29.09h4.25l.41-.36a.455.455,0,0,1,.27-.17c.08,0,.15.07.21.13l.6.66a.363.363,0,0,1,.13.24c0,.14-.04.17-.46.47Zm2.73-.02c-1.6-.69-3.39-2.31-4.51-5.7h-1.2a7,7,0,0,0-1.26.09l-.2-.53c.68.06,1.33.08,1.64.08h.75l.48-.48c.13-.13.2-.16.27-.16.09,0,.15.07.25.16l.55.54a.279.279,0,0,1,.12.23c0,.3-.69.42-.96.46a7.027,7.027,0,0,0,5.5,4.02v.15a2.423,2.423,0,0,0-1.44,1.14Z" fill="#040000"/>
    <path id="パス_3177" data-name="パス 3177" d="M330.15,73.19l-.3-.3,13.26-13.26.3.3L330.15,73.19Z" fill="#040000"/>
    <path id="パス_3178" data-name="パス 3178" d="M344.08,61.16h4.99c2.29,0,3.81.9,3.81,2.43a2.575,2.575,0,0,1-1.04,1.98,3.45,3.45,0,0,1-1.49.66,4.149,4.149,0,0,1,2.01.75,2.739,2.739,0,0,1,1.14,2.12c0,1.33-1.17,3.01-4.08,3.01h-5.35v-.48h.6a.962.962,0,0,0,1.07-1.03V62.69a.963.963,0,0,0-1.07-1.03h-.6v-.5Zm2.86,4.92h2a2.286,2.286,0,0,0,2.55-2.31c0-1.35-.92-2.11-2.42-2.11h-1.06a.962.962,0,0,0-1.07,1.03v3.39Zm0,.48V70.6a.958.958,0,0,0,1.07,1.03h1.3a2.478,2.478,0,0,0,2.78-2.49,2.523,2.523,0,0,0-2.73-2.58h-2.42Z" fill="#040000"/>
    <path id="パス_3179" data-name="パス 3179" d="M358.27,63.45a.87.87,0,1,1-1.74,0,.87.87,0,1,1,1.74,0Zm0,5.91a.87.87,0,1,1-.87-.87A.87.87,0,0,1,358.27,69.36Z" fill="#040000"/>
    <path id="パス_3180" data-name="パス 3180" d="M360.99,68.49a20.946,20.946,0,0,0,3.51-4.98,6.987,6.987,0,0,0,.29-.88l1.21.95a.232.232,0,0,1,.09.19c0,.21-.24.21-.58.27-.24.34-.54.76-1.08,1.47.18.15.25.2.25.3s-.06.18-.39.42c-.04.65-.04,1.23-.04,1.7,0,.64.04,3.54.04,4.12,0,.78,0,1.2-.66,1.2-.27,0-.53-.09-.53-.42,0-.19.09-1.05.09-1.21.04-.92.03-1.3.06-4.72a9.413,9.413,0,0,1-2.21,1.71l-.06-.11Zm.06-4.39a13.961,13.961,0,0,0,3.48-4.56l1.12.81s.12.11.12.18c0,.17-.06.18-.63.3a11.8,11.8,0,0,1-4.02,3.39l-.08-.12Zm11.95.79.54-.75c.12-.18.18-.2.22-.2.09,0,.15.06.29.17l.88.75c.09.08.15.14.15.23,0,.15-.12.17-.22.17h-5.34l1.39.45c.09.03.2.07.2.18,0,.2-.36.41-.46.45v1.48h1.54l.54-.64c.12-.13.15-.18.24-.18s.12.03.29.17l.75.63a.284.284,0,0,1,.15.23c0,.13-.12.17-.23.17h-3.28c0,.21-.02,3.22-.02,3.3a16.668,16.668,0,0,0,2.24.17,9.744,9.744,0,0,0,2.42-.27v.06a2.252,2.252,0,0,0-.86,1.46c-.24.01-.5.04-.85.04-4.83,0-5.62-2.71-5.97-3.95a6.649,6.649,0,0,1-3.01,3.87l-.05-.06A9.865,9.865,0,0,0,367,66.78a2.949,2.949,0,0,0-.06-.67l1.53.49a.208.208,0,0,1,.17.21.214.214,0,0,1-.08.17c-.06.04-.38.2-.43.23a10.726,10.726,0,0,1-.41,1.47,5.416,5.416,0,0,0,1.94,2.49c0-3.95,0-4.2-.03-4.82-.01-.18-.11-.92-.12-1.06h-1.58a10.583,10.583,0,0,0-1.77.13l-.3-.6c1.04.09,2.1.1,2.31.1h1.46c0-.88,0-1.83-.01-2.64h-1.16a10.208,10.208,0,0,0-1.75.13l-.3-.58c.93.08,1.86.09,2.31.09h.9a6.557,6.557,0,0,0-.27-2.32l1.56.46c.12.03.21.07.21.18s-.37.43-.45.5v1.18h1.47l.58-.72c.09-.1.13-.18.24-.18s.15.04.27.15l.79.72c.08.07.15.13.15.24,0,.14-.13.15-.23.15h-3.3v2.64h2.37Z" fill="#040000"/>
    <path id="パス_3181" data-name="パス 3181" d="M389.44,65.12h-6.69l.53.12c.31.08.38.08.38.21s-.04.18-.38.36c0,.42.06,2.31.06,2.68,0,.9,0,1.35-1.57,1.8a2.2,2.2,0,0,0-1.28-1.38v-.09c.2,0,1.07.06,1.25.06.54,0,.54-.02.55-.56.02-.7,0-2.41-.01-3.21H378.2a10.583,10.583,0,0,0-1.77.13l-.3-.6c1.02.09,2.08.11,2.31.11h.71c0-2.66,0-2.94-.23-3.78l1.47.41c.22.06.28.12.28.25s-.04.17-.46.45v2.67h2.05c0-3.38,0-3.75-.03-4.26-.02-.33-.06-.67-.17-1.47l1.38.38c.17.04.29.09.29.25,0,.1,0,.17-.45.42V62h2.16l.58-.85c.06-.08.15-.2.24-.2s.18.09.27.17l.96.85c.09.09.15.14.15.23,0,.15-.12.17-.22.17h-4.14v2.38h4.12l.71-.9c.09-.12.18-.19.24-.19a.434.434,0,0,1,.27.17l.9.9c.11.11.15.17.15.23,0,.15-.12.17-.22.17Zm-8.52,1.81c-.06.03-.24.08-.37.12a11.191,11.191,0,0,1-4.07,3.93l-.06-.08a17.791,17.791,0,0,0,2.91-4.18,5.3,5.3,0,0,0,.29-.9l1.17.62c.13.08.25.13.25.32a.183.183,0,0,1-.12.18Zm4.59,2.67a12.5,12.5,0,0,1-8.43,3.58v-.11a14.444,14.444,0,0,0,6.65-3.4,6.627,6.627,0,0,0,1.33-1.49l.92.9c.12.12.18.19.18.29,0,.18-.06.18-.65.22Zm2.61.39c-.43,0-.64-.33-.93-.79a9.147,9.147,0,0,0-2.71-2.97l.06-.09c2.68.64,4.18,2.29,4.18,3.21A.629.629,0,0,1,388.12,69.99Z" fill="#040000"/>
    <path id="パス_3182" data-name="パス 3182" d="M391.66,62.34l-.13,3.78a3.172,3.172,0,0,1,2.33-1.04,3.213,3.213,0,0,1,3.19,3.43,3.808,3.808,0,0,1-3.7,3.87,2.694,2.694,0,0,1-2.83-2.21.852.852,0,0,1,.87-.93.74.74,0,0,1,.78.78,1.285,1.285,0,0,1-.08.45,2.194,2.194,0,0,0-.04.42c0,.65.68.98,1.28.98,1.21,0,2.35-1.16,2.35-3.17,0-1.91-1-2.96-2.1-2.96a3.277,3.277,0,0,0-2.34,1.3l-.22-.12.22-5.79h5.22l-.3,1.18h-4.49Z" fill="#040000"/>
    <path id="パス_3183" data-name="パス 3183" d="M402.52,61.76a12.992,12.992,0,0,1-4.65,5.1l-.07-.1a19.613,19.613,0,0,0,3.63-5.49,5.822,5.822,0,0,0,.24-.96l1.29.87c.08.04.2.13.2.24,0,.18-.39.29-.63.34Zm5.44,4.7c-.15,5.4-.45,6.49-3.15,6.73a2.139,2.139,0,0,0-1.12-1.65v-.1a10.04,10.04,0,0,0,1.75.25c.72,0,1-.17,1.23-1.53a31.323,31.323,0,0,0,.23-4.32h-3.03c-.09,2.35-1.09,6.42-5.82,7.29l-.03-.12a7.578,7.578,0,0,0,4.74-7.17h-.44a9.076,9.076,0,0,0-1.77.15l-.29-.6c.93.08,1.84.09,2.29.09h4.25l.4-.36a.455.455,0,0,1,.27-.17c.08,0,.15.07.21.13l.6.66a.363.363,0,0,1,.13.24c0,.14-.04.17-.46.47Zm2.73-.02c-1.61-.69-3.39-2.31-4.51-5.7h-1.2a7,7,0,0,0-1.26.09l-.2-.53c.67.06,1.33.08,1.63.08h.75l.48-.48c.13-.13.19-.16.27-.16s.15.07.25.16l.55.54a.279.279,0,0,1,.12.23c0,.3-.69.42-.96.46a7.027,7.027,0,0,0,5.5,4.02l.02.15a2.443,2.443,0,0,0-1.46,1.14Z" fill="#040000"/>
    <path id="パス_3184" data-name="パス 3184" d="M412.83,73.67l-.13-.21a10.145,10.145,0,0,0,0-14.1l.13-.21a9.183,9.183,0,0,1,0,14.52Z" fill="#040000"/>
    <path id="パス_3185" data-name="パス 3185" d="M13.32,66.53a6.66,6.66,0,1,1-6.66-6.66A6.664,6.664,0,0,1,13.32,66.53Z" fill="#af9f4b"/>
    <path id="パス_3186" data-name="パス 3186" d="M23.31,63.33a.217.217,0,0,1,.14.2c0,.13-.15.18-.47.27a1.66,1.66,0,0,1-.12.2c1.86.54,2.25,1.17,2.25,1.57a.512.512,0,0,1-.55.56c-.38,0-.52-.29-.68-.57a4.983,4.983,0,0,0-1.09-1.44,14.11,14.11,0,0,1-4.08,3.81l-.04-.06c1.46-1.48,3.08-3.4,3.56-5.17l1.09.65Zm-.92,5.38c0,.6.03,3.59.03,4.26,0,.24,0,.57-.63.57-.24,0-.4-.06-.4-.5,0-.08.04-1.84.04-2.07,0-.33.02-1.9.02-2.26a10.474,10.474,0,0,0-1.96.13l-.3-.6c1.2.09,2.07.1,2.31.1h2.01l.41-.33c.09-.07.15-.13.24-.13a.309.309,0,0,1,.2.11l.54.48s.12.12.12.2c0,.1-.1.21-.4.39,0,.24.06,1.47.06,1.75a1.018,1.018,0,0,1-.57,1.02,2.065,2.065,0,0,1-.75.3,1.8,1.8,0,0,0-.9-1.32v-.08c.2.03.81.09.95.09.22,0,.33-.02.33-.39V68.71H22.42Zm.48-2.01.3-.35c.07-.07.15-.19.24-.19s.18.08.29.15l.46.36c.08.06.15.12.15.22,0,.12-.11.17-.24.17H22.13a5.794,5.794,0,0,0-1.25.09l-.19-.53c.67.04,1.34.08,1.63.08h.54Zm6.72-4.71a8.364,8.364,0,0,0-.13-2.01l1.48.4a.246.246,0,0,1,.17.21c0,.17-.35.3-.5.39-.02.24.03,1.32.03,1.53a.618.618,0,0,1-.69.56c-.39,0-.39-.12-.36-.72H22.14c.02.38.02.42-.08.52a.792.792,0,0,1-.6.24c-.31,0-.38-.2-.38-.51a13.836,13.836,0,0,0-.12-2.67l1.42.42a.174.174,0,0,1,.12.18c0,.11-.05.13-.36.33,0,.18-.02.96-.02,1.12h3.24a11.558,11.558,0,0,0-.21-2.4l1.48.42s.14.06.14.17c0,.09,0,.15-.44.39,0,.22-.02,1.21,0,1.42h3.24ZM23.26,73.43c.96-.34,2.9-1.2,3.58-2.25l.97.65a.456.456,0,0,1,.1.19c0,.18-.18.2-.6.23a8.3,8.3,0,0,1-4.05,1.23l-.02-.04Zm5.62-9.36a15.269,15.269,0,0,1-1.09,1.32h2.5l.3-.34c.06-.06.11-.15.2-.15a.408.408,0,0,1,.25.13l.6.46s.1.11.1.17c0,.15-.29.34-.44.43,0,.62.07,3.59.07,4.26a2.014,2.014,0,0,1-.09.77,1.019,1.019,0,0,1-.59.25c-.4,0-.39-.25-.39-.48H26.67c.02.09-.03.54-.61.54-.39,0-.42-.13-.42-.46,0-.08.09-2.49.09-2.96a25.966,25.966,0,0,0-.15-3.1l1.09.48h.8c.03-.18.16-1.11.19-1.32h-.9a10.384,10.384,0,0,0-1.77.13l-.29-.6a22.047,22.047,0,0,0,2.29.1h3.83l.48-.55c.06-.06.12-.18.22-.18a.577.577,0,0,1,.29.15l.73.56a.283.283,0,0,1,.15.22c0,.17-.15.17-.24.17h-3.6Zm-2.19,1.68v1.32h3.64V65.75Zm0,1.68v1.38h3.64V67.43Zm0,1.74v1.37h3.64V69.17Zm2.42,2.19c1.66.22,2.2.4,2.73.84a1.211,1.211,0,0,1,.52.79.529.529,0,0,1-.52.57c-.25,0-.31-.06-.9-.69a5.09,5.09,0,0,0-1.85-1.42Z" fill="#040000"/>
    <path id="パス_3187" data-name="パス 3187" d="M40.31,61.49c-.03.92-.05,6.09.01,7.6,0,.12.03.8.03.85a.623.623,0,0,1-.69.71c-.41,0-.41-.27-.41-.42,0-.13.03-.72.03-.84H35.69c.02.3.03,1.12.03,1.3,0,.21,0,.69-.75.69-.39,0-.43-.2-.43-.39,0-.17.07-1.23.09-1.46,0-.11.11-4.49.11-6.01a15.507,15.507,0,0,0-.24-3.57l1.41.71h3.3l.31-.33c.08-.08.17-.17.23-.17s.18.11.24.15l.66.51a.307.307,0,0,1,.15.22c0,.14-.06.16-.49.44Zm-3.25-.46H35.71v3.66h1.35Zm0,4.02H35.71v3.99h1.35Zm2.25-4.02H37.98v3.66h1.33Zm0,4.02H37.98v3.99h1.33Zm7.88-3.18H44.4c-.03,1.48.06,7.99.06,9.33,0,.67,0,1.73-1.79,2-.19-.55-.49-1-1.77-1.47v-.09c.25,0,1.32.03,1.54.03.76,0,.88-.04.9-.57.04-3.45.04-8.22.03-9.22h-.63a10.208,10.208,0,0,0-1.75.13l-.3-.6c.93.07,1.84.1,2.29.1h2.26l.66-.78c.06-.07.17-.18.24-.18a.507.507,0,0,1,.29.15l.82.78c.09.09.15.14.15.24,0,.13-.14.15-.23.15Z" fill="#040000"/>
    <path id="パス_3188" data-name="パス 3188" d="M54.65,64.11a.259.259,0,0,1,.17.24c0,.18-.12.24-.62.39a59.445,59.445,0,0,1-4.12,5.62c.52-.06,2.23-.33,3.34-.6a5.667,5.667,0,0,0-1.11-1.51l.07-.12c.65.29,2.73,1.2,2.73,2.62a.67.67,0,0,1-.65.66c-.28,0-.45-.14-.61-.63-.08-.23-.23-.57-.31-.77a30.958,30.958,0,0,1-3.57,1.38c-.23.08-.36.13-.54.21-.15.3-.27.48-.38.48-.14,0-.24-.2-.27-.29l-.63-1.51a2.707,2.707,0,0,0,1,.15,5.17,5.17,0,0,0,.54-.03,52.348,52.348,0,0,0,2.8-5.06,5.749,5.749,0,0,0,.67-1.99l1.47.75Zm-6.01-1.02a4.649,4.649,0,0,1,1.69.71,16.414,16.414,0,0,0,1.47-3.58,3.411,3.411,0,0,0,.09-.73l1.42.76a.273.273,0,0,1,.16.22c0,.23-.42.3-.54.33a28.425,28.425,0,0,1-2.35,3.17,2.326,2.326,0,0,1,1.05,1.68.615.615,0,0,1-.61.65c-.45,0-.54-.23-.88-.96a6.018,6.018,0,0,0-1.56-2.12l.06-.12Zm4.75,10.12c3.04-2.34,3.55-5.43,3.72-9.7h-.44a11.047,11.047,0,0,0-1.77.13l-.3-.6c.86.08,1.74.11,2.52.11a13,13,0,0,0-.32-3.5l1.47.42c.18.04.25.15.25.22,0,.09-.04.18-.39.39,0,.73,0,1.41-.01,2.46h1.93l.41-.47a.463.463,0,0,1,.23-.12.449.449,0,0,1,.24.09l.66.46a.453.453,0,0,1,.19.29c0,.16-.21.33-.54.5.05,1.93.15,6.58-.91,8.29a2.717,2.717,0,0,1-2.02,1.25,2.381,2.381,0,0,0-1.3-1.67l.06-.1a7.72,7.72,0,0,0,1.45.21.908.908,0,0,0,.9-.42c.75-1.14.82-3.87.82-5.91,0-.93-.03-1.49-.05-2.04H58.12c-.1,5.08-1.05,7.91-4.66,9.84l-.07-.13Z" fill="#040000"/>
    <path id="パス_3189" data-name="パス 3189" d="M66.6,63.98l.36-.5c.06-.09.15-.19.25-.19s.15.08.26.16l.51.5c.09.07.15.13.15.22,0,.15-.13.17-.24.17h-1.6c0,.79,0,1-.02,1.7.87.27,1.94.93,1.94,1.68a.53.53,0,0,1-.52.57c-.44,0-.54-.36-.72-.91a2.576,2.576,0,0,0-.69-1.14c0,1.28-.02,6.41-.02,6.51a.671.671,0,0,1-.73.67.407.407,0,0,1-.44-.43c0-.15.09-.79.09-.93.11-1.89.15-4.62.15-5.08v-.24a9.028,9.028,0,0,1-2.71,3.22l-.08-.06a17.474,17.474,0,0,0,2.7-5.55h-.32a10.721,10.721,0,0,0-1.77.13l-.3-.6c.83.08,1.67.1,2.49.1V61.61a16.072,16.072,0,0,1-2.37.33v-.1a15.6,15.6,0,0,0,3.72-1.65,1.352,1.352,0,0,0,.41-.42l1.05.96a.434.434,0,0,1,.08.18c0,.15-.18.18-.26.18s-.28-.03-.4-.04c-.27.09-.57.18-1.25.34,0,.42-.03,2.22-.03,2.59h.31Zm6.01-.4V66.1h1.17l.43-.55c.06-.08.15-.18.23-.18a.523.523,0,0,1,.27.15l.61.55c.09.08.15.14.15.23,0,.15-.11.16-.24.16H72.61v2.5h1.14l.48-.56c.07-.09.15-.19.23-.19s.15.07.27.17l.67.55a.369.369,0,0,1,.15.24c0,.15-.13.15-.23.15H72.61v2.61h1.81l.59-.75c.09-.12.16-.2.23-.2a.575.575,0,0,1,.29.17l.73.75c.06.08.15.13.15.24,0,.15-.15.15-.23.15H69.85c.03.39.08,1.04-.69,1.04-.42,0-.42-.29-.42-.45,0-.18.05-1.02.05-1.2.03-1.02.04-3.46.06-6.76a13.049,13.049,0,0,1-1.14,1.45l-.09-.04c.66-1.26,2.13-4.8,1.98-6.42l1.4.63a.258.258,0,0,1,.17.21c0,.19-.2.27-.5.34-.23.55-.39.96-.89,2.1l.08.03h1.89a7.807,7.807,0,0,0,.7-3.06l1.43.66c.09.05.17.13.17.21,0,.13-.12.18-.51.31a10.63,10.63,0,0,1-1.52,1.88h2.16l.52-.59c.09-.11.15-.18.24-.18a.675.675,0,0,1,.27.15l.7.59c.08.08.15.15.15.24,0,.15-.15.15-.23.15H72.6Zm-.98,2.52V63.58h-1.8V66.1Zm0,2.87v-2.5h-1.8v2.5Zm0,2.97V69.33h-1.8v2.61Z" fill="#040000"/>
    <path id="パス_3190" data-name="パス 3190" d="M88.86,60.69l.43-.36a.426.426,0,0,1,.27-.13.454.454,0,0,1,.21.1l.64.56c.07.06.17.15.17.24,0,.18-.17.29-.5.51-.02.82-.03,2.55,0,5.25,0,.87.06,4.71.06,5.49a.757.757,0,0,1-.74.81c-.46,0-.43-.34-.4-.87H79.69a2.41,2.41,0,0,1-.02.5c-.04.33-.48.51-.75.51-.31,0-.39-.21-.39-.47,0-.19.08-1.09.08-1.27.04-1,.06-1.74.06-7.14a30.2,30.2,0,0,0-.15-4.34l1.29.62h9.04Zm-9.16.36V71.93h9.31V61.05Zm7.75,7.29a.358.358,0,0,1,.09.18c0,.2-.17.23-.29.23a1.533,1.533,0,0,1-.27-.02c-.48.2-.63.24-1.14.41.63.22,1.97.72,1.97,1.5a.483.483,0,0,1-.47.5c-.18,0-.25-.04-.84-.69a8.171,8.171,0,0,0-1.81-1.46c0,.29.04,1.68.04,1.83a.7.7,0,0,1-.69.67c-.24,0-.33-.21-.33-.45,0-.45.06-2.42.06-2.82a8.719,8.719,0,0,1-3.76,2.46l-.06-.09a13.483,13.483,0,0,0,3.42-3.16h-.89a.561.561,0,0,1-.6.57c-.39,0-.39-.27-.39-.44,0-.08.06-1.3.06-1.55a5.523,5.523,0,0,0-.1-1.18l1.12.45h3.4l.27-.25c.07-.08.15-.15.21-.15a.381.381,0,0,1,.21.12l.52.46a.259.259,0,0,1,.12.21c0,.06-.09.15-.35.38,0,.2.03,1.05.03,1.21a.514.514,0,0,1-.24.5l.69.58Zm-1.44-5.68.31-.45c.08-.12.15-.18.23-.18a.551.551,0,0,1,.29.15l.52.45c.08.06.16.13.16.22,0,.14-.14.17-.24.17H84.7v1.11h2.07l.44-.51c.09-.11.15-.18.24-.18a.507.507,0,0,1,.29.15l.6.51c.09.08.15.13.15.23,0,.15-.14.17-.23.17H82.05a11.047,11.047,0,0,0-1.77.13l-.3-.6a22.324,22.324,0,0,0,2.31.11h1.47V63.03H82.74a9.794,9.794,0,0,0-1.77.14l-.3-.6c.93.08,2.02.11,2.31.11h.78a5.8,5.8,0,0,0-.27-1.34l1.39.36c.09.03.2.06.2.18,0,.17-.15.25-.38.39v.41H86Zm.02,4.41V65.65H82.49v1.42Zm-1.33.36c-.02.64-.02,1.05-.02,1.41a5.378,5.378,0,0,1,.86.19,6.815,6.815,0,0,0,1.06-1.21c-.34.09-.57-.07-.57-.39H84.7Z" fill="#040000"/>
    <path id="パス_3191" data-name="パス 3191" d="M94.32,73.29V59.76H98.1v.65H94.95V72.65H98.1v.65H94.32Z" fill="#040000"/>
    <path id="パス_3192" data-name="パス 3192" d="M106.77,64.64h-2.95c0,.13,0,.9.02,1.54,1.11.3,2.44,1.2,2.44,2.03a.652.652,0,0,1-.58.69c-.4,0-.57-.34-.84-.96a3.765,3.765,0,0,0-1.02-1.47c0,.96.06,5.17.06,6.03,0,.69-.39.86-.69.86-.46,0-.46-.39-.46-.55,0-.74.13-3.96.15-4.62.01-.57.01-.93.01-1.26a13.263,13.263,0,0,1-3.49,4.12l-.09-.09a24.172,24.172,0,0,0,3.51-6.31h-1.06a9.552,9.552,0,0,0-1.77.13l-.3-.6c1.03.09,2.1.11,2.31.11h.89V61.8a15.158,15.158,0,0,1-2.89.22v-.13c1.63-.32,4.44-1.21,5.22-2.05l1,1.05a.283.283,0,0,1,.09.2c0,.12-.06.15-.23.15-.04,0-.41-.08-.48-.09-.33.09-.77.22-1.79.46V64.3h1.21l.53-.68c.09-.12.15-.18.22-.18a.571.571,0,0,1,.29.15l.78.67c.11.09.15.13.15.22,0,.13-.12.17-.23.17Zm5.4,7.98c-.5,0-.64-.52-.72-.85-.09-.41-.23-1.02-.27-1.2a50.324,50.324,0,0,1-5.26,1.38c-.05.04-.15.29-.19.33a.253.253,0,0,1-.18.08c-.09,0-.18-.04-.29-.29l-.57-1.34a5.975,5.975,0,0,0,.91.08c.18,0,.3,0,.76-.03,1.06-3.42,2.35-8.76,2.22-10.45l1.69.66c.08.03.21.11.21.24,0,.15-.06.18-.66.46a58.78,58.78,0,0,1-3.03,9.08,41.127,41.127,0,0,0,4.31-.45,11.05,11.05,0,0,0-1.71-3.06l.06-.08c1.84,1.08,3.4,3.31,3.4,4.6,0,.74-.51.84-.69.84Z" fill="#040000"/>
    <path id="パス_3193" data-name="パス 3193" d="M125.07,71.93l.78-.84c.08-.08.15-.2.24-.2s.18.08.28.17l1.04.84a.3.3,0,0,1,.15.22c0,.14-.12.17-.23.17H116.19a10.461,10.461,0,0,0-1.77.14l-.29-.6c.99.09,2.01.11,2.29.11h4.51c.35-.84,2.15-6.22,2.06-8.14l1.68.82a.27.27,0,0,1,.14.21c0,.16-.06.18-.6.41-.21.53-1.15,2.96-1.31,3.32a23.994,23.994,0,0,1-1.63,3.39h3.79Zm-.87-9.18.63-.84c.11-.13.16-.2.23-.2.09,0,.18.09.29.16l1.05.86c.09.07.14.13.14.21,0,.13-.11.17-.23.17h-9.18a11.32,11.32,0,0,0-1.77.13l-.28-.58c1.03.08,2.16.09,2.29.09h2.91a6.917,6.917,0,0,0-.39-2.88l1.8.45c.08.01.18.05.18.15,0,.15-.34.42-.54.59-.03.27-.03,1.46-.03,1.7h2.91Zm-7.17,1.39a8.659,8.659,0,0,1,2.56,5.61c0,.6-.35.96-.72.96-.6,0-.65-.69-.67-1.07a14.353,14.353,0,0,0-1.23-5.46l.06-.05Z" fill="#040000"/>
    <path id="パス_3194" data-name="パス 3194" d="M128.84,73.29v-.65h3.15V60.4h-3.15v-.65h3.78V73.28h-3.78Z" fill="#040000"/>
    <path id="パス_3195" data-name="パス 3195" d="M4.28,47.25,0,39.03,4.27,30.8l.49.27L.63,39.02l4.13,7.96-.49.27Zm1.85,0L1.86,39.02l4.27-8.23.49.27L2.51,39.01l4.11,7.96-.49.27Z" fill="#af9f4b"/>
    <path id="パス_3196" data-name="パス 3196" d="M15.58,36.29a.288.288,0,0,1,.19.27c0,.2-.14.27-.7.44a67.8,67.8,0,0,1-4.67,6.37c.59-.07,2.53-.37,3.79-.68a6.342,6.342,0,0,0-1.26-1.72l.09-.14c.73.32,3.09,1.36,3.09,2.97a.765.765,0,0,1-.73.75c-.32,0-.51-.15-.7-.71-.09-.25-.26-.65-.36-.87a34.063,34.063,0,0,1-4.05,1.56,5.18,5.18,0,0,0-.61.24c-.17.34-.31.54-.42.54-.15,0-.27-.22-.31-.32l-.71-1.72a3.035,3.035,0,0,0,1.14.17c.2,0,.39-.02.61-.03a59.537,59.537,0,0,0,3.18-5.73,7.191,7.191,0,0,0,.77-2.26l1.67.85ZM8.76,35.13a5.325,5.325,0,0,1,1.92.8,18.551,18.551,0,0,0,1.67-4.06,4.864,4.864,0,0,0,.1-.83l1.61.87a.319.319,0,0,1,.19.25c0,.25-.48.34-.61.37a31.306,31.306,0,0,1-2.67,3.59,2.6,2.6,0,0,1,1.19,1.9.7.7,0,0,1-.7.73c-.51,0-.61-.25-1-1.09a6.9,6.9,0,0,0-1.77-2.4l.07-.14ZM14.15,46.6c3.45-2.65,4.03-6.15,4.22-11h-.49a12.4,12.4,0,0,0-2.01.15l-.34-.68c.97.08,1.97.12,2.86.12a15.022,15.022,0,0,0-.36-3.96l1.67.48c.2.05.29.17.29.25,0,.1-.05.2-.44.44,0,.83,0,1.6-.02,2.79h2.19l.46-.53s.15-.14.25-.14a.453.453,0,0,1,.27.1l.75.53a.523.523,0,0,1,.22.32c0,.19-.24.37-.61.56.05,2.19.17,7.46-1.04,9.4a3.136,3.136,0,0,1-2.29,1.41,2.678,2.678,0,0,0-1.48-1.89l.07-.12a8.788,8.788,0,0,0,1.65.24,1.009,1.009,0,0,0,1.02-.48c.85-1.29.94-4.39.94-6.7,0-1.05-.03-1.68-.05-2.31H19.53c-.12,5.76-1.19,8.96-5.29,11.15l-.09-.15Z" fill="#af9f4b"/>
    <path id="パス_3197" data-name="パス 3197" d="M29.56,36.14l.41-.56c.07-.1.17-.22.29-.22.1,0,.17.08.29.19l.58.56c.1.08.17.15.17.25,0,.17-.15.19-.27.19H29.21c0,.9,0,1.14-.02,1.92.99.31,2.19,1.05,2.19,1.9a.6.6,0,0,1-.6.65c-.49,0-.61-.41-.82-1.04a2.882,2.882,0,0,0-.78-1.29c0,1.45-.02,7.26-.02,7.38a.757.757,0,0,1-.83.76.452.452,0,0,1-.49-.49c0-.17.1-.9.1-1.05.12-2.14.17-5.24.17-5.76v-.27a10.193,10.193,0,0,1-3.08,3.65l-.09-.07A19.582,19.582,0,0,0,28,36.55h-.36a11.945,11.945,0,0,0-2.01.15l-.34-.68c.94.09,1.89.12,2.82.12V33.45a16.773,16.773,0,0,1-2.69.37V33.7a18.094,18.094,0,0,0,4.22-1.87,1.59,1.59,0,0,0,.46-.48l1.19,1.09a.279.279,0,0,1,.08.2c0,.17-.2.2-.29.2s-.32-.03-.46-.05c-.31.1-.65.2-1.41.39,0,.48-.03,2.52-.03,2.94h.36Zm6.82-.46v2.86h1.33l.49-.63c.07-.08.17-.2.25-.2a.64.64,0,0,1,.31.17l.7.63c.1.08.17.15.17.25,0,.17-.12.19-.27.19H36.39v2.84h1.29l.54-.63c.09-.1.17-.22.25-.22.1,0,.17.08.31.19l.77.63a.385.385,0,0,1,.17.27c0,.17-.15.17-.25.17H36.39v2.96h2.06l.66-.85c.1-.14.19-.22.25-.22a.625.625,0,0,1,.32.19l.83.85c.07.08.17.15.17.27,0,.17-.17.17-.25.17H33.26c.03.44.08,1.17-.78,1.17-.48,0-.48-.32-.48-.51s.05-1.16.05-1.36c.03-1.16.05-3.93.07-7.67a15.3,15.3,0,0,1-1.29,1.65l-.1-.05c.75-1.43,2.41-5.44,2.24-7.28l1.58.71a.305.305,0,0,1,.19.24c0,.22-.22.31-.56.39-.25.63-.44,1.09-1,2.38l.09.03h2.14a8.909,8.909,0,0,0,.8-3.47l1.61.75a.32.32,0,0,1,.19.24c0,.15-.14.2-.58.36a11.387,11.387,0,0,1-1.72,2.12h2.45l.6-.66c.1-.12.17-.2.27-.2a.741.741,0,0,1,.31.17l.8.66a.405.405,0,0,1,.17.27c0,.17-.17.17-.26.17H36.4Zm-1.11,2.86V35.68H33.23v2.86Zm0,3.25V38.95H33.23v2.84Zm0,3.37V42.2H33.23v2.96Z" fill="#af9f4b"/>
    <path id="パス_3198" data-name="パス 3198" d="M55.21,32.41,55.7,32a.53.53,0,0,1,.31-.15.457.457,0,0,1,.24.12l.73.63c.09.07.19.17.19.27,0,.2-.19.32-.56.58-.02.93-.03,2.89,0,5.95,0,.99.07,5.34.07,6.22a.858.858,0,0,1-.83.92c-.53,0-.49-.39-.46-.99H44.83a2.314,2.314,0,0,1-.02.56c-.05.37-.54.58-.85.58-.36,0-.44-.24-.44-.53,0-.22.09-1.24.09-1.45.05-1.14.07-1.97.07-8.09a33.479,33.479,0,0,0-.17-4.91l1.46.7H55.22Zm-10.39.41V45.14H55.38V32.82Zm8.79,8.26a.3.3,0,0,1,.1.2c0,.22-.19.26-.32.26a2.023,2.023,0,0,1-.31-.02c-.54.22-.71.27-1.29.46.71.25,2.23.82,2.23,1.7a.534.534,0,0,1-.53.56c-.2,0-.29-.05-.95-.78a8.8,8.8,0,0,0-2.06-1.65c0,.32.05,1.9.05,2.07a.791.791,0,0,1-.78.76c-.27,0-.37-.24-.37-.51,0-.51.07-2.74.07-3.2a9.755,9.755,0,0,1-4.27,2.79l-.07-.1a15.2,15.2,0,0,0,3.88-3.59h-1a.64.64,0,0,1-.68.65c-.44,0-.44-.31-.44-.49,0-.08.07-1.48.07-1.75a5.714,5.714,0,0,0-.12-1.34l1.27.51h3.86l.31-.29c.09-.08.17-.17.24-.17a.433.433,0,0,1,.24.14l.59.53a.308.308,0,0,1,.14.24c0,.07-.1.17-.39.42,0,.22.03,1.19.03,1.38a.581.581,0,0,1-.27.56l.78.66Zm-1.63-6.44.36-.51c.08-.14.17-.2.25-.2a.61.61,0,0,1,.32.17l.59.51c.09.07.19.15.19.25,0,.15-.15.19-.27.19H50.5v1.26h2.35l.49-.58c.1-.12.17-.2.27-.2a.56.56,0,0,1,.32.17l.68.58c.1.08.17.15.17.25,0,.17-.15.19-.25.19H47.49a12.4,12.4,0,0,0-2.01.15l-.34-.68a25.521,25.521,0,0,0,2.62.12h1.67V35.05H48.27a11.821,11.821,0,0,0-2.01.15l-.34-.68c1.05.08,2.29.12,2.62.12h.88a5.909,5.909,0,0,0-.31-1.51l1.58.41c.1.03.22.07.22.2,0,.19-.17.29-.43.44v.46h1.48Zm.02,5V38.02H47.99v1.62Zm-1.51.41c-.02.73-.02,1.19-.02,1.6a5.491,5.491,0,0,1,.97.22,7.983,7.983,0,0,0,1.21-1.38c-.39.1-.65-.08-.65-.44Z" fill="#af9f4b"/>
    <path id="パス_3199" data-name="パス 3199" d="M60.19,47.25l-.49-.27,4.11-7.96L59.7,31.07l.49-.27,4.27,8.23-4.27,8.23Zm1.85,0-.49-.27,4.13-7.96-4.13-7.95.49-.27,4.27,8.23-4.27,8.23Z" fill="#af9f4b"/>
  </g>
</svg>
