<svg id="area02-01-sp" xmlns="http://www.w3.org/2000/svg" width="750.5" height="67.727" viewBox="0 0 750.5 67.727">
  <line id="線_19" data-name="線 19" x2="750.5" transform="translate(0 65.124)" fill="none" stroke="#bba579" stroke-miterlimit="10" stroke-width="2"/>
  <path id="パス_131" data-name="パス 131" d="M29.34-72.84a22.45,22.45,0,0,1,8.619,1.8,16.064,16.064,0,0,1,6.455,4.878,11.7,11.7,0,0,1,2.457,7.409q0,7.922-5.392,10.966T27.726-44.158q-.954.073-4.181.073H19.364V-26.26a4.083,4.083,0,0,0,1.467,3.594,8.687,8.687,0,0,0,4.841,1.027h1.174q.513,0,.513.954,0,1.1-.513,1.1H6.013q-.513,0-.513-1.027t.513-1.027H7.187a8.769,8.769,0,0,0,4.731-1.027A3.96,3.96,0,0,0,13.5-26.26v-39.9a4.012,4.012,0,0,0-1.54-3.558,8.5,8.5,0,0,0-4.768-1.064H6.013q-.513,0-.513-1.027t.513-1.027H29.34ZM25.086-46.212q8.216-.073,11.59-3.521t3.374-9.316q0-7.482-4.878-9.609a24.315,24.315,0,0,0-9.793-2.127q-6.015,0-6.015,4.621v19.952h5.722Zm78.049,20.759q.587,0,.587.513l-.073.44a8.038,8.038,0,0,1-3.3,4.475,8.171,8.171,0,0,1-4.181,1.32,5.044,5.044,0,0,1-3.668-1.43,7.769,7.769,0,0,1-2.054-3.778,17.687,17.687,0,0,1-6.088,4,18.706,18.706,0,0,1-6.9,1.357A11.035,11.035,0,0,1,70.6-20.538,6.448,6.448,0,0,1,68-25.966a9.041,9.041,0,0,1,1.174-4.695,10.328,10.328,0,0,1,3.814-3.521,22.36,22.36,0,0,1,4.255-1.761q2.567-.807,7.042-1.981L90.3-39.61v-3.154a26.8,26.8,0,0,0-.367-5.208,6.93,6.93,0,0,0-1.467-3.008q-1.614-1.981-5.5-1.981a5.761,5.761,0,0,0-4.108,1.32,10.1,10.1,0,0,0-2.347,4.035q-1.247,3.521-3.594,3.521a3.74,3.74,0,0,1-2.384-.844,2.713,2.713,0,0,1-1.064-2.237,7.208,7.208,0,0,1,.99-3.264,9.092,9.092,0,0,1,4.035-3.448q3.044-1.577,8.693-1.577a17.4,17.4,0,0,1,6.272,1.137,9.166,9.166,0,0,1,4.218,2.824,9.264,9.264,0,0,1,1.5,3.191,16.7,16.7,0,0,1,.4,3.924q0,3.448-.073,6.088l-.073,10.636q0,3.008,1.137,4.035a3.388,3.388,0,0,0,2.237,1.027,4.01,4.01,0,0,0,2.017-.624,5.1,5.1,0,0,0,1.8-1.871A.619.619,0,0,1,103.135-25.453ZM80.1-22.078a12.924,12.924,0,0,0,5.282-1.21,13.4,13.4,0,0,0,4.695-3.484v-.22l.147-9.9q-5.648,1.394-9.059,2.6a15.33,15.33,0,0,0-5.318,2.971,5.66,5.66,0,0,0-1.907,4.328,4.742,4.742,0,0,0,1.43,3.484Q76.8-22.078,80.1-22.078ZM145.46-55.455a6.124,6.124,0,0,1,3.741,1.137,3.462,3.462,0,0,1,1.54,2.9,2.841,2.841,0,0,1-.917,2.127,3.2,3.2,0,0,1-2.311.88,5.524,5.524,0,0,1-2.787-1.1q-1.1-.587-1.761-.88a3.573,3.573,0,0,0-1.467-.293,6.7,6.7,0,0,0-3.814,1.467,22.032,22.032,0,0,0-4.108,3.961L133.5-24.573a2.384,2.384,0,0,0,1.284,2.421,8.522,8.522,0,0,0,3.484.587h.954q.587,0,.587,1.027,0,.954-.587.954H122.794q-.513,0-.513-.954,0-1.027.513-1.027h.954a8.3,8.3,0,0,0,3.411-.587,2.384,2.384,0,0,0,1.284-2.421l-.22-22.593a3.2,3.2,0,0,0-.7-2.274,3.006,3.006,0,0,0-1.614-.917q-.917-.183-3.191-.477a.636.636,0,0,1-.55-.367,2.656,2.656,0,0,1-.11-.88.63.63,0,0,1,.367-.66q1.1-.44,11.15-2.787v7.189a29.913,29.913,0,0,1,5.905-5.1A11.058,11.058,0,0,1,145.46-55.455Zm62.791,33.89q.587,0,.587.954,0,1.027-.587,1.027H191.894a.571.571,0,0,1-.513-.22,1.564,1.564,0,0,1-.147-.807q0-.954.66-.954h.88a3.536,3.536,0,0,0,2.127-.587,1.756,1.756,0,0,0,.807-1.467,2.2,2.2,0,0,0-.367-1.174q-.44-.734-3.631-4.915t-4.585-6.015L185.439-38l-5.575,5.355v8a2.447,2.447,0,0,0,1.32,2.457,8.125,8.125,0,0,0,3.448.624h.954q.513,0,.513.954,0,1.027-.513,1.027H169.154q-.587,0-.587-1.027,0-.954.587-.954h.954a8.3,8.3,0,0,0,3.411-.587,2.452,2.452,0,0,0,1.284-2.494l-.22-40.492q0-2.274-1.43-3.008a9.107,9.107,0,0,0-4.071-.734q-.513,0-.624-.33a2.715,2.715,0,0,1-.11-.844.623.623,0,0,1,.44-.66q1.1-.367,11.15-2.787l-.073,37.411L193.874-49.44a2.148,2.148,0,0,0,.513-1.32,1.756,1.756,0,0,0-.807-1.467,4.263,4.263,0,0,0-2.494-.587h-.954q-.587,0-.587-.954,0-1.027.587-1.027h16.358q.66,0,.66,1.027,0,.954-.66.954h-.88a10.033,10.033,0,0,0-3.594.734,10.6,10.6,0,0,0-3.3,1.981q-3.814,3.3-9.829,8.949L201.8-24.719q2.494,3.154,5.575,3.154Z" transform="translate(23.295 73.5)" fill="#bba579"/>
  <line id="線_20" data-name="線 20" x2="212.222" transform="translate(20 65.227)" fill="none" stroke="#bba579" stroke-miterlimit="10" stroke-width="5"/>
</svg>
