<?xml version="1.0" encoding="UTF-8"?>
<svg id="_レイヤー_2" data-name="レイヤー 2" xmlns="http://www.w3.org/2000/svg" viewBox="0 0 443.93 57">
  <defs>
    <style>
      .cls-1, .cls-2 {
        stroke-width: 0px;
      }

      .cls-2 {
        fill: #1c2c5a;
      }
    </style>
  </defs>
  <g id="_レイヤー_1-2" data-name="レイヤー 1">
    <g>
      <g>
        <path class="cls-1" d="m31.7,17.64c-.18.15-.42.33-.57.48-.12,3.75-.48,5.52-2.91,5.82-.24-.87-.6-1.29-1.8-1.83l.06-.18c.33.03,1.83.12,1.95.12.96,0,.99-.3,1.2-2.22.12-1.2.09-1.56.06-2.25h-3.81c0,1.59,0,5.91.09,8.49,0,.24.09,1.32.09,1.53,0,.75-.48,1.29-1.05,1.29-.48,0-.69-.3-.69-.66,0-.24.09-1.08.09-1.23v-1.68c0-1.83.03-3.63.06-5.43-1.68,2.58-4.5,5.58-7.05,7.05l-.09-.18c2.31-2.25,5.01-5.46,6.84-9.18h-3.27c-.21,1.32-.27,1.74-.36,1.95-.18.51-.66.78-1.02.78-.45,0-.69-.36-.69-.63,0-.12.54-2.28.63-2.67.42-1.98.87-4.23.87-6l1.74,1.38h2.4v-3.93h-1.29c-.93,0-2.61.12-3.84.36l-.72-1.29c1.68.12,3.33.21,4.98.21h2.76c.6-.9,1.08-2.43,1.32-3.12.45-1.29.63-2.16.6-2.82l2.07.99c.18.09.42.21.42.45,0,.45-.69.57-1.05.6-2.34,3.3-2.4,3.36-2.88,3.9h2.07l.57-.48c.12-.12.27-.24.39-.24.09,0,.27.09.39.18l.81.6c.18.12.33.27.33.45,0,.24-.45.48-.87.69.06.51.18,3.84.18,4.41,0,.69-.57.9-1.17.9-.51,0-.51-.09-.48-1.14h-3.18v3.75h3.42l.63-.69c.09-.12.27-.33.42-.33s.3.15.48.33l.72.66c.12.12.33.36.33.51,0,.12-.09.24-.18.3Zm-8.91-10.95c-.69,0-.78-.42-1.05-1.53-.36-1.5-.78-2.16-1.71-3.15l.12-.15c.81.36,3.57,1.77,3.57,3.75,0,.45-.18,1.08-.93,1.08Zm1.68,6.42h-2.73c-.36,1.56-.45,2.13-.72,3.75h3.45v-3.75Zm4.59-4.65h-3.18v3.93h3.18v-3.93Zm2.55,18.36c-.45,0-.78-.33-.78-.84,0-.21.12-.51.72-1.95.39-.99.36-1.29.33-1.74l.12-.06c.33.51.9,1.32.9,2.64s-.66,1.95-1.29,1.95Zm13.38-10.44h-10.59v2.82h7.62l.69-.72c.12-.12.24-.24.36-.24s.3.09.51.27l.9.69c.18.12.48.36.48.54s-.3.36-.99.72c-.39,3.99-1.23,6.06-1.86,6.84-.18.21-1.32,1.47-3.57,1.5-.21-1.08-.9-1.74-1.56-2.37l.12-.15c1.35.42,2.46.48,2.7.48,2.1,0,2.43-4.26,2.61-6.84h-8.01c0,.45.03,1.14-.96,1.14-.6,0-.72-.27-.72-.57,0-.45.06-2.46.06-2.88.03-3.45.09-8.49.09-11.79,0-.84-.03-1.17-.18-2.34l1.95,1.26h1.17c.69-2.31.66-3.15.63-3.66l1.86.9c.51.24.54.39.54.51,0,.33-.39.36-.87.33-.21.3-.72.99-1.65,1.92h4.35l.63-.66c.18-.18.33-.33.45-.33.15,0,.27.09.36.15l1.11.81c.12.09.21.15.21.33,0,.3-.36.48-1.05.87.06.63.12,2.76.15,3.75.03.78.21,2.34.21,2.88,0,.9-.81,1.11-1.14,1.11-.63,0-.66-.3-.66-.93h-6.54v2.94h7.59l.78-1.02c.09-.12.33-.36.48-.36.18,0,.45.21.57.3l1.32,1.05c.15.12.3.24.3.45,0,.27-.24.3-.45.3Zm-9.93,9.72c-.6,0-.75-.42-.75-.81,0-.21.09-1.2.09-1.41,0-.75-.12-1.17-.27-1.59l.15-.06c1.65,1.17,1.68,2.64,1.68,2.79,0,.66-.39,1.08-.9,1.08Zm5.88-20.64h-6.54v2.94h6.54v-2.94Zm0,3.66h-6.54v2.88h6.54v-2.88Zm-3.42,15.75c-.57,0-.6-.3-.63-1.2,0-.51-.12-1.14-.18-1.5-.06-.39-.09-.45-.27-.75l.12-.06c1.62,1.14,1.74,2.19,1.74,2.67,0,.69-.54.84-.78.84Zm2.61-1.17c-.6,0-.63-.18-.96-1.56-.15-.63-.3-.87-.66-1.2l.06-.15c1.77.45,2.19,1.59,2.19,2.1,0,.18-.09.81-.63.81Z"/>
        <path class="cls-1" d="m64.55,25.56c8.97-3.09,9.39-9.54,9.39-11.1,0-5.25-4.98-8.07-9.39-8.07-.63,0-.81.06-1.11.15,1.47,1.23,1.47,2.13,1.47,2.28,0,.36-.09.48-.72,1.8-3.66,7.68-3.99,8.43-5.7,10.98-.15.21-1.11,1.62-1.71,1.86-.18.09-.39.12-.57.12-.69,0-.9-.33-1.74-1.53-.21-.3-.39-.45-.81-.81-1.17-.96-1.56-2.01-1.56-4.05,0-6.03,5.07-11.7,12.75-11.7,5.49,0,10.92,3.12,10.92,9.33,0,5.49-4.41,10.41-11.16,11.07l-.06-.33Zm-3.39-11.67c.9-1.68,1.77-4.02,1.77-5.22,0-1.02-.6-1.65-.84-1.92-3.36.27-8.43,4.71-8.43,10.59,0,2.28,1.44,4.29,2.61,4.29.18,0,.39-.03.57-.21.66-.66,1.2-1.65,1.74-2.64l2.58-4.89Z"/>
        <path class="cls-1" d="m107,23.94c-2.37-1.68-4.32-3.27-6.51-6.36-1.74-2.4-3.15-5.04-3.93-7.89h-.24c0,4.65.06,9.27.21,13.92.03.57.18,3.12.18,3.57,0,1.05-1.05,1.44-1.44,1.44-.84,0-.84-.54-.84-.75,0-.42.21-2.28.21-2.64.12-2.64.09-3.75.18-13.8-.96,1.86-2.49,4.89-6.12,8.49-2.4,2.4-4.71,3.78-6.15,4.62l-.12-.24c5.04-4.32,9.27-9.69,11.4-14.61h-6.54c-1.05,0-2.73.12-3.87.33l-.69-1.29c2.25.18,4.41.24,4.98.24h7.11c0-3.21-.3-5.58-.36-6.03-.06-.45-.15-.72-.51-1.77l3.15.78c.27.06.33.21.33.36,0,.39-.15.48-1.05,1.02-.06.9-.03,4.83-.06,5.64h8.52l1.2-1.44c.09-.12.33-.36.48-.36.18,0,.39.21.57.36l1.5,1.38c.18.15.3.3.3.45,0,.27-.27.33-.45.33h-11.52c.66,1.53,3.24,6.54,7.65,9.54.33.24,3.42,2.34,5.76,2.76v.24c-1.86.09-2.46.75-3.33,1.71Z"/>
        <path class="cls-1" d="m141.71,5.58h-7.86l1.32.9c.12.09.3.21.3.45,0,.27-.21.3-.81.39-.57.81-2.43,2.82-3.09,3.42h6.09l.66-.81c.12-.15.27-.33.45-.33s.36.15.51.27l1.17.87c.12.09.3.21.3.42,0,.3-.69.78-.93.99.03.45.03.96.06,5.37,0,.9.06,5.28.06,6.27,0,2.49,0,3.72-2.91,4.44,0-1.23-1.02-2.01-2.25-2.64v-.24c.72.12,2.1.27,2.82.27.45,0,.72-.06.75-.57,0-.06.03-3.24.03-3.87,0-1.89-.03-6.57-.06-9.72h-6.66c-.03.87,0,3.42,0,3.63,0,.45.09.6,2.04.6.93,0,2.34,0,2.7-2.43l.21-.03c.06,1.35.15,1.56.57,1.65.21.06.42.06.42.3,0,.15-.21,1.02-1.05,1.41-.72.36-1.71.48-3.03.48-3,0-3.42-.51-3.42-2.43,0-.42,0-2.13.03-3.18h-3.03l.36.36c.15.15.24.24.24.42s-.21.27-.36.33c-.15.06-.51.21-.6.24-1.59,3.21-3.99,5.28-6.48,6.15l-.15-.27c.93-.6,3.84-2.52,5.25-7.23h-5.91c.03,1.14.03,1.32.03,3.03,0,4.77,0,5.31.06,7.47,0,.6.12,4.35.12,4.71,0,.45,0,1.62-1.23,1.62-.69,0-.72-.39-.72-.69,0-.15.06-.81.06-.96.09-2.28.12-7.83.12-11.01,0-2.46,0-5.07-.42-6.45l2.46,1.56h11.16c.6-.96,1.56-3,1.92-5.16h-12.78c-.9,0-2.61.12-3.87.36l-.69-1.29c1.56.12,3.42.21,4.98.21h7.35c-.03-2.55-.36-3.09-.72-3.66l2.82.66c.12.03.51.12.51.42s-.21.45-.96.93v1.65h8.31l1.08-1.38c.21-.27.33-.39.48-.39.18,0,.39.18.57.33l1.77,1.38c.12.09.3.27.3.45,0,.33-.33.33-.45.33Zm-16.5,4.41c-.84,0-1.02-.81-1.2-1.59-.36-1.59-.75-1.98-1.26-2.49l.15-.12c.9.42,3.21,1.56,3.21,3.18,0,.75-.54,1.02-.9,1.02Zm8.31,10.05c-.03.72,0,2.73.03,3.57,0,.27.12,1.59.12,1.65,0,.27-.03.84-.96.84-.72,0-.72-.24-.69-.99h-6.75c.03.48.03.54,0,.69-.12.42-.78.75-1.08.75-.48,0-.48-.33-.48-.57,0-.42.09-2.16.09-2.52,0-.84.06-2.55.06-3.18,0-.45-.09-1.53-.24-2.49l2.04,1.08h6.06l.54-.57c.15-.18.24-.3.42-.3.12,0,.3.15.42.21l1.02.66c.15.09.27.21.27.45s-.12.36-.87.72Zm-1.47-.45h-6.78v4.8h6.78v-4.8Z"/>
        <path class="cls-1" d="m174.56,6.48h-21.21c.12,9.51.18,17.37-4.71,21.84l-.18-.15c2.4-3.51,3.33-8.04,3.33-17.31,0-3.48-.15-4.5-.57-6.39l2.46,1.29h7.29c0-2.58-.09-3.09-.66-4.47l2.88.6c.09.03.54.15.54.42,0,.24-.15.36-.3.48-.21.15-.36.24-.78.51v2.46h8.46l1.11-1.2c.3-.33.33-.36.48-.36s.45.21.57.3l1.44,1.2c.15.12.3.27.3.48,0,.27-.24.3-.45.3Zm-1.44,6.21h-9.18v5.61h5.43l.72-.84c.3-.36.36-.39.48-.39.09,0,.39.21.57.36l.96.72c.24.18.48.36.48.51,0,.21-.72.63-1.11.9,0,.33.03,6,.12,7.14.03.39.06.63.06.78,0,.9-.6,1.32-1.17,1.32-.6,0-.66-.33-.66-.57,0-.15.06-.78.06-.93h-11.61c.03.93.03,1.71-1.23,1.71-.3,0-.66-.12-.66-.45,0-.15.09-.66.09-.78.12-1.41.18-2.91.18-4.8,0-2.76-.09-3.57-.27-6.03l2.01,1.35h3.99c0-1.08,0-5.79-.06-6.75-.15-2.79-.36-3.36-.6-3.99l2.64.66c.3.09.51.15.51.39,0,.39-.6.66-.93.81v2.55h5.79l1.14-1.26c.3-.33.33-.36.48-.36.18,0,.36.15.54.33l1.41,1.26c.15.12.27.24.27.45,0,.27-.27.3-.45.3Zm-3.24,6.33h-11.61v7.56h11.61v-7.56Z"/>
        <path class="cls-1" d="m188.3,3.78c-2.01,2.37-4.5,4.26-7.23,5.73l-.12-.15c2.1-1.92,5.88-5.4,6.57-8.07l1.77,1.74c.12.12.27.3.27.45,0,.39-.57.33-1.26.3Zm-.12,6.54c-.6.81-.93,1.29-1.44,1.98l.66.24c.45.18.51.18.51.36,0,.15-.09.24-.15.3-.09.09-.54.36-.66.45-.03,1.86.12,11.1.12,13.17,0,.93,0,1.08-.12,1.29-.18.27-.81.57-1.2.57-.57,0-.57-.48-.57-.63,0-.87.15-5.13.18-6.09.03-.96.03-1.68.03-8.1-2.07,2.61-3.48,3.69-4.26,4.29l-.12-.12c2.7-3,5.34-7.71,5.85-10.02l1.8,1.38c.33.27.45.33.45.45,0,.27-.12.27-1.08.48Zm12.39,2.55h-7.41c-1.05,0-2.7.12-3.84.36l-.72-1.29c1.47.12,2.91.18,4.95.21v-4.44c-1.53,0-3.09.15-4.05.36l-.72-1.29c2.49.18,4.74.21,4.77.21,0-4.29-.12-4.59-.51-5.76l2.52.75c.33.09.42.21.42.39,0,.39-.42.63-.99.9-.03.6,0,3.21,0,3.72h2.46l.51-.63c.21-.27.3-.39.45-.39.09,0,.15.03.57.33l.93.63c.15.12.33.27.33.48,0,.27-.27.3-.48.3h-4.77v4.44h2.85l.78-.99c.21-.27.3-.36.45-.36.21,0,.51.27.6.33l1.08.96c.18.18.3.3.3.45,0,.3-.27.33-.48.33Zm-9.57,12.3c-.24.6-.33.84-.66.84-.18,0-.24-.12-.39-.45l-1.14-2.28c.21,0,1.17.09,1.38.09.27,0,1.29-.06,3.39-.42,0-.78-.03-4.2-.03-4.89-1.53,0-3.09.15-4.05.33l-.72-1.29c2.46.21,4.74.24,4.77.24-.03-3.06-.03-3.39-.27-4.08l2.07.39c.27.06.57.09.57.36,0,.21-.39.45-.93.75,0,.57,0,1.71-.03,2.58h2.1l.9-.93c.33-.36.39-.36.48-.36.15,0,.42.21.57.33l1.02.87c.15.12.33.3.33.48,0,.27-.24.33-.48.33h-4.92c0,1.23-.03,3.51,0,4.65,3.51-.63,5.07-.99,6.45-1.35l.09.24c-3.09,1.26-5.88,2.19-10.5,3.57Zm17.7-12.36h-3.75c.03,1.95.21,12.03.06,13.23-.21,1.89-2.31,2.52-3.12,2.61-.51-1.41-1.59-2.19-2.46-2.4l.06-.18c.36,0,2.1.09,2.31.09.96,0,1.29-.12,1.47-.42.21-.3.21-2.55.21-3.12,0-1.14,0-2.28-.03-3.42-.03-2.13-.06-4.26-.09-6.39-.39,0-1.2.03-1.8.18l-.3-.99c.45.03,1.62.09,2.13.09h2.58l.87-1.08c.33-.42.36-.45.51-.45.09,0,.21.06.48.36l1.02,1.08c.27.27.33.33.33.48,0,.27-.21.33-.48.33Zm-.99-7.17h-5.22c-.48,0-1.17.03-1.65.15l-.3-.99c.54.03,1.68.12,2.13.12h2.55l.51-.87c.15-.24.27-.42.45-.42.15,0,.21,0,.57.3l1.14.93c.15.12.3.24.3.45,0,.24-.18.33-.48.33Z"/>
        <path class="cls-1" d="m223.05,26.62c-1.2-.96-5.59-5.06-5.59-11.62s4.39-10.66,5.59-11.62l.24.34c-3.91,4.06-4.78,8.5-4.78,11.28s.86,7.22,4.78,11.28l-.24.34Z"/>
        <path class="cls-1" d="m238.94,17.11c-.14.12-.34.26-.46.38-.1,3-.38,4.42-2.33,4.66-.19-.7-.48-1.03-1.44-1.46l.05-.14c.26.02,1.46.1,1.56.1.77,0,.79-.24.96-1.78.1-.96.07-1.25.05-1.8h-3.05c0,1.27,0,4.73.07,6.79,0,.19.07,1.06.07,1.22,0,.6-.38,1.03-.84,1.03-.38,0-.55-.24-.55-.53,0-.19.07-.86.07-.98v-1.34c0-1.46.02-2.9.05-4.34-1.34,2.06-3.6,4.46-5.64,5.64l-.07-.14c1.85-1.8,4.01-4.37,5.47-7.34h-2.62c-.17,1.06-.22,1.39-.29,1.56-.14.41-.53.62-.82.62-.36,0-.55-.29-.55-.5,0-.1.43-1.82.5-2.14.34-1.58.7-3.38.7-4.8l1.39,1.1h1.92v-3.14h-1.03c-.74,0-2.09.1-3.07.29l-.58-1.03c1.34.1,2.66.17,3.98.17h2.21c.48-.72.86-1.94,1.06-2.5.36-1.03.5-1.73.48-2.26l1.66.79c.14.07.34.17.34.36,0,.36-.55.46-.84.48-1.87,2.64-1.92,2.69-2.3,3.12h1.66l.46-.38c.1-.1.22-.19.31-.19.07,0,.22.07.31.14l.65.48c.14.1.26.22.26.36,0,.19-.36.38-.7.55.05.41.14,3.07.14,3.53,0,.55-.46.72-.94.72-.41,0-.41-.07-.38-.91h-2.54v3h2.74l.5-.55c.07-.1.22-.26.34-.26s.24.12.38.26l.58.53c.1.1.26.29.26.41,0,.1-.07.19-.14.24Zm-7.13-8.76c-.55,0-.62-.34-.84-1.22-.29-1.2-.62-1.73-1.37-2.52l.1-.12c.65.29,2.86,1.42,2.86,3,0,.36-.14.86-.74.86Zm1.34,5.14h-2.18c-.29,1.25-.36,1.7-.58,3h2.76v-3Zm3.67-3.72h-2.54v3.14h2.54v-3.14Zm2.04,14.69c-.36,0-.62-.26-.62-.67,0-.17.1-.41.58-1.56.31-.79.29-1.03.26-1.39l.1-.05c.26.41.72,1.06.72,2.11s-.53,1.56-1.03,1.56Zm10.71-8.35h-8.47v2.26h6.1l.55-.58c.1-.1.19-.19.29-.19s.24.07.41.22l.72.55c.14.1.38.29.38.43s-.24.29-.79.58c-.31,3.19-.98,4.85-1.49,5.47-.14.17-1.06,1.18-2.86,1.2-.17-.86-.72-1.39-1.25-1.9l.1-.12c1.08.34,1.97.38,2.16.38,1.68,0,1.94-3.41,2.09-5.47h-6.41c0,.36.02.91-.77.91-.48,0-.58-.22-.58-.46,0-.36.05-1.97.05-2.3.02-2.76.07-6.79.07-9.43,0-.67-.02-.94-.14-1.87l1.56,1.01h.94c.55-1.85.53-2.52.5-2.93l1.49.72c.41.19.43.31.43.41,0,.26-.31.29-.7.26-.17.24-.58.79-1.32,1.54h3.48l.5-.53c.14-.14.26-.26.36-.26.12,0,.22.07.29.12l.89.65c.1.07.17.12.17.26,0,.24-.29.38-.84.7.05.5.1,2.21.12,3,.02.62.17,1.87.17,2.3,0,.72-.65.89-.91.89-.5,0-.53-.24-.53-.74h-5.23v2.35h6.07l.62-.82c.07-.1.26-.29.38-.29.14,0,.36.17.46.24l1.06.84c.12.1.24.19.24.36,0,.22-.19.24-.36.24Zm-7.94,7.78c-.48,0-.6-.34-.6-.65,0-.17.07-.96.07-1.13,0-.6-.1-.94-.22-1.27l.12-.05c1.32.94,1.34,2.11,1.34,2.23,0,.53-.31.86-.72.86Zm4.7-16.51h-5.23v2.35h5.23v-2.35Zm0,2.93h-5.23v2.3h5.23v-2.3Zm-2.74,12.6c-.46,0-.48-.24-.5-.96,0-.41-.1-.91-.14-1.2-.05-.31-.07-.36-.22-.6l.1-.05c1.3.91,1.39,1.75,1.39,2.14,0,.55-.43.67-.62.67Zm2.09-.94c-.48,0-.5-.14-.77-1.25-.12-.5-.24-.7-.53-.96l.05-.12c1.42.36,1.75,1.27,1.75,1.68,0,.14-.07.65-.5.65Z"/>
        <path class="cls-1" d="m265.22,23.45c7.18-2.47,7.51-7.63,7.51-8.88,0-4.2-3.98-6.46-7.51-6.46-.5,0-.65.05-.89.12,1.18.98,1.18,1.7,1.18,1.82,0,.29-.07.38-.58,1.44-2.93,6.14-3.19,6.74-4.56,8.78-.12.17-.89,1.3-1.37,1.49-.14.07-.31.1-.46.1-.55,0-.72-.26-1.39-1.22-.17-.24-.31-.36-.65-.65-.94-.77-1.25-1.61-1.25-3.24,0-4.82,4.06-9.36,10.2-9.36,4.39,0,8.74,2.5,8.74,7.46,0,4.39-3.53,8.33-8.93,8.86l-.05-.26Zm-2.71-9.34c.72-1.34,1.42-3.22,1.42-4.18,0-.82-.48-1.32-.67-1.54-2.69.22-6.74,3.77-6.74,8.47,0,1.82,1.15,3.43,2.09,3.43.14,0,.31-.02.46-.17.53-.53.96-1.32,1.39-2.11l2.06-3.91Z"/>
        <path class="cls-1" d="m299.18,22.15c-1.9-1.34-3.46-2.62-5.21-5.09-1.39-1.92-2.52-4.03-3.14-6.31h-.19c0,3.72.05,7.42.17,11.14.02.46.14,2.5.14,2.86,0,.84-.84,1.15-1.15,1.15-.67,0-.67-.43-.67-.6,0-.34.17-1.82.17-2.11.1-2.11.07-3,.14-11.04-.77,1.49-1.99,3.91-4.9,6.79-1.92,1.92-3.77,3.02-4.92,3.7l-.1-.19c4.03-3.46,7.42-7.75,9.12-11.69h-5.23c-.84,0-2.18.1-3.1.26l-.55-1.03c1.8.14,3.53.19,3.98.19h5.69c0-2.57-.24-4.46-.29-4.82-.05-.36-.12-.58-.41-1.42l2.52.62c.22.05.26.17.26.29,0,.31-.12.38-.84.82-.05.72-.02,3.86-.05,4.51h6.82l.96-1.15c.07-.1.26-.29.38-.29.14,0,.31.17.46.29l1.2,1.1c.14.12.24.24.24.36,0,.22-.22.26-.36.26h-9.22c.53,1.22,2.59,5.23,6.12,7.63.26.19,2.74,1.87,4.61,2.21v.19c-1.49.07-1.97.6-2.66,1.37Z"/>
        <path class="cls-1" d="m326.95,7.46h-6.29l1.06.72c.1.07.24.17.24.36,0,.22-.17.24-.65.31-.46.65-1.94,2.26-2.47,2.74h4.87l.53-.65c.1-.12.22-.26.36-.26s.29.12.41.22l.94.7c.1.07.24.17.24.34,0,.24-.55.62-.74.79.02.36.02.77.05,4.3,0,.72.05,4.22.05,5.02,0,1.99,0,2.98-2.33,3.55,0-.98-.82-1.61-1.8-2.11v-.19c.58.1,1.68.22,2.26.22.36,0,.58-.05.6-.46,0-.05.02-2.59.02-3.1,0-1.51-.02-5.26-.05-7.78h-5.33c-.02.7,0,2.74,0,2.9,0,.36.07.48,1.63.48.74,0,1.87,0,2.16-1.94l.17-.02c.05,1.08.12,1.25.46,1.32.17.05.34.05.34.24,0,.12-.17.82-.84,1.13-.58.29-1.37.38-2.42.38-2.4,0-2.74-.41-2.74-1.94,0-.34,0-1.7.02-2.54h-2.42l.29.29c.12.12.19.19.19.34s-.17.22-.29.26c-.12.05-.41.17-.48.19-1.27,2.57-3.19,4.22-5.18,4.92l-.12-.22c.74-.48,3.07-2.02,4.2-5.78h-4.73c.02.91.02,1.06.02,2.42,0,3.82,0,4.25.05,5.98,0,.48.1,3.48.1,3.77,0,.36,0,1.3-.98,1.3-.55,0-.58-.31-.58-.55,0-.12.05-.65.05-.77.07-1.82.1-6.26.1-8.81,0-1.97,0-4.06-.34-5.16l1.97,1.25h8.93c.48-.77,1.25-2.4,1.54-4.13h-10.22c-.72,0-2.09.1-3.1.29l-.55-1.03c1.25.1,2.74.17,3.98.17h5.88c-.02-2.04-.29-2.47-.58-2.93l2.26.53c.1.02.41.1.41.34s-.17.36-.77.74v1.32h6.65l.86-1.1c.17-.22.26-.31.38-.31.14,0,.31.14.46.26l1.42,1.1c.1.07.24.22.24.36,0,.26-.26.26-.36.26Zm-13.2,3.53c-.67,0-.82-.65-.96-1.27-.29-1.27-.6-1.58-1.01-1.99l.12-.1c.72.34,2.57,1.25,2.57,2.54,0,.6-.43.82-.72.82Zm6.65,8.04c-.02.58,0,2.18.02,2.86,0,.22.1,1.27.1,1.32,0,.22-.02.67-.77.67-.58,0-.58-.19-.55-.79h-5.4c.02.38.02.43,0,.55-.1.34-.62.6-.86.6-.38,0-.38-.26-.38-.46,0-.34.07-1.73.07-2.02,0-.67.05-2.04.05-2.54,0-.36-.07-1.22-.19-1.99l1.63.86h4.85l.43-.46c.12-.14.19-.24.34-.24.1,0,.24.12.34.17l.82.53c.12.07.22.17.22.36s-.1.29-.7.58Zm-1.18-.36h-5.42v3.84h5.42v-3.84Z"/>
        <path class="cls-1" d="m353.23,8.18h-16.97c.1,7.61.14,13.9-3.77,17.47l-.14-.12c1.92-2.81,2.66-6.43,2.66-13.85,0-2.78-.12-3.6-.46-5.11l1.97,1.03h5.83c0-2.06-.07-2.47-.53-3.58l2.3.48c.07.02.43.12.43.34,0,.19-.12.29-.24.38-.17.12-.29.19-.62.41v1.97h6.77l.89-.96c.24-.26.26-.29.38-.29s.36.17.46.24l1.15.96c.12.1.24.22.24.38,0,.22-.19.24-.36.24Zm-1.15,4.97h-7.34v4.49h4.34l.58-.67c.24-.29.29-.31.38-.31.07,0,.31.17.46.29l.77.58c.19.14.38.29.38.41,0,.17-.58.5-.89.72,0,.26.02,4.8.1,5.71.02.31.05.5.05.62,0,.72-.48,1.06-.94,1.06-.48,0-.53-.26-.53-.46,0-.12.05-.62.05-.74h-9.29c.02.74.02,1.37-.98,1.37-.24,0-.53-.1-.53-.36,0-.12.07-.53.07-.62.1-1.13.14-2.33.14-3.84,0-2.21-.07-2.86-.22-4.82l1.61,1.08h3.19c0-.86,0-4.63-.05-5.4-.12-2.23-.29-2.69-.48-3.19l2.11.53c.24.07.41.12.41.31,0,.31-.48.53-.74.65v2.04h4.63l.91-1.01c.24-.26.26-.29.38-.29.14,0,.29.12.43.26l1.13,1.01c.12.1.22.19.22.36,0,.22-.22.24-.36.24Zm-2.59,5.06h-9.29v6.05h9.29v-6.05Z"/>
        <path class="cls-1" d="m379.27,25.22c-.62,0-3.43.05-3.98.05-5.88,0-8.09-.36-10.3-1.87-.96-.67-1.32-1.3-1.73-2.02-.14.24-.26.38-1.25,1.73-.7.98-.77,1.08-.91,1.27v.62c-.05.31-.24.38-.31.38-.14,0-.24-.1-.26-.17l-1.49-1.82c1.13-.1,2.78-1.01,3.6-1.78v-6.62c-1.39,0-2.59.14-3.31.29l-.55-1.06c1.37.12,2.47.17,3.38.19l.62-.62c.12-.12.24-.24.34-.24.12,0,.29.14.34.19l.89.86c.12.1.22.17.22.31,0,.1-.05.17-.22.31-.19.17-.26.24-.5.46-.02.84-.05,5.09.17,5.69.6,1.54,3.05,2.3,5.26,2.5,1.01.07,2.16.12,2.78.12,1.99,0,4.9-.17,7.11-.58.84-.17,1.22-.29,1.68-.43v.1c-.94.62-1.25,1.01-1.56,2.14Zm-16.01-16.61c-.58,0-.74-.43-.91-.86-.24-.6-.82-1.97-1.97-2.83l.07-.17c1.58.43,3.6,1.66,3.6,2.98,0,.58-.34.89-.79.89Zm16.37,11.04h-7.03c0,.31.05,1.85.05,2.09,0,.22-.02.41-.24.6-.26.22-.62.31-.82.31-.36,0-.43-.22-.43-.48,0-.05.07-2.14.1-2.52h-2.42c-.84,0-2.18.1-3.1.26l-.55-1.03c1.8.14,3.53.19,3.98.19h2.11c0-.46.02-1.1.02-2.64h-3.07c.02.74-.65.86-.91.86-.31,0-.53-.1-.53-.46,0-.1.02-.31.05-.41.1-.72.1-2.93.1-5.54,0-.7-.07-1.15-.22-1.87l1.7.74h2.81l-.02-2.28h-2.16c-.84,0-2.18.12-3.1.29l-.55-1.03c1.8.14,3.53.17,3.98.17h1.82c-.02-1.46-.02-1.85-.36-2.88l2.11.5c.07.02.34.1.34.34,0,.17-.24.34-.79.67-.05.43-.07.55-.1,1.37h3.96l.72-.89c.12-.14.24-.29.36-.29.14,0,.38.19.46.24l1.06.89c.12.12.24.22.24.38,0,.22-.19.24-.36.24h-6.46c-.02,1.39,0,1.9,0,2.28h3.19l.46-.41c.12-.12.24-.24.36-.24s.26.1.41.19l.89.6c.17.12.22.17.22.24,0,.24-.62.67-.86.82.02.7.1,3.77.12,4.39,0,.14.05.84.05.98,0,.53-.53.77-.96.77s-.41-.34-.38-.67h-3.36l.07,2.64h4.3l.86-.79c.17-.14.26-.26.38-.26.1,0,.26.12.46.24l1.15.74c.12.1.26.19.26.38,0,.22-.19.26-.36.26Zm-8.4-9.31h-3.02v2.47h3.05l-.02-2.47Zm.02,3.05h-3.05v2.47h3.07c0-.14-.02-2.35-.02-2.47Zm4.61-3.05h-3.48c0,.74.02,1.78.05,2.47h3.43v-2.47Zm0,3.05h-3.43c0,.36.05,2.09.07,2.47h3.36v-2.47Z"/>
        <path class="cls-1" d="m405.07,14.4c-4.1-1.8-7.61-5.42-9.26-8.67h-.12c-4.06,5.4-6.89,8.59-11.04,10.54l-.14-.19c3.7-2.35,7.13-7.15,8.57-9.19.65-.89,1.25-1.75,1.54-2.88l1.92.82c.19.07.24.17.24.29,0,.29-.22.5-.5.58,1.82,2.98,6.46,6.38,10.92,7.01v.19c-.53.14-1.68.72-2.11,1.51Zm-3.58,4.3c-.05,1.39-.05,3.53.02,4.66,0,.19.1.96.1,1.13,0,.62-.79.82-1.06.82-.36,0-.46-.22-.46-.46,0-.07.02-.43.05-.55h-8.9c0,.24,0,.67-.02.72-.07.29-.58.62-1.06.62-.24,0-.46-.14-.46-.43,0-.17.07-.94.07-1.08.07-1.68.12-3.55.12-5.23,0-.84,0-1.22-.14-2.23l1.78.84h8.57l.46-.53c.12-.17.19-.22.31-.22.1,0,.19.07.34.19l.79.72c.22.19.26.26.26.34,0,.19-.07.24-.77.7Zm-.77-4.39h-6.96c-.84,0-2.18.1-3.1.29l-.55-1.06c1.8.17,3.53.19,3.98.19h4.13l.72-.84c.17-.19.24-.31.36-.31.14,0,.41.22.46.26l1.08.84c.12.1.24.22.24.36,0,.24-.19.26-.36.26Zm-.58,3.77h-8.93v5.64h8.93v-5.64Z"/>
        <path class="cls-1" d="m431.18,13.85c-3.24-1.32-6.96-4.75-8.71-8.45-.17,0-.22.02-.41.02-3.24,4.87-7.87,8.45-10.99,9.7l-.07-.19c3.14-1.97,6.46-5.42,9.05-9.31.65-.98.72-1.34.82-1.78l2.23.67c.17.05.41.17.41.43,0,.29-.22.34-.6.38,1.42,2.45,5.06,5.93,10.46,6.91v.19c-.67.26-1.56.65-2.18,1.42Zm.12,3.6h-9.82c-.24.5-.36.74-.62,1.2-.98,1.63-2.06,3.19-3.26,4.66,2.66-.14,3.05-.19,9.79-.91-.7-1.3-1.56-2.5-2.71-3.41l.14-.14c5.3,2.69,5.64,5.52,5.64,5.9,0,.5-.34,1.01-.91,1.01-.65,0-.89-.5-1.03-.86-.34-.86-.55-1.39-.96-2.18-8.62,1.85-9.84,2.11-12.43,2.5-.26.48-.34.55-.48.55-.12,0-.22-.1-.31-.34l-.94-2.18c.74.12,1.15.14,1.78.14s1.58-.02,2.09-.05c.82-1.92,1.51-3.89,2.11-5.88h-3.29c-.48,0-1.94.05-3.07.26l-.58-1.03c1.25.12,2.74.19,3.98.19h11.64l1.13-1.15c.26-.26.29-.29.36-.29.14,0,.34.17.46.24l1.42,1.15c.1.07.24.19.24.36,0,.26-.24.26-.36.26Zm-5.23-4.13h-5.9c-.84,0-2.18.1-3.1.26l-.55-1.03c1.8.14,3.53.19,3.98.19h2.78l.98-1.03c.24-.26.29-.29.38-.29.12,0,.34.17.43.24l1.13,1.03c.1.1.22.22.22.36,0,.22-.19.26-.36.26Z"/>
        <path class="cls-1" d="m438.09,26.28c3.91-4.06,4.78-8.5,4.78-11.28s-.86-7.22-4.78-11.28l.24-.34c1.2.96,5.59,5.09,5.59,11.62s-4.39,10.66-5.59,11.62l-.24-.34Z"/>
        <path class="cls-1" d="m23.53,52.74c-2.37-2-3.6-4.88-3.6-7.75s1.23-5.75,3.6-7.75l.14.22c-2.83,3.15-2.89,6.35-2.89,7.52s.06,4.37,2.89,7.52l-.14.22Z"/>
        <path class="cls-1" d="m31.41,40.74c.12.06.2.16.2.29,0,.14-.17.24-.64.34-.2.26-.62.78-1.28,1.63-.58.74-1.08,1.33-1.49,1.78.08,0,1.35-.06,2.16-.18-.06-.11-.24-.48-.62-.91l.08-.1c1.19.48,2.1,1.2,2.1,1.94,0,.3-.17.66-.58.66-.36,0-.52-.19-.65-.74-.02-.05-.08-.27-.17-.51l-1.38.32c0,.69.05,3.97.05,4.27.02.32.06,1.76.06,2.05,0,.42-.35.69-.73.69-.32,0-.41-.21-.41-.48,0-.26.06-1.31.06-1.54.02-.51.03-2.08.05-4.79-.96.22-1.72.4-1.92.45-.09.16-.24.46-.38.46-.15,0-.24-.19-.27-.29l-.33-1.36c.26.06.7.11,1.08.11.47,0,1.17-.02,1.41-.03,1.03-1.47,1.96-3.51,2.17-4.15.06-.16.09-.45.09-.64l1.35.72Zm-6,10.53c.65-1.55,1.09-3.59,1.06-4.67l1.25.48c.11.05.21.14.21.22,0,.11-.09.19-.49.35-.49,1.49-.93,2.38-1.96,3.67l-.08-.05Zm.58-10.52c.43.11.93.26,1.31.45.43-.9,1.09-2.64,1-3.59l1.44.75c.12.06.18.16.18.24,0,.24-.23.29-.58.35-.71.96-.82,1.1-1.85,2.35.44.29.9.72.9,1.26,0,.37-.23.77-.62.77-.35,0-.44-.19-.77-.98-.35-.83-.7-1.18-1.02-1.52l.02-.1Zm3.59,6.1c.62.29,2.14,1.01,2.14,2.1,0,.51-.35.78-.67.78-.41,0-.49-.32-.68-1.06-.21-.83-.5-1.3-.84-1.76l.05-.06Zm7.26-5.17l.46-.45c.08-.08.17-.18.21-.18.06,0,.17.1.21.14l.73.66c.08.06.14.16.14.24,0,.11-.29.34-.56.54-.09,4.43-.12,6.42-.93,8.05-.56,1.14-1.52,1.55-2.36,1.57-.12-.75-.59-1.25-1.38-1.81l.02-.1c.7.14,1.63.32,2.02.32,1.53,0,1.61-5.28,1.61-6.93,0-.27-.02-1.41-.02-1.68h-4.1c-.74,1.49-1.26,2.03-1.49,2.29l-.09-.06c1.12-2.35,1.64-5.06,1.64-5.89,0-.16-.05-.46-.08-.61l1.64.74c.08.03.17.11.17.22,0,.16-.23.27-.59.45-.17.51-.44,1.31-1,2.48h3.75Zm-4.15,3.06c1.44.62,2.16,1.14,2.16,2,0,.38-.18.75-.61.75-.4,0-.52-.18-.85-1.28-.12-.42-.41-.96-.76-1.38l.06-.1Z"/>
        <path class="cls-1" d="m46.17,51.08h-5.97v-.43c.3-1.01,1.02-2.13,2.23-3.59,2.23-2.72,2.99-3.63,2.99-5.23,0-1.2-.73-2.19-2.02-2.19-1.06,0-1.7.67-1.7,1.25,0,.05,0,.26.15.5.2.32.32.5.32.8,0,.48-.36.9-.82.9-.53,0-.87-.53-.87-1.12,0-1.17,1.08-2.86,3.27-2.86,1.88,0,3.04,1.25,3.04,2.98,0,1.62-.88,2.5-2.25,3.73-.52.45-2.52,2.26-3.28,4.02h2.1c2.13,0,2.63-.86,3.09-2.19l.46.18-.73,3.28Z"/>
        <path class="cls-1" d="m49.06,40.66l-.14,4.03c.65-.61,1.23-1.1,2.36-1.1,2.19,0,3.24,1.91,3.24,3.67,0,2.32-1.75,4.13-3.75,4.13-1.73,0-2.87-1.36-2.87-2.35,0-.61.36-.99.88-.99.46,0,.79.32.79.83,0,.16-.02.22-.08.48-.03.13-.05.35-.05.45,0,.69.68,1.04,1.29,1.04,1.23,0,2.39-1.23,2.39-3.38,0-2.03-1.02-3.15-2.13-3.15-.61,0-1.54.35-2.37,1.39l-.23-.13.23-6.18h5.29l-.3,1.26h-4.54Z"/>
        <path class="cls-1" d="m58.8,51.38c-1.05,0-1.93-.77-2.49-1.73-.64-1.1-.93-3.07-.93-4.56,0-3.41,1.38-6,3.42-6,1.57,0,3.42,1.78,3.42,6.15,0,3.92-1.56,6.15-3.42,6.15Zm-1.7-9.62c-.21.8-.35,2.14-.35,3.47,0,3.57.81,5.6,2.05,5.6,1.05,0,1.52-1.47,1.69-2.08.21-.82.36-2.18.36-3.52,0-3.65-.84-5.6-2.05-5.6-1.08,0-1.55,1.57-1.7,2.13Z"/>
        <path class="cls-1" d="m65.26,43.21v1.26c.41-.43,1.2-1.26,2.51-1.26,1.43,0,1.7.98,1.82,1.44.52-.53,1.35-1.44,2.72-1.44s1.95.85,1.95,2.62v3.78c0,.61.3.96.76.96h.29v.51h-3.18v-.51h.27c.53,0,.77-.43.77-.96v-3.68c0-.45-.08-2.03-1.34-2.03-.43,0-1.38.26-2.14,1.39,0,.13.02.26.02.54v3.78c0,.67.35.96.76.96h.44v.51h-3.48v-.51h.44c.41,0,.76-.3.76-.96v-3.68c0-.34-.03-2.03-1.32-2.03-.36,0-1.34.21-2.05,1.26v4.45c0,.67.36.96.76.96h.27v.51h-3.16v-.51h.27c.46,0,.76-.34.76-.96v-4.82c0-.5-.26-.75-.62-.75-.17,0-.32.02-.46.06l-.06-.3,2.23-.59Z"/>
        <path class="cls-1" d="m76.86,52.23l-.3-.32,13.44-14.15.3.32-13.43,14.15Z"/>
        <path class="cls-1" d="m91.24,47.22c1.46-1.52,3.13-4.26,3.56-5.31.12-.32.18-.51.29-.94l1.23,1.01c.06.05.09.13.09.21,0,.22-.24.22-.59.29-.24.37-.55.82-1.09,1.57.18.16.26.21.26.32,0,.1-.06.19-.4.45-.05.69-.05,1.31-.05,1.81,0,.69.05,3.78.05,4.4,0,.83,0,1.28-.67,1.28-.27,0-.53-.1-.53-.45,0-.21.09-1.12.09-1.3.05-.98.03-1.39.06-5.04-1.09,1.17-1.93,1.65-2.23,1.82l-.06-.11Zm.06-4.69c2.13-2.1,3.36-4.19,3.53-4.87l1.14.86s.12.11.12.19c0,.18-.06.19-.64.32-1.32,1.86-2.78,2.88-4.07,3.62l-.08-.13Zm12.11.85l.55-.8c.12-.19.18-.21.23-.21.09,0,.15.06.29.18l.9.8c.09.08.15.14.15.24,0,.16-.12.18-.23.18h-5.41l1.41.48c.09.03.2.08.2.19,0,.21-.36.43-.47.48v1.58h1.57l.55-.69c.12-.14.15-.19.24-.19.08,0,.12.03.29.18l.76.67c.08.06.15.13.15.24,0,.14-.12.18-.23.18h-3.33c0,.22-.02,3.44-.02,3.52.35.05,1.17.18,2.26.18,1.4,0,2.1-.21,2.45-.29l.02.06c-.24.21-.74.64-.88,1.55-.24.02-.5.05-.87.05-4.89,0-5.7-2.9-6.05-4.21-.38,1.1-1.09,3.02-3.05,4.13l-.05-.06c2.25-2.67,2.48-5.78,2.48-6.45,0-.37-.03-.56-.06-.72l1.55.53c.09.03.17.08.17.22,0,.08-.03.13-.08.18-.06.05-.38.21-.44.24-.15.75-.27,1.14-.41,1.57.67,1.57,1.49,2.37,1.96,2.66,0-4.21,0-4.48-.03-5.14-.02-.19-.11-.98-.12-1.14h-1.6c-.38,0-1.11.02-1.79.14l-.3-.64c1.05.1,2.13.11,2.34.11h1.47c0-.94,0-1.95-.02-2.82h-1.17c-.27,0-1.05,0-1.78.14l-.3-.62c.94.08,1.88.1,2.34.1h.91c-.03-1.54-.05-1.67-.27-2.48l1.58.5c.12.03.21.08.21.19s-.38.46-.46.53v1.26h1.49l.59-.77c.09-.11.14-.19.24-.19s.15.05.27.16l.81.77c.08.08.15.14.15.26,0,.14-.14.16-.23.16h-3.34v2.82h2.4Z"/>
        <path class="cls-1" d="m120.45,43.62h-6.78l.53.13c.32.08.38.08.38.22,0,.13-.05.19-.38.38,0,.45.06,2.46.06,2.87,0,.96,0,1.44-1.6,1.92-.17-.67-.62-1.12-1.29-1.47v-.1c.2,0,1.08.06,1.26.06.55,0,.55-.02.56-.59.02-.75,0-2.58-.02-3.43h-4.13c-.38,0-1.11.02-1.79.14l-.3-.64c1.03.1,2.11.11,2.34.11h.71c0-2.83,0-3.14-.23-4.03l1.49.43c.23.06.29.13.29.27,0,.13-.05.18-.47.48v2.85h2.08c0-3.6,0-4-.03-4.55-.02-.35-.06-.72-.17-1.57l1.4.4c.17.05.29.1.29.27,0,.11,0,.18-.46.45v2.06h2.19l.59-.91c.06-.08.15-.21.24-.21.08,0,.18.1.27.18l.97.91c.09.1.15.14.15.24,0,.16-.12.18-.23.18h-4.19v2.54h4.18l.71-.96c.09-.13.18-.21.24-.21.08,0,.18.08.27.18l.91.96c.11.11.15.18.15.24,0,.16-.12.18-.23.18Zm-8.63,1.94c-.06.03-.24.08-.38.13-1.02,1.79-2.43,3.15-4.12,4.19l-.06-.08c1.63-1.81,2.74-3.94,2.95-4.47.12-.29.2-.58.29-.96l1.19.66c.14.08.26.14.26.34,0,.08-.05.16-.12.19Zm4.65,2.85c-2.43,2.24-4.83,3.7-8.54,3.83l-.02-.11c2.26-.59,4.57-1.52,6.75-3.63.5-.48,1.03-1.01,1.35-1.59l.93.96c.12.13.18.21.18.3,0,.19-.06.19-.65.24Zm2.64.42c-.44,0-.65-.35-.94-.85-.96-1.65-1.73-2.4-2.75-3.17l.06-.1c2.72.69,4.24,2.45,4.24,3.43,0,.34-.24.69-.61.69Z"/>
        <path class="cls-1" d="m126.41,39.09h.62v8.13h1.72v.51h-1.72v1.86c0,.7.33.98,1.06.98h.24v.51h-3.86v-.51h.24c.71,0,1.06-.26,1.06-.98v-1.86h-4.09v-.56l4.71-8.08Zm-.62,2.11l-3.51,6.02h3.51v-6.02Z"/>
        <path class="cls-1" d="m134.47,40.04c-1.26,2.72-3.56,4.77-4.71,5.44l-.08-.11c2.13-2.54,3.33-4.79,3.68-5.86.14-.4.2-.72.24-1.02l1.31.93c.08.05.2.14.2.26,0,.19-.39.3-.64.37Zm5.52,5.01c-.15,5.76-.46,6.93-3.19,7.19-.06-1.01-.81-1.54-1.14-1.76l.02-.11c.64.14,1.29.27,1.76.27.73,0,1.02-.18,1.25-1.63.18-1.18.27-3.86.23-4.61h-3.07c-.09,2.51-1.11,6.85-5.9,7.78l-.03-.13c3.09-1.5,4.65-3.92,4.8-7.65h-.44c-.38,0-1.11.02-1.79.16l-.29-.64c.94.08,1.87.1,2.33.1h4.3l.41-.38c.09-.1.18-.18.27-.18.08,0,.15.08.21.14l.61.7c.08.08.14.18.14.26,0,.14-.05.18-.47.5Zm2.77-.02c-1.63-.74-3.43-2.46-4.57-6.08h-1.22c-.76,0-1.06.06-1.28.1l-.2-.56c.68.06,1.35.08,1.66.08h.76l.49-.51c.14-.14.2-.18.27-.18.09,0,.15.08.26.18l.56.58c.09.08.12.14.12.24,0,.32-.7.45-.97.5.73,2.06,3.25,4.11,5.58,4.29l.02.16c-.85.27-1.2.78-1.47,1.22Z"/>
        <path class="cls-1" d="m145.29,52.74l-.14-.22c2.83-3.15,2.89-6.35,2.89-7.52s-.06-4.37-2.89-7.52l.14-.22c2.37,2,3.6,4.88,3.6,7.75s-1.23,5.75-3.6,7.75Z"/>
      </g>
      <rect class="cls-2" width="7" height="57"/>
    </g>
  </g>
</svg>