<?xml version="1.0" encoding="UTF-8"?>
<svg id="_レイヤー_2" data-name="レイヤー 2" xmlns="http://www.w3.org/2000/svg" viewBox="0 0 601.29 96">
  <defs>
    <style>
      .cls-1 {
        fill: none;
        stroke: #000;
        stroke-miterlimit: 10;
      }

      .cls-2, .cls-3 {
        stroke-width: 0px;
      }

      .cls-3 {
        fill: #1c2c5a;
      }
    </style>
  </defs>
  <g id="_レイヤー_1-2" data-name="レイヤー 1">
    <g>
      <rect class="cls-3" width="7" height="96"/>
      <g>
        <g>
          <rect class="cls-1" x="15.13" y="67.66" width="84.39" height="23.44" rx="5" ry="5"/>
          <g>
            <path class="cls-2" d="m40.5,76.66h-.29c-.14.1-.21.16-.84.69-.08.06-.67.48-.79.58l-.06-.06c.35-.9.49-1.47.59-1.94h-9.48c-.02,1.41-.64,2.74-1.44,2.74-.44,0-.62-.38-.62-.67,0-.4.26-.67.79-1.22.33-.35.93-1.22,1.02-2.1h.08c.08.26.15.5.18.86h6.41c.32-.5,1.23-2.43,1.12-3.63l1.47.82c.15.08.23.16.23.26,0,.14-.15.19-.7.29-.87,1.15-.97,1.28-1.81,2.27h2.61l.46-.37c.14-.11.24-.19.33-.19s.17.08.33.21l.9.75c.12.1.18.22.18.34,0,.32-.36.38-.68.38Zm-1.95,6.42c.02.21.02.35.03,1.63,0,.14.06.91.06,1.09,0,.64-.56.7-.7.7-.46,0-.43-.38-.4-.67h-6.28c0,.24.02.77-.65.77-.38,0-.46-.21-.44-.53.03-.64.09-1.97.09-2.59,0-.91-.08-1.41-.14-1.84l1.29.74h1.91c.23-.56.4-1.38.43-1.89h-1.63c0,.26.02.74-.61.74-.46,0-.46-.35-.46-.5,0-.4.09-2.16.09-2.53,0-.58-.02-.85-.12-1.3l1.31.62h3.98l.38-.43c.11-.11.17-.16.23-.16s.15.05.26.13l.56.45c.11.1.17.16.17.24,0,.13-.09.21-.46.5-.02.32.08,1.78.08,2.08,0,.43-.27.66-.65.66-.26,0-.44-.14-.43-.5h-1.38c-.29.51-.93,1.46-1.31,1.89h3.65l.33-.45c.08-.11.15-.18.23-.18s.17.06.27.14l.58.45c.09.08.17.18.17.26,0,.11-.09.22-.46.48Zm-6.82-7.99c-.41,0-.52-.35-.62-.75-.2-.8-.41-1.25-.85-1.89l.06-.08c.79.42,2.01,1.06,2.01,2.06,0,.42-.29.66-.59.66Zm5.84,7.67h-6.29v2.69h6.29v-2.69Zm-1.08-4.85h-4.36v2.19h4.36v-2.19Zm-1.9-3.03c-.53,0-.64-.51-.75-1.06-.12-.61-.27-1.01-.71-1.71l.06-.08c1.26.59,1.98,1.41,1.98,2.14,0,.11-.03.7-.58.7Z"/>
            <path class="cls-2" d="m56.32,75.54h-4.74l.79.5c.06.05.15.14.15.22,0,.19-.29.22-.56.24-.43.48-1.05,1.04-1.34,1.3h2.6l.59-.7c.08-.1.17-.19.24-.19s.21.1.27.16l.7.71c.08.08.14.14.14.24,0,.16-.12.18-.23.18h-4.85c0,.19.02,1.07.02,1.25h2.14l.53-.58c.09-.1.18-.19.26-.19s.15.08.29.18l.74.54c.08.06.17.14.17.26,0,.14-.12.18-.23.18h-3.91v1.39h3.91l.68-.82c.11-.13.15-.19.24-.19.11,0,.2.1.27.16l.84.82c.08.08.15.14.15.26,0,.14-.14.16-.24.16h-5.55c1.05,1.31,3.34,2.9,5.93,3.09l.02.1c-.49.24-1.02.51-1.4,1.3-1.96-.77-3.86-2.59-4.8-4.48h-.05c.02,1.46.03,1.75.03,2.05.02.37.09,1.95.09,2.29,0,.48-.46.66-.77.66-.41,0-.44-.26-.44-.5,0-.35.05-.94.06-1.31.02-.53.02-.77.05-2.99-1.09,1.54-3.13,3.52-6.03,4.32l-.03-.1c2.05-1.15,3.45-2.45,4.86-4.42h-2.69c-.15,0-1.09,0-1.79.14l-.3-.64c1.02.1,2.05.11,2.34.11h3.65v-1.39h-2.66c-.4,0-1.11.02-1.79.14l-.3-.64c1.05.1,2.14.11,2.34.11h2.42v-1.25h-3.19c-.14,0-1.08,0-1.78.14l-.3-.64c1.02.1,2.08.11,2.34.11h4.13c.2-.37.67-1.5.76-2.26h-4.32c.88.3,1.69.79,1.69,1.55,0,.46-.36.64-.61.64-.35,0-.4-.1-.76-1.06-.08-.21-.27-.72-.62-1.14h-1.58c-.38,0-1.11,0-1.79.14l-.29-.64c1.03.1,2.11.11,2.33.11h2.86c-.05-2.3-.05-2.48-.26-3.3l1.47.45c.14.05.21.1.21.24,0,.18-.17.27-.46.38v2.22h1.12c0-2.03,0-2.5-.32-3.3l1.55.43c.09.03.26.08.26.24,0,.24-.36.37-.5.42v2.21h.65c.35-.7.73-1.89.79-2.24.06-.27.08-.51.08-.77l1.35.72c.09.05.18.11.18.22,0,.24-.36.29-.53.3-.47.53-1.28,1.44-1.58,1.76h2.39l.65-.72c.12-.13.18-.21.24-.21.09,0,.2.08.3.18l.79.7c.09.08.17.14.17.26,0,.14-.14.18-.23.18Zm-9.88-.74c-.36,0-.47-.26-.76-.98-.05-.11-.29-.72-.88-1.26l.06-.11c.61.16,2.13.59,2.13,1.71,0,.21-.11.64-.55.64Z"/>
            <path class="cls-2" d="m62.5,74.42c-.02.58-.03.94-.03,1.71,0,1.68.09,5.31.12,6,0,.21.05.58.05.78,0,.61-.65.64-.73.64-.41,0-.41-.11-.38-1.17h-1.9c0,.11.05,1.42.05,1.46,0,.58-.59.69-.76.69-.38,0-.38-.3-.38-.5,0-.18.05-.96.05-1.12.05-1.22.06-5.71.06-6.08,0-2.38-.05-2.83-.18-3.95l1.32.67h1.55l.44-.42c.17-.14.2-.21.27-.21s.15.05.24.14l.61.58c.06.06.12.16.12.26,0,.14-.3.35-.52.51Zm-.96-.48h-1.92v3.76h1.92v-3.76Zm0,4.15h-1.92v3.92h1.92v-3.92Zm9.94-.3h-6.69c-.27,0-1.05,0-1.79.14l-.29-.64c.94.08,1.87.11,2.33.11h1.28v-2.45h-.67c-.15,0-1.08,0-1.79.14l-.29-.64c1,.1,2.07.11,2.33.11h.43c0-1.62-.05-1.92-.26-2.61l1.57.48c.17.05.27.13.27.26s-.05.16-.49.48c-.02.38-.02.48-.03,1.39h1.49l.56-.69c.11-.14.17-.19.24-.19.09,0,.17.05.27.16l.75.69c.08.06.15.13.15.24,0,.14-.14.18-.23.18h-3.25v2.45h2.31l.58-.74c.12-.16.17-.21.23-.21.09,0,.14.06.29.19l.81.72c.12.11.14.19.14.24,0,.16-.14.18-.23.18Zm-.03,2.93h-2.52c0,.32.05,3.33.05,3.84,0,.61,0,1.6-1.96,1.99-.14-.53-.3-.98-1.4-1.6l.03-.11c.3.03,1.25.11,1.49.11.68,0,.78-.14.79-.46.02-.29.02-3.5,0-3.76h-2.95c-.38,0-1.11.02-1.79.14l-.29-.64c1.03.1,2.11.11,2.33.11h2.71c-.02-.62-.05-1.74-.2-2.21l1.37.35c.2.05.29.08.29.21,0,.11-.05.14-.44.46-.02.3-.02.4-.02,1.18h.71l.62-.75c.12-.14.18-.19.26-.19s.14.03.26.16l.74.75c.11.1.15.14.15.24,0,.14-.12.18-.23.18Zm-5.81,3.22c-.46,0-.55-.45-.62-.88-.17-1.01-.47-1.47-.71-1.78l.06-.1c1.49.62,1.91,1.55,1.91,2.05,0,.43-.32.7-.64.7Z"/>
            <path class="cls-2" d="m79.11,73.89v1.83c0,.26.06,1.49.06,1.66,0,.38-.36.62-.74.62-.41,0-.36-.38-.33-.58h-2.6v4.02c0,.58.06,3.36.06,3.99,0,.42-.15.9-.77.9-.33,0-.44-.21-.44-.42,0-.1.05-.51.05-.61.12-1.81.12-2.8.12-9.81,0-2.29,0-2.34-.17-3.2l1.41.7h2.19l.4-.38c.09-.08.15-.16.21-.16s.14.06.18.1l.79.61c.06.05.11.11.11.21,0,.11-.09.21-.52.53Zm-1-.51h-2.61v1.6h2.61v-1.6Zm0,1.98h-2.61v1.68h2.61v-1.68Zm4.21,4.48c0,.75,0,1.97.05,2.93,0,.14.06.8.06.93,0,.69-.56.74-.76.74s-.4-.05-.32-.8h-2.96c.03.38.09,1.04-.71,1.04-.33,0-.35-.27-.35-.45,0-.1.03-.51.05-.69.06-.91.06-2.62.06-2.77,0-.86,0-1.44-.11-2.26l1.11.58h2.89l.26-.35c.08-.11.17-.21.29-.21.08,0,.17.06.24.13l.55.5c.08.06.14.13.14.21,0,.11-.14.26-.47.48Zm-.97-.37h-2.96v1.68h2.96v-1.68Zm0,2.07h-2.96v1.71h2.96v-1.71Zm4.33-7.6c0,1.55.03,8.42.03,9.81s0,1.82-.61,2.27c-.09.06-.52.38-1.15.53-.12-.56-.26-1.17-1.64-1.73l.03-.11c.26.02,1.64.1,1.79.1.14,0,.43,0,.52-.19.06-.14.06-1.46.06-1.75,0-.86-.02-4.67-.02-5.44h-2.87c.02.45-.3.66-.71.66-.21,0-.35-.13-.35-.38,0-.7.05-3.75.05-4.35,0-.27-.03-.56-.08-1.02l1.26.67h2.57l.37-.43c.06-.06.18-.18.27-.18s.18.05.24.11l.73.66c.08.08.12.14.12.22,0,.13-.12.24-.61.56Zm-.99-.56h-2.89v1.6h2.89v-1.6Zm0,1.98h-2.89v1.68h2.89v-1.68Z"/>
          </g>
        </g>
        <g>
          <path class="cls-2" d="m115.72,74.41c-.05,1.34.02,5.41.05,7,0,.46.08,2.5.08,2.9,0,1.39,0,2.27-2.26,2.64-.1-.62-.35-1.01-1.49-1.6l.02-.11c.24.03.74.11,1.66.11.78,0,.8,0,.8-1.86,0-1.23,0-2.11.02-2.77h-5.33c-.24,2.85-1.68,5.28-4.05,6.45l-.08-.1c2.85-2.5,3.07-5.39,3.07-9.72,0-1.6,0-3.2-.3-4.75l1.63.79h4.83l.51-.48c.11-.1.21-.16.29-.16.1,0,.18.05.27.13l.75.62c.11.1.18.19.18.29,0,.16-.11.27-.66.62Zm-1.12,2.85h-5.22s-.03,2.37-.1,3.07h5.31v-3.07Zm0-3.49h-5.22v3.11h5.22v-3.11Z"/>
          <path class="cls-2" d="m121.51,73.96l.32-.34c.05-.06.14-.13.24-.13s.22.1.3.18l.56.56c.06.06.11.16.11.24,0,.1-.11.22-.42.48-.03,1.14-.03,2.29-.02,4,.02.7.06,3.78.06,4.42,0,.38-.03.56-.21.7-.18.14-.42.22-.56.22-.38,0-.37-.27-.32-.91h-1.6c.02.7.02.78-.02.93-.1.32-.45.5-.72.5-.4,0-.43-.3-.43-.46,0-.13.05-.69.05-.8.03-1.75.05-3.19.05-6.63,0-2.37,0-2.64-.13-3.54l1.23.58h1.49Zm-1.52.38v4.03h1.6v-4.03h-1.6Zm0,4.42v4.24h1.6v-4.24h-1.6Zm8.76,3.52v1.49h1.57l.3-.5c.06-.11.14-.24.26-.24.08,0,.13.03.29.18l.64.53c.06.05.16.13.16.24,0,.16-.16.18-.24.18h-2.98v1.57h2.29l.37-.64c.1-.18.19-.24.27-.24s.18.08.29.18l.77.67c.06.05.16.14.16.26,0,.16-.16.16-.24.16h-6.95c0,.45.02.5-.05.59-.13.3-.56.4-.74.4-.37,0-.37-.26-.37-.35,0-.21.05-1.23.06-1.47.02-.54.06-2.56.05-4.08-.82,1.06-1.54,1.55-1.92,1.81l-.05-.08c.94-1.22,2.21-3.46,2.42-4.75l1.09.53c.13.06.16.16.16.21,0,.18-.1.21-.43.34-.19.35-.29.5-.45.77l.37.16h1.87c.21-.46.45-1.25.58-2.03l1.18.56c.08.03.18.11.18.21,0,.13-.05.14-.53.3-.38.38-.61.56-1.1.96h2.59l.42-.56c.11-.14.18-.21.26-.21s.14.03.3.16l.72.58c.06.05.16.14.16.24,0,.18-.16.18-.24.18h-3.49v1.34h1.54l.3-.53c.05-.08.13-.22.26-.22.08,0,.21.1.3.18l.69.54c.06.05.16.14.16.24,0,.16-.16.18-.24.18h-3.01Zm-3.04-4.5c-.4,0-1.17.02-1.89.14l-.32-.64c1.09.1,2.23.11,2.46.11h.35v-1.75h-.62c-.4,0-1.17,0-1.87.14l-.32-.64c.99.08,1.97.11,2.45.11h.37v-1.7h-.94c-.38,0-1.17,0-1.89.14l-.32-.64c1.1.1,2.24.11,2.46.11h.59l.37-.35c.1-.08.16-.11.21-.11.08,0,.14.06.24.16l.61.54c.08.06.13.16.13.22,0,.13-.19.29-.43.48v.99c0,.43.08,2.29.08,2.67,0,.22-.03.34-.19.46-.14.13-.38.21-.56.21-.4,0-.38-.3-.37-.69h-.59Zm0,2.77v1.34h2.05v-1.34h-2.05Zm0,1.73v1.49h2.05v-1.49h-2.05Zm0,1.87v1.57h2.05v-1.57h-2.05Zm4.71-6.39c-.16,0-1.15,0-1.89.14l-.32-.64c1.04.1,2.16.11,2.56.11v-1.76c-.43,0-1.36,0-2.1.14l-.32-.62c.86.06,1.25.08,2.42.1v-1.71h-.5c-.4,0-1.17.02-1.87.14l-.32-.64c.96.1,1.95.11,2.66.11l.34-.35c.06-.06.14-.14.21-.14s.11.02.29.18l.58.5c.06.06.14.13.14.22,0,.11-.11.19-.48.45-.02.35-.02.83.02,1.9,0,.3.08,1.67.08,1.95,0,.53-.56.64-.74.64-.42,0-.42-.32-.4-.72h-.35Z"/>
          <path class="cls-2" d="m137.22,81.07c-.7,0-1.28-.58-1.28-1.28s.58-1.28,1.28-1.28,1.28.55,1.28,1.28-.59,1.28-1.28,1.28Z"/>
          <path class="cls-2" d="m154.85,86.56c-4.98-2.37-5.51-6.88-5.95-10.77-.19,3.01-.38,5.95-2.82,8.45-.93.96-2.34,1.97-4.56,2.46l-.02-.1c1.63-.8,3.04-1.84,4.05-3.25,1.95-2.77,2.34-6.51,2.34-8.16,0-.26,0-1.51-.3-2.66l1.76.45c.08.02.26.06.26.26,0,.21-.24.32-.53.45.03,1.28.27,3.28.93,5.31,1.49,4.53,4.66,5.68,6.47,6.1v.14c-.62.13-1.17.59-1.62,1.31Zm-11.65-6.1c-.35,0-.67-.26-.67-.61,0-.3.11-.45.67-1.23.51-.7,1.17-2.11,1.07-3.01h.14c.21.7.35,1.44.35,2.18,0,1.38-.62,2.67-1.57,2.67Zm11.3-3.79c-1.94,2.02-2.85,2.58-3.68,3.02l-.08-.11c.96-.94,2.56-3.26,2.8-4.54l1.54,1.14c.08.05.14.13.14.22,0,.22-.08.22-.72.27Z"/>
          <path class="cls-2" d="m160.45,73.96l.32-.34c.05-.06.14-.13.24-.13s.22.1.3.18l.56.56c.06.06.11.16.11.24,0,.1-.11.22-.42.48-.03,1.14-.03,2.29-.02,4,.02.7.06,3.78.06,4.42,0,.38-.03.56-.21.7-.18.14-.42.22-.56.22-.38,0-.37-.27-.32-.91h-1.6c.02.7.02.78-.02.93-.1.32-.45.5-.72.5-.4,0-.43-.3-.43-.46,0-.13.05-.69.05-.8.03-1.75.05-3.19.05-6.63,0-2.37,0-2.64-.13-3.54l1.23.58h1.49Zm-1.52.38v4.03h1.6v-4.03h-1.6Zm0,4.42v4.24h1.6v-4.24h-1.6Zm8.76,3.52v1.49h1.57l.3-.5c.06-.11.14-.24.26-.24.08,0,.13.03.29.18l.64.53c.06.05.16.13.16.24,0,.16-.16.18-.24.18h-2.98v1.57h2.29l.37-.64c.1-.18.19-.24.27-.24s.18.08.29.18l.77.67c.06.05.16.14.16.26,0,.16-.16.16-.24.16h-6.95c0,.45.02.5-.05.59-.13.3-.56.4-.74.4-.37,0-.37-.26-.37-.35,0-.21.05-1.23.06-1.47.02-.54.06-2.56.05-4.08-.82,1.06-1.54,1.55-1.92,1.81l-.05-.08c.94-1.22,2.21-3.46,2.42-4.75l1.09.53c.13.06.16.16.16.21,0,.18-.1.21-.43.34-.19.35-.29.5-.45.77l.37.16h1.87c.21-.46.45-1.25.58-2.03l1.18.56c.08.03.18.11.18.21,0,.13-.05.14-.53.3-.38.38-.61.56-1.1.96h2.59l.42-.56c.11-.14.18-.21.26-.21s.14.03.3.16l.72.58c.06.05.16.14.16.24,0,.18-.16.18-.24.18h-3.49v1.34h1.54l.3-.53c.05-.08.13-.22.26-.22.08,0,.21.1.3.18l.69.54c.06.05.16.14.16.24,0,.16-.16.18-.24.18h-3.01Zm-3.04-4.5c-.4,0-1.17.02-1.89.14l-.32-.64c1.09.1,2.23.11,2.46.11h.35v-1.75h-.62c-.4,0-1.17,0-1.87.14l-.32-.64c.99.08,1.97.11,2.45.11h.37v-1.7h-.94c-.38,0-1.17,0-1.89.14l-.32-.64c1.1.1,2.24.11,2.46.11h.59l.37-.35c.1-.08.16-.11.21-.11.08,0,.14.06.24.16l.61.54c.08.06.13.16.13.22,0,.13-.19.29-.43.48v.99c0,.43.08,2.29.08,2.67,0,.22-.03.34-.19.46-.14.13-.38.21-.56.21-.4,0-.38-.3-.37-.69h-.59Zm0,2.77v1.34h2.05v-1.34h-2.05Zm0,1.73v1.49h2.05v-1.49h-2.05Zm0,1.87v1.57h2.05v-1.57h-2.05Zm4.71-6.39c-.16,0-1.15,0-1.89.14l-.32-.64c1.04.1,2.16.11,2.56.11v-1.76c-.43,0-1.36,0-2.1.14l-.32-.62c.86.06,1.25.08,2.42.1v-1.71h-.5c-.4,0-1.17.02-1.87.14l-.32-.64c.96.1,1.95.11,2.66.11l.34-.35c.06-.06.14-.14.21-.14s.11.02.29.18l.58.5c.06.06.14.13.14.22,0,.11-.11.19-.48.45-.02.35-.02.83.02,1.9,0,.3.08,1.67.08,1.95,0,.53-.56.64-.74.64-.42,0-.42-.32-.4-.72h-.35Z"/>
          <path class="cls-2" d="m178.48,85.36h.88c.83,0,1.12-.32,1.12-.98v-8.66c0-.5-.46-.58-.77-.58h-1.22v-.5h.29c1.23,0,2.42-.56,2.61-.67.11-.06.16-.1.22-.1.14,0,.18.1.18.22v10.28c0,.69.34.98,1.12.98h.88v.51h-5.31v-.51Z"/>
          <path class="cls-2" d="m186.53,75.45l-.14,4.03c.69-.61,1.3-1.1,2.48-1.1,2.31,0,3.41,1.91,3.41,3.67,0,2.32-1.84,4.13-3.95,4.13-1.82,0-3.03-1.36-3.03-2.35,0-.61.38-.99.93-.99.48,0,.83.32.83.83,0,.16-.02.22-.08.48-.03.13-.05.35-.05.45,0,.69.72,1.04,1.36,1.04,1.3,0,2.51-1.23,2.51-3.38,0-2.03-1.07-3.15-2.24-3.15-.64,0-1.62.35-2.5,1.39l-.24-.13.24-6.18h5.57l-.32,1.26h-4.79Z"/>
          <path class="cls-2" d="m197.95,75c-.02.58-.03.94-.03,1.71,0,1.68.1,5.31.13,6,0,.21.05.58.05.78,0,.61-.69.64-.77.64-.43,0-.43-.11-.4-1.17h-2c0,.11.05,1.42.05,1.46,0,.58-.62.69-.8.69-.4,0-.4-.3-.4-.5,0-.18.05-.96.05-1.12.05-1.22.06-5.71.06-6.08,0-2.38-.05-2.83-.19-3.95l1.39.67h1.63l.46-.42c.18-.14.21-.21.29-.21s.16.05.26.14l.64.58c.06.06.13.16.13.26,0,.14-.32.35-.54.51Zm-1.01-.48h-2.02v3.76h2.02v-3.76Zm0,4.15h-2.02v3.92h2.02v-3.92Zm10.47-.3h-7.04c-.29,0-1.1,0-1.89.14l-.3-.64c.99.08,1.97.11,2.45.11h1.34v-2.45h-.7c-.16,0-1.14,0-1.89.14l-.3-.64c1.06.1,2.18.11,2.45.11h.45c0-1.62-.05-1.92-.27-2.61l1.65.48c.18.05.29.13.29.26s-.05.16-.51.48c-.02.38-.02.48-.03,1.39h1.57l.59-.69c.11-.14.18-.19.26-.19.1,0,.18.05.29.16l.78.69c.08.06.16.13.16.24,0,.14-.14.18-.24.18h-3.43v2.45h2.43l.61-.74c.13-.16.18-.21.24-.21.1,0,.14.06.3.19l.85.72c.13.11.14.19.14.24,0,.16-.14.18-.24.18Zm-.03,2.93h-2.66c0,.32.05,3.33.05,3.84,0,.61,0,1.6-2.06,1.98-.14-.53-.32-.98-1.47-1.6l.03-.11c.32.03,1.31.11,1.57.11.72,0,.82-.14.83-.46.02-.29.02-3.51,0-3.76h-3.11c-.4,0-1.17.02-1.89.14l-.3-.64c1.09.1,2.22.11,2.45.11h2.85c-.02-.62-.05-1.75-.21-2.21l1.44.35c.21.05.3.08.3.21,0,.11-.05.14-.46.46-.02.3-.02.4-.02,1.18h.75l.66-.75c.13-.14.19-.19.27-.19s.14.03.27.16l.78.75c.11.1.16.14.16.24,0,.14-.13.18-.24.18Zm-6.11,3.22c-.48,0-.58-.45-.66-.88-.18-1.01-.5-1.47-.75-1.78l.06-.1c1.57.62,2.02,1.55,2.02,2.05,0,.43-.34.7-.67.7Z"/>
          <path class="cls-2" d="m218.26,81.12c-.99,0-1.82-.37-2.62-.74-2.32-1.06-2.37-1.09-3.07-1.09-1.01,0-2.5.53-3.49,1.28l-.21-.24c1.87-1.87,3.92-1.87,4.16-1.87.64,0,1.28.11,2.88.86,1.78.83,2.06.98,2.8.98.99,0,2.48-.54,3.49-1.3l.21.24c-1.87,1.87-3.91,1.87-4.15,1.87Z"/>
          <path class="cls-2" d="m229.54,85.87h-6.29v-.43c.32-1.01,1.07-2.13,2.35-3.59,2.35-2.72,3.15-3.63,3.15-5.23,0-1.2-.77-2.19-2.13-2.19-1.12,0-1.79.67-1.79,1.25,0,.05,0,.26.16.5.21.32.34.5.34.8,0,.48-.38.9-.86.9-.56,0-.91-.53-.91-1.12,0-1.17,1.14-2.87,3.44-2.87,1.98,0,3.2,1.25,3.2,2.98,0,1.62-.93,2.5-2.37,3.73-.54.45-2.66,2.26-3.46,4.02h2.21c2.24,0,2.77-.86,3.25-2.19l.48.18-.77,3.28Z"/>
          <path class="cls-2" d="m231.82,85.36h.88c.83,0,1.12-.32,1.12-.98v-8.66c0-.5-.46-.58-.77-.58h-1.22v-.5h.29c1.23,0,2.42-.56,2.61-.67.11-.06.16-.1.22-.1.14,0,.18.1.18.22v10.28c0,.69.34.98,1.12.98h.88v.51h-5.31v-.51Z"/>
          <path class="cls-2" d="m243.65,75c-.02.58-.03.94-.03,1.71,0,1.68.1,5.31.13,6,0,.21.05.58.05.78,0,.61-.69.64-.77.64-.43,0-.43-.11-.4-1.17h-2c0,.11.05,1.42.05,1.46,0,.58-.62.69-.8.69-.4,0-.4-.3-.4-.5,0-.18.05-.96.05-1.12.05-1.22.06-5.71.06-6.08,0-2.38-.05-2.83-.19-3.95l1.39.67h1.63l.46-.42c.18-.14.21-.21.29-.21s.16.05.26.14l.64.58c.06.06.13.16.13.26,0,.14-.32.35-.54.51Zm-1.01-.48h-2.02v3.76h2.02v-3.76Zm0,4.15h-2.02v3.92h2.02v-3.92Zm10.47-.3h-7.04c-.29,0-1.1,0-1.89.14l-.3-.64c.99.08,1.97.11,2.45.11h1.34v-2.45h-.7c-.16,0-1.14,0-1.89.14l-.3-.64c1.06.1,2.18.11,2.45.11h.45c0-1.62-.05-1.92-.27-2.61l1.65.48c.18.05.29.13.29.26s-.05.16-.51.48c-.02.38-.02.48-.03,1.39h1.57l.59-.69c.11-.14.18-.19.26-.19.1,0,.18.05.29.16l.78.69c.08.06.16.13.16.24,0,.14-.14.18-.24.18h-3.43v2.45h2.43l.61-.74c.13-.16.18-.21.24-.21.1,0,.14.06.3.19l.85.72c.13.11.14.19.14.24,0,.16-.14.18-.24.18Zm-.03,2.93h-2.66c0,.32.05,3.33.05,3.84,0,.61,0,1.6-2.06,1.98-.14-.53-.32-.98-1.47-1.6l.03-.11c.32.03,1.31.11,1.57.11.72,0,.82-.14.83-.46.02-.29.02-3.51,0-3.76h-3.1c-.4,0-1.17.02-1.89.14l-.3-.64c1.09.1,2.22.11,2.45.11h2.85c-.02-.62-.05-1.75-.21-2.21l1.44.35c.21.05.3.08.3.21,0,.11-.05.14-.46.46-.02.3-.02.4-.02,1.18h.75l.66-.75c.13-.14.19-.19.27-.19s.14.03.27.16l.78.75c.11.1.16.14.16.24,0,.14-.13.18-.24.18Zm-6.11,3.22c-.48,0-.58-.45-.66-.88-.18-1.01-.5-1.47-.75-1.78l.06-.1c1.57.62,2.02,1.55,2.02,2.05,0,.43-.34.7-.67.7Z"/>
          <path class="cls-2" d="m254.86,87.02l-.32-.32,14.15-14.15.32.32-14.15,14.15Z"/>
          <path class="cls-2" d="m281.16,78.12l.66-.86c.1-.13.14-.19.24-.19s.11.03.3.18l1.07.85c.08.06.16.14.16.26,0,.14-.14.16-.26.16h-5.33c0,.53-.02,2.83-.02,3.3,0,.16.02,3.49,0,3.95h4.24l.8-.87c.11-.13.16-.19.24-.19.1,0,.14.05.3.18l1.06.85c.08.06.16.14.16.24,0,.14-.14.18-.24.18h-12.04c-.16,0-1.15,0-1.89.14l-.32-.64c1.07.1,2.16.11,2.46.11h4.08c-.02-.14-.02-3.54-.02-3.91v-3.35h-3.38c-.21,0-1.1,0-1.89.14l-.32-.62c1.07.08,2.16.1,2.46.1h3.12c-.03-3.63-.03-4.05-.4-5.22l1.94.51c.16.05.26.08.26.22,0,.13-.08.19-.14.24-.06.06-.37.3-.46.37,0,1.3-.02,2.58-.02,3.87h3.15Z"/>
          <path class="cls-2" d="m289.01,73.96l.32-.34c.05-.06.14-.13.24-.13s.22.1.3.18l.56.56c.06.06.11.16.11.24,0,.1-.11.22-.42.48-.03,1.14-.03,2.29-.02,4,.02.7.06,3.78.06,4.42,0,.38-.03.56-.21.7-.18.14-.42.22-.56.22-.38,0-.37-.27-.32-.91h-1.6c.02.7.02.78-.02.93-.1.32-.45.5-.72.5-.4,0-.43-.3-.43-.46,0-.13.05-.69.05-.8.03-1.75.05-3.19.05-6.63,0-2.37,0-2.64-.13-3.54l1.23.58h1.49Zm-1.52.38v4.03h1.6v-4.03h-1.6Zm0,4.42v4.24h1.6v-4.24h-1.6Zm8.76,3.52v1.49h1.57l.3-.5c.06-.11.14-.24.26-.24.08,0,.13.03.29.18l.64.53c.06.05.16.13.16.24,0,.16-.16.18-.24.18h-2.98v1.57h2.29l.37-.64c.1-.18.19-.24.27-.24s.18.08.29.18l.77.67c.06.05.16.14.16.26,0,.16-.16.16-.24.16h-6.95c0,.45.02.5-.05.59-.13.3-.56.4-.74.4-.37,0-.37-.26-.37-.35,0-.21.05-1.23.06-1.47.02-.54.06-2.56.05-4.08-.82,1.06-1.54,1.55-1.92,1.81l-.05-.08c.94-1.22,2.21-3.46,2.42-4.75l1.09.53c.13.06.16.16.16.21,0,.18-.1.21-.43.34-.19.35-.29.5-.45.77l.37.16h1.87c.21-.46.45-1.25.58-2.03l1.18.56c.08.03.18.11.18.21,0,.13-.05.14-.53.3-.38.38-.61.56-1.1.96h2.59l.42-.56c.11-.14.18-.21.26-.21s.14.03.3.16l.72.58c.06.05.16.14.16.24,0,.18-.16.18-.24.18h-3.49v1.34h1.54l.3-.53c.05-.08.13-.22.26-.22.08,0,.21.1.3.18l.69.54c.06.05.16.14.16.24,0,.16-.16.18-.24.18h-3.01Zm-3.04-4.5c-.4,0-1.17.02-1.89.14l-.32-.64c1.09.1,2.23.11,2.46.11h.35v-1.75h-.62c-.4,0-1.17,0-1.87.14l-.32-.64c.99.08,1.97.11,2.45.11h.37v-1.7h-.94c-.38,0-1.17,0-1.89.14l-.32-.64c1.1.1,2.24.11,2.46.11h.59l.37-.35c.1-.08.16-.11.21-.11.08,0,.14.06.24.16l.61.54c.08.06.13.16.13.22,0,.13-.19.29-.43.48v.99c0,.43.08,2.29.08,2.67,0,.22-.03.34-.19.46-.14.13-.38.21-.56.21-.4,0-.38-.3-.37-.69h-.59Zm0,2.77v1.34h2.05v-1.34h-2.05Zm0,1.73v1.49h2.05v-1.49h-2.05Zm0,1.87v1.57h2.05v-1.57h-2.05Zm4.71-6.39c-.16,0-1.15,0-1.89.14l-.32-.64c1.04.1,2.16.11,2.56.11v-1.76c-.43,0-1.36,0-2.1.14l-.32-.62c.86.06,1.25.08,2.42.1v-1.71h-.5c-.4,0-1.17.02-1.87.14l-.32-.64c.96.1,1.95.11,2.66.11l.34-.35c.06-.06.14-.14.21-.14s.11.02.29.18l.58.5c.06.06.14.13.14.22,0,.11-.11.19-.48.45-.02.35-.02.83.02,1.9,0,.3.08,1.67.08,1.95,0,.53-.56.64-.74.64-.42,0-.42-.32-.4-.72h-.35Z"/>
          <path class="cls-2" d="m304.72,81.07c-.7,0-1.28-.58-1.28-1.28s.58-1.28,1.28-1.28,1.28.55,1.28,1.28-.59,1.28-1.28,1.28Z"/>
          <path class="cls-2" d="m318.5,75.11c-.03.9-.03,1.42-.03,2.34,0,2.82.08,6.69.14,7.65,0,.1.03.51.03.61,0,.59-.62.77-.91.77-.32,0-.42-.18-.42-.48,0-.02,0-.24.03-.64h-5.92c.02.46.03,1.17-.88,1.17-.34,0-.43-.19-.43-.43,0-.11.05-.93.08-1.39.06-1.23.11-5.73.11-6.85,0-3.41-.08-3.79-.26-4.5l1.62.83h5.46l.5-.48c.13-.13.21-.19.32-.19.1,0,.19.08.3.18l.69.62c.11.11.19.21.19.3,0,.19-.21.3-.62.5Zm-1.14-.55h-5.95v4.85h5.95v-4.85Zm0,5.23h-5.95v5.17h5.95v-5.17Z"/>
          <path class="cls-2" d="m324.11,73.96l.32-.34c.05-.06.14-.13.24-.13s.22.1.3.18l.56.56c.06.06.11.16.11.24,0,.1-.11.22-.42.48-.03,1.14-.03,2.29-.02,4,.02.7.06,3.78.06,4.42,0,.38-.03.56-.21.7-.18.14-.42.22-.56.22-.38,0-.37-.27-.32-.91h-1.6c.02.7.02.78-.02.93-.1.32-.45.5-.72.5-.4,0-.43-.3-.43-.46,0-.13.05-.69.05-.8.03-1.75.05-3.19.05-6.63,0-2.37,0-2.64-.13-3.54l1.23.58h1.49Zm-1.52.38v4.03h1.6v-4.03h-1.6Zm0,4.42v4.24h1.6v-4.24h-1.6Zm8.76,3.52v1.49h1.57l.3-.5c.06-.11.14-.24.26-.24.08,0,.13.03.29.18l.64.53c.06.05.16.13.16.24,0,.16-.16.18-.24.18h-2.98v1.57h2.29l.37-.64c.1-.18.19-.24.27-.24s.18.08.29.18l.77.67c.06.05.16.14.16.26,0,.16-.16.16-.24.16h-6.95c0,.45.02.5-.05.59-.13.3-.56.4-.74.4-.37,0-.37-.26-.37-.35,0-.21.05-1.23.06-1.47.02-.54.06-2.56.05-4.08-.82,1.06-1.54,1.55-1.92,1.81l-.05-.08c.94-1.22,2.21-3.46,2.42-4.75l1.09.53c.13.06.16.16.16.21,0,.18-.1.21-.43.34-.19.35-.29.5-.45.77l.37.16h1.87c.21-.46.45-1.25.58-2.03l1.18.56c.08.03.18.11.18.21,0,.13-.05.14-.53.3-.38.38-.61.56-1.1.96h2.59l.42-.56c.11-.14.18-.21.26-.21s.14.03.3.16l.72.58c.06.05.16.14.16.24,0,.18-.16.18-.24.18h-3.49v1.34h1.54l.3-.53c.05-.08.13-.22.26-.22.08,0,.21.1.3.18l.69.54c.06.05.16.14.16.24,0,.16-.16.18-.24.18h-3.01Zm-3.04-4.5c-.4,0-1.17.02-1.89.14l-.32-.64c1.09.1,2.23.11,2.46.11h.35v-1.75h-.62c-.4,0-1.17,0-1.87.14l-.32-.64c.99.08,1.97.11,2.45.11h.37v-1.7h-.94c-.38,0-1.17,0-1.89.14l-.32-.64c1.1.1,2.24.11,2.46.11h.59l.37-.35c.1-.08.16-.11.21-.11.08,0,.14.06.24.16l.61.54c.08.06.13.16.13.22,0,.13-.19.29-.43.48v.99c0,.43.08,2.29.08,2.67,0,.22-.03.34-.19.46-.14.13-.38.21-.56.21-.4,0-.38-.3-.37-.69h-.59Zm0,2.77v1.34h2.05v-1.34h-2.05Zm0,1.73v1.49h2.05v-1.49h-2.05Zm0,1.87v1.57h2.05v-1.57h-2.05Zm4.71-6.39c-.16,0-1.15,0-1.89.14l-.32-.64c1.04.1,2.16.11,2.56.11v-1.76c-.43,0-1.36,0-2.1.14l-.32-.62c.86.06,1.25.08,2.42.1v-1.71h-.5c-.4,0-1.17.02-1.87.14l-.32-.64c.96.1,1.95.11,2.66.11l.34-.35c.06-.06.14-.14.21-.14s.11.02.29.18l.58.5c.06.06.14.13.14.22,0,.11-.11.19-.48.45-.02.35-.02.83.02,1.9,0,.3.08,1.67.08,1.95,0,.53-.56.64-.74.64-.42,0-.42-.32-.4-.72h-.35Z"/>
          <path class="cls-2" d="m339.83,81.07c-.7,0-1.28-.58-1.28-1.28s.58-1.28,1.28-1.28,1.28.55,1.28,1.28-.59,1.28-1.28,1.28Z"/>
          <path class="cls-2" d="m349.91,81.13c-.45,0-.59-.42-.77-.91-.13-.37-.62-1.04-.96-1.33,0,.7,0,1.01.02,3.78,0,.5.06,2.95.06,3.49,0,.67-.62.77-.83.77-.42,0-.42-.26-.42-.48s.1-1.38.11-1.63c.05-1.02.06-1.42.1-5.06-1.5,1.65-2.79,2.21-3.33,2.45l-.05-.08c1.74-1.54,3.79-4.24,4.71-6h-2.06c-.42,0-1.18.02-1.87.14l-.32-.64c.82.06,1.63.11,2.46.11h.4c0-2.08-.05-2.48-.35-3.33l1.54.5c.18.06.32.11.32.24,0,.18-.11.24-.5.48,0,.3.02,1.78.02,2.11h.58l.37-.4c.06-.08.14-.14.24-.14.08,0,.19.06.26.13l.66.58c.08.08.13.18.13.26,0,.18-.53.38-.8.5-.37.51-.94,1.34-1.42,1.94v.16c.88.29,2.34.75,2.34,1.75,0,.43-.35.64-.61.64Zm3.55-.67c-1.06,4.27-3.03,5.51-4.64,6.11l-.08-.1c2.23-1.49,3.52-4.71,3.52-6.45,0-.34-.03-.56-.06-.72l1.41.54c.1.03.27.13.27.29,0,.21-.27.29-.42.32Zm3.36,5.95c-1.26,0-1.7-.06-2.05-.19-.62-.21-.62-.48-.62-1.81,0-.86.06-4.72.05-5.51h-2.16c.02.43-.16.82-.7.82-.21,0-.4-.08-.4-.42v-.27c0-.38.05-1.97.05-2.53,0-2.87-.06-3.14-.24-3.92l1.34.74h4.1l.35-.34c.06-.06.16-.16.26-.16.08,0,.14.06.22.13l.66.54c.1.08.18.14.18.22,0,.19-.16.29-.54.5.02.59.02,3.15.03,3.67.02.18.06.88.06,1.04,0,.46-.42.64-.72.64-.46,0-.46-.27-.45-.66h-.98c0,.71-.02,3.81-.02,4.45.02,1.59.02,1.76.21,1.87.22.11.77.11,1.06.11.98,0,1.31,0,1.73-2.8h.1c.05.34.21,1.81.3,2.1.05.13.11.18.35.37.16.13.16.32.16.37,0,1.04-1.9,1.04-2.32,1.04Zm-.59-12.71h-4.19v4.82h4.19v-4.82Z"/>
          <path class="cls-2" d="m369.25,75.11c-.03.9-.03,1.42-.03,2.34,0,2.82.08,6.69.14,7.65,0,.1.03.51.03.61,0,.59-.62.77-.91.77-.32,0-.42-.18-.42-.48,0-.02,0-.24.03-.64h-5.92c.02.46.03,1.17-.88,1.17-.34,0-.43-.19-.43-.43,0-.11.05-.93.08-1.39.06-1.23.11-5.73.11-6.85,0-3.41-.08-3.79-.26-4.5l1.62.83h5.46l.5-.48c.13-.13.21-.19.32-.19.1,0,.19.08.3.18l.69.62c.11.11.19.21.19.3,0,.19-.21.3-.62.5Zm-1.14-.55h-5.95v4.85h5.95v-4.85Zm0,5.23h-5.95v5.17h5.95v-5.17Z"/>
          <path class="cls-2" d="m383.47,74.19v.85c-2.55,3.92-3.44,6.15-3.65,9.71-.03.42-.08,1.43-.9,1.43-.4,0-.82-.34-.82-.88,0-1.14,1.12-4.5,4.5-9.84h-2.74c-2.32,0-2.67,1.07-3.03,2.1l-.48-.11.66-3.25h6.45Z"/>
          <path class="cls-2" d="m389.07,75c-.02.58-.03.94-.03,1.71,0,1.68.1,5.31.13,6,0,.21.05.58.05.78,0,.61-.69.64-.77.64-.43,0-.43-.11-.4-1.17h-2c0,.11.05,1.42.05,1.46,0,.58-.62.69-.8.69-.4,0-.4-.3-.4-.5,0-.18.05-.96.05-1.12.05-1.22.06-5.71.06-6.08,0-2.38-.05-2.83-.19-3.95l1.39.67h1.63l.46-.42c.18-.14.21-.21.29-.21s.16.05.26.14l.64.58c.06.06.13.16.13.26,0,.14-.32.35-.54.51Zm-1.01-.48h-2.02v3.76h2.02v-3.76Zm0,4.15h-2.02v3.92h2.02v-3.92Zm10.47-.3h-7.04c-.29,0-1.1,0-1.89.14l-.3-.64c.99.08,1.97.11,2.45.11h1.34v-2.45h-.7c-.16,0-1.14,0-1.89.14l-.3-.64c1.06.1,2.18.11,2.45.11h.45c0-1.62-.05-1.92-.27-2.61l1.65.48c.18.05.29.13.29.26s-.05.16-.51.48c-.02.38-.02.48-.03,1.39h1.57l.59-.69c.11-.14.18-.19.26-.19.1,0,.18.05.29.16l.78.69c.08.06.16.13.16.24,0,.14-.14.18-.24.18h-3.43v2.45h2.43l.61-.74c.13-.16.18-.21.24-.21.1,0,.14.06.3.19l.85.72c.13.11.14.19.14.24,0,.16-.14.18-.24.18Zm-.03,2.93h-2.66c0,.32.05,3.33.05,3.84,0,.61,0,1.6-2.06,1.98-.14-.53-.32-.98-1.47-1.6l.03-.11c.32.03,1.31.11,1.57.11.72,0,.82-.14.83-.46.02-.29.02-3.51,0-3.76h-3.11c-.4,0-1.17.02-1.89.14l-.3-.64c1.09.1,2.22.11,2.45.11h2.85c-.02-.62-.05-1.75-.21-2.21l1.44.35c.21.05.3.08.3.21,0,.11-.05.14-.46.46-.02.3-.02.4-.02,1.18h.75l.66-.75c.13-.14.19-.19.27-.19s.14.03.27.16l.78.75c.11.1.16.14.16.24,0,.14-.13.18-.24.18Zm-6.11,3.22c-.48,0-.58-.45-.66-.88-.18-1.01-.5-1.47-.75-1.78l.06-.1c1.57.62,2.02,1.55,2.02,2.05,0,.43-.34.7-.67.7Z"/>
          <path class="cls-2" d="m409.38,81.12c-.99,0-1.82-.37-2.62-.74-2.32-1.06-2.37-1.09-3.07-1.09-1.01,0-2.5.53-3.49,1.28l-.21-.24c1.87-1.87,3.92-1.87,4.16-1.87.64,0,1.28.11,2.88.86,1.78.83,2.06.98,2.8.98.99,0,2.48-.54,3.49-1.3l.21.24c-1.87,1.87-3.91,1.87-4.15,1.87Z"/>
          <path class="cls-2" d="m420.66,85.87h-6.29v-.43c.32-1.01,1.07-2.13,2.35-3.59,2.35-2.72,3.15-3.63,3.15-5.23,0-1.2-.77-2.19-2.13-2.19-1.12,0-1.79.67-1.79,1.25,0,.05,0,.26.16.5.21.32.34.5.34.8,0,.48-.38.9-.86.9-.56,0-.91-.53-.91-1.12,0-1.17,1.14-2.87,3.44-2.87,1.98,0,3.2,1.25,3.2,2.98,0,1.62-.93,2.5-2.37,3.73-.54.45-2.66,2.26-3.46,4.02h2.21c2.24,0,2.77-.86,3.25-2.19l.48.18-.77,3.28Z"/>
          <path class="cls-2" d="m422.94,85.36h.88c.83,0,1.12-.32,1.12-.98v-8.66c0-.5-.46-.58-.77-.58h-1.22v-.5h.29c1.23,0,2.42-.56,2.61-.67.11-.06.16-.1.22-.1.14,0,.18.1.18.22v10.28c0,.69.34.98,1.12.98h.88v.51h-5.31v-.51Z"/>
          <path class="cls-2" d="m434.77,75c-.02.58-.03.94-.03,1.71,0,1.68.1,5.31.13,6,0,.21.05.58.05.78,0,.61-.69.64-.77.64-.43,0-.43-.11-.4-1.17h-2c0,.11.05,1.42.05,1.46,0,.58-.62.69-.8.69-.4,0-.4-.3-.4-.5,0-.18.05-.96.05-1.12.05-1.22.06-5.71.06-6.08,0-2.38-.05-2.83-.19-3.95l1.39.67h1.63l.46-.42c.18-.14.21-.21.29-.21s.16.05.26.14l.64.58c.06.06.13.16.13.26,0,.14-.32.35-.54.51Zm-1.01-.48h-2.02v3.76h2.02v-3.76Zm0,4.15h-2.02v3.92h2.02v-3.92Zm10.47-.3h-7.04c-.29,0-1.1,0-1.89.14l-.3-.64c.99.08,1.97.11,2.45.11h1.34v-2.45h-.7c-.16,0-1.14,0-1.89.14l-.3-.64c1.06.1,2.18.11,2.45.11h.45c0-1.62-.05-1.92-.27-2.61l1.65.48c.18.05.29.13.29.26s-.05.16-.51.48c-.02.38-.02.48-.03,1.39h1.57l.59-.69c.11-.14.18-.19.26-.19.1,0,.18.05.29.16l.78.69c.08.06.16.13.16.24,0,.14-.14.18-.24.18h-3.43v2.45h2.43l.61-.74c.13-.16.18-.21.24-.21.1,0,.14.06.3.19l.85.72c.13.11.14.19.14.24,0,.16-.14.18-.24.18Zm-.03,2.93h-2.66c0,.32.05,3.33.05,3.84,0,.61,0,1.6-2.06,1.98-.14-.53-.32-.98-1.47-1.6l.03-.11c.32.03,1.31.11,1.57.11.72,0,.82-.14.83-.46.02-.29.02-3.51,0-3.76h-3.1c-.4,0-1.17.02-1.89.14l-.3-.64c1.09.1,2.22.11,2.45.11h2.85c-.02-.62-.05-1.75-.21-2.21l1.44.35c.21.05.3.08.3.21,0,.11-.05.14-.46.46-.02.3-.02.4-.02,1.18h.75l.66-.75c.13-.14.19-.19.27-.19s.14.03.27.16l.78.75c.11.1.16.14.16.24,0,.14-.13.18-.24.18Zm-6.11,3.22c-.48,0-.58-.45-.66-.88-.18-1.01-.5-1.47-.75-1.78l.06-.1c1.57.62,2.02,1.55,2.02,2.05,0,.43-.34.7-.67.7Z"/>
          <path class="cls-2" d="m445.98,87.02l-.32-.32,14.15-14.15.32.32-14.15,14.15Z"/>
          <path class="cls-2" d="m467.2,77.93c-.34,1.36-1.25,3.33-2,4.5-.46.74-1.79,2.53-4.37,3.68l-.05-.1c1.25-.96,2.99-2.98,3.84-4.75.61-1.27,1.2-2.53,1.46-3.92h-2.22c-.21,0-1.1.02-1.87.16l-.32-.64c1.06.08,2.16.1,2.45.1h1.95l.42-.38c.08-.08.14-.13.22-.13.06,0,.14.05.24.14l.67.7c.1.1.13.16.13.22,0,.18-.3.32-.54.42Zm1.86-4.4c0,1.09-.02,5.86-.02,6.84,0,.78.05,4.27.05,4.98,0,.64,0,1.71-1.9,1.95-.14-.5-.27-.75-.59-1.02-.35-.3-.72-.58-1.12-.72v-.08c.13.02,1.62.08,1.84.08.61,0,.67-.18.67-.74,0-.27-.03-1.52-.03-1.76,0-.5.05-5.59.05-6.64,0-.66-.02-2.64-.14-3.18-.03-.14-.18-.72-.21-.85l1.73.45c.14.03.22.08.22.21,0,.16-.1.27-.54.5Zm5.41,11.96c-2.31-1.28-5.09-5.28-5.17-10.23h.18c.26,1.71.64,2.66.91,3.34,1.1-.86,2.42-2.18,2.75-3.38l1.44,1.2c.11.1.13.16.13.24,0,.3-.32.27-.85.24-1.15.83-2.19,1.52-3.35,1.99,1.98,4.27,4.72,5.15,5.86,5.36v.1c-.66.13-1.22.24-1.9,1.14Z"/>
          <path class="cls-2" d="m480.13,73.96l.32-.34c.05-.06.14-.13.24-.13s.22.1.3.18l.56.56c.06.06.11.16.11.24,0,.1-.11.22-.42.48-.03,1.14-.03,2.29-.02,4,.02.7.06,3.78.06,4.42,0,.38-.03.56-.21.7-.18.14-.42.22-.56.22-.38,0-.37-.27-.32-.91h-1.6c.02.7.02.78-.02.93-.1.32-.45.5-.72.5-.4,0-.43-.3-.43-.46,0-.13.05-.69.05-.8.03-1.75.05-3.19.05-6.63,0-2.37,0-2.64-.13-3.54l1.23.58h1.49Zm-1.52.38v4.03h1.6v-4.03h-1.6Zm0,4.42v4.24h1.6v-4.24h-1.6Zm8.76,3.52v1.49h1.57l.3-.5c.06-.11.14-.24.26-.24.08,0,.13.03.29.18l.64.53c.06.05.16.13.16.24,0,.16-.16.18-.24.18h-2.98v1.57h2.29l.37-.64c.1-.18.19-.24.27-.24s.18.08.29.18l.77.67c.06.05.16.14.16.26,0,.16-.16.16-.24.16h-6.95c0,.45.02.5-.05.59-.13.3-.56.4-.74.4-.37,0-.37-.26-.37-.35,0-.21.05-1.23.06-1.47.02-.54.06-2.56.05-4.08-.82,1.06-1.54,1.55-1.92,1.81l-.05-.08c.94-1.22,2.21-3.46,2.42-4.75l1.09.53c.13.06.16.16.16.21,0,.18-.1.21-.43.34-.19.35-.29.5-.45.77l.37.16h1.87c.21-.46.45-1.25.58-2.03l1.18.56c.08.03.18.11.18.21,0,.13-.05.14-.53.3-.38.38-.61.56-1.1.96h2.59l.42-.56c.11-.14.18-.21.26-.21s.14.03.3.16l.72.58c.06.05.16.14.16.24,0,.18-.16.18-.24.18h-3.49v1.34h1.54l.3-.53c.05-.08.13-.22.26-.22.08,0,.21.1.3.18l.69.54c.06.05.16.14.16.24,0,.16-.16.18-.24.18h-3.01Zm-3.04-4.5c-.4,0-1.17.02-1.89.14l-.32-.64c1.09.1,2.23.11,2.46.11h.35v-1.75h-.62c-.4,0-1.17,0-1.87.14l-.32-.64c.99.08,1.97.11,2.45.11h.37v-1.7h-.94c-.38,0-1.17,0-1.89.14l-.32-.64c1.1.1,2.24.11,2.46.11h.59l.37-.35c.1-.08.16-.11.21-.11.08,0,.14.06.24.16l.61.54c.08.06.13.16.13.22,0,.13-.19.29-.43.48v.99c0,.43.08,2.29.08,2.67,0,.22-.03.34-.19.46-.14.13-.38.21-.56.21-.4,0-.38-.3-.37-.69h-.59Zm0,2.77v1.34h2.05v-1.34h-2.05Zm0,1.73v1.49h2.05v-1.49h-2.05Zm0,1.87v1.57h2.05v-1.57h-2.05Zm4.71-6.39c-.16,0-1.15,0-1.89.14l-.32-.64c1.04.1,2.16.11,2.56.11v-1.76c-.43,0-1.36,0-2.1.14l-.32-.62c.86.06,1.25.08,2.42.1v-1.71h-.5c-.4,0-1.17.02-1.87.14l-.32-.64c.96.1,1.95.11,2.66.11l.34-.35c.06-.06.14-.14.21-.14s.11.02.29.18l.58.5c.06.06.14.13.14.22,0,.11-.11.19-.48.45-.02.35-.02.83.02,1.9,0,.3.08,1.67.08,1.95,0,.53-.56.64-.74.64-.42,0-.42-.32-.4-.72h-.35Z"/>
          <path class="cls-2" d="m495.84,81.07c-.7,0-1.28-.58-1.28-1.28s.58-1.28,1.28-1.28,1.28.55,1.28,1.28-.59,1.28-1.28,1.28Z"/>
          <path class="cls-2" d="m508.15,76.99c.61,1.46,2,3.38,3.17,4.35.78.67,2.61,1.81,3.97,2.05v.11c-1.1.21-1.42.59-1.9,1.18-4.16-2.38-5.43-7.46-5.44-7.49,0,.9-.02,2.08,0,3.83,0,.83.19,5.12.19,5.2,0,.83-.67.85-.85.85-.61,0-.61-.32-.61-.54,0-.3.1-1.73.11-2.06.03-.99.05-1.52.1-6.21-.35.72-.91,1.79-2.16,3.23-1.47,1.7-2.56,2.42-4.34,3.36l-.03-.08c1.74-1.54,4.48-4.39,5.99-7.78h-3.54c-.43,0-1.18.02-1.89.14l-.32-.64c.82.06,1.65.11,2.46.11h3.83c-.05-2.75-.16-3.35-.4-4.21l1.82.46c.08.02.21.05.21.19,0,.19-.18.3-.54.51,0,.43-.02,2.56-.02,3.04h4.07l.74-.88c.06-.06.16-.19.26-.19s.22.11.3.18l.96.86c.08.06.16.13.16.24,0,.16-.16.18-.26.18h-6.03Z"/>
          <path class="cls-2" d="m519.07,73.96l.32-.34c.05-.06.14-.13.24-.13s.22.1.3.18l.56.56c.06.06.11.16.11.24,0,.1-.11.22-.42.48-.03,1.14-.03,2.29-.02,4,.02.7.06,3.78.06,4.42,0,.38-.03.56-.21.7-.18.14-.42.22-.56.22-.38,0-.37-.27-.32-.91h-1.6c.02.7.02.78-.02.93-.1.32-.45.5-.72.5-.4,0-.43-.3-.43-.46,0-.13.05-.69.05-.8.03-1.75.05-3.19.05-6.63,0-2.37,0-2.64-.13-3.54l1.23.58h1.49Zm-1.52.38v4.03h1.6v-4.03h-1.6Zm0,4.42v4.24h1.6v-4.24h-1.6Zm8.76,3.52v1.49h1.57l.3-.5c.06-.11.14-.24.26-.24.08,0,.13.03.29.18l.64.53c.06.05.16.13.16.24,0,.16-.16.18-.24.18h-2.98v1.57h2.29l.37-.64c.1-.18.19-.24.27-.24s.18.08.29.18l.77.67c.06.05.16.14.16.26,0,.16-.16.16-.24.16h-6.95c0,.45.02.5-.05.59-.13.3-.56.4-.74.4-.37,0-.37-.26-.37-.35,0-.21.05-1.23.06-1.47.02-.54.06-2.56.05-4.08-.82,1.06-1.54,1.55-1.92,1.81l-.05-.08c.94-1.22,2.21-3.46,2.42-4.75l1.09.53c.13.06.16.16.16.21,0,.18-.1.21-.43.34-.19.35-.29.5-.45.77l.37.16h1.87c.21-.46.45-1.25.58-2.03l1.18.56c.08.03.18.11.18.21,0,.13-.05.14-.53.3-.38.38-.61.56-1.1.96h2.59l.42-.56c.11-.14.18-.21.26-.21s.14.03.3.16l.72.58c.06.05.16.14.16.24,0,.18-.16.18-.24.18h-3.49v1.34h1.54l.3-.53c.05-.08.13-.22.26-.22.08,0,.21.1.3.18l.69.54c.06.05.16.14.16.24,0,.16-.16.18-.24.18h-3.01Zm-3.04-4.5c-.4,0-1.17.02-1.89.14l-.32-.64c1.09.1,2.23.11,2.46.11h.35v-1.75h-.62c-.4,0-1.17,0-1.87.14l-.32-.64c.99.08,1.97.11,2.45.11h.37v-1.7h-.94c-.38,0-1.17,0-1.89.14l-.32-.64c1.1.1,2.24.11,2.46.11h.59l.37-.35c.1-.08.16-.11.21-.11.08,0,.14.06.24.16l.61.54c.08.06.13.16.13.22,0,.13-.19.29-.43.48v.99c0,.43.08,2.29.08,2.67,0,.22-.03.34-.19.46-.14.13-.38.21-.56.21-.4,0-.38-.3-.37-.69h-.59Zm0,2.77v1.34h2.05v-1.34h-2.05Zm0,1.73v1.49h2.05v-1.49h-2.05Zm0,1.87v1.57h2.05v-1.57h-2.05Zm4.71-6.39c-.16,0-1.15,0-1.89.14l-.32-.64c1.04.1,2.16.11,2.56.11v-1.76c-.43,0-1.36,0-2.1.14l-.32-.62c.86.06,1.25.08,2.42.1v-1.71h-.5c-.4,0-1.17.02-1.87.14l-.32-.64c.96.1,1.95.11,2.66.11l.34-.35c.06-.06.14-.14.21-.14s.11.02.29.18l.58.5c.06.06.14.13.14.22,0,.11-.11.19-.48.45-.02.35-.02.83.02,1.9,0,.3.08,1.67.08,1.95,0,.53-.56.64-.74.64-.42,0-.42-.32-.4-.72h-.35Z"/>
          <path class="cls-2" d="m534.79,81.07c-.7,0-1.28-.58-1.28-1.28s.58-1.28,1.28-1.28,1.28.55,1.28,1.28-.59,1.28-1.28,1.28Z"/>
          <path class="cls-2" d="m552.71,79c-3.39-1.3-5.28-3.97-6.07-5.51-1.84,2.83-4.23,5.35-7.39,6.53l-.06-.13c2.03-1.41,3.78-3.2,5.22-5.2.48-.67,1.2-1.75,1.28-2.42l1.34.62c.11.05.22.14.22.27,0,.22-.19.26-.3.29,1.68,2.26,4.56,3.94,7.31,4.1l.02.14c-.93.37-1.28.75-1.57,1.3Zm.42,7.16h-11.28c-.4,0-1.17.02-1.89.14l-.32-.64c1.1.1,2.24.11,2.46.11h3.71v-4.43h-2.88c-.16,0-1.15,0-1.89.14l-.32-.64c1.12.1,2.34.11,2.46.11h2.62v-2.3h-.58c-.4,0-1.17.02-1.89.14l-.32-.62c1.1.08,2.23.1,2.47.1h2.11l.62-.61c.13-.11.21-.21.27-.21s.19.11.29.18l.82.61c.08.06.16.14.16.26,0,.14-.13.16-.24.16h-2.59v2.3h2.99l.69-.72c.11-.11.21-.21.27-.21.08,0,.19.1.29.18l.9.72c.1.08.16.14.16.24,0,.16-.13.18-.24.18h-5.06v4.43h3.92l.78-.83c.13-.13.19-.19.26-.19.1,0,.21.08.3.16l1.01.83c.1.08.16.16.16.26,0,.14-.14.16-.24.16Zm-9.3-1.01c-.5,0-.64-.45-.74-.85-.19-.9-.3-1.34-.82-2.14l.08-.1c.7.38,2.11,1.17,2.11,2.35,0,.42-.24.74-.64.74Zm6.24-1.86c-1.23,1.5-2.02,2.1-2.37,2.35l-.13-.08c.51-.85,1.02-1.97,1.28-2.61.21-.48.22-.67.24-1.09l1.42.87c.14.08.18.14.18.21,0,.24-.27.29-.62.35Z"/>
          <path class="cls-2" d="m558.02,73.96l.32-.34c.05-.06.14-.13.24-.13s.22.1.3.18l.56.56c.06.06.11.16.11.24,0,.1-.11.22-.42.48-.03,1.14-.03,2.29-.02,4,.02.7.06,3.78.06,4.42,0,.38-.03.56-.21.7-.18.14-.42.22-.56.22-.38,0-.37-.27-.32-.91h-1.6c.02.7.02.78-.02.93-.1.32-.45.5-.72.5-.4,0-.43-.3-.43-.46,0-.13.05-.69.05-.8.03-1.75.05-3.19.05-6.63,0-2.37,0-2.64-.13-3.54l1.23.58h1.49Zm-1.52.38v4.03h1.6v-4.03h-1.6Zm0,4.42v4.24h1.6v-4.24h-1.6Zm8.76,3.52v1.49h1.57l.3-.5c.06-.11.14-.24.26-.24.08,0,.13.03.29.18l.64.53c.06.05.16.13.16.24,0,.16-.16.18-.24.18h-2.98v1.57h2.29l.37-.64c.1-.18.19-.24.27-.24s.18.08.29.18l.77.67c.06.05.16.14.16.26,0,.16-.16.16-.24.16h-6.95c0,.45.02.5-.05.59-.13.3-.56.4-.74.4-.37,0-.37-.26-.37-.35,0-.21.05-1.23.06-1.47.02-.54.06-2.56.05-4.08-.82,1.06-1.54,1.55-1.92,1.81l-.05-.08c.94-1.22,2.21-3.46,2.42-4.75l1.09.53c.13.06.16.16.16.21,0,.18-.1.21-.43.34-.19.35-.29.5-.45.77l.37.16h1.87c.21-.46.45-1.25.58-2.03l1.18.56c.08.03.18.11.18.21,0,.13-.05.14-.53.3-.38.38-.61.56-1.1.96h2.59l.42-.56c.11-.14.18-.21.26-.21s.14.03.3.16l.72.58c.06.05.16.14.16.24,0,.18-.16.18-.24.18h-3.49v1.34h1.54l.3-.53c.05-.08.13-.22.26-.22.08,0,.21.1.3.18l.69.54c.06.05.16.14.16.24,0,.16-.16.18-.24.18h-3.01Zm-3.04-4.5c-.4,0-1.17.02-1.89.14l-.32-.64c1.09.1,2.23.11,2.46.11h.35v-1.75h-.62c-.4,0-1.17,0-1.87.14l-.32-.64c.99.08,1.97.11,2.45.11h.37v-1.7h-.94c-.38,0-1.17,0-1.89.14l-.32-.64c1.1.1,2.24.11,2.46.11h.59l.37-.35c.1-.08.16-.11.21-.11.08,0,.14.06.24.16l.61.54c.08.06.13.16.13.22,0,.13-.19.29-.43.48v.99c0,.43.08,2.29.08,2.67,0,.22-.03.34-.19.46-.14.13-.38.21-.56.21-.4,0-.38-.3-.37-.69h-.59Zm0,2.77v1.34h2.05v-1.34h-2.05Zm0,1.73v1.49h2.05v-1.49h-2.05Zm0,1.87v1.57h2.05v-1.57h-2.05Zm4.71-6.39c-.16,0-1.15,0-1.89.14l-.32-.64c1.04.1,2.16.11,2.56.11v-1.76c-.43,0-1.36,0-2.1.14l-.32-.62c.86.06,1.25.08,2.42.1v-1.71h-.5c-.4,0-1.17.02-1.87.14l-.32-.64c.96.1,1.95.11,2.66.11l.34-.35c.06-.06.14-.14.21-.14s.11.02.29.18l.58.5c.06.06.14.13.14.22,0,.11-.11.19-.48.45-.02.35-.02.83.02,1.9,0,.3.08,1.67.08,1.95,0,.53-.56.64-.74.64-.42,0-.42-.32-.4-.72h-.35Z"/>
          <path class="cls-2" d="m585.52,85.21c-.48.32-1.09.83-1.23,1.74-1.09.02-4.08.08-6.05-.46-1.94-.53-3.28-2.06-3.7-3.39-.8,1.78-1.87,3.25-3.91,4.08l-.08-.06c2.27-1.66,3.49-5.35,3.49-6.95,0-.13,0-.21-.02-.35l1.59.64c.08.03.18.11.18.22,0,.18-.05.21-.58.43-.13.56-.27,1.04-.51,1.6.5,1.06,1.25,1.95,2.48,2.53v-6.5h-3.25c-.43,0-1.18.02-1.89.14l-.32-.62c1.31.1,2.27.1,2.46.1h7.27l.64-.85c.1-.11.16-.19.24-.19s.19.1.32.19l1.07.83c.1.06.16.13.16.24,0,.16-.14.16-.24.16h-5.31v2.95h2.39l.64-.78c.11-.14.16-.21.24-.21.1,0,.21.1.3.18l.96.79c.08.06.16.14.16.24,0,.18-.14.18-.24.18h-4.45v3.5c.27.05.75.13,1.7.13,2.18,0,4.67-.42,5.51-.54l-.02.05Zm-1.58-9.28h-.45c-.3.14-1.63.83-1.9.96l-.06-.05c.08-.13.67-1.42.75-1.65h-8.92c-.05,1.52-.96,2.34-1.74,2.34-.42,0-.59-.34-.59-.62,0-.38.24-.58.54-.8,1.34-1.01,1.49-1.78,1.57-2.18h.1c.06.32.1.53.11.88h3.81c0-1.54,0-1.57-.34-2.53l1.81.43c.13.03.26.13.26.22,0,.14-.06.18-.54.5v1.38h3.79l.66-.53c.06-.05.14-.11.22-.11.06,0,.16.05.22.11l1.18,1.14c.08.06.14.18.14.24,0,.27-.43.27-.62.27Z"/>
          <path class="cls-2" d="m589.87,76.47c.11.06.22.16.22.27,0,.1-.06.16-.14.22-.1.06-.21.16-.34.26-.05,1.47-.06,2.56-.06,3.17,0,.93.1,5.6.1,5.83,0,.3-.03.5-.26.66-.19.14-.38.21-.59.21-.34,0-.43-.13-.43-.56,0-.77.19-5.55.21-6.51,0-.34.02-1.54.03-2.32-.46.77-1.49,2.32-2.72,3.44l-.08-.08c1.17-1.71,3.67-6.63,3.65-8.84l1.57.83c.06.03.13.14.13.22,0,.1-.11.18-.18.22-.06.03-.3.14-.45.22-.61,1.54-.93,2.13-1.1,2.48l.45.27Zm2.58.38c-.27,0-1.1,0-1.89.14l-.3-.62c1.07.08,2.26.1,2.45.1h1.73c-.02-.66-.13-3.06-.16-3.22-.05-.3-.14-.58-.22-.8l1.78.48c.13.03.24.13.24.22,0,.16-.13.26-.18.29-.14.1-.26.18-.37.26,0,.27-.03,1.86-.05,2.77h2.71l.72-.85c.13-.14.18-.19.24-.19s.13.03.3.16l1.07.85c.08.06.16.14.16.26,0,.14-.13.16-.24.16h-4.8c.69,2.82,3.04,5.67,5.65,6.71l-.03.11c-.16,0-1.09.08-1.73.91-2.03-2-3.57-4.64-4.07-7.35-.02.96-.02,1.52-.02,2.5,0,.69,0,1.33.03,2.18.14,3.84.16,4.18.16,4.32,0,.66-.45.85-.88.85-.38,0-.5-.22-.5-.54,0-.21.06-1.12.06-1.3.05-1.62.06-2.72.1-6.05-.77,1.68-2.43,4.29-4.53,5.54l-.03-.11c1.86-2.08,3.59-5.47,4.37-7.76h-1.78Z"/>
        </g>
      </g>
      <g>
        <path class="cls-2" d="m35.1,22.16h-16.3c-.79,0-2,.11-2.84.26l-.53-.95c1.65.13,3.26.15,3.67.15h6.69c.66-1.34,1.21-2.75,1.69-4.18.22-.62.22-.81.24-1.89l2.05,1.14c.15.09.22.27.22.33,0,.13-.13.22-.24.27-.11.04-.57.11-.66.13-.31.44-.4.66-1.61,2.38-1.14,1.63-1.32,1.78-1.36,1.83h6.03l1.01-1.1c.22-.24.26-.27.35-.27.11,0,.33.15.42.22l1.28,1.12c.13.11.22.18.22.33,0,.2-.18.22-.33.22Zm-.84-16.5h-14.06c-.79,0-2,.11-2.84.26l-.53-.95c1.65.13,3.26.15,3.67.15h11.02l.81-.88c.22-.22.24-.26.33-.26s.13.02.42.22l1.28.9c.09.04.22.18.22.33,0,.2-.18.22-.33.22Zm-3.45,4.33c.02.6.04,3.23.07,3.76.02.2.09.99.09,1.14,0,.72-.95.84-.99.84-.42,0-.4-.44-.37-.81h-8.76c0,.15-.02.35-.09.51-.18.31-.55.46-.84.46-.18,0-.42-.09-.42-.42,0-.13.02-.33.02-.4.07-1.01.11-2.42.11-2.77,0-.59-.02-2.9-.11-3.5-.02-.11-.11-.55-.13-.66l1.76.92h8.32l.46-.48c.2-.2.26-.26.37-.26.09,0,.11.02.33.18l.81.55c.09.09.15.2.15.29,0,.2-.22.33-.79.66Zm-1.19-.39h-8.78v4.8h8.78v-4.8Zm-6.58,11.13c-.68,0-.81-.73-.99-1.63-.2-.95-.64-2.02-1.21-2.82l.09-.13c1.03.59,2.9,2.33,2.9,3.61,0,.66-.44.97-.79.97Z"/>
        <path class="cls-2" d="m57.6,21.9h-16.24c-.77,0-1.98.09-2.82.24l-.53-.95c1.45.11,2.57.15,2.77.15.02-.44.02-12.89-.02-13.71-.04-.75-.11-1.96-.29-2.6l1.69.88h10.87l.35-.66c.04-.09.15-.24.31-.24.09,0,.15,0,.44.18l.99.62c.15.09.22.15.22.26,0,.15-.07.22-.79.88.02,1.5.02,13.22,0,14.41h.75l.73-1.12c.11-.15.18-.29.35-.29.13,0,.33.18.42.29l.92,1.04c.2.24.2.31.2.37,0,.2-.2.24-.33.24Zm-12.54-15.45h-3.04v14.92h3.04V6.45Zm4.05,0h-2.86v14.92h2.86V6.45Zm4.25,0h-3.08v14.92h3.08V6.45Z"/>
        <path class="cls-2" d="m69.15,11.71h-3.61v1.28c1.23.37,1.8.57,2.42,1.12.57.48.64.81.64,1.08,0,.57-.37.75-.66.75-.4,0-.66-.29-1.01-.95-.46-.86-.77-1.21-1.41-1.7,0,3.65.02,5.37.13,7.61.02.31.11,1.58.11,1.85,0,.6-.48,1.06-.97,1.06s-.57-.35-.57-.68c0-.13.09-1.8.11-2.05.22-4.33.22-4.66.2-7.24-1.34,2.31-3.08,4.42-5.19,6.07l-.15-.18c2.35-2.27,4.91-7.48,5.13-8.03h-1.06c-.77,0-1.98.09-2.82.24l-.53-.95c1.65.13,3.26.18,3.65.18h.95c0-.71-.02-3.83-.04-4.47-.02-1.65-.04-2.16-.37-3.08l1.83.53c.09.05.33.11.33.33s-.35.44-.59.59c-.11.99-.11,2.84-.11,4.25v1.85h1.54l.73-.73c.15-.15.29-.26.35-.26.11,0,.31.13.4.24l.73.7c.13.13.22.2.22.33,0,.2-.2.24-.35.24Zm-6.6-2.2c-.51,0-.62-.38-.86-1.23-.22-.77-.55-1.52-1.08-2.05l.09-.13c1.78,1.1,2.57,1.67,2.57,2.55,0,.13-.02.86-.73.86Zm6.42-2.66c-.15.18-2.46,3.06-2.46,3.08l-.18-.07c.59-.92,1.28-2.84,1.5-3.61.13-.44.11-.7.11-.97l1.58.84c.24.13.24.22.24.29,0,.31-.66.42-.79.44Zm11.02,8.36l-4.07.84c.02.79.09,4.34.13,5.06,0,.24.09,1.3.09,1.47,0,.59-.11.73-.26.88-.24.29-.53.37-.79.37-.46,0-.46-.46-.46-.72,0-.53.13-2.82.13-3.35.02-1.69.02-2.99.02-3.48l-4.77.97c-.99.2-2.09.55-2.73.81l-.7-.84c1.56-.18,3.1-.44,3.63-.55l4.58-.92c0-1.32-.07-3.43-.07-4.73,0-5.21,0-5.65-.37-7.2l2.05.55c.18.04.31.13.31.31,0,.29-.09.33-.75.68-.07.68-.11,1.45-.11,3.76,0,.24.02,3.39.09,6.4l1.91-.39.48-1.01c.15-.33.24-.33.31-.33.11,0,.33.11.4.15l.97.66c.2.13.26.22.26.35,0,.18-.15.22-.26.24Zm-7.81-1.19c-.51,0-.64-.4-.73-.73-.33-1.17-.97-1.98-1.21-2.27l.09-.07c.73.22,2.55,1.06,2.55,2.24,0,.59-.37.81-.7.81Zm.15-5.19c-.51,0-.62-.42-.7-.72-.33-1.14-.92-1.92-1.21-2.27l.09-.04c.73.2,2.55,1.05,2.55,2.22,0,.6-.4.81-.73.81Z"/>
        <path class="cls-2" d="m83.32,20.27v.22c0,.22,0,.59-.37.59-.2,0-.29-.13-.37-.33l-.95-1.94c.18.02.29.04.46.04.48,0,.88-.06,3.06-.81v-5.7c-.33,0-1.61.07-2.55.24l-.53-.95c.86.07,2.22.13,3.08.15v-5.46c-.77,0-2,.09-2.84.26l-.53-.95c1.14.09,2.53.15,3.67.15h2.07l.62-.7c.18-.22.24-.26.35-.26.13,0,.31.15.4.22l.75.7c.13.13.22.2.22.33,0,.24-.24.24-.33.24h-3.15v5.48h.95l.84-.86c.15-.18.26-.26.37-.26.13,0,.22.07.37.24l.81.84c.13.13.2.22.2.33,0,.22-.24.24-.33.24h-3.21v5.24c.4-.15,2.38-.9,2.82-1.06.4-.15.53-.22.79-.37l.07.18c-1.28,1.03-4.47,2.86-6.73,3.94Zm18.48,2.51h-12.23c-.77,0-1.98.09-2.82.26l-.53-.95c1.65.13,3.26.15,3.65.15h4.58v-4.03h-1.3c-.79,0-2,.09-2.84.24l-.53-.95c1.65.13,3.26.18,3.67.18h.99v-3.67h-2.82c0,.31,0,.59-.04.73-.07.15-.37.53-.84.53s-.46-.33-.46-.48c0-.09,0-.11.02-.37.15-2.22.18-6.67.18-6.95,0-1.47-.04-2.29-.24-3.04l1.8.79h6.18l.57-.57c.15-.15.26-.24.37-.24s.29.15.37.22l.9.68c.11.09.22.22.22.35,0,.22-.51.48-.7.59-.02.22-.02,5.21,0,6.05,0,.29.09,1.54.09,1.8,0,.48-.51.92-.9.92-.53,0-.51-.26-.46-1.01h-3.01v3.67h2.44l.81-.86c.09-.09.24-.26.35-.26s.26.13.4.24l1.01.84c.11.09.22.18.22.33,0,.2-.18.24-.33.24h-4.91v4.03h3.7l.75-.86c.22-.24.24-.26.35-.26s.15.02.4.22l1.03.86c.11.09.22.18.22.35,0,.2-.2.22-.33.22Zm-7.35-17.03h-2.84v3.56h2.84v-3.56Zm0,4.09h-2.84v3.65h2.84v-3.65Zm4.25-4.09h-3.01v3.56h3.01v-3.56Zm0,4.09h-3.01v3.65h3.01v-3.65Z"/>
        <path class="cls-2" d="m113.39,10.45c.37-.13.59-.26.59-.62,0-.22-.07-.42-.13-.62.97.2,1.67.77,1.67,1.76,0,.46-.11.46-.77.55-2.9.4-9.99,3.28-9.99,6.82,0,.33.04.81.53,1.39.88,1.01,3.94,1.01,4.53,1.01,1.8,0,2.64-.15,4.42-.51.37-.07.73-.07.79-.07.57,0,1.36.22,1.36.73,0,.33-.35.53-1.06.68-.75.18-2.86.24-3.67.24-2.49,0-3.89-.24-5.02-.48-1.63-.37-2.6-1.65-2.6-2.95,0-1.72,1.39-3.81,4.27-5.55-.29-.4-.84-1.21-.86-2.38-.11-3.74-.13-4.14-.18-4.49-.07-.44-.22-.73-.55-1.08-.11-.13-.73-.62-.86-.7.22-.07.46-.15.81-.15,1.3,0,2.2,1.25,2.2,1.52,0,.11-.07.33-.09.44-.26.92-.35,1.76-.35,2.71,0,.48,0,2.35.62,3.7.57-.31,2.09-1.12,4.31-1.96Z"/>
        <path class="cls-2" d="m136.08,10.63c-.02.68-.02,1.23-.02,2.2,0,2.38.13,6.16.13,8.54,0,.79-.11,1.19-.57,1.63-.18.15-.99.84-2.02.88-.13-.53-.24-.9-1.72-1.8v-.15c.4.02,2.44.07,2.46.07.13,0,.44-.02.48-.4.02-.15.02-3.08.02-3.52h-10.8c-.66,2.68-2.95,5.19-5.28,5.85l-.04-.09c1.3-.77,2.18-1.85,2.73-2.71.97-1.54,1.72-3.32,1.72-6.89,0-1.54,0-3.32-.18-4.67-1.14,1.01-2.6,2.09-4.25,2.73v-.09c2.93-2.09,5.3-4.88,6.71-7.48.26-.48.29-.73.37-1.25l1.63.99c.15.09.31.2.31.39,0,.15-.15.24-.24.27-.11.04-.64.15-.75.18-.37.53-.57.77-.86,1.14h4.53l.68-.57c.26-.22.31-.24.44-.24.09,0,.31.11.4.18l1.12.68c.09.04.24.2.24.33,0,.22-.2.31-.37.35-.75.13-.84.15-1.17.29-.18.13-.26.22-.48.44,0,0-1.54,1.61-1.67,1.72h4.69l.7-.68c.18-.18.22-.22.31-.22.11,0,.26.13.31.15l.95.77c.18.13.22.24.22.35,0,.31-.24.42-.73.64Zm-10.61-3.65c-.92,1.1-1.56,1.72-2.02,2.18l.81.46h4.99c.7-1.43.99-2.07,1.19-2.64h-4.97Zm3.52,7.02h-4.58c0,1.65-.11,2.66-.26,3.54h4.84v-3.54Zm0-3.85h-4.58v3.32h4.58v-3.32Zm5.85,0h-4.67v3.32h4.67v-3.32Zm0,3.85h-4.67v3.54h4.67v-3.54Z"/>
        <path class="cls-2" d="m147.29,14c-.7.4-1.47.84-1.74.97.02,1.14.02,1.85.04,2.71.02.42.09,2.93.09,3.1,0,1.36,0,2.09-2.22,2.79-.26-1.08-1.28-1.61-2.2-1.89v-.18c.7.05,1.63.11,2.31.11.64,0,.92-.02.92-.71,0-.07-.07-4.64-.07-5.35-.97.51-2.07,1.05-2.9,1.43-.02.37-.04.81-.35.81-.13,0-.22-.09-.26-.18l-.99-1.94c.37.02.66-.04,1.08-.18.51-.18,2-.64,3.41-1.14-.02-1.41-.09-3.63-.13-5.13h-.46c-.68,0-1.94.07-2.84.24l-.51-.95c1.85.15,3.34.18,3.78.18-.02-.55-.07-3.01-.09-3.5-.02-.35-.07-.62-.26-1.43l2.2.71c.11.04.2.11.2.26,0,.2-.11.31-.79.59,0,.24,0,3.08.02,3.37h1.32l.68-.84c.11-.13.22-.31.35-.31.15,0,.26.09.42.24l.92.84c.18.15.22.26.22.35,0,.24-.24.24-.33.24h-3.59c0,1.19,0,3.65.02,4.71,3.04-1.17,4.16-1.74,4.99-2.16l.02.13c-.73.62-2.16,1.43-3.28,2.07Zm12.89-6.45h-4.25c0,.09.09,4.6.09,4.99.07,3.65.13,8.14.13,8.49,0,1.05-.13,1.38-.44,1.69-.73.77-1.47.95-1.94,1.06-.44-1.41-1.47-1.74-2.24-1.94v-.18c.26.02,1.54.11,1.83.11,1.36,0,1.5-.04,1.5-.92s-.04-5-.04-5.92c0-1.06-.02-6.23-.02-7.39h-2.2c-.66,0-1.91.09-2.82.26l-.53-.95c1.17.09,2.51.15,3.65.15h4.69l.79-1.12c.11-.15.24-.29.35-.29.13,0,.31.15.42.24l1.14,1.1c.11.11.24.24.24.35,0,.24-.24.24-.35.24Z"/>
        <path class="cls-2" d="m165,11.77c-.46,0-.68-.4-.9-.79-.55-1.01-.59-1.08-1.45-1.87v-.09c1.23.26,1.72.42,2.09.68.57.37.95.92.95,1.3,0,.46-.33.77-.68.77Zm3.01-2.62c-1.96,5.88-2.16,6.54-2.88,8.47-.11.31-.15.48-.15.64,0,.48.09.77.53,2.33.15.51.2.95.2,1.32,0,.27,0,1.21-.81,1.21s-.81-.97-.81-1.21c0-.51.04-.88.11-1.32.02-.18.02-.57.02-.77,0-.68,0-2.02-1.39-2.4v-.11c.53-.07,1.1-.24,1.41-.68.37-.53,3.23-6.34,3.72-7.79l.15.04-.09.26Zm-1.69-1.85c-.46,0-.62-.35-.97-1.21-.51-1.19-.99-1.65-1.3-1.98l.02-.09c.62.18,2.93,1.06,2.93,2.46,0,.57-.31.81-.68.81Zm15.53-1.32h-5.43v3.23h2.68l.48-.53c.04-.07.2-.24.33-.24.09,0,.18.07.33.18l.92.73s.22.15.22.26c0,.2-.57.55-.84.7,0,.24.07,9.62.31,11.99.02.07.02.13.02.2,0,.53-.64.79-.95.79-.33,0-.51-.18-.51-.46,0-.15.02-.86.02-.99h-9.02c0,.59.02,1.32-.95,1.32-.37,0-.48-.13-.48-.46,0-.18.09-.97.09-1.12.07-2.46.13-4.91.13-7.37,0-1.36,0-4.69-.22-5.81l1.52.81h2.02v-3.23h-.9c-.77,0-1.98.09-2.82.26l-.53-.95c1.65.13,3.26.15,3.65.15h7.5l.77-.97c.11-.15.22-.29.35-.29.09,0,.15.04.4.26l.99.95c.15.13.22.2.22.35,0,.2-.18.22-.33.22Zm-2.4,3.76h-3.04v3.89c0,.29.07.35.42.35.77,0,.86-.11,1.28-1.47h.07c.09.35.26,1.1.48,1.25.35.24.4.26.4.4,0,.2-.18.42-.31.53-.26.26-.53.35-1.41.35-1.32,0-2,0-2-1.03v-4.27h-1.78c0,3.04-.84,5.02-2.88,6.36l-.04-.18c1.45-1.69,1.91-3.96,1.91-6.18h-2.11v7.92h9.02v-7.92Zm0,8.45h-9.02v3.12h9.02v-3.12Zm-4.14-12.21h-1.76v3.23h1.78c-.02-.84-.02-2.57-.02-3.23Z"/>
        <path class="cls-2" d="m202.03,5.61s-.46.33-.68.51c0,.42,0,.97.04,1.98,0,.06.02.2.02.26,0,.51-.55.7-.88.7s-.33-.24-.35-.46h-12.37c-.07,5.59-.09,6.78-.46,8.49-.48,2.31-1.58,4.82-3.37,6.49l-.11-.11c2.55-4.6,2.66-7.63,2.66-12.87,0-2.13,0-4.49-.22-6.38l1.91.79h11.6l.48-.48c.18-.18.26-.27.42-.27.11,0,.2.07.33.15l.79.64c.22.18.26.2.26.33,0,.09-.04.15-.09.22Zm1.63,17.25h-13.33c-.77,0-2,.11-2.84.26l-.51-.95c1.65.13,3.23.15,3.65.15h3.92c0-.48.02-2.73.02-3.19h-2.35c-.79,0-2,.09-2.84.26l-.53-.95c1.65.13,3.26.15,3.67.15h2.05c0-1.59,0-1.98-.29-2.82l1.67.48c.35.11.44.13.44.27,0,.15-.07.2-.64.68-.02.44-.02.53-.02,1.39h3.83l.64-.84c.22-.29.29-.29.33-.29.13,0,.37.2.42.22l1.1.86c.11.09.22.2.22.35,0,.2-.2.22-.33.22h-6.21v3.19h5.15l.95-1.03c.13-.15.24-.29.37-.29.07,0,.13,0,.4.24l1.17,1.04c.13.11.22.2.22.35,0,.2-.18.22-.33.22Zm-3.48-17.32h-12.34c0,.46,0,.68-.02,2.53h12.37v-2.53Zm2.95,5.7h-8.58c-.22.39-.92,1.3-1.32,1.83-.18.22-.99,1.34-1.17,1.58,1.43-.11,1.98-.15,6.82-.59-.62-.62-.97-.95-1.89-1.67l.09-.13c1.17.24,4.71,1.71,4.71,3.3,0,.29-.09.66-.55.66-.29,0-.46-.13-.68-.33-.2-.2-1.17-1.3-1.39-1.54-.73.15-4.22.86-5.02,1.01-.95.18-3.43.64-4.18.81-.31.42-.35.46-.51.46s-.2-.09-.24-.24l-.59-1.78c.37.07.64.13,1.47.13.64,0,.92-.02,1.36-.04.86-2.11,1.03-2.53,1.34-3.45h-1.08c-.44,0-1.76.04-2.82.26l-.53-.97c1.14.11,2.51.18,3.65.18h8.49l.73-.92c.18-.22.26-.31.35-.31.11,0,.31.15.42.24l1.21.95c.09.06.22.2.22.33,0,.24-.24.24-.33.24Z"/>
        <path class="cls-2" d="m24.15,54.64h-8.84v-.83h.78c.65,0,1.85-.52,1.85-2.44v-12.82c0-1.25-.49-2.03-1.74-2.03h-.88v-.86h8.48c3.56,0,6.27,1.43,6.27,4.39s-2.86,3.98-4.19,4.39c1.04.21,2.21.44,3.48,1.48,1.09.88,1.82,2.16,1.82,3.56,0,2.45-2.16,5.15-7.02,5.15Zm0-18.12h-2.5c-1.59,0-2.08.65-2.08,1.79v5.8h4.6c2.03,0,3.9-1.17,3.9-3.93,0-2.21-1.25-3.67-3.93-3.67Zm.18,8.43h-4.76v6.92c0,1.07.34,1.95,2.55,1.95h2.03c2.83,0,4.94-1.22,4.94-4.26,0-2.08-1.04-4.6-4.76-4.6Z"/>
        <path class="cls-2" d="m47.47,54.64h-14.14v-.83h.65c.86,0,1.87-.57,1.87-1.87v-13.57c0-1.17-.65-1.85-1.74-1.85h-.78v-.86h13.73l1.72,4.34-.68.31c-.88-1.25-2.63-3.8-6.08-3.8h-2.44c-1.51,0-2.05.65-2.05,1.79v6.14h3.33c1.27,0,2.5-1.12,2.5-2.81v-.42h.83v7.44h-.83v-.91c0-1.25-.83-2.44-2.5-2.44h-3.33v6.71c0,1.06.75,1.79,1.87,1.79h1.82c2.13,0,3.82-.65,4.65-1.17,1.61-1.01,2.24-2.24,2.7-3.12l.7.31-1.79,4.81Z"/>
        <path class="cls-2" d="m65.28,54.64h-14.14v-.83h.65c.86,0,1.87-.57,1.87-1.87v-13.57c0-1.17-.65-1.85-1.74-1.85h-.78v-.86h13.73l1.72,4.34-.68.31c-.88-1.25-2.63-3.8-6.08-3.8h-2.44c-1.51,0-2.05.65-2.05,1.79v6.14h3.33c1.27,0,2.5-1.12,2.5-2.81v-.42h.83v7.44h-.83v-.91c0-1.25-.83-2.44-2.5-2.44h-3.33v6.71c0,1.06.75,1.79,1.87,1.79h1.82c2.13,0,3.82-.65,4.65-1.17,1.61-1.01,2.24-2.24,2.7-3.12l.7.31-1.79,4.81Z"/>
        <path class="cls-2" d="m81.64,54.64l-5.3-9.33h-3.02v6.6c0,1.3.81,1.9,1.85,1.9h.81v.83h-6.94v-.83h.78c1.07,0,1.85-.65,1.85-1.9v-13.49c0-1.25-.73-1.9-1.85-1.9h-.78v-.86h8.01c3.12,0,6.63,1.12,6.63,4.58,0,1.51-.73,2.73-1.77,3.54-1.27.99-2.52,1.22-3.74,1.43l3.9,6.81c.75,1.3,1.61,1.79,2.89,1.79h.39v.83h-3.69Zm-4.42-18.12h-2.05c-1.17,0-1.85.73-1.85,1.9v6.03h3.74c2.47,0,4.58-1.35,4.58-4s-1.98-3.93-4.42-3.93Z"/>
        <path class="cls-2" d="m105.37,55.13c-1.64,0-1.72-1.59-1.72-2.21-1.64,1.4-2.68,2.21-4.42,2.21-2.39,0-3.56-1.25-3.56-2.78,0-1.64,1.38-2.68,1.66-2.89,1.66-1.2,3.09-1.66,6.32-2.42v-1.72c0-.62-.13-1.43-.7-1.97-.65-.62-1.53-.73-2.11-.73-1.12,0-2.16.49-2.31,1.64-.05.49-.18,1.48-1.22,1.48-.62,0-1.17-.49-1.17-1.14,0-1.59,2.37-2.76,4.89-2.76,2.21,0,4.19.68,4.19,3.12v7.67c0,.91.47,1.25,1.14,1.25.55,0,.68-.21.88-.52l.26.18c-.57,1.2-1.38,1.59-2.13,1.59Zm-1.72-7.31c-1.53.37-3.09.75-4.6,2-.78.65-1.53,1.56-1.53,2.45s.81,1.79,2.18,1.79c.42,0,2.11-.13,3.95-2.03v-4.21Z"/>
        <path class="cls-2" d="m115.8,54.64v-.83h.65c1.17,0,1.48-.78,1.48-1.9v-5.9c0-1.22-.36-2.96-2.39-2.96-1.82,0-3.33,1.61-4.06,2.42v6.45c0,1.04.31,1.9,1.53,1.9h.68v.83h-5.69v-.83h.49c1.14,0,1.46-.78,1.46-1.9v-7.54c0-.52-.34-1.17-.96-1.17-.05,0-.36,0-.75.1l-.13-.55,3.38-1.01v2.63c1.3-1.3,2.57-2.52,4.5-2.52,2.18,0,3.46,1.48,3.46,3.8v6.27c0,1.17.26,1.9,1.38,1.9h.68v.83h-5.69Z"/>
        <path class="cls-2" d="m132.21,54.64v-1.61c-.73.7-1.92,1.9-3.98,1.9-2.65,0-5.15-2.16-5.15-6.24s2.21-6.84,5.3-6.84c.83,0,2.55.29,3.82,2.05v-5.49c0-1.04-.52-1.53-1.27-1.53-.47,0-1.22.18-1.46.23l-.18-.57,4.42-1.33v16.95c0,.91.34,1.64,1.56,1.64h.49v.83h-3.56Zm0-9.23c-.36-.62-1.46-2.44-3.54-2.44-2.55,0-3.82,3.02-3.82,5.69,0,3.46,1.95,5.15,3.8,5.15.55,0,1.04-.16,1.3-.26,1.25-.47,1.77-1.12,2.26-1.72v-6.42Z"/>
        <path class="cls-2" d="m158.67,54.64v-.83h.91c.94,0,1.07-.52,1.07-.99,0-.13,0-.36-.18-.88l-1.38-4.06h-7.83l-1.35,3.8c-.03.05-.21.6-.21,1.06s.13,1.07,1.2,1.07h.42v.83h-5.12v-.83h.49c1.04,0,1.87-.75,2.24-1.79l5.82-16.43,1.82-.39,5.77,16.95c.31.94.96,1.66,2.08,1.66h.81v.83h-6.55Zm-3.41-18.1l-3.72,10.5h7.25l-3.54-10.5Z"/>
        <path class="cls-2" d="m188.6,36.51c-1.48,0-1.98,1.3-2.26,2.45l-4.21,16.17h-.47l-4.26-14.77-4.6,14.77h-.42l-4.42-16.51c-.34-1.22-1.07-2.11-2.31-2.11h-.52v-.86h6.58v.86h-.68c-.78,0-1.46.39-1.46,1.17,0,.08,0,.57.13,1.04l3.38,12.69,3.9-12.51-.23-.81c-.26-.88-.83-1.59-1.85-1.59h-.83v-.86h6.6v.86h-.73c-.99,0-1.43.44-1.43,1.22,0,.29.08.57.16.86l3.61,12.59,3.2-12.14c.05-.21.18-.91.18-1.28,0-.78-.68-1.25-1.33-1.25h-1.04v-.86h6.03v.86h-.73Z"/>
        <path class="cls-2" d="m200.66,54.64v-.83h.91c.94,0,1.07-.52,1.07-.99,0-.13,0-.36-.18-.88l-1.38-4.06h-7.83l-1.35,3.8c-.03.05-.21.6-.21,1.06s.13,1.07,1.2,1.07h.42v.83h-5.12v-.83h.49c1.04,0,1.87-.75,2.24-1.79l5.82-16.43,1.82-.39,5.77,16.95c.31.94.96,1.66,2.08,1.66h.81v.83h-6.55Zm-3.41-18.1l-3.72,10.5h7.25l-3.54-10.5Z"/>
        <path class="cls-2" d="m225.08,55.13c-1.09,0-1.98-.21-2.96-.54-.7-.23-.86-.23-1.01-.23-.6,0-1.33.49-1.77.78l-2.11-5.02.99-.47c.96,1.54,2.83,4.58,6.68,4.58,2.91,0,4.08-2.29,4.08-4.16,0-3.22-3.02-3.98-5.38-4.55-2.7-.68-5.62-1.64-5.62-5.44,0-.68.13-2.34,1.33-3.54,1.27-1.25,3.09-1.35,3.98-1.35s1.56.11,2.44.37c.55.18.68.18.81.18.57,0,1.12-.23,1.61-.52l1.79,4.5-.78.39c-.81-1.35-2.42-4.08-5.93-4.08-3.12,0-3.8,2.34-3.8,3.69,0,2.65,2.39,3.35,4.99,4.03,3.33.86,6.27,1.87,6.27,5.93,0,1.77-.83,5.46-5.62,5.46Z"/>
        <path class="cls-2" d="m249.57,40.86c-1.14-1.87-2.63-4.34-5.51-4.34-.83,0-1.98.26-1.98,1.9v13.49c0,1.3.81,1.9,1.82,1.9h1.35v.83h-7.9v-.83h1.27c1.04,0,1.82-.62,1.82-1.9v-13.49c0-1.56-1.04-1.9-2-1.9-2.83,0-4.37,2.47-5.49,4.34l-.65-.34,1.92-4.86h14.07l1.92,4.86-.65.34Z"/>
        <path class="cls-2" d="m264.7,54.64v-.83h.91c.94,0,1.07-.52,1.07-.99,0-.13,0-.36-.18-.88l-1.38-4.06h-7.83l-1.35,3.8c-.03.05-.21.6-.21,1.06s.13,1.07,1.2,1.07h.42v.83h-5.12v-.83h.49c1.04,0,1.87-.75,2.24-1.79l5.82-16.43,1.82-.39,5.77,16.95c.31.94.96,1.66,2.08,1.66h.81v.83h-6.55Zm-3.41-18.1l-3.72,10.5h7.25l-3.54-10.5Z"/>
        <path class="cls-2" d="m291.09,36.51c-1.46,0-2.37,1.09-2.37,2.89v15.24h-.81l-11.08-17.32v14.09c0,1.33.78,2.39,1.82,2.39h1.27v.83h-6.94v-.83h1.12c1.07,0,1.82-1.14,1.82-2.39v-12.77c0-1.35-1.07-2.13-2.05-2.13h-.88v-.86h4.71l10.14,15.81v-12.06c0-2.89-1.95-2.89-2.7-2.89v-.86h6.34v.86h-.39Z"/>
        <path class="cls-2" d="m293.09,53.8h.86c.86,0,1.74-.57,1.74-1.69v-13.96c0-1.12-.75-1.64-1.77-1.64h-.83v-.86h8.27c5.38,0,8.89,3.62,8.89,9.44,0,4.5-2.42,9.54-9.13,9.54h-8.03v-.83Zm6.03-17.29c-1.17,0-1.77.55-1.77,1.64v13.96c0,1.27.96,1.69,1.98,1.69h1.3c5.75,0,7.64-3.85,7.64-8.89,0-4.03-1.46-8.4-6.73-8.4h-2.42Z"/>
        <path class="cls-2" d="m339.21,36.51c-1.46,0-2.37,1.09-2.37,2.89v15.24h-.81l-11.08-17.32v14.09c0,1.33.78,2.39,1.82,2.39h1.27v.83h-6.94v-.83h1.12c1.07,0,1.82-1.14,1.82-2.39v-12.77c0-1.35-1.07-2.13-2.05-2.13h-.88v-.86h4.71l10.14,15.81v-12.06c0-2.89-1.95-2.89-2.7-2.89v-.86h6.34v.86h-.39Z"/>
        <path class="cls-2" d="m346.67,55.13c-3.25,0-5.69-3.12-5.69-6.66s2.39-6.63,5.69-6.63,5.69,3.15,5.69,6.63-2.44,6.66-5.69,6.66Zm0-12.51c-2.57,0-3.93,2.81-3.93,5.88s1.35,5.85,3.93,5.85c2.42,0,3.93-2.55,3.93-5.88,0-2.96-1.3-5.85-3.93-5.85Z"/>
        <path class="cls-2" d="m361.44,54.64v-.83h.65c1.17,0,1.48-.78,1.48-1.9v-5.9c0-1.22-.36-2.96-2.39-2.96-1.82,0-3.33,1.61-4.06,2.42v6.45c0,1.04.31,1.9,1.53,1.9h.68v.83h-5.69v-.83h.49c1.14,0,1.46-.78,1.46-1.9v-7.54c0-.52-.34-1.17-.96-1.17-.05,0-.36,0-.75.1l-.13-.55,3.38-1.01v2.63c1.3-1.3,2.57-2.52,4.5-2.52,2.18,0,3.46,1.48,3.46,3.8v6.27c0,1.17.26,1.9,1.38,1.9h.68v.83h-5.69Z"/>
        <path class="cls-2" d="m374.13,55.13c-3.25,0-5.69-3.12-5.69-6.66s2.39-6.63,5.69-6.63,5.69,3.15,5.69,6.63-2.44,6.66-5.69,6.66Zm0-12.51c-2.57,0-3.93,2.81-3.93,5.88s1.35,5.85,3.93,5.85c2.42,0,3.93-2.55,3.93-5.88,0-2.96-1.3-5.85-3.93-5.85Z"/>
        <path class="cls-2" d="m399.51,54.64v-1.61c-.73.7-1.92,1.9-3.98,1.9-2.65,0-5.15-2.16-5.15-6.24s2.21-6.84,5.3-6.84c.83,0,2.55.29,3.82,2.05v-5.49c0-1.04-.52-1.53-1.27-1.53-.47,0-1.22.18-1.46.23l-.18-.57,4.42-1.33v16.95c0,.91.34,1.64,1.56,1.64h.49v.83h-3.56Zm0-9.23c-.36-.62-1.46-2.44-3.54-2.44-2.55,0-3.82,3.02-3.82,5.69,0,3.46,1.95,5.15,3.8,5.15.55,0,1.04-.16,1.3-.26,1.25-.47,1.77-1.12,2.26-1.72v-6.42Z"/>
        <path class="cls-2" d="m404.42,54.64v-.83h.42c1.14,0,1.48-.75,1.48-1.9v-7.59c0-.52-.34-1.2-.99-1.2-.03,0-.36,0-.73.13l-.13-.57,3.43-1.01v10.24c0,1.9,1.09,1.9,1.87,1.9v.83h-5.36Zm2.65-16.82c-.78,0-1.33-.62-1.33-1.33,0-.65.49-1.3,1.33-1.3s1.33.68,1.33,1.3c0,.68-.52,1.33-1.33,1.33Z"/>
        <path class="cls-2" d="m428.26,45.64h-3.93v6.27c0,1.38.91,1.9,1.82,1.9h.81v.83h-6.92v-.83h.83c1.07,0,1.82-.65,1.82-1.9v-13.49c0-1.22-.7-1.9-1.82-1.9h-.83v-.86h7.46c1.79,0,7.07.31,7.07,4.94,0,3.02-2.26,5.04-6.32,5.04Zm-.08-9.13h-2.03c-1.09,0-1.82.68-1.82,1.9v6.4h3.93c3.41,0,4.34-2.18,4.34-4.08,0-3.15-2.44-4.21-4.42-4.21Z"/>
        <path class="cls-2" d="m442.02,55.13c-3.25,0-5.69-3.12-5.69-6.66s2.39-6.63,5.69-6.63,5.69,3.15,5.69,6.63-2.44,6.66-5.69,6.66Zm0-12.51c-2.57,0-3.93,2.81-3.93,5.88s1.35,5.85,3.93,5.85c2.42,0,3.93-2.55,3.93-5.88,0-2.96-1.3-5.85-3.93-5.85Z"/>
        <path class="cls-2" d="m456.78,54.64v-.83h.65c1.17,0,1.48-.78,1.48-1.9v-5.9c0-1.22-.36-2.96-2.39-2.96-1.82,0-3.33,1.61-4.06,2.42v6.45c0,1.04.31,1.9,1.53,1.9h.68v.83h-5.69v-.83h.49c1.14,0,1.46-.78,1.46-1.9v-7.54c0-.52-.34-1.17-.96-1.17-.05,0-.36,0-.75.1l-.13-.55,3.38-1.01v2.63c1.3-1.3,2.57-2.52,4.5-2.52,2.18,0,3.46,1.48,3.46,3.8v6.27c0,1.17.26,1.9,1.38,1.9h.68v.83h-5.69Z"/>
        <path class="cls-2" d="m468.72,55.13c-1.9,0-2.78-1.14-2.78-3.17v-8.79h-2.21v-.83c.44,0,1.04,0,1.74-.49.65-.47,1.43-1.71,1.43-2.7v-1.09h.62v4.29h4.32v.83h-4.32v8.87c0,1.4.81,1.98,1.98,1.98,1.46,0,2.18-.91,2.55-1.35l.44.44c-.83.88-1.87,2.03-3.77,2.03Z"/>
        <path class="cls-2" d="m479.4,55.13c-4.86,0-5.8-4.37-5.8-6.63,0-3.33,1.77-6.66,5.54-6.66,2.29,0,3.51,1.25,4.19,2.29.96,1.48,1.07,2.81,1.14,3.69h-9c-.18,6.21,3.98,6.32,4.47,6.32,2.26,0,3.46-1.59,4.06-2.42l.6.49c-.96,1.25-2.24,2.91-5.2,2.91Zm-.31-12.51c-2.94,0-3.38,3.15-3.56,4.34h6.94c-.18-3.35-1.8-4.34-3.38-4.34Z"/>
      </g>
    </g>
  </g>
</svg>