<?xml version="1.0" encoding="UTF-8"?>
<svg id="_レイヤー_2" data-name="レイヤー 2" xmlns="http://www.w3.org/2000/svg" viewBox="0 0 362.5 57.14">
  <defs>
    <style>
      .cls-1 {
        fill: none;
        stroke: #000;
        stroke-miterlimit: 10;
      }

      .cls-2, .cls-3 {
        stroke-width: 0px;
      }

      .cls-3 {
        fill: #1c2c5a;
      }
    </style>
  </defs>
  <g id="_レイヤー_1-2" data-name="レイヤー 1">
    <g>
      <g>
        <path class="cls-2" d="m21.65,27.09c7.47-3.27,12.15-10.86,12.87-15.3-2.31.18-10.89.99-12.24,1.86-.57.39-.63.42-.84.42-.78,0-2.82-1.74-2.82-3.33,0-.24.03-.48.15-.93.72,1.14,1.83,1.95,3.24,1.95,1.11,0,11.13-.81,11.91-.99.27-.06.54-.15,1.29-.81.18-.18.3-.24.42-.24.33,0,2.37,1.5,2.37,2.07,0,.3-.09.33-.96.75-.6.3-.63.36-.99,1.32-.27.66-2.61,6.36-6.96,9.93-2.13,1.77-4.65,3.03-7.38,3.51l-.06-.21Zm3.06-21.12c1.5,0,6.12-.48,7.32-.9.96-.36,1.08-.39,1.38-.39.48,0,2.1.18,2.1.96s-.84.81-3.15.96c-1.41.09-8.25.81-8.94.81-.6,0-2.04-.66-2.28-2.85,1.35,1.14,1.8,1.41,3.57,1.41Z"/>
        <path class="cls-2" d="m43.25,19.2c7.11-5.07,12.84-10.56,15.27-13.83.45-.63.48-.96.48-1.14,0-.21,0-.54-.45-.84-.18-.12-.96-.6-1.11-.69.3-.09.66-.21,1.08-.21,1.26,0,2.34.84,2.94,1.47.36.36.54.57.54.99,0,.33-.18.39-.6.57-.48.18-.57.27-1.44,1.14-3.24,3.24-3.6,3.6-4.77,4.68.6.27,1.5.69,1.5,1.17,0,.15-.3.78-.33.9-.15.39-.15.93-.15,1.74v10.29c0,1.26,0,1.74-.63,1.74-.99,0-1.53-1.71-1.53-2.04,0-.21.3-1.14.36-1.32.24-1.08.42-4.29.42-5.49,0-.69-.21-5.25-.24-5.52-.06-.3-.12-.39-.36-.63-3.3,2.85-6.87,5.4-10.86,7.17l-.12-.15Z"/>
        <path class="cls-2" d="m71.93,26.01c5.19-2.31,11.52-8.88,13.41-18.18-2.67.09-11.64,1.35-12.96,1.71-.57.15-.66.21-1.11.51-.03.03-.18.12-.33.12-.69,0-2.19-1.74-2.19-3.15,0-.3.12-.51.18-.66.96,1.47,1.92,1.65,2.7,1.65.24,0,12.09-1.08,12.81-1.2.75-.15,1.02-.3,1.32-.6.21-.18.27-.21.39-.21.33,0,2.37,1.77,2.37,2.19,0,.15-.09.24-.72.54-.72.33-.87.54-1.17,1.44-.18.6-1.68,5.46-5.19,9.93-2.37,3.06-5.7,5.25-9.48,6.15l-.03-.24Z"/>
        <path class="cls-2" d="m107.93,17.64c-.18.15-.42.33-.57.48-.12,3.75-.48,5.52-2.91,5.82-.24-.87-.6-1.29-1.8-1.83l.06-.18c.33.03,1.83.12,1.95.12.96,0,.99-.3,1.2-2.22.12-1.2.09-1.56.06-2.25h-3.81c0,1.59,0,5.91.09,8.49,0,.24.09,1.32.09,1.53,0,.75-.48,1.29-1.05,1.29-.48,0-.69-.3-.69-.66,0-.24.09-1.08.09-1.23v-1.68c0-1.83.03-3.63.06-5.43-1.68,2.58-4.5,5.58-7.05,7.05l-.09-.18c2.31-2.25,5.01-5.46,6.84-9.18h-3.27c-.21,1.32-.27,1.74-.36,1.95-.18.51-.66.78-1.02.78-.45,0-.69-.36-.69-.63,0-.12.54-2.28.63-2.67.42-1.98.87-4.23.87-6l1.74,1.38h2.4v-3.93h-1.29c-.93,0-2.61.12-3.84.36l-.72-1.29c1.68.12,3.33.21,4.98.21h2.76c.6-.9,1.08-2.43,1.32-3.12.45-1.29.63-2.16.6-2.82l2.07.99c.18.09.42.21.42.45,0,.45-.69.57-1.05.6-2.34,3.3-2.4,3.36-2.88,3.9h2.07l.57-.48c.12-.12.27-.24.39-.24.09,0,.27.09.39.18l.81.6c.18.12.33.27.33.45,0,.24-.45.48-.87.69.06.51.18,3.84.18,4.41,0,.69-.57.9-1.17.9-.51,0-.51-.09-.48-1.14h-3.18v3.75h3.42l.63-.69c.09-.12.27-.33.42-.33s.3.15.48.33l.72.66c.12.12.33.36.33.51,0,.12-.09.24-.18.3Zm-8.91-10.95c-.69,0-.78-.42-1.05-1.53-.36-1.5-.78-2.16-1.71-3.15l.12-.15c.81.36,3.57,1.77,3.57,3.75,0,.45-.18,1.08-.93,1.08Zm1.68,6.42h-2.73c-.36,1.56-.45,2.13-.72,3.75h3.45v-3.75Zm4.59-4.65h-3.18v3.93h3.18v-3.93Zm2.55,18.36c-.45,0-.78-.33-.78-.84,0-.21.12-.51.72-1.95.39-.99.36-1.29.33-1.74l.12-.06c.33.51.9,1.32.9,2.64s-.66,1.95-1.29,1.95Zm13.38-10.44h-10.59v2.82h7.62l.69-.72c.12-.12.24-.24.36-.24s.3.09.51.27l.9.69c.18.12.48.36.48.54s-.3.36-.99.72c-.39,3.99-1.23,6.06-1.86,6.84-.18.21-1.32,1.47-3.57,1.5-.21-1.08-.9-1.74-1.56-2.37l.12-.15c1.35.42,2.46.48,2.7.48,2.1,0,2.43-4.26,2.61-6.84h-8.01c0,.45.03,1.14-.96,1.14-.6,0-.72-.27-.72-.57,0-.45.06-2.46.06-2.88.03-3.45.09-8.49.09-11.79,0-.84-.03-1.17-.18-2.34l1.95,1.26h1.17c.69-2.31.66-3.15.63-3.66l1.86.9c.51.24.54.39.54.51,0,.33-.39.36-.87.33-.21.3-.72.99-1.65,1.92h4.35l.63-.66c.18-.18.33-.33.45-.33.15,0,.27.09.36.15l1.11.81c.12.09.21.15.21.33,0,.3-.36.48-1.05.87.06.63.12,2.76.15,3.75.03.78.21,2.34.21,2.88,0,.9-.81,1.11-1.14,1.11-.63,0-.66-.3-.66-.93h-6.54v2.94h7.59l.78-1.02c.09-.12.33-.36.48-.36.18,0,.45.21.57.3l1.32,1.05c.15.12.3.24.3.45,0,.27-.24.3-.45.3Zm-9.93,9.72c-.6,0-.75-.42-.75-.81,0-.21.09-1.2.09-1.41,0-.75-.12-1.17-.27-1.59l.15-.06c1.65,1.17,1.68,2.64,1.68,2.79,0,.66-.39,1.08-.9,1.08Zm5.88-20.64h-6.54v2.94h6.54v-2.94Zm0,3.66h-6.54v2.88h6.54v-2.88Zm-3.42,15.75c-.57,0-.6-.3-.63-1.2,0-.51-.12-1.14-.18-1.5-.06-.39-.09-.45-.27-.75l.12-.06c1.62,1.14,1.74,2.19,1.74,2.67,0,.69-.54.84-.78.84Zm2.61-1.17c-.6,0-.63-.18-.96-1.56-.15-.63-.3-.87-.66-1.2l.06-.15c1.77.45,2.19,1.59,2.19,2.1,0,.18-.09.81-.63.81Z"/>
        <path class="cls-2" d="m140.78,25.56c8.97-3.09,9.39-9.54,9.39-11.1,0-5.25-4.98-8.07-9.39-8.07-.63,0-.81.06-1.11.15,1.47,1.23,1.47,2.13,1.47,2.28,0,.36-.09.48-.72,1.8-3.66,7.68-3.99,8.43-5.7,10.98-.15.21-1.11,1.62-1.71,1.86-.18.09-.39.12-.57.12-.69,0-.9-.33-1.74-1.53-.21-.3-.39-.45-.81-.81-1.17-.96-1.56-2.01-1.56-4.05,0-6.03,5.07-11.7,12.75-11.7,5.49,0,10.92,3.12,10.92,9.33,0,5.49-4.41,10.41-11.16,11.07l-.06-.33Zm-3.39-11.67c.9-1.68,1.77-4.02,1.77-5.22,0-1.02-.6-1.65-.84-1.92-3.36.27-8.43,4.71-8.43,10.59,0,2.28,1.44,4.29,2.61,4.29.18,0,.39-.03.57-.21.66-.66,1.2-1.65,1.74-2.64l2.58-4.89Z"/>
        <path class="cls-2" d="m183.23,23.94c-2.37-1.68-4.32-3.27-6.51-6.36-1.74-2.4-3.15-5.04-3.93-7.89h-.24c0,4.65.06,9.27.21,13.92.03.57.18,3.12.18,3.57,0,1.05-1.05,1.44-1.44,1.44-.84,0-.84-.54-.84-.75,0-.42.21-2.28.21-2.64.12-2.64.09-3.75.18-13.8-.96,1.86-2.49,4.89-6.12,8.49-2.4,2.4-4.71,3.78-6.15,4.62l-.12-.24c5.04-4.32,9.27-9.69,11.4-14.61h-6.54c-1.05,0-2.73.12-3.87.33l-.69-1.29c2.25.18,4.41.24,4.98.24h7.11c0-3.21-.3-5.58-.36-6.03-.06-.45-.15-.72-.51-1.77l3.15.78c.27.06.33.21.33.36,0,.39-.15.48-1.05,1.02-.06.9-.03,4.83-.06,5.64h8.52l1.2-1.44c.09-.12.33-.36.48-.36.18,0,.39.21.57.36l1.5,1.38c.18.15.3.3.3.45,0,.27-.27.33-.45.33h-11.52c.66,1.53,3.24,6.54,7.65,9.54.33.24,3.42,2.34,5.76,2.76v.24c-1.86.09-2.46.75-3.33,1.71Z"/>
        <path class="cls-2" d="m217.79,6.48h-21.21c.12,9.51.18,17.37-4.71,21.84l-.18-.15c2.4-3.51,3.33-8.04,3.33-17.31,0-3.48-.15-4.5-.57-6.39l2.46,1.29h7.29c0-2.58-.09-3.09-.66-4.47l2.88.6c.09.03.54.15.54.42,0,.24-.15.36-.3.48-.21.15-.36.24-.78.51v2.46h8.46l1.11-1.2c.3-.33.33-.36.48-.36s.45.21.57.3l1.44,1.2c.15.12.3.27.3.48,0,.27-.24.3-.45.3Zm-1.44,6.21h-9.18v5.61h5.43l.72-.84c.3-.36.36-.39.48-.39.09,0,.39.21.57.36l.96.72c.24.18.48.36.48.51,0,.21-.72.63-1.11.9,0,.33.03,6,.12,7.14.03.39.06.63.06.78,0,.9-.6,1.32-1.17,1.32-.6,0-.66-.33-.66-.57,0-.15.06-.78.06-.93h-11.61c.03.93.03,1.71-1.23,1.71-.3,0-.66-.12-.66-.45,0-.15.09-.66.09-.78.12-1.41.18-2.91.18-4.8,0-2.76-.09-3.57-.27-6.03l2.01,1.35h3.99c0-1.08,0-5.79-.06-6.75-.15-2.79-.36-3.36-.6-3.99l2.64.66c.3.09.51.15.51.39,0,.39-.6.66-.93.81v2.55h5.79l1.14-1.26c.3-.33.33-.36.48-.36.18,0,.36.15.54.33l1.41,1.26c.15.12.27.24.27.45,0,.27-.27.3-.45.3Zm-3.24,6.33h-11.61v7.56h11.61v-7.56Z"/>
        <path class="cls-2" d="m229.54,24.75c-2.37-2-3.6-4.88-3.6-7.75s1.23-5.75,3.6-7.75l.14.22c-2.83,3.15-2.89,6.35-2.89,7.52s.06,4.37,2.89,7.52l-.14.22Z"/>
        <path class="cls-2" d="m237.42,12.74c.12.06.2.16.2.29,0,.14-.17.24-.64.34-.2.26-.62.78-1.28,1.63-.58.74-1.08,1.33-1.49,1.78.08,0,1.35-.06,2.16-.18-.06-.11-.24-.48-.62-.91l.08-.1c1.19.48,2.1,1.2,2.1,1.94,0,.3-.17.66-.58.66-.36,0-.52-.19-.65-.74-.02-.05-.08-.27-.17-.51l-1.38.32c0,.69.05,3.97.05,4.27.02.32.06,1.76.06,2.05,0,.42-.35.69-.73.69-.32,0-.41-.21-.41-.48,0-.26.06-1.31.06-1.54.02-.51.03-2.08.05-4.79-.96.22-1.72.4-1.92.45-.09.16-.24.46-.38.46-.15,0-.24-.19-.27-.29l-.33-1.36c.26.06.7.11,1.08.11.47,0,1.17-.02,1.41-.03,1.03-1.47,1.96-3.51,2.17-4.15.06-.16.09-.45.09-.64l1.35.72Zm-6,10.53c.65-1.55,1.09-3.59,1.06-4.67l1.25.48c.11.05.21.14.21.22,0,.11-.09.19-.49.35-.49,1.49-.93,2.38-1.96,3.67l-.08-.05Zm.58-10.52c.43.11.93.26,1.31.45.43-.9,1.09-2.64,1-3.59l1.44.75c.12.06.18.16.18.24,0,.24-.23.29-.58.35-.71.96-.82,1.1-1.85,2.35.44.29.9.72.9,1.26,0,.37-.23.77-.62.77-.35,0-.44-.19-.77-.98-.35-.83-.7-1.18-1.02-1.52l.02-.1Zm3.59,6.1c.62.29,2.14,1.01,2.14,2.1,0,.51-.35.78-.67.78-.41,0-.49-.32-.68-1.06-.21-.83-.5-1.3-.84-1.76l.05-.06Zm7.26-5.17l.46-.45c.08-.08.17-.18.21-.18.06,0,.17.1.21.14l.73.66c.08.06.14.16.14.24,0,.11-.29.34-.56.54-.09,4.43-.12,6.42-.93,8.05-.56,1.14-1.52,1.55-2.36,1.57-.12-.75-.59-1.25-1.38-1.81l.02-.1c.7.14,1.63.32,2.02.32,1.53,0,1.61-5.28,1.61-6.93,0-.27-.02-1.41-.02-1.68h-4.1c-.74,1.49-1.26,2.03-1.49,2.29l-.09-.06c1.12-2.35,1.64-5.06,1.64-5.89,0-.16-.05-.46-.08-.61l1.64.74c.08.03.17.11.17.22,0,.16-.23.27-.59.45-.17.51-.44,1.31-1,2.48h3.75Zm-4.15,3.06c1.44.62,2.16,1.14,2.16,2,0,.38-.18.75-.61.75-.4,0-.52-.18-.85-1.28-.12-.42-.41-.96-.76-1.38l.06-.1Z"/>
        <path class="cls-2" d="m253,11.4v.85c-2.42,3.92-3.27,6.15-3.46,9.72-.03.42-.08,1.42-.85,1.42-.38,0-.78-.34-.78-.88,0-1.14,1.06-4.5,4.27-9.84h-2.6c-2.2,0-2.54,1.07-2.87,2.1l-.46-.11.62-3.25h6.12Z"/>
        <path class="cls-2" d="m260.6,11.4v.85c-2.42,3.92-3.27,6.15-3.46,9.72-.03.42-.08,1.42-.85,1.42-.38,0-.78-.34-.78-.88,0-1.14,1.06-4.5,4.27-9.84h-2.6c-2.2,0-2.54,1.07-2.87,2.1l-.46-.11.62-3.25h6.12Z"/>
        <path class="cls-2" d="m264.81,23.39c-1.05,0-1.93-.77-2.49-1.73-.64-1.1-.93-3.07-.93-4.56,0-3.41,1.38-6,3.42-6,1.57,0,3.42,1.78,3.42,6.15,0,3.92-1.56,6.15-3.42,6.15Zm-1.7-9.62c-.21.8-.35,2.14-.35,3.47,0,3.57.81,5.6,2.05,5.6,1.05,0,1.52-1.47,1.69-2.08.21-.82.36-2.18.36-3.52,0-3.65-.84-5.6-2.05-5.6-1.08,0-1.55,1.57-1.7,2.13Z"/>
        <path class="cls-2" d="m271.27,15.21v1.26c.41-.43,1.2-1.26,2.51-1.26,1.43,0,1.7.98,1.82,1.44.52-.53,1.35-1.44,2.72-1.44s1.95.85,1.95,2.62v3.78c0,.61.3.96.76.96h.29v.51h-3.18v-.51h.27c.53,0,.77-.43.77-.96v-3.68c0-.45-.08-2.03-1.34-2.03-.43,0-1.38.26-2.14,1.39,0,.13.02.26.02.54v3.78c0,.67.35.96.76.96h.44v.51h-3.48v-.51h.44c.41,0,.76-.3.76-.96v-3.68c0-.34-.03-2.03-1.32-2.03-.36,0-1.34.21-2.05,1.26v4.45c0,.67.36.96.76.96h.27v.51h-3.16v-.51h.27c.46,0,.76-.34.76-.96v-4.82c0-.5-.26-.75-.62-.75-.17,0-.32.02-.46.06l-.06-.3,2.23-.59Z"/>
        <path class="cls-2" d="m282.87,24.23l-.3-.32,13.44-14.15.3.32-13.43,14.15Z"/>
        <path class="cls-2" d="m297.25,19.22c1.46-1.52,3.13-4.26,3.56-5.31.12-.32.18-.51.29-.94l1.23,1.01c.06.05.09.13.09.21,0,.22-.24.22-.59.29-.24.37-.55.82-1.09,1.57.18.16.26.21.26.32,0,.1-.06.19-.4.45-.05.69-.05,1.31-.05,1.81,0,.69.05,3.78.05,4.4,0,.83,0,1.28-.67,1.28-.27,0-.53-.1-.53-.45,0-.21.09-1.12.09-1.3.05-.98.03-1.39.06-5.04-1.09,1.17-1.93,1.65-2.23,1.82l-.06-.11Zm.06-4.69c2.13-2.1,3.36-4.19,3.53-4.87l1.14.86s.12.11.12.19c0,.18-.06.19-.64.32-1.32,1.86-2.78,2.88-4.07,3.62l-.08-.13Zm12.11.85l.55-.8c.12-.19.18-.21.23-.21.09,0,.15.06.29.18l.9.8c.09.08.15.14.15.24,0,.16-.12.18-.23.18h-5.41l1.41.48c.09.03.2.08.2.19,0,.21-.36.43-.47.48v1.58h1.57l.55-.69c.12-.14.15-.19.24-.19.08,0,.12.03.29.18l.76.67c.08.06.15.13.15.24,0,.14-.12.18-.23.18h-3.33c0,.22-.02,3.44-.02,3.52.35.05,1.17.18,2.26.18,1.4,0,2.1-.21,2.45-.29l.02.06c-.24.21-.74.64-.88,1.55-.24.02-.5.05-.87.05-4.89,0-5.7-2.9-6.05-4.21-.38,1.1-1.09,3.02-3.05,4.13l-.05-.06c2.25-2.67,2.48-5.78,2.48-6.45,0-.37-.03-.56-.06-.72l1.55.53c.09.03.17.08.17.22,0,.08-.03.13-.08.18-.06.05-.38.21-.44.24-.15.75-.27,1.14-.41,1.57.67,1.57,1.49,2.37,1.96,2.66,0-4.21,0-4.48-.03-5.14-.02-.19-.11-.98-.12-1.14h-1.6c-.38,0-1.11.02-1.79.14l-.3-.64c1.05.1,2.13.11,2.34.11h1.47c0-.94,0-1.95-.02-2.82h-1.17c-.27,0-1.05,0-1.78.14l-.3-.62c.94.08,1.88.1,2.34.1h.91c-.03-1.54-.05-1.66-.27-2.48l1.58.5c.12.03.21.08.21.19s-.38.46-.46.53v1.26h1.49l.59-.77c.09-.11.14-.19.24-.19s.15.05.27.16l.81.77c.08.08.15.14.15.26,0,.14-.14.16-.23.16h-3.34v2.82h2.4Z"/>
        <path class="cls-2" d="m326.46,15.62h-6.78l.53.13c.32.08.38.08.38.22,0,.13-.05.19-.38.38,0,.45.06,2.46.06,2.87,0,.96,0,1.44-1.6,1.92-.17-.67-.62-1.12-1.29-1.47v-.1c.2,0,1.08.06,1.26.06.55,0,.55-.02.56-.59.02-.75,0-2.58-.02-3.43h-4.13c-.38,0-1.11.02-1.79.14l-.3-.64c1.03.1,2.11.11,2.34.11h.71c0-2.83,0-3.14-.23-4.03l1.49.43c.23.06.29.13.29.27,0,.13-.05.18-.47.48v2.85h2.08c0-3.6,0-4-.03-4.55-.02-.35-.06-.72-.17-1.57l1.4.4c.17.05.29.1.29.27,0,.11,0,.18-.46.45v2.06h2.19l.59-.91c.06-.08.15-.21.24-.21.08,0,.18.1.27.18l.97.91c.09.1.15.14.15.24,0,.16-.12.18-.23.18h-4.19v2.55h4.18l.71-.96c.09-.13.18-.21.24-.21.08,0,.18.08.27.18l.91.96c.11.11.15.18.15.24,0,.16-.12.18-.23.18Zm-8.63,1.94c-.06.03-.24.08-.38.13-1.02,1.79-2.43,3.15-4.12,4.19l-.06-.08c1.63-1.81,2.74-3.94,2.95-4.47.12-.29.2-.58.29-.96l1.19.66c.14.08.26.14.26.34,0,.08-.05.16-.12.19Zm4.65,2.85c-2.43,2.24-4.83,3.7-8.54,3.83l-.02-.11c2.26-.59,4.57-1.52,6.75-3.63.5-.48,1.03-1.01,1.35-1.58l.93.96c.12.13.18.21.18.3,0,.19-.06.19-.65.24Zm2.64.42c-.44,0-.65-.35-.94-.85-.96-1.65-1.73-2.4-2.75-3.17l.06-.1c2.72.69,4.24,2.45,4.24,3.43,0,.34-.24.69-.61.69Z"/>
        <path class="cls-2" d="m328.71,22.57h.84c.79,0,1.06-.32,1.06-.98v-8.66c0-.5-.44-.58-.73-.58h-1.15v-.5h.27c1.17,0,2.29-.56,2.48-.67.11-.06.15-.1.21-.1.14,0,.17.1.17.22v10.28c0,.69.32.98,1.06.98h.84v.51h-5.05v-.51Z"/>
        <path class="cls-2" d="m338.84,23.39c-1.05,0-1.93-.77-2.49-1.73-.64-1.1-.93-3.07-.93-4.56,0-3.41,1.38-6,3.42-6,1.57,0,3.42,1.78,3.42,6.15,0,3.92-1.57,6.15-3.42,6.15Zm-1.7-9.62c-.21.8-.35,2.14-.35,3.47,0,3.57.81,5.6,2.05,5.6,1.05,0,1.52-1.47,1.69-2.08.21-.82.36-2.18.36-3.52,0-3.65-.84-5.6-2.05-5.6-1.08,0-1.55,1.57-1.7,2.13Z"/>
        <path class="cls-2" d="m348.08,12.04c-1.26,2.72-3.56,4.77-4.71,5.44l-.08-.11c2.13-2.54,3.33-4.79,3.68-5.86.14-.4.2-.72.24-1.02l1.31.93c.08.05.2.14.2.26,0,.19-.39.3-.64.37Zm5.52,5.01c-.15,5.76-.46,6.93-3.19,7.19-.06-1.01-.81-1.54-1.14-1.76l.02-.11c.64.14,1.29.27,1.76.27.73,0,1.02-.18,1.25-1.63.18-1.18.27-3.86.23-4.61h-3.07c-.09,2.51-1.11,6.85-5.9,7.78l-.03-.13c3.09-1.5,4.65-3.92,4.8-7.65h-.44c-.38,0-1.11.02-1.79.16l-.29-.64c.94.08,1.87.1,2.33.1h4.3l.41-.38c.09-.1.18-.18.27-.18.08,0,.15.08.21.14l.61.7c.08.08.14.18.14.26,0,.14-.05.18-.47.5Zm2.77-.02c-1.63-.74-3.43-2.46-4.57-6.08h-1.22c-.76,0-1.06.06-1.28.1l-.2-.56c.68.06,1.35.08,1.66.08h.76l.49-.51c.14-.14.2-.18.27-.18.09,0,.15.08.26.18l.56.58c.09.08.12.14.12.24,0,.32-.7.45-.97.5.73,2.06,3.25,4.11,5.58,4.29l.02.16c-.85.27-1.2.78-1.47,1.22Z"/>
        <path class="cls-2" d="m358.9,24.75l-.14-.22c2.83-3.15,2.89-6.35,2.89-7.52s-.06-4.37-2.89-7.52l.14-.22c2.37,2,3.6,4.88,3.6,7.75s-1.23,5.75-3.6,7.75Z"/>
      </g>
      <rect class="cls-3" width="7" height="57"/>
    </g>
    <g>
      <g>
        <rect class="cls-1" x="19.09" y="33.2" width="84.39" height="23.44" rx="5" ry="5"/>
        <g>
          <path class="cls-2" d="m44.46,42.2h-.29c-.14.1-.21.16-.84.69-.08.06-.67.48-.79.58l-.06-.06c.35-.9.49-1.47.59-1.94h-9.48c-.02,1.41-.64,2.74-1.44,2.74-.44,0-.62-.38-.62-.67,0-.4.26-.67.79-1.22.33-.35.93-1.22,1.02-2.1h.08c.08.26.15.5.18.86h6.41c.32-.5,1.23-2.43,1.12-3.63l1.47.82c.15.08.23.16.23.26,0,.14-.15.19-.7.29-.87,1.15-.97,1.28-1.81,2.27h2.61l.46-.37c.14-.11.24-.19.33-.19s.17.08.33.21l.9.75c.12.1.18.22.18.34,0,.32-.36.38-.68.38Zm-1.95,6.42c.02.21.02.35.03,1.63,0,.14.06.91.06,1.09,0,.64-.56.7-.7.7-.46,0-.43-.38-.4-.67h-6.28c0,.24.02.77-.65.77-.38,0-.46-.21-.44-.53.03-.64.09-1.97.09-2.59,0-.91-.08-1.41-.14-1.84l1.29.74h1.91c.23-.56.4-1.38.43-1.89h-1.63c0,.26.02.74-.61.74-.46,0-.46-.35-.46-.5,0-.4.09-2.16.09-2.53,0-.58-.02-.85-.12-1.3l1.31.62h3.98l.38-.43c.11-.11.17-.16.23-.16s.15.05.26.13l.56.45c.11.1.17.16.17.24,0,.13-.09.21-.46.5-.02.32.08,1.78.08,2.08,0,.43-.27.66-.65.66-.26,0-.44-.14-.43-.5h-1.38c-.29.51-.93,1.46-1.31,1.89h3.65l.33-.45c.08-.11.15-.18.23-.18s.17.06.27.14l.58.45c.09.08.17.18.17.26,0,.11-.09.22-.46.48Zm-6.82-7.99c-.41,0-.52-.35-.62-.75-.2-.8-.41-1.25-.85-1.89l.06-.08c.79.42,2.01,1.06,2.01,2.06,0,.42-.29.66-.59.66Zm5.84,7.67h-6.29v2.69h6.29v-2.69Zm-1.08-4.85h-4.36v2.19h4.36v-2.19Zm-1.9-3.03c-.53,0-.64-.51-.75-1.06-.12-.61-.27-1.01-.71-1.71l.06-.08c1.26.59,1.98,1.41,1.98,2.15,0,.11-.03.7-.58.7Z"/>
          <path class="cls-2" d="m60.28,41.08h-4.74l.79.5c.06.05.15.14.15.22,0,.19-.29.22-.56.24-.43.48-1.05,1.04-1.34,1.3h2.6l.59-.7c.08-.1.17-.19.24-.19s.21.1.27.16l.7.7c.08.08.14.14.14.24,0,.16-.12.18-.23.18h-4.85c0,.19.02,1.07.02,1.25h2.14l.53-.58c.09-.1.18-.19.26-.19s.15.08.29.18l.74.54c.08.06.17.14.17.26,0,.14-.12.18-.23.18h-3.91v1.39h3.91l.68-.82c.11-.13.15-.19.24-.19.11,0,.2.1.27.16l.84.82c.08.08.15.14.15.26,0,.14-.14.16-.24.16h-5.55c1.05,1.31,3.34,2.9,5.93,3.09l.02.1c-.49.24-1.02.51-1.4,1.3-1.96-.77-3.86-2.59-4.8-4.48h-.05c.02,1.46.03,1.74.03,2.05.02.37.09,1.95.09,2.29,0,.48-.46.66-.77.66-.41,0-.44-.26-.44-.5,0-.35.05-.94.06-1.31.02-.53.02-.77.05-2.99-1.09,1.54-3.13,3.52-6.03,4.32l-.03-.1c2.05-1.15,3.45-2.45,4.86-4.42h-2.69c-.15,0-1.09,0-1.79.14l-.3-.64c1.02.1,2.05.11,2.34.11h3.65v-1.39h-2.66c-.39,0-1.11.02-1.79.14l-.3-.64c1.05.1,2.14.11,2.34.11h2.42v-1.25h-3.19c-.14,0-1.08,0-1.78.14l-.3-.64c1.02.1,2.08.11,2.34.11h4.13c.2-.37.67-1.5.76-2.26h-4.32c.88.3,1.69.78,1.69,1.55,0,.46-.36.64-.61.64-.35,0-.4-.1-.76-1.06-.08-.21-.27-.72-.62-1.14h-1.58c-.38,0-1.11,0-1.79.14l-.29-.64c1.03.1,2.11.11,2.33.11h2.86c-.05-2.3-.05-2.48-.26-3.3l1.47.45c.14.05.21.1.21.24,0,.18-.17.27-.46.38v2.22h1.12c0-2.03,0-2.5-.32-3.3l1.55.43c.09.03.26.08.26.24,0,.24-.36.37-.5.42v2.21h.65c.35-.7.73-1.89.79-2.24.06-.27.08-.51.08-.77l1.35.72c.09.05.18.11.18.22,0,.24-.36.29-.53.3-.47.53-1.28,1.44-1.58,1.76h2.39l.65-.72c.12-.13.18-.21.24-.21.09,0,.2.08.3.18l.79.7c.09.08.17.14.17.26,0,.14-.14.18-.23.18Zm-9.88-.74c-.36,0-.47-.26-.76-.98-.05-.11-.29-.72-.88-1.26l.06-.11c.61.16,2.13.59,2.13,1.71,0,.21-.11.64-.55.64Z"/>
          <path class="cls-2" d="m66.45,39.96c-.02.58-.03.94-.03,1.71,0,1.68.09,5.31.12,6,0,.21.05.58.05.78,0,.61-.65.64-.73.64-.41,0-.41-.11-.38-1.17h-1.9c0,.11.05,1.42.05,1.46,0,.58-.59.69-.76.69-.38,0-.38-.3-.38-.5,0-.18.05-.96.05-1.12.05-1.22.06-5.71.06-6.08,0-2.38-.05-2.83-.18-3.95l1.32.67h1.55l.44-.42c.17-.14.2-.21.27-.21s.15.05.24.14l.61.58c.06.06.12.16.12.26,0,.14-.3.35-.52.51Zm-.96-.48h-1.91v3.76h1.91v-3.76Zm0,4.15h-1.91v3.92h1.91v-3.92Zm9.94-.3h-6.69c-.27,0-1.05,0-1.79.14l-.29-.64c.94.08,1.87.11,2.33.11h1.28v-2.45h-.67c-.15,0-1.08,0-1.79.14l-.29-.64c1,.1,2.07.11,2.33.11h.43c0-1.62-.05-1.92-.26-2.61l1.57.48c.17.05.27.13.27.26s-.05.16-.49.48c-.02.38-.02.48-.03,1.39h1.49l.56-.69c.11-.14.17-.19.24-.19.09,0,.17.05.27.16l.75.69c.08.06.15.13.15.24,0,.14-.14.18-.23.18h-3.25v2.45h2.31l.58-.74c.12-.16.17-.21.23-.21.09,0,.14.06.29.19l.81.72c.12.11.14.19.14.24,0,.16-.14.18-.23.18Zm-.03,2.93h-2.52c0,.32.05,3.33.05,3.84,0,.61,0,1.6-1.96,1.98-.14-.53-.3-.98-1.4-1.6l.03-.11c.3.03,1.25.11,1.49.11.68,0,.78-.14.79-.46.02-.29.02-3.51,0-3.76h-2.95c-.38,0-1.11.02-1.79.14l-.29-.64c1.03.1,2.11.11,2.33.11h2.71c-.02-.62-.05-1.74-.2-2.21l1.37.35c.2.05.29.08.29.21,0,.11-.05.14-.44.46-.02.3-.02.4-.02,1.18h.71l.62-.75c.12-.14.18-.19.26-.19s.14.03.26.16l.74.75c.11.1.15.14.15.24,0,.14-.12.18-.23.18Zm-5.81,3.22c-.46,0-.55-.45-.62-.88-.17-1.01-.47-1.47-.71-1.78l.06-.1c1.49.62,1.91,1.55,1.91,2.05,0,.43-.32.7-.64.7Z"/>
          <path class="cls-2" d="m83.07,39.43v1.82c0,.26.06,1.49.06,1.66,0,.38-.36.62-.74.62-.41,0-.36-.38-.33-.58h-2.6v4.02c0,.58.06,3.36.06,3.99,0,.42-.15.9-.77.9-.33,0-.44-.21-.44-.42,0-.1.05-.51.05-.61.12-1.81.12-2.8.12-9.81,0-2.29,0-2.34-.17-3.2l1.41.7h2.19l.4-.38c.09-.08.15-.16.21-.16s.14.06.18.1l.79.61c.06.05.11.11.11.21,0,.11-.09.21-.52.53Zm-1-.51h-2.61v1.6h2.61v-1.6Zm0,1.98h-2.61v1.68h2.61v-1.68Zm4.21,4.48c0,.75,0,1.97.05,2.93,0,.14.06.8.06.93,0,.69-.56.74-.76.74s-.4-.05-.32-.8h-2.96c.03.38.09,1.04-.71,1.04-.33,0-.35-.27-.35-.45,0-.1.03-.51.05-.69.06-.91.06-2.62.06-2.77,0-.86,0-1.44-.11-2.26l1.11.58h2.89l.26-.35c.08-.11.17-.21.29-.21.08,0,.17.06.24.13l.55.5c.08.06.14.13.14.21,0,.11-.14.26-.47.48Zm-.97-.37h-2.96v1.68h2.96v-1.68Zm0,2.06h-2.96v1.71h2.96v-1.71Zm4.33-7.6c0,1.55.03,8.42.03,9.81s0,1.82-.61,2.27c-.09.06-.52.38-1.15.53-.12-.56-.26-1.17-1.64-1.73l.03-.11c.26.02,1.64.1,1.79.1.14,0,.43,0,.52-.19.06-.14.06-1.46.06-1.74,0-.86-.02-4.67-.02-5.44h-2.87c.02.45-.3.66-.71.66-.21,0-.35-.13-.35-.38,0-.7.05-3.75.05-4.35,0-.27-.03-.56-.08-1.02l1.26.67h2.57l.37-.43c.06-.06.18-.18.27-.18s.18.05.24.11l.73.66c.08.08.12.14.12.22,0,.13-.12.24-.61.56Zm-.99-.56h-2.89v1.6h2.89v-1.6Zm0,1.98h-2.89v1.68h2.89v-1.68Z"/>
        </g>
      </g>
      <g>
        <path class="cls-2" d="m118.02,47.48c-.32.21-.79.42-1.32.42-1.5,0-2.72-1.6-2.72-3.55,0-2.21,1.5-4.21,3.25-4.21s3.5,2.08,3.5,5.52c0,3.7-1.98,6.77-4.3,6.77-1.02,0-1.73-.64-1.73-1.39,0-.58.43-.83.78-.83.3,0,.81.21.84,1.1.02.35.05.58.46.58s.82-.21,1.11-.56c1.35-1.57,1.43-3.94,1.49-5.36-.29.5-.61,1.04-1.34,1.52Zm.5-5.94c-.26-.43-.65-.86-1.23-.86-.81,0-1.95.9-1.95,3.52,0,.74.17,2.98,1.73,2.98.58,0,1.55-.45,2.26-2.18-.06-.88-.18-2.42-.82-3.46Z"/>
        <path class="cls-2" d="m126.39,41.25c-.02.58-.03.94-.03,1.71,0,1.68.09,5.31.12,6,0,.21.05.58.05.78,0,.61-.65.64-.73.64-.41,0-.41-.11-.38-1.17h-1.9c0,.11.05,1.42.05,1.46,0,.58-.59.69-.76.69-.38,0-.38-.3-.38-.5,0-.18.05-.96.05-1.12.05-1.22.06-5.71.06-6.08,0-2.39-.05-2.83-.18-3.95l1.32.67h1.55l.44-.42c.17-.14.2-.21.27-.21s.15.05.24.14l.61.58c.06.06.12.16.12.26,0,.14-.3.35-.52.51Zm-.96-.48h-1.91v3.76h1.91v-3.76Zm0,4.15h-1.91v3.92h1.91v-3.92Zm9.94-.3h-6.69c-.27,0-1.05,0-1.79.14l-.29-.64c.94.08,1.87.11,2.33.11h1.28v-2.45h-.67c-.15,0-1.08,0-1.79.14l-.29-.64c1,.1,2.07.11,2.33.11h.43c0-1.62-.05-1.92-.26-2.61l1.57.48c.17.05.27.13.27.26s-.05.16-.49.48c-.02.38-.02.48-.03,1.39h1.49l.56-.69c.11-.14.17-.19.24-.19.09,0,.17.05.27.16l.74.69c.08.06.15.13.15.24,0,.14-.14.18-.23.18h-3.25v2.45h2.31l.58-.74c.12-.16.17-.21.23-.21.09,0,.14.06.29.19l.81.72c.12.11.14.19.14.24,0,.16-.14.18-.23.18Zm-.03,2.93h-2.52c0,.32.05,3.33.05,3.84,0,.61,0,1.6-1.96,1.98-.14-.53-.3-.98-1.4-1.6l.03-.11c.3.03,1.25.11,1.49.11.68,0,.78-.14.79-.46.02-.29.02-3.51,0-3.76h-2.95c-.38,0-1.11.02-1.79.14l-.29-.64c1.03.1,2.11.11,2.33.11h2.71c-.02-.62-.05-1.74-.2-2.21l1.37.35c.2.05.29.08.29.21,0,.11-.05.14-.44.46-.02.3-.02.4-.02,1.18h.71l.62-.75c.12-.14.18-.19.26-.19s.14.03.26.16l.74.75c.11.1.15.14.15.24,0,.14-.12.18-.23.18Zm-5.81,3.22c-.46,0-.55-.45-.62-.88-.17-1.01-.47-1.47-.71-1.78l.06-.1c1.49.62,1.91,1.55,1.91,2.05,0,.43-.32.7-.64.7Z"/>
        <path class="cls-2" d="m142.4,46.68c.7.62,1.03,1.42,1.03,2.37,0,1.97-1.53,3.38-3.54,3.38-1.64,0-3.02-.98-3.02-2.26,0-.7.44-1.02.87-1.02.52,0,.75.46.75.8,0,.24-.05.38-.09.51-.03.1-.05.21-.05.37,0,.61.65,1.06,1.37,1.06,1.17,0,2.36-1.22,2.36-2.83s-1.15-2.93-2.37-2.93c-.09,0-.52.06-.61.06-.23,0-.33-.14-.33-.34,0-.21.15-.37.35-.37.09,0,.55.1.65.1,1.28,0,2.08-1.2,2.08-2.5s-.71-2.4-1.92-2.4c-.81,0-1.23.61-1.23,1.07,0,.08.03.16.05.24.03.11.05.27.05.38,0,.5-.35.88-.77.88-.5,0-.76-.46-.76-.88,0-.88.97-2.24,2.92-2.24s3.04,1.28,3.04,2.69c0,.56-.2,1.1-.56,1.63-.62.86-1.31,1.14-1.93,1.36.7.22,1.15.38,1.69.86Z"/>
        <path class="cls-2" d="m147.75,52.42c-1.05,0-1.93-.77-2.49-1.73-.64-1.1-.93-3.07-.93-4.56,0-3.41,1.38-6,3.42-6,1.57,0,3.42,1.78,3.42,6.15,0,3.92-1.56,6.15-3.42,6.15Zm-1.7-9.62c-.21.8-.35,2.14-.35,3.47,0,3.57.81,5.6,2.05,5.6,1.05,0,1.52-1.47,1.69-2.08.21-.82.36-2.18.36-3.52,0-3.65-.84-5.6-2.05-5.6-1.08,0-1.55,1.57-1.7,2.13Z"/>
        <path class="cls-2" d="m156.99,41.08c-1.26,2.72-3.56,4.77-4.71,5.44l-.08-.11c2.13-2.54,3.33-4.79,3.68-5.86.14-.4.2-.72.24-1.02l1.31.93c.08.05.2.14.2.26,0,.19-.4.3-.64.37Zm5.52,5.01c-.15,5.76-.46,6.93-3.19,7.19-.06-1.01-.81-1.54-1.14-1.76l.02-.11c.64.14,1.29.27,1.76.27.73,0,1.02-.18,1.25-1.63.18-1.18.27-3.86.23-4.61h-3.07c-.09,2.51-1.11,6.85-5.9,7.78l-.03-.13c3.09-1.5,4.65-3.92,4.8-7.65h-.44c-.38,0-1.11.02-1.79.16l-.29-.64c.94.08,1.87.1,2.33.1h4.3l.41-.38c.09-.1.18-.18.27-.18.08,0,.15.08.21.14l.61.7c.08.08.14.18.14.26,0,.14-.05.18-.47.5Zm2.77-.02c-1.63-.74-3.43-2.47-4.57-6.08h-1.22c-.76,0-1.06.06-1.28.1l-.2-.56c.68.06,1.35.08,1.66.08h.76l.49-.51c.14-.14.2-.18.27-.18.09,0,.15.08.26.18l.56.58c.09.08.12.14.12.24,0,.32-.7.45-.97.5.73,2.06,3.25,4.11,5.58,4.29l.02.16c-.85.27-1.2.78-1.47,1.22Z"/>
        <path class="cls-2" d="m176.41,47.37c-.94,0-1.73-.37-2.49-.74-2.2-1.06-2.25-1.09-2.92-1.09-.96,0-2.37.53-3.31,1.28l-.2-.24c1.78-1.87,3.72-1.87,3.95-1.87.61,0,1.22.11,2.74.86,1.69.83,1.96.98,2.66.98.94,0,2.36-.54,3.31-1.3l.2.24c-1.78,1.87-3.71,1.87-3.94,1.87Z"/>
        <path class="cls-2" d="m187.46,52.12h-5.97v-.43c.3-1.01,1.02-2.13,2.23-3.59,2.23-2.72,2.99-3.63,2.99-5.23,0-1.2-.73-2.19-2.02-2.19-1.06,0-1.7.67-1.7,1.25,0,.05,0,.26.15.5.2.32.32.5.32.8,0,.48-.37.9-.82.9-.53,0-.87-.53-.87-1.12,0-1.17,1.08-2.87,3.27-2.87,1.88,0,3.04,1.25,3.04,2.98,0,1.62-.88,2.5-2.25,3.73-.52.45-2.52,2.26-3.28,4.02h2.1c2.13,0,2.63-.86,3.09-2.19l.46.18-.73,3.28Z"/>
        <path class="cls-2" d="m195.07,52.12h-5.97v-.43c.3-1.01,1.02-2.13,2.23-3.59,2.23-2.72,2.99-3.63,2.99-5.23,0-1.2-.73-2.19-2.02-2.19-1.06,0-1.7.67-1.7,1.25,0,.05,0,.26.15.5.2.32.32.5.32.8,0,.48-.36.9-.82.9-.53,0-.87-.53-.87-1.12,0-1.17,1.08-2.87,3.27-2.87,1.88,0,3.04,1.25,3.04,2.98,0,1.62-.88,2.5-2.25,3.73-.52.45-2.52,2.26-3.28,4.02h2.1c2.13,0,2.63-.86,3.09-2.19l.46.18-.73,3.28Z"/>
        <path class="cls-2" d="m201.54,41.25c-.02.58-.03.94-.03,1.71,0,1.68.09,5.31.12,6,0,.21.05.58.05.78,0,.61-.65.64-.73.64-.41,0-.41-.11-.38-1.17h-1.9c0,.11.05,1.42.05,1.46,0,.58-.59.69-.76.69-.38,0-.38-.3-.38-.5,0-.18.05-.96.05-1.12.05-1.22.06-5.71.06-6.08,0-2.39-.05-2.83-.18-3.95l1.32.67h1.55l.44-.42c.17-.14.2-.21.27-.21s.15.05.24.14l.61.58c.06.06.12.16.12.26,0,.14-.3.35-.52.51Zm-.96-.48h-1.91v3.76h1.91v-3.76Zm0,4.15h-1.91v3.92h1.91v-3.92Zm9.94-.3h-6.69c-.27,0-1.05,0-1.79.14l-.29-.64c.94.08,1.87.11,2.33.11h1.28v-2.45h-.67c-.15,0-1.08,0-1.79.14l-.29-.64c1,.1,2.07.11,2.33.11h.43c0-1.62-.05-1.92-.26-2.61l1.57.48c.17.05.27.13.27.26s-.05.16-.49.48c-.02.38-.02.48-.03,1.39h1.49l.56-.69c.11-.14.17-.19.24-.19.09,0,.17.05.27.16l.74.69c.08.06.15.13.15.24,0,.14-.14.18-.23.18h-3.25v2.45h2.31l.58-.74c.12-.16.17-.21.23-.21.09,0,.14.06.29.19l.81.72c.12.11.14.19.14.24,0,.16-.14.18-.23.18Zm-.03,2.93h-2.52c0,.32.05,3.33.05,3.84,0,.61,0,1.6-1.96,1.98-.14-.53-.3-.98-1.4-1.6l.03-.11c.3.03,1.25.11,1.49.11.68,0,.78-.14.79-.46.02-.29.02-3.51,0-3.76h-2.95c-.38,0-1.11.02-1.79.14l-.29-.64c1.03.1,2.11.11,2.33.11h2.71c-.02-.62-.05-1.74-.2-2.21l1.37.35c.2.05.29.08.29.21,0,.11-.05.14-.44.46-.02.3-.02.4-.02,1.18h.71l.62-.75c.12-.14.18-.19.26-.19s.14.03.26.16l.74.75c.11.1.15.14.15.24,0,.14-.12.18-.23.18Zm-5.81,3.22c-.46,0-.55-.45-.62-.88-.17-1.01-.47-1.47-.71-1.78l.06-.1c1.49.62,1.91,1.55,1.91,2.05,0,.43-.32.7-.64.7Z"/>
      </g>
    </g>
  </g>
</svg>