<?xml version="1.0" encoding="UTF-8"?>
<svg id="_レイヤー_2" data-name="レイヤー 2" xmlns="http://www.w3.org/2000/svg" viewBox="0 0 210.95 57">
  <defs>
    <style>
      .cls-1, .cls-2 {
        stroke-width: 0px;
      }

      .cls-2 {
        fill: #1c2c5a;
      }
    </style>
  </defs>
  <g id="_レイヤー_1-2" data-name="レイヤー 1">
    <g>
      <g>
        <path class="cls-1" d="m44.69,5.22h-12.66v4.95c1.23.27,7.65,1.71,7.65,5.13,0,.57-.48,1.14-.99,1.14-.57,0-.81-.39-1.62-1.59-1.23-1.83-3.06-3.27-5.04-4.29,0,6.06,0,6.9.18,14.49,0,.48.03.66.03,1.38,0,.66-.06.9-.27,1.08-.3.27-.69.39-1.05.39-.84,0-.84-.54-.84-.84,0-.18.06-1.05.06-1.23.21-5.19.21-6.51.21-14.22v-6.39h-7.11c-.63,0-2.43.09-3.87.36l-.72-1.29c1.56.12,3.45.21,5.01.21h17.16l1.23-1.32c.3-.33.36-.39.48-.39.15,0,.45.24.57.33l1.74,1.32c.12.12.3.27.3.45,0,.33-.33.33-.45.33Z"/>
        <path class="cls-1" d="m77.06,27.54c-.57.21-1.14.27-4.74.27-2.94,0-4.29,0-4.29-2.79,0-2.97.06-4.41.69-15.09,0-.21.03-.42.03-.57h-4.83c-.12,1.35-.33,3.72-1.2,7.26,2.4,1.44,3.36,2.97,3.36,3.72,0,.36-.33.9-1.05.9-.45,0-.6-.18-.9-.54-.99-1.14-1.14-1.32-1.98-2.19-1.83,5.37-6.18,8.91-11.01,10.35l-.09-.18c7.14-3.06,9.03-9.54,9.63-11.55-1.05-.9-2.19-1.65-4.17-2.52v-.21c2.64.63,3.75,1.05,4.53,1.38.51-2.1.81-4.26,1.05-6.42h-5.28c-1.08,0-2.73.12-3.87.36l-.72-1.29c2.25.18,4.44.21,5.01.21h4.89c.06-.96.09-1.89.09-2.85,0-2.4-.09-2.85-.45-4.59l3.27.99c.06.03.24.18.24.39,0,.3-.54.66-1.02.93-.03,1.17-.06,2.64-.27,5.13h4.35l1.17-.84c.15-.12.42-.33.6-.33s.27.06.42.18l1.26.99c.09.09.24.24.24.36,0,.33-.21.42-.39.48-.36.15-.63.3-1.11.6-.12,1.53-.33,4.02-.54,8.04-.09,1.8-.24,4.65-.24,6.42,0,.57.06,1.41.9,1.5.15.03,2.25.03,2.58.03,1.83,0,2.37,0,2.67-.9.15-.42.87-3.81,1.05-4.65h.15c.54,3.84.6,4.26.78,4.56.09.09.48.57.54.66.06.12.12.21.12.36,0,.42-.57,1.11-1.47,1.44Z"/>
        <path class="cls-1" d="m110.96,15.03h-12.3v10.02c0,.72.06,1.35-.48,1.95-.27.33-1.05,1.11-3.06,1.44-.09-.66-.21-1.08-.63-1.47-.18-.15-1.02-.9-3.12-1.5l.06-.21c.99.12,2.82.39,3.84.39,1.26,0,1.71-.27,1.71-1.32v-9.3h-8.01c-1.05,0-2.73.15-3.87.36l-.69-1.29c2.25.18,4.41.21,4.98.21h7.59v-3.03c0-1.98-.24-2.79-.39-3.27l2.25.57c1.86-2.28,1.95-2.43,3.36-4.56h-9.87c-1.05,0-2.7.12-3.84.33l-.72-1.29c2.25.18,4.44.24,4.98.24h9.75l.93-.81c.18-.18.33-.3.57-.3s.48.18.6.27l1.74,1.23c.12.09.33.27.33.51,0,.36-.42.45-.63.48-.42.09-1.05.12-1.59.18-.33.21-.6.45-3.03,2.37-.99.81-1.68,1.23-2.07,1.47.21.12.33.33.33.48,0,.48-.69.96-1.02,1.17v3.96h8.25l1.35-1.47c.3-.33.33-.36.48-.36s.42.21.54.3l1.83,1.47c.15.12.3.27.3.48,0,.27-.24.3-.45.3Z"/>
        <path class="cls-1" d="m143.93,5.58h-7.86l1.32.9c.12.09.3.21.3.45,0,.27-.21.3-.81.39-.57.81-2.43,2.82-3.09,3.42h6.09l.66-.81c.12-.15.27-.33.45-.33s.36.15.51.27l1.17.87c.12.09.3.21.3.42,0,.3-.69.78-.93.99.03.45.03.96.06,5.37,0,.9.06,5.28.06,6.27,0,2.49,0,3.72-2.91,4.44,0-1.23-1.02-2.01-2.25-2.64v-.24c.72.12,2.1.27,2.82.27.45,0,.72-.06.75-.57,0-.06.03-3.24.03-3.87,0-1.89-.03-6.57-.06-9.72h-6.66c-.03.87,0,3.42,0,3.63,0,.45.09.6,2.04.6.93,0,2.34,0,2.7-2.43l.21-.03c.06,1.35.15,1.56.57,1.65.21.06.42.06.42.3,0,.15-.21,1.02-1.05,1.41-.72.36-1.71.48-3.03.48-3,0-3.42-.51-3.42-2.43,0-.42,0-2.13.03-3.18h-3.03l.36.36c.15.15.24.24.24.42s-.21.27-.36.33c-.15.06-.51.21-.6.24-1.59,3.21-3.99,5.28-6.48,6.15l-.15-.27c.93-.6,3.84-2.52,5.25-7.23h-5.91c.03,1.14.03,1.32.03,3.03,0,4.77,0,5.31.06,7.47,0,.6.12,4.35.12,4.71,0,.45,0,1.62-1.23,1.62-.69,0-.72-.39-.72-.69,0-.15.06-.81.06-.96.09-2.28.12-7.83.12-11.01,0-2.46,0-5.07-.42-6.45l2.46,1.56h11.16c.6-.96,1.56-3,1.92-5.16h-12.78c-.9,0-2.61.12-3.87.36l-.69-1.29c1.56.12,3.42.21,4.98.21h7.35c-.03-2.55-.36-3.09-.72-3.66l2.82.66c.12.03.51.12.51.42s-.21.45-.96.93v1.65h8.31l1.08-1.38c.21-.27.33-.39.48-.39.18,0,.39.18.57.33l1.77,1.38c.12.09.3.27.3.45,0,.33-.33.33-.45.33Zm-16.5,4.41c-.84,0-1.02-.81-1.2-1.59-.36-1.59-.75-1.98-1.26-2.49l.15-.12c.9.42,3.21,1.56,3.21,3.18,0,.75-.54,1.02-.9,1.02Zm8.31,10.05c-.03.72,0,2.73.03,3.57,0,.27.12,1.59.12,1.65,0,.27-.03.84-.96.84-.72,0-.72-.24-.69-.99h-6.75c.03.48.03.54,0,.69-.12.42-.78.75-1.08.75-.48,0-.48-.33-.48-.57,0-.42.09-2.16.09-2.52,0-.84.06-2.55.06-3.18,0-.45-.09-1.53-.24-2.49l2.04,1.08h6.06l.54-.57c.15-.18.24-.3.42-.3.12,0,.3.15.42.21l1.02.66c.15.09.27.21.27.45s-.12.36-.87.72Zm-1.47-.45h-6.78v4.8h6.78v-4.8Z"/>
        <path class="cls-1" d="m174.5,25.8c-5.4-3.36-7.86-6.15-9.42-9.33h-.3c.03,1.41.18,9.87.18,10.83,0,1.11-1.17,1.11-1.32,1.11-.63,0-.63-.33-.63-.51,0-.03.21-3.45.24-4.02.09-2.58.12-5.49.09-6.93-2.46,3.84-8.1,7.95-12.66,9.42v-.15c4.89-2.88,9-6.87,10.74-9.75h-4.8c-1.08,0-2.73.15-3.87.36l-.72-1.29c2.25.18,4.44.21,5.01.21h6.27c0-1.08-.06-3.39-.24-4.35-.06-.42-.15-.6-.3-.9l2.52.69c.18.03.36.15.36.39,0,.21-.15.33-.93.84v.87c0,.39.06,2.13.06,2.46h7.02l.93-1.32c.03-.06.3-.39.45-.39.18,0,.48.27.57.33l1.74,1.32c.12.12.3.27.3.48,0,.27-.27.3-.45.3h-9.81c2.52,3.69,7.14,6.69,11.67,7.29v.24c-.87.12-1.5.42-2.7,1.8Zm1.08-15.6c-.87.36-3.27,1.71-3.81,2.13l-.09-.09c.93-1.53,1.02-1.71,1.53-2.76h-18.84c.21,2.46-1.26,4.38-2.46,4.38-.3,0-1.02-.21-1.02-1.08,0-.48.12-.57.99-1.44.36-.33,1.65-1.65,1.98-3.69h.18c.12.48.18.72.24,1.11h12.27c2.94-4.14,3.36-5.94,3.69-7.26l2.79,1.56c.09.06.15.15.15.3,0,.3-.39.48-.84.48h-.57c-3.03,3.21-3.87,4.11-4.89,4.92h6.09l1.2-1.05c.12-.12.27-.21.48-.21.15,0,.33.09.42.15l1.86,1.62c.09.09.21.27.21.45,0,.33-.3.48-1.56.48Zm-18.03-2.79c-.69,0-.81-.42-1.05-1.59-.42-1.89-1.14-2.73-1.59-3.24l.06-.15c2.01.84,3.6,2.43,3.6,3.81,0,1.05-.78,1.17-1.02,1.17Zm6.33-.51c-.72,0-.9-.57-1.17-1.44-.57-1.83-1.56-2.94-2.1-3.51l.06-.09c2.91.75,4.23,2.97,4.23,4.02,0,.57-.39,1.02-1.02,1.02Z"/>
        <path class="cls-1" d="m208.22,13.56c-4.05-1.65-8.7-5.94-10.89-10.56-.21,0-.27.03-.51.03-4.05,6.09-9.84,10.56-13.74,12.12l-.09-.24c3.93-2.46,8.07-6.78,11.31-11.64.81-1.23.9-1.68,1.02-2.22l2.79.84c.21.06.51.21.51.54,0,.36-.27.42-.75.48,1.77,3.06,6.33,7.41,13.08,8.64v.24c-.84.33-1.95.81-2.73,1.77Zm.15,4.5h-12.27c-.3.63-.45.93-.78,1.5-1.23,2.04-2.58,3.99-4.08,5.82,3.33-.18,3.81-.24,12.24-1.14-.87-1.62-1.95-3.12-3.39-4.26l.18-.18c6.63,3.36,7.05,6.9,7.05,7.38,0,.63-.42,1.26-1.14,1.26-.81,0-1.11-.63-1.29-1.08-.42-1.08-.69-1.74-1.2-2.73-10.77,2.31-12.3,2.64-15.54,3.12-.33.6-.42.69-.6.69-.15,0-.27-.12-.39-.42l-1.17-2.73c.93.15,1.44.18,2.22.18s1.98-.03,2.61-.06c1.02-2.4,1.89-4.86,2.64-7.35h-4.11c-.6,0-2.43.06-3.84.33l-.72-1.29c1.56.15,3.42.24,4.98.24h14.55l1.41-1.44c.33-.33.36-.36.45-.36.18,0,.42.21.57.3l1.77,1.44c.12.09.3.24.3.45,0,.33-.3.33-.45.33Zm-6.54-5.16h-7.38c-1.05,0-2.73.12-3.87.33l-.69-1.29c2.25.18,4.41.24,4.98.24h3.48l1.23-1.29c.3-.33.36-.36.48-.36.15,0,.42.21.54.3l1.41,1.29c.12.12.27.27.27.45,0,.27-.24.33-.45.33Z"/>
        <path class="cls-1" d="m23.53,52.74c-2.37-2-3.6-4.88-3.6-7.75s1.23-5.75,3.6-7.75l.14.22c-2.83,3.15-2.89,6.35-2.89,7.52s.06,4.37,2.89,7.52l-.14.22Z"/>
        <path class="cls-1" d="m31.41,40.74c.12.06.2.16.2.29,0,.14-.17.24-.64.34-.2.26-.62.78-1.28,1.63-.58.74-1.08,1.33-1.49,1.78.08,0,1.35-.06,2.16-.18-.06-.11-.24-.48-.62-.91l.08-.1c1.19.48,2.1,1.2,2.1,1.94,0,.3-.17.66-.58.66-.36,0-.52-.19-.65-.74-.02-.05-.08-.27-.17-.51l-1.38.32c0,.69.05,3.97.05,4.27.02.32.06,1.76.06,2.05,0,.42-.35.69-.73.69-.32,0-.41-.21-.41-.48,0-.26.06-1.31.06-1.54.02-.51.03-2.08.05-4.79-.96.22-1.72.4-1.92.45-.09.16-.24.46-.38.46-.15,0-.24-.19-.27-.29l-.33-1.36c.26.06.7.11,1.08.11.47,0,1.17-.02,1.41-.03,1.03-1.47,1.96-3.51,2.17-4.15.06-.16.09-.45.09-.64l1.35.72Zm-6,10.53c.65-1.55,1.09-3.59,1.06-4.67l1.25.48c.11.05.21.14.21.22,0,.11-.09.19-.49.35-.49,1.49-.93,2.38-1.96,3.67l-.08-.05Zm.58-10.52c.43.11.93.26,1.31.45.43-.9,1.09-2.64,1-3.59l1.44.75c.12.06.18.16.18.24,0,.24-.23.29-.58.35-.71.96-.82,1.1-1.85,2.35.44.29.9.72.9,1.26,0,.37-.23.77-.62.77-.35,0-.44-.19-.77-.98-.35-.83-.7-1.18-1.02-1.52l.02-.1Zm3.59,6.1c.62.29,2.14,1.01,2.14,2.1,0,.51-.35.78-.67.78-.41,0-.49-.32-.68-1.06-.21-.83-.5-1.3-.84-1.76l.05-.06Zm7.26-5.17l.46-.45c.08-.08.17-.18.21-.18.06,0,.17.1.21.14l.73.66c.08.06.14.16.14.24,0,.11-.29.34-.56.54-.09,4.43-.12,6.42-.93,8.05-.56,1.14-1.52,1.55-2.36,1.57-.12-.75-.59-1.25-1.38-1.81l.02-.1c.7.14,1.63.32,2.02.32,1.53,0,1.61-5.28,1.61-6.93,0-.27-.02-1.41-.02-1.68h-4.1c-.74,1.49-1.26,2.03-1.49,2.29l-.09-.06c1.12-2.35,1.64-5.06,1.64-5.89,0-.16-.05-.46-.08-.61l1.64.74c.08.03.17.11.17.22,0,.16-.23.27-.59.45-.17.51-.44,1.31-1,2.48h3.75Zm-4.15,3.06c1.44.62,2.16,1.14,2.16,2,0,.38-.18.75-.61.75-.4,0-.52-.18-.85-1.28-.12-.42-.41-.96-.76-1.38l.06-.1Z"/>
        <path class="cls-1" d="m42.93,44.05c.32-.21.79-.42,1.32-.42,1.5,0,2.72,1.6,2.72,3.54,0,2.22-1.5,4.21-3.25,4.21s-3.5-2.06-3.5-5.52c0-3.7,1.98-6.77,4.3-6.77,1.02,0,1.73.64,1.73,1.41,0,.58-.43.83-.77.83-.3,0-.81-.21-.84-1.12-.02-.35-.05-.58-.46-.58s-.82.24-1.11.58c-1.35,1.57-1.43,3.92-1.49,5.36.29-.5.61-1.06,1.34-1.52Zm-.5,5.92c.26.43.65.86,1.23.86.81,0,1.95-.88,1.95-3.52,0-.72-.17-2.96-1.73-2.96-.58,0-1.55.45-2.26,2.18.06.88.18,2.42.82,3.44Z"/>
        <path class="cls-1" d="m52.39,39.09h.62v8.13h1.72v.51h-1.72v1.86c0,.7.33.98,1.06.98h.24v.51h-3.86v-.51h.24c.71,0,1.06-.26,1.06-.98v-1.86h-4.09v-.56l4.71-8.08Zm-.62,2.11l-3.51,6.02h3.51v-6.02Z"/>
        <path class="cls-1" d="m58.8,51.38c-1.05,0-1.93-.77-2.49-1.73-.64-1.1-.93-3.07-.93-4.56,0-3.41,1.38-6,3.42-6,1.57,0,3.42,1.78,3.42,6.15,0,3.92-1.56,6.15-3.42,6.15Zm-1.7-9.62c-.21.8-.35,2.14-.35,3.47,0,3.57.81,5.6,2.05,5.6,1.05,0,1.52-1.47,1.69-2.08.21-.82.36-2.18.36-3.52,0-3.65-.84-5.6-2.05-5.6-1.08,0-1.55,1.57-1.7,2.13Z"/>
        <path class="cls-1" d="m65.26,43.21v1.26c.41-.43,1.2-1.26,2.51-1.26,1.43,0,1.7.98,1.82,1.44.52-.53,1.35-1.44,2.72-1.44s1.95.85,1.95,2.62v3.78c0,.61.3.96.76.96h.29v.51h-3.18v-.51h.27c.53,0,.77-.43.77-.96v-3.68c0-.45-.08-2.03-1.34-2.03-.43,0-1.38.26-2.14,1.39,0,.13.02.26.02.54v3.78c0,.67.35.96.76.96h.44v.51h-3.48v-.51h.44c.41,0,.76-.3.76-.96v-3.68c0-.34-.03-2.03-1.32-2.03-.36,0-1.34.21-2.05,1.26v4.45c0,.67.36.96.76.96h.27v.51h-3.16v-.51h.27c.46,0,.76-.34.76-.96v-4.82c0-.5-.26-.75-.62-.75-.17,0-.32.02-.46.06l-.06-.3,2.23-.59Z"/>
        <path class="cls-1" d="m76.86,52.23l-.3-.32,13.44-14.15.3.32-13.43,14.15Z"/>
        <path class="cls-1" d="m91.24,47.22c1.46-1.52,3.13-4.26,3.56-5.31.12-.32.18-.51.29-.94l1.23,1.01c.06.05.09.13.09.21,0,.22-.24.22-.59.29-.24.37-.55.82-1.09,1.57.18.16.26.21.26.32,0,.1-.06.19-.4.45-.05.69-.05,1.31-.05,1.81,0,.69.05,3.78.05,4.4,0,.83,0,1.28-.67,1.28-.27,0-.53-.1-.53-.45,0-.21.09-1.12.09-1.3.05-.98.03-1.39.06-5.04-1.09,1.17-1.93,1.65-2.23,1.82l-.06-.11Zm.06-4.69c2.13-2.1,3.36-4.19,3.53-4.87l1.14.86s.12.11.12.19c0,.18-.06.19-.64.32-1.32,1.86-2.78,2.88-4.07,3.62l-.08-.13Zm12.11.85l.55-.8c.12-.19.18-.21.23-.21.09,0,.15.06.29.18l.9.8c.09.08.15.14.15.24,0,.16-.12.18-.23.18h-5.41l1.41.48c.09.03.2.08.2.19,0,.21-.36.43-.47.48v1.58h1.57l.55-.69c.12-.14.15-.19.24-.19.08,0,.12.03.29.18l.76.67c.08.06.15.13.15.24,0,.14-.12.18-.23.18h-3.33c0,.22-.02,3.44-.02,3.52.35.05,1.17.18,2.26.18,1.4,0,2.1-.21,2.45-.29l.02.06c-.24.21-.74.64-.88,1.55-.24.02-.5.05-.87.05-4.89,0-5.7-2.9-6.05-4.21-.38,1.1-1.09,3.02-3.05,4.13l-.05-.06c2.25-2.67,2.48-5.78,2.48-6.45,0-.37-.03-.56-.06-.72l1.55.53c.09.03.17.08.17.22,0,.08-.03.13-.08.18-.06.05-.38.21-.44.24-.15.75-.27,1.14-.41,1.57.67,1.57,1.49,2.37,1.96,2.66,0-4.21,0-4.48-.03-5.14-.02-.19-.11-.98-.12-1.14h-1.6c-.38,0-1.11.02-1.79.14l-.3-.64c1.05.1,2.13.11,2.34.11h1.47c0-.94,0-1.95-.02-2.82h-1.17c-.27,0-1.05,0-1.78.14l-.3-.62c.94.08,1.88.1,2.34.1h.91c-.03-1.54-.05-1.67-.27-2.48l1.58.5c.12.03.21.08.21.19s-.38.46-.46.53v1.26h1.49l.59-.77c.09-.11.14-.19.24-.19s.15.05.27.16l.81.77c.08.08.15.14.15.26,0,.14-.14.16-.23.16h-3.34v2.82h2.4Z"/>
        <path class="cls-1" d="m120.45,43.62h-6.78l.53.13c.32.08.38.08.38.22,0,.13-.05.19-.38.38,0,.45.06,2.46.06,2.87,0,.96,0,1.44-1.6,1.92-.17-.67-.62-1.12-1.29-1.47v-.1c.2,0,1.08.06,1.26.06.55,0,.55-.02.56-.59.02-.75,0-2.58-.02-3.43h-4.13c-.38,0-1.11.02-1.79.14l-.3-.64c1.03.1,2.11.11,2.34.11h.71c0-2.83,0-3.14-.23-4.03l1.49.43c.23.06.29.13.29.27,0,.13-.05.18-.47.48v2.85h2.08c0-3.6,0-4-.03-4.55-.02-.35-.06-.72-.17-1.57l1.4.4c.17.05.29.1.29.27,0,.11,0,.18-.46.45v2.06h2.19l.59-.91c.06-.08.15-.21.24-.21.08,0,.18.1.27.18l.97.91c.09.1.15.14.15.24,0,.16-.12.18-.23.18h-4.19v2.54h4.18l.71-.96c.09-.13.18-.21.24-.21.08,0,.18.08.27.18l.91.96c.11.11.15.18.15.24,0,.16-.12.18-.23.18Zm-8.63,1.94c-.06.03-.24.08-.38.13-1.02,1.79-2.43,3.15-4.12,4.19l-.06-.08c1.63-1.81,2.74-3.94,2.95-4.47.12-.29.2-.58.29-.96l1.19.66c.14.08.26.14.26.34,0,.08-.05.16-.12.19Zm4.65,2.85c-2.43,2.24-4.83,3.7-8.54,3.83l-.02-.11c2.26-.59,4.57-1.52,6.75-3.63.5-.48,1.03-1.01,1.35-1.59l.93.96c.12.13.18.21.18.3,0,.19-.06.19-.65.24Zm2.64.42c-.44,0-.65-.35-.94-.85-.96-1.65-1.73-2.4-2.75-3.17l.06-.1c2.72.69,4.24,2.45,4.24,3.43,0,.34-.24.69-.61.69Z"/>
        <path class="cls-1" d="m128.66,47.86c0,1.86-1.38,3.52-3.59,3.52-1.73,0-3.28-1.06-3.28-2.88,0-1.73,1.31-2.54,2.71-3.41-.81-.5-2.26-1.39-2.26-3.14,0-1.58,1.19-2.86,3.04-2.86,2.08,0,2.78,1.63,2.78,2.53,0,1.36-1.25,2.35-1.9,2.87,1.43.93,2.51,1.73,2.51,3.38Zm-5.59.59c0,1.41,1,2.38,2.19,2.38,1.32,0,2.31-1.23,2.31-2.42,0-1.52-1.5-2.42-2.61-3.07-.68.54-1.88,1.52-1.88,3.11Zm3.88-6.66c0-1.22-.77-2.16-1.88-2.16s-1.79.86-1.79,1.9c0,1.12.87,1.68,2.45,2.67.44-.4,1.23-1.09,1.23-2.42Z"/>
        <path class="cls-1" d="m134.47,40.04c-1.26,2.72-3.56,4.77-4.71,5.44l-.08-.11c2.13-2.54,3.33-4.79,3.68-5.86.14-.4.2-.72.24-1.02l1.31.93c.08.05.2.14.2.26,0,.19-.39.3-.64.37Zm5.52,5.01c-.15,5.76-.46,6.93-3.19,7.19-.06-1.01-.81-1.54-1.14-1.76l.02-.11c.64.14,1.29.27,1.76.27.73,0,1.02-.18,1.25-1.63.18-1.18.27-3.86.23-4.61h-3.07c-.09,2.51-1.11,6.85-5.9,7.78l-.03-.13c3.09-1.5,4.65-3.92,4.8-7.65h-.44c-.38,0-1.11.02-1.79.16l-.29-.64c.94.08,1.87.1,2.33.1h4.3l.41-.38c.09-.1.18-.18.27-.18.08,0,.15.08.21.14l.61.7c.08.08.14.18.14.26,0,.14-.05.18-.47.5Zm2.77-.02c-1.63-.74-3.43-2.46-4.57-6.08h-1.22c-.76,0-1.06.06-1.28.1l-.2-.56c.68.06,1.35.08,1.66.08h.76l.49-.51c.14-.14.2-.18.27-.18.09,0,.15.08.26.18l.56.58c.09.08.12.14.12.24,0,.32-.7.45-.97.5.73,2.06,3.25,4.11,5.58,4.29l.02.16c-.85.27-1.2.78-1.47,1.22Z"/>
        <path class="cls-1" d="m145.29,52.74l-.14-.22c2.83-3.15,2.89-6.35,2.89-7.52s-.06-4.37-2.89-7.52l.14-.22c2.37,2,3.6,4.88,3.6,7.75s-1.23,5.75-3.6,7.75Z"/>
      </g>
      <rect class="cls-2" width="7" height="57"/>
    </g>
  </g>
</svg>