<svg id="area01-05-txt" xmlns="http://www.w3.org/2000/svg" width="398.655" height="57.14" viewBox="0 0 398.655 57.14">
  <g id="グループ_34" data-name="グループ 34">
    <g id="グループ_33" data-name="グループ 33">
      <path id="パス_299" data-name="パス 299" d="M21.65,27.09c7.47-3.27,12.15-10.86,12.87-15.3-2.31.18-10.89.99-12.24,1.86-.57.39-.63.42-.84.42a4.166,4.166,0,0,1-2.82-3.33,3.383,3.383,0,0,1,.15-.93,3.827,3.827,0,0,0,3.24,1.95c1.11,0,11.13-.81,11.91-.99.27-.06.54-.15,1.29-.81.18-.18.3-.24.42-.24.33,0,2.37,1.5,2.37,2.07,0,.3-.09.33-.96.75-.6.3-.63.36-.99,1.32-.27.66-2.61,6.36-6.96,9.93a15.915,15.915,0,0,1-7.38,3.51l-.06-.21ZM24.71,5.97a40.042,40.042,0,0,0,7.32-.9,3.545,3.545,0,0,1,1.38-.39c.48,0,2.1.18,2.1.96s-.84.81-3.15.96c-1.41.09-8.25.81-8.94.81-.6,0-2.04-.66-2.28-2.85a4.271,4.271,0,0,0,3.57,1.41Z"/>
      <path id="パス_300" data-name="パス 300" d="M43.25,19.2C50.36,14.13,56.09,8.64,58.52,5.37A1.911,1.911,0,0,0,59,4.23a.883.883,0,0,0-.45-.84c-.18-.12-.96-.6-1.11-.69a3.631,3.631,0,0,1,1.08-.21,4.336,4.336,0,0,1,2.94,1.47c.36.36.54.57.54.99,0,.33-.18.39-.6.57-.48.18-.57.27-1.44,1.14-3.24,3.24-3.6,3.6-4.77,4.68.6.27,1.5.69,1.5,1.17a7.962,7.962,0,0,1-.33.9,5.351,5.351,0,0,0-.15,1.74V25.44c0,1.26,0,1.74-.63,1.74-.99,0-1.53-1.71-1.53-2.04a9.5,9.5,0,0,1,.36-1.32,40.712,40.712,0,0,0,.42-5.49c0-.69-.21-5.25-.24-5.52a.977.977,0,0,0-.36-.63,44.291,44.291,0,0,1-10.86,7.17l-.12-.15Z"/>
      <path id="パス_301" data-name="パス 301" d="M71.93,26.01c5.19-2.31,11.52-8.88,13.41-18.18A127.581,127.581,0,0,0,72.38,9.54a2.7,2.7,0,0,0-1.11.51.58.58,0,0,1-.33.12c-.69,0-2.19-1.74-2.19-3.15a1.589,1.589,0,0,1,.18-.66,2.977,2.977,0,0,0,2.7,1.65c.24,0,12.09-1.08,12.81-1.2a2.165,2.165,0,0,0,1.32-.6c.21-.18.27-.21.39-.21.33,0,2.37,1.77,2.37,2.19,0,.15-.09.24-.72.54-.72.33-.87.54-1.17,1.44a32.388,32.388,0,0,1-5.19,9.93,16.985,16.985,0,0,1-9.48,6.15l-.03-.24Z"/>
      <path id="パス_302" data-name="パス 302" d="M107.93,17.64c-.18.15-.42.33-.57.48-.12,3.75-.48,5.52-2.91,5.82-.24-.87-.6-1.29-1.8-1.83l.06-.18c.33.03,1.83.12,1.95.12.96,0,.99-.3,1.2-2.22a12.049,12.049,0,0,0,.06-2.25h-3.81c0,1.59,0,5.91.09,8.49,0,.24.09,1.32.09,1.53a1.172,1.172,0,0,1-1.05,1.29.622.622,0,0,1-.69-.66c0-.24.09-1.08.09-1.23V25.32c0-1.83.03-3.63.06-5.43a23.925,23.925,0,0,1-7.05,7.05l-.09-.18a34.7,34.7,0,0,0,6.84-9.18H97.13a12.933,12.933,0,0,1-.36,1.95,1.156,1.156,0,0,1-1.02.78.667.667,0,0,1-.69-.63c0-.12.54-2.28.63-2.67a31.819,31.819,0,0,0,.87-6l1.74,1.38h2.4V8.46H99.41a23.453,23.453,0,0,0-3.84.36l-.72-1.29c1.68.12,3.33.21,4.98.21h2.76a15.283,15.283,0,0,0,1.32-3.12,7.972,7.972,0,0,0,.6-2.82l2.07.99c.18.09.42.21.42.45,0,.45-.69.57-1.05.6a40.25,40.25,0,0,1-2.88,3.9h2.07l.57-.48a.7.7,0,0,1,.39-.24.891.891,0,0,1,.39.18l.81.6a.605.605,0,0,1,.33.45c0,.24-.45.48-.87.69.06.51.18,3.84.18,4.41,0,.69-.57.9-1.17.9-.51,0-.51-.09-.48-1.14h-3.18v3.75h3.42l.63-.69c.09-.12.27-.33.42-.33s.3.15.48.33l.72.66c.12.12.33.36.33.51a.4.4,0,0,1-.18.3ZM99.02,6.69c-.69,0-.78-.42-1.05-1.53a5.886,5.886,0,0,0-1.71-3.15l.12-.15c.81.36,3.57,1.77,3.57,3.75C99.95,6.06,99.77,6.69,99.02,6.69Zm1.68,6.42H97.97c-.36,1.56-.45,2.13-.72,3.75h3.45V13.11Zm4.59-4.65h-3.18v3.93h3.18Zm2.55,18.36a.773.773,0,0,1-.78-.84,8.028,8.028,0,0,1,.72-1.95,3.2,3.2,0,0,0,.33-1.74l.12-.06a4.492,4.492,0,0,1,.9,2.64c0,1.32-.66,1.95-1.29,1.95Zm13.38-10.44H110.63V19.2h7.62l.69-.72c.12-.12.24-.24.36-.24a.93.93,0,0,1,.51.27l.9.69c.18.12.48.36.48.54s-.3.36-.99.72c-.39,3.99-1.23,6.06-1.86,6.84a4.742,4.742,0,0,1-3.57,1.5,4.418,4.418,0,0,0-1.56-2.37l.12-.15a10.321,10.321,0,0,0,2.7.48c2.1,0,2.43-4.26,2.61-6.84h-8.01c0,.45.03,1.14-.96,1.14-.6,0-.72-.27-.72-.57,0-.45.06-2.46.06-2.88.03-3.45.09-8.49.09-11.79a14.626,14.626,0,0,0-.18-2.34l1.95,1.26h1.17a9.808,9.808,0,0,0,.63-3.66l1.86.9c.51.24.54.39.54.51,0,.33-.39.36-.87.33a14.56,14.56,0,0,1-1.65,1.92h4.35l.63-.66c.18-.18.33-.33.45-.33a.659.659,0,0,1,.36.15l1.11.81c.12.09.21.15.21.33,0,.3-.36.48-1.05.87.06.63.12,2.76.15,3.75.03.78.21,2.34.21,2.88a1.105,1.105,0,0,1-1.14,1.11c-.63,0-.66-.3-.66-.93h-6.54v2.94h7.59l.78-1.02c.09-.12.33-.36.48-.36a1.305,1.305,0,0,1,.57.3l1.32,1.05c.15.12.3.24.3.45,0,.27-.24.3-.45.3Zm-9.93,9.72c-.6,0-.75-.42-.75-.81,0-.21.09-1.2.09-1.41a4.225,4.225,0,0,0-.27-1.59l.15-.06a3.581,3.581,0,0,1,1.68,2.79.957.957,0,0,1-.9,1.08Zm5.88-20.64h-6.54V8.4h6.54V5.46Zm0,3.66h-6.54V12h6.54Zm-3.42,15.75c-.57,0-.6-.3-.63-1.2a9.79,9.79,0,0,0-.18-1.5,1.5,1.5,0,0,0-.27-.75l.12-.06c1.62,1.14,1.74,2.19,1.74,2.67a.776.776,0,0,1-.78.84Zm2.61-1.17c-.6,0-.63-.18-.96-1.56a1.95,1.95,0,0,0-.66-1.2l.06-.15c1.77.45,2.19,1.59,2.19,2.1C116.99,23.07,116.9,23.7,116.36,23.7Z"/>
      <path id="パス_303" data-name="パス 303" d="M140.78,25.56c8.97-3.09,9.39-9.54,9.39-11.1,0-5.25-4.98-8.07-9.39-8.07a3.023,3.023,0,0,0-1.11.15c1.47,1.23,1.47,2.13,1.47,2.28,0,.36-.09.48-.72,1.8-3.66,7.68-3.99,8.43-5.7,10.98-.15.21-1.11,1.62-1.71,1.86a1.3,1.3,0,0,1-.57.12c-.69,0-.9-.33-1.74-1.53a4.08,4.08,0,0,0-.81-.81c-1.17-.96-1.56-2.01-1.56-4.05,0-6.03,5.07-11.7,12.75-11.7,5.49,0,10.92,3.12,10.92,9.33,0,5.49-4.41,10.41-11.16,11.07l-.06-.33Zm-3.39-11.67a14.49,14.49,0,0,0,1.77-5.22,2.793,2.793,0,0,0-.84-1.92c-3.36.27-8.43,4.71-8.43,10.59,0,2.28,1.44,4.29,2.61,4.29a.756.756,0,0,0,.57-.21,11.85,11.85,0,0,0,1.74-2.64l2.58-4.89Z"/>
      <path id="パス_304" data-name="パス 304" d="M183.23,23.94a24.433,24.433,0,0,1-6.51-6.36,24.633,24.633,0,0,1-3.93-7.89h-.24c0,4.65.06,9.27.21,13.92.03.57.18,3.12.18,3.57a1.519,1.519,0,0,1-1.44,1.44c-.84,0-.84-.54-.84-.75,0-.42.21-2.28.21-2.64.12-2.64.09-3.75.18-13.8a30.585,30.585,0,0,1-6.12,8.49,28.728,28.728,0,0,1-6.15,4.62l-.12-.24c5.04-4.32,9.27-9.69,11.4-14.61h-6.54a24.971,24.971,0,0,0-3.87.33l-.69-1.29c2.25.18,4.41.24,4.98.24h7.11a47.937,47.937,0,0,0-.36-6.03,8.617,8.617,0,0,0-.51-1.77l3.15.78c.27.06.33.21.33.36,0,.39-.15.48-1.05,1.02-.06.9-.03,4.83-.06,5.64h8.52l1.2-1.44c.09-.12.33-.36.48-.36.18,0,.39.21.57.36l1.5,1.38a.668.668,0,0,1,.3.45c0,.27-.27.33-.45.33H173.15a24.12,24.12,0,0,0,7.65,9.54,18.452,18.452,0,0,0,5.76,2.76v.24a4.008,4.008,0,0,0-3.33,1.71Z"/>
      <path id="パス_305" data-name="パス 305" d="M217.79,6.48H196.58c.12,9.51.18,17.37-4.71,21.84l-.18-.15c2.4-3.51,3.33-8.04,3.33-17.31a23.825,23.825,0,0,0-.57-6.39l2.46,1.29h7.29c0-2.58-.09-3.09-.66-4.47l2.88.6c.09.03.54.15.54.42a.6.6,0,0,1-.3.48c-.21.15-.36.24-.78.51V5.76h8.46l1.11-1.2c.3-.33.33-.36.48-.36a1.5,1.5,0,0,1,.57.3l1.44,1.2a.643.643,0,0,1,.3.48c0,.27-.24.3-.45.3Zm-1.44,6.21h-9.18V18.3h5.43l.72-.84c.3-.36.36-.39.48-.39a1.881,1.881,0,0,1,.57.36l.96.72c.24.18.48.36.48.51,0,.21-.72.63-1.11.9,0,.33.03,6,.12,7.14.03.39.06.63.06.78a1.194,1.194,0,0,1-1.17,1.32c-.6,0-.66-.33-.66-.57,0-.15.06-.78.06-.93H201.5c.03.93.03,1.71-1.23,1.71-.3,0-.66-.12-.66-.45,0-.15.09-.66.09-.78.12-1.41.18-2.91.18-4.8,0-2.76-.09-3.57-.27-6.03l2.01,1.35h3.99c0-1.08,0-5.79-.06-6.75-.15-2.79-.36-3.36-.6-3.99l2.64.66c.3.09.51.15.51.39,0,.39-.6.66-.93.81v2.55h5.79l1.14-1.26c.3-.33.33-.36.48-.36a.888.888,0,0,1,.54.33l1.41,1.26a.558.558,0,0,1,.27.45c0,.27-.27.3-.45.3Zm-3.24,6.33H201.5v7.56h11.61Z"/>
      <path id="パス_335" data-name="パス 335" d="M14.085,1.35a9.849,9.849,0,0,1-2.85-7.05,9.849,9.849,0,0,1,2.85-7.05l-.135-.21A9.317,9.317,0,0,0,10.4-5.7,9.317,9.317,0,0,0,13.95,1.56Zm9-5.205.72,2.16a1.792,1.792,0,0,1,.135.555.655.655,0,0,1-.615.66h-.45V0h3.69V-.48h-.33c-.42,0-.81-.15-1.11-1.02L21.84-11.235l-1.32.285L17.565-1.86c-.24.735-.78,1.38-1.41,1.38h-.5V0h3.255V-.48h-.42a.553.553,0,0,1-.63-.6,1.323,1.323,0,0,1,.09-.5l.735-2.28Zm-.165-.48H18.855l2-6.12Zm5.7,2.88a.861.861,0,0,0-.87.87.861.861,0,0,0,.87.87.861.861,0,0,0,.87-.87A.88.88,0,0,0,28.62-1.455Zm0-5.925a.871.871,0,0,0-.87.87.861.861,0,0,0,.87.87.871.871,0,0,0,.87-.87A.88.88,0,0,0,28.62-7.38Zm11.235.165v-2.64h3.3c.09,0,.225-.015.225-.15,0-.105-.075-.165-.15-.24l-.8-.72c-.12-.1-.165-.15-.27-.15s-.15.075-.24.18l-.585.72H39.87V-11.4c.075-.06.45-.39.45-.495s-.09-.15-.21-.18l-1.56-.465a6.49,6.49,0,0,1,.27,2.325h-.9c-.45,0-1.38-.015-2.31-.09l.3.585a9.944,9.944,0,0,1,1.755-.135H38.82c.015.81.015,1.755.015,2.64H37.38c-.21,0-1.275-.015-2.31-.105l.3.6a10.682,10.682,0,0,1,1.77-.135h1.575c.015.15.1.885.12,1.065.03.615.03.87.03,4.815a5.449,5.449,0,0,1-1.935-2.49,11.647,11.647,0,0,0,.4-1.47c.06-.03.375-.18.435-.225a.215.215,0,0,0,.075-.165.2.2,0,0,0-.165-.21l-1.53-.5a3.111,3.111,0,0,1,.06.675A9.847,9.847,0,0,1,33.765.69l.045.06a6.619,6.619,0,0,0,3.015-3.87c.345,1.23,1.14,3.945,5.97,3.945.36,0,.615-.03.855-.045a2.208,2.208,0,0,1,.87-1.455l-.015-.06a9.4,9.4,0,0,1-2.415.27A15.924,15.924,0,0,1,39.855-.63c0-.075.015-3.09.015-3.3h3.285c.105,0,.225-.03.225-.165,0-.1-.075-.165-.15-.225l-.75-.63c-.165-.135-.21-.165-.285-.165s-.12.045-.24.18l-.54.645H39.87V-5.775c.1-.045.465-.255.465-.45,0-.105-.1-.15-.195-.18l-1.4-.45h5.34c.1,0,.225-.015.225-.165,0-.09-.06-.15-.15-.225l-.885-.75c-.135-.105-.195-.165-.285-.165-.045,0-.1.015-.225.2l-.54.75ZM30.27-3.51a9.134,9.134,0,0,0,2.2-1.71c-.03,3.42-.015,3.81-.06,4.725,0,.165-.09,1.02-.09,1.215,0,.33.255.42.525.42.66,0,.66-.42.66-1.2,0-.585-.045-3.48-.045-4.125,0-.465,0-1.05.045-1.695.33-.24.39-.33.39-.42,0-.105-.075-.15-.255-.3.54-.7.84-1.125,1.08-1.47.345-.06.585-.06.585-.27a.242.242,0,0,0-.09-.195L34.005-9.48a6.174,6.174,0,0,1-.285.885,21.046,21.046,0,0,1-3.51,4.98Zm.075-4.38a11.8,11.8,0,0,0,4.02-3.39c.57-.12.63-.135.63-.3,0-.075-.09-.15-.12-.18l-1.125-.81a13.935,13.935,0,0,1-3.48,4.56Zm28.92.735c0-.06-.045-.12-.15-.225l-.9-.9a.488.488,0,0,0-.27-.165c-.06,0-.15.075-.24.2L57-7.35H52.875V-9.735h4.14c.105,0,.225-.015.225-.165,0-.09-.06-.135-.15-.225l-.96-.855c-.09-.075-.2-.165-.27-.165-.09,0-.18.12-.24.195l-.585.855h-2.16V-12.03c.45-.255.45-.315.45-.42,0-.165-.12-.21-.285-.255l-1.38-.375c.1.8.15,1.14.165,1.47.03.51.03.885.03,4.26H49.8v-2.67c.42-.285.465-.33.465-.45,0-.135-.06-.195-.285-.255l-1.47-.405c.225.84.225,1.125.225,3.78H48.03c-.225,0-1.29-.015-2.31-.1l.3.6a10.682,10.682,0,0,1,1.77-.135h4.08c.015.8.03,2.5.015,3.21-.015.54-.015.555-.555.555-.18,0-1.05-.06-1.245-.06v.09a2.177,2.177,0,0,1,1.275,1.38c1.575-.45,1.575-.9,1.575-1.8,0-.375-.06-2.265-.06-2.685.33-.18.375-.24.375-.36,0-.135-.06-.135-.375-.21l-.525-.12h6.69C59.145-6.99,59.265-7.005,59.265-7.155Zm-8.625,1.8c0-.18-.12-.24-.255-.315l-1.17-.615a5.318,5.318,0,0,1-.285.9A17.623,17.623,0,0,1,46.02-1.2l.06.075a11.217,11.217,0,0,0,4.065-3.93c.135-.045.315-.09.375-.12A.2.2,0,0,0,50.64-5.355Zm7.68,2.6c0-.915-1.5-2.565-4.185-3.21l-.06.09A9,9,0,0,1,56.79-2.91c.285.465.495.8.93.8A.631.631,0,0,0,58.32-2.76Zm-2.565.03c0-.09-.06-.165-.18-.285l-.915-.9A6.884,6.884,0,0,1,53.325-2.43,14.44,14.44,0,0,1,46.665.975l.015.1A12.505,12.505,0,0,0,55.11-2.5C55.695-2.55,55.755-2.55,55.755-2.73ZM61.26,0h4.98V-.48h-.825c-.735,0-1.05-.27-1.05-.915v-9.63c0-.12-.03-.21-.165-.21-.06,0-.1.03-.21.09a5.777,5.777,0,0,1-2.445.63h-.27v.465h1.14c.285,0,.72.075.72.54v8.115c0,.615-.27.915-1.05.915H61.26Zm7.5,0h4.98V-.48h-.825c-.735,0-1.05-.27-1.05-.915v-9.63c0-.12-.03-.21-.165-.21-.06,0-.1.03-.21.09a5.777,5.777,0,0,1-2.445.63h-.27v.465h1.14c.285,0,.72.075.72.54v8.115c0,.615-.27.915-1.05.915H68.76ZM90-6.81l-.015-.15a7.006,7.006,0,0,1-5.5-4.02c.27-.045.96-.165.96-.465a.265.265,0,0,0-.12-.225l-.555-.54c-.1-.09-.165-.165-.255-.165s-.135.03-.27.165l-.48.48h-.75c-.3,0-.96-.015-1.635-.075l.195.525a7,7,0,0,1,1.26-.09h1.2c1.125,3.39,2.91,5.01,4.515,5.7A2.466,2.466,0,0,1,90-6.81Zm-9-3.885c0-.105-.12-.2-.195-.24l-1.29-.87a4.962,4.962,0,0,1-.24.96,19.5,19.5,0,0,1-3.63,5.49l.075.105a12.955,12.955,0,0,0,4.65-5.1C80.61-10.41,81-10.515,81-10.695ZM86.28-6.12a.4.4,0,0,0-.135-.24l-.6-.66c-.06-.06-.135-.135-.21-.135a.444.444,0,0,0-.27.165l-.4.36H80.415c-.45,0-1.365-.015-2.295-.09l.285.6a9.489,9.489,0,0,1,1.77-.15h.435A7.575,7.575,0,0,1,75.87.9l.03.12c4.725-.87,5.73-4.935,5.82-7.29h3.03a30.512,30.512,0,0,1-.225,4.32c-.225,1.365-.51,1.53-1.23,1.53a9.365,9.365,0,0,1-1.74-.255L81.54-.57a2.152,2.152,0,0,1,1.125,1.65c2.7-.24,3-1.335,3.15-6.735C86.235-5.955,86.28-5.985,86.28-6.12Zm18-6.06-.3-.3L90.72.78l.3.3Zm1.05,1.725h.6A.963.963,0,0,1,107-9.42v7.9A.962.962,0,0,1,105.93-.48h-.6V0h5.355c2.91,0,4.08-1.68,4.08-3.015a2.744,2.744,0,0,0-1.14-2.115,4.082,4.082,0,0,0-2.01-.75,3.545,3.545,0,0,0,1.485-.66,2.564,2.564,0,0,0,1.035-1.98c0-1.53-1.515-2.43-3.81-2.43H105.33Zm2.865,1.035a.962.962,0,0,1,1.065-1.035h1.065c1.5,0,2.415.765,2.415,2.115a2.281,2.281,0,0,1-2.55,2.31h-2Zm2.415,3.87a2.52,2.52,0,0,1,2.73,2.58,2.476,2.476,0,0,1-2.775,2.49H109.26a.956.956,0,0,1-1.065-1.035V-5.55Zm6.06,4.1a.861.861,0,0,0-.87.87.861.861,0,0,0,.87.87.861.861,0,0,0,.87-.87A.88.88,0,0,0,116.67-1.455Zm0-5.925a.871.871,0,0,0-.87.87.861.861,0,0,0,.87.87.871.871,0,0,0,.87-.87A.88.88,0,0,0,116.67-7.38Zm11.235.165v-2.64h3.3c.09,0,.225-.015.225-.15,0-.105-.075-.165-.15-.24l-.795-.72c-.12-.1-.165-.15-.27-.15s-.15.075-.24.18l-.585.72h-1.47V-11.4c.075-.06.45-.39.45-.495s-.09-.15-.21-.18l-1.56-.465a6.49,6.49,0,0,1,.27,2.325h-.9c-.45,0-1.38-.015-2.31-.09l.3.585a9.944,9.944,0,0,1,1.755-.135h1.155c.015.81.015,1.755.015,2.64H125.43c-.21,0-1.275-.015-2.31-.105l.3.6a10.682,10.682,0,0,1,1.77-.135h1.575c.015.15.105.885.12,1.065.03.615.03.87.03,4.815a5.449,5.449,0,0,1-1.935-2.49,11.647,11.647,0,0,0,.4-1.47c.06-.03.375-.18.435-.225a.215.215,0,0,0,.075-.165.2.2,0,0,0-.165-.21l-1.53-.5a3.111,3.111,0,0,1,.06.675A9.847,9.847,0,0,1,121.815.69l.045.06a6.619,6.619,0,0,0,3.015-3.87c.345,1.23,1.14,3.945,5.97,3.945.36,0,.615-.03.855-.045a2.208,2.208,0,0,1,.87-1.455l-.015-.06a9.4,9.4,0,0,1-2.415.27,15.924,15.924,0,0,1-2.235-.165c0-.075.015-3.09.015-3.3h3.285c.1,0,.225-.03.225-.165,0-.1-.075-.165-.15-.225l-.75-.63c-.165-.135-.21-.165-.285-.165-.09,0-.12.045-.24.18l-.54.645H127.92V-5.775c.105-.045.465-.255.465-.45,0-.105-.105-.15-.2-.18l-1.395-.45h5.34c.1,0,.225-.015.225-.165,0-.09-.06-.15-.15-.225l-.885-.75c-.135-.105-.195-.165-.285-.165-.045,0-.105.015-.225.2l-.54.75ZM118.32-3.51a9.134,9.134,0,0,0,2.205-1.71c-.03,3.42-.015,3.81-.06,4.725,0,.165-.09,1.02-.09,1.215,0,.33.255.42.525.42.66,0,.66-.42.66-1.2,0-.585-.045-3.48-.045-4.125,0-.465,0-1.05.045-1.695.33-.24.39-.33.39-.42,0-.105-.075-.15-.255-.3.54-.7.84-1.125,1.08-1.47.345-.06.585-.06.585-.27a.242.242,0,0,0-.09-.195l-1.215-.945a6.174,6.174,0,0,1-.285.885,21.046,21.046,0,0,1-3.51,4.98Zm.075-4.38a11.8,11.8,0,0,0,4.02-3.39c.57-.12.63-.135.63-.3,0-.075-.09-.15-.12-.18l-1.125-.81a13.935,13.935,0,0,1-3.48,4.56Zm28.92.735c0-.06-.045-.12-.15-.225l-.9-.9a.488.488,0,0,0-.27-.165c-.06,0-.15.075-.24.2l-.705.9h-4.125V-9.735h4.14c.1,0,.225-.015.225-.165,0-.09-.06-.135-.15-.225l-.96-.855c-.09-.075-.2-.165-.27-.165s-.18.12-.24.195l-.585.855h-2.16V-12.03c.45-.255.45-.315.45-.42,0-.165-.12-.21-.285-.255l-1.38-.375c.1.8.15,1.14.165,1.47.03.51.03.885.03,4.26H137.85v-2.67c.42-.285.465-.33.465-.45,0-.135-.06-.195-.285-.255l-1.47-.405c.225.84.225,1.125.225,3.78h-.705c-.225,0-1.29-.015-2.31-.1l.3.6a10.682,10.682,0,0,1,1.77-.135h4.08c.015.8.03,2.5.015,3.21-.015.54-.015.555-.555.555-.18,0-1.05-.06-1.245-.06v.09a2.177,2.177,0,0,1,1.275,1.38c1.575-.45,1.575-.9,1.575-1.8,0-.375-.06-2.265-.06-2.685.33-.18.375-.24.375-.36,0-.135-.06-.135-.375-.21l-.525-.12h6.69C147.2-6.99,147.315-7.005,147.315-7.155Zm-8.625,1.8c0-.18-.12-.24-.255-.315l-1.17-.615a5.316,5.316,0,0,1-.285.9A17.623,17.623,0,0,1,134.07-1.2l.06.075a11.217,11.217,0,0,0,4.065-3.93c.135-.045.315-.09.375-.12A.2.2,0,0,0,138.69-5.355Zm7.68,2.6c0-.915-1.5-2.565-4.185-3.21l-.06.09a9,9,0,0,1,2.715,2.97c.285.465.5.8.93.8A.631.631,0,0,0,146.37-2.76Zm-2.565.03c0-.09-.06-.165-.18-.285l-.915-.9a6.884,6.884,0,0,1-1.335,1.485,14.44,14.44,0,0,1-6.66,3.405l.015.1A12.505,12.505,0,0,0,143.16-2.5C143.745-2.55,143.805-2.55,143.805-2.73ZM149.31,0h4.98V-.48h-.825c-.735,0-1.05-.27-1.05-.915v-9.63c0-.12-.03-.21-.165-.21-.06,0-.1.03-.21.09a5.777,5.777,0,0,1-2.445.63h-.27v.465h1.14c.285,0,.72.075.72.54v8.115c0,.615-.27.915-1.05.915h-.825Zm13.365-5.475c0-4.095-1.83-5.76-3.375-5.76-2.01,0-3.375,2.43-3.375,5.625a9.332,9.332,0,0,0,.915,4.275A3.036,3.036,0,0,0,159.3.285C161.13.285,162.675-1.8,162.675-5.475Zm-3.375-5.25c1.2,0,2.025,1.83,2.025,5.25a13.889,13.889,0,0,1-.36,3.3c-.165.57-.63,1.95-1.665,1.95-1.23,0-2.025-1.905-2.025-5.25a13.574,13.574,0,0,1,.345-3.255C157.77-9.255,158.235-10.725,159.3-10.725ZM178.05-6.81l-.015-.15a7.006,7.006,0,0,1-5.505-4.02c.27-.045.96-.165.96-.465a.265.265,0,0,0-.12-.225l-.555-.54c-.1-.09-.165-.165-.255-.165-.075,0-.135.03-.27.165l-.48.48h-.75c-.3,0-.96-.015-1.635-.075l.195.525a7,7,0,0,1,1.26-.09h1.2c1.125,3.39,2.91,5.01,4.515,5.7A2.466,2.466,0,0,1,178.05-6.81Zm-9-3.885c0-.105-.12-.2-.2-.24l-1.29-.87a4.962,4.962,0,0,1-.24.96,19.5,19.5,0,0,1-3.63,5.49l.075.105a12.955,12.955,0,0,0,4.65-5.1C168.66-10.41,169.05-10.515,169.05-10.695Zm5.28,4.575a.4.4,0,0,0-.135-.24l-.6-.66c-.06-.06-.135-.135-.21-.135a.444.444,0,0,0-.27.165l-.4.36h-4.245c-.45,0-1.365-.015-2.295-.09l.285.6a9.489,9.489,0,0,1,1.77-.15h.435A7.575,7.575,0,0,1,163.92.9l.03.12c4.725-.87,5.73-4.935,5.82-7.29h3.03a30.511,30.511,0,0,1-.225,4.32c-.225,1.365-.51,1.53-1.23,1.53a9.365,9.365,0,0,1-1.74-.255l-.015.105a2.152,2.152,0,0,1,1.125,1.65c2.7-.24,3-1.335,3.15-6.735C174.285-5.955,174.33-5.985,174.33-6.12Zm8.325.42a9.317,9.317,0,0,0-3.555-7.26l-.135.21a9.849,9.849,0,0,1,2.85,7.05,9.849,9.849,0,0,1-2.85,7.05l.135.21A9.317,9.317,0,0,0,182.655-5.7Z" transform="translate(216 23)"/>
    </g>
    <rect id="長方形_12" data-name="長方形 12" width="7" height="57" fill="#1c2c5a"/>
  </g>
  <g id="グループ_38" data-name="グループ 38">
    <g id="グループ_36" data-name="グループ 36">
      <rect id="長方形_13" data-name="長方形 13" width="84.39" height="23.44" rx="5" transform="translate(19.09 33.2)" fill="none" stroke="#000" stroke-miterlimit="10" stroke-width="1"/>
      <g id="グループ_35" data-name="グループ 35">
        <path id="パス_319" data-name="パス 319" d="M44.46,42.2h-.29c-.14.1-.21.16-.84.69-.08.06-.67.48-.79.58l-.06-.06a11.653,11.653,0,0,0,.59-1.94H33.59c-.02,1.41-.64,2.74-1.44,2.74a.63.63,0,0,1-.62-.67c0-.4.26-.67.79-1.22a4.089,4.089,0,0,0,1.02-2.1h.08a3.7,3.7,0,0,1,.18.86h6.41a7.822,7.822,0,0,0,1.12-3.63l1.47.82c.15.08.23.16.23.26,0,.14-.15.19-.7.29-.87,1.15-.97,1.28-1.81,2.27h2.61l.46-.37c.14-.11.24-.19.33-.19s.17.08.33.21l.9.75a.447.447,0,0,1,.18.34c0,.32-.36.38-.68.38Zm-1.95,6.42c.02.21.02.35.03,1.63,0,.14.06.91.06,1.09a.667.667,0,0,1-.7.7c-.46,0-.43-.38-.4-.67H35.22c0,.24.02.77-.65.77-.38,0-.46-.21-.44-.53.03-.64.09-1.97.09-2.59a11.376,11.376,0,0,0-.14-1.84l1.29.74h1.91a6.835,6.835,0,0,0,.43-1.89H36.08c0,.26.02.74-.61.74-.46,0-.46-.35-.46-.5,0-.4.09-2.16.09-2.53a5.091,5.091,0,0,0-.12-1.3l1.31.62h3.98l.38-.43c.11-.11.17-.16.23-.16a.558.558,0,0,1,.26.13l.56.45c.11.1.17.16.17.24,0,.13-.09.21-.46.5-.02.32.08,1.78.08,2.08a.607.607,0,0,1-.65.66c-.26,0-.44-.14-.43-.5H39.03a14.768,14.768,0,0,1-1.31,1.89h3.65l.33-.45c.08-.11.15-.18.23-.18a.5.5,0,0,1,.27.14l.58.45a.436.436,0,0,1,.17.26c0,.11-.09.22-.46.48Zm-6.82-7.99c-.41,0-.52-.35-.62-.75a5.084,5.084,0,0,0-.85-1.89l.06-.08c.79.42,2.01,1.06,2.01,2.06a.61.61,0,0,1-.59.66Zm5.84,7.67H35.24v2.69h6.29Zm-1.08-4.85H36.09v2.19h4.36Zm-1.9-3.03c-.53,0-.64-.51-.75-1.06a4.4,4.4,0,0,0-.71-1.71l.06-.08c1.26.59,1.98,1.41,1.98,2.15C39.13,39.83,39.1,40.42,38.55,40.42Z"/>
        <path id="パス_320" data-name="パス 320" d="M60.28,41.08H55.54l.79.5c.06.05.15.14.15.22,0,.19-.29.22-.56.24-.43.48-1.05,1.04-1.34,1.3h2.6l.59-.7c.08-.1.17-.19.24-.19a.588.588,0,0,1,.27.16l.7.7c.08.08.14.14.14.24,0,.16-.12.18-.23.18H54.04c0,.19.02,1.07.02,1.25H56.2l.53-.58c.09-.1.18-.19.26-.19s.15.08.29.18l.74.54a.341.341,0,0,1,.17.26c0,.14-.12.18-.23.18H54.05v1.39h3.91l.68-.82c.11-.13.15-.19.24-.19.11,0,.2.1.27.16l.84.82c.08.08.15.14.15.26,0,.14-.14.16-.24.16H54.35a8.988,8.988,0,0,0,5.93,3.09l.02.1a2.6,2.6,0,0,0-1.4,1.3,9.771,9.771,0,0,1-4.8-4.48h-.05c.02,1.46.03,1.74.03,2.05.02.37.09,1.95.09,2.29a.71.71,0,0,1-.77.66c-.41,0-.44-.26-.44-.5,0-.35.05-.94.06-1.31.02-.53.02-.77.05-2.99a11.272,11.272,0,0,1-6.03,4.32l-.03-.1a14.062,14.062,0,0,0,4.86-4.42H49.18a10.528,10.528,0,0,0-1.79.14l-.3-.64c1.02.1,2.05.11,2.34.11h3.65V45.38H50.42a10.922,10.922,0,0,0-1.79.14l-.3-.64c1.05.1,2.14.11,2.34.11h2.42V43.74H49.9a10.494,10.494,0,0,0-1.78.14l-.3-.64c1.02.1,2.08.11,2.34.11h4.13a8.243,8.243,0,0,0,.76-2.26H50.73c.88.3,1.69.78,1.69,1.55a.61.61,0,0,1-.61.64c-.35,0-.4-.1-.76-1.06a3.994,3.994,0,0,0-.62-1.14H48.85a9.117,9.117,0,0,0-1.79.14l-.29-.64c1.03.1,2.11.11,2.33.11h2.86a11.855,11.855,0,0,0-.26-3.3l1.47.45c.14.05.21.1.21.24,0,.18-.17.27-.46.38v2.22h1.12c0-2.03,0-2.5-.32-3.3l1.55.43c.09.03.26.08.26.24,0,.24-.36.37-.5.42v2.21h.65a11.786,11.786,0,0,0,.79-2.24,3.416,3.416,0,0,0,.08-.77l1.35.72c.09.05.18.11.18.22,0,.24-.36.29-.53.3-.47.53-1.28,1.44-1.58,1.76h2.39l.65-.72c.12-.13.18-.21.24-.21a.513.513,0,0,1,.3.18l.79.7c.09.08.17.14.17.26,0,.14-.14.18-.23.18Zm-9.88-.74c-.36,0-.47-.26-.76-.98a3.634,3.634,0,0,0-.88-1.26l.06-.11c.61.16,2.13.59,2.13,1.71a.588.588,0,0,1-.55.64Z"/>
        <path id="パス_321" data-name="パス 321" d="M66.45,39.96c-.02.58-.03.94-.03,1.71,0,1.68.09,5.31.12,6,0,.21.05.58.05.78,0,.61-.65.64-.73.64-.41,0-.41-.11-.38-1.17h-1.9c0,.11.05,1.42.05,1.46,0,.58-.59.69-.76.69-.38,0-.38-.3-.38-.5,0-.18.05-.96.05-1.12.05-1.22.06-5.71.06-6.08a26.3,26.3,0,0,0-.18-3.95l1.32.67h1.55l.44-.42c.17-.14.2-.21.27-.21a.383.383,0,0,1,.24.14l.61.58a.4.4,0,0,1,.12.26c0,.14-.3.35-.52.51Zm-.96-.48H63.58v3.76h1.91Zm0,4.15H63.58v3.92h1.91V43.63Zm9.94-.3H68.74a10.042,10.042,0,0,0-1.79.14l-.29-.64c.94.08,1.87.11,2.33.11h1.28V40.49H69.6a10.591,10.591,0,0,0-1.79.14l-.29-.64c1,.1,2.07.11,2.33.11h.43a7.17,7.17,0,0,0-.26-2.61l1.57.48c.17.05.27.13.27.26s-.05.16-.49.48c-.02.38-.02.48-.03,1.39h1.49l.56-.69c.11-.14.17-.19.24-.19a.376.376,0,0,1,.27.16l.75.69a.3.3,0,0,1,.15.24c0,.14-.14.18-.23.18H71.32v2.45h2.31l.58-.74c.12-.16.17-.21.23-.21.09,0,.14.06.29.19l.81.72a.335.335,0,0,1,.14.24c0,.16-.14.18-.23.18Zm-.03,2.93H72.88c0,.32.05,3.33.05,3.84,0,.61,0,1.6-1.96,1.98-.14-.53-.3-.98-1.4-1.6l.03-.11c.3.03,1.25.11,1.49.11.68,0,.78-.14.79-.46.02-.29.02-3.51,0-3.76H68.93a11,11,0,0,0-1.79.14l-.29-.64c1.03.1,2.11.11,2.33.11h2.71a11.481,11.481,0,0,0-.2-2.21l1.37.35c.2.05.29.08.29.21,0,.11-.05.14-.44.46-.02.3-.02.4-.02,1.18h.71l.62-.75c.12-.14.18-.19.26-.19s.14.03.26.16l.74.75c.11.1.15.14.15.24,0,.14-.12.18-.23.18Zm-5.81,3.22c-.46,0-.55-.45-.62-.88a3.617,3.617,0,0,0-.71-1.78l.06-.1c1.49.62,1.91,1.55,1.91,2.05a.666.666,0,0,1-.64.7Z"/>
        <path id="パス_322" data-name="パス 322" d="M83.07,39.43v1.82c0,.26.06,1.49.06,1.66a.68.68,0,0,1-.74.62c-.41,0-.36-.38-.33-.58h-2.6v4.02c0,.58.06,3.36.06,3.99,0,.42-.15.9-.77.9a.393.393,0,0,1-.44-.42c0-.1.05-.51.05-.61.12-1.81.12-2.8.12-9.81a12.456,12.456,0,0,0-.17-3.2l1.41.7h2.19l.4-.38c.09-.08.15-.16.21-.16a.325.325,0,0,1,.18.1l.79.61a.259.259,0,0,1,.11.21c0,.11-.09.21-.52.53Zm-1-.51H79.46v1.6h2.61Zm0,1.98H79.46v1.68h2.61Zm4.21,4.48c0,.75,0,1.97.05,2.93,0,.14.06.8.06.93a.689.689,0,0,1-.76.74c-.2,0-.4-.05-.32-.8H82.35c.03.38.09,1.04-.71,1.04-.33,0-.35-.27-.35-.45,0-.1.03-.51.05-.69.06-.91.06-2.62.06-2.77a15.281,15.281,0,0,0-.11-2.26l1.11.58h2.89l.26-.35c.08-.11.17-.21.29-.21a.385.385,0,0,1,.24.13l.55.5a.286.286,0,0,1,.14.21c0,.11-.14.26-.47.48Zm-.97-.37H82.35v1.68h2.96Zm0,2.06H82.35v1.71h2.96Zm4.33-7.6c0,1.55.03,8.42.03,9.81s0,1.82-.61,2.27a3.375,3.375,0,0,1-1.15.53c-.12-.56-.26-1.17-1.64-1.73l.03-.11c.26.02,1.64.1,1.79.1s.43,0,.52-.19a15.553,15.553,0,0,0,.06-1.74c0-.86-.02-4.67-.02-5.44H85.78c.02.45-.3.66-.71.66a.335.335,0,0,1-.35-.38c0-.7.05-3.75.05-4.35a9.778,9.778,0,0,0-.08-1.02l1.26.67h2.57l.37-.43c.06-.06.18-.18.27-.18a.359.359,0,0,1,.24.11l.73.66a.308.308,0,0,1,.12.22c0,.13-.12.24-.61.56Zm-.99-.56H85.76v1.6h2.89Zm0,1.98H85.76v1.68h2.89Z"/>
      </g>
    </g>
    <g id="グループ_37" data-name="グループ 37">
      <path id="パス_323" data-name="パス 323" d="M118.02,47.48a2.461,2.461,0,0,1-1.32.42c-1.5,0-2.72-1.6-2.72-3.55,0-2.21,1.5-4.21,3.25-4.21s3.5,2.08,3.5,5.52c0,3.7-1.98,6.77-4.3,6.77a1.56,1.56,0,0,1-1.73-1.39.779.779,0,0,1,.78-.83c.3,0,.81.21.84,1.1.02.35.05.58.46.58a1.473,1.473,0,0,0,1.11-.56c1.35-1.57,1.43-3.94,1.49-5.36a4.011,4.011,0,0,1-1.34,1.52Zm.5-5.94a1.5,1.5,0,0,0-1.23-.86c-.81,0-1.95.9-1.95,3.52,0,.74.17,2.98,1.73,2.98.58,0,1.55-.45,2.26-2.18a8.06,8.06,0,0,0-.82-3.46Z"/>
      <path id="パス_324" data-name="パス 324" d="M126.39,41.25c-.02.58-.03.94-.03,1.71,0,1.68.09,5.31.12,6,0,.21.05.58.05.78,0,.61-.65.64-.73.64-.41,0-.41-.11-.38-1.17h-1.9c0,.11.05,1.42.05,1.46,0,.58-.59.69-.76.69-.38,0-.38-.3-.38-.5,0-.18.05-.96.05-1.12.05-1.22.06-5.71.06-6.08a26.216,26.216,0,0,0-.18-3.95l1.32.67h1.55l.44-.42c.17-.14.2-.21.27-.21a.383.383,0,0,1,.24.14l.61.58a.4.4,0,0,1,.12.26c0,.14-.3.35-.52.51Zm-.96-.48h-1.91v3.76h1.91Zm0,4.15h-1.91v3.92h1.91V44.92Zm9.94-.3h-6.69a10.042,10.042,0,0,0-1.79.14l-.29-.64c.94.08,1.87.11,2.33.11h1.28V41.78h-.67a10.591,10.591,0,0,0-1.79.14l-.29-.64c1,.1,2.07.11,2.33.11h.43a7.17,7.17,0,0,0-.26-2.61l1.57.48c.17.05.27.13.27.26s-.05.16-.49.48c-.02.38-.02.48-.03,1.39h1.49l.56-.69c.11-.14.17-.19.24-.19a.376.376,0,0,1,.27.16l.74.69a.3.3,0,0,1,.15.24c0,.14-.14.18-.23.18h-3.25v2.45h2.31l.58-.74c.12-.16.17-.21.23-.21.09,0,.14.06.29.19l.81.72a.335.335,0,0,1,.14.24c0,.16-.14.18-.23.18Zm-.03,2.93h-2.52c0,.32.05,3.33.05,3.84,0,.61,0,1.6-1.96,1.98-.14-.53-.3-.98-1.4-1.6l.03-.11c.3.03,1.25.11,1.49.11.68,0,.78-.14.79-.46.02-.29.02-3.51,0-3.76h-2.95a11,11,0,0,0-1.79.14l-.29-.64c1.03.1,2.11.11,2.33.11h2.71a11.482,11.482,0,0,0-.2-2.21l1.37.35c.2.05.29.08.29.21,0,.11-.05.14-.44.46-.02.3-.02.4-.02,1.18h.71l.62-.75c.12-.14.18-.19.26-.19s.14.03.26.16l.74.75c.11.1.15.14.15.24,0,.14-.12.18-.23.18Zm-5.81,3.22c-.46,0-.55-.45-.62-.88a3.617,3.617,0,0,0-.71-1.78l.06-.1c1.49.62,1.91,1.55,1.91,2.05a.666.666,0,0,1-.64.7Z"/>
      <path id="パス_325" data-name="パス 325" d="M142.4,46.68a3.023,3.023,0,0,1,1.03,2.37,3.366,3.366,0,0,1-3.54,3.38c-1.64,0-3.02-.98-3.02-2.26a.9.9,0,0,1,.87-1.02.767.767,0,0,1,.75.8,1.507,1.507,0,0,1-.09.51,1.222,1.222,0,0,0-.05.37,1.251,1.251,0,0,0,1.37,1.06,2.691,2.691,0,0,0,2.36-2.83,2.765,2.765,0,0,0-2.37-2.93c-.09,0-.52.06-.61.06a.3.3,0,0,1-.33-.34.353.353,0,0,1,.35-.37c.09,0,.55.1.65.1a2.28,2.28,0,0,0,2.08-2.5c0-1.3-.71-2.4-1.92-2.4a1.158,1.158,0,0,0-1.23,1.07,1.026,1.026,0,0,0,.05.24,1.652,1.652,0,0,1,.05.38.825.825,0,0,1-.77.88.813.813,0,0,1-.76-.88,2.674,2.674,0,0,1,2.92-2.24,2.764,2.764,0,0,1,3.04,2.69,2.889,2.889,0,0,1-.56,1.63,3.6,3.6,0,0,1-1.93,1.36,4,4,0,0,1,1.69.86Z"/>
      <path id="パス_326" data-name="パス 326" d="M147.75,52.42a3.066,3.066,0,0,1-2.49-1.73,10.355,10.355,0,0,1-.93-4.56c0-3.41,1.38-6,3.42-6,1.57,0,3.42,1.78,3.42,6.15,0,3.92-1.56,6.15-3.42,6.15Zm-1.7-9.62a15.334,15.334,0,0,0-.35,3.47c0,3.57.81,5.6,2.05,5.6,1.05,0,1.52-1.47,1.69-2.08a15.814,15.814,0,0,0,.36-3.52c0-3.65-.84-5.6-2.05-5.6-1.08,0-1.55,1.57-1.7,2.13Z"/>
      <path id="パス_327" data-name="パス 327" d="M156.99,41.08a13.57,13.57,0,0,1-4.71,5.44l-.08-.11a20.906,20.906,0,0,0,3.68-5.86,4.9,4.9,0,0,0,.24-1.02l1.31.93c.08.05.2.14.2.26,0,.19-.4.3-.64.37Zm5.52,5.01c-.15,5.76-.46,6.93-3.19,7.19a2.289,2.289,0,0,0-1.14-1.76l.02-.11a9.347,9.347,0,0,0,1.76.27c.73,0,1.02-.18,1.25-1.63a35.667,35.667,0,0,0,.23-4.61h-3.07c-.09,2.51-1.11,6.85-5.9,7.78l-.03-.13c3.09-1.5,4.65-3.92,4.8-7.65h-.44a9.41,9.41,0,0,0-1.79.16l-.29-.64c.94.08,1.87.1,2.33.1h4.3l.41-.38c.09-.1.18-.18.27-.18s.15.08.21.14l.61.7a.422.422,0,0,1,.14.26c0,.14-.05.18-.47.5Zm2.77-.02c-1.63-.74-3.43-2.47-4.57-6.08h-1.22a6.069,6.069,0,0,0-1.28.1l-.2-.56c.68.06,1.35.08,1.66.08h.76l.49-.51c.14-.14.2-.18.27-.18.09,0,.15.08.26.18l.56.58a.284.284,0,0,1,.12.24c0,.32-.7.45-.97.5a7.159,7.159,0,0,0,5.58,4.29l.02.16a2.481,2.481,0,0,0-1.47,1.22Z"/>
      <path id="パス_328" data-name="パス 328" d="M176.41,47.37a5.615,5.615,0,0,1-2.49-.74c-2.2-1.06-2.25-1.09-2.92-1.09a6.057,6.057,0,0,0-3.31,1.28l-.2-.24a5.569,5.569,0,0,1,3.95-1.87,5.8,5.8,0,0,1,2.74.86c1.69.83,1.96.98,2.66.98a6.1,6.1,0,0,0,3.31-1.3l.2.24a5.554,5.554,0,0,1-3.94,1.87Z"/>
      <path id="パス_329" data-name="パス 329" d="M187.46,52.12h-5.97v-.43a10.962,10.962,0,0,1,2.23-3.59c2.23-2.72,2.99-3.63,2.99-5.23a2.01,2.01,0,0,0-2.02-2.19c-1.06,0-1.7.67-1.7,1.25a.934.934,0,0,0,.15.5,1.413,1.413,0,0,1,.32.8.876.876,0,0,1-.82.9c-.53,0-.87-.53-.87-1.12a3.107,3.107,0,0,1,3.27-2.87,2.845,2.845,0,0,1,3.04,2.98c0,1.62-.88,2.5-2.25,3.73a13.7,13.7,0,0,0-3.28,4.02h2.1c2.13,0,2.63-.86,3.09-2.19l.46.18-.73,3.28Z"/>
      <path id="パス_330" data-name="パス 330" d="M195.07,52.12H189.1v-.43a10.962,10.962,0,0,1,2.23-3.59c2.23-2.72,2.99-3.63,2.99-5.23a2.01,2.01,0,0,0-2.02-2.19c-1.06,0-1.7.67-1.7,1.25a.934.934,0,0,0,.15.5,1.413,1.413,0,0,1,.32.8.869.869,0,0,1-.82.9c-.53,0-.87-.53-.87-1.12a3.107,3.107,0,0,1,3.27-2.87,2.845,2.845,0,0,1,3.04,2.98c0,1.62-.88,2.5-2.25,3.73a13.7,13.7,0,0,0-3.28,4.02h2.1c2.13,0,2.63-.86,3.09-2.19l.46.18-.73,3.28Z"/>
      <path id="パス_331" data-name="パス 331" d="M201.54,41.25c-.02.58-.03.94-.03,1.71,0,1.68.09,5.31.12,6,0,.21.05.58.05.78,0,.61-.65.64-.73.64-.41,0-.41-.11-.38-1.17h-1.9c0,.11.05,1.42.05,1.46,0,.58-.59.69-.76.69-.38,0-.38-.3-.38-.5,0-.18.05-.96.05-1.12.05-1.22.06-5.71.06-6.08a26.217,26.217,0,0,0-.18-3.95l1.32.67h1.55l.44-.42c.17-.14.2-.21.27-.21a.383.383,0,0,1,.24.14l.61.58a.4.4,0,0,1,.12.26c0,.14-.3.35-.52.51Zm-.96-.48h-1.91v3.76h1.91Zm0,4.15h-1.91v3.92h1.91V44.92Zm9.94-.3h-6.69a10.042,10.042,0,0,0-1.79.14l-.29-.64c.94.08,1.87.11,2.33.11h1.28V41.78h-.67a10.591,10.591,0,0,0-1.79.14l-.29-.64c1,.1,2.07.11,2.33.11h.43a7.17,7.17,0,0,0-.26-2.61l1.57.48c.17.05.27.13.27.26s-.05.16-.49.48c-.02.38-.02.48-.03,1.39h1.49l.56-.69c.11-.14.17-.19.24-.19a.376.376,0,0,1,.27.16l.74.69a.3.3,0,0,1,.15.24c0,.14-.14.18-.23.18H206.4v2.45h2.31l.58-.74c.12-.16.17-.21.23-.21.09,0,.14.06.29.19l.81.72a.335.335,0,0,1,.14.24c0,.16-.14.18-.23.18Zm-.03,2.93h-2.52c0,.32.05,3.33.05,3.84,0,.61,0,1.6-1.96,1.98-.14-.53-.3-.98-1.4-1.6l.03-.11c.3.03,1.25.11,1.49.11.68,0,.78-.14.79-.46.02-.29.02-3.51,0-3.76h-2.95a11,11,0,0,0-1.79.14l-.29-.64c1.03.1,2.11.11,2.33.11h2.71a11.482,11.482,0,0,0-.2-2.21l1.37.35c.2.05.29.08.29.21,0,.11-.05.14-.44.46-.02.3-.02.4-.02,1.18h.71l.62-.75c.12-.14.18-.19.26-.19s.14.03.26.16l.74.75c.11.1.15.14.15.24,0,.14-.12.18-.23.18Zm-5.81,3.22c-.46,0-.55-.45-.62-.88a3.617,3.617,0,0,0-.71-1.78l.06-.1c1.49.62,1.91,1.55,1.91,2.05a.666.666,0,0,1-.64.7Z"/>
    </g>
  </g>
</svg>
