<svg id="area01-02-txt" xmlns="http://www.w3.org/2000/svg" width="374.655" height="58.54" viewBox="0 0 374.655 58.54">
  <g id="グループ_20" data-name="グループ 20">
    <g id="グループ_15" data-name="グループ 15">
      <g id="グループ_14" data-name="グループ 14">
        <path id="パス_199" data-name="パス 199" d="M45.11,4.5H34.85V9.6H40.1l.87-.9s.21-.18.33-.18c.06,0,.12.03.42.24l1.38.99c.06.06.33.27.33.48,0,.12-.06.21-.21.33-.24.18-.66.51-.9.69-.06,1.02-.09,2.04-.09,3.72,0,3.36.15,7.38.33,10.74,0,.15.03.78.03.93,0,1.08-1.17,1.11-1.35,1.11-.66,0-.72-.45-.72-.78v-.78H23.21a7.65,7.65,0,0,1-.06,1.2,1.364,1.364,0,0,1-1.26.75c-.66,0-.66-.48-.66-.66,0-.09.18-2.19.21-2.61.06-1.68.09-7.47.09-9.03,0-4.65,0-5.7-.45-7.62L23.6,9.6h4.29V4.5H22.88a21.685,21.685,0,0,0-3.84.36l-.72-1.32c1.56.15,3.42.24,4.98.24H41.51L42.59,2.4c.24-.33.36-.39.45-.39.15,0,.45.24.57.33l1.68,1.38c.12.12.3.24.3.45,0,.33-.33.33-.48.33Zm-4.59,5.82H34.85v7.53c0,.57,0,.63.06.72.15.33,1.05.36,1.38.36,1.02,0,1.41,0,1.68-.6a10.73,10.73,0,0,0,.57-2.52h.27c.36,1.95.39,2.16.84,2.7.33.39.42.57.42.72a1.325,1.325,0,0,1-.69.93,6.688,6.688,0,0,1-2.67.42c-3.18,0-3.54-.39-3.54-1.65V10.32h-3.6c-.12,5.64-1.53,8.67-5.46,11.28l-.24-.21c2.73-2.7,4.02-5.55,4.02-11.07H23.21V25.47H40.52V10.32ZM33.17,4.5h-3.6V9.6h3.6Z"/>
        <path id="パス_200" data-name="パス 200" d="M76.25,28.86a29.772,29.772,0,0,1-9.21-5.67A17.2,17.2,0,0,1,56.78,29.1v-.12a23.449,23.449,0,0,0,9.24-6.93,17.415,17.415,0,0,1-3.57-8.4h-.6c-1.77,6.09-4.92,11.85-10.29,15.24v-.12c3.66-3.48,8.22-10.35,9.75-21.03H56.09a21.54,21.54,0,0,0-3.84.36l-.72-1.32c2.25.21,4.44.24,4.98.24H61.4c.24-2.16.36-3.87.36-4.44a3.725,3.725,0,0,0-.27-1.5l3.06.96c.15.06.42.15.42.42,0,.18-.15.33-.39.48-.12.06-.72.39-.84.45-.09.72-.18,1.56-.48,3.63H74.6l1.02-1.44c.18-.24.3-.39.48-.39.12,0,.18.03.54.33l1.59,1.44c.18.18.3.27.3.45,0,.3-.27.33-.48.33H63.14a52.118,52.118,0,0,1-1.08,5.19h7.68l.9-.63c.33-.24.39-.27.48-.27.12,0,.18.06.39.24l1.29,1.14a.71.71,0,0,1,.24.45c0,.21-.24.33-.36.39-.18.09-.96.42-1.11.51a33.181,33.181,0,0,1-3.72,7.35,5.813,5.813,0,0,0,.51.48A18.84,18.84,0,0,0,79.1,26.4v.18a4.676,4.676,0,0,0-2.85,2.28ZM62.84,13.65a19.608,19.608,0,0,0,3.93,7.38,24.707,24.707,0,0,0,3.21-7.38H62.84Z"/>
        <path id="パス_201" data-name="パス 201" d="M110.69,5.22H98.03v4.95c1.23.27,7.65,1.71,7.65,5.13a1.142,1.142,0,0,1-.99,1.14c-.57,0-.81-.39-1.62-1.59a13.446,13.446,0,0,0-5.04-4.29c0,6.06,0,6.9.18,14.49,0,.48.03.66.03,1.38,0,.66-.06.9-.27,1.08a1.577,1.577,0,0,1-1.05.39c-.84,0-.84-.54-.84-.84,0-.18.06-1.05.06-1.23.21-5.19.21-6.51.21-14.22V5.22H89.24a25.35,25.35,0,0,0-3.87.36l-.72-1.29c1.56.12,3.45.21,5.01.21h17.16l1.23-1.32c.3-.33.36-.39.48-.39.15,0,.45.24.57.33l1.74,1.32c.12.12.3.27.3.45,0,.33-.33.33-.45.33Z"/>
        <path id="パス_202" data-name="パス 202" d="M143.06,27.54c-.57.21-1.14.27-4.74.27-2.94,0-4.29,0-4.29-2.79,0-2.97.06-4.41.69-15.09,0-.21.03-.42.03-.57h-4.83a44.675,44.675,0,0,1-1.2,7.26c2.4,1.44,3.36,2.97,3.36,3.72a.981.981,0,0,1-1.05.9c-.45,0-.6-.18-.9-.54-.99-1.14-1.14-1.32-1.98-2.19a16.389,16.389,0,0,1-11.01,10.35l-.09-.18c7.14-3.06,9.03-9.54,9.63-11.55a15.49,15.49,0,0,0-4.17-2.52V14.4a26.8,26.8,0,0,1,4.53,1.38,51.135,51.135,0,0,0,1.05-6.42h-5.28a21.612,21.612,0,0,0-3.87.36l-.72-1.29c2.25.18,4.44.21,5.01.21h4.89c.06-.96.09-1.89.09-2.85a16.684,16.684,0,0,0-.45-4.59l3.27.99a.491.491,0,0,1,.24.39c0,.3-.54.66-1.02.93-.03,1.17-.06,2.64-.27,5.13h4.35l1.17-.84a1.328,1.328,0,0,1,.6-.33.592.592,0,0,1,.42.18l1.26.99c.09.09.24.24.24.36a.465.465,0,0,1-.39.48,7.022,7.022,0,0,0-1.11.6c-.12,1.53-.33,4.02-.54,8.04-.09,1.8-.24,4.65-.24,6.42,0,.57.06,1.41.9,1.5.15.03,2.25.03,2.58.03,1.83,0,2.37,0,2.67-.9.15-.42.87-3.81,1.05-4.65h.15c.54,3.84.6,4.26.78,4.56.09.09.48.57.54.66a.735.735,0,0,1,.12.36c0,.42-.57,1.11-1.47,1.44Z"/>
        <path id="パス_203" data-name="パス 203" d="M176.96,15.03h-12.3V25.05a2.534,2.534,0,0,1-.48,1.95,4.7,4.7,0,0,1-3.06,1.44,2.152,2.152,0,0,0-.63-1.47,7.852,7.852,0,0,0-3.12-1.5l.06-.21c.99.12,2.82.39,3.84.39,1.26,0,1.71-.27,1.71-1.32v-9.3h-8.01a25.109,25.109,0,0,0-3.87.36l-.69-1.29c2.25.18,4.41.21,4.98.21h7.59V11.28a9.9,9.9,0,0,0-.39-3.27l2.25.57a39.08,39.08,0,0,0,3.36-4.56h-9.87a24.6,24.6,0,0,0-3.84.33l-.72-1.29c2.25.18,4.44.24,4.98.24h9.75l.93-.81a.773.773,0,0,1,.57-.3,1.116,1.116,0,0,1,.6.27l1.74,1.23a.706.706,0,0,1,.33.51c0,.36-.42.45-.63.48-.42.09-1.05.12-1.59.18-.33.21-.6.45-3.03,2.37a17.263,17.263,0,0,1-2.07,1.47.623.623,0,0,1,.33.48c0,.48-.69.96-1.02,1.17v3.96h8.25l1.35-1.47c.3-.33.33-.36.48-.36a1.381,1.381,0,0,1,.54.3l1.83,1.47a.643.643,0,0,1,.3.48c0,.27-.24.3-.45.3Z"/>
        <path id="パス_204" data-name="パス 204" d="M209.78,6.48H188.57c.12,9.51.18,17.37-4.71,21.84l-.18-.15c2.4-3.51,3.33-8.04,3.33-17.31a23.825,23.825,0,0,0-.57-6.39l2.46,1.29h7.29c0-2.58-.09-3.09-.66-4.47l2.88.6c.09.03.54.15.54.42a.6.6,0,0,1-.3.48c-.21.15-.36.24-.78.51V5.76h8.46l1.11-1.2c.3-.33.33-.36.48-.36a1.5,1.5,0,0,1,.57.3l1.44,1.2a.643.643,0,0,1,.3.48c0,.27-.24.3-.45.3Zm-1.44,6.21h-9.18V18.3h5.43l.72-.84c.3-.36.36-.39.48-.39a1.881,1.881,0,0,1,.57.36l.96.72c.24.18.48.36.48.51,0,.21-.72.63-1.11.9,0,.33.03,6,.12,7.14.03.39.06.63.06.78a1.194,1.194,0,0,1-1.17,1.32c-.6,0-.66-.33-.66-.57,0-.15.06-.78.06-.93H193.49c.03.93.03,1.71-1.23,1.71-.3,0-.66-.12-.66-.45,0-.15.09-.66.09-.78.12-1.41.18-2.91.18-4.8,0-2.76-.09-3.57-.27-6.03l2.01,1.35h3.99c0-1.08,0-5.79-.06-6.75-.15-2.79-.36-3.36-.6-3.99l2.64.66c.3.09.51.15.51.39,0,.39-.6.66-.93.81v2.55h5.79l1.14-1.26c.3-.33.33-.36.48-.36a.888.888,0,0,1,.54.33l1.41,1.26a.558.558,0,0,1,.27.45c0,.27-.27.3-.45.3Zm-3.24,6.33H193.49v7.56H205.1Z"/>
        <path id="パス_332" data-name="パス 332" d="M14.085,1.35a9.849,9.849,0,0,1-2.85-7.05,9.849,9.849,0,0,1,2.85-7.05l-.135-.21A9.317,9.317,0,0,0,10.4-5.7,9.317,9.317,0,0,0,13.95,1.56Zm9-5.205.72,2.16a1.792,1.792,0,0,1,.135.555.655.655,0,0,1-.615.66h-.45V0h3.69V-.48h-.33c-.42,0-.81-.15-1.11-1.02L21.84-11.235l-1.32.285L17.565-1.86c-.24.735-.78,1.38-1.41,1.38h-.5V0h3.255V-.48h-.42a.553.553,0,0,1-.63-.6,1.323,1.323,0,0,1,.09-.5l.735-2.28Zm-.165-.48H18.855l2-6.12Zm5.7,2.88a.861.861,0,0,0-.87.87.861.861,0,0,0,.87.87.861.861,0,0,0,.87-.87A.88.88,0,0,0,28.62-1.455Zm0-5.925a.871.871,0,0,0-.87.87.861.861,0,0,0,.87.87.871.871,0,0,0,.87-.87A.88.88,0,0,0,28.62-7.38Zm11.235.165v-2.64h3.3c.09,0,.225-.015.225-.15,0-.105-.075-.165-.15-.24l-.8-.72c-.12-.1-.165-.15-.27-.15s-.15.075-.24.18l-.585.72H39.87V-11.4c.075-.06.45-.39.45-.495s-.09-.15-.21-.18l-1.56-.465a6.49,6.49,0,0,1,.27,2.325h-.9c-.45,0-1.38-.015-2.31-.09l.3.585a9.944,9.944,0,0,1,1.755-.135H38.82c.015.81.015,1.755.015,2.64H37.38c-.21,0-1.275-.015-2.31-.105l.3.6a10.682,10.682,0,0,1,1.77-.135h1.575c.015.15.1.885.12,1.065.03.615.03.87.03,4.815a5.449,5.449,0,0,1-1.935-2.49,11.647,11.647,0,0,0,.4-1.47c.06-.03.375-.18.435-.225a.215.215,0,0,0,.075-.165.2.2,0,0,0-.165-.21l-1.53-.5a3.111,3.111,0,0,1,.06.675A9.847,9.847,0,0,1,33.765.69l.045.06a6.619,6.619,0,0,0,3.015-3.87c.345,1.23,1.14,3.945,5.97,3.945.36,0,.615-.03.855-.045a2.208,2.208,0,0,1,.87-1.455l-.015-.06a9.4,9.4,0,0,1-2.415.27A15.924,15.924,0,0,1,39.855-.63c0-.075.015-3.09.015-3.3h3.285c.105,0,.225-.03.225-.165,0-.1-.075-.165-.15-.225l-.75-.63c-.165-.135-.21-.165-.285-.165s-.12.045-.24.18l-.54.645H39.87V-5.775c.1-.045.465-.255.465-.45,0-.105-.1-.15-.195-.18l-1.4-.45h5.34c.1,0,.225-.015.225-.165,0-.09-.06-.15-.15-.225l-.885-.75c-.135-.105-.195-.165-.285-.165-.045,0-.1.015-.225.2l-.54.75ZM30.27-3.51a9.134,9.134,0,0,0,2.2-1.71c-.03,3.42-.015,3.81-.06,4.725,0,.165-.09,1.02-.09,1.215,0,.33.255.42.525.42.66,0,.66-.42.66-1.2,0-.585-.045-3.48-.045-4.125,0-.465,0-1.05.045-1.695.33-.24.39-.33.39-.42,0-.105-.075-.15-.255-.3.54-.7.84-1.125,1.08-1.47.345-.06.585-.06.585-.27a.242.242,0,0,0-.09-.195L34.005-9.48a6.174,6.174,0,0,1-.285.885,21.046,21.046,0,0,1-3.51,4.98Zm.075-4.38a11.8,11.8,0,0,0,4.02-3.39c.57-.12.63-.135.63-.3,0-.075-.09-.15-.12-.18l-1.125-.81a13.935,13.935,0,0,1-3.48,4.56Zm28.92.735c0-.06-.045-.12-.15-.225l-.9-.9a.488.488,0,0,0-.27-.165c-.06,0-.15.075-.24.2L57-7.35H52.875V-9.735h4.14c.105,0,.225-.015.225-.165,0-.09-.06-.135-.15-.225l-.96-.855c-.09-.075-.2-.165-.27-.165-.09,0-.18.12-.24.195l-.585.855h-2.16V-12.03c.45-.255.45-.315.45-.42,0-.165-.12-.21-.285-.255l-1.38-.375c.1.8.15,1.14.165,1.47.03.51.03.885.03,4.26H49.8v-2.67c.42-.285.465-.33.465-.45,0-.135-.06-.195-.285-.255l-1.47-.405c.225.84.225,1.125.225,3.78H48.03c-.225,0-1.29-.015-2.31-.1l.3.6a10.682,10.682,0,0,1,1.77-.135h4.08c.015.8.03,2.5.015,3.21-.015.54-.015.555-.555.555-.18,0-1.05-.06-1.245-.06v.09a2.177,2.177,0,0,1,1.275,1.38c1.575-.45,1.575-.9,1.575-1.8,0-.375-.06-2.265-.06-2.685.33-.18.375-.24.375-.36,0-.135-.06-.135-.375-.21l-.525-.12h6.69C59.145-6.99,59.265-7.005,59.265-7.155Zm-8.625,1.8c0-.18-.12-.24-.255-.315l-1.17-.615a5.318,5.318,0,0,1-.285.9A17.623,17.623,0,0,1,46.02-1.2l.06.075a11.217,11.217,0,0,0,4.065-3.93c.135-.045.315-.09.375-.12A.2.2,0,0,0,50.64-5.355Zm7.68,2.6c0-.915-1.5-2.565-4.185-3.21l-.06.09A9,9,0,0,1,56.79-2.91c.285.465.495.8.93.8A.631.631,0,0,0,58.32-2.76Zm-2.565.03c0-.09-.06-.165-.18-.285l-.915-.9A6.884,6.884,0,0,1,53.325-2.43,14.44,14.44,0,0,1,46.665.975l.015.1A12.505,12.505,0,0,0,55.11-2.5C55.695-2.55,55.755-2.55,55.755-2.73Zm5.295-8.22-.615,3.045.45.105c.33-.96.66-1.965,2.835-1.965h2.565C63.12-4.755,62.07-1.605,62.07-.54a.792.792,0,0,0,.765.825c.765,0,.81-.945.84-1.335.195-3.345,1.035-5.43,3.42-9.1v-.8ZM82.5-6.81l-.015-.15a7.006,7.006,0,0,1-5.5-4.02c.27-.045.96-.165.96-.465a.265.265,0,0,0-.12-.225l-.555-.54c-.1-.09-.165-.165-.255-.165s-.135.03-.27.165l-.48.48h-.75c-.3,0-.96-.015-1.635-.075l.195.525a7,7,0,0,1,1.26-.09h1.2c1.125,3.39,2.91,5.01,4.515,5.7A2.466,2.466,0,0,1,82.5-6.81Zm-9-3.885c0-.105-.12-.2-.195-.24l-1.29-.87a4.962,4.962,0,0,1-.24.96,19.5,19.5,0,0,1-3.63,5.49l.075.105a12.955,12.955,0,0,0,4.65-5.1C73.11-10.41,73.5-10.515,73.5-10.695ZM78.78-6.12a.4.4,0,0,0-.135-.24l-.6-.66c-.06-.06-.135-.135-.21-.135a.444.444,0,0,0-.27.165l-.4.36H72.915c-.45,0-1.365-.015-2.295-.09l.285.6a9.489,9.489,0,0,1,1.77-.15h.435A7.575,7.575,0,0,1,68.37.9l.03.12c4.725-.87,5.73-4.935,5.82-7.29h3.03a30.512,30.512,0,0,1-.225,4.32c-.225,1.365-.51,1.53-1.23,1.53a9.365,9.365,0,0,1-1.74-.255L74.04-.57a2.152,2.152,0,0,1,1.125,1.65c2.7-.24,3-1.335,3.15-6.735C78.735-5.955,78.78-5.985,78.78-6.12Zm18-6.06-.3-.3L83.22.78l.3.3Zm1.05,1.725h.6A.963.963,0,0,1,99.5-9.42v7.9A.962.962,0,0,1,98.43-.48h-.6V0h5.355c2.91,0,4.08-1.68,4.08-3.015a2.744,2.744,0,0,0-1.14-2.115,4.082,4.082,0,0,0-2.01-.75,3.545,3.545,0,0,0,1.485-.66,2.564,2.564,0,0,0,1.035-1.98c0-1.53-1.515-2.43-3.81-2.43H97.83Zm2.865,1.035a.962.962,0,0,1,1.065-1.035h1.065c1.5,0,2.415.765,2.415,2.115a2.281,2.281,0,0,1-2.55,2.31h-2Zm2.415,3.87a2.52,2.52,0,0,1,2.73,2.58,2.476,2.476,0,0,1-2.775,2.49H101.76a.956.956,0,0,1-1.065-1.035V-5.55Zm6.06,4.1a.861.861,0,0,0-.87.87.861.861,0,0,0,.87.87.861.861,0,0,0,.87-.87A.88.88,0,0,0,109.17-1.455Zm0-5.925a.871.871,0,0,0-.87.87.861.861,0,0,0,.87.87.871.871,0,0,0,.87-.87A.88.88,0,0,0,109.17-7.38Zm11.235.165v-2.64h3.3c.09,0,.225-.015.225-.15,0-.105-.075-.165-.15-.24l-.8-.72c-.12-.1-.165-.15-.27-.15s-.15.075-.24.18l-.585.72h-1.47V-11.4c.075-.06.45-.39.45-.495s-.09-.15-.21-.18l-1.56-.465a6.49,6.49,0,0,1,.27,2.325h-.9c-.45,0-1.38-.015-2.31-.09l.3.585a9.944,9.944,0,0,1,1.755-.135h1.155c.015.81.015,1.755.015,2.64H117.93c-.21,0-1.275-.015-2.31-.105l.3.6a10.682,10.682,0,0,1,1.77-.135h1.575c.015.15.105.885.12,1.065.03.615.03.87.03,4.815a5.449,5.449,0,0,1-1.935-2.49,11.647,11.647,0,0,0,.4-1.47c.06-.03.375-.18.435-.225a.215.215,0,0,0,.075-.165.2.2,0,0,0-.165-.21l-1.53-.5a3.111,3.111,0,0,1,.06.675A9.847,9.847,0,0,1,114.315.69l.045.06a6.619,6.619,0,0,0,3.015-3.87c.345,1.23,1.14,3.945,5.97,3.945.36,0,.615-.03.855-.045a2.208,2.208,0,0,1,.87-1.455l-.015-.06a9.4,9.4,0,0,1-2.415.27,15.924,15.924,0,0,1-2.235-.165c0-.075.015-3.09.015-3.3h3.285c.105,0,.225-.03.225-.165,0-.1-.075-.165-.15-.225l-.75-.63c-.165-.135-.21-.165-.285-.165s-.12.045-.24.18l-.54.645H120.42V-5.775c.1-.045.465-.255.465-.45,0-.105-.105-.15-.195-.18l-1.395-.45h5.34c.105,0,.225-.015.225-.165,0-.09-.06-.15-.15-.225l-.885-.75c-.135-.105-.195-.165-.285-.165-.045,0-.1.015-.225.2l-.54.75ZM110.82-3.51a9.134,9.134,0,0,0,2.205-1.71c-.03,3.42-.015,3.81-.06,4.725,0,.165-.09,1.02-.09,1.215,0,.33.255.42.525.42.66,0,.66-.42.66-1.2,0-.585-.045-3.48-.045-4.125,0-.465,0-1.05.045-1.695.33-.24.39-.33.39-.42,0-.105-.075-.15-.255-.3.54-.7.84-1.125,1.08-1.47.345-.06.585-.06.585-.27a.242.242,0,0,0-.09-.195l-1.215-.945a6.174,6.174,0,0,1-.285.885,21.046,21.046,0,0,1-3.51,4.98Zm.075-4.38a11.8,11.8,0,0,0,4.02-3.39c.57-.12.63-.135.63-.3,0-.075-.09-.15-.12-.18l-1.125-.81a13.935,13.935,0,0,1-3.48,4.56Zm28.92.735c0-.06-.045-.12-.15-.225l-.9-.9a.488.488,0,0,0-.27-.165c-.06,0-.15.075-.24.2l-.705.9h-4.125V-9.735h4.14c.1,0,.225-.015.225-.165,0-.09-.06-.135-.15-.225l-.96-.855c-.09-.075-.2-.165-.27-.165s-.18.12-.24.195l-.585.855h-2.16V-12.03c.45-.255.45-.315.45-.42,0-.165-.12-.21-.285-.255l-1.38-.375c.1.8.15,1.14.165,1.47.03.51.03.885.03,4.26H130.35v-2.67c.42-.285.465-.33.465-.45,0-.135-.06-.195-.285-.255l-1.47-.405c.225.84.225,1.125.225,3.78h-.705c-.225,0-1.29-.015-2.31-.1l.3.6a10.682,10.682,0,0,1,1.77-.135h4.08c.015.8.03,2.5.015,3.21-.015.54-.015.555-.555.555-.18,0-1.05-.06-1.245-.06v.09a2.177,2.177,0,0,1,1.275,1.38c1.575-.45,1.575-.9,1.575-1.8,0-.375-.06-2.265-.06-2.685.33-.18.375-.24.375-.36,0-.135-.06-.135-.375-.21l-.525-.12h6.69C139.7-6.99,139.815-7.005,139.815-7.155Zm-8.625,1.8c0-.18-.12-.24-.255-.315l-1.17-.615a5.316,5.316,0,0,1-.285.9A17.623,17.623,0,0,1,126.57-1.2l.06.075a11.217,11.217,0,0,0,4.065-3.93c.135-.045.315-.09.375-.12A.2.2,0,0,0,131.19-5.355Zm7.68,2.6c0-.915-1.5-2.565-4.185-3.21l-.06.09a9,9,0,0,1,2.715,2.97c.285.465.5.8.93.8A.631.631,0,0,0,138.87-2.76Zm-2.565.03c0-.09-.06-.165-.18-.285l-.915-.9a6.884,6.884,0,0,1-1.335,1.485,14.44,14.44,0,0,1-6.66,3.405l.015.1A12.505,12.505,0,0,0,135.66-2.5C136.245-2.55,136.305-2.55,136.305-2.73Zm9.975-3.045c-.06,1.335-.135,3.555-1.47,5.025a1.472,1.472,0,0,1-1.1.525c-.4,0-.435-.21-.45-.54-.03-.84-.525-1.035-.825-1.035a.75.75,0,0,0-.765.78c0,.705.705,1.305,1.71,1.305,2.295,0,4.245-2.88,4.245-6.345,0-3.225-1.74-5.175-3.45-5.175-1.725,0-3.21,1.875-3.21,3.945,0,1.83,1.2,3.33,2.685,3.33a2.535,2.535,0,0,0,1.305-.39A3.836,3.836,0,0,0,146.28-5.775Zm-.015-.9c-.705,1.62-1.665,2.04-2.235,2.04-1.545,0-1.71-2.1-1.71-2.79,0-2.46,1.125-3.3,1.92-3.3a1.485,1.485,0,0,1,1.215.81A7.265,7.265,0,0,1,146.265-6.675ZM163.05-6.81l-.015-.15a7.006,7.006,0,0,1-5.505-4.02c.27-.045.96-.165.96-.465a.265.265,0,0,0-.12-.225l-.555-.54c-.1-.09-.165-.165-.255-.165-.075,0-.135.03-.27.165l-.48.48h-.75c-.3,0-.96-.015-1.635-.075l.195.525a7,7,0,0,1,1.26-.09h1.2c1.125,3.39,2.91,5.01,4.515,5.7A2.466,2.466,0,0,1,163.05-6.81Zm-9-3.885c0-.105-.12-.2-.2-.24l-1.29-.87a4.962,4.962,0,0,1-.24.96,19.5,19.5,0,0,1-3.63,5.49l.075.105a12.955,12.955,0,0,0,4.65-5.1C153.66-10.41,154.05-10.515,154.05-10.695Zm5.28,4.575a.4.4,0,0,0-.135-.24l-.6-.66c-.06-.06-.135-.135-.21-.135a.444.444,0,0,0-.27.165l-.4.36h-4.245c-.45,0-1.365-.015-2.295-.09l.285.6a9.489,9.489,0,0,1,1.77-.15h.435A7.575,7.575,0,0,1,148.92.9l.03.12c4.725-.87,5.73-4.935,5.82-7.29h3.03a30.511,30.511,0,0,1-.225,4.32c-.225,1.365-.51,1.53-1.23,1.53a9.365,9.365,0,0,1-1.74-.255l-.015.105a2.152,2.152,0,0,1,1.125,1.65c2.7-.24,3-1.335,3.15-6.735C159.285-5.955,159.33-5.985,159.33-6.12Zm8.325.42a9.317,9.317,0,0,0-3.555-7.26l-.135.21a9.849,9.849,0,0,1,2.85,7.05,9.849,9.849,0,0,1-2.85,7.05l.135.21A9.317,9.317,0,0,0,167.655-5.7Z" transform="translate(207 22)"/>
      </g>
      <rect id="長方形_6" data-name="長方形 6" width="7" height="56.49" fill="#1c2c5a"/>
    </g>
    <g id="グループ_19" data-name="グループ 19">
      <g id="グループ_17" data-name="グループ 17">
        <rect id="長方形_7" data-name="長方形 7" width="84.39" height="23.44" rx="5" transform="translate(19.09 34.6)" fill="none" stroke="#000" stroke-miterlimit="10" stroke-width="1"/>
        <g id="グループ_16" data-name="グループ 16">
          <path id="パス_217" data-name="パス 217" d="M44.46,43.6h-.29c-.14.1-.21.16-.84.69-.08.06-.67.48-.79.58l-.06-.06a11.653,11.653,0,0,0,.59-1.94H33.59c-.02,1.41-.64,2.74-1.44,2.74a.63.63,0,0,1-.62-.67c0-.4.26-.67.79-1.22a4.089,4.089,0,0,0,1.02-2.1h.08a3.7,3.7,0,0,1,.18.86h6.41a7.822,7.822,0,0,0,1.12-3.63l1.47.82c.15.08.23.16.23.26,0,.14-.15.19-.7.29-.87,1.15-.97,1.28-1.81,2.27h2.61l.46-.37c.14-.11.24-.19.33-.19s.17.08.33.21l.9.75a.447.447,0,0,1,.18.34c0,.32-.36.38-.68.38Zm-1.95,6.42c.02.21.02.35.03,1.63,0,.14.06.91.06,1.09a.667.667,0,0,1-.7.7c-.46,0-.43-.38-.4-.67H35.22c0,.24.02.77-.65.77-.38,0-.46-.21-.44-.53.03-.64.09-1.97.09-2.59a11.376,11.376,0,0,0-.14-1.84l1.29.74h1.91a6.835,6.835,0,0,0,.43-1.89H36.08c0,.26.02.74-.61.74-.46,0-.46-.35-.46-.5,0-.4.09-2.16.09-2.53a5.091,5.091,0,0,0-.12-1.3l1.31.62h3.98l.38-.43c.11-.11.17-.16.23-.16a.558.558,0,0,1,.26.13l.56.45c.11.1.17.16.17.24,0,.13-.09.21-.46.5-.02.32.08,1.78.08,2.08a.607.607,0,0,1-.65.66c-.26,0-.44-.14-.43-.5H39.03a14.768,14.768,0,0,1-1.31,1.89h3.65l.33-.45c.08-.11.15-.18.23-.18a.5.5,0,0,1,.27.14l.58.45a.436.436,0,0,1,.17.26c0,.11-.09.22-.46.48Zm-6.82-7.99c-.41,0-.52-.35-.62-.75a5.084,5.084,0,0,0-.85-1.89l.06-.08c.79.42,2.01,1.06,2.01,2.06a.61.61,0,0,1-.59.66Zm5.84,7.67H35.24v2.69h6.29Zm-1.08-4.85H36.09v2.19h4.36Zm-1.9-3.03c-.53,0-.64-.51-.75-1.06a4.4,4.4,0,0,0-.71-1.71l.06-.08c1.26.59,1.98,1.41,1.98,2.15C39.13,41.23,39.1,41.82,38.55,41.82Z"/>
          <path id="パス_218" data-name="パス 218" d="M60.28,42.48H55.54l.79.5c.06.05.15.14.15.22,0,.19-.29.22-.56.24-.43.48-1.05,1.04-1.34,1.3h2.6l.59-.7c.08-.1.17-.19.24-.19a.588.588,0,0,1,.27.16l.7.7c.08.08.14.14.14.24,0,.16-.12.18-.23.18H54.04c0,.19.02,1.07.02,1.25H56.2l.53-.58c.09-.1.18-.19.26-.19s.15.08.29.18l.74.54a.341.341,0,0,1,.17.26c0,.14-.12.18-.23.18H54.05v1.39h3.91l.68-.82c.11-.13.15-.19.24-.19.11,0,.2.1.27.16l.84.82c.08.08.15.14.15.26,0,.14-.14.16-.24.16H54.35a8.988,8.988,0,0,0,5.93,3.09l.02.1a2.6,2.6,0,0,0-1.4,1.3,9.771,9.771,0,0,1-4.8-4.48h-.05c.02,1.46.03,1.74.03,2.05.02.37.09,1.95.09,2.29a.71.71,0,0,1-.77.66c-.41,0-.44-.26-.44-.5,0-.35.05-.94.06-1.31.02-.53.02-.77.05-2.99a11.272,11.272,0,0,1-6.03,4.32l-.03-.1a14.062,14.062,0,0,0,4.86-4.42H49.18a10.528,10.528,0,0,0-1.79.14l-.3-.64c1.02.1,2.05.11,2.34.11h3.65V46.78H50.42a10.922,10.922,0,0,0-1.79.14l-.3-.64c1.05.1,2.14.11,2.34.11h2.42V45.14H49.9a10.494,10.494,0,0,0-1.78.14l-.3-.64c1.02.1,2.08.11,2.34.11h4.13a8.243,8.243,0,0,0,.76-2.26H50.73c.88.3,1.69.78,1.69,1.55a.61.61,0,0,1-.61.64c-.35,0-.4-.1-.76-1.06a3.994,3.994,0,0,0-.62-1.14H48.85a9.117,9.117,0,0,0-1.79.14l-.29-.64c1.03.1,2.11.11,2.33.11h2.86a11.855,11.855,0,0,0-.26-3.3l1.47.45c.14.05.21.1.21.24,0,.18-.17.27-.46.38v2.22h1.12c0-2.03,0-2.5-.32-3.3l1.55.43c.09.03.26.08.26.24,0,.24-.36.37-.5.42v2.21h.65a11.786,11.786,0,0,0,.79-2.24,3.416,3.416,0,0,0,.08-.77l1.35.72c.09.05.18.11.18.22,0,.24-.36.29-.53.3-.47.53-1.28,1.44-1.58,1.76h2.39l.65-.72c.12-.13.18-.21.24-.21a.513.513,0,0,1,.3.18l.79.7c.09.08.17.14.17.26,0,.14-.14.18-.23.18Zm-9.88-.74c-.36,0-.47-.26-.76-.98a3.634,3.634,0,0,0-.88-1.26l.06-.11c.61.16,2.13.59,2.13,1.71a.588.588,0,0,1-.55.64Z"/>
          <path id="パス_219" data-name="パス 219" d="M66.45,41.36c-.02.58-.03.94-.03,1.71,0,1.68.09,5.31.12,6,0,.21.05.58.05.78,0,.61-.65.64-.73.64-.41,0-.41-.11-.38-1.17h-1.9c0,.11.05,1.42.05,1.46,0,.58-.59.69-.76.69-.38,0-.38-.3-.38-.5,0-.18.05-.96.05-1.12.05-1.22.06-5.71.06-6.08a26.3,26.3,0,0,0-.18-3.95l1.32.67h1.55l.44-.42c.17-.14.2-.21.27-.21a.383.383,0,0,1,.24.14l.61.58a.4.4,0,0,1,.12.26c0,.14-.3.35-.52.51Zm-.96-.48H63.58v3.76h1.91Zm0,4.15H63.58v3.92h1.91V45.03Zm9.94-.3H68.74a10.042,10.042,0,0,0-1.79.14l-.29-.64c.94.08,1.87.11,2.33.11h1.28V41.89H69.6a10.591,10.591,0,0,0-1.79.14l-.29-.64c1,.1,2.07.11,2.33.11h.43a7.17,7.17,0,0,0-.26-2.61l1.57.48c.17.05.27.13.27.26s-.05.16-.49.48c-.02.38-.02.48-.03,1.39h1.49l.56-.69c.11-.14.17-.19.24-.19a.376.376,0,0,1,.27.16l.75.69a.3.3,0,0,1,.15.24c0,.14-.14.18-.23.18H71.32v2.45h2.31l.58-.74c.12-.16.17-.21.23-.21.09,0,.14.06.29.19l.81.72a.335.335,0,0,1,.14.24c0,.16-.14.18-.23.18Zm-.03,2.93H72.88c0,.32.05,3.33.05,3.84,0,.61,0,1.6-1.96,1.98-.14-.53-.3-.98-1.4-1.6l.03-.11c.3.03,1.25.11,1.49.11.68,0,.78-.14.79-.46.02-.29.02-3.51,0-3.76H68.93a11,11,0,0,0-1.79.14l-.29-.64c1.03.1,2.11.11,2.33.11h2.71a11.481,11.481,0,0,0-.2-2.21l1.37.35c.2.05.29.08.29.21,0,.11-.05.14-.44.46-.02.3-.02.4-.02,1.18h.71l.62-.75c.12-.14.18-.19.26-.19s.14.03.26.16l.74.75c.11.1.15.14.15.24,0,.14-.12.18-.23.18Zm-5.81,3.22c-.46,0-.55-.45-.62-.88a3.617,3.617,0,0,0-.71-1.78l.06-.1c1.49.62,1.91,1.55,1.91,2.05a.666.666,0,0,1-.64.7Z"/>
          <path id="パス_220" data-name="パス 220" d="M83.07,40.83v1.82c0,.26.06,1.49.06,1.66a.68.68,0,0,1-.74.62c-.41,0-.36-.38-.33-.58h-2.6v4.02c0,.58.06,3.36.06,3.99,0,.42-.15.9-.77.9a.393.393,0,0,1-.44-.42c0-.1.05-.51.05-.61.12-1.81.12-2.8.12-9.81a12.456,12.456,0,0,0-.17-3.2l1.41.7h2.19l.39-.38c.09-.08.15-.16.21-.16a.325.325,0,0,1,.18.1l.79.61a.259.259,0,0,1,.11.21c0,.11-.09.21-.52.53Zm-1-.51H79.46v1.6h2.61Zm0,1.98H79.46v1.68h2.61Zm4.21,4.48c0,.75,0,1.97.05,2.93,0,.14.06.8.06.93a.689.689,0,0,1-.76.74c-.2,0-.4-.05-.32-.8H82.35c.03.38.09,1.04-.71,1.04-.33,0-.35-.27-.35-.45,0-.1.03-.51.05-.69.06-.91.06-2.62.06-2.77a15.281,15.281,0,0,0-.11-2.26l1.11.58h2.89l.26-.35c.08-.11.17-.21.29-.21a.385.385,0,0,1,.24.13l.55.5a.286.286,0,0,1,.14.21c0,.11-.14.26-.47.48Zm-.97-.37H82.35v1.68h2.96Zm0,2.07H82.35v1.71h2.96Zm4.33-7.6c0,1.55.03,8.42.03,9.81s0,1.82-.61,2.27a3.375,3.375,0,0,1-1.15.53c-.12-.56-.26-1.17-1.64-1.73l.03-.11c.26.02,1.64.1,1.79.1s.43,0,.52-.19a15.553,15.553,0,0,0,.06-1.74c0-.86-.02-4.67-.02-5.44H85.78c.02.45-.3.66-.71.66a.335.335,0,0,1-.35-.38c0-.7.05-3.75.05-4.35a9.778,9.778,0,0,0-.08-1.02l1.26.67h2.57l.37-.43c.06-.06.18-.18.27-.18a.359.359,0,0,1,.24.11l.73.66a.308.308,0,0,1,.12.22c0,.13-.12.24-.61.56Zm-.99-.56H85.76v1.6h2.89Zm0,1.98H85.76v1.68h2.89Z"/>
        </g>
      </g>
      <g id="グループ_18" data-name="グループ 18">
        <path id="パス_221" data-name="パス 221" d="M119.92,53.53h-5.97V53.1a10.961,10.961,0,0,1,2.23-3.59c2.23-2.72,2.99-3.63,2.99-5.23a2.01,2.01,0,0,0-2.02-2.19c-1.06,0-1.7.67-1.7,1.25a.934.934,0,0,0,.15.5,1.413,1.413,0,0,1,.32.8.869.869,0,0,1-.82.9c-.53,0-.87-.53-.87-1.12a3.107,3.107,0,0,1,3.27-2.87,2.845,2.845,0,0,1,3.04,2.98c0,1.62-.88,2.5-2.25,3.73a13.7,13.7,0,0,0-3.28,4.02h2.1c2.13,0,2.63-.86,3.09-2.19l.46.18-.73,3.28Z"/>
        <path id="パス_222" data-name="パス 222" d="M126.13,41.54h.62v8.13h1.72v.51h-1.72v1.86c0,.7.33.98,1.06.98h.24v.51h-3.86v-.51h.24c.71,0,1.06-.26,1.06-.98V50.18H121.4v-.56l4.71-8.08Zm-.62,2.11L122,49.67h3.51Z"/>
        <path id="パス_223" data-name="パス 223" d="M133.99,42.66c-.02.58-.03.94-.03,1.71,0,1.68.09,5.31.12,6,0,.21.05.58.05.78,0,.61-.65.64-.73.64-.41,0-.41-.11-.38-1.17h-1.9c0,.11.05,1.42.05,1.46,0,.58-.59.69-.76.69-.38,0-.38-.3-.38-.5,0-.18.05-.96.05-1.12.05-1.22.06-5.71.06-6.08a26.217,26.217,0,0,0-.18-3.95l1.32.67h1.55l.44-.42c.17-.14.2-.21.27-.21a.383.383,0,0,1,.24.14l.61.58a.4.4,0,0,1,.12.26c0,.14-.3.35-.52.51Zm-.96-.48h-1.91v3.76h1.91Zm0,4.15h-1.91v3.92h1.91Zm9.94-.3h-6.69a10.042,10.042,0,0,0-1.79.14l-.29-.64c.94.08,1.87.11,2.33.11h1.28V43.19h-.67a10.591,10.591,0,0,0-1.79.14l-.29-.64c1,.1,2.07.11,2.33.11h.43a7.17,7.17,0,0,0-.26-2.61l1.57.48c.17.05.27.13.27.26s-.05.16-.49.48c-.02.38-.02.48-.03,1.39h1.49l.56-.69c.11-.14.17-.19.24-.19a.376.376,0,0,1,.27.16l.75.69a.3.3,0,0,1,.15.24c0,.14-.14.18-.23.18h-3.25v2.45h2.31l.58-.74c.12-.16.17-.21.23-.21.09,0,.14.06.29.19l.81.72a.335.335,0,0,1,.14.24c0,.16-.14.18-.23.18Zm-.03,2.93h-2.52c0,.32.05,3.33.05,3.84,0,.61,0,1.6-1.96,1.98-.14-.53-.3-.98-1.4-1.6l.03-.11c.3.03,1.25.11,1.49.11.68,0,.78-.14.79-.46.02-.29.02-3.51,0-3.76h-2.95a11,11,0,0,0-1.79.14l-.29-.64c1.03.1,2.11.11,2.33.11h2.71a11.482,11.482,0,0,0-.2-2.21l1.37.35c.2.05.29.08.29.21,0,.11-.05.14-.44.46-.02.3-.02.4-.02,1.18h.71l.62-.75c.12-.14.18-.19.26-.19s.14.03.26.16l.74.75c.11.1.15.14.15.24,0,.14-.12.18-.23.18Zm-5.81,3.22c-.46,0-.55-.45-.62-.88a3.617,3.617,0,0,0-.71-1.78l.06-.1c1.49.62,1.91,1.55,1.91,2.05a.666.666,0,0,1-.64.7Z"/>
        <path id="パス_224" data-name="パス 224" d="M150.6,42.13v1.82c0,.26.06,1.49.06,1.66a.68.68,0,0,1-.74.62c-.41,0-.36-.38-.33-.58h-2.6v4.02c0,.58.06,3.36.06,3.99,0,.42-.15.9-.77.9a.393.393,0,0,1-.44-.42c0-.1.05-.51.05-.61.12-1.81.12-2.8.12-9.81a12.456,12.456,0,0,0-.17-3.2l1.41.7h2.19l.39-.38c.09-.08.15-.16.21-.16a.325.325,0,0,1,.18.1l.79.61a.259.259,0,0,1,.11.21c0,.11-.09.21-.52.53Zm-1-.51h-2.61v1.6h2.61Zm0,1.98h-2.61v1.68h2.61Zm4.21,4.48c0,.75,0,1.97.05,2.93,0,.14.06.8.06.93a.689.689,0,0,1-.76.74c-.2,0-.39-.05-.32-.8h-2.96c.03.38.09,1.04-.71,1.04-.33,0-.35-.27-.35-.45,0-.1.03-.51.05-.69.06-.91.06-2.62.06-2.77a15.281,15.281,0,0,0-.11-2.26l1.11.58h2.89l.26-.35c.08-.11.17-.21.29-.21a.385.385,0,0,1,.24.13l.55.5a.286.286,0,0,1,.14.21c0,.11-.14.26-.47.48Zm-.97-.37h-2.96v1.68h2.96Zm0,2.06h-2.96v1.71h2.96Zm4.33-7.6c0,1.55.03,8.42.03,9.81s0,1.82-.61,2.27a3.375,3.375,0,0,1-1.15.53c-.12-.56-.26-1.17-1.64-1.73l.03-.11c.26.02,1.64.1,1.79.1s.43,0,.52-.19a15.553,15.553,0,0,0,.06-1.74c0-.86-.02-4.67-.02-5.44h-2.87c.02.45-.3.66-.71.66a.335.335,0,0,1-.35-.38c0-.7.05-3.75.05-4.35a9.778,9.778,0,0,0-.08-1.02l1.26.67h2.57l.37-.43c.06-.06.18-.18.27-.18a.359.359,0,0,1,.24.11l.73.66a.308.308,0,0,1,.12.22c0,.13-.12.24-.61.56Zm-.99-.56h-2.89v1.6h2.89Zm0,1.98h-2.89v1.68h2.89Z"/>
        <path id="パス_225" data-name="パス 225" d="M172.8,44.9h-.29c-.14.1-.21.16-.84.69-.08.06-.67.48-.79.58l-.06-.06a11.651,11.651,0,0,0,.59-1.94h-9.48c-.02,1.41-.64,2.74-1.44,2.74a.63.63,0,0,1-.62-.67c0-.4.26-.67.79-1.22a4.089,4.089,0,0,0,1.02-2.1h.08a3.7,3.7,0,0,1,.18.86h6.41a7.822,7.822,0,0,0,1.12-3.63l1.47.82c.15.08.23.16.23.26,0,.14-.15.19-.7.29-.87,1.15-.97,1.28-1.81,2.27h2.61l.46-.37c.14-.11.24-.19.33-.19s.17.08.33.21l.9.75a.447.447,0,0,1,.18.34c0,.32-.36.38-.68.38Zm-1.95,6.42c.02.21.02.35.03,1.63,0,.14.06.91.06,1.09a.667.667,0,0,1-.7.7c-.46,0-.43-.38-.39-.67h-6.28c0,.24.02.77-.65.77-.38,0-.46-.21-.44-.53.03-.64.09-1.97.09-2.59a11.376,11.376,0,0,0-.14-1.84l1.29.74h1.91a6.835,6.835,0,0,0,.43-1.89h-1.63c0,.26.02.74-.61.74-.46,0-.46-.35-.46-.5,0-.4.09-2.16.09-2.53a5.091,5.091,0,0,0-.12-1.3l1.31.62h3.98l.38-.43c.11-.11.17-.16.23-.16a.558.558,0,0,1,.26.13l.56.45c.11.1.17.16.17.24,0,.13-.09.21-.46.5-.02.32.08,1.78.08,2.08a.607.607,0,0,1-.65.66c-.26,0-.44-.14-.43-.5h-1.38a14.767,14.767,0,0,1-1.31,1.89h3.65l.33-.45c.08-.11.15-.18.23-.18a.5.5,0,0,1,.27.14l.58.45a.436.436,0,0,1,.17.26c0,.11-.09.22-.46.48Zm-6.82-7.99c-.41,0-.52-.35-.62-.75a5.083,5.083,0,0,0-.85-1.89l.06-.08c.79.42,2.01,1.06,2.01,2.06a.61.61,0,0,1-.59.66ZM169.87,51h-6.29v2.69h6.29Zm-1.08-4.85h-4.36v2.19h4.36Zm-1.9-3.03c-.53,0-.64-.51-.75-1.06a4.4,4.4,0,0,0-.71-1.71l.06-.08c1.26.59,1.98,1.41,1.98,2.14,0,.11-.03.7-.58.7Z"/>
        <path id="パス_226" data-name="パス 226" d="M188.62,43.78h-4.74l.79.5c.06.05.15.14.15.22,0,.19-.29.22-.56.24-.43.48-1.05,1.04-1.34,1.3h2.6l.59-.7c.08-.1.17-.19.24-.19a.588.588,0,0,1,.27.16l.7.7c.08.08.14.14.14.24,0,.16-.12.18-.23.18h-4.85c0,.19.02,1.07.02,1.25h2.14l.53-.58c.09-.1.18-.19.26-.19s.15.08.29.18l.74.54a.341.341,0,0,1,.17.26c0,.14-.12.18-.23.18h-3.91v1.39h3.91l.68-.82c.11-.13.15-.19.24-.19.11,0,.2.1.27.16l.84.82c.08.08.15.14.15.26,0,.14-.14.16-.24.16h-5.55a8.988,8.988,0,0,0,5.93,3.09l.02.1a2.6,2.6,0,0,0-1.4,1.3,9.771,9.771,0,0,1-4.8-4.48h-.05c.02,1.46.03,1.74.03,2.05.02.37.09,1.95.09,2.29a.71.71,0,0,1-.77.66c-.41,0-.44-.26-.44-.5,0-.35.05-.94.06-1.31.02-.53.02-.77.05-2.99a11.272,11.272,0,0,1-6.03,4.32l-.03-.1a14.062,14.062,0,0,0,4.86-4.42h-2.69a10.527,10.527,0,0,0-1.79.14l-.3-.64c1.02.1,2.05.11,2.34.11h3.65V48.08h-2.66a10.847,10.847,0,0,0-1.79.14l-.3-.64c1.05.1,2.14.11,2.34.11h2.42V46.44h-3.19a10.494,10.494,0,0,0-1.78.14l-.3-.64c1.02.1,2.08.11,2.34.11h4.13a8.243,8.243,0,0,0,.76-2.26h-4.32c.88.3,1.69.78,1.69,1.55a.61.61,0,0,1-.61.64c-.35,0-.4-.1-.76-1.06a4,4,0,0,0-.62-1.14h-1.58a9.116,9.116,0,0,0-1.79.14l-.29-.64c1.03.1,2.11.11,2.33.11h2.86a11.856,11.856,0,0,0-.26-3.3l1.47.45c.14.05.21.1.21.24,0,.18-.17.27-.46.38v2.22h1.12c0-2.03,0-2.5-.32-3.3l1.55.43c.09.03.26.08.26.24,0,.24-.36.37-.5.42v2.21h.65a11.785,11.785,0,0,0,.79-2.24,3.417,3.417,0,0,0,.08-.77l1.35.72c.09.05.18.11.18.22,0,.24-.36.29-.53.3-.47.53-1.28,1.44-1.58,1.76h2.39l.65-.72c.12-.13.18-.21.24-.21a.513.513,0,0,1,.3.18l.79.7c.09.08.17.14.17.26,0,.14-.14.18-.23.18Zm-9.88-.74c-.36,0-.47-.26-.76-.98a3.634,3.634,0,0,0-.88-1.26l.06-.11c.61.16,2.13.59,2.13,1.71A.588.588,0,0,1,178.74,43.04Z"/>
        <path id="パス_227" data-name="パス 227" d="M197.29,53.14l-.49-.51,4.94-5.19-4.94-5.19.49-.51,4.92,5.2,4.92-5.2.49.51-4.94,5.19,4.94,5.19-.49.51-4.92-5.2Zm2.05-5.7a1.271,1.271,0,1,1-1.26-1.33A1.3,1.3,0,0,1,199.34,47.44Zm4.13-4.35a1.262,1.262,0,1,1-2.52,0,1.262,1.262,0,1,1,2.52,0Zm0,8.71a1.262,1.262,0,1,1-1.26-1.33A1.305,1.305,0,0,1,203.47,51.8Zm4.15-4.35a1.306,1.306,0,0,1-1.28,1.33,1.278,1.278,0,0,1-1.26-1.33,1.3,1.3,0,0,1,1.26-1.33A1.333,1.333,0,0,1,207.62,47.45Z"/>
        <path id="パス_228" data-name="パス 228" d="M221.45,47.06l.81-.96c.09-.11.14-.19.24-.19s.17.1.26.18l1.09,1.04c.08.08.15.14.15.24,0,.16-.14.18-.23.18H212.83a10.655,10.655,0,0,0-1.79.14l-.29-.74c1.14.11,2.23.11,2.33.11h8.37Z"/>
        <path id="パス_229" data-name="パス 229" d="M232.05,46.9l.53-.64c.09-.1.18-.21.24-.21.09,0,.18.08.29.18l.7.64c.09.08.15.14.15.24,0,.14-.12.18-.23.18h-5.71a10.042,10.042,0,0,0-1.79.14l-.29-.64c1.09.1,2.07.11,2.33.11h1.63a10.414,10.414,0,0,0,.9-3.65l1.34.56a.367.367,0,0,1,.21.29c0,.18-.2.3-.53.43-.53.8-1.14,1.68-1.69,2.37h1.93Zm-.27-4.31.5-.62c.09-.11.15-.21.23-.21s.18.1.29.19l.65.59a.393.393,0,0,1,.15.26c0,.14-.14.18-.23.18h-4.94a9.947,9.947,0,0,0-1.78.14l-.3-.64c.77.06,1.55.11,2.34.11h.56a6.724,6.724,0,0,0-.27-2.3l1.56.43c.15.05.3.11.3.26s-.14.22-.53.43c-.03.38-.05.77-.05,1.18h1.5Zm-.58,6.36.33-.38c.06-.08.17-.19.24-.19s.2.1.26.14l.58.46a.423.423,0,0,1,.2.29c0,.13-.12.26-.38.45-.02.58-.02,1.07,0,1.95,0,.24.03,1.34.03,1.57a.714.714,0,0,1-.71.8c-.29,0-.36-.16-.36-.4,0-.11.02-.3.03-.42h-3.13a2.668,2.668,0,0,1,.03.32.692.692,0,0,1-.76.78c-.33,0-.38-.26-.38-.43,0-.51.08-3.15.08-3.75a11.714,11.714,0,0,0-.14-1.9l1.34.7h2.75Zm-3.66-5.31c.46.22,1.76.88,1.76,2,0,.59-.35.77-.61.77-.36,0-.56-.21-.64-.83a5.265,5.265,0,0,0-.58-1.87l.06-.06Zm.73,5.7v3.51h3.16V49.34Zm9.12-7.92.36-.34c.11-.1.18-.18.26-.18s.17.08.26.14l.77.64a.564.564,0,0,1,.17.3c0,.18-.18.27-.56.48-.35.59-1.88,3.25-2.19,3.79a6.858,6.858,0,0,1,2.28,2.1,4.84,4.84,0,0,1,.74,2.46c0,1.82-1.78,2.26-2.52,2.45a2.333,2.333,0,0,0-1.14-1.59l.03-.14a9.628,9.628,0,0,0,1.29.11c1.05,0,1.23-.56,1.23-1.14a5.3,5.3,0,0,0-2.23-4.13,29.954,29.954,0,0,0,1.29-4.59h-2.05c-.02.69.03,8.68.08,11.44,0,.22.02.59.02.77,0,.64-.3.85-.74.85s-.43-.42-.43-.83c0-.14.02-.5.02-.69.08-2.39.08-3.94.08-5.99,0-1.62,0-5.41-.15-6.67l1.26.74h1.88Z"/>
        <path id="パス_230" data-name="パス 230" d="M251.12,46.93a20.643,20.643,0,0,0-4.27,1.5,10.976,10.976,0,0,1,.15,1.89c0,.34,0,1.39-.55,1.39s-.56-.91-.56-1.18c0-.24,0-1.33-.02-1.57-1.02.67-2.17,1.84-2.17,2.71,0,1.22,1.99,1.22,2.43,1.22a13.353,13.353,0,0,0,2.33-.27,2.686,2.686,0,0,1,.53-.06c.65,0,.91.42.91.7a.585.585,0,0,1-.47.51,19.994,19.994,0,0,1-2.33.16c-.84,0-4.03,0-4.03-1.98,0-1.5,1.87-2.96,2.74-3.57-.14-.85-.35-1.65-1.31-1.65a2.528,2.528,0,0,0-1.9,1.38c-.68,1.12-.74,1.14-1,1.14-.36,0-.44-.27-.44-.66a.983.983,0,0,1,.33-.88,14.369,14.369,0,0,0,2.6-3.57,7.885,7.885,0,0,1-1.35.16c-1.03,0-1.54-.59-1.5-1.42a1.965,1.965,0,0,0,1.57.59,10.567,10.567,0,0,0,1.76-.19,8.99,8.99,0,0,0,.84-1.82c0-.22-.33-.56-1.03-.66a1.129,1.129,0,0,1,.93-.38c.74,0,1.38.59,1.38.93a1.024,1.024,0,0,1-.24.56,10.213,10.213,0,0,0-.79,1.12,18.316,18.316,0,0,1,2.11-.74c.36,0,.81.22.81.54a.443.443,0,0,1-.32.4,17.278,17.278,0,0,1-3.24.75,30.009,30.009,0,0,0-1.7,2.69,3.121,3.121,0,0,1,1.55-.43,1.753,1.753,0,0,1,1.85,1.55c1.03-.64,2.52-1.39,2.96-1.62.27-.14.38-.26.38-.46s-.12-.3-.47-.58a.977.977,0,0,1,.32-.05c.55,0,1.73.46,1.73,1.36,0,.37-.2.43-.52.5Z"/>
        <path id="パス_231" data-name="パス 231" d="M257.77,42.1c-.2.42-.61,1.3-1.02,2.03-.65,1.17-.73,1.3-.81,1.46a4.268,4.268,0,0,1,1.85,3.28,1.881,1.881,0,0,1-1.75,2.03,2.014,2.014,0,0,0-.82-1.44l.03-.13a4.165,4.165,0,0,0,.79.1c.43,0,.7-.08.7-1.07a3.717,3.717,0,0,0-1.16-2.74,25.98,25.98,0,0,0,1.06-4.11h-1.63c-.02.9-.02,5.62-.02,6.9,0,.83.08,5.07.08,5.28a.736.736,0,0,1-.79.78.4.4,0,0,1-.41-.45c0-.06.02-.22.02-.32.12-1.78.17-3.2.17-8.63a21.17,21.17,0,0,0-.29-4.67l1.38.72h1.55l.33-.34c.09-.1.17-.16.24-.16s.14.06.24.16l.71.64a.328.328,0,0,1,.09.22c0,.21-.12.3-.58.45Zm1.73,8.87a9.1,9.1,0,0,1-3.16,2.72l-.03-.1c1.14-1.22,2.26-2.58,2.45-3.87l1.17.72c.14.08.2.13.2.24,0,.27-.43.29-.62.29Zm6.47-4.79a11.4,11.4,0,0,1-4.22-4.64l-.08.02a14.749,14.749,0,0,1-4.59,4.95l-.06-.13c1.58-1.49,3.43-4.47,3.68-6.03l1.38.64a.263.263,0,0,1,.14.22.281.281,0,0,1-.23.27c2.29,2.79,4.03,3.3,5.24,3.52v.1a2.375,2.375,0,0,0-1.26,1.09Zm-.33,2.88h-3.68c0,.54.03,2.96.03,3.46,0,1.12-.08,1.68-1.76,2.21a2.03,2.03,0,0,0-1.25-1.52V53.1c.35.03.87.08,1.35.08.43,0,.61,0,.64-.27.02-.14.02-1.18.02-3.84h-.88a9.117,9.117,0,0,0-1.79.14l-.29-.64c1.03.1,2.11.11,2.33.11h.62v-2.5a10.378,10.378,0,0,0-1.96.14l-.3-.64c1.03.1,2.13.11,2.34.11h1.38l.43-.62c.09-.13.14-.21.23-.21s.15.06.27.18l.71.62a.3.3,0,0,1,.15.24c0,.16-.14.18-.24.18h-2.02v2.5h1.98l.43-.75c.05-.1.14-.21.23-.21s.17.08.27.18l.87.75c.06.06.15.13.15.24,0,.14-.14.18-.24.18Zm-.09,4.53c-.43,0-.53-.19-.94-1.02a6.307,6.307,0,0,0-1.7-2.08l.08-.08c1.37.3,3.19,1.3,3.19,2.46,0,.53-.32.72-.62.72Z"/>
        <path id="パス_232" data-name="パス 232" d="M274.21,54.7c-.24,0-.29-.06-1-1.28-.84-1.42-1.19-1.79-4.07-4.8a1.846,1.846,0,0,1-.55-1.14c0-.26.05-.53.56-1.1,1.54-1.71,3.85-4.26,3.85-4.88,0-.38-.33-.74-.73-1.15a1.844,1.844,0,0,1,2.05,1.63c0,.32-.15.45-.61.83a52.969,52.969,0,0,0-4.01,4.05.819.819,0,0,0-.26.59c0,.4.11.51,1.34,1.7,3.4,3.23,4.01,3.79,4.01,4.63,0,.37-.2.93-.58.93Z"/>
      </g>
    </g>
  </g>
</svg>
