<svg id="area02-02-txt" xmlns="http://www.w3.org/2000/svg" width="443.92" height="57" viewBox="0 0 443.92 57">
  <g id="グループ_46" data-name="グループ 46">
    <g id="グループ_45" data-name="グループ 45">
      <path id="パス_354" data-name="パス 354" d="M31.7,17.64c-.18.15-.42.33-.57.48-.12,3.75-.48,5.52-2.91,5.82-.24-.87-.6-1.29-1.8-1.83l.06-.18c.33.03,1.83.12,1.95.12.96,0,.99-.3,1.2-2.22a12.049,12.049,0,0,0,.06-2.25H25.88c0,1.59,0,5.91.09,8.49,0,.24.09,1.32.09,1.53a1.172,1.172,0,0,1-1.05,1.29.622.622,0,0,1-.69-.66c0-.24.09-1.08.09-1.23V25.32c0-1.83.03-3.63.06-5.43a23.925,23.925,0,0,1-7.05,7.05l-.09-.18a34.7,34.7,0,0,0,6.84-9.18H20.9a12.934,12.934,0,0,1-.36,1.95,1.156,1.156,0,0,1-1.02.78.667.667,0,0,1-.69-.63c0-.12.54-2.28.63-2.67a31.819,31.819,0,0,0,.87-6l1.74,1.38h2.4V8.46H23.18a23.453,23.453,0,0,0-3.84.36l-.72-1.29c1.68.12,3.33.21,4.98.21h2.76a15.283,15.283,0,0,0,1.32-3.12,7.972,7.972,0,0,0,.6-2.82l2.07.99c.18.09.42.21.42.45,0,.45-.69.57-1.05.6a40.249,40.249,0,0,1-2.88,3.9h2.07l.57-.48a.7.7,0,0,1,.39-.24.891.891,0,0,1,.39.18l.81.6a.605.605,0,0,1,.33.45c0,.24-.45.48-.87.69.06.51.18,3.84.18,4.41,0,.69-.57.9-1.17.9-.51,0-.51-.09-.48-1.14H25.88v3.75H29.3l.63-.69c.09-.12.27-.33.42-.33s.3.15.48.33l.72.66c.12.12.33.36.33.51a.4.4,0,0,1-.18.3ZM22.79,6.69c-.69,0-.78-.42-1.05-1.53a5.886,5.886,0,0,0-1.71-3.15l.12-.15c.81.36,3.57,1.77,3.57,3.75,0,.45-.18,1.08-.93,1.08Zm1.68,6.42H21.74c-.36,1.56-.45,2.13-.72,3.75h3.45V13.11Zm4.59-4.65H25.88v3.93h3.18Zm2.55,18.36a.773.773,0,0,1-.78-.84,8.028,8.028,0,0,1,.72-1.95,3.2,3.2,0,0,0,.33-1.74l.12-.06a4.492,4.492,0,0,1,.9,2.64C32.9,26.19,32.24,26.82,31.61,26.82ZM44.99,16.38H34.4V19.2h7.62l.69-.72c.12-.12.24-.24.36-.24a.93.93,0,0,1,.51.27l.9.69c.18.12.48.36.48.54s-.3.36-.99.72c-.39,3.99-1.23,6.06-1.86,6.84a4.742,4.742,0,0,1-3.57,1.5,4.418,4.418,0,0,0-1.56-2.37l.12-.15a10.321,10.321,0,0,0,2.7.48c2.1,0,2.43-4.26,2.61-6.84H34.4c0,.45.03,1.14-.96,1.14-.6,0-.72-.27-.72-.57,0-.45.06-2.46.06-2.88.03-3.45.09-8.49.09-11.79a14.626,14.626,0,0,0-.18-2.34l1.95,1.26h1.17a9.808,9.808,0,0,0,.63-3.66l1.86.9c.51.24.54.39.54.51,0,.33-.39.36-.87.33a14.56,14.56,0,0,1-1.65,1.92h4.35l.63-.66c.18-.18.33-.33.45-.33a.659.659,0,0,1,.36.15l1.11.81c.12.09.21.15.21.33,0,.3-.36.48-1.05.87.06.63.12,2.76.15,3.75.03.78.21,2.34.21,2.88a1.105,1.105,0,0,1-1.14,1.11c-.63,0-.66-.3-.66-.93H34.4v2.94h7.59l.78-1.02c.09-.12.33-.36.48-.36a1.305,1.305,0,0,1,.57.3l1.32,1.05c.15.12.3.24.3.45,0,.27-.24.3-.45.3ZM35.06,26.1c-.6,0-.75-.42-.75-.81,0-.21.09-1.2.09-1.41a4.225,4.225,0,0,0-.27-1.59l.15-.06a3.581,3.581,0,0,1,1.68,2.79.957.957,0,0,1-.9,1.08ZM40.94,5.46H34.4V8.4h6.54V5.46Zm0,3.66H34.4V12h6.54ZM37.52,24.87c-.57,0-.6-.3-.63-1.2a9.79,9.79,0,0,0-.18-1.5,1.5,1.5,0,0,0-.27-.75l.12-.06c1.62,1.14,1.74,2.19,1.74,2.67A.776.776,0,0,1,37.52,24.87Zm2.61-1.17c-.6,0-.63-.18-.96-1.56a1.95,1.95,0,0,0-.66-1.2l.06-.15c1.77.45,2.19,1.59,2.19,2.1C40.76,23.07,40.67,23.7,40.13,23.7Z"/>
      <path id="パス_355" data-name="パス 355" d="M64.55,25.56c8.97-3.09,9.39-9.54,9.39-11.1,0-5.25-4.98-8.07-9.39-8.07a3.023,3.023,0,0,0-1.11.15c1.47,1.23,1.47,2.13,1.47,2.28,0,.36-.09.48-.72,1.8-3.66,7.68-3.99,8.43-5.7,10.98-.15.21-1.11,1.62-1.71,1.86a1.3,1.3,0,0,1-.57.12c-.69,0-.9-.33-1.74-1.53a4.08,4.08,0,0,0-.81-.81c-1.17-.96-1.56-2.01-1.56-4.05,0-6.03,5.07-11.7,12.75-11.7,5.49,0,10.92,3.12,10.92,9.33,0,5.49-4.41,10.41-11.16,11.07ZM61.16,13.89a14.49,14.49,0,0,0,1.77-5.22,2.793,2.793,0,0,0-.84-1.92c-3.36.27-8.43,4.71-8.43,10.59,0,2.28,1.44,4.29,2.61,4.29a.756.756,0,0,0,.57-.21,11.849,11.849,0,0,0,1.74-2.64l2.58-4.89Z"/>
      <path id="パス_356" data-name="パス 356" d="M107,23.94a24.433,24.433,0,0,1-6.51-6.36,24.633,24.633,0,0,1-3.93-7.89h-.24c0,4.65.06,9.27.21,13.92.03.57.18,3.12.18,3.57a1.519,1.519,0,0,1-1.44,1.44c-.84,0-.84-.54-.84-.75,0-.42.21-2.28.21-2.64.12-2.64.09-3.75.18-13.8a30.585,30.585,0,0,1-6.12,8.49,28.727,28.727,0,0,1-6.15,4.62l-.12-.24c5.04-4.32,9.27-9.69,11.4-14.61H87.29a24.971,24.971,0,0,0-3.87.33l-.69-1.29c2.25.18,4.41.24,4.98.24h7.11a47.937,47.937,0,0,0-.36-6.03,8.618,8.618,0,0,0-.51-1.77l3.15.78c.27.06.33.21.33.36,0,.39-.15.48-1.05,1.02-.06.9-.03,4.83-.06,5.64h8.52l1.2-1.44c.09-.12.33-.36.48-.36.18,0,.39.21.57.36l1.5,1.38a.668.668,0,0,1,.3.45c0,.27-.27.33-.45.33H96.92a24.12,24.12,0,0,0,7.65,9.54,18.452,18.452,0,0,0,5.76,2.76v.24A4.008,4.008,0,0,0,107,23.94Z"/>
      <path id="パス_357" data-name="パス 357" d="M141.71,5.58h-7.86l1.32.9a.564.564,0,0,1,.3.45c0,.27-.21.3-.81.39a34.148,34.148,0,0,1-3.09,3.42h6.09l.66-.81c.12-.15.27-.33.45-.33a.945.945,0,0,1,.51.27l1.17.87c.12.09.3.21.3.42,0,.3-.69.78-.93.99.03.45.03.96.06,5.37,0,.9.06,5.28.06,6.27,0,2.49,0,3.72-2.91,4.44,0-1.23-1.02-2.01-2.25-2.64v-.24a22.417,22.417,0,0,0,2.82.27c.45,0,.72-.06.75-.57,0-.06.03-3.24.03-3.87,0-1.89-.03-6.57-.06-9.72h-6.66c-.03.87,0,3.42,0,3.63,0,.45.09.6,2.04.6.93,0,2.34,0,2.7-2.43l.21-.03c.06,1.35.15,1.56.57,1.65.21.06.42.06.42.3a1.89,1.89,0,0,1-1.05,1.41,6.947,6.947,0,0,1-3.03.48c-3,0-3.42-.51-3.42-2.43,0-.42,0-2.13.03-3.18H127.1l.36.36c.15.15.24.24.24.42s-.21.27-.36.33-.51.21-.6.24a11.849,11.849,0,0,1-6.48,6.15l-.15-.27a12.382,12.382,0,0,0,5.25-7.23h-5.91c.03,1.14.03,1.32.03,3.03,0,4.77,0,5.31.06,7.47,0,.6.12,4.35.12,4.71,0,.45,0,1.62-1.23,1.62-.69,0-.72-.39-.72-.69,0-.15.06-.81.06-.96.09-2.28.12-7.83.12-11.01a28.134,28.134,0,0,0-.42-6.45l2.46,1.56h11.16a15.513,15.513,0,0,0,1.92-5.16H120.23a24.4,24.4,0,0,0-3.87.36l-.69-1.29c1.56.12,3.42.21,4.98.21H128c-.03-2.55-.36-3.09-.72-3.66l2.82.66c.12.03.51.12.51.42s-.21.45-.96.93V4.86h8.31l1.08-1.38c.21-.27.33-.39.48-.39.18,0,.39.18.57.33l1.77,1.38a.679.679,0,0,1,.3.45c0,.33-.33.33-.45.33Zm-16.5,4.41c-.84,0-1.02-.81-1.2-1.59a4.065,4.065,0,0,0-1.26-2.49l.15-.12c.9.42,3.21,1.56,3.21,3.18A.931.931,0,0,1,125.21,9.99Zm8.31,10.05c-.03.72,0,2.73.03,3.57,0,.27.12,1.59.12,1.65,0,.27-.03.84-.96.84-.72,0-.72-.24-.69-.99h-6.75a2.319,2.319,0,0,1,0,.69,1.368,1.368,0,0,1-1.08.75c-.48,0-.48-.33-.48-.57,0-.42.09-2.16.09-2.52,0-.84.06-2.55.06-3.18a20.291,20.291,0,0,0-.24-2.49l2.04,1.08h6.06l.54-.57c.15-.18.24-.3.42-.3.12,0,.3.15.42.21l1.02.66a.483.483,0,0,1,.27.45c0,.24-.12.36-.87.72Zm-1.47-.45h-6.78v4.8h6.78Z"/>
      <path id="パス_358" data-name="パス 358" d="M174.56,6.48H153.35c.12,9.51.18,17.37-4.71,21.84l-.18-.15c2.4-3.51,3.33-8.04,3.33-17.31a23.825,23.825,0,0,0-.57-6.39l2.46,1.29h7.29c0-2.58-.09-3.09-.66-4.47l2.88.6c.09.03.54.15.54.42a.6.6,0,0,1-.3.48c-.21.15-.36.24-.78.51V5.76h8.46l1.11-1.2c.3-.33.33-.36.48-.36a1.5,1.5,0,0,1,.57.3l1.44,1.2a.643.643,0,0,1,.3.48c0,.27-.24.3-.45.3Zm-1.44,6.21h-9.18V18.3h5.43l.72-.84c.3-.36.36-.39.48-.39a1.881,1.881,0,0,1,.57.36l.96.72c.24.18.48.36.48.51,0,.21-.72.63-1.11.9,0,.33.03,6,.12,7.14.03.39.06.63.06.78a1.194,1.194,0,0,1-1.17,1.32c-.6,0-.66-.33-.66-.57,0-.15.06-.78.06-.93H158.27c.03.93.03,1.71-1.23,1.71-.3,0-.66-.12-.66-.45,0-.15.09-.66.09-.78.12-1.41.18-2.91.18-4.8,0-2.76-.09-3.57-.27-6.03l2.01,1.35h3.99c0-1.08,0-5.79-.06-6.75-.15-2.79-.36-3.36-.6-3.99l2.64.66c.3.09.51.15.51.39,0,.39-.6.66-.93.81v2.55h5.79l1.14-1.26c.3-.33.33-.36.48-.36a.888.888,0,0,1,.54.33l1.41,1.26a.558.558,0,0,1,.27.45c0,.27-.27.3-.45.3Zm-3.24,6.33H158.27v7.56h11.61Z"/>
      <path id="パス_359" data-name="パス 359" d="M188.3,3.78a24.83,24.83,0,0,1-7.23,5.73l-.12-.15c2.1-1.92,5.88-5.4,6.57-8.07l1.77,1.74a.8.8,0,0,1,.27.45c0,.39-.57.33-1.26.3Zm-.12,6.54c-.6.81-.93,1.29-1.44,1.98l.66.24c.45.18.51.18.51.36a.412.412,0,0,1-.15.3c-.09.09-.54.36-.66.45-.03,1.86.12,11.1.12,13.17,0,.93,0,1.08-.12,1.29a1.821,1.821,0,0,1-1.2.57.541.541,0,0,1-.57-.63c0-.87.15-5.13.18-6.09s.03-1.68.03-8.1a22.393,22.393,0,0,1-4.26,4.29l-.12-.12c2.7-3,5.34-7.71,5.85-10.02l1.8,1.38c.33.27.45.33.45.45C189.26,10.11,189.14,10.11,188.18,10.32Zm12.39,2.55h-7.41a21.54,21.54,0,0,0-3.84.36l-.72-1.29c1.47.12,2.91.18,4.95.21V7.71a21.056,21.056,0,0,0-4.05.36l-.72-1.29c2.49.18,4.74.21,4.77.21,0-4.29-.12-4.59-.51-5.76l2.52.75c.33.09.42.21.42.39,0,.39-.42.63-.99.9-.03.6,0,3.21,0,3.72h2.46l.51-.63c.21-.27.3-.39.45-.39.09,0,.15.03.57.33l.93.63c.15.12.33.27.33.48,0,.27-.27.3-.48.3h-4.77v4.44h2.85l.78-.99c.21-.27.3-.36.45-.36.21,0,.51.27.6.33l1.08.96c.18.18.3.3.3.45,0,.3-.27.33-.48.33ZM191,25.17c-.24.6-.33.84-.66.84-.18,0-.24-.12-.39-.45l-1.14-2.28c.21,0,1.17.09,1.38.09a24.536,24.536,0,0,0,3.39-.42c0-.78-.03-4.2-.03-4.89a24.175,24.175,0,0,0-4.05.33l-.72-1.29c2.46.21,4.74.24,4.77.24-.03-3.06-.03-3.39-.27-4.08l2.07.39c.27.06.57.09.57.36,0,.21-.39.45-.93.75,0,.57,0,1.71-.03,2.58h2.1l.9-.93c.33-.36.39-.36.48-.36a1.406,1.406,0,0,1,.57.33l1.02.87c.15.12.33.3.33.48,0,.27-.24.33-.48.33h-4.92c0,1.23-.03,3.51,0,4.65,3.51-.63,5.07-.99,6.45-1.35l.09.24A107.182,107.182,0,0,1,191,25.17Zm17.7-12.36h-3.75c.03,1.95.21,12.03.06,13.23-.21,1.89-2.31,2.52-3.12,2.61a3.7,3.7,0,0,0-2.46-2.4l.06-.18c.36,0,2.1.09,2.31.09.96,0,1.29-.12,1.47-.42a14.306,14.306,0,0,0,.21-3.12c0-1.14,0-2.28-.03-3.42l-.09-6.39a8.449,8.449,0,0,0-1.8.18l-.3-.99c.45.03,1.62.09,2.13.09h2.58l.87-1.08c.33-.42.36-.45.51-.45.09,0,.21.06.48.36L208.85,12c.27.27.33.33.33.48,0,.27-.21.33-.48.33Zm-.99-7.17h-5.22a7.679,7.679,0,0,0-1.65.15l-.3-.99c.54.03,1.68.12,2.13.12h2.55l.51-.87c.15-.24.27-.42.45-.42.15,0,.21,0,.57.3l1.14.93c.15.12.3.24.3.45,0,.24-.18.33-.48.33Z"/>
      <path id="パス_360" data-name="パス 360" d="M223.05,26.62A15.451,15.451,0,0,1,217.46,15a15.451,15.451,0,0,1,5.59-11.62l.24.34A16.306,16.306,0,0,0,218.51,15a16.26,16.26,0,0,0,4.78,11.28Z"/>
      <path id="パス_361" data-name="パス 361" d="M238.94,17.11c-.14.12-.34.26-.46.38-.1,3-.38,4.42-2.33,4.66-.19-.7-.48-1.03-1.44-1.46l.05-.14c.26.02,1.46.1,1.56.1.77,0,.79-.24.96-1.78a9.681,9.681,0,0,0,.05-1.8h-3.05c0,1.27,0,4.73.07,6.79,0,.19.07,1.06.07,1.22a.933.933,0,0,1-.84,1.03.5.5,0,0,1-.55-.53c0-.19.07-.86.07-.98V23.26c0-1.46.02-2.9.05-4.34a19.188,19.188,0,0,1-5.64,5.64l-.07-.14a27.7,27.7,0,0,0,5.47-7.34h-2.62a10.736,10.736,0,0,1-.29,1.56.916.916,0,0,1-.82.62.532.532,0,0,1-.55-.5c0-.1.43-1.82.5-2.14a25.064,25.064,0,0,0,.7-4.8l1.39,1.1h1.92V9.78h-1.03a18.984,18.984,0,0,0-3.07.29l-.58-1.03c1.34.1,2.66.17,3.98.17h2.21a12.557,12.557,0,0,0,1.06-2.5,6.471,6.471,0,0,0,.48-2.26l1.66.79c.14.07.34.17.34.36,0,.36-.55.46-.84.48a32.871,32.871,0,0,1-2.3,3.12h1.66l.46-.38a.557.557,0,0,1,.31-.19.7.7,0,0,1,.31.14l.65.48a.5.5,0,0,1,.26.36c0,.19-.36.38-.7.55.05.41.14,3.07.14,3.53,0,.55-.46.72-.94.72-.41,0-.41-.07-.38-.91h-2.54v3h2.74l.5-.55c.07-.1.22-.26.34-.26s.24.12.38.26l.58.53c.1.1.26.29.26.41a.316.316,0,0,1-.14.24Zm-7.13-8.76c-.55,0-.62-.34-.84-1.22a4.678,4.678,0,0,0-1.37-2.52l.1-.12c.65.29,2.86,1.42,2.86,3,0,.36-.14.86-.74.86Zm1.34,5.14h-2.18c-.29,1.25-.36,1.7-.58,3h2.76Zm3.67-3.72h-2.54v3.14h2.54Zm2.04,14.69a.613.613,0,0,1-.62-.67,6.512,6.512,0,0,1,.58-1.56,2.494,2.494,0,0,0,.26-1.39l.1-.05a3.637,3.637,0,0,1,.72,2.11c0,1.05-.53,1.56-1.03,1.56Zm10.71-8.35H241.1v2.26h6.1l.55-.58c.1-.1.19-.19.29-.19a.715.715,0,0,1,.41.22l.72.55c.14.1.38.29.38.43s-.24.29-.79.58c-.31,3.19-.98,4.85-1.49,5.47a3.774,3.774,0,0,1-2.86,1.2,3.586,3.586,0,0,0-1.25-1.9l.1-.12a8.009,8.009,0,0,0,2.16.38c1.68,0,1.94-3.41,2.09-5.47H241.1c0,.36.02.91-.77.91-.48,0-.58-.22-.58-.46,0-.36.05-1.97.05-2.3.02-2.76.07-6.79.07-9.43a11.577,11.577,0,0,0-.14-1.87l1.56,1.01h.94a7.711,7.711,0,0,0,.5-2.93l1.49.72c.41.19.43.31.43.41,0,.26-.31.29-.7.26a12.548,12.548,0,0,1-1.32,1.54h3.48l.5-.53c.14-.14.26-.26.36-.26a.513.513,0,0,1,.29.12l.89.65c.1.07.17.12.17.26,0,.24-.29.38-.84.7.05.5.1,2.21.12,3,.02.62.17,1.87.17,2.3a.887.887,0,0,1-.91.89c-.5,0-.53-.24-.53-.74H241.1v2.35h6.07l.62-.82c.07-.1.26-.29.38-.29a1.129,1.129,0,0,1,.46.24l1.06.84c.12.1.24.19.24.36,0,.22-.19.24-.36.24Zm-7.94,7.78c-.48,0-.6-.34-.6-.65,0-.17.07-.96.07-1.13a3.333,3.333,0,0,0-.22-1.27l.12-.05a2.857,2.857,0,0,1,1.34,2.23.759.759,0,0,1-.72.86Zm4.7-16.51H241.1V9.73h5.23V7.38Zm0,2.93H241.1v2.3h5.23Zm-2.74,12.6c-.46,0-.48-.24-.5-.96a9.036,9.036,0,0,0-.14-1.2,1.175,1.175,0,0,0-.22-.6l.1-.05c1.3.91,1.39,1.75,1.39,2.14a.619.619,0,0,1-.62.67Zm2.09-.94c-.48,0-.5-.14-.77-1.25a1.552,1.552,0,0,0-.53-.96l.05-.12c1.42.36,1.75,1.27,1.75,1.68C246.18,21.46,246.11,21.97,245.68,21.97Z"/>
      <path id="パス_362" data-name="パス 362" d="M265.22,23.45c7.18-2.47,7.51-7.63,7.51-8.88,0-4.2-3.98-6.46-7.51-6.46a2.493,2.493,0,0,0-.89.12c1.18.98,1.18,1.7,1.18,1.82,0,.29-.07.38-.58,1.44-2.93,6.14-3.19,6.74-4.56,8.78-.12.17-.89,1.3-1.37,1.49a1.061,1.061,0,0,1-.46.1c-.55,0-.72-.26-1.39-1.22a3.283,3.283,0,0,0-.65-.65c-.94-.77-1.25-1.61-1.25-3.24,0-4.82,4.06-9.36,10.2-9.36,4.39,0,8.74,2.5,8.74,7.46,0,4.39-3.53,8.33-8.93,8.86l-.05-.26Zm-2.71-9.34a11.6,11.6,0,0,0,1.42-4.18,2.256,2.256,0,0,0-.67-1.54c-2.69.22-6.74,3.77-6.74,8.47,0,1.82,1.15,3.43,2.09,3.43a.605.605,0,0,0,.46-.17,9.416,9.416,0,0,0,1.39-2.11l2.06-3.91Z"/>
      <path id="パス_363" data-name="パス 363" d="M299.18,22.15a19.444,19.444,0,0,1-5.21-5.09,19.646,19.646,0,0,1-3.14-6.31h-.19c0,3.72.05,7.42.17,11.14.02.46.14,2.5.14,2.86a1.212,1.212,0,0,1-1.15,1.15c-.67,0-.67-.43-.67-.6,0-.34.17-1.82.17-2.11.1-2.11.07-3,.14-11.04a24.388,24.388,0,0,1-4.9,6.79,23.361,23.361,0,0,1-4.92,3.7l-.1-.19a34.669,34.669,0,0,0,9.12-11.69h-5.23a21.136,21.136,0,0,0-3.1.26l-.55-1.03c1.8.14,3.53.19,3.98.19h5.69a37.612,37.612,0,0,0-.29-4.82,6.958,6.958,0,0,0-.41-1.42l2.52.62c.22.05.26.17.26.29,0,.31-.12.38-.84.82-.05.72-.02,3.86-.05,4.51h6.82l.96-1.15c.07-.1.26-.29.38-.29.14,0,.31.17.46.29l1.2,1.1a.549.549,0,0,1,.24.36c0,.22-.22.26-.36.26H291.1a19.321,19.321,0,0,0,6.12,7.63,14.884,14.884,0,0,0,4.61,2.21v.19a3.178,3.178,0,0,0-2.66,1.37Z"/>
      <path id="パス_364" data-name="パス 364" d="M326.95,7.46h-6.29l1.06.72a.443.443,0,0,1,.24.36c0,.22-.17.24-.65.31a27.379,27.379,0,0,1-2.47,2.74h4.87l.53-.65c.1-.12.22-.26.36-.26a.756.756,0,0,1,.41.22l.94.7a.44.44,0,0,1,.24.34c0,.24-.55.62-.74.79.02.36.02.77.05,4.3,0,.72.05,4.22.05,5.02,0,1.99,0,2.98-2.33,3.55,0-.98-.82-1.61-1.8-2.11V23.3a17.286,17.286,0,0,0,2.26.22c.36,0,.58-.05.6-.46,0-.05.02-2.59.02-3.1,0-1.51-.02-5.26-.05-7.78h-5.33c-.02.7,0,2.74,0,2.9,0,.36.07.48,1.63.48.74,0,1.87,0,2.16-1.94l.17-.02c.05,1.08.12,1.25.46,1.32.17.05.34.05.34.24a1.516,1.516,0,0,1-.84,1.13,5.543,5.543,0,0,1-2.42.38c-2.4,0-2.74-.41-2.74-1.94,0-.34,0-1.7.02-2.54h-2.42l.29.29c.12.12.19.19.19.34s-.17.22-.29.26-.41.17-.48.19a9.48,9.48,0,0,1-5.18,4.92l-.12-.22a9.947,9.947,0,0,0,4.2-5.78h-4.73c.02.91.02,1.06.02,2.42,0,3.82,0,4.25.05,5.98,0,.48.1,3.48.1,3.77,0,.36,0,1.3-.98,1.3-.55,0-.58-.31-.58-.55,0-.12.05-.65.05-.77.07-1.82.1-6.26.1-8.81a22.222,22.222,0,0,0-.34-5.16l1.97,1.25h8.93a12.46,12.46,0,0,0,1.54-4.13H309.8a19.849,19.849,0,0,0-3.1.29l-.55-1.03c1.25.1,2.74.17,3.98.17h5.88c-.02-2.04-.29-2.47-.58-2.93l2.26.53c.1.02.41.1.41.34s-.17.36-.77.74V6.92h6.65l.86-1.1c.17-.22.26-.31.38-.31a.945.945,0,0,1,.46.26l1.42,1.1a.534.534,0,0,1,.24.36c0,.26-.26.26-.36.26Zm-13.2,3.53c-.67,0-.82-.65-.96-1.27a3.258,3.258,0,0,0-1.01-1.99l.12-.1c.72.34,2.57,1.25,2.57,2.54A.748.748,0,0,1,313.75,10.99Zm6.65,8.04c-.02.58,0,2.18.02,2.86,0,.22.1,1.27.1,1.32,0,.22-.02.67-.77.67-.58,0-.58-.19-.55-.79h-5.4a2.215,2.215,0,0,1,0,.55,1.086,1.086,0,0,1-.86.6c-.38,0-.38-.26-.38-.46,0-.34.07-1.73.07-2.02,0-.67.05-2.04.05-2.54a16.157,16.157,0,0,0-.19-1.99l1.63.86h4.85l.43-.46c.12-.14.19-.24.34-.24.1,0,.24.12.34.17l.82.53a.389.389,0,0,1,.22.36c0,.19-.1.29-.7.58Zm-1.18-.36H313.8v3.84h5.42Z"/>
      <path id="パス_365" data-name="パス 365" d="M353.23,8.18H336.26c.1,7.61.14,13.9-3.77,17.47l-.14-.12c1.92-2.81,2.66-6.43,2.66-13.85a18.851,18.851,0,0,0-.46-5.11l1.97,1.03h5.83a7.226,7.226,0,0,0-.53-3.58l2.3.48c.07.02.43.12.43.34a.463.463,0,0,1-.24.38c-.17.12-.29.19-.62.41V7.6h6.77l.89-.96c.24-.26.26-.29.38-.29a1.271,1.271,0,0,1,.46.24l1.15.96a.529.529,0,0,1,.24.38c0,.22-.19.24-.36.24Zm-1.15,4.97h-7.34v4.49h4.34l.58-.67c.24-.29.29-.31.38-.31a1.631,1.631,0,0,1,.46.29l.77.58c.19.14.38.29.38.41,0,.17-.58.5-.89.72,0,.26.02,4.8.1,5.71.02.31.05.5.05.62a.96.96,0,0,1-.94,1.06c-.48,0-.53-.26-.53-.46,0-.12.05-.62.05-.74H340.2c.02.74.02,1.37-.98,1.37-.24,0-.53-.1-.53-.36,0-.12.07-.53.07-.62.1-1.13.14-2.33.14-3.84a48.091,48.091,0,0,0-.22-4.82l1.61,1.08h3.19c0-.86,0-4.63-.05-5.4a9.044,9.044,0,0,0-.48-3.19l2.11.53c.24.07.41.12.41.31,0,.31-.48.53-.74.65V12.6h4.63l.91-1.01c.24-.26.26-.29.38-.29a.717.717,0,0,1,.43.26l1.13,1.01a.453.453,0,0,1,.22.36c0,.22-.22.24-.36.24Zm-2.59,5.06H340.2v6.05h9.29Z"/>
      <path id="パス_366" data-name="パス 366" d="M379.27,25.22c-.62,0-3.43.05-3.98.05-5.88,0-8.09-.36-10.3-1.87a5.28,5.28,0,0,1-1.73-2.02c-.14.24-.26.38-1.25,1.73-.7.98-.77,1.08-.91,1.27V25c-.05.31-.24.38-.31.38a.277.277,0,0,1-.26-.17l-1.49-1.82a7.423,7.423,0,0,0,3.6-1.78V14.99a17.355,17.355,0,0,0-3.31.29l-.55-1.06c1.37.12,2.47.17,3.38.19l.62-.62c.12-.12.24-.24.34-.24a.661.661,0,0,1,.34.19l.89.86c.12.1.22.17.22.31,0,.1-.05.17-.22.31-.19.17-.26.24-.5.46a43.728,43.728,0,0,0,.17,5.69c.6,1.54,3.05,2.3,5.26,2.5,1.01.07,2.16.12,2.78.12a43.453,43.453,0,0,0,7.11-.58,14.99,14.99,0,0,0,1.68-.43v.1a3.039,3.039,0,0,0-1.56,2.14ZM363.26,8.61c-.58,0-.74-.43-.91-.86a6.573,6.573,0,0,0-1.97-2.83l.07-.17c1.58.43,3.6,1.66,3.6,2.98a.786.786,0,0,1-.79.89Zm16.37,11.04H372.6c0,.31.05,1.85.05,2.09a.684.684,0,0,1-.24.6,1.405,1.405,0,0,1-.82.31c-.36,0-.43-.22-.43-.48,0-.05.07-2.14.1-2.52h-2.42a21.136,21.136,0,0,0-3.1.26l-.55-1.03c1.8.14,3.53.19,3.98.19h2.11c0-.46.02-1.1.02-2.64h-3.07a.837.837,0,0,1-.91.86c-.31,0-.53-.1-.53-.46a1.915,1.915,0,0,1,.05-.41c.1-.72.1-2.93.1-5.54a8.085,8.085,0,0,0-.22-1.87l1.7.74h2.81l-.02-2.28h-2.16a19.99,19.99,0,0,0-3.1.29l-.55-1.03c1.8.14,3.53.17,3.98.17h1.82a7.567,7.567,0,0,0-.36-2.88l2.11.5c.07.02.34.1.34.34,0,.17-.24.34-.79.67a12.442,12.442,0,0,0-.1,1.37h3.96l.72-.89c.12-.14.24-.29.36-.29.14,0,.38.19.46.24l1.06.89c.12.12.24.22.24.38,0,.22-.19.24-.36.24h-6.46c-.02,1.39,0,1.9,0,2.28h3.19l.46-.41c.12-.12.24-.24.36-.24a.988.988,0,0,1,.41.19l.89.6c.17.12.22.17.22.24,0,.24-.62.67-.86.82.02.7.1,3.77.12,4.39,0,.14.05.84.05.98,0,.53-.53.77-.96.77s-.41-.34-.38-.67h-3.36l.07,2.64h4.3l.86-.79c.17-.14.26-.26.38-.26a1.439,1.439,0,0,1,.46.24l1.15.74c.12.1.26.19.26.38,0,.22-.19.26-.36.26Zm-8.4-9.31h-3.02v2.47h3.05l-.02-2.47Zm.02,3.05H368.2v2.47h3.07c0-.14-.02-2.35-.02-2.47Zm4.61-3.05h-3.48c0,.74.02,1.78.05,2.47h3.43V10.34Zm0,3.05h-3.43c0,.36.05,2.09.07,2.47h3.36Z"/>
      <path id="パス_367" data-name="パス 367" d="M405.07,14.4a20.1,20.1,0,0,1-9.26-8.67h-.12c-4.06,5.4-6.89,8.59-11.04,10.54l-.14-.19c3.7-2.35,7.13-7.15,8.57-9.19a8.336,8.336,0,0,0,1.54-2.88l1.92.82c.19.07.24.17.24.29a.625.625,0,0,1-.5.58,17.082,17.082,0,0,0,10.92,7.01v.19a3.908,3.908,0,0,0-2.11,1.51Zm-3.58,4.3c-.05,1.39-.05,3.53.02,4.66,0,.19.1.96.1,1.13,0,.62-.79.82-1.06.82a.41.41,0,0,1-.46-.46,4,4,0,0,1,.05-.55h-8.9a6.587,6.587,0,0,1-.02.72,1.17,1.17,0,0,1-1.06.62.422.422,0,0,1-.46-.43c0-.17.07-.94.07-1.08.07-1.68.12-3.55.12-5.23a12.87,12.87,0,0,0-.14-2.23l1.78.84h8.57l.46-.53c.12-.17.19-.22.31-.22.1,0,.19.07.34.19l.79.72c.22.19.26.26.26.34,0,.19-.07.24-.77.7Zm-.77-4.39h-6.96a17.806,17.806,0,0,0-3.1.29l-.55-1.06c1.8.17,3.53.19,3.98.19h4.13l.72-.84c.17-.19.24-.31.36-.31.14,0,.41.22.46.26l1.08.84a.533.533,0,0,1,.24.36c0,.24-.19.26-.36.26Zm-.58,3.77h-8.93v5.64h8.93Z"/>
      <path id="パス_368" data-name="パス 368" d="M431.18,13.85a18.371,18.371,0,0,1-8.71-8.45c-.17,0-.22.02-.41.02-3.24,4.87-7.87,8.45-10.99,9.7l-.07-.19a32.651,32.651,0,0,0,9.05-9.31,4.383,4.383,0,0,0,.82-1.78l2.23.67c.17.05.41.17.41.43,0,.29-.22.34-.6.38a15.641,15.641,0,0,0,10.46,6.91v.19a5.026,5.026,0,0,0-2.18,1.42Zm.12,3.6h-9.82c-.24.5-.36.74-.62,1.2a39.69,39.69,0,0,1-3.26,4.66c2.66-.14,3.05-.19,9.79-.91a10.741,10.741,0,0,0-2.71-3.41l.14-.14c5.3,2.69,5.64,5.52,5.64,5.9a.955.955,0,0,1-.91,1.01,1.1,1.1,0,0,1-1.03-.86,20.51,20.51,0,0,0-.96-2.18c-8.62,1.85-9.84,2.11-12.43,2.5-.26.48-.34.55-.48.55-.12,0-.22-.1-.31-.34l-.94-2.18a9.57,9.57,0,0,0,1.78.14c.63,0,1.58-.02,2.09-.05a56.421,56.421,0,0,0,2.11-5.88h-3.29a19.986,19.986,0,0,0-3.07.26l-.58-1.03c1.25.12,2.74.19,3.98.19h11.64l1.13-1.15c.26-.26.29-.29.36-.29.14,0,.34.17.46.24l1.42,1.15a.475.475,0,0,1,.24.36c0,.26-.24.26-.36.26Zm-5.23-4.13h-5.9a21.136,21.136,0,0,0-3.1.26l-.55-1.03c1.8.14,3.53.19,3.98.19h2.78l.98-1.03c.24-.26.29-.29.38-.29a1.081,1.081,0,0,1,.43.24l1.13,1.03a.578.578,0,0,1,.22.36c0,.22-.19.26-.36.26Z"/>
      <path id="パス_369" data-name="パス 369" d="M438.09,26.28A16.306,16.306,0,0,0,442.87,15a16.26,16.26,0,0,0-4.78-11.28l.24-.34A15.515,15.515,0,0,1,443.92,15a15.515,15.515,0,0,1-5.59,11.62Z"/>
      <path id="パス_383" data-name="パス 383" d="M14.085,1.35a9.849,9.849,0,0,1-2.85-7.05,9.849,9.849,0,0,1,2.85-7.05l-.135-.21A9.317,9.317,0,0,0,10.4-5.7,9.317,9.317,0,0,0,13.95,1.56Zm9-5.205.72,2.16a1.792,1.792,0,0,1,.135.555.655.655,0,0,1-.615.66h-.45V0h3.69V-.48h-.33c-.42,0-.81-.15-1.11-1.02L21.84-11.235l-1.32.285L17.565-1.86c-.24.735-.78,1.38-1.41,1.38h-.5V0h3.255V-.48h-.42a.553.553,0,0,1-.63-.6,1.323,1.323,0,0,1,.09-.5l.735-2.28Zm-.165-.48H18.855l2-6.12Zm5.7,2.88a.861.861,0,0,0-.87.87.861.861,0,0,0,.87.87.861.861,0,0,0,.87-.87A.88.88,0,0,0,28.62-1.455Zm0-5.925a.871.871,0,0,0-.87.87.861.861,0,0,0,.87.87.871.871,0,0,0,.87-.87A.88.88,0,0,0,28.62-7.38Zm11.235.165v-2.64h3.3c.09,0,.225-.015.225-.15,0-.105-.075-.165-.15-.24l-.8-.72c-.12-.1-.165-.15-.27-.15s-.15.075-.24.18l-.585.72H39.87V-11.4c.075-.06.45-.39.45-.495s-.09-.15-.21-.18l-1.56-.465a6.49,6.49,0,0,1,.27,2.325h-.9c-.45,0-1.38-.015-2.31-.09l.3.585a9.944,9.944,0,0,1,1.755-.135H38.82c.015.81.015,1.755.015,2.64H37.38c-.21,0-1.275-.015-2.31-.105l.3.6a10.682,10.682,0,0,1,1.77-.135h1.575c.015.15.1.885.12,1.065.03.615.03.87.03,4.815a5.449,5.449,0,0,1-1.935-2.49,11.647,11.647,0,0,0,.4-1.47c.06-.03.375-.18.435-.225a.215.215,0,0,0,.075-.165.2.2,0,0,0-.165-.21l-1.53-.5a3.111,3.111,0,0,1,.06.675A9.847,9.847,0,0,1,33.765.69l.045.06a6.619,6.619,0,0,0,3.015-3.87c.345,1.23,1.14,3.945,5.97,3.945.36,0,.615-.03.855-.045a2.208,2.208,0,0,1,.87-1.455l-.015-.06a9.4,9.4,0,0,1-2.415.27A15.924,15.924,0,0,1,39.855-.63c0-.075.015-3.09.015-3.3h3.285c.105,0,.225-.03.225-.165,0-.1-.075-.165-.15-.225l-.75-.63c-.165-.135-.21-.165-.285-.165s-.12.045-.24.18l-.54.645H39.87V-5.775c.1-.045.465-.255.465-.45,0-.105-.1-.15-.195-.18l-1.4-.45h5.34c.1,0,.225-.015.225-.165,0-.09-.06-.15-.15-.225l-.885-.75c-.135-.105-.195-.165-.285-.165-.045,0-.1.015-.225.2l-.54.75ZM30.27-3.51a9.134,9.134,0,0,0,2.2-1.71c-.03,3.42-.015,3.81-.06,4.725,0,.165-.09,1.02-.09,1.215,0,.33.255.42.525.42.66,0,.66-.42.66-1.2,0-.585-.045-3.48-.045-4.125,0-.465,0-1.05.045-1.695.33-.24.39-.33.39-.42,0-.105-.075-.15-.255-.3.54-.7.84-1.125,1.08-1.47.345-.06.585-.06.585-.27a.242.242,0,0,0-.09-.195L34.005-9.48a6.174,6.174,0,0,1-.285.885,21.046,21.046,0,0,1-3.51,4.98Zm.075-4.38a11.8,11.8,0,0,0,4.02-3.39c.57-.12.63-.135.63-.3,0-.075-.09-.15-.12-.18l-1.125-.81a13.935,13.935,0,0,1-3.48,4.56Zm28.92.735c0-.06-.045-.12-.15-.225l-.9-.9a.488.488,0,0,0-.27-.165c-.06,0-.15.075-.24.2L57-7.35H52.875V-9.735h4.14c.105,0,.225-.015.225-.165,0-.09-.06-.135-.15-.225l-.96-.855c-.09-.075-.2-.165-.27-.165-.09,0-.18.12-.24.195l-.585.855h-2.16V-12.03c.45-.255.45-.315.45-.42,0-.165-.12-.21-.285-.255l-1.38-.375c.1.8.15,1.14.165,1.47.03.51.03.885.03,4.26H49.8v-2.67c.42-.285.465-.33.465-.45,0-.135-.06-.195-.285-.255l-1.47-.405c.225.84.225,1.125.225,3.78H48.03c-.225,0-1.29-.015-2.31-.1l.3.6a10.682,10.682,0,0,1,1.77-.135h4.08c.015.8.03,2.5.015,3.21-.015.54-.015.555-.555.555-.18,0-1.05-.06-1.245-.06v.09a2.177,2.177,0,0,1,1.275,1.38c1.575-.45,1.575-.9,1.575-1.8,0-.375-.06-2.265-.06-2.685.33-.18.375-.24.375-.36,0-.135-.06-.135-.375-.21l-.525-.12h6.69C59.145-6.99,59.265-7.005,59.265-7.155Zm-8.625,1.8c0-.18-.12-.24-.255-.315l-1.17-.615a5.318,5.318,0,0,1-.285.9A17.623,17.623,0,0,1,46.02-1.2l.06.075a11.217,11.217,0,0,0,4.065-3.93c.135-.045.315-.09.375-.12A.2.2,0,0,0,50.64-5.355Zm7.68,2.6c0-.915-1.5-2.565-4.185-3.21l-.06.09A9,9,0,0,1,56.79-2.91c.285.465.495.8.93.8A.631.631,0,0,0,58.32-2.76Zm-2.565.03c0-.09-.06-.165-.18-.285l-.915-.9A6.884,6.884,0,0,1,53.325-2.43,14.44,14.44,0,0,1,46.665.975l.015.1A12.505,12.505,0,0,0,55.11-2.5C55.695-2.55,55.755-2.55,55.755-2.73Zm4.515-.93v.525h4.035v1.74c0,.675-.345.915-1.05.915h-.24V0h3.81V-.48h-.24c-.72,0-1.05-.255-1.05-.915v-1.74H67.23v-.48H65.535v-7.62H64.92Zm4.035.045H60.84l3.465-5.64ZM82.5-6.81l-.015-.15a7.006,7.006,0,0,1-5.5-4.02c.27-.045.96-.165.96-.465a.265.265,0,0,0-.12-.225l-.555-.54c-.1-.09-.165-.165-.255-.165s-.135.03-.27.165l-.48.48h-.75c-.3,0-.96-.015-1.635-.075l.195.525a7,7,0,0,1,1.26-.09h1.2c1.125,3.39,2.91,5.01,4.515,5.7A2.466,2.466,0,0,1,82.5-6.81Zm-9-3.885c0-.105-.12-.2-.195-.24l-1.29-.87a4.962,4.962,0,0,1-.24.96,19.5,19.5,0,0,1-3.63,5.49l.075.105a12.955,12.955,0,0,0,4.65-5.1C73.11-10.41,73.5-10.515,73.5-10.695ZM78.78-6.12a.4.4,0,0,0-.135-.24l-.6-.66c-.06-.06-.135-.135-.21-.135a.444.444,0,0,0-.27.165l-.4.36H72.915c-.45,0-1.365-.015-2.295-.09l.285.6a9.489,9.489,0,0,1,1.77-.15h.435A7.575,7.575,0,0,1,68.37.9l.03.12c4.725-.87,5.73-4.935,5.82-7.29h3.03a30.512,30.512,0,0,1-.225,4.32c-.225,1.365-.51,1.53-1.23,1.53a9.365,9.365,0,0,1-1.74-.255L74.04-.57a2.152,2.152,0,0,1,1.125,1.65c2.7-.24,3-1.335,3.15-6.735C78.735-5.955,78.78-5.985,78.78-6.12Zm18-6.06-.3-.3L83.22.78l.3.3Zm1.05,1.725h.6A.963.963,0,0,1,99.5-9.42v7.9A.962.962,0,0,1,98.43-.48h-.6V0h5.355c2.91,0,4.08-1.68,4.08-3.015a2.744,2.744,0,0,0-1.14-2.115,4.082,4.082,0,0,0-2.01-.75,3.545,3.545,0,0,0,1.485-.66,2.564,2.564,0,0,0,1.035-1.98c0-1.53-1.515-2.43-3.81-2.43H97.83Zm2.865,1.035a.962.962,0,0,1,1.065-1.035h1.065c1.5,0,2.415.765,2.415,2.115a2.281,2.281,0,0,1-2.55,2.31h-2Zm2.415,3.87a2.52,2.52,0,0,1,2.73,2.58,2.476,2.476,0,0,1-2.775,2.49H101.76a.956.956,0,0,1-1.065-1.035V-5.55Zm6.06,4.1a.861.861,0,0,0-.87.87.861.861,0,0,0,.87.87.861.861,0,0,0,.87-.87A.88.88,0,0,0,109.17-1.455Zm0-5.925a.871.871,0,0,0-.87.87.861.861,0,0,0,.87.87.871.871,0,0,0,.87-.87A.88.88,0,0,0,109.17-7.38Zm11.235.165v-2.64h3.3c.09,0,.225-.015.225-.15,0-.105-.075-.165-.15-.24l-.8-.72c-.12-.1-.165-.15-.27-.15s-.15.075-.24.18l-.585.72h-1.47V-11.4c.075-.06.45-.39.45-.495s-.09-.15-.21-.18l-1.56-.465a6.49,6.49,0,0,1,.27,2.325h-.9c-.45,0-1.38-.015-2.31-.09l.3.585a9.944,9.944,0,0,1,1.755-.135h1.155c.015.81.015,1.755.015,2.64H117.93c-.21,0-1.275-.015-2.31-.105l.3.6a10.682,10.682,0,0,1,1.77-.135h1.575c.015.15.105.885.12,1.065.03.615.03.87.03,4.815a5.449,5.449,0,0,1-1.935-2.49,11.647,11.647,0,0,0,.4-1.47c.06-.03.375-.18.435-.225a.215.215,0,0,0,.075-.165.2.2,0,0,0-.165-.21l-1.53-.5a3.111,3.111,0,0,1,.06.675A9.847,9.847,0,0,1,114.315.69l.045.06a6.619,6.619,0,0,0,3.015-3.87c.345,1.23,1.14,3.945,5.97,3.945.36,0,.615-.03.855-.045a2.208,2.208,0,0,1,.87-1.455l-.015-.06a9.4,9.4,0,0,1-2.415.27,15.924,15.924,0,0,1-2.235-.165c0-.075.015-3.09.015-3.3h3.285c.105,0,.225-.03.225-.165,0-.1-.075-.165-.15-.225l-.75-.63c-.165-.135-.21-.165-.285-.165s-.12.045-.24.18l-.54.645H120.42V-5.775c.1-.045.465-.255.465-.45,0-.105-.105-.15-.195-.18l-1.395-.45h5.34c.105,0,.225-.015.225-.165,0-.09-.06-.15-.15-.225l-.885-.75c-.135-.105-.195-.165-.285-.165-.045,0-.1.015-.225.2l-.54.75ZM110.82-3.51a9.134,9.134,0,0,0,2.205-1.71c-.03,3.42-.015,3.81-.06,4.725,0,.165-.09,1.02-.09,1.215,0,.33.255.42.525.42.66,0,.66-.42.66-1.2,0-.585-.045-3.48-.045-4.125,0-.465,0-1.05.045-1.695.33-.24.39-.33.39-.42,0-.105-.075-.15-.255-.3.54-.7.84-1.125,1.08-1.47.345-.06.585-.06.585-.27a.242.242,0,0,0-.09-.195l-1.215-.945a6.174,6.174,0,0,1-.285.885,21.046,21.046,0,0,1-3.51,4.98Zm.075-4.38a11.8,11.8,0,0,0,4.02-3.39c.57-.12.63-.135.63-.3,0-.075-.09-.15-.12-.18l-1.125-.81a13.935,13.935,0,0,1-3.48,4.56Zm28.92.735c0-.06-.045-.12-.15-.225l-.9-.9a.488.488,0,0,0-.27-.165c-.06,0-.15.075-.24.2l-.705.9h-4.125V-9.735h4.14c.1,0,.225-.015.225-.165,0-.09-.06-.135-.15-.225l-.96-.855c-.09-.075-.2-.165-.27-.165s-.18.12-.24.195l-.585.855h-2.16V-12.03c.45-.255.45-.315.45-.42,0-.165-.12-.21-.285-.255l-1.38-.375c.1.8.15,1.14.165,1.47.03.51.03.885.03,4.26H130.35v-2.67c.42-.285.465-.33.465-.45,0-.135-.06-.195-.285-.255l-1.47-.405c.225.84.225,1.125.225,3.78h-.705c-.225,0-1.29-.015-2.31-.1l.3.6a10.682,10.682,0,0,1,1.77-.135h4.08c.015.8.03,2.5.015,3.21-.015.54-.015.555-.555.555-.18,0-1.05-.06-1.245-.06v.09a2.177,2.177,0,0,1,1.275,1.38c1.575-.45,1.575-.9,1.575-1.8,0-.375-.06-2.265-.06-2.685.33-.18.375-.24.375-.36,0-.135-.06-.135-.375-.21l-.525-.12h6.69C139.7-6.99,139.815-7.005,139.815-7.155Zm-8.625,1.8c0-.18-.12-.24-.255-.315l-1.17-.615a5.316,5.316,0,0,1-.285.9A17.623,17.623,0,0,1,126.57-1.2l.06.075a11.217,11.217,0,0,0,4.065-3.93c.135-.045.315-.09.375-.12A.2.2,0,0,0,131.19-5.355Zm7.68,2.6c0-.915-1.5-2.565-4.185-3.21l-.06.09a9,9,0,0,1,2.715,2.97c.285.465.5.8.93.8A.631.631,0,0,0,138.87-2.76Zm-2.565.03c0-.09-.06-.165-.18-.285l-.915-.9a6.884,6.884,0,0,1-1.335,1.485,14.44,14.44,0,0,1-6.66,3.405l.015.1A12.505,12.505,0,0,0,135.66-2.5C136.245-2.55,136.305-2.55,136.305-2.73Zm4.515-.93v.525h4.035v1.74c0,.675-.345.915-1.05.915h-.24V0h3.81V-.48h-.24c-.72,0-1.05-.255-1.05-.915v-1.74h1.695v-.48h-1.695v-7.62h-.615Zm4.035.045H141.39l3.465-5.64Zm18.2-3.195-.015-.15a7.006,7.006,0,0,1-5.505-4.02c.27-.045.96-.165.96-.465a.265.265,0,0,0-.12-.225l-.555-.54c-.1-.09-.165-.165-.255-.165-.075,0-.135.03-.27.165l-.48.48h-.75c-.3,0-.96-.015-1.635-.075l.195.525a7,7,0,0,1,1.26-.09h1.2c1.125,3.39,2.91,5.01,4.515,5.7A2.466,2.466,0,0,1,163.05-6.81Zm-9-3.885c0-.105-.12-.2-.2-.24l-1.29-.87a4.962,4.962,0,0,1-.24.96,19.5,19.5,0,0,1-3.63,5.49l.075.105a12.955,12.955,0,0,0,4.65-5.1C153.66-10.41,154.05-10.515,154.05-10.695Zm5.28,4.575a.4.4,0,0,0-.135-.24l-.6-.66c-.06-.06-.135-.135-.21-.135a.444.444,0,0,0-.27.165l-.4.36h-4.245c-.45,0-1.365-.015-2.295-.09l.285.6a9.489,9.489,0,0,1,1.77-.15h.435A7.575,7.575,0,0,1,148.92.9l.03.12c4.725-.87,5.73-4.935,5.82-7.29h3.03a30.511,30.511,0,0,1-.225,4.32c-.225,1.365-.51,1.53-1.23,1.53a9.365,9.365,0,0,1-1.74-.255l-.015.105a2.152,2.152,0,0,1,1.125,1.65c2.7-.24,3-1.335,3.15-6.735C159.285-5.955,159.33-5.985,159.33-6.12Zm8.325.42a9.317,9.317,0,0,0-3.555-7.26l-.135.21a9.849,9.849,0,0,1,2.85,7.05,9.849,9.849,0,0,1-2.85,7.05l.135.21A9.317,9.317,0,0,0,167.655-5.7Z" transform="translate(9 51)"/>
    </g>
    <rect id="長方形_15" data-name="長方形 15" width="7" height="57" fill="#1c2c5a"/>
  </g>
</svg>
