<?xml version="1.0" encoding="UTF-8"?>
<svg id="_レイヤー_2" data-name="レイヤー 2" xmlns="http://www.w3.org/2000/svg" viewBox="0 0 400.49 76.58">
  <defs>
    <style>
      .cls-1 {
        fill: none;
        stroke: #000;
        stroke-miterlimit: 10;
      }

      .cls-2, .cls-3 {
        stroke-width: 0px;
      }

      .cls-3 {
        fill: #1c2c5a;
      }
    </style>
  </defs>
  <g id="_レイヤー_1-2" data-name="レイヤー 1">
    <g>
      <path class="cls-2" d="m32.51,23.58c-.96,1.85-2.62,5.09-7.13,5.09-5.59,0-7.42-4.7-7.42-9.05,0-6.77,4.18-9.36,7.7-9.36.36,0,.86,0,2.02.38.74.26.96.26,1.1.26s.86,0,1.75-.65l1.73,4.37-.89.38c-.84-1.27-2.57-3.91-5.83-3.91-4.44,0-5.88,4.49-5.88,7.95,0,4.87,2.59,8.45,6.48,8.45,3.38,0,4.87-2.83,5.66-4.34l.7.43Z"/>
      <path class="cls-2" d="m48.37,28.21v-.77h.84c.86,0,.98-.48.98-.91,0-.12,0-.34-.17-.82l-1.27-3.74h-7.22l-1.25,3.5s-.19.55-.19.98.12.98,1.1.98h.38v.77h-4.73v-.77h.46c.96,0,1.73-.7,2.06-1.66l5.38-15.17,1.68-.36,5.33,15.65c.29.86.89,1.54,1.92,1.54h.74v.77h-6.05Zm-3.14-16.71l-3.43,9.7h6.7l-3.26-9.7Z"/>
      <path class="cls-2" d="m73.06,15.16c-.98-1.54-1.44-2.02-1.97-2.4-1.22-.86-2.16-1.27-3.82-1.27h-2.66c-1.1,0-1.78.58-1.78,1.61v5.64h2.76c1.42,0,1.94-.84,2.18-1.18.29-.41.43-.89.43-1.66h.77v6.79h-.77v-.36c0-1.63-.84-2.81-2.62-2.81h-2.76v5.95c0,.96.36,1.97,1.78,1.97h.82v.77h-6.67v-.77h.77c.53,0,1.78-.43,1.78-1.99v-12.41c0-.58-.19-1.56-1.46-1.56h-1.08v-.79h13.47l1.42,4.13-.58.34Z"/>
      <path class="cls-2" d="m90.51,28.21h-13.06v-.77h.6c.79,0,1.73-.53,1.73-1.73v-12.53c0-1.08-.6-1.7-1.61-1.7h-.72v-.79h12.67l1.58,4.01-.62.29c-.82-1.15-2.42-3.5-5.62-3.5h-2.26c-1.39,0-1.9.6-1.9,1.66v5.66h3.07c1.18,0,2.3-1.03,2.3-2.59v-.38h.77v6.86h-.77v-.84c0-1.15-.77-2.26-2.3-2.26h-3.07v6.19c0,.98.7,1.66,1.73,1.66h1.68c1.97,0,3.53-.6,4.3-1.08,1.49-.94,2.06-2.06,2.5-2.88l.65.29-1.66,4.44Z"/>
      <path class="cls-2" d="m118.47,28.21h-11.57v-.38l10.75-16.35h-3.79c-3.29,0-4.82,2.06-6.05,3.72l-.5-.29,1.73-4.22h10.75v.41l-10.75,16.35h5.16c2.76,0,4.22-2.3,5.35-4.06l.53.22-1.61,4.61Z"/>
      <path class="cls-2" d="m140.02,11.48c-1.01,0-1.68.6-1.68,1.75v9.29c0,3.79-1.99,6.14-5.78,6.14-1.61,0-3.22-.46-4.37-1.58-1.25-1.22-1.58-3.02-1.58-4.78v-9.07c0-1.1-.62-1.75-1.68-1.75h-.6v-.79h6.22v.79h-.74c-1.01,0-1.68.6-1.68,1.75v9.05c0,3.17,1.32,5.54,4.85,5.54,3,0,4.61-2.11,4.61-4.9v-9.7c0-1.08-.6-1.75-1.68-1.75h-.67v-.79h5.45v.79h-.65Z"/>
      <path class="cls-2" d="m146.99,28.31v-14.44h4.03v.69h-3.36v13.06h3.36v.69h-4.03Z"/>
      <path class="cls-2" d="m162.83,18.4c-.21.11-.24.18-.46.78-1.02,2.66-1.97,4.31-3.57,5.75-1.18,1.06-2.93,2.11-4.43,2.42l-.02-.11c1.9-.96,3.84-2.83,4.8-4.16.82-1.14,2.03-3.43,2.42-5.33-2.07.03-6.11.62-6.84.93-.06.03-.5.26-.59.26-.13,0-.21-.06-.35-.19-.4-.37-.94-.9-.94-1.57,0-.24.1-.46.16-.66.66,1.07,1.26,1.07,1.6,1.07.22,0,3.09-.27,3.68-.3.69-.03,2.96-.16,3.44-.54.21-.16.26-.19.34-.19.21,0,1.34,1.18,1.34,1.39,0,.14-.14.22-.58.46Zm1.7-.83c-.24,0-.29-.06-.78-.74-.14-.21-.59-.8-1.57-1.54,1.12.11,2.74.74,2.74,1.73,0,.22-.13.54-.38.54Zm1.26-1.07c-.14,0-.21-.06-.72-.69-.14-.18-.83-.9-1.63-1.38.7.02,2.69.29,2.69,1.5,0,.29-.13.56-.34.56Z"/>
      <path class="cls-2" d="m168.44,21.75c-.35,0-.51-.37-.69-.77-.21-.45-.64-1.17-1.17-1.73,1.06.16,2.32,1.02,2.32,1.9,0,.32-.16.59-.46.59Zm6.59-1.62c-.1.11-.75,1.52-.9,1.79-2.31,4.34-5.15,5.09-6.27,5.39l-.03-.16c4.8-2.24,6.18-7.36,6.18-7.59,0-.38-.64-.75-.85-.86.21-.05.42-.11.7-.11.69,0,1.5.85,1.5,1.04,0,.11-.03.16-.34.5Zm-3.84.93c-.34,0-.38-.14-.66-.88-.21-.59-.59-1.17-.96-1.65,1.09.32,2.1,1.22,2.1,1.9,0,.34-.18.62-.48.62Z"/>
      <path class="cls-2" d="m186.48,18.63c-.37.16-.51.3-.86.99-1.54,2.99-3.22,4.99-5.67,6.51-.85.53-1.94,1.09-3.14,1.36l-.03-.11c3.49-1.94,6.72-5.47,8.2-9.2-.66.06-1.74.22-2.4.32-.11.02-.43.06-.51.06-.16,0-.45-.06-.82-.27-1.49,1.97-2.66,2.88-4.24,3.71l-.08-.13c2.62-2.4,4.18-5.28,4.18-5.79,0-.16-.03-.29-.88-.8.38-.13.74-.13.78-.13.64,0,1.81.74,1.81,1.15,0,.14-.06.22-.37.51-.16.14-.58.69-.78.94.72.08,2.72-.14,3.14-.29.14-.05.69-.48.85-.48.18,0,1.33.96,1.33,1.26,0,.11-.05.16-.5.37Z"/>
      <path class="cls-2" d="m198.84,19.14c-.27.21-.27.29-.37.9-.4,2.43-.85,5.07-2.03,6.31-.42.45-.77.58-.94.58-.24,0-.3-.24-.35-.46-.13-.66-.18-.86-1.31-2.03l.05-.08c.82.38,1.63.78,1.87.78.16,0,.27-.06.37-.22,1.1-1.92,1.39-4.87,1.31-6.16-.58.05-.82.1-2.93.38-.7,2.43-1.84,6.21-5.78,7.81l-.05-.1c1.86-1.55,3.57-3.55,4.74-7.57-1.22.18-2.02.29-2.48.53-.43.22-.48.24-.62.24-.34,0-1.25-.72-1.25-1.62,0-.18.05-.27.11-.45.24.4.93.82,1.5.82.18,0,1.12-.08,1.68-.14l1.26-.14c.35-1.41.35-2.06.35-2.21,0-.69-.3-.83-.91-1.1.21-.11.46-.26.88-.26.48,0,1.66.51,1.66.94,0,.13-.1.24-.29.48-.08.1-.13.19-.24.61-.06.22-.32,1.23-.37,1.42.3-.03,2.11-.22,2.22-.27.13-.06.62-.53.75-.53.24,0,1.46.85,1.46,1.17,0,.14-.06.19-.3.38Z"/>
      <path class="cls-2" d="m211.68,18.1c-.29.18-.42.46-.61,1.02-.93,2.67-2.42,5.22-4.8,6.75-1.34.86-2.48,1.15-2.98,1.28l-.03-.13c2.91-1.5,6.11-4.99,7.09-9.57-1.09-.02-5.7.66-6.53.9-.14.05-.86.37-.9.37-.3,0-1.3-.82-1.3-1.87,0-.21.08-.38.14-.51.72.85.85,1.01,1.55,1.01.45,0,6.42-.5,6.9-.7.11-.05.51-.38.61-.38.19,0,1.38,1.04,1.38,1.34,0,.19-.02.19-.53.5Z"/>
      <path class="cls-2" d="m224.38,25.99c-.14,0-.83-.19-.9-.21-1.01-.21-2.05-.24-2.8-.24-.45,0-4.55.03-5.47.75-.06.05-.14.08-.21.08-.34,0-1.17-.8-1.17-1.46,0-.21.03-.35.06-.5.34.48.72.9,1.34.9.38,0,2.88-.27,3.44-.3.03-.53.1-1.63.1-2.5,0-1.18-.06-1.33-.34-1.78-.7.1-1.14.16-1.22.18-.1.02-.46.08-.53.08-.4,0-1.09-.7-1.07-1.23.56.4,1.04.45,1.65.45,1.62,0,3.44-.26,3.6-.29.11-.03.59-.26.69-.26.08,0,1.04.14,1.04.56,0,.29-.34.34-.51.34-1.15,0-1.28,0-2.48.1.16.16.26.26.26.37,0,.06-.11.42-.14.48-.03.06-.24,2.88-.27,3.46.51-.03,2.83-.1,3.3-.13.08,0,.46-.11.53-.11.13,0,1.39.43,1.39.94,0,.1-.05.32-.29.32Z"/>
      <path class="cls-2" d="m226.38,28.31v-.69h3.36v-13.06h-3.36v-.69h4.03v14.44h-4.03Z"/>
      <path class="cls-2" d="m240.27,28.84c-2.5-2-3.79-4.88-3.79-7.75s1.3-5.75,3.79-7.75l.14.22c-2.98,3.15-3.04,6.35-3.04,7.52s.06,4.37,3.04,7.52l-.14.22Z"/>
      <path class="cls-2" d="m248.55,16.83c.13.06.21.16.21.29,0,.14-.18.24-.67.34-.21.26-.66.78-1.34,1.63-.61.74-1.14,1.33-1.57,1.78.08,0,1.42-.06,2.27-.18-.06-.11-.26-.48-.66-.91l.08-.1c1.25.48,2.21,1.2,2.21,1.94,0,.3-.18.66-.61.66-.38,0-.54-.19-.69-.74-.02-.05-.08-.27-.18-.51l-1.46.32c0,.69.05,3.97.05,4.27.02.32.06,1.76.06,2.05,0,.42-.37.69-.77.69-.34,0-.43-.21-.43-.48,0-.26.06-1.31.06-1.54.02-.51.03-2.08.05-4.79-1.01.22-1.81.4-2.02.45-.1.16-.26.46-.4.46-.16,0-.26-.19-.29-.29l-.35-1.36c.27.06.74.11,1.14.11.5,0,1.23-.02,1.49-.03,1.09-1.47,2.07-3.51,2.29-4.15.06-.16.1-.45.1-.64l1.42.72Zm-6.32,10.53c.69-1.55,1.15-3.58,1.12-4.67l1.31.48c.11.05.22.14.22.22,0,.11-.1.19-.51.35-.51,1.49-.98,2.38-2.07,3.67l-.08-.05Zm.61-10.52c.45.11.98.26,1.38.45.45-.9,1.15-2.64,1.06-3.59l1.52.75c.13.06.19.16.19.24,0,.24-.24.29-.61.35-.75.96-.86,1.1-1.95,2.35.46.29.94.72.94,1.26,0,.37-.24.77-.66.77-.37,0-.46-.19-.82-.98-.37-.83-.74-1.18-1.07-1.52l.02-.1Zm3.78,6.1c.66.29,2.26,1.01,2.26,2.1,0,.51-.37.78-.7.78-.43,0-.51-.32-.72-1.06-.22-.83-.53-1.3-.88-1.76l.05-.06Zm7.65-5.17l.48-.45c.08-.08.18-.18.22-.18.06,0,.18.1.22.14l.77.66c.08.06.14.16.14.24,0,.11-.3.34-.59.54-.1,4.43-.13,6.42-.98,8.05-.59,1.14-1.6,1.55-2.48,1.57-.13-.75-.62-1.25-1.46-1.81l.02-.1c.74.14,1.71.32,2.13.32,1.62,0,1.7-5.28,1.7-6.93,0-.27-.02-1.41-.02-1.68h-4.32c-.78,1.49-1.33,2.03-1.57,2.29l-.1-.06c1.18-2.35,1.73-5.06,1.73-5.89,0-.16-.05-.46-.08-.61l1.73.74c.08.03.18.11.18.22,0,.16-.24.27-.62.45-.18.51-.46,1.31-1.06,2.48h3.95Zm-4.37,3.06c1.52.62,2.27,1.14,2.27,2,0,.38-.19.75-.64.75-.42,0-.54-.18-.9-1.28-.13-.42-.43-.96-.8-1.38l.06-.1Z"/>
      <path class="cls-2" d="m259.13,16.75l-.14,4.03c.69-.61,1.3-1.1,2.48-1.1,2.31,0,3.41,1.9,3.41,3.66,0,2.32-1.84,4.13-3.95,4.13-1.82,0-3.03-1.36-3.03-2.35,0-.61.38-.99.93-.99.48,0,.83.32.83.83,0,.16-.02.22-.08.48-.03.13-.05.35-.05.45,0,.69.72,1.04,1.36,1.04,1.3,0,2.51-1.23,2.51-3.38,0-2.03-1.07-3.15-2.24-3.15-.64,0-1.62.35-2.5,1.39l-.24-.13.24-6.18h5.57l-.32,1.26h-4.79Z"/>
      <path class="cls-2" d="m269.38,27.48c-1.1,0-2.03-.77-2.62-1.73-.67-1.1-.98-3.07-.98-4.56,0-3.41,1.46-6,3.6-6,1.65,0,3.6,1.78,3.6,6.15,0,3.92-1.65,6.15-3.6,6.15Zm-1.79-9.62c-.22.8-.37,2.14-.37,3.47,0,3.57.85,5.6,2.16,5.6,1.1,0,1.6-1.47,1.78-2.08.22-.82.38-2.18.38-3.52,0-3.65-.88-5.6-2.16-5.6-1.14,0-1.63,1.57-1.79,2.13Z"/>
      <path class="cls-2" d="m277.38,27.48c-1.1,0-2.03-.77-2.62-1.73-.67-1.1-.98-3.07-.98-4.56,0-3.41,1.46-6,3.6-6,1.65,0,3.6,1.78,3.6,6.15,0,3.92-1.65,6.15-3.6,6.15Zm-1.79-9.62c-.22.8-.37,2.14-.37,3.47,0,3.57.85,5.6,2.16,5.6,1.1,0,1.6-1.47,1.78-2.08.22-.82.38-2.18.38-3.52,0-3.65-.88-5.6-2.16-5.6-1.14,0-1.63,1.57-1.79,2.13Z"/>
      <path class="cls-2" d="m284.18,19.3v1.26c.43-.43,1.26-1.26,2.64-1.26,1.5,0,1.79.98,1.92,1.44.54-.53,1.42-1.44,2.87-1.44s2.05.85,2.05,2.63v3.78c0,.61.32.96.8.96h.3v.51h-3.35v-.51h.29c.56,0,.82-.43.82-.96v-3.68c0-.45-.08-2.03-1.41-2.03-.45,0-1.46.26-2.26,1.39,0,.13.02.26.02.54v3.78c0,.67.37.96.8.96h.46v.51h-3.67v-.51h.46c.43,0,.8-.3.8-.96v-3.68c0-.34-.03-2.03-1.39-2.03-.38,0-1.41.21-2.16,1.26v4.45c0,.67.38.96.8.96h.29v.51h-3.33v-.51h.29c.48,0,.8-.34.8-.96v-4.82c0-.5-.27-.75-.66-.75-.18,0-.34.02-.48.06l-.06-.3,2.35-.59Z"/>
      <path class="cls-2" d="m296.39,28.33l-.32-.32,14.15-14.15.32.32-14.15,14.15Z"/>
      <path class="cls-2" d="m311.53,23.32c1.54-1.52,3.3-4.26,3.75-5.31.13-.32.19-.51.3-.94l1.3,1.01c.06.05.1.13.1.21,0,.22-.26.22-.62.29-.26.37-.58.82-1.15,1.57.19.16.27.21.27.32,0,.1-.06.19-.42.45-.05.69-.05,1.31-.05,1.81,0,.69.05,3.78.05,4.4,0,.83,0,1.28-.7,1.28-.29,0-.56-.1-.56-.45,0-.21.1-1.12.1-1.3.05-.98.03-1.39.06-5.04-1.15,1.17-2.03,1.65-2.35,1.82l-.06-.11Zm.06-4.69c2.24-2.1,3.54-4.19,3.71-4.87l1.2.86s.13.11.13.19c0,.18-.06.19-.67.32-1.39,1.86-2.93,2.88-4.29,3.62l-.08-.13Zm12.76.85l.58-.8c.13-.19.19-.21.24-.21.1,0,.16.06.3.18l.94.8c.1.08.16.14.16.24,0,.16-.13.18-.24.18h-5.7l1.49.48c.1.03.21.08.21.19,0,.21-.38.43-.5.48v1.58h1.65l.58-.69c.13-.14.16-.19.26-.19.08,0,.13.03.3.18l.8.67c.08.06.16.13.16.24,0,.14-.13.18-.24.18h-3.51c0,.22-.02,3.44-.02,3.52.37.05,1.23.18,2.39.18,1.47,0,2.21-.21,2.58-.29l.02.06c-.26.21-.78.64-.93,1.55-.26.02-.53.05-.91.05-5.15,0-6-2.9-6.37-4.21-.4,1.1-1.15,3.03-3.22,4.13l-.05-.06c2.37-2.67,2.61-5.78,2.61-6.45,0-.37-.03-.56-.06-.72l1.63.53c.1.03.18.08.18.22,0,.08-.03.13-.08.18-.06.05-.4.21-.46.24-.16.75-.29,1.14-.43,1.57.7,1.57,1.57,2.37,2.07,2.66,0-4.21,0-4.48-.03-5.14-.02-.19-.11-.98-.13-1.14h-1.68c-.4,0-1.17.02-1.89.14l-.32-.64c1.1.1,2.24.11,2.46.11h1.55c0-.94,0-1.95-.02-2.82h-1.23c-.29,0-1.1,0-1.87.14l-.32-.62c.99.08,1.98.1,2.46.1h.96c-.03-1.54-.05-1.66-.29-2.48l1.66.5c.13.03.22.08.22.19s-.4.46-.48.53v1.26h1.57l.62-.77c.1-.11.14-.19.26-.19s.16.05.29.16l.85.77c.08.08.16.14.16.26,0,.14-.14.16-.24.16h-3.52v2.82h2.53Z"/>
      <path class="cls-2" d="m342.28,19.72h-7.14l.56.13c.34.08.4.08.4.22,0,.13-.05.19-.4.38,0,.45.06,2.46.06,2.86,0,.96,0,1.44-1.68,1.92-.18-.67-.66-1.12-1.36-1.47v-.1c.21,0,1.14.06,1.33.06.58,0,.58-.02.59-.59.02-.75,0-2.58-.02-3.43h-4.35c-.4,0-1.17.02-1.89.14l-.32-.64c1.09.1,2.22.11,2.46.11h.75c0-2.83,0-3.14-.24-4.03l1.57.43c.24.06.3.13.3.27,0,.13-.05.18-.5.48v2.85h2.19c0-3.6,0-4-.03-4.55-.02-.35-.06-.72-.18-1.57l1.47.4c.18.05.3.1.3.27,0,.11,0,.18-.48.45v2.06h2.31l.62-.91c.06-.08.16-.21.26-.21.08,0,.19.1.29.18l1.02.91c.1.1.16.14.16.24,0,.16-.13.18-.24.18h-4.42v2.54h4.4l.75-.96c.1-.13.19-.21.26-.21.08,0,.19.08.29.18l.96.96c.11.11.16.18.16.24,0,.16-.13.18-.24.18Zm-9.09,1.94c-.06.03-.26.08-.4.13-1.07,1.79-2.56,3.15-4.34,4.19l-.06-.08c1.71-1.81,2.88-3.94,3.11-4.47.13-.29.21-.58.3-.96l1.25.66c.14.08.27.14.27.34,0,.08-.05.16-.13.19Zm4.9,2.85c-2.56,2.24-5.09,3.7-9,3.83l-.02-.11c2.38-.59,4.82-1.52,7.11-3.63.53-.48,1.09-1.01,1.42-1.58l.98.96c.13.13.19.21.19.3,0,.19-.06.19-.69.24Zm2.78.42c-.46,0-.69-.35-.99-.85-1.01-1.65-1.82-2.4-2.9-3.17l.06-.1c2.87.69,4.47,2.45,4.47,3.43,0,.34-.26.69-.64.69Z"/>
      <path class="cls-2" d="m350.87,15.49v.85c-2.55,3.92-3.44,6.15-3.65,9.72-.03.42-.08,1.42-.9,1.42-.4,0-.82-.34-.82-.88,0-1.14,1.12-4.5,4.5-9.84h-2.74c-2.32,0-2.67,1.07-3.03,2.1l-.48-.11.66-3.25h6.45Z"/>
      <path class="cls-2" d="m357.03,16.13c-1.33,2.72-3.75,4.77-4.96,5.44l-.08-.11c2.24-2.54,3.51-4.79,3.87-5.86.14-.4.21-.72.26-1.02l1.38.93c.08.05.21.14.21.26,0,.19-.42.3-.67.37Zm5.81,5.01c-.16,5.76-.48,6.93-3.36,7.19-.06-1.01-.85-1.54-1.2-1.76l.02-.11c.67.14,1.36.27,1.86.27.77,0,1.07-.18,1.31-1.63.19-1.18.29-3.86.24-4.61h-3.23c-.1,2.51-1.17,6.85-6.21,7.78l-.03-.13c3.25-1.5,4.9-3.92,5.06-7.65h-.46c-.4,0-1.17.02-1.89.16l-.3-.64c.99.08,1.97.1,2.45.1h4.53l.43-.38c.1-.1.19-.18.29-.18.08,0,.16.08.22.14l.64.7c.08.08.14.18.14.26,0,.14-.05.18-.5.5Zm2.91-.02c-1.71-.74-3.62-2.46-4.82-6.08h-1.28c-.8,0-1.12.06-1.34.1l-.21-.56c.72.06,1.42.08,1.74.08h.8l.51-.51c.14-.14.21-.18.29-.18.1,0,.16.08.27.18l.59.58c.1.08.13.14.13.24,0,.32-.74.45-1.02.5.77,2.06,3.43,4.11,5.87,4.29l.02.16c-.9.27-1.26.78-1.55,1.22Z"/>
      <path class="cls-2" d="m368.42,28.84l-.14-.22c2.98-3.15,3.04-6.35,3.04-7.52s-.06-4.37-3.04-7.52l.14-.22c2.5,2,3.79,4.88,3.79,7.75s-1.3,5.75-3.79,7.75Z"/>
    </g>
    <rect class="cls-3" width="7" height="76.58"/>
    <g>
      <rect class="cls-1" x="16.91" y="44.72" width="84.39" height="23.44" rx="5" ry="5"/>
      <g>
        <path class="cls-2" d="m42.28,53.72h-.29c-.14.1-.21.16-.84.69-.08.06-.67.48-.79.58l-.06-.06c.35-.9.49-1.47.59-1.94h-9.48c-.02,1.41-.64,2.74-1.44,2.74-.44,0-.62-.38-.62-.67,0-.4.26-.67.79-1.22.33-.35.93-1.22,1.02-2.1h.08c.08.26.15.5.18.86h6.41c.32-.5,1.23-2.43,1.12-3.63l1.47.82c.15.08.23.16.23.26,0,.14-.15.19-.7.29-.87,1.15-.97,1.28-1.81,2.27h2.61l.46-.37c.14-.11.24-.19.33-.19s.17.08.33.21l.9.75c.12.1.18.22.18.34,0,.32-.36.38-.68.38Zm-1.95,6.42c.02.21.02.35.03,1.63,0,.14.06.91.06,1.09,0,.64-.56.7-.7.7-.46,0-.43-.38-.4-.67h-6.28c0,.24.02.77-.65.77-.38,0-.46-.21-.44-.53.03-.64.09-1.97.09-2.59,0-.91-.08-1.41-.14-1.84l1.29.74h1.91c.23-.56.4-1.38.43-1.89h-1.63c0,.26.02.74-.61.74-.46,0-.46-.35-.46-.5,0-.4.09-2.16.09-2.53,0-.58-.02-.85-.12-1.3l1.31.62h3.98l.38-.43c.11-.11.17-.16.23-.16s.15.05.26.13l.56.45c.11.1.17.16.17.24,0,.13-.09.21-.46.5-.02.32.08,1.78.08,2.08,0,.43-.27.66-.65.66-.26,0-.44-.14-.43-.5h-1.38c-.29.51-.93,1.46-1.31,1.89h3.65l.33-.45c.08-.11.15-.18.23-.18s.17.06.27.14l.58.45c.09.08.17.18.17.26,0,.11-.09.22-.46.48Zm-6.82-7.99c-.41,0-.52-.35-.62-.75-.2-.8-.41-1.25-.85-1.89l.06-.08c.79.42,2.01,1.06,2.01,2.06,0,.42-.29.66-.59.66Zm5.84,7.67h-6.29v2.69h6.29v-2.69Zm-1.08-4.85h-4.36v2.19h4.36v-2.19Zm-1.9-3.03c-.53,0-.64-.51-.75-1.06-.12-.61-.27-1.01-.71-1.71l.06-.08c1.26.59,1.98,1.41,1.98,2.14,0,.11-.03.7-.58.7Z"/>
        <path class="cls-2" d="m58.1,52.6h-4.74l.79.5c.06.05.15.14.15.22,0,.19-.29.22-.56.24-.43.48-1.05,1.04-1.34,1.3h2.6l.59-.7c.08-.1.17-.19.24-.19s.21.1.27.16l.7.7c.08.08.14.14.14.24,0,.16-.12.18-.23.18h-4.85c0,.19.02,1.07.02,1.25h2.14l.53-.58c.09-.1.18-.19.26-.19s.15.08.29.18l.74.54c.08.06.17.14.17.26,0,.14-.12.18-.23.18h-3.91v1.39h3.91l.68-.82c.11-.13.15-.19.24-.19.11,0,.2.1.27.16l.84.82c.08.08.15.14.15.26,0,.14-.14.16-.24.16h-5.55c1.05,1.31,3.34,2.9,5.93,3.09l.02.1c-.49.24-1.02.51-1.4,1.3-1.96-.77-3.86-2.59-4.8-4.48h-.05c.02,1.46.03,1.74.03,2.05.02.37.09,1.95.09,2.29,0,.48-.46.66-.77.66-.41,0-.44-.26-.44-.5,0-.35.05-.94.06-1.31.02-.53.02-.77.05-2.99-1.09,1.54-3.13,3.52-6.03,4.32l-.03-.1c2.05-1.15,3.45-2.45,4.86-4.42h-2.69c-.15,0-1.09,0-1.79.14l-.3-.64c1.02.1,2.05.11,2.34.11h3.65v-1.39h-2.66c-.4,0-1.11.02-1.79.14l-.3-.64c1.05.1,2.14.11,2.34.11h2.42v-1.25h-3.19c-.14,0-1.08,0-1.78.14l-.3-.64c1.02.1,2.08.11,2.34.11h4.13c.2-.37.67-1.5.76-2.26h-4.32c.88.3,1.69.78,1.69,1.55,0,.46-.36.64-.61.64-.35,0-.4-.1-.76-1.06-.08-.21-.27-.72-.62-1.14h-1.58c-.38,0-1.11,0-1.79.14l-.29-.64c1.03.1,2.11.11,2.33.11h2.86c-.05-2.3-.05-2.48-.26-3.3l1.47.45c.14.05.21.1.21.24,0,.18-.17.27-.46.38v2.22h1.12c0-2.03,0-2.5-.32-3.3l1.55.43c.09.03.26.08.26.24,0,.24-.36.37-.5.42v2.21h.65c.35-.7.73-1.89.79-2.24.06-.27.08-.51.08-.77l1.35.72c.09.05.18.11.18.22,0,.24-.36.29-.53.3-.47.53-1.28,1.44-1.58,1.76h2.39l.65-.72c.12-.13.18-.21.24-.21.09,0,.2.08.3.18l.79.7c.09.08.17.14.17.26,0,.14-.14.18-.23.18Zm-9.88-.74c-.36,0-.47-.26-.76-.98-.05-.11-.29-.72-.88-1.26l.06-.11c.61.16,2.13.59,2.13,1.71,0,.21-.11.64-.55.64Z"/>
        <path class="cls-2" d="m64.28,51.48c-.02.58-.03.94-.03,1.71,0,1.68.09,5.31.12,6,0,.21.05.58.05.78,0,.61-.65.64-.73.64-.41,0-.41-.11-.38-1.17h-1.9c0,.11.05,1.42.05,1.46,0,.58-.59.69-.76.69-.38,0-.38-.3-.38-.5,0-.18.05-.96.05-1.12.05-1.22.06-5.71.06-6.08,0-2.38-.05-2.83-.18-3.95l1.32.67h1.55l.44-.42c.17-.14.2-.21.27-.21s.15.05.24.14l.61.58c.06.06.12.16.12.26,0,.14-.3.35-.52.51Zm-.96-.48h-1.91v3.76h1.91v-3.76Zm0,4.15h-1.91v3.92h1.91v-3.92Zm9.94-.3h-6.69c-.27,0-1.05,0-1.79.14l-.29-.64c.94.08,1.87.11,2.33.11h1.28v-2.45h-.67c-.15,0-1.08,0-1.79.14l-.29-.64c1,.1,2.07.11,2.33.11h.43c0-1.62-.05-1.92-.26-2.61l1.57.48c.17.05.27.13.27.26s-.05.16-.49.48c-.02.38-.02.48-.03,1.39h1.49l.56-.69c.11-.14.17-.19.24-.19.09,0,.17.05.27.16l.75.69c.08.06.15.13.15.24,0,.14-.14.18-.23.18h-3.25v2.45h2.31l.58-.74c.12-.16.17-.21.23-.21.09,0,.14.06.29.19l.81.72c.12.11.14.19.14.24,0,.16-.14.18-.23.18Zm-.03,2.93h-2.52c0,.32.05,3.33.05,3.84,0,.61,0,1.6-1.96,1.98-.14-.53-.3-.98-1.4-1.6l.03-.11c.3.03,1.25.11,1.49.11.68,0,.78-.14.79-.46.02-.29.02-3.51,0-3.76h-2.95c-.38,0-1.11.02-1.79.14l-.29-.64c1.03.1,2.11.11,2.33.11h2.71c-.02-.62-.05-1.74-.2-2.21l1.37.35c.2.05.29.08.29.21,0,.11-.05.14-.44.46-.02.3-.02.4-.02,1.18h.71l.62-.75c.12-.14.18-.19.26-.19s.14.03.26.16l.74.75c.11.1.15.14.15.24,0,.14-.12.18-.23.18Zm-5.81,3.22c-.46,0-.55-.45-.62-.88-.17-1.01-.47-1.47-.71-1.78l.06-.1c1.49.62,1.91,1.55,1.91,2.05,0,.43-.32.7-.64.7Z"/>
        <path class="cls-2" d="m80.89,50.95v1.82c0,.26.06,1.49.06,1.66,0,.38-.36.62-.74.62-.41,0-.36-.38-.33-.58h-2.6v4.02c0,.58.06,3.36.06,3.99,0,.42-.15.9-.77.9-.33,0-.44-.21-.44-.42,0-.1.05-.51.05-.61.12-1.81.12-2.8.12-9.81,0-2.29,0-2.34-.17-3.2l1.41.7h2.19l.4-.38c.09-.08.15-.16.21-.16s.14.06.18.1l.79.61c.06.05.11.11.11.21,0,.11-.09.21-.52.53Zm-1-.51h-2.61v1.6h2.61v-1.6Zm0,1.98h-2.61v1.68h2.61v-1.68Zm4.21,4.48c0,.75,0,1.97.05,2.93,0,.14.06.8.06.93,0,.69-.56.74-.76.74s-.4-.05-.32-.8h-2.96c.03.38.09,1.04-.71,1.04-.33,0-.35-.27-.35-.45,0-.1.03-.51.05-.69.06-.91.06-2.62.06-2.77,0-.86,0-1.44-.11-2.26l1.11.58h2.89l.26-.35c.08-.11.17-.21.29-.21.08,0,.17.06.24.13l.55.5c.08.06.14.13.14.21,0,.11-.14.26-.47.48Zm-.97-.37h-2.96v1.68h2.96v-1.68Zm0,2.06h-2.96v1.71h2.96v-1.71Zm4.33-7.6c0,1.55.03,8.42.03,9.81s0,1.82-.61,2.27c-.09.06-.52.38-1.15.53-.12-.56-.26-1.17-1.64-1.73l.03-.11c.26.02,1.64.1,1.79.1.14,0,.43,0,.52-.19.06-.14.06-1.46.06-1.74,0-.86-.02-4.67-.02-5.44h-2.87c.02.45-.3.66-.71.66-.21,0-.35-.13-.35-.38,0-.7.05-3.75.05-4.35,0-.27-.03-.56-.08-1.02l1.26.67h2.57l.37-.43c.06-.06.18-.18.27-.18s.18.05.24.11l.73.66c.08.08.12.14.12.22,0,.13-.12.24-.61.56Zm-.99-.56h-2.89v1.6h2.89v-1.6Zm0,1.98h-2.89v1.68h2.89v-1.68Z"/>
      </g>
    </g>
    <g>
      <path class="cls-2" d="m115.71,64.34h.88c.83,0,1.12-.32,1.12-.98v-8.66c0-.5-.46-.58-.77-.58h-1.22v-.5h.29c1.23,0,2.42-.56,2.61-.67.11-.06.16-.1.22-.1.14,0,.18.1.18.22v10.28c0,.69.34.98,1.12.98h.88v.51h-5.31v-.51Z"/>
      <path class="cls-2" d="m123.71,64.34h.88c.83,0,1.12-.32,1.12-.98v-8.66c0-.5-.46-.58-.77-.58h-1.22v-.5h.29c1.23,0,2.42-.56,2.61-.67.11-.06.16-.1.22-.1.14,0,.18.1.18.22v10.28c0,.69.34.98,1.12.98h.88v.51h-5.31v-.51Z"/>
      <path class="cls-2" d="m135.89,53.99c-.02.58-.03.94-.03,1.71,0,1.68.1,5.31.13,6,0,.21.05.58.05.78,0,.61-.69.64-.77.64-.43,0-.43-.11-.4-1.17h-2c0,.11.05,1.42.05,1.46,0,.58-.62.69-.8.69-.4,0-.4-.3-.4-.5,0-.18.05-.96.05-1.12.05-1.22.06-5.71.06-6.08,0-2.39-.05-2.83-.19-3.95l1.39.67h1.63l.46-.42c.18-.14.21-.21.29-.21s.16.05.26.14l.64.58c.06.06.13.16.13.26,0,.14-.32.35-.54.51Zm-1.01-.48h-2.02v3.76h2.02v-3.76Zm0,4.15h-2.02v3.92h2.02v-3.92Zm10.47-.3h-7.04c-.29,0-1.1,0-1.89.14l-.3-.64c.99.08,1.97.11,2.45.11h1.34v-2.45h-.7c-.16,0-1.14,0-1.89.14l-.3-.64c1.06.1,2.18.11,2.45.11h.45c0-1.62-.05-1.92-.27-2.61l1.65.48c.18.05.29.13.29.26s-.05.16-.51.48c-.02.38-.02.48-.03,1.39h1.57l.59-.69c.11-.14.18-.19.26-.19.1,0,.18.05.29.16l.78.69c.08.06.16.13.16.24,0,.14-.14.18-.24.18h-3.43v2.45h2.43l.61-.74c.13-.16.18-.21.24-.21.1,0,.14.06.3.19l.85.72c.13.11.14.19.14.24,0,.16-.14.18-.24.18Zm-.03,2.93h-2.66c0,.32.05,3.33.05,3.84,0,.61,0,1.6-2.06,1.98-.14-.53-.32-.98-1.47-1.6l.03-.11c.32.03,1.31.11,1.57.11.72,0,.82-.14.83-.46.02-.29.02-3.51,0-3.76h-3.1c-.4,0-1.17.02-1.89.14l-.3-.64c1.09.1,2.22.11,2.45.11h2.85c-.02-.62-.05-1.74-.21-2.21l1.44.35c.21.05.3.08.3.21,0,.11-.05.14-.46.46-.02.3-.02.4-.02,1.18h.75l.66-.75c.13-.14.19-.19.27-.19s.14.03.27.16l.78.75c.11.1.16.14.16.24,0,.14-.13.18-.24.18Zm-6.11,3.22c-.48,0-.58-.45-.66-.88-.18-1.01-.5-1.47-.75-1.78l.06-.1c1.57.62,2.02,1.55,2.02,2.05,0,.43-.34.7-.67.7Z"/>
      <path class="cls-2" d="m156.55,60.1c-.99,0-1.82-.37-2.62-.74-2.32-1.06-2.37-1.09-3.07-1.09-1.01,0-2.5.53-3.49,1.28l-.21-.24c1.87-1.87,3.92-1.87,4.16-1.87.64,0,1.28.11,2.88.86,1.78.83,2.06.98,2.8.98.99,0,2.48-.54,3.49-1.3l.21.24c-1.87,1.87-3.91,1.87-4.15,1.87Z"/>
      <path class="cls-2" d="m162.82,64.34h.88c.83,0,1.12-.32,1.12-.98v-8.66c0-.5-.46-.58-.77-.58h-1.22v-.5h.29c1.23,0,2.42-.56,2.61-.67.11-.06.16-.1.22-.1.14,0,.18.1.18.22v10.28c0,.69.34.98,1.12.98h.88v.51h-5.31v-.51Z"/>
      <path class="cls-2" d="m174.18,60.21c-.34.21-.83.42-1.39.42-1.58,0-2.87-1.6-2.87-3.55,0-2.21,1.58-4.21,3.43-4.21s3.68,2.08,3.68,5.52c0,3.7-2.08,6.77-4.53,6.77-1.07,0-1.82-.64-1.82-1.39,0-.58.45-.83.82-.83.32,0,.85.21.88,1.1.02.35.05.58.48.58s.86-.21,1.17-.56c1.42-1.57,1.5-3.94,1.57-5.36-.3.5-.64,1.04-1.41,1.52Zm.53-5.94c-.27-.43-.69-.86-1.3-.86-.85,0-2.05.9-2.05,3.52,0,.74.18,2.98,1.82,2.98.61,0,1.63-.45,2.39-2.18-.06-.88-.19-2.42-.86-3.46Z"/>
      <path class="cls-2" d="m183,53.99c-.02.58-.03.94-.03,1.71,0,1.68.1,5.31.13,6,0,.21.05.58.05.78,0,.61-.69.64-.77.64-.43,0-.43-.11-.4-1.17h-2c0,.11.05,1.42.05,1.46,0,.58-.62.69-.8.69-.4,0-.4-.3-.4-.5,0-.18.05-.96.05-1.12.05-1.22.06-5.71.06-6.08,0-2.39-.05-2.83-.19-3.95l1.39.67h1.63l.46-.42c.18-.14.21-.21.29-.21s.16.05.26.14l.64.58c.06.06.13.16.13.26,0,.14-.32.35-.54.51Zm-1.01-.48h-2.02v3.76h2.02v-3.76Zm0,4.15h-2.02v3.92h2.02v-3.92Zm10.47-.3h-7.04c-.29,0-1.1,0-1.89.14l-.3-.64c.99.08,1.97.11,2.45.11h1.34v-2.45h-.7c-.16,0-1.14,0-1.89.14l-.3-.64c1.06.1,2.18.11,2.45.11h.45c0-1.62-.05-1.92-.27-2.61l1.65.48c.18.05.29.13.29.26s-.05.16-.51.48c-.02.38-.02.48-.03,1.39h1.57l.59-.69c.11-.14.18-.19.26-.19.1,0,.18.05.29.16l.78.69c.08.06.16.13.16.24,0,.14-.14.18-.24.18h-3.43v2.45h2.43l.61-.74c.13-.16.18-.21.24-.21.1,0,.14.06.3.19l.85.72c.13.11.14.19.14.24,0,.16-.14.18-.24.18Zm-.03,2.93h-2.66c0,.32.05,3.33.05,3.84,0,.61,0,1.6-2.06,1.98-.14-.53-.32-.98-1.47-1.6l.03-.11c.32.03,1.31.11,1.57.11.72,0,.82-.14.83-.46.02-.29.02-3.51,0-3.76h-3.1c-.4,0-1.17.02-1.89.14l-.3-.64c1.09.1,2.22.11,2.45.11h2.85c-.02-.62-.05-1.74-.21-2.21l1.44.35c.21.05.3.08.3.21,0,.11-.05.14-.46.46-.02.3-.02.4-.02,1.18h.75l.66-.75c.13-.14.19-.19.27-.19s.14.03.27.16l.78.75c.11.1.16.14.16.24,0,.14-.13.18-.24.18Zm-6.11,3.22c-.48,0-.58-.45-.66-.88-.18-1.01-.5-1.47-.75-1.78l.06-.1c1.57.62,2.02,1.55,2.02,2.05,0,.43-.34.7-.67.7Z"/>
      <path class="cls-2" d="m194.56,66.01l-.32-.32,14.15-14.15.32.32-14.15,14.15Z"/>
      <path class="cls-2" d="m221.21,57.11l.66-.86c.1-.13.14-.19.24-.19s.11.03.3.18l1.07.85c.08.06.16.14.16.26,0,.14-.14.16-.26.16h-5.33c0,.53-.02,2.83-.02,3.3,0,.16.02,3.49,0,3.95h4.24l.8-.86c.11-.13.16-.19.24-.19.1,0,.14.05.3.18l1.06.85c.08.06.16.14.16.24,0,.14-.14.18-.24.18h-12.04c-.16,0-1.15,0-1.89.14l-.32-.64c1.07.1,2.16.11,2.46.11h4.08c-.02-.14-.02-3.54-.02-3.91v-3.35h-3.38c-.21,0-1.1,0-1.89.14l-.32-.62c1.07.08,2.16.1,2.46.1h3.12c-.03-3.63-.03-4.05-.4-5.22l1.94.51c.16.05.26.08.26.22,0,.13-.08.19-.14.24-.06.06-.37.3-.46.37,0,1.3-.02,2.58-.02,3.87h3.15Z"/>
      <path class="cls-2" d="m229.41,52.95l.32-.34c.05-.06.14-.13.24-.13s.22.1.3.18l.56.56c.06.06.11.16.11.24,0,.1-.11.22-.42.48-.03,1.14-.03,2.29-.02,4,.02.7.06,3.78.06,4.42,0,.38-.03.56-.21.7-.18.14-.42.22-.56.22-.38,0-.37-.27-.32-.91h-1.6c.02.7.02.78-.02.93-.1.32-.45.5-.72.5-.4,0-.43-.3-.43-.46,0-.13.05-.69.05-.8.03-1.74.05-3.19.05-6.63,0-2.37,0-2.64-.13-3.54l1.23.58h1.49Zm-1.52.38v4.03h1.6v-4.03h-1.6Zm0,4.42v4.24h1.6v-4.24h-1.6Zm8.76,3.52v1.49h1.57l.3-.5c.06-.11.14-.24.26-.24.08,0,.13.03.29.18l.64.53c.06.05.16.13.16.24,0,.16-.16.18-.24.18h-2.98v1.57h2.29l.37-.64c.1-.18.19-.24.27-.24s.18.08.29.18l.77.67c.06.05.16.14.16.26,0,.16-.16.16-.24.16h-6.95c0,.45.02.5-.05.59-.13.3-.56.4-.74.4-.37,0-.37-.26-.37-.35,0-.21.05-1.23.06-1.47.02-.54.06-2.56.05-4.08-.82,1.06-1.54,1.55-1.92,1.81l-.05-.08c.94-1.22,2.21-3.46,2.42-4.75l1.09.53c.13.06.16.16.16.21,0,.18-.1.21-.43.34-.19.35-.29.5-.45.77l.37.16h1.87c.21-.46.45-1.25.58-2.03l1.18.56c.08.03.18.11.18.21,0,.13-.05.14-.53.3-.38.38-.61.56-1.1.96h2.59l.42-.56c.11-.14.18-.21.26-.21s.14.03.3.16l.72.58c.06.05.16.14.16.24,0,.18-.16.18-.24.18h-3.49v1.34h1.54l.3-.53c.05-.08.13-.22.26-.22.08,0,.21.1.3.18l.69.54c.06.05.16.14.16.24,0,.16-.16.18-.24.18h-3.01Zm-3.04-4.5c-.4,0-1.17.02-1.89.14l-.32-.64c1.09.1,2.23.11,2.46.11h.35v-1.74h-.62c-.4,0-1.17,0-1.87.14l-.32-.64c.99.08,1.97.11,2.45.11h.37v-1.7h-.94c-.38,0-1.17,0-1.89.14l-.32-.64c1.1.1,2.24.11,2.46.11h.59l.37-.35c.1-.08.16-.11.21-.11.08,0,.14.06.24.16l.61.54c.08.06.13.16.13.22,0,.13-.19.29-.43.48v.99c0,.43.08,2.29.08,2.67,0,.22-.03.34-.19.46-.14.13-.38.21-.56.21-.4,0-.38-.3-.37-.69h-.59Zm0,2.77v1.34h2.05v-1.34h-2.05Zm0,1.73v1.49h2.05v-1.49h-2.05Zm0,1.87v1.57h2.05v-1.57h-2.05Zm4.71-6.39c-.16,0-1.15,0-1.89.14l-.32-.64c1.04.1,2.16.11,2.56.11v-1.76c-.43,0-1.36,0-2.1.14l-.32-.62c.86.06,1.25.08,2.42.1v-1.71h-.5c-.4,0-1.17.02-1.87.14l-.32-.64c.96.1,1.95.11,2.66.11l.34-.35c.06-.06.14-.14.21-.14s.11.02.29.18l.58.5c.06.06.14.13.14.22,0,.11-.11.19-.48.45-.02.35-.02.83.02,1.9,0,.3.08,1.66.08,1.95,0,.53-.56.64-.74.64-.42,0-.42-.32-.4-.72h-.35Z"/>
      <path class="cls-2" d="m242.82,64.34h.88c.83,0,1.12-.32,1.12-.98v-8.66c0-.5-.46-.58-.77-.58h-1.22v-.5h.29c1.23,0,2.42-.56,2.61-.67.11-.06.16-.1.22-.1.14,0,.18.1.18.22v10.28c0,.69.34.98,1.12.98h.88v.51h-5.31v-.51Z"/>
      <path class="cls-2" d="m255.84,59.41c.74.62,1.09,1.42,1.09,2.37,0,1.97-1.62,3.38-3.73,3.38-1.73,0-3.18-.98-3.18-2.26,0-.7.46-1.02.91-1.02.54,0,.78.46.78.8,0,.24-.05.38-.1.51-.03.1-.05.21-.05.37,0,.61.69,1.06,1.44,1.06,1.23,0,2.48-1.22,2.48-2.83s-1.22-2.93-2.5-2.93c-.1,0-.54.06-.64.06-.24,0-.35-.14-.35-.34,0-.21.16-.37.37-.37.1,0,.58.1.69.1,1.34,0,2.19-1.2,2.19-2.5s-.75-2.4-2.02-2.4c-.85,0-1.3.61-1.3,1.07,0,.08.03.16.05.24.03.11.05.27.05.38,0,.5-.37.88-.82.88-.53,0-.8-.46-.8-.88,0-.88,1.02-2.24,3.07-2.24s3.2,1.28,3.2,2.69c0,.56-.21,1.1-.59,1.63-.66.86-1.38,1.14-2.03,1.36.74.22,1.22.38,1.78.86Z"/>
      <path class="cls-2" d="m263,53.99c-.02.58-.03.94-.03,1.71,0,1.68.1,5.31.13,6,0,.21.05.58.05.78,0,.61-.69.64-.77.64-.43,0-.43-.11-.4-1.17h-2c0,.11.05,1.42.05,1.46,0,.58-.62.69-.8.69-.4,0-.4-.3-.4-.5,0-.18.05-.96.05-1.12.05-1.22.06-5.71.06-6.08,0-2.39-.05-2.83-.19-3.95l1.39.67h1.63l.46-.42c.18-.14.21-.21.29-.21s.16.05.26.14l.64.58c.06.06.13.16.13.26,0,.14-.32.35-.54.51Zm-1.01-.48h-2.02v3.76h2.02v-3.76Zm0,4.15h-2.02v3.92h2.02v-3.92Zm10.47-.3h-7.04c-.29,0-1.1,0-1.89.14l-.3-.64c.99.08,1.97.11,2.45.11h1.34v-2.45h-.7c-.16,0-1.14,0-1.89.14l-.3-.64c1.06.1,2.18.11,2.45.11h.45c0-1.62-.05-1.92-.27-2.61l1.65.48c.18.05.29.13.29.26s-.05.16-.51.48c-.02.38-.02.48-.03,1.39h1.57l.59-.69c.11-.14.18-.19.26-.19.1,0,.18.05.29.16l.78.69c.08.06.16.13.16.24,0,.14-.14.18-.24.18h-3.43v2.45h2.43l.61-.74c.13-.16.18-.21.24-.21.1,0,.14.06.3.19l.85.72c.13.11.14.19.14.24,0,.16-.14.18-.24.18Zm-.03,2.93h-2.66c0,.32.05,3.33.05,3.84,0,.61,0,1.6-2.06,1.98-.14-.53-.32-.98-1.47-1.6l.03-.11c.32.03,1.31.11,1.57.11.72,0,.82-.14.83-.46.02-.29.02-3.51,0-3.76h-3.1c-.4,0-1.17.02-1.89.14l-.3-.64c1.09.1,2.22.11,2.45.11h2.85c-.02-.62-.05-1.74-.21-2.21l1.44.35c.21.05.3.08.3.21,0,.11-.05.14-.46.46-.02.3-.02.4-.02,1.18h.75l.66-.75c.13-.14.19-.19.27-.19s.14.03.27.16l.78.75c.11.1.16.14.16.24,0,.14-.13.18-.24.18Zm-6.11,3.22c-.48,0-.58-.45-.66-.88-.18-1.01-.5-1.47-.75-1.78l.06-.1c1.57.62,2.02,1.55,2.02,2.05,0,.43-.34.7-.67.7Z"/>
      <path class="cls-2" d="m283.65,60.1c-.99,0-1.82-.37-2.62-.74-2.32-1.06-2.37-1.09-3.07-1.09-1.01,0-2.5.53-3.49,1.28l-.21-.24c1.87-1.87,3.92-1.87,4.16-1.87.64,0,1.28.11,2.88.86,1.78.83,2.06.98,2.8.98.99,0,2.48-.54,3.49-1.3l.21.24c-1.87,1.87-3.91,1.87-4.15,1.87Z"/>
      <path class="cls-2" d="m295.28,64.86h-6.29v-.43c.32-1.01,1.07-2.13,2.35-3.59,2.35-2.72,3.15-3.63,3.15-5.23,0-1.2-.77-2.19-2.13-2.19-1.12,0-1.79.67-1.79,1.25,0,.05,0,.26.16.5.21.32.34.5.34.8,0,.48-.38.9-.86.9-.56,0-.91-.53-.91-1.12,0-1.17,1.14-2.87,3.44-2.87,1.98,0,3.2,1.25,3.2,2.98,0,1.62-.93,2.5-2.37,3.73-.54.45-2.66,2.26-3.46,4.02h2.21c2.24,0,2.77-.86,3.25-2.19l.48.18-.77,3.28Z"/>
      <path class="cls-2" d="m300.58,65.16c-1.1,0-2.03-.77-2.62-1.73-.67-1.1-.98-3.07-.98-4.56,0-3.41,1.46-6,3.6-6,1.65,0,3.6,1.78,3.6,6.15,0,3.92-1.65,6.15-3.6,6.15Zm-1.79-9.62c-.22.8-.37,2.15-.37,3.47,0,3.57.85,5.6,2.16,5.6,1.1,0,1.6-1.47,1.78-2.08.22-.82.38-2.18.38-3.52,0-3.65-.88-5.6-2.16-5.6-1.14,0-1.63,1.57-1.79,2.13Z"/>
      <path class="cls-2" d="m310.1,53.99c-.02.58-.03.94-.03,1.71,0,1.68.1,5.31.13,6,0,.21.05.58.05.78,0,.61-.69.64-.77.64-.43,0-.43-.11-.4-1.17h-2c0,.11.05,1.42.05,1.46,0,.58-.62.69-.8.69-.4,0-.4-.3-.4-.5,0-.18.05-.96.05-1.12.05-1.22.06-5.71.06-6.08,0-2.39-.05-2.83-.19-3.95l1.39.67h1.63l.46-.42c.18-.14.21-.21.29-.21s.16.05.26.14l.64.58c.06.06.13.16.13.26,0,.14-.32.35-.54.51Zm-1.01-.48h-2.02v3.76h2.02v-3.76Zm0,4.15h-2.02v3.92h2.02v-3.92Zm10.47-.3h-7.04c-.29,0-1.1,0-1.89.14l-.3-.64c.99.08,1.97.11,2.45.11h1.34v-2.45h-.7c-.16,0-1.14,0-1.89.14l-.3-.64c1.06.1,2.18.11,2.45.11h.45c0-1.62-.05-1.92-.27-2.61l1.65.48c.18.05.29.13.29.26s-.05.16-.51.48c-.02.38-.02.48-.03,1.39h1.57l.59-.69c.11-.14.18-.19.26-.19.1,0,.18.05.29.16l.78.69c.08.06.16.13.16.24,0,.14-.14.18-.24.18h-3.43v2.45h2.43l.61-.74c.13-.16.18-.21.24-.21.1,0,.14.06.3.19l.85.72c.13.11.14.19.14.24,0,.16-.14.18-.24.18Zm-.03,2.93h-2.66c0,.32.05,3.33.05,3.84,0,.61,0,1.6-2.06,1.98-.14-.53-.32-.98-1.47-1.6l.03-.11c.32.03,1.31.11,1.57.11.72,0,.82-.14.83-.46.02-.29.02-3.51,0-3.76h-3.11c-.4,0-1.17.02-1.89.14l-.3-.64c1.09.1,2.22.11,2.45.11h2.85c-.02-.62-.05-1.74-.21-2.21l1.44.35c.21.05.3.08.3.21,0,.11-.05.14-.46.46-.02.3-.02.4-.02,1.18h.75l.66-.75c.13-.14.19-.19.27-.19s.14.03.27.16l.78.75c.11.1.16.14.16.24,0,.14-.13.18-.24.18Zm-6.11,3.22c-.48,0-.58-.45-.66-.88-.18-1.01-.5-1.47-.75-1.78l.06-.1c1.57.62,2.02,1.55,2.02,2.05,0,.43-.34.7-.67.7Z"/>
      <path class="cls-2" d="m321.67,66.01l-.32-.32,14.15-14.15.32.32-14.15,14.15Z"/>
      <path class="cls-2" d="m350.57,65.54c-4.98-2.37-5.51-6.88-5.95-10.77-.19,3.01-.38,5.95-2.82,8.45-.93.96-2.34,1.97-4.56,2.47l-.02-.1c1.63-.8,3.04-1.84,4.05-3.25,1.95-2.77,2.34-6.51,2.34-8.16,0-.26,0-1.5-.3-2.66l1.76.45c.08.02.26.06.26.26,0,.21-.24.32-.53.45.03,1.28.27,3.28.93,5.31,1.49,4.53,4.66,5.68,6.47,6.1v.14c-.62.13-1.17.59-1.62,1.31Zm-11.65-6.1c-.35,0-.67-.26-.67-.61,0-.3.11-.45.67-1.23.51-.7,1.17-2.11,1.07-3.01h.14c.21.7.35,1.44.35,2.18,0,1.38-.62,2.67-1.57,2.67Zm11.3-3.79c-1.94,2.02-2.85,2.58-3.68,3.02l-.08-.11c.96-.94,2.56-3.27,2.8-4.55l1.54,1.14c.08.05.14.13.14.22,0,.22-.08.22-.72.27Z"/>
      <path class="cls-2" d="m356.52,52.95l.32-.34c.05-.06.14-.13.24-.13s.22.1.3.18l.56.56c.06.06.11.16.11.24,0,.1-.11.22-.42.48-.03,1.14-.03,2.29-.02,4,.02.7.06,3.78.06,4.42,0,.38-.03.56-.21.7-.18.14-.42.22-.56.22-.38,0-.37-.27-.32-.91h-1.6c.02.7.02.78-.02.93-.1.32-.45.5-.72.5-.4,0-.43-.3-.43-.46,0-.13.05-.69.05-.8.03-1.74.05-3.19.05-6.63,0-2.37,0-2.64-.13-3.54l1.23.58h1.49Zm-1.52.38v4.03h1.6v-4.03h-1.6Zm0,4.42v4.24h1.6v-4.24h-1.6Zm8.76,3.52v1.49h1.57l.3-.5c.06-.11.14-.24.26-.24.08,0,.13.03.29.18l.64.53c.06.05.16.13.16.24,0,.16-.16.18-.24.18h-2.98v1.57h2.29l.37-.64c.1-.18.19-.24.27-.24s.18.08.29.18l.77.67c.06.05.16.14.16.26,0,.16-.16.16-.24.16h-6.95c0,.45.02.5-.05.59-.13.3-.56.4-.74.4-.37,0-.37-.26-.37-.35,0-.21.05-1.23.06-1.47.02-.54.06-2.56.05-4.08-.82,1.06-1.54,1.55-1.92,1.81l-.05-.08c.94-1.22,2.21-3.46,2.42-4.75l1.09.53c.13.06.16.16.16.21,0,.18-.1.21-.43.34-.19.35-.29.5-.45.77l.37.16h1.87c.21-.46.45-1.25.58-2.03l1.18.56c.08.03.18.11.18.21,0,.13-.05.14-.53.3-.38.38-.61.56-1.1.96h2.59l.42-.56c.11-.14.18-.21.26-.21s.14.03.3.16l.72.58c.06.05.16.14.16.24,0,.18-.16.18-.24.18h-3.49v1.34h1.54l.3-.53c.05-.08.13-.22.26-.22.08,0,.21.1.3.18l.69.54c.06.05.16.14.16.24,0,.16-.16.18-.24.18h-3.01Zm-3.04-4.5c-.4,0-1.17.02-1.89.14l-.32-.64c1.09.1,2.23.11,2.46.11h.35v-1.74h-.62c-.4,0-1.17,0-1.87.14l-.32-.64c.99.08,1.97.11,2.45.11h.37v-1.7h-.94c-.38,0-1.17,0-1.89.14l-.32-.64c1.1.1,2.24.11,2.46.11h.59l.37-.35c.1-.08.16-.11.21-.11.08,0,.14.06.24.16l.61.54c.08.06.13.16.13.22,0,.13-.19.29-.43.48v.99c0,.43.08,2.29.08,2.67,0,.22-.03.34-.19.46-.14.13-.38.21-.56.21-.4,0-.38-.3-.37-.69h-.59Zm0,2.77v1.34h2.05v-1.34h-2.05Zm0,1.73v1.49h2.05v-1.49h-2.05Zm0,1.87v1.57h2.05v-1.57h-2.05Zm4.71-6.39c-.16,0-1.15,0-1.89.14l-.32-.64c1.04.1,2.16.11,2.56.11v-1.76c-.43,0-1.36,0-2.1.14l-.32-.62c.86.06,1.25.08,2.42.1v-1.71h-.5c-.4,0-1.17.02-1.87.14l-.32-.64c.96.1,1.95.11,2.66.11l.34-.35c.06-.06.14-.14.21-.14s.11.02.29.18l.58.5c.06.06.14.13.14.22,0,.11-.11.19-.48.45-.02.35-.02.83.02,1.9,0,.3.08,1.66.08,1.95,0,.53-.56.64-.74.64-.42,0-.42-.32-.4-.72h-.35Z"/>
      <path class="cls-2" d="m384.38,64.2c-.48.32-1.09.83-1.23,1.74-1.09.02-4.08.08-6.05-.46-1.94-.53-3.28-2.06-3.7-3.39-.8,1.78-1.87,3.25-3.91,4.08l-.08-.06c2.27-1.66,3.49-5.35,3.49-6.95,0-.13,0-.21-.02-.35l1.58.64c.08.03.18.11.18.22,0,.18-.05.21-.58.43-.13.56-.27,1.04-.51,1.6.5,1.06,1.25,1.95,2.48,2.53v-6.5h-3.25c-.43,0-1.18.02-1.89.14l-.32-.62c1.31.1,2.27.1,2.46.1h7.27l.64-.85c.1-.11.16-.19.24-.19s.19.1.32.19l1.07.83c.1.06.16.13.16.24,0,.16-.14.16-.24.16h-5.31v2.95h2.39l.64-.78c.11-.14.16-.21.24-.21.1,0,.21.1.3.18l.96.78c.08.06.16.14.16.24,0,.18-.14.18-.24.18h-4.45v3.51c.27.05.75.13,1.7.13,2.18,0,4.67-.42,5.51-.54l-.02.05Zm-1.58-9.28h-.45c-.3.14-1.63.83-1.9.96l-.06-.05c.08-.13.67-1.42.75-1.65h-8.92c-.05,1.52-.96,2.34-1.74,2.34-.42,0-.59-.34-.59-.62,0-.38.24-.58.54-.8,1.34-1.01,1.49-1.78,1.57-2.18h.1c.06.32.1.53.11.88h3.81c0-1.54,0-1.57-.34-2.53l1.81.43c.13.03.26.13.26.22,0,.14-.06.18-.54.5v1.38h3.79l.66-.53c.06-.05.14-.11.22-.11.06,0,.16.05.22.11l1.18,1.14c.08.06.14.18.14.24,0,.27-.43.27-.62.27Z"/>
      <path class="cls-2" d="m389.08,55.46c.11.06.22.16.22.27,0,.1-.06.16-.14.22-.1.06-.21.16-.34.26-.05,1.47-.06,2.56-.06,3.17,0,.93.1,5.6.1,5.83,0,.3-.03.5-.26.66-.19.14-.38.21-.59.21-.34,0-.43-.13-.43-.56,0-.77.19-5.55.21-6.51,0-.34.02-1.54.03-2.32-.46.77-1.49,2.32-2.72,3.44l-.08-.08c1.17-1.71,3.67-6.63,3.65-8.84l1.57.83c.06.03.13.14.13.22,0,.1-.11.18-.18.22-.06.03-.3.14-.45.22-.61,1.54-.93,2.13-1.1,2.48l.45.27Zm2.58.38c-.27,0-1.1,0-1.89.14l-.3-.62c1.07.08,2.26.1,2.45.1h1.73c-.02-.66-.13-3.06-.16-3.22-.05-.3-.14-.58-.22-.8l1.78.48c.13.03.24.13.24.22,0,.16-.13.26-.18.29-.14.1-.26.18-.37.26,0,.27-.03,1.86-.05,2.77h2.71l.72-.85c.13-.14.18-.19.24-.19s.13.03.3.16l1.07.85c.08.06.16.14.16.26,0,.14-.13.16-.24.16h-4.8c.69,2.82,3.04,5.67,5.65,6.71l-.03.11c-.16,0-1.09.08-1.73.91-2.03-2-3.57-4.64-4.07-7.35-.02.96-.02,1.52-.02,2.5,0,.69,0,1.33.03,2.18.14,3.84.16,4.18.16,4.32,0,.66-.45.85-.88.85-.38,0-.5-.22-.5-.54,0-.21.06-1.12.06-1.3.05-1.62.06-2.72.1-6.05-.77,1.68-2.43,4.29-4.53,5.54l-.03-.11c1.86-2.08,3.59-5.47,4.37-7.76h-1.78Z"/>
    </g>
  </g>
</svg>