<?xml version="1.0" encoding="UTF-8"?>
<svg id="_レイヤー_2" data-name="レイヤー 2" xmlns="http://www.w3.org/2000/svg" viewBox="0 0 1310.01 507.3">
  <defs>
    <style>
      .cls-1 {
        fill: none;
        stroke: #acacab;
        stroke-miterlimit: 10;
      }

      .cls-2 {
        fill: #d79b35;
      }

      .cls-2, .cls-3, .cls-4 {
        stroke-width: 0px;
      }

      .cls-3 {
        fill: #fff;
      }

      .cls-4 {
        fill: #040000;
      }
    </style>
  </defs>
  <g id="_レイヤー_2-2" data-name="レイヤー 2">
    <rect class="cls-2" y="78.95" width="26.21" height="26.21" rx="5" ry="5"/>
    <g>
      <path class="cls-4" d="m40.52,99.61c2.57-1.73,5.99-4.82,7.54-7.79-2.31.23-4.1.7-4.59.89-.27.12-.43.17-.58.17-.5,0-1.77-.74-1.77-2.04,0-.21.02-.37.06-.68.74.95,1.01,1.28,2.29,1.28.37,0,3.81-.33,5.02-.43-.02-2.57-.04-2.92-.23-3.4-.18-.43-.54-.56-1.52-.93.23-.17.64-.45,1.19-.45.95,0,2.18.74,2.18,1.11,0,.1-.06.21-.23.6-.27.56-.29,1.54-.31,2.95,1.96-.19,2.18-.21,2.51-.29.16-.04.82-.25.97-.25.35,0,1.85.39,1.85,1.03,0,.31-.19.47-.45.47-.23,0-1.3-.14-1.52-.16-.66-.04-1.21-.06-1.59-.06-.78,0-1.5.04-1.77.06v2.74c0,.72.12,3.93.12,4.59,0,2.31-.78,2.9-1.15,2.9-.31,0-.41-.21-.7-.91-.35-.82-1.61-1.69-2.12-2.02l.08-.16c.47.16,2.12.58,2.27.58.31,0,.31-.14.35-.68.1-1.77.14-3.69.12-5.46-1.01,1.67-3.79,5.03-7.93,6.49l-.08-.16Z"/>
      <path class="cls-4" d="m59.87,89.27c-.17.54-.17,2.28-.17,2.94,0,.35.02,1.94.02,2.28,0,.29,0,1.42-.62,1.42-.52,0-.89-.82-.89-1.59,0-.19.12-1.07.14-1.24.04-.31.06-.99.06-2.08q0-2.51-1.54-2.94c.37-.23.72-.45,1.13-.45.47,0,2.1.45,2.1,1.01,0,.08-.19.6-.21.66Zm6.84-.37c-.04.25-.12,3.64-.14,4.34-.14,3.58-1.01,5.35-2.27,6.75-1.48,1.67-2.95,2.02-3.52,2.14l-.06-.13c4.33-2.78,4.57-7.04,4.57-11.49,0-2.97-.06-3.09-1.79-3.36.25-.23.66-.56,1.32-.56.7,0,2.2.45,2.2.97,0,.21-.29,1.17-.31,1.36Z"/>
      <path class="cls-4" d="m74.6,90.88c-.33,0-.56-.23-1.19-.86-1.36-1.38-2.45-1.89-3.19-2.22,2.33-.16,5.09.68,5.09,2.29,0,.43-.33.78-.72.78Zm1.69,6.67c-.41.31-2.24,1.63-2.57,1.96-.1.1-.52.58-.62.68-.08.08-.23.12-.33.12-.68,0-1.96-1.63-1.96-2.55,0-.35.12-.64.2-.86.45.88,1.01,1.28,1.42,1.28.64,0,3.65-2.24,4.49-2.88,3.13-2.39,4.63-4.06,6.2-5.87l.1.06c-.47,1.42-2.64,4.76-6.92,8.05Z"/>
      <path class="cls-4" d="m96.71,99.84c-.93.37-3.85.39-4.96.39-3.63,0-4.28-.7-4.61-1.09-.54-.64-.68-1.07-.68-5.21,0-.74.04-4.57.02-4.74-.08-.6-.21-1.01-1.54-1.54.27-.21.54-.45.95-.45.8,0,2.39.74,2.39,1.36,0,.14-.27.64-.31.74-.16.35-.35,3.64-.39,4.86,3.34-1.11,6.61-3.64,6.61-4.1,0-.08-.12-.27-.18-.35-.08-.1-.45-.47-.54-.54.17-.04.29-.06.49-.06,1.36,0,2.31,1.5,2.31,1.88,0,.25-.04.27-.91.51-.19.06-.35.14-.56.25-3.4,1.81-5.05,2.45-7.23,2.84-.02.84-.06,3.11.31,3.71.39.6,1.22.76,3.07.76,1.36,0,2.57-.08,3.81-.49.25-.08.6-.18.88-.18.39,0,1.59.16,1.59.82,0,.35-.35.56-.53.62Zm.23-11.16c-1.03,0-1.85-.84-1.85-1.85s.82-1.87,1.85-1.87,1.85.84,1.85,1.87-.84,1.85-1.85,1.85Zm0-2.97c-.62,0-1.09.52-1.09,1.13s.47,1.13,1.11,1.13,1.09-.52,1.09-1.15-.49-1.11-1.11-1.11Z"/>
      <path class="cls-4" d="m101.61,94.83c-.43,0-.62-.45-.84-.93-.25-.54-.78-1.42-1.42-2.1,1.28.2,2.82,1.24,2.82,2.31,0,.39-.19.72-.56.72Zm8.01-1.96c-.12.13-.91,1.85-1.09,2.18-2.8,5.27-6.26,6.18-7.62,6.55l-.04-.19c5.83-2.72,7.5-8.94,7.5-9.21,0-.47-.78-.91-1.03-1.05.25-.06.51-.14.86-.14.84,0,1.83,1.03,1.83,1.26,0,.14-.04.19-.41.6Zm-4.67,1.13c-.41,0-.47-.18-.8-1.07-.25-.72-.72-1.42-1.17-2,1.32.39,2.55,1.48,2.55,2.31,0,.41-.21.76-.58.76Z"/>
      <path class="cls-4" d="m123.52,91.04c-.45.19-.62.37-1.05,1.21-1.87,3.63-3.91,6.07-6.88,7.91-1.03.64-2.35,1.32-3.81,1.65l-.04-.14c4.24-2.35,8.16-6.65,9.95-11.18-.8.08-2.12.27-2.92.39-.14.02-.52.08-.62.08-.19,0-.54-.08-.99-.33-1.81,2.39-3.23,3.5-5.15,4.51l-.1-.16c3.19-2.92,5.07-6.42,5.07-7.04,0-.19-.04-.35-1.07-.97.47-.16.89-.16.95-.16.78,0,2.2.89,2.2,1.4,0,.17-.08.27-.45.62-.19.18-.7.84-.95,1.15.88.1,3.3-.17,3.81-.35.17-.06.84-.58,1.03-.58.21,0,1.61,1.17,1.61,1.54,0,.14-.06.2-.6.45Z"/>
      <path class="cls-4" d="m143.35,87.75h-8.03v3.19c1.92.33,4.88,1.42,4.88,3.3,0,.66-.47.91-.82.91-.51,0-.66-.25-1.36-1.38-.68-1.09-1.85-2.14-2.7-2.6.02,4.41.02,4.9.12,9.37,0,.14.02.78.02.91,0,.76-.51,1.01-1.05,1.01-.66,0-.66-.43-.66-.64,0-.56.14-3.32.16-3.95.04-1.54.04-2.39.04-10.13h-4.72c-.51,0-1.42.02-2.27.17l-.39-.78c.99.08,1.98.14,2.99.14h10.81l1.09-1.05c.14-.12.25-.21.31-.21.12,0,.23.08.37.2l1.34,1.03c.08.06.19.18.19.29,0,.19-.19.21-.31.21Z"/>
      <path class="cls-4" d="m162.62,102.06c-.6.27-1.48.29-3.29.29-1.57,0-2.76-.04-2.76-1.79,0-1.61.45-8.73.5-10.19h-3.15c-.21,1.88-.37,3.09-.76,4.49.47.27,2.37,1.44,2.37,2.57,0,.1,0,.76-.78.76-.33,0-.47-.16-.6-.31-.84-.97-1.05-1.19-1.42-1.58-1.11,3.05-3.09,4.69-4.35,5.48-1.19.76-2.1,1.03-2.66,1.22l-.06-.12c3.85-2.24,5.37-5.33,6.03-7.58-1.46-1.28-2.45-1.71-2.9-1.93v-.12c1.01.15,1.91.41,3.17.97.37-1.57.49-2.99.52-3.87h-3.32c-.35,0-1.34,0-2.29.17l-.37-.76c1.21.1,2.41.12,2.97.12h3.05c.02-.89.1-3.17-.35-4.88l2.39.7c.06.02.19.12.19.27s-.12.25-.6.64c-.04,1.83-.16,2.97-.17,3.27h2.94l.74-.64c.08-.06.21-.19.31-.19.12,0,.23.08.31.14l.95.82c.06.06.16.12.16.21,0,.19-.25.33-.88.68-.19,1.28-.43,6.28-.49,7.93-.02.53-.04,1.01-.04,1.09,0,1.03.29,1.03,2.08,1.03.87,0,1.32,0,1.54-.68.17-.54.53-2.2.66-2.88h.12c.08.45.37,2.41.49,2.8.08.21.12.25.39.51.08.06.17.21.17.43,0,.29-.21.66-.82.91Z"/>
      <path class="cls-4" d="m182.45,94.13h-7.84v6.34c0,.74,0,2.16-2.49,2.41-.06-.58-.19-1.26-2.27-2.22l.02-.14c.86.12,1.52.2,2.12.2.91,0,1.19-.08,1.19-.82v-5.77h-5.37c-.35,0-1.36,0-2.29.17l-.39-.78c1.21.1,2.41.14,2.99.14h5.05v-1.96c0-1.44-.14-1.77-.33-2.29l1.81.51c1.42-2.08,1.69-2.45,1.94-2.97h-6.65c-.35,0-1.34,0-2.29.17l-.37-.78c1.21.1,2.39.14,2.97.14h6.45l.76-.66c.19-.16.23-.2.37-.2.08,0,.16.06.33.2l1.36,1.11c.16.14.19.25.19.33,0,.29-.23.37-1.44.41-2,1.54-2.22,1.71-3.25,2.37.14.04.23.16.23.25,0,.25-.31.43-.66.64v2.74h4.92l1.01-1.11c.17-.17.21-.25.29-.25.1,0,.19.08.37.21l1.34,1.11c.1.08.19.17.19.31,0,.18-.16.19-.29.19Z"/>
      <path class="cls-4" d="m192.85,88.08c0-1.79-.17-2.31-.43-2.94l2.14.41c.16.04.31.1.31.29,0,.14-.06.17-.64.64,0,.08-.02,1.11-.02,1.59h4.98l.84-.93c.1-.12.19-.25.29-.25.16,0,.23.1.37.21l1.13.93c.1.1.19.16.19.31,0,.17-.17.19-.29.19h-13.41c0,.72.02,3.87.02,4.51,0,2.64-.45,7.1-3.32,9.66l-.12-.12c1.75-3.34,2.1-5.7,2.1-10.21,0-2.45-.08-3.97-.39-5.27l1.87.95h4.39Zm5.48,3.97l.82-.93c.14-.16.21-.23.31-.23.16,0,.21.08.37.21l1.07.93c.08.06.17.15.17.29,0,.17-.16.19-.29.19h-5.73c0,.58-.02,3.3,0,3.69h3.17l.58-.7c.12-.14.2-.23.29-.23s.21.1.35.19l.8.58c.17.14.27.21.27.31,0,.14-.08.18-.68.64.02,1.21.02,2.99.08,4.14,0,.13.06.78.06.91,0,.52-.43.89-.89.89-.5,0-.52-.21-.54-.87h-7.1c0,.54-.02,1.07-.95,1.07-.19,0-.53-.04-.53-.49,0-.06.02-.17.04-.29.1-.84.1-2.8.1-4.16,0-.95,0-1.52-.17-2.96l1.69.95h2.14c-.02-.66-.04-3.62-.06-4.22-.1-2.18-.19-2.43-.35-2.82l1.92.43c.17.04.37.1.37.29s-.33.41-.58.56v1.59h3.29Zm-6.88,4.63v4.94h7.06v-4.94h-7.06Z"/>
    </g>
    <g>
      <path class="cls-4" d="m56.59,469.64h-8.03v3.19c1.92.33,4.88,1.42,4.88,3.3,0,.66-.47.91-.82.91-.51,0-.66-.25-1.36-1.38-.68-1.09-1.85-2.14-2.7-2.6.02,4.41.02,4.9.12,9.37,0,.14.02.78.02.91,0,.76-.51,1.01-1.05,1.01-.66,0-.66-.43-.66-.64,0-.56.14-3.32.16-3.95.04-1.54.04-2.39.04-10.13h-4.72c-.51,0-1.42.02-2.27.17l-.39-.78c.99.08,1.98.14,2.99.14h10.81l1.09-1.05c.14-.12.25-.21.31-.21.12,0,.23.08.37.2l1.34,1.03c.08.06.19.18.19.29,0,.19-.19.21-.31.21Z"/>
      <path class="cls-4" d="m75.86,483.95c-.6.27-1.48.29-3.29.29-1.57,0-2.76-.04-2.76-1.79,0-1.61.45-8.73.5-10.19h-3.15c-.21,1.88-.37,3.09-.76,4.49.47.27,2.37,1.44,2.37,2.57,0,.1,0,.76-.78.76-.33,0-.47-.16-.6-.31-.84-.97-1.05-1.19-1.42-1.58-1.11,3.05-3.09,4.69-4.35,5.48-1.19.76-2.1,1.03-2.66,1.22l-.06-.12c3.85-2.24,5.37-5.33,6.03-7.58-1.46-1.28-2.45-1.71-2.9-1.93v-.12c1.01.15,1.91.41,3.17.97.37-1.57.49-2.99.52-3.87h-3.32c-.35,0-1.34,0-2.29.17l-.37-.76c1.21.1,2.41.12,2.97.12h3.05c.02-.89.1-3.17-.35-4.88l2.39.7c.06.02.19.12.19.27s-.12.25-.6.64c-.04,1.83-.16,2.97-.17,3.27h2.94l.74-.64c.08-.06.21-.19.31-.19.12,0,.23.08.31.14l.95.82c.06.06.16.12.16.21,0,.19-.25.33-.88.68-.19,1.28-.43,6.28-.49,7.93-.02.53-.04,1.01-.04,1.09,0,1.03.29,1.03,2.08,1.03.87,0,1.32,0,1.54-.68.17-.54.53-2.2.66-2.88h.12c.08.45.37,2.41.49,2.8.08.21.12.25.39.51.08.06.17.21.17.43,0,.29-.21.66-.82.91Z"/>
      <path class="cls-4" d="m95.69,476.02h-7.84v6.34c0,.74,0,2.16-2.49,2.41-.06-.58-.19-1.26-2.27-2.22l.02-.14c.86.12,1.52.2,2.12.2.91,0,1.19-.08,1.19-.82v-5.77h-5.37c-.35,0-1.36,0-2.29.17l-.39-.78c1.21.1,2.41.14,2.99.14h5.05v-1.96c0-1.44-.14-1.77-.33-2.29l1.81.51c1.42-2.08,1.69-2.45,1.94-2.97h-6.65c-.35,0-1.34,0-2.29.17l-.37-.78c1.21.1,2.39.14,2.97.14h6.45l.76-.66c.19-.16.23-.2.37-.2.08,0,.16.06.33.2l1.36,1.11c.16.14.19.25.19.33,0,.29-.23.37-1.44.41-2,1.54-2.22,1.71-3.25,2.37.14.04.23.16.23.25,0,.25-.31.43-.66.64v2.74h4.92l1.01-1.11c.17-.17.21-.25.29-.25.1,0,.19.08.37.21l1.34,1.11c.1.08.19.17.19.31,0,.18-.16.19-.29.19Z"/>
      <path class="cls-4" d="m115.17,469.72h-5.33l1.09.66c.16.1.19.25.19.31,0,.17-.06.19-.54.31-.33.27-1.79,1.77-2.16,2.08h3.91l.54-.62c.08-.08.16-.14.25-.14s.17.06.27.12l.95.7c.1.08.19.21.19.31,0,.08-.04.14-.1.19-.08.08-.35.27-.51.39.02.56.08,8.22.08,8.54,0,.7-.45,1.75-2.16,1.9-.1-.86-.45-1.52-1.44-1.96v-.16c.27.02,1.54.18,1.83.18.47,0,.47-.08.47-1.69,0-2.02-.08-5.27-.08-7.29h-4.04v.62c0,.25,0,1.67.1,1.81.08.1.16.19.97.19s1.55,0,1.85-1.52l.14-.02c.23.88.23,1.03.51,1.13.17.06.27.2.27.27,0,.17-.12.43-.29.64-.49.6-1.13.62-2.02.62-2.02,0-2.55-.12-2.66-1.07-.04-.29-.04-2.45-.04-2.68h-1.91l.49.29c.12.08.17.25.17.31,0,.12-.08.14-.64.31-.91,1.67-2.59,3.29-4.26,3.99l-.1-.16c1.98-1.77,2.66-3.17,3.21-4.74h-3.46c0,.5-.02,4.37-.02,5.21,0,.72.1,4.1.1,4.61,0,.39,0,1.11-.95,1.11-.6,0-.6-.37-.6-.58,0-.17.08-1.03.1-1.22.04-.8.06-1.58.06-3.44,0-.99,0-4.94-.04-5.64-.06-.88-.16-1.22-.25-1.61l1.87,1.11h6.86c.64-1.07,1.2-2.47,1.24-3.36h-8.36c-.45,0-1.42.02-2.27.17l-.39-.78c1.54.14,2.64.14,2.99.14h4.78c-.02-1.52-.17-1.79-.52-2.41l2.2.58c.14.04.31.1.31.27,0,.21-.41.49-.62.62v.93h5.05l.82-.93c.12-.14.23-.25.31-.25.1,0,.21.1.37.21l1.32.93c.1.08.19.19.19.29,0,.21-.19.21-.29.21Zm-10.75,3.09c-.58,0-.7-.43-.91-1.19-.25-.88-.39-1.09-.86-1.67l.08-.08c.62.21,2.47.82,2.47,2.12,0,.53-.39.82-.78.82Zm5.44,6.34c0,.45.06,2.64.06,3.15s-.25.8-.74.8c-.66,0-.62-.41-.58-.72h-3.97c0,.2,0,.27-.08.49-.12.37-.56.49-.78.49-.49,0-.49-.33-.49-.51,0-.14.06-.82.06-.97.02-.27.04-.91.04-1.98,0-1.3-.02-1.4-.04-1.57-.04-.19-.1-.58-.12-.76l1.67.78h3.5l.43-.47c.1-.1.19-.17.29-.17s.2.04.29.12l.82.58c.08.06.17.12.17.27,0,.14-.06.18-.54.49Zm-1.24-.35h-4v3.11h4v-3.11Z"/>
      <path class="cls-4" d="m125.53,469.97c0-1.79-.17-2.31-.43-2.94l2.14.41c.16.04.31.1.31.29,0,.14-.06.17-.64.64,0,.08-.02,1.11-.02,1.59h4.98l.84-.93c.1-.12.19-.25.29-.25.16,0,.23.1.37.21l1.13.93c.1.1.19.16.19.31,0,.17-.17.19-.29.19h-13.41c0,.72.02,3.87.02,4.51,0,2.64-.45,7.1-3.32,9.66l-.12-.12c1.75-3.34,2.1-5.7,2.1-10.21,0-2.45-.08-3.97-.39-5.27l1.87.95h4.39Zm5.48,3.97l.82-.93c.14-.16.21-.23.31-.23.16,0,.21.08.37.21l1.07.93c.08.06.17.15.17.29,0,.17-.16.19-.29.19h-5.73c0,.58-.02,3.3,0,3.69h3.17l.58-.7c.12-.14.19-.23.29-.23s.21.1.35.19l.8.58c.18.14.27.21.27.31,0,.14-.08.18-.68.64.02,1.21.02,2.99.08,4.14,0,.13.06.78.06.91,0,.52-.43.89-.89.89-.5,0-.52-.21-.54-.87h-7.1c0,.54-.02,1.07-.95,1.07-.2,0-.53-.04-.53-.49,0-.06.02-.17.04-.29.1-.84.1-2.8.1-4.16,0-.95,0-1.52-.17-2.96l1.69.95h2.14c-.02-.66-.04-3.62-.06-4.22-.1-2.18-.19-2.43-.35-2.82l1.92.43c.18.04.37.1.37.29s-.33.41-.58.56v1.59h3.29Zm-6.88,4.63v4.94h7.06v-4.94h-7.06Z"/>
      <path class="cls-4" d="m152.79,475.22c-3.36-1.5-5.83-4.39-7.09-7l-.08.02c-2.12,3.69-6.73,6.92-8.9,7.8l-.06-.12c2.92-2.04,5.29-4.74,7.15-7.76.45-.7.5-.97.58-1.32l1.96.62c.1.04.31.14.31.33,0,.23-.19.27-.6.37,1.19,1.98,4.28,4.7,8.59,5.44v.14c-.68.29-1.38.7-1.87,1.48Zm.16,2.72h-7.8c-1.05,1.96-3.01,4.22-3.21,4.45,2.39-.16,5.4-.45,7.6-.72-.12-.21-.76-1.38-2.14-2.68l.12-.12c2.66,1.21,4.78,3.17,4.78,4.8,0,.31-.21.95-.86.95s-.89-.53-1.15-1.2c-.23-.68-.31-.89-.58-1.42-1.57.49-8.73,2-9.84,2.18-.12.25-.17.43-.35.43-.16,0-.25-.2-.31-.35l-.82-1.96c.43.08.88.17,1.73.17.41,0,.8-.02,1.4-.06.64-1.44,1.19-2.88,1.59-4.47h-2.74c-.45,0-1.42.02-2.27.17l-.39-.76c1.54.12,2.64.12,2.97.12h9.33l.99-1.07c.14-.16.23-.23.33-.23s.21.1.35.2l1.34,1.07c.08.06.19.18.19.29,0,.21-.19.21-.29.21Zm-4.26-3.36h-5c-.49,0-1.42.02-2.29.18l-.39-.78c1.34.12,2.74.14,2.99.14h2.18l.88-.97c.1-.1.19-.23.31-.23.1,0,.25.12.35.19l1.07.97c.1.1.19.18.19.31,0,.17-.17.19-.29.19Z"/>
    </g>
    <path class="cls-3" d="m17.44,469.82v1.03c-3.09,4.76-4.18,7.46-4.43,11.8-.04.51-.1,1.73-1.09,1.73-.49,0-.99-.41-.99-1.07,0-1.38,1.36-5.46,5.46-11.96h-3.32c-2.82,0-3.25,1.3-3.67,2.55l-.58-.13.8-3.95h7.84Z"/>
    <g>
      <path class="cls-4" d="m721.32,86.94c-.51.21-2.2.62-4.39.97-.06.76-.08,2.02-.06,2.82.39-.1,2.08-.66,2.43-.78.14-.04.23-.06.35-.06.35,0,1.11.21,1.11.7,0,.29-.21.39-.41.47-.23.1-1.77.47-3.46.78.08,1.98.17,3.01.43,4.24,1.83.33,4.08,1.38,4.08,2.43,0,.25-.14.72-.6.72-.23,0-.29-.04-.95-.51-1.07-.76-2.06-1.15-2.45-1.3-.14,1.83-1.5,2.49-3.32,2.49-2,0-3.38-1.05-3.38-2.06,0-1.57,2.29-2.06,4.22-2.06.49,0,.8.02,1.13.06-.21-1.67-.25-3.54-.25-3.83-.89.1-1.85.18-2.76.18-1.09,0-2-.2-2-.93,0-.41.49-.99,1.26-1.09-.19.25-.33.45-.33.68,0,.33.39.35.99.35,1.34,0,2.37-.17,2.82-.23,0-.97,0-1.32.06-2.9-1.59.23-2.99.27-3.48.27-1.61,0-2.39-.47-2.88-1.54.7.29,1.34.56,2.7.56.49,0,1.79-.1,3.69-.39,0-.27.04-1.52.04-1.65,0-.87-.19-1.09-1.5-1.57.21-.19.47-.45,1.15-.45.91,0,2.02.62,2.02,1.26,0,.23-.02.31-.27,1.03-.16.45-.19.85-.23,1.13.89-.21,2.02-.6,3.03-.95.12-.04.25-.08.39-.08.39,0,1.19.35,1.19.78,0,.19-.1.37-.35.47Zm-7.23,9.84c-1.44,0-2.72.39-2.72,1.13,0,.39.6.93,2.14.93.62,0,1.4-.14,1.91-.47.62-.39.62-1.01.62-1.36-.27-.1-.7-.23-1.94-.23Z"/>
      <path class="cls-4" d="m729.53,95.94c-.02.1-.04.15-.04.25,0,.16.16.89.16,1.05,0,.5-.31.66-.6.66-.68,0-3.44-.97-3.77-6.51-.12-1.93-.19-3.15-.31-3.58-.17-.7-.49-1.22-.68-1.59.99.06,2.45.91,2.45,2.18,0,.14,0,.25-.08.64-.12.72-.25,1.67-.25,2.7,0,2.39,1.17,3.81,1.69,3.81.21,0,.41-.25.47-.35.88-1.3,2.31-3.36,3.15-4.68l.16.06c-.27.58-2.29,5.15-2.33,5.37Zm9.62-1.21c-.23,0-.31-.08-1.07-.8-.52-.49-1.57-.68-2.06-.78v-.12c.27-.04,1.59-.16,1.73-.2.25-.06.43-.21.43-.5,0-.6-1.01-3.46-3.42-4.66.14-.02.17-.04.33-.04,2.18,0,4.74,3.58,4.74,5.83,0,.68-.37,1.26-.68,1.26Z"/>
      <path class="cls-4" d="m745.14,95.83c-.17.84-.21,1.22-.21,1.5,0,.23.14,1.26.14,1.48,0,.54-.39.62-.6.62-1.03,0-1.69-2.53-1.69-4.98,0-1.38.14-2.76.41-4.14.12-.66.56-2.92.56-3.48,0-1.03-.51-1.42-.8-1.63.19-.08.31-.14.54-.14,1.07,0,1.91,1.07,1.91,1.59,0,.21-.06.39-.21.8-.43,1.07-1.46,3.77-1.46,6.57,0,.7.14,2,.37,2,.14,0,.18-.12.39-.66.21-.54,1.13-2.96,1.32-3.46l.12.04c-.27,1.54-.33,1.77-.78,3.89Zm11.88,2.61c-.27,0-.56-.06-1.28-.66-.89-.74-1.28-.91-1.55-1.03-.29.82-.78,2.2-3.17,2.2-1.65,0-3.11-.89-3.11-2.04,0-.45.35-1.98,3.3-1.98.99,0,1.46.12,1.92.23,0-.43,0-.84-.17-4.53,0-.17-.04-.89-.04-1.05-.37.06-1.3.16-1.89.16-1.26,0-2.59-.45-3.13-1.44.82.27,1.36.45,2.39.45.53,0,1.5-.08,2.59-.23-.02-.62-.12-2.9-.21-3.19-.1-.29-.37-.5-1.28-.72.68-.49,1.05-.56,1.24-.56.29,0,1.67.43,1.67,1.11,0,.19-.02.25-.16.78-.19.8-.25,1.73-.25,2.39.6-.12,1.22-.25,1.94-.45.27-.08.37-.1.47-.1.39,0,1.03.21,1.03.66,0,.29-.21.37-.41.47-.29.14-1.67.37-3.03.56.02.95.33,5.13.37,5.99,1.58.64,3.32,1.36,3.32,2.41,0,.16-.12.58-.56.58Zm-6.3-2.61c-1.03,0-2.14.35-2.14,1.07,0,.66,1.21.93,2.18.93,1.44,0,2.1-.64,2.24-1.65-.29-.1-.99-.35-2.27-.35Zm6.51-8.59c-.29,0-.45-.21-.91-.84-.16-.23-.85-1.09-1.65-1.75.93.08,3.01.74,3.01,2.12,0,.33-.27.47-.45.47Zm1.79-1.17c-.25,0-.33-.08-.93-.86-.78-.99-1.58-1.52-1.94-1.79,2.72.06,3.34,1.77,3.34,2.22,0,.37-.37.43-.47.43Z"/>
      <path class="cls-4" d="m776.68,88.3c-.64,0-1.67-.23-2.31-.29-.72-.06-1.34-.08-1.83-.08-.82,0-1.73.06-2.33.1-.02.6-.02,1.05-.02,1.55s.02.86.04,1.21c.29.53.84,1.46.84,3.07,0,2.94-1.89,5.68-5.46,6.94l-.08-.14c2.18-1.36,3.67-3.46,3.95-5.54-.41.33-.8.64-1.28.64-.97,0-2.2-1.28-2.2-2.96,0-1.42.93-2.82,2.27-2.82.43,0,.78.12,1.13.23,0-.1-.04-1.4-.04-2.1-1.19.14-4.43.56-6.34,1.59-.56.29-.62.33-.8.33-.66,0-1.59-1.21-1.59-2,0-.21.06-.37.16-.54.39.53.8.91,1.42.91.21,0,1.75-.27,2.62-.41,1.83-.31,3.27-.53,4.51-.64-.14-3.11-.14-3.17-1.75-3.77.56-.45,1.03-.45,1.13-.45.5,0,1.96.52,1.96,1.15,0,.06-.14.62-.17.76-.08.35-.17,1.09-.25,2.22.45-.04,5.44-.49,5.46-.49.66,0,1.59.45,1.59.99,0,.43-.41.52-.62.52Zm-8.71,2.55c-.54,0-1.3.66-1.3,1.77s.85,2,1.57,2c.64,0,1.17-.7,1.17-1.83,0-.47-.08-1.94-1.44-1.94Z"/>
      <path class="cls-4" d="m782.73,95.51c-.14.78-.16.91-.16,1.17,0,.14.04.74.02.86-.04.25-.17.6-.6.6-1.09,0-1.73-1.67-1.73-4.37,0-.45.02-2,.31-3.87.19-1.15.49-3.03.49-3.42,0-.91-.17-1.22-.54-1.91,1.42-.02,2.08,1.5,2.08,2.06,0,.25-.06.39-.23.95-.89,2.76-1.19,3.69-1.19,5.54,0,.56.1,2.16.43,2.16.12,0,.21-.17.29-.33.16-.37,1.44-3.4,1.79-4.24l.14.04c-.16.76-.97,4.06-1.09,4.76Zm12.64-6.98c-.56.39-2.7.68-3.54.78.02.6.16,3.3.16,3.87,0,3.03-.86,5.66-4.88,7.5l-.1-.15c2.99-2.12,3.67-4.55,3.67-9.27,0-.88-.02-1.44-.02-1.81-.33.04-1.81.23-2.1.23-.95,0-2.12-.23-2.88-1.24.39.1.82.19,1.71.19.12,0,1.28,0,3.21-.31-.17-3.21-.31-3.91-1.94-4.16.27-.33.74-.62,1.13-.62.17,0,2.02.17,2.02,1.3,0,.14-.04.74-.04.86-.04.56,0,1.79,0,2.39.93-.18,1.3-.29,2.24-.58.14-.04.29-.08.49-.08.47,0,1.09.33,1.09.76,0,.14-.12.29-.21.35Z"/>
      <path class="cls-4" d="m801.93,98.94c-.68,0-1.09-.04-1.44-.08v-.21c1.17-.04,4.18-.43,5.89-1.4.7-.41,2.29-1.54,2.29-3.32s-1.58-2.78-3.3-2.78c-.72,0-2.9.23-5.81,2.8-.74.64-.82.7-1.01.7-.45,0-1.44-.82-1.44-1.65,0-.33.1-.53.21-.72.19.29.53.76.93.76.27,0,.49-.1,1.07-.41,1.22-.68,2.51-1.26,3.81-1.67.62-.2,1.48-.39,2.39-.39,2.27,0,4.41,1.19,4.41,3.63,0,2.86-3.01,4.74-8.01,4.74Z"/>
      <path class="cls-4" d="m822.5,98.8c-.55.17-2.66.31-3.85.31-.66,0-3.83.02-5.25-.97-.76-.52-1.22-1.4-1.22-2.22,0-1.21.78-3.09,3.73-4.94-.23-.35-.76-1.13-.78-2.26-.06-3.03-.08-3.36-.17-3.77-.12-.49-.45-.86-.72-.99-.54-.29-.62-.31-.76-.41.23-.1.62-.27,1.11-.27.86,0,2.24.78,2.24,1.36,0,.1-.08.33-.12.43-.16.47-.41,1.17-.41,2.68,0,.95.04,1.91.43,2.76,1.13-.64,2.31-1.17,3.56-1.61.35-.14.56-.25.56-.53,0-.14-.04-.29-.16-.62.31.08.91.19,1.28.62.31.35.53.84.53,1.05,0,.54-.14.54-1.21.72-2.76.43-8.46,2.88-8.46,5.6,0,2.08,2.9,2.08,4.16,2.08,1.52,0,2.27-.12,4.18-.45.27-.04.51-.08.74-.08.52,0,1.32.19,1.32.82,0,.45-.49.6-.74.68Z"/>
      <path class="cls-4" d="m833.64,93.8c0,2.24-.41,3.67-2.02,3.77-.17-.74-.54-1.01-1.07-1.42l.06-.12c.31.06.82.1,1.15.1.31,0,.51,0,.6-.82.12-.89.12-.99.1-1.88h-2.16c.02.84.1,4.84.1,5.75,0,.1-.02.6-.02.72,0,.68-.6.8-.82.8-.33,0-.51-.19-.51-.54,0-.08.02-.21.02-.31.02-.23.02-2.16.02-2.68,0-.49.02-1.38.04-1.91-.49.74-2.49,3.17-4.43,4.08l-.08-.12c1.61-1.65,3.36-3.71,4.32-5.79h-1.85c-.04.29-.21,1.26-.29,1.4-.12.19-.43.37-.72.37-.31,0-.53-.19-.53-.43,0-.06.51-2.24.56-2.49.41-2,.43-2.53.45-3.21l1.3.97h1.3v-2.51h-1.05c-.14,0-1.38,0-2.27.17l-.39-.76c.95.08,2.02.12,2.97.12h1.92c.21-.35,1.26-2.55,1.24-3.93l1.56.72c.19.1.29.17.29.31,0,.25-.35.39-.68.43-.66.84-1.73,2.18-2.02,2.47h1.26l.41-.41c.12-.12.19-.17.27-.17s.17.06.31.16l.6.43c.14.1.21.21.21.31,0,.16-.08.29-.52.53.02.21.02.33.04,1.3,0,.21.06,1.26.06,1.42,0,.64-.66.72-.87.72-.43,0-.43-.16-.41-.84h-1.81v2.45h1.94l.49-.56c.12-.14.21-.17.29-.17.12,0,.21.04.35.17l.53.47c.14.12.23.25.23.35,0,.14-.12.27-.49.58Zm-5.38-7.25c-.45,0-.64-.39-.78-.89-.25-1.03-.35-1.36-1.01-2.24l.08-.12c.82.31,2.43,1.24,2.43,2.43,0,.6-.43.82-.72.82Zm-.6,3.97c-.17.66-.25,1.17-.49,2.45h1.98l.02-2.45h-1.52Zm4.45-2.97h-1.79c-.02.37-.02,2.12-.02,2.51h1.81v-2.51Zm1.73,11.86c-.41,0-.64-.27-.64-.68,0-.21.04-.29.39-.97.16-.29.37-.95.37-1.54l.1-.02c.17.25.68,1.09.68,2,0,.54-.31,1.21-.89,1.21Zm8.63-6.69h-6.73v1.81h4.67l.45-.52c.12-.16.21-.23.31-.23.08,0,.19.06.35.17l.68.49c.16.1.25.21.25.35,0,.21-.23.37-.58.54-.49,4.2-1.48,5.4-3.73,5.4-.18-.99-.68-1.52-.95-1.79l.02-.12c.88.29,1.54.33,1.83.33.25,0,.53-.06.82-.62.51-.95.66-2.66.74-3.54h-4.84c0,.51-.39.74-.84.74-.04,0-.49,0-.49-.37,0-.14.06-.66.06-.76.04-2.82.06-5.64.06-8.48,0-.64,0-.76-.1-1.92l1.52.95h.45c.52-1.34.49-1.85.45-2.43l1.44.66c.21.1.31.21.31.31,0,.2-.12.33-.56.31-.25.25-.76.76-1.21,1.15h2.74l.47-.51c.12-.12.19-.19.29-.19.08,0,.17.06.31.16l.7.51c.12.1.17.17.17.29,0,.25-.35.49-.62.62.02.33,0,.52.06,2.29,0,.31.12,1.87.12,1.96,0,.66-.66.74-.85.74-.51,0-.53-.35-.53-.7h-3.95v1.93h4.53l.62-.78c.14-.17.21-.25.31-.25.08,0,.19.08.37.21l1.01.78c.12.1.19.21.19.31,0,.14-.12.19-.31.19Zm-6.45,6.24c-.45,0-.6-.33-.6-.74,0-.17.1-.97.1-1.15,0-.41-.04-.56-.12-.8l.1-.02c1.15.72,1.22,1.75,1.22,1.91,0,.14-.06.8-.7.8Zm3.67-13.33h-3.95v1.9h3.95v-1.9Zm0,2.37h-3.95v1.87h3.95v-1.87Zm-2.12,10.17c-.39,0-.5-.27-.5-.58,0-.88,0-1.28-.21-1.83l.1-.06c.66.47,1.26,1.07,1.26,1.77,0,.43-.29.7-.64.7Zm1.65-.72c-.45,0-.5-.33-.56-.6-.19-.89-.21-.99-.49-1.38l.06-.1c.95.25,1.52.91,1.52,1.48,0,.21-.12.6-.53.6Z"/>
      <path class="cls-4" d="m852.97,98.72l-.02-.16c4.16-1.48,6.1-4.22,6.1-7.17,0-3.29-2.64-5.23-6.03-5.23-.49,0-.58.02-.8.12,1.05.56,1.34,1.28,1.34,1.55,0,.21-.06.35-.66,1.61-1.24,2.66-3.07,6.57-4.39,7.66-.14.1-.37.21-.62.21-.45,0-.62-.25-1.21-1.07-.14-.19-.91-.91-1.05-1.09-.21-.31-.54-1.01-.54-1.98,0-4.18,3.54-7.62,8.28-7.62,3.77,0,7.19,2.2,7.19,6.1s-3.15,6.67-7.6,7.06Zm-1.54-12.32c-2.14.35-5.11,3.11-5.11,6.69,0,1.32.76,2.78,1.52,2.78.53,0,1.28-1.38,1.61-2.04,1.94-3.91,2.59-5.17,2.59-6.18,0-.49-.23-.89-.6-1.24Z"/>
      <path class="cls-4" d="m872.31,88.36c.74,1.77,2.43,4.1,3.85,5.29.95.82,3.17,2.2,4.82,2.49v.14c-1.34.25-1.73.72-2.31,1.44-5.05-2.9-6.59-9.06-6.61-9.1,0,1.09-.02,2.53,0,4.65,0,1.01.23,6.22.23,6.32,0,1.01-.82,1.03-1.03,1.03-.74,0-.74-.39-.74-.66,0-.37.12-2.1.14-2.51.04-1.21.06-1.85.12-7.54-.43.88-1.11,2.18-2.62,3.93-1.79,2.06-3.11,2.94-5.27,4.08l-.04-.1c2.12-1.87,5.44-5.33,7.27-9.45h-4.3c-.53,0-1.44.02-2.29.17l-.39-.78c.99.08,2,.14,2.99.14h4.65c-.06-3.34-.19-4.06-.49-5.11l2.22.56c.1.02.25.06.25.23,0,.23-.21.37-.66.62,0,.53-.02,3.11-.02,3.69h4.94l.89-1.07c.08-.08.19-.23.31-.23s.27.14.37.21l1.17,1.05c.1.08.19.16.19.29,0,.19-.19.21-.31.21h-7.33Z"/>
      <path class="cls-4" d="m889.39,99.15h-7.64v-.53c.39-1.22,1.3-2.58,2.86-4.35,2.86-3.3,3.83-4.41,3.83-6.36,0-1.46-.93-2.66-2.58-2.66-1.36,0-2.18.82-2.18,1.52,0,.06,0,.31.19.6.25.39.41.6.41.97,0,.58-.47,1.09-1.05,1.09-.68,0-1.11-.64-1.11-1.36,0-1.42,1.38-3.48,4.18-3.48,2.41,0,3.89,1.52,3.89,3.62,0,1.96-1.13,3.03-2.88,4.53-.66.54-3.23,2.74-4.2,4.88h2.68c2.72,0,3.36-1.05,3.95-2.66l.58.21-.93,3.99Z"/>
      <path class="cls-4" d="m909.02,85.35h-7.58c0,.54.08,11.22.08,11.8,0,1.67,0,3.07-2.7,3.34-.1-.82-.23-1.21-2.41-2.39l.04-.14c.82.14,1.9.27,2.58.27.6,0,.89-.08.97-.39.06-.23.06-1.09.06-1.42,0-1.75.02-9.49,0-11.08h-5.52c-.35,0-1.34,0-2.29.18l-.39-.76c1.21.08,2.41.12,2.99.12h11.08l1.09-1.15c.08-.08.19-.23.31-.23.1,0,.21.08.35.19l1.44,1.15c.12.1.19.19.19.31,0,.17-.17.19-.29.19Z"/>
      <path class="cls-4" d="m921.33,84.38l.54-.56c.12-.14.21-.23.33-.23.1,0,.21.08.35.19l.95.8c.18.16.21.25.21.35,0,.23-.27.41-.72.72-.04.88-.04,1.21-.04,2.06,0,4.7.1,7.19.21,10.79,0,.02.02.33.02.41,0,.82-1.01.88-1.09.88-.56,0-.52-.49-.5-.82h-7.39c.04.39.04.5-.08.68-.21.31-.66.47-1.03.47-.51,0-.53-.27-.53-.51,0-.37.12-1.92.14-2.24.08-1.87.1-6.59.1-8.53,0-3.63-.1-4.35-.25-5.4l1.94.95h6.82Zm-7.12.47v4.18h7.41v-4.18h-7.41Zm0,4.65v4.2h7.41v-4.2h-7.41Zm0,4.67v4.34h7.41v-4.34h-7.41Z"/>
      <path class="cls-4" d="m934.63,85.81c0-1.79-.17-2.31-.43-2.94l2.14.41c.16.04.31.1.31.29,0,.14-.06.17-.64.64,0,.08-.02,1.11-.02,1.59h4.98l.84-.93c.1-.12.19-.25.29-.25.16,0,.23.1.37.21l1.13.93c.1.1.19.16.19.31,0,.17-.17.19-.29.19h-13.41c0,.72.02,3.87.02,4.51,0,2.64-.45,7.1-3.32,9.66l-.12-.12c1.75-3.34,2.1-5.7,2.1-10.21,0-2.45-.08-3.97-.39-5.27l1.87.95h4.39Zm5.48,3.97l.82-.93c.14-.16.21-.23.31-.23.16,0,.21.08.37.21l1.07.93c.08.06.17.15.17.29,0,.17-.16.19-.29.19h-5.73c0,.58-.02,3.3,0,3.69h3.17l.58-.7c.12-.14.2-.23.29-.23s.21.1.35.19l.8.58c.17.14.27.21.27.31,0,.14-.08.18-.68.64.02,1.21.02,2.99.08,4.14,0,.13.06.78.06.91,0,.52-.43.89-.89.89-.5,0-.52-.21-.54-.87h-7.1c0,.54-.02,1.07-.95,1.07-.19,0-.53-.04-.53-.49,0-.06.02-.17.04-.29.1-.84.1-2.8.1-4.16,0-.95,0-1.52-.17-2.96l1.69.95h2.14c-.02-.66-.04-3.62-.06-4.22-.1-2.18-.19-2.43-.35-2.82l1.92.43c.17.04.37.1.37.29s-.33.41-.58.56v1.59h3.29Zm-6.88,4.63v4.94h7.06v-4.94h-7.06Z"/>
    </g>
    <g>
      <g>
        <path class="cls-4" d="m1191.25,280.91c.13.06.21.16.21.29,0,.14-.18.24-.67.34-.21.26-.66.78-1.34,1.63-.61.74-1.14,1.33-1.57,1.78.08,0,1.42-.06,2.27-.18-.06-.11-.26-.48-.66-.91l.08-.1c1.25.48,2.21,1.2,2.21,1.94,0,.3-.18.66-.61.66-.38,0-.54-.19-.69-.74-.02-.05-.08-.27-.18-.51l-1.46.32c0,.69.05,3.97.05,4.27.02.32.06,1.76.06,2.05,0,.42-.37.69-.77.69-.34,0-.43-.21-.43-.48,0-.26.06-1.31.06-1.54.02-.51.03-2.08.05-4.79-1.01.22-1.81.4-2.02.45-.1.16-.26.46-.4.46-.16,0-.26-.19-.29-.29l-.35-1.36c.27.06.74.11,1.14.11.5,0,1.23-.02,1.49-.03,1.09-1.47,2.06-3.5,2.29-4.15.06-.16.1-.45.1-.64l1.42.72Zm-6.32,10.53c.69-1.55,1.15-3.58,1.12-4.67l1.31.48c.11.05.22.14.22.22,0,.11-.1.19-.51.35-.51,1.49-.98,2.38-2.06,3.67l-.08-.05Zm.61-10.52c.45.11.98.26,1.38.45.45-.9,1.15-2.64,1.06-3.58l1.52.75c.13.06.19.16.19.24,0,.24-.24.29-.61.35-.75.96-.86,1.1-1.95,2.35.46.29.94.72.94,1.26,0,.37-.24.77-.66.77-.37,0-.46-.19-.82-.98-.37-.83-.74-1.19-1.07-1.52l.02-.1Zm3.78,6.1c.66.29,2.26,1.01,2.26,2.1,0,.51-.37.78-.7.78-.43,0-.51-.32-.72-1.06-.22-.83-.53-1.3-.88-1.76l.05-.06Zm7.65-5.17l.48-.45c.08-.08.18-.18.22-.18.06,0,.18.1.22.14l.77.66c.08.06.14.16.14.24,0,.11-.3.34-.59.54-.1,4.43-.13,6.42-.98,8.05-.59,1.14-1.6,1.55-2.48,1.57-.13-.75-.62-1.25-1.46-1.81l.02-.1c.74.14,1.71.32,2.13.32,1.62,0,1.7-5.28,1.7-6.93,0-.27-.02-1.41-.02-1.68h-4.32c-.78,1.49-1.33,2.03-1.57,2.29l-.1-.06c1.18-2.35,1.73-5.06,1.73-5.89,0-.16-.05-.46-.08-.61l1.73.74c.08.03.18.11.18.22,0,.16-.24.27-.62.45-.18.51-.46,1.31-1.06,2.48h3.95Zm-4.37,3.06c1.52.62,2.27,1.14,2.27,2,0,.38-.19.75-.64.75-.42,0-.54-.18-.9-1.28-.13-.42-.43-.96-.8-1.38l.06-.1Z"/>
        <path class="cls-4" d="m1201.83,280.83l-.14,4.03c.69-.61,1.3-1.1,2.48-1.1,2.3,0,3.41,1.91,3.41,3.67,0,2.32-1.84,4.13-3.95,4.13-1.82,0-3.03-1.36-3.03-2.35,0-.61.38-.99.93-.99.48,0,.83.32.83.83,0,.16-.02.22-.08.48-.03.13-.05.35-.05.45,0,.69.72,1.04,1.36,1.04,1.3,0,2.51-1.23,2.51-3.38,0-2.03-1.07-3.15-2.24-3.15-.64,0-1.62.35-2.5,1.39l-.24-.13.24-6.18h5.57l-.32,1.26h-4.79Z"/>
        <path class="cls-4" d="m1215.7,288.04c0,1.86-1.46,3.52-3.78,3.52-1.83,0-3.46-1.06-3.46-2.88,0-1.73,1.38-2.54,2.85-3.41-.85-.5-2.38-1.39-2.38-3.14,0-1.59,1.25-2.87,3.2-2.87,2.19,0,2.93,1.63,2.93,2.53,0,1.36-1.31,2.35-2,2.87,1.5.93,2.64,1.73,2.64,3.38Zm-5.89.59c0,1.41,1.06,2.38,2.3,2.38,1.39,0,2.43-1.23,2.43-2.42,0-1.52-1.59-2.42-2.75-3.07-.72.54-1.99,1.52-1.99,3.11Zm4.08-6.66c0-1.22-.82-2.16-1.99-2.16s-1.89.87-1.89,1.91c0,1.12.91,1.68,2.58,2.67.46-.4,1.3-1.09,1.3-2.42Z"/>
        <path class="cls-4" d="m1220.08,291.56c-1.1,0-2.03-.77-2.62-1.73-.67-1.1-.98-3.07-.98-4.56,0-3.41,1.46-6,3.6-6,1.65,0,3.6,1.78,3.6,6.15,0,3.92-1.65,6.15-3.6,6.15Zm-1.79-9.62c-.22.8-.37,2.15-.37,3.47,0,3.57.85,5.6,2.16,5.6,1.1,0,1.6-1.47,1.78-2.08.22-.82.38-2.18.38-3.52,0-3.65-.88-5.6-2.16-5.6-1.14,0-1.63,1.57-1.79,2.13Z"/>
        <path class="cls-4" d="m1226.88,283.38v1.26c.43-.43,1.26-1.26,2.64-1.26,1.5,0,1.79.98,1.92,1.44.54-.53,1.42-1.44,2.87-1.44s2.05.85,2.05,2.62v3.78c0,.61.32.96.8.96h.3v.51h-3.35v-.51h.29c.56,0,.82-.43.82-.96v-3.68c0-.45-.08-2.03-1.41-2.03-.45,0-1.46.26-2.26,1.39,0,.13.02.26.02.54v3.78c0,.67.37.96.8.96h.46v.51h-3.67v-.51h.46c.43,0,.8-.3.8-.96v-3.68c0-.34-.03-2.03-1.39-2.03-.38,0-1.41.21-2.16,1.27v4.45c0,.67.38.96.8.96h.29v.51h-3.33v-.51h.29c.48,0,.8-.34.8-.96v-4.82c0-.5-.27-.75-.66-.75-.18,0-.34.02-.48.06l-.06-.3,2.35-.59Z"/>
        <path class="cls-4" d="m1239.09,292.41l-.32-.32,14.15-14.15.32.32-14.15,14.15Z"/>
        <path class="cls-4" d="m1254.22,287.4c1.54-1.52,3.3-4.26,3.75-5.31.13-.32.19-.51.3-.94l1.3,1.01c.06.05.1.13.1.21,0,.22-.26.22-.62.29-.26.37-.58.82-1.15,1.57.19.16.27.21.27.32,0,.1-.06.19-.42.45-.05.69-.05,1.31-.05,1.81,0,.69.05,3.78.05,4.4,0,.83,0,1.28-.7,1.28-.29,0-.56-.1-.56-.45,0-.21.1-1.12.1-1.3.05-.98.03-1.39.06-5.04-1.15,1.17-2.03,1.65-2.35,1.82l-.06-.11Zm.06-4.69c2.24-2.1,3.54-4.19,3.71-4.87l1.2.87s.13.11.13.19c0,.18-.06.19-.67.32-1.39,1.86-2.93,2.88-4.29,3.62l-.08-.13Zm12.76.85l.58-.8c.13-.19.19-.21.24-.21.1,0,.16.06.3.18l.94.8c.1.08.16.14.16.24,0,.16-.13.18-.24.18h-5.7l1.49.48c.1.03.21.08.21.19,0,.21-.38.43-.5.48v1.58h1.65l.58-.69c.13-.14.16-.19.26-.19.08,0,.13.03.3.18l.8.67c.08.06.16.13.16.24,0,.14-.13.18-.24.18h-3.51c0,.22-.02,3.44-.02,3.52.37.05,1.23.18,2.38.18,1.47,0,2.21-.21,2.58-.29l.02.06c-.26.21-.78.64-.93,1.55-.26.02-.53.05-.91.05-5.15,0-6-2.9-6.37-4.21-.4,1.1-1.15,3.02-3.22,4.13l-.05-.06c2.37-2.67,2.61-5.78,2.61-6.45,0-.37-.03-.56-.06-.72l1.63.53c.1.03.18.08.18.22,0,.08-.03.13-.08.18-.06.05-.4.21-.46.24-.16.75-.29,1.14-.43,1.57.71,1.57,1.57,2.37,2.07,2.66,0-4.21,0-4.48-.03-5.14-.02-.19-.11-.98-.13-1.14h-1.68c-.4,0-1.17.02-1.89.14l-.32-.64c1.1.1,2.24.11,2.46.11h1.55c0-.94,0-1.95-.02-2.82h-1.23c-.29,0-1.1,0-1.87.14l-.32-.62c.99.08,1.99.1,2.46.1h.96c-.03-1.54-.05-1.66-.29-2.48l1.66.5c.13.03.22.08.22.19s-.4.46-.48.53v1.26h1.57l.62-.77c.1-.11.14-.19.26-.19s.16.05.29.16l.85.77c.08.08.16.14.16.26,0,.14-.14.16-.24.16h-3.52v2.82h2.53Z"/>
        <path class="cls-4" d="m1284.98,283.79h-7.14l.56.13c.34.08.4.08.4.22,0,.13-.05.19-.4.38,0,.45.06,2.46.06,2.87,0,.96,0,1.44-1.68,1.92-.18-.67-.66-1.12-1.36-1.47v-.1c.21,0,1.14.06,1.33.06.58,0,.58-.02.59-.59.02-.75,0-2.58-.02-3.43h-4.35c-.4,0-1.17.02-1.89.14l-.32-.64c1.09.1,2.22.11,2.46.11h.75c0-2.83,0-3.14-.24-4.03l1.57.43c.24.06.3.13.3.27,0,.13-.05.18-.5.48v2.85h2.19c0-3.6,0-4-.03-4.54-.02-.35-.06-.72-.18-1.57l1.47.4c.18.05.3.1.3.27,0,.11,0,.18-.48.45v2.07h2.3l.62-.91c.06-.08.16-.21.26-.21.08,0,.19.1.29.18l1.02.91c.1.1.16.14.16.24,0,.16-.13.18-.24.18h-4.42v2.54h4.4l.75-.96c.1-.13.19-.21.26-.21.08,0,.19.08.29.18l.96.96c.11.11.16.18.16.24,0,.16-.13.18-.24.18Zm-9.09,1.94c-.06.03-.26.08-.4.13-1.07,1.79-2.56,3.15-4.34,4.19l-.06-.08c1.71-1.81,2.88-3.94,3.1-4.47.13-.29.21-.58.3-.96l1.25.66c.14.08.27.14.27.34,0,.08-.05.16-.13.19Zm4.9,2.85c-2.56,2.24-5.09,3.7-9,3.83l-.02-.11c2.39-.59,4.82-1.52,7.11-3.63.53-.48,1.09-1.01,1.42-1.58l.98.96c.13.13.19.21.19.3,0,.19-.06.19-.69.24Zm2.79.42c-.46,0-.69-.35-.99-.85-1.01-1.65-1.83-2.4-2.9-3.17l.06-.1c2.87.69,4.47,2.45,4.47,3.43,0,.34-.26.69-.64.69Z"/>
        <path class="cls-4" d="m1293.62,288.04c0,1.86-1.46,3.52-3.78,3.52-1.83,0-3.46-1.06-3.46-2.88,0-1.73,1.38-2.54,2.85-3.41-.85-.5-2.38-1.39-2.38-3.14,0-1.59,1.25-2.87,3.2-2.87,2.19,0,2.93,1.63,2.93,2.53,0,1.36-1.31,2.35-2,2.87,1.5.93,2.64,1.73,2.64,3.38Zm-5.89.59c0,1.41,1.06,2.38,2.3,2.38,1.39,0,2.43-1.23,2.43-2.42,0-1.52-1.59-2.42-2.75-3.07-.72.54-1.99,1.52-1.99,3.11Zm4.08-6.66c0-1.22-.82-2.16-1.99-2.16s-1.89.87-1.89,1.91c0,1.12.91,1.68,2.58,2.67.46-.4,1.3-1.09,1.3-2.42Z"/>
        <path class="cls-4" d="m1299.73,280.21c-1.33,2.72-3.75,4.77-4.96,5.44l-.08-.11c2.24-2.54,3.5-4.79,3.87-5.86.14-.4.21-.72.26-1.03l1.38.93c.08.05.21.14.21.26,0,.19-.42.3-.67.37Zm5.81,5.01c-.16,5.76-.48,6.93-3.36,7.19-.06-1.01-.85-1.54-1.2-1.76l.02-.11c.67.14,1.36.27,1.86.27.77,0,1.07-.18,1.31-1.63.19-1.18.29-3.86.24-4.61h-3.23c-.1,2.51-1.17,6.85-6.21,7.78l-.03-.13c3.25-1.51,4.9-3.92,5.06-7.65h-.46c-.4,0-1.17.02-1.89.16l-.3-.64c.99.08,1.97.1,2.45.1h4.53l.43-.38c.1-.1.19-.18.29-.18.08,0,.16.08.22.14l.64.7c.08.08.14.18.14.26,0,.14-.05.18-.5.5Zm2.91-.02c-1.71-.74-3.62-2.46-4.82-6.08h-1.28c-.8,0-1.12.06-1.34.1l-.21-.56c.72.06,1.42.08,1.75.08h.8l.51-.51c.14-.14.21-.18.29-.18.1,0,.16.08.27.18l.59.58c.1.08.13.14.13.24,0,.32-.74.45-1.02.5.77,2.06,3.42,4.11,5.87,4.29l.02.16c-.9.27-1.26.79-1.55,1.22Z"/>
      </g>
      <g>
        <path class="cls-4" d="m1191.25,405.46c.13.06.21.16.21.29,0,.14-.18.24-.67.34-.21.26-.66.78-1.34,1.63-.61.74-1.14,1.33-1.57,1.78.08,0,1.42-.06,2.27-.18-.06-.11-.26-.48-.66-.91l.08-.1c1.25.48,2.21,1.2,2.21,1.94,0,.3-.18.66-.61.66-.38,0-.54-.19-.69-.74-.02-.05-.08-.27-.18-.51l-1.46.32c0,.69.05,3.97.05,4.27.02.32.06,1.76.06,2.05,0,.42-.37.69-.77.69-.34,0-.43-.21-.43-.48,0-.26.06-1.31.06-1.54.02-.51.03-2.08.05-4.79-1.01.22-1.81.4-2.02.45-.1.16-.26.46-.4.46-.16,0-.26-.19-.29-.29l-.35-1.36c.27.06.74.11,1.14.11.5,0,1.23-.02,1.49-.03,1.09-1.47,2.06-3.5,2.29-4.15.06-.16.1-.45.1-.64l1.42.72Zm-6.32,10.53c.69-1.55,1.15-3.59,1.12-4.67l1.31.48c.11.05.22.14.22.22,0,.11-.1.19-.51.35-.51,1.49-.98,2.38-2.06,3.67l-.08-.05Zm.61-10.52c.45.11.98.26,1.38.45.45-.9,1.15-2.64,1.06-3.58l1.52.75c.13.06.19.16.19.24,0,.24-.24.29-.61.35-.75.96-.86,1.1-1.95,2.35.46.29.94.72.94,1.26,0,.37-.24.77-.66.77-.37,0-.46-.19-.82-.98-.37-.83-.74-1.19-1.07-1.52l.02-.1Zm3.78,6.1c.66.29,2.26,1.01,2.26,2.1,0,.51-.37.78-.7.78-.43,0-.51-.32-.72-1.06-.22-.83-.53-1.3-.88-1.76l.05-.06Zm7.65-5.17l.48-.45c.08-.08.18-.18.22-.18.06,0,.18.1.22.14l.77.66c.08.06.14.16.14.24,0,.11-.3.34-.59.54-.1,4.43-.13,6.42-.98,8.05-.59,1.14-1.6,1.55-2.48,1.57-.13-.75-.62-1.25-1.46-1.81l.02-.1c.74.14,1.71.32,2.13.32,1.62,0,1.7-5.28,1.7-6.93,0-.27-.02-1.41-.02-1.68h-4.32c-.78,1.49-1.33,2.03-1.57,2.29l-.1-.06c1.18-2.35,1.73-5.06,1.73-5.89,0-.16-.05-.46-.08-.61l1.73.74c.08.03.18.11.18.22,0,.16-.24.27-.62.45-.18.51-.46,1.31-1.06,2.48h3.95Zm-4.37,3.06c1.52.62,2.27,1.14,2.27,2,0,.38-.19.75-.64.75-.42,0-.54-.18-.9-1.28-.13-.42-.43-.96-.8-1.38l.06-.1Z"/>
        <path class="cls-4" d="m1203.38,408.77c.34-.21.83-.42,1.39-.42,1.59,0,2.87,1.6,2.87,3.54,0,2.23-1.58,4.21-3.42,4.21s-3.68-2.07-3.68-5.52c0-3.7,2.08-6.77,4.53-6.77,1.07,0,1.83.64,1.83,1.41,0,.58-.45.83-.82.83-.32,0-.85-.21-.88-1.12-.02-.35-.05-.58-.48-.58s-.86.24-1.17.58c-1.42,1.57-1.5,3.92-1.57,5.36.3-.5.64-1.06,1.41-1.52Zm-.53,5.92c.27.43.69.86,1.3.86.85,0,2.05-.88,2.05-3.52,0-.72-.18-2.96-1.82-2.96-.61,0-1.63.45-2.39,2.18.06.88.19,2.42.87,3.44Z"/>
        <path class="cls-4" d="m1213.33,403.81h.66v8.13h1.81v.51h-1.81v1.86c0,.7.35.98,1.12.98h.26v.51h-4.07v-.51h.26c.75,0,1.12-.26,1.12-.98v-1.86h-4.31v-.56l4.96-8.08Zm-.66,2.11l-3.7,6.02h3.7v-6.02Z"/>
        <path class="cls-4" d="m1220.08,416.1c-1.1,0-2.03-.77-2.62-1.73-.67-1.1-.98-3.07-.98-4.56,0-3.41,1.46-6,3.6-6,1.65,0,3.6,1.78,3.6,6.15,0,3.92-1.65,6.15-3.6,6.15Zm-1.79-9.62c-.22.8-.37,2.15-.37,3.47,0,3.57.85,5.6,2.16,5.6,1.1,0,1.6-1.47,1.78-2.08.22-.82.38-2.18.38-3.52,0-3.65-.88-5.6-2.16-5.6-1.14,0-1.63,1.57-1.79,2.13Z"/>
        <path class="cls-4" d="m1226.88,407.92v1.26c.43-.43,1.26-1.26,2.64-1.26,1.5,0,1.79.98,1.92,1.44.54-.53,1.42-1.44,2.87-1.44s2.05.85,2.05,2.62v3.78c0,.61.32.96.8.96h.3v.51h-3.35v-.51h.29c.56,0,.82-.43.82-.96v-3.68c0-.45-.08-2.03-1.41-2.03-.45,0-1.46.26-2.26,1.39,0,.13.02.26.02.54v3.78c0,.67.37.96.8.96h.46v.51h-3.67v-.51h.46c.43,0,.8-.3.8-.96v-3.68c0-.34-.03-2.03-1.39-2.03-.38,0-1.41.21-2.16,1.27v4.45c0,.67.38.96.8.96h.29v.51h-3.33v-.51h.29c.48,0,.8-.34.8-.96v-4.82c0-.5-.27-.75-.66-.75-.18,0-.34.02-.48.06l-.06-.3,2.35-.59Z"/>
        <path class="cls-4" d="m1239.09,416.95l-.32-.32,14.15-14.15.32.32-14.15,14.15Z"/>
        <path class="cls-4" d="m1254.22,411.94c1.54-1.52,3.3-4.26,3.75-5.31.13-.32.19-.51.3-.94l1.3,1.01c.06.05.1.13.1.21,0,.22-.26.22-.62.29-.26.37-.58.82-1.15,1.57.19.16.27.21.27.32,0,.1-.06.19-.42.45-.05.69-.05,1.31-.05,1.81,0,.69.05,3.78.05,4.4,0,.83,0,1.28-.7,1.28-.29,0-.56-.1-.56-.45,0-.21.1-1.12.1-1.3.05-.98.03-1.39.06-5.04-1.15,1.17-2.03,1.65-2.35,1.82l-.06-.11Zm.06-4.69c2.24-2.1,3.54-4.19,3.71-4.87l1.2.87s.13.11.13.19c0,.18-.06.19-.67.32-1.39,1.86-2.93,2.88-4.29,3.62l-.08-.13Zm12.76.85l.58-.8c.13-.19.19-.21.24-.21.1,0,.16.06.3.18l.94.8c.1.08.16.14.16.24,0,.16-.13.18-.24.18h-5.7l1.49.48c.1.03.21.08.21.19,0,.21-.38.43-.5.48v1.58h1.65l.58-.69c.13-.14.16-.19.26-.19.08,0,.13.03.3.18l.8.67c.08.06.16.13.16.24,0,.14-.13.18-.24.18h-3.51c0,.22-.02,3.44-.02,3.52.37.05,1.23.18,2.38.18,1.47,0,2.21-.21,2.58-.29l.02.06c-.26.21-.78.64-.93,1.55-.26.02-.53.05-.91.05-5.15,0-6-2.9-6.37-4.21-.4,1.1-1.15,3.02-3.22,4.13l-.05-.06c2.37-2.67,2.61-5.78,2.61-6.45,0-.37-.03-.56-.06-.72l1.63.53c.1.03.18.08.18.22,0,.08-.03.13-.08.18-.06.05-.4.21-.46.24-.16.75-.29,1.14-.43,1.57.71,1.57,1.57,2.37,2.07,2.66,0-4.21,0-4.48-.03-5.14-.02-.19-.11-.98-.13-1.14h-1.68c-.4,0-1.17.02-1.89.14l-.32-.64c1.1.1,2.24.11,2.46.11h1.55c0-.94,0-1.95-.02-2.82h-1.23c-.29,0-1.1,0-1.87.14l-.32-.62c.99.08,1.99.1,2.46.1h.96c-.03-1.54-.05-1.66-.29-2.48l1.66.5c.13.03.22.08.22.19s-.4.46-.48.53v1.26h1.57l.62-.77c.1-.11.14-.19.26-.19s.16.05.29.16l.85.77c.08.08.16.14.16.26,0,.14-.14.16-.24.16h-3.52v2.82h2.53Z"/>
        <path class="cls-4" d="m1284.98,408.34h-7.14l.56.13c.34.08.4.08.4.22,0,.13-.05.19-.4.38,0,.45.06,2.46.06,2.87,0,.96,0,1.44-1.68,1.92-.18-.67-.66-1.12-1.36-1.47v-.1c.21,0,1.14.06,1.33.06.58,0,.58-.02.59-.59.02-.75,0-2.58-.02-3.43h-4.35c-.4,0-1.17.02-1.89.14l-.32-.64c1.09.1,2.22.11,2.46.11h.75c0-2.83,0-3.14-.24-4.03l1.57.43c.24.06.3.13.3.27,0,.13-.05.18-.5.48v2.85h2.19c0-3.6,0-4-.03-4.55-.02-.35-.06-.72-.18-1.57l1.47.4c.18.05.3.1.3.27,0,.11,0,.18-.48.45v2.07h2.3l.62-.91c.06-.08.16-.21.26-.21.08,0,.19.1.29.18l1.02.91c.1.1.16.14.16.24,0,.16-.13.18-.24.18h-4.42v2.55h4.4l.75-.96c.1-.13.19-.21.26-.21.08,0,.19.08.29.18l.96.96c.11.11.16.18.16.24,0,.16-.13.18-.24.18Zm-9.09,1.94c-.06.03-.26.08-.4.13-1.07,1.79-2.56,3.15-4.34,4.19l-.06-.08c1.71-1.81,2.88-3.94,3.1-4.47.13-.29.21-.58.3-.96l1.25.66c.14.08.27.14.27.34,0,.08-.05.16-.13.19Zm4.9,2.85c-2.56,2.24-5.09,3.7-9,3.83l-.02-.11c2.39-.59,4.82-1.52,7.11-3.63.53-.48,1.09-1.01,1.42-1.58l.98.96c.13.13.19.21.19.3,0,.19-.06.19-.69.24Zm2.79.42c-.46,0-.69-.35-.99-.85-1.01-1.65-1.83-2.4-2.9-3.17l.06-.1c2.87.69,4.47,2.45,4.47,3.43,0,.34-.26.69-.64.69Z"/>
        <path class="cls-4" d="m1293.62,412.58c0,1.86-1.46,3.52-3.78,3.52-1.83,0-3.46-1.06-3.46-2.88,0-1.73,1.38-2.55,2.85-3.41-.85-.5-2.38-1.39-2.38-3.14,0-1.59,1.25-2.87,3.2-2.87,2.19,0,2.93,1.63,2.93,2.53,0,1.36-1.31,2.35-2,2.87,1.5.93,2.64,1.73,2.64,3.38Zm-5.89.59c0,1.41,1.06,2.38,2.3,2.38,1.39,0,2.43-1.23,2.43-2.42,0-1.52-1.59-2.42-2.75-3.07-.72.55-1.99,1.52-1.99,3.11Zm4.08-6.66c0-1.22-.82-2.16-1.99-2.16s-1.89.87-1.89,1.91c0,1.12.91,1.68,2.58,2.67.46-.4,1.3-1.09,1.3-2.42Z"/>
        <path class="cls-4" d="m1299.73,404.75c-1.33,2.72-3.75,4.77-4.96,5.44l-.08-.11c2.24-2.54,3.5-4.79,3.87-5.86.14-.4.21-.72.26-1.03l1.38.93c.08.05.21.14.21.26,0,.19-.42.3-.67.37Zm5.81,5.01c-.16,5.76-.48,6.93-3.36,7.19-.06-1.01-.85-1.54-1.2-1.76l.02-.11c.67.14,1.36.27,1.86.27.77,0,1.07-.18,1.31-1.63.19-1.18.29-3.86.24-4.61h-3.23c-.1,2.51-1.17,6.85-6.21,7.78l-.03-.13c3.25-1.51,4.9-3.92,5.06-7.65h-.46c-.4,0-1.17.02-1.89.16l-.3-.64c.99.08,1.97.1,2.45.1h4.53l.43-.38c.1-.1.19-.18.29-.18.08,0,.16.08.22.14l.64.7c.08.08.14.18.14.26,0,.14-.05.18-.5.5Zm2.91-.02c-1.71-.74-3.62-2.46-4.82-6.08h-1.28c-.8,0-1.12.06-1.34.1l-.21-.56c.72.06,1.42.08,1.75.08h.8l.51-.51c.14-.14.21-.18.29-.18.1,0,.16.08.27.18l.59.58c.1.08.13.14.13.24,0,.32-.74.45-1.02.5.77,2.06,3.42,4.11,5.87,4.29l.02.16c-.9.27-1.26.79-1.55,1.22Z"/>
      </g>
      <g>
        <path class="cls-4" d="m1191.25,342.78c.13.06.21.16.21.29,0,.14-.18.24-.67.34-.21.26-.66.78-1.34,1.63-.61.74-1.14,1.33-1.57,1.78.08,0,1.42-.06,2.27-.18-.06-.11-.26-.48-.66-.91l.08-.1c1.25.48,2.21,1.2,2.21,1.94,0,.3-.18.66-.61.66-.38,0-.54-.19-.69-.74-.02-.05-.08-.27-.18-.51l-1.46.32c0,.69.05,3.97.05,4.27.02.32.06,1.76.06,2.05,0,.42-.37.69-.77.69-.34,0-.43-.21-.43-.48,0-.26.06-1.31.06-1.54.02-.51.03-2.08.05-4.79-1.01.22-1.81.4-2.02.45-.1.16-.26.46-.4.46-.16,0-.26-.19-.29-.29l-.35-1.36c.27.06.74.11,1.14.11.5,0,1.23-.02,1.49-.03,1.09-1.47,2.06-3.5,2.29-4.15.06-.16.1-.45.1-.64l1.42.72Zm-6.32,10.53c.69-1.55,1.15-3.58,1.12-4.67l1.31.48c.11.05.22.14.22.22,0,.11-.1.19-.51.35-.51,1.49-.98,2.38-2.06,3.67l-.08-.05Zm.61-10.52c.45.11.98.26,1.38.45.45-.9,1.15-2.64,1.06-3.59l1.52.75c.13.06.19.16.19.24,0,.24-.24.29-.61.35-.75.96-.86,1.1-1.95,2.35.46.29.94.72.94,1.26,0,.37-.24.77-.66.77-.37,0-.46-.19-.82-.98-.37-.83-.74-1.19-1.07-1.52l.02-.1Zm3.78,6.1c.66.29,2.26,1.01,2.26,2.1,0,.51-.37.78-.7.78-.43,0-.51-.32-.72-1.06-.22-.83-.53-1.3-.88-1.76l.05-.06Zm7.65-5.17l.48-.45c.08-.08.18-.18.22-.18.06,0,.18.1.22.14l.77.66c.08.06.14.16.14.24,0,.11-.3.34-.59.54-.1,4.43-.13,6.42-.98,8.05-.59,1.14-1.6,1.55-2.48,1.57-.13-.75-.62-1.25-1.46-1.81l.02-.1c.74.14,1.71.32,2.13.32,1.62,0,1.7-5.28,1.7-6.93,0-.27-.02-1.41-.02-1.68h-4.32c-.78,1.49-1.33,2.03-1.57,2.29l-.1-.06c1.18-2.35,1.73-5.06,1.73-5.89,0-.16-.05-.46-.08-.61l1.73.74c.08.03.18.11.18.22,0,.16-.24.27-.62.45-.18.51-.46,1.31-1.06,2.48h3.95Zm-4.37,3.06c1.52.62,2.27,1.14,2.27,2,0,.38-.19.75-.64.75-.42,0-.54-.18-.9-1.28-.13-.42-.43-.96-.8-1.38l.06-.1Z"/>
        <path class="cls-4" d="m1203.38,346.1c.34-.21.83-.42,1.39-.42,1.59,0,2.87,1.6,2.87,3.54,0,2.23-1.58,4.21-3.42,4.21s-3.68-2.07-3.68-5.52c0-3.7,2.08-6.77,4.53-6.77,1.07,0,1.83.64,1.83,1.41,0,.58-.45.83-.82.83-.32,0-.85-.21-.88-1.12-.02-.35-.05-.58-.48-.58s-.86.24-1.17.58c-1.42,1.57-1.5,3.92-1.57,5.36.3-.5.64-1.06,1.41-1.52Zm-.53,5.92c.27.43.69.86,1.3.86.85,0,2.05-.88,2.05-3.52,0-.72-.18-2.96-1.82-2.96-.61,0-1.63.45-2.39,2.18.06.88.19,2.42.87,3.44Z"/>
        <path class="cls-4" d="m1214.45,347.68c.74.62,1.09,1.42,1.09,2.37,0,1.97-1.62,3.38-3.73,3.38-1.73,0-3.19-.98-3.19-2.26,0-.7.46-1.02.91-1.02.54,0,.78.46.78.8,0,.24-.05.38-.1.51-.03.1-.05.21-.05.37,0,.61.69,1.06,1.44,1.06,1.23,0,2.48-1.22,2.48-2.83s-1.22-2.93-2.5-2.93c-.1,0-.54.06-.64.06-.24,0-.35-.14-.35-.34,0-.21.16-.37.37-.37.1,0,.58.1.69.1,1.34,0,2.19-1.2,2.19-2.5s-.75-2.4-2.02-2.4c-.85,0-1.3.61-1.3,1.07,0,.08.03.16.05.24.03.11.05.27.05.38,0,.5-.37.88-.82.88-.53,0-.8-.46-.8-.88,0-.88,1.02-2.24,3.07-2.24s3.2,1.28,3.2,2.69c0,.56-.21,1.1-.59,1.63-.66.86-1.38,1.14-2.03,1.36.74.22,1.22.38,1.78.86Z"/>
        <path class="cls-4" d="m1220.08,353.43c-1.1,0-2.03-.77-2.62-1.73-.67-1.1-.98-3.07-.98-4.56,0-3.41,1.46-6,3.6-6,1.65,0,3.6,1.78,3.6,6.15,0,3.92-1.65,6.15-3.6,6.15Zm-1.79-9.62c-.22.8-.37,2.15-.37,3.47,0,3.57.85,5.6,2.16,5.6,1.1,0,1.6-1.47,1.78-2.08.22-.82.38-2.18.38-3.52,0-3.65-.88-5.6-2.16-5.6-1.14,0-1.63,1.57-1.79,2.13Z"/>
        <path class="cls-4" d="m1226.88,345.25v1.26c.43-.43,1.26-1.26,2.64-1.26,1.5,0,1.79.98,1.92,1.44.54-.53,1.42-1.44,2.87-1.44s2.05.85,2.05,2.62v3.78c0,.61.32.96.8.96h.3v.51h-3.35v-.51h.29c.56,0,.82-.43.82-.96v-3.68c0-.45-.08-2.03-1.41-2.03-.45,0-1.46.26-2.26,1.39,0,.13.02.26.02.54v3.78c0,.67.37.96.8.96h.46v.51h-3.67v-.51h.46c.43,0,.8-.3.8-.96v-3.68c0-.34-.03-2.03-1.39-2.03-.38,0-1.41.21-2.16,1.27v4.45c0,.67.38.96.8.96h.29v.51h-3.33v-.51h.29c.48,0,.8-.34.8-.96v-4.82c0-.5-.27-.75-.66-.75-.18,0-.34.02-.48.06l-.06-.3,2.35-.59Z"/>
        <path class="cls-4" d="m1239.09,354.28l-.32-.32,14.15-14.15.32.32-14.15,14.15Z"/>
        <path class="cls-4" d="m1254.22,349.27c1.54-1.52,3.3-4.26,3.75-5.31.13-.32.19-.51.3-.94l1.3,1.01c.06.05.1.13.1.21,0,.22-.26.22-.62.29-.26.37-.58.82-1.15,1.57.19.16.27.21.27.32,0,.1-.06.19-.42.45-.05.69-.05,1.31-.05,1.81,0,.69.05,3.78.05,4.4,0,.83,0,1.28-.7,1.28-.29,0-.56-.1-.56-.45,0-.21.1-1.12.1-1.3.05-.98.03-1.39.06-5.04-1.15,1.17-2.03,1.65-2.35,1.82l-.06-.11Zm.06-4.69c2.24-2.1,3.54-4.19,3.71-4.87l1.2.87s.13.11.13.19c0,.18-.06.19-.67.32-1.39,1.86-2.93,2.88-4.29,3.62l-.08-.13Zm12.76.85l.58-.8c.13-.19.19-.21.24-.21.1,0,.16.06.3.18l.94.8c.1.08.16.14.16.24,0,.16-.13.18-.24.18h-5.7l1.49.48c.1.03.21.08.21.19,0,.21-.38.43-.5.48v1.58h1.65l.58-.69c.13-.14.16-.19.26-.19.08,0,.13.03.3.18l.8.67c.08.06.16.13.16.24,0,.14-.13.18-.24.18h-3.51c0,.22-.02,3.44-.02,3.52.37.05,1.23.18,2.38.18,1.47,0,2.21-.21,2.58-.29l.02.06c-.26.21-.78.64-.93,1.55-.26.02-.53.05-.91.05-5.15,0-6-2.9-6.37-4.21-.4,1.1-1.15,3.02-3.22,4.13l-.05-.06c2.37-2.67,2.61-5.78,2.61-6.45,0-.37-.03-.56-.06-.72l1.63.53c.1.03.18.08.18.22,0,.08-.03.13-.08.18-.06.05-.4.21-.46.24-.16.75-.29,1.14-.43,1.57.71,1.57,1.57,2.37,2.07,2.66,0-4.21,0-4.48-.03-5.14-.02-.19-.11-.98-.13-1.14h-1.68c-.4,0-1.17.02-1.89.14l-.32-.64c1.1.1,2.24.11,2.46.11h1.55c0-.94,0-1.95-.02-2.82h-1.23c-.29,0-1.1,0-1.87.14l-.32-.62c.99.08,1.99.1,2.46.1h.96c-.03-1.54-.05-1.66-.29-2.48l1.66.5c.13.03.22.08.22.19s-.4.46-.48.53v1.26h1.57l.62-.77c.1-.11.14-.19.26-.19s.16.05.29.16l.85.77c.08.08.16.14.16.26,0,.14-.14.16-.24.16h-3.52v2.82h2.53Z"/>
        <path class="cls-4" d="m1284.98,345.67h-7.14l.56.13c.34.08.4.08.4.22,0,.13-.05.19-.4.38,0,.45.06,2.46.06,2.87,0,.96,0,1.44-1.68,1.92-.18-.67-.66-1.12-1.36-1.47v-.1c.21,0,1.14.06,1.33.06.58,0,.58-.02.59-.59.02-.75,0-2.58-.02-3.43h-4.35c-.4,0-1.17.02-1.89.14l-.32-.64c1.09.1,2.22.11,2.46.11h.75c0-2.83,0-3.14-.24-4.03l1.57.43c.24.06.3.13.3.27,0,.13-.05.18-.5.48v2.85h2.19c0-3.6,0-4-.03-4.54-.02-.35-.06-.72-.18-1.57l1.47.4c.18.05.3.1.3.27,0,.11,0,.18-.48.45v2.07h2.3l.62-.91c.06-.08.16-.21.26-.21.08,0,.19.1.29.18l1.02.91c.1.1.16.14.16.24,0,.16-.13.18-.24.18h-4.42v2.54h4.4l.75-.96c.1-.13.19-.21.26-.21.08,0,.19.08.29.18l.96.96c.11.11.16.18.16.24,0,.16-.13.18-.24.18Zm-9.09,1.94c-.06.03-.26.08-.4.13-1.07,1.79-2.56,3.15-4.34,4.19l-.06-.08c1.71-1.81,2.88-3.94,3.1-4.47.13-.29.21-.58.3-.96l1.25.66c.14.08.27.14.27.34,0,.08-.05.16-.13.19Zm4.9,2.85c-2.56,2.24-5.09,3.7-9,3.83l-.02-.11c2.39-.59,4.82-1.52,7.11-3.63.53-.48,1.09-1.01,1.42-1.58l.98.96c.13.13.19.21.19.3,0,.19-.06.19-.69.24Zm2.79.42c-.46,0-.69-.35-.99-.85-1.01-1.65-1.83-2.4-2.9-3.17l.06-.1c2.87.69,4.47,2.45,4.47,3.43,0,.34-.26.69-.64.69Z"/>
        <path class="cls-4" d="m1293.62,349.91c0,1.86-1.46,3.52-3.78,3.52-1.83,0-3.46-1.06-3.46-2.88,0-1.73,1.38-2.54,2.85-3.41-.85-.5-2.38-1.39-2.38-3.14,0-1.59,1.25-2.87,3.2-2.87,2.19,0,2.93,1.63,2.93,2.53,0,1.36-1.31,2.35-2,2.87,1.5.93,2.64,1.73,2.64,3.38Zm-5.89.59c0,1.41,1.06,2.38,2.3,2.38,1.39,0,2.43-1.23,2.43-2.42,0-1.52-1.59-2.42-2.75-3.07-.72.54-1.99,1.52-1.99,3.11Zm4.08-6.66c0-1.22-.82-2.16-1.99-2.16s-1.89.87-1.89,1.91c0,1.12.91,1.68,2.58,2.67.46-.4,1.3-1.09,1.3-2.42Z"/>
        <path class="cls-4" d="m1299.73,342.08c-1.33,2.72-3.75,4.77-4.96,5.44l-.08-.11c2.24-2.54,3.5-4.79,3.87-5.86.14-.4.21-.72.26-1.03l1.38.93c.08.05.21.14.21.26,0,.19-.42.3-.67.37Zm5.81,5.01c-.16,5.76-.48,6.93-3.36,7.19-.06-1.01-.85-1.54-1.2-1.76l.02-.11c.67.14,1.36.27,1.86.27.77,0,1.07-.18,1.31-1.63.19-1.18.29-3.86.24-4.61h-3.23c-.1,2.51-1.17,6.85-6.21,7.78l-.03-.13c3.25-1.51,4.9-3.92,5.06-7.65h-.46c-.4,0-1.17.02-1.89.16l-.3-.64c.99.08,1.97.1,2.45.1h4.53l.43-.38c.1-.1.19-.18.29-.18.08,0,.16.08.22.14l.64.7c.08.08.14.18.14.26,0,.14-.05.18-.5.5Zm2.91-.02c-1.71-.74-3.62-2.46-4.82-6.08h-1.28c-.8,0-1.12.06-1.34.1l-.21-.56c.72.06,1.42.08,1.75.08h.8l.51-.51c.14-.14.21-.18.29-.18.1,0,.16.08.27.18l.59.58c.1.08.13.14.13.24,0,.32-.74.45-1.02.5.77,2.06,3.42,4.11,5.87,4.29l.02.16c-.9.27-1.26.79-1.55,1.22Z"/>
      </g>
      <g>
        <path class="cls-4" d="m1183.25,470.77c.13.06.21.16.21.29,0,.14-.18.24-.67.34-.21.26-.66.78-1.34,1.63-.61.74-1.14,1.33-1.57,1.78.08,0,1.42-.06,2.27-.18-.06-.11-.26-.48-.66-.91l.08-.1c1.25.48,2.21,1.2,2.21,1.94,0,.3-.18.66-.61.66-.38,0-.54-.19-.69-.74-.02-.05-.08-.27-.18-.51l-1.46.32c0,.69.05,3.97.05,4.27.02.32.06,1.76.06,2.05,0,.42-.37.69-.77.69-.34,0-.43-.21-.43-.48,0-.26.06-1.31.06-1.54.02-.51.03-2.08.05-4.79-1.01.22-1.81.4-2.02.45-.1.16-.26.46-.4.46-.16,0-.26-.19-.29-.29l-.35-1.36c.27.06.74.11,1.14.11.5,0,1.23-.02,1.49-.03,1.09-1.47,2.06-3.5,2.29-4.15.06-.16.1-.45.1-.64l1.42.72Zm-6.32,10.53c.69-1.55,1.15-3.59,1.12-4.67l1.31.48c.11.05.22.14.22.22,0,.11-.1.19-.51.35-.51,1.49-.98,2.38-2.06,3.67l-.08-.05Zm.61-10.52c.45.11.98.26,1.38.45.45-.9,1.15-2.64,1.06-3.58l1.52.75c.13.06.19.16.19.24,0,.24-.24.29-.61.35-.75.96-.86,1.1-1.95,2.35.46.29.94.72.94,1.26,0,.37-.24.77-.66.77-.37,0-.46-.19-.82-.98-.37-.83-.74-1.19-1.07-1.52l.02-.1Zm3.78,6.1c.66.29,2.26,1.01,2.26,2.1,0,.51-.37.78-.7.78-.43,0-.51-.32-.72-1.06-.22-.83-.53-1.3-.88-1.76l.05-.06Zm7.65-5.17l.48-.45c.08-.08.18-.18.22-.18.06,0,.18.1.22.14l.77.66c.08.06.14.16.14.24,0,.11-.3.34-.59.54-.1,4.43-.13,6.42-.98,8.05-.59,1.14-1.6,1.55-2.48,1.57-.13-.75-.62-1.25-1.46-1.81l.02-.1c.74.14,1.71.32,2.13.32,1.62,0,1.7-5.28,1.7-6.93,0-.27-.02-1.41-.02-1.68h-4.32c-.78,1.49-1.33,2.03-1.57,2.29l-.1-.06c1.18-2.35,1.73-5.06,1.73-5.89,0-.16-.05-.46-.08-.61l1.73.74c.08.03.18.11.18.22,0,.16-.24.27-.62.45-.18.51-.46,1.31-1.06,2.48h3.95Zm-4.37,3.06c1.52.62,2.27,1.14,2.27,2,0,.38-.19.75-.64.75-.42,0-.54-.18-.9-1.28-.13-.42-.43-.96-.8-1.38l.06-.1Z"/>
        <path class="cls-4" d="m1199.65,469.42v.85c-2.55,3.92-3.44,6.15-3.65,9.71-.03.42-.08,1.43-.9,1.43-.4,0-.82-.34-.82-.88,0-1.14,1.12-4.5,4.5-9.84h-2.74c-2.32,0-2.67,1.07-3.03,2.1l-.48-.11.66-3.25h6.45Z"/>
        <path class="cls-4" d="m1207.65,469.42v.85c-2.55,3.92-3.44,6.15-3.65,9.71-.03.42-.08,1.43-.9,1.43-.4,0-.82-.34-.82-.88,0-1.14,1.12-4.5,4.5-9.84h-2.74c-2.32,0-2.67,1.07-3.03,2.1l-.48-.11.66-3.25h6.45Z"/>
        <path class="cls-4" d="m1212.08,481.41c-1.1,0-2.03-.77-2.62-1.73-.67-1.1-.98-3.07-.98-4.56,0-3.41,1.46-6,3.6-6,1.65,0,3.6,1.78,3.6,6.15,0,3.92-1.65,6.15-3.6,6.15Zm-1.79-9.62c-.22.8-.37,2.15-.37,3.47,0,3.57.85,5.6,2.16,5.6,1.1,0,1.6-1.47,1.78-2.08.22-.82.38-2.18.38-3.52,0-3.65-.88-5.6-2.16-5.6-1.14,0-1.63,1.57-1.79,2.13Z"/>
        <path class="cls-4" d="m1218.88,473.23v1.26c.43-.43,1.26-1.26,2.64-1.26,1.5,0,1.79.98,1.92,1.44.54-.53,1.42-1.44,2.87-1.44s2.05.85,2.05,2.62v3.78c0,.61.32.96.8.96h.3v.51h-3.35v-.51h.29c.56,0,.82-.43.82-.96v-3.68c0-.45-.08-2.03-1.41-2.03-.45,0-1.46.26-2.26,1.39,0,.13.02.26.02.54v3.78c0,.67.37.96.8.96h.46v.51h-3.67v-.51h.46c.43,0,.8-.3.8-.96v-3.68c0-.34-.03-2.03-1.39-2.03-.38,0-1.41.21-2.16,1.27v4.45c0,.67.38.96.8.96h.29v.51h-3.33v-.51h.29c.48,0,.8-.34.8-.96v-4.82c0-.5-.27-.75-.66-.75-.18,0-.34.02-.48.06l-.06-.3,2.35-.59Z"/>
        <path class="cls-4" d="m1231.09,482.26l-.32-.32,14.15-14.15.32.32-14.15,14.15Z"/>
        <path class="cls-4" d="m1246.22,477.25c1.54-1.52,3.3-4.26,3.75-5.31.13-.32.19-.51.3-.94l1.3,1.01c.06.05.1.13.1.21,0,.22-.26.22-.62.29-.26.37-.58.82-1.15,1.57.19.16.27.21.27.32,0,.1-.06.19-.42.45-.05.69-.05,1.31-.05,1.81,0,.69.05,3.78.05,4.4,0,.83,0,1.28-.7,1.28-.29,0-.56-.1-.56-.45,0-.21.1-1.12.1-1.3.05-.98.03-1.39.06-5.04-1.15,1.17-2.03,1.65-2.35,1.82l-.06-.11Zm.06-4.69c2.24-2.1,3.54-4.19,3.71-4.87l1.2.87s.13.11.13.19c0,.18-.06.19-.67.32-1.39,1.86-2.93,2.88-4.29,3.62l-.08-.13Zm12.76.85l.58-.8c.13-.19.19-.21.24-.21.1,0,.16.06.3.18l.94.8c.1.08.16.14.16.24,0,.16-.13.18-.24.18h-5.7l1.49.48c.1.03.21.08.21.19,0,.21-.38.43-.5.48v1.58h1.65l.58-.69c.13-.14.16-.19.26-.19.08,0,.13.03.3.18l.8.67c.08.06.16.13.16.24,0,.14-.13.18-.24.18h-3.51c0,.22-.02,3.44-.02,3.52.37.05,1.23.18,2.38.18,1.47,0,2.21-.21,2.58-.29l.02.06c-.26.21-.78.64-.93,1.55-.26.02-.53.05-.91.05-5.15,0-6-2.9-6.37-4.21-.4,1.1-1.15,3.02-3.22,4.13l-.05-.06c2.37-2.67,2.61-5.78,2.61-6.45,0-.37-.03-.56-.06-.72l1.63.53c.1.03.18.08.18.22,0,.08-.03.13-.08.18-.06.05-.4.21-.46.24-.16.75-.29,1.14-.43,1.57.71,1.57,1.57,2.37,2.07,2.66,0-4.21,0-4.48-.03-5.14-.02-.19-.11-.98-.13-1.14h-1.68c-.4,0-1.17.02-1.89.14l-.32-.64c1.1.1,2.24.11,2.46.11h1.55c0-.94,0-1.95-.02-2.82h-1.23c-.29,0-1.1,0-1.87.14l-.32-.62c.99.08,1.99.1,2.46.1h.96c-.03-1.54-.05-1.66-.29-2.48l1.66.5c.13.03.22.08.22.19s-.4.46-.48.53v1.26h1.57l.62-.77c.1-.11.14-.19.26-.19s.16.05.29.16l.85.77c.08.08.16.14.16.26,0,.14-.14.16-.24.16h-3.52v2.82h2.53Z"/>
        <path class="cls-4" d="m1276.98,473.65h-7.14l.56.13c.34.08.4.08.4.22,0,.13-.05.19-.4.38,0,.45.06,2.46.06,2.87,0,.96,0,1.44-1.68,1.92-.18-.67-.66-1.12-1.36-1.47v-.1c.21,0,1.14.06,1.33.06.58,0,.58-.02.59-.59.02-.75,0-2.58-.02-3.43h-4.35c-.4,0-1.17.02-1.89.14l-.32-.64c1.09.1,2.22.11,2.46.11h.75c0-2.83,0-3.14-.24-4.03l1.57.43c.24.06.3.13.3.27,0,.13-.05.18-.5.48v2.85h2.19c0-3.6,0-4-.03-4.55-.02-.35-.06-.72-.18-1.57l1.47.4c.18.05.3.1.3.27,0,.11,0,.18-.48.45v2.07h2.3l.62-.91c.06-.08.16-.21.26-.21.08,0,.19.1.29.18l1.02.91c.1.1.16.14.16.24,0,.16-.13.18-.24.18h-4.42v2.55h4.4l.75-.96c.1-.13.19-.21.26-.21.08,0,.19.08.29.18l.96.96c.11.11.16.18.16.24,0,.16-.13.18-.24.18Zm-9.09,1.94c-.06.03-.26.08-.4.13-1.07,1.79-2.56,3.15-4.34,4.19l-.06-.08c1.71-1.81,2.88-3.94,3.1-4.47.13-.29.21-.58.3-.96l1.25.66c.14.08.27.14.27.34,0,.08-.05.16-.13.19Zm4.9,2.85c-2.56,2.24-5.09,3.7-9,3.83l-.02-.11c2.39-.59,4.82-1.52,7.11-3.63.53-.48,1.09-1.01,1.42-1.58l.98.96c.13.13.19.21.19.3,0,.19-.06.19-.69.24Zm2.79.42c-.46,0-.69-.35-.99-.85-1.01-1.65-1.83-2.4-2.9-3.17l.06-.1c2.87.69,4.47,2.45,4.47,3.43,0,.34-.26.69-.64.69Z"/>
        <path class="cls-4" d="m1279.35,480.6h.88c.83,0,1.12-.32,1.12-.98v-8.66c0-.5-.46-.58-.77-.58h-1.22v-.5h.29c1.23,0,2.42-.56,2.61-.67.11-.06.16-.1.22-.1.14,0,.18.1.18.22v10.28c0,.69.34.98,1.12.98h.88v.51h-5.31v-.51Z"/>
        <path class="cls-4" d="m1290,481.41c-1.1,0-2.03-.77-2.62-1.73-.67-1.1-.98-3.07-.98-4.56,0-3.41,1.46-6,3.6-6,1.65,0,3.6,1.78,3.6,6.15,0,3.92-1.65,6.15-3.6,6.15Zm-1.79-9.62c-.22.8-.37,2.15-.37,3.47,0,3.57.85,5.6,2.16,5.6,1.1,0,1.6-1.47,1.78-2.08.22-.82.38-2.18.38-3.52,0-3.65-.88-5.6-2.16-5.6-1.14,0-1.63,1.57-1.79,2.13Z"/>
        <path class="cls-4" d="m1299.73,470.06c-1.33,2.72-3.75,4.77-4.96,5.44l-.08-.11c2.24-2.54,3.5-4.79,3.87-5.86.14-.4.21-.72.26-1.03l1.38.93c.08.05.21.14.21.26,0,.19-.42.3-.67.37Zm5.81,5.01c-.16,5.76-.48,6.93-3.36,7.19-.06-1.01-.85-1.54-1.2-1.76l.02-.11c.67.14,1.36.27,1.86.27.77,0,1.07-.18,1.31-1.63.19-1.18.29-3.86.24-4.61h-3.23c-.1,2.51-1.17,6.85-6.21,7.78l-.03-.13c3.25-1.51,4.9-3.92,5.06-7.65h-.46c-.4,0-1.17.02-1.89.16l-.3-.64c.99.08,1.97.1,2.45.1h4.53l.43-.38c.1-.1.19-.18.29-.18.08,0,.16.08.22.14l.64.7c.08.08.14.18.14.26,0,.14-.05.18-.5.5Zm2.91-.02c-1.71-.74-3.62-2.46-4.82-6.08h-1.28c-.8,0-1.12.06-1.34.1l-.21-.56c.72.06,1.42.08,1.75.08h.8l.51-.51c.14-.14.21-.18.29-.18.1,0,.16.08.27.18l.59.58c.1.08.13.14.13.24,0,.32-.74.45-1.02.5.77,2.06,3.42,4.11,5.87,4.29l.02.16c-.9.27-1.26.79-1.55,1.22Z"/>
      </g>
      <g>
        <path class="cls-4" d="m1191.25,89.7c.13.06.21.16.21.29,0,.14-.18.24-.67.34-.21.26-.66.78-1.34,1.63-.61.74-1.14,1.33-1.57,1.78.08,0,1.42-.06,2.27-.18-.06-.11-.26-.48-.66-.91l.08-.1c1.25.48,2.21,1.2,2.21,1.94,0,.3-.18.66-.61.66-.38,0-.54-.19-.69-.74-.02-.05-.08-.27-.18-.51l-1.46.32c0,.69.05,3.97.05,4.27.02.32.06,1.76.06,2.05,0,.42-.37.69-.77.69-.34,0-.43-.21-.43-.48,0-.26.06-1.31.06-1.54.02-.51.03-2.08.05-4.79-1.01.22-1.81.4-2.02.45-.1.16-.26.46-.4.46-.16,0-.26-.19-.29-.29l-.35-1.36c.27.06.74.11,1.14.11.5,0,1.23-.02,1.49-.03,1.09-1.47,2.06-3.51,2.29-4.15.06-.16.1-.45.1-.64l1.42.72Zm-6.32,10.53c.69-1.55,1.15-3.59,1.12-4.67l1.31.48c.11.05.22.14.22.22,0,.11-.1.19-.51.35-.51,1.49-.98,2.38-2.06,3.66l-.08-.05Zm.61-10.52c.45.11.98.26,1.38.45.45-.9,1.15-2.64,1.06-3.59l1.52.75c.13.06.19.16.19.24,0,.24-.24.29-.61.35-.75.96-.86,1.1-1.95,2.35.46.29.94.72.94,1.27,0,.37-.24.77-.66.77-.37,0-.46-.19-.82-.98-.37-.83-.74-1.18-1.07-1.52l.02-.1Zm3.78,6.1c.66.29,2.26,1.01,2.26,2.1,0,.51-.37.78-.7.78-.43,0-.51-.32-.72-1.06-.22-.83-.53-1.3-.88-1.76l.05-.06Zm7.65-5.17l.48-.45c.08-.08.18-.18.22-.18.06,0,.18.1.22.14l.77.66c.08.06.14.16.14.24,0,.11-.3.34-.59.54-.1,4.43-.13,6.42-.98,8.05-.59,1.14-1.6,1.55-2.48,1.57-.13-.75-.62-1.25-1.46-1.81l.02-.1c.74.14,1.71.32,2.13.32,1.62,0,1.7-5.28,1.7-6.93,0-.27-.02-1.41-.02-1.68h-4.32c-.78,1.49-1.33,2.03-1.57,2.29l-.1-.06c1.18-2.35,1.73-5.06,1.73-5.89,0-.16-.05-.46-.08-.61l1.73.74c.08.03.18.11.18.22,0,.16-.24.27-.62.45-.18.51-.46,1.31-1.06,2.48h3.95Zm-4.37,3.06c1.52.62,2.27,1.14,2.27,2,0,.38-.19.75-.64.75-.42,0-.54-.18-.9-1.28-.13-.42-.43-.96-.8-1.38l.06-.1Z"/>
        <path class="cls-4" d="m1205.33,88.05h.66v8.13h1.81v.51h-1.81v1.86c0,.71.35.98,1.12.98h.26v.51h-4.07v-.51h.26c.75,0,1.12-.26,1.12-.98v-1.86h-4.31v-.56l4.96-8.08Zm-.66,2.11l-3.7,6.02h3.7v-6.02Z"/>
        <path class="cls-4" d="m1211.38,93.01c.34-.21.83-.42,1.39-.42,1.59,0,2.87,1.6,2.87,3.54,0,2.22-1.58,4.21-3.42,4.21s-3.68-2.06-3.68-5.52c0-3.7,2.08-6.77,4.53-6.77,1.07,0,1.83.64,1.83,1.41,0,.58-.45.83-.82.83-.32,0-.85-.21-.88-1.12-.02-.35-.05-.58-.48-.58s-.86.24-1.17.58c-1.42,1.57-1.5,3.92-1.57,5.36.3-.5.64-1.06,1.41-1.52Zm-.53,5.92c.27.43.69.86,1.3.86.85,0,2.05-.88,2.05-3.52,0-.72-.18-2.96-1.82-2.96-.61,0-1.63.45-2.39,2.18.06.88.19,2.42.87,3.44Z"/>
        <path class="cls-4" d="m1220.08,100.34c-1.1,0-2.03-.77-2.62-1.73-.67-1.1-.98-3.07-.98-4.56,0-3.41,1.46-6,3.6-6,1.65,0,3.6,1.78,3.6,6.15,0,3.92-1.65,6.15-3.6,6.15Zm-1.79-9.62c-.22.8-.37,2.14-.37,3.47,0,3.57.85,5.6,2.16,5.6,1.1,0,1.6-1.47,1.78-2.08.22-.82.38-2.18.38-3.52,0-3.65-.88-5.6-2.16-5.6-1.14,0-1.63,1.57-1.79,2.13Z"/>
        <path class="cls-4" d="m1226.88,92.16v1.26c.43-.43,1.26-1.26,2.64-1.26,1.5,0,1.79.98,1.92,1.44.54-.53,1.42-1.44,2.87-1.44s2.05.85,2.05,2.62v3.78c0,.61.32.96.8.96h.3v.51h-3.35v-.51h.29c.56,0,.82-.43.82-.96v-3.68c0-.45-.08-2.03-1.41-2.03-.45,0-1.46.26-2.26,1.39,0,.13.02.26.02.54v3.78c0,.67.37.96.8.96h.46v.51h-3.67v-.51h.46c.43,0,.8-.3.8-.96v-3.68c0-.34-.03-2.03-1.39-2.03-.38,0-1.41.21-2.16,1.26v4.45c0,.67.38.96.8.96h.29v.51h-3.33v-.51h.29c.48,0,.8-.34.8-.96v-4.82c0-.5-.27-.75-.66-.75-.18,0-.34.02-.48.06l-.06-.3,2.35-.59Z"/>
        <path class="cls-4" d="m1239.09,101.19l-.32-.32,14.15-14.15.32.32-14.15,14.15Z"/>
        <path class="cls-4" d="m1254.22,96.18c1.54-1.52,3.3-4.26,3.75-5.31.13-.32.19-.51.3-.94l1.3,1.01c.06.05.1.13.1.21,0,.22-.26.22-.62.29-.26.37-.58.82-1.15,1.57.19.16.27.21.27.32,0,.1-.06.19-.42.45-.05.69-.05,1.31-.05,1.81,0,.69.05,3.78.05,4.4,0,.83,0,1.28-.7,1.28-.29,0-.56-.1-.56-.45,0-.21.1-1.12.1-1.3.05-.98.03-1.39.06-5.04-1.15,1.17-2.03,1.65-2.35,1.83l-.06-.11Zm.06-4.69c2.24-2.1,3.54-4.19,3.71-4.87l1.2.86s.13.11.13.19c0,.18-.06.19-.67.32-1.39,1.86-2.93,2.88-4.29,3.62l-.08-.13Zm12.76.85l.58-.8c.13-.19.19-.21.24-.21.1,0,.16.06.3.18l.94.8c.1.08.16.14.16.24,0,.16-.13.18-.24.18h-5.7l1.49.48c.1.03.21.08.21.19,0,.21-.38.43-.5.48v1.59h1.65l.58-.69c.13-.14.16-.19.26-.19.08,0,.13.03.3.18l.8.67c.08.06.16.13.16.24,0,.14-.13.18-.24.18h-3.51c0,.22-.02,3.44-.02,3.52.37.05,1.23.18,2.38.18,1.47,0,2.21-.21,2.58-.29l.02.06c-.26.21-.78.64-.93,1.55-.26.02-.53.05-.91.05-5.15,0-6-2.9-6.37-4.21-.4,1.1-1.15,3.03-3.22,4.13l-.05-.06c2.37-2.67,2.61-5.78,2.61-6.45,0-.37-.03-.56-.06-.72l1.63.53c.1.03.18.08.18.22,0,.08-.03.13-.08.18-.06.05-.4.21-.46.24-.16.75-.29,1.14-.43,1.57.71,1.57,1.57,2.37,2.07,2.66,0-4.21,0-4.48-.03-5.14-.02-.19-.11-.98-.13-1.14h-1.68c-.4,0-1.17.02-1.89.14l-.32-.64c1.1.1,2.24.11,2.46.11h1.55c0-.94,0-1.95-.02-2.82h-1.23c-.29,0-1.1,0-1.87.14l-.32-.62c.99.08,1.99.1,2.46.1h.96c-.03-1.54-.05-1.67-.29-2.48l1.66.5c.13.03.22.08.22.19s-.4.46-.48.53v1.26h1.57l.62-.77c.1-.11.14-.19.26-.19s.16.05.29.16l.85.77c.08.08.16.14.16.26,0,.14-.14.16-.24.16h-3.52v2.82h2.53Z"/>
        <path class="cls-4" d="m1284.98,92.58h-7.14l.56.13c.34.08.4.08.4.22,0,.13-.05.19-.4.38,0,.45.06,2.46.06,2.87,0,.96,0,1.44-1.68,1.92-.18-.67-.66-1.12-1.36-1.47v-.1c.21,0,1.14.06,1.33.06.58,0,.58-.02.59-.59.02-.75,0-2.58-.02-3.42h-4.35c-.4,0-1.17.02-1.89.14l-.32-.64c1.09.1,2.22.11,2.46.11h.75c0-2.83,0-3.14-.24-4.03l1.57.43c.24.06.3.13.3.27,0,.13-.05.18-.5.48v2.85h2.19c0-3.6,0-4-.03-4.55-.02-.35-.06-.72-.18-1.57l1.47.4c.18.05.3.1.3.27,0,.11,0,.18-.48.45v2.06h2.3l.62-.91c.06-.08.16-.21.26-.21.08,0,.19.1.29.18l1.02.91c.1.1.16.14.16.24,0,.16-.13.18-.24.18h-4.42v2.54h4.4l.75-.96c.1-.13.19-.21.26-.21.08,0,.19.08.29.18l.96.96c.11.11.16.18.16.24,0,.16-.13.18-.24.18Zm-9.09,1.94c-.06.03-.26.08-.4.13-1.07,1.79-2.56,3.15-4.34,4.19l-.06-.08c1.71-1.81,2.88-3.94,3.1-4.47.13-.29.21-.58.3-.96l1.25.66c.14.08.27.14.27.34,0,.08-.05.16-.13.19Zm4.9,2.85c-2.56,2.24-5.09,3.7-9,3.83l-.02-.11c2.39-.59,4.82-1.52,7.11-3.63.53-.48,1.09-1.01,1.42-1.58l.98.96c.13.13.19.21.19.3,0,.19-.06.19-.69.24Zm2.79.42c-.46,0-.69-.35-.99-.85-1.01-1.65-1.83-2.4-2.9-3.17l.06-.1c2.87.69,4.47,2.45,4.47,3.42,0,.34-.26.69-.64.69Z"/>
        <path class="cls-4" d="m1289.3,93.01c.34-.21.83-.42,1.39-.42,1.58,0,2.87,1.6,2.87,3.54,0,2.22-1.58,4.21-3.42,4.21s-3.68-2.06-3.68-5.52c0-3.7,2.08-6.77,4.53-6.77,1.07,0,1.83.64,1.83,1.41,0,.58-.45.83-.82.83-.32,0-.85-.21-.88-1.12-.02-.35-.05-.58-.48-.58s-.86.24-1.17.58c-1.42,1.57-1.5,3.92-1.57,5.36.3-.5.64-1.06,1.41-1.52Zm-.53,5.92c.27.43.69.86,1.3.86.85,0,2.05-.88,2.05-3.52,0-.72-.18-2.96-1.82-2.96-.61,0-1.63.45-2.39,2.18.06.88.19,2.42.87,3.44Z"/>
        <path class="cls-4" d="m1299.73,89c-1.33,2.72-3.75,4.77-4.96,5.44l-.08-.11c2.24-2.54,3.5-4.79,3.87-5.86.14-.4.21-.72.26-1.02l1.38.93c.08.05.21.14.21.26,0,.19-.42.3-.67.37Zm5.81,5.01c-.16,5.76-.48,6.93-3.36,7.19-.06-1.01-.85-1.54-1.2-1.76l.02-.11c.67.14,1.36.27,1.86.27.77,0,1.07-.18,1.31-1.63.19-1.18.29-3.86.24-4.61h-3.23c-.1,2.51-1.17,6.85-6.21,7.78l-.03-.13c3.25-1.5,4.9-3.92,5.06-7.65h-.46c-.4,0-1.17.02-1.89.16l-.3-.64c.99.08,1.97.1,2.45.1h4.53l.43-.38c.1-.1.19-.18.29-.18.08,0,.16.08.22.14l.64.7c.08.08.14.18.14.26,0,.14-.05.18-.5.5Zm2.91-.02c-1.71-.74-3.62-2.47-4.82-6.08h-1.28c-.8,0-1.12.06-1.34.1l-.21-.56c.72.06,1.42.08,1.75.08h.8l.51-.51c.14-.14.21-.18.29-.18.1,0,.16.08.27.18l.59.58c.1.08.13.14.13.24,0,.32-.74.45-1.02.5.77,2.07,3.42,4.11,5.87,4.29l.02.16c-.9.27-1.26.78-1.55,1.22Z"/>
      </g>
      <g>
        <path class="cls-4" d="m1191.25,149.69c.13.06.21.16.21.29,0,.14-.18.24-.67.34-.21.26-.66.78-1.34,1.63-.61.74-1.14,1.33-1.57,1.78.08,0,1.42-.06,2.27-.18-.06-.11-.26-.48-.66-.91l.08-.1c1.25.48,2.21,1.2,2.21,1.94,0,.3-.18.66-.61.66-.38,0-.54-.19-.69-.74-.02-.05-.08-.27-.18-.51l-1.46.32c0,.69.05,3.97.05,4.27.02.32.06,1.76.06,2.05,0,.42-.37.69-.77.69-.34,0-.43-.21-.43-.48,0-.26.06-1.31.06-1.54.02-.51.03-2.08.05-4.79-1.01.22-1.81.4-2.02.45-.1.16-.26.46-.4.46-.16,0-.26-.19-.29-.29l-.35-1.36c.27.06.74.11,1.14.11.5,0,1.23-.02,1.49-.03,1.09-1.47,2.06-3.5,2.29-4.15.06-.16.1-.45.1-.64l1.42.72Zm-6.32,10.53c.69-1.55,1.15-3.59,1.12-4.67l1.31.48c.11.05.22.14.22.22,0,.11-.1.19-.51.35-.51,1.49-.98,2.38-2.06,3.67l-.08-.05Zm.61-10.52c.45.11.98.26,1.38.45.45-.9,1.15-2.64,1.06-3.59l1.52.75c.13.06.19.16.19.24,0,.24-.24.29-.61.35-.75.96-.86,1.1-1.95,2.35.46.29.94.72.94,1.26,0,.37-.24.77-.66.77-.37,0-.46-.19-.82-.98-.37-.83-.74-1.19-1.07-1.52l.02-.1Zm3.78,6.1c.66.29,2.26,1.01,2.26,2.1,0,.51-.37.78-.7.78-.43,0-.51-.32-.72-1.06-.22-.83-.53-1.3-.88-1.76l.05-.06Zm7.65-5.17l.48-.45c.08-.08.18-.18.22-.18.06,0,.18.1.22.14l.77.66c.08.06.14.16.14.24,0,.11-.3.34-.59.54-.1,4.43-.13,6.42-.98,8.05-.59,1.14-1.6,1.55-2.48,1.57-.13-.75-.62-1.25-1.46-1.81l.02-.1c.74.14,1.71.32,2.13.32,1.62,0,1.7-5.28,1.7-6.93,0-.27-.02-1.41-.02-1.68h-4.32c-.78,1.49-1.33,2.03-1.57,2.29l-.1-.06c1.18-2.35,1.73-5.06,1.73-5.89,0-.16-.05-.46-.08-.61l1.73.74c.08.03.18.11.18.22,0,.16-.24.27-.62.45-.18.51-.46,1.31-1.06,2.48h3.95Zm-4.37,3.06c1.52.62,2.27,1.14,2.27,2,0,.38-.19.75-.64.75-.42,0-.54-.18-.9-1.28-.13-.42-.43-.96-.8-1.38l.06-.1Z"/>
        <path class="cls-4" d="m1201.83,149.61l-.14,4.03c.69-.61,1.3-1.1,2.48-1.1,2.3,0,3.41,1.91,3.41,3.66,0,2.32-1.84,4.13-3.95,4.13-1.82,0-3.03-1.36-3.03-2.35,0-.61.38-.99.93-.99.48,0,.83.32.83.83,0,.16-.02.22-.08.48-.03.13-.05.35-.05.45,0,.69.72,1.04,1.36,1.04,1.3,0,2.51-1.23,2.51-3.38,0-2.03-1.07-3.15-2.24-3.15-.64,0-1.62.35-2.5,1.39l-.24-.13.24-6.18h5.57l-.32,1.26h-4.79Z"/>
        <path class="cls-4" d="m1209.83,149.61l-.14,4.03c.69-.61,1.3-1.1,2.48-1.1,2.3,0,3.41,1.91,3.41,3.66,0,2.32-1.84,4.13-3.95,4.13-1.82,0-3.03-1.36-3.03-2.35,0-.61.38-.99.93-.99.48,0,.83.32.83.83,0,.16-.02.22-.08.48-.03.13-.05.35-.05.45,0,.69.72,1.04,1.36,1.04,1.3,0,2.51-1.23,2.51-3.38,0-2.03-1.07-3.15-2.24-3.15-.64,0-1.62.35-2.5,1.39l-.24-.13.24-6.18h5.57l-.32,1.26h-4.79Z"/>
        <path class="cls-4" d="m1220.08,160.33c-1.1,0-2.03-.77-2.62-1.73-.67-1.1-.98-3.07-.98-4.56,0-3.41,1.46-6,3.6-6,1.65,0,3.6,1.78,3.6,6.15,0,3.92-1.65,6.15-3.6,6.15Zm-1.79-9.62c-.22.8-.37,2.15-.37,3.47,0,3.57.85,5.6,2.16,5.6,1.1,0,1.6-1.47,1.78-2.08.22-.82.38-2.18.38-3.52,0-3.65-.88-5.6-2.16-5.6-1.14,0-1.63,1.57-1.79,2.13Z"/>
        <path class="cls-4" d="m1226.88,152.15v1.26c.43-.43,1.26-1.26,2.64-1.26,1.5,0,1.79.98,1.92,1.44.54-.53,1.42-1.44,2.87-1.44s2.05.85,2.05,2.62v3.78c0,.61.32.96.8.96h.3v.51h-3.35v-.51h.29c.56,0,.82-.43.82-.96v-3.68c0-.45-.08-2.03-1.41-2.03-.45,0-1.46.26-2.26,1.39,0,.13.02.26.02.55v3.78c0,.67.37.96.8.96h.46v.51h-3.67v-.51h.46c.43,0,.8-.3.8-.96v-3.68c0-.34-.03-2.03-1.39-2.03-.38,0-1.41.21-2.16,1.27v4.45c0,.67.38.96.8.96h.29v.51h-3.33v-.51h.29c.48,0,.8-.34.8-.96v-4.82c0-.5-.27-.75-.66-.75-.18,0-.34.02-.48.06l-.06-.3,2.35-.59Z"/>
        <path class="cls-4" d="m1239.09,161.18l-.32-.32,14.15-14.15.32.32-14.15,14.15Z"/>
        <path class="cls-4" d="m1254.22,156.17c1.54-1.52,3.3-4.26,3.75-5.31.13-.32.19-.51.3-.94l1.3,1.01c.06.05.1.13.1.21,0,.22-.26.22-.62.29-.26.37-.58.82-1.15,1.57.19.16.27.21.27.32,0,.1-.06.19-.42.45-.05.69-.05,1.31-.05,1.81,0,.69.05,3.78.05,4.4,0,.83,0,1.28-.7,1.28-.29,0-.56-.1-.56-.45,0-.21.1-1.12.1-1.3.05-.98.03-1.39.06-5.04-1.15,1.17-2.03,1.65-2.35,1.82l-.06-.11Zm.06-4.69c2.24-2.1,3.54-4.19,3.71-4.87l1.2.87s.13.11.13.19c0,.18-.06.19-.67.32-1.39,1.86-2.93,2.88-4.29,3.62l-.08-.13Zm12.76.85l.58-.8c.13-.19.19-.21.24-.21.1,0,.16.06.3.18l.94.8c.1.08.16.14.16.24,0,.16-.13.18-.24.18h-5.7l1.49.48c.1.03.21.08.21.19,0,.21-.38.43-.5.48v1.58h1.65l.58-.69c.13-.14.16-.19.26-.19.08,0,.13.03.3.18l.8.67c.08.06.16.13.16.24,0,.14-.13.18-.24.18h-3.51c0,.22-.02,3.44-.02,3.52.37.05,1.23.18,2.38.18,1.47,0,2.21-.21,2.58-.29l.02.06c-.26.21-.78.64-.93,1.55-.26.02-.53.05-.91.05-5.15,0-6-2.9-6.37-4.21-.4,1.1-1.15,3.02-3.22,4.13l-.05-.06c2.37-2.67,2.61-5.78,2.61-6.45,0-.37-.03-.56-.06-.72l1.63.53c.1.03.18.08.18.22,0,.08-.03.13-.08.18-.06.05-.4.21-.46.24-.16.75-.29,1.14-.43,1.57.71,1.57,1.57,2.37,2.07,2.66,0-4.21,0-4.48-.03-5.14-.02-.19-.11-.98-.13-1.14h-1.68c-.4,0-1.17.02-1.89.14l-.32-.64c1.1.1,2.24.11,2.46.11h1.55c0-.94,0-1.95-.02-2.82h-1.23c-.29,0-1.1,0-1.87.14l-.32-.62c.99.08,1.99.1,2.46.1h.96c-.03-1.54-.05-1.66-.29-2.48l1.66.5c.13.03.22.08.22.19s-.4.46-.48.53v1.26h1.57l.62-.77c.1-.11.14-.19.26-.19s.16.05.29.16l.85.77c.08.08.16.14.16.26,0,.14-.14.16-.24.16h-3.52v2.82h2.53Z"/>
        <path class="cls-4" d="m1284.98,152.57h-7.14l.56.13c.34.08.4.08.4.22,0,.13-.05.19-.4.38,0,.45.06,2.46.06,2.87,0,.96,0,1.44-1.68,1.92-.18-.67-.66-1.12-1.36-1.47v-.1c.21,0,1.14.06,1.33.06.58,0,.58-.02.59-.59.02-.75,0-2.58-.02-3.43h-4.35c-.4,0-1.17.02-1.89.14l-.32-.64c1.09.1,2.22.11,2.46.11h.75c0-2.83,0-3.14-.24-4.03l1.57.43c.24.06.3.13.3.27,0,.13-.05.18-.5.48v2.85h2.19c0-3.6,0-4-.03-4.54-.02-.35-.06-.72-.18-1.57l1.47.4c.18.05.3.1.3.27,0,.11,0,.18-.48.45v2.07h2.3l.62-.91c.06-.08.16-.21.26-.21.08,0,.19.1.29.18l1.02.91c.1.1.16.14.16.24,0,.16-.13.18-.24.18h-4.42v2.54h4.4l.75-.96c.1-.13.19-.21.26-.21.08,0,.19.08.29.18l.96.96c.11.11.16.18.16.24,0,.16-.13.18-.24.18Zm-9.09,1.94c-.06.03-.26.08-.4.13-1.07,1.79-2.56,3.15-4.34,4.19l-.06-.08c1.71-1.81,2.88-3.94,3.1-4.47.13-.29.21-.58.3-.96l1.25.66c.14.08.27.14.27.34,0,.08-.05.16-.13.19Zm4.9,2.85c-2.56,2.24-5.09,3.7-9,3.83l-.02-.11c2.39-.59,4.82-1.52,7.11-3.63.53-.48,1.09-1.01,1.42-1.58l.98.96c.13.13.19.21.19.3,0,.19-.06.19-.69.24Zm2.79.42c-.46,0-.69-.35-.99-.85-1.01-1.65-1.83-2.4-2.9-3.17l.06-.1c2.87.69,4.47,2.45,4.47,3.43,0,.34-.26.69-.64.69Z"/>
        <path class="cls-4" d="m1293.57,148.34v.85c-2.54,3.92-3.44,6.15-3.65,9.71-.03.42-.08,1.43-.9,1.43-.4,0-.82-.34-.82-.88,0-1.14,1.12-4.5,4.5-9.84h-2.74c-2.32,0-2.67,1.07-3.03,2.1l-.48-.11.66-3.25h6.45Z"/>
        <path class="cls-4" d="m1299.73,148.98c-1.33,2.72-3.75,4.77-4.96,5.44l-.08-.11c2.24-2.54,3.5-4.79,3.87-5.86.14-.4.21-.72.26-1.03l1.38.93c.08.05.21.14.21.26,0,.19-.42.3-.67.37Zm5.81,5.01c-.16,5.76-.48,6.93-3.36,7.19-.06-1.01-.85-1.54-1.2-1.76l.02-.11c.67.14,1.36.27,1.86.27.77,0,1.07-.18,1.31-1.63.19-1.18.29-3.86.24-4.61h-3.23c-.1,2.51-1.17,6.85-6.21,7.78l-.03-.13c3.25-1.51,4.9-3.92,5.06-7.65h-.46c-.4,0-1.17.02-1.89.16l-.3-.64c.99.08,1.97.1,2.45.1h4.53l.43-.38c.1-.1.19-.18.29-.18.08,0,.16.08.22.14l.64.7c.08.08.14.18.14.26,0,.14-.05.18-.5.5Zm2.91-.02c-1.71-.74-3.62-2.46-4.82-6.08h-1.28c-.8,0-1.12.06-1.34.1l-.21-.56c.72.06,1.42.08,1.75.08h.8l.51-.51c.14-.14.21-.18.29-.18.1,0,.16.08.27.18l.59.58c.1.08.13.14.13.24,0,.32-.74.45-1.02.5.77,2.06,3.42,4.11,5.87,4.29l.02.16c-.9.27-1.26.79-1.55,1.22Z"/>
      </g>
      <g>
        <path class="cls-4" d="m1191.25,213.16c.13.06.21.16.21.29,0,.14-.18.24-.67.34-.21.26-.66.78-1.34,1.63-.61.74-1.14,1.33-1.57,1.78.08,0,1.42-.06,2.27-.18-.06-.11-.26-.48-.66-.91l.08-.1c1.25.48,2.21,1.2,2.21,1.94,0,.3-.18.66-.61.66-.38,0-.54-.19-.69-.74-.02-.05-.08-.27-.18-.51l-1.46.32c0,.69.05,3.97.05,4.27.02.32.06,1.76.06,2.05,0,.42-.37.69-.77.69-.34,0-.43-.21-.43-.48,0-.26.06-1.31.06-1.54.02-.51.03-2.08.05-4.79-1.01.22-1.81.4-2.02.45-.1.16-.26.46-.4.46-.16,0-.26-.19-.29-.29l-.35-1.36c.27.06.74.11,1.14.11.5,0,1.23-.02,1.49-.03,1.09-1.47,2.06-3.5,2.29-4.15.06-.16.1-.45.1-.64l1.42.72Zm-6.32,10.53c.69-1.55,1.15-3.58,1.12-4.67l1.31.48c.11.05.22.14.22.22,0,.11-.1.19-.51.35-.51,1.49-.98,2.38-2.06,3.67l-.08-.05Zm.61-10.52c.45.11.98.26,1.38.45.45-.9,1.15-2.64,1.06-3.58l1.52.75c.13.06.19.16.19.24,0,.24-.24.29-.61.35-.75.96-.86,1.11-1.95,2.35.46.29.94.72.94,1.26,0,.37-.24.77-.66.77-.37,0-.46-.19-.82-.98-.37-.83-.74-1.19-1.07-1.52l.02-.1Zm3.78,6.1c.66.29,2.26,1.01,2.26,2.1,0,.51-.37.78-.7.78-.43,0-.51-.32-.72-1.06-.22-.83-.53-1.3-.88-1.76l.05-.06Zm7.65-5.17l.48-.45c.08-.08.18-.18.22-.18.06,0,.18.1.22.14l.77.66c.08.06.14.16.14.24,0,.11-.3.34-.59.54-.1,4.43-.13,6.42-.98,8.05-.59,1.14-1.6,1.55-2.48,1.57-.13-.75-.62-1.25-1.46-1.81l.02-.1c.74.14,1.71.32,2.13.32,1.62,0,1.7-5.28,1.7-6.93,0-.27-.02-1.41-.02-1.68h-4.32c-.78,1.49-1.33,2.03-1.57,2.29l-.1-.06c1.18-2.35,1.73-5.06,1.73-5.89,0-.16-.05-.46-.08-.61l1.73.74c.08.03.18.11.18.22,0,.16-.24.27-.62.45-.18.51-.46,1.31-1.06,2.48h3.95Zm-4.37,3.06c1.52.62,2.27,1.14,2.27,2,0,.38-.19.75-.64.75-.42,0-.54-.18-.9-1.28-.13-.42-.43-.96-.8-1.38l.06-.1Z"/>
        <path class="cls-4" d="m1201.83,213.08l-.14,4.03c.69-.61,1.3-1.1,2.48-1.1,2.3,0,3.41,1.91,3.41,3.67,0,2.32-1.84,4.13-3.95,4.13-1.82,0-3.03-1.36-3.03-2.35,0-.61.38-.99.93-.99.48,0,.83.32.83.83,0,.16-.02.22-.08.48-.03.13-.05.35-.05.45,0,.69.72,1.04,1.36,1.04,1.3,0,2.51-1.23,2.51-3.38,0-2.03-1.07-3.15-2.24-3.15-.64,0-1.62.35-2.5,1.39l-.24-.13.24-6.18h5.57l-.32,1.26h-4.79Z"/>
        <path class="cls-4" d="m1209.83,213.08l-.14,4.03c.69-.61,1.3-1.1,2.48-1.1,2.3,0,3.41,1.91,3.41,3.67,0,2.32-1.84,4.13-3.95,4.13-1.82,0-3.03-1.36-3.03-2.35,0-.61.38-.99.93-.99.48,0,.83.32.83.83,0,.16-.02.22-.08.48-.03.13-.05.35-.05.45,0,.69.72,1.04,1.36,1.04,1.3,0,2.51-1.23,2.51-3.38,0-2.03-1.07-3.15-2.24-3.15-.64,0-1.62.35-2.5,1.39l-.24-.13.24-6.18h5.57l-.32,1.26h-4.79Z"/>
        <path class="cls-4" d="m1220.08,223.81c-1.1,0-2.03-.77-2.62-1.73-.67-1.1-.98-3.07-.98-4.56,0-3.41,1.46-6,3.6-6,1.65,0,3.6,1.78,3.6,6.15,0,3.92-1.65,6.15-3.6,6.15Zm-1.79-9.62c-.22.8-.37,2.15-.37,3.47,0,3.57.85,5.6,2.16,5.6,1.1,0,1.6-1.47,1.78-2.08.22-.82.38-2.18.38-3.52,0-3.65-.88-5.6-2.16-5.6-1.14,0-1.63,1.57-1.79,2.13Z"/>
        <path class="cls-4" d="m1226.88,215.63v1.26c.43-.43,1.26-1.26,2.64-1.26,1.5,0,1.79.98,1.92,1.44.54-.53,1.42-1.44,2.87-1.44s2.05.85,2.05,2.62v3.78c0,.61.32.96.8.96h.3v.51h-3.35v-.51h.29c.56,0,.82-.43.82-.96v-3.68c0-.45-.08-2.03-1.41-2.03-.45,0-1.46.26-2.26,1.39,0,.13.02.26.02.54v3.78c0,.67.37.96.8.96h.46v.51h-3.67v-.51h.46c.43,0,.8-.3.8-.96v-3.68c0-.34-.03-2.03-1.39-2.03-.38,0-1.41.21-2.16,1.27v4.45c0,.67.38.96.8.96h.29v.51h-3.33v-.51h.29c.48,0,.8-.34.8-.96v-4.82c0-.5-.27-.75-.66-.75-.18,0-.34.02-.48.06l-.06-.3,2.35-.59Z"/>
        <path class="cls-4" d="m1239.09,224.65l-.32-.32,14.15-14.15.32.32-14.15,14.15Z"/>
        <path class="cls-4" d="m1254.22,219.64c1.54-1.52,3.3-4.26,3.75-5.31.13-.32.19-.51.3-.94l1.3,1.01c.06.05.1.13.1.21,0,.22-.26.22-.62.29-.26.37-.58.82-1.15,1.57.19.16.27.21.27.32,0,.1-.06.19-.42.45-.05.69-.05,1.31-.05,1.81,0,.69.05,3.78.05,4.4,0,.83,0,1.28-.7,1.28-.29,0-.56-.1-.56-.45,0-.21.1-1.12.1-1.3.05-.98.03-1.39.06-5.04-1.15,1.17-2.03,1.65-2.35,1.82l-.06-.11Zm.06-4.69c2.24-2.1,3.54-4.19,3.71-4.87l1.2.87s.13.11.13.19c0,.18-.06.19-.67.32-1.39,1.86-2.93,2.88-4.29,3.62l-.08-.13Zm12.76.85l.58-.8c.13-.19.19-.21.24-.21.1,0,.16.06.3.18l.94.8c.1.08.16.14.16.24,0,.16-.13.18-.24.18h-5.7l1.49.48c.1.03.21.08.21.19,0,.21-.38.43-.5.48v1.58h1.65l.58-.69c.13-.14.16-.19.26-.19.08,0,.13.03.3.18l.8.67c.08.06.16.13.16.24,0,.14-.13.18-.24.18h-3.51c0,.22-.02,3.44-.02,3.52.37.05,1.23.18,2.38.18,1.47,0,2.21-.21,2.58-.29l.02.06c-.26.21-.78.64-.93,1.55-.26.02-.53.05-.91.05-5.15,0-6-2.9-6.37-4.21-.4,1.11-1.15,3.03-3.22,4.13l-.05-.06c2.37-2.67,2.61-5.78,2.61-6.45,0-.37-.03-.56-.06-.72l1.63.53c.1.03.18.08.18.22,0,.08-.03.13-.08.18-.06.05-.4.21-.46.24-.16.75-.29,1.14-.43,1.57.71,1.57,1.57,2.37,2.07,2.66,0-4.21,0-4.48-.03-5.14-.02-.19-.11-.98-.13-1.14h-1.68c-.4,0-1.17.02-1.89.14l-.32-.64c1.1.1,2.24.11,2.46.11h1.55c0-.94,0-1.95-.02-2.82h-1.23c-.29,0-1.1,0-1.87.14l-.32-.62c.99.08,1.99.1,2.46.1h.96c-.03-1.54-.05-1.66-.29-2.48l1.66.5c.13.03.22.08.22.19s-.4.46-.48.53v1.26h1.57l.62-.77c.1-.11.14-.19.26-.19s.16.05.29.16l.85.77c.08.08.16.14.16.26,0,.14-.14.16-.24.16h-3.52v2.82h2.53Z"/>
        <path class="cls-4" d="m1284.98,216.04h-7.14l.56.13c.34.08.4.08.4.22,0,.13-.05.19-.4.38,0,.45.06,2.46.06,2.87,0,.96,0,1.44-1.68,1.92-.18-.67-.66-1.12-1.36-1.47v-.1c.21,0,1.14.06,1.33.06.58,0,.58-.02.59-.59.02-.75,0-2.58-.02-3.43h-4.35c-.4,0-1.17.02-1.89.14l-.32-.64c1.09.1,2.22.11,2.46.11h.75c0-2.83,0-3.14-.24-4.03l1.57.43c.24.06.3.13.3.27,0,.13-.05.18-.5.48v2.85h2.19c0-3.6,0-4-.03-4.54-.02-.35-.06-.72-.18-1.57l1.47.4c.18.05.3.1.3.27,0,.11,0,.18-.48.45v2.07h2.3l.62-.91c.06-.08.16-.21.26-.21.08,0,.19.1.29.18l1.02.91c.1.1.16.14.16.24,0,.16-.13.18-.24.18h-4.42v2.54h4.4l.75-.96c.1-.13.19-.21.26-.21.08,0,.19.08.29.18l.96.96c.11.11.16.18.16.24,0,.16-.13.18-.24.18Zm-9.09,1.94c-.06.03-.26.08-.4.13-1.07,1.79-2.56,3.15-4.34,4.19l-.06-.08c1.71-1.81,2.88-3.94,3.1-4.46.13-.29.21-.58.3-.96l1.25.66c.14.08.27.14.27.34,0,.08-.05.16-.13.19Zm4.9,2.85c-2.56,2.24-5.09,3.7-9,3.83l-.02-.11c2.39-.59,4.82-1.52,7.11-3.63.53-.48,1.09-1.01,1.42-1.58l.98.96c.13.13.19.21.19.3,0,.19-.06.19-.69.24Zm2.79.42c-.46,0-.69-.35-.99-.85-1.01-1.65-1.83-2.4-2.9-3.17l.06-.1c2.87.69,4.47,2.45,4.47,3.43,0,.34-.26.69-.64.69Z"/>
        <path class="cls-4" d="m1293.57,211.82v.85c-2.54,3.92-3.44,6.15-3.65,9.71-.03.42-.08,1.43-.9,1.43-.4,0-.82-.34-.82-.88,0-1.14,1.12-4.5,4.5-9.84h-2.74c-2.32,0-2.67,1.07-3.03,2.1l-.48-.11.66-3.25h6.45Z"/>
        <path class="cls-4" d="m1299.73,212.46c-1.33,2.72-3.75,4.77-4.96,5.44l-.08-.11c2.24-2.54,3.5-4.79,3.87-5.86.14-.4.21-.72.26-1.03l1.38.93c.08.05.21.14.21.26,0,.19-.42.3-.67.37Zm5.81,5.01c-.16,5.76-.48,6.93-3.36,7.19-.06-1.01-.85-1.54-1.2-1.76l.02-.11c.67.14,1.36.27,1.86.27.77,0,1.07-.18,1.31-1.63.19-1.18.29-3.86.24-4.61h-3.23c-.1,2.51-1.17,6.85-6.21,7.78l-.03-.13c3.25-1.51,4.9-3.92,5.06-7.65h-.46c-.4,0-1.17.02-1.89.16l-.3-.64c.99.08,1.97.1,2.45.1h4.53l.43-.38c.1-.1.19-.18.29-.18.08,0,.16.08.22.14l.64.7c.08.08.14.18.14.26,0,.14-.05.18-.5.5Zm2.91-.02c-1.71-.74-3.62-2.46-4.82-6.08h-1.28c-.8,0-1.12.06-1.34.1l-.21-.56c.72.06,1.42.08,1.75.08h.8l.51-.51c.14-.14.21-.18.29-.18.1,0,.16.08.27.18l.59.58c.1.08.13.14.13.24,0,.32-.74.45-1.02.5.77,2.06,3.42,4.11,5.87,4.29l.02.16c-.9.27-1.26.79-1.55,1.22Z"/>
      </g>
    </g>
    <g>
      <line class="cls-1" y1="122.87" x2="640" y2="122.87"/>
      <line class="cls-1" y1="186.86" x2="640" y2="186.86"/>
      <line class="cls-1" y1="314.84" x2="640" y2="314.84"/>
      <line class="cls-1" y1="378.83" x2="640" y2="378.83"/>
      <line class="cls-1" y1="250.85" x2="640" y2="250.85"/>
      <line class="cls-1" y1="442.81" x2="640" y2="442.81"/>
      <line class="cls-1" y1="506.8" x2="640" y2="506.8"/>
    </g>
    <g>
      <line class="cls-1" x1="670" y1="122.87" x2="1310" y2="122.87"/>
      <line class="cls-1" x1="670" y1="186.86" x2="1310" y2="186.86"/>
      <line class="cls-1" x1="670" y1="314.84" x2="1310" y2="314.84"/>
      <line class="cls-1" x1="670" y1="378.83" x2="1310" y2="378.83"/>
      <line class="cls-1" x1="670" y1="250.85" x2="1310" y2="250.85"/>
      <line class="cls-1" x1="670" y1="442.81" x2="1310" y2="442.81"/>
      <line class="cls-1" x1="670" y1="506.8" x2="1310" y2="506.8"/>
    </g>
    <rect class="cls-2" y="41.89" width="1310" height="6.82"/>
    <g>
      <path class="cls-4" d="m17.89,6.16l-1.05.42c-1.12-1.96-3.15-5.43-7.63-5.43-3.96,0-4.8,3.12-4.8,4.62,0,2.91,2.1,3.99,6.69,5.6,1.19.42,2.35.91,3.43,1.47,2.73,1.4,4.59,3.04,4.59,6.48,0,4.73-3.71,7.56-7.6,7.56-1.23,0-2.45-.28-3.75-.7-.98-.35-1.23-.35-1.44-.35-1.12,0-2.38.73-2.8.98l-2.59-6.75,1.33-.63c.94,1.65,1.5,2.52,2.77,3.64,1.47,1.29,3.71,2.59,6.3,2.59,2.35,0,5.18-1.57,5.18-5.29,0-3.22-2.06-4.34-6.51-5.88C5.08,12.81,1.89,10.99,1.89,6.79,1.89,3.12,4.45,0,8.93,0c.66,0,1.54.07,2.49.28.39.1,1.82.38,2.1.38,1.23,0,1.61-.35,1.96-.67l2.41,6.16Z"/>
      <path class="cls-4" d="m38.99,12.6V4.24c0-1.5-.91-2.42-2.52-2.42h-1.19V.67h10.19v1.16h-1.23c-1.54,0-2.48.84-2.48,2.42v18.45c0,1.54.94,2.42,2.48,2.42h1.23v1.12h-10.19v-1.12h1.19c1.54,0,2.52-.88,2.52-2.42v-8.96h-11.2v8.96c0,1.58.98,2.42,2.49,2.42h1.19v1.12h-10.15v-1.12h1.19c1.47,0,2.49-.8,2.49-2.42V4.24c0-1.54-.94-2.42-2.49-2.42h-1.19V.67h10.15v1.16h-1.19c-1.44,0-2.49.77-2.49,2.42v8.37h11.2Z"/>
      <path class="cls-4" d="m59.96,26.88c-6.76,0-11.45-5.53-11.45-13.44S53.13,0,59.96.04c6.72,0,11.41,5.53,11.41,13.41s-4.66,13.44-11.41,13.44Zm8.09-13.76c0-3.33-.98-11.97-8.09-11.97-7.84,0-8.12,10.29-8.12,12.64,0,3.47,1.05,11.94,8.12,11.94,7.77,0,8.09-10.19,8.09-12.6Z"/>
      <path class="cls-4" d="m74.23.67h9.84c4.83,0,9.98,1.54,9.98,6.65,0,3.61-2.73,6.79-9.07,6.79h-4.27v8.58c0,1.54.98,2.42,2.49,2.42h1.12v1.12h-10.08v-1.12h1.23c1.47,0,2.49-.8,2.49-2.42V4.24c0-1.58-.98-2.42-2.49-2.42h-1.23V.67Zm6.48,12.32h3.57c3.82,0,6.44-1.82,6.44-5.6,0-3.54-2.56-5.57-6.02-5.57h-1.51c-1.51,0-2.49.84-2.49,2.42v8.75Z"/>
      <path class="cls-4" d="m96.28.67h9.84c4.83,0,9.98,1.54,9.98,6.65,0,3.61-2.73,6.79-9.07,6.79h-4.27v8.58c0,1.54.98,2.42,2.49,2.42h1.12v1.12h-10.08v-1.12h1.23c1.47,0,2.49-.8,2.49-2.42V4.24c0-1.58-.98-2.42-2.49-2.42h-1.23V.67Zm6.48,12.32h3.57c3.82,0,6.44-1.82,6.44-5.6,0-3.54-2.56-5.57-6.02-5.57h-1.51c-1.51,0-2.49.84-2.49,2.42v8.75Z"/>
      <path class="cls-4" d="m129.36,1.82h-1.68c-1.44,0-2.49.77-2.49,2.42v18.45c0,1.58.98,2.42,2.49,2.42h1.68v1.12h-11.1v-1.12h1.64c1.44,0,2.52-.77,2.52-2.42V4.24c0-1.58-.98-2.42-2.52-2.42h-1.64V.67h11.1v1.16Z"/>
      <path class="cls-4" d="m150.96,26.22l-14.67-22.51v18.34c0,1.82,1.12,3.05,3.05,3.05h.95v1.12h-9.1v-1.12h1.12c1.72,0,2.87-1.01,2.87-3.05V4.55c0-1.72-1.26-2.73-2.87-2.73h-1.12V.67h6.48l13.16,20.41V4.59c0-1.68-1.19-2.77-2.73-2.77h-1.26V.67h9.14v1.16h-1.33c-1.65,0-2.66.95-2.66,2.77v21.63h-1.02Z"/>
      <path class="cls-4" d="m177.52,25.45c-.67-.17-.94-.28-1.44-.28-.28,0-.7.04-2.14.63-2.38,1.01-3.64,1.08-4.73,1.08-6.97,0-10.85-5.74-10.85-13.23,0-7.95,4.34-13.65,10.4-13.65.63,0,1.51.04,3.36.59,1.12.35,1.4.35,1.65.35.35,0,1.23,0,2.31-.88l2.28,6.72-1.05.46c-.66-1.26-1.19-2.21-2.41-3.4-.77-.7-3.08-2.7-5.99-2.7-4.73,0-7.39,6.23-7.39,12.32,0,6.44,2.94,12.29,8.02,12.29,2.77,0,5.29-1.86,5.29-4.8v-2.03c0-1.85-1.29-2.55-2.62-2.55h-1.43v-1.12h9.28v1.12c-.63,0-.95,0-1.47.35-.91.63-1.05,1.72-1.05,2.31v6.41Z"/>
    </g>
  </g>
</svg>