<svg id="_レイヤー_1-2" xmlns="http://www.w3.org/2000/svg" width="777.66" height="71.11" viewBox="0 0 777.66 71.11">
  <path id="パス_18" data-name="パス 18" d="M32.11,70.06H0v-69H30.94V3.17H6.72V31.06H28.55v2.11H6.72V67.95H32.11Z" fill="#fff"/>
  <path id="パス_19" data-name="パス 19" d="M97.67,71.11,55.28,13.72V70.05H53.22V0L95.61,56.83V1.11h2.06Z" fill="#fff"/>
  <path id="パス_20" data-name="パス 20" d="M163.67,3.17H145.61V70.06h-6.72V3.17H120.61V1.06h43.06V3.17Z" fill="#fff"/>
  <path id="パス_21" data-name="パス 21" d="M230.03,70.11h-7.31L200.66,31.78c1.07.07,2.11.11,3.11.11q14.715,0,14.72-13.83,0-15.27-18.5-15h-4.5V70.12h-6.67V1.17q1.56-.105,12.06-.11,24.27-.225,24.28,16.71a14.607,14.607,0,0,1-4.33,10.91q-4.32,4.245-11.76,5.14l20.95,36.29Z" fill="#fff"/>
  <path id="パス_22" data-name="パス 22" d="M299.83,70.06h-7.04L281.42,40.84H265.54V38.73h15.05L270.14,11.71,247.59,70.06h-2.38L272.44,0l27.39,70.06Z" fill="#fff"/>
  <path id="パス_23" data-name="パス 23" d="M365.66,71.11,323.27,13.72V70.05h-2.06V0L363.6,56.83V1.11h2.06v70Z" fill="#fff"/>
  <path id="パス_24" data-name="パス 24" d="M440.11,60.49q-7.785,10.23-21.06,10.23c-8.86,0-15.77-3.52-22.08-10.55a35.7,35.7,0,0,1-9.47-24.65,37.664,37.664,0,0,1,8.56-24.65Q404.775.325,417.23.32c8.3,0,14.83,2.3,20.17,6.89l-2.61,3.11a23.02,23.02,0,0,0-17.55-7.89c-6.85,0-12.09,3.24-16.17,9.73q-5.835,9.225-5.83,23.35c0,9.41,2.26,17.01,6.78,23.35q6.84,9.735,17.06,9.73,11.835,0,18.17-10.39l2.89,2.27Z" fill="#fff"/>
  <path id="パス_25" data-name="パス 25" d="M494.99,70.06H462.88v-69h30.94V3.17H469.6V31.06h21.83v2.11H469.6V67.95h25.39Z" fill="#fff"/>
  <path id="パス_26" data-name="パス 26" d="M596.44,70h-6.72V33.17H556.78V70h-6.72V1.17h6.72V31.06h32.94V1.17h6.72Z" fill="#fff"/>
  <path id="パス_27" data-name="パス 27" d="M672.05,70.06h-7.04L653.64,40.84H637.76V38.73h15.05L642.37,11.71,619.82,70.06h-2.38L644.66,0Z" fill="#fff"/>
  <path id="パス_28" data-name="パス 28" d="M725.55,70.06H693.44v-69h6.72V67.95h25.39Z" fill="#fff"/>
  <path id="パス_29" data-name="パス 29" d="M777.66,70.06H745.55v-69h6.72V67.95h25.39Z" fill="#fff"/>
</svg>
