<?xml version="1.0" encoding="UTF-8"?>
<svg id="_レイヤー_2" data-name="レイヤー 2" xmlns="http://www.w3.org/2000/svg" viewBox="0 0 347.35 81">
  <defs>
    <style>
      .cls-1 {
        fill: none;
        stroke: #000;
        stroke-miterlimit: 10;
      }

      .cls-2, .cls-3, .cls-4 {
        stroke-width: 0px;
      }

      .cls-3 {
        fill: #1c2c5a;
      }

      .cls-4 {
        fill: #0b090d;
      }
    </style>
  </defs>
  <g id="_レイヤー_1-2" data-name="レイヤー 1">
    <g>
      <path class="cls-4" d="m38,21.5c-1.06-.38-3.48-2.06-3.48-2.06-2.21-1.32-3.62-3.17-4.99-5.14.02,1.1.05,5.9.1,6.89,0,.12.02.65.02.74,0,.41-.05.62-.31.82-.31.22-.67.31-.82.31-.41,0-.48-.43-.48-.67,0-.19.02-1.03.05-1.2,0-.96.1-5.16.12-6.03-3.24,3.55-7.51,5.86-10.1,6.53l-.1-.17c2.86-1.2,7.39-4.97,9.22-7.25h-3.7c0,.55-.05.67-.12.77-.22.29-.55.43-.91.43-.41,0-.43-.26-.43-.41,0-.07.02-.34.05-.43.1-1.15.14-3.34.14-4.42,0-2.26-.05-2.54-.31-3.94l1.78.82h4.54c0-.36,0-1.01-.02-2.45h-6.46c-.84,0-2.16.1-3.07.26l-.58-1.03c1.8.14,3.55.19,3.98.19h6.1c-.05-1.32-.12-2.38-.5-3.1l2.26.58c.14.05.36.1.36.26,0,.14-.07.24-.29.41-.19.17-.36.29-.48.38,0,.1-.02.98-.02,1.46h7.15l.79-1.15c.12-.17.22-.29.34-.29.17,0,.34.14.46.24l1.3,1.15c.12.1.24.22.24.36,0,.22-.22.26-.36.26h-9.91v2.45h4.42l.79-.62c.12-.1.17-.12.26-.12.07,0,.17.05.24.1l1.03.77c.14.12.22.17.22.31,0,.12-.07.22-.22.31q-.34.22-.58.41c0,1.82,0,1.9.19,5.62.02.24.02.48.02.5,0,.41-.07.58-.41.74-.22.12-.46.17-.58.17-.48,0-.48-.34-.46-1.01h-4.49c1.75,1.9,5.47,5.04,10.39,5.18v.22c-1.34.34-1.63.72-2.38,1.82Zm-9.75-13.83h-4.73v2.59h4.73v-2.59Zm0,3.17h-4.73v2.86h4.73v-2.86Zm6.22-3.17h-4.94v2.59h4.94v-2.59Zm0,3.17h-4.94v2.86h4.94v-2.86Z"/>
      <path class="cls-4" d="m45.37,21.43c-.46,0-.86-.41-.86-.82,0-.5.41-.84.98-1.32.5-.43,1.37-1.18,1.87-2.71h.12c.02.22.07.5.07.82,0,1.34-.7,4.03-2.18,4.03Zm18.43-13.95c-.34.19-.36.22-.53.36-.02.43-.02.89.02,2.4.02.36.17,3.19.17,3.31,0,.72-.6.89-1.01.89-.55,0-.58-.34-.55-.84h-11.26c-.84,0-2.16.1-3.07.29l-.58-1.03c1.8.14,3.55.17,3.98.17h10.92v-2.52h-10.92c-.84,0-2.18.1-3.1.26l-.55-1.03c1.8.14,3.53.19,3.98.19h10.58v-2.47h-13.97c-1.3,1.1-2.33,1.73-3.02,2.14l-.1-.17c3.6-3.05,6.05-6.6,6.24-8.59l1.82.89c.24.12.36.22.36.38,0,.29-.26.36-.94.48-.22.26-.5.62-.62.79h5.95l.72-.67c.26-.24.34-.26.41-.26.14,0,.22.07.48.26l1.01.79c.1.1.17.17.17.31,0,.19-.17.29-.24.29-.19.07-1.06.24-1.22.29-.46.38-2.5,2.16-2.93,2.5h5.47l.82-.67c.26-.22.29-.24.41-.24.14,0,.34.17.36.22l.67.58c.22.19.29.26.29.38,0,.14-.07.24-.24.34Zm-12.58-3.53c-1.27,1.56-1.9,2.23-2.64,2.93h6.96c.24-.36,1.27-2.02,1.39-2.21.17-.29.22-.38.38-.72h-6.1Zm9,18.15c-.41.07-.7.12-1.32.12-1.92.05-3.82.05-5.74.05s-2.54-.1-2.54-2.18c0-.38.05-2.06.05-2.4,0-1.46-.1-2.16-.24-2.71l1.9.55c.38.12.41.24.41.31,0,.19-.24.34-.31.36-.26.17-.29.17-.48.36v3.62c0,.65.26.74.53.82.22.05,3.24.07,3.72.07,2.86,0,3.17-.38,3.43-1.13.14-.38.46-1.54.6-2.5h.19c.1.41.38,2.18.53,2.52.07.24.12.26.53.55.14.12.24.24.24.41,0,0-.02.91-1.49,1.18Zm-3.41-3.96c-.5,0-.58-.19-.98-1.1-.65-1.42-1.06-1.78-1.44-2.11l.05-.12c1.97.34,3.17,1.63,3.17,2.47,0,.31-.12.86-.79.86Zm8.54,1.97c-.6,0-.72-.29-1.08-1.06-.62-1.42-.94-2.14-2.04-2.93l.07-.14c2.78.79,3.82,2.38,3.82,3.19,0,.58-.29.94-.77.94Z"/>
      <path class="cls-4" d="m73.59,21.31c3.24-1.7,5.95-4.73,6.98-6.12,2.18-2.93,3.1-6.07,3.7-8.3-5.09.26-9.96,1.08-10.39,1.25-.38.17-.5.22-.74.38-.29.14-.38.17-.46.17-.26,0-.7-.48-.91-.72-.29-.34-.79-.91-.79-1.75,0-.22.02-.36.12-.67.46.65,1.08,1.15,1.22,1.22.38.17.53.17,1.08.17.98,0,10.27-.91,10.59-1.01.17-.07.84-.6.91-.6.19,0,1.9,1.32,1.9,1.78,0,.17-.07.19-.77.58-.46.24-.53.41-.79,1.13-1.61,4.3-2.59,6.38-5.16,8.83-1.85,1.73-3.98,3.17-6.41,3.86l-.07-.19Zm14.93-15.34c-1.25,0-2.26-1.01-2.26-2.26s1.01-2.26,2.26-2.26,2.26,1.03,2.26,2.26-1.01,2.26-2.26,2.26Zm0-3.72c-.82,0-1.46.67-1.46,1.46s.65,1.49,1.46,1.49,1.49-.67,1.49-1.49-.67-1.46-1.49-1.46Z"/>
      <path class="cls-4" d="m96.9,21.67c5.98-2.62,9.72-8.69,10.3-12.24-1.85.14-8.71.79-9.79,1.49-.46.31-.5.34-.67.34-.62,0-2.26-1.39-2.26-2.66,0-.19.02-.38.12-.74.58.91,1.46,1.56,2.59,1.56.89,0,8.9-.65,9.53-.79.22-.05.43-.12,1.03-.65.14-.14.24-.19.34-.19.26,0,1.9,1.2,1.9,1.66,0,.24-.07.26-.77.6-.48.24-.5.29-.79,1.06-.22.53-2.09,5.09-5.57,7.95-1.7,1.42-3.72,2.42-5.9,2.81l-.05-.17Zm2.45-16.9c1.2,0,4.9-.38,5.86-.72.77-.29.86-.31,1.1-.31.38,0,1.68.14,1.68.77s-.67.65-2.52.77c-1.13.07-6.6.65-7.15.65-.48,0-1.63-.53-1.82-2.28,1.08.91,1.44,1.13,2.86,1.13Z"/>
      <path class="cls-4" d="m123.37,22.03c3.79-3.55,4.25-7.87,4.34-12.62-1.7.07-4.85.43-5.62.53.02.67.05,3.7.07,4.32.02.29.02.31.02.55,0,.46,0,1.27-.55,1.27-.46,0-.89-.94-.89-1.68,0-.19.12-1.08.14-1.25.02-.05.14-1.18.14-3.07-1.15.19-2.23.41-3.29.84-.14.07-.77.34-.89.34-.29,0-1.66-.84-1.66-2.23,0-.29.02-.46.1-.74.91,1.27,1.51,1.3,2.02,1.3.24,0,.65-.02.74-.05,1.34-.12,1.49-.14,2.98-.29-.02-.62-.12-4.13-.31-4.49-.24-.46-.62-.55-1.61-.82.62-.46,1.22-.53,1.39-.53.77,0,1.9.7,1.9,1.1,0,.17-.19.77-.22.91-.1.55-.1,2.98-.1,3.7,2.71-.26,3.02-.29,5.62-.46.02-.79.07-4.27-.34-4.85-.22-.29-1.37-.62-1.82-.77.67-.41,1.2-.5,1.51-.5.43,0,2.33.43,2.33,1.3,0,.12-.19.82-.22.89-.22.67-.26,3.05-.26,3.86.43-.02,2.35-.14,2.76-.17.43-.05.65-.07,1.15-.24.07-.02.24-.07.43-.07.24,0,2.09.6,2.09,1.25,0,.41-.19.6-.53.6-.1,0-1.78-.31-2.11-.36-.38-.05-2.76-.22-3.82-.22-.1,4.73-.19,9.89-5.45,12.82l-.07-.17Zm10.2-18.12c.62.36,1.01.98,1.01,1.7,0,.58-.34.62-.43.62-.29,0-.36-.07-1.25-1.3-.12-.17-.82-1.15-1.97-2.04,1.34.24,2.42.89,2.64,1.01Zm3.38-.24c0,.55-.22.86-.46.86-.29,0-.36-.1-1.06-.98-.29-.38-1.18-1.25-2.42-1.99,1.87.07,3.94,1.01,3.94,2.11Z"/>
      <path class="cls-4" d="m161.36,4.08h-7.13c0,.17.02.91.02,1.06,0,.46-.43.89-.84.89-.34,0-.53-.26-.53-.67,0-.19.05-1.08.05-1.27h-4.61c.02.26.12,1.49.12,1.73,0,.31-.58.62-1.01.62-.29,0-.36-.14-.36-.38,0-.31.07-1.68.07-1.97h-2.64c-.84,0-2.16.1-3.07.29l-.58-1.06c1.97.17,3.74.19,3.98.19h2.28c-.02-1.3-.1-1.73-.24-2.38l1.9.5c.17.05.31.12.31.29s-.41.46-.7.67c-.05.43-.05.6-.05.91h4.61c0-1.08-.12-1.66-.29-2.38l1.94.5c.12.02.31.12.31.26,0,.29-.53.55-.72.62v.98h4.56l.7-.94c.1-.12.24-.29.38-.29.12,0,.22.1.41.24l1.22.94c.12.1.24.22.24.36,0,.24-.22.26-.36.26Zm-17.98,9.05c-.36,0-.41-.1-.96-.98-.12-.17-.6-.98-1.25-1.56l.05-.17c2.35.24,2.86,1.61,2.86,1.94,0,.43-.29.77-.7.77Zm.89,3.94c-.07.17-.53,1.51-.53,1.85,0,.26.22.74.46,1.27.26.6.36,1.15.36,1.54,0,.7-.34,1.2-.91,1.2s-.89-.38-.89-1.01c0-.19.02-1.01.02-1.18,0-1.2-.26-2.62-1.49-3.1v-.14c1.06,0,1.18,0,1.42-.31.77-1.03,3.22-5.78,3.77-6.82l.07.02c-.41,1.61-.74,2.52-2.28,6.67Zm1.15-8.38c-.38,0-.43-.07-1.03-1.18-.53-1.01-.79-1.2-1.08-1.42l.05-.12c.62.12,1.56.34,2.06.74.41.31.72.79.72,1.15,0,.38-.19.82-.72.82Zm16.47,0h-7.42c-.02.48-.02,1.61-.02,2.11h3.79l.48-.55c.12-.14.19-.22.29-.22.12,0,.31.17.48.31l.94.79s.14.14.14.26c0,.26-.43.46-.86.67.02,1.27.02,3.5.1,4.85.1,1.42.1,2.52.1,2.76,0,1.51,0,2.86-2.16,3.12-.26-1.13-1.44-1.7-1.54-1.75l.02-.12c.19,0,1.46.02,1.75,0,.55-.05.55-.53.55-1.56,0-.29-.02-1.63-.02-1.92h-3.91c0,.62.1,4.34.1,4.68,0,.6-.55.86-1.06.86-.46,0-.5-.26-.5-.5,0-.31.07-4.46.1-5.04h-3.65c0,.7.1,3.98.1,4.37,0,.6-.55.84-1.08.84-.36,0-.41-.19-.41-.5,0-1.25.12-6.77.12-7.9,0-.98,0-3.34-.19-4.15l1.63.7h3.5v-2.11h-2.71c-.84,0-2.18.1-3.1.29l-.55-1.03c1.97.14,3.74.17,3.98.17h2.38c0-.82-.02-1.22-.22-1.94l2.06.6c.1.02.19.1.19.22,0,.24-.26.38-.77.62,0,.1-.02.36-.02.5h5.26l.46-.77c.1-.17.24-.38.36-.38s.34.17.43.24l1.01.86c.14.12.24.24.24.38,0,.22-.22.24-.36.24Zm-8.62,2.69h-3.7v2.47h3.7v-2.47Zm-3.7,3.05v2.45h3.65l.05-2.45h-3.7Zm8.93-3.05h-4.06c.02.41.05,2.21.05,2.47h4.01v-2.47Zm0,3.05h-3.98l.05,2.45h3.94v-2.45Zm-.5-7.2c-.43,0-.53-.17-1.03-.98-.36-.55-.74-.82-1.06-1.03l.02-.07c1.44.05,2.69.53,2.69,1.46,0,.41-.26.62-.62.62Z"/>
      <path class="cls-4" d="m185.99,4.66c-.05,1.25-.07,2.3-.07,4.3s.17,10.18.29,11.69c0,.1.02.24.02.34,0,.79-.86,1.01-1.22,1.01-.48,0-.48-.1-.46-1.18h-14.52c.02.65.05,1.49-.96,1.49-.55,0-.58-.31-.58-.65,0-.36.22-10.61.22-12.6,0-3.84-.17-5.23-.36-6.82l1.9,1.15h14.11l.58-.58c.24-.24.26-.26.36-.26.12,0,.26.1.38.19l1.1.79c.17.12.31.24.31.41,0,.29-.34.43-1.1.72Zm-9.34-.7h-6.62v7.68h6.62V3.96Zm0,8.26h-6.62v8.02h6.62v-8.02Zm7.92-8.26h-6.67v7.68h6.67V3.96Zm0,8.26h-6.67v8.02h6.67v-8.02Z"/>
      <path class="cls-2" d="m198.1,21.75c-2.5-2-3.79-4.88-3.79-7.75s1.3-5.75,3.79-7.75l.14.22c-2.98,3.15-3.04,6.35-3.04,7.52s.06,4.37,3.04,7.52l-.14.22Z"/>
      <path class="cls-2" d="m206.39,9.74c.13.06.21.16.21.29,0,.14-.18.24-.67.34-.21.26-.66.78-1.34,1.63-.61.74-1.14,1.33-1.57,1.78.08,0,1.42-.06,2.27-.18-.06-.11-.26-.48-.66-.91l.08-.1c1.25.48,2.21,1.2,2.21,1.94,0,.3-.18.66-.61.66-.38,0-.54-.19-.69-.74-.02-.05-.08-.27-.18-.51l-1.46.32c0,.69.05,3.97.05,4.27.02.32.06,1.76.06,2.05,0,.42-.37.69-.77.69-.34,0-.43-.21-.43-.48,0-.26.06-1.31.06-1.54.02-.51.03-2.08.05-4.79-1.01.22-1.81.4-2.02.45-.1.16-.26.46-.4.46-.16,0-.26-.19-.29-.29l-.35-1.36c.27.06.74.11,1.14.11.5,0,1.23-.02,1.49-.03,1.09-1.47,2.06-3.51,2.29-4.15.06-.16.1-.45.1-.64l1.42.72Zm-6.32,10.53c.69-1.55,1.15-3.59,1.12-4.67l1.31.48c.11.05.22.14.22.22,0,.11-.1.19-.51.35-.51,1.49-.98,2.38-2.06,3.67l-.08-.05Zm.61-10.52c.45.11.98.26,1.38.45.45-.9,1.15-2.64,1.06-3.59l1.52.75c.13.06.19.16.19.24,0,.24-.24.29-.61.35-.75.96-.86,1.1-1.95,2.35.46.29.94.72.94,1.26,0,.37-.24.77-.66.77-.37,0-.46-.19-.82-.98-.37-.83-.74-1.18-1.07-1.52l.02-.1Zm3.78,6.1c.66.29,2.26,1.01,2.26,2.1,0,.51-.37.78-.7.78-.43,0-.51-.32-.72-1.06-.22-.83-.53-1.3-.88-1.76l.05-.06Zm7.65-5.17l.48-.45c.08-.08.18-.18.22-.18.06,0,.18.1.22.14l.77.66c.08.06.14.16.14.24,0,.11-.3.34-.59.54-.1,4.43-.13,6.42-.98,8.05-.59,1.14-1.6,1.55-2.48,1.57-.13-.75-.62-1.25-1.46-1.81l.02-.1c.74.14,1.71.32,2.13.32,1.62,0,1.7-5.28,1.7-6.93,0-.27-.02-1.41-.02-1.68h-4.32c-.78,1.49-1.33,2.03-1.57,2.29l-.1-.06c1.18-2.35,1.73-5.06,1.73-5.89,0-.16-.05-.46-.08-.61l1.73.74c.08.03.18.11.18.22,0,.16-.24.27-.62.45-.18.51-.46,1.31-1.06,2.48h3.95Zm-4.37,3.06c1.52.62,2.27,1.14,2.27,2,0,.38-.19.75-.64.75-.42,0-.54-.18-.9-1.28-.13-.42-.43-.96-.8-1.38l.06-.1Z"/>
      <path class="cls-2" d="m221.59,14.64c.74.62,1.09,1.42,1.09,2.37,0,1.97-1.62,3.38-3.73,3.38-1.73,0-3.19-.98-3.19-2.26,0-.7.46-1.02.91-1.02.54,0,.78.46.78.8,0,.24-.05.38-.1.51-.03.1-.05.21-.05.37,0,.61.69,1.06,1.44,1.06,1.23,0,2.48-1.22,2.48-2.83s-1.22-2.93-2.5-2.93c-.1,0-.54.06-.64.06-.24,0-.35-.14-.35-.34,0-.21.16-.37.37-.37.1,0,.58.1.69.1,1.34,0,2.19-1.2,2.19-2.5s-.75-2.4-2.02-2.4c-.85,0-1.3.61-1.3,1.07,0,.08.03.16.05.24.03.11.05.27.05.38,0,.5-.37.88-.82.88-.53,0-.8-.46-.8-.88,0-.88,1.02-2.24,3.07-2.24s3.2,1.28,3.2,2.69c0,.56-.21,1.1-.59,1.63-.66.86-1.38,1.14-2.03,1.36.74.22,1.22.38,1.78.86Z"/>
      <path class="cls-2" d="m225.63,19.46c.02.53-.43.93-.93.93-.53,0-.93-.42-.93-.93s.4-.93.93-.93c.5,0,.93.42.93.93Z"/>
      <path class="cls-2" d="m230.88,15.44c-.34.21-.83.42-1.39.42-1.59,0-2.87-1.6-2.87-3.55,0-2.21,1.58-4.21,3.43-4.21s3.68,2.08,3.68,5.52c0,3.7-2.08,6.77-4.53,6.77-1.07,0-1.82-.64-1.82-1.39,0-.58.45-.83.82-.83.32,0,.85.21.88,1.1.02.35.05.58.48.58s.86-.21,1.17-.56c1.42-1.57,1.5-3.94,1.57-5.36-.3.5-.64,1.04-1.41,1.52Zm.53-5.94c-.27-.43-.69-.86-1.3-.86-.85,0-2.05.9-2.05,3.52,0,.74.18,2.98,1.82,2.98.61,0,1.63-.45,2.39-2.18-.06-.88-.19-2.42-.86-3.46Z"/>
      <path class="cls-2" d="m237.1,16.21l2.32-2.26c.11-.1.21-.24.21-.42,0-.26-.32-.51-.67-.51h-.3v-.51h3.99v.51h-.34c-.9,0-1.58.4-2.45,1.23l-.67.66,1.9,3.22c.54.91,1.06,1.44,1.84,1.44v.51h-3.55v-.51c.19,0,.83,0,.83-.51,0-.11-.05-.24-.1-.32l-1.78-2.99-1.23,1.18v1.68c0,.96.58.96,1.18.96v.51h-3.52v-.51h.38c.45,0,.8-.3.8-.96v-8.92c0-.67-.58-.79-1.06-.74l-.06-.29,2.27-.56v8.1Z"/>
      <path class="cls-2" d="m246.16,12.2v1.26c.43-.43,1.26-1.26,2.64-1.26,1.5,0,1.79.98,1.92,1.44.54-.53,1.42-1.44,2.87-1.44s2.05.85,2.05,2.62v3.78c0,.61.32.96.8.96h.3v.51h-3.35v-.51h.29c.56,0,.82-.43.82-.96v-3.68c0-.45-.08-2.03-1.41-2.03-.45,0-1.46.26-2.26,1.39,0,.13.02.26.02.54v3.78c0,.67.37.96.8.96h.46v.51h-3.67v-.51h.46c.43,0,.8-.3.8-.96v-3.68c0-.34-.03-2.03-1.39-2.03-.38,0-1.41.21-2.16,1.26v4.45c0,.67.38.96.8.96h.29v.51h-3.33v-.51h.29c.48,0,.8-.34.8-.96v-4.82c0-.5-.27-.75-.66-.75-.18,0-.34.02-.48.06l-.06-.3,2.35-.59Z"/>
      <path class="cls-2" d="m258.4,21.75l-.14-.22c2.98-3.15,3.04-6.35,3.04-7.52s-.06-4.37-3.04-7.52l.14-.22c2.5,2,3.79,4.88,3.79,7.75s-1.3,5.75-3.79,7.75Z"/>
    </g>
    <rect class="cls-3" width="7" height="81"/>
    <g>
      <g>
        <rect class="cls-1" x="17.57" y="34.25" width="84.39" height="23.44" rx="5" ry="5"/>
        <g>
          <path class="cls-2" d="m42.94,43.25h-.29c-.14.1-.21.16-.84.69-.08.06-.67.48-.79.58l-.06-.06c.35-.9.49-1.47.59-1.94h-9.48c-.02,1.41-.64,2.74-1.44,2.74-.44,0-.62-.38-.62-.67,0-.4.26-.67.79-1.22.33-.35.93-1.22,1.02-2.1h.08c.08.26.15.5.18.86h6.41c.32-.5,1.23-2.43,1.12-3.63l1.47.82c.15.08.23.16.23.26,0,.14-.15.19-.7.29-.87,1.15-.97,1.28-1.81,2.27h2.61l.46-.37c.14-.11.24-.19.33-.19s.17.08.33.21l.9.75c.12.1.18.22.18.34,0,.32-.36.38-.68.38Zm-1.95,6.42c.02.21.02.35.03,1.63,0,.14.06.91.06,1.09,0,.64-.56.7-.7.7-.46,0-.43-.38-.4-.67h-6.28c0,.24.02.77-.65.77-.38,0-.46-.21-.44-.53.03-.64.09-1.97.09-2.59,0-.91-.08-1.41-.14-1.84l1.29.74h1.91c.23-.56.4-1.38.43-1.89h-1.63c0,.26.02.74-.61.74-.46,0-.46-.35-.46-.5,0-.4.09-2.16.09-2.53,0-.58-.02-.85-.12-1.3l1.31.62h3.98l.38-.43c.11-.11.17-.16.23-.16s.15.05.26.13l.56.45c.11.1.17.16.17.24,0,.13-.09.21-.46.5-.02.32.08,1.78.08,2.08,0,.43-.27.66-.65.66-.26,0-.44-.14-.43-.5h-1.38c-.29.51-.93,1.46-1.31,1.89h3.65l.33-.45c.08-.11.15-.18.23-.18s.17.06.27.14l.58.45c.09.08.17.18.17.26,0,.11-.09.22-.46.48Zm-6.82-7.99c-.41,0-.52-.35-.62-.75-.2-.8-.41-1.25-.85-1.89l.06-.08c.79.42,2.01,1.06,2.01,2.06,0,.42-.29.66-.59.66Zm5.84,7.67h-6.29v2.69h6.29v-2.69Zm-1.08-4.85h-4.36v2.19h4.36v-2.19Zm-1.9-3.03c-.53,0-.64-.51-.75-1.06-.12-.61-.27-1.01-.71-1.71l.06-.08c1.26.59,1.98,1.41,1.98,2.14,0,.11-.03.7-.58.7Z"/>
          <path class="cls-2" d="m58.76,42.13h-4.74l.79.5c.06.05.15.14.15.22,0,.19-.29.22-.56.24-.43.48-1.05,1.04-1.34,1.3h2.6l.59-.7c.08-.1.17-.19.24-.19s.21.1.27.16l.7.71c.08.08.14.14.14.24,0,.16-.12.18-.23.18h-4.85c0,.19.02,1.07.02,1.25h2.14l.53-.58c.09-.1.18-.19.26-.19s.15.08.29.18l.74.54c.08.06.17.14.17.26,0,.14-.12.18-.23.18h-3.91v1.39h3.91l.68-.82c.11-.13.15-.19.24-.19.11,0,.2.1.27.16l.84.82c.08.08.15.14.15.26,0,.14-.14.16-.24.16h-5.55c1.05,1.31,3.34,2.9,5.93,3.09l.02.1c-.49.24-1.02.51-1.4,1.3-1.96-.77-3.86-2.59-4.8-4.48h-.05c.02,1.46.03,1.75.03,2.05.02.37.09,1.95.09,2.29,0,.48-.46.66-.77.66-.41,0-.44-.26-.44-.5,0-.35.05-.94.06-1.31.02-.53.02-.77.05-2.99-1.09,1.54-3.13,3.52-6.03,4.32l-.03-.1c2.05-1.15,3.45-2.45,4.86-4.42h-2.69c-.15,0-1.09,0-1.79.14l-.3-.64c1.02.1,2.05.11,2.34.11h3.65v-1.39h-2.66c-.4,0-1.11.02-1.79.14l-.3-.64c1.05.1,2.14.11,2.34.11h2.42v-1.25h-3.19c-.14,0-1.08,0-1.78.14l-.3-.64c1.02.1,2.08.11,2.34.11h4.13c.2-.37.67-1.5.76-2.26h-4.32c.88.3,1.69.78,1.69,1.55,0,.46-.36.64-.61.64-.35,0-.4-.1-.76-1.06-.08-.21-.27-.72-.62-1.14h-1.58c-.38,0-1.11,0-1.79.14l-.29-.64c1.03.1,2.11.11,2.33.11h2.86c-.05-2.3-.05-2.48-.26-3.3l1.47.45c.14.05.21.1.21.24,0,.18-.17.27-.46.38v2.22h1.12c0-2.03,0-2.5-.32-3.3l1.55.43c.09.03.26.08.26.24,0,.24-.36.37-.5.42v2.21h.65c.35-.71.73-1.89.79-2.24.06-.27.08-.51.08-.77l1.35.72c.09.05.18.11.18.22,0,.24-.36.29-.53.3-.47.53-1.28,1.44-1.58,1.76h2.39l.65-.72c.12-.13.18-.21.24-.21.09,0,.2.08.3.18l.79.7c.09.08.17.14.17.26,0,.14-.14.18-.23.18Zm-9.88-.74c-.36,0-.47-.26-.76-.98-.05-.11-.29-.72-.88-1.27l.06-.11c.61.16,2.13.59,2.13,1.71,0,.21-.11.64-.55.64Z"/>
          <path class="cls-2" d="m64.94,41.01c-.02.58-.03.94-.03,1.71,0,1.68.09,5.31.12,6,0,.21.05.58.05.78,0,.61-.65.64-.73.64-.41,0-.41-.11-.38-1.17h-1.9c0,.11.05,1.42.05,1.46,0,.58-.59.69-.76.69-.38,0-.38-.3-.38-.5,0-.18.05-.96.05-1.12.05-1.22.06-5.71.06-6.08,0-2.38-.05-2.83-.18-3.95l1.32.67h1.55l.44-.42c.17-.14.2-.21.27-.21s.15.05.24.14l.61.58c.06.06.12.16.12.26,0,.14-.3.35-.52.51Zm-.96-.48h-1.91v3.76h1.91v-3.76Zm0,4.15h-1.91v3.92h1.91v-3.92Zm9.94-.3h-6.69c-.27,0-1.05,0-1.79.14l-.29-.64c.94.08,1.87.11,2.33.11h1.28v-2.45h-.67c-.15,0-1.08,0-1.79.14l-.29-.64c1,.1,2.07.11,2.33.11h.43c0-1.62-.05-1.92-.26-2.61l1.57.48c.17.05.27.13.27.26s-.05.16-.49.48c-.02.38-.02.48-.03,1.39h1.49l.56-.69c.11-.14.17-.19.24-.19.09,0,.17.05.27.16l.75.69c.08.06.15.13.15.24,0,.14-.14.18-.23.18h-3.25v2.45h2.31l.58-.74c.12-.16.17-.21.23-.21.09,0,.14.06.29.19l.81.72c.12.11.14.19.14.24,0,.16-.14.18-.23.18Zm-.03,2.93h-2.52c0,.32.05,3.33.05,3.84,0,.61,0,1.6-1.96,1.99-.14-.53-.3-.98-1.4-1.6l.03-.11c.3.03,1.25.11,1.49.11.68,0,.78-.14.79-.46.02-.29.02-3.5,0-3.76h-2.95c-.38,0-1.11.02-1.79.14l-.29-.64c1.03.1,2.11.11,2.33.11h2.71c-.02-.62-.05-1.74-.2-2.21l1.37.35c.2.05.29.08.29.21,0,.11-.05.14-.44.46-.02.3-.02.4-.02,1.18h.71l.62-.75c.12-.14.18-.19.26-.19s.14.03.26.16l.74.75c.11.1.15.14.15.24,0,.14-.12.18-.23.18Zm-5.81,3.22c-.46,0-.55-.45-.62-.88-.17-1.01-.47-1.47-.71-1.78l.06-.1c1.49.62,1.91,1.55,1.91,2.05,0,.43-.32.71-.64.71Z"/>
          <path class="cls-2" d="m81.55,40.48v1.83c0,.26.06,1.49.06,1.66,0,.38-.36.62-.74.62-.41,0-.36-.38-.33-.58h-2.6v4.02c0,.58.06,3.36.06,3.98,0,.42-.15.9-.77.9-.33,0-.44-.21-.44-.42,0-.1.05-.51.05-.61.12-1.81.12-2.8.12-9.81,0-2.29,0-2.34-.17-3.2l1.41.7h2.19l.4-.38c.09-.08.15-.16.21-.16s.14.06.18.1l.79.61c.06.05.11.11.11.21,0,.11-.09.21-.52.53Zm-1-.51h-2.61v1.6h2.61v-1.6Zm0,1.99h-2.61v1.68h2.61v-1.68Zm4.21,4.48c0,.75,0,1.97.05,2.93,0,.14.06.8.06.93,0,.69-.56.74-.76.74s-.4-.05-.32-.8h-2.96c.03.38.09,1.04-.71,1.04-.33,0-.35-.27-.35-.45,0-.1.03-.51.05-.69.06-.91.06-2.62.06-2.77,0-.86,0-1.44-.11-2.26l1.11.58h2.89l.26-.35c.08-.11.17-.21.29-.21.08,0,.17.06.24.13l.55.5c.08.06.14.13.14.21,0,.11-.14.26-.47.48Zm-.97-.37h-2.96v1.68h2.96v-1.68Zm0,2.07h-2.96v1.71h2.96v-1.71Zm4.33-7.6c0,1.55.03,8.42.03,9.81s0,1.82-.61,2.27c-.09.06-.52.38-1.15.53-.12-.56-.26-1.17-1.64-1.73l.03-.11c.26.02,1.64.1,1.79.1.14,0,.43,0,.52-.19.06-.14.06-1.46.06-1.74,0-.86-.02-4.67-.02-5.44h-2.87c.02.45-.3.66-.71.66-.21,0-.35-.13-.35-.38,0-.7.05-3.75.05-4.35,0-.27-.03-.56-.08-1.03l1.26.67h2.57l.37-.43c.06-.06.18-.18.27-.18s.18.05.24.11l.73.66c.08.08.12.14.12.22,0,.13-.12.24-.61.56Zm-.99-.56h-2.89v1.6h2.89v-1.6Zm0,1.99h-2.89v1.68h2.89v-1.68Z"/>
        </g>
      </g>
      <g>
        <path class="cls-2" d="m114.85,51.65l-.51-.51,5.2-5.19-5.2-5.19.51-.51,5.19,5.2,5.19-5.2.51.51-5.2,5.19,5.2,5.19-.51.51-5.19-5.2-5.19,5.2Zm2.16-5.7c0,.72-.59,1.33-1.33,1.33s-1.34-.59-1.34-1.33.61-1.33,1.34-1.33,1.33.61,1.33,1.33Zm4.35-4.35c0,.7-.58,1.33-1.33,1.33s-1.33-.61-1.33-1.33.61-1.35,1.33-1.35,1.33.61,1.33,1.35Zm0,8.71c0,.72-.58,1.34-1.33,1.34s-1.33-.61-1.33-1.34.61-1.33,1.33-1.33,1.33.61,1.33,1.33Zm4.37-4.35c0,.72-.59,1.33-1.34,1.33s-1.33-.59-1.33-1.33.61-1.33,1.33-1.33,1.34.61,1.34,1.33Z"/>
        <path class="cls-2" d="m135.52,41.06c0-1.47-.14-1.9-.35-2.42l1.76.34c.13.03.26.08.26.24,0,.11-.05.14-.53.53,0,.06-.02.91-.02,1.31h4.1l.69-.77c.08-.1.16-.21.24-.21.13,0,.19.08.3.18l.93.77c.08.08.16.13.16.26,0,.14-.14.16-.24.16h-11.04c0,.59.02,3.18.02,3.71,0,2.18-.37,5.84-2.74,7.96l-.1-.1c1.44-2.75,1.73-4.69,1.73-8.4,0-2.02-.06-3.27-.32-4.34l1.54.78h3.62Zm4.51,3.27l.67-.77c.11-.13.18-.19.26-.19.13,0,.18.06.3.18l.88.77c.06.05.14.13.14.24,0,.14-.13.16-.24.16h-4.72c0,.48-.02,2.72,0,3.04h2.61l.48-.58c.1-.11.16-.19.24-.19s.18.08.29.16l.66.48c.14.11.22.18.22.26,0,.11-.06.14-.56.53.02.99.02,2.46.06,3.41,0,.11.05.64.05.75,0,.43-.35.74-.74.74-.42,0-.43-.18-.45-.72h-5.84c0,.45-.02.88-.78.88-.16,0-.43-.03-.43-.4,0-.05.02-.14.03-.24.08-.69.08-2.3.08-3.42,0-.79,0-1.25-.14-2.43l1.39.79h1.76c-.02-.54-.03-2.98-.05-3.47-.08-1.79-.16-2-.29-2.32l1.59.35c.14.03.3.08.3.24s-.27.34-.48.46v1.31h2.71Zm-5.67,3.81v4.07h5.81v-4.07h-5.81Z"/>
        <path class="cls-2" d="m150.58,42.59c-.43,0-.58-.29-.96-1.06-.1-.21-.38-.69-.96-1.26-1.86,2.88-3.11,3.84-4.15,4.5l-.06-.1c1.7-1.79,3.01-4.5,3.28-5.22.13-.34.14-.54.18-.88l1.33.8c.11.06.18.16.18.27,0,.19-.16.22-.54.29-.03.05-.05.08-.1.14.62.19,2.42.82,2.42,1.87,0,.26-.13.64-.61.64Zm.38,4.26h-4.05c-.4,0-1.17,0-1.89.14l-.32-.64c1.1.1,2.24.11,2.46.11h.59l.02-1.76c-.56,0-1.14.03-1.7.14l-.3-.64c.34.03.93.08,2,.1-.02-.61-.03-1.41-.21-1.87l1.41.37c.08.02.27.08.27.24,0,.13-.1.19-.46.43,0,.06,0,.74-.02.85h.53l.34-.46c.05-.06.13-.19.24-.19.06,0,.19.06.3.18l.46.45c.08.08.16.16.16.24,0,.14-.13.18-.24.18h-1.79l.02,1.76h.8l.32-.48c.06-.1.14-.21.22-.21s.21.08.3.16l.61.5c.06.05.16.13.16.24,0,.14-.13.18-.24.18Zm-.46,2.1c0,.18.08,3.14.08,3.25,0,.16,0,.75-.67.75-.5,0-.48-.26-.46-1.04h-2.42c0,.08.02.46.02.54,0,.54-.5.64-.7.64-.29,0-.46-.11-.46-.4,0-.18.05-.93.05-1.07.03-.83.03-1.7.03-2.34,0-1.1-.02-1.3-.11-1.76l1.33.74h2.08l.43-.45c.06-.08.16-.16.24-.16.06,0,.16.08.21.11l.62.48c.14.11.19.16.19.26,0,.11-.03.14-.45.45Zm-1.06-.3h-2.42v2.88h2.42v-2.88Zm9.56-7.27h-3.7v1.82h1.68l.42-.4c.1-.1.19-.16.27-.16.06,0,.16.06.26.13l.64.45c.13.1.18.16.18.24,0,.1-.05.14-.51.51-.02.34-.03.77-.03,1.55,0,.91.1,4.91.1,5.73,0,.48,0,1.68-1.65,1.84-.16-.82-.54-1.26-.94-1.5v-.08c.26.02.56.05.99.05.22,0,.43,0,.48-.24.03-.18.02-2.3.02-2.66h-1.86c0,1.04.03,2.71.03,3.75,0,.3,0,.88-.77.88-.29,0-.4-.18-.4-.42,0-.66.06-3.6.06-4.21h-1.5c0,.46.02,3.46.02,3.83,0,.18-.02.64-.67.64-.45,0-.45-.3-.45-.46,0-.34.06-1.79.06-2.08.06-3.17.05-4.99.05-5.38,0-1.67-.03-2.14-.11-2.69l1.3.69h1.34v-1.82h-.75c-.3,0-1.12.02-1.89.16l-.32-.64c.99.08,1.98.1,2.47.1h.5c0-1.54-.06-1.78-.29-2.3l1.57.42c.1.03.24.08.24.22s-.05.18-.48.4c-.02.42-.02.46-.03,1.26h2.19l.48-.62c.08-.1.16-.21.24-.21.11,0,.21.11.29.19l.58.62c.1.1.16.16.16.24,0,.14-.13.16-.24.16Zm-6.24,2.21v2.13h1.52l.02-2.13h-1.54Zm0,2.51v2.18h1.5l.02-2.18h-1.52Zm4.43-2.51h-1.89v2.13h1.89v-2.13Zm0,2.51h-1.89l.03,2.18h1.86v-2.18Zm0-5.54c-.27,0-.34-.1-.67-.56-.19-.26-.42-.51-.67-.67v-.08c.19-.03.34-.05.59-.05.56,0,1.3.14,1.3.77,0,.32-.22.59-.54.59Z"/>
        <path class="cls-2" d="m163.97,47.59c-.19.8-.56,2.34-.56,3.06,0,.18.08.94.08,1.1,0,.27-.03.59-.42.59-.66,0-1.7-1.47-1.7-4.72,0-1.15.35-3.31.62-4.96.05-.3.1-.72.1-1.07,0-.56-.08-.98-.54-1.55.08-.03.14-.06.29-.06.58,0,1.62.9,1.62,1.52,0,.14-.03.29-.21.75-.62,1.6-1.12,3.28-1.12,5.03,0,1.1.27,2.34.53,2.34.1,0,.18-.19.21-.3.18-.54.85-2.4,1.42-3.63l.13.03c-.1.45-.32,1.38-.45,1.89Zm7.7,3.36c-.38,0-2.53-.02-3.92-.45-.96-.3-1.62-1.23-1.62-2.18,0-.37.08-.51.16-.67.37,1.22.66,2.15,3.68,2.15.32,0,1.87-.13,2.03-.13.56,0,1.23.24,1.23.69,0,.51-.56.59-1.57.59Zm-.13-8.47c-1.55.27-2.56.8-3.09,1.18l-.1-.1c.24-.22,1.41-1.3,1.46-1.35.05-.05.05-.08.05-.13,0-.18-.5-.18-.59-.18-.64,0-1.7.26-2.91.72.86-1.15,2.48-1.57,3.97-1.57.99,0,2.13.29,2.13.85,0,.37-.34.46-.91.56Z"/>
        <path class="cls-2" d="m184.11,51.49c-.22,0-.82-.37-1.41-.75-1.09-.69-1.62-.86-2.15-.99-.1.91-.38,2.32-2.67,2.32-1.2,0-2.88-.59-2.88-1.68,0-.83.86-1.39,1.41-1.55,1.23-.38,2.38-.34,3.01-.3-.1-.61-.21-1.49-.21-3.54,0-.32.02-3.38.02-3.49,0-.96-.19-1.31-1.34-1.52.14-.16.4-.45,1.01-.45.56,0,1.74.43,1.74,1.06,0,.11-.14.72-.19.88-.06.27-.13.56-.22,1.28.69-.05,1.3-.24,2.55-.64.14-.05.29-.08.48-.08.22,0,.88.1.88.53,0,.22-.1.34-.22.42-.37.26-1.76.59-2.69.59-.38,0-.75-.13-1.06-.27-.02.29-.06.88-.06,1.71,0,1.91.24,3.2.35,3.71,1.52.27,4.13,1.1,4.13,2.18,0,.32-.13.59-.46.59Zm-5.99-2.14c-.83,0-2.5.18-2.5.98,0,.64,1.15.79,1.84.79,1.92,0,1.98-1.07,1.98-1.63-.32-.06-.67-.13-1.33-.13Z"/>
        <path class="cls-2" d="m191.33,51.96c-.53.48-1.54,1.25-2.27,1.41l-.03-.08c2.77-2,3.59-5.09,3.59-7.96,0-1.06-.06-3.97-1.26-3.97-.64,0-1.09.66-1.23.86-.64.93-1.7,3.38-1.7,5.3,0,.18.11.99.11,1.15,0,.18-.06.45-.38.45-.94,0-1.23-1.87-1.23-3.31,0-1.22.34-3.33.56-4.63.02-.08.06-.38.06-.61,0-.86-.59-1.23-.93-1.46.14-.03.42-.11.72-.11.74,0,1.41.59,1.41,1.15,0,.26-.1.46-.19.71-.5,1.15-.9,2.77-.9,4.29,0,.24,0,1.15.16,1.15.1,0,.13-.08.14-.16.37-1.31,1.74-5.41,3.63-5.41,2,0,2.21,3.14,2.21,4.74,0,2.95-.67,4.85-2.46,6.48Z"/>
        <path class="cls-2" d="m209.67,43.41h-.3c-.14.1-.22.16-.88.69-.08.06-.7.48-.83.58l-.06-.06c.37-.9.51-1.47.62-1.94h-9.99c-.02,1.41-.67,2.74-1.52,2.74-.46,0-.66-.38-.66-.67,0-.4.27-.67.83-1.22.35-.35.98-1.22,1.07-2.1h.08c.08.26.16.5.19.86h6.75c.34-.5,1.3-2.43,1.18-3.63l1.55.82c.16.08.24.16.24.26,0,.14-.16.19-.74.29-.91,1.15-1.02,1.28-1.9,2.27h2.75l.48-.37c.14-.11.26-.19.35-.19s.18.08.35.21l.94.75c.13.1.19.22.19.34,0,.32-.38.38-.72.38Zm-2.05,6.42c.02.21.02.35.03,1.63,0,.14.06.91.06,1.09,0,.64-.59.71-.74.71-.48,0-.45-.38-.42-.67h-6.61c0,.24.02.77-.69.77-.4,0-.48-.21-.46-.53.03-.64.1-1.97.1-2.59,0-.91-.08-1.41-.14-1.84l1.36.74h2.02c.24-.56.42-1.38.45-1.89h-1.71c0,.26.02.74-.64.74-.48,0-.48-.35-.48-.5,0-.4.1-2.16.1-2.53,0-.58-.02-.85-.13-1.3l1.38.62h4.19l.4-.43c.11-.11.18-.16.24-.16s.16.05.27.13l.59.45c.11.1.18.16.18.24,0,.13-.1.21-.48.5-.02.32.08,1.78.08,2.08,0,.43-.29.66-.69.66-.27,0-.46-.14-.45-.5h-1.46c-.3.51-.98,1.46-1.38,1.89h3.84l.35-.45c.08-.11.16-.18.24-.18s.18.06.29.14l.61.45c.1.08.18.18.18.26,0,.11-.1.22-.48.48Zm-7.19-7.99c-.43,0-.54-.35-.66-.75-.21-.8-.43-1.25-.9-1.89l.06-.08c.83.42,2.11,1.06,2.11,2.06,0,.42-.3.66-.62.66Zm6.15,7.67h-6.63v2.69h6.63v-2.69Zm-1.14-4.85h-4.59v2.19h4.59v-2.19Zm-2-3.03c-.56,0-.67-.51-.78-1.06-.13-.61-.29-1.01-.75-1.71l.06-.08c1.33.59,2.08,1.41,2.08,2.15,0,.11-.03.7-.61.7Z"/>
        <path class="cls-2" d="m226.32,42.29h-4.99l.83.5c.06.05.16.14.16.22,0,.19-.3.22-.59.24-.45.48-1.1,1.04-1.41,1.3h2.74l.62-.7c.08-.1.18-.19.26-.19s.22.1.29.16l.74.7c.08.08.14.14.14.24,0,.16-.13.18-.24.18h-5.11c0,.19.02,1.07.02,1.25h2.26l.56-.58c.1-.1.19-.19.27-.19s.16.08.3.18l.78.54c.08.06.18.14.18.26,0,.14-.13.18-.24.18h-4.11v1.39h4.11l.72-.82c.11-.13.16-.19.26-.19.11,0,.21.1.29.16l.88.82c.08.08.16.14.16.26,0,.14-.14.16-.26.16h-5.84c1.1,1.31,3.52,2.9,6.24,3.09l.02.1c-.51.24-1.07.51-1.47,1.3-2.06-.77-4.07-2.59-5.06-4.48h-.05c.02,1.46.03,1.74.03,2.05.02.37.1,1.95.1,2.29,0,.48-.48.66-.82.66-.43,0-.46-.26-.46-.5,0-.35.05-.95.06-1.31.02-.53.02-.77.05-2.99-1.15,1.54-3.3,3.52-6.35,4.32l-.03-.1c2.16-1.15,3.63-2.45,5.12-4.42h-2.83c-.16,0-1.15,0-1.89.14l-.32-.64c1.07.1,2.16.11,2.47.11h3.84v-1.39h-2.8c-.42,0-1.17.02-1.89.14l-.32-.64c1.1.1,2.26.11,2.46.11h2.54v-1.25h-3.36c-.14,0-1.14,0-1.87.14l-.32-.64c1.07.1,2.19.11,2.46.11h4.35c.21-.37.7-1.5.8-2.26h-4.55c.93.3,1.78.78,1.78,1.55,0,.46-.38.64-.64.64-.37,0-.42-.1-.8-1.06-.08-.21-.29-.72-.66-1.14h-1.66c-.4,0-1.17,0-1.89.14l-.3-.64c1.09.1,2.23.11,2.45.11h3.01c-.05-2.3-.05-2.48-.27-3.3l1.55.45c.14.05.22.1.22.24,0,.18-.18.27-.48.38v2.22h1.18c0-2.03,0-2.5-.34-3.3l1.63.43c.1.03.27.08.27.24,0,.24-.38.37-.53.42v2.21h.69c.37-.7.77-1.89.83-2.24.06-.27.08-.51.08-.77l1.42.72c.1.05.19.11.19.22,0,.24-.38.29-.56.3-.5.53-1.34,1.44-1.66,1.76h2.51l.69-.72c.13-.13.19-.21.26-.21.1,0,.21.08.32.18l.83.71c.1.08.18.14.18.26,0,.14-.14.18-.24.18Zm-10.4-.74c-.38,0-.5-.26-.8-.98-.05-.11-.3-.72-.93-1.26l.06-.11c.64.16,2.24.59,2.24,1.71,0,.21-.11.64-.58.64Z"/>
        <path class="cls-2" d="m232.82,41.17c-.02.58-.03.94-.03,1.71,0,1.68.1,5.31.13,6,0,.21.05.58.05.78,0,.61-.69.64-.77.64-.43,0-.43-.11-.4-1.17h-2c0,.11.05,1.42.05,1.46,0,.58-.62.69-.8.69-.4,0-.4-.3-.4-.5,0-.18.05-.96.05-1.12.05-1.22.06-5.71.06-6.08,0-2.38-.05-2.83-.19-3.95l1.39.67h1.63l.46-.42c.18-.14.21-.21.29-.21s.16.05.26.14l.64.58c.06.06.13.16.13.26,0,.14-.32.35-.54.51Zm-1.01-.48h-2.02v3.76h2.02v-3.76Zm0,4.15h-2.02v3.92h2.02v-3.92Zm10.47-.3h-7.04c-.29,0-1.1,0-1.89.14l-.3-.64c.99.08,1.97.11,2.45.11h1.34v-2.45h-.7c-.16,0-1.14,0-1.89.14l-.3-.64c1.06.1,2.18.11,2.45.11h.45c0-1.62-.05-1.92-.27-2.61l1.65.48c.18.05.29.13.29.26s-.05.16-.51.48c-.02.38-.02.48-.03,1.39h1.57l.59-.69c.11-.14.18-.19.26-.19.1,0,.18.05.29.16l.78.69c.08.06.16.13.16.24,0,.14-.14.18-.24.18h-3.43v2.45h2.43l.61-.74c.13-.16.18-.21.24-.21.1,0,.14.06.3.19l.85.72c.13.11.14.19.14.24,0,.16-.14.18-.24.18Zm-.03,2.93h-2.66c0,.32.05,3.33.05,3.84,0,.61,0,1.6-2.06,1.98-.14-.53-.32-.98-1.47-1.6l.03-.11c.32.03,1.31.11,1.57.11.72,0,.82-.14.83-.46.02-.29.02-3.51,0-3.76h-3.11c-.4,0-1.17.02-1.89.14l-.3-.64c1.09.1,2.22.11,2.45.11h2.85c-.02-.62-.05-1.75-.21-2.21l1.44.35c.21.05.3.08.3.21,0,.11-.05.14-.46.46-.02.3-.02.4-.02,1.18h.75l.66-.75c.13-.14.19-.19.27-.19s.14.03.27.16l.78.75c.11.1.16.14.16.24,0,.14-.13.18-.24.18Zm-6.11,3.22c-.48,0-.58-.45-.66-.88-.18-1.01-.5-1.47-.75-1.78l.06-.1c1.57.62,2.02,1.55,2.02,2.05,0,.43-.34.7-.67.7Z"/>
        <path class="cls-2" d="m250.3,40.64v1.82c0,.26.06,1.49.06,1.67,0,.38-.38.62-.78.62-.43,0-.38-.38-.35-.58h-2.74v4.02c0,.58.06,3.36.06,3.99,0,.42-.16.9-.82.9-.35,0-.46-.21-.46-.42,0-.1.05-.51.05-.61.13-1.81.13-2.8.13-9.81,0-2.29,0-2.34-.18-3.2l1.49.7h2.3l.42-.38c.1-.08.16-.16.22-.16s.14.06.19.1l.83.61c.06.05.11.11.11.21,0,.11-.1.21-.54.53Zm-1.06-.51h-2.75v1.6h2.75v-1.6Zm0,1.98h-2.75v1.68h2.75v-1.68Zm4.43,4.48c0,.75,0,1.97.05,2.93,0,.14.06.8.06.93,0,.69-.59.74-.8.74s-.42-.05-.34-.8h-3.12c.03.38.1,1.04-.75,1.04-.35,0-.37-.27-.37-.45,0-.1.03-.51.05-.69.06-.91.06-2.62.06-2.77,0-.86,0-1.44-.11-2.26l1.17.58h3.04l.27-.35c.08-.11.18-.21.3-.21.08,0,.18.06.26.13l.58.5c.08.06.14.13.14.21,0,.11-.14.26-.5.48Zm-1.02-.37h-3.12v1.68h3.12v-1.68Zm0,2.06h-3.12v1.71h3.12v-1.71Zm4.56-7.6c0,1.55.03,8.42.03,9.81s0,1.83-.64,2.27c-.1.06-.54.38-1.22.53-.13-.56-.27-1.17-1.73-1.73l.03-.11c.27.02,1.73.1,1.89.1.14,0,.45,0,.54-.19.06-.14.06-1.46.06-1.75,0-.86-.02-4.67-.02-5.44h-3.03c.02.45-.32.66-.75.66-.22,0-.37-.13-.37-.38,0-.7.05-3.75.05-4.35,0-.27-.03-.56-.08-1.02l1.33.67h2.71l.38-.43c.06-.06.19-.18.29-.18s.19.05.26.11l.77.66c.08.08.13.14.13.22,0,.13-.13.24-.64.56Zm-1.04-.56h-3.04v1.6h3.04v-1.6Zm0,1.98h-3.04v1.68h3.04v-1.68Z"/>
        <path class="cls-2" d="m267.1,51.46c-.43.51-1.09,1.02-1.55,1.02-.37,0-.43-.26-.48-.53-.11-.67-.14-.8-1.18-2.3l.05-.06c1.39.96,1.7,1.07,1.98,1.07s.5-.21.62-.46c.75-1.49,1.12-3.12,1.12-4.79,0-.62,0-1.74-1.07-1.74-.38,0-.7.08-1.06.16-.93,2.24-1.55,3.71-3.35,7.19-.21.4-.56,1.02-.91,1.02-.32,0-.51-.38-.51-.75s.16-.61.35-.88c1.04-1.49,1.9-2.72,3.38-6.27-.61.22-1.66.64-2.26,1.02-.24.16-.43.29-.67.29-.48,0-1.33-.67-1.33-1.47,0-.27.1-.45.19-.64.29.54.64.83,1.09.83.38,0,2.75-.66,3.28-.79.24-.64.72-1.94.72-2.51,0-.64-.94-1.06-1.17-1.14.19-.11.38-.26.8-.26.85,0,1.82.74,1.82,1.14,0,.22-.13.46-.24.66-.35.64-.62,1.22-.93,1.91.29-.06.54-.1.86-.1,1.87,0,1.95,1.5,1.95,2.77,0,1.89-.64,4.59-1.52,5.62Zm6.48-3.76c-.16,0-.75-.35-.88-.4-.67-.3-1.1-.42-2.18-.56v-.13c.24-.02,2-.16,2-.71,0-.16-.74-1.74-2.99-3.14,1.63.06,4.45,1.92,4.45,4.08,0,.13,0,.85-.4.85Zm-.82-4.88c-.14,0-.38-.21-.77-.53-.61-.53-1.26-.98-2-1.2.21-.03.34-.06.64-.06.85,0,2.56.38,2.56,1.31,0,.22-.14.48-.43.48Zm1.57-1.25c-.21,0-.91-.64-1.07-.75-.58-.4-1.22-.7-1.89-.86.26-.05.54-.11.99-.11.29,0,2.31.06,2.31,1.28,0,.21-.08.45-.34.45Z"/>
        <path class="cls-2" d="m283.83,46.42c-.03-1.15-.05-1.41-.29-2l1.5.34c.19.05.29.1.29.24,0,.11-.1.29-.38.45v.98h1.87l.54-.67c.08-.1.16-.19.26-.19s.22.11.29.16l.85.67c.08.06.16.14.16.24,0,.14-.14.18-.24.18h-3.73c0,.35,0,.58.02,2.05h2.79l.56-.72c.13-.18.18-.21.26-.21s.14.05.3.18l.85.72c.08.08.16.14.16.26,0,.14-.14.16-.26.16h-12.04c-.21,0-1.1,0-1.87.14l-.32-.62c1.06.08,2.16.1,2.45.1h1.95c0-.18.02-1.9.02-2.05h-1.31c-.29,0-1.1,0-1.89.14l-.32-.64c.99.08,1.98.11,2.47.11h1.07c0-.83-.02-1.22-.21-2.02l1.54.43c.1.03.21.1.21.21,0,.06-.06.14-.11.19-.08.06-.19.14-.32.24-.02.34-.02.38-.03.94h2.93Zm-7.62,6.77c.93-.54,3.52-2.61,3.99-3.79l1.3.93c.06.05.16.13.16.22,0,.18-.16.26-.77.32-1.3,1.02-3.17,2.05-4.64,2.4l-.03-.08Zm9.83-13.78l.42-.38c.11-.11.19-.19.29-.19.08,0,.22.11.27.16l.66.56c.06.05.13.14.13.26,0,.14-.24.35-.46.5-.02.27-.02.5-.02.8,0,.5.06,3.01.06,3.14,0,.58-.59.64-.75.64-.42,0-.4-.26-.4-.69h-7.36c.02.74-.62.74-.74.74-.43,0-.45-.32-.45-.51,0-.5.11-2.72.11-3.17,0-.91-.06-1.81-.19-2.45l1.42.61h7.01Zm-7.19.38v1.71h3.23v-1.71h-3.23Zm0,2.1v1.92h3.23v-1.92h-3.23Zm2.05,4.91s-.02,1.81-.02,2.05h2.98q-.02-1.52-.03-2.05h-2.93Zm2.26-7.01v1.71h3.09v-1.71h-3.09Zm0,2.1v1.92h3.09v-1.92h-3.09Zm.83,7.89c.91.16,2.08.42,2.98.98,1.07.69,1.42,1.42,1.42,1.75,0,.5-.34.7-.64.7-.34,0-.35-.05-1.31-1.25-.42-.53-1.39-1.47-2.48-2.08l.03-.1Z"/>
        <path class="cls-2" d="m299.19,42.02c-.26.13-1.5.48-3.31.91-.42.83-2.16,4.54-2.58,5.27-.37.62-.7,1.22-1.02,1.22-.11,0-.45-.06-.45-.61,0-.45.22-.74.38-.96,1.15-1.52,2.18-3.63,2.66-4.67-.35.08-.83.21-1.44.21-.94,0-1.75-.5-1.62-1.46.38.54.91.64,1.55.64.58,0,1.23-.11,1.87-.26.37-.91.67-1.7.67-2.03,0-.18-.1-.56-.94-.78.24-.21.46-.32.78-.32.62,0,1.6.67,1.6,1.09q0,.16-.4.74c-.22.32-.35.54-.59,1.01.32-.11.86-.3,1.2-.46.7-.32.78-.37.98-.37.21,0,.91.22.91.53,0,.16-.13.26-.26.32Zm4,3.98c-.1,0-.27-.02-.56-.18-.54-.29-.74-.4-1.36-.4-1.68,0-1.92.91-1.92,1.67,0,.93.18,1.82.27,2.32,1.28.27,3.04.94,3.04,1.98,0,.24-.16.53-.45.53-.19,0-.83-.45-1.23-.74-.64-.45-.93-.56-1.25-.67-.02.34-.05,1.01-.61,1.52-.66.61-1.57.67-1.94.67-1.33,0-2.48-.72-2.48-1.71,0-1.2,1.46-1.78,3.01-1.78.35,0,.59.03.83.05-.05-.56-.11-1.31-.11-1.68,0-1.76,1.7-2.45,2.8-2.66.13-.03.27-.06.27-.26,0-.21-.58-.8-2.19-1.22.24-.08.54-.16,1.02-.16,1.98,0,3.27,1.49,3.27,2.24,0,.29-.16.46-.42.46Zm-5.78,3.99c-.61,0-2.1.13-2.1.99,0,.67,1.02.85,1.57.85s1.78-.14,1.73-1.68c-.3-.08-.56-.16-1.2-.16Z"/>
        <path class="cls-2" d="m310.16,51.96c-.53.48-1.54,1.25-2.27,1.41l-.03-.08c2.77-2,3.59-5.09,3.59-7.96,0-1.06-.06-3.97-1.26-3.97-.64,0-1.09.66-1.23.86-.64.93-1.7,3.38-1.7,5.3,0,.18.11.99.11,1.15,0,.18-.06.45-.38.45-.94,0-1.23-1.87-1.23-3.31,0-1.22.34-3.33.56-4.63.02-.08.06-.38.06-.61,0-.86-.59-1.23-.93-1.46.14-.03.42-.11.72-.11.74,0,1.41.59,1.41,1.15,0,.26-.1.46-.19.71-.5,1.15-.9,2.77-.9,4.29,0,.24,0,1.15.16,1.15.1,0,.13-.08.14-.16.37-1.31,1.74-5.41,3.63-5.41,2,0,2.21,3.14,2.21,4.74,0,2.95-.67,4.85-2.46,6.48Z"/>
        <path class="cls-2" d="m324.55,41.98c-.42.18-1.81.51-3.62.8-.05.62-.06,1.67-.05,2.32.32-.08,1.71-.54,2-.64.11-.03.19-.05.29-.05.29,0,.91.18.91.58,0,.24-.18.32-.34.38-.19.08-1.46.38-2.85.64.06,1.63.14,2.48.35,3.49,1.5.27,3.36,1.14,3.36,2,0,.21-.11.59-.5.59-.19,0-.24-.03-.78-.42-.88-.62-1.7-.95-2.02-1.07-.11,1.5-1.23,2.05-2.74,2.05-1.65,0-2.79-.86-2.79-1.7,0-1.3,1.89-1.7,3.47-1.7.4,0,.66.02.93.05-.18-1.38-.21-2.91-.21-3.15-.74.08-1.52.14-2.27.14-.9,0-1.65-.16-1.65-.77,0-.34.4-.82,1.04-.9-.16.21-.27.37-.27.56,0,.27.32.29.82.29,1.1,0,1.95-.14,2.32-.19,0-.8,0-1.09.05-2.38-1.31.19-2.46.22-2.87.22-1.33,0-1.97-.38-2.37-1.26.58.24,1.1.46,2.22.46.4,0,1.47-.08,3.04-.32,0-.22.03-1.25.03-1.36,0-.72-.16-.9-1.23-1.3.18-.16.38-.37.94-.37.75,0,1.66.51,1.66,1.04,0,.19-.02.26-.22.85-.13.37-.16.7-.19.93.74-.18,1.66-.5,2.5-.78.1-.03.21-.06.32-.06.32,0,.98.29.98.64,0,.16-.08.3-.29.38Zm-5.95,8.1c-1.18,0-2.24.32-2.24.93,0,.32.5.77,1.76.77.51,0,1.15-.11,1.57-.38.51-.32.51-.83.51-1.12-.22-.08-.58-.19-1.6-.19Z"/>
        <path class="cls-2" d="m340.12,43.1c-.53,0-1.38-.19-1.9-.24-.59-.05-1.1-.06-1.5-.06-.67,0-1.42.05-1.92.08-.02.5-.02.87-.02,1.28s.02.7.03.99c.24.43.69,1.2.69,2.53,0,2.42-1.55,4.67-4.5,5.71l-.06-.11c1.79-1.12,3.03-2.85,3.25-4.56-.34.27-.66.53-1.06.53-.8,0-1.81-1.06-1.81-2.43,0-1.17.77-2.32,1.87-2.32.35,0,.64.1.93.19,0-.08-.03-1.15-.03-1.73-.98.11-3.65.46-5.22,1.31-.46.24-.51.27-.66.27-.54,0-1.31-.99-1.31-1.65,0-.18.05-.3.13-.45.32.43.66.75,1.17.75.18,0,1.44-.22,2.16-.34,1.5-.26,2.69-.43,3.71-.53-.11-2.56-.11-2.61-1.44-3.11.46-.37.85-.37.93-.37.42,0,1.62.43,1.62.95,0,.05-.11.51-.14.62-.06.29-.14.9-.21,1.83.37-.03,4.48-.4,4.5-.4.54,0,1.31.37,1.31.82,0,.35-.34.43-.51.43Zm-7.17,2.1c-.45,0-1.07.54-1.07,1.46s.7,1.65,1.3,1.65c.53,0,.96-.58.96-1.5,0-.38-.06-1.6-1.18-1.6Z"/>
        <path class="cls-2" d="m345.02,52.77c-1.3,0-2.3-1.07-2.3-2.37s1.04-2.35,2.3-2.35,2.32,1.04,2.32,2.35-1.01,2.37-2.32,2.37Zm0-4.26c-1.02,0-1.84.86-1.84,1.89s.8,1.9,1.84,1.9,1.86-.86,1.86-1.89-.83-1.9-1.86-1.9Z"/>
      </g>
    </g>
  </g>
</svg>