<svg id="area03-02-txt" xmlns="http://www.w3.org/2000/svg" width="347.34" height="81" viewBox="0 0 347.34 81">
  <path id="パス_77" data-name="パス 77" d="M38,21.5a24.565,24.565,0,0,1-3.48-2.06,16.4,16.4,0,0,1-4.99-5.14c.02,1.1.05,5.9.1,6.89,0,.12.02.65.02.74,0,.41-.05.62-.31.82a1.682,1.682,0,0,1-.82.31c-.41,0-.48-.43-.48-.67,0-.19.02-1.03.05-1.2,0-.96.1-5.16.12-6.03a23.339,23.339,0,0,1-10.1,6.53l-.1-.17c2.86-1.2,7.39-4.97,9.22-7.25h-3.7c0,.55-.05.67-.12.77a1.109,1.109,0,0,1-.91.43c-.41,0-.43-.26-.43-.41a2.274,2.274,0,0,1,.05-.43c.1-1.15.14-3.34.14-4.42a15.6,15.6,0,0,0-.31-3.94l1.78.82h4.54c0-.36,0-1.01-.02-2.45H21.79a20.631,20.631,0,0,0-3.07.26l-.58-1.03c1.8.14,3.55.19,3.98.19h6.1a7.753,7.753,0,0,0-.5-3.1l2.26.58c.14.05.36.1.36.26,0,.14-.07.24-.29.41-.19.17-.36.29-.48.38,0,.1-.02.98-.02,1.46H36.7l.79-1.15c.12-.17.22-.29.34-.29a.824.824,0,0,1,.46.24L39.59,4a.533.533,0,0,1,.24.36c0,.22-.22.26-.36.26H29.56V7.07h4.42l.79-.62c.12-.1.17-.12.26-.12a.5.5,0,0,1,.24.1l1.03.77c.14.12.22.17.22.31a.367.367,0,0,1-.22.31q-.34.22-.58.41c0,1.82,0,1.9.19,5.62.02.24.02.48.02.5,0,.41-.07.58-.41.74a1.38,1.38,0,0,1-.58.17c-.48,0-.48-.34-.46-1.01H29.99c1.75,1.9,5.47,5.04,10.39,5.18v.22A3.291,3.291,0,0,0,38,21.47ZM28.25,7.67H23.52v2.59h4.73Zm0,3.17H23.52V13.7h4.73Zm6.22-3.17H29.53v2.59h4.94Zm0,3.17H29.53V13.7h4.94Z" fill="#0b090d"/>
  <path id="パス_78" data-name="パス 78" d="M45.37,21.43a.881.881,0,0,1-.86-.82c0-.5.41-.84.98-1.32a5.666,5.666,0,0,0,1.87-2.71h.12a7.882,7.882,0,0,1,.07.82c0,1.34-.7,4.03-2.18,4.03ZM63.8,7.48a2.439,2.439,0,0,0-.53.36c-.02.43-.02.89.02,2.4.02.36.17,3.19.17,3.31a.892.892,0,0,1-1.01.89c-.55,0-.58-.34-.55-.84H50.64a17.387,17.387,0,0,0-3.07.29l-.58-1.03c1.8.14,3.55.17,3.98.17H61.89V10.51H50.97a21.136,21.136,0,0,0-3.1.26l-.55-1.03c1.8.14,3.53.19,3.98.19H61.88V7.46H47.91A21.04,21.04,0,0,1,44.89,9.6l-.1-.17c3.6-3.05,6.05-6.6,6.24-8.59l1.82.89c.24.12.36.22.36.38,0,.29-.26.36-.94.48-.22.26-.5.62-.62.79H57.6l.72-.67c.26-.24.34-.26.41-.26.14,0,.22.07.48.26l1.01.79a.41.41,0,0,1,.17.31.294.294,0,0,1-.24.29c-.19.07-1.06.24-1.22.29-.46.38-2.5,2.16-2.93,2.5h5.47l.82-.67c.26-.22.29-.24.41-.24a.574.574,0,0,1,.36.22l.67.58c.22.19.29.26.29.38,0,.14-.07.24-.24.34ZM51.22,3.95a27.519,27.519,0,0,1-2.64,2.93h6.96c.24-.36,1.27-2.02,1.39-2.21a6.862,6.862,0,0,0,.38-.72h-6.1Zm9,18.15a6.53,6.53,0,0,1-1.32.12c-1.92.05-3.82.05-5.74.05s-2.54-.1-2.54-2.18c0-.38.05-2.06.05-2.4a10.593,10.593,0,0,0-.24-2.71l1.9.55c.38.12.41.24.41.31,0,.19-.24.34-.31.36a2.074,2.074,0,0,0-.48.36v3.62c0,.65.26.74.53.82.22.05,3.24.07,3.72.07,2.86,0,3.17-.38,3.43-1.13a15.864,15.864,0,0,0,.6-2.5h.19c.1.41.38,2.18.53,2.52.07.24.12.26.53.55a.542.542,0,0,1,.24.41s-.02.91-1.49,1.18Zm-3.41-3.96c-.5,0-.58-.19-.98-1.1a5.115,5.115,0,0,0-1.44-2.11l.05-.12c1.97.34,3.17,1.63,3.17,2.47a.769.769,0,0,1-.79.86Zm8.54,1.97c-.6,0-.72-.29-1.08-1.06a5.763,5.763,0,0,0-2.04-2.93l.07-.14c2.78.79,3.82,2.38,3.82,3.19C66.12,19.75,65.83,20.11,65.35,20.11Z" fill="#0b090d"/>
  <path id="パス_79" data-name="パス 79" d="M73.59,21.31a23.177,23.177,0,0,0,6.98-6.12,23.725,23.725,0,0,0,3.7-8.3A69.6,69.6,0,0,0,73.88,8.14a4.143,4.143,0,0,0-.74.38,1.191,1.191,0,0,1-.46.17c-.26,0-.7-.48-.91-.72a2.66,2.66,0,0,1-.79-1.75,1.861,1.861,0,0,1,.12-.67,5.024,5.024,0,0,0,1.22,1.22,2.068,2.068,0,0,0,1.08.17c.98,0,10.27-.91,10.59-1.01.17-.07.84-.6.91-.6.19,0,1.9,1.32,1.9,1.78,0,.17-.07.19-.77.58-.46.24-.53.41-.79,1.13-1.61,4.3-2.59,6.38-5.16,8.83a15.9,15.9,0,0,1-6.41,3.86l-.07-.19ZM88.52,5.97a2.26,2.26,0,1,1,2.26-2.26A2.258,2.258,0,0,1,88.52,5.97Zm0-3.72a1.462,1.462,0,0,0-1.46,1.46,1.475,1.475,0,1,0,2.95,0A1.468,1.468,0,0,0,88.52,2.25Z" fill="#0b090d"/>
  <path id="パス_80" data-name="パス 80" d="M96.9,21.67c5.98-2.62,9.72-8.69,10.3-12.24-1.85.14-8.71.79-9.79,1.49-.46.31-.5.34-.67.34A3.34,3.34,0,0,1,94.48,8.6a2.546,2.546,0,0,1,.12-.74,3.065,3.065,0,0,0,2.59,1.56c.89,0,8.9-.65,9.53-.79.22-.05.43-.12,1.03-.65a.494.494,0,0,1,.34-.19c.26,0,1.9,1.2,1.9,1.66,0,.24-.07.26-.77.6-.48.24-.5.29-.79,1.06a21.851,21.851,0,0,1-5.57,7.95,12.741,12.741,0,0,1-5.9,2.81l-.05-.17Zm2.45-16.9a31.733,31.733,0,0,0,5.86-.72,2.77,2.77,0,0,1,1.1-.31c.38,0,1.68.14,1.68.77s-.67.65-2.52.77c-1.13.07-6.6.65-7.15.65-.48,0-1.63-.53-1.82-2.28a3.427,3.427,0,0,0,2.86,1.13Z" fill="#0b090d"/>
  <path id="パス_81" data-name="パス 81" d="M123.37,22.03c3.79-3.55,4.25-7.87,4.34-12.62-1.7.07-4.85.43-5.62.53.02.67.05,3.7.07,4.32.02.29.02.31.02.55,0,.46,0,1.27-.55,1.27-.46,0-.89-.94-.89-1.68,0-.19.12-1.08.14-1.25a24.262,24.262,0,0,0,.14-3.07,15.13,15.13,0,0,0-3.29.84,5.2,5.2,0,0,1-.89.34,2.492,2.492,0,0,1-1.66-2.23,2.321,2.321,0,0,1,.1-.74c.91,1.27,1.51,1.3,2.02,1.3a4.485,4.485,0,0,0,.74-.05c1.34-.12,1.49-.14,2.98-.29a35.984,35.984,0,0,0-.31-4.49c-.24-.46-.62-.55-1.61-.82a2.56,2.56,0,0,1,1.39-.53c.77,0,1.9.7,1.9,1.1a8.073,8.073,0,0,1-.22.91c-.1.55-.1,2.98-.1,3.7,2.71-.26,3.02-.29,5.62-.46.02-.79.07-4.27-.34-4.85a5.976,5.976,0,0,0-1.82-.77,2.962,2.962,0,0,1,1.51-.5c.43,0,2.33.43,2.33,1.3a6.813,6.813,0,0,1-.22.89,21.825,21.825,0,0,0-.26,3.86c.43-.02,2.35-.14,2.76-.17a4.463,4.463,0,0,0,1.15-.24,1.566,1.566,0,0,1,.43-.07c.24,0,2.09.6,2.09,1.25,0,.41-.19.6-.53.6-.1,0-1.78-.31-2.11-.36-.38-.05-2.76-.22-3.82-.22-.1,4.73-.19,9.89-5.45,12.82l-.07-.17Zm10.2-18.12a1.952,1.952,0,0,1,1.01,1.7c0,.58-.34.62-.43.62-.29,0-.36-.07-1.25-1.3a10.006,10.006,0,0,0-1.97-2.04,8.536,8.536,0,0,1,2.64,1.01Zm3.38-.24c0,.55-.22.86-.46.86-.29,0-.36-.1-1.06-.98a9.592,9.592,0,0,0-2.42-1.99c1.87.07,3.94,1.01,3.94,2.11Z" fill="#0b090d"/>
  <path id="パス_82" data-name="パス 82" d="M161.36,4.08h-7.13c0,.17.02.91.02,1.06a.928.928,0,0,1-.84.89c-.34,0-.53-.26-.53-.67,0-.19.05-1.08.05-1.27h-4.61c.02.26.12,1.49.12,1.73,0,.31-.58.62-1.01.62-.29,0-.36-.14-.36-.38,0-.31.07-1.68.07-1.97H144.5a17.387,17.387,0,0,0-3.07.29l-.58-1.06c1.97.17,3.74.19,3.98.19h2.28a9.96,9.96,0,0,0-.24-2.38l1.9.5c.17.05.31.12.31.29s-.41.46-.7.67a6.331,6.331,0,0,0-.05.91h4.61a8.967,8.967,0,0,0-.29-2.38l1.94.5c.12.02.31.12.31.26,0,.29-.53.55-.72.62v.98h4.56l.7-.94c.1-.12.24-.29.38-.29.12,0,.22.1.41.24l1.22.94a.533.533,0,0,1,.24.36c0,.24-.22.26-.36.26Zm-17.98,9.05c-.36,0-.41-.1-.96-.98a8,8,0,0,0-1.25-1.56l.05-.17c2.35.24,2.86,1.61,2.86,1.94a.72.72,0,0,1-.7.77Zm.89,3.94a10.8,10.8,0,0,0-.53,1.85,4.417,4.417,0,0,0,.46,1.27,4.036,4.036,0,0,1,.36,1.54c0,.7-.34,1.2-.91,1.2s-.89-.38-.89-1.01c0-.19.02-1.01.02-1.18,0-1.2-.26-2.62-1.49-3.1V17.5c1.06,0,1.18,0,1.42-.31.77-1.03,3.22-5.78,3.77-6.82l.07.02a61.123,61.123,0,0,1-2.28,6.67Zm1.15-8.38c-.38,0-.43-.07-1.03-1.18a3.369,3.369,0,0,0-1.08-1.42l.05-.12a5.309,5.309,0,0,1,2.06.74,1.7,1.7,0,0,1,.72,1.15.733.733,0,0,1-.72.82Zm16.47,0h-7.42c-.02.48-.02,1.61-.02,2.11h3.79l.48-.55c.12-.14.19-.22.29-.22.12,0,.31.17.48.31l.94.79a.486.486,0,0,1,.14.26c0,.26-.43.46-.86.67.02,1.27.02,3.5.1,4.85.1,1.42.1,2.52.1,2.76,0,1.51,0,2.86-2.16,3.12a2.919,2.919,0,0,0-1.54-1.75l.02-.12c.19,0,1.46.02,1.75,0,.55-.05.55-.53.55-1.56,0-.29-.02-1.63-.02-1.92H154.6c0,.62.1,4.34.1,4.68,0,.6-.55.86-1.06.86-.46,0-.5-.26-.5-.5,0-.31.07-4.46.1-5.04h-3.65c0,.7.1,3.98.1,4.37,0,.6-.55.84-1.08.84-.36,0-.41-.19-.41-.5,0-1.25.12-6.77.12-7.9a29.129,29.129,0,0,0-.19-4.15l1.63.7h3.5V8.69h-2.71a17.806,17.806,0,0,0-3.1.29l-.55-1.03c1.97.14,3.74.17,3.98.17h2.38a6.085,6.085,0,0,0-.22-1.94l2.06.6a.226.226,0,0,1,.19.22c0,.24-.26.38-.77.62,0,.1-.02.36-.02.5h5.26l.46-.77c.1-.17.24-.38.36-.38a1.081,1.081,0,0,1,.43.24l1.01.86a.542.542,0,0,1,.24.38c0,.22-.22.24-.36.24Zm-8.62,2.69h-3.7v2.47h3.7Zm-3.7,3.05v2.45h3.65l.05-2.45Zm8.93-3.05h-4.06c.02.41.05,2.21.05,2.47h4.01Zm0,3.05h-3.98l.05,2.45h3.94V14.43Zm-.5-7.2c-.43,0-.53-.17-1.03-.98a3.352,3.352,0,0,0-1.06-1.03l.02-.07c1.44.05,2.69.53,2.69,1.46a.572.572,0,0,1-.62.62Z" fill="#0b090d"/>
  <path id="パス_83" data-name="パス 83" d="M185.99,4.66c-.05,1.25-.07,2.3-.07,4.3s.17,10.18.29,11.69c0,.1.02.24.02.34,0,.79-.86,1.01-1.22,1.01-.48,0-.48-.1-.46-1.18H170.03c.02.65.05,1.49-.96,1.49-.55,0-.58-.31-.58-.65,0-.36.22-10.61.22-12.6a47.445,47.445,0,0,0-.36-6.82l1.9,1.15h14.11l.58-.58c.24-.24.26-.26.36-.26a.759.759,0,0,1,.38.19l1.1.79c.17.12.31.24.31.41,0,.29-.34.43-1.1.72Zm-9.34-.7h-6.62v7.68h6.62V3.96Zm0,8.26h-6.62v8.02h6.62V12.22Zm7.92-8.26H177.9v7.68h6.67Zm0,8.26H177.9v8.02h6.67V12.22Z" fill="#0b090d"/>
  <path id="パス_84" data-name="パス 84" d="M198.1,21.75a9.819,9.819,0,0,1,0-15.5l.14.22a10.482,10.482,0,0,0-3.04,7.52,10.482,10.482,0,0,0,3.04,7.52l-.14.22Z"/>
  <path id="パス_85" data-name="パス 85" d="M206.39,9.74a.319.319,0,0,1,.21.29c0,.14-.18.24-.67.34-.21.26-.66.78-1.34,1.63-.61.74-1.14,1.33-1.57,1.78.08,0,1.42-.06,2.27-.18a4.39,4.39,0,0,0-.66-.91l.08-.1c1.25.48,2.21,1.2,2.21,1.94a.614.614,0,0,1-.61.66c-.38,0-.54-.19-.69-.74-.02-.05-.08-.27-.18-.51l-1.46.32c0,.69.05,3.97.05,4.27.02.32.06,1.76.06,2.05a.723.723,0,0,1-.77.69c-.34,0-.43-.21-.43-.48s.06-1.31.06-1.54c.02-.51.03-2.08.05-4.79-1.01.22-1.81.4-2.02.45-.1.16-.26.46-.4.46-.16,0-.26-.19-.29-.29l-.35-1.36a6.029,6.029,0,0,0,1.14.11c.5,0,1.23-.02,1.49-.03a20.652,20.652,0,0,0,2.29-4.15,2.2,2.2,0,0,0,.1-.64l1.42.72Zm-6.32,10.53a13.007,13.007,0,0,0,1.12-4.67l1.31.48c.11.05.22.14.22.22,0,.11-.1.19-.51.35a10.032,10.032,0,0,1-2.06,3.67Zm.61-10.52a7.687,7.687,0,0,1,1.38.45,8.874,8.874,0,0,0,1.06-3.59l1.52.75a.289.289,0,0,1,.19.24c0,.24-.24.29-.61.35-.75.96-.86,1.1-1.95,2.35a1.685,1.685,0,0,1,.94,1.26.717.717,0,0,1-.66.77c-.37,0-.46-.19-.82-.98a4.534,4.534,0,0,0-1.07-1.52l.02-.1Zm3.78,6.1c.66.29,2.26,1.01,2.26,2.1a.729.729,0,0,1-.7.78c-.43,0-.51-.32-.72-1.06a4.585,4.585,0,0,0-.88-1.76l.05-.06Zm7.65-5.17.48-.45c.08-.08.18-.18.22-.18.06,0,.18.1.22.14l.77.66a.339.339,0,0,1,.14.24c0,.11-.3.34-.59.54-.1,4.43-.13,6.42-.98,8.05a2.8,2.8,0,0,1-2.48,1.57,2.786,2.786,0,0,0-1.46-1.81l.02-.1a16.8,16.8,0,0,0,2.13.32c1.62,0,1.7-5.28,1.7-6.93,0-.27-.02-1.41-.02-1.68h-4.32a9.028,9.028,0,0,1-1.57,2.29l-.1-.06A17.139,17.139,0,0,0,208,7.39a4.07,4.07,0,0,0-.08-.61l1.73.74a.26.26,0,0,1,.18.22c0,.16-.24.27-.62.45a18.266,18.266,0,0,1-1.06,2.48h3.95Zm-4.37,3.06c1.52.62,2.27,1.14,2.27,2,0,.38-.19.75-.64.75-.42,0-.54-.18-.9-1.28a4.111,4.111,0,0,0-.8-1.38l.06-.1Z"/>
  <path id="パス_86" data-name="パス 86" d="M221.59,14.64a2.952,2.952,0,0,1,1.09,2.37,3.473,3.473,0,0,1-3.73,3.38c-1.73,0-3.19-.98-3.19-2.26a.919.919,0,0,1,.91-1.02.78.78,0,0,1,.78.8,1.27,1.27,0,0,1-.1.51,1.222,1.222,0,0,0-.05.37c0,.61.69,1.06,1.44,1.06a2.738,2.738,0,0,0,2.48-2.83,2.818,2.818,0,0,0-2.5-2.93c-.1,0-.54.06-.64.06a.313.313,0,0,1-.35-.34.363.363,0,0,1,.37-.37c.1,0,.58.1.69.1a2.324,2.324,0,0,0,2.19-2.5,2.15,2.15,0,0,0-2.02-2.4,1.2,1.2,0,0,0-1.3,1.07,1.026,1.026,0,0,0,.05.24,1.652,1.652,0,0,1,.05.38.845.845,0,0,1-.82.88.825.825,0,0,1-.8-.88c0-.88,1.02-2.24,3.07-2.24s3.2,1.28,3.2,2.69a2.789,2.789,0,0,1-.59,1.63,3.836,3.836,0,0,1-2.03,1.36,4.227,4.227,0,0,1,1.78.86Z"/>
  <path id="パス_87" data-name="パス 87" d="M225.63,19.46a.93.93,0,1,1-.93-.93A.941.941,0,0,1,225.63,19.46Z"/>
  <path id="パス_88" data-name="パス 88" d="M230.88,15.44a2.69,2.69,0,0,1-1.39.42c-1.59,0-2.87-1.6-2.87-3.55,0-2.21,1.58-4.21,3.43-4.21s3.68,2.08,3.68,5.52c0,3.7-2.08,6.77-4.53,6.77-1.07,0-1.82-.64-1.82-1.39a.8.8,0,0,1,.82-.83c.32,0,.85.21.88,1.1.02.35.05.58.48.58a1.594,1.594,0,0,0,1.17-.56c1.42-1.57,1.5-3.94,1.57-5.36a4.02,4.02,0,0,1-1.41,1.52Zm.53-5.94a1.584,1.584,0,0,0-1.3-.86c-.85,0-2.05.9-2.05,3.52,0,.74.18,2.98,1.82,2.98.61,0,1.63-.45,2.39-2.18a7.73,7.73,0,0,0-.86-3.46Z"/>
  <path id="パス_89" data-name="パス 89" d="M237.1,16.21l2.32-2.26a.572.572,0,0,0,.21-.42c0-.26-.32-.51-.67-.51h-.3v-.51h3.99v.51h-.34a3.431,3.431,0,0,0-2.45,1.23l-.67.66,1.9,3.22c.54.91,1.06,1.44,1.84,1.44v.51h-3.55v-.51c.19,0,.83,0,.83-.51a.671.671,0,0,0-.1-.32l-1.78-2.99-1.23,1.18v1.68c0,.96.58.96,1.18.96v.51h-3.52v-.51h.38c.45,0,.8-.3.8-.96V9.69c0-.67-.58-.79-1.06-.74l-.06-.29,2.27-.56v8.1Z"/>
  <path id="パス_90" data-name="パス 90" d="M246.16,12.2v1.26a3.63,3.63,0,0,1,2.64-1.26,1.758,1.758,0,0,1,1.92,1.44,4,4,0,0,1,2.87-1.44c1.45,0,2.05.85,2.05,2.62V18.6c0,.61.32.96.8.96h.3v.51h-3.35v-.51h.29c.56,0,.82-.43.82-.96V14.92c0-.45-.08-2.03-1.41-2.03a2.986,2.986,0,0,0-2.26,1.39c0,.13.02.26.02.54V18.6c0,.67.37.96.8.96h.46v.51h-3.67v-.51h.46c.43,0,.8-.3.8-.96V14.92c0-.34-.03-2.03-1.39-2.03a2.858,2.858,0,0,0-2.16,1.26V18.6c0,.67.38.96.8.96h.29v.51h-3.33v-.51h.29c.48,0,.8-.34.8-.96V13.78c0-.5-.27-.75-.66-.75a1.75,1.75,0,0,0-.48.06l-.06-.3,2.35-.59Z"/>
  <path id="パス_91" data-name="パス 91" d="M258.4,21.75l-.14-.22a10.482,10.482,0,0,0,3.04-7.52,10.482,10.482,0,0,0-3.04-7.52l.14-.22a9.819,9.819,0,0,1,0,15.5Z"/>
  <rect id="長方形_3" data-name="長方形 3" width="7" height="81" fill="#1c2c5a"/>
  <rect id="長方形_4" data-name="長方形 4" width="84.39" height="23.44" rx="5" transform="translate(17.57 34.25)" fill="none" stroke="#000" stroke-miterlimit="10" stroke-width="1"/>
  <path id="パス_92" data-name="パス 92" d="M42.94,43.25h-.29c-.14.1-.21.16-.84.69-.08.06-.67.48-.79.58l-.06-.06a11.653,11.653,0,0,0,.59-1.94H32.07c-.02,1.41-.64,2.74-1.44,2.74a.63.63,0,0,1-.62-.67c0-.4.26-.67.79-1.22a4.089,4.089,0,0,0,1.02-2.1h.08a3.7,3.7,0,0,1,.18.86h6.41a7.822,7.822,0,0,0,1.12-3.63l1.47.82c.15.08.23.16.23.26,0,.14-.15.19-.7.29-.87,1.15-.97,1.28-1.81,2.27h2.61l.46-.37c.14-.11.24-.19.33-.19s.17.08.33.21l.9.75a.447.447,0,0,1,.18.34c0,.32-.36.38-.68.38Zm-1.95,6.42c.02.21.02.35.03,1.63,0,.14.06.91.06,1.09a.667.667,0,0,1-.7.7c-.46,0-.43-.38-.4-.67H33.7c0,.24.02.77-.65.77-.38,0-.46-.21-.44-.53.03-.64.09-1.97.09-2.59a11.376,11.376,0,0,0-.14-1.84l1.29.74h1.91a6.835,6.835,0,0,0,.43-1.89H34.56c0,.26.02.74-.61.74-.46,0-.46-.35-.46-.5,0-.4.09-2.16.09-2.53a5.091,5.091,0,0,0-.12-1.3l1.31.62h3.98l.38-.43c.11-.11.17-.16.23-.16a.558.558,0,0,1,.26.13l.56.45c.11.1.17.16.17.24,0,.13-.09.21-.46.5-.02.32.08,1.78.08,2.08a.607.607,0,0,1-.65.66c-.26,0-.44-.14-.43-.5H37.51a14.768,14.768,0,0,1-1.31,1.89h3.65l.33-.45c.08-.11.15-.18.23-.18a.5.5,0,0,1,.27.14l.58.45a.436.436,0,0,1,.17.26c0,.11-.09.22-.46.48Zm-6.82-7.99c-.41,0-.52-.35-.62-.75a5.084,5.084,0,0,0-.85-1.89l.06-.08c.79.42,2.01,1.06,2.01,2.06a.61.61,0,0,1-.59.66Zm5.84,7.67H33.72v2.69h6.29ZM38.93,44.5H34.57v2.19h4.36Zm-1.9-3.03c-.53,0-.64-.51-.75-1.06a4.4,4.4,0,0,0-.71-1.71l.06-.08c1.26.59,1.98,1.41,1.98,2.14,0,.11-.03.7-.58.7Z"/>
  <path id="パス_93" data-name="パス 93" d="M58.76,42.13H54.02l.79.5c.06.05.15.14.15.22,0,.19-.29.22-.56.24-.43.48-1.05,1.04-1.34,1.3h2.6l.59-.7c.08-.1.17-.19.24-.19a.588.588,0,0,1,.27.16l.7.71c.08.08.14.14.14.24,0,.16-.12.18-.23.18H52.52c0,.19.02,1.07.02,1.25h2.14l.53-.58c.09-.1.18-.19.26-.19s.15.08.29.18l.74.54a.341.341,0,0,1,.17.26c0,.14-.12.18-.23.18H52.53v1.39h3.91l.68-.82c.11-.13.15-.19.24-.19.11,0,.2.1.27.16l.84.82c.08.08.15.14.15.26,0,.14-.14.16-.24.16H52.83a8.988,8.988,0,0,0,5.93,3.09l.02.1a2.6,2.6,0,0,0-1.4,1.3,9.771,9.771,0,0,1-4.8-4.48h-.05c.02,1.46.03,1.75.03,2.05.02.37.09,1.95.09,2.29a.71.71,0,0,1-.77.66c-.41,0-.44-.26-.44-.5,0-.35.05-.94.06-1.31.02-.53.02-.77.05-2.99a11.272,11.272,0,0,1-6.03,4.32l-.03-.1a14.062,14.062,0,0,0,4.86-4.42H47.66a10.528,10.528,0,0,0-1.79.14l-.3-.64c1.02.1,2.05.11,2.34.11h3.65V46.44H48.9a10.847,10.847,0,0,0-1.79.14l-.3-.64c1.05.1,2.14.11,2.34.11h2.42V44.8H48.38a10.494,10.494,0,0,0-1.78.14l-.3-.64c1.02.1,2.08.11,2.34.11h4.13a8.243,8.243,0,0,0,.76-2.26H49.21c.88.3,1.69.78,1.69,1.55a.61.61,0,0,1-.61.64c-.35,0-.4-.1-.76-1.06a3.994,3.994,0,0,0-.62-1.14H47.33a9.117,9.117,0,0,0-1.79.14l-.29-.64c1.03.1,2.11.11,2.33.11h2.86a11.855,11.855,0,0,0-.26-3.3l1.47.45c.14.05.21.1.21.24,0,.18-.17.27-.46.38v2.22h1.12c0-2.03,0-2.5-.32-3.3l1.55.43c.09.03.26.08.26.24,0,.24-.36.37-.5.42v2.21h.65a12.029,12.029,0,0,0,.79-2.24,3.416,3.416,0,0,0,.08-.77l1.35.72c.09.05.18.11.18.22,0,.24-.36.29-.53.3-.47.53-1.28,1.44-1.58,1.76h2.39l.65-.72c.12-.13.18-.21.24-.21a.513.513,0,0,1,.3.18l.79.7c.09.08.17.14.17.26,0,.14-.14.18-.23.18Zm-9.88-.74c-.36,0-.47-.26-.76-.98a3.728,3.728,0,0,0-.88-1.27l.06-.11c.61.16,2.13.59,2.13,1.71a.588.588,0,0,1-.55.64Z"/>
  <path id="パス_94" data-name="パス 94" d="M64.94,41.01c-.02.58-.03.94-.03,1.71,0,1.68.09,5.31.12,6,0,.21.05.58.05.78,0,.61-.65.64-.73.64-.41,0-.41-.11-.38-1.17h-1.9c0,.11.05,1.42.05,1.46,0,.58-.59.69-.76.69-.38,0-.38-.3-.38-.5,0-.18.05-.96.05-1.12.05-1.22.06-5.71.06-6.08a26.3,26.3,0,0,0-.18-3.95l1.32.67h1.55l.44-.42c.17-.14.2-.21.27-.21a.383.383,0,0,1,.24.14l.61.58a.4.4,0,0,1,.12.26c0,.14-.3.35-.52.51Zm-.96-.48H62.07v3.76h1.91Zm0,4.15H62.07V48.6h1.91Zm9.94-.3H67.23a10.042,10.042,0,0,0-1.79.14l-.29-.64c.94.08,1.87.11,2.33.11h1.28V41.54h-.67a10.591,10.591,0,0,0-1.79.14l-.29-.64c1,.1,2.07.11,2.33.11h.43a7.17,7.17,0,0,0-.26-2.61l1.57.48c.17.05.27.13.27.26s-.05.16-.49.48c-.02.38-.02.48-.03,1.39h1.49l.56-.69c.11-.14.17-.19.24-.19a.376.376,0,0,1,.27.16l.75.69a.3.3,0,0,1,.15.24c0,.14-.14.18-.23.18H69.81v2.45h2.31l.58-.74c.12-.16.17-.21.23-.21.09,0,.14.06.29.19l.81.72a.335.335,0,0,1,.14.24c0,.16-.14.18-.23.18Zm-.03,2.93H71.37c0,.32.05,3.33.05,3.84,0,.61,0,1.6-1.96,1.99-.14-.53-.3-.98-1.4-1.6l.03-.11c.3.03,1.25.11,1.49.11.68,0,.78-.14.79-.46.02-.29.02-3.5,0-3.76H67.42a11,11,0,0,0-1.79.14l-.29-.64c1.03.1,2.11.11,2.33.11h2.71a11.481,11.481,0,0,0-.2-2.21l1.37.35c.2.05.29.08.29.21,0,.11-.05.14-.44.46-.02.3-.02.4-.02,1.18h.71l.62-.75c.12-.14.18-.19.26-.19s.14.03.26.16l.74.75c.11.1.15.14.15.24,0,.14-.12.18-.23.18Zm-5.81,3.22c-.46,0-.55-.45-.62-.88a3.617,3.617,0,0,0-.71-1.78l.06-.1c1.49.62,1.91,1.55,1.91,2.05A.675.675,0,0,1,68.08,50.53Z"/>
  <path id="パス_95" data-name="パス 95" d="M81.55,40.48v1.83c0,.26.06,1.49.06,1.66a.68.68,0,0,1-.74.62c-.41,0-.36-.38-.33-.58h-2.6v4.02c0,.58.06,3.36.06,3.98,0,.42-.15.9-.77.9a.393.393,0,0,1-.44-.42c0-.1.05-.51.05-.61.12-1.81.12-2.8.12-9.81a12.456,12.456,0,0,0-.17-3.2l1.41.7h2.19l.4-.38c.09-.08.15-.16.21-.16a.325.325,0,0,1,.18.1l.79.61a.259.259,0,0,1,.11.21c0,.11-.09.21-.52.53Zm-1-.51H77.94v1.6h2.61Zm0,1.99H77.94v1.68h2.61Zm4.21,4.48c0,.75,0,1.97.05,2.93,0,.14.06.8.06.93a.689.689,0,0,1-.76.74c-.2,0-.4-.05-.32-.8H80.83c.03.38.09,1.04-.71,1.04-.33,0-.35-.27-.35-.45,0-.1.03-.51.05-.69.06-.91.06-2.62.06-2.77a15.281,15.281,0,0,0-.11-2.26l1.11.58h2.89l.26-.35c.08-.11.17-.21.29-.21a.385.385,0,0,1,.24.13l.55.5a.286.286,0,0,1,.14.21c0,.11-.14.26-.47.48Zm-.97-.37H80.83v1.68h2.96Zm0,2.07H80.83v1.71h2.96Zm4.33-7.6c0,1.55.03,8.42.03,9.81s0,1.82-.61,2.27a3.375,3.375,0,0,1-1.15.53c-.12-.56-.26-1.17-1.64-1.73l.03-.11c.26.02,1.64.1,1.79.1s.43,0,.52-.19a15.553,15.553,0,0,0,.06-1.74c0-.86-.02-4.67-.02-5.44H84.26c.02.45-.3.66-.71.66a.335.335,0,0,1-.35-.38c0-.7.05-3.75.05-4.35a10.134,10.134,0,0,0-.08-1.03l1.26.67H87l.37-.43c.06-.06.18-.18.27-.18a.359.359,0,0,1,.24.11l.73.66a.308.308,0,0,1,.12.22c0,.13-.12.24-.61.56Zm-.99-.56H84.24v1.6h2.89Zm0,1.99H84.24v1.68h2.89Z"/>
  <path id="パス_96" data-name="パス 96" d="M114.85,51.65l-.51-.51,5.2-5.19-5.2-5.19.51-.51,5.19,5.2,5.19-5.2.51.51-5.2,5.19,5.2,5.19-.51.51-5.19-5.2Zm2.16-5.7a1.335,1.335,0,1,1-1.33-1.33A1.336,1.336,0,0,1,117.01,45.95Zm4.35-4.35a1.33,1.33,0,1,1-2.66,0,1.33,1.33,0,1,1,2.66,0Zm0,8.71a1.33,1.33,0,1,1-1.33-1.33A1.338,1.338,0,0,1,121.36,50.31Zm4.37-4.35a1.338,1.338,0,0,1-1.34,1.33,1.317,1.317,0,0,1-1.33-1.33,1.336,1.336,0,0,1,1.33-1.33A1.358,1.358,0,0,1,125.73,45.96Z"/>
  <path id="パス_97" data-name="パス 97" d="M135.52,41.06a5.42,5.42,0,0,0-.35-2.42l1.76.34c.13.03.26.08.26.24,0,.11-.05.14-.53.53,0,.06-.02.91-.02,1.31h4.1l.69-.77c.08-.1.16-.21.24-.21.13,0,.19.08.3.18l.93.77c.08.08.16.13.16.26s-.14.16-.24.16H131.78c0,.59.02,3.18.02,3.71,0,2.18-.37,5.84-2.74,7.96l-.1-.1c1.44-2.75,1.73-4.69,1.73-8.4a18.752,18.752,0,0,0-.32-4.34l1.54.78h3.62Zm4.51,3.27.67-.77c.11-.13.18-.19.26-.19.13,0,.18.06.3.18l.88.77a.328.328,0,0,1,.14.24c0,.14-.13.16-.24.16h-4.72c0,.48-.02,2.72,0,3.04h2.61l.48-.58c.1-.11.16-.19.24-.19a.655.655,0,0,1,.29.16l.66.48c.14.11.22.18.22.26,0,.11-.06.14-.56.53.02.99.02,2.46.06,3.41,0,.11.05.64.05.75a.738.738,0,0,1-.74.74c-.42,0-.43-.18-.45-.72h-5.84c0,.45-.02.88-.78.88-.16,0-.43-.03-.43-.4,0-.05.02-.14.03-.24.08-.69.08-2.3.08-3.42a16.6,16.6,0,0,0-.14-2.43l1.39.79h1.76c-.02-.54-.03-2.98-.05-3.47a6.218,6.218,0,0,0-.29-2.32l1.59.35c.14.03.3.08.3.24s-.27.34-.48.46v1.31h2.71Zm-5.67,3.81v4.07h5.81V48.14Z"/>
  <path id="パス_98" data-name="パス 98" d="M150.58,42.59c-.43,0-.58-.29-.96-1.06a4.765,4.765,0,0,0-.96-1.26,13.045,13.045,0,0,1-4.15,4.5l-.06-.1a19.067,19.067,0,0,0,3.28-5.22,3.065,3.065,0,0,0,.18-.88l1.33.8a.316.316,0,0,1,.18.27c0,.19-.16.22-.54.29a.938.938,0,0,1-.1.14c.62.19,2.42.82,2.42,1.87a.589.589,0,0,1-.61.64Zm.38,4.26h-4.05a10.17,10.17,0,0,0-1.89.14l-.32-.64c1.1.1,2.24.11,2.46.11h.59l.02-1.76a8.867,8.867,0,0,0-1.7.14l-.3-.64c.34.03.93.08,2,.1a6.731,6.731,0,0,0-.21-1.87l1.41.37c.08.02.27.08.27.24,0,.13-.1.19-.46.43,0,.06,0,.74-.02.85h.53l.34-.46c.05-.06.13-.19.24-.19a.518.518,0,0,1,.3.18l.46.45c.08.08.16.16.16.24,0,.14-.13.18-.24.18h-1.79l.02,1.76h.8l.32-.48c.06-.1.14-.21.22-.21a.591.591,0,0,1,.3.16l.61.5c.06.05.16.13.16.24,0,.14-.13.18-.24.18Zm-.46,2.1c0,.18.08,3.14.08,3.25a.648.648,0,0,1-.67.75c-.5,0-.48-.26-.46-1.04h-2.42c0,.08.02.46.02.54a.651.651,0,0,1-.7.64c-.29,0-.46-.11-.46-.4,0-.18.05-.93.05-1.07.03-.83.03-1.7.03-2.34a7.438,7.438,0,0,0-.11-1.76l1.33.74h2.08l.43-.45a.37.37,0,0,1,.24-.16c.06,0,.16.08.21.11l.62.48c.14.11.19.16.19.26s-.03.14-.45.45Zm-1.06-.3h-2.42v2.88h2.42ZM159,41.38h-3.7V43.2h1.68l.42-.4a.436.436,0,0,1,.27-.16.62.62,0,0,1,.26.13l.64.45c.13.1.18.16.18.24,0,.1-.05.14-.51.51-.02.34-.03.77-.03,1.55,0,.91.1,4.91.1,5.73a1.618,1.618,0,0,1-1.65,1.84,2.094,2.094,0,0,0-.94-1.5v-.08c.26.02.56.05.99.05.22,0,.43,0,.48-.24.03-.18.02-2.3.02-2.66h-1.86c0,1.04.03,2.71.03,3.75,0,.3,0,.88-.77.88a.369.369,0,0,1-.4-.42c0-.66.06-3.6.06-4.21h-1.5c0,.46.02,3.46.02,3.83,0,.18-.02.64-.67.64-.45,0-.45-.3-.45-.46,0-.34.06-1.79.06-2.08.06-3.17.05-4.99.05-5.38a17.393,17.393,0,0,0-.11-2.69l1.3.69h1.34V41.39h-.75a11.6,11.6,0,0,0-1.89.16l-.32-.64c.99.08,1.98.1,2.47.1h.5a4.607,4.607,0,0,0-.29-2.3l1.57.42c.1.03.24.08.24.22s-.05.18-.48.4c-.02.42-.02.46-.03,1.26h2.19l.48-.62c.08-.1.16-.21.24-.21.11,0,.21.11.29.19l.58.62c.1.1.16.16.16.24,0,.14-.13.16-.24.16Zm-6.24,2.21v2.13h1.52l.02-2.13h-1.54Zm0,2.51v2.18h1.5l.02-2.18Zm4.43-2.51H155.3v2.13h1.89Zm0,2.51H155.3l.03,2.18h1.86Zm0-5.54c-.27,0-.34-.1-.67-.56a2.665,2.665,0,0,0-.67-.67v-.08a3.332,3.332,0,0,1,.59-.05c.56,0,1.3.14,1.3.77a.556.556,0,0,1-.54.59Z"/>
  <path id="パス_99" data-name="パス 99" d="M163.97,47.59a18.719,18.719,0,0,0-.56,3.06c0,.18.08.94.08,1.1,0,.27-.03.59-.42.59-.66,0-1.7-1.47-1.7-4.72a40.236,40.236,0,0,1,.62-4.96,7.075,7.075,0,0,0,.1-1.07,2.154,2.154,0,0,0-.54-1.55.663.663,0,0,1,.29-.06c.58,0,1.62.9,1.62,1.52a2.069,2.069,0,0,1-.21.75,14,14,0,0,0-1.12,5.03c0,1.1.27,2.34.53,2.34.1,0,.18-.19.21-.3.18-.54.85-2.4,1.42-3.63l.13.03c-.1.45-.32,1.38-.45,1.89Zm7.7,3.36a16.031,16.031,0,0,1-3.92-.45,2.34,2.34,0,0,1-1.62-2.18,1.224,1.224,0,0,1,.16-.67c.37,1.22.66,2.15,3.68,2.15.32,0,1.87-.13,2.03-.13.56,0,1.23.24,1.23.69,0,.51-.56.59-1.57.59Zm-.13-8.47a7.575,7.575,0,0,0-3.09,1.18l-.1-.1c.24-.22,1.41-1.3,1.46-1.35a.146.146,0,0,0,.05-.13c0-.18-.5-.18-.59-.18a9.469,9.469,0,0,0-2.91.72,4.91,4.91,0,0,1,3.97-1.57c.99,0,2.13.29,2.13.85,0,.37-.34.46-.91.56Z"/>
  <path id="パス_100" data-name="パス 100" d="M184.11,51.49a5,5,0,0,1-1.41-.75,6.485,6.485,0,0,0-2.15-.99c-.1.91-.38,2.32-2.67,2.32-1.2,0-2.88-.59-2.88-1.68,0-.83.86-1.39,1.41-1.55a8.367,8.367,0,0,1,3.01-.3,20.612,20.612,0,0,1-.21-3.54c0-.32.02-3.38.02-3.49,0-.96-.19-1.31-1.34-1.52a1.205,1.205,0,0,1,1.01-.45c.56,0,1.74.43,1.74,1.06a7.039,7.039,0,0,1-.19.88,11.252,11.252,0,0,0-.22,1.28,11.018,11.018,0,0,0,2.55-.64,1.377,1.377,0,0,1,.48-.08c.22,0,.88.1.88.53a.465.465,0,0,1-.22.42,6.712,6.712,0,0,1-2.69.59,2.635,2.635,0,0,1-1.06-.27c-.02.29-.06.88-.06,1.71a17.77,17.77,0,0,0,.35,3.71c1.52.27,4.13,1.1,4.13,2.18,0,.32-.13.59-.46.59Zm-5.99-2.14c-.83,0-2.5.18-2.5.98,0,.64,1.15.79,1.84.79,1.92,0,1.98-1.07,1.98-1.63a6.21,6.21,0,0,0-1.33-.13Z"/>
  <path id="パス_101" data-name="パス 101" d="M191.33,51.96a6.379,6.379,0,0,1-2.27,1.41l-.03-.08c2.77-2,3.59-5.09,3.59-7.96,0-1.06-.06-3.97-1.26-3.97-.64,0-1.09.66-1.23.86a11.385,11.385,0,0,0-1.7,5.3c0,.18.11.99.11,1.15,0,.18-.06.45-.38.45-.94,0-1.23-1.87-1.23-3.31a34.752,34.752,0,0,1,.56-4.63,3.51,3.51,0,0,0,.06-.61,1.683,1.683,0,0,0-.93-1.46,3.214,3.214,0,0,1,.72-.11,1.385,1.385,0,0,1,1.41,1.15,2.028,2.028,0,0,1-.19.71,11.414,11.414,0,0,0-.9,4.29c0,.24,0,1.15.16,1.15.1,0,.13-.08.14-.16.37-1.31,1.74-5.41,3.63-5.41,2,0,2.21,3.14,2.21,4.74,0,2.95-.67,4.85-2.46,6.48Z"/>
  <path id="パス_102" data-name="パス 102" d="M209.67,43.41h-.3c-.14.1-.22.16-.88.69-.08.06-.7.48-.83.58l-.06-.06a11.482,11.482,0,0,0,.62-1.94h-9.99c-.02,1.41-.67,2.74-1.52,2.74a.651.651,0,0,1-.66-.67c0-.4.27-.67.83-1.22a3.962,3.962,0,0,0,1.07-2.1h.08a3.666,3.666,0,0,1,.19.86h6.75a7.474,7.474,0,0,0,1.18-3.63l1.55.82c.16.08.24.16.24.26,0,.14-.16.19-.74.29-.91,1.15-1.02,1.28-1.9,2.27h2.75l.48-.37a.717.717,0,0,1,.35-.19c.09,0,.18.08.35.21l.94.75a.431.431,0,0,1,.19.34c0,.32-.38.38-.72.38Zm-2.05,6.42c.02.21.02.35.03,1.63,0,.14.06.91.06,1.09a.7.7,0,0,1-.74.71c-.48,0-.45-.38-.42-.67h-6.61c0,.24.02.77-.69.77-.4,0-.48-.21-.46-.53.03-.64.1-1.97.1-2.59a11.376,11.376,0,0,0-.14-1.84l1.36.74h2.02a6.556,6.556,0,0,0,.45-1.89h-1.71c0,.26.02.74-.64.74a.428.428,0,0,1-.48-.5c0-.4.1-2.16.1-2.53a4.65,4.65,0,0,0-.13-1.3l1.38.62h4.19l.4-.43c.11-.11.18-.16.24-.16a.581.581,0,0,1,.27.13l.59.45c.11.1.18.16.18.24,0,.13-.1.21-.48.5-.02.32.08,1.78.08,2.08a.628.628,0,0,1-.69.66c-.27,0-.46-.14-.45-.5h-1.46a14.292,14.292,0,0,1-1.38,1.89h3.84l.35-.45c.08-.11.16-.18.24-.18a.585.585,0,0,1,.29.14l.61.45a.414.414,0,0,1,.18.26c0,.11-.1.22-.48.48Zm-7.19-7.99c-.43,0-.54-.35-.66-.75a4.869,4.869,0,0,0-.9-1.89l.06-.08c.83.42,2.11,1.06,2.11,2.06a.621.621,0,0,1-.62.66Zm6.15,7.67h-6.63V52.2h6.63Zm-1.14-4.85h-4.59v2.19h4.59Zm-2-3.03c-.56,0-.67-.51-.78-1.06a4.386,4.386,0,0,0-.75-1.71l.06-.08c1.33.59,2.08,1.41,2.08,2.15C204.05,41.04,204.02,41.63,203.44,41.63Z"/>
  <path id="パス_103" data-name="パス 103" d="M226.32,42.29h-4.99l.83.5c.06.05.16.14.16.22,0,.19-.3.22-.59.24a18.175,18.175,0,0,1-1.41,1.3h2.74l.62-.7c.08-.1.18-.19.26-.19a.647.647,0,0,1,.29.16l.74.7c.08.08.14.14.14.24,0,.16-.13.18-.24.18h-5.11c0,.19.02,1.07.02,1.25h2.26l.56-.58c.1-.1.19-.19.27-.19s.16.08.3.18l.78.54a.352.352,0,0,1,.18.26c0,.14-.13.18-.24.18h-4.11v1.39h4.11l.72-.82c.11-.13.16-.19.26-.19s.21.1.29.16l.88.82c.08.08.16.14.16.26,0,.14-.14.16-.26.16H220.1a9.613,9.613,0,0,0,6.24,3.09l.02.1a2.71,2.71,0,0,0-1.47,1.3,10.126,10.126,0,0,1-5.06-4.48h-.05c.02,1.46.03,1.74.03,2.05.02.37.1,1.95.1,2.29,0,.48-.48.66-.82.66-.43,0-.46-.26-.46-.5,0-.35.05-.95.06-1.31.02-.53.02-.77.05-2.99a11.874,11.874,0,0,1-6.35,4.32l-.03-.1a14.605,14.605,0,0,0,5.12-4.42h-2.83a11.72,11.72,0,0,0-1.89.14l-.32-.64c1.07.1,2.16.11,2.47.11h3.84V46.59h-2.8a12.114,12.114,0,0,0-1.89.14l-.32-.64c1.1.1,2.26.11,2.46.11h2.54V44.95h-3.36a11.583,11.583,0,0,0-1.87.14l-.32-.64c1.07.1,2.19.11,2.46.11H220a8.15,8.15,0,0,0,.8-2.26h-4.55c.93.3,1.78.78,1.78,1.55a.627.627,0,0,1-.64.64c-.37,0-.42-.1-.8-1.06a3.86,3.86,0,0,0-.66-1.14h-1.66a10.17,10.17,0,0,0-1.89.14l-.3-.64c1.09.1,2.23.11,2.45.11h3.01a11.284,11.284,0,0,0-.27-3.3l1.55.45c.14.05.22.1.22.24,0,.18-.18.27-.48.38v2.22h1.18c0-2.03,0-2.5-.34-3.3l1.63.43c.1.03.27.08.27.24,0,.24-.38.37-.53.42v2.21h.69a11.073,11.073,0,0,0,.83-2.24,3.417,3.417,0,0,0,.08-.77l1.42.72c.1.05.19.11.19.22,0,.24-.38.29-.56.3-.5.53-1.34,1.44-1.66,1.76h2.51l.69-.72c.13-.13.19-.21.26-.21a.555.555,0,0,1,.32.18l.83.71c.1.08.18.14.18.26,0,.14-.14.18-.24.18Zm-10.4-.74c-.38,0-.5-.26-.8-.98a3.5,3.5,0,0,0-.93-1.26l.06-.11c.64.16,2.24.59,2.24,1.71a.593.593,0,0,1-.58.64Z"/>
  <path id="パス_104" data-name="パス 104" d="M232.82,41.17c-.02.58-.03.94-.03,1.71,0,1.68.1,5.31.13,6,0,.21.05.58.05.78,0,.61-.69.64-.77.64-.43,0-.43-.11-.4-1.17h-2c0,.11.05,1.42.05,1.46,0,.58-.62.69-.8.69-.4,0-.4-.3-.4-.5,0-.18.05-.96.05-1.12.05-1.22.06-5.71.06-6.08a24.591,24.591,0,0,0-.19-3.95l1.39.67h1.63l.46-.42c.18-.14.21-.21.29-.21a.421.421,0,0,1,.26.14l.64.58a.407.407,0,0,1,.13.26c0,.14-.32.35-.54.51Zm-1.01-.48h-2.02v3.76h2.02Zm0,4.15h-2.02v3.92h2.02V44.84Zm10.47-.3h-7.04a11.208,11.208,0,0,0-1.89.14l-.3-.64c.99.08,1.97.11,2.45.11h1.34V41.7h-.7a11.787,11.787,0,0,0-1.89.14l-.3-.64c1.06.1,2.18.11,2.45.11h.45a6.878,6.878,0,0,0-.27-2.61l1.65.48c.18.05.29.13.29.26s-.05.16-.51.48c-.02.38-.02.48-.03,1.39h1.57l.59-.69c.11-.14.18-.19.26-.19a.41.41,0,0,1,.29.16l.78.69a.312.312,0,0,1,.16.24c0,.14-.14.18-.24.18h-3.43v2.45h2.43l.61-.74c.13-.16.18-.21.24-.21.1,0,.14.06.3.19l.85.72c.13.11.14.19.14.24,0,.16-.14.18-.24.18Zm-.03,2.93h-2.66c0,.32.05,3.33.05,3.84,0,.61,0,1.6-2.06,1.98-.14-.53-.32-.98-1.47-1.6l.03-.11c.32.03,1.31.11,1.57.11.72,0,.82-.14.83-.46.02-.29.02-3.51,0-3.76h-3.11a12.276,12.276,0,0,0-1.89.14l-.3-.64c1.09.1,2.22.11,2.45.11h2.85a10.635,10.635,0,0,0-.21-2.21l1.44.35c.21.05.3.08.3.21,0,.11-.05.14-.46.46-.02.3-.02.4-.02,1.18h.75l.66-.75c.13-.14.19-.19.27-.19s.14.03.27.16l.78.75c.11.1.16.14.16.24,0,.14-.13.18-.24.18Zm-6.11,3.22c-.48,0-.58-.45-.66-.88a3.556,3.556,0,0,0-.75-1.78l.06-.1c1.57.62,2.02,1.55,2.02,2.05a.683.683,0,0,1-.67.7Z"/>
  <path id="パス_105" data-name="パス 105" d="M250.3,40.64v1.82c0,.26.06,1.49.06,1.67a.707.707,0,0,1-.78.62c-.43,0-.38-.38-.35-.58h-2.74v4.02c0,.58.06,3.36.06,3.99,0,.42-.16.9-.82.9a.4.4,0,0,1-.46-.42c0-.1.05-.51.05-.61.13-1.81.13-2.8.13-9.81a11.78,11.78,0,0,0-.18-3.2l1.49.7h2.3l.42-.38c.1-.08.16-.16.22-.16a.391.391,0,0,1,.19.1l.83.61a.259.259,0,0,1,.11.21c0,.11-.1.21-.54.53Zm-1.06-.51h-2.75v1.6h2.75Zm0,1.98h-2.75v1.68h2.75Zm4.43,4.48c0,.75,0,1.97.05,2.93,0,.14.06.8.06.93a.713.713,0,0,1-.8.74c-.21,0-.42-.05-.34-.8h-3.12c.03.38.1,1.04-.75,1.04-.35,0-.37-.27-.37-.45,0-.1.03-.51.05-.69.06-.91.06-2.62.06-2.77a15.281,15.281,0,0,0-.11-2.26l1.17.58h3.04l.27-.35a.415.415,0,0,1,.3-.21.459.459,0,0,1,.26.13l.58.5a.286.286,0,0,1,.14.21c0,.11-.14.26-.5.48Zm-1.02-.37h-3.12V47.9h3.12Zm0,2.06h-3.12v1.71h3.12Zm4.56-7.6c0,1.55.03,8.42.03,9.81s0,1.83-.64,2.27a3.6,3.6,0,0,1-1.22.53c-.13-.56-.27-1.17-1.73-1.73l.03-.11c.27.02,1.73.1,1.89.1.14,0,.45,0,.54-.19a15.648,15.648,0,0,0,.06-1.75c0-.86-.02-4.67-.02-5.44h-3.03c.02.45-.32.66-.75.66a.344.344,0,0,1-.37-.38c0-.7.05-3.75.05-4.35a9.778,9.778,0,0,0-.08-1.02l1.33.67h2.71l.38-.43c.06-.06.19-.18.29-.18a.409.409,0,0,1,.26.11l.77.66c.08.08.13.14.13.22,0,.13-.13.24-.64.56Zm-1.04-.56h-3.04v1.6h3.04Zm0,1.98h-3.04v1.68h3.04Z"/>
  <path id="パス_106" data-name="パス 106" d="M267.1,51.46a2.65,2.65,0,0,1-1.55,1.02c-.37,0-.43-.26-.48-.53-.11-.67-.14-.8-1.18-2.3l.05-.06c1.39.96,1.7,1.07,1.98,1.07a.726.726,0,0,0,.62-.46,10.6,10.6,0,0,0,1.12-4.79c0-.62,0-1.74-1.07-1.74a4.682,4.682,0,0,0-1.06.16,77.64,77.64,0,0,1-3.35,7.19c-.21.4-.56,1.02-.91,1.02-.32,0-.51-.38-.51-.75a1.44,1.44,0,0,1,.35-.88,27.478,27.478,0,0,0,3.38-6.27,13.692,13.692,0,0,0-2.26,1.02,1.233,1.233,0,0,1-.67.29,1.623,1.623,0,0,1-1.33-1.47,1.379,1.379,0,0,1,.19-.64c.29.54.64.83,1.09.83.38,0,2.75-.66,3.28-.79a10.776,10.776,0,0,0,.72-2.51c0-.64-.94-1.06-1.17-1.14a1.341,1.341,0,0,1,.8-.26c.85,0,1.82.74,1.82,1.14a1.512,1.512,0,0,1-.24.66c-.35.64-.62,1.22-.93,1.91a3.972,3.972,0,0,1,.86-.1c1.87,0,1.95,1.5,1.95,2.77,0,1.89-.64,4.59-1.52,5.62Zm6.48-3.76a5.387,5.387,0,0,1-.88-.4,6.528,6.528,0,0,0-2.18-.56v-.13c.24-.02,2-.16,2-.71a6.847,6.847,0,0,0-2.99-3.14c1.63.06,4.45,1.92,4.45,4.08,0,.13,0,.85-.4.85Zm-.82-4.88c-.14,0-.38-.21-.77-.53a5.511,5.511,0,0,0-2-1.2,3.569,3.569,0,0,1,.64-.06c.85,0,2.56.38,2.56,1.31a.449.449,0,0,1-.43.48Zm1.57-1.25c-.21,0-.91-.64-1.07-.75a5.668,5.668,0,0,0-1.89-.86,4.6,4.6,0,0,1,.99-.11c.29,0,2.31.06,2.31,1.28,0,.21-.08.45-.34.45Z"/>
  <path id="パス_107" data-name="パス 107" d="M283.83,46.42a4.6,4.6,0,0,0-.29-2l1.5.34c.19.05.29.1.29.24,0,.11-.1.29-.38.45v.98h1.87l.54-.67c.08-.1.16-.19.26-.19s.22.11.29.16l.85.67a.329.329,0,0,1,.16.24c0,.14-.14.18-.24.18h-3.73c0,.35,0,.58.02,2.05h2.79l.56-.72c.13-.18.18-.21.26-.21s.14.05.3.18l.85.72c.08.08.16.14.16.26,0,.14-.14.16-.26.16H277.59a11.385,11.385,0,0,0-1.87.14l-.32-.62c1.06.08,2.16.1,2.45.1h1.95c0-.18.02-1.9.02-2.05h-1.31a11.208,11.208,0,0,0-1.89.14l-.32-.64c.99.08,1.98.11,2.47.11h1.07a7.193,7.193,0,0,0-.21-2.02l1.54.43c.1.03.21.1.21.21a.341.341,0,0,1-.11.19c-.08.06-.19.14-.32.24-.02.34-.02.38-.03.94h2.93Zm-7.62,6.77c.93-.54,3.52-2.61,3.99-3.79l1.3.93c.06.05.16.13.16.22,0,.18-.16.26-.77.32a13.632,13.632,0,0,1-4.64,2.4l-.03-.08Zm9.83-13.78.42-.38c.11-.11.19-.19.29-.19a.574.574,0,0,1,.27.16l.66.56a.345.345,0,0,1,.13.26c0,.14-.24.35-.46.5-.02.27-.02.5-.02.8,0,.5.06,3.01.06,3.14,0,.58-.59.64-.75.64-.42,0-.4-.26-.4-.69h-7.36a.668.668,0,0,1-.74.74c-.43,0-.45-.32-.45-.51,0-.5.11-2.72.11-3.17a13.32,13.32,0,0,0-.19-2.45l1.42.61h7.01Zm-7.19.38V41.5h3.23V39.79Zm0,2.1v1.92h3.23V41.89Zm2.05,4.91s-.02,1.81-.02,2.05h2.98q-.02-1.52-.03-2.05H280.9Zm2.26-7.01V41.5h3.09V39.79Zm0,2.1v1.92h3.09V41.89Zm.83,7.89a8.628,8.628,0,0,1,2.98.98c1.07.69,1.42,1.42,1.42,1.75a.635.635,0,0,1-.64.7c-.34,0-.35-.05-1.31-1.25a9.368,9.368,0,0,0-2.48-2.08Z"/>
  <path id="パス_108" data-name="パス 108" d="M299.19,42.02a28.507,28.507,0,0,1-3.31.91c-.42.83-2.16,4.54-2.58,5.27-.37.62-.7,1.22-1.02,1.22-.11,0-.45-.06-.45-.61a1.548,1.548,0,0,1,.38-.96,27.7,27.7,0,0,0,2.66-4.67,5.975,5.975,0,0,1-1.44.21c-.94,0-1.75-.5-1.62-1.46a1.678,1.678,0,0,0,1.55.64,8.486,8.486,0,0,0,1.87-.26,8.527,8.527,0,0,0,.67-2.03c0-.18-.1-.56-.94-.78a1.1,1.1,0,0,1,.78-.32c.62,0,1.6.67,1.6,1.09a2.092,2.092,0,0,1-.4.74,7.758,7.758,0,0,0-.59,1.01c.32-.11.86-.3,1.2-.46.7-.32.78-.37.98-.37s.91.22.91.53a.376.376,0,0,1-.26.32Zm4,3.98a1.14,1.14,0,0,1-.56-.18,2.283,2.283,0,0,0-1.36-.4c-1.68,0-1.92.91-1.92,1.67a12.866,12.866,0,0,0,.27,2.32c1.28.27,3.04.94,3.04,1.98a.5.5,0,0,1-.45.53,4.781,4.781,0,0,1-1.23-.74,4.3,4.3,0,0,0-1.25-.67,2.073,2.073,0,0,1-.61,1.52,2.922,2.922,0,0,1-1.94.67c-1.33,0-2.48-.72-2.48-1.71,0-1.2,1.46-1.78,3.01-1.78.35,0,.59.03.83.05-.05-.56-.11-1.31-.11-1.68,0-1.76,1.7-2.45,2.8-2.66.13-.03.27-.06.27-.26s-.58-.8-2.19-1.22a3,3,0,0,1,1.02-.16c1.98,0,3.27,1.49,3.27,2.24a.406.406,0,0,1-.42.46Zm-5.78,3.99c-.61,0-2.1.13-2.1.99,0,.67,1.02.85,1.57.85a1.527,1.527,0,0,0,1.73-1.68A3.8,3.8,0,0,0,297.41,49.99Z"/>
  <path id="パス_109" data-name="パス 109" d="M310.16,51.96a6.379,6.379,0,0,1-2.27,1.41l-.03-.08c2.77-2,3.59-5.09,3.59-7.96,0-1.06-.06-3.97-1.26-3.97-.64,0-1.09.66-1.23.86a11.385,11.385,0,0,0-1.7,5.3c0,.18.11.99.11,1.15,0,.18-.06.45-.38.45-.94,0-1.23-1.87-1.23-3.31a34.752,34.752,0,0,1,.56-4.63,3.511,3.511,0,0,0,.06-.61,1.683,1.683,0,0,0-.93-1.46,3.214,3.214,0,0,1,.72-.11,1.385,1.385,0,0,1,1.41,1.15,2.028,2.028,0,0,1-.19.71,11.414,11.414,0,0,0-.9,4.29c0,.24,0,1.15.16,1.15.1,0,.13-.08.14-.16.37-1.31,1.74-5.41,3.63-5.41,2,0,2.21,3.14,2.21,4.74,0,2.95-.67,4.85-2.46,6.48Z"/>
  <path id="パス_110" data-name="パス 110" d="M324.55,41.98a21.981,21.981,0,0,1-3.62.8c-.05.62-.06,1.67-.05,2.32.32-.08,1.71-.54,2-.64a1.04,1.04,0,0,1,.29-.05c.29,0,.91.18.91.58,0,.24-.18.32-.34.38-.19.08-1.46.38-2.85.64a19.144,19.144,0,0,0,.35,3.49c1.5.27,3.36,1.14,3.36,2a.539.539,0,0,1-.5.59c-.19,0-.24-.03-.78-.42a9.176,9.176,0,0,0-2.02-1.07c-.11,1.5-1.23,2.05-2.74,2.05-1.65,0-2.79-.86-2.79-1.7,0-1.3,1.89-1.7,3.47-1.7a7.752,7.752,0,0,1,.93.05,29.652,29.652,0,0,1-.21-3.15,21.442,21.442,0,0,1-2.27.14c-.9,0-1.65-.16-1.65-.77a1.116,1.116,0,0,1,1.04-.9.967.967,0,0,0-.27.56c0,.27.32.29.82.29a15.633,15.633,0,0,0,2.32-.19c0-.8,0-1.09.05-2.38a21.623,21.623,0,0,1-2.87.22c-1.33,0-1.97-.38-2.37-1.26a4.915,4.915,0,0,0,2.22.46,24.551,24.551,0,0,0,3.04-.32c0-.22.03-1.25.03-1.36,0-.72-.16-.9-1.23-1.3a1.183,1.183,0,0,1,.94-.37c.75,0,1.66.51,1.66,1.04a2.39,2.39,0,0,1-.22.85,4.24,4.24,0,0,0-.19.93c.74-.18,1.66-.5,2.5-.78a1.134,1.134,0,0,1,.32-.06c.32,0,.98.29.98.64a.391.391,0,0,1-.29.38Zm-5.95,8.1c-1.18,0-2.24.32-2.24.93,0,.32.5.77,1.76.77a3.12,3.12,0,0,0,1.57-.38,1.182,1.182,0,0,0,.51-1.12,4.357,4.357,0,0,0-1.6-.19Z"/>
  <path id="パス_111" data-name="パス 111" d="M340.12,43.1c-.53,0-1.38-.19-1.9-.24-.59-.05-1.1-.06-1.5-.06-.67,0-1.42.05-1.92.08-.02.5-.02.87-.02,1.28s.02.7.03.99a4.733,4.733,0,0,1,.69,2.53c0,2.42-1.55,4.67-4.5,5.71l-.06-.11a6.733,6.733,0,0,0,3.25-4.56,1.792,1.792,0,0,1-1.06.53,2.332,2.332,0,0,1-1.81-2.43,2.155,2.155,0,0,1,1.87-2.32,3.013,3.013,0,0,1,.93.19c0-.08-.03-1.15-.03-1.73a16.742,16.742,0,0,0-5.22,1.31c-.46.24-.51.27-.66.27-.54,0-1.31-.99-1.31-1.65a.874.874,0,0,1,.13-.45,1.471,1.471,0,0,0,1.17.75c.18,0,1.44-.22,2.16-.34,1.5-.26,2.69-.43,3.71-.53-.11-2.56-.11-2.61-1.44-3.11a1.471,1.471,0,0,1,.93-.37c.42,0,1.62.43,1.62.95,0,.05-.11.51-.14.62a16.746,16.746,0,0,0-.21,1.83c.37-.03,4.48-.4,4.5-.4.54,0,1.31.37,1.31.82,0,.35-.34.43-.51.43Zm-7.17,2.1a1.34,1.34,0,0,0-1.07,1.46,1.592,1.592,0,0,0,1.3,1.65c.53,0,.96-.58.96-1.5,0-.38-.06-1.6-1.18-1.6Z"/>
  <path id="パス_112" data-name="パス 112" d="M345.02,52.77a2.36,2.36,0,1,1,2.32-2.37A2.322,2.322,0,0,1,345.02,52.77Zm0-4.26a1.9,1.9,0,1,0,1.86,1.9A1.891,1.891,0,0,0,345.02,48.51Z"/>
</svg>
