<?xml version="1.0" encoding="UTF-8"?><svg id="_レイヤー_2" xmlns="http://www.w3.org/2000/svg" viewBox="0 0 226 178.1"><defs><style>.cls-1{fill:#fff;stroke-width:0px;}</style></defs><g id="_レイヤー_1-2"><path class="cls-1" d="m10.94,32.39h75.47v-6H10.94L34.92,5.25c1.24-1.1,1.36-2.99.27-4.23-1.1-1.24-2.99-1.36-4.23-.27L1.02,27.14c-.65.57-1.02,1.39-1.02,2.25s.37,1.68,1.02,2.25l29.94,26.39c.57.5,1.28.75,1.98.75.83,0,1.66-.34,2.25-1.02,1.1-1.24.98-3.14-.27-4.23l-23.98-21.14Z"/><path class="cls-1" d="m224.98,27.14L195.05.75c-1.24-1.09-3.14-.98-4.23.27-1.09,1.24-.98,3.14.27,4.23l23.98,21.14h-85.14v6h85.14l-23.98,21.14c-1.24,1.1-1.36,2.99-.27,4.23.59.67,1.42,1.02,2.25,1.02.71,0,1.41-.25,1.98-.75l29.94-26.39c.65-.57,1.02-1.39,1.02-2.25s-.37-1.68-1.02-2.25Z"/><path class="cls-1" d="m167.24,73.3c-2.51,0-4.84.8-6.81,2.16-.62-6.99-6.07-12.48-12.69-12.48-2.76,0-5.31.97-7.41,2.59-.73-6.86-6.13-12.21-12.66-12.21-2.48,0-4.79.78-6.75,2.12v-30.92c0-7.61-5.72-13.81-12.75-13.81s-12.75,6.19-12.75,13.81v69.29c.06,5.04,0,10.7-.18,14.83-.75-1.29-1.52-2.67-2.2-3.88-1.52-2.73-3.24-5.83-5.04-8.56-7.49-11.45-18-16.91-25.57-13.3-2.57,1.23-4.26,3.11-5.02,5.59-2.01,6.57,3.34,15.67,9,25.31,2.09,3.56,4.25,7.24,5.93,10.64,1.16,2.35,2.23,4.55,3.24,6.62,6.33,12.97,10.51,21.54,19.81,33.19,7.42,9.3,17.24,13.82,30,13.82h16.33c15.96,0,28.08-7.29,32.41-19.51,5.79-16.33,5.86-60.8,5.86-62.68v-8.79c0-7.61-5.72-13.81-12.75-13.81Zm6.75,22.6c0,.45-.06,45.31-5.51,60.68-3.45,9.72-13.45,15.52-26.75,15.52h-16.33c-10.82,0-19.1-3.78-25.31-11.56-8.88-11.12-12.73-19.01-19.11-32.07-1.01-2.08-2.09-4.28-3.26-6.65-1.78-3.59-3.99-7.37-6.14-11.02-4.54-7.72-9.68-16.47-8.44-20.52.17-.57.54-1.3,1.87-1.93,3.99-1.91,11.8,1.75,17.96,11.17,1.67,2.56,3.27,5.43,4.82,8.2,3.6,6.47,5.61,9.9,8.2,10.9.99.38,2.1.25,2.97-.36,1.35-.94,2.74-1.9,2.45-24.45V24.55c0-4.31,3.03-7.81,6.75-7.81s6.75,3.5,6.75,7.81v71.35h6v-28.74c0-4.31,3.03-7.81,6.75-7.81s6.75,3.5,6.75,7.81v30.91h6.56v-21.29c0-4.31,3.03-7.81,6.75-7.81s6.75,3.5,6.75,7.81v23.47h6v-13.14c0-4.31,3.03-7.81,6.75-7.81s6.75,3.5,6.75,7.81v8.79Z"/></g></svg>