<svg id="area03-01-txt" xmlns="http://www.w3.org/2000/svg" width="529.74" height="81" viewBox="0 0 529.74 81">
  <path id="パス_1" data-name="パス 1" d="M18.06,21.6a24.431,24.431,0,0,0,7.59-6.07,31.873,31.873,0,0,0,4.78-7.87c0-.05-.02-.12-.19-.12-.36,0-3.74.53-4.15.53a2.335,2.335,0,0,1-1.44-.46c-2.33,3.07-3.91,4.71-6.53,5.91l-.07-.14c3.84-3.19,6.43-8.06,6.43-8.81,0-.6-1.1-1.08-1.42-1.2a3.764,3.764,0,0,1,1.13-.24c.89,0,2.5.94,2.5,1.51,0,.19-.05.26-.43.65-.22.26-1.08,1.58-1.25,1.82a7.31,7.31,0,0,0,.89.05c1.49,0,4.1-.29,4.54-.7.07-.07.41-.41.48-.46a.36.36,0,0,1,.22-.07A6.5,6.5,0,0,1,32.6,7.01c.29.24.43.38.43.58,0,.31-.26.41-.86.65-.31.14-.53.55-.82,1.08-1.94,3.77-5.57,10.22-13.23,12.48l-.05-.19ZM34.77,5.69a.558.558,0,0,1-.58.62c-.29,0-.36-.1-1.15-.94a18.218,18.218,0,0,0-2.3-2.11c1.61.24,4.03,1.08,4.03,2.42Zm2.35-1.03c0,.34-.14.5-.41.5a1.661,1.661,0,0,1-.89-.5,11.459,11.459,0,0,0-3.05-2.18c1.22.07,4.34.22,4.34,2.18Z" fill="#0b090d"/>
  <path id="パス_2" data-name="パス 2" d="M43.23,21.67c5.98-2.62,9.72-8.69,10.3-12.24-1.85.14-8.71.79-9.79,1.49-.46.31-.5.34-.67.34A3.34,3.34,0,0,1,40.81,8.6a2.546,2.546,0,0,1,.12-.74,3.065,3.065,0,0,0,2.59,1.56c.89,0,8.9-.65,9.53-.79.22-.05.43-.12,1.03-.65a.494.494,0,0,1,.34-.19c.26,0,1.9,1.2,1.9,1.66,0,.24-.07.26-.77.6-.48.24-.5.29-.79,1.06a21.851,21.851,0,0,1-5.57,7.95,12.741,12.741,0,0,1-5.9,2.81l-.05-.17Zm2.45-16.9a31.733,31.733,0,0,0,5.86-.72,2.77,2.77,0,0,1,1.1-.31c.38,0,1.68.14,1.68.77s-.67.65-2.52.77c-1.13.07-6.6.65-7.15.65-.48,0-1.63-.53-1.82-2.28a3.427,3.427,0,0,0,2.86,1.13Z" fill="#0b090d"/>
  <path id="パス_3" data-name="パス 3" d="M67.83,7.03a.813.813,0,0,1-.82.82c-.43,0-.62-.19-1.37-.94a12.669,12.669,0,0,0-3.86-2.57C64.68,4.29,67.83,5.52,67.83,7.03Zm9.98-.41a27.438,27.438,0,0,1-7.68,8.86c-1.1.89-2.06,1.56-3.31,2.42a6.164,6.164,0,0,0-1.54,1.46.83.83,0,0,1-.65.36c-.79,0-2.26-1.82-2.26-2.83a2.127,2.127,0,0,1,.34-1.01c.43.98,1.06,1.54,1.54,1.54.77,0,3-1.58,3.89-2.23a46.535,46.535,0,0,0,9.53-8.67l.14.1Z" fill="#0b090d"/>
  <path id="パス_4" data-name="パス 4" d="M84.66,21.67a15.858,15.858,0,0,0,4.37-5.3,14.9,14.9,0,0,0,1.82-5.42c0-.38-.07-.48-.5-.94a40.088,40.088,0,0,0-5.52.94c-.62.31-.74.38-1.01.38a2.429,2.429,0,0,1-1.75-2.54,3.36,3.36,0,0,1,.05-.62c1.2,1.46,1.54,1.58,2.26,1.58a16.776,16.776,0,0,0,2.18-.19c2.47-.34,2.71-.36,10.27-.94a1.515,1.515,0,0,0,.6-.19c.34-.14.38-.14.46-.14.05,0,2.35.55,2.35,1.39a.484.484,0,0,1-.48.55,18.977,18.977,0,0,1-1.92-.29,13.9,13.9,0,0,0-2.93-.24,34.609,34.609,0,0,0-3.48.19c1.06.91,1.15,1.01,1.18,1.03a.485.485,0,0,1,.12.24c0,.12-.41.53-.46.62s-.1.26-.12.31c-1.39,5.09-4.27,8.83-7.46,9.75l-.02-.17ZM94.48,5.06c-1.32,0-4.03.24-5.47.38-.5.05-.96.07-1.18.07a1.807,1.807,0,0,1-1.99-1.85,4.608,4.608,0,0,0,2.86.79,35.638,35.638,0,0,0,3.62-.26,11.64,11.64,0,0,0,1.58-.41,1.189,1.189,0,0,1,.43-.12A5.665,5.665,0,0,1,95.82,4c.22.1.43.24.43.53,0,.53-.41.53-1.44.53h-.34Zm6.7,2.09c0,.31-.14.62-.43.62-.43,0-.82-.55-1.18-1.06a9.654,9.654,0,0,0-2.4-2.02c1.63.07,4.01.84,4.01,2.45Zm1.94-1.75c0,.07,0,.82-.43.82-.31,0-.5-.26-1.03-.91A8.96,8.96,0,0,0,99,3.13c1.42.07,4.13.77,4.13,2.28Z" fill="#0b090d"/>
  <path id="パス_5" data-name="パス 5" d="M120.37,17.09c.19-.02,1.08-.19,1.25-.19.31,0,1.78.6,1.78,1.22a.6.6,0,0,1-.58.6,2.535,2.535,0,0,1-.94-.29,8.257,8.257,0,0,0-2.9-.46c-2.54,0-7.44.38-9.43,1.08a8.888,8.888,0,0,1-1.15.46,2.52,2.52,0,0,1-1.49-1.08,3.278,3.278,0,0,1-.22-1.27,1.527,1.527,0,0,1,.07-.46c.6.86.89,1.27,1.8,1.27.31,0,2.93-.29,3.43-.34.84-.1,3-.26,4.01-.34.1-.6.6-3.17.7-3.7.36-2.28.43-2.62.53-3.26-1.97.19-4.85.82-4.92.84a11.281,11.281,0,0,1-1.13.36c-.26,0-.48-.29-.65-.53-.53-.7-.58-.94-.58-1.37a1.7,1.7,0,0,1,.07-.53,1.849,1.849,0,0,0,1.66,1.08c.22,0,5.09-.41,5.47-.82.38-.38.46-.46.55-.46.34,0,1.7,1.18,1.7,1.51,0,.14-.05.19-.6.5-.38.22-.43.26-.53.65-.22.86-.31,1.3-.6,2.69-.19.96-.24,1.15-.62,2.95.53-.05,2.83-.07,3.31-.14Z" fill="#0b090d"/>
  <path id="パス_6" data-name="パス 6" d="M128.1,18.91a32.328,32.328,0,0,0,4.54-3.58,25.415,25.415,0,0,0,4.9-6.24,28.222,28.222,0,0,0-6.24,1.2,1.426,1.426,0,0,1-.65.19,2.48,2.48,0,0,1-2.02-2.18,4.547,4.547,0,0,1,.1-.89c.77,1.22.98,1.54,2.16,1.54.79,0,5.95-.55,7.08-.65,0-.41-.02-2.21-.02-2.57-.02-1.63-.26-1.97-.67-2.23-.14-.1-1.18-.53-1.42-.65a2.546,2.546,0,0,1,1.39-.43,3.014,3.014,0,0,1,2.4,1.22,7.221,7.221,0,0,1-.29.82,14.849,14.849,0,0,0-.31,3.74c2.62-.22,2.9-.24,3.31-.31.19-.02,1.06-.26,1.22-.26.5,0,2.04.43,2.04,1.01,0,.1,0,.5-.53.5a1.567,1.567,0,0,1-.29-.02,21.3,21.3,0,0,0-3.17-.22c-.86,0-1.87.05-2.59.1-.02,4.1-.02,4.3,0,5.79,0,.58.1,3.07.1,3.58,0,2.14-.65,3.36-1.3,3.36-.36,0-.48-.36-.55-.62a2.266,2.266,0,0,0-.74-1.2c-.53-.46-1.34-1.1-2.02-1.66l.1-.14c1.15.38,1.27.43,2.35.84a1.217,1.217,0,0,0,.48.14c.31,0,.36,0,.43-1.63.12-3.17.1-5.21.1-6.72-1.49,2.45-5.35,6.82-9.79,8.42l-.1-.24Z" fill="#0b090d"/>
  <path id="パス_7" data-name="パス 7" d="M171.47,4.08h-7.13c0,.17.02.91.02,1.06a.928.928,0,0,1-.84.89c-.34,0-.53-.26-.53-.67,0-.19.05-1.08.05-1.27h-4.61c.02.26.12,1.49.12,1.73,0,.31-.58.62-1.01.62-.29,0-.36-.14-.36-.38,0-.31.07-1.68.07-1.97h-2.64a17.387,17.387,0,0,0-3.07.29l-.58-1.06c1.97.17,3.74.19,3.98.19h2.28a9.96,9.96,0,0,0-.24-2.38l1.9.5c.17.05.31.12.31.29s-.41.46-.7.67a6.331,6.331,0,0,0-.05.91h4.61a8.967,8.967,0,0,0-.29-2.38l1.94.5c.12.02.31.12.31.26,0,.29-.53.55-.72.62v.98h4.56l.7-.94c.1-.12.24-.29.38-.29.12,0,.22.1.41.24l1.22.94a.533.533,0,0,1,.24.36c0,.24-.22.26-.36.26Zm-17.98,9.05c-.36,0-.41-.1-.96-.98a8,8,0,0,0-1.25-1.56l.05-.17c2.35.24,2.86,1.61,2.86,1.94a.72.72,0,0,1-.7.77Zm.89,3.94a10.8,10.8,0,0,0-.53,1.85,4.417,4.417,0,0,0,.46,1.27,4.036,4.036,0,0,1,.36,1.54c0,.7-.34,1.2-.91,1.2s-.89-.38-.89-1.01c0-.19.02-1.01.02-1.18,0-1.2-.26-2.62-1.49-3.1V17.5c1.06,0,1.18,0,1.42-.31.77-1.03,3.22-5.78,3.77-6.82l.07.02a61.123,61.123,0,0,1-2.28,6.67Zm1.15-8.38c-.38,0-.43-.07-1.03-1.18a3.369,3.369,0,0,0-1.08-1.42l.05-.12a5.309,5.309,0,0,1,2.06.74,1.7,1.7,0,0,1,.72,1.15.733.733,0,0,1-.72.82Zm16.47,0h-7.42c-.02.48-.02,1.61-.02,2.11h3.79l.48-.55c.12-.14.19-.22.29-.22.12,0,.31.17.48.31l.94.79a.486.486,0,0,1,.14.26c0,.26-.43.46-.86.67.02,1.27.02,3.5.1,4.85.1,1.42.1,2.52.1,2.76,0,1.51,0,2.86-2.16,3.12a2.919,2.919,0,0,0-1.54-1.75l.02-.12c.19,0,1.46.02,1.75,0,.55-.05.55-.53.55-1.56,0-.29-.02-1.63-.02-1.92h-3.91c0,.62.1,4.34.1,4.68,0,.6-.55.86-1.06.86-.46,0-.5-.26-.5-.5,0-.31.07-4.46.1-5.04H159.7c0,.7.1,3.98.1,4.37,0,.6-.55.84-1.08.84-.36,0-.41-.19-.41-.5,0-1.25.12-6.77.12-7.9a29.129,29.129,0,0,0-.19-4.15l1.63.7h3.5V8.69h-2.71a17.806,17.806,0,0,0-3.1.29l-.55-1.03c1.97.14,3.74.17,3.98.17h2.38a6.085,6.085,0,0,0-.22-1.94l2.06.6a.226.226,0,0,1,.19.22c0,.24-.26.38-.77.62,0,.1-.02.36-.02.5h5.26l.46-.77c.1-.17.24-.38.36-.38a1.081,1.081,0,0,1,.43.24l1.01.86a.542.542,0,0,1,.24.38c0,.22-.22.24-.36.24Zm-8.62,2.69h-3.7v2.47h3.7Zm-3.7,3.05v2.45h3.65l.05-2.45Zm8.93-3.05h-4.06c.02.41.05,2.21.05,2.47h4.01Zm0,3.05h-3.98l.05,2.45h3.94V14.43Zm-.5-7.2c-.43,0-.53-.17-1.03-.98a3.352,3.352,0,0,0-1.06-1.03l.02-.07c1.44.05,2.69.53,2.69,1.46a.572.572,0,0,1-.62.62Z" fill="#0b090d"/>
  <path id="パス_8" data-name="パス 8" d="M196.09,4.66c-.05,1.25-.07,2.3-.07,4.3s.17,10.18.29,11.69c0,.1.02.24.02.34,0,.79-.86,1.01-1.22,1.01-.48,0-.48-.1-.46-1.18H180.13c.02.65.05,1.49-.96,1.49-.55,0-.58-.31-.58-.65,0-.36.22-10.61.22-12.6a47.445,47.445,0,0,0-.36-6.82l1.9,1.15h14.11l.58-.58c.24-.24.26-.26.36-.26a.759.759,0,0,1,.38.19l1.1.79c.17.12.31.24.31.41,0,.29-.34.43-1.1.72Zm-9.34-.7h-6.62v7.68h6.62V3.96Zm0,8.26h-6.62v8.02h6.62V12.22Zm7.92-8.26H188v7.68h6.67Zm0,8.26H188v8.02h6.67V12.22Z" fill="#0b090d"/>
  <path id="パス_9" data-name="パス 9" d="M208.21,21.75a9.819,9.819,0,0,1,0-15.5l.14.22a10.482,10.482,0,0,0-3.04,7.52,10.482,10.482,0,0,0,3.04,7.52l-.14.22Z"/>
  <path id="パス_10" data-name="パス 10" d="M216.49,9.74a.319.319,0,0,1,.21.29c0,.14-.18.24-.67.34-.21.26-.66.78-1.34,1.63-.61.74-1.14,1.33-1.57,1.78.08,0,1.42-.06,2.27-.18a4.39,4.39,0,0,0-.66-.91l.08-.1c1.25.48,2.21,1.2,2.21,1.94a.614.614,0,0,1-.61.66c-.38,0-.54-.19-.69-.74-.02-.05-.08-.27-.18-.51l-1.46.32c0,.69.05,3.97.05,4.27.02.32.06,1.76.06,2.05a.723.723,0,0,1-.77.69c-.34,0-.43-.21-.43-.48s.06-1.31.06-1.54c.02-.51.03-2.08.05-4.79-1.01.22-1.81.4-2.02.45-.1.16-.26.46-.4.46-.16,0-.26-.19-.29-.29l-.35-1.36a6.029,6.029,0,0,0,1.14.11c.5,0,1.23-.02,1.49-.03a20.652,20.652,0,0,0,2.29-4.15,2.2,2.2,0,0,0,.1-.64l1.42.72Zm-6.32,10.53a13.007,13.007,0,0,0,1.12-4.67l1.31.48c.11.05.22.14.22.22,0,.11-.1.19-.51.35a10.032,10.032,0,0,1-2.06,3.67Zm.61-10.52a7.687,7.687,0,0,1,1.38.45,8.874,8.874,0,0,0,1.06-3.59l1.52.75a.289.289,0,0,1,.19.24c0,.24-.24.29-.61.35-.75.96-.86,1.1-1.95,2.35a1.685,1.685,0,0,1,.94,1.26.717.717,0,0,1-.66.77c-.37,0-.46-.19-.82-.98a4.534,4.534,0,0,0-1.07-1.52l.02-.1Zm3.78,6.1c.66.29,2.26,1.01,2.26,2.1a.729.729,0,0,1-.7.78c-.43,0-.51-.32-.72-1.06a4.585,4.585,0,0,0-.88-1.76l.05-.06Zm7.65-5.17.48-.45c.08-.08.18-.18.22-.18.06,0,.18.1.22.14l.77.66a.339.339,0,0,1,.14.24c0,.11-.3.34-.59.54-.1,4.43-.13,6.42-.98,8.05a2.8,2.8,0,0,1-2.48,1.57,2.786,2.786,0,0,0-1.46-1.81l.02-.1a16.8,16.8,0,0,0,2.13.32c1.62,0,1.7-5.28,1.7-6.93,0-.27-.02-1.41-.02-1.68h-4.32a9.028,9.028,0,0,1-1.57,2.29l-.1-.06a17.139,17.139,0,0,0,1.73-5.89,4.07,4.07,0,0,0-.08-.61l1.73.74a.26.26,0,0,1,.18.22c0,.16-.24.27-.62.45a18.266,18.266,0,0,1-1.06,2.48h3.95Zm-4.37,3.06c1.52.62,2.27,1.14,2.27,2,0,.38-.19.75-.64.75-.42,0-.54-.18-.9-1.28a4.111,4.111,0,0,0-.8-1.38l.06-.1Z"/>
  <path id="パス_11" data-name="パス 11" d="M231.69,14.64a2.952,2.952,0,0,1,1.09,2.37,3.473,3.473,0,0,1-3.73,3.38c-1.73,0-3.19-.98-3.19-2.26a.919.919,0,0,1,.91-1.02.78.78,0,0,1,.78.8,1.27,1.27,0,0,1-.1.51,1.222,1.222,0,0,0-.05.37c0,.61.69,1.06,1.44,1.06a2.738,2.738,0,0,0,2.48-2.83,2.818,2.818,0,0,0-2.5-2.93c-.1,0-.54.06-.64.06a.313.313,0,0,1-.35-.34.363.363,0,0,1,.37-.37c.1,0,.58.1.69.1a2.324,2.324,0,0,0,2.19-2.5,2.15,2.15,0,0,0-2.02-2.4,1.2,1.2,0,0,0-1.3,1.07,1.026,1.026,0,0,0,.05.24,1.652,1.652,0,0,1,.05.38.845.845,0,0,1-.82.88.825.825,0,0,1-.8-.88c0-.88,1.02-2.24,3.07-2.24s3.2,1.28,3.2,2.69a2.789,2.789,0,0,1-.59,1.63,3.836,3.836,0,0,1-2.03,1.36,4.227,4.227,0,0,1,1.78.86Z"/>
  <path id="パス_12" data-name="パス 12" d="M235.74,19.46a.93.93,0,1,1-.93-.93A.941.941,0,0,1,235.74,19.46Z"/>
  <path id="パス_13" data-name="パス 13" d="M240.99,15.44a2.69,2.69,0,0,1-1.39.42c-1.59,0-2.87-1.6-2.87-3.55,0-2.21,1.58-4.21,3.43-4.21s3.68,2.08,3.68,5.52c0,3.7-2.08,6.77-4.53,6.77-1.07,0-1.82-.64-1.82-1.39a.8.8,0,0,1,.82-.83c.32,0,.85.21.88,1.1.02.35.05.58.48.58a1.594,1.594,0,0,0,1.17-.56c1.42-1.57,1.5-3.94,1.57-5.36A4.02,4.02,0,0,1,241,15.45Zm.53-5.94a1.584,1.584,0,0,0-1.3-.86c-.85,0-2.05.9-2.05,3.52,0,.74.18,2.98,1.82,2.98.61,0,1.63-.45,2.39-2.18a7.73,7.73,0,0,0-.86-3.46Z"/>
  <path id="パス_14" data-name="パス 14" d="M247.21,16.21l2.32-2.26a.572.572,0,0,0,.21-.42c0-.26-.32-.51-.67-.51h-.3v-.51h3.99v.51h-.34a3.431,3.431,0,0,0-2.45,1.23l-.67.66,1.9,3.22c.54.91,1.06,1.44,1.84,1.44v.51h-3.55v-.51c.19,0,.83,0,.83-.51a.671.671,0,0,0-.1-.32l-1.78-2.99-1.23,1.18v1.68c0,.96.58.96,1.18.96v.51h-3.52v-.51h.38c.45,0,.8-.3.8-.96V9.69c0-.67-.58-.79-1.06-.74l-.06-.29,2.27-.56v8.1Z"/>
  <path id="パス_15" data-name="パス 15" d="M256.27,12.2v1.26a3.63,3.63,0,0,1,2.64-1.26,1.758,1.758,0,0,1,1.92,1.44,4,4,0,0,1,2.87-1.44c1.45,0,2.05.85,2.05,2.62V18.6c0,.61.32.96.8.96h.3v.51H263.5v-.51h.29c.56,0,.82-.43.82-.96V14.92c0-.45-.08-2.03-1.41-2.03a2.986,2.986,0,0,0-2.26,1.39c0,.13.02.26.02.54V18.6c0,.67.37.96.8.96h.46v.51h-3.67v-.51h.46c.43,0,.8-.3.8-.96V14.92c0-.34-.03-2.03-1.39-2.03a2.858,2.858,0,0,0-2.16,1.26V18.6c0,.67.38.96.8.96h.29v.51h-3.33v-.51h.29c.48,0,.8-.34.8-.96V13.78c0-.5-.27-.75-.66-.75a1.75,1.75,0,0,0-.48.06l-.06-.3,2.35-.59Z"/>
  <path id="パス_16" data-name="パス 16" d="M268.51,21.75l-.14-.22a10.482,10.482,0,0,0,3.04-7.52,10.482,10.482,0,0,0-3.04-7.52l.14-.22a9.819,9.819,0,0,1,0,15.5Z"/>
  <rect id="長方形_1" data-name="長方形 1" width="7" height="81" fill="#1c2c5a"/>
  <rect id="長方形_2" data-name="長方形 2" width="84.39" height="23.44" rx="5" transform="translate(16.88 34.25)" fill="none" stroke="#000" stroke-miterlimit="10" stroke-width="1"/>
  <path id="パス_17" data-name="パス 17" d="M42.25,43.25h-.29c-.14.1-.21.16-.84.69-.08.06-.67.48-.79.58l-.06-.06a11.653,11.653,0,0,0,.59-1.94H31.38c-.02,1.41-.64,2.74-1.44,2.74a.63.63,0,0,1-.62-.67c0-.4.26-.67.79-1.22a4.089,4.089,0,0,0,1.02-2.1h.08a3.7,3.7,0,0,1,.18.86H37.8a7.822,7.822,0,0,0,1.12-3.63l1.47.82c.15.08.23.16.23.26,0,.14-.15.19-.7.29-.87,1.15-.97,1.28-1.81,2.27h2.61l.46-.37c.14-.11.24-.19.33-.19s.17.08.33.21l.9.75a.447.447,0,0,1,.18.34c0,.32-.36.38-.68.38ZM40.3,49.67c.02.21.02.35.03,1.63,0,.14.06.91.06,1.09a.667.667,0,0,1-.7.7c-.46,0-.43-.38-.4-.67H33.01c0,.24.02.77-.65.77-.38,0-.46-.21-.44-.53.03-.64.09-1.97.09-2.59a11.375,11.375,0,0,0-.14-1.84l1.29.74h1.91a6.835,6.835,0,0,0,.43-1.89H33.87c0,.26.02.74-.61.74-.46,0-.46-.35-.46-.5,0-.4.09-2.16.09-2.53a5.091,5.091,0,0,0-.12-1.3l1.31.62h3.98l.38-.43c.11-.11.17-.16.23-.16a.558.558,0,0,1,.26.13l.56.45c.11.1.17.16.17.24,0,.13-.09.21-.46.5-.02.32.08,1.78.08,2.08a.607.607,0,0,1-.65.66c-.26,0-.44-.14-.43-.5H36.82a14.768,14.768,0,0,1-1.31,1.89h3.65l.33-.45c.08-.11.15-.18.23-.18a.5.5,0,0,1,.27.14l.58.45a.436.436,0,0,1,.17.26c0,.11-.09.22-.46.48Zm-6.82-7.99c-.41,0-.52-.35-.62-.75a5.084,5.084,0,0,0-.85-1.89l.06-.08c.79.42,2.01,1.06,2.01,2.06a.61.61,0,0,1-.59.66Zm5.84,7.67H33.03v2.69h6.29ZM38.24,44.5H33.88v2.19h4.36Zm-1.9-3.03c-.53,0-.64-.51-.75-1.06a4.4,4.4,0,0,0-.71-1.71l.06-.08c1.26.59,1.98,1.41,1.98,2.14,0,.11-.03.7-.58.7Z"/>
  <path id="パス_18" data-name="パス 18" d="M58.07,42.13H53.33l.79.5c.06.05.15.14.15.22,0,.19-.29.22-.56.24-.43.48-1.05,1.04-1.34,1.3h2.6l.59-.7c.08-.1.17-.19.24-.19a.588.588,0,0,1,.27.16l.7.71c.08.08.14.14.14.24,0,.16-.12.18-.23.18H51.83c0,.19.02,1.07.02,1.25h2.14l.53-.58c.09-.1.18-.19.26-.19s.15.08.29.18l.74.54a.341.341,0,0,1,.17.26c0,.14-.12.18-.23.18H51.84v1.39h3.91l.68-.82c.11-.13.15-.19.24-.19.11,0,.2.1.27.16l.84.82c.08.08.15.14.15.26,0,.14-.14.16-.24.16H52.14a8.988,8.988,0,0,0,5.93,3.09l.02.1a2.6,2.6,0,0,0-1.4,1.3,9.771,9.771,0,0,1-4.8-4.48h-.05c.02,1.46.03,1.75.03,2.05.02.37.09,1.95.09,2.29a.71.71,0,0,1-.77.66c-.41,0-.44-.26-.44-.5,0-.35.05-.94.06-1.31.02-.53.02-.77.05-2.99a11.272,11.272,0,0,1-6.03,4.32l-.03-.1a14.062,14.062,0,0,0,4.86-4.42H46.97a10.528,10.528,0,0,0-1.79.14l-.3-.64c1.02.1,2.05.11,2.34.11h3.65V46.44H48.21a10.847,10.847,0,0,0-1.79.14l-.3-.64c1.05.1,2.14.11,2.34.11h2.42V44.8H47.69a10.494,10.494,0,0,0-1.78.14l-.3-.64c1.02.1,2.08.11,2.34.11h4.13a8.243,8.243,0,0,0,.76-2.26H48.52c.88.3,1.69.78,1.69,1.55a.61.61,0,0,1-.61.64c-.35,0-.4-.1-.76-1.06a3.994,3.994,0,0,0-.62-1.14H46.64a9.117,9.117,0,0,0-1.79.14l-.29-.64c1.03.1,2.11.11,2.33.11h2.86a11.855,11.855,0,0,0-.26-3.3l1.47.45c.14.05.21.1.21.24,0,.18-.17.27-.46.38v2.22h1.12c0-2.03,0-2.5-.32-3.3l1.55.43c.09.03.26.08.26.24,0,.24-.36.37-.5.42v2.21h.65a12.029,12.029,0,0,0,.79-2.24,3.416,3.416,0,0,0,.08-.77l1.35.72c.09.05.18.11.18.22,0,.24-.36.29-.53.3-.47.53-1.28,1.44-1.58,1.76h2.39l.65-.72c.12-.13.18-.21.24-.21a.513.513,0,0,1,.3.18l.79.7c.09.08.17.14.17.26,0,.14-.14.18-.23.18Zm-9.88-.74c-.36,0-.47-.26-.76-.98a3.728,3.728,0,0,0-.88-1.27l.06-.11c.61.16,2.13.59,2.13,1.71a.588.588,0,0,1-.55.64Z"/>
  <path id="パス_19" data-name="パス 19" d="M64.24,41.01c-.02.58-.03.94-.03,1.71,0,1.68.09,5.31.12,6,0,.21.05.58.05.78,0,.61-.65.64-.73.64-.41,0-.41-.11-.38-1.17h-1.9c0,.11.05,1.42.05,1.46,0,.58-.59.69-.76.69-.38,0-.38-.3-.38-.5,0-.18.05-.96.05-1.12.05-1.22.06-5.71.06-6.08a26.3,26.3,0,0,0-.18-3.95l1.32.67h1.55l.44-.42c.17-.14.2-.21.27-.21a.383.383,0,0,1,.24.14l.61.58a.4.4,0,0,1,.12.26c0,.14-.3.35-.52.51Zm-.96-.48H61.37v3.76h1.91Zm0,4.15H61.37V48.6h1.91Zm9.94-.3H66.53a10.042,10.042,0,0,0-1.79.14l-.29-.64c.94.08,1.87.11,2.33.11h1.28V41.54h-.67a10.591,10.591,0,0,0-1.79.14l-.29-.64c1,.1,2.07.11,2.33.11h.43a7.17,7.17,0,0,0-.26-2.61l1.57.48c.17.05.27.13.27.26s-.05.16-.49.48c-.02.38-.02.48-.03,1.39h1.49l.56-.69c.11-.14.17-.19.24-.19a.376.376,0,0,1,.27.16l.75.69a.3.3,0,0,1,.15.24c0,.14-.14.18-.23.18H69.11v2.45h2.31l.58-.74c.12-.16.17-.21.23-.21.09,0,.14.06.29.19l.81.72a.335.335,0,0,1,.14.24c0,.16-.14.18-.23.18Zm-.03,2.93H70.67c0,.32.05,3.33.05,3.84,0,.61,0,1.6-1.96,1.99-.14-.53-.3-.98-1.4-1.6l.03-.11c.3.03,1.25.11,1.49.11.68,0,.78-.14.79-.46.02-.29.02-3.5,0-3.76H66.72a11,11,0,0,0-1.79.14l-.29-.64c1.03.1,2.11.11,2.33.11h2.71a11.481,11.481,0,0,0-.2-2.21l1.37.35c.2.05.29.08.29.21,0,.11-.05.14-.44.46-.02.3-.02.4-.02,1.18h.71l.62-.75c.12-.14.18-.19.26-.19s.14.03.26.16l.74.75c.11.1.15.14.15.24,0,.14-.12.18-.23.18Zm-5.81,3.22c-.46,0-.55-.45-.62-.88a3.617,3.617,0,0,0-.71-1.78l.06-.1c1.49.62,1.91,1.55,1.91,2.05A.675.675,0,0,1,67.38,50.53Z"/>
  <path id="パス_20" data-name="パス 20" d="M80.86,40.48v1.83c0,.26.06,1.49.06,1.66a.68.68,0,0,1-.74.62c-.41,0-.36-.38-.33-.58h-2.6v4.02c0,.58.06,3.36.06,3.98,0,.42-.15.9-.77.9a.393.393,0,0,1-.44-.42c0-.1.05-.51.05-.61.12-1.81.12-2.8.12-9.81a12.456,12.456,0,0,0-.17-3.2l1.41.7H79.7l.4-.38c.09-.08.15-.16.21-.16a.325.325,0,0,1,.18.1l.79.61a.259.259,0,0,1,.11.21c0,.11-.09.21-.52.53Zm-1-.51H77.25v1.6h2.61Zm0,1.99H77.25v1.68h2.61Zm4.21,4.48c0,.75,0,1.97.05,2.93,0,.14.06.8.06.93a.689.689,0,0,1-.76.74c-.2,0-.4-.05-.32-.8H80.14c.03.38.09,1.04-.71,1.04-.33,0-.35-.27-.35-.45,0-.1.03-.51.05-.69.06-.91.06-2.62.06-2.77a15.281,15.281,0,0,0-.11-2.26l1.11.58h2.89l.26-.35c.08-.11.17-.21.29-.21a.385.385,0,0,1,.24.13l.55.5a.286.286,0,0,1,.14.21c0,.11-.14.26-.47.48Zm-.97-.37H80.14v1.68H83.1Zm0,2.07H80.14v1.71H83.1Zm4.33-7.6c0,1.55.03,8.42.03,9.81s0,1.82-.61,2.27a3.375,3.375,0,0,1-1.15.53c-.12-.56-.26-1.17-1.64-1.73l.03-.11c.26.02,1.64.1,1.79.1s.43,0,.52-.19a15.553,15.553,0,0,0,.06-1.74c0-.86-.02-4.67-.02-5.44H83.57c.02.45-.3.66-.71.66a.335.335,0,0,1-.35-.38c0-.7.05-3.75.05-4.35a10.134,10.134,0,0,0-.08-1.03l1.26.67h2.57l.37-.43c.06-.06.18-.18.27-.18a.359.359,0,0,1,.24.11l.73.66a.308.308,0,0,1,.12.22c0,.13-.12.24-.61.56Zm-.99-.56H83.55v1.6h2.89Zm0,1.99H83.55v1.68h2.89Z"/>
  <path id="パス_21" data-name="パス 21" d="M116.07,46.98c-.22,0-.37-.11-.77-.4A10.35,10.35,0,0,0,112.26,45a8.8,8.8,0,0,1,1.36-.11c1.94,0,2.88.74,2.88,1.52,0,.37-.18.58-.43.58Zm1.28-3.5c-.18,0-.35-.13-.58-.34a7.236,7.236,0,0,0-2.91-1.83,6.461,6.461,0,0,1,1.01-.08c2.05,0,2.98.91,2.98,1.63,0,.24-.11.61-.5.61Zm-.37,8.35a6.778,6.778,0,0,0-1.09.93.611.611,0,0,1-.42.24,2.387,2.387,0,0,1-1.55-2.16,1.718,1.718,0,0,1,.05-.37,2.808,2.808,0,0,0,1.26.93c1.02,0,6.03-4.06,8.63-7.36l.1.06c-.54,1.38-2.38,4.43-6.98,7.73Z"/>
  <path id="パス_22" data-name="パス 22" d="M132.81,45.89c-.16.1-.16.14-.19.62-.05.85-.18,4.64-.32,5.41-.14.69-.45.77-.58.77-.37,0-.46-.38-.59-.9-1.58.13-3.33.37-3.68.45a7.485,7.485,0,0,1-.7.34c-.32,0-1.06-.95-1.06-1.46a1.415,1.415,0,0,1,.1-.46,1.315,1.315,0,0,0,1.17.79c.71,0,3.59-.26,4.45-.34.05-.83.13-2,.16-2.5a29.663,29.663,0,0,0-4.13.4c-.11.02-.54.26-.64.26a1.541,1.541,0,0,1-.96-1.38,1.752,1.752,0,0,1,.03-.34c.51.66.83.7,1.07.7.14,0,3.94-.35,4.67-.38.06-1.3.08-1.42.1-2.29-.78.06-3.73.32-4.37.46-.11.02-.62.19-.74.19-.34,0-.83-.86-.83-1.25a3.2,3.2,0,0,1,.1-.58c.5.79.66.79,1.55.79.32,0,3.81-.13,4.15-.42.05-.05.24-.22.3-.27a.274.274,0,0,1,.18-.1,2.927,2.927,0,0,1,1.17,1.09c0,.11-.05.14-.4.38Z"/>
  <path id="パス_23" data-name="パス 23" d="M136.47,47.75c-.35,0-.51-.37-.69-.77a7.118,7.118,0,0,0-1.17-1.73c1.06.16,2.32,1.03,2.32,1.91C136.93,47.48,136.77,47.75,136.47,47.75Zm6.59-1.62c-.1.11-.75,1.52-.9,1.79-2.31,4.34-5.15,5.09-6.27,5.39l-.03-.16a11.992,11.992,0,0,0,6.18-7.59c0-.38-.64-.75-.85-.86a2.777,2.777,0,0,1,.7-.11,2.06,2.06,0,0,1,1.5,1.04c0,.11-.03.16-.34.5Zm-3.84.93c-.34,0-.38-.14-.66-.88a6.31,6.31,0,0,0-.96-1.65c1.09.32,2.1,1.22,2.1,1.91,0,.34-.18.62-.48.62Z"/>
  <path id="パス_24" data-name="パス 24" d="M155.32,44.4c-.29.16-.3.19-.5.72a13.612,13.612,0,0,1-3.51,5.79,10.836,10.836,0,0,1-4.4,2.48l-.02-.11a16.165,16.165,0,0,0,4.63-4.1A16.313,16.313,0,0,0,154,43.75a33.324,33.324,0,0,0-6.72.93,4.354,4.354,0,0,1-.74.32,2.246,2.246,0,0,1-1.28-1.79,1.262,1.262,0,0,1,.14-.62,1.952,1.952,0,0,0,1.58,1.06c.22,0,6.05-.48,6.82-.71.13-.03.56-.38.67-.38.18,0,1.34,1.1,1.34,1.39,0,.16-.18.27-.51.45Zm1.49-1.07a1.5,1.5,0,0,1-1.5-1.52,1.485,1.485,0,0,1,1.5-1.5,1.515,1.515,0,0,1,1.52,1.5A1.532,1.532,0,0,1,156.81,43.33Zm-.02-2.45a.913.913,0,0,0-.91.91.92.92,0,1,0,1.84,0A.918.918,0,0,0,156.79,40.88Z"/>
  <path id="パス_25" data-name="パス 25" d="M159.66,52.66h.88c.83,0,1.12-.32,1.12-.98V43.02c0-.5-.46-.58-.77-.58h-1.22v-.5h.29a6.215,6.215,0,0,0,2.61-.67c.11-.06.16-.1.22-.1.14,0,.18.1.18.22V51.67c0,.69.34.98,1.12.98h.88v.51h-5.31v-.51Z"/>
  <path id="パス_26" data-name="パス 26" d="M170.31,53.48a3.238,3.238,0,0,1-2.62-1.73,9.963,9.963,0,0,1-.98-4.56c0-3.41,1.46-6,3.6-6,1.65,0,3.6,1.78,3.6,6.15,0,3.92-1.65,6.15-3.6,6.15Zm-1.79-9.62a14.706,14.706,0,0,0-.37,3.47c0,3.57.85,5.6,2.16,5.6,1.1,0,1.6-1.47,1.78-2.08a15.105,15.105,0,0,0,.38-3.52c0-3.65-.88-5.6-2.16-5.6-1.14,0-1.63,1.57-1.79,2.13Z"/>
  <path id="パス_27" data-name="パス 27" d="M179.83,42.3c-.02.58-.03.94-.03,1.71,0,1.68.1,5.31.13,6,0,.21.05.58.05.78,0,.61-.69.64-.77.64-.43,0-.43-.11-.4-1.17h-2c0,.11.05,1.42.05,1.46,0,.58-.62.69-.8.69-.4,0-.4-.3-.4-.5,0-.18.05-.96.05-1.12.05-1.22.06-5.71.06-6.08a24.591,24.591,0,0,0-.19-3.95l1.39.67h1.63l.46-.42c.18-.14.21-.21.29-.21a.421.421,0,0,1,.26.14l.64.58a.407.407,0,0,1,.13.26c0,.14-.32.35-.54.51Zm-1.01-.48H176.8v3.76h2.02Zm0,4.15H176.8v3.92h2.02Zm10.47-.3h-7.04a11.208,11.208,0,0,0-1.89.14l-.3-.64c.99.08,1.97.11,2.45.11h1.34V42.83h-.7a11.787,11.787,0,0,0-1.89.14l-.3-.64c1.06.1,2.18.11,2.45.11h.45a6.878,6.878,0,0,0-.27-2.61l1.65.48c.18.05.29.13.29.26s-.05.16-.51.48c-.02.38-.02.48-.03,1.39h1.57l.59-.69c.11-.14.18-.19.26-.19a.41.41,0,0,1,.29.16l.78.69a.312.312,0,0,1,.16.24c0,.14-.14.18-.24.18h-3.43v2.45h2.43l.61-.74c.13-.16.18-.21.24-.21.1,0,.14.06.3.19l.85.72c.13.11.14.19.14.24,0,.16-.14.18-.24.18Zm-.03,2.93H186.6c0,.32.05,3.33.05,3.84,0,.61,0,1.6-2.06,1.98-.14-.53-.32-.98-1.47-1.6l.03-.11c.32.03,1.31.11,1.57.11.72,0,.82-.14.83-.46.02-.29.02-3.51,0-3.76h-3.11a12.276,12.276,0,0,0-1.89.14l-.3-.64c1.09.1,2.22.11,2.45.11h2.85a10.635,10.635,0,0,0-.21-2.21l1.44.35c.21.05.3.08.3.21,0,.11-.05.14-.46.46-.02.3-.02.4-.02,1.18h.75l.66-.75c.13-.14.19-.19.27-.19s.14.03.27.16l.78.75c.11.1.16.14.16.24,0,.14-.13.18-.24.18Zm-6.11,3.22c-.48,0-.58-.45-.66-.88a3.556,3.556,0,0,0-.75-1.78l.06-.1c1.57.62,2.02,1.55,2.02,2.05a.683.683,0,0,1-.67.7Z"/>
  <path id="パス_28" data-name="パス 28" d="M200.49,48.42a6.133,6.133,0,0,1-2.62-.74c-2.32-1.06-2.37-1.09-3.07-1.09a6.6,6.6,0,0,0-3.49,1.28l-.21-.24a6.021,6.021,0,0,1,4.16-1.87,6.337,6.337,0,0,1,2.88.86c1.78.83,2.06.98,2.8.98a6.668,6.668,0,0,0,3.49-1.3l.21.24a6,6,0,0,1-4.15,1.87Z"/>
  <path id="パス_29" data-name="パス 29" d="M212.12,53.17h-6.29v-.43a10.858,10.858,0,0,1,2.35-3.59c2.35-2.72,3.15-3.63,3.15-5.23a2.056,2.056,0,0,0-2.13-2.19c-1.12,0-1.79.67-1.79,1.25a.889.889,0,0,0,.16.5,1.383,1.383,0,0,1,.34.8.888.888,0,0,1-.86.9,1.01,1.01,0,0,1-.91-1.12,3.206,3.206,0,0,1,3.44-2.87,2.924,2.924,0,0,1,3.2,2.98c0,1.62-.93,2.5-2.37,3.73a14.007,14.007,0,0,0-3.46,4.02h2.21c2.24,0,2.77-.86,3.25-2.19l.48.18-.77,3.28Z"/>
  <path id="パス_30" data-name="パス 30" d="M214.76,52.66h.88c.83,0,1.12-.32,1.12-.98V43.02c0-.5-.46-.58-.77-.58h-1.22v-.5h.29a6.215,6.215,0,0,0,2.61-.67c.11-.06.16-.1.22-.1.14,0,.18.1.18.22V51.67c0,.69.34.98,1.12.98h.88v.51h-5.31v-.51Z"/>
  <path id="パス_31" data-name="パス 31" d="M226.94,42.3c-.02.58-.03.94-.03,1.71,0,1.68.1,5.31.13,6,0,.21.05.58.05.78,0,.61-.69.64-.77.64-.43,0-.43-.11-.4-1.17h-2c0,.11.05,1.42.05,1.46,0,.58-.62.69-.8.69-.4,0-.4-.3-.4-.5,0-.18.05-.96.05-1.12.05-1.22.06-5.71.06-6.08a24.591,24.591,0,0,0-.19-3.95l1.39.67h1.63l.46-.42c.18-.14.21-.21.29-.21a.421.421,0,0,1,.26.14l.64.58a.407.407,0,0,1,.13.26c0,.14-.32.35-.54.51Zm-1.01-.48h-2.02v3.76h2.02Zm0,4.15h-2.02v3.92h2.02Zm10.47-.3h-7.04a11.208,11.208,0,0,0-1.89.14l-.3-.64c.99.08,1.97.11,2.45.11h1.34V42.83h-.7a11.787,11.787,0,0,0-1.89.14l-.3-.64c1.06.1,2.18.11,2.45.11h.45a6.878,6.878,0,0,0-.27-2.61l1.65.48c.18.05.29.13.29.26s-.05.16-.51.48c-.02.38-.02.48-.03,1.39h1.57l.59-.69c.11-.14.18-.19.26-.19a.41.41,0,0,1,.29.16l.78.69a.312.312,0,0,1,.16.24c0,.14-.14.18-.24.18h-3.43v2.45h2.43l.61-.74c.13-.16.18-.21.24-.21.1,0,.14.06.3.19l.85.72c.13.11.14.19.14.24,0,.16-.14.18-.24.18Zm-.03,2.93h-2.66c0,.32.05,3.33.05,3.84,0,.61,0,1.6-2.06,1.98-.14-.53-.32-.98-1.47-1.6l.03-.11c.32.03,1.31.11,1.57.11.72,0,.82-.14.83-.46.02-.29.02-3.51,0-3.76h-3.11a12.276,12.276,0,0,0-1.89.14l-.3-.64c1.09.1,2.22.11,2.45.11h2.85a10.635,10.635,0,0,0-.21-2.21l1.44.35c.21.05.3.08.3.21,0,.11-.05.14-.46.46-.02.3-.02.4-.02,1.18h.75l.66-.75c.13-.14.19-.19.27-.19s.14.03.27.16l.78.75c.11.1.16.14.16.24,0,.14-.13.18-.24.18Zm-6.11,3.22c-.48,0-.58-.45-.66-.88a3.556,3.556,0,0,0-.75-1.78l.06-.1c1.57.62,2.02,1.55,2.02,2.05a.683.683,0,0,1-.67.7Z"/>
  <path id="パス_32" data-name="パス 32" d="M241.42,48.37a1.28,1.28,0,0,1,0-2.56,1.28,1.28,0,0,1,0,2.56Z"/>
  <path id="パス_33" data-name="パス 33" d="M255.55,42.42c-.03.9-.03,1.42-.03,2.34,0,2.82.08,6.69.14,7.65,0,.1.03.51.03.61,0,.59-.62.77-.91.77-.32,0-.42-.18-.42-.48,0-.02,0-.24.03-.64h-5.92c.02.46.03,1.17-.88,1.17a.376.376,0,0,1-.43-.43c0-.11.05-.93.08-1.39.06-1.23.11-5.73.11-6.85,0-3.41-.08-3.79-.26-4.5l1.62.83h5.46l.5-.48c.13-.13.21-.19.32-.19s.19.08.3.18l.69.62a.514.514,0,0,1,.19.3c0,.19-.21.3-.62.5Zm-1.14-.54h-5.95v4.85h5.95Zm0,5.23h-5.95v5.17h5.95V47.11Z"/>
  <path id="パス_34" data-name="パス 34" d="M264.01,48.43c-.45,0-.59-.42-.77-.91a4.169,4.169,0,0,0-.96-1.33c0,.7,0,1.01.02,3.78,0,.5.06,2.95.06,3.49a.774.774,0,0,1-.83.77c-.42,0-.42-.26-.42-.48s.1-1.38.11-1.63c.05-1.02.06-1.42.1-5.06a9.321,9.321,0,0,1-3.33,2.45l-.05-.08a24.958,24.958,0,0,0,4.71-6h-2.06a11.653,11.653,0,0,0-1.87.14l-.32-.64c.82.06,1.63.11,2.46.11h.4a8.221,8.221,0,0,0-.35-3.33l1.54.5c.18.06.32.11.32.24,0,.18-.11.24-.5.48,0,.3.02,1.78.02,2.11h.58l.37-.4a.3.3,0,0,1,.24-.14.431.431,0,0,1,.26.13l.66.58a.4.4,0,0,1,.13.26c0,.18-.53.38-.8.5-.37.51-.94,1.34-1.42,1.94v.16c.88.29,2.34.75,2.34,1.75a.624.624,0,0,1-.61.64Zm3.55-.67c-1.06,4.27-3.03,5.51-4.64,6.11l-.08-.1a8.994,8.994,0,0,0,3.52-6.45,3.758,3.758,0,0,0-.06-.72l1.41.54c.1.03.27.13.27.29,0,.21-.27.29-.42.32Zm3.36,5.96a5.967,5.967,0,0,1-2.05-.19c-.62-.21-.62-.48-.62-1.81,0-.86.06-4.72.05-5.51h-2.16c.02.43-.16.82-.7.82-.21,0-.4-.08-.4-.42v-.27c0-.38.05-1.97.05-2.53a14.179,14.179,0,0,0-.24-3.92l1.34.74h4.1l.35-.34c.06-.06.16-.16.26-.16.08,0,.14.06.22.13l.66.54c.1.08.18.14.18.22,0,.19-.16.29-.54.5.02.59.02,3.15.03,3.67.02.18.06.88.06,1.04a.67.67,0,0,1-.72.64c-.46,0-.46-.27-.45-.66h-.98c0,.7-.02,3.81-.02,4.45.02,1.59.02,1.76.21,1.87a3.262,3.262,0,0,0,1.06.11c.98,0,1.31,0,1.73-2.8h.1c.05.34.21,1.81.3,2.1.05.13.11.18.35.37a.464.464,0,0,1,.16.37c0,1.04-1.9,1.04-2.32,1.04Zm-.59-12.71h-4.19v4.82h4.19Z"/>
  <path id="パス_35" data-name="パス 35" d="M274.92,52.66h.88c.83,0,1.12-.32,1.12-.98V43.02c0-.5-.46-.58-.77-.58h-1.22v-.5h.29a6.215,6.215,0,0,0,2.61-.67c.11-.06.16-.1.22-.1.14,0,.18.1.18.22V51.67c0,.69.34.98,1.12.98h.88v.51h-5.31v-.51Z"/>
  <path id="パス_36" data-name="パス 36" d="M285.58,53.48a3.238,3.238,0,0,1-2.62-1.73,9.963,9.963,0,0,1-.98-4.56c0-3.41,1.46-6,3.6-6,1.65,0,3.6,1.78,3.6,6.15,0,3.92-1.65,6.15-3.6,6.15Zm-1.79-9.62a14.706,14.706,0,0,0-.37,3.47c0,3.57.85,5.6,2.16,5.6,1.1,0,1.6-1.47,1.78-2.08a15.105,15.105,0,0,0,.38-3.52c0-3.65-.88-5.6-2.16-5.6C284.44,41.73,283.95,43.3,283.79,43.86Z"/>
  <path id="パス_37" data-name="パス 37" d="M295.1,42.3c-.02.58-.03.94-.03,1.71,0,1.68.1,5.31.13,6,0,.21.05.58.05.78,0,.61-.69.64-.77.64-.43,0-.43-.11-.4-1.17h-2c0,.11.05,1.42.05,1.46,0,.58-.62.69-.8.69-.4,0-.4-.3-.4-.5,0-.18.05-.96.05-1.12.05-1.22.06-5.71.06-6.08a24.589,24.589,0,0,0-.19-3.95l1.39.67h1.63l.46-.42c.18-.14.21-.21.29-.21a.421.421,0,0,1,.26.14l.64.58a.407.407,0,0,1,.13.26c0,.14-.32.35-.54.51Zm-1.01-.48h-2.02v3.76h2.02Zm0,4.15h-2.02v3.92h2.02Zm10.47-.3h-7.04a11.208,11.208,0,0,0-1.89.14l-.3-.64c.99.08,1.97.11,2.45.11h1.34V42.83h-.7a11.787,11.787,0,0,0-1.89.14l-.3-.64c1.06.1,2.18.11,2.45.11h.45a6.879,6.879,0,0,0-.27-2.61l1.65.48c.18.05.29.13.29.26s-.05.16-.51.48c-.02.38-.02.48-.03,1.39h1.57l.59-.69c.11-.14.18-.19.26-.19a.41.41,0,0,1,.29.16l.78.69a.312.312,0,0,1,.16.24c0,.14-.14.18-.24.18h-3.43v2.45h2.43l.61-.74c.13-.16.18-.21.24-.21.1,0,.14.06.3.19l.85.72c.13.11.14.19.14.24,0,.16-.14.18-.24.18Zm-.03,2.93h-2.66c0,.32.05,3.33.05,3.84,0,.61,0,1.6-2.06,1.98-.14-.53-.32-.98-1.47-1.6l.03-.11c.32.03,1.31.11,1.57.11.72,0,.82-.14.83-.46.02-.29.02-3.51,0-3.76h-3.11a12.276,12.276,0,0,0-1.89.14l-.3-.64c1.09.1,2.22.11,2.45.11h2.85a10.634,10.634,0,0,0-.21-2.21l1.44.35c.21.05.3.08.3.21,0,.11-.05.14-.46.46-.02.3-.02.4-.02,1.18h.75l.66-.75c.13-.14.19-.19.27-.19s.14.03.27.16l.78.75c.11.1.16.14.16.24,0,.14-.13.18-.24.18Zm-6.11,3.22c-.48,0-.58-.45-.66-.88a3.556,3.556,0,0,0-.75-1.78l.06-.1c1.57.62,2.02,1.55,2.02,2.05a.683.683,0,0,1-.67.7Z"/>
  <path id="パス_38" data-name="パス 38" d="M315.76,48.42a6.133,6.133,0,0,1-2.62-.74c-2.32-1.06-2.37-1.09-3.07-1.09a6.6,6.6,0,0,0-3.49,1.28l-.21-.24a6.021,6.021,0,0,1,4.16-1.87,6.337,6.337,0,0,1,2.88.86c1.78.83,2.06.98,2.8.98a6.668,6.668,0,0,0,3.49-1.3l.21.24a6,6,0,0,1-4.15,1.87Z"/>
  <path id="パス_39" data-name="パス 39" d="M327.39,53.17H321.1v-.43a10.858,10.858,0,0,1,2.35-3.59c2.35-2.72,3.15-3.63,3.15-5.23a2.056,2.056,0,0,0-2.13-2.19c-1.12,0-1.79.67-1.79,1.25a.889.889,0,0,0,.16.5,1.383,1.383,0,0,1,.34.8.888.888,0,0,1-.86.9,1.01,1.01,0,0,1-.91-1.12,3.206,3.206,0,0,1,3.44-2.87,2.924,2.924,0,0,1,3.2,2.98c0,1.62-.93,2.5-2.37,3.73a14.006,14.006,0,0,0-3.46,4.02h2.21c2.24,0,2.77-.86,3.25-2.19l.48.18-.77,3.28Z"/>
  <path id="パス_40" data-name="パス 40" d="M332.68,53.48a3.238,3.238,0,0,1-2.62-1.73,9.963,9.963,0,0,1-.98-4.56c0-3.41,1.46-6,3.6-6,1.65,0,3.6,1.78,3.6,6.15,0,3.92-1.65,6.15-3.6,6.15Zm-1.79-9.62a14.706,14.706,0,0,0-.37,3.47c0,3.57.85,5.6,2.16,5.6,1.1,0,1.6-1.47,1.78-2.08a15.105,15.105,0,0,0,.38-3.52c0-3.65-.88-5.6-2.16-5.6C331.54,41.73,331.05,43.3,330.89,43.86Z"/>
  <path id="パス_41" data-name="パス 41" d="M342.2,42.3c-.02.58-.03.94-.03,1.71,0,1.68.1,5.31.13,6,0,.21.05.58.05.78,0,.61-.69.64-.77.64-.43,0-.43-.11-.4-1.17h-2c0,.11.05,1.42.05,1.46,0,.58-.62.69-.8.69-.4,0-.4-.3-.4-.5,0-.18.05-.96.05-1.12.05-1.22.06-5.71.06-6.08a24.589,24.589,0,0,0-.19-3.95l1.39.67h1.63l.46-.42c.18-.14.21-.21.29-.21a.421.421,0,0,1,.26.14l.64.58a.407.407,0,0,1,.13.26c0,.14-.32.35-.54.51Zm-1.01-.48h-2.02v3.76h2.02Zm0,4.15h-2.02v3.92h2.02Zm10.47-.3h-7.04a11.208,11.208,0,0,0-1.89.14l-.3-.64c.99.08,1.97.11,2.45.11h1.34V42.83h-.7a11.787,11.787,0,0,0-1.89.14l-.3-.64c1.06.1,2.18.11,2.45.11h.45a6.879,6.879,0,0,0-.27-2.61l1.65.48c.18.05.29.13.29.26s-.05.16-.51.48c-.02.38-.02.48-.03,1.39h1.57l.59-.69c.11-.14.18-.19.26-.19a.41.41,0,0,1,.29.16l.78.69a.312.312,0,0,1,.16.24c0,.14-.14.18-.24.18h-3.43v2.45h2.43l.61-.74c.13-.16.18-.21.24-.21.1,0,.14.06.3.19l.85.72c.13.11.14.19.14.24,0,.16-.14.18-.24.18Zm-.03,2.93h-2.66c0,.32.05,3.33.05,3.84,0,.61,0,1.6-2.06,1.98-.14-.53-.32-.98-1.47-1.6l.03-.11c.32.03,1.31.11,1.57.11.72,0,.82-.14.83-.46.02-.29.02-3.51,0-3.76h-3.1a12.276,12.276,0,0,0-1.89.14l-.3-.64c1.09.1,2.22.11,2.45.11h2.85a10.634,10.634,0,0,0-.21-2.21l1.44.35c.21.05.3.08.3.21,0,.11-.05.14-.46.46-.02.3-.02.4-.02,1.18h.75l.66-.75c.13-.14.19-.19.27-.19s.14.03.27.16l.78.75c.11.1.16.14.16.24,0,.14-.13.18-.24.18Zm-6.11,3.22c-.48,0-.58-.45-.66-.88a3.556,3.556,0,0,0-.75-1.78l.06-.1c1.57.62,2.02,1.55,2.02,2.05a.683.683,0,0,1-.67.7Z"/>
  <path id="パス_42" data-name="パス 42" d="M359.05,47.73a2.952,2.952,0,0,1,1.09,2.37,3.473,3.473,0,0,1-3.73,3.38c-1.73,0-3.19-.98-3.19-2.26a.919.919,0,0,1,.91-1.02.78.78,0,0,1,.78.8,1.269,1.269,0,0,1-.1.51,1.222,1.222,0,0,0-.05.37c0,.61.69,1.06,1.44,1.06a2.738,2.738,0,0,0,2.48-2.83,2.818,2.818,0,0,0-2.5-2.93c-.1,0-.54.06-.64.06a.313.313,0,0,1-.35-.34.363.363,0,0,1,.37-.37c.1,0,.58.1.69.1a2.324,2.324,0,0,0,2.19-2.5,2.15,2.15,0,0,0-2.02-2.4,1.2,1.2,0,0,0-1.3,1.07,1.027,1.027,0,0,0,.05.24,1.652,1.652,0,0,1,.05.38.845.845,0,0,1-.82.88.825.825,0,0,1-.8-.88c0-.88,1.02-2.24,3.07-2.24s3.2,1.28,3.2,2.69a2.789,2.789,0,0,1-.59,1.63,3.836,3.836,0,0,1-2.03,1.36,4.227,4.227,0,0,1,1.78.86Z"/>
  <path id="パス_43" data-name="パス 43" d="M364.68,53.48a3.238,3.238,0,0,1-2.62-1.73,9.963,9.963,0,0,1-.98-4.56c0-3.41,1.46-6,3.6-6,1.65,0,3.6,1.78,3.6,6.15,0,3.92-1.65,6.15-3.6,6.15Zm-1.79-9.62a14.706,14.706,0,0,0-.37,3.47c0,3.57.85,5.6,2.16,5.6,1.1,0,1.6-1.47,1.78-2.08a15.105,15.105,0,0,0,.38-3.52c0-3.65-.88-5.6-2.16-5.6C363.54,41.73,363.05,43.3,362.89,43.86Z"/>
  <path id="パス_44" data-name="パス 44" d="M374.41,42.13a13.862,13.862,0,0,1-4.96,5.44l-.08-.11a20.562,20.562,0,0,0,3.87-5.86,5.745,5.745,0,0,0,.26-1.03l1.38.93c.08.05.21.14.21.26,0,.19-.42.3-.67.37Zm5.81,5.01c-.16,5.76-.48,6.93-3.36,7.19a2.279,2.279,0,0,0-1.2-1.76l.02-.11a10.281,10.281,0,0,0,1.86.27c.77,0,1.07-.18,1.31-1.63a32.555,32.555,0,0,0,.24-4.61h-3.23c-.1,2.51-1.17,6.85-6.21,7.78l-.03-.13a8.088,8.088,0,0,0,5.06-7.65h-.46a10.5,10.5,0,0,0-1.89.16l-.3-.64c.99.08,1.97.1,2.45.1h4.53l.43-.38c.1-.1.19-.18.29-.18.08,0,.16.08.22.14l.64.7a.422.422,0,0,1,.14.26c0,.14-.05.18-.5.5Zm2.91-.02c-1.71-.74-3.62-2.46-4.82-6.08h-1.28a6.519,6.519,0,0,0-1.34.1l-.21-.56c.72.06,1.42.08,1.74.08h.8l.51-.51c.14-.14.21-.18.29-.18.1,0,.16.08.27.18l.59.58a.272.272,0,0,1,.13.24c0,.32-.74.45-1.02.5a7.5,7.5,0,0,0,5.87,4.29l.02.16a2.623,2.623,0,0,0-1.55,1.22Z"/>
  <path id="パス_45" data-name="パス 45" d="M388.68,48.37a1.28,1.28,0,0,1,0-2.56,1.28,1.28,0,0,1,0,2.56Z"/>
  <path id="パス_46" data-name="パス 46" d="M396.84,52a2.826,2.826,0,0,0-.74.62c-.13.13-.19.14-.27.14-.4,0-1.12-1.39-1.12-1.54a5.417,5.417,0,0,1,.29-.7,36.809,36.809,0,0,0,.14-4.08,37.337,37.337,0,0,0-.13-3.94c-.11-.29-.4-.42-1.31-.64a2.133,2.133,0,0,1,1.12-.46c.48,0,1.82.46,1.82.88a8.94,8.94,0,0,1-.27.88c-.14.75-.29,6.19-.26,7.67a25.041,25.041,0,0,0,8.42-5.81l.11.1c-2.31,3.73-4.43,4.95-7.81,6.88Z"/>
  <path id="パス_47" data-name="パス 47" d="M416.24,52.5c-.34,0-.51-.27-.66-.51a12.96,12.96,0,0,0-3.59-4.23c-2.85,3.59-5.57,4.59-7.07,4.9l-.02-.13c3.71-1.63,7.62-6.53,8.5-9.51a31.27,31.27,0,0,0-4.13.91,6.3,6.3,0,0,1-.86.38,1.967,1.967,0,0,1-1.12-1.62,1.487,1.487,0,0,1,.14-.69c.61.96.88.98,1.2.98a20.928,20.928,0,0,0,4.58-.72,4.065,4.065,0,0,1,.74-.45c.18,0,1.36,1.01,1.36,1.28,0,.18-.11.21-.62.4-.11.05-.13.08-.34.46a20.773,20.773,0,0,1-2.13,3.52c1.92.85,4.58,2.75,4.58,4.26,0,.43-.18.75-.56.75Z"/>
  <path id="パス_48" data-name="パス 48" d="M425.69,48.9c-.24,0-.45-.21-.7-.48a8.184,8.184,0,0,0-3.41-2.62c0,.62-.03,3.41-.02,3.99,0,.42.1,2.26.1,2.62,0,.34,0,1.28-.62,1.28-.53,0-.75-.93-.75-1.34a7.974,7.974,0,0,1,.11-1.07,45.792,45.792,0,0,0,.21-5.15c0-.69-.02-3.87-.14-4.39-.1-.35-.45-.51-1.28-.8a2.233,2.233,0,0,1,1.06-.38c.24,0,1.81.34,1.81.85a7.938,7.938,0,0,1-.22.8,19.3,19.3,0,0,0-.22,3.23,8.876,8.876,0,0,1,4.13,1.73,1.467,1.467,0,0,1,.48,1.07c0,.53-.32.67-.51.67Z"/>
  <path id="パス_49" data-name="パス 49" d="M437.77,45.92c-.3.16-.34.22-.54.7-2.59,6.21-6.9,7.01-7.78,7.09l-.03-.11a13,13,0,0,0,6.79-8.02,37.98,37.98,0,0,0-6.1.9,3.141,3.141,0,0,1-.58.29,2.348,2.348,0,0,1-1.57-1.9,1.575,1.575,0,0,1,.11-.54,2.049,2.049,0,0,0,1.66,1.04c.77,0,6.18-.42,6.42-.53.14-.06.59-.58.72-.58.18,0,1.36.85,1.36,1.22,0,.21-.21.32-.46.45Zm-1.92-3.1c-1.23.06-3.83.29-4.19.35a7.54,7.54,0,0,1-1.12.13,1.68,1.68,0,0,1-1.28-1.73,2.517,2.517,0,0,0,2.08.75,13.623,13.623,0,0,0,3.81-.53c.32-.14.37-.18.51-.18.29,0,1.31.22,1.31.72,0,.32-.21.43-1.12.48Z"/>
  <path id="パス_50" data-name="パス 50" d="M444,44.5c-.27,0-.46-.19-.98-.7a8.054,8.054,0,0,0-2.62-1.83c1.92-.13,4.19.56,4.19,1.89a.623.623,0,0,1-.59.64Zm1.39,5.49c-.34.26-1.84,1.34-2.11,1.62-.08.08-.43.48-.51.56a.449.449,0,0,1-.27.1c-.56,0-1.62-1.34-1.62-2.1a2.009,2.009,0,0,1,.16-.7c.37.72.83,1.06,1.17,1.06.53,0,3.01-1.84,3.7-2.37a31.029,31.029,0,0,0,5.11-4.83l.08.05c-.38,1.17-2.18,3.92-5.7,6.63Z"/>
  <path id="パス_51" data-name="パス 51" d="M452.75,52.66h.88c.83,0,1.12-.32,1.12-.98V43.02c0-.5-.46-.58-.77-.58h-1.22v-.5h.29a6.215,6.215,0,0,0,2.61-.67c.11-.06.16-.1.22-.1.14,0,.18.1.18.22V51.67c0,.69.34.98,1.12.98h.88v.51h-5.31v-.51Z"/>
  <path id="パス_52" data-name="パス 52" d="M460.75,52.66h.88c.83,0,1.12-.32,1.12-.98V43.02c0-.5-.46-.58-.77-.58h-1.22v-.5h.29a6.215,6.215,0,0,0,2.61-.67c.11-.06.16-.1.22-.1.14,0,.18.1.18.22V51.67c0,.69.34.98,1.12.98h.88v.51h-5.31v-.51Z"/>
  <path id="パス_53" data-name="パス 53" d="M472.92,42.3c-.02.58-.03.94-.03,1.71,0,1.68.1,5.31.13,6,0,.21.05.58.05.78,0,.61-.69.64-.77.64-.43,0-.43-.11-.4-1.17h-2c0,.11.05,1.42.05,1.46,0,.58-.62.69-.8.69-.4,0-.4-.3-.4-.5,0-.18.05-.96.05-1.12.05-1.22.06-5.71.06-6.08a24.589,24.589,0,0,0-.19-3.95l1.39.67h1.63l.46-.42c.18-.14.21-.21.29-.21a.421.421,0,0,1,.26.14l.64.58a.407.407,0,0,1,.13.26c0,.14-.32.35-.54.51Zm-1.01-.48h-2.02v3.76h2.02Zm0,4.15h-2.02v3.92h2.02Zm10.47-.3h-7.04a11.208,11.208,0,0,0-1.89.14l-.3-.64c.99.08,1.97.11,2.45.11h1.34V42.83h-.7a11.787,11.787,0,0,0-1.89.14l-.3-.64c1.06.1,2.18.11,2.45.11h.45a6.879,6.879,0,0,0-.27-2.61l1.65.48c.18.05.29.13.29.26s-.05.16-.51.48c-.02.38-.02.48-.03,1.39h1.57l.59-.69c.11-.14.18-.19.26-.19a.41.41,0,0,1,.29.16l.78.69a.312.312,0,0,1,.16.24c0,.14-.14.18-.24.18h-3.43v2.45h2.43l.61-.74c.13-.16.18-.21.24-.21.1,0,.14.06.3.19l.85.72c.13.11.14.19.14.24,0,.16-.14.18-.24.18Zm-.03,2.93h-2.66c0,.32.05,3.33.05,3.84,0,.61,0,1.6-2.06,1.98-.14-.53-.32-.98-1.47-1.6l.03-.11c.32.03,1.31.11,1.57.11.72,0,.82-.14.83-.46.02-.29.02-3.51,0-3.76h-3.1a12.276,12.276,0,0,0-1.89.14l-.3-.64c1.09.1,2.22.11,2.45.11h2.85a10.634,10.634,0,0,0-.21-2.21l1.44.35c.21.05.3.08.3.21,0,.11-.05.14-.46.46-.02.3-.02.4-.02,1.18h.75l.66-.75c.13-.14.19-.19.27-.19s.14.03.27.16l.78.75c.11.1.16.14.16.24,0,.14-.13.18-.24.18Zm-6.11,3.22c-.48,0-.58-.45-.66-.88a3.556,3.556,0,0,0-.75-1.78l.06-.1c1.57.62,2.02,1.55,2.02,2.05a.683.683,0,0,1-.67.7Z"/>
  <path id="パス_54" data-name="パス 54" d="M493.58,48.42a6.133,6.133,0,0,1-2.62-.74c-2.32-1.06-2.37-1.09-3.07-1.09a6.6,6.6,0,0,0-3.49,1.28l-.21-.24a6.021,6.021,0,0,1,4.16-1.87,6.337,6.337,0,0,1,2.88.86c1.78.83,2.06.98,2.8.98a6.668,6.668,0,0,0,3.49-1.3l.21.24a6,6,0,0,1-4.15,1.87Z"/>
  <path id="パス_55" data-name="パス 55" d="M505.21,53.17h-6.29v-.43a10.858,10.858,0,0,1,2.35-3.59c2.35-2.72,3.15-3.63,3.15-5.23a2.056,2.056,0,0,0-2.13-2.19c-1.12,0-1.79.67-1.79,1.25a.889.889,0,0,0,.16.5,1.383,1.383,0,0,1,.34.8.888.888,0,0,1-.86.9,1.01,1.01,0,0,1-.91-1.12,3.206,3.206,0,0,1,3.44-2.87,2.924,2.924,0,0,1,3.2,2.98c0,1.62-.93,2.5-2.37,3.73a14.006,14.006,0,0,0-3.46,4.02h2.21c2.24,0,2.77-.86,3.25-2.19l.48.18-.77,3.28Z"/>
  <path id="パス_56" data-name="パス 56" d="M513.21,53.17h-6.29v-.43a10.858,10.858,0,0,1,2.35-3.59c2.35-2.72,3.15-3.63,3.15-5.23a2.056,2.056,0,0,0-2.13-2.19c-1.12,0-1.79.67-1.79,1.25a.889.889,0,0,0,.16.5,1.383,1.383,0,0,1,.34.8.888.888,0,0,1-.86.9,1.01,1.01,0,0,1-.91-1.12,3.206,3.206,0,0,1,3.44-2.87,2.924,2.924,0,0,1,3.2,2.98c0,1.62-.93,2.5-2.37,3.73a14.006,14.006,0,0,0-3.46,4.02h2.21c2.24,0,2.77-.86,3.25-2.19l.48.18-.77,3.28Z"/>
  <path id="パス_57" data-name="パス 57" d="M520.03,42.3c-.02.58-.03.94-.03,1.71,0,1.68.1,5.31.13,6,0,.21.05.58.05.78,0,.61-.69.64-.77.64-.43,0-.43-.11-.4-1.17h-2c0,.11.05,1.42.05,1.46,0,.58-.62.69-.8.69-.4,0-.4-.3-.4-.5,0-.18.05-.96.05-1.12.05-1.22.06-5.71.06-6.08a24.589,24.589,0,0,0-.19-3.95l1.39.67h1.63l.46-.42c.18-.14.21-.21.29-.21a.421.421,0,0,1,.26.14l.64.58a.407.407,0,0,1,.13.26c0,.14-.32.35-.54.51Zm-1.01-.48H517v3.76h2.02Zm0,4.15H517v3.92h2.02Zm10.47-.3h-7.04a11.208,11.208,0,0,0-1.89.14l-.3-.64c.99.08,1.97.11,2.45.11h1.34V42.83h-.7a11.787,11.787,0,0,0-1.89.14l-.3-.64c1.06.1,2.18.11,2.45.11h.45a6.878,6.878,0,0,0-.27-2.61l1.65.48c.18.05.29.13.29.26s-.05.16-.51.48c-.02.38-.02.48-.03,1.39h1.57l.59-.69c.11-.14.18-.19.26-.19a.41.41,0,0,1,.29.16l.78.69a.312.312,0,0,1,.16.24c0,.14-.14.18-.24.18h-3.43v2.45h2.43l.61-.74c.13-.16.18-.21.24-.21.1,0,.14.06.3.19l.85.72c.13.11.14.19.14.24,0,.16-.14.18-.24.18Zm-.03,2.93H526.8c0,.32.05,3.33.05,3.84,0,.61,0,1.6-2.06,1.98-.14-.53-.32-.98-1.47-1.6l.03-.11c.32.03,1.31.11,1.57.11.72,0,.82-.14.83-.46.02-.29.02-3.51,0-3.76h-3.11a12.276,12.276,0,0,0-1.89.14l-.3-.64c1.09.1,2.22.11,2.45.11h2.85a10.634,10.634,0,0,0-.21-2.21l1.44.35c.21.05.3.08.3.21,0,.11-.05.14-.46.46-.02.3-.02.4-.02,1.18h.75l.66-.75c.13-.14.19-.19.27-.19s.14.03.27.16l.78.75c.11.1.16.14.16.24,0,.14-.13.18-.24.18Zm-6.11,3.22c-.48,0-.58-.45-.66-.88a3.556,3.556,0,0,0-.75-1.78l.06-.1c1.57.62,2.02,1.55,2.02,2.05a.683.683,0,0,1-.67.7Z"/>
  <path id="パス_58" data-name="パス 58" d="M114.15,74.79l-.51-.51,5.2-5.19-5.2-5.19.51-.51,5.19,5.2,5.19-5.2.51.51-5.2,5.19,5.2,5.19-.51.51-5.19-5.2Zm2.16-5.7a1.335,1.335,0,1,1-1.33-1.33A1.336,1.336,0,0,1,116.31,69.09Zm4.35-4.35a1.33,1.33,0,1,1-2.66,0,1.33,1.33,0,1,1,2.66,0Zm0,8.71a1.33,1.33,0,1,1-1.33-1.33A1.338,1.338,0,0,1,120.66,73.45Zm4.37-4.35a1.338,1.338,0,0,1-1.34,1.33,1.317,1.317,0,0,1-1.33-1.33,1.336,1.336,0,0,1,1.33-1.33A1.358,1.358,0,0,1,125.03,69.1Z"/>
  <path id="パス_59" data-name="パス 59" d="M139.6,68.7l.85-.96c.1-.11.14-.19.26-.19.1,0,.18.1.27.18l1.15,1.04c.08.08.16.14.16.24,0,.16-.14.18-.24.18H130.53a11.923,11.923,0,0,0-1.89.14l-.3-.74c1.2.11,2.35.11,2.45.11h8.82Z"/>
  <path id="パス_60" data-name="パス 60" d="M150.75,68.54l.56-.64c.1-.1.19-.21.26-.21.1,0,.19.08.3.18l.74.64c.1.08.16.14.16.24,0,.14-.13.18-.24.18h-6.02a11.208,11.208,0,0,0-1.89.14l-.3-.64c1.15.1,2.18.11,2.45.11h1.71a9.669,9.669,0,0,0,.94-3.65l1.41.56a.379.379,0,0,1,.22.29c0,.18-.21.3-.56.43-.56.8-1.2,1.68-1.78,2.37h2.03Zm-.29-4.31.53-.62c.1-.11.16-.21.24-.21s.19.1.3.19l.69.59a.409.409,0,0,1,.16.26c0,.14-.14.18-.24.18h-5.2a11.006,11.006,0,0,0-1.87.14l-.32-.64c.82.06,1.63.11,2.46.11h.59a6.164,6.164,0,0,0-.29-2.3l1.65.43c.16.05.32.11.32.26s-.14.22-.56.43c-.03.38-.05.77-.05,1.18h1.59Zm-.61,6.35.35-.38c.06-.08.18-.19.26-.19a.7.7,0,0,1,.27.14l.61.46a.408.408,0,0,1,.21.29c0,.13-.13.26-.4.45-.02.58-.02,1.07,0,1.95,0,.24.03,1.35.03,1.57a.731.731,0,0,1-.75.8c-.3,0-.38-.16-.38-.4,0-.11.02-.3.03-.42h-3.3a2.668,2.668,0,0,1,.03.32.715.715,0,0,1-.8.79.375.375,0,0,1-.4-.43c0-.51.08-3.15.08-3.75a11.935,11.935,0,0,0-.14-1.91l1.41.7h2.9Zm-3.86-5.31c.48.22,1.86.88,1.86,2,0,.59-.37.77-.64.77-.38,0-.59-.21-.67-.83a5.134,5.134,0,0,0-.61-1.87l.06-.06Zm.77,5.7v3.5h3.33v-3.5Zm9.6-7.92.38-.34c.11-.1.19-.18.27-.18a.638.638,0,0,1,.27.14l.82.64a.58.58,0,0,1,.18.3c0,.18-.19.27-.59.48-.37.59-1.98,3.25-2.31,3.79a7.064,7.064,0,0,1,2.4,2.1,4.661,4.661,0,0,1,.78,2.46c0,1.82-1.87,2.26-2.66,2.45a2.337,2.337,0,0,0-1.2-1.59l.03-.14a10.674,10.674,0,0,0,1.36.11c1.1,0,1.3-.56,1.3-1.14A5.2,5.2,0,0,0,155.04,68a28.887,28.887,0,0,0,1.36-4.59h-2.16c-.02.69.03,8.68.08,11.44,0,.22.02.59.02.77,0,.64-.32.85-.78.85s-.45-.42-.45-.83c0-.14.02-.5.02-.69.08-2.39.08-3.94.08-5.99,0-1.62,0-5.41-.16-6.67l1.33.74h1.98Z"/>
  <path id="パス_61" data-name="パス 61" d="M166.83,64.19a5.42,5.42,0,0,0-.35-2.42l1.76.34c.13.03.26.08.26.24,0,.11-.05.14-.53.53,0,.06-.02.91-.02,1.31h4.1l.69-.77c.08-.1.16-.21.24-.21.13,0,.19.08.3.18l.93.77c.08.08.16.13.16.26s-.14.16-.24.16H163.09c0,.59.02,3.18.02,3.71,0,2.18-.37,5.84-2.74,7.96l-.1-.1c1.44-2.75,1.73-4.69,1.73-8.4a18.752,18.752,0,0,0-.32-4.34l1.54.78h3.62Zm4.51,3.27.67-.77c.11-.13.18-.19.26-.19.13,0,.18.06.3.18l.88.77a.328.328,0,0,1,.14.24c0,.14-.13.16-.24.16h-4.72c0,.48-.02,2.72,0,3.04h2.61l.48-.58c.1-.11.16-.19.24-.19a.655.655,0,0,1,.29.16l.66.48c.14.11.22.18.22.26,0,.11-.06.14-.56.53.02.99.02,2.46.06,3.41,0,.11.05.64.05.75a.738.738,0,0,1-.74.74c-.42,0-.43-.18-.45-.72h-5.84c0,.45-.02.88-.78.88-.16,0-.43-.03-.43-.4,0-.05.02-.14.03-.24.08-.69.08-2.3.08-3.42a16.6,16.6,0,0,0-.14-2.43l1.39.79h1.76c-.02-.54-.03-2.98-.05-3.47a6.218,6.218,0,0,0-.29-2.32l1.59.35c.14.03.3.08.3.24s-.27.34-.48.46v1.31h2.71Zm-5.67,3.81v4.07h5.81V71.27Z"/>
  <path id="パス_62" data-name="パス 62" d="M181.88,65.73c-.43,0-.58-.29-.96-1.06a4.765,4.765,0,0,0-.96-1.26,13.045,13.045,0,0,1-4.15,4.5l-.06-.1a19.067,19.067,0,0,0,3.28-5.22,3.065,3.065,0,0,0,.18-.88l1.33.8a.316.316,0,0,1,.18.27c0,.19-.16.22-.54.29a.938.938,0,0,1-.1.14c.62.19,2.42.82,2.42,1.87a.589.589,0,0,1-.61.64Zm.38,4.26h-4.05a10.17,10.17,0,0,0-1.89.14l-.32-.64c1.1.1,2.24.11,2.46.11h.59l.02-1.76a8.867,8.867,0,0,0-1.7.14l-.3-.64c.34.03.93.08,2,.1a6.731,6.731,0,0,0-.21-1.87l1.41.37c.08.02.27.08.27.24,0,.13-.1.19-.46.43,0,.06,0,.74-.02.85h.53l.34-.46c.05-.06.13-.19.24-.19a.518.518,0,0,1,.3.18l.46.45c.08.08.16.16.16.24,0,.14-.13.18-.24.18h-1.79l.02,1.76h.8l.32-.48c.06-.1.14-.21.22-.21a.591.591,0,0,1,.3.16l.61.5c.06.05.16.13.16.24,0,.14-.13.18-.24.18Zm-.46,2.1c0,.18.08,3.14.08,3.25a.648.648,0,0,1-.67.75c-.5,0-.48-.26-.46-1.04h-2.42c0,.08.02.46.02.54a.651.651,0,0,1-.7.64c-.29,0-.46-.11-.46-.4,0-.18.05-.93.05-1.07.03-.83.03-1.7.03-2.34a7.438,7.438,0,0,0-.11-1.76l1.33.74h2.08l.43-.45a.37.37,0,0,1,.24-.16c.06,0,.16.08.21.11l.62.48c.14.11.19.16.19.26s-.03.14-.45.45Zm-1.06-.3h-2.42v2.88h2.42Zm9.56-7.27h-3.7v1.82h1.68l.42-.4a.436.436,0,0,1,.27-.16.62.62,0,0,1,.26.13l.64.45c.13.1.18.16.18.24,0,.1-.05.14-.51.51-.02.34-.03.77-.03,1.55,0,.91.1,4.91.1,5.73a1.618,1.618,0,0,1-1.65,1.84,2.094,2.094,0,0,0-.94-1.5v-.08c.26.02.56.05.99.05.22,0,.43,0,.48-.24.03-.18.02-2.3.02-2.66h-1.86c0,1.04.03,2.71.03,3.75,0,.3,0,.88-.77.88a.369.369,0,0,1-.4-.42c0-.66.06-3.6.06-4.21h-1.5c0,.46.02,3.46.02,3.83,0,.18-.02.64-.67.64-.45,0-.45-.3-.45-.46,0-.34.06-1.79.06-2.08.06-3.17.05-4.99.05-5.38a17.483,17.483,0,0,0-.11-2.69l1.3.69h1.34V64.53h-.75a11.6,11.6,0,0,0-1.89.16l-.32-.64c.99.08,1.98.1,2.47.1h.5a4.607,4.607,0,0,0-.29-2.3l1.57.42c.1.03.24.08.24.22s-.05.18-.48.4c-.02.42-.02.46-.03,1.26h2.19l.48-.62c.08-.1.16-.21.24-.21.11,0,.21.11.29.19l.58.62c.1.1.16.16.16.24,0,.14-.13.16-.24.16Zm-6.24,2.21v2.13h1.52l.02-2.13h-1.54Zm0,2.51v2.18h1.5l.02-2.18Zm4.43-2.51H186.6v2.13h1.89Zm0,2.51H186.6l.03,2.18h1.86Zm0-5.54c-.27,0-.34-.1-.67-.56a2.665,2.665,0,0,0-.67-.67v-.08a3.332,3.332,0,0,1,.59-.05c.56,0,1.3.14,1.3.77a.556.556,0,0,1-.54.59Z"/>
  <path id="パス_63" data-name="パス 63" d="M195.27,70.72a18.719,18.719,0,0,0-.56,3.06c0,.18.08.94.08,1.1,0,.27-.03.59-.42.59-.66,0-1.7-1.47-1.7-4.72a40.236,40.236,0,0,1,.62-4.96,7.075,7.075,0,0,0,.1-1.07,2.154,2.154,0,0,0-.54-1.55.663.663,0,0,1,.29-.06c.58,0,1.62.9,1.62,1.52a2.069,2.069,0,0,1-.21.75,14,14,0,0,0-1.12,5.03c0,1.1.27,2.34.53,2.34.1,0,.18-.19.21-.3.18-.54.85-2.4,1.42-3.63l.13.03c-.1.45-.32,1.38-.45,1.89Zm7.7,3.36a16.031,16.031,0,0,1-3.92-.45,2.34,2.34,0,0,1-1.62-2.18,1.224,1.224,0,0,1,.16-.67c.37,1.22.66,2.15,3.68,2.15.32,0,1.87-.13,2.03-.13.56,0,1.23.24,1.23.69,0,.51-.56.59-1.57.59Zm-.13-8.47a7.575,7.575,0,0,0-3.09,1.18l-.1-.1c.24-.22,1.41-1.3,1.46-1.35a.146.146,0,0,0,.05-.13c0-.18-.5-.18-.59-.18a9.469,9.469,0,0,0-2.91.72,4.91,4.91,0,0,1,3.97-1.57c.99,0,2.13.29,2.13.85,0,.37-.34.46-.91.56Z"/>
  <path id="パス_64" data-name="パス 64" d="M215.42,74.63a5,5,0,0,1-1.41-.75,6.485,6.485,0,0,0-2.15-.99c-.1.91-.38,2.32-2.67,2.32-1.2,0-2.88-.59-2.88-1.68,0-.83.86-1.39,1.41-1.55a8.367,8.367,0,0,1,3.01-.3,20.612,20.612,0,0,1-.21-3.54c0-.32.02-3.38.02-3.49,0-.96-.19-1.31-1.34-1.52a1.205,1.205,0,0,1,1.01-.45c.56,0,1.74.43,1.74,1.06a7.04,7.04,0,0,1-.19.88,11.251,11.251,0,0,0-.22,1.28,11.018,11.018,0,0,0,2.55-.64,1.377,1.377,0,0,1,.48-.08c.22,0,.88.1.88.53a.465.465,0,0,1-.22.42,6.712,6.712,0,0,1-2.69.59,2.635,2.635,0,0,1-1.06-.27c-.02.29-.06.88-.06,1.71a17.77,17.77,0,0,0,.35,3.71c1.52.27,4.13,1.1,4.13,2.18,0,.32-.13.59-.46.59Zm-5.99-2.14c-.83,0-2.5.18-2.5.98,0,.64,1.15.79,1.84.79,1.92,0,1.98-1.07,1.98-1.63a6.211,6.211,0,0,0-1.33-.13Z"/>
  <path id="パス_65" data-name="パス 65" d="M222.64,75.09a6.379,6.379,0,0,1-2.27,1.41l-.03-.08c2.77-2,3.59-5.09,3.59-7.96,0-1.06-.06-3.97-1.26-3.97-.64,0-1.09.66-1.23.86a11.385,11.385,0,0,0-1.7,5.3c0,.18.11.99.11,1.15,0,.18-.06.45-.38.45-.94,0-1.23-1.87-1.23-3.31a34.751,34.751,0,0,1,.56-4.63,3.51,3.51,0,0,0,.06-.61,1.683,1.683,0,0,0-.93-1.46,3.214,3.214,0,0,1,.72-.11,1.385,1.385,0,0,1,1.41,1.15,2.028,2.028,0,0,1-.19.71,11.413,11.413,0,0,0-.9,4.29c0,.24,0,1.15.16,1.15.1,0,.13-.08.14-.16.37-1.31,1.74-5.41,3.63-5.41,2,0,2.21,3.14,2.21,4.74,0,2.95-.67,4.85-2.46,6.48Z"/>
  <path id="パス_66" data-name="パス 66" d="M240.97,66.54h-.3c-.14.1-.22.16-.88.69-.08.06-.7.48-.83.58l-.06-.06a11.482,11.482,0,0,0,.62-1.94h-9.99c-.02,1.41-.67,2.74-1.52,2.74a.651.651,0,0,1-.66-.67c0-.4.27-.67.83-1.22a3.962,3.962,0,0,0,1.07-2.1h.08a3.666,3.666,0,0,1,.19.86h6.75a7.474,7.474,0,0,0,1.18-3.63l1.55.82c.16.08.24.16.24.26,0,.14-.16.19-.74.29-.91,1.15-1.02,1.28-1.9,2.27h2.75l.48-.37a.717.717,0,0,1,.35-.19c.09,0,.18.08.35.21l.94.75a.431.431,0,0,1,.19.34c0,.32-.38.38-.72.38Zm-2.05,6.42c.02.21.02.35.03,1.63,0,.14.06.91.06,1.09a.7.7,0,0,1-.74.71c-.48,0-.45-.38-.42-.67h-6.61c0,.24.02.77-.69.77-.4,0-.48-.21-.46-.53.03-.64.1-1.97.1-2.59a11.375,11.375,0,0,0-.14-1.84l1.36.74h2.02a6.556,6.556,0,0,0,.45-1.89h-1.71c0,.26.02.74-.64.74a.428.428,0,0,1-.48-.5c0-.4.1-2.16.1-2.53a4.65,4.65,0,0,0-.13-1.3l1.38.62h4.19l.4-.43c.11-.11.18-.16.24-.16a.581.581,0,0,1,.27.13l.59.45c.11.1.18.16.18.24,0,.13-.1.21-.48.5-.02.32.08,1.78.08,2.08a.628.628,0,0,1-.69.66c-.27,0-.46-.14-.45-.5h-1.46a14.292,14.292,0,0,1-1.38,1.89h3.84l.35-.45c.08-.11.16-.18.24-.18a.585.585,0,0,1,.29.14l.61.45a.414.414,0,0,1,.18.26c0,.11-.1.22-.48.48Zm-7.19-7.99c-.43,0-.54-.35-.66-.75a4.869,4.869,0,0,0-.9-1.89l.06-.08c.83.42,2.11,1.06,2.11,2.06a.621.621,0,0,1-.62.66Zm6.15,7.67h-6.63v2.69h6.63Zm-1.14-4.85h-4.59v2.19h4.59Zm-2-3.03c-.56,0-.67-.51-.78-1.06a4.386,4.386,0,0,0-.75-1.71l.06-.08c1.33.59,2.08,1.41,2.08,2.15,0,.11-.03.7-.61.7Z"/>
  <path id="パス_67" data-name="パス 67" d="M257.63,65.42h-4.99l.83.5c.06.05.16.14.16.22,0,.19-.3.22-.59.24a18.175,18.175,0,0,1-1.41,1.3h2.74l.62-.7c.08-.1.18-.19.26-.19a.647.647,0,0,1,.29.16l.74.7c.08.08.14.14.14.24,0,.16-.13.18-.24.18h-5.11c0,.19.02,1.07.02,1.25h2.26l.56-.58c.1-.1.19-.19.27-.19s.16.08.3.18l.78.54a.352.352,0,0,1,.18.26c0,.14-.13.18-.24.18h-4.11V71.1h4.11l.72-.82c.11-.13.16-.19.26-.19s.21.1.29.16l.88.82c.08.08.16.14.16.26,0,.14-.14.16-.26.16h-5.84a9.613,9.613,0,0,0,6.24,3.09l.02.1a2.71,2.71,0,0,0-1.47,1.3,10.126,10.126,0,0,1-5.06-4.48h-.05c.02,1.46.03,1.74.03,2.05.02.37.1,1.95.1,2.29,0,.48-.48.66-.82.66-.43,0-.46-.26-.46-.5,0-.35.05-.95.06-1.31.02-.53.02-.77.05-2.99a11.874,11.874,0,0,1-6.35,4.32l-.03-.1a14.605,14.605,0,0,0,5.12-4.42h-2.83a11.72,11.72,0,0,0-1.89.14l-.32-.64c1.07.1,2.16.11,2.47.11h3.84V69.72h-2.8a12.114,12.114,0,0,0-1.89.14l-.32-.64c1.1.1,2.26.11,2.46.11h2.54V68.08h-3.36a11.583,11.583,0,0,0-1.87.14l-.32-.64c1.07.1,2.19.11,2.46.11h4.35a8.15,8.15,0,0,0,.8-2.26h-4.55c.93.3,1.78.78,1.78,1.55a.627.627,0,0,1-.64.64c-.37,0-.42-.1-.8-1.06a3.86,3.86,0,0,0-.66-1.14h-1.67a10.17,10.17,0,0,0-1.89.14l-.3-.64c1.09.1,2.23.11,2.45.11h3.01a11.284,11.284,0,0,0-.27-3.3l1.55.45c.14.05.22.1.22.24,0,.18-.18.27-.48.38v2.22h1.18c0-2.03,0-2.5-.34-3.3l1.63.43c.1.03.27.08.27.24,0,.24-.38.37-.53.42v2.21h.69a11.072,11.072,0,0,0,.83-2.24,3.417,3.417,0,0,0,.08-.77l1.42.72c.1.05.19.11.19.22,0,.24-.38.29-.56.3-.5.53-1.34,1.44-1.66,1.76h2.51l.69-.72c.13-.13.19-.21.26-.21a.555.555,0,0,1,.32.18l.83.71c.1.08.18.14.18.26,0,.14-.14.18-.24.18Zm-10.4-.74c-.38,0-.5-.26-.8-.98a3.5,3.5,0,0,0-.93-1.26l.06-.11c.64.16,2.24.59,2.24,1.71a.593.593,0,0,1-.58.64Z"/>
  <path id="パス_68" data-name="パス 68" d="M264.12,64.3c-.02.58-.03.94-.03,1.71,0,1.68.1,5.31.13,6,0,.21.05.58.05.78,0,.61-.69.64-.77.64-.43,0-.43-.11-.4-1.17h-2c0,.11.05,1.42.05,1.46,0,.58-.62.69-.8.69-.4,0-.4-.3-.4-.5,0-.18.05-.96.05-1.12.05-1.22.06-5.71.06-6.08a24.589,24.589,0,0,0-.19-3.95l1.39.67h1.63l.46-.42c.18-.14.21-.21.29-.21a.421.421,0,0,1,.26.14l.64.58a.407.407,0,0,1,.13.26c0,.14-.32.35-.54.51Zm-1.01-.48h-2.02v3.76h2.02Zm0,4.15h-2.02v3.92h2.02Zm10.47-.3h-7.04a11.208,11.208,0,0,0-1.89.14l-.3-.64c.99.08,1.97.11,2.45.11h1.34V64.83h-.7a11.787,11.787,0,0,0-1.89.14l-.3-.64c1.06.1,2.18.11,2.45.11h.45a6.879,6.879,0,0,0-.27-2.61l1.65.48c.18.05.29.13.29.26s-.05.16-.51.48c-.02.38-.02.48-.03,1.39h1.57l.59-.69c.11-.14.18-.19.26-.19a.41.41,0,0,1,.29.16l.78.69a.312.312,0,0,1,.16.24c0,.14-.14.18-.24.18h-3.43v2.45h2.43l.61-.74c.13-.16.18-.21.24-.21.1,0,.14.06.3.19l.85.72c.13.11.14.19.14.24,0,.16-.14.18-.24.18Zm-.03,2.93h-2.66c0,.32.05,3.33.05,3.84,0,.61,0,1.6-2.06,1.98-.14-.53-.32-.98-1.47-1.6l.03-.11c.32.03,1.31.11,1.57.11.72,0,.82-.14.83-.46.02-.29.02-3.51,0-3.76h-3.11a12.275,12.275,0,0,0-1.89.14l-.3-.64c1.09.1,2.22.11,2.45.11h2.85a10.634,10.634,0,0,0-.21-2.21l1.44.35c.21.05.3.08.3.21,0,.11-.05.14-.46.46-.02.3-.02.4-.02,1.18h.75l.66-.75c.13-.14.19-.19.27-.19s.14.03.27.16l.78.75c.11.1.16.14.16.24,0,.14-.13.18-.24.18Zm-6.11,3.22c-.48,0-.58-.45-.66-.88a3.556,3.556,0,0,0-.75-1.78l.06-.1c1.57.62,2.02,1.55,2.02,2.05a.683.683,0,0,1-.67.7Z"/>
  <path id="パス_69" data-name="パス 69" d="M281.61,63.77v1.82c0,.26.06,1.49.06,1.67a.707.707,0,0,1-.78.62c-.43,0-.38-.38-.35-.58H277.8v4.02c0,.58.06,3.36.06,3.99,0,.42-.16.9-.82.9a.4.4,0,0,1-.46-.42c0-.1.05-.51.05-.61.13-1.81.13-2.8.13-9.81a11.78,11.78,0,0,0-.18-3.2l1.49.7h2.3l.42-.38c.1-.08.16-.16.22-.16a.391.391,0,0,1,.19.1l.83.61a.259.259,0,0,1,.11.21c0,.11-.1.21-.54.53Zm-1.06-.51H277.8v1.6h2.75Zm0,1.98H277.8v1.68h2.75Zm4.43,4.48c0,.75,0,1.97.05,2.93,0,.14.06.8.06.93a.713.713,0,0,1-.8.74c-.21,0-.42-.05-.34-.8h-3.12c.03.38.1,1.04-.75,1.04-.35,0-.37-.27-.37-.45,0-.1.03-.51.05-.69.06-.91.06-2.62.06-2.77a15.283,15.283,0,0,0-.11-2.26l1.17.58h3.04l.27-.35a.415.415,0,0,1,.3-.21.459.459,0,0,1,.26.13l.58.5a.286.286,0,0,1,.14.21c0,.11-.14.26-.5.48Zm-1.02-.37h-3.12v1.68h3.12Zm0,2.06h-3.12v1.71h3.12Zm4.56-7.6c0,1.55.03,8.42.03,9.81s0,1.83-.64,2.27a3.6,3.6,0,0,1-1.22.53c-.13-.56-.27-1.17-1.73-1.73l.03-.11c.27.02,1.73.1,1.89.1.14,0,.45,0,.54-.19a15.648,15.648,0,0,0,.06-1.75c0-.86-.02-4.67-.02-5.44h-3.03c.02.45-.32.66-.75.66a.344.344,0,0,1-.37-.38c0-.7.05-3.75.05-4.35a9.781,9.781,0,0,0-.08-1.02l1.33.67h2.71l.38-.43c.06-.06.19-.18.29-.18a.409.409,0,0,1,.26.11l.77.66c.08.08.13.14.13.22,0,.13-.13.24-.64.56Zm-1.04-.56h-3.04v1.6h3.04v-1.6Zm0,1.98h-3.04v1.68h3.04Z"/>
  <path id="パス_70" data-name="パス 70" d="M298.41,74.59a2.65,2.65,0,0,1-1.55,1.02c-.37,0-.43-.26-.48-.53-.11-.67-.14-.8-1.18-2.3l.05-.06c1.39.96,1.7,1.07,1.98,1.07a.726.726,0,0,0,.62-.46,10.6,10.6,0,0,0,1.12-4.79c0-.62,0-1.74-1.07-1.74a4.681,4.681,0,0,0-1.06.16,77.641,77.641,0,0,1-3.35,7.19c-.21.4-.56,1.02-.91,1.02-.32,0-.51-.38-.51-.75a1.44,1.44,0,0,1,.35-.88,27.478,27.478,0,0,0,3.38-6.27,13.692,13.692,0,0,0-2.26,1.02,1.232,1.232,0,0,1-.67.29,1.623,1.623,0,0,1-1.33-1.47,1.379,1.379,0,0,1,.19-.64c.29.54.64.83,1.09.83.38,0,2.75-.66,3.28-.79a10.776,10.776,0,0,0,.72-2.51c0-.64-.94-1.06-1.17-1.14a1.341,1.341,0,0,1,.8-.26c.85,0,1.82.74,1.82,1.14a1.512,1.512,0,0,1-.24.66c-.35.64-.62,1.22-.93,1.91a3.973,3.973,0,0,1,.86-.1c1.87,0,1.95,1.5,1.95,2.77,0,1.89-.64,4.59-1.52,5.62Zm6.48-3.76a5.387,5.387,0,0,1-.88-.4,6.528,6.528,0,0,0-2.18-.56v-.13c.24-.02,2-.16,2-.71a6.847,6.847,0,0,0-2.99-3.14c1.63.06,4.45,1.92,4.45,4.08,0,.13,0,.85-.4.85Zm-.82-4.88c-.14,0-.38-.21-.77-.53a5.511,5.511,0,0,0-2-1.2,3.569,3.569,0,0,1,.64-.06c.85,0,2.56.38,2.56,1.31a.449.449,0,0,1-.43.48Zm1.57-1.25c-.21,0-.91-.64-1.07-.75a5.668,5.668,0,0,0-1.89-.86,4.6,4.6,0,0,1,.99-.11c.29,0,2.31.06,2.31,1.28,0,.21-.08.45-.34.45Z"/>
  <path id="パス_71" data-name="パス 71" d="M315.13,69.55a4.6,4.6,0,0,0-.29-2l1.5.34c.19.05.29.1.29.24,0,.11-.1.29-.38.45v.98h1.87l.54-.67c.08-.1.16-.19.26-.19s.22.11.29.16l.85.67a.329.329,0,0,1,.16.24c0,.14-.14.18-.24.18h-3.73c0,.35,0,.58.02,2.05h2.79l.56-.72c.13-.18.18-.21.26-.21s.14.05.3.18l.85.72c.08.08.16.14.16.26,0,.14-.14.16-.26.16H308.89a11.385,11.385,0,0,0-1.87.14l-.32-.62c1.06.08,2.16.1,2.45.1h1.95c0-.18.02-1.9.02-2.05h-1.31a11.208,11.208,0,0,0-1.89.14l-.32-.64c.99.08,1.98.11,2.47.11h1.07a7.193,7.193,0,0,0-.21-2.02l1.54.43c.1.03.21.1.21.21a.341.341,0,0,1-.11.19c-.08.06-.19.14-.32.24-.02.34-.02.38-.03.94h2.93Zm-7.62,6.77c.93-.54,3.52-2.61,3.99-3.79l1.3.93c.06.05.16.13.16.22,0,.18-.16.26-.77.32a13.632,13.632,0,0,1-4.64,2.4l-.03-.08Zm9.83-13.78.42-.38c.11-.11.19-.19.29-.19a.574.574,0,0,1,.27.16l.66.56a.345.345,0,0,1,.13.26c0,.14-.24.35-.46.5-.02.27-.02.5-.02.8,0,.5.06,3.01.06,3.14,0,.58-.59.64-.75.64-.42,0-.4-.26-.4-.69h-7.36a.668.668,0,0,1-.74.74c-.43,0-.45-.32-.45-.51,0-.5.11-2.72.11-3.17a13.32,13.32,0,0,0-.19-2.45l1.42.61h7.01Zm-7.19.38v1.71h3.23V62.92h-3.23Zm0,2.1v1.92h3.23V65.02Zm2.05,4.91s-.02,1.81-.02,2.05h2.98q-.02-1.52-.03-2.05H312.2Zm2.26-7.01v1.71h3.09V62.92Zm0,2.1v1.92h3.09V65.02Zm.83,7.89a8.628,8.628,0,0,1,2.98.98c1.07.69,1.42,1.42,1.42,1.75a.635.635,0,0,1-.64.7c-.34,0-.35-.05-1.31-1.25a9.368,9.368,0,0,0-2.48-2.08Z"/>
  <path id="パス_72" data-name="パス 72" d="M330.49,65.15a28.508,28.508,0,0,1-3.31.91c-.42.83-2.16,4.55-2.58,5.27-.37.62-.7,1.22-1.02,1.22-.11,0-.45-.06-.45-.61a1.548,1.548,0,0,1,.38-.96,27.7,27.7,0,0,0,2.66-4.67,5.975,5.975,0,0,1-1.44.21c-.94,0-1.75-.5-1.62-1.46a1.678,1.678,0,0,0,1.55.64,8.486,8.486,0,0,0,1.87-.26,8.527,8.527,0,0,0,.67-2.03c0-.18-.1-.56-.94-.78a1.1,1.1,0,0,1,.78-.32c.62,0,1.6.67,1.6,1.09a2.092,2.092,0,0,1-.4.74,8.5,8.5,0,0,0-.59,1.01c.32-.11.86-.3,1.2-.46.7-.32.78-.37.98-.37s.91.22.91.53a.376.376,0,0,1-.26.32Zm4,3.98a1.14,1.14,0,0,1-.56-.18,2.283,2.283,0,0,0-1.36-.4c-1.68,0-1.92.91-1.92,1.67a12.866,12.866,0,0,0,.27,2.32c1.28.27,3.04.94,3.04,1.98a.5.5,0,0,1-.45.53,4.781,4.781,0,0,1-1.23-.74,4.3,4.3,0,0,0-1.25-.67,2.073,2.073,0,0,1-.61,1.52,2.922,2.922,0,0,1-1.94.67c-1.33,0-2.48-.72-2.48-1.71,0-1.2,1.46-1.78,3.01-1.78.35,0,.59.03.83.05-.05-.56-.11-1.31-.11-1.68,0-1.76,1.7-2.45,2.8-2.66.13-.03.27-.06.27-.26s-.58-.8-2.19-1.22a3,3,0,0,1,1.02-.16c1.98,0,3.27,1.49,3.27,2.24a.406.406,0,0,1-.42.46Zm-5.78,3.99c-.61,0-2.1.13-2.1.99,0,.67,1.02.85,1.57.85a1.527,1.527,0,0,0,1.73-1.68,3.8,3.8,0,0,0-1.2-.16Z"/>
  <path id="パス_73" data-name="パス 73" d="M341.47,75.09a6.379,6.379,0,0,1-2.27,1.41l-.03-.08c2.77-2,3.59-5.09,3.59-7.96,0-1.06-.06-3.97-1.26-3.97-.64,0-1.09.66-1.23.86a11.385,11.385,0,0,0-1.7,5.3c0,.18.11.99.11,1.15,0,.18-.06.45-.38.45-.94,0-1.23-1.87-1.23-3.31a34.751,34.751,0,0,1,.56-4.63,3.511,3.511,0,0,0,.06-.61,1.683,1.683,0,0,0-.93-1.46,3.214,3.214,0,0,1,.72-.11,1.385,1.385,0,0,1,1.41,1.15,2.028,2.028,0,0,1-.19.71,11.413,11.413,0,0,0-.9,4.29c0,.24,0,1.15.16,1.15.1,0,.13-.08.14-.16.37-1.31,1.74-5.41,3.63-5.41,2,0,2.21,3.14,2.21,4.74,0,2.95-.67,4.85-2.46,6.48Z"/>
  <path id="パス_74" data-name="パス 74" d="M355.85,65.12a21.981,21.981,0,0,1-3.62.8c-.05.62-.06,1.66-.05,2.32.32-.08,1.71-.54,2-.64a1.04,1.04,0,0,1,.29-.05c.29,0,.91.18.91.58,0,.24-.18.32-.34.38-.19.08-1.46.38-2.85.64a19.144,19.144,0,0,0,.35,3.49c1.5.27,3.36,1.14,3.36,2a.539.539,0,0,1-.5.59c-.19,0-.24-.03-.78-.42a9.176,9.176,0,0,0-2.02-1.07c-.11,1.5-1.23,2.05-2.74,2.05-1.65,0-2.79-.86-2.79-1.7,0-1.3,1.89-1.7,3.47-1.7a7.75,7.75,0,0,1,.93.05,29.652,29.652,0,0,1-.21-3.15,21.442,21.442,0,0,1-2.27.14c-.9,0-1.65-.16-1.65-.77a1.116,1.116,0,0,1,1.04-.9.967.967,0,0,0-.27.56c0,.27.32.29.82.29a15.632,15.632,0,0,0,2.32-.19c0-.8,0-1.09.05-2.38a21.622,21.622,0,0,1-2.87.22c-1.33,0-1.97-.38-2.37-1.26a4.915,4.915,0,0,0,2.22.46,24.551,24.551,0,0,0,3.04-.32c0-.22.03-1.25.03-1.36,0-.72-.16-.9-1.23-1.3a1.183,1.183,0,0,1,.94-.37c.75,0,1.66.51,1.66,1.04a2.39,2.39,0,0,1-.22.85,4.24,4.24,0,0,0-.19.93c.74-.18,1.66-.5,2.5-.78a1.134,1.134,0,0,1,.32-.06c.32,0,.98.29.98.64a.391.391,0,0,1-.29.38Zm-5.95,8.1c-1.18,0-2.24.32-2.24.93,0,.32.5.77,1.76.77a3.12,3.12,0,0,0,1.57-.38,1.182,1.182,0,0,0,.51-1.12,4.357,4.357,0,0,0-1.6-.19Z"/>
  <path id="パス_75" data-name="パス 75" d="M371.42,66.24c-.53,0-1.38-.19-1.9-.24-.59-.05-1.1-.06-1.5-.06-.67,0-1.42.05-1.92.08-.02.5-.02.87-.02,1.28s.02.7.03.99a4.733,4.733,0,0,1,.69,2.53c0,2.42-1.55,4.67-4.5,5.71l-.06-.11a6.733,6.733,0,0,0,3.25-4.56,1.792,1.792,0,0,1-1.06.53,2.332,2.332,0,0,1-1.81-2.43,2.155,2.155,0,0,1,1.87-2.32,3.013,3.013,0,0,1,.93.19c0-.08-.03-1.15-.03-1.73a16.742,16.742,0,0,0-5.22,1.31c-.46.24-.51.27-.66.27-.54,0-1.31-.99-1.31-1.65a.874.874,0,0,1,.13-.45,1.471,1.471,0,0,0,1.17.75c.18,0,1.44-.22,2.16-.34,1.5-.26,2.69-.43,3.71-.53-.11-2.56-.11-2.61-1.44-3.11a1.471,1.471,0,0,1,.93-.37c.42,0,1.62.43,1.62.95,0,.05-.11.51-.14.62a16.746,16.746,0,0,0-.21,1.83c.37-.03,4.48-.4,4.5-.4.54,0,1.31.37,1.31.82,0,.35-.34.43-.51.43Zm-7.17,2.1a1.34,1.34,0,0,0-1.07,1.46,1.592,1.592,0,0,0,1.3,1.65c.53,0,.96-.58.96-1.5,0-.38-.06-1.6-1.18-1.6Z"/>
  <path id="パス_76" data-name="パス 76" d="M376.33,75.91a2.36,2.36,0,1,1,2.32-2.37A2.322,2.322,0,0,1,376.33,75.91Zm0-4.26a1.9,1.9,0,1,0,1.86,1.9A1.891,1.891,0,0,0,376.33,71.65Z"/>
</svg>
