<svg id="area02-01-sp" xmlns="http://www.w3.org/2000/svg" width="750.5" height="70.771" viewBox="0 0 750.5 70.771">
  <line id="線_12" data-name="線 12" x2="750.5" transform="translate(0 68.271)" fill="none" stroke="#bba579" stroke-miterlimit="10" stroke-width="2"/>
  <path id="パス_127" data-name="パス 127" d="M25.913-22.5a30.954,30.954,0,0,1-5.862-.651,36.441,36.441,0,0,1-5.862-1.611,5.385,5.385,0,0,0-1.714-.274,3.842,3.842,0,0,0-1.886.514A13.98,13.98,0,0,0,8.223-22.7L5.069-36.071,5-36.483q0-.343.686-.617l.411-.069a.836.836,0,0,1,.754.549Q13.365-24.9,25.227-24.9a16.558,16.558,0,0,0,8.4-2.228Q37.5-29.352,37.5-34.769a8.822,8.822,0,0,0-1.371-4.7,10,10,0,0,0-3.977-3.6,31.132,31.132,0,0,0-4.114-1.783q-1.988-.686-4.868-1.577a48.1,48.1,0,0,1-6.034-2.057Q11.857-50.95,9.9-53.967a11.983,11.983,0,0,1-1.954-6.651,14.919,14.919,0,0,1,1.234-5.622,12.184,12.184,0,0,1,4.423-5.28q3.188-2.263,8.605-2.263a20.665,20.665,0,0,1,4.251.446A37.278,37.278,0,0,1,31.124-72a6.987,6.987,0,0,0,1.851.343,4.961,4.961,0,0,0,3.771-2.194L40.174-62.2l.069.48q0,.411-.549.617a2.176,2.176,0,0,1-.617.137.806.806,0,0,1-.686-.411,25.927,25.927,0,0,0-2.948-3.7,23.581,23.581,0,0,0-5.691-4.388A15.627,15.627,0,0,0,21.8-71.52q-4.251,0-6.445,1.954a9.034,9.034,0,0,0-2.811,3.977,11.568,11.568,0,0,0-.617,3.051q0,4.868,5.828,7.817a56.932,56.932,0,0,0,7.679,2.743q3.017.891,5.177,1.646a35.844,35.844,0,0,1,4.217,1.783Q42.78-44.437,42.78-35.8a11.914,11.914,0,0,1-2.023,6.788,13.641,13.641,0,0,1-5.862,4.765A21.5,21.5,0,0,1,25.913-22.5ZM110.8-25.307a.335.335,0,0,1,.343.309,3,3,0,0,1,.069.651q0,.96-.411.96H91.325a.376.376,0,0,1-.377-.24,1.92,1.92,0,0,1-.1-.72,1.92,1.92,0,0,1,.1-.72.376.376,0,0,1,.377-.24A11.866,11.866,0,0,0,95.85-26.1a2.848,2.848,0,0,0,1.92-2.845,4.579,4.579,0,0,0-.274-1.577L93.725-41.351H74.8l-3.085,8.776a9.081,9.081,0,0,0-.617,3.017q0,4.251,6.514,4.251a.335.335,0,0,1,.343.309,3,3,0,0,1,.069.651q0,.96-.411.96H60.744a.376.376,0,0,1-.377-.24,1.92,1.92,0,0,1-.1-.72,1.92,1.92,0,0,1,.1-.72.376.376,0,0,1,.377-.24,7.053,7.053,0,0,0,4.045-1.44,10.11,10.11,0,0,0,3.36-4.731L83.988-73.44l3.085-.96a1.155,1.155,0,0,1,.651.206.831.831,0,0,1,.377.48l2.331,6.788q2.331,6.651,7.028,20.159t5.52,15.565Q105.175-25.307,110.8-25.307ZM92.833-43.957l-8.3-24q-4.114,11.039-8.776,24Zm87.559,18.581a.376.376,0,0,1,.377.24,1.92,1.92,0,0,1,.1.72q0,1.028-.48,1.028h-20.5q-.48,0-.48-1.028,0-.96.48-.96,5.554,0,5.554-2.057a3.85,3.85,0,0,0-1.029-2.126L148.509-48.413l-5.9,5.828v12.959a3.722,3.722,0,0,0,1.371,3.325,8.2,8.2,0,0,0,4.457.926h1.166q.48,0,.48.96,0,1.028-.48,1.028H130.133q-.48,0-.48-1.028a1.92,1.92,0,0,1,.1-.72.376.376,0,0,1,.377-.24h1.028a8.119,8.119,0,0,0,4.525-.96,3.735,3.735,0,0,0,1.371-3.291v-37.3q0-2.468-1.406-3.394a8.39,8.39,0,0,0-4.491-.926h-1.028q-.48,0-.48-.96t.48-.96h19.473a.432.432,0,0,1,.446.24,1.92,1.92,0,0,1,.1.72q0,.96-.549.96h-1.166a7.937,7.937,0,0,0-4.491.96,3.861,3.861,0,0,0-1.337,3.36v20.776q11.108-10.971,17.9-17.9l2.4-2.4a3.382,3.382,0,0,0,1.028-2.126,2.215,2.215,0,0,0-1.234-1.92,6.735,6.735,0,0,0-3.5-.754q-.48,0-.48-.96t.48-.96h17.759a.432.432,0,0,1,.446.24,1.92,1.92,0,0,1,.1.72q0,.96-.549.96-4.731,0-9.462,4.388-1.577,1.44-14.947,14.536l6.171,7.337q10.765,12.89,11.793,14.056a19.748,19.748,0,0,0,4.8,4.388A10.159,10.159,0,0,0,180.392-25.375Zm65.755.069a.335.335,0,0,1,.343.309,3,3,0,0,1,.069.651q0,.96-.411.96H226.675a.376.376,0,0,1-.377-.24,1.92,1.92,0,0,1-.1-.72,1.92,1.92,0,0,1,.1-.72.376.376,0,0,1,.377-.24A11.866,11.866,0,0,0,231.2-26.1a2.848,2.848,0,0,0,1.92-2.845,4.578,4.578,0,0,0-.274-1.577l-3.771-10.833H210.15l-3.085,8.776a9.08,9.08,0,0,0-.617,3.017q0,4.251,6.514,4.251A.335.335,0,0,1,213.3-25a3,3,0,0,1,.069.651q0,.96-.411.96H196.094a.376.376,0,0,1-.377-.24,1.92,1.92,0,0,1-.1-.72,1.92,1.92,0,0,1,.1-.72.376.376,0,0,1,.377-.24,7.053,7.053,0,0,0,4.045-1.44,10.11,10.11,0,0,0,3.36-4.731L219.338-73.44l3.085-.96a1.155,1.155,0,0,1,.651.206.831.831,0,0,1,.377.48l2.331,6.788q2.331,6.651,7.028,20.159t5.52,15.565Q240.525-25.307,246.148-25.307Zm-17.964-18.65-8.3-24q-4.114,11.039-8.776,24Zm78.92,8.434a.807.807,0,0,1,.617.823,4.818,4.818,0,0,1-.343,1.1q-1.851,4.663-3.84,10.216H265.483q-.48,0-.48-.96t.48-.96h1.1a7.916,7.916,0,0,0,4.491-.994,3.789,3.789,0,0,0,1.406-3.325v-37.3A3.7,3.7,0,0,0,271-70.286a8.2,8.2,0,0,0-4.423-.96h-1.1q-.48,0-.48-.96t.48-.96h35.929q1.166,2.057,2.434,4.32t1.817,3.428a.763.763,0,0,1,.069.343q0,.343-.549.686a.975.975,0,0,1-.549.137.93.93,0,0,1-.686-.274,22.658,22.658,0,0,0-7.337-4.834,23.8,23.8,0,0,0-9.325-1.817h-1.714a29.383,29.383,0,0,0-4.32.24,4.225,4.225,0,0,0-2.4,1.131,3.95,3.95,0,0,0-.891,2.88v16.593h6.171q4.183,0,5.485-.069a5.835,5.835,0,0,0,4.491-1.92,6.846,6.846,0,0,0,1.611-4.663q0-.48.891-.48a1.92,1.92,0,0,1,.72.1.376.376,0,0,1,.24.377v15.7q0,.549-.96.549-.891,0-.891-.549a6.846,6.846,0,0,0-1.611-4.663,5.835,5.835,0,0,0-4.491-1.92q-1.3-.069-5.485-.069h-6.171v18.307A3.483,3.483,0,0,0,279.4-26.4a9.529,9.529,0,0,0,4.457,1.028q.891.069,3.085.069,1.646,0,2.4-.069a20.687,20.687,0,0,0,7.268-1.783,18.672,18.672,0,0,0,4.971-3.325,51.085,51.085,0,0,0,4.354-4.9.652.652,0,0,1,.548-.274A2.176,2.176,0,0,1,307.1-35.523Zm61.847,6.651q.549,0,.549.48l-.069.411a7.513,7.513,0,0,1-3.085,4.183,7.638,7.638,0,0,1-3.908,1.234,4.714,4.714,0,0,1-3.428-1.337,7.262,7.262,0,0,1-1.92-3.531A16.533,16.533,0,0,1,351.4-23.7a17.485,17.485,0,0,1-6.445,1.268,10.315,10.315,0,0,1-6.411-1.851,6.027,6.027,0,0,1-2.434-5.074,8.451,8.451,0,0,1,1.1-4.388,9.654,9.654,0,0,1,3.565-3.291,20.9,20.9,0,0,1,3.977-1.646q2.4-.754,6.582-1.851l5.622-1.577v-2.948a25.044,25.044,0,0,0-.343-4.868,6.477,6.477,0,0,0-1.371-2.811q-1.508-1.851-5.142-1.851a5.385,5.385,0,0,0-3.84,1.234,9.441,9.441,0,0,0-2.194,3.771q-1.166,3.291-3.36,3.291a3.5,3.5,0,0,1-2.228-.789,2.536,2.536,0,0,1-.994-2.091,6.738,6.738,0,0,1,.926-3.051,8.5,8.5,0,0,1,3.771-3.223q2.846-1.474,8.125-1.474a16.26,16.26,0,0,1,5.862,1.063,8.568,8.568,0,0,1,3.943,2.64,8.659,8.659,0,0,1,1.406,2.983,15.611,15.611,0,0,1,.377,3.668q0,3.223-.069,5.691l-.069,9.942q0,2.811,1.063,3.771a3.167,3.167,0,0,0,2.091.96,3.748,3.748,0,0,0,1.886-.583,4.764,4.764,0,0,0,1.68-1.748A.578.578,0,0,1,368.95-28.872Zm-21.53,3.154a12.08,12.08,0,0,0,4.937-1.131,12.522,12.522,0,0,0,4.388-3.257v-.206l.137-9.256q-5.28,1.3-8.468,2.434a14.329,14.329,0,0,0-4.971,2.777,5.291,5.291,0,0,0-1.783,4.045A4.432,4.432,0,0,0,343-27.055Q344.334-25.718,347.42-25.718Zm61.092-31.2a5.725,5.725,0,0,1,3.5,1.063,3.236,3.236,0,0,1,1.44,2.708,2.656,2.656,0,0,1-.857,1.988,2.994,2.994,0,0,1-2.16.823,5.163,5.163,0,0,1-2.605-1.028q-1.029-.549-1.646-.823a3.34,3.34,0,0,0-1.371-.274,6.267,6.267,0,0,0-3.565,1.371,20.6,20.6,0,0,0-3.84,3.7l-.069,19.336a2.229,2.229,0,0,0,1.2,2.263,7.966,7.966,0,0,0,3.257.549h.891q.549,0,.549.96,0,.891-.549.891H387.325q-.48,0-.48-.891,0-.96.48-.96h.891a7.761,7.761,0,0,0,3.188-.549,2.229,2.229,0,0,0,1.2-2.263L392.4-49.168a3,3,0,0,0-.651-2.126,2.81,2.81,0,0,0-1.508-.857q-.857-.171-2.983-.446a.594.594,0,0,1-.514-.343,2.483,2.483,0,0,1-.1-.823.589.589,0,0,1,.343-.617q1.028-.411,10.422-2.606v6.719a27.963,27.963,0,0,1,5.52-4.765A10.337,10.337,0,0,1,408.512-56.916ZM460.9-32.095a.62.62,0,0,1,.343.549,1.617,1.617,0,0,1-.206.686,14.718,14.718,0,0,1-4.765,5.9,13.565,13.565,0,0,1-8.468,2.537,17.614,17.614,0,0,1-8.4-2.023,14.929,14.929,0,0,1-6-5.794,17.135,17.135,0,0,1-2.194-8.776,21.174,21.174,0,0,1,1.783-8.5A16.693,16.693,0,0,1,438.3-54.31a13.73,13.73,0,0,1,8.536-2.674,13.015,13.015,0,0,1,9.8,3.908q3.771,3.908,4.525,10.7l-24.2.137q-.137,1.646-.137,2.537a16.435,16.435,0,0,0,1.68,7.851,10.953,10.953,0,0,0,4.388,4.594,12.2,12.2,0,0,0,5.931,1.474q6.582,0,10.833-6.171a.762.762,0,0,1,.617-.411A1.32,1.32,0,0,1,460.9-32.095ZM446.43-54.516a7.684,7.684,0,0,0-5.725,2.537,14.218,14.218,0,0,0-3.394,7.062l17.279-.137v-.686q-.206-4.525-2.5-6.651A8.017,8.017,0,0,0,446.43-54.516ZM515-28.872q.549,0,.549.48l-.069.411A7.513,7.513,0,0,1,512.39-23.8a7.637,7.637,0,0,1-3.908,1.234,4.714,4.714,0,0,1-3.428-1.337,7.262,7.262,0,0,1-1.92-3.531,16.532,16.532,0,0,1-5.691,3.737A17.484,17.484,0,0,1,491-22.427a10.315,10.315,0,0,1-6.411-1.851,6.027,6.027,0,0,1-2.434-5.074,8.451,8.451,0,0,1,1.1-4.388,9.654,9.654,0,0,1,3.565-3.291,20.9,20.9,0,0,1,3.977-1.646q2.4-.754,6.582-1.851L503-42.105v-2.948a25.05,25.05,0,0,0-.343-4.868,6.477,6.477,0,0,0-1.371-2.811q-1.508-1.851-5.142-1.851a5.385,5.385,0,0,0-3.84,1.234,9.441,9.441,0,0,0-2.194,3.771q-1.166,3.291-3.36,3.291a3.5,3.5,0,0,1-2.228-.789,2.536,2.536,0,0,1-.994-2.091,6.738,6.738,0,0,1,.926-3.051,8.5,8.5,0,0,1,3.771-3.223q2.846-1.474,8.125-1.474a16.26,16.26,0,0,1,5.862,1.063,8.568,8.568,0,0,1,3.943,2.64,8.659,8.659,0,0,1,1.406,2.983,15.613,15.613,0,0,1,.377,3.668q0,3.223-.069,5.691l-.069,9.942q0,2.811,1.063,3.771a3.167,3.167,0,0,0,2.091.96,3.749,3.749,0,0,0,1.886-.583,4.764,4.764,0,0,0,1.68-1.748A.579.579,0,0,1,515-28.872Zm-21.53,3.154a12.08,12.08,0,0,0,4.937-1.131,12.522,12.522,0,0,0,4.388-3.257v-.206l.137-9.256q-5.28,1.3-8.468,2.434a14.328,14.328,0,0,0-4.971,2.777,5.291,5.291,0,0,0-1.783,4.045,4.432,4.432,0,0,0,1.337,3.257Q490.381-25.718,493.466-25.718Z" transform="translate(15 74.4)" fill="#bba579"/>
  <line id="線_15" data-name="線 15" x2="510.5" transform="translate(20 68.271)" fill="none" stroke="#bba579" stroke-miterlimit="10" stroke-width="5"/>
</svg>
