<svg id="area03-01-sp" xmlns="http://www.w3.org/2000/svg" width="750.5" height="70.275" viewBox="0 0 750.5 70.275">
  <line id="線_13" data-name="線 13" x2="750.5" transform="translate(0 68.135)" fill="none" stroke="#bba579" stroke-miterlimit="10" stroke-width="2"/>
  <path id="パス_126" data-name="パス 126" d="M56.239-25.375a.376.376,0,0,1,.377.24,1.92,1.92,0,0,1,.1.72q0,1.028-.48,1.028h-20.5q-.48,0-.48-1.028,0-.96.48-.96,5.554,0,5.554-2.057a3.85,3.85,0,0,0-1.028-2.126L24.356-48.413l-5.9,5.828v12.959A3.722,3.722,0,0,0,19.83-26.3a8.2,8.2,0,0,0,4.457.926h1.166q.48,0,.48.96,0,1.028-.48,1.028H5.98q-.48,0-.48-1.028a1.92,1.92,0,0,1,.1-.72.376.376,0,0,1,.377-.24H7.008a8.12,8.12,0,0,0,4.525-.96,3.735,3.735,0,0,0,1.371-3.291v-37.3q0-2.468-1.406-3.394a8.39,8.39,0,0,0-4.491-.926H5.98q-.48,0-.48-.96t.48-.96H25.453a.432.432,0,0,1,.446.24,1.92,1.92,0,0,1,.1.72q0,.96-.549.96H24.287a7.937,7.937,0,0,0-4.491.96,3.861,3.861,0,0,0-1.337,3.36v20.776q11.108-10.971,17.9-17.9l2.4-2.4a3.382,3.382,0,0,0,1.028-2.126,2.215,2.215,0,0,0-1.234-1.92,6.735,6.735,0,0,0-3.5-.754q-.48,0-.48-.96t.48-.96H52.811a.432.432,0,0,1,.446.24,1.92,1.92,0,0,1,.1.72q0,.96-.549.96-4.731,0-9.462,4.388Q41.772-65.418,28.4-52.322l6.171,7.337q10.765,12.89,11.793,14.056a19.748,19.748,0,0,0,4.8,4.388A10.159,10.159,0,0,0,56.239-25.375Zm58.9.069a.335.335,0,0,1,.343.309,3,3,0,0,1,.069.651q0,.96-.411.96H95.665a.376.376,0,0,1-.377-.24,1.92,1.92,0,0,1-.1-.72,1.92,1.92,0,0,1,.1-.72.376.376,0,0,1,.377-.24,11.866,11.866,0,0,0,4.525-.789,2.848,2.848,0,0,0,1.92-2.845,4.579,4.579,0,0,0-.274-1.577L98.064-41.351H79.14l-3.085,8.776a9.081,9.081,0,0,0-.617,3.017q0,4.251,6.514,4.251a.335.335,0,0,1,.343.309,3,3,0,0,1,.069.651q0,.96-.411.96H65.084a.376.376,0,0,1-.377-.24,1.92,1.92,0,0,1-.1-.72,1.92,1.92,0,0,1,.1-.72.376.376,0,0,1,.377-.24,7.053,7.053,0,0,0,4.045-1.44,10.11,10.11,0,0,0,3.36-4.731L88.328-73.44l3.085-.96a1.155,1.155,0,0,1,.651.206.831.831,0,0,1,.377.48l2.331,6.788Q97.1-60.275,101.8-46.768t5.52,15.565Q109.515-25.307,115.137-25.307ZM97.173-43.957l-8.3-24q-4.114,11.039-8.776,24Zm29.963,20.57q-.411,0-.411-1.028,0-.891.411-.891h1.1a5.982,5.982,0,0,0,4.011-1.577,4.971,4.971,0,0,0,1.817-3.908v-36.2a3.735,3.735,0,0,0-1.371-3.291,7.96,7.96,0,0,0-4.457-.96h-1.1q-.48,0-.48-.96t.48-.96h12.136l27.5,38.809v-31.4a4.609,4.609,0,0,0-.926-2.777,6.532,6.532,0,0,0-2.331-1.988,5.935,5.935,0,0,0-2.708-.72h-1.029a.432.432,0,0,1-.446-.24,1.92,1.92,0,0,1-.1-.72q0-.96.549-.96h16.593a.432.432,0,0,1,.446.24,1.92,1.92,0,0,1,.1.72q0,.96-.549.96h-1.1a5.912,5.912,0,0,0-4.011,1.611,5,5,0,0,0-1.817,3.874v42.374H167.8L136.8-67.612v36.82a4.867,4.867,0,0,0,1.92,3.908,6.287,6.287,0,0,0,4.045,1.577h1.1q.48,0,.48.891,0,1.028-.48,1.028Zm110.529-1.92a.335.335,0,0,1,.343.309,3,3,0,0,1,.069.651q0,.96-.411.96H218.193a.376.376,0,0,1-.377-.24,1.92,1.92,0,0,1-.1-.72,1.92,1.92,0,0,1,.1-.72.376.376,0,0,1,.377-.24,11.866,11.866,0,0,0,4.525-.789,2.848,2.848,0,0,0,1.92-2.845,4.579,4.579,0,0,0-.274-1.577l-3.771-10.833H201.668l-3.085,8.776a9.081,9.081,0,0,0-.617,3.017q0,4.251,6.514,4.251a.335.335,0,0,1,.343.309,3,3,0,0,1,.069.651q0,.96-.411.96H187.612a.376.376,0,0,1-.377-.24,1.92,1.92,0,0,1-.1-.72,1.92,1.92,0,0,1,.1-.72.376.376,0,0,1,.377-.24,7.053,7.053,0,0,0,4.045-1.44,10.11,10.11,0,0,0,3.36-4.731L210.856-73.44l3.085-.96a1.155,1.155,0,0,1,.651.206.831.831,0,0,1,.377.48l2.331,6.788q2.331,6.651,7.028,20.159t5.52,15.565Q232.043-25.307,237.665-25.307ZM219.7-43.957l-8.3-24q-4.114,11.039-8.776,24Zm42.58,20.57q-.549,0-.549-.96t.549-.96h1.029a7.705,7.705,0,0,0,4.491-1.028,3.8,3.8,0,0,0,1.406-3.291V-40.117L255.15-66.995q-2.263-4.251-5.828-4.251h-1.1q-.48,0-.48-.96t.48-.96h18.719a.432.432,0,0,1,.446.24,1.92,1.92,0,0,1,.1.72q0,.96-.549.96h-1.1q-5.348,0-5.348,2.468a4.337,4.337,0,0,0,.549,1.851q.891,1.851,12.273,22.764,9.256-17.347,11.245-21.393a5.24,5.24,0,0,0,.549-1.988,3,3,0,0,0-1.714-2.743,6.64,6.64,0,0,0-3.223-.96h-1.166q-.48,0-.48-.96t.48-.96h17.142a.432.432,0,0,1,.446.24,1.92,1.92,0,0,1,.1.72q0,.96-.549.96h-1.028a6.777,6.777,0,0,0-3.874,1.508,11.8,11.8,0,0,0-3.463,4.045L274.76-41.557v11.931a3.7,3.7,0,0,0,1.474,3.36,8.2,8.2,0,0,0,4.423.96h1.029q.549,0,.549.96t-.549.96Zm93.044-1.92a.335.335,0,0,1,.343.309,3,3,0,0,1,.069.651q0,.96-.411.96H335.852a.376.376,0,0,1-.377-.24,1.92,1.92,0,0,1-.1-.72,1.92,1.92,0,0,1,.1-.72.376.376,0,0,1,.377-.24,11.866,11.866,0,0,0,4.525-.789,2.848,2.848,0,0,0,1.92-2.845,4.579,4.579,0,0,0-.274-1.577l-3.771-10.833H319.328l-3.085,8.776a9.081,9.081,0,0,0-.617,3.017q0,4.251,6.514,4.251a.335.335,0,0,1,.343.309,3,3,0,0,1,.069.651q0,.96-.411.96H305.272a.376.376,0,0,1-.377-.24,1.92,1.92,0,0,1-.1-.72,1.92,1.92,0,0,1,.1-.72.376.376,0,0,1,.377-.24,7.053,7.053,0,0,0,4.045-1.44,10.109,10.109,0,0,0,3.36-4.731L328.516-73.44l3.085-.96a1.155,1.155,0,0,1,.651.206.831.831,0,0,1,.377.48l2.331,6.788q2.331,6.651,7.028,20.159t5.52,15.565Q349.7-25.307,355.325-25.307Zm-17.964-18.65-8.3-24q-4.114,11.039-8.776,24Zm30.718,20.57q-.549,0-.549-1.028,0-.891.549-.891h.96a6.192,6.192,0,0,0,4.114-1.577A4.934,4.934,0,0,0,375-30.792v-36.2A3.683,3.683,0,0,0,373.6-70.32a8.557,8.557,0,0,0-4.56-.926h-.96q-.48,0-.48-.96t.48-.96H380.9l17,40.523,17.827-40.523h12.2a.432.432,0,0,1,.446.24,1.919,1.919,0,0,1,.1.72q0,.96-.549.96h-1.029q-3.223,0-4.525.96a3.824,3.824,0,0,0-1.3,3.291v37.369a3.817,3.817,0,0,0,1.371,3.36,7.96,7.96,0,0,0,4.457.96h1.029q.48,0,.48.891,0,1.028-.48,1.028H408.67q-.411,0-.411-1.028,0-.891.411-.891h1.166a7.893,7.893,0,0,0,4.525-.994,3.83,3.83,0,0,0,1.371-3.325V-66.721L396.876-23.387h-.823l-18.376-43.4v36a4.867,4.867,0,0,0,1.92,3.908,6.208,6.208,0,0,0,3.977,1.577h1.1q.411,0,.411.891,0,1.028-.411,1.028Zm122.665-1.92a.335.335,0,0,1,.343.309,3,3,0,0,1,.069.651q0,.96-.411.96H471.271a.376.376,0,0,1-.377-.24,1.919,1.919,0,0,1-.1-.72,1.919,1.919,0,0,1,.1-.72.376.376,0,0,1,.377-.24A11.867,11.867,0,0,0,475.8-26.1a2.848,2.848,0,0,0,1.92-2.845,4.579,4.579,0,0,0-.274-1.577L473.67-41.351H454.746l-3.085,8.776a9.08,9.08,0,0,0-.617,3.017q0,4.251,6.514,4.251A.335.335,0,0,1,457.9-25a2.992,2.992,0,0,1,.069.651q0,.96-.411.96H440.69a.376.376,0,0,1-.377-.24,1.92,1.92,0,0,1-.1-.72,1.92,1.92,0,0,1,.1-.72.376.376,0,0,1,.377-.24,7.053,7.053,0,0,0,4.045-1.44,10.11,10.11,0,0,0,3.36-4.731L463.934-73.44l3.085-.96a1.155,1.155,0,0,1,.651.206.83.83,0,0,1,.377.48l2.331,6.788q2.331,6.651,7.028,20.159t5.52,15.565Q485.121-25.307,490.743-25.307Zm-17.964-18.65-8.3-24q-4.114,11.039-8.776,24Zm87.148,15.085q.549,0,.549.48l-.069.411a7.513,7.513,0,0,1-3.086,4.183,7.637,7.637,0,0,1-3.908,1.234,4.715,4.715,0,0,1-3.428-1.337,7.262,7.262,0,0,1-1.92-3.531,16.533,16.533,0,0,1-5.691,3.737,17.485,17.485,0,0,1-6.445,1.268,10.315,10.315,0,0,1-6.411-1.851,6.027,6.027,0,0,1-2.434-5.074,8.451,8.451,0,0,1,1.1-4.388,9.654,9.654,0,0,1,3.565-3.291,20.9,20.9,0,0,1,3.977-1.646q2.4-.754,6.582-1.851l5.622-1.577v-2.948a25.051,25.051,0,0,0-.343-4.868,6.478,6.478,0,0,0-1.371-2.811q-1.508-1.851-5.142-1.851a5.385,5.385,0,0,0-3.84,1.234,9.441,9.441,0,0,0-2.194,3.771q-1.166,3.291-3.36,3.291a3.5,3.5,0,0,1-2.228-.789,2.536,2.536,0,0,1-.994-2.091,6.738,6.738,0,0,1,.926-3.051,8.5,8.5,0,0,1,3.771-3.223q2.846-1.474,8.125-1.474a16.26,16.26,0,0,1,5.862,1.063,8.568,8.568,0,0,1,3.943,2.64,8.659,8.659,0,0,1,1.406,2.983,15.611,15.611,0,0,1,.377,3.668q0,3.223-.069,5.691l-.069,9.942q0,2.811,1.063,3.771a3.167,3.167,0,0,0,2.091.96,3.748,3.748,0,0,0,1.886-.583,4.764,4.764,0,0,0,1.68-1.748A.578.578,0,0,1,559.927-28.872ZM538.4-25.718a12.08,12.08,0,0,0,4.937-1.131,12.522,12.522,0,0,0,4.388-3.257v-.206l.137-9.256q-5.28,1.3-8.468,2.434a14.33,14.33,0,0,0-4.971,2.777,5.291,5.291,0,0,0-1.783,4.045,4.432,4.432,0,0,0,1.337,3.257Q535.311-25.718,538.4-25.718Zm54.236-31.2a5.725,5.725,0,0,1,3.5,1.063,3.236,3.236,0,0,1,1.44,2.708,2.656,2.656,0,0,1-.857,1.988,2.993,2.993,0,0,1-2.16.823,5.163,5.163,0,0,1-2.605-1.028q-1.029-.549-1.646-.823a3.34,3.34,0,0,0-1.371-.274,6.267,6.267,0,0,0-3.566,1.371,20.6,20.6,0,0,0-3.84,3.7l-.069,19.336a2.229,2.229,0,0,0,1.2,2.263,7.966,7.966,0,0,0,3.257.549h.891q.548,0,.549.96,0,.891-.549.891H571.446q-.48,0-.48-.891,0-.96.48-.96h.891a7.761,7.761,0,0,0,3.188-.549,2.229,2.229,0,0,0,1.2-2.263l-.206-21.118a3,3,0,0,0-.651-2.126,2.81,2.81,0,0,0-1.508-.857q-.857-.171-2.983-.446a.594.594,0,0,1-.514-.343,2.482,2.482,0,0,1-.1-.823.589.589,0,0,1,.343-.617q1.028-.411,10.422-2.606v6.719a27.961,27.961,0,0,1,5.52-4.765A10.336,10.336,0,0,1,592.633-56.916Zm45.528,24.821a.62.62,0,0,1,.343.549,1.617,1.617,0,0,1-.206.686,14.718,14.718,0,0,1-4.765,5.9,13.564,13.564,0,0,1-8.468,2.537,17.613,17.613,0,0,1-8.4-2.023,14.93,14.93,0,0,1-6-5.794,17.136,17.136,0,0,1-2.194-8.776,21.175,21.175,0,0,1,1.783-8.5,16.694,16.694,0,0,1,5.314-6.788,13.73,13.73,0,0,1,8.537-2.674,13.014,13.014,0,0,1,9.8,3.908q3.771,3.908,4.525,10.7l-24.2.137q-.137,1.646-.137,2.537a16.434,16.434,0,0,0,1.68,7.851,10.953,10.953,0,0,0,4.388,4.594,12.2,12.2,0,0,0,5.931,1.474q6.582,0,10.833-6.171a.762.762,0,0,1,.617-.411A1.321,1.321,0,0,1,638.161-32.095ZM623.693-54.516a7.684,7.684,0,0,0-5.725,2.537,14.218,14.218,0,0,0-3.394,7.062l17.279-.137v-.686q-.206-4.525-2.5-6.651A8.017,8.017,0,0,0,623.693-54.516ZM685.4-28.872q.549,0,.549.48l-.069.411A7.513,7.513,0,0,1,682.8-23.8a7.637,7.637,0,0,1-3.908,1.234,4.714,4.714,0,0,1-3.428-1.337,7.261,7.261,0,0,1-1.92-3.531A16.532,16.532,0,0,1,667.85-23.7a17.484,17.484,0,0,1-6.445,1.268,10.315,10.315,0,0,1-6.411-1.851,6.027,6.027,0,0,1-2.434-5.074,8.452,8.452,0,0,1,1.1-4.388,9.654,9.654,0,0,1,3.565-3.291,20.9,20.9,0,0,1,3.977-1.646q2.4-.754,6.582-1.851l5.622-1.577v-2.948a25.051,25.051,0,0,0-.343-4.868,6.478,6.478,0,0,0-1.371-2.811q-1.508-1.851-5.143-1.851a5.385,5.385,0,0,0-3.84,1.234,9.441,9.441,0,0,0-2.194,3.771q-1.166,3.291-3.36,3.291a3.5,3.5,0,0,1-2.228-.789,2.536,2.536,0,0,1-.994-2.091,6.738,6.738,0,0,1,.926-3.051,8.5,8.5,0,0,1,3.771-3.223q2.846-1.474,8.125-1.474a16.26,16.26,0,0,1,5.862,1.063,8.568,8.568,0,0,1,3.943,2.64,8.66,8.66,0,0,1,1.406,2.983,15.611,15.611,0,0,1,.377,3.668q0,3.223-.069,5.691l-.069,9.942q0,2.811,1.063,3.771a3.167,3.167,0,0,0,2.091.96,3.749,3.749,0,0,0,1.886-.583,4.764,4.764,0,0,0,1.68-1.748A.578.578,0,0,1,685.4-28.872Zm-21.53,3.154a12.08,12.08,0,0,0,4.937-1.131,12.521,12.521,0,0,0,4.388-3.257v-.206l.137-9.256q-5.28,1.3-8.468,2.434a14.328,14.328,0,0,0-4.971,2.777,5.291,5.291,0,0,0-1.783,4.045,4.432,4.432,0,0,0,1.337,3.257Q660.788-25.718,663.873-25.718Z" transform="translate(14.5 74.4)" fill="#bba579"/>
  <line id="線_16" data-name="線 16" x2="680.5" transform="translate(20 67.775)" fill="none" stroke="#bba579" stroke-miterlimit="10" stroke-width="5"/>
</svg>
