<svg xmlns="http://www.w3.org/2000/svg" width="1605.84" height="102.07" viewBox="0 0 1605.84 102.07">
  <g id="area02-01" transform="translate(0 -13.6)">
    <line id="線_12" data-name="線 12" x2="1605.84" transform="translate(0 113.17)" fill="none" stroke="#bba579" stroke-miterlimit="10" stroke-width="2"/>
    <path id="パス_127" data-name="パス 127" d="M35.5,1.3A45.145,45.145,0,0,1,26.95.35,53.146,53.146,0,0,1,18.4-2a7.853,7.853,0,0,0-2.5-.4,5.6,5.6,0,0,0-2.75.75A20.389,20.389,0,0,0,9.7,1L5.1-18.5,5-19.1q0-.5,1-.9l.6-.1a1.22,1.22,0,0,1,1.1.8Q17.2-2.2,34.5-2.2A24.149,24.149,0,0,0,46.75-5.45Q52.4-8.7,52.4-16.6a12.867,12.867,0,0,0-2-6.85,14.588,14.588,0,0,0-5.8-5.25,45.4,45.4,0,0,0-6-2.6q-2.9-1-7.1-2.3a70.145,70.145,0,0,1-8.8-3q-7.7-3.6-10.55-8A17.476,17.476,0,0,1,9.3-54.3a21.759,21.759,0,0,1,1.8-8.2,17.77,17.77,0,0,1,6.45-7.7q4.65-3.3,12.55-3.3a30.137,30.137,0,0,1,6.2.65,54.366,54.366,0,0,1,6.8,1.95,10.191,10.191,0,0,0,2.7.5q2.9,0,5.5-3.2l5,17,.1.7q0,.6-.8.9a3.174,3.174,0,0,1-.9.2,1.175,1.175,0,0,1-1-.6,37.812,37.812,0,0,0-4.3-5.4,34.392,34.392,0,0,0-8.3-6.4,22.791,22.791,0,0,0-11.6-3q-6.2,0-9.4,2.85a13.176,13.176,0,0,0-4.1,5.8,16.871,16.871,0,0,0-.9,4.45q0,7.1,8.5,11.4a83.03,83.03,0,0,0,11.2,4q4.4,1.3,7.55,2.4a52.277,52.277,0,0,1,6.15,2.6q11.6,6,11.6,18.6a17.376,17.376,0,0,1-2.95,9.9A19.9,19.9,0,0,1,48.6-1.25,31.35,31.35,0,0,1,35.5,1.3ZM159.3-2.8a.489.489,0,0,1,.5.45,4.371,4.371,0,0,1,.1.95q0,1.4-.6,1.4H130.9a.548.548,0,0,1-.55-.35,2.8,2.8,0,0,1-.15-1.05,2.8,2.8,0,0,1,.15-1.05.548.548,0,0,1,.55-.35,17.307,17.307,0,0,0,6.6-1.15,4.154,4.154,0,0,0,2.8-4.15,6.678,6.678,0,0,0-.4-2.3l-5.5-15.8H106.8l-4.5,12.8a13.243,13.243,0,0,0-.9,4.4q0,6.2,9.5,6.2a.489.489,0,0,1,.5.45,4.37,4.37,0,0,1,.1.95q0,1.4-.6,1.4H86.3a.548.548,0,0,1-.55-.35A2.8,2.8,0,0,1,85.6-1.4a2.8,2.8,0,0,1,.15-1.05.548.548,0,0,1,.55-.35,10.287,10.287,0,0,0,5.9-2.1,14.744,14.744,0,0,0,4.9-6.9L120.2-73l4.5-1.4a1.685,1.685,0,0,1,.95.3,1.211,1.211,0,0,1,.55.7l3.4,9.9q3.4,9.7,10.25,29.4t8.05,22.7Q151.1-2.8,159.3-2.8ZM133.1-30,121-65q-6,16.1-12.8,35ZM260.8-2.9a.548.548,0,0,1,.55.35,2.8,2.8,0,0,1,.15,1.05q0,1.5-.7,1.5H230.9q-.7,0-.7-1.5,0-1.4.7-1.4,8.1,0,8.1-3A5.616,5.616,0,0,0,237.5-9L214.3-36.5,205.7-28V-9.1q0,3.5,2,4.85t6.5,1.35h1.7q.7,0,.7,1.4,0,1.5-.7,1.5H187.5q-.7,0-.7-1.5a2.8,2.8,0,0,1,.15-1.05.548.548,0,0,1,.55-.35H189q4.6,0,6.6-1.4t2-4.8V-63.5q0-3.6-2.05-4.95T189-69.8h-1.5q-.7,0-.7-1.4t.7-1.4h28.4a.63.63,0,0,1,.65.35,2.8,2.8,0,0,1,.15,1.05q0,1.4-.8,1.4h-1.7q-4.6,0-6.55,1.4t-1.95,4.9v30.3q16.2-16,26.1-26.1l3.5-3.5a4.933,4.933,0,0,0,1.5-3.1,3.23,3.23,0,0,0-1.8-2.8,9.823,9.823,0,0,0-5.1-1.1q-.7,0-.7-1.4t.7-1.4h25.9a.63.63,0,0,1,.65.35,2.8,2.8,0,0,1,.15,1.05q0,1.4-.8,1.4-6.9,0-13.8,6.4-2.3,2.1-21.8,21.2l9,10.7Q244.9-12.7,246.4-11a28.8,28.8,0,0,0,7,6.4,14.817,14.817,0,0,0,7.4,1.7Zm95.9.1a.489.489,0,0,1,.5.45,4.372,4.372,0,0,1,.1.95q0,1.4-.6,1.4H328.3a.548.548,0,0,1-.55-.35,2.8,2.8,0,0,1-.15-1.05,2.8,2.8,0,0,1,.15-1.05.548.548,0,0,1,.55-.35,17.306,17.306,0,0,0,6.6-1.15,4.154,4.154,0,0,0,2.8-4.15,6.677,6.677,0,0,0-.4-2.3l-5.5-15.8H304.2l-4.5,12.8a13.243,13.243,0,0,0-.9,4.4q0,6.2,9.5,6.2a.489.489,0,0,1,.5.45,4.368,4.368,0,0,1,.1.95q0,1.4-.6,1.4H283.7a.548.548,0,0,1-.55-.35A2.8,2.8,0,0,1,283-1.4a2.8,2.8,0,0,1,.15-1.05.548.548,0,0,1,.55-.35,10.287,10.287,0,0,0,5.9-2.1,14.744,14.744,0,0,0,4.9-6.9L317.6-73l4.5-1.4a1.685,1.685,0,0,1,.95.3,1.211,1.211,0,0,1,.55.7l3.4,9.9q3.4,9.7,10.25,29.4t8.05,22.7q3.2,8.6,11.4,8.6ZM330.5-30,318.4-65q-6,16.1-12.8,35ZM445.6-17.7a1.176,1.176,0,0,1,.9,1.2,7.028,7.028,0,0,1-.5,1.6Q443.3-8.1,440.4,0H384.9q-.7,0-.7-1.4t.7-1.4h1.6q4.5,0,6.55-1.45T395.1-9.1V-63.5q0-3.5-2.15-4.9t-6.45-1.4h-1.6q-.7,0-.7-1.4t.7-1.4h52.4q1.7,3,3.55,6.3t2.65,5a1.114,1.114,0,0,1,.1.5q0,.5-.8,1a1.422,1.422,0,0,1-.8.2,1.357,1.357,0,0,1-1-.4,33.045,33.045,0,0,0-10.7-7.05,34.716,34.716,0,0,0-13.6-2.65h-2.5a42.853,42.853,0,0,0-6.3.35,6.162,6.162,0,0,0-3.5,1.65,5.762,5.762,0,0,0-1.3,4.2v24.2h9q6.1,0,8-.1a8.51,8.51,0,0,0,6.55-2.8A9.984,9.984,0,0,0,429-49q0-.7,1.3-.7a2.8,2.8,0,0,1,1.05.15.548.548,0,0,1,.35.55v22.9q0,.8-1.4.8-1.3,0-1.3-.8a9.984,9.984,0,0,0-2.35-6.8,8.51,8.51,0,0,0-6.55-2.8q-1.9-.1-8-.1h-9V-9.1q0,3.4,2.1,4.7a13.9,13.9,0,0,0,6.5,1.5q1.3.1,4.5.1,2.4,0,3.5-.1a30.171,30.171,0,0,0,10.6-2.6,27.232,27.232,0,0,0,7.25-4.85,74.507,74.507,0,0,0,6.35-7.15.95.95,0,0,1,.8-.4,3.174,3.174,0,0,1,.9.2ZM535.8-8q.8,0,.8.7l-.1.6A10.957,10.957,0,0,1,532-.6a11.139,11.139,0,0,1-5.7,1.8,6.876,6.876,0,0,1-5-1.95,10.591,10.591,0,0,1-2.8-5.15,24.111,24.111,0,0,1-8.3,5.45,25.5,25.5,0,0,1-9.4,1.85,15.044,15.044,0,0,1-9.35-2.7,8.79,8.79,0,0,1-3.55-7.4,12.326,12.326,0,0,1,1.6-6.4,14.08,14.08,0,0,1,5.2-4.8,30.484,30.484,0,0,1,5.8-2.4q3.5-1.1,9.6-2.7l8.2-2.3v-4.3a36.526,36.526,0,0,0-.5-7.1,9.446,9.446,0,0,0-2-4.1q-2.2-2.7-7.5-2.7a7.854,7.854,0,0,0-5.6,1.8,13.769,13.769,0,0,0-3.2,5.5q-1.7,4.8-4.9,4.8a5.1,5.1,0,0,1-3.25-1.15,3.7,3.7,0,0,1-1.45-3.05,9.826,9.826,0,0,1,1.35-4.45q1.35-2.55,5.5-4.7T508.6-48.9a23.714,23.714,0,0,1,8.55,1.55,12.5,12.5,0,0,1,5.75,3.85,12.628,12.628,0,0,1,2.05,4.35,22.768,22.768,0,0,1,.55,5.35q0,4.7-.1,8.3L525.3-11q0,4.1,1.55,5.5a4.619,4.619,0,0,0,3.05,1.4,5.467,5.467,0,0,0,2.75-.85A6.948,6.948,0,0,0,535.1-7.5a.844.844,0,0,1,.7-.5ZM504.4-3.4a17.618,17.618,0,0,0,7.2-1.65A18.263,18.263,0,0,0,518-9.8v-.3l.2-13.5q-7.7,1.9-12.35,3.55A20.9,20.9,0,0,0,498.6-16a7.716,7.716,0,0,0-2.6,5.9,6.464,6.464,0,0,0,1.95,4.75Q499.9-3.4,504.4-3.4Zm89.1-45.5a8.349,8.349,0,0,1,5.1,1.55,4.72,4.72,0,0,1,2.1,3.95,3.873,3.873,0,0,1-1.25,2.9,4.366,4.366,0,0,1-3.15,1.2,7.53,7.53,0,0,1-3.8-1.5q-1.5-.8-2.4-1.2a4.871,4.871,0,0,0-2-.4,9.14,9.14,0,0,0-5.2,2,30.039,30.039,0,0,0-5.6,5.4l-.1,28.2q0,2.5,1.75,3.3a11.618,11.618,0,0,0,4.75.8H585q.8,0,.8,1.4,0,1.3-.8,1.3H562.6q-.7,0-.7-1.3,0-1.4.7-1.4h1.3a11.318,11.318,0,0,0,4.65-.8q1.75-.8,1.75-3.3L570-37.6a4.368,4.368,0,0,0-.95-3.1,4.1,4.1,0,0,0-2.2-1.25q-1.25-.25-4.35-.65a.867.867,0,0,1-.75-.5,3.623,3.623,0,0,1-.15-1.2.859.859,0,0,1,.5-.9q1.5-.6,15.2-3.8v9.8a40.781,40.781,0,0,1,8.05-6.95,15.075,15.075,0,0,1,8.15-2.75Zm76.4,36.2a.9.9,0,0,1,.5.8,2.358,2.358,0,0,1-.3,1,21.465,21.465,0,0,1-6.95,8.6Q658.3,1.4,650.8,1.4a25.688,25.688,0,0,1-12.25-2.95A21.773,21.773,0,0,1,629.8-10a24.99,24.99,0,0,1-3.2-12.8,30.879,30.879,0,0,1,2.6-12.4,24.346,24.346,0,0,1,7.751-9.9A20.025,20.025,0,0,1,649.4-49q8.8,0,14.3,5.7t6.6,15.6l-35.3.2q-.2,2.4-.2,3.7a23.969,23.969,0,0,0,2.45,11.45,15.974,15.974,0,0,0,6.4,6.7A17.8,17.8,0,0,0,652.3-3.5q9.6,0,15.8-9a1.112,1.112,0,0,1,.9-.6,1.926,1.926,0,0,1,.9.4ZM648.8-45.4a11.206,11.206,0,0,0-8.35,3.7,20.737,20.737,0,0,0-4.95,10.3l25.2-.2v-1q-.3-6.6-3.65-9.7a11.693,11.693,0,0,0-8.25-3.1ZM748.8-8q.8,0,.8.7l-.1.6A10.957,10.957,0,0,1,745-.6a11.139,11.139,0,0,1-5.7,1.8,6.876,6.876,0,0,1-5-1.95,10.591,10.591,0,0,1-2.8-5.15,24.111,24.111,0,0,1-8.3,5.45,25.5,25.5,0,0,1-9.4,1.85,15.044,15.044,0,0,1-9.35-2.7,8.79,8.79,0,0,1-3.55-7.4,12.327,12.327,0,0,1,1.6-6.4,14.08,14.08,0,0,1,5.2-4.8,30.485,30.485,0,0,1,5.8-2.4q3.5-1.1,9.6-2.7l8.2-2.3v-4.3a36.526,36.526,0,0,0-.5-7.1,9.447,9.447,0,0,0-2-4.1q-2.2-2.7-7.5-2.7a7.854,7.854,0,0,0-5.6,1.8,13.77,13.77,0,0,0-3.2,5.5q-1.7,4.8-4.9,4.8a5.1,5.1,0,0,1-3.25-1.15,3.7,3.7,0,0,1-1.45-3.05,9.826,9.826,0,0,1,1.35-4.45q1.35-2.55,5.5-4.7T721.6-48.9a23.714,23.714,0,0,1,8.55,1.55,12.5,12.5,0,0,1,5.75,3.85,12.628,12.628,0,0,1,2.05,4.35,22.768,22.768,0,0,1,.55,5.35q0,4.7-.1,8.3L738.3-11q0,4.1,1.55,5.5a4.619,4.619,0,0,0,3.05,1.4,5.467,5.467,0,0,0,2.75-.85A6.948,6.948,0,0,0,748.1-7.5a.844.844,0,0,1,.7-.5ZM717.4-3.4a17.618,17.618,0,0,0,7.2-1.65A18.263,18.263,0,0,0,731-9.8v-.3l.2-13.5q-7.7,1.9-12.35,3.55A20.9,20.9,0,0,0,711.6-16a7.716,7.716,0,0,0-2.6,5.9,6.464,6.464,0,0,0,1.95,4.75Q712.9-3.4,717.4-3.4Z" transform="translate(162.11 88)" fill="#bba579"/>
    <line id="線_15" data-name="線 15" y1="0.479" x2="751.66" transform="translate(159.84 112.691)" fill="none" stroke="#bba579" stroke-miterlimit="10" stroke-width="5"/>
  </g>
</svg>
