<svg xmlns="http://www.w3.org/2000/svg" width="1601.38" height="90.69" viewBox="0 0 1601.38 90.69">
  <g id="area04-01" transform="translate(0 -13.6)">
    <path id="パス_125" data-name="パス 125" d="M74.2-2.8a.489.489,0,0,1,.5.45,4.369,4.369,0,0,1,.1.95q0,1.4-.6,1.4H45.8a.548.548,0,0,1-.55-.35A2.8,2.8,0,0,1,45.1-1.4a2.8,2.8,0,0,1,.15-1.05.548.548,0,0,1,.55-.35,17.307,17.307,0,0,0,6.6-1.15A4.154,4.154,0,0,0,55.2-8.1a6.678,6.678,0,0,0-.4-2.3L49.3-26.2H21.7L17.2-13.4A13.243,13.243,0,0,0,16.3-9q0,6.2,9.5,6.2a.489.489,0,0,1,.5.45,4.37,4.37,0,0,1,.1.95q0,1.4-.6,1.4H1.2A.548.548,0,0,1,.65-.35,2.8,2.8,0,0,1,.5-1.4,2.8,2.8,0,0,1,.65-2.45.548.548,0,0,1,1.2-2.8,10.287,10.287,0,0,0,7.1-4.9,14.744,14.744,0,0,0,12-11.8L35.1-73l4.5-1.4a1.685,1.685,0,0,1,.95.3,1.211,1.211,0,0,1,.55.7l3.4,9.9q3.4,9.7,10.25,29.4T62.8-11.4Q66-2.8,74.2-2.8ZM48-30,35.9-65q-6,16.1-12.8,35ZM140.8-3.4Q142-3.4,142-2a.924.924,0,0,1-.6,1q-.7.2-5.7,1t-8.6,1.3V-4.6a26.128,26.128,0,0,1-7.2,4.3A21.161,21.161,0,0,1,112,1.3a18.269,18.269,0,0,1-10.55-3.25A21.721,21.721,0,0,1,94-11.1a31.858,31.858,0,0,1-2.7-13.4,26.563,26.563,0,0,1,2.8-11.95,24.182,24.182,0,0,1,7.5-9.05,16.626,16.626,0,0,1,9.9-3.4,21.43,21.43,0,0,1,15.4,6.4l-.1-19.6a4.369,4.369,0,0,0-.95-3.1,4.43,4.43,0,0,0-2.3-1.3,41.16,41.16,0,0,0-4.15-.6q-.7-.1-.85-.55a3.7,3.7,0,0,1-.15-1.15.85.85,0,0,1,.6-.9l6.9-1.8q4.6-1.2,8.2-2L134-8.1a4.6,4.6,0,0,0,1.35,3.55A5.617,5.617,0,0,0,139.3-3.3Zm-23.9.6a14.336,14.336,0,0,0,5.55-1.1,12.926,12.926,0,0,0,4.65-3.3l-.2-31.6A19.786,19.786,0,0,0,121-43a15.455,15.455,0,0,0-6.6-1.6q-6.8,0-10.75,6.1T99.7-23.2A22.443,22.443,0,0,0,102.3-12a17.825,17.825,0,0,0,6.6,6.9A15.927,15.927,0,0,0,116.9-2.8Zm91.6-.6q1.2,0,1.2,1.4a.924.924,0,0,1-.6,1q-.7.2-5.7,1t-8.6,1.3V-4.6a26.128,26.128,0,0,1-7.2,4.3,21.161,21.161,0,0,1-7.9,1.6,18.269,18.269,0,0,1-10.55-3.25,21.721,21.721,0,0,1-7.45-9.15A31.858,31.858,0,0,1,159-24.5a26.563,26.563,0,0,1,2.8-11.95,24.182,24.182,0,0,1,7.5-9.05,16.626,16.626,0,0,1,9.9-3.4,21.43,21.43,0,0,1,15.4,6.4l-.1-19.6a4.369,4.369,0,0,0-.95-3.1,4.43,4.43,0,0,0-2.3-1.3,41.161,41.161,0,0,0-4.15-.6q-.7-.1-.85-.55a3.7,3.7,0,0,1-.15-1.15.85.85,0,0,1,.6-.9l6.9-1.8q4.6-1.2,8.2-2l-.1,65.4a4.6,4.6,0,0,0,1.35,3.55A5.617,5.617,0,0,0,207-3.3Zm-23.9.6a14.336,14.336,0,0,0,5.55-1.1,12.926,12.926,0,0,0,4.65-3.3l-.2-31.6a19.786,19.786,0,0,0-5.9-4.2,15.456,15.456,0,0,0-6.6-1.6q-6.8,0-10.75,6.1T167.4-23.2A22.443,22.443,0,0,0,170-12a17.825,17.825,0,0,0,6.6,6.9A15.927,15.927,0,0,0,184.6-2.8Zm72.8-46.1a8.349,8.349,0,0,1,5.1,1.55,4.72,4.72,0,0,1,2.1,3.95,3.873,3.873,0,0,1-1.25,2.9,4.366,4.366,0,0,1-3.15,1.2,7.531,7.531,0,0,1-3.8-1.5q-1.5-.8-2.4-1.2a4.871,4.871,0,0,0-2-.4,9.14,9.14,0,0,0-5.2,2,30.036,30.036,0,0,0-5.6,5.4l-.1,28.2q0,2.5,1.75,3.3a11.618,11.618,0,0,0,4.75.8h1.3q.8,0,.8,1.4,0,1.3-.8,1.3H226.5q-.7,0-.7-1.3,0-1.4.7-1.4h1.3a11.318,11.318,0,0,0,4.65-.8q1.75-.8,1.75-3.3l-.3-30.8a4.369,4.369,0,0,0-.95-3.1,4.1,4.1,0,0,0-2.2-1.25q-1.25-.25-4.35-.65a.867.867,0,0,1-.75-.5,3.62,3.62,0,0,1-.15-1.2.859.859,0,0,1,.5-.9q1.5-.6,15.2-3.8v9.8a40.779,40.779,0,0,1,8.05-6.95A15.075,15.075,0,0,1,257.4-48.9Zm66.4,36.2a.9.9,0,0,1,.5.8,2.359,2.359,0,0,1-.3,1,21.465,21.465,0,0,1-6.95,8.6Q312.2,1.4,304.7,1.4a25.688,25.688,0,0,1-12.25-2.95A21.774,21.774,0,0,1,283.7-10a24.991,24.991,0,0,1-3.2-12.8,30.883,30.883,0,0,1,2.6-12.4,24.346,24.346,0,0,1,7.75-9.9A20.025,20.025,0,0,1,303.3-49q8.8,0,14.3,5.7t6.6,15.6l-35.3.2q-.2,2.4-.2,3.7a23.968,23.968,0,0,0,2.45,11.45,15.974,15.974,0,0,0,6.4,6.7A17.8,17.8,0,0,0,306.2-3.5q9.6,0,15.8-9a1.112,1.112,0,0,1,.9-.6A1.926,1.926,0,0,1,323.8-12.7ZM302.7-45.4a11.206,11.206,0,0,0-8.35,3.7,20.736,20.736,0,0,0-4.95,10.3l25.2-.2v-1q-.3-6.6-3.65-9.7A11.693,11.693,0,0,0,302.7-45.4Zm42.4,32.2-.1-.5q0-.6.8-1a1.113,1.113,0,0,1,.5-.1,1.426,1.426,0,0,1,1.2.8q2.4,3.1,4.7,5.55a23.433,23.433,0,0,0,6.55,4.6A21.309,21.309,0,0,0,368.5-1.7a10.607,10.607,0,0,0,7.35-2.55,8.28,8.28,0,0,0,2.85-6.45,7.276,7.276,0,0,0-1.3-4.2,8.786,8.786,0,0,0-3.7-3,78.794,78.794,0,0,0-10.1-3.4,40.537,40.537,0,0,1-6.3-1.9q-9.9-4.1-9.9-12.4a15.306,15.306,0,0,1,1.15-5.25,12.823,12.823,0,0,1,4.4-5.55q3.25-2.5,9.15-2.5a18.325,18.325,0,0,1,5.55.75q2.35.75,2.75.85a9.661,9.661,0,0,0,2.5.7,6.6,6.6,0,0,0,3.1-.85,5.819,5.819,0,0,0,2.4-2.25l4.1,13.1.2.7q0,.5-.8,1a1.393,1.393,0,0,1-.6.1,1.529,1.529,0,0,1-1.1-.5,49.143,49.143,0,0,0-7.9-7.25,17.449,17.449,0,0,0-10.6-3.15,10.389,10.389,0,0,0-5.45,1.3,8.12,8.12,0,0,0-3.1,3.1,7.315,7.315,0,0,0-.95,3.4,5.291,5.291,0,0,0,1.45,3.75A16.375,16.375,0,0,0,358.4-31a49.372,49.372,0,0,0,8.1,2.8q6.5,2,9.5,3.3,8.8,4,8.8,12.1a12.761,12.761,0,0,1-4.7,10.25Q375.4,1.4,367.3,1.4A36.584,36.584,0,0,1,356.5-.7a16.847,16.847,0,0,0-2.9-.7,3.982,3.982,0,0,0-2.25.7,14.355,14.355,0,0,0-2.55,2.4Zm59.9,0-.1-.5q0-.6.8-1a1.113,1.113,0,0,1,.5-.1,1.426,1.426,0,0,1,1.2.8q2.4,3.1,4.7,5.55a23.433,23.433,0,0,0,6.55,4.6A21.309,21.309,0,0,0,428.4-1.7a10.607,10.607,0,0,0,7.35-2.55,8.28,8.28,0,0,0,2.85-6.45,7.276,7.276,0,0,0-1.3-4.2,8.786,8.786,0,0,0-3.7-3,78.794,78.794,0,0,0-10.1-3.4,40.537,40.537,0,0,1-6.3-1.9q-9.9-4.1-9.9-12.4a15.306,15.306,0,0,1,1.15-5.25,12.823,12.823,0,0,1,4.4-5.55q3.25-2.5,9.15-2.5a18.325,18.325,0,0,1,5.55.75q2.35.75,2.75.85a9.661,9.661,0,0,0,2.5.7,6.6,6.6,0,0,0,3.1-.85,5.819,5.819,0,0,0,2.4-2.25l4.1,13.1.2.7q0,.5-.8,1a1.393,1.393,0,0,1-.6.1,1.529,1.529,0,0,1-1.1-.5,49.143,49.143,0,0,0-7.9-7.25,17.449,17.449,0,0,0-10.6-3.15,10.389,10.389,0,0,0-5.45,1.3,8.12,8.12,0,0,0-3.1,3.1,7.315,7.315,0,0,0-.95,3.4,5.291,5.291,0,0,0,1.45,3.75A16.375,16.375,0,0,0,418.3-31a49.372,49.372,0,0,0,8.1,2.8q6.5,2,9.5,3.3,8.8,4,8.8,12.1A12.761,12.761,0,0,1,440-2.55Q435.3,1.4,427.2,1.4A36.584,36.584,0,0,1,416.4-.7a16.847,16.847,0,0,0-2.9-.7,3.982,3.982,0,0,0-2.25.7,14.355,14.355,0,0,0-2.55,2.4Z" transform="translate(164.44 88)" fill="#bba579"/>
    <line id="線_14" data-name="線 14" x2="1601.38" transform="translate(0 101.7)" fill="none" stroke="#bba579" stroke-miterlimit="10" stroke-width="2"/>
    <line id="線_15" data-name="線 15" x2="484.78" transform="translate(159.84 101.79)" fill="none" stroke="#bba579" stroke-miterlimit="10" stroke-width="5"/>
  </g>
</svg>
