<svg xmlns="http://www.w3.org/2000/svg" width="1605.84" height="101.87" viewBox="0 0 1605.84 101.87">
  <g id="area03-01" transform="translate(0 -13.6)">
    <line id="線_13" data-name="線 13" x2="1605.84" transform="translate(0 112.97)" fill="none" stroke="#bba579" stroke-miterlimit="10" stroke-width="2"/>
    <path id="パス_126" data-name="パス 126" d="M79.5-2.9a.548.548,0,0,1,.55.35A2.8,2.8,0,0,1,80.2-1.5q0,1.5-.7,1.5H49.6q-.7,0-.7-1.5,0-1.4.7-1.4,8.1,0,8.1-3A5.616,5.616,0,0,0,56.2-9L33-36.5,24.4-28V-9.1q0,3.5,2,4.85T32.9-2.9h1.7q.7,0,.7,1.4,0,1.5-.7,1.5H6.2q-.7,0-.7-1.5a2.8,2.8,0,0,1,.15-1.05A.548.548,0,0,1,6.2-2.9H7.7q4.6,0,6.6-1.4t2-4.8V-63.5q0-3.6-2.05-4.95T7.7-69.8H6.2q-.7,0-.7-1.4t.7-1.4H34.6a.63.63,0,0,1,.65.35,2.8,2.8,0,0,1,.15,1.05q0,1.4-.8,1.4H32.9q-4.6,0-6.55,1.4T24.4-63.5v30.3q16.2-16,26.1-26.1L54-62.8a4.933,4.933,0,0,0,1.5-3.1,3.23,3.23,0,0,0-1.8-2.8,9.822,9.822,0,0,0-5.1-1.1q-.7,0-.7-1.4t.7-1.4H74.5a.63.63,0,0,1,.65.35,2.8,2.8,0,0,1,.15,1.05q0,1.4-.8,1.4-6.9,0-13.8,6.4-2.3,2.1-21.8,21.2l9,10.7Q63.6-12.7,65.1-11a28.8,28.8,0,0,0,7,6.4,14.817,14.817,0,0,0,7.4,1.7Zm85.9.1a.489.489,0,0,1,.5.45,4.369,4.369,0,0,1,.1.95q0,1.4-.6,1.4H137a.548.548,0,0,1-.55-.35,2.8,2.8,0,0,1-.15-1.05,2.8,2.8,0,0,1,.15-1.05A.548.548,0,0,1,137-2.8a17.307,17.307,0,0,0,6.6-1.15,4.154,4.154,0,0,0,2.8-4.15,6.678,6.678,0,0,0-.4-2.3l-5.5-15.8H112.9l-4.5,12.8a13.243,13.243,0,0,0-.9,4.4q0,6.2,9.5,6.2a.489.489,0,0,1,.5.45,4.369,4.369,0,0,1,.1.95q0,1.4-.6,1.4H92.4a.548.548,0,0,1-.55-.35A2.8,2.8,0,0,1,91.7-1.4a2.8,2.8,0,0,1,.15-1.05.548.548,0,0,1,.55-.35,10.287,10.287,0,0,0,5.9-2.1,14.744,14.744,0,0,0,4.9-6.9L126.3-73l4.5-1.4a1.685,1.685,0,0,1,.95.3,1.211,1.211,0,0,1,.55.7l3.4,9.9q3.4,9.7,10.25,29.4T154-11.4q3.2,8.6,11.4,8.6ZM139.2-30,127.1-65q-6,16.1-12.8,35ZM182.9,0q-.6,0-.6-1.5,0-1.3.6-1.3h1.6a8.724,8.724,0,0,0,5.85-2.3A7.249,7.249,0,0,0,193-10.8V-63.6q0-3.4-2-4.8t-6.5-1.4h-1.6q-.7,0-.7-1.4t.7-1.4h17.7L240.7-16V-61.8a6.722,6.722,0,0,0-1.35-4.05,9.527,9.527,0,0,0-3.4-2.9A8.657,8.657,0,0,0,232-69.8h-1.5a.63.63,0,0,1-.65-.35,2.8,2.8,0,0,1-.15-1.05q0-1.4.8-1.4h24.2a.63.63,0,0,1,.65.35,2.8,2.8,0,0,1,.15,1.05q0,1.4-.8,1.4h-1.6a8.622,8.622,0,0,0-5.85,2.35,7.3,7.3,0,0,0-2.65,5.65V0h-2.4L197-64.5v53.7a7.1,7.1,0,0,0,2.8,5.7,9.169,9.169,0,0,0,5.9,2.3h1.6q.7,0,.7,1.3,0,1.5-.7,1.5ZM344.1-2.8a.489.489,0,0,1,.5.45,4.37,4.37,0,0,1,.1.95q0,1.4-.6,1.4H315.7a.548.548,0,0,1-.55-.35A2.8,2.8,0,0,1,315-1.4a2.8,2.8,0,0,1,.15-1.05.548.548,0,0,1,.55-.35,17.306,17.306,0,0,0,6.6-1.15,4.154,4.154,0,0,0,2.8-4.15,6.678,6.678,0,0,0-.4-2.3l-5.5-15.8H291.6l-4.5,12.8a13.243,13.243,0,0,0-.9,4.4q0,6.2,9.5,6.2a.489.489,0,0,1,.5.45,4.372,4.372,0,0,1,.1.95q0,1.4-.6,1.4H271.1a.548.548,0,0,1-.55-.35,2.8,2.8,0,0,1-.15-1.05,2.8,2.8,0,0,1,.15-1.05.548.548,0,0,1,.55-.35A10.287,10.287,0,0,0,277-4.9a14.744,14.744,0,0,0,4.9-6.9L305-73l4.5-1.4a1.685,1.685,0,0,1,.95.3,1.211,1.211,0,0,1,.55.7l3.4,9.9q3.4,9.7,10.25,29.4t8.05,22.7Q335.9-2.8,344.1-2.8ZM317.9-30,305.8-65q-6,16.1-12.8,35ZM380,0q-.8,0-.8-1.4t.8-1.4h1.5q4.5,0,6.55-1.5a5.548,5.548,0,0,0,2.05-4.8V-24.4L369.6-63.6q-3.3-6.2-8.5-6.2h-1.6q-.7,0-.7-1.4t.7-1.4h27.3a.63.63,0,0,1,.65.35,2.8,2.8,0,0,1,.15,1.05q0,1.4-.8,1.4h-1.6q-7.8,0-7.8,3.6a6.325,6.325,0,0,0,.8,2.7q1.3,2.7,17.9,33.2,13.5-25.3,16.4-31.2a7.642,7.642,0,0,0,.8-2.9,4.378,4.378,0,0,0-2.5-4,9.685,9.685,0,0,0-4.7-1.4h-1.7q-.7,0-.7-1.4t.7-1.4h25a.63.63,0,0,1,.65.35,2.8,2.8,0,0,1,.15,1.05q0,1.4-.8,1.4h-1.5a9.884,9.884,0,0,0-5.65,2.2,17.215,17.215,0,0,0-5.05,5.9l-19,35.2V-9.1q0,3.5,2.15,4.9t6.45,1.4h1.5q.8,0,.8,1.4T408.3,0ZM515.7-2.8a.489.489,0,0,1,.5.45,4.372,4.372,0,0,1,.1.95q0,1.4-.6,1.4H487.3a.548.548,0,0,1-.55-.35,2.8,2.8,0,0,1-.15-1.05,2.8,2.8,0,0,1,.15-1.05.548.548,0,0,1,.55-.35,17.306,17.306,0,0,0,6.6-1.15,4.154,4.154,0,0,0,2.8-4.15,6.677,6.677,0,0,0-.4-2.3l-5.5-15.8H463.2l-4.5,12.8a13.243,13.243,0,0,0-.9,4.4q0,6.2,9.5,6.2a.489.489,0,0,1,.5.45,4.368,4.368,0,0,1,.1.95q0,1.4-.6,1.4H442.7a.548.548,0,0,1-.55-.35A2.8,2.8,0,0,1,442-1.4a2.8,2.8,0,0,1,.15-1.05.548.548,0,0,1,.55-.35,10.287,10.287,0,0,0,5.9-2.1,14.744,14.744,0,0,0,4.9-6.9L476.6-73l4.5-1.4a1.685,1.685,0,0,1,.95.3,1.211,1.211,0,0,1,.55.7l3.4,9.9q3.4,9.7,10.25,29.4t8.05,22.7Q507.5-2.8,515.7-2.8ZM489.5-30,477.4-65q-6,16.1-12.8,35ZM534.3,0q-.8,0-.8-1.5,0-1.3.8-1.3h1.4a9.031,9.031,0,0,0,6-2.3,7.2,7.2,0,0,0,2.7-5.7V-63.6q0-3.5-2.05-4.85T535.7-69.8h-1.4q-.7,0-.7-1.4t.7-1.4H553l24.8,59.1,26-59.1h17.8a.63.63,0,0,1,.65.35,2.8,2.8,0,0,1,.15,1.05q0,1.4-.8,1.4h-1.5q-4.7,0-6.6,1.4t-1.9,4.8V-9.1q0,3.5,2,4.9t6.5,1.4h1.5q.7,0,.7,1.3,0,1.5-.7,1.5H593.5q-.6,0-.6-1.5,0-1.3.6-1.3h1.7q4.6,0,6.6-1.45t2-4.85V-63.2L576.3,0h-1.2L548.3-63.3v52.5a7.1,7.1,0,0,0,2.8,5.7,9.054,9.054,0,0,0,5.8,2.3h1.6q.6,0,.6,1.3,0,1.5-.6,1.5ZM713.2-2.8a.489.489,0,0,1,.5.45,4.368,4.368,0,0,1,.1.95q0,1.4-.6,1.4H684.8a.548.548,0,0,1-.55-.35,2.8,2.8,0,0,1-.15-1.05,2.8,2.8,0,0,1,.15-1.05.548.548,0,0,1,.55-.35,17.307,17.307,0,0,0,6.6-1.15,4.154,4.154,0,0,0,2.8-4.15,6.678,6.678,0,0,0-.4-2.3l-5.5-15.8H660.7l-4.5,12.8a13.242,13.242,0,0,0-.9,4.4q0,6.2,9.5,6.2a.489.489,0,0,1,.5.45,4.361,4.361,0,0,1,.1.95q0,1.4-.6,1.4H640.2a.548.548,0,0,1-.55-.35,2.8,2.8,0,0,1-.15-1.05,2.8,2.8,0,0,1,.15-1.05.548.548,0,0,1,.55-.35,10.287,10.287,0,0,0,5.9-2.1,14.744,14.744,0,0,0,4.9-6.9L674.1-73l4.5-1.4a1.685,1.685,0,0,1,.95.3,1.211,1.211,0,0,1,.55.7l3.4,9.9q3.4,9.7,10.25,29.4t8.05,22.7Q705-2.8,713.2-2.8ZM687-30,674.9-65q-6,16.1-12.8,35ZM814.1-8q.8,0,.8.7l-.1.6a10.957,10.957,0,0,1-4.5,6.1,11.139,11.139,0,0,1-5.7,1.8,6.876,6.876,0,0,1-5-1.95,10.591,10.591,0,0,1-2.8-5.15,24.11,24.11,0,0,1-8.3,5.45,25.5,25.5,0,0,1-9.4,1.85,15.044,15.044,0,0,1-9.35-2.7,8.79,8.79,0,0,1-3.55-7.4,12.326,12.326,0,0,1,1.6-6.4,14.08,14.08,0,0,1,5.2-4.8,30.483,30.483,0,0,1,5.8-2.4q3.5-1.1,9.6-2.7l8.2-2.3v-4.3a36.531,36.531,0,0,0-.5-7.1,9.446,9.446,0,0,0-2-4.1q-2.2-2.7-7.5-2.7a7.854,7.854,0,0,0-5.6,1.8,13.77,13.77,0,0,0-3.2,5.5q-1.7,4.8-4.9,4.8a5.1,5.1,0,0,1-3.25-1.15,3.7,3.7,0,0,1-1.45-3.05,9.825,9.825,0,0,1,1.35-4.45q1.35-2.55,5.5-4.7T786.9-48.9a23.714,23.714,0,0,1,8.55,1.55,12.5,12.5,0,0,1,5.75,3.85,12.63,12.63,0,0,1,2.05,4.35,22.771,22.771,0,0,1,.55,5.35q0,4.7-.1,8.3L803.6-11q0,4.1,1.55,5.5a4.619,4.619,0,0,0,3.05,1.4,5.467,5.467,0,0,0,2.75-.85A6.948,6.948,0,0,0,813.4-7.5a.844.844,0,0,1,.7-.5ZM782.7-3.4a17.618,17.618,0,0,0,7.2-1.65,18.262,18.262,0,0,0,6.4-4.75v-.3l.2-13.5q-7.7,1.9-12.35,3.55A20.9,20.9,0,0,0,776.9-16a7.716,7.716,0,0,0-2.6,5.9,6.464,6.464,0,0,0,1.95,4.75Q778.2-3.4,782.7-3.4Zm79.1-45.5a8.349,8.349,0,0,1,5.1,1.55A4.72,4.72,0,0,1,869-43.4a3.873,3.873,0,0,1-1.25,2.9,4.366,4.366,0,0,1-3.15,1.2,7.53,7.53,0,0,1-3.8-1.5q-1.5-.8-2.4-1.2a4.871,4.871,0,0,0-2-.4,9.14,9.14,0,0,0-5.2,2,30.038,30.038,0,0,0-5.6,5.4l-.1,28.2q0,2.5,1.75,3.3a11.618,11.618,0,0,0,4.75.8h1.3q.8,0,.8,1.4,0,1.3-.8,1.3H830.9q-.7,0-.7-1.3,0-1.4.7-1.4h1.3a11.318,11.318,0,0,0,4.65-.8q1.75-.8,1.75-3.3l-.3-30.8a4.368,4.368,0,0,0-.95-3.1,4.1,4.1,0,0,0-2.2-1.25q-1.25-.25-4.35-.65a.867.867,0,0,1-.75-.5,3.621,3.621,0,0,1-.15-1.2.859.859,0,0,1,.5-.9q1.5-.6,15.2-3.8v9.8a40.781,40.781,0,0,1,8.05-6.95,15.075,15.075,0,0,1,8.15-2.75Zm66.4,36.2a.9.9,0,0,1,.5.8,2.358,2.358,0,0,1-.3,1,21.466,21.466,0,0,1-6.95,8.6Q916.6,1.4,909.1,1.4a25.688,25.688,0,0,1-12.25-2.95A21.773,21.773,0,0,1,888.1-10a24.991,24.991,0,0,1-3.2-12.8,30.879,30.879,0,0,1,2.6-12.4,24.345,24.345,0,0,1,7.751-9.9A20.025,20.025,0,0,1,907.7-49q8.8,0,14.3,5.7t6.6,15.6l-35.3.2q-.2,2.4-.2,3.7a23.969,23.969,0,0,0,2.45,11.45,15.974,15.974,0,0,0,6.4,6.7A17.8,17.8,0,0,0,910.6-3.5q9.6,0,15.8-9a1.112,1.112,0,0,1,.9-.6,1.926,1.926,0,0,1,.9.4ZM907.1-45.4a11.206,11.206,0,0,0-8.35,3.7,20.737,20.737,0,0,0-4.95,10.3l25.2-.2v-1q-.3-6.6-3.65-9.7A11.693,11.693,0,0,0,907.1-45.4ZM997.1-8q.8,0,.8.7l-.1.6a10.957,10.957,0,0,1-4.5,6.1,11.139,11.139,0,0,1-5.7,1.8,6.876,6.876,0,0,1-5-1.95,10.591,10.591,0,0,1-2.8-5.15,24.11,24.11,0,0,1-8.3,5.45,25.5,25.5,0,0,1-9.4,1.85,15.044,15.044,0,0,1-9.35-2.7,8.79,8.79,0,0,1-3.55-7.4,12.326,12.326,0,0,1,1.6-6.4,14.08,14.08,0,0,1,5.2-4.8,30.483,30.483,0,0,1,5.8-2.4q3.5-1.1,9.6-2.7l8.2-2.3v-4.3a36.526,36.526,0,0,0-.5-7.1,9.445,9.445,0,0,0-2-4.1q-2.2-2.7-7.5-2.7a7.854,7.854,0,0,0-5.6,1.8,13.77,13.77,0,0,0-3.2,5.5q-1.7,4.8-4.9,4.8a5.1,5.1,0,0,1-3.25-1.15,3.7,3.7,0,0,1-1.45-3.05,9.824,9.824,0,0,1,1.35-4.45q1.35-2.55,5.5-4.7T969.9-48.9a23.714,23.714,0,0,1,8.55,1.55,12.5,12.5,0,0,1,5.75,3.85,12.628,12.628,0,0,1,2.05,4.35,22.768,22.768,0,0,1,.55,5.35q0,4.7-.1,8.3L986.6-11q0,4.1,1.55,5.5a4.619,4.619,0,0,0,3.05,1.4,5.467,5.467,0,0,0,2.75-.85A6.948,6.948,0,0,0,996.4-7.5a.844.844,0,0,1,.7-.5ZM965.7-3.4a17.618,17.618,0,0,0,7.2-1.65,18.263,18.263,0,0,0,6.4-4.75v-.3l.2-13.5q-7.7,1.9-12.35,3.55A20.9,20.9,0,0,0,959.9-16a7.716,7.716,0,0,0-2.6,5.9,6.464,6.464,0,0,0,1.95,4.75Q961.2-3.4,965.7-3.4Z" transform="translate(160.08 88)" fill="#bba579"/>
    <line id="線_15" data-name="線 15" x2="997.66" transform="translate(159.84 112.97)" fill="none" stroke="#bba579" stroke-miterlimit="10" stroke-width="5"/>
  </g>
</svg>
