<svg xmlns="http://www.w3.org/2000/svg" width="1619.47" height="100.428" viewBox="0 0 1619.47 100.428">
  <g id="area01-01" transform="translate(0 -15.395)">
    <line id="線_15" data-name="線 15" x2="821.66" y2="0.092" transform="translate(159.84 113.23)" fill="none" stroke="#bba579" stroke-miterlimit="10" stroke-width="5"/>
    <path id="パス_128" data-name="パス 128" d="M6.6,0q-.8,0-.8-1.5,0-1.3.8-1.3H8a9.031,9.031,0,0,0,6-2.3,7.2,7.2,0,0,0,2.7-5.7V-63.6q0-3.5-2.05-4.85T8-69.8H6.6q-.7,0-.7-1.4t.7-1.4H25.3L50.1-13.5l26-59.1H93.9a.63.63,0,0,1,.65.35,2.8,2.8,0,0,1,.15,1.05q0,1.4-.8,1.4H92.4q-4.7,0-6.6,1.4t-1.9,4.8V-9.1q0,3.5,2,4.9t6.5,1.4h1.5q.7,0,.7,1.3,0,1.5-.7,1.5H65.8q-.6,0-.6-1.5,0-1.3.6-1.3h1.7q4.6,0,6.6-1.45t2-4.85V-63.2L48.6,0H47.4L20.6-63.3v52.5a7.1,7.1,0,0,0,2.8,5.7,9.054,9.054,0,0,0,5.8,2.3h1.6q.6,0,.6,1.3,0,1.5-.6,1.5ZM188.2-17.7a1.176,1.176,0,0,1,.9,1.2,7.027,7.027,0,0,1-.5,1.6Q185.9-8.1,183,0H127.5q-.7,0-.7-1.4t.7-1.4h1.6q4.5,0,6.55-1.45T137.7-9.1V-63.5q0-3.5-2.15-4.9t-6.45-1.4h-1.6q-.7,0-.7-1.4t.7-1.4h52.4q1.7,3,3.55,6.3t2.65,5a1.113,1.113,0,0,1,.1.5q0,.5-.8,1a1.422,1.422,0,0,1-.8.2,1.357,1.357,0,0,1-1-.4,33.045,33.045,0,0,0-10.7-7.05,34.716,34.716,0,0,0-13.6-2.65h-2.5a42.853,42.853,0,0,0-6.3.35A6.162,6.162,0,0,0,147-67.7a5.762,5.762,0,0,0-1.3,4.2v24.2h9q6.1,0,8-.1a8.51,8.51,0,0,0,6.55-2.8A9.984,9.984,0,0,0,171.6-49q0-.7,1.3-.7a2.8,2.8,0,0,1,1.05.15.548.548,0,0,1,.35.55v22.9q0,.8-1.4.8-1.3,0-1.3-.8a9.984,9.984,0,0,0-2.35-6.8,8.51,8.51,0,0,0-6.55-2.8q-1.9-.1-8-.1h-9V-9.1q0,3.4,2.1,4.7a13.9,13.9,0,0,0,6.5,1.5q1.3.1,4.5.1,2.4,0,3.5-.1a30.171,30.171,0,0,0,10.6-2.6,27.233,27.233,0,0,0,7.25-4.85,74.5,74.5,0,0,0,6.35-7.15.95.95,0,0,1,.8-.4,3.174,3.174,0,0,1,.9.2ZM219.5,0q-.7,0-.7-1.4t.7-1.4h1.6q4.5,0,6.55-1.45T229.7-9V-63.5q0-3.5-2.1-4.9t-6.5-1.4h-1.6q-.7,0-.7-1.4t.7-1.4h28.3a.63.63,0,0,1,.65.35,2.8,2.8,0,0,1,.15,1.05q0,1.4-.8,1.4h-1.5q-4.7,0-6.65,1.4t-1.95,4.9V-9q0,3.5,2,4.85t6.6,1.35h1.5a.63.63,0,0,1,.65.35,2.8,2.8,0,0,1,.15,1.05q0,1.4-.8,1.4ZM341-17.7a1.176,1.176,0,0,1,.9,1.2,7.027,7.027,0,0,1-.5,1.6Q338.7-8.1,335.8,0H280.3q-.7,0-.7-1.4t.7-1.4h1.6q4.5,0,6.55-1.45T290.5-9.1V-63.5q0-3.5-2.15-4.9t-6.45-1.4h-1.6q-.7,0-.7-1.4t.7-1.4h52.4q1.7,3,3.55,6.3t2.65,5a1.113,1.113,0,0,1,.1.5q0,.5-.8,1a1.422,1.422,0,0,1-.8.2,1.357,1.357,0,0,1-1-.4,33.046,33.046,0,0,0-10.7-7.05,34.716,34.716,0,0,0-13.6-2.65h-2.5a42.853,42.853,0,0,0-6.3.35,6.162,6.162,0,0,0-3.5,1.65,5.762,5.762,0,0,0-1.3,4.2v24.2h9q6.1,0,8-.1a8.51,8.51,0,0,0,6.55-2.8A9.984,9.984,0,0,0,324.4-49q0-.7,1.3-.7a2.8,2.8,0,0,1,1.05.15.548.548,0,0,1,.35.55v22.9q0,.8-1.4.8-1.3,0-1.3-.8a9.984,9.984,0,0,0-2.35-6.8,8.51,8.51,0,0,0-6.55-2.8q-1.9-.1-8-.1h-9V-9.1q0,3.4,2.1,4.7a13.9,13.9,0,0,0,6.5,1.5q1.3.1,4.5.1,2.4,0,3.5-.1a30.171,30.171,0,0,0,10.6-2.6,27.232,27.232,0,0,0,7.25-4.85,74.511,74.511,0,0,0,6.35-7.15.95.95,0,0,1,.8-.4,3.174,3.174,0,0,1,.9.2ZM445.6-2.9a.548.548,0,0,1,.55.35,2.8,2.8,0,0,1,.15,1.05q0,1.5-.7,1.5H415.7q-.7,0-.7-1.5,0-1.4.7-1.4,8.1,0,8.1-3A5.616,5.616,0,0,0,422.3-9L399.1-36.5,390.5-28V-9.1q0,3.5,2,4.85T399-2.9h1.7q.7,0,.7,1.4,0,1.5-.7,1.5H372.3q-.7,0-.7-1.5a2.8,2.8,0,0,1,.15-1.05.548.548,0,0,1,.55-.35h1.5q4.6,0,6.6-1.4t2-4.8V-63.5q0-3.6-2.05-4.95T373.8-69.8h-1.5q-.7,0-.7-1.4t.7-1.4h28.4a.63.63,0,0,1,.65.35,2.8,2.8,0,0,1,.15,1.05q0,1.4-.8,1.4H399q-4.6,0-6.55,1.4t-1.95,4.9v30.3q16.2-16,26.1-26.1l3.5-3.5a4.933,4.933,0,0,0,1.5-3.1,3.23,3.23,0,0,0-1.8-2.8,9.823,9.823,0,0,0-5.1-1.1q-.7,0-.7-1.4t.7-1.4h25.9a.63.63,0,0,1,.65.35,2.8,2.8,0,0,1,.15,1.05q0,1.4-.8,1.4-6.9,0-13.8,6.4-2.3,2.1-21.8,21.2l9,10.7Q429.7-12.7,431.2-11a28.8,28.8,0,0,0,7,6.4,14.817,14.817,0,0,0,7.4,1.7ZM473.5,0q-.7,0-.7-1.4t.7-1.4h1.6q4.5,0,6.55-1.45T483.7-9V-63.5q0-3.5-2.1-4.9t-6.5-1.4h-1.6q-.7,0-.7-1.4t.7-1.4h28.3a.63.63,0,0,1,.65.35,2.8,2.8,0,0,1,.15,1.05q0,1.4-.8,1.4h-1.5q-4.7,0-6.65,1.4t-1.95,4.9V-9q0,3.5,2,4.85t6.6,1.35h1.5a.63.63,0,0,1,.65.35,2.8,2.8,0,0,1,.15,1.05q0,1.4-.8,1.4ZM601.2-8q.8,0,.8.7l-.1.6a10.957,10.957,0,0,1-4.5,6.1,11.139,11.139,0,0,1-5.7,1.8,6.876,6.876,0,0,1-5-1.95,10.591,10.591,0,0,1-2.8-5.15,24.111,24.111,0,0,1-8.3,5.45,25.5,25.5,0,0,1-9.4,1.85,15.044,15.044,0,0,1-9.35-2.7,8.79,8.79,0,0,1-3.55-7.4,12.326,12.326,0,0,1,1.6-6.4,14.08,14.08,0,0,1,5.2-4.8,30.484,30.484,0,0,1,5.8-2.4q3.5-1.1,9.6-2.7l8.2-2.3v-4.3a36.526,36.526,0,0,0-.5-7.1,9.446,9.446,0,0,0-2-4.1q-2.2-2.7-7.5-2.7a7.854,7.854,0,0,0-5.6,1.8,13.77,13.77,0,0,0-3.2,5.5q-1.7,4.8-4.9,4.8a5.1,5.1,0,0,1-3.25-1.15,3.7,3.7,0,0,1-1.45-3.05,9.826,9.826,0,0,1,1.35-4.45q1.35-2.55,5.5-4.7T574-48.9a23.714,23.714,0,0,1,8.55,1.55,12.5,12.5,0,0,1,5.75,3.85,12.628,12.628,0,0,1,2.05,4.35,22.768,22.768,0,0,1,.55,5.35q0,4.7-.1,8.3L590.7-11q0,4.1,1.55,5.5a4.619,4.619,0,0,0,3.05,1.4,5.467,5.467,0,0,0,2.75-.85A6.948,6.948,0,0,0,600.5-7.5a.844.844,0,0,1,.7-.5ZM569.8-3.4A17.618,17.618,0,0,0,577-5.05a18.263,18.263,0,0,0,6.4-4.75v-.3l.2-13.5q-7.7,1.9-12.35,3.55A20.9,20.9,0,0,0,564-16a7.716,7.716,0,0,0-2.6,5.9,6.464,6.464,0,0,0,1.95,4.75Q565.3-3.4,569.8-3.4Zm89.1-45.5a8.349,8.349,0,0,1,5.1,1.55,4.72,4.72,0,0,1,2.1,3.95,3.873,3.873,0,0,1-1.25,2.9,4.366,4.366,0,0,1-3.15,1.2,7.53,7.53,0,0,1-3.8-1.5q-1.5-.8-2.4-1.2a4.871,4.871,0,0,0-2-.4,9.14,9.14,0,0,0-5.2,2,30.038,30.038,0,0,0-5.6,5.4l-.1,28.2q0,2.5,1.75,3.3a11.618,11.618,0,0,0,4.75.8h1.3q.8,0,.8,1.4,0,1.3-.8,1.3H628q-.7,0-.7-1.3,0-1.4.7-1.4h1.3a11.318,11.318,0,0,0,4.65-.8q1.75-.8,1.75-3.3l-.3-30.8a4.368,4.368,0,0,0-.95-3.1,4.1,4.1,0,0,0-2.2-1.25q-1.25-.25-4.35-.65a.867.867,0,0,1-.75-.5,3.623,3.623,0,0,1-.15-1.2.859.859,0,0,1,.5-.9q1.5-.6,15.2-3.8v9.8a40.783,40.783,0,0,1,8.05-6.95,15.075,15.075,0,0,1,8.15-2.75Zm76.4,36.2a.9.9,0,0,1,.5.8,2.358,2.358,0,0,1-.3,1,21.466,21.466,0,0,1-6.95,8.6Q723.7,1.4,716.2,1.4a25.688,25.688,0,0,1-12.25-2.95A21.773,21.773,0,0,1,695.2-10,24.99,24.99,0,0,1,692-22.8a30.88,30.88,0,0,1,2.6-12.4,24.346,24.346,0,0,1,7.751-9.9A20.025,20.025,0,0,1,714.8-49q8.8,0,14.3,5.7t6.6,15.6l-35.3.2q-.2,2.4-.2,3.7a23.969,23.969,0,0,0,2.45,11.45,15.974,15.974,0,0,0,6.4,6.7A17.8,17.8,0,0,0,717.7-3.5q9.6,0,15.8-9a1.112,1.112,0,0,1,.9-.6,1.926,1.926,0,0,1,.9.4ZM714.2-45.4a11.206,11.206,0,0,0-8.35,3.7,20.738,20.738,0,0,0-4.95,10.3l25.2-.2v-1q-.3-6.6-3.65-9.7a11.693,11.693,0,0,0-8.25-3.1ZM814.2-8q.8,0,.8.7l-.1.6a10.956,10.956,0,0,1-4.5,6.1,11.139,11.139,0,0,1-5.7,1.8,6.876,6.876,0,0,1-5-1.95,10.591,10.591,0,0,1-2.8-5.15,24.111,24.111,0,0,1-8.3,5.45,25.5,25.5,0,0,1-9.4,1.85,15.044,15.044,0,0,1-9.35-2.7,8.79,8.79,0,0,1-3.55-7.4,12.327,12.327,0,0,1,1.6-6.4,14.08,14.08,0,0,1,5.2-4.8,30.483,30.483,0,0,1,5.8-2.4q3.5-1.1,9.6-2.7l8.2-2.3v-4.3a36.526,36.526,0,0,0-.5-7.1,9.446,9.446,0,0,0-2-4.1q-2.2-2.7-7.5-2.7a7.854,7.854,0,0,0-5.6,1.8,13.769,13.769,0,0,0-3.2,5.5q-1.7,4.8-4.9,4.8a5.1,5.1,0,0,1-3.25-1.15,3.7,3.7,0,0,1-1.45-3.05,9.826,9.826,0,0,1,1.35-4.45q1.35-2.55,5.5-4.7T787-48.9a23.714,23.714,0,0,1,8.55,1.55,12.5,12.5,0,0,1,5.75,3.85,12.628,12.628,0,0,1,2.05,4.35,22.768,22.768,0,0,1,.55,5.35q0,4.7-.1,8.3L803.7-11q0,4.1,1.55,5.5a4.619,4.619,0,0,0,3.05,1.4,5.467,5.467,0,0,0,2.75-.85A6.948,6.948,0,0,0,813.5-7.5a.844.844,0,0,1,.7-.5ZM782.8-3.4A17.618,17.618,0,0,0,790-5.05a18.263,18.263,0,0,0,6.4-4.75v-.3l.2-13.5q-7.7,1.9-12.35,3.55A20.9,20.9,0,0,0,777-16a7.716,7.716,0,0,0-2.6,5.9,6.464,6.464,0,0,0,1.95,4.75Q778.3-3.4,782.8-3.4Z" transform="translate(166.45 88)" fill="#bba579"/>
    <line id="線_7" data-name="線 7" x2="1619.47" transform="translate(0 113.23)" fill="none" stroke="#bba579" stroke-miterlimit="10" stroke-width="2"/>
  </g>
</svg>
