<svg id="area01-01-sp" xmlns="http://www.w3.org/2000/svg" width="750.5" height="69.186" viewBox="0 0 750.5 69.186">
  <path id="パス_128" data-name="パス 128" d="M6.349-22.821q-.549,0-.549-1.028,0-.891.549-.891h.96a6.192,6.192,0,0,0,4.114-1.577,4.934,4.934,0,0,0,1.851-3.908v-36.2a3.683,3.683,0,0,0-1.406-3.325,8.557,8.557,0,0,0-4.56-.926h-.96q-.48,0-.48-.96t.48-.96H19.17l17,40.523L54-72.6h12.2a.432.432,0,0,1,.446.24,1.92,1.92,0,0,1,.1.72q0,.96-.549.96H65.178q-3.223,0-4.525.96a3.824,3.824,0,0,0-1.3,3.291V-29.06a3.817,3.817,0,0,0,1.371,3.36,7.96,7.96,0,0,0,4.457.96h1.028q.48,0,.48.891,0,1.028-.48,1.028H46.94q-.411,0-.411-1.028,0-.891.411-.891h1.166a7.893,7.893,0,0,0,4.525-.994A3.83,3.83,0,0,0,54-29.06V-66.155L35.146-22.821h-.823l-18.376-43.4v36a4.867,4.867,0,0,0,1.92,3.908,6.208,6.208,0,0,0,3.977,1.577h1.1q.411,0,.411.891,0,1.028-.411,1.028ZM130.865-34.957a.807.807,0,0,1,.617.823,4.819,4.819,0,0,1-.343,1.1q-1.851,4.663-3.84,10.216H89.245q-.48,0-.48-.96t.48-.96h1.1a7.916,7.916,0,0,0,4.491-.994,3.789,3.789,0,0,0,1.406-3.325v-37.3a3.7,3.7,0,0,0-1.474-3.36,8.2,8.2,0,0,0-4.423-.96h-1.1q-.48,0-.48-.96t.48-.96h35.929q1.166,2.057,2.434,4.32t1.817,3.428a.763.763,0,0,1,.069.343q0,.343-.549.686a.975.975,0,0,1-.549.137.93.93,0,0,1-.686-.274,22.658,22.658,0,0,0-7.337-4.834,23.8,23.8,0,0,0-9.325-1.817h-1.714a29.384,29.384,0,0,0-4.32.24,4.225,4.225,0,0,0-2.4,1.131,3.951,3.951,0,0,0-.891,2.88v16.593H107.9q4.183,0,5.485-.069a5.835,5.835,0,0,0,4.491-1.92,6.846,6.846,0,0,0,1.611-4.663q0-.48.891-.48a1.92,1.92,0,0,1,.72.1.376.376,0,0,1,.24.377v15.7q0,.549-.96.549-.891,0-.891-.549a6.846,6.846,0,0,0-1.611-4.663,5.835,5.835,0,0,0-4.491-1.92q-1.3-.069-5.485-.069h-6.171V-29.06a3.483,3.483,0,0,0,1.44,3.223,9.529,9.529,0,0,0,4.457,1.028q.891.069,3.085.069,1.646,0,2.4-.069a20.687,20.687,0,0,0,7.268-1.783,18.672,18.672,0,0,0,4.971-3.325,51.086,51.086,0,0,0,4.354-4.9.652.652,0,0,1,.549-.274A2.176,2.176,0,0,1,130.865-34.957Zm21.461,12.136q-.48,0-.48-.96t.48-.96h1.1a7.916,7.916,0,0,0,4.491-.994,3.71,3.71,0,0,0,1.406-3.257V-66.36a3.737,3.737,0,0,0-1.44-3.36,8.169,8.169,0,0,0-4.457-.96h-1.1q-.48,0-.48-.96t.48-.96h19.4a.432.432,0,0,1,.446.24,1.92,1.92,0,0,1,.1.72q0,.96-.549.96H170.7a8.1,8.1,0,0,0-4.56.96,3.861,3.861,0,0,0-1.337,3.36v37.369a3.722,3.722,0,0,0,1.371,3.325,8.365,8.365,0,0,0,4.525.926h1.028a.432.432,0,0,1,.446.24,1.921,1.921,0,0,1,.1.72q0,.96-.549.96Zm83.308-12.136a.807.807,0,0,1,.617.823,4.818,4.818,0,0,1-.343,1.1q-1.851,4.663-3.84,10.216H194.014q-.48,0-.48-.96t.48-.96h1.1a7.916,7.916,0,0,0,4.491-.994,3.789,3.789,0,0,0,1.406-3.325v-37.3a3.7,3.7,0,0,0-1.474-3.36,8.2,8.2,0,0,0-4.423-.96h-1.1q-.48,0-.48-.96t.48-.96h35.929q1.166,2.057,2.434,4.32t1.817,3.428a.763.763,0,0,1,.069.343q0,.343-.549.686a.975.975,0,0,1-.549.137.93.93,0,0,1-.686-.274,22.658,22.658,0,0,0-7.337-4.834,23.8,23.8,0,0,0-9.325-1.817H214.1a29.383,29.383,0,0,0-4.32.24,4.225,4.225,0,0,0-2.4,1.131,3.951,3.951,0,0,0-.891,2.88v16.593h6.171q4.183,0,5.485-.069a5.835,5.835,0,0,0,4.491-1.92,6.846,6.846,0,0,0,1.611-4.663q0-.48.891-.48a1.92,1.92,0,0,1,.72.1.376.376,0,0,1,.24.377v15.7q0,.549-.96.549-.891,0-.891-.549a6.846,6.846,0,0,0-1.611-4.663,5.835,5.835,0,0,0-4.491-1.92q-1.3-.069-5.485-.069h-6.171V-29.06a3.483,3.483,0,0,0,1.44,3.223,9.529,9.529,0,0,0,4.457,1.028q.891.069,3.085.069,1.646,0,2.4-.069a20.687,20.687,0,0,0,7.268-1.783,18.672,18.672,0,0,0,4.971-3.325,51.089,51.089,0,0,0,4.354-4.9.652.652,0,0,1,.549-.274A2.176,2.176,0,0,1,235.634-34.957Zm71.72,10.148a.376.376,0,0,1,.377.24,1.92,1.92,0,0,1,.1.72q0,1.028-.48,1.028h-20.5q-.48,0-.48-1.028,0-.96.48-.96,5.554,0,5.554-2.057a3.85,3.85,0,0,0-1.029-2.126L275.471-47.848l-5.9,5.828V-29.06a3.722,3.722,0,0,0,1.371,3.325,8.2,8.2,0,0,0,4.457.926h1.166q.48,0,.48.96,0,1.028-.48,1.028H257.1q-.48,0-.48-1.028a1.92,1.92,0,0,1,.1-.72.376.376,0,0,1,.377-.24h1.029a8.12,8.12,0,0,0,4.525-.96,3.735,3.735,0,0,0,1.371-3.291v-37.3q0-2.468-1.406-3.394a8.39,8.39,0,0,0-4.491-.926H257.1q-.48,0-.48-.96t.48-.96h19.473a.432.432,0,0,1,.446.24,1.921,1.921,0,0,1,.1.72q0,.96-.548.96H275.4a7.937,7.937,0,0,0-4.491.96,3.861,3.861,0,0,0-1.337,3.36v20.776q11.108-10.971,17.9-17.9l2.4-2.4a3.382,3.382,0,0,0,1.029-2.126,2.215,2.215,0,0,0-1.234-1.92,6.735,6.735,0,0,0-3.5-.754q-.48,0-.48-.96t.48-.96h17.759a.432.432,0,0,1,.446.24,1.92,1.92,0,0,1,.1.72q0,.96-.549.96-4.731,0-9.462,4.388-1.577,1.44-14.947,14.536l6.171,7.337q10.765,12.89,11.793,14.056a19.748,19.748,0,0,0,4.8,4.388A10.159,10.159,0,0,0,307.354-24.809Zm19.13,1.988q-.48,0-.48-.96t.48-.96h1.1a7.916,7.916,0,0,0,4.491-.994,3.71,3.71,0,0,0,1.406-3.257V-66.36a3.737,3.737,0,0,0-1.44-3.36,8.169,8.169,0,0,0-4.457-.96h-1.1q-.48,0-.48-.96t.48-.96h19.4a.432.432,0,0,1,.446.24,1.92,1.92,0,0,1,.1.72q0,.96-.548.96H344.86a8.1,8.1,0,0,0-4.56.96,3.861,3.861,0,0,0-1.337,3.36v37.369a3.722,3.722,0,0,0,1.371,3.325,8.365,8.365,0,0,0,4.525.926h1.029a.432.432,0,0,1,.446.24,1.92,1.92,0,0,1,.1.72q0,.96-.548.96Zm87.559-5.485q.549,0,.549.48l-.069.411a7.513,7.513,0,0,1-3.085,4.183A7.637,7.637,0,0,1,407.53-22a4.714,4.714,0,0,1-3.428-1.337,7.262,7.262,0,0,1-1.92-3.531,16.532,16.532,0,0,1-5.691,3.737,17.485,17.485,0,0,1-6.445,1.268,10.315,10.315,0,0,1-6.411-1.851,6.027,6.027,0,0,1-2.434-5.074,8.452,8.452,0,0,1,1.1-4.388,9.654,9.654,0,0,1,3.565-3.291,20.9,20.9,0,0,1,3.977-1.646q2.4-.754,6.582-1.851l5.622-1.577v-2.948a25.047,25.047,0,0,0-.343-4.868,6.476,6.476,0,0,0-1.371-2.811q-1.508-1.851-5.142-1.851a5.385,5.385,0,0,0-3.84,1.234,9.441,9.441,0,0,0-2.194,3.771q-1.166,3.291-3.36,3.291a3.5,3.5,0,0,1-2.228-.789,2.536,2.536,0,0,1-.994-2.091,6.738,6.738,0,0,1,.926-3.051,8.5,8.5,0,0,1,3.771-3.223q2.846-1.474,8.125-1.474a16.26,16.26,0,0,1,5.862,1.063,8.568,8.568,0,0,1,3.943,2.64,8.658,8.658,0,0,1,1.406,2.983A15.611,15.611,0,0,1,406.981-46q0,3.223-.069,5.691l-.069,9.942q0,2.811,1.063,3.771a3.167,3.167,0,0,0,2.091.96,3.748,3.748,0,0,0,1.886-.583,4.764,4.764,0,0,0,1.68-1.748A.578.578,0,0,1,414.043-28.306Zm-21.53,3.154a12.08,12.08,0,0,0,4.937-1.131,12.522,12.522,0,0,0,4.388-3.257v-.206L401.976-39q-5.28,1.3-8.468,2.434a14.329,14.329,0,0,0-4.971,2.777,5.291,5.291,0,0,0-1.783,4.045,4.432,4.432,0,0,0,1.337,3.257Q389.428-25.152,392.514-25.152Zm61.093-31.2a5.725,5.725,0,0,1,3.5,1.063,3.236,3.236,0,0,1,1.44,2.708,2.656,2.656,0,0,1-.857,1.988,2.994,2.994,0,0,1-2.16.823,5.163,5.163,0,0,1-2.606-1.028q-1.028-.549-1.646-.823a3.34,3.34,0,0,0-1.371-.274,6.267,6.267,0,0,0-3.565,1.371,20.6,20.6,0,0,0-3.84,3.7l-.069,19.336a2.229,2.229,0,0,0,1.2,2.263,7.966,7.966,0,0,0,3.257.549h.891q.549,0,.549.96,0,.891-.549.891H432.419q-.48,0-.48-.891,0-.96.48-.96h.891a7.76,7.76,0,0,0,3.188-.549,2.229,2.229,0,0,0,1.2-2.263L437.493-48.6a3,3,0,0,0-.651-2.126,2.81,2.81,0,0,0-1.508-.857q-.857-.171-2.983-.446a.6.6,0,0,1-.514-.343,2.484,2.484,0,0,1-.1-.823.589.589,0,0,1,.343-.617q1.029-.411,10.422-2.606V-49.7a27.963,27.963,0,0,1,5.52-4.765A10.336,10.336,0,0,1,453.606-56.35Zm52.385,24.821a.62.62,0,0,1,.343.549,1.617,1.617,0,0,1-.206.686,14.718,14.718,0,0,1-4.765,5.9,13.565,13.565,0,0,1-8.468,2.537,17.613,17.613,0,0,1-8.4-2.023,14.929,14.929,0,0,1-6-5.794,17.135,17.135,0,0,1-2.194-8.776,21.175,21.175,0,0,1,1.783-8.5,16.693,16.693,0,0,1,5.314-6.788,13.73,13.73,0,0,1,8.536-2.674,13.015,13.015,0,0,1,9.8,3.908q3.771,3.908,4.525,10.7l-24.2.137q-.137,1.646-.137,2.537a16.435,16.435,0,0,0,1.68,7.851,10.953,10.953,0,0,0,4.388,4.594,12.2,12.2,0,0,0,5.931,1.474q6.582,0,10.833-6.171a.762.762,0,0,1,.617-.411A1.321,1.321,0,0,1,505.991-31.529ZM491.523-53.95a7.684,7.684,0,0,0-5.725,2.537,14.218,14.218,0,0,0-3.394,7.062l17.279-.137v-.686q-.206-4.525-2.5-6.651A8.017,8.017,0,0,0,491.523-53.95ZM560.09-28.306q.549,0,.549.48l-.069.411a7.513,7.513,0,0,1-3.085,4.183A7.638,7.638,0,0,1,553.576-22a4.714,4.714,0,0,1-3.428-1.337,7.261,7.261,0,0,1-1.92-3.531,16.532,16.532,0,0,1-5.691,3.737,17.485,17.485,0,0,1-6.445,1.268,10.315,10.315,0,0,1-6.411-1.851,6.027,6.027,0,0,1-2.434-5.074,8.451,8.451,0,0,1,1.1-4.388,9.655,9.655,0,0,1,3.565-3.291,20.9,20.9,0,0,1,3.977-1.646q2.4-.754,6.582-1.851l5.622-1.577v-2.948a25.045,25.045,0,0,0-.343-4.868,6.477,6.477,0,0,0-1.371-2.811q-1.508-1.851-5.142-1.851a5.385,5.385,0,0,0-3.84,1.234,9.441,9.441,0,0,0-2.194,3.771q-1.166,3.291-3.36,3.291a3.5,3.5,0,0,1-2.228-.789,2.536,2.536,0,0,1-.994-2.091,6.738,6.738,0,0,1,.926-3.051,8.5,8.5,0,0,1,3.771-3.223q2.845-1.474,8.125-1.474a16.26,16.26,0,0,1,5.862,1.063,8.568,8.568,0,0,1,3.943,2.64,8.66,8.66,0,0,1,1.406,2.983A15.611,15.611,0,0,1,553.027-46q0,3.223-.069,5.691l-.069,9.942q0,2.811,1.063,3.771a3.167,3.167,0,0,0,2.091.96,3.749,3.749,0,0,0,1.886-.583,4.763,4.763,0,0,0,1.68-1.748A.579.579,0,0,1,560.09-28.306Zm-21.53,3.154a12.08,12.08,0,0,0,4.937-1.131,12.522,12.522,0,0,0,4.388-3.257v-.206L548.022-39q-5.28,1.3-8.468,2.434a14.329,14.329,0,0,0-4.971,2.777,5.291,5.291,0,0,0-1.783,4.045,4.432,4.432,0,0,0,1.337,3.257Q535.474-25.152,538.56-25.152Z" transform="translate(14.2 72.6)" fill="#bba579"/>
  <line id="線_7" data-name="線 7" x2="750.5" transform="translate(0 67.079)" fill="none" stroke="#bba579" stroke-miterlimit="10" stroke-width="2"/>
  <line id="線_17" data-name="線 17" x2="554.5" transform="translate(20 66.686)" fill="none" stroke="#bba579" stroke-miterlimit="10" stroke-width="5"/>
</svg>
