<?xml version="1.0" encoding="UTF-8"?><svg id="_レイヤー_2" xmlns="http://www.w3.org/2000/svg" viewBox="0 0 140.68 59.54"><defs><style>.cls-1{fill:#ffe100;}.cls-2{fill:#231815;}</style></defs><g id="_レイヤー_1-2"><path class="cls-1" d="m29.05,18.54l-1.62,1.17-3.22-2.34,1.61-1.17-6.45-4.68-1.62,1.17-1.61-1.17-6.45,4.68,1.61,1.17-3.23,2.34-1.62-1.17L0,23.23l1.61,1.17-1.61,1.18,6.45,4.68,1.62-1.17,3.23,2.34-1.61,1.17,6.45,4.68,1.61-1.17,1.62,1.17,6.45-4.68-1.61-1.17,3.22-2.34,1.62,1.17,6.45-4.68-1.61-1.18,1.61-1.17-6.45-4.69Zm-11.3,8.21l-3.23-2.35,3.23-2.34,3.23,2.34-3.23,2.35Z"/><path class="cls-2" d="m78.65,23.76l-1.37-1.63h-8.12c.12-.35.23-.68.33-1h10.41v-2.86h-9.77c.23-1.72.08-2.69.08-2.69h-3.27c.04.92-.02,1.81-.16,2.69h-6.26v2.86h5.55c-1.79,5.19-5.67,8.91-5.67,8.91l2.63,2.04c1.97-2.24,3.4-4.33,4.45-6.24.57.99,1.38,1.92,2.3,2.77-2.64,1.72-5.3,2.65-5.3,2.65l2.23,2.2c2.13-.59,4.01-1.63,5.64-2.83,2.53,1.75,4.95,2.83,4.95,2.83l2.45-2.2c-2.07-1.02-3.68-1.94-4.93-2.74,2.48-2.43,3.85-4.75,3.85-4.75m-6.39,2.89c-1.58-1.35-1.79-2.07-1.79-2.07h3.5c-.46.75-1.04,1.44-1.71,2.07"/><path class="cls-2" d="m94.19,21.45l-2.37,1.91v-1.47c.91-1.04,1.55-1.82,1.77-2.31h5.68v-3.18h-18.36v3.18h8.2c-2.42,3.53-9.43,7.14-9.43,7.14l2.73,2.22c2.33-1.31,4.17-2.53,5.63-3.64v7.79h3.77v-9.18c2.48,2.91,5.77,4.9,5.77,4.9l2.63-2.37c-3.31-1.86-6.04-4.99-6.04-4.99"/><path class="cls-2" d="m44.01,15.64c-1.93,5.64-5.09,8.16-5.09,8.16l2.29,2.19,1.03-1.25-.02,8.53h3v-13.12c1.27-2.41,1.79-4.08,1.79-4.08l-3-.43Z"/><path class="cls-2" d="m54.16,27.13h4.51v-2.63h-4.51v-3.01h4.88v-2.61h-5.11l1.39-1.3c-.7-.76-4.45-2.25-4.45-2.25l-2.03,1.91c.69.27,2.11,1.06,3.15,1.64h-5.66v2.61h4.48v3.01h-4.52v2.63h4.52v2.99h-5.21v2.73h13.78v-2.73h-5.22v-2.99Z"/><path class="cls-2" d="m111.96,31.08v-.6c-.87.08-2.24.14-3.73.19v-.59h3.77v-1.91h-3.77v-.68h4.05v-6h-4.05v-.73h4.05v-1.91h-4.05v-.57c3.85-.04,4.36-.3,4.36-.3l-1.5-2.27c-3.82.82-10,.59-10,.59l.73,1.91c1.37.04,2.55.06,3.59.07v.57h-4.32v1.91h4.32v.73h-3.95v6h3.95v.68h-3.95v1.91h3.95v.68c-2.34.06-4.32.1-4.32.1l.86,1.99c3.45-.22,10-.59,10-.59v-1.09l-.04-.05s.02-.01.04-.04m-2.32-5.28h-1.33v-.62h1.33v.62Zm-1.38-2.68h1.34v.63h-1.34v-.63Zm-2.82,2.72h-1.34v-.61h1.34v.61Zm0-2.09h-1.34v-.63h1.34v.63Z"/><path class="cls-2" d="m120.87,18.89h-3.28c.02-1.98-.08-3.31-.08-3.31h-2.87c.07,1.19.1,2.29.1,3.31h-2.24l.28,2.87h1.87c-.45,6.78-2.39,9.01-2.7,9.32v.09l1.95,2.05c2.4-2.95,3.27-7.65,3.56-11.46h.72c.04,1.77-.14,7.41-.14,7.41,0,1.41-1.23,1.51-1.23,1.51h-1.27l1.59,2.41c4.18-.46,3.73-4.65,3.73-4.65v-9.55Z"/><path class="cls-2" d="m136.79,19.3h3.53v-2.69h-7.09v-1.04h-3.36v1.04h-7.13v2.69h3.39l.38,1.09h-3.72c.37,7.37-1.86,10.82-1.86,10.82l2.27,1.63c1.12-1.82,1.74-3.94,2.08-5.77l1.6,1.41c.22-.17.45-.4.68-.68v1.95h3.5v.68h-6.46v2.41h15.69v-2.41h-5.54v-.68h3.73v-2.39h-3.73v-.81h4.45v-2.44h-4.45v-1.09h-3.68v1.09h-1.34c.16-.33.25-.54.25-.54-.46-.31-1.13-.69-1.63-.96h12.36v-2.23h-4.28l.39-1.09Zm-11.37,6.81c.29-2.02.26-3.5.26-3.5h1.81c-.57,1.4-1.49,2.74-2.07,3.5m2.99.44h2.63v.81h-3.17c.18-.25.37-.53.54-.81m4.64-6.16h-3.17l-.34-1.09h3.86l-.34,1.09Z"/><path class="cls-2" d="m57.52,1.43h3.46c.07,0,.17-.02.17-.12,0-.06-.03-.1-.12-.16l-.66-.49c-.11-.09-.16-.12-.21-.12-.06,0-.09.03-.17.14l-.42.5h-1.89c-.32,0-1.02-.02-1.71-.08l.22.45c.54-.1,1.11-.1,1.31-.1"/><path class="cls-2" d="m60.86,4.29c.07,0,.17,0,.17-.11,0-.05-.03-.11-.12-.18l-.62-.47c-.12-.09-.17-.14-.22-.14-.07,0-.09.05-.17.15l-.35.48h-1.84c-.32,0-1.02-.01-1.71-.07l.22.43c.54-.1,1.11-.1,1.31-.1h3.32Z"/><path class="cls-2" d="m53.92,3.88c-.02,1.41-.03,2.99-.07,4.21,0,.29-.1,1.71-.1,2.03,0,.14.03.33.36.33.15,0,.57-.04.57-.61,0-1.09-.09-2.86-.09-3.96,0-.55.01-1.16.05-2.31.23-.24.26-.28.26-.36,0-.04-.04-.11-.13-.17l-.29-.17c.15-.27.37-.72.75-1.61.45-.18.5-.2.5-.31,0-.08-.06-.16-.13-.19l-1.14-.58c-.03.49-.03.55-.07.69-.2.91-1.35,3.73-2.51,5.42l.06.05c.91-.79,1.59-1.81,1.97-2.45"/><path class="cls-2" d="m61.16,9.88s0-.08-.02-.35c-.01-.15-.07-1.74-.08-2.05.13-.08.36-.21.36-.33,0-.06-.04-.1-.12-.17l-.38-.31c-.11-.09-.16-.11-.23-.11-.04,0-.09.03-.15.1l-.3.31h-3.25l-.95-.46c.04.22.09.48.09,1.33,0,.32-.08,1.74-.08,2.06,0,.11,0,.34.29.34.16,0,.47-.13.55-.28.05-.11.05-.22.04-.39h3.36c-.02.65-.02.79.31.79.07,0,.56-.03.56-.48m-.87-.58h-3.36v-2.06h3.36v2.06Z"/><path class="cls-2" d="m61.04,2.14l-.43.52h-3.82c-.2,0-.97-.01-1.72-.08l.22.45c.55-.1,1.18-.1,1.32-.1h5.45c.08,0,.18-.02.18-.13,0-.04-.02-.1-.11-.16l-.69-.52c-.12-.09-.16-.12-.21-.12-.06,0-.08.03-.17.14"/><path class="cls-2" d="m56.22,5.81c.54-.1,1.12-.1,1.32-.1h3.37c.08,0,.18-.01.18-.12,0-.06-.04-.11-.11-.17l-.64-.49c-.11-.09-.16-.11-.2-.11-.06,0-.12.04-.18.14l-.33.49h-1.91c-.33,0-1.03-.02-1.72-.08l.23.45Z"/><path class="cls-2" d="m68.22,10.19c1.78-1.23,2.14-2.64,2.28-3.57h2.47c0,.39-.01,1.4-.1,2.75-.01.1-.02.38-.02.47,0,.15.01.38.35.38.63,0,.63-.45.63-.68,0-.05,0-.21-.01-.37-.03-.92-.04-1.9-.04-2.55h2.66c-.01.17-.01,1.34-.01,1.57,0,.79,0,.88-.45.88-.36,0-.71-.03-1.07-.08l-.02.09c.27.12.84.39,1.05,1.14,1.31-.27,1.31-.91,1.31-1.58,0-.76-.03-4.49-.03-5.35,0-1.2,0-1.24.02-1.66.33-.19.47-.3.47-.43,0-.04-.04-.12-.11-.17l-.56-.4s-.12-.08-.18-.08c-.03,0-.08.03-.17.1l-.39.34h-5.47l-1.11-.52c.18,1.22.18,1.25.18,2.38,0,3.01-.08,5.7-1.75,7.25l.09.09Zm5.57-8.93h2.66v2.34h-2.66V1.26Zm0,2.61h2.65v2.48h-2.67l.02-2.48Zm-3.11-2.61h2.33v2.33h-2.33V1.26Zm0,2.61h2.33l-.02,2.48h-2.44c.08-.58.13-1.83.13-2.48"/><path class="cls-2" d="m87.17,7.9c0,.57.29.95.47,1.13.51.51,1.39.67,2.32.67.13,0,1.44,0,1.81-.24.08-.04.2-.14.2-.34,0-.36-.39-.46-.55-.46-.07,0-.17.02-.24.03-.71.16-1.2.22-1.6.22-.76,0-1.9-.21-1.9-1.25,0-.42.19-.92.56-1.26.53-.49,1.21-.79,2.32-1,.59-.11.79-.15.79-.48,0-.24-.19-.45-.53-.45-.33,0-.93.29-1.24.45-.15.08-.28.15-.4.15-.14,0-.27-.13-.34-.26-.07-.12-.09-.31-.09-.65,0-.22.01-.99.31-2.03.11-.39.15-.49.15-.69,0-.4-.3-.67-.84-.67-.46,0-.65.16-.86.33.41.03.74.07.74.76,0,.49-.07,1.04-.09,1.16-.02.2-.09.72-.09,1.2s.08,1.12.74,1.3c-.38.24-1.63,1.05-1.63,2.37"/><path class="cls-2" d="m108.72,9.2c-.39,0-.79-.02-1.18-.07v.07c.51.27.96.5,1.03,1.15,1.42-.23,1.42-.97,1.42-1.4,0-.18-.05-1.1-.05-1.3-.04-1.89-.02-4.41-.02-6.32.3-.18.4-.25.4-.36,0-.05-.06-.12-.12-.14l-1.19-.46c.12.37.18.87.18,1.36v7.07c0,.39-.16.39-.47.39"/><path class="cls-2" d="m107.09,7.35c0,.08-.02.47-.02.56,0,.21.11.3.27.3.41,0,.55-.28.55-.57,0-.1,0-.32,0-.46-.01-.63-.03-1.78-.03-2.4s0-2.22.03-2.77c.27-.19.33-.27.33-.36s-.05-.14-.11-.17l-1.08-.4c.12.54.12,1,.12,2.2,0,1.53-.02,2.9-.05,4.07"/><path class="cls-2" d="m102.19,7.85c.01.2.01.39.01.56,0,.26-.06,1.41-.06,1.64,0,.21.08.33.34.33.17,0,.37-.09.43-.27.02-.06.02-.15.02-.24h2.34c0,.19-.02.43.24.43.22,0,.54-.18.54-.46,0-.24-.03-1.25-.03-1.47.1-.08.22-.17.26-.2.03-.03.07-.08.07-.12s-.06-.11-.12-.16l-.4-.33c-.06-.04-.14-.11-.2-.11-.04,0-.1.05-.15.1l-.31.34h-2.2l-.68-.34c.08-.27.1-.41.15-.76h2.77c0,.22.07.33.24.33s.53-.11.53-.39c0-.24-.04-1.28-.04-1.49,0-.12,0-.28.01-.44.08-.06.21-.18.25-.2.03-.03.09-.08.09-.15,0-.07-.05-.13-.09-.16l-.45-.41c-.06-.04-.11-.09-.17-.09-.06,0-.12.06-.17.1l-.32.35h-2.49l-.97-.55c.12.5.15,1.24.15,1.79,0,1.76-.25,3.16-1.56,4.32l.02.06c.36-.19,1.43-.73,1.96-2m.74.29h2.36v1.45h-2.36v-1.45Zm-.38-3.65h2.66v.82h-2.67c0-.14,0-.55.01-.82m-.02,1.09h2.69v.93h-2.75c.02-.14.05-.36.07-.93"/><path class="cls-2" d="m102.11,2.91l.22.44c.54-.1,1.15-.1,1.32-.1h1.85c.09,0,.17-.02.17-.13,0-.08-.08-.15-.11-.18l-.61-.42c-.09-.07-.16-.11-.21-.11-.07,0-.12.06-.18.13l-.33.44h-.39c-.12,0-1.11-.02-1.71-.09.44-.36,1.2-1.03,1.83-1.98.29.12.72.35,1.58,1.36.45.54.5.59.73.59.27,0,.41-.17.41-.44,0-.7-1.42-1.35-2.53-1.6.19-.04.31-.09.31-.2,0-.07-.06-.12-.12-.15l-.93-.48c-.25.97-1.74,2.84-3.14,3.99l.03.09c.38-.18,1.02-.5,1.81-1.17"/><path class="cls-2" d="m125.58,6s-.03-.1-.07-.12l-.54-.39s-.08-.07-.14-.07c-.04,0-.1.05-.13.1l-.33.35h-2.3l-1.08-.51c.08.39.1,1.48.1,1.92,0,.2-.06,1.16-.06,1.29,0,.08,0,.29.28.29.06,0,.38-.06.48-.22.07-.12.07-.26.05-.47h2.65c-.02.35-.03.61.29.61.28,0,.56-.17.56-.5,0-.25-.1-1.62-.1-1.91.23-.17.32-.25.32-.35m-1.08,1.89h-2.65v-1.76h2.65v1.76Z"/><path class="cls-2" d="m121.63,4.46c-.15,0-.95-.01-1.71-.08l.22.44c.49-.09,1.03-.1,1.31-.1h5.18c.08,0,.17-.01.17-.11,0-.09-.05-.14-.11-.18l-.68-.56c-.06-.04-.15-.12-.21-.12s-.13.08-.18.15l-.43.56h-1.72c-.02-.52-.01-1.29,0-1.82h2.5c.08,0,.17-.03.17-.13,0-.08-.05-.12-.11-.17l-.63-.5c-.07-.06-.16-.11-.22-.11-.04,0-.11.07-.18.15l-.41.5h-1.12c0-.19.01-1.09.01-1.3.26-.16.36-.25.36-.32,0-.1-.08-.13-.16-.16l-1.19-.32c.16.41.22.9.22,2.11h-1.34c.15-.32.23-.52.39-.85.25-.09.3-.13.3-.22,0-.07-.05-.14-.13-.17l-1.01-.43c.02.09.02.14.02.28,0,1.02-.38,2.02-.76,2.98h.04c.56-.56.79-.92,1-1.32h1.5v1.82h-1.07Z"/><path class="cls-2" d="m118.28,5.36h.41v3.23c-.36.21-1.1.49-1.23.55-.19.07-.29.08-.67.12l.73.93s.08.09.13.09c.1,0,.11-.09.15-.33.1-.11.16-.17.72-.74.29-.29.56-.61.69-.78.93,1.76,2.53,1.77,7.1,1.75.11-.62.41-.94.75-1.19v-.05c-.11.01-.17.04-.69.16-.62.14-2.34.28-3.53.28-1.79,0-2.77-.2-3.2-.75-.23-.29-.23-.4-.23-1.47,0-.3,0-1.3.02-1.56.26-.17.39-.24.39-.33,0-.06-.06-.14-.1-.17l-.54-.4s-.09-.07-.13-.07c-.05,0-.1.04-.14.08l-.41.38c-.31,0-1.06-.02-1.78-.08l.22.45c.5-.1,1.04-.1,1.32-.1"/><path class="cls-2" d="m118.67,2.03c.27.71.3.79.58.79.2,0,.47-.12.47-.47,0-.68-.85-1.47-1.92-1.71l-.02.07c.16.13.59.49.88,1.32"/><rect class="cls-2" x="129.61" y="5.64" width="11.08" height=".3"/><rect class="cls-2" x="39.41" y="5.64" width="10.93" height=".3"/><path d="m42.98,59.32l-.36.21-2.56-4.72,2.56-4.72.36.21-2.45,4.5,2.45,4.5Z"/><path d="m47.89,54.96c.18.05.23.1.23.18,0,.14-.11.19-.31.28.06,1.98-1.05,3.71-3.9,3.83v-.05c1.77-.69,3.01-1.55,3.01-3.61,0-.44-.07-.72-.12-.95l1.08.31Zm3.25-.79l.4-.39c.07-.06.1-.09.15-.09.06,0,.15.07.18.09l.77.61s.11.12.11.2c0,.24-.59.23-.83.23-.02,0-.76.53-1.03.66l-.05-.04c.06-.12.29-.78.39-1.04h-5.59c.06.71-.31,1.42-.9,1.42-.38,0-.5-.34-.5-.53,0-.23.03-.26.46-.67.54-.5.61-.86.67-1.12h.06c.09.31.13.48.17.66h5.55Zm-.12-2.56l.4-.5c.08-.1.1-.12.15-.12s.06,0,.19.1l.64.5s.1.08.1.15c0,.09-.08.11-.15.11h-3.58v1.05h1.69l.36-.47c.08-.11.11-.12.15-.12s.05,0,.19.1l.61.47s.1.08.1.15c0,.09-.08.11-.15.11h-5.52c-.59,0-.81.02-1.05.06l-.16-.35c.59.05,1.28.06,1.38.06h1.59v-1.05h-2.34c-.6,0-.81.02-1.05.06l-.16-.35c.59.05,1.29.06,1.39.06h2.16c-.02-.85-.06-1.03-.17-1.36l1.19.34c.07.02.15.05.15.15,0,.18-.24.27-.34.32,0,.13,0,.21-.02.55h2.25Zm-1.1,3.29c.09.02.22.07.22.19,0,.1-.1.17-.32.29-.04.46-.08,1.05-.08,2.03,0,.61,0,.71.06.8.06.11.22.12.41.12,1.25,0,1.37,0,1.55-.61.09-.28.12-.4.27-1.08h.08c.16,1.25.17,1.37.34,1.49.27.19.3.21.3.34s-.15.5-.66.61c-.26.06-1.76.06-2.15.06-1.05,0-1.05-.78-1.05-1.15,0-.41,0-2.23,0-2.65,0-.47-.05-.58-.11-.72l1.13.29Z"/><path d="m62.4,58.6h-7.28c-.67,0-.86.03-1.05.06l-.16-.35c.46.04.93.06,1.38.06h2.4v-2.86h-1.69c-.67,0-.86.03-1.05.07l-.16-.36c.46.04.93.06,1.38.06h1.51v-2.59h-2.04c-.67,0-.86.04-1.05.07l-.16-.36c.46.04.93.06,1.38.06h4.47l.45-.52c.1-.12.11-.13.16-.13.03,0,.05.02.18.11l.73.52s.1.1.1.15c0,.11-.1.11-.15.11h-3.21v2.59h1.33l.45-.51c.1-.11.11-.12.16-.12.04,0,.05,0,.17.1l.68.51s.1.09.1.15c0,.1-.1.11-.15.11h-2.74v2.86h2.42l.49-.58c.09-.11.11-.13.15-.13.06,0,.09.03.18.12l.66.57s.11.09.11.15c0,.1-.1.11-.16.11Zm-4.12-6.52c-.36,0-.48-.27-.59-.55-.19-.42-.43-.76-.9-1.06v-.08c1.91.13,2,1.04,2,1.18,0,.13-.06.51-.51.51Z"/><path d="m66.09,54.82l-2.45-4.5.36-.21,2.56,4.72-2.56,4.72-.36-.21,2.45-4.5Z"/></g></svg>