<?xml version="1.0" encoding="UTF-8"?><svg id="_レイヤー_2" xmlns="http://www.w3.org/2000/svg" viewBox="0 0 72.76 44.18"><defs><style>.cls-1{fill:#d5007f;}.cls-2{fill:#231815;}.cls-3{fill:#103675;}</style></defs><g id="_レイヤー_1-2"><path d="m2.92,43.97l-.36.21-2.56-4.72,2.56-4.72.36.21-2.45,4.5,2.45,4.5Z"/><path d="m7.83,39.6c.18.05.23.1.23.18,0,.14-.11.19-.31.28.06,1.98-1.05,3.71-3.9,3.83v-.05c1.77-.69,3.01-1.55,3.01-3.61,0-.44-.07-.72-.12-.95l1.08.31Zm3.25-.79l.4-.39c.07-.06.1-.09.15-.09.06,0,.15.07.18.09l.77.61s.11.12.11.2c0,.24-.59.23-.83.23-.02,0-.76.53-1.03.66l-.05-.04c.06-.12.29-.78.39-1.04h-5.59c.06.71-.31,1.42-.9,1.42-.38,0-.5-.34-.5-.53,0-.23.03-.26.46-.67.54-.5.61-.86.67-1.12h.06c.09.31.13.48.17.66h5.55Zm-.12-2.56l.4-.5c.08-.1.1-.12.15-.12s.06,0,.19.1l.64.5s.1.08.1.15c0,.09-.08.11-.15.11h-3.58v1.05h1.69l.36-.47c.08-.11.11-.12.15-.12s.05,0,.19.1l.61.47s.1.08.1.15c0,.09-.08.11-.15.11h-5.52c-.59,0-.81.02-1.05.06l-.16-.35c.59.05,1.28.06,1.38.06h1.59v-1.05h-2.34c-.6,0-.81.02-1.05.06l-.16-.35c.59.05,1.29.06,1.39.06h2.17c-.02-.85-.06-1.03-.17-1.36l1.19.34c.07.02.15.05.15.15,0,.18-.24.27-.34.32,0,.13,0,.21-.02.55h2.25Zm-1.1,3.29c.09.02.22.07.22.19,0,.1-.1.17-.32.29-.04.46-.08,1.05-.08,2.03,0,.61,0,.71.06.8.06.11.22.12.41.12,1.25,0,1.37,0,1.55-.61.09-.28.12-.4.27-1.08h.08c.16,1.25.17,1.37.34,1.49.27.19.3.21.3.34s-.15.5-.66.61c-.26.06-1.76.06-2.15.06-1.05,0-1.05-.78-1.05-1.15,0-.41,0-2.23,0-2.65,0-.47-.05-.58-.11-.72l1.13.29Z"/><path d="m22.35,43.25h-7.28c-.67,0-.86.03-1.05.06l-.16-.35c.46.04.93.06,1.38.06h2.4v-2.86h-1.69c-.67,0-.86.03-1.05.07l-.16-.36c.46.04.93.06,1.38.06h1.51v-2.59h-2.04c-.67,0-.86.04-1.05.07l-.16-.36c.46.04.93.06,1.38.06h4.47l.45-.52c.1-.12.11-.13.16-.13.03,0,.05.02.18.11l.73.52s.1.1.1.15c0,.11-.1.11-.15.11h-3.21v2.59h1.33l.45-.51c.1-.11.11-.12.16-.12.04,0,.05,0,.17.1l.68.51s.1.09.1.15c0,.1-.1.11-.15.11h-2.74v2.86h2.42l.49-.58c.09-.11.11-.13.15-.13.06,0,.09.03.18.12l.66.57s.11.09.11.15c0,.1-.1.11-.16.11Zm-4.12-6.52c-.36,0-.48-.27-.59-.55-.19-.42-.43-.76-.9-1.06v-.08c1.91.13,2,1.04,2,1.18,0,.13-.06.51-.51.51Z"/><path d="m26.04,39.46l-2.45-4.5.36-.21,2.56,4.72-2.56,4.72-.36-.21,2.45-4.5Z"/><polygon class="cls-3" points="52.99 .17 46.96 .17 40.16 17.98 46.19 17.98 52.99 .17"/><polygon class="cls-3" points="44.38 .17 42.99 3.9 33.72 3.9 32.51 7.08 40.97 7.08 39.56 10.67 31.15 10.67 29.82 14.15 39.12 14.15 37.61 17.98 22.9 17.98 29.7 .17 44.38 .17"/><polygon class="cls-3" points="14.19 .17 7.34 .17 .51 17.98 7.36 17.98 8.68 14.57 6.05 7.14 13.42 2.19 14.19 .17"/><polygon class="cls-3" points="21.7 17.98 14.05 17.98 10.42 7.15 17.84 7.15 21.7 17.98"/><polygon class="cls-1" points="28.4 .17 20.78 .17 10.42 7.15 17.84 7.15 28.4 .17"/><path class="cls-3" d="m66.97,5.68s-.16.99-1.92,5.14c0,0-.41.92-.82,1.55,0,0-.86,1.45-2.97,1.59,0,0-1.42.13-2.92.01,0,0-1.97.07-1.54-1.75l.37-1.23s1.01-2.83,1.9-4.69c.89-1.86,2.25-2.08,2.89-2.2,0,0,1.88-.15,3.53-.02,0,0,1.82.05,1.47,1.59Zm-11.83,12.31h0c2.25.28,6.07.09,6.07.09,4.87-.08,6.75-2.47,6.75-2.47.97-.89,1.94-2.96,1.94-2.96,1.24-2.63,2.31-5.78,2.31-5.78.56-1.64.54-2.82.54-2.82.08-1.22-.67-2.2-.67-2.2-1.07-1.73-4.06-1.77-4.06-1.77-2.17-.2-6-.01-6-.01-3.71.1-5.54,1.79-5.54,1.79-1.76,1.41-2.7,3.82-2.7,3.82l-.98,2.3c-1.07,2.68-1.67,4.93-1.67,4.93,0,0-1.41,4.51,4.01,5.07"/><path class="cls-2" d="m2.94,27.84c-.15.19-.89,1.13-1.85,1.71l-.57-.56c1-.58,1.54-1.3,1.73-1.53l.69.38Zm4.97-3.44H.59v-.71h3.21v-.6h.84v.6h3.27v.71Zm-.82.53v2.32h-2.46v1.79c0,.32-.12.67-.69.67h-1.27l-.15-.74h1.08c.18,0,.26,0,.26-.19v-1.53H1.4v-2.32h5.7Zm-4.92.65v1.02h4.13v-1.02H2.17Zm5.2,3.94c-.92-.49-1.33-.92-1.95-1.69l.7-.38c.57.67,1.07,1.07,1.8,1.45l-.54.62Z"/><path class="cls-2" d="m22.5,23.33h6.73v.7h-2.95v1.83h2.63v.69h-2.63v2.18h3.22v.7h-7.25v-.7h3.18v-2.18h-2.61v-.69h2.61v-1.83h-2.93v-.7Z"/><path class="cls-2" d="m44.38,23.33h6.24v.58h-2.78v.28h3.09v1.51h-.82v-1h-2.27v1.39h-.74v-1.39h-2.25v1h-.8v-1.51h3.05v-.28h-2.71v-.58Zm6.82,5.22c-.06.67-.16,1.08-.68,1.08h-2.69c-.4,0-.75-.02-.75-.48v-.61h-1.89v.43h-.76v-2.74h6.1v2.14l.68.18Zm-6.01-.96v.41h1.89v-.41h-1.89Zm.04-.85v.4h1.85v-.4h-1.85Zm.02-1.75h1.52v.36h-1.52v-.36Zm0,.62h1.52v.37h-1.52v-.37Zm2.6,1.13v.4h1.9v-.4h-1.9Zm0,.85v.41h1.9v-.41h-1.9Zm0,.95v.25c0,.15,0,.2.19.2h2.09c.22,0,.27-.02.3-.45h-2.59Zm.36-3.56h1.56v.36h-1.56v-.36Zm0,.62h1.56v.37h-1.56v-.37Z"/><path class="cls-2" d="m68.32,29.12c-.66.15-2.36.36-2.97.41l-.11-.71c.29-.02.63-.04,1.31-.11v-1.9h-1.25v-.66h1.25v-.6h-.73v-.46c-.2.17-.3.24-.41.33l-.29-.73c.55-.32,1.16-.99,1.39-1.6h.88c.21.43.67.92,1.2,1.18l-.46.6c-.64-.4-1.06-1-1.15-1.12-.15.23-.4.62-.92,1.12h1.97v.67h-.75v.6h1.12v.66h-1.12v1.82c.59-.07.92-.14,1.12-.18l.02.51c1.22-.6,1.52-1.55,1.68-2.2h-1.47v-.7h1.57c0-.07.02-.14.02-.25v-.7h-.75c-.2.53-.31.68-.38.77l-.69-.32c.28-.36.62-1.17.69-2.1l.79.1c-.02.16-.05.37-.18.85h.52v-1.3h.79v1.3h1.45v.7h-1.45v.71c0,.11,0,.15-.02.24h1.62v.7h-1.54c.1.3.43,1.41,1.67,2.24l-.49.69c-.85-.7-1.31-1.35-1.61-2.11-.33.89-1,1.65-1.9,2.12l-.42-.57Zm-2.29-1.92c.09.39.1.47.2,1.18l-.63.08c-.02-.48-.13-.99-.19-1.2l.61-.06Zm2.33-.03c-.02.29-.15.85-.24,1.13l-.57-.09c.12-.41.18-1.04.19-1.11l.63.08Z"/></g></svg>