<?xml version="1.0" encoding="UTF-8"?>
<svg id="_レイヤー_2" data-name="レイヤー 2" xmlns="http://www.w3.org/2000/svg" viewBox="0 0 14.36 8.22">
  <defs>
    <style>
      .cls-1 {
        fill: #fff;
      }
    </style>
  </defs>
  <g id="_レイヤー_1-2" data-name="レイヤー 1">
    <g>
      <path class="cls-1" d="M12.81,7.44c0,.43,.35,.78,.78,.78s.78-.35,.78-.78-.35-.78-.78-.78-.78,.35-.78,.78m.09,0c0-.38,.31-.69,.69-.69s.69,.31,.69,.69-.31,.69-.69,.69-.69-.31-.69-.69"/>
      <path class="cls-1" d="M13.97,7.94h-.15l-.3-.47h-.13v.47h-.12v-1.03h.29c.09,0,.17,.02,.23,.07,.06,.05,.08,.11,.08,.2,0,.06-.02,.12-.06,.17-.04,.05-.1,.08-.17,.1l.33,.49m-.58-.57h.15c.06,0,.11-.02,.15-.05,.04-.03,.06-.08,.06-.13,0-.11-.07-.17-.21-.17h-.15v.35Z"/>
      <g>
        <path class="cls-1" d="M0,0V1.26c1.26,0,2.38,.31,3.14,.71,.76-.4,1.81-.71,3.07-.71s2.31,.31,3.07,.71c.76-.4,1.88-.71,3.14-.71v.71c-.74,0-1.65,.14-2.37,.45,.77,.52,1.51,1.29,1.51,2.28,0,1.3-1.09,2.29-2.29,2.29s-2.25-.99-2.25-2.29c0-.98,.71-1.76,1.47-2.28-.71-.31-1.55-.45-2.3-.45s-1.58,.14-2.3,.45c.77,.52,1.47,1.29,1.47,2.28,0,1.3-1.05,2.29-2.25,2.29S.84,6,.84,4.7c0-.98,.76-1.76,1.53-2.28-.71-.31-1.62-.45-2.37-.45v6.14H12.44V0H0Z"/>
        <path class="cls-1" d="M9.34,6.28c.68,0,1.53-.52,1.53-1.6,0-.83-.83-1.5-1.53-1.9-.7,.4-1.53,1.06-1.53,1.9,0,1.08,.84,1.6,1.53,1.6Z"/>
        <path class="cls-1" d="M3.13,6.29c.68,0,1.53-.52,1.53-1.6,0-.83-.83-1.5-1.53-1.9-.7,.4-1.53,1.07-1.53,1.9,0,1.07,.85,1.6,1.53,1.6Z"/>
      </g>
    </g>
  </g>
</svg>