<?xml version="1.0" encoding="UTF-8"?><svg id="_レイヤー_2" xmlns="http://www.w3.org/2000/svg" viewBox="0 0 281.02 31.78"><defs><style>.cls-1{stroke-width:0px;}</style></defs><g id="_レイヤー_1-2"><path class="cls-1" d="m2.59,10.68c2.56,0,6.02.94,6.02,3.4,0,.11,0,.84-.67.84-.42,0-.74-.25-1.44-.73-2.94-2.03-4.69-2.66-6.51-3.22.88-.17,1.58-.28,2.59-.28Zm2.98-7.6c3.47,0,6.3,1.26,6.3,3.4,0,.63-.31,1.16-.81,1.16-.31,0-.6-.21-1.23-.81-2.73-2.49-5.01-3.26-6.13-3.64.73-.07,1.19-.1,1.85-.1Zm20.51,6.58c-2.21,4.9-8.93,11.9-16,16.63-.95.63-1.26.88-2.52,2.1-.21.21-.38.28-.52.28-.95,0-2.38-1.71-2.52-1.93-.74-.88-.81-2.24-.74-3.36.77,1.09,2.14,2.21,2.77,2.21,2.07,0,12.95-8.3,19.32-16.07l.21.14Z"/><path class="cls-1" d="m39.87,29.86c6.27-4.34,8.93-13.72,8.93-15.58,0-.67-.31-.95-.74-1.33-6.02.7-7.18,1.05-8.51,1.61-.56.25-.8.35-1.02.35-.38,0-2.45-1.19-2.45-3.54,0-.35.07-.67.1-1.02.46.73,1.61,2.21,3.4,2.21,1.37,0,9.87-1.02,11.73-1.19,2.03-.18,4.06-.39,6.09-.53.7-.07.88-.1,1.33-.31.07-.04.35-.17.52-.17.42,0,2.24.67,2.94,1.26.28.21.35.56.35.84,0,.38-.14.77-.63.77-.46,0-2.31-.31-2.7-.35-2.35-.28-4.31-.31-5.25-.31-2.07,0-3.61.14-4.27.21.49.35,1.92,1.37,1.92,1.72,0,.17-.59.84-.67.98-.17.28-.28.67-.38,1.02-1.72,5.71-4.73,11.59-10.64,13.62l-.07-.24Zm5.95-24.99c2.66,0,4.62-.28,6.34-.77,1.23-.35,1.37-.39,1.75-.39.84,0,2.8.21,2.8,1.23,0,.63-.42.63-1.68.7-5.01.21-5.53.31-10.15.73h-.39c-.52,0-1.29,0-2.27-.81-.6-.49-.7-1.01-.7-1.89,1.68,1.16,3.15,1.19,4.31,1.19Z"/><path class="cls-1" d="m72.17,21.35c5.74-3.61,14.84-12.08,14.84-13.69,0-.42-.18-.53-1.72-1.33.6-.11,1.02-.18,1.51-.18.88,0,1.33.21,2.48,1.19.32.28.6.53.6.88,0,.31-.1.38-.91.88-.46.25-.73.52-1.4,1.16-1.05,1.05-3.4,3.36-4.13,4.03.98.52,1.33.73,1.33,1.08,0,.21-.31,1.02-.35,1.19-.14.88-.14,7.91-.14,9.31,0,.39.04,2.14.04,2.52s0,1.23-.77,1.23c-.67,0-1.19-.81-1.19-1.65,0-.28.18-1.58.21-1.85.14-1.65.35-4.38.35-5.99,0-1.05,0-3.92-.25-4.69-.03-.14-.07-.21-.17-.35-2.77,2.24-7.21,5.43-10.22,6.58l-.1-.31Z"/><path class="cls-1" d="m105.07,29.86c6.27-4.34,8.93-13.72,8.93-15.58,0-.67-.31-.95-.74-1.33-6.02.7-7.18,1.05-8.51,1.61-.56.25-.8.35-1.02.35-.38,0-2.45-1.19-2.45-3.54,0-.35.07-.67.1-1.02.46.73,1.61,2.21,3.4,2.21,1.37,0,9.87-1.02,11.73-1.19,2.03-.18,4.06-.39,6.09-.53.7-.07.88-.1,1.33-.31.07-.04.35-.17.52-.17.42,0,2.24.67,2.94,1.26.28.21.35.56.35.84,0,.38-.14.77-.63.77-.46,0-2.31-.31-2.7-.35-2.35-.28-4.31-.31-5.25-.31-2.07,0-3.61.14-4.27.21.49.35,1.92,1.37,1.92,1.72,0,.17-.59.84-.67.98-.17.28-.28.67-.38,1.02-1.72,5.71-4.73,11.59-10.64,13.62l-.07-.24Zm5.95-24.99c2.66,0,4.62-.28,6.34-.77,1.23-.35,1.37-.39,1.75-.39.84,0,2.8.21,2.8,1.23,0,.63-.42.63-1.68.7-5.01.21-5.53.31-10.15.73h-.39c-.52,0-1.29,0-2.27-.81-.6-.49-.7-1.01-.7-1.89,1.68,1.16,3.15,1.19,4.31,1.19Z"/><path class="cls-1" d="m142.1,29.72c8.72-3.82,14.18-12.67,15.02-17.85-2.7.21-12.71,1.16-14.28,2.17-.67.46-.73.49-.98.49-.91,0-3.29-2.03-3.29-3.89,0-.28.03-.56.17-1.08.84,1.33,2.14,2.27,3.78,2.27,1.3,0,12.99-.94,13.9-1.15.31-.07.63-.18,1.51-.95.21-.21.35-.28.49-.28.39,0,2.77,1.75,2.77,2.42,0,.35-.1.39-1.12.88-.7.35-.74.42-1.16,1.54-.31.77-3.05,7.42-8.12,11.59-2.49,2.07-5.43,3.54-8.61,4.1l-.07-.25Zm3.57-24.64c1.75,0,7.14-.56,8.54-1.05,1.12-.42,1.26-.46,1.61-.46.56,0,2.45.21,2.45,1.12s-.98.95-3.68,1.12c-1.65.1-9.63.95-10.43.95-.7,0-2.38-.77-2.66-3.33,1.58,1.33,2.1,1.65,4.17,1.65Z"/><path class="cls-1" d="m170.66,27.23c7.77-3.26,15.89-12.18,19.11-21.07-1.08.21-5.78,1.02-6.72,1.23-1.4.35-2.87.74-4.03,1.37-.49.28-.63.35-.84.35-.46,0-1.05-.84-1.47-1.44-.35-.49-.63-1.02-.63-1.68,0-.49.18-1.05.32-1.54.17.32.31.67.73,1.16.6.7.91.91,1.72.91,1.54,0,8.65-.98,9.7-1.4.42-.17.6-.28,1.4-.8.28-.21.38-.21.49-.21.35,0,2.73,1.82,2.73,2.38,0,.42-.21.49-1.33.84-.18.03-.28.28-.39.49-1.96,4.34-3.89,7-4.94,8.4,4.59,2.21,10.29,6.06,10.29,9.52,0,.25,0,1.37-1.05,1.37-.53,0-.77-.35-1.02-.77-2.31-3.82-4.66-6.93-8.65-9.56-2.17,2.77-7.28,9.03-15.37,10.75l-.07-.28Z"/><path class="cls-1" d="m221.97,3.75c-4.24,7.56-10.08,12.53-15.3,14.39l-.14-.28c6.97-4.38,11.59-10.64,13.55-15.33h-3.26c-.7,0-2.83.07-4.48.42l-.84-1.54c1.82.17,3.99.28,5.81.28h2.21l1.05-.7c.28-.17.38-.21.52-.21.25,0,.46.21.7.42l1.12,1.05c.21.21.42.42.42.7,0,.46-.35.56-1.37.81Zm16.1,26.71h-24.68c-.7,0-2.84.07-4.48.42l-.84-1.5c1.82.14,3.99.25,5.81.25h11.03c.63-1.61,1.3-3.99,1.3-5.04,0-.14,0-.35-.07-.7h-8.33c.63.35,3.22,2.14,3.22,3.96,0,.73-.67,1.29-1.33,1.29-.88,0-.98-.6-1.23-2.35-.21-1.29-.32-1.75-.91-2.7l.21-.21h-.81c-.25.95-1.23.95-1.33.95-.42,0-.6-.18-.6-.7,0-.18,0-.46.04-.6.07-.91.07-2.24.07-3.19,0-1.12,0-2.42-.25-4.27l2.1,1.08h11.52l.73-.6c.28-.25.32-.28.42-.28s.31.14.42.21l1.29.94c.14.11.31.32.31.53,0,.14-.03.31-.21.46-.1.07-.7.35-.84.42,0,.52,0,.98.07,2.28,0,.31.1,1.82.1,2.17,0,1.19-1.29,1.26-1.4,1.26-.42,0-.63-.25-.63-.67h-2.21l2.21,1.26c.07.03.42.28.42.49,0,.32-.25.46-1.09.84-.03.04-.17.25-.28.35-.67.77-1.72,2.03-2.38,2.8h8.47l1.58-1.61c.35-.38.39-.42.53-.42.25,0,.46.21.59.35l1.65,1.61c.07.1.31.32.31.53,0,.38-.39.38-.52.38Zm-23.17-21.25c-.67,0-.8-.35-1.36-1.61-.88-2.03-1.44-2.7-1.93-3.29l.25-.18c1.08.53,2.1,1.23,3.04,2,.53.42,1.16.98,1.16,1.86s-.7,1.23-1.16,1.23Zm14.07,4.45h-6.65c-1.23,0-3.19.18-4.52.42l-.8-1.5c2.62.21,5.15.25,5.81.25h2.98l1.09-1.12c.35-.39.38-.42.52-.42.21,0,.49.21.63.35l1.09,1.12c.28.32.38.35.38.56,0,.35-.42.35-.52.35Zm-.18,4.34h-11.8v5.04h11.8v-5.04Zm7.67-2.63c-5.18-3.05-10.01-7-12.39-15.16l.42-.21c.6,1.82,1.33,3.57,2.8,5.53.88-.91,2.83-3.36,3.12-5.04l2.17,1.61c.17.1.38.35.38.56,0,.46-.56.46-1.4.46-1.93,1.4-2.98,2.14-4.03,2.73,1.15,1.47,1.82,2.1,2.62,2.84,1.93-1.82,3.33-4.17,3.68-5.08l2.17,1.61c.6.42.6.49.6.67,0,.42-.49.42-.67.42-.39,0-.63-.04-1.02-.1-2.1,1.33-3.08,1.96-4.48,2.73,1.89,1.58,5.25,3.85,9.56,4.13v.24c-1.58.49-2.8.84-3.54,2.07Z"/><path class="cls-1" d="m276.47,11.1c.03.46.03.88.07,4.48,0,.56.21,4.76.21,4.9,0,.53-.03.88-.28,1.16-.35.31-.95.56-1.44.56-.42,0-.77-.31-.77-.81,0-.07.1-.91.14-1.08h-17.78c-.46,2.8-1.44,7.84-7.6,11.48l-.1-.14c3.89-3.85,6.13-8.16,6.13-17.19,0-2.73-.21-4.83-.63-6.65l3.19,1.54h16.28l.98-1.05c.31-.35.39-.35.52-.35.1,0,.42.18.56.28l1.68,1.05c.21.1.32.25.32.53,0,.38-.25.52-1.47,1.29Zm4.03-6.79h-25.06c-1.23,0-3.19.14-4.52.42l-.81-1.54c2.63.25,5.15.28,5.81.28h19.88l1.58-1.68c.35-.38.38-.46.52-.46.17,0,.52.25.67.39l2.1,1.68c.14.14.35.28.35.52,0,.35-.31.39-.52.39Zm-6.09,5.88h-17.33c0,5.01-.07,7.11-.31,9.28h17.64v-9.28Z"/></g></svg>