<svg id="area01-03-txt" xmlns="http://www.w3.org/2000/svg" width="580.65" height="59.39" viewBox="0 0 580.65 59.39">
  <g id="グループ_26" data-name="グループ 26">
    <g id="グループ_21" data-name="グループ 21">
      <path id="パス_233" data-name="パス 233" d="M27.86,4.62c0-1.26-.24-1.38-2.22-2.31a2.227,2.227,0,0,1,1.5-.45c1.56,0,2.82,1.08,2.82,1.8,0,.06-.15.69-.3,1.32S29.42,6.3,29.3,7.2a32.275,32.275,0,0,0,4.68-1.38,3.046,3.046,0,0,1,.75-.18c.54,0,1.62.54,1.62.96,0,.36-.39.54-.54.6a32.565,32.565,0,0,1-6.66,1.5c-.09,1.26-.12,3.12-.09,4.8a26.329,26.329,0,0,0,3.96-1.23,1.821,1.821,0,0,1,.54-.15c.54,0,1.56.36,1.56.87,0,.42-.36.63-.66.75-.54.18-3.27.75-5.37,1.14.06,1.23.33,5.37.42,6.87,3.42.81,6.39,2.25,6.39,3.72a.761.761,0,0,1-.66.84c-.24,0-.36-.09-1.38-.78a17.551,17.551,0,0,0-4.23-1.98,3.223,3.223,0,0,1-1.17,2.76,6.622,6.622,0,0,1-3.66,1.02c-3.06,0-5.07-1.5-5.07-2.97a2.464,2.464,0,0,1,1.5-2.07,12.365,12.365,0,0,1,5.13-.93c.69,0,1.14.03,1.59.06-.03-.99-.27-5.4-.3-6.3a33.3,33.3,0,0,1-4.53.36c-1.8,0-2.91-.33-2.91-1.38a1.784,1.784,0,0,1,1.47-1.47,1.556,1.556,0,0,0-.48.93c0,.57.63.66,2.16.66a24.408,24.408,0,0,0,4.26-.42c0-1.65.03-2.52.12-4.92-1.2.12-5.19.54-6.06.54-.78,0-3.15-.21-3.96-2.01a9.443,9.443,0,0,0,3.87.75,48.684,48.684,0,0,0,6.18-.66c0-.45.09-2.46.09-2.88ZM24.71,22.71c-1.98,0-3.96.51-3.96,1.71,0,.87,1.32,1.56,3.6,1.56,1.26,0,3.93-.36,3.6-2.97A12.949,12.949,0,0,0,24.71,22.71Z"/>
      <path id="パス_234" data-name="パス 234" d="M54.38,13.35c-.42.84-3.6,7.38-3.72,7.68a3.629,3.629,0,0,0-.21,1.11c0,.21.21,1.17.21,1.38a.657.657,0,0,1-.75.66c-.54,0-3.75-.24-5.25-6.54-.27-1.08-.27-1.59-.6-6.24-.18-2.43-.27-3.18-1.44-5.01,1.59.06,3.33,1.77,3.33,3.09a4.913,4.913,0,0,1-.18,1.29,14.211,14.211,0,0,0-.21,2.55c0,1.68.39,5.91,2.25,7.38a1.354,1.354,0,0,0,.66.33.882.882,0,0,0,.72-.45c2.22-3.48,2.46-3.81,4.62-6.96a4.542,4.542,0,0,1,.27-.42l.3.15Zm6.81,3.66c.42-.06,2.37-.36,2.76-.42a.773.773,0,0,0,.78-.75c0-.69-1.32-5.52-5.55-7.11a2.793,2.793,0,0,1,.93-.18,5.136,5.136,0,0,1,3.42,1.86,12.58,12.58,0,0,1,3.24,7.08c0,.9-.39,1.8-.84,1.8-.21,0-.3-.06-1.05-.69-1.02-.87-1.68-.99-3.69-1.38v-.21Z"/>
      <path id="パス_235" data-name="パス 235" d="M78.47,15.33c-.21,1.02-1.17,5.49-1.35,6.42a9.737,9.737,0,0,0-.24,1.74c0,.33.18,1.86.18,2.19a.676.676,0,0,1-.72.72c-1.29,0-2.37-3.33-2.37-7.26a31.818,31.818,0,0,1,.6-6.24c.21-1.11,1.02-5.16,1.02-6.06a2.582,2.582,0,0,0-1.17-2.4,1.264,1.264,0,0,1,.54-.12,2.959,2.959,0,0,1,2.7,2.37,2.7,2.7,0,0,1-.3,1.05,29.09,29.09,0,0,0-2.19,10.44c0,.45.09,3.72.6,3.72.12,0,.18-.12.21-.21.6-1.8,1.62-4.68,2.25-6.48l.24.12ZM94.16,8.88a3.372,3.372,0,0,1,.72-.18c.6,0,1.44.33,1.44.9,0,.36-.33.51-.54.6a41.362,41.362,0,0,1-4.8.78c.06,1.53.45,8.28.51,9.66,2.19.81,5.13,2.07,5.13,3.69a.623.623,0,0,1-.66.63c-.39,0-.69-.03-2.16-1.14a10.9,10.9,0,0,0-2.43-1.47c-.48,1.38-1.17,3.3-4.77,3.3-2.49,0-4.65-1.23-4.65-2.94,0-.63.39-2.82,4.98-2.82a12.361,12.361,0,0,1,3.21.36V19.5c0-2.79-.27-6.33-.33-8.37-.6.06-2.4.24-3.21.24-1.47,0-3.96-.48-4.71-2.13a7.191,7.191,0,0,0,3.3.9c.81,0,2.55-.12,4.56-.36-.15-4.5-.15-4.77-.27-5.28-.18-.66-.72-.81-1.95-1.14,1.23-.54,1.35-.6,1.65-.6.51,0,2.37.66,2.37,1.56a2.847,2.847,0,0,1-.21.96,14.839,14.839,0,0,0-.39,4.32,25.9,25.9,0,0,0,3.21-.72ZM86.48,21c-1.74,0-3.51.72-3.51,1.83s1.77,1.47,3.3,1.47c3.09,0,3.51-1.83,3.66-2.61A7.475,7.475,0,0,0,86.48,21ZM96.92,7.35c0,.12-.06.66-.54.66-.3,0-.54-.24-1.02-.9a42.1,42.1,0,0,0-3.21-3.42C94.01,3.87,96.92,5.37,96.92,7.35Zm2.82-1.98c0,.36-.15.72-.57.72-.39,0-.66-.33-1.26-1.11a16.635,16.635,0,0,0-3.57-3.15c2.34-.15,5.4,1.8,5.4,3.54Z"/>
      <path id="パス_236" data-name="パス 236" d="M111.59,28.74c5.1-3.39,5.7-6.45,6-8.4a3.417,3.417,0,0,1-1.77.63c-1.41,0-3.54-2.04-3.54-4.65a3.759,3.759,0,0,1,3.57-3.84,4.2,4.2,0,0,1,1.8.48c0-.48-.03-.66-.03-.87V9.36a32.777,32.777,0,0,0-10.14,2.16,9.362,9.362,0,0,1-1.17.45,3.679,3.679,0,0,1-2.34-2.82,2.3,2.3,0,0,1,.09-.66c.87,1.14,1.47,1.44,2.22,1.44a12.511,12.511,0,0,0,1.65-.24c1.38-.24,6.81-1.08,9.69-1.32-.03-.84-.09-4.05-.42-4.62a3.623,3.623,0,0,0-1.98-1.47,2.894,2.894,0,0,1,1.41-.48,5.115,5.115,0,0,1,2.22.9.921.921,0,0,1,.48.81,7.958,7.958,0,0,1-.18.9,32.113,32.113,0,0,0-.3,3.87c1.14-.09,6.21-.27,7.23-.36.21-.03,1.26-.12,1.35-.12,1.17,0,2.13.84,2.13,1.32,0,.36-.39.57-.72.57a1.4,1.4,0,0,1-.51-.09,27.366,27.366,0,0,0-5.55-.48c-1.32,0-2.67.06-3.99.15-.06,1.32-.06,2.4-.06,2.91,0,.6,0,1.05.03,1.83a7.713,7.713,0,0,1,.96,4.02,11.125,11.125,0,0,1-4.17,8.76,13.941,13.941,0,0,1-3.87,2.13l-.09-.18Zm1.65-12.51a3.252,3.252,0,0,0,2.73,3.27c1.65,0,1.65-2.22,1.65-2.55,0-2.4-.84-3.3-2.31-3.3a2.524,2.524,0,0,0-2.07,2.58Z"/>
      <path id="パス_237" data-name="パス 237" d="M141.86,13.68c-.18.75-.45,2.01-1.14,4.47-.96,3.42-1.02,3.9-1.02,4.59,0,.18.03,1.02.03,1.17,0,.3-.15.9-.69.9-2.37,0-2.49-5.07-2.49-6.63a35.024,35.024,0,0,1,.51-5.85c.15-.99.75-4.74.75-5.49a5.854,5.854,0,0,0-.72-2.97c1.35.03,2.64,1.8,2.64,3.09a5.865,5.865,0,0,1-.3,1.41c-1.2,4.38-1.74,6.36-1.74,9.33,0,1.2.21,3.3.66,3.3.18,0,.33-.3.39-.48,1.14-2.79,1.29-3.15,2.64-6.54.06-.15.15-.36.18-.42l.3.12Zm5.28,14.91c5.7-3.87,5.76-8.94,5.58-17.43a25.318,25.318,0,0,1-3.36.39,9.481,9.481,0,0,1-2.61-.36,3.553,3.553,0,0,1-1.89-1.2,15.36,15.36,0,0,0,3.42.33,23.461,23.461,0,0,0,4.41-.51c-.24-6.12-.78-6.33-2.85-6.87a2.3,2.3,0,0,1,1.53-.66c.33,0,2.79.48,2.79,1.86,0,.15-.06.84-.06.99-.03.39-.06,1.2-.06,2.22s.03,1.8.06,2.19c2.25-.51,2.67-.6,3.75-.9a3.016,3.016,0,0,1,.75-.12c.75,0,1.47.51,1.47.99,0,.27-.39.45-.63.54-.39.12-4.47.75-5.31.9.03.27.03.57.09,1.41.06,1.08.18,3.33.18,4.98,0,4.86-1.5,8.76-7.14,11.49l-.12-.24Z"/>
      <path id="パス_238" data-name="パス 238" d="M170.9,25.08c2.7-.12,7.44-1.02,9.72-2.43a6,6,0,0,0,3.12-4.95c0-2.43-2.1-4.41-5.04-4.41-3.12,0-7.2,2.16-10.02,4.59-.78.66-.87.75-1.05.75a2.643,2.643,0,0,1-1.92-2.31,1.662,1.662,0,0,1,.18-.81c.39.42.9.96,1.47.96.42,0,.75-.15,1.65-.69,2.94-1.77,6.09-3.27,9.54-3.27,4.59,0,6.72,2.58,6.72,5.46,0,4.17-4.38,7.8-14.37,7.5v-.39Z"/>
      <path id="パス_239" data-name="パス 239" d="M204.68,10.5c.51-.18.81-.36.81-.84a2.627,2.627,0,0,0-.18-.84,2.465,2.465,0,0,1,2.28,2.4c0,.63-.15.63-1.05.75-3.96.54-13.62,4.47-13.62,9.3a2.721,2.721,0,0,0,.72,1.89c1.2,1.38,5.37,1.38,6.18,1.38a25.655,25.655,0,0,0,6.03-.69,6.534,6.534,0,0,1,1.08-.09c.78,0,1.86.3,1.86.99,0,.45-.48.72-1.44.93a34.284,34.284,0,0,1-5.01.33,29.917,29.917,0,0,1-6.84-.66,4.28,4.28,0,0,1-3.54-4.02c0-2.34,1.89-5.19,5.82-7.56a5.627,5.627,0,0,1-1.17-3.24c-.15-5.1-.18-5.64-.24-6.12a2.488,2.488,0,0,0-.75-1.47,11.684,11.684,0,0,0-1.17-.96,3.172,3.172,0,0,1,4.11,1.86,4.248,4.248,0,0,1-.12.6,12.858,12.858,0,0,0-.48,3.69,13.314,13.314,0,0,0,.84,5.04,46.908,46.908,0,0,1,5.88-2.67Z"/>
      <path id="パス_240" data-name="パス 240" d="M228.29,17.64c-.18.15-.42.33-.57.48-.12,3.75-.48,5.52-2.91,5.82-.24-.87-.6-1.29-1.8-1.83l.06-.18c.33.03,1.83.12,1.95.12.96,0,.99-.3,1.2-2.22a12.049,12.049,0,0,0,.06-2.25h-3.81c0,1.59,0,5.91.09,8.49,0,.24.09,1.32.09,1.53a1.172,1.172,0,0,1-1.05,1.29.622.622,0,0,1-.69-.66c0-.24.09-1.08.09-1.23V25.32c0-1.83.03-3.63.06-5.43a23.925,23.925,0,0,1-7.05,7.05l-.09-.18a34.7,34.7,0,0,0,6.84-9.18h-3.27a12.936,12.936,0,0,1-.36,1.95,1.156,1.156,0,0,1-1.02.78.667.667,0,0,1-.69-.63c0-.12.54-2.28.63-2.67a31.819,31.819,0,0,0,.87-6l1.74,1.38h2.4V8.46h-1.29a23.453,23.453,0,0,0-3.84.36l-.72-1.29c1.68.12,3.33.21,4.98.21h2.76a15.283,15.283,0,0,0,1.32-3.12,7.972,7.972,0,0,0,.6-2.82l2.07.99c.18.09.42.21.42.45,0,.45-.69.57-1.05.6a40.246,40.246,0,0,1-2.88,3.9h2.07l.57-.48a.7.7,0,0,1,.39-.24.891.891,0,0,1,.39.18l.81.6a.605.605,0,0,1,.33.45c0,.24-.45.48-.87.69.06.51.18,3.84.18,4.41,0,.69-.57.9-1.17.9-.51,0-.51-.09-.48-1.14h-3.18v3.75h3.42l.63-.69c.09-.12.27-.33.42-.33s.3.15.48.33l.72.66c.12.12.33.36.33.51a.4.4,0,0,1-.18.3ZM219.38,6.69c-.69,0-.78-.42-1.05-1.53a5.886,5.886,0,0,0-1.71-3.15l.12-.15c.81.36,3.57,1.77,3.57,3.75C220.31,6.06,220.13,6.69,219.38,6.69Zm1.68,6.42h-2.73c-.36,1.56-.45,2.13-.72,3.75h3.45V13.11Zm4.59-4.65h-3.18v3.93h3.18Zm2.55,18.36a.773.773,0,0,1-.78-.84,8.028,8.028,0,0,1,.72-1.95,3.2,3.2,0,0,0,.33-1.74l.12-.06a4.492,4.492,0,0,1,.9,2.64C229.49,26.19,228.83,26.82,228.2,26.82Zm13.38-10.44H230.99V19.2h7.62l.69-.72c.12-.12.24-.24.36-.24a.93.93,0,0,1,.51.27l.9.69c.18.12.48.36.48.54s-.3.36-.99.72c-.39,3.99-1.23,6.06-1.86,6.84a4.742,4.742,0,0,1-3.57,1.5,4.418,4.418,0,0,0-1.56-2.37l.12-.15a10.322,10.322,0,0,0,2.7.48c2.1,0,2.43-4.26,2.61-6.84h-8.01c0,.45.03,1.14-.96,1.14-.6,0-.72-.27-.72-.57,0-.45.06-2.46.06-2.88.03-3.45.09-8.49.09-11.79a14.626,14.626,0,0,0-.18-2.34l1.95,1.26h1.17a9.808,9.808,0,0,0,.63-3.66l1.86.9c.51.24.54.39.54.51,0,.33-.39.36-.87.33a14.561,14.561,0,0,1-1.65,1.92h4.35l.63-.66c.18-.18.33-.33.45-.33a.659.659,0,0,1,.36.15l1.11.81c.12.09.21.15.21.33,0,.3-.36.48-1.05.87.06.63.12,2.76.15,3.75.03.78.21,2.34.21,2.88a1.105,1.105,0,0,1-1.14,1.11c-.63,0-.66-.3-.66-.93h-6.54v2.94h7.59l.78-1.02c.09-.12.33-.36.48-.36a1.306,1.306,0,0,1,.57.3l1.32,1.05c.15.12.3.24.3.45,0,.27-.24.3-.45.3Zm-9.93,9.72c-.6,0-.75-.42-.75-.81,0-.21.09-1.2.09-1.41a4.224,4.224,0,0,0-.27-1.59l.15-.06a3.581,3.581,0,0,1,1.68,2.79.957.957,0,0,1-.9,1.08Zm5.88-20.64h-6.54V8.4h6.54V5.46Zm0,3.66h-6.54V12h6.54Zm-3.42,15.75c-.57,0-.6-.3-.63-1.2a9.79,9.79,0,0,0-.18-1.5,1.5,1.5,0,0,0-.27-.75l.12-.06c1.62,1.14,1.74,2.19,1.74,2.67A.776.776,0,0,1,234.11,24.87Zm2.61-1.17c-.6,0-.63-.18-.96-1.56a1.95,1.95,0,0,0-.66-1.2l.06-.15c1.77.45,2.19,1.59,2.19,2.1,0,.18-.09.81-.63.81Z"/>
      <path id="パス_241" data-name="パス 241" d="M261.14,25.56c8.97-3.09,9.39-9.54,9.39-11.1,0-5.25-4.98-8.07-9.39-8.07a3.023,3.023,0,0,0-1.11.15c1.47,1.23,1.47,2.13,1.47,2.28,0,.36-.09.48-.72,1.8-3.66,7.68-3.99,8.43-5.7,10.98-.15.21-1.11,1.62-1.71,1.86a1.3,1.3,0,0,1-.57.12c-.69,0-.9-.33-1.74-1.53a4.08,4.08,0,0,0-.81-.81c-1.17-.96-1.56-2.01-1.56-4.05,0-6.03,5.07-11.7,12.75-11.7,5.49,0,10.92,3.12,10.92,9.33,0,5.49-4.41,10.41-11.16,11.07Zm-3.39-11.67a14.49,14.49,0,0,0,1.77-5.22,2.793,2.793,0,0,0-.84-1.92c-3.36.27-8.43,4.71-8.43,10.59,0,2.28,1.44,4.29,2.61,4.29a.756.756,0,0,0,.57-.21,11.85,11.85,0,0,0,1.74-2.64l2.58-4.89Z"/>
      <path id="パス_242" data-name="パス 242" d="M303.59,23.94a24.433,24.433,0,0,1-6.51-6.36,24.633,24.633,0,0,1-3.93-7.89h-.24c0,4.65.06,9.27.21,13.92.03.57.18,3.12.18,3.57a1.519,1.519,0,0,1-1.44,1.44c-.84,0-.84-.54-.84-.75,0-.42.21-2.28.21-2.64.12-2.64.09-3.75.18-13.8a30.585,30.585,0,0,1-6.12,8.49,28.727,28.727,0,0,1-6.15,4.62l-.12-.24c5.04-4.32,9.27-9.69,11.4-14.61h-6.54a24.971,24.971,0,0,0-3.87.33l-.69-1.29c2.25.18,4.41.24,4.98.24h7.11a47.939,47.939,0,0,0-.36-6.03,8.617,8.617,0,0,0-.51-1.77l3.15.78c.27.06.33.21.33.36,0,.39-.15.48-1.05,1.02-.06.9-.03,4.83-.06,5.64h8.52l1.2-1.44c.09-.12.33-.36.48-.36.18,0,.39.21.57.36l1.5,1.38a.668.668,0,0,1,.3.45c0,.27-.27.33-.45.33H293.51a24.12,24.12,0,0,0,7.65,9.54,18.452,18.452,0,0,0,5.76,2.76v.24a4.008,4.008,0,0,0-3.33,1.71Z"/>
      <path id="パス_243" data-name="パス 243" d="M323.09,26.4H311.18v-.81c1.74-3.72,4.08-6.21,6.78-8.97,1.89-1.92,4.08-4.32,4.08-7.62,0-1.56-.54-4.14-3.96-4.14-2.61,0-3.87,1.41-3.87,2.37a2.113,2.113,0,0,0,.27.9,2.986,2.986,0,0,1,.36,1.38,1.387,1.387,0,0,1-1.47,1.53c-1.05,0-1.38-.75-1.38-1.68,0-2.73,2.55-5.4,6.51-5.4,3.57,0,5.85,2.16,5.85,5.55,0,2.01-.72,3.21-2.22,4.92-.72.84-4.41,4.05-5.13,4.74a25.54,25.54,0,0,0-4.02,5.22h6c3.54,0,4.47-2.58,5.01-4.05l.57.15-1.47,5.91Z"/>
      <path id="パス_244" data-name="パス 244" d="M356.42,4.92H344.48c0,.39.09,8.85.09,9.09v7.68c0,4.44,0,4.59-.93,5.4a4.7,4.7,0,0,1-2.76,1.02c-.09-.96-.15-1.44-3.75-3.09l.09-.21c.42.06,3.15.33,4.08.33,1.5,0,1.53-.36,1.53-2.49V4.92h-8.34a23.453,23.453,0,0,0-3.84.36l-.72-1.29c1.65.12,3.33.21,4.98.21h17.31l1.38-1.62c.15-.18.36-.36.48-.36a1.41,1.41,0,0,1,.54.3l1.95,1.62c.15.15.3.3.3.48,0,.27-.27.3-.45.3Z"/>
      <path id="パス_245" data-name="パス 245" d="M380.69,5.46c-.03.54-.06,1.38-.06,3.33,0,4.68.15,9.36.3,14.04,0,.48.09,2.82.09,3.03a1.4,1.4,0,0,1-1.47,1.35c-.63,0-.57-.51-.54-1.11H367.22c.06.69.06.78-.06.96a1.549,1.549,0,0,1-1.23.69c-.63,0-.63-.45-.63-.66,0-.54.12-2.94.12-3.42.12-3.84.15-7.65.15-11.49a57.644,57.644,0,0,0-.51-9.63l2.82,1.2h10.5l.75-.75a.773.773,0,0,1,.57-.3,1.015,1.015,0,0,1,.48.21l1.29.96c.36.27.39.42.39.54,0,.21,0,.33-1.17,1.05Zm-1.68-.99H367.22v6.42h11.79Zm0,7.14H367.22v6.45h11.79V11.61Zm0,7.17H367.22v6.6h11.79Z"/>
      <path id="パス_246" data-name="パス 246" d="M415.49,6.48H394.28c.12,9.51.18,17.37-4.71,21.84l-.18-.15c2.4-3.51,3.33-8.04,3.33-17.31a23.825,23.825,0,0,0-.57-6.39l2.46,1.29h7.29c0-2.58-.09-3.09-.66-4.47l2.88.6c.09.03.54.15.54.42a.6.6,0,0,1-.3.48c-.21.15-.36.24-.78.51V5.76h8.46l1.11-1.2c.3-.33.33-.36.48-.36a1.494,1.494,0,0,1,.57.3l1.44,1.2a.643.643,0,0,1,.3.48c0,.27-.24.3-.45.3Zm-1.44,6.21h-9.18V18.3h5.43l.72-.84c.3-.36.36-.39.48-.39a1.881,1.881,0,0,1,.57.36l.96.72c.24.18.48.36.48.51,0,.21-.72.63-1.11.9,0,.33.03,6,.12,7.14.03.39.06.63.06.78a1.194,1.194,0,0,1-1.17,1.32c-.6,0-.66-.33-.66-.57,0-.15.06-.78.06-.93H399.2c.03.93.03,1.71-1.23,1.71-.3,0-.66-.12-.66-.45,0-.15.09-.66.09-.78.12-1.41.18-2.91.18-4.8,0-2.76-.09-3.57-.27-6.03l2.01,1.35h3.99c0-1.08,0-5.79-.06-6.75-.15-2.79-.36-3.36-.6-3.99l2.64.66c.3.09.51.15.51.39,0,.39-.6.66-.93.81v2.55h5.79l1.14-1.26c.3-.33.33-.36.48-.36a.888.888,0,0,1,.54.33l1.41,1.26a.558.558,0,0,1,.27.45c0,.27-.27.3-.45.3Zm-3.24,6.33H399.2v7.56h11.61Z"/>
      <path id="パス_333" data-name="パス 333" d="M19.08,1.35A9.849,9.849,0,0,1,16.23-5.7a9.849,9.849,0,0,1,2.85-7.05l-.135-.21A9.317,9.317,0,0,0,15.39-5.7a9.317,9.317,0,0,0,3.555,7.26Zm9-5.205.72,2.16a1.792,1.792,0,0,1,.135.555.655.655,0,0,1-.615.66h-.45V0h3.69V-.48h-.33c-.42,0-.81-.15-1.11-1.02l-3.285-9.735-1.32.285L22.56-1.86c-.24.735-.78,1.38-1.41,1.38h-.5V0H23.91V-.48h-.42a.553.553,0,0,1-.63-.6,1.323,1.323,0,0,1,.09-.5l.735-2.28Zm-.165-.48H23.85l2-6.12Zm5.7,2.88a.861.861,0,0,0-.87.87.861.861,0,0,0,.87.87.861.861,0,0,0,.87-.87A.88.88,0,0,0,33.615-1.455Zm0-5.925a.871.871,0,0,0-.87.87.861.861,0,0,0,.87.87.871.871,0,0,0,.87-.87A.88.88,0,0,0,33.615-7.38Zm11.235.165v-2.64h3.3c.09,0,.225-.015.225-.15,0-.105-.075-.165-.15-.24l-.795-.72c-.12-.1-.165-.15-.27-.15s-.15.075-.24.18l-.585.72h-1.47V-11.4c.075-.06.45-.39.45-.495s-.09-.15-.21-.18l-1.56-.465a6.49,6.49,0,0,1,.27,2.325h-.9c-.45,0-1.38-.015-2.31-.09l.3.585a9.944,9.944,0,0,1,1.755-.135h1.155c.015.81.015,1.755.015,2.64H42.375c-.21,0-1.275-.015-2.31-.105l.3.6a10.682,10.682,0,0,1,1.77-.135H43.71c.015.15.1.885.12,1.065.03.615.03.87.03,4.815a5.449,5.449,0,0,1-1.935-2.49,11.647,11.647,0,0,0,.4-1.47c.06-.03.375-.18.435-.225a.215.215,0,0,0,.075-.165.2.2,0,0,0-.165-.21l-1.53-.5a3.111,3.111,0,0,1,.06.675A9.847,9.847,0,0,1,38.76.69l.045.06A6.619,6.619,0,0,0,41.82-3.12C42.165-1.89,42.96.825,47.79.825c.36,0,.615-.03.855-.045a2.208,2.208,0,0,1,.87-1.455L49.5-.735a9.4,9.4,0,0,1-2.415.27A15.924,15.924,0,0,1,44.85-.63c0-.075.015-3.09.015-3.3H48.15c.1,0,.225-.03.225-.165,0-.1-.075-.165-.15-.225l-.75-.63c-.165-.135-.21-.165-.285-.165s-.12.045-.24.18l-.54.645H44.865V-5.775c.105-.045.465-.255.465-.45,0-.105-.1-.15-.195-.18l-1.4-.45h5.34c.1,0,.225-.015.225-.165,0-.09-.06-.15-.15-.225l-.885-.75c-.135-.105-.195-.165-.285-.165-.045,0-.105.015-.225.2l-.54.75ZM35.265-3.51a9.134,9.134,0,0,0,2.2-1.71c-.03,3.42-.015,3.81-.06,4.725,0,.165-.09,1.02-.09,1.215,0,.33.255.42.525.42.66,0,.66-.42.66-1.2,0-.585-.045-3.48-.045-4.125,0-.465,0-1.05.045-1.695.33-.24.39-.33.39-.42,0-.105-.075-.15-.255-.3.54-.7.84-1.125,1.08-1.47.345-.06.585-.06.585-.27a.242.242,0,0,0-.09-.195L39-9.48a6.174,6.174,0,0,1-.285.885,21.046,21.046,0,0,1-3.51,4.98Zm.075-4.38a11.8,11.8,0,0,0,4.02-3.39c.57-.12.63-.135.63-.3,0-.075-.09-.15-.12-.18l-1.125-.81a13.935,13.935,0,0,1-3.48,4.56Zm28.92.735c0-.06-.045-.12-.15-.225l-.9-.9a.488.488,0,0,0-.27-.165c-.06,0-.15.075-.24.2l-.7.9H57.87V-9.735h4.14c.1,0,.225-.015.225-.165,0-.09-.06-.135-.15-.225l-.96-.855c-.09-.075-.195-.165-.27-.165s-.18.12-.24.195l-.585.855H57.87V-12.03c.45-.255.45-.315.45-.42,0-.165-.12-.21-.285-.255l-1.38-.375c.1.8.15,1.14.165,1.47.03.51.03.885.03,4.26H54.795v-2.67c.42-.285.465-.33.465-.45,0-.135-.06-.195-.285-.255L53.5-11.13c.225.84.225,1.125.225,3.78h-.705c-.225,0-1.29-.015-2.31-.1l.3.6a10.682,10.682,0,0,1,1.77-.135h4.08c.015.8.03,2.5.015,3.21-.015.54-.015.555-.555.555-.18,0-1.05-.06-1.245-.06v.09a2.177,2.177,0,0,1,1.275,1.38c1.575-.45,1.575-.9,1.575-1.8,0-.375-.06-2.265-.06-2.685.33-.18.375-.24.375-.36,0-.135-.06-.135-.375-.21l-.525-.12h6.69C64.14-6.99,64.26-7.005,64.26-7.155Zm-8.625,1.8c0-.18-.12-.24-.255-.315l-1.17-.615a5.318,5.318,0,0,1-.285.9A17.623,17.623,0,0,1,51.015-1.2l.06.075a11.217,11.217,0,0,0,4.065-3.93c.135-.045.315-.09.375-.12A.2.2,0,0,0,55.635-5.355Zm7.68,2.6c0-.915-1.5-2.565-4.185-3.21l-.06.09a9,9,0,0,1,2.715,2.97c.285.465.495.8.93.8A.631.631,0,0,0,63.315-2.76Zm-2.565.03c0-.09-.06-.165-.18-.285l-.915-.9A6.884,6.884,0,0,1,58.32-2.43,14.44,14.44,0,0,1,51.66.975l.015.1A12.505,12.505,0,0,0,60.1-2.5C60.69-2.55,60.75-2.55,60.75-2.73Zm5.3-8.22L65.43-7.905l.45.105c.33-.96.66-1.965,2.835-1.965H71.28c-3.165,5.01-4.215,8.16-4.215,9.225a.792.792,0,0,0,.765.825c.765,0,.81-.945.84-1.335.195-3.345,1.035-5.43,3.42-9.1v-.8ZM87.5-6.81l-.015-.15a7.006,7.006,0,0,1-5.5-4.02c.27-.045.96-.165.96-.465a.265.265,0,0,0-.12-.225l-.555-.54c-.105-.09-.165-.165-.255-.165s-.135.03-.27.165l-.48.48h-.75c-.3,0-.96-.015-1.635-.075l.195.525a7,7,0,0,1,1.26-.09h1.2c1.125,3.39,2.91,5.01,4.515,5.7A2.466,2.466,0,0,1,87.5-6.81Zm-9-3.885c0-.105-.12-.2-.195-.24l-1.29-.87a4.963,4.963,0,0,1-.24.96,19.5,19.5,0,0,1-3.63,5.49l.075.105a12.955,12.955,0,0,0,4.65-5.1C78.105-10.41,78.5-10.515,78.5-10.695Zm5.28,4.575a.4.4,0,0,0-.135-.24l-.6-.66c-.06-.06-.135-.135-.21-.135a.444.444,0,0,0-.27.165l-.405.36H77.91c-.45,0-1.365-.015-2.295-.09l.285.6a9.489,9.489,0,0,1,1.77-.15h.435A7.575,7.575,0,0,1,73.365.9l.03.12c4.725-.87,5.73-4.935,5.82-7.29h3.03a30.512,30.512,0,0,1-.225,4.32C81.8-.585,81.51-.42,80.79-.42a9.365,9.365,0,0,1-1.74-.255l-.015.105A2.152,2.152,0,0,1,80.16,1.08c2.7-.24,3-1.335,3.15-6.735C83.73-5.955,83.775-5.985,83.775-6.12Zm18-6.06-.3-.3L88.215.78l.3.3Zm1.05,1.725h.6A.963.963,0,0,1,104.49-9.42v7.9A.962.962,0,0,1,103.425-.48h-.6V0h5.355c2.91,0,4.08-1.68,4.08-3.015a2.744,2.744,0,0,0-1.14-2.115,4.082,4.082,0,0,0-2.01-.75,3.545,3.545,0,0,0,1.485-.66,2.564,2.564,0,0,0,1.035-1.98c0-1.53-1.515-2.43-3.81-2.43h-4.995ZM105.69-9.42a.962.962,0,0,1,1.065-1.035h1.065c1.5,0,2.415.765,2.415,2.115a2.281,2.281,0,0,1-2.55,2.31h-2Zm2.415,3.87a2.52,2.52,0,0,1,2.73,2.58A2.476,2.476,0,0,1,108.06-.48h-1.305a.956.956,0,0,1-1.065-1.035V-5.55Zm6.06,4.1a.861.861,0,0,0-.87.87.861.861,0,0,0,.87.87.861.861,0,0,0,.87-.87A.88.88,0,0,0,114.165-1.455Zm0-5.925a.871.871,0,0,0-.87.87.861.861,0,0,0,.87.87.871.871,0,0,0,.87-.87A.88.88,0,0,0,114.165-7.38Zm11.235.165v-2.64h3.3c.09,0,.225-.015.225-.15,0-.105-.075-.165-.15-.24l-.795-.72c-.12-.1-.165-.15-.27-.15s-.15.075-.24.18l-.585.72h-1.47V-11.4c.075-.06.45-.39.45-.495s-.09-.15-.21-.18l-1.56-.465a6.49,6.49,0,0,1,.27,2.325h-.9c-.45,0-1.38-.015-2.31-.09l.3.585a9.944,9.944,0,0,1,1.755-.135h1.155c.015.81.015,1.755.015,2.64h-1.455c-.21,0-1.275-.015-2.31-.105l.3.6a10.682,10.682,0,0,1,1.77-.135h1.575c.015.15.105.885.12,1.065.03.615.03.87.03,4.815a5.449,5.449,0,0,1-1.935-2.49,11.647,11.647,0,0,0,.4-1.47c.06-.03.375-.18.435-.225a.215.215,0,0,0,.075-.165.2.2,0,0,0-.165-.21l-1.53-.5a3.111,3.111,0,0,1,.06.675A9.847,9.847,0,0,1,119.31.69l.045.06a6.619,6.619,0,0,0,3.015-3.87c.345,1.23,1.14,3.945,5.97,3.945.36,0,.615-.03.855-.045a2.208,2.208,0,0,1,.87-1.455l-.015-.06a9.4,9.4,0,0,1-2.415.27A15.924,15.924,0,0,1,125.4-.63c0-.075.015-3.09.015-3.3H128.7c.1,0,.225-.03.225-.165,0-.1-.075-.165-.15-.225l-.75-.63c-.165-.135-.21-.165-.285-.165s-.12.045-.24.18l-.54.645h-1.545V-5.775c.1-.045.465-.255.465-.45,0-.105-.105-.15-.195-.18l-1.395-.45h5.34c.1,0,.225-.015.225-.165,0-.09-.06-.15-.15-.225l-.885-.75c-.135-.105-.195-.165-.285-.165-.045,0-.105.015-.225.2l-.54.75ZM115.815-3.51a9.134,9.134,0,0,0,2.205-1.71C117.99-1.8,118-1.41,117.96-.5c0,.165-.09,1.02-.09,1.215,0,.33.255.42.525.42.66,0,.66-.42.66-1.2,0-.585-.045-3.48-.045-4.125,0-.465,0-1.05.045-1.695.33-.24.39-.33.39-.42,0-.105-.075-.15-.255-.3.54-.7.84-1.125,1.08-1.47.345-.06.585-.06.585-.27a.242.242,0,0,0-.09-.195L119.55-9.48a6.174,6.174,0,0,1-.285.885,21.046,21.046,0,0,1-3.51,4.98Zm.075-4.38a11.8,11.8,0,0,0,4.02-3.39c.57-.12.63-.135.63-.3,0-.075-.09-.15-.12-.18l-1.125-.81a13.935,13.935,0,0,1-3.48,4.56Zm28.92.735c0-.06-.045-.12-.15-.225l-.9-.9a.488.488,0,0,0-.27-.165c-.06,0-.15.075-.24.2l-.705.9H138.42V-9.735h4.14c.1,0,.225-.015.225-.165,0-.09-.06-.135-.15-.225l-.96-.855c-.09-.075-.2-.165-.27-.165s-.18.12-.24.195l-.585.855h-2.16V-12.03c.45-.255.45-.315.45-.42,0-.165-.12-.21-.285-.255l-1.38-.375c.1.8.15,1.14.165,1.47.03.51.03.885.03,4.26h-2.055v-2.67c.42-.285.465-.33.465-.45,0-.135-.06-.195-.285-.255l-1.47-.405c.225.84.225,1.125.225,3.78h-.705c-.225,0-1.29-.015-2.31-.1l.3.6a10.682,10.682,0,0,1,1.77-.135h4.08c.015.8.03,2.5.015,3.21-.015.54-.015.555-.555.555-.18,0-1.05-.06-1.245-.06v.09a2.177,2.177,0,0,1,1.275,1.38c1.575-.45,1.575-.9,1.575-1.8,0-.375-.06-2.265-.06-2.685.33-.18.375-.24.375-.36,0-.135-.06-.135-.375-.21l-.525-.12h6.69C144.69-6.99,144.81-7.005,144.81-7.155Zm-8.625,1.8c0-.18-.12-.24-.255-.315l-1.17-.615a5.316,5.316,0,0,1-.285.9,17.623,17.623,0,0,1-2.91,4.185l.06.075a11.217,11.217,0,0,0,4.065-3.93c.135-.045.315-.09.375-.12A.2.2,0,0,0,136.185-5.355Zm7.68,2.6c0-.915-1.5-2.565-4.185-3.21l-.06.09a9,9,0,0,1,2.715,2.97c.285.465.5.8.93.8A.631.631,0,0,0,143.865-2.76Zm-2.565.03c0-.09-.06-.165-.18-.285l-.915-.9A6.884,6.884,0,0,1,138.87-2.43,14.44,14.44,0,0,1,132.21.975l.015.1a12.505,12.505,0,0,0,8.43-3.585C141.24-2.55,141.3-2.55,141.3-2.73Zm6.015-2.43c.06-1.35.135-3.555,1.47-5.025a1.543,1.543,0,0,1,1.1-.54c.4,0,.435.21.45.54.03.855.525,1.05.825,1.05a.75.75,0,0,0,.765-.78c0-.72-.705-1.32-1.71-1.32-2.295,0-4.245,2.88-4.245,6.345,0,3.24,1.74,5.175,3.45,5.175,1.725,0,3.21-1.86,3.21-3.945,0-1.815-1.2-3.315-2.685-3.315a2.535,2.535,0,0,0-1.305.39A3.728,3.728,0,0,0,147.315-5.16Zm.015.9c.705-1.62,1.665-2.04,2.235-2.04,1.545,0,1.71,2.1,1.71,2.775,0,2.475-1.125,3.3-1.92,3.3a1.485,1.485,0,0,1-1.215-.81A7.16,7.16,0,0,1,147.33-4.26Zm20.715-2.55-.015-.15a7.006,7.006,0,0,1-5.505-4.02c.27-.045.96-.165.96-.465a.265.265,0,0,0-.12-.225l-.555-.54c-.1-.09-.165-.165-.255-.165-.075,0-.135.03-.27.165l-.48.48h-.75c-.3,0-.96-.015-1.635-.075l.195.525a7,7,0,0,1,1.26-.09h1.2c1.125,3.39,2.91,5.01,4.515,5.7A2.466,2.466,0,0,1,168.045-6.81Zm-9-3.885c0-.105-.12-.2-.2-.24l-1.29-.87a4.962,4.962,0,0,1-.24.96,19.5,19.5,0,0,1-3.63,5.49l.075.105a12.955,12.955,0,0,0,4.65-5.1C158.655-10.41,159.045-10.515,159.045-10.695Zm5.28,4.575a.4.4,0,0,0-.135-.24l-.6-.66c-.06-.06-.135-.135-.21-.135a.444.444,0,0,0-.27.165l-.4.36H158.46c-.45,0-1.365-.015-2.295-.09l.285.6a9.489,9.489,0,0,1,1.77-.15h.435A7.575,7.575,0,0,1,153.915.9l.03.12c4.725-.87,5.73-4.935,5.82-7.29h3.03a30.511,30.511,0,0,1-.225,4.32c-.225,1.365-.51,1.53-1.23,1.53a9.365,9.365,0,0,1-1.74-.255l-.015.105a2.152,2.152,0,0,1,1.125,1.65c2.7-.24,3-1.335,3.15-6.735C164.28-5.955,164.325-5.985,164.325-6.12Zm8.325.42a9.317,9.317,0,0,0-3.555-7.26l-.135.21a9.849,9.849,0,0,1,2.85,7.05,9.849,9.849,0,0,1-2.85,7.05l.135.21A9.317,9.317,0,0,0,172.65-5.7Z" transform="translate(408 22.62)"/>
    </g>
    <rect id="長方形_8" data-name="長方形 8" width="7" height="56.49" fill="#1c2c5a"/>
    <g id="グループ_25" data-name="グループ 25">
      <g id="グループ_23" data-name="グループ 23">
        <rect id="長方形_9" data-name="長方形 9" width="84.39" height="23.44" rx="5" transform="translate(18.33 35.45)" fill="none" stroke="#000" stroke-miterlimit="10" stroke-width="1"/>
        <g id="グループ_22" data-name="グループ 22">
          <path id="パス_259" data-name="パス 259" d="M43.7,44.45h-.29c-.14.1-.21.16-.84.69-.08.06-.67.48-.79.58l-.06-.06a11.653,11.653,0,0,0,.59-1.94H32.83c-.02,1.41-.64,2.74-1.44,2.74a.63.63,0,0,1-.62-.67c0-.4.26-.67.79-1.22a4.089,4.089,0,0,0,1.02-2.1h.08a3.7,3.7,0,0,1,.18.86h6.41a7.822,7.822,0,0,0,1.12-3.63l1.47.82c.15.08.23.16.23.26,0,.14-.15.19-.7.29-.87,1.15-.97,1.28-1.81,2.27h2.61l.46-.37c.14-.11.24-.19.33-.19s.17.08.33.21l.9.75a.447.447,0,0,1,.18.34c0,.32-.36.38-.68.38Zm-1.95,6.42c.02.21.02.35.03,1.63,0,.14.06.91.06,1.09a.667.667,0,0,1-.7.7c-.46,0-.43-.38-.4-.67H34.46c0,.24.02.77-.65.77-.38,0-.46-.21-.44-.53.03-.64.09-1.97.09-2.59a11.376,11.376,0,0,0-.14-1.84l1.29.74h1.91a6.835,6.835,0,0,0,.43-1.89H35.32c0,.26.02.74-.61.74-.46,0-.46-.35-.46-.5,0-.4.09-2.16.09-2.53a5.091,5.091,0,0,0-.12-1.3l1.31.62h3.98l.38-.43c.11-.11.17-.16.23-.16a.558.558,0,0,1,.26.13l.56.45c.11.1.17.16.17.24,0,.13-.09.21-.46.5-.02.32.08,1.78.08,2.08a.607.607,0,0,1-.65.66c-.26,0-.44-.14-.43-.5H38.27a14.768,14.768,0,0,1-1.31,1.89h3.65l.33-.45c.08-.11.15-.18.23-.18a.5.5,0,0,1,.27.14l.58.45a.436.436,0,0,1,.17.26c0,.11-.09.22-.46.48Zm-6.82-7.99c-.41,0-.52-.35-.62-.75a5.084,5.084,0,0,0-.85-1.89l.06-.08c.79.42,2.01,1.06,2.01,2.06a.61.61,0,0,1-.59.66Zm5.84,7.67H34.48v2.69h6.29ZM39.69,45.7H35.33v2.19h4.36Zm-1.9-3.03c-.53,0-.64-.51-.75-1.06a4.4,4.4,0,0,0-.71-1.71l.06-.08c1.26.59,1.98,1.41,1.98,2.14,0,.11-.03.7-.58.7Z"/>
          <path id="パス_260" data-name="パス 260" d="M59.52,43.33H54.78l.79.5c.06.05.15.14.15.22,0,.19-.29.22-.56.24-.43.48-1.05,1.04-1.34,1.3h2.6l.59-.7c.08-.1.17-.19.24-.19a.588.588,0,0,1,.27.16l.7.7c.08.08.14.14.14.24,0,.16-.12.18-.23.18H53.28c0,.19.02,1.07.02,1.25h2.14l.53-.58c.09-.1.18-.19.26-.19s.15.08.29.18l.74.54a.341.341,0,0,1,.17.26c0,.14-.12.18-.23.18H53.29v1.39H57.2l.68-.82c.11-.13.15-.19.24-.19.11,0,.2.1.27.16l.84.82c.08.08.15.14.15.26,0,.14-.14.16-.24.16H53.59a8.988,8.988,0,0,0,5.93,3.09l.02.1a2.6,2.6,0,0,0-1.4,1.3,9.771,9.771,0,0,1-4.8-4.48h-.05c.02,1.46.03,1.74.03,2.05.02.37.09,1.95.09,2.29a.71.71,0,0,1-.77.66c-.41,0-.44-.26-.44-.5,0-.35.05-.94.06-1.31.02-.53.02-.77.05-2.99a11.272,11.272,0,0,1-6.03,4.32l-.03-.1a14.062,14.062,0,0,0,4.86-4.42H48.42a10.528,10.528,0,0,0-1.79.14l-.3-.64c1.02.1,2.05.11,2.34.11h3.65V47.63H49.66a10.922,10.922,0,0,0-1.79.14l-.3-.64c1.05.1,2.14.11,2.34.11h2.42V45.99H49.14a10.494,10.494,0,0,0-1.78.14l-.3-.64c1.02.1,2.08.11,2.34.11h4.13a8.243,8.243,0,0,0,.76-2.26H49.97c.88.3,1.69.78,1.69,1.55a.61.61,0,0,1-.61.64c-.35,0-.4-.1-.76-1.06a3.994,3.994,0,0,0-.62-1.14H48.09a9.117,9.117,0,0,0-1.79.14l-.29-.64c1.03.1,2.11.11,2.33.11H51.2a11.855,11.855,0,0,0-.26-3.3l1.47.45c.14.05.21.1.21.24,0,.18-.17.27-.46.38v2.22h1.12c0-2.03,0-2.5-.32-3.3l1.55.43c.09.03.26.08.26.24,0,.24-.36.37-.5.42v2.21h.65a11.786,11.786,0,0,0,.79-2.24,3.416,3.416,0,0,0,.08-.77l1.35.72c.09.05.18.11.18.22,0,.24-.36.29-.53.3-.47.53-1.28,1.44-1.58,1.76H57.6l.65-.72c.12-.13.18-.21.24-.21a.513.513,0,0,1,.3.18l.79.7c.09.08.17.14.17.26,0,.14-.14.18-.23.18Zm-9.88-.74c-.36,0-.47-.26-.76-.98A3.634,3.634,0,0,0,48,40.35l.06-.11c.61.16,2.13.59,2.13,1.71a.588.588,0,0,1-.55.64Z"/>
          <path id="パス_261" data-name="パス 261" d="M65.69,42.21c-.02.58-.03.94-.03,1.71,0,1.68.09,5.31.12,6,0,.21.05.58.05.78,0,.61-.65.64-.73.64-.41,0-.41-.11-.38-1.17h-1.9c0,.11.05,1.42.05,1.46,0,.58-.59.69-.76.69-.38,0-.38-.3-.38-.5,0-.18.05-.96.05-1.12.05-1.22.06-5.71.06-6.08a26.3,26.3,0,0,0-.18-3.95l1.32.67h1.55l.44-.42c.17-.14.2-.21.27-.21a.383.383,0,0,1,.24.14l.61.58a.4.4,0,0,1,.12.26c0,.14-.3.35-.52.51Zm-.96-.48H62.81v3.76h1.92Zm0,4.15H62.81V49.8h1.92V45.88Zm9.94-.3H67.98a10.042,10.042,0,0,0-1.79.14l-.29-.64c.94.08,1.87.11,2.33.11h1.28V42.74h-.67a10.591,10.591,0,0,0-1.79.14l-.29-.64c1,.1,2.07.11,2.33.11h.43a7.17,7.17,0,0,0-.26-2.61l1.57.48c.17.05.27.13.27.26s-.05.16-.49.48c-.02.38-.02.48-.03,1.39h1.49l.56-.69c.11-.14.17-.19.24-.19a.376.376,0,0,1,.27.16l.75.69a.3.3,0,0,1,.15.24c0,.14-.14.18-.23.18H70.56v2.45h2.31l.58-.74c.12-.16.17-.21.23-.21.09,0,.14.06.29.19l.81.72a.335.335,0,0,1,.14.24c0,.16-.14.18-.23.18Zm-.03,2.93H72.12c0,.32.05,3.33.05,3.84,0,.61,0,1.6-1.96,1.98-.14-.53-.3-.98-1.4-1.6l.03-.11c.3.03,1.25.11,1.49.11.68,0,.78-.14.79-.46.02-.29.02-3.51,0-3.76H68.17a11,11,0,0,0-1.79.14l-.29-.64c1.03.1,2.11.11,2.33.11h2.71a11.481,11.481,0,0,0-.2-2.21l1.37.35c.2.05.29.08.29.21,0,.11-.05.14-.44.46-.02.3-.02.4-.02,1.18h.71l.62-.75c.12-.14.18-.19.26-.19s.14.03.26.16l.74.75c.11.1.15.14.15.24,0,.14-.12.18-.23.18Zm-5.81,3.22c-.46,0-.55-.45-.62-.88a3.617,3.617,0,0,0-.71-1.78l.06-.1c1.49.62,1.91,1.55,1.91,2.05a.666.666,0,0,1-.64.7Z"/>
          <path id="パス_262" data-name="パス 262" d="M82.31,41.69v1.82c0,.26.06,1.49.06,1.66a.68.68,0,0,1-.74.62c-.41,0-.36-.38-.33-.58H78.7v4.02c0,.58.06,3.36.06,3.99,0,.42-.15.9-.77.9a.393.393,0,0,1-.44-.42c0-.1.05-.51.05-.61.12-1.81.12-2.8.12-9.81a12.456,12.456,0,0,0-.17-3.2l1.41.7h2.19l.39-.38c.09-.08.15-.16.21-.16a.325.325,0,0,1,.18.1l.79.61a.259.259,0,0,1,.11.21c0,.11-.09.21-.52.53Zm-1-.51H78.7v1.6h2.61Zm0,1.98H78.7v1.68h2.61Zm4.21,4.48c0,.75,0,1.97.05,2.93,0,.14.06.8.06.93a.689.689,0,0,1-.76.74c-.2,0-.4-.05-.32-.8H81.59c.03.38.09,1.04-.71,1.04-.33,0-.35-.27-.35-.45,0-.1.03-.51.05-.69.06-.91.06-2.62.06-2.77a15.281,15.281,0,0,0-.11-2.26l1.11.58h2.89l.26-.35c.08-.11.17-.21.29-.21a.385.385,0,0,1,.24.13l.55.5a.286.286,0,0,1,.14.21c0,.11-.14.26-.47.48Zm-.97-.37H81.59v1.68h2.96Zm0,2.06H81.59v1.71h2.96Zm4.33-7.6c0,1.55.03,8.42.03,9.81s0,1.82-.61,2.27a3.375,3.375,0,0,1-1.15.53c-.12-.56-.26-1.17-1.64-1.73l.03-.11c.26.02,1.64.1,1.79.1s.43,0,.52-.19a15.553,15.553,0,0,0,.06-1.74c0-.86-.02-4.67-.02-5.44H85.02c.02.45-.3.66-.71.66a.335.335,0,0,1-.35-.38c0-.7.05-3.75.05-4.35a9.778,9.778,0,0,0-.08-1.02l1.26.67h2.57l.37-.43c.06-.06.18-.18.27-.18a.359.359,0,0,1,.24.11l.73.66a.308.308,0,0,1,.12.22c0,.13-.12.24-.61.56Zm-.99-.56H85v1.6h2.89Zm0,1.98H85v1.68h2.89Z"/>
        </g>
      </g>
      <g id="グループ_24" data-name="グループ 24">
        <path id="パス_263" data-name="パス 263" d="M119.98,42.69v.85c-2.42,3.92-3.27,6.15-3.46,9.72-.03.42-.08,1.42-.85,1.42a.833.833,0,0,1-.78-.88c0-1.14,1.06-4.5,4.27-9.84h-2.6c-2.2,0-2.54,1.07-2.87,2.1l-.46-.11.62-3.25h6.12Z"/>
        <path id="パス_264" data-name="パス 264" d="M125.63,43.51c-.02.58-.03.94-.03,1.71,0,1.68.09,5.31.12,6,0,.21.05.58.05.78,0,.61-.65.64-.73.64-.41,0-.41-.11-.38-1.17h-1.9c0,.11.05,1.42.05,1.46,0,.58-.59.69-.76.69-.38,0-.38-.3-.38-.5,0-.18.05-.96.05-1.12.05-1.22.06-5.71.06-6.08a26.216,26.216,0,0,0-.18-3.95l1.32.67h1.55l.44-.42c.17-.14.2-.21.27-.21a.383.383,0,0,1,.24.14l.61.58a.4.4,0,0,1,.12.26c0,.14-.3.35-.52.51Zm-.96-.48h-1.91v3.76h1.91Zm0,4.15h-1.91V51.1h1.91Zm9.94-.3h-6.69a10.042,10.042,0,0,0-1.79.14l-.29-.64c.94.08,1.87.11,2.33.11h1.28V44.04h-.67a10.591,10.591,0,0,0-1.79.14l-.29-.64c1,.1,2.07.11,2.33.11h.43a7.17,7.17,0,0,0-.26-2.61l1.57.48c.17.05.27.13.27.26s-.05.16-.49.48c-.02.38-.02.48-.03,1.39h1.49l.56-.69c.11-.14.17-.19.24-.19a.376.376,0,0,1,.27.16l.74.69a.3.3,0,0,1,.15.24c0,.14-.14.18-.23.18h-3.25v2.45h2.31l.58-.74c.12-.16.17-.21.23-.21.09,0,.14.06.29.19l.81.72a.335.335,0,0,1,.14.24c0,.16-.14.18-.23.18Zm-.03,2.93h-2.52c0,.32.05,3.33.05,3.84,0,.61,0,1.6-1.96,1.98-.14-.53-.3-.98-1.4-1.6l.03-.11c.3.03,1.25.11,1.49.11.68,0,.78-.14.79-.46.02-.29.02-3.51,0-3.76h-2.95a11,11,0,0,0-1.79.14l-.29-.64c1.03.1,2.11.11,2.33.11h2.71a11.482,11.482,0,0,0-.2-2.21l1.37.35c.2.05.29.08.29.21,0,.11-.05.14-.44.46-.02.3-.02.4-.02,1.18h.71l.62-.75c.12-.14.18-.19.26-.19s.14.03.26.16l.74.75c.11.1.15.14.15.24,0,.14-.12.18-.23.18Zm-5.81,3.22c-.46,0-.55-.45-.62-.88a3.617,3.617,0,0,0-.71-1.78l.06-.1c1.49.62,1.92,1.55,1.92,2.05a.666.666,0,0,1-.64.7Z"/>
        <path id="パス_265" data-name="パス 265" d="M145.25,49.62a5.615,5.615,0,0,1-2.49-.74c-2.2-1.06-2.25-1.09-2.92-1.09a6.057,6.057,0,0,0-3.31,1.28l-.2-.24a5.569,5.569,0,0,1,3.95-1.87,5.8,5.8,0,0,1,2.74.86c1.69.83,1.96.98,2.66.98a6.1,6.1,0,0,0,3.31-1.3l.2.24a5.554,5.554,0,0,1-3.94,1.87Z"/>
        <path id="パス_266" data-name="パス 266" d="M156.3,54.38h-5.97v-.43a10.962,10.962,0,0,1,2.23-3.59c2.23-2.72,2.99-3.63,2.99-5.23a2.01,2.01,0,0,0-2.02-2.19c-1.06,0-1.7.67-1.7,1.25a.934.934,0,0,0,.15.5,1.413,1.413,0,0,1,.32.8.876.876,0,0,1-.82.9c-.53,0-.87-.53-.87-1.12a3.107,3.107,0,0,1,3.27-2.87,2.845,2.845,0,0,1,3.04,2.98c0,1.62-.88,2.5-2.25,3.73a13.7,13.7,0,0,0-3.28,4.02h2.1c2.13,0,2.63-.86,3.09-2.19l.46.18-.73,3.28Z"/>
        <path id="パス_267" data-name="パス 267" d="M162.52,42.39h.62v8.13h1.72v.51h-1.72v1.86c0,.7.33.98,1.06.98h.24v.51h-3.86v-.51h.24c.71,0,1.06-.26,1.06-.98V51.03h-4.09v-.56l4.71-8.08Zm-.62,2.11-3.51,6.02h3.51Z"/>
        <path id="パス_268" data-name="パス 268" d="M170.38,43.51c-.02.58-.03.94-.03,1.71,0,1.68.09,5.31.12,6,0,.21.05.58.05.78,0,.61-.65.64-.73.64-.41,0-.41-.11-.38-1.17h-1.9c0,.11.05,1.42.05,1.46,0,.58-.59.69-.76.69-.38,0-.38-.3-.38-.5,0-.18.05-.96.05-1.12.05-1.22.06-5.71.06-6.08a26.217,26.217,0,0,0-.18-3.95l1.32.67h1.55l.44-.42c.17-.14.2-.21.27-.21a.383.383,0,0,1,.24.14l.61.58a.4.4,0,0,1,.12.26c0,.14-.3.35-.52.51Zm-.96-.48h-1.91v3.76h1.91Zm0,4.15h-1.91V51.1h1.91Zm9.94-.3h-6.69a10.042,10.042,0,0,0-1.79.14l-.29-.64c.94.08,1.87.11,2.33.11h1.28V44.04h-.67a10.591,10.591,0,0,0-1.79.14l-.29-.64c1,.1,2.07.11,2.33.11h.43a7.17,7.17,0,0,0-.26-2.61l1.57.48c.17.05.27.13.27.26s-.05.16-.49.48c-.02.38-.02.48-.03,1.39h1.49l.56-.69c.11-.14.17-.19.24-.19a.376.376,0,0,1,.27.16l.74.69a.3.3,0,0,1,.15.24c0,.14-.14.18-.23.18h-3.25v2.45h2.31l.58-.74c.12-.16.17-.21.23-.21.09,0,.14.06.29.19l.81.72a.335.335,0,0,1,.14.24c0,.16-.14.18-.23.18Zm-.03,2.93h-2.52c0,.32.05,3.33.05,3.84,0,.61,0,1.6-1.96,1.98-.14-.53-.3-.98-1.4-1.6l.03-.11c.3.03,1.25.11,1.49.11.68,0,.78-.14.79-.46.02-.29.02-3.51,0-3.76h-2.95a11,11,0,0,0-1.79.14l-.29-.64c1.03.1,2.11.11,2.33.11h2.71a11.482,11.482,0,0,0-.2-2.21l1.37.35c.2.05.29.08.29.21,0,.11-.05.14-.44.46-.02.3-.02.4-.02,1.18h.71l.62-.75c.12-.14.18-.19.26-.19s.14.03.26.16l.74.75c.11.1.15.14.15.24,0,.14-.12.18-.23.18Zm-5.81,3.22c-.46,0-.55-.45-.62-.88a3.617,3.617,0,0,0-.71-1.78l.06-.1c1.49.62,1.92,1.55,1.92,2.05a.666.666,0,0,1-.64.7Z"/>
      </g>
    </g>
  </g>
</svg>
