<svg id="area03-04-txt" xmlns="http://www.w3.org/2000/svg" width="265.19" height="96" viewBox="0 0 265.19 96">
  <g id="グループ_85" data-name="グループ 85">
    <g id="グループ_80" data-name="グループ 80">
      <path id="パス_522" data-name="パス 522" d="M29.6,41.64v-.83h.78a1.7,1.7,0,0,0,1.82-1.9V32.44H23.15v6.47a1.705,1.705,0,0,0,1.82,1.9h.78v.83H18.73v-.83h.94a1.718,1.718,0,0,0,1.82-1.9V25.42a1.719,1.719,0,0,0-1.82-1.9h-.94v-.86h7.02v.86h-.78a1.691,1.691,0,0,0-1.82,1.9v6.19H32.2V25.42a1.7,1.7,0,0,0-1.82-1.9H29.6v-.86h6.99v.86h-.91a1.691,1.691,0,0,0-1.82,1.9V38.91a1.7,1.7,0,0,0,1.82,1.9h.91v.83Z"/>
      <path id="パス_523" data-name="パス 523" d="M53.71,41.64v-.83h.91c.94,0,1.07-.52,1.07-.99a2.428,2.428,0,0,0-.18-.88l-1.38-4.06H46.3l-1.35,3.8a3.336,3.336,0,0,0-.21,1.07c0,.47.13,1.07,1.2,1.07h.42v.83H41.24v-.83h.49a2.456,2.456,0,0,0,2.24-1.79L49.79,22.6l1.82-.39,5.77,16.95a2.136,2.136,0,0,0,2.08,1.66h.81v.83H53.72ZM50.3,23.54l-3.72,10.5h7.25l-3.54-10.5Z"/>
      <path id="パス_524" data-name="パス 524" d="M80.72,36.62c-1.04,2-2.83,5.51-7.72,5.51-6.06,0-8.03-5.1-8.03-9.8,0-7.33,4.52-10.14,8.35-10.14a5.964,5.964,0,0,1,2.18.42,3.256,3.256,0,0,0,1.2.29,3.2,3.2,0,0,0,1.9-.7l1.87,4.73-.96.42c-.91-1.38-2.78-4.24-6.32-4.24-4.81,0-6.37,4.86-6.37,8.61,0,5.28,2.81,9.15,7.02,9.15,3.67,0,5.28-3.07,6.14-4.71l.75.47Z"/>
      <path id="パス_525" data-name="パス 525" d="M97.91,41.64v-.83h.91c.94,0,1.07-.52,1.07-.99a2.428,2.428,0,0,0-.18-.88l-1.38-4.06H90.5l-1.35,3.8a3.336,3.336,0,0,0-.21,1.07c0,.47.13,1.07,1.2,1.07h.42v.83H85.44v-.83h.49a2.456,2.456,0,0,0,2.24-1.79L93.99,22.6l1.82-.39,5.77,16.95a2.136,2.136,0,0,0,2.08,1.66h.81v.83H97.92ZM94.5,23.54l-3.72,10.5h7.25l-3.54-10.5Z"/>
      <path id="パス_526" data-name="パス 526" d="M121.7,41.64l-5.3-9.33h-3.02v6.6a1.726,1.726,0,0,0,1.85,1.9h.81v.83H109.1v-.83h.78a1.736,1.736,0,0,0,1.85-1.9V25.42a1.713,1.713,0,0,0-1.85-1.9h-.78v-.86h8.01c3.12,0,6.63,1.12,6.63,4.58a4.429,4.429,0,0,1-1.77,3.54,7.626,7.626,0,0,1-3.74,1.43l3.9,6.81a3.036,3.036,0,0,0,2.89,1.79h.39v.83h-3.69Zm-4.42-18.12h-2.05a1.727,1.727,0,0,0-1.85,1.9v6.03h3.74c2.47,0,4.58-1.35,4.58-4S119.72,23.52,117.28,23.52Z"/>
      <path id="パス_527" data-name="パス 527" d="M129.29,41.64v-.83h1.4a1.71,1.71,0,0,0,1.82-1.9V25.42a1.705,1.705,0,0,0-1.82-1.9h-1.4v-.86h8.11v.86h-1.38a1.705,1.705,0,0,0-1.82,1.9V38.91a1.719,1.719,0,0,0,1.82,1.9h1.38v.83Z"/>
      <path id="パス_528" data-name="パス 528" d="M160.75,23.15a41.643,41.643,0,0,1-8.06,7.41c-2.78,1.77-7.7,3.82-9.49,3.95l-.1-.23a45.965,45.965,0,0,0,8.74-4.6,36,36,0,0,0,7.36-7.38h-6.45c-.78.96-1.14,1.4-2.13,2.44.13.05.23.08,1.09.39.36.13,2.26.83,2.26,2.21a.864.864,0,0,1-.86.91c-.52,0-.78-.36-1.14-1.14a4.812,4.812,0,0,0-1.53-2.18,24.189,24.189,0,0,1-6.14,4.45l-.1-.21a34.1,34.1,0,0,0,6.29-6.24c1.79-2.39,1.9-3.04,2.05-3.98l1.9,1.07c.21.13.29.18.29.36,0,.36-.34.44-.96.57-.23.36-.34.47-.52.73h6.06l1.12-.75c.26-.18.29-.18.34-.18a.563.563,0,0,1,.26.13l1.53,1.01a.445.445,0,0,1,.26.39c0,.44-.16.52-2.05.88Zm3.64,9.75a42.656,42.656,0,0,1-8.55,7.8,24.269,24.269,0,0,1-11.05,3.48l-.03-.23a27.517,27.517,0,0,0,12.17-5.77,23.553,23.553,0,0,0,5.67-6.32h-6.08a35.353,35.353,0,0,1-3.38,2.81c.86.23,3.56,1.4,3.56,2.99a.954.954,0,0,1-.94.96c-.49,0-.6-.31-.86-.96a9.261,9.261,0,0,0-2-2.83c-.62.44-1.33.88-2,1.27a20.239,20.239,0,0,1-5.98,2.44l-.05-.21a32.482,32.482,0,0,0,3.64-1.82,37.65,37.65,0,0,0,7.31-6.06c1.48-1.59,1.59-1.98,1.87-2.99l1.95,1.12c.05.03.26.18.26.36,0,.36-.26.39-1.07.49a15.445,15.445,0,0,1-1.66,1.79h5.62l.88-.65c.23-.18.26-.18.34-.18.1,0,.16.05.36.21l1.46,1.12c.23.18.31.26.31.39,0,.44-.39.52-1.74.78Z"/>
      <path id="パス_529" data-name="パス 529" d="M193.72,23.59H175.44c.03,3.17.1,8.76-.47,11.7-.47,2.34-1.4,5.07-3.33,6.73l-.13-.08c2.18-3.2,2.55-7.88,2.55-12.92a63.729,63.729,0,0,0-.36-7.12l2.03,1.07h7.59a9.906,9.906,0,0,0-.44-3.25l2.18.55c.1.03.29.1.29.31,0,.29-.08.34-.75.73,0,.49-.03,1.33-.03,1.66h6.19l.78-1.09c.08-.1.23-.34.39-.34a1.184,1.184,0,0,1,.49.29l1.43,1.12c.16.13.26.21.26.39,0,.23-.21.26-.39.26Zm.62,16.35h-9.52c.03,1.69,0,2.08-.31,2.57a3.067,3.067,0,0,1-1.79,1.17c-.18-1.09-1.09-1.69-2.26-2l.05-.16c1.38.08,1.69.1,2,.1,1.14,0,1.14-.13,1.12-1.69h-4.94a22.269,22.269,0,0,0-3.35.31l-.62-1.12c1.35.1,2.99.18,4.34.18h4.58c0-.29-.03-1.82-.03-2.16h-2.78a18.754,18.754,0,0,0-3.33.31l-.62-1.12c1.35.1,2.96.18,4.32.18h2.42V34.74a38.049,38.049,0,0,1-4.26.26,20.226,20.226,0,0,1-2.47-.13v-.18a64.025,64.025,0,0,0,6.81-.86,15.045,15.045,0,0,0,5.25-1.61l1.22.96a.365.365,0,0,1,.16.34c0,.16-.05.34-.42.34a3.572,3.572,0,0,1-.81-.13c-.7.18-1.72.42-4.29.83v1.95h3.35l.55-.83c.16-.23.21-.36.36-.36a1,1,0,0,1,.52.29l1.01.86c.13.13.26.23.26.39,0,.29-.29.29-.39.29H184.8v2.16h6.58l.88-1.01c.21-.26.34-.39.47-.39.18,0,.44.23.52.29l1.22,1.09a.509.509,0,0,1,.26.39c0,.26-.29.26-.39.26Zm-9.8-12.87h-2.86v.65c.83.18,2.29.62,2.29,1.74,0,.42-.23.68-.55.68-.44,0-.62-.44-.75-.81a5.121,5.121,0,0,0-.99-1.43c0,.68.05,4,.05,4.19,0,.26,0,.36-.08.47a.811.811,0,0,1-.7.37c-.52,0-.52-.37-.52-.83,0-.7.16-3.9.18-4.55a15.078,15.078,0,0,1-4.34,4.55l-.13-.16a24.184,24.184,0,0,0,3.41-4.84,22.288,22.288,0,0,0-2.29.26l-.6-1.12c.73.08,1.79.16,3.93.21a9.362,9.362,0,0,0-.36-2.37l1.82.49c.08.03.29.08.29.31,0,.16-.05.26-.68.55,0,.42.03.57.03,1.01h1.3l.34-.57c.16-.26.23-.34.36-.34s.16.03.47.34l.52.52c.21.21.26.26.26.39,0,.23-.21.29-.39.29Zm9.7,3.77a1.594,1.594,0,0,0-.65.68,10.564,10.564,0,0,1-4.5-4.52h-.23v1.43c0,.42.08,2.39.08,2.55,0,.29,0,.44-.13.55a1.361,1.361,0,0,1-.7.26c-.36,0-.39-.34-.39-.62,0-.52.08-2.89.08-3.35a10.414,10.414,0,0,1-4.39,3.98l-.08-.18a19.313,19.313,0,0,0,3.72-4.47,10.609,10.609,0,0,0-1.14.16l-.62-1.12c1.25.1,1.64.13,2.47.16a9.731,9.731,0,0,0-.21-2.21l1.59.39c.16.03.34.08.34.29,0,.13-.13.26-.21.34-.08.05-.36.26-.44.31.03.1.03.83.03.91.29.03.62.03.78.03h2.13l.57-.68c.26-.29.29-.31.42-.31.1,0,.26.08.52.31l.73.62c.16.13.26.23.26.39,0,.23-.21.29-.39.29h-4.37a9.7,9.7,0,0,0,6.06,3.2v.1c-.21.08-1.12.47-1.3.55Z"/>
      <path id="パス_530" data-name="パス 530" d="M205.42,22.97s-.03.31-.03.34l-.03,8.63c0,3.04-.62,9.02-5.3,11.34l-.1-.16c2.6-2.39,4.06-5.17,4.06-15.13a52.482,52.482,0,0,0-.34-6.97l2.5.78c.21.05.34.1.34.29,0,.23-.26.47-1.09.88Zm7.05.29c0,6.76,0,7.51.13,14.64,0,.36.03,1.95.03,2.29,0,.94-1.17.94-1.22.94-.57,0-.57-.31-.57-.55,0-.13.1-1.72.1-1.95.18-3.2.18-6.47.18-9.72,0-1.3-.03-5.07-.13-6.16a10.149,10.149,0,0,0-.18-1.14l2.08.55c.36.1.44.16.44.29,0,.29-.55.62-.86.83Zm8.09-.62v.47l-.05,8.53c0,.29.21,8.27.21,9.8,0,.91,0,1.01-.26,1.22a2.224,2.224,0,0,1-1.04.34c-.42,0-.57-.21-.57-.57,0-.29.1-1.46.1-1.72.13-4.42.18-8.84.18-10.79,0-6.29-.21-7.67-.44-9.13l2.39.75c.29.1.39.18.39.34,0,.34-.44.55-.91.75Z"/>
      <path id="パス_531" data-name="パス 531" d="M251.2,24.37H232.82c.1,8.24.16,15.05-4.08,18.93l-.16-.13c2.08-3.04,2.89-6.97,2.89-15a20.864,20.864,0,0,0-.49-5.54l2.13,1.12h6.32a7.85,7.85,0,0,0-.57-3.87l2.5.52c.08.03.47.13.47.36a.529.529,0,0,1-.26.42c-.18.13-.31.21-.68.44v2.13h7.33l.96-1.04c.26-.29.29-.31.42-.31a1.226,1.226,0,0,1,.49.26l1.25,1.04a.545.545,0,0,1,.26.42c0,.23-.21.26-.39.26Zm-1.25,5.38h-7.96v4.86h4.71l.62-.73c.26-.31.31-.34.42-.34a1.519,1.519,0,0,1,.49.31l.83.62c.21.16.42.31.42.44,0,.18-.62.54-.96.78,0,.29.03,5.2.1,6.19.03.34.05.55.05.68a1.031,1.031,0,0,1-1.01,1.14c-.52,0-.57-.29-.57-.49,0-.13.05-.68.05-.81H237.08c.03.81.03,1.48-1.07,1.48-.26,0-.57-.1-.57-.39,0-.13.08-.57.08-.68.1-1.22.16-2.52.16-4.16,0-2.39-.08-3.09-.23-5.23l1.74,1.17h3.46c0-.94,0-5.02-.05-5.85a9.748,9.748,0,0,0-.52-3.46l2.29.57c.26.08.44.13.44.34,0,.34-.52.57-.81.7V29.1h5.02l.99-1.09c.26-.29.29-.31.42-.31a.763.763,0,0,1,.47.29l1.22,1.09a.476.476,0,0,1,.23.39c0,.23-.23.26-.39.26Zm-2.81,5.49H237.08v6.55h10.06Z"/>
    </g>
    <g id="グループ_84" data-name="グループ 84">
      <g id="グループ_82" data-name="グループ 82">
        <rect id="長方形_22" data-name="長方形 22" width="84.39" height="23.44" rx="5" transform="translate(17.87 54.06)" fill="none" stroke="#000" stroke-miterlimit="10" stroke-width="1"/>
        <g id="グループ_81" data-name="グループ 81">
          <path id="パス_532" data-name="パス 532" d="M43.24,63.06h-.29c-.14.1-.21.16-.84.69-.08.06-.67.48-.79.58l-.06-.06a11.653,11.653,0,0,0,.59-1.94H32.37c-.02,1.41-.64,2.74-1.44,2.74a.63.63,0,0,1-.62-.67c0-.4.26-.67.79-1.22a4.089,4.089,0,0,0,1.02-2.1h.08a3.7,3.7,0,0,1,.18.86h6.41a7.822,7.822,0,0,0,1.12-3.63l1.47.82c.15.08.23.16.23.26,0,.14-.15.19-.7.29-.87,1.15-.97,1.28-1.81,2.27h2.61l.46-.37c.14-.11.24-.19.33-.19s.17.08.33.21l.9.75a.447.447,0,0,1,.18.34c0,.32-.36.38-.68.38Zm-1.95,6.42c.02.21.02.35.03,1.63,0,.14.06.91.06,1.09a.667.667,0,0,1-.7.7c-.46,0-.43-.38-.39-.67H34.01c0,.24.02.77-.65.77-.38,0-.46-.21-.44-.53.03-.64.09-1.97.09-2.59a11.375,11.375,0,0,0-.14-1.84l1.29.74h1.91a6.835,6.835,0,0,0,.43-1.89H34.87c0,.26.02.74-.61.74-.46,0-.46-.35-.46-.5,0-.4.09-2.16.09-2.53a5.091,5.091,0,0,0-.12-1.3l1.31.62h3.98l.38-.43c.11-.11.17-.16.23-.16a.558.558,0,0,1,.26.13l.56.45c.11.1.17.16.17.24,0,.13-.09.21-.46.5-.02.32.08,1.78.08,2.08a.607.607,0,0,1-.65.66c-.26,0-.44-.14-.43-.5H37.82a14.768,14.768,0,0,1-1.31,1.89h3.65l.33-.45c.08-.11.15-.18.23-.18a.5.5,0,0,1,.27.14l.58.45a.436.436,0,0,1,.17.26c0,.11-.09.22-.46.48Zm-6.82-7.99c-.41,0-.52-.35-.62-.75A5.084,5.084,0,0,0,33,58.85l.06-.08c.79.42,2.01,1.06,2.01,2.06a.61.61,0,0,1-.59.66Zm5.84,7.67H34.02v2.69h6.29Zm-1.08-4.85H34.87V66.5h4.36Zm-1.9-3.03c-.53,0-.64-.51-.75-1.06a4.4,4.4,0,0,0-.71-1.71l.06-.08c1.26.59,1.98,1.41,1.98,2.14,0,.11-.03.7-.58.7Z"/>
          <path id="パス_533" data-name="パス 533" d="M59.07,61.94H54.33l.79.5c.06.05.15.14.15.22,0,.19-.29.22-.56.24-.43.48-1.05,1.04-1.34,1.3h2.6l.59-.7c.08-.1.17-.19.24-.19a.588.588,0,0,1,.27.16l.7.71c.08.08.14.14.14.24,0,.16-.12.18-.23.18H52.83c0,.19.02,1.07.02,1.25h2.14l.53-.58c.09-.1.18-.19.26-.19s.15.08.29.18l.74.54a.341.341,0,0,1,.17.26c0,.14-.12.18-.23.18H52.84v1.39h3.91l.68-.82c.11-.13.15-.19.24-.19.11,0,.2.1.27.16l.84.82c.08.08.15.14.15.26,0,.14-.14.16-.24.16H53.14a8.988,8.988,0,0,0,5.93,3.09l.02.1a2.6,2.6,0,0,0-1.4,1.3,9.771,9.771,0,0,1-4.8-4.48h-.05c.02,1.46.03,1.75.03,2.05.02.37.09,1.95.09,2.29a.71.71,0,0,1-.77.66c-.41,0-.44-.26-.44-.5,0-.35.05-.94.06-1.31.02-.53.02-.77.05-2.99a11.272,11.272,0,0,1-6.03,4.32l-.03-.1a14.062,14.062,0,0,0,4.86-4.42H47.97a10.528,10.528,0,0,0-1.79.14l-.3-.64c1.02.1,2.05.11,2.34.11h3.65V66.25H49.21a10.846,10.846,0,0,0-1.79.14l-.3-.64c1.05.1,2.14.11,2.34.11h2.42V64.61H48.69a10.494,10.494,0,0,0-1.78.14l-.3-.64c1.02.1,2.08.11,2.34.11h4.13a8.243,8.243,0,0,0,.76-2.26H49.52c.88.3,1.69.79,1.69,1.55a.61.61,0,0,1-.61.64c-.35,0-.4-.1-.76-1.06a3.994,3.994,0,0,0-.62-1.14H47.64a9.117,9.117,0,0,0-1.79.14l-.29-.64c1.03.1,2.11.11,2.33.11h2.86a11.855,11.855,0,0,0-.26-3.3l1.47.45c.14.05.21.1.21.24,0,.18-.17.27-.46.38v2.22h1.12c0-2.03,0-2.5-.32-3.3l1.55.43c.09.03.26.08.26.24,0,.24-.36.37-.5.42v2.21h.65a11.786,11.786,0,0,0,.79-2.24,3.416,3.416,0,0,0,.08-.77l1.35.72c.09.05.18.11.18.22,0,.24-.36.29-.53.3-.47.53-1.28,1.44-1.58,1.76h2.39l.65-.72c.12-.13.18-.21.24-.21a.513.513,0,0,1,.3.18l.79.7c.09.08.17.14.17.26,0,.14-.14.18-.23.18Zm-9.88-.74c-.36,0-.47-.26-.76-.98a3.634,3.634,0,0,0-.88-1.26l.06-.11c.61.16,2.13.59,2.13,1.71a.588.588,0,0,1-.55.64Z"/>
          <path id="パス_534" data-name="パス 534" d="M65.24,60.82c-.02.58-.03.94-.03,1.71,0,1.68.09,5.31.12,6,0,.21.05.58.05.78,0,.61-.65.64-.73.64-.41,0-.41-.11-.38-1.17h-1.9c0,.11.05,1.42.05,1.46,0,.58-.59.69-.76.69-.38,0-.38-.3-.38-.5,0-.18.05-.96.05-1.12.05-1.22.06-5.71.06-6.08a26.3,26.3,0,0,0-.18-3.95l1.32.67h1.55l.44-.42c.17-.14.2-.21.27-.21a.383.383,0,0,1,.24.14l.61.58a.4.4,0,0,1,.12.26c0,.14-.3.35-.52.51Zm-.96-.48H62.37V64.1h1.91Zm0,4.15H62.37v3.92h1.91Zm9.94-.3H67.53a10.042,10.042,0,0,0-1.79.14l-.29-.64c.94.08,1.87.11,2.33.11h1.28V61.35h-.67a10.591,10.591,0,0,0-1.79.14l-.29-.64c1,.1,2.07.11,2.33.11h.43a7.17,7.17,0,0,0-.26-2.61l1.57.48c.17.05.27.13.27.26s-.05.16-.49.48c-.02.38-.02.48-.03,1.39h1.49l.56-.69c.11-.14.17-.19.24-.19a.376.376,0,0,1,.27.16l.75.69a.3.3,0,0,1,.15.24c0,.14-.14.18-.23.18H70.11V63.8h2.31l.58-.74c.12-.16.17-.21.23-.21.09,0,.14.06.29.19l.81.72a.335.335,0,0,1,.14.24c0,.16-.14.18-.23.18Zm-.03,2.93H71.67c0,.32.05,3.33.05,3.84,0,.61,0,1.6-1.96,1.99-.14-.53-.3-.98-1.4-1.6l.03-.11c.3.03,1.25.11,1.49.11.68,0,.78-.14.79-.46.02-.29.02-3.5,0-3.76H67.72a11,11,0,0,0-1.79.14l-.29-.64c1.03.1,2.11.11,2.33.11h2.71a11.481,11.481,0,0,0-.2-2.21l1.37.35c.2.05.29.08.29.21,0,.11-.05.14-.44.46-.02.3-.02.4-.02,1.18h.71l.62-.75c.12-.14.18-.19.26-.19s.14.03.26.16l.74.75c.11.1.15.14.15.24,0,.14-.12.18-.23.18Zm-5.81,3.22c-.46,0-.55-.45-.62-.88a3.617,3.617,0,0,0-.71-1.78l.06-.1c1.49.62,1.91,1.55,1.91,2.05a.666.666,0,0,1-.64.7Z"/>
          <path id="パス_535" data-name="パス 535" d="M81.85,60.29v1.83c0,.26.06,1.49.06,1.66a.68.68,0,0,1-.74.62c-.41,0-.36-.38-.33-.58h-2.6v4.02c0,.58.06,3.36.06,3.99,0,.42-.15.9-.77.9a.393.393,0,0,1-.44-.42c0-.1.05-.51.05-.61.12-1.81.12-2.8.12-9.81a12.456,12.456,0,0,0-.17-3.2l1.41.7h2.19l.4-.38c.09-.08.15-.16.21-.16a.325.325,0,0,1,.18.1l.79.61a.259.259,0,0,1,.11.21c0,.11-.09.21-.52.53Zm-1-.51H78.24v1.6h2.61Zm0,1.98H78.24v1.68h2.61Zm4.21,4.48c0,.75,0,1.97.05,2.93,0,.14.06.8.06.93a.689.689,0,0,1-.76.74c-.2,0-.4-.05-.32-.8H81.13c.03.38.09,1.04-.71,1.04-.33,0-.35-.27-.35-.45,0-.1.03-.51.05-.69.06-.91.06-2.62.06-2.77a15.281,15.281,0,0,0-.11-2.26l1.11.58h2.89l.26-.35c.08-.11.17-.21.29-.21a.385.385,0,0,1,.24.13l.55.5a.286.286,0,0,1,.14.21c0,.11-.14.26-.47.48Zm-.97-.37H81.13v1.68h2.96Zm0,2.07H81.13v1.71h2.96Zm4.33-7.6c0,1.55.03,8.42.03,9.81s0,1.82-.61,2.27a3.375,3.375,0,0,1-1.15.53c-.12-.56-.26-1.17-1.64-1.73l.03-.11c.26.02,1.64.1,1.79.1s.43,0,.52-.19a15.648,15.648,0,0,0,.06-1.75c0-.86-.02-4.67-.02-5.44H84.56c.02.45-.3.66-.71.66a.335.335,0,0,1-.35-.38c0-.7.05-3.75.05-4.35a9.778,9.778,0,0,0-.08-1.02l1.26.67H87.3l.37-.43c.06-.06.18-.18.27-.18a.359.359,0,0,1,.24.11l.73.66a.308.308,0,0,1,.12.22c0,.13-.12.24-.61.56Zm-.99-.56H84.54v1.6h2.89Zm0,1.98H84.54v1.68h2.89Z"/>
        </g>
      </g>
      <g id="グループ_83" data-name="グループ 83">
        <path id="パス_536" data-name="パス 536" d="M110.18,72.47h.88c.83,0,1.12-.32,1.12-.98V62.83c0-.5-.46-.58-.77-.58h-1.22v-.5h.29a6.215,6.215,0,0,0,2.61-.67c.11-.06.16-.1.22-.1.14,0,.18.1.18.22V71.48c0,.69.34.98,1.12.98h.88v.51h-5.31v-.51Z"/>
        <path id="パス_537" data-name="パス 537" d="M120.84,73.28a3.238,3.238,0,0,1-2.62-1.73,9.963,9.963,0,0,1-.98-4.56c0-3.41,1.46-6,3.6-6,1.65,0,3.6,1.78,3.6,6.15,0,3.92-1.65,6.15-3.6,6.15Zm-1.79-9.62a14.643,14.643,0,0,0-.37,3.47c0,3.57.85,5.6,2.16,5.6,1.1,0,1.6-1.47,1.78-2.08a15.105,15.105,0,0,0,.38-3.52c0-3.65-.88-5.6-2.16-5.6-1.14,0-1.63,1.57-1.79,2.13Z"/>
        <path id="パス_538" data-name="パス 538" d="M130.36,62.11c-.02.58-.03.94-.03,1.71,0,1.68.1,5.31.13,6,0,.21.05.58.05.78,0,.61-.69.64-.77.64-.43,0-.43-.11-.4-1.17h-2c0,.11.05,1.42.05,1.46,0,.58-.62.69-.8.69-.4,0-.4-.3-.4-.5,0-.18.05-.96.05-1.12.05-1.22.06-5.71.06-6.08a24.509,24.509,0,0,0-.19-3.95l1.39.67h1.63l.46-.42c.18-.14.21-.21.29-.21a.421.421,0,0,1,.26.14l.64.58a.407.407,0,0,1,.13.26c0,.14-.32.35-.54.51Zm-1.01-.48h-2.02v3.76h2.02Zm0,4.15h-2.02V69.7h2.02Zm10.47-.3h-7.04a11.208,11.208,0,0,0-1.89.14l-.3-.64c.99.08,1.97.11,2.45.11h1.34V62.64h-.7a11.787,11.787,0,0,0-1.89.14l-.3-.64c1.06.1,2.18.11,2.45.11h.45a6.878,6.878,0,0,0-.27-2.61l1.65.48c.18.05.29.13.29.26s-.05.16-.51.48c-.02.38-.02.48-.03,1.39h1.57l.59-.69c.11-.14.18-.19.26-.19a.41.41,0,0,1,.29.16l.78.69a.312.312,0,0,1,.16.24c0,.14-.14.18-.24.18H135.5v2.45h2.43l.61-.74c.13-.16.18-.21.24-.21.1,0,.14.06.3.19l.85.72c.13.11.14.19.14.24,0,.16-.14.18-.24.18Zm-.03,2.93h-2.66c0,.32.05,3.33.05,3.84,0,.61,0,1.6-2.06,1.99-.14-.53-.32-.98-1.47-1.6l.03-.11c.32.03,1.31.11,1.57.11.72,0,.82-.14.83-.46.02-.29.02-3.5,0-3.76h-3.11a12.275,12.275,0,0,0-1.89.14l-.3-.64c1.09.1,2.22.11,2.45.11h2.85a10.7,10.7,0,0,0-.21-2.21l1.44.35c.21.05.3.08.3.21,0,.11-.05.14-.46.46-.02.3-.02.4-.02,1.18h.75l.66-.75c.13-.14.19-.19.27-.19s.14.03.27.16l.78.75c.11.1.16.14.16.24,0,.14-.13.18-.24.18Zm-6.11,3.22c-.48,0-.58-.45-.66-.88a3.556,3.556,0,0,0-.75-1.78l.06-.1c1.57.62,2.02,1.55,2.02,2.05a.692.692,0,0,1-.67.71Z"/>
        <path id="パス_539" data-name="パス 539" d="M151.02,68.23a6.133,6.133,0,0,1-2.62-.74c-2.32-1.06-2.37-1.09-3.07-1.09a6.6,6.6,0,0,0-3.49,1.28l-.21-.24a6.021,6.021,0,0,1,4.16-1.87,6.337,6.337,0,0,1,2.88.86c1.78.83,2.07.98,2.8.98a6.668,6.668,0,0,0,3.49-1.3l.21.24a6,6,0,0,1-4.15,1.87Z"/>
        <path id="パス_540" data-name="パス 540" d="M157.29,72.47h.88c.83,0,1.12-.32,1.12-.98V62.83c0-.5-.46-.58-.77-.58H157.3v-.5h.29a6.215,6.215,0,0,0,2.61-.67c.11-.06.16-.1.22-.1.14,0,.18.1.18.22V71.48c0,.69.34.98,1.12.98h.88v.51h-5.31v-.51Z"/>
        <path id="パス_541" data-name="パス 541" d="M168.65,68.34a2.69,2.69,0,0,1-1.39.42c-1.58,0-2.87-1.6-2.87-3.55,0-2.21,1.58-4.21,3.43-4.21s3.68,2.08,3.68,5.52c0,3.7-2.08,6.77-4.53,6.77-1.07,0-1.82-.64-1.82-1.39a.8.8,0,0,1,.82-.83c.32,0,.85.21.88,1.1.02.35.05.58.48.58a1.594,1.594,0,0,0,1.17-.56c1.42-1.57,1.5-3.94,1.57-5.36a4.02,4.02,0,0,1-1.41,1.52Zm.53-5.94a1.584,1.584,0,0,0-1.3-.86c-.85,0-2.05.9-2.05,3.52,0,.74.18,2.98,1.82,2.98.61,0,1.63-.45,2.39-2.18a7.73,7.73,0,0,0-.86-3.46Z"/>
        <path id="パス_542" data-name="パス 542" d="M177.46,62.11c-.02.58-.03.94-.03,1.71,0,1.68.1,5.31.13,6,0,.21.05.58.05.78,0,.61-.69.64-.77.64-.43,0-.43-.11-.4-1.17h-2c0,.11.05,1.42.05,1.46,0,.58-.62.69-.8.69-.4,0-.4-.3-.4-.5,0-.18.05-.96.05-1.12.05-1.22.06-5.71.06-6.08a24.509,24.509,0,0,0-.19-3.95l1.39.67h1.63l.46-.42c.18-.14.21-.21.29-.21a.421.421,0,0,1,.26.14l.64.58a.407.407,0,0,1,.13.26c0,.14-.32.35-.54.51Zm-1.01-.48h-2.02v3.76h2.02Zm0,4.15h-2.02V69.7h2.02Zm10.47-.3h-7.04a11.208,11.208,0,0,0-1.89.14l-.3-.64c.99.08,1.97.11,2.45.11h1.34V62.64h-.7a11.787,11.787,0,0,0-1.89.14l-.3-.64c1.06.1,2.18.11,2.45.11h.45a6.878,6.878,0,0,0-.27-2.61l1.65.48c.18.05.29.13.29.26s-.05.16-.51.48c-.02.38-.02.48-.03,1.39h1.57l.59-.69c.11-.14.18-.19.26-.19a.41.41,0,0,1,.29.16l.78.69a.312.312,0,0,1,.16.24c0,.14-.14.18-.24.18H182.6v2.45h2.43l.61-.74c.13-.16.18-.21.24-.21.1,0,.14.06.3.19l.85.72c.13.11.14.19.14.24,0,.16-.14.18-.24.18Zm-.03,2.93h-2.66c0,.32.05,3.33.05,3.84,0,.61,0,1.6-2.06,1.99-.14-.53-.32-.98-1.47-1.6l.03-.11c.32.03,1.31.11,1.57.11.72,0,.82-.14.83-.46.02-.29.02-3.5,0-3.76h-3.1a12.275,12.275,0,0,0-1.89.14l-.3-.64c1.09.1,2.22.11,2.45.11h2.85a10.7,10.7,0,0,0-.21-2.21l1.44.35c.21.05.3.08.3.21,0,.11-.05.14-.46.46-.02.3-.02.4-.02,1.18h.75l.66-.75c.13-.14.19-.19.27-.19s.14.03.27.16l.78.75c.11.1.16.14.16.24,0,.14-.13.18-.24.18Zm-6.11,3.22c-.48,0-.58-.45-.66-.88a3.556,3.556,0,0,0-.75-1.78l.06-.1c1.57.62,2.02,1.55,2.02,2.05a.692.692,0,0,1-.67.71Z"/>
        <path id="パス_543" data-name="パス 543" d="M189.03,74.13l-.32-.32,14.15-14.15.32.32Z"/>
        <path id="パス_544" data-name="パス 544" d="M215.07,61.52c-.05,1.34.02,5.41.05,6.99,0,.46.08,2.5.08,2.9,0,1.39,0,2.27-2.26,2.64-.1-.62-.35-1.01-1.49-1.6l.02-.11a11.189,11.189,0,0,0,1.66.11c.78,0,.8,0,.8-1.86,0-1.23,0-2.11.02-2.77h-5.33a7.669,7.669,0,0,1-4.05,6.45l-.08-.1c2.85-2.5,3.07-5.39,3.07-9.72a25.013,25.013,0,0,0-.3-4.75l1.63.78h4.83l.51-.48a.5.5,0,0,1,.29-.16.4.4,0,0,1,.27.13l.75.62a.427.427,0,0,1,.18.29c0,.16-.11.27-.66.62Zm-1.12,2.85h-5.22s-.03,2.37-.1,3.07h5.31V64.37Zm0-3.49h-5.22v3.11h5.22Z"/>
        <path id="パス_545" data-name="パス 545" d="M221.21,61.07l.32-.34a.338.338,0,0,1,.24-.13.531.531,0,0,1,.3.18l.56.56a.381.381,0,0,1,.11.24c0,.1-.11.22-.42.48-.03,1.14-.03,2.29-.02,4,.02.71.06,3.78.06,4.42,0,.38-.03.56-.21.7a1.053,1.053,0,0,1-.56.22c-.38,0-.37-.27-.32-.91h-1.6a3.174,3.174,0,0,1-.02.93.779.779,0,0,1-.72.5.4.4,0,0,1-.43-.46c0-.13.05-.69.05-.8.03-1.74.05-3.19.05-6.63a20.6,20.6,0,0,0-.13-3.54l1.23.58h1.49Zm-1.52.38v4.03h1.6V61.45h-1.6Zm0,4.42v4.24h1.6V65.87Zm8.76,3.52v1.49h1.57l.3-.5c.06-.11.14-.24.26-.24.08,0,.13.03.29.18l.64.53c.06.05.16.13.16.24,0,.16-.16.18-.24.18h-2.98v1.57h2.29l.37-.64c.1-.18.19-.24.27-.24a.559.559,0,0,1,.29.18l.77.67a.369.369,0,0,1,.16.26c0,.16-.16.16-.24.16h-6.95c0,.45.02.5-.05.59a.868.868,0,0,1-.74.4c-.37,0-.37-.26-.37-.35,0-.21.05-1.23.06-1.47.02-.54.06-2.56.05-4.08a7.834,7.834,0,0,1-1.92,1.81l-.05-.08a13.994,13.994,0,0,0,2.42-4.75l1.09.53a.245.245,0,0,1,.16.21c0,.18-.1.21-.43.34-.19.35-.29.5-.45.77l.37.16h1.87a8.952,8.952,0,0,0,.58-2.03l1.18.56a.26.26,0,0,1,.18.21c0,.13-.05.14-.53.3a12.39,12.39,0,0,1-1.1.96h2.59l.42-.56c.11-.14.18-.21.26-.21s.14.03.3.16l.72.58c.06.05.16.14.16.24,0,.18-.16.18-.24.18h-3.49v1.34h1.54l.3-.53c.05-.08.13-.22.26-.22a.648.648,0,0,1,.3.18l.69.54c.06.05.16.14.16.24,0,.16-.16.18-.24.18h-3.01Zm-3.04-4.5a12.275,12.275,0,0,0-1.89.14l-.32-.64c1.09.1,2.23.11,2.46.11h.35V62.76h-.62a9.87,9.87,0,0,0-1.87.14l-.32-.64c.99.08,1.97.11,2.45.11h.37v-1.7h-.94a10.278,10.278,0,0,0-1.89.14l-.32-.64c1.1.1,2.24.11,2.46.11h.59l.37-.35a.377.377,0,0,1,.21-.11c.08,0,.14.06.24.16l.61.55a.325.325,0,0,1,.13.22c0,.13-.19.29-.43.48v.99c0,.43.08,2.29.08,2.67a.478.478,0,0,1-.19.46.9.9,0,0,1-.56.21c-.4,0-.38-.3-.37-.69h-.59Zm0,2.77V69h2.05V67.66Zm0,1.73v1.49h2.05V69.39Zm0,1.87v1.57h2.05V71.26Zm4.71-6.39a11.72,11.72,0,0,0-1.89.14l-.32-.64c1.04.1,2.16.11,2.56.11V62.72a12.264,12.264,0,0,0-2.1.14l-.32-.62c.86.06,1.25.08,2.42.1V60.63h-.5a11.887,11.887,0,0,0-1.87.14l-.32-.64a26.255,26.255,0,0,0,2.66.11l.34-.35c.06-.06.14-.14.21-.14s.11.02.29.18l.58.5c.06.06.14.13.14.22,0,.11-.11.19-.48.45-.02.35-.02.83.02,1.91,0,.3.08,1.66.08,1.95,0,.53-.56.64-.74.64-.42,0-.42-.32-.4-.72h-.35Z"/>
        <path id="パス_546" data-name="パス 546" d="M249.07,72.32a2.54,2.54,0,0,0-1.23,1.75,24.73,24.73,0,0,1-6.05-.46,5.461,5.461,0,0,1-3.7-3.39,7.144,7.144,0,0,1-3.91,4.08l-.08-.06a10.367,10.367,0,0,0,3.49-6.95,2.114,2.114,0,0,0-.02-.35l1.58.64a.26.26,0,0,1,.18.22c0,.18-.05.21-.58.43a8.988,8.988,0,0,1-.51,1.6,5.035,5.035,0,0,0,2.48,2.53v-6.5h-3.25a11.956,11.956,0,0,0-1.89.14l-.32-.62c1.31.1,2.27.1,2.46.1h7.27l.64-.85c.1-.11.16-.19.24-.19s.19.1.32.19l1.07.83a.27.27,0,0,1,.16.24c0,.16-.14.16-.24.16h-5.31v2.95h2.39l.64-.78c.11-.14.16-.21.24-.21.1,0,.21.1.3.18l.96.78a.329.329,0,0,1,.16.24c0,.18-.14.18-.24.18h-4.45v3.51a8.712,8.712,0,0,0,1.7.13,39.588,39.588,0,0,0,5.51-.54l-.02.05Zm-1.58-9.28h-.45c-.3.14-1.63.83-1.9.96l-.06-.05c.08-.13.67-1.42.75-1.65h-8.92c-.05,1.52-.96,2.34-1.74,2.34a.582.582,0,0,1-.59-.62c0-.38.24-.58.54-.8a3.343,3.343,0,0,0,1.57-2.18h.1a4.923,4.923,0,0,1,.11.88h3.81a5.2,5.2,0,0,0-.34-2.53l1.81.43c.13.03.26.13.26.22,0,.14-.06.18-.54.5v1.38h3.79l.66-.53a.275.275,0,0,1,.44,0l1.18,1.14a.381.381,0,0,1,.14.24c0,.27-.43.27-.62.27Z"/>
        <path id="パス_547" data-name="パス 547" d="M253.77,63.59c.11.06.22.16.22.27a.271.271,0,0,1-.14.22c-.1.06-.21.16-.34.26-.05,1.47-.06,2.56-.06,3.17,0,.93.1,5.6.1,5.83a.681.681,0,0,1-.26.66.968.968,0,0,1-.59.21c-.34,0-.43-.13-.43-.56,0-.77.19-5.55.21-6.51,0-.34.02-1.54.03-2.32a16.37,16.37,0,0,1-2.72,3.44l-.08-.08c1.17-1.71,3.67-6.63,3.65-8.84l1.57.83a.3.3,0,0,1,.13.22c0,.1-.11.18-.18.22s-.3.14-.45.22a26.831,26.831,0,0,1-1.1,2.48l.45.27Zm2.58.38a11.332,11.332,0,0,0-1.89.14l-.3-.62c1.07.08,2.26.1,2.45.1h1.73c-.02-.66-.13-3.06-.16-3.22a4.568,4.568,0,0,0-.22-.8l1.78.48c.13.03.24.13.24.22a.36.36,0,0,1-.18.29c-.14.1-.26.18-.37.26,0,.27-.03,1.86-.05,2.77h2.71l.72-.85c.13-.14.18-.19.24-.19s.13.03.3.16l1.07.85a.331.331,0,0,1,.16.26c0,.14-.13.16-.24.16h-4.8a10.3,10.3,0,0,0,5.65,6.71l-.03.11a2.366,2.366,0,0,0-1.73.91,14.3,14.3,0,0,1-4.07-7.35c-.02.96-.02,1.52-.02,2.5,0,.69,0,1.33.03,2.18.14,3.84.16,4.18.16,4.32a.787.787,0,0,1-.88.85c-.38,0-.5-.22-.5-.54,0-.21.06-1.12.06-1.3.05-1.62.06-2.72.1-6.05a13.321,13.321,0,0,1-4.53,5.54l-.03-.11a25.5,25.5,0,0,0,4.37-7.76h-1.78Z"/>
      </g>
    </g>
    <rect id="長方形_23" data-name="長方形 23" width="7" height="96" fill="#1c2c5a"/>
  </g>
</svg>
