<svg id="area02-01-txt" xmlns="http://www.w3.org/2000/svg" width="210.95" height="57" viewBox="0 0 210.95 57">
  <g id="グループ_44" data-name="グループ 44">
    <g id="グループ_43" data-name="グループ 43">
      <path id="パス_336" data-name="パス 336" d="M44.69,5.22H32.03v4.95c1.23.27,7.65,1.71,7.65,5.13a1.142,1.142,0,0,1-.99,1.14c-.57,0-.81-.39-1.62-1.59a13.446,13.446,0,0,0-5.04-4.29c0,6.06,0,6.9.18,14.49,0,.48.03.66.03,1.38,0,.66-.06.9-.27,1.08a1.577,1.577,0,0,1-1.05.39c-.84,0-.84-.54-.84-.84,0-.18.06-1.05.06-1.23.21-5.19.21-6.51.21-14.22V5.22H23.24a25.35,25.35,0,0,0-3.87.36l-.72-1.29c1.56.12,3.45.21,5.01.21H40.82l1.23-1.32c.3-.33.36-.39.48-.39.15,0,.45.24.57.33l1.74,1.32c.12.12.3.27.3.45,0,.33-.33.33-.45.33Z"/>
      <path id="パス_337" data-name="パス 337" d="M77.06,27.54c-.57.21-1.14.27-4.74.27-2.94,0-4.29,0-4.29-2.79,0-2.97.06-4.41.69-15.09,0-.21.03-.42.03-.57H63.92a44.675,44.675,0,0,1-1.2,7.26c2.4,1.44,3.36,2.97,3.36,3.72a.981.981,0,0,1-1.05.9c-.45,0-.6-.18-.9-.54-.99-1.14-1.14-1.32-1.98-2.19A16.389,16.389,0,0,1,51.14,28.86l-.09-.18c7.14-3.06,9.03-9.54,9.63-11.55a15.49,15.49,0,0,0-4.17-2.52V14.4a26.8,26.8,0,0,1,4.53,1.38,51.135,51.135,0,0,0,1.05-6.42H56.81a21.612,21.612,0,0,0-3.87.36l-.72-1.29c2.25.18,4.44.21,5.01.21h4.89c.06-.96.09-1.89.09-2.85a16.684,16.684,0,0,0-.45-4.59l3.27.99a.491.491,0,0,1,.24.39c0,.3-.54.66-1.02.93-.03,1.17-.06,2.64-.27,5.13h4.35L69.5,7.8a1.328,1.328,0,0,1,.6-.33.592.592,0,0,1,.42.18l1.26.99c.09.09.24.24.24.36a.465.465,0,0,1-.39.48,7.022,7.022,0,0,0-1.11.6c-.12,1.53-.33,4.02-.54,8.04-.09,1.8-.24,4.65-.24,6.42,0,.57.06,1.41.9,1.5.15.03,2.25.03,2.58.03,1.83,0,2.37,0,2.67-.9.15-.42.87-3.81,1.05-4.65h.15c.54,3.84.6,4.26.78,4.56.09.09.48.57.54.66a.735.735,0,0,1,.12.36c0,.42-.57,1.11-1.47,1.44Z"/>
      <path id="パス_338" data-name="パス 338" d="M110.96,15.03H98.66V25.05A2.534,2.534,0,0,1,98.18,27a4.7,4.7,0,0,1-3.06,1.44,2.152,2.152,0,0,0-.63-1.47,7.852,7.852,0,0,0-3.12-1.5l.06-.21c.99.12,2.82.39,3.84.39,1.26,0,1.71-.27,1.71-1.32v-9.3H88.97a25.109,25.109,0,0,0-3.87.36l-.69-1.29c2.25.18,4.41.21,4.98.21h7.59V11.28a9.9,9.9,0,0,0-.39-3.27l2.25.57a39.08,39.08,0,0,0,3.36-4.56H92.33a24.6,24.6,0,0,0-3.84.33l-.72-1.29c2.25.18,4.44.24,4.98.24h9.75l.93-.81a.773.773,0,0,1,.57-.3,1.116,1.116,0,0,1,.6.27l1.74,1.23a.706.706,0,0,1,.33.51c0,.36-.42.45-.63.48-.42.09-1.05.12-1.59.18-.33.21-.6.45-3.03,2.37A17.264,17.264,0,0,1,99.35,8.7a.623.623,0,0,1,.33.48c0,.48-.69.96-1.02,1.17v3.96h8.25l1.35-1.47c.3-.33.33-.36.48-.36a1.381,1.381,0,0,1,.54.3l1.83,1.47a.643.643,0,0,1,.3.48c0,.27-.24.3-.45.3Z"/>
      <path id="パス_339" data-name="パス 339" d="M143.93,5.58h-7.86l1.32.9a.564.564,0,0,1,.3.45c0,.27-.21.3-.81.39a34.148,34.148,0,0,1-3.09,3.42h6.09l.66-.81c.12-.15.27-.33.45-.33a.945.945,0,0,1,.51.27l1.17.87c.12.09.3.21.3.42,0,.3-.69.78-.93.99.03.45.03.96.06,5.37,0,.9.06,5.28.06,6.27,0,2.49,0,3.72-2.91,4.44,0-1.23-1.02-2.01-2.25-2.64v-.24a22.417,22.417,0,0,0,2.82.27c.45,0,.72-.06.75-.57,0-.06.03-3.24.03-3.87,0-1.89-.03-6.57-.06-9.72h-6.66c-.03.87,0,3.42,0,3.63,0,.45.09.6,2.04.6.93,0,2.34,0,2.7-2.43l.21-.03c.06,1.35.15,1.56.57,1.65.21.06.42.06.42.3a1.89,1.89,0,0,1-1.05,1.41,6.947,6.947,0,0,1-3.03.48c-3,0-3.42-.51-3.42-2.43,0-.42,0-2.13.03-3.18h-3.03l.36.36c.15.15.24.24.24.42s-.21.27-.36.33-.51.21-.6.24a11.849,11.849,0,0,1-6.48,6.15l-.15-.27a12.382,12.382,0,0,0,5.25-7.23h-5.91c.03,1.14.03,1.32.03,3.03,0,4.77,0,5.31.06,7.47,0,.6.12,4.35.12,4.71,0,.45,0,1.62-1.23,1.62-.69,0-.72-.39-.72-.69,0-.15.06-.81.06-.96.09-2.28.12-7.83.12-11.01a28.134,28.134,0,0,0-.42-6.45l2.46,1.56h11.16a15.513,15.513,0,0,0,1.92-5.16H122.45a24.4,24.4,0,0,0-3.87.36l-.69-1.29c1.56.12,3.42.21,4.98.21h7.35c-.03-2.55-.36-3.09-.72-3.66l2.82.66c.12.03.51.12.51.42s-.21.45-.96.93V4.86h8.31l1.08-1.38c.21-.27.33-.39.48-.39.18,0,.39.18.57.33l1.77,1.38a.679.679,0,0,1,.3.45c0,.33-.33.33-.45.33Zm-16.5,4.41c-.84,0-1.02-.81-1.2-1.59a4.065,4.065,0,0,0-1.26-2.49l.15-.12c.9.42,3.21,1.56,3.21,3.18a.931.931,0,0,1-.9,1.02Zm8.31,10.05c-.03.72,0,2.73.03,3.57,0,.27.12,1.59.12,1.65,0,.27-.03.84-.96.84-.72,0-.72-.24-.69-.99h-6.75a2.319,2.319,0,0,1,0,.69,1.368,1.368,0,0,1-1.08.75c-.48,0-.48-.33-.48-.57,0-.42.09-2.16.09-2.52,0-.84.06-2.55.06-3.18a20.291,20.291,0,0,0-.24-2.49l2.04,1.08h6.06l.54-.57c.15-.18.24-.3.42-.3.12,0,.3.15.42.21l1.02.66a.483.483,0,0,1,.27.45c0,.24-.12.36-.87.72Zm-1.47-.45h-6.78v4.8h6.78Z"/>
      <path id="パス_340" data-name="パス 340" d="M174.5,25.8c-5.4-3.36-7.86-6.15-9.42-9.33h-.3c.03,1.41.18,9.87.18,10.83,0,1.11-1.17,1.11-1.32,1.11-.63,0-.63-.33-.63-.51,0-.03.21-3.45.24-4.02.09-2.58.12-5.49.09-6.93-2.46,3.84-8.1,7.95-12.66,9.42v-.15c4.89-2.88,9-6.87,10.74-9.75h-4.8a24.772,24.772,0,0,0-3.87.36l-.72-1.29c2.25.18,4.44.21,5.01.21h6.27a33.974,33.974,0,0,0-.24-4.35,2.445,2.445,0,0,0-.3-.9l2.52.69a.393.393,0,0,1,.36.39c0,.21-.15.33-.93.84v.87c0,.39.06,2.13.06,2.46h7.02l.93-1.32c.03-.06.3-.39.45-.39.18,0,.48.27.57.33l1.74,1.32c.12.12.3.27.3.48,0,.27-.27.3-.45.3h-9.81a17.815,17.815,0,0,0,11.67,7.29V24c-.87.12-1.5.42-2.7,1.8Zm1.08-15.6a29.742,29.742,0,0,0-3.81,2.13l-.09-.09a24.145,24.145,0,0,0,1.53-2.76H154.37c.21,2.46-1.26,4.38-2.46,4.38a1.026,1.026,0,0,1-1.02-1.08c0-.48.12-.57.99-1.44a6.681,6.681,0,0,0,1.98-3.69h.18a10.814,10.814,0,0,1,.24,1.11h12.27c2.94-4.14,3.36-5.94,3.69-7.26l2.79,1.56a.331.331,0,0,1,.15.3c0,.3-.39.48-.84.48h-.57a53.456,53.456,0,0,1-4.89,4.92h6.09l1.2-1.05a.653.653,0,0,1,.48-.21.876.876,0,0,1,.42.15l1.86,1.62a.707.707,0,0,1,.21.45c0,.33-.3.48-1.56.48ZM157.55,7.41c-.69,0-.81-.42-1.05-1.59a6.53,6.53,0,0,0-1.59-3.24l.06-.15c2.01.84,3.6,2.43,3.6,3.81A1.027,1.027,0,0,1,157.55,7.41Zm6.33-.51c-.72,0-.9-.57-1.17-1.44a8.741,8.741,0,0,0-2.1-3.51l.06-.09c2.91.75,4.23,2.97,4.23,4.02a.976.976,0,0,1-1.02,1.02Z"/>
      <path id="パス_341" data-name="パス 341" d="M208.22,13.56A23,23,0,0,1,197.33,3c-.21,0-.27.03-.51.03-4.05,6.09-9.84,10.56-13.74,12.12l-.09-.24A40.787,40.787,0,0,0,194.3,3.27a5.482,5.482,0,0,0,1.02-2.22l2.79.84c.21.06.51.21.51.54,0,.36-.27.42-.75.48a19.577,19.577,0,0,0,13.08,8.64v.24a6.365,6.365,0,0,0-2.73,1.77Zm.15,4.5H196.1c-.3.63-.45.93-.78,1.5a49.355,49.355,0,0,1-4.08,5.82c3.33-.18,3.81-.24,12.24-1.14a13.4,13.4,0,0,0-3.39-4.26l.18-.18c6.63,3.36,7.05,6.9,7.05,7.38a1.185,1.185,0,0,1-1.14,1.26,1.392,1.392,0,0,1-1.29-1.08,25.012,25.012,0,0,0-1.2-2.73c-10.77,2.31-12.3,2.64-15.54,3.12-.33.6-.42.69-.6.69-.15,0-.27-.12-.39-.42l-1.17-2.73a12.026,12.026,0,0,0,2.22.18c.78,0,1.98-.03,2.61-.06a71.506,71.506,0,0,0,2.64-7.35h-4.11a24.192,24.192,0,0,0-3.84.33l-.72-1.29c1.56.15,3.42.24,4.98.24h14.55l1.41-1.44c.33-.33.36-.36.45-.36.18,0,.42.21.57.3l1.77,1.44a.616.616,0,0,1,.3.45c0,.33-.3.33-.45.33Zm-6.54-5.16h-7.38a24.971,24.971,0,0,0-3.87.33l-.69-1.29c2.25.18,4.41.24,4.98.24h3.48l1.23-1.29c.3-.33.36-.36.48-.36a1.381,1.381,0,0,1,.54.3l1.41,1.29a.711.711,0,0,1,.27.45c0,.27-.24.33-.45.33Z"/>
      <path id="パス_382" data-name="パス 382" d="M14.085,1.35a9.849,9.849,0,0,1-2.85-7.05,9.849,9.849,0,0,1,2.85-7.05l-.135-.21A9.317,9.317,0,0,0,10.4-5.7,9.317,9.317,0,0,0,13.95,1.56Zm9-5.205.72,2.16a1.792,1.792,0,0,1,.135.555.655.655,0,0,1-.615.66h-.45V0h3.69V-.48h-.33c-.42,0-.81-.15-1.11-1.02L21.84-11.235l-1.32.285L17.565-1.86c-.24.735-.78,1.38-1.41,1.38h-.5V0h3.255V-.48h-.42a.553.553,0,0,1-.63-.6,1.323,1.323,0,0,1,.09-.5l.735-2.28Zm-.165-.48H18.855l2-6.12Zm5.7,2.88a.861.861,0,0,0-.87.87.861.861,0,0,0,.87.87.861.861,0,0,0,.87-.87A.88.88,0,0,0,28.62-1.455Zm0-5.925a.871.871,0,0,0-.87.87.861.861,0,0,0,.87.87.871.871,0,0,0,.87-.87A.88.88,0,0,0,28.62-7.38Zm11.235.165v-2.64h3.3c.09,0,.225-.015.225-.15,0-.105-.075-.165-.15-.24l-.8-.72c-.12-.1-.165-.15-.27-.15s-.15.075-.24.18l-.585.72H39.87V-11.4c.075-.06.45-.39.45-.495s-.09-.15-.21-.18l-1.56-.465a6.49,6.49,0,0,1,.27,2.325h-.9c-.45,0-1.38-.015-2.31-.09l.3.585a9.944,9.944,0,0,1,1.755-.135H38.82c.015.81.015,1.755.015,2.64H37.38c-.21,0-1.275-.015-2.31-.105l.3.6a10.682,10.682,0,0,1,1.77-.135h1.575c.015.15.1.885.12,1.065.03.615.03.87.03,4.815a5.449,5.449,0,0,1-1.935-2.49,11.647,11.647,0,0,0,.4-1.47c.06-.03.375-.18.435-.225a.215.215,0,0,0,.075-.165.2.2,0,0,0-.165-.21l-1.53-.5a3.111,3.111,0,0,1,.06.675A9.847,9.847,0,0,1,33.765.69l.045.06a6.619,6.619,0,0,0,3.015-3.87c.345,1.23,1.14,3.945,5.97,3.945.36,0,.615-.03.855-.045a2.208,2.208,0,0,1,.87-1.455l-.015-.06a9.4,9.4,0,0,1-2.415.27A15.924,15.924,0,0,1,39.855-.63c0-.075.015-3.09.015-3.3h3.285c.105,0,.225-.03.225-.165,0-.1-.075-.165-.15-.225l-.75-.63c-.165-.135-.21-.165-.285-.165s-.12.045-.24.18l-.54.645H39.87V-5.775c.1-.045.465-.255.465-.45,0-.105-.1-.15-.195-.18l-1.4-.45h5.34c.1,0,.225-.015.225-.165,0-.09-.06-.15-.15-.225l-.885-.75c-.135-.105-.195-.165-.285-.165-.045,0-.1.015-.225.2l-.54.75ZM30.27-3.51a9.134,9.134,0,0,0,2.2-1.71c-.03,3.42-.015,3.81-.06,4.725,0,.165-.09,1.02-.09,1.215,0,.33.255.42.525.42.66,0,.66-.42.66-1.2,0-.585-.045-3.48-.045-4.125,0-.465,0-1.05.045-1.695.33-.24.39-.33.39-.42,0-.105-.075-.15-.255-.3.54-.7.84-1.125,1.08-1.47.345-.06.585-.06.585-.27a.242.242,0,0,0-.09-.195L34.005-9.48a6.174,6.174,0,0,1-.285.885,21.046,21.046,0,0,1-3.51,4.98Zm.075-4.38a11.8,11.8,0,0,0,4.02-3.39c.57-.12.63-.135.63-.3,0-.075-.09-.15-.12-.18l-1.125-.81a13.935,13.935,0,0,1-3.48,4.56Zm28.92.735c0-.06-.045-.12-.15-.225l-.9-.9a.488.488,0,0,0-.27-.165c-.06,0-.15.075-.24.2L57-7.35H52.875V-9.735h4.14c.105,0,.225-.015.225-.165,0-.09-.06-.135-.15-.225l-.96-.855c-.09-.075-.2-.165-.27-.165-.09,0-.18.12-.24.195l-.585.855h-2.16V-12.03c.45-.255.45-.315.45-.42,0-.165-.12-.21-.285-.255l-1.38-.375c.1.8.15,1.14.165,1.47.03.51.03.885.03,4.26H49.8v-2.67c.42-.285.465-.33.465-.45,0-.135-.06-.195-.285-.255l-1.47-.405c.225.84.225,1.125.225,3.78H48.03c-.225,0-1.29-.015-2.31-.1l.3.6a10.682,10.682,0,0,1,1.77-.135h4.08c.015.8.03,2.5.015,3.21-.015.54-.015.555-.555.555-.18,0-1.05-.06-1.245-.06v.09a2.177,2.177,0,0,1,1.275,1.38c1.575-.45,1.575-.9,1.575-1.8,0-.375-.06-2.265-.06-2.685.33-.18.375-.24.375-.36,0-.135-.06-.135-.375-.21l-.525-.12h6.69C59.145-6.99,59.265-7.005,59.265-7.155Zm-8.625,1.8c0-.18-.12-.24-.255-.315l-1.17-.615a5.318,5.318,0,0,1-.285.9A17.623,17.623,0,0,1,46.02-1.2l.06.075a11.217,11.217,0,0,0,4.065-3.93c.135-.045.315-.09.375-.12A.2.2,0,0,0,50.64-5.355Zm7.68,2.6c0-.915-1.5-2.565-4.185-3.21l-.06.09A9,9,0,0,1,56.79-2.91c.285.465.495.8.93.8A.631.631,0,0,0,58.32-2.76Zm-2.565.03c0-.09-.06-.165-.18-.285l-.915-.9A6.884,6.884,0,0,1,53.325-2.43,14.44,14.44,0,0,1,46.665.975l.015.1A12.505,12.505,0,0,0,55.11-2.5C55.695-2.55,55.755-2.55,55.755-2.73Zm8.91-3.45c.645-.48,1.875-1.41,1.875-2.685a2.519,2.519,0,0,0-2.745-2.37,2.751,2.751,0,0,0-3,2.685c0,1.635,1.44,2.475,2.235,2.94-1.38.81-2.67,1.575-2.67,3.2,0,1.71,1.53,2.7,3.24,2.7a3.342,3.342,0,0,0,3.54-3.3C67.14-4.56,66.075-5.31,64.665-6.18Zm-1.185.81c1.095.615,2.58,1.455,2.58,2.88A2.335,2.335,0,0,1,63.78-.225,2.159,2.159,0,0,1,61.62-2.46,3.808,3.808,0,0,1,63.48-5.37Zm.75-1.065c-1.56-.93-2.415-1.455-2.415-2.505a1.73,1.73,0,0,1,1.77-1.785A1.892,1.892,0,0,1,65.445-8.7,2.854,2.854,0,0,1,64.23-6.435ZM82.5-6.81l-.015-.15a7.006,7.006,0,0,1-5.5-4.02c.27-.045.96-.165.96-.465a.265.265,0,0,0-.12-.225l-.555-.54c-.1-.09-.165-.165-.255-.165s-.135.03-.27.165l-.48.48h-.75c-.3,0-.96-.015-1.635-.075l.195.525a7,7,0,0,1,1.26-.09h1.2c1.125,3.39,2.91,5.01,4.515,5.7A2.466,2.466,0,0,1,82.5-6.81Zm-9-3.885c0-.105-.12-.2-.195-.24l-1.29-.87a4.962,4.962,0,0,1-.24.96,19.5,19.5,0,0,1-3.63,5.49l.075.105a12.955,12.955,0,0,0,4.65-5.1C73.11-10.41,73.5-10.515,73.5-10.695ZM78.78-6.12a.4.4,0,0,0-.135-.24l-.6-.66c-.06-.06-.135-.135-.21-.135a.444.444,0,0,0-.27.165l-.4.36H72.915c-.45,0-1.365-.015-2.295-.09l.285.6a9.489,9.489,0,0,1,1.77-.15h.435A7.575,7.575,0,0,1,68.37.9l.03.12c4.725-.87,5.73-4.935,5.82-7.29h3.03a30.512,30.512,0,0,1-.225,4.32c-.225,1.365-.51,1.53-1.23,1.53a9.365,9.365,0,0,1-1.74-.255L74.04-.57a2.152,2.152,0,0,1,1.125,1.65c2.7-.24,3-1.335,3.15-6.735C78.735-5.955,78.78-5.985,78.78-6.12Zm18-6.06-.3-.3L83.22.78l.3.3Zm1.05,1.725h.6A.963.963,0,0,1,99.5-9.42v7.9A.962.962,0,0,1,98.43-.48h-.6V0h5.355c2.91,0,4.08-1.68,4.08-3.015a2.744,2.744,0,0,0-1.14-2.115,4.082,4.082,0,0,0-2.01-.75,3.545,3.545,0,0,0,1.485-.66,2.564,2.564,0,0,0,1.035-1.98c0-1.53-1.515-2.43-3.81-2.43H97.83Zm2.865,1.035a.962.962,0,0,1,1.065-1.035h1.065c1.5,0,2.415.765,2.415,2.115a2.281,2.281,0,0,1-2.55,2.31h-2Zm2.415,3.87a2.52,2.52,0,0,1,2.73,2.58,2.476,2.476,0,0,1-2.775,2.49H101.76a.956.956,0,0,1-1.065-1.035V-5.55Zm6.06,4.1a.861.861,0,0,0-.87.87.861.861,0,0,0,.87.87.861.861,0,0,0,.87-.87A.88.88,0,0,0,109.17-1.455Zm0-5.925a.871.871,0,0,0-.87.87.861.861,0,0,0,.87.87.871.871,0,0,0,.87-.87A.88.88,0,0,0,109.17-7.38Zm11.235.165v-2.64h3.3c.09,0,.225-.015.225-.15,0-.105-.075-.165-.15-.24l-.8-.72c-.12-.1-.165-.15-.27-.15s-.15.075-.24.18l-.585.72h-1.47V-11.4c.075-.06.45-.39.45-.495s-.09-.15-.21-.18l-1.56-.465a6.49,6.49,0,0,1,.27,2.325h-.9c-.45,0-1.38-.015-2.31-.09l.3.585a9.944,9.944,0,0,1,1.755-.135h1.155c.015.81.015,1.755.015,2.64H117.93c-.21,0-1.275-.015-2.31-.105l.3.6a10.682,10.682,0,0,1,1.77-.135h1.575c.015.15.105.885.12,1.065.03.615.03.87.03,4.815a5.449,5.449,0,0,1-1.935-2.49,11.647,11.647,0,0,0,.4-1.47c.06-.03.375-.18.435-.225a.215.215,0,0,0,.075-.165.2.2,0,0,0-.165-.21l-1.53-.5a3.111,3.111,0,0,1,.06.675A9.847,9.847,0,0,1,114.315.69l.045.06a6.619,6.619,0,0,0,3.015-3.87c.345,1.23,1.14,3.945,5.97,3.945.36,0,.615-.03.855-.045a2.208,2.208,0,0,1,.87-1.455l-.015-.06a9.4,9.4,0,0,1-2.415.27,15.924,15.924,0,0,1-2.235-.165c0-.075.015-3.09.015-3.3h3.285c.105,0,.225-.03.225-.165,0-.1-.075-.165-.15-.225l-.75-.63c-.165-.135-.21-.165-.285-.165s-.12.045-.24.18l-.54.645H120.42V-5.775c.1-.045.465-.255.465-.45,0-.105-.105-.15-.195-.18l-1.395-.45h5.34c.105,0,.225-.015.225-.165,0-.09-.06-.15-.15-.225l-.885-.75c-.135-.105-.195-.165-.285-.165-.045,0-.1.015-.225.2l-.54.75ZM110.82-3.51a9.134,9.134,0,0,0,2.205-1.71c-.03,3.42-.015,3.81-.06,4.725,0,.165-.09,1.02-.09,1.215,0,.33.255.42.525.42.66,0,.66-.42.66-1.2,0-.585-.045-3.48-.045-4.125,0-.465,0-1.05.045-1.695.33-.24.39-.33.39-.42,0-.105-.075-.15-.255-.3.54-.7.84-1.125,1.08-1.47.345-.06.585-.06.585-.27a.242.242,0,0,0-.09-.195l-1.215-.945a6.174,6.174,0,0,1-.285.885,21.046,21.046,0,0,1-3.51,4.98Zm.075-4.38a11.8,11.8,0,0,0,4.02-3.39c.57-.12.63-.135.63-.3,0-.075-.09-.15-.12-.18l-1.125-.81a13.935,13.935,0,0,1-3.48,4.56Zm28.92.735c0-.06-.045-.12-.15-.225l-.9-.9a.488.488,0,0,0-.27-.165c-.06,0-.15.075-.24.2l-.705.9h-4.125V-9.735h4.14c.1,0,.225-.015.225-.165,0-.09-.06-.135-.15-.225l-.96-.855c-.09-.075-.2-.165-.27-.165s-.18.12-.24.195l-.585.855h-2.16V-12.03c.45-.255.45-.315.45-.42,0-.165-.12-.21-.285-.255l-1.38-.375c.1.8.15,1.14.165,1.47.03.51.03.885.03,4.26H130.35v-2.67c.42-.285.465-.33.465-.45,0-.135-.06-.195-.285-.255l-1.47-.405c.225.84.225,1.125.225,3.78h-.705c-.225,0-1.29-.015-2.31-.1l.3.6a10.682,10.682,0,0,1,1.77-.135h4.08c.015.8.03,2.5.015,3.21-.015.54-.015.555-.555.555-.18,0-1.05-.06-1.245-.06v.09a2.177,2.177,0,0,1,1.275,1.38c1.575-.45,1.575-.9,1.575-1.8,0-.375-.06-2.265-.06-2.685.33-.18.375-.24.375-.36,0-.135-.06-.135-.375-.21l-.525-.12h6.69C139.7-6.99,139.815-7.005,139.815-7.155Zm-8.625,1.8c0-.18-.12-.24-.255-.315l-1.17-.615a5.316,5.316,0,0,1-.285.9A17.623,17.623,0,0,1,126.57-1.2l.06.075a11.217,11.217,0,0,0,4.065-3.93c.135-.045.315-.09.375-.12A.2.2,0,0,0,131.19-5.355Zm7.68,2.6c0-.915-1.5-2.565-4.185-3.21l-.06.09a9,9,0,0,1,2.715,2.97c.285.465.5.8.93.8A.631.631,0,0,0,138.87-2.76Zm-2.565.03c0-.09-.06-.165-.18-.285l-.915-.9a6.884,6.884,0,0,1-1.335,1.485,14.44,14.44,0,0,1-6.66,3.405l.015.1A12.505,12.505,0,0,0,135.66-2.5C136.245-2.55,136.305-2.55,136.305-2.73ZM141.81,0h4.98V-.48h-.825c-.735,0-1.05-.27-1.05-.915v-9.63c0-.12-.03-.21-.165-.21-.06,0-.1.03-.21.09a5.777,5.777,0,0,1-2.445.63h-.27v.465h1.14c.285,0,.72.075.72.54v8.115c0,.615-.27.915-1.05.915h-.825Zm13.365-5.475c0-4.095-1.83-5.76-3.375-5.76-2.01,0-3.375,2.43-3.375,5.625a9.332,9.332,0,0,0,.915,4.275A3.036,3.036,0,0,0,151.8.285C153.63.285,155.175-1.8,155.175-5.475Zm-3.375-5.25c1.2,0,2.025,1.83,2.025,5.25a13.889,13.889,0,0,1-.36,3.3c-.165.57-.63,1.95-1.665,1.95-1.23,0-2.025-1.905-2.025-5.25a13.574,13.574,0,0,1,.345-3.255C150.27-9.255,150.735-10.725,151.8-10.725ZM170.55-6.81l-.015-.15a7.006,7.006,0,0,1-5.505-4.02c.27-.045.96-.165.96-.465a.265.265,0,0,0-.12-.225l-.555-.54c-.1-.09-.165-.165-.255-.165-.075,0-.135.03-.27.165l-.48.48h-.75c-.3,0-.96-.015-1.635-.075l.195.525a7,7,0,0,1,1.26-.09h1.2c1.125,3.39,2.91,5.01,4.515,5.7A2.466,2.466,0,0,1,170.55-6.81Zm-9-3.885c0-.105-.12-.2-.2-.24l-1.29-.87a4.962,4.962,0,0,1-.24.96,19.5,19.5,0,0,1-3.63,5.49l.075.105a12.955,12.955,0,0,0,4.65-5.1C161.16-10.41,161.55-10.515,161.55-10.695Zm5.28,4.575a.4.4,0,0,0-.135-.24l-.6-.66c-.06-.06-.135-.135-.21-.135a.444.444,0,0,0-.27.165l-.4.36h-4.245c-.45,0-1.365-.015-2.295-.09l.285.6a9.489,9.489,0,0,1,1.77-.15h.435A7.575,7.575,0,0,1,156.42.9l.03.12c4.725-.87,5.73-4.935,5.82-7.29h3.03a30.511,30.511,0,0,1-.225,4.32c-.225,1.365-.51,1.53-1.23,1.53a9.365,9.365,0,0,1-1.74-.255l-.015.105a2.152,2.152,0,0,1,1.125,1.65c2.7-.24,3-1.335,3.15-6.735C166.785-5.955,166.83-5.985,166.83-6.12Zm8.325.42a9.317,9.317,0,0,0-3.555-7.26l-.135.21a9.849,9.849,0,0,1,2.85,7.05,9.849,9.849,0,0,1-2.85,7.05l.135.21A9.317,9.317,0,0,0,175.155-5.7Z" transform="translate(9 50)"/>
    </g>
    <rect id="長方形_14" data-name="長方形 14" width="7" height="57" fill="#1c2c5a"/>
  </g>
</svg>
