<?xml version="1.0" encoding="UTF-8"?>
<svg id="_レイヤー_2" data-name="レイヤー 2" xmlns="http://www.w3.org/2000/svg" viewBox="0 0 265.18 96">
  <defs>
    <style>
      .cls-1 {
        fill: none;
        stroke: #000;
        stroke-miterlimit: 10;
      }

      .cls-2, .cls-3 {
        stroke-width: 0px;
      }

      .cls-3 {
        fill: #1c2c5a;
      }
    </style>
  </defs>
  <g id="_レイヤー_1-2" data-name="レイヤー 1">
    <g>
      <g>
        <path class="cls-2" d="m29.6,41.64v-.83h.78c1.04,0,1.82-.6,1.82-1.9v-6.47h-9.05v6.47c0,1.25.73,1.9,1.82,1.9h.78v.83h-7.02v-.83h.94c1.01,0,1.82-.6,1.82-1.9v-13.49c0-1.14-.65-1.9-1.82-1.9h-.94v-.86h7.02v.86h-.78c-1.2,0-1.82.73-1.82,1.9v6.19h9.05v-6.19c0-1.14-.62-1.9-1.82-1.9h-.78v-.86h6.99v.86h-.91c-1.12,0-1.82.65-1.82,1.9v13.49c0,1.33.81,1.9,1.82,1.9h.91v.83h-6.99Z"/>
        <path class="cls-2" d="m53.71,41.64v-.83h.91c.94,0,1.07-.52,1.07-.99,0-.13,0-.36-.18-.88l-1.38-4.06h-7.83l-1.35,3.8c-.03.05-.21.6-.21,1.07s.13,1.07,1.2,1.07h.42v.83h-5.12v-.83h.49c1.04,0,1.87-.75,2.24-1.79l5.82-16.43,1.82-.39,5.77,16.95c.31.94.96,1.66,2.08,1.66h.81v.83h-6.55Zm-3.41-18.1l-3.72,10.5h7.25l-3.54-10.5Z"/>
        <path class="cls-2" d="m80.72,36.62c-1.04,2-2.83,5.51-7.72,5.51-6.06,0-8.03-5.1-8.03-9.8,0-7.33,4.52-10.14,8.35-10.14.39,0,.94,0,2.18.42.81.29,1.04.29,1.2.29s.94,0,1.9-.7l1.87,4.73-.96.42c-.91-1.38-2.78-4.24-6.32-4.24-4.81,0-6.37,4.86-6.37,8.61,0,5.28,2.81,9.15,7.02,9.15,3.67,0,5.28-3.07,6.14-4.71l.75.47Z"/>
        <path class="cls-2" d="m97.91,41.64v-.83h.91c.94,0,1.07-.52,1.07-.99,0-.13,0-.36-.18-.88l-1.38-4.06h-7.83l-1.35,3.8c-.03.05-.21.6-.21,1.07s.13,1.07,1.2,1.07h.42v.83h-5.12v-.83h.49c1.04,0,1.87-.75,2.24-1.79l5.82-16.43,1.82-.39,5.77,16.95c.31.94.96,1.66,2.08,1.66h.81v.83h-6.55Zm-3.41-18.1l-3.72,10.5h7.25l-3.54-10.5Z"/>
        <path class="cls-2" d="m121.7,41.64l-5.3-9.33h-3.02v6.6c0,1.3.81,1.9,1.85,1.9h.81v.83h-6.94v-.83h.78c1.07,0,1.85-.65,1.85-1.9v-13.49c0-1.25-.73-1.9-1.85-1.9h-.78v-.86h8.01c3.12,0,6.63,1.12,6.63,4.58,0,1.51-.73,2.73-1.77,3.54-1.27.99-2.52,1.22-3.74,1.43l3.9,6.81c.75,1.3,1.61,1.79,2.89,1.79h.39v.83h-3.69Zm-4.42-18.12h-2.05c-1.17,0-1.85.73-1.85,1.9v6.03h3.74c2.47,0,4.58-1.35,4.58-4s-1.98-3.93-4.42-3.93Z"/>
        <path class="cls-2" d="m129.29,41.64v-.83h1.4c.94,0,1.82-.52,1.82-1.9v-13.49c0-1.2-.68-1.9-1.82-1.9h-1.4v-.86h8.11v.86h-1.38c-1.09,0-1.82.65-1.82,1.9v13.49c0,1.27.78,1.9,1.82,1.9h1.38v.83h-8.11Z"/>
        <path class="cls-2" d="m160.75,23.15c-2.18,2.68-5.82,5.98-8.06,7.41-2.78,1.77-7.7,3.82-9.49,3.95l-.1-.23c2.6-.91,6.92-3.3,8.74-4.6,2.05-1.46,5.1-4.29,7.36-7.38h-6.45c-.78.96-1.14,1.4-2.13,2.44.13.05.23.08,1.09.39.36.13,2.26.83,2.26,2.21,0,.62-.47.91-.86.91-.52,0-.78-.36-1.14-1.14-.6-1.25-.65-1.4-1.53-2.18-2.34,2.42-4.89,3.77-6.14,4.45l-.1-.21c.94-.68,3.98-3.17,6.29-6.24,1.79-2.39,1.9-3.04,2.05-3.98l1.9,1.07c.21.13.29.18.29.36,0,.36-.34.44-.96.57-.23.36-.34.47-.52.73h6.06l1.12-.75c.26-.18.29-.18.34-.18q.08,0,.26.13l1.53,1.01c.16.1.26.21.26.39,0,.44-.16.52-2.05.88Zm3.64,9.75c-2.73,3.12-5.8,6.08-8.55,7.8-1.72,1.07-5.72,3.15-11.05,3.48l-.03-.23c2.99-.7,7.46-1.85,12.17-5.77,3.41-2.83,5.07-5.2,5.67-6.32h-6.08c-1.51,1.38-2.47,2.16-3.38,2.81.86.23,3.56,1.4,3.56,2.99,0,.62-.52.96-.94.96-.49,0-.6-.31-.86-.96-.16-.36-.68-1.51-2-2.83-.62.44-1.33.88-2,1.27-2.08,1.2-4.06,2.05-5.98,2.44l-.05-.21c.73-.31,2.18-.96,3.64-1.82,3.3-1.98,6.32-4.99,7.31-6.06,1.48-1.59,1.59-1.98,1.87-2.99l1.95,1.12c.05.03.26.18.26.36,0,.36-.26.39-1.07.49-.31.39-.73.91-1.66,1.79h5.62l.88-.65c.23-.18.26-.18.34-.18.1,0,.16.05.36.21l1.46,1.12c.23.18.31.26.31.39,0,.44-.39.52-1.74.78Z"/>
        <path class="cls-2" d="m193.72,23.59h-18.28c.03,3.17.1,8.76-.47,11.7-.47,2.34-1.4,5.07-3.33,6.73l-.13-.08c2.18-3.2,2.55-7.88,2.55-12.92,0-.34-.03-5.41-.36-7.12l2.03,1.07h7.59c-.16-2.37-.18-2.5-.44-3.25l2.18.55c.1.03.29.1.29.31,0,.29-.08.34-.75.73,0,.49-.03,1.33-.03,1.66h6.19l.78-1.09c.08-.1.23-.34.39-.34.13,0,.44.23.49.29l1.43,1.12c.16.13.26.21.26.39,0,.23-.21.26-.39.26Zm.62,16.35h-9.52c.03,1.69,0,2.08-.31,2.57-.05.08-.55.83-1.79,1.17-.18-1.09-1.09-1.69-2.26-2l.05-.16c1.38.08,1.69.1,2,.1,1.14,0,1.14-.13,1.12-1.69h-4.94c-.55,0-2.11.08-3.35.31l-.62-1.12c1.35.1,2.99.18,4.34.18h4.58c0-.29-.03-1.82-.03-2.16h-2.78c-.52,0-2.11.05-3.33.31l-.62-1.12c1.35.1,2.96.18,4.32.18h2.42v-1.77c-1.4.16-2.86.26-4.26.26-.83,0-1.66-.03-2.47-.13v-.18c1.56,0,5.15-.6,6.81-.86,1.46-.23,3.87-.7,5.25-1.61l1.22.96c.13.08.16.21.16.34,0,.16-.05.34-.42.34-.13,0-.18,0-.81-.13-.7.18-1.72.42-4.29.83v1.95h3.35l.55-.83c.16-.23.21-.36.36-.36.18,0,.39.18.52.29l1.01.86c.13.13.26.23.26.39,0,.29-.29.29-.39.29h-5.67v2.16h6.58l.88-1.01c.21-.26.34-.39.47-.39.18,0,.44.23.52.29l1.22,1.09c.13.1.26.21.26.39,0,.26-.29.26-.39.26Zm-9.8-12.87h-2.86v.65c.83.18,2.29.62,2.29,1.74,0,.42-.23.68-.55.68-.44,0-.62-.44-.75-.81-.26-.62-.86-1.33-.99-1.43,0,.68.05,4,.05,4.19,0,.26,0,.36-.08.47-.1.18-.36.37-.7.37-.52,0-.52-.37-.52-.83,0-.7.16-3.9.18-4.55-1.14,1.79-2.57,3.38-4.34,4.55l-.13-.16c1.27-1.27,2.76-3.61,3.41-4.84-.73.05-1.56.13-2.29.26l-.6-1.12c.73.08,1.79.16,3.93.21-.05-1.04-.13-1.51-.36-2.37l1.82.49c.08.03.29.08.29.31,0,.16-.05.26-.68.55,0,.42.03.57.03,1.01h1.3l.34-.57c.16-.26.23-.34.36-.34s.16.03.47.34l.52.52c.21.21.26.26.26.39,0,.23-.21.29-.39.29Zm9.7,3.77c-.36.18-.52.47-.65.68-2.44-1.12-4.16-3.72-4.5-4.52h-.23v1.43c0,.42.08,2.39.08,2.55,0,.29,0,.44-.13.55-.18.13-.47.26-.7.26-.36,0-.39-.34-.39-.62,0-.52.08-2.89.08-3.35-.39.68-1.85,2.81-4.39,3.98l-.08-.18c1.59-1.12,3.46-4.06,3.72-4.47-.73.08-.83.1-1.14.16l-.62-1.12c1.25.1,1.64.13,2.47.16-.08-1.61-.1-1.79-.21-2.21l1.59.39c.16.03.34.08.34.29,0,.13-.13.26-.21.34-.08.05-.36.26-.44.31.03.1.03.83.03.91.29.03.62.03.78.03h2.13l.57-.68c.26-.29.29-.31.42-.31.1,0,.26.08.52.31l.73.62c.16.13.26.23.26.39,0,.23-.21.29-.39.29h-4.37c1.46,1.59,3.59,2.96,6.06,3.2v.1c-.21.08-1.12.47-1.3.55Z"/>
        <path class="cls-2" d="m205.42,22.97s-.03.31-.03.34l-.03,8.63c0,3.04-.62,9.02-5.3,11.34l-.1-.16c2.6-2.39,4.06-5.17,4.06-15.13,0-2.37-.03-4.6-.34-6.97l2.5.78c.21.05.34.1.34.29,0,.23-.26.47-1.09.88Zm7.05.29c0,6.76,0,7.51.13,14.64,0,.36.03,1.95.03,2.29,0,.94-1.17.94-1.22.94-.57,0-.57-.31-.57-.55,0-.13.1-1.72.1-1.95.18-3.2.18-6.47.18-9.72,0-1.3-.03-5.07-.13-6.16-.05-.42-.1-.81-.18-1.14l2.08.55c.36.1.44.16.44.29,0,.29-.55.62-.86.83Zm8.09-.62v.47l-.05,8.53c0,.29.21,8.27.21,9.8,0,.91,0,1.01-.26,1.22-.29.21-.81.34-1.04.34-.42,0-.57-.21-.57-.57,0-.29.1-1.46.1-1.72.13-4.42.18-8.84.18-10.79,0-6.29-.21-7.67-.44-9.13l2.39.75c.29.1.39.18.39.34,0,.34-.44.55-.91.75Z"/>
        <path class="cls-2" d="m251.2,24.37h-18.38c.1,8.24.16,15.05-4.08,18.93l-.16-.13c2.08-3.04,2.89-6.97,2.89-15,0-3.02-.13-3.9-.49-5.54l2.13,1.12h6.32c0-2.24-.08-2.68-.57-3.87l2.5.52c.08.03.47.13.47.36,0,.21-.13.31-.26.42-.18.13-.31.21-.68.44v2.13h7.33l.96-1.04c.26-.29.29-.31.42-.31s.39.18.49.26l1.25,1.04c.13.1.26.23.26.42,0,.23-.21.26-.39.26Zm-1.25,5.38h-7.96v4.86h4.71l.62-.73c.26-.31.31-.34.42-.34.08,0,.34.18.49.31l.83.62c.21.16.42.31.42.44,0,.18-.62.54-.96.78,0,.29.03,5.2.1,6.19.03.34.05.55.05.68,0,.78-.52,1.14-1.01,1.14-.52,0-.57-.29-.57-.49,0-.13.05-.68.05-.81h-10.06c.03.81.03,1.48-1.07,1.48-.26,0-.57-.1-.57-.39,0-.13.08-.57.08-.68.1-1.22.16-2.52.16-4.16,0-2.39-.08-3.09-.23-5.23l1.74,1.17h3.46c0-.94,0-5.02-.05-5.85-.13-2.42-.31-2.91-.52-3.46l2.29.57c.26.08.44.13.44.34,0,.34-.52.57-.81.7v2.21h5.02l.99-1.09c.26-.29.29-.31.42-.31.16,0,.31.13.47.29l1.22,1.09c.13.1.23.21.23.39,0,.23-.23.26-.39.26Zm-2.81,5.49h-10.06v6.55h10.06v-6.55Z"/>
      </g>
      <g>
        <g>
          <rect class="cls-1" x="17.87" y="54.06" width="84.39" height="23.44" rx="5" ry="5"/>
          <g>
            <path class="cls-2" d="m43.24,63.06h-.29c-.14.1-.21.16-.84.69-.08.06-.67.48-.79.58l-.06-.06c.35-.9.49-1.47.59-1.94h-9.48c-.02,1.41-.64,2.74-1.44,2.74-.44,0-.62-.38-.62-.67,0-.4.26-.67.79-1.22.33-.35.93-1.22,1.02-2.1h.08c.08.26.15.5.18.86h6.41c.32-.5,1.23-2.43,1.12-3.63l1.47.82c.15.08.23.16.23.26,0,.14-.15.19-.7.29-.87,1.15-.97,1.28-1.81,2.27h2.61l.46-.37c.14-.11.24-.19.33-.19s.17.08.33.21l.9.75c.12.1.18.22.18.34,0,.32-.36.38-.68.38Zm-1.95,6.42c.02.21.02.35.03,1.63,0,.14.06.91.06,1.09,0,.64-.56.7-.7.7-.46,0-.43-.38-.39-.67h-6.28c0,.24.02.77-.65.77-.38,0-.46-.21-.44-.53.03-.64.09-1.97.09-2.59,0-.91-.08-1.41-.14-1.84l1.29.74h1.91c.23-.56.4-1.38.43-1.89h-1.63c0,.26.02.74-.61.74-.46,0-.46-.35-.46-.5,0-.4.09-2.16.09-2.53,0-.58-.02-.85-.12-1.3l1.31.62h3.98l.38-.43c.11-.11.17-.16.23-.16s.15.05.26.13l.56.45c.11.1.17.16.17.24,0,.13-.09.21-.46.5-.02.32.08,1.78.08,2.08,0,.43-.27.66-.65.66-.26,0-.44-.14-.43-.5h-1.38c-.29.51-.93,1.46-1.31,1.89h3.65l.33-.45c.08-.11.15-.18.23-.18s.17.06.27.14l.58.45c.09.08.17.18.17.26,0,.11-.09.22-.46.48Zm-6.82-7.99c-.41,0-.52-.35-.62-.75-.2-.8-.41-1.25-.85-1.89l.06-.08c.79.42,2.01,1.06,2.01,2.06,0,.42-.29.66-.59.66Zm5.84,7.67h-6.29v2.69h6.29v-2.69Zm-1.08-4.85h-4.36v2.19h4.36v-2.19Zm-1.9-3.03c-.53,0-.64-.51-.75-1.06-.12-.61-.27-1.01-.71-1.71l.06-.08c1.26.59,1.98,1.41,1.98,2.14,0,.11-.03.7-.58.7Z"/>
            <path class="cls-2" d="m59.07,61.94h-4.74l.79.5c.06.05.15.14.15.22,0,.19-.29.22-.56.24-.43.48-1.05,1.04-1.34,1.3h2.6l.59-.7c.08-.1.17-.19.24-.19s.21.1.27.16l.7.71c.08.08.14.14.14.24,0,.16-.12.18-.23.18h-4.85c0,.19.02,1.07.02,1.25h2.14l.53-.58c.09-.1.18-.19.26-.19s.15.08.29.18l.74.54c.08.06.17.14.17.26,0,.14-.12.18-.23.18h-3.91v1.39h3.91l.68-.82c.11-.13.15-.19.24-.19.11,0,.2.1.27.16l.84.82c.08.08.15.14.15.26,0,.14-.14.16-.24.16h-5.55c1.05,1.31,3.34,2.9,5.93,3.09l.02.1c-.49.24-1.02.51-1.4,1.3-1.96-.77-3.86-2.59-4.8-4.48h-.05c.02,1.46.03,1.75.03,2.05.02.37.09,1.95.09,2.29,0,.48-.46.66-.77.66-.41,0-.44-.26-.44-.5,0-.35.05-.94.06-1.31.02-.53.02-.77.05-2.99-1.09,1.54-3.13,3.52-6.03,4.32l-.03-.1c2.05-1.15,3.45-2.45,4.86-4.42h-2.69c-.15,0-1.09,0-1.79.14l-.3-.64c1.02.1,2.05.11,2.34.11h3.65v-1.39h-2.66c-.4,0-1.11.02-1.79.14l-.3-.64c1.05.1,2.14.11,2.34.11h2.42v-1.25h-3.19c-.14,0-1.08,0-1.78.14l-.3-.64c1.02.1,2.08.11,2.34.11h4.13c.2-.37.67-1.5.76-2.26h-4.32c.88.3,1.69.79,1.69,1.55,0,.46-.36.64-.61.64-.35,0-.4-.1-.76-1.06-.08-.21-.27-.72-.62-1.14h-1.58c-.38,0-1.11,0-1.79.14l-.29-.64c1.03.1,2.11.11,2.33.11h2.86c-.05-2.3-.05-2.48-.26-3.3l1.47.45c.14.05.21.1.21.24,0,.18-.17.27-.46.38v2.22h1.12c0-2.03,0-2.5-.32-3.3l1.55.43c.09.03.26.08.26.24,0,.24-.36.37-.5.42v2.21h.65c.35-.7.73-1.89.79-2.24.06-.27.08-.51.08-.77l1.35.72c.09.05.18.11.18.22,0,.24-.36.29-.53.3-.47.53-1.28,1.44-1.58,1.76h2.39l.65-.72c.12-.13.18-.21.24-.21.09,0,.2.08.3.18l.79.7c.09.08.17.14.17.26,0,.14-.14.18-.23.18Zm-9.88-.74c-.36,0-.47-.26-.76-.98-.05-.11-.29-.72-.88-1.26l.06-.11c.61.16,2.13.59,2.13,1.71,0,.21-.11.64-.55.64Z"/>
            <path class="cls-2" d="m65.24,60.82c-.02.58-.03.94-.03,1.71,0,1.68.09,5.31.12,6,0,.21.05.58.05.78,0,.61-.65.64-.73.64-.41,0-.41-.11-.38-1.17h-1.9c0,.11.05,1.42.05,1.46,0,.58-.59.69-.76.69-.38,0-.38-.3-.38-.5,0-.18.05-.96.05-1.12.05-1.22.06-5.71.06-6.08,0-2.38-.05-2.83-.18-3.95l1.32.67h1.55l.44-.42c.17-.14.2-.21.27-.21s.15.05.24.14l.61.58c.06.06.12.16.12.26,0,.14-.3.35-.52.51Zm-.96-.48h-1.91v3.76h1.91v-3.76Zm0,4.15h-1.91v3.92h1.91v-3.92Zm9.94-.3h-6.69c-.27,0-1.05,0-1.79.14l-.29-.64c.94.08,1.87.11,2.33.11h1.28v-2.45h-.67c-.15,0-1.08,0-1.79.14l-.29-.64c1,.1,2.07.11,2.33.11h.43c0-1.62-.05-1.92-.26-2.61l1.57.48c.17.05.27.13.27.26s-.05.16-.49.48c-.02.38-.02.48-.03,1.39h1.49l.56-.69c.11-.14.17-.19.24-.19.09,0,.17.05.27.16l.75.69c.08.06.15.13.15.24,0,.14-.14.18-.23.18h-3.25v2.45h2.31l.58-.74c.12-.16.17-.21.23-.21.09,0,.14.06.29.19l.81.72c.12.11.14.19.14.24,0,.16-.14.18-.23.18Zm-.03,2.93h-2.52c0,.32.05,3.33.05,3.84,0,.61,0,1.6-1.96,1.99-.14-.53-.3-.98-1.4-1.6l.03-.11c.3.03,1.25.11,1.49.11.68,0,.78-.14.79-.46.02-.29.02-3.5,0-3.76h-2.95c-.38,0-1.11.02-1.79.14l-.29-.64c1.03.1,2.11.11,2.33.11h2.71c-.02-.62-.05-1.74-.2-2.21l1.37.35c.2.05.29.08.29.21,0,.11-.05.14-.44.46-.02.3-.02.4-.02,1.18h.71l.62-.75c.12-.14.18-.19.26-.19s.14.03.26.16l.74.75c.11.1.15.14.15.24,0,.14-.12.18-.23.18Zm-5.81,3.22c-.46,0-.55-.45-.62-.88-.17-1.01-.47-1.47-.71-1.78l.06-.1c1.49.62,1.91,1.55,1.91,2.05,0,.43-.32.7-.64.7Z"/>
            <path class="cls-2" d="m81.85,60.29v1.83c0,.26.06,1.49.06,1.66,0,.38-.36.62-.74.62-.41,0-.36-.38-.33-.58h-2.6v4.02c0,.58.06,3.36.06,3.99,0,.42-.15.9-.77.9-.33,0-.44-.21-.44-.42,0-.1.05-.51.05-.61.12-1.81.12-2.8.12-9.81,0-2.29,0-2.34-.17-3.2l1.41.7h2.19l.4-.38c.09-.08.15-.16.21-.16s.14.06.18.1l.79.61c.06.05.11.11.11.21,0,.11-.09.21-.52.53Zm-1-.51h-2.61v1.6h2.61v-1.6Zm0,1.98h-2.61v1.68h2.61v-1.68Zm4.21,4.48c0,.75,0,1.97.05,2.93,0,.14.06.8.06.93,0,.69-.56.74-.76.74s-.4-.05-.32-.8h-2.96c.03.38.09,1.04-.71,1.04-.33,0-.35-.27-.35-.45,0-.1.03-.51.05-.69.06-.91.06-2.62.06-2.77,0-.86,0-1.44-.11-2.26l1.11.58h2.89l.26-.35c.08-.11.17-.21.29-.21.08,0,.17.06.24.13l.55.5c.08.06.14.13.14.21,0,.11-.14.26-.47.48Zm-.97-.37h-2.96v1.68h2.96v-1.68Zm0,2.07h-2.96v1.71h2.96v-1.71Zm4.33-7.6c0,1.55.03,8.42.03,9.81s0,1.82-.61,2.27c-.09.06-.52.38-1.15.53-.12-.56-.26-1.17-1.64-1.73l.03-.11c.26.02,1.64.1,1.79.1.14,0,.43,0,.52-.19.06-.14.06-1.46.06-1.75,0-.86-.02-4.67-.02-5.44h-2.87c.02.45-.3.66-.71.66-.21,0-.35-.13-.35-.38,0-.7.05-3.75.05-4.35,0-.27-.03-.56-.08-1.02l1.26.67h2.57l.37-.43c.06-.06.18-.18.27-.18s.18.05.24.11l.73.66c.08.08.12.14.12.22,0,.13-.12.24-.61.56Zm-.99-.56h-2.89v1.6h2.89v-1.6Zm0,1.98h-2.89v1.68h2.89v-1.68Z"/>
          </g>
        </g>
        <g>
          <path class="cls-2" d="m110.18,72.47h.88c.83,0,1.12-.32,1.12-.98v-8.66c0-.5-.46-.58-.77-.58h-1.22v-.5h.29c1.23,0,2.42-.56,2.61-.67.11-.06.16-.1.22-.1.14,0,.18.1.18.22v10.28c0,.69.34.98,1.12.98h.88v.51h-5.31v-.51Z"/>
          <path class="cls-2" d="m120.84,73.28c-1.1,0-2.03-.77-2.62-1.73-.67-1.1-.98-3.07-.98-4.56,0-3.41,1.46-6,3.6-6,1.65,0,3.6,1.78,3.6,6.15,0,3.92-1.65,6.15-3.6,6.15Zm-1.79-9.62c-.22.8-.37,2.14-.37,3.47,0,3.57.85,5.6,2.16,5.6,1.1,0,1.6-1.47,1.78-2.08.22-.82.38-2.18.38-3.52,0-3.65-.88-5.6-2.16-5.6-1.14,0-1.63,1.57-1.79,2.13Z"/>
          <path class="cls-2" d="m130.36,62.11c-.02.58-.03.94-.03,1.71,0,1.68.1,5.31.13,6,0,.21.05.58.05.78,0,.61-.69.64-.77.64-.43,0-.43-.11-.4-1.17h-2c0,.11.05,1.42.05,1.46,0,.58-.62.69-.8.69-.4,0-.4-.3-.4-.5,0-.18.05-.96.05-1.12.05-1.22.06-5.71.06-6.08,0-2.39-.05-2.83-.19-3.95l1.39.67h1.63l.46-.42c.18-.14.21-.21.29-.21s.16.05.26.14l.64.58c.06.06.13.16.13.26,0,.14-.32.35-.54.51Zm-1.01-.48h-2.02v3.76h2.02v-3.76Zm0,4.15h-2.02v3.92h2.02v-3.92Zm10.47-.3h-7.04c-.29,0-1.1,0-1.89.14l-.3-.64c.99.08,1.97.11,2.45.11h1.34v-2.45h-.7c-.16,0-1.14,0-1.89.14l-.3-.64c1.06.1,2.18.11,2.45.11h.45c0-1.62-.05-1.92-.27-2.61l1.65.48c.18.05.29.13.29.26s-.05.16-.51.48c-.02.38-.02.48-.03,1.39h1.57l.59-.69c.11-.14.18-.19.26-.19.1,0,.18.05.29.16l.78.69c.08.06.16.13.16.24,0,.14-.14.18-.24.18h-3.43v2.45h2.43l.61-.74c.13-.16.18-.21.24-.21.1,0,.14.06.3.19l.85.72c.13.11.14.19.14.24,0,.16-.14.18-.24.18Zm-.03,2.93h-2.66c0,.32.05,3.33.05,3.84,0,.61,0,1.6-2.06,1.99-.14-.53-.32-.98-1.47-1.6l.03-.11c.32.03,1.31.11,1.57.11.72,0,.82-.14.83-.46.02-.29.02-3.5,0-3.76h-3.11c-.4,0-1.17.02-1.89.14l-.3-.64c1.09.1,2.22.11,2.45.11h2.85c-.02-.62-.05-1.74-.21-2.21l1.44.35c.21.05.3.08.3.21,0,.11-.05.14-.46.46-.02.3-.02.4-.02,1.18h.75l.66-.75c.13-.14.19-.19.27-.19s.14.03.27.16l.78.75c.11.1.16.14.16.24,0,.14-.13.18-.24.18Zm-6.11,3.22c-.48,0-.58-.45-.66-.88-.18-1.01-.5-1.47-.75-1.78l.06-.1c1.57.62,2.02,1.55,2.02,2.05,0,.43-.34.71-.67.71Z"/>
          <path class="cls-2" d="m151.02,68.23c-.99,0-1.82-.37-2.62-.74-2.32-1.06-2.37-1.09-3.07-1.09-1.01,0-2.5.53-3.49,1.28l-.21-.24c1.87-1.87,3.92-1.87,4.16-1.87.64,0,1.28.11,2.88.86,1.78.83,2.07.98,2.8.98.99,0,2.48-.54,3.49-1.3l.21.24c-1.87,1.87-3.91,1.87-4.15,1.87Z"/>
          <path class="cls-2" d="m157.29,72.47h.88c.83,0,1.12-.32,1.12-.98v-8.66c0-.5-.46-.58-.77-.58h-1.22v-.5h.29c1.23,0,2.42-.56,2.61-.67.11-.06.16-.1.22-.1.14,0,.18.1.18.22v10.28c0,.69.34.98,1.12.98h.88v.51h-5.31v-.51Z"/>
          <path class="cls-2" d="m168.65,68.34c-.34.21-.83.42-1.39.42-1.58,0-2.87-1.6-2.87-3.55,0-2.21,1.58-4.21,3.43-4.21s3.68,2.08,3.68,5.52c0,3.7-2.08,6.77-4.53,6.77-1.07,0-1.82-.64-1.82-1.39,0-.58.45-.83.82-.83.32,0,.85.21.88,1.1.02.35.05.58.48.58s.86-.21,1.17-.56c1.42-1.57,1.5-3.94,1.57-5.36-.3.5-.64,1.04-1.41,1.52Zm.53-5.94c-.27-.43-.69-.86-1.3-.86-.85,0-2.05.9-2.05,3.52,0,.74.18,2.98,1.82,2.98.61,0,1.63-.45,2.39-2.18-.06-.88-.19-2.42-.86-3.46Z"/>
          <path class="cls-2" d="m177.46,62.11c-.02.58-.03.94-.03,1.71,0,1.68.1,5.31.13,6,0,.21.05.58.05.78,0,.61-.69.64-.77.64-.43,0-.43-.11-.4-1.17h-2c0,.11.05,1.42.05,1.46,0,.58-.62.69-.8.69-.4,0-.4-.3-.4-.5,0-.18.05-.96.05-1.12.05-1.22.06-5.71.06-6.08,0-2.39-.05-2.83-.19-3.95l1.39.67h1.63l.46-.42c.18-.14.21-.21.29-.21s.16.05.26.14l.64.58c.06.06.13.16.13.26,0,.14-.32.35-.54.51Zm-1.01-.48h-2.02v3.76h2.02v-3.76Zm0,4.15h-2.02v3.92h2.02v-3.92Zm10.47-.3h-7.04c-.29,0-1.1,0-1.89.14l-.3-.64c.99.08,1.97.11,2.45.11h1.34v-2.45h-.7c-.16,0-1.14,0-1.89.14l-.3-.64c1.06.1,2.18.11,2.45.11h.45c0-1.62-.05-1.92-.27-2.61l1.65.48c.18.05.29.13.29.26s-.05.16-.51.48c-.02.38-.02.48-.03,1.39h1.57l.59-.69c.11-.14.18-.19.26-.19.1,0,.18.05.29.16l.78.69c.08.06.16.13.16.24,0,.14-.14.18-.24.18h-3.43v2.45h2.43l.61-.74c.13-.16.18-.21.24-.21.1,0,.14.06.3.19l.85.72c.13.11.14.19.14.24,0,.16-.14.18-.24.18Zm-.03,2.93h-2.66c0,.32.05,3.33.05,3.84,0,.61,0,1.6-2.06,1.99-.14-.53-.32-.98-1.47-1.6l.03-.11c.32.03,1.31.11,1.57.11.72,0,.82-.14.83-.46.02-.29.02-3.5,0-3.76h-3.1c-.4,0-1.17.02-1.89.14l-.3-.64c1.09.1,2.22.11,2.45.11h2.85c-.02-.62-.05-1.74-.21-2.21l1.44.35c.21.05.3.08.3.21,0,.11-.05.14-.46.46-.02.3-.02.4-.02,1.18h.75l.66-.75c.13-.14.19-.19.27-.19s.14.03.27.16l.78.75c.11.1.16.14.16.24,0,.14-.13.18-.24.18Zm-6.11,3.22c-.48,0-.58-.45-.66-.88-.18-1.01-.5-1.47-.75-1.78l.06-.1c1.57.62,2.02,1.55,2.02,2.05,0,.43-.34.71-.67.71Z"/>
          <path class="cls-2" d="m189.03,74.13l-.32-.32,14.15-14.15.32.32-14.15,14.15Z"/>
          <path class="cls-2" d="m215.07,61.52c-.05,1.34.02,5.41.05,6.99,0,.46.08,2.5.08,2.9,0,1.39,0,2.27-2.26,2.64-.1-.62-.35-1.01-1.49-1.6l.02-.11c.24.03.74.11,1.66.11.78,0,.8,0,.8-1.86,0-1.23,0-2.11.02-2.77h-5.33c-.24,2.85-1.68,5.28-4.05,6.45l-.08-.1c2.85-2.5,3.07-5.39,3.07-9.72,0-1.6,0-3.2-.3-4.75l1.63.78h4.83l.51-.48c.11-.1.21-.16.29-.16.1,0,.18.05.27.13l.75.62c.11.1.18.19.18.29,0,.16-.11.27-.66.62Zm-1.12,2.85h-5.22s-.03,2.37-.1,3.07h5.31v-3.07Zm0-3.49h-5.22v3.11h5.22v-3.11Z"/>
          <path class="cls-2" d="m221.21,61.07l.32-.34c.05-.06.14-.13.24-.13s.22.1.3.18l.56.56c.06.06.11.16.11.24,0,.1-.11.22-.42.48-.03,1.14-.03,2.29-.02,4,.02.71.06,3.78.06,4.42,0,.38-.03.56-.21.7-.18.14-.42.22-.56.22-.38,0-.37-.27-.32-.91h-1.6c.02.71.02.79-.02.93-.1.32-.45.5-.72.5-.4,0-.43-.3-.43-.46,0-.13.05-.69.05-.8.03-1.74.05-3.19.05-6.63,0-2.37,0-2.64-.13-3.54l1.23.58h1.49Zm-1.52.38v4.03h1.6v-4.03h-1.6Zm0,4.42v4.24h1.6v-4.24h-1.6Zm8.76,3.52v1.49h1.57l.3-.5c.06-.11.14-.24.26-.24.08,0,.13.03.29.18l.64.53c.06.05.16.13.16.24,0,.16-.16.18-.24.18h-2.98v1.57h2.29l.37-.64c.1-.18.19-.24.27-.24s.18.08.29.18l.77.67c.06.05.16.14.16.26,0,.16-.16.16-.24.16h-6.95c0,.45.02.5-.05.59-.13.3-.56.4-.74.4-.37,0-.37-.26-.37-.35,0-.21.05-1.23.06-1.47.02-.54.06-2.56.05-4.08-.82,1.06-1.54,1.55-1.92,1.81l-.05-.08c.94-1.22,2.21-3.46,2.42-4.75l1.09.53c.13.06.16.16.16.21,0,.18-.1.21-.43.34-.19.35-.29.5-.45.77l.37.16h1.87c.21-.46.45-1.25.58-2.03l1.18.56c.08.03.18.11.18.21,0,.13-.05.14-.53.3-.38.38-.61.56-1.1.96h2.59l.42-.56c.11-.14.18-.21.26-.21s.14.03.3.16l.72.58c.06.05.16.14.16.24,0,.18-.16.18-.24.18h-3.49v1.34h1.54l.3-.53c.05-.08.13-.22.26-.22.08,0,.21.1.3.18l.69.54c.06.05.16.14.16.24,0,.16-.16.18-.24.18h-3.01Zm-3.04-4.5c-.4,0-1.17.02-1.89.14l-.32-.64c1.09.1,2.23.11,2.46.11h.35v-1.74h-.62c-.4,0-1.17,0-1.87.14l-.32-.64c.99.08,1.97.11,2.45.11h.37v-1.7h-.94c-.38,0-1.17,0-1.89.14l-.32-.64c1.1.1,2.24.11,2.46.11h.59l.37-.35c.1-.08.16-.11.21-.11.08,0,.14.06.24.16l.61.55c.08.06.13.16.13.22,0,.13-.19.29-.43.48v.99c0,.43.08,2.29.08,2.67,0,.22-.03.34-.19.46-.14.13-.38.21-.56.21-.4,0-.38-.3-.37-.69h-.59Zm0,2.77v1.34h2.05v-1.34h-2.05Zm0,1.73v1.49h2.05v-1.49h-2.05Zm0,1.87v1.57h2.05v-1.57h-2.05Zm4.71-6.39c-.16,0-1.15,0-1.89.14l-.32-.64c1.04.1,2.16.11,2.56.11v-1.76c-.43,0-1.36,0-2.1.14l-.32-.62c.86.06,1.25.08,2.42.1v-1.71h-.5c-.4,0-1.17.02-1.87.14l-.32-.64c.96.1,1.95.11,2.66.11l.34-.35c.06-.06.14-.14.21-.14s.11.02.29.18l.58.5c.06.06.14.13.14.22,0,.11-.11.19-.48.45-.02.35-.02.83.02,1.91,0,.3.08,1.66.08,1.95,0,.53-.56.64-.74.64-.42,0-.42-.32-.4-.72h-.35Z"/>
          <path class="cls-2" d="m249.07,72.32c-.48.32-1.09.83-1.23,1.75-1.09.02-4.08.08-6.05-.46-1.94-.53-3.28-2.06-3.7-3.39-.8,1.78-1.87,3.25-3.91,4.08l-.08-.06c2.27-1.67,3.49-5.35,3.49-6.95,0-.13,0-.21-.02-.35l1.58.64c.08.03.18.11.18.22,0,.18-.05.21-.58.43-.13.56-.27,1.04-.51,1.6.5,1.06,1.25,1.95,2.48,2.53v-6.5h-3.25c-.43,0-1.18.02-1.89.14l-.32-.62c1.31.1,2.27.1,2.46.1h7.27l.64-.85c.1-.11.16-.19.24-.19s.19.1.32.19l1.07.83c.1.06.16.13.16.24,0,.16-.14.16-.24.16h-5.31v2.95h2.39l.64-.78c.11-.14.16-.21.24-.21.1,0,.21.1.3.18l.96.78c.08.06.16.14.16.24,0,.18-.14.18-.24.18h-4.45v3.51c.27.05.75.13,1.7.13,2.18,0,4.67-.42,5.51-.54l-.02.05Zm-1.58-9.28h-.45c-.3.14-1.63.83-1.9.96l-.06-.05c.08-.13.67-1.42.75-1.65h-8.92c-.05,1.52-.96,2.34-1.74,2.34-.42,0-.59-.34-.59-.62,0-.38.24-.58.54-.8,1.34-1.01,1.49-1.78,1.57-2.18h.1c.06.32.1.53.11.88h3.81c0-1.54,0-1.57-.34-2.53l1.81.43c.13.03.26.13.26.22,0,.14-.06.18-.54.5v1.38h3.79l.66-.53c.06-.05.14-.11.22-.11.06,0,.16.05.22.11l1.18,1.14c.08.06.14.18.14.24,0,.27-.43.27-.62.27Z"/>
          <path class="cls-2" d="m253.77,63.59c.11.06.22.16.22.27,0,.1-.06.16-.14.22-.1.06-.21.16-.34.26-.05,1.47-.06,2.56-.06,3.17,0,.93.1,5.6.1,5.83,0,.3-.03.5-.26.66-.19.14-.38.21-.59.21-.34,0-.43-.13-.43-.56,0-.77.19-5.55.21-6.51,0-.34.02-1.54.03-2.32-.46.77-1.49,2.32-2.72,3.44l-.08-.08c1.17-1.71,3.67-6.63,3.65-8.84l1.57.83c.06.03.13.14.13.22,0,.1-.11.18-.18.22-.06.03-.3.14-.45.22-.61,1.54-.93,2.13-1.1,2.48l.45.27Zm2.58.38c-.27,0-1.1,0-1.89.14l-.3-.62c1.07.08,2.26.1,2.45.1h1.73c-.02-.66-.13-3.06-.16-3.22-.05-.3-.14-.58-.22-.8l1.78.48c.13.03.24.13.24.22,0,.16-.13.26-.18.29-.14.1-.26.18-.37.26,0,.27-.03,1.86-.05,2.77h2.71l.72-.85c.13-.14.18-.19.24-.19s.13.03.3.16l1.07.85c.08.06.16.14.16.26,0,.14-.13.16-.24.16h-4.8c.69,2.82,3.04,5.67,5.65,6.71l-.03.11c-.16,0-1.09.08-1.73.91-2.03-2-3.57-4.64-4.07-7.35-.02.96-.02,1.52-.02,2.5,0,.69,0,1.33.03,2.18.14,3.84.16,4.18.16,4.32,0,.66-.45.85-.88.85-.38,0-.5-.22-.5-.54,0-.21.06-1.12.06-1.3.05-1.62.06-2.72.1-6.05-.77,1.68-2.43,4.29-4.53,5.54l-.03-.11c1.86-2.08,3.59-5.47,4.37-7.76h-1.78Z"/>
        </g>
      </g>
      <rect class="cls-3" width="7" height="96"/>
    </g>
  </g>
</svg>