<svg xmlns="http://www.w3.org/2000/svg" width="400.5" height="90" viewBox="0 0 400.5 90">
  <g id="area03-02-txt" transform="translate(0 11)">
    <g id="グループ_55" data-name="グループ 55" transform="translate(0 -4)">
      <path id="パス_421" data-name="パス 421" d="M32.51,23.58c-.96,1.85-2.62,5.09-7.13,5.09-5.59,0-7.42-4.7-7.42-9.05,0-6.77,4.18-9.36,7.7-9.36a5.685,5.685,0,0,1,2.02.38,3.058,3.058,0,0,0,1.1.26,2.957,2.957,0,0,0,1.75-.65l1.73,4.37-.89.38c-.84-1.27-2.57-3.91-5.83-3.91-4.44,0-5.88,4.49-5.88,7.95,0,4.87,2.59,8.45,6.48,8.45,3.38,0,4.87-2.83,5.66-4.34l.7.43Z"/>
      <path id="パス_422" data-name="パス 422" d="M48.37,28.21v-.77h.84c.86,0,.98-.48.98-.91a2.225,2.225,0,0,0-.17-.82l-1.27-3.74H41.53l-1.25,3.5a3.669,3.669,0,0,0-.19.98c0,.43.12.98,1.1.98h.38v.77H36.84v-.77h.46a2.254,2.254,0,0,0,2.06-1.66L44.74,10.6l1.68-.36,5.33,15.65a1.993,1.993,0,0,0,1.92,1.54h.74v.77H48.36ZM45.23,11.5,41.8,21.2h6.7l-3.26-9.7Z"/>
      <path id="パス_423" data-name="パス 423" d="M73.06,15.16a7.69,7.69,0,0,0-1.97-2.4,5.832,5.832,0,0,0-3.82-1.27H64.61a1.559,1.559,0,0,0-1.78,1.61v5.64h2.76a2.4,2.4,0,0,0,2.18-1.18,2.675,2.675,0,0,0,.43-1.66h.77v6.79H68.2v-.36a2.491,2.491,0,0,0-2.62-2.81H62.82v5.95c0,.96.36,1.97,1.78,1.97h.82v.77H58.75v-.77h.77a1.864,1.864,0,0,0,1.78-1.99V13.04a1.38,1.38,0,0,0-1.46-1.56H58.76v-.79H72.23l1.42,4.13-.58.34Z"/>
      <path id="パス_424" data-name="パス 424" d="M90.51,28.21H77.45v-.77h.6a1.674,1.674,0,0,0,1.73-1.73V13.18a1.514,1.514,0,0,0-1.61-1.7h-.72v-.79H90.12L91.7,14.7l-.62.29c-.82-1.15-2.42-3.5-5.62-3.5H83.2c-1.39,0-1.9.6-1.9,1.66v5.66h3.07a2.435,2.435,0,0,0,2.3-2.59v-.38h.77V22.7h-.77v-.84a2.181,2.181,0,0,0-2.3-2.26H81.3v6.19a1.615,1.615,0,0,0,1.73,1.66h1.68a8.526,8.526,0,0,0,4.3-1.08,6.769,6.769,0,0,0,2.5-2.88l.65.29L90.5,28.22Z"/>
      <path id="パス_425" data-name="パス 425" d="M118.47,28.21H106.9v-.38l10.75-16.35h-3.79c-3.29,0-4.82,2.06-6.05,3.72l-.5-.29,1.73-4.22h10.75v.41L109.04,27.45h5.16c2.76,0,4.22-2.3,5.35-4.06l.53.22-1.61,4.61Z"/>
      <path id="パス_426" data-name="パス 426" d="M140.02,11.48a1.571,1.571,0,0,0-1.68,1.75v9.29c0,3.79-1.99,6.14-5.78,6.14a6.177,6.177,0,0,1-4.37-1.58,6.481,6.481,0,0,1-1.58-4.78V13.23a1.571,1.571,0,0,0-1.68-1.75h-.6v-.79h6.22v.79h-.74a1.571,1.571,0,0,0-1.68,1.75v9.05c0,3.17,1.32,5.54,4.85,5.54,3,0,4.61-2.11,4.61-4.9v-9.7a1.571,1.571,0,0,0-1.68-1.75h-.67v-.79h5.45v.79h-.65Z"/>
      <path id="パス_427" data-name="パス 427" d="M146.99,28.31V13.87h4.03v.69h-3.36V27.62h3.36v.69Z"/>
      <path id="パス_428" data-name="パス 428" d="M162.83,18.4c-.21.11-.24.18-.46.78a13.566,13.566,0,0,1-3.57,5.75,10.616,10.616,0,0,1-4.43,2.42l-.02-.11a15.145,15.145,0,0,0,4.8-4.16,16.247,16.247,0,0,0,2.42-5.33,34.09,34.09,0,0,0-6.84.93,3.51,3.51,0,0,1-.59.26c-.13,0-.21-.06-.35-.19a2.337,2.337,0,0,1-.94-1.57,2.281,2.281,0,0,1,.16-.66c.66,1.07,1.26,1.07,1.6,1.07.22,0,3.09-.27,3.68-.3.69-.03,2.96-.16,3.44-.54.21-.16.26-.19.34-.19a4.24,4.24,0,0,1,1.34,1.39c0,.14-.14.22-.58.46Zm1.7-.83c-.24,0-.29-.06-.78-.74a6.889,6.889,0,0,0-1.57-1.54c1.12.11,2.74.74,2.74,1.73,0,.22-.13.54-.38.54Zm1.26-1.07c-.14,0-.21-.06-.72-.69a7.278,7.278,0,0,0-1.63-1.38c.7.02,2.69.29,2.69,1.5,0,.29-.13.56-.34.56Z"/>
      <path id="パス_429" data-name="パス 429" d="M168.44,21.75c-.35,0-.51-.37-.69-.77a7.118,7.118,0,0,0-1.17-1.73c1.06.16,2.32,1.02,2.32,1.9,0,.32-.16.59-.46.59Zm6.59-1.62c-.1.11-.75,1.52-.9,1.79-2.31,4.34-5.15,5.09-6.27,5.39l-.03-.16a11.992,11.992,0,0,0,6.18-7.59c0-.38-.64-.75-.85-.86a2.777,2.777,0,0,1,.7-.11,2.06,2.06,0,0,1,1.5,1.04c0,.11-.03.16-.34.5Zm-3.84.93c-.34,0-.38-.14-.66-.88a6.31,6.31,0,0,0-.96-1.65c1.09.32,2.1,1.22,2.1,1.9,0,.34-.18.62-.48.62Z"/>
      <path id="パス_430" data-name="パス 430" d="M186.48,18.63c-.37.16-.51.3-.86.99a15.322,15.322,0,0,1-5.67,6.51,10.382,10.382,0,0,1-3.14,1.36l-.03-.11a19.314,19.314,0,0,0,8.2-9.2c-.66.06-1.74.22-2.4.32-.11.02-.43.06-.51.06a1.786,1.786,0,0,1-.82-.27A11.615,11.615,0,0,1,177.01,22l-.08-.13c2.62-2.4,4.18-5.28,4.18-5.79,0-.16-.03-.29-.88-.8a2.569,2.569,0,0,1,.78-.13c.64,0,1.81.74,1.81,1.15,0,.14-.06.22-.37.51-.16.14-.58.69-.78.94a12.909,12.909,0,0,0,3.14-.29c.14-.05.69-.48.85-.48.18,0,1.33.96,1.33,1.26,0,.11-.05.16-.5.37Z"/>
      <path id="パス_431" data-name="パス 431" d="M198.84,19.14c-.27.21-.27.29-.37.9-.4,2.43-.85,5.07-2.03,6.31a1.522,1.522,0,0,1-.94.58c-.24,0-.3-.24-.35-.46-.13-.66-.18-.86-1.31-2.03l.05-.08a10.083,10.083,0,0,0,1.87.78.4.4,0,0,0,.37-.22,12.981,12.981,0,0,0,1.31-6.16c-.58.05-.82.1-2.93.38-.7,2.43-1.84,6.21-5.78,7.81l-.05-.1a14.1,14.1,0,0,0,4.74-7.57,9.44,9.44,0,0,0-2.48.53c-.43.22-.48.24-.62.24a1.809,1.809,0,0,1-1.25-1.62,1.238,1.238,0,0,1,.11-.45,2.005,2.005,0,0,0,1.5.82c.18,0,1.12-.08,1.68-.14l1.26-.14a9.141,9.141,0,0,0,.35-2.21c0-.69-.3-.83-.91-1.1a1.7,1.7,0,0,1,.88-.26c.48,0,1.66.51,1.66.94,0,.13-.1.24-.29.48a1.426,1.426,0,0,0-.24.61c-.06.22-.32,1.23-.37,1.42.3-.03,2.11-.22,2.22-.27.13-.06.62-.53.75-.53.24,0,1.46.85,1.46,1.17,0,.14-.06.19-.3.38Z"/>
      <path id="パス_432" data-name="パス 432" d="M211.68,18.1c-.29.18-.42.46-.61,1.02a12.757,12.757,0,0,1-4.8,6.75,9.787,9.787,0,0,1-2.98,1.28l-.03-.13a14.517,14.517,0,0,0,7.09-9.57,49.445,49.445,0,0,0-6.53.9c-.14.05-.86.37-.9.37a2.113,2.113,0,0,1-1.3-1.87,1.186,1.186,0,0,1,.14-.51c.72.85.85,1.01,1.55,1.01.45,0,6.42-.5,6.9-.7.11-.05.51-.38.61-.38.19,0,1.38,1.04,1.38,1.34,0,.19-.02.19-.53.5Z"/>
      <path id="パス_433" data-name="パス 433" d="M224.38,25.99a8.031,8.031,0,0,1-.9-.21,14.034,14.034,0,0,0-2.8-.24c-.45,0-4.55.03-5.47.75a.344.344,0,0,1-.21.08,1.826,1.826,0,0,1-1.17-1.46,2.28,2.28,0,0,1,.06-.5,1.67,1.67,0,0,0,1.34.9c.38,0,2.88-.27,3.44-.3.03-.53.1-1.63.1-2.5,0-1.18-.06-1.33-.34-1.78-.7.1-1.14.16-1.22.18-.1.02-.46.08-.53.08a1.454,1.454,0,0,1-1.07-1.23,2.517,2.517,0,0,0,1.65.45,26.9,26.9,0,0,0,3.6-.29c.11-.03.59-.26.69-.26.08,0,1.04.14,1.04.56,0,.29-.34.34-.51.34a20.987,20.987,0,0,0-2.48.1c.16.16.26.26.26.37a2.9,2.9,0,0,1-.14.48c-.03.06-.24,2.88-.27,3.46.51-.03,2.83-.1,3.3-.13.08,0,.46-.11.53-.11.13,0,1.39.43,1.39.94a.3.3,0,0,1-.29.32Z"/>
      <path id="パス_434" data-name="パス 434" d="M226.38,28.31v-.69h3.36V14.56h-3.36v-.69h4.03V28.31h-4.03Z"/>
      <path id="パス_520" data-name="パス 520" d="M14.085,1.35a9.849,9.849,0,0,1-2.85-7.05,9.849,9.849,0,0,1,2.85-7.05l-.135-.21A9.317,9.317,0,0,0,10.4-5.7,9.317,9.317,0,0,0,13.95,1.56Zm9-5.205.72,2.16a1.792,1.792,0,0,1,.135.555.655.655,0,0,1-.615.66h-.45V0h3.69V-.48h-.33c-.42,0-.81-.15-1.11-1.02L21.84-11.235l-1.32.285L17.565-1.86c-.24.735-.78,1.38-1.41,1.38h-.5V0h3.255V-.48h-.42a.553.553,0,0,1-.63-.6,1.323,1.323,0,0,1,.09-.5l.735-2.28Zm-.165-.48H18.855l2-6.12Zm5.7,2.88a.861.861,0,0,0-.87.87.861.861,0,0,0,.87.87.861.861,0,0,0,.87-.87A.88.88,0,0,0,28.62-1.455Zm0-5.925a.871.871,0,0,0-.87.87.861.861,0,0,0,.87.87.871.871,0,0,0,.87-.87A.88.88,0,0,0,28.62-7.38Zm11.235.165v-2.64h3.3c.09,0,.225-.015.225-.15,0-.105-.075-.165-.15-.24l-.8-.72c-.12-.1-.165-.15-.27-.15s-.15.075-.24.18l-.585.72H39.87V-11.4c.075-.06.45-.39.45-.495s-.09-.15-.21-.18l-1.56-.465a6.49,6.49,0,0,1,.27,2.325h-.9c-.45,0-1.38-.015-2.31-.09l.3.585a9.944,9.944,0,0,1,1.755-.135H38.82c.015.81.015,1.755.015,2.64H37.38c-.21,0-1.275-.015-2.31-.105l.3.6a10.682,10.682,0,0,1,1.77-.135h1.575c.015.15.1.885.12,1.065.03.615.03.87.03,4.815a5.449,5.449,0,0,1-1.935-2.49,11.647,11.647,0,0,0,.4-1.47c.06-.03.375-.18.435-.225a.215.215,0,0,0,.075-.165.2.2,0,0,0-.165-.21l-1.53-.5a3.111,3.111,0,0,1,.06.675A9.847,9.847,0,0,1,33.765.69l.045.06a6.619,6.619,0,0,0,3.015-3.87c.345,1.23,1.14,3.945,5.97,3.945.36,0,.615-.03.855-.045a2.208,2.208,0,0,1,.87-1.455l-.015-.06a9.4,9.4,0,0,1-2.415.27A15.924,15.924,0,0,1,39.855-.63c0-.075.015-3.09.015-3.3h3.285c.105,0,.225-.03.225-.165,0-.1-.075-.165-.15-.225l-.75-.63c-.165-.135-.21-.165-.285-.165s-.12.045-.24.18l-.54.645H39.87V-5.775c.1-.045.465-.255.465-.45,0-.105-.1-.15-.195-.18l-1.4-.45h5.34c.1,0,.225-.015.225-.165,0-.09-.06-.15-.15-.225l-.885-.75c-.135-.105-.195-.165-.285-.165-.045,0-.1.015-.225.2l-.54.75ZM30.27-3.51a9.134,9.134,0,0,0,2.2-1.71c-.03,3.42-.015,3.81-.06,4.725,0,.165-.09,1.02-.09,1.215,0,.33.255.42.525.42.66,0,.66-.42.66-1.2,0-.585-.045-3.48-.045-4.125,0-.465,0-1.05.045-1.695.33-.24.39-.33.39-.42,0-.105-.075-.15-.255-.3.54-.7.84-1.125,1.08-1.47.345-.06.585-.06.585-.27a.242.242,0,0,0-.09-.195L34.005-9.48a6.174,6.174,0,0,1-.285.885,21.046,21.046,0,0,1-3.51,4.98Zm.075-4.38a11.8,11.8,0,0,0,4.02-3.39c.57-.12.63-.135.63-.3,0-.075-.09-.15-.12-.18l-1.125-.81a13.935,13.935,0,0,1-3.48,4.56Zm28.92.735c0-.06-.045-.12-.15-.225l-.9-.9a.488.488,0,0,0-.27-.165c-.06,0-.15.075-.24.2L57-7.35H52.875V-9.735h4.14c.105,0,.225-.015.225-.165,0-.09-.06-.135-.15-.225l-.96-.855c-.09-.075-.2-.165-.27-.165-.09,0-.18.12-.24.195l-.585.855h-2.16V-12.03c.45-.255.45-.315.45-.42,0-.165-.12-.21-.285-.255l-1.38-.375c.1.8.15,1.14.165,1.47.03.51.03.885.03,4.26H49.8v-2.67c.42-.285.465-.33.465-.45,0-.135-.06-.195-.285-.255l-1.47-.405c.225.84.225,1.125.225,3.78H48.03c-.225,0-1.29-.015-2.31-.1l.3.6a10.682,10.682,0,0,1,1.77-.135h4.08c.015.8.03,2.5.015,3.21-.015.54-.015.555-.555.555-.18,0-1.05-.06-1.245-.06v.09a2.177,2.177,0,0,1,1.275,1.38c1.575-.45,1.575-.9,1.575-1.8,0-.375-.06-2.265-.06-2.685.33-.18.375-.24.375-.36,0-.135-.06-.135-.375-.21l-.525-.12h6.69C59.145-6.99,59.265-7.005,59.265-7.155Zm-8.625,1.8c0-.18-.12-.24-.255-.315l-1.17-.615a5.318,5.318,0,0,1-.285.9A17.623,17.623,0,0,1,46.02-1.2l.06.075a11.217,11.217,0,0,0,4.065-3.93c.135-.045.315-.09.375-.12A.2.2,0,0,0,50.64-5.355Zm7.68,2.6c0-.915-1.5-2.565-4.185-3.21l-.06.09A9,9,0,0,1,56.79-2.91c.285.465.495.8.93.8A.631.631,0,0,0,58.32-2.76Zm-2.565.03c0-.09-.06-.165-.18-.285l-.915-.9A6.884,6.884,0,0,1,53.325-2.43,14.44,14.44,0,0,1,46.665.975l.015.1A12.505,12.505,0,0,0,55.11-2.5C55.695-2.55,55.755-2.55,55.755-2.73Zm5.295-8.22-.615,3.045.45.105c.33-.96.66-1.965,2.835-1.965h2.565C63.12-4.755,62.07-1.605,62.07-.54a.792.792,0,0,0,.765.825c.765,0,.81-.945.84-1.335.195-3.345,1.035-5.43,3.42-9.1v-.8ZM82.5-6.81l-.015-.15a7.006,7.006,0,0,1-5.5-4.02c.27-.045.96-.165.96-.465a.265.265,0,0,0-.12-.225l-.555-.54c-.1-.09-.165-.165-.255-.165s-.135.03-.27.165l-.48.48h-.75c-.3,0-.96-.015-1.635-.075l.195.525a7,7,0,0,1,1.26-.09h1.2c1.125,3.39,2.91,5.01,4.515,5.7A2.466,2.466,0,0,1,82.5-6.81Zm-9-3.885c0-.105-.12-.2-.195-.24l-1.29-.87a4.962,4.962,0,0,1-.24.96,19.5,19.5,0,0,1-3.63,5.49l.075.105a12.955,12.955,0,0,0,4.65-5.1C73.11-10.41,73.5-10.515,73.5-10.695ZM78.78-6.12a.4.4,0,0,0-.135-.24l-.6-.66c-.06-.06-.135-.135-.21-.135a.444.444,0,0,0-.27.165l-.4.36H72.915c-.45,0-1.365-.015-2.295-.09l.285.6a9.489,9.489,0,0,1,1.77-.15h.435A7.575,7.575,0,0,1,68.37.9l.03.12c4.725-.87,5.73-4.935,5.82-7.29h3.03a30.512,30.512,0,0,1-.225,4.32c-.225,1.365-.51,1.53-1.23,1.53a9.365,9.365,0,0,1-1.74-.255L74.04-.57a2.152,2.152,0,0,1,1.125,1.65c2.7-.24,3-1.335,3.15-6.735C78.735-5.955,78.78-5.985,78.78-6.12Zm18-6.06-.3-.3L83.22.78l.3.3Zm1.05,1.725h.6A.963.963,0,0,1,99.5-9.42v7.9A.962.962,0,0,1,98.43-.48h-.6V0h5.355c2.91,0,4.08-1.68,4.08-3.015a2.744,2.744,0,0,0-1.14-2.115,4.082,4.082,0,0,0-2.01-.75,3.545,3.545,0,0,0,1.485-.66,2.564,2.564,0,0,0,1.035-1.98c0-1.53-1.515-2.43-3.81-2.43H97.83Zm2.865,1.035a.962.962,0,0,1,1.065-1.035h1.065c1.5,0,2.415.765,2.415,2.115a2.281,2.281,0,0,1-2.55,2.31h-2Zm2.415,3.87a2.52,2.52,0,0,1,2.73,2.58,2.476,2.476,0,0,1-2.775,2.49H101.76a.956.956,0,0,1-1.065-1.035V-5.55Zm6.06,4.1a.861.861,0,0,0-.87.87.861.861,0,0,0,.87.87.861.861,0,0,0,.87-.87A.88.88,0,0,0,109.17-1.455Zm0-5.925a.871.871,0,0,0-.87.87.861.861,0,0,0,.87.87.871.871,0,0,0,.87-.87A.88.88,0,0,0,109.17-7.38Zm11.235.165v-2.64h3.3c.09,0,.225-.015.225-.15,0-.105-.075-.165-.15-.24l-.8-.72c-.12-.1-.165-.15-.27-.15s-.15.075-.24.18l-.585.72h-1.47V-11.4c.075-.06.45-.39.45-.495s-.09-.15-.21-.18l-1.56-.465a6.49,6.49,0,0,1,.27,2.325h-.9c-.45,0-1.38-.015-2.31-.09l.3.585a9.944,9.944,0,0,1,1.755-.135h1.155c.015.81.015,1.755.015,2.64H117.93c-.21,0-1.275-.015-2.31-.105l.3.6a10.682,10.682,0,0,1,1.77-.135h1.575c.015.15.105.885.12,1.065.03.615.03.87.03,4.815a5.449,5.449,0,0,1-1.935-2.49,11.647,11.647,0,0,0,.4-1.47c.06-.03.375-.18.435-.225a.215.215,0,0,0,.075-.165.2.2,0,0,0-.165-.21l-1.53-.5a3.111,3.111,0,0,1,.06.675A9.847,9.847,0,0,1,114.315.69l.045.06a6.619,6.619,0,0,0,3.015-3.87c.345,1.23,1.14,3.945,5.97,3.945.36,0,.615-.03.855-.045a2.208,2.208,0,0,1,.87-1.455l-.015-.06a9.4,9.4,0,0,1-2.415.27,15.924,15.924,0,0,1-2.235-.165c0-.075.015-3.09.015-3.3h3.285c.105,0,.225-.03.225-.165,0-.1-.075-.165-.15-.225l-.75-.63c-.165-.135-.21-.165-.285-.165s-.12.045-.24.18l-.54.645H120.42V-5.775c.1-.045.465-.255.465-.45,0-.105-.105-.15-.195-.18l-1.395-.45h5.34c.105,0,.225-.015.225-.165,0-.09-.06-.15-.15-.225l-.885-.75c-.135-.105-.195-.165-.285-.165-.045,0-.1.015-.225.2l-.54.75ZM110.82-3.51a9.134,9.134,0,0,0,2.205-1.71c-.03,3.42-.015,3.81-.06,4.725,0,.165-.09,1.02-.09,1.215,0,.33.255.42.525.42.66,0,.66-.42.66-1.2,0-.585-.045-3.48-.045-4.125,0-.465,0-1.05.045-1.695.33-.24.39-.33.39-.42,0-.105-.075-.15-.255-.3.54-.7.84-1.125,1.08-1.47.345-.06.585-.06.585-.27a.242.242,0,0,0-.09-.195l-1.215-.945a6.174,6.174,0,0,1-.285.885,21.046,21.046,0,0,1-3.51,4.98Zm.075-4.38a11.8,11.8,0,0,0,4.02-3.39c.57-.12.63-.135.63-.3,0-.075-.09-.15-.12-.18l-1.125-.81a13.935,13.935,0,0,1-3.48,4.56Zm28.92.735c0-.06-.045-.12-.15-.225l-.9-.9a.488.488,0,0,0-.27-.165c-.06,0-.15.075-.24.2l-.705.9h-4.125V-9.735h4.14c.1,0,.225-.015.225-.165,0-.09-.06-.135-.15-.225l-.96-.855c-.09-.075-.2-.165-.27-.165s-.18.12-.24.195l-.585.855h-2.16V-12.03c.45-.255.45-.315.45-.42,0-.165-.12-.21-.285-.255l-1.38-.375c.1.8.15,1.14.165,1.47.03.51.03.885.03,4.26H130.35v-2.67c.42-.285.465-.33.465-.45,0-.135-.06-.195-.285-.255l-1.47-.405c.225.84.225,1.125.225,3.78h-.705c-.225,0-1.29-.015-2.31-.1l.3.6a10.682,10.682,0,0,1,1.77-.135h4.08c.015.8.03,2.5.015,3.21-.015.54-.015.555-.555.555-.18,0-1.05-.06-1.245-.06v.09a2.177,2.177,0,0,1,1.275,1.38c1.575-.45,1.575-.9,1.575-1.8,0-.375-.06-2.265-.06-2.685.33-.18.375-.24.375-.36,0-.135-.06-.135-.375-.21l-.525-.12h6.69C139.7-6.99,139.815-7.005,139.815-7.155Zm-8.625,1.8c0-.18-.12-.24-.255-.315l-1.17-.615a5.316,5.316,0,0,1-.285.9A17.623,17.623,0,0,1,126.57-1.2l.06.075a11.217,11.217,0,0,0,4.065-3.93c.135-.045.315-.09.375-.12A.2.2,0,0,0,131.19-5.355Zm7.68,2.6c0-.915-1.5-2.565-4.185-3.21l-.06.09a9,9,0,0,1,2.715,2.97c.285.465.5.8.93.8A.631.631,0,0,0,138.87-2.76Zm-2.565.03c0-.09-.06-.165-.18-.285l-.915-.9a6.884,6.884,0,0,1-1.335,1.485,14.44,14.44,0,0,1-6.66,3.405l.015.1A12.505,12.505,0,0,0,135.66-2.5C136.245-2.55,136.305-2.55,136.305-2.73Zm8.91-3.45c.645-.48,1.875-1.41,1.875-2.685a2.519,2.519,0,0,0-2.745-2.37,2.751,2.751,0,0,0-3,2.685c0,1.635,1.44,2.475,2.235,2.94-1.38.81-2.67,1.575-2.67,3.2,0,1.71,1.53,2.7,3.24,2.7a3.342,3.342,0,0,0,3.54-3.3C147.69-4.56,146.625-5.31,145.215-6.18Zm-1.185.81c1.1.615,2.58,1.455,2.58,2.88a2.335,2.335,0,0,1-2.28,2.265,2.16,2.16,0,0,1-2.16-2.235A3.808,3.808,0,0,1,144.03-5.37Zm.75-1.065c-1.56-.93-2.415-1.455-2.415-2.505a1.73,1.73,0,0,1,1.77-1.785A1.892,1.892,0,0,1,146-8.7,2.854,2.854,0,0,1,144.78-6.435Zm18.27-.375-.015-.15a7.006,7.006,0,0,1-5.505-4.02c.27-.045.96-.165.96-.465a.265.265,0,0,0-.12-.225l-.555-.54c-.1-.09-.165-.165-.255-.165-.075,0-.135.03-.27.165l-.48.48h-.75c-.3,0-.96-.015-1.635-.075l.195.525a7,7,0,0,1,1.26-.09h1.2c1.125,3.39,2.91,5.01,4.515,5.7A2.466,2.466,0,0,1,163.05-6.81Zm-9-3.885c0-.105-.12-.2-.2-.24l-1.29-.87a4.962,4.962,0,0,1-.24.96,19.5,19.5,0,0,1-3.63,5.49l.075.105a12.955,12.955,0,0,0,4.65-5.1C153.66-10.41,154.05-10.515,154.05-10.695Zm5.28,4.575a.4.4,0,0,0-.135-.24l-.6-.66c-.06-.06-.135-.135-.21-.135a.444.444,0,0,0-.27.165l-.4.36h-4.245c-.45,0-1.365-.015-2.295-.09l.285.6a9.489,9.489,0,0,1,1.77-.15h.435A7.575,7.575,0,0,1,148.92.9l.03.12c4.725-.87,5.73-4.935,5.82-7.29h3.03a30.511,30.511,0,0,1-.225,4.32c-.225,1.365-.51,1.53-1.23,1.53a9.365,9.365,0,0,1-1.74-.255l-.015.105a2.152,2.152,0,0,1,1.125,1.65c2.7-.24,3-1.335,3.15-6.735C159.285-5.955,159.33-5.985,159.33-6.12Zm8.325.42a9.317,9.317,0,0,0-3.555-7.26l-.135.21a9.849,9.849,0,0,1,2.85,7.05,9.849,9.849,0,0,1-2.85,7.05l.135.21A9.317,9.317,0,0,0,167.655-5.7Z" transform="translate(226 26.54)"/>
    </g>
    <rect id="長方形_18" data-name="長方形 18" width="7" height="90" transform="translate(0 -11)" fill="#1c2c5a"/>
    <g id="グループ_57" data-name="グループ 57">
      <rect id="長方形_19" data-name="長方形 19" width="84.39" height="23.44" rx="5" transform="translate(16.91 44.72)" fill="none" stroke="#000" stroke-miterlimit="10" stroke-width="1"/>
      <g id="グループ_56" data-name="グループ 56">
        <path id="パス_447" data-name="パス 447" d="M42.28,53.72h-.29c-.14.1-.21.16-.84.69-.08.06-.67.48-.79.58l-.06-.06a11.653,11.653,0,0,0,.59-1.94H31.41c-.02,1.41-.64,2.74-1.44,2.74a.63.63,0,0,1-.62-.67c0-.4.26-.67.79-1.22a4.089,4.089,0,0,0,1.02-2.1h.08a3.7,3.7,0,0,1,.18.86h6.41a7.822,7.822,0,0,0,1.12-3.63l1.47.82c.15.08.23.16.23.26,0,.14-.15.19-.7.29-.87,1.15-.97,1.28-1.81,2.27h2.61l.46-.37c.14-.11.24-.19.33-.19s.17.08.33.21l.9.75a.447.447,0,0,1,.18.34c0,.32-.36.38-.68.38Zm-1.95,6.42c.02.21.02.35.03,1.63,0,.14.06.91.06,1.09a.667.667,0,0,1-.7.7c-.46,0-.43-.38-.4-.67H33.04c0,.24.02.77-.65.77-.38,0-.46-.21-.44-.53.03-.64.09-1.97.09-2.59a11.375,11.375,0,0,0-.14-1.84l1.29.74H35.1a6.835,6.835,0,0,0,.43-1.89H33.9c0,.26.02.74-.61.74-.46,0-.46-.35-.46-.5,0-.4.09-2.16.09-2.53a5.091,5.091,0,0,0-.12-1.3l1.31.62h3.98l.38-.43c.11-.11.17-.16.23-.16a.558.558,0,0,1,.26.13l.56.45c.11.1.17.16.17.24,0,.13-.09.21-.46.5-.02.32.08,1.78.08,2.08a.607.607,0,0,1-.65.66c-.26,0-.44-.14-.43-.5H36.85a14.768,14.768,0,0,1-1.31,1.89h3.65l.33-.45c.08-.11.15-.18.23-.18a.5.5,0,0,1,.27.14l.58.45a.436.436,0,0,1,.17.26c0,.11-.09.22-.46.48Zm-6.82-7.99c-.41,0-.52-.35-.62-.75a5.084,5.084,0,0,0-.85-1.89l.06-.08c.79.42,2.01,1.06,2.01,2.06a.61.61,0,0,1-.59.66Zm5.84,7.67H33.06v2.69h6.29Zm-1.08-4.85H33.91v2.19h4.36Zm-1.9-3.03c-.53,0-.64-.51-.75-1.06a4.4,4.4,0,0,0-.71-1.71l.06-.08c1.26.59,1.98,1.41,1.98,2.14,0,.11-.03.7-.58.7Z"/>
        <path id="パス_448" data-name="パス 448" d="M58.1,52.6H53.36l.79.5c.06.05.15.14.15.22,0,.19-.29.22-.56.24-.43.48-1.05,1.04-1.34,1.3H55l.59-.7c.08-.1.17-.19.24-.19a.588.588,0,0,1,.27.16l.7.7c.08.08.14.14.14.24,0,.16-.12.18-.23.18H51.86c0,.19.02,1.07.02,1.25h2.14l.53-.58c.09-.1.18-.19.26-.19s.15.08.29.18l.74.54a.341.341,0,0,1,.17.26c0,.14-.12.18-.23.18H51.87v1.39h3.91l.68-.82c.11-.13.15-.19.24-.19.11,0,.2.1.27.16l.84.82c.08.08.15.14.15.26,0,.14-.14.16-.24.16H52.17a8.988,8.988,0,0,0,5.93,3.09l.02.1a2.6,2.6,0,0,0-1.4,1.3,9.771,9.771,0,0,1-4.8-4.48h-.05c.02,1.46.03,1.74.03,2.05.02.37.09,1.95.09,2.29a.71.71,0,0,1-.77.66c-.41,0-.44-.26-.44-.5,0-.35.05-.94.06-1.31.02-.53.02-.77.05-2.99a11.272,11.272,0,0,1-6.03,4.32l-.03-.1a14.062,14.062,0,0,0,4.86-4.42H47a10.528,10.528,0,0,0-1.79.14l-.3-.64c1.02.1,2.05.11,2.34.11H50.9V56.9H48.24a10.847,10.847,0,0,0-1.79.14l-.3-.64c1.05.1,2.14.11,2.34.11h2.42V55.26H47.72a10.494,10.494,0,0,0-1.78.14l-.3-.64c1.02.1,2.08.11,2.34.11h4.13a8.243,8.243,0,0,0,.76-2.26H48.55c.88.3,1.69.78,1.69,1.55a.61.61,0,0,1-.61.64c-.35,0-.4-.1-.76-1.06a3.994,3.994,0,0,0-.62-1.14H46.67a9.117,9.117,0,0,0-1.79.14l-.29-.64c1.03.1,2.11.11,2.33.11h2.86a11.855,11.855,0,0,0-.26-3.3l1.47.45c.14.05.21.1.21.24,0,.18-.17.27-.46.38V52.2h1.12c0-2.03,0-2.5-.32-3.3l1.55.43c.09.03.26.08.26.24,0,.24-.36.37-.5.42V52.2h.65a11.786,11.786,0,0,0,.79-2.24,3.416,3.416,0,0,0,.08-.77l1.35.72c.09.05.18.11.18.22,0,.24-.36.29-.53.3-.47.53-1.28,1.44-1.58,1.76h2.39l.65-.72c.12-.13.18-.21.24-.21a.513.513,0,0,1,.3.18l.79.7c.09.08.17.14.17.26,0,.14-.14.18-.23.18Zm-9.88-.74c-.36,0-.47-.26-.76-.98a3.634,3.634,0,0,0-.88-1.26l.06-.11c.61.16,2.13.59,2.13,1.71a.588.588,0,0,1-.55.64Z"/>
        <path id="パス_449" data-name="パス 449" d="M64.28,51.48c-.02.58-.03.94-.03,1.71,0,1.68.09,5.31.12,6,0,.21.05.58.05.78,0,.61-.65.64-.73.64-.41,0-.41-.11-.38-1.17h-1.9c0,.11.05,1.42.05,1.46,0,.58-.59.69-.76.69-.38,0-.38-.3-.38-.5,0-.18.05-.96.05-1.12.05-1.22.06-5.71.06-6.08a26.3,26.3,0,0,0-.18-3.95l1.32.67h1.55l.44-.42c.17-.14.2-.21.27-.21a.383.383,0,0,1,.24.14l.61.58a.4.4,0,0,1,.12.26c0,.14-.3.35-.52.51ZM63.32,51H61.41v3.76h1.91Zm0,4.15H61.41v3.92h1.91Zm9.94-.3H66.57a10.042,10.042,0,0,0-1.79.14l-.29-.64c.94.08,1.87.11,2.33.11H68.1V52.01h-.67a10.591,10.591,0,0,0-1.79.14l-.29-.64c1,.1,2.07.11,2.33.11h.43a7.17,7.17,0,0,0-.26-2.61l1.57.48c.17.05.27.13.27.26s-.05.16-.49.48c-.02.38-.02.48-.03,1.39h1.49l.56-.69c.11-.14.17-.19.24-.19a.376.376,0,0,1,.27.16l.75.69a.3.3,0,0,1,.15.24c0,.14-.14.18-.23.18H69.15v2.45h2.31l.58-.74c.12-.16.17-.21.23-.21.09,0,.14.06.29.19l.81.72a.335.335,0,0,1,.14.24c0,.16-.14.18-.23.18Zm-.03,2.93H70.71c0,.32.05,3.33.05,3.84,0,.61,0,1.6-1.96,1.98-.14-.53-.3-.98-1.4-1.6l.03-.11c.3.03,1.25.11,1.49.11.68,0,.78-.14.79-.46.02-.29.02-3.51,0-3.76H66.76a11,11,0,0,0-1.79.14l-.29-.64c1.03.1,2.11.11,2.33.11h2.71a11.481,11.481,0,0,0-.2-2.21l1.37.35c.2.05.29.08.29.21,0,.11-.05.14-.44.46-.02.3-.02.4-.02,1.18h.71l.62-.75c.12-.14.18-.19.26-.19s.14.03.26.16l.74.75c.11.1.15.14.15.24,0,.14-.12.18-.23.18ZM67.42,61c-.46,0-.55-.45-.62-.88a3.617,3.617,0,0,0-.71-1.78l.06-.1c1.49.62,1.91,1.55,1.91,2.05a.666.666,0,0,1-.64.7Z"/>
        <path id="パス_450" data-name="パス 450" d="M80.89,50.95v1.82c0,.26.06,1.49.06,1.66a.68.68,0,0,1-.74.62c-.41,0-.36-.38-.33-.58h-2.6v4.02c0,.58.06,3.36.06,3.99,0,.42-.15.9-.77.9a.393.393,0,0,1-.44-.42c0-.1.05-.51.05-.61.12-1.81.12-2.8.12-9.81a12.456,12.456,0,0,0-.17-3.2l1.41.7h2.19l.4-.38c.09-.08.15-.16.21-.16a.325.325,0,0,1,.18.1l.79.61a.259.259,0,0,1,.11.21c0,.11-.09.21-.52.53Zm-1-.51H77.28v1.6h2.61Zm0,1.98H77.28V54.1h2.61ZM84.1,56.9c0,.75,0,1.97.05,2.93,0,.14.06.8.06.93a.689.689,0,0,1-.76.74c-.2,0-.4-.05-.32-.8H80.17c.03.38.09,1.04-.71,1.04-.33,0-.35-.27-.35-.45,0-.1.03-.51.05-.69.06-.91.06-2.62.06-2.77a15.281,15.281,0,0,0-.11-2.26l1.11.58h2.89l.26-.35c.08-.11.17-.21.29-.21a.385.385,0,0,1,.24.13l.55.5a.286.286,0,0,1,.14.21c0,.11-.14.26-.47.48Zm-.97-.37H80.17v1.68h2.96Zm0,2.06H80.17V60.3h2.96Zm4.33-7.6c0,1.55.03,8.42.03,9.81s0,1.82-.61,2.27a3.375,3.375,0,0,1-1.15.53c-.12-.56-.26-1.17-1.64-1.73l.03-.11c.26.02,1.64.1,1.79.1s.43,0,.52-.19a15.553,15.553,0,0,0,.06-1.74c0-.86-.02-4.67-.02-5.44H83.6c.02.45-.3.66-.71.66a.335.335,0,0,1-.35-.38c0-.7.05-3.75.05-4.35a9.778,9.778,0,0,0-.08-1.02l1.26.67h2.57l.37-.43c.06-.06.18-.18.27-.18a.359.359,0,0,1,.24.11l.73.66a.308.308,0,0,1,.12.22c0,.13-.12.24-.61.56Zm-.99-.56H83.58v1.6h2.89Zm0,1.98H83.58v1.68h2.89Z"/>
      </g>
    </g>
    <g id="グループ_58" data-name="グループ 58">
      <path id="パス_451" data-name="パス 451" d="M115.71,64.34h.88c.83,0,1.12-.32,1.12-.98V54.7c0-.5-.46-.58-.77-.58h-1.22v-.5h.29a6.215,6.215,0,0,0,2.61-.67c.11-.06.16-.1.22-.1.14,0,.18.1.18.22V63.35c0,.69.34.98,1.12.98h.88v.51h-5.31v-.51Z"/>
      <path id="パス_452" data-name="パス 452" d="M123.71,64.34h.88c.83,0,1.12-.32,1.12-.98V54.7c0-.5-.46-.58-.77-.58h-1.22v-.5h.29a6.215,6.215,0,0,0,2.61-.67c.11-.06.16-.1.22-.1.14,0,.18.1.18.22V63.35c0,.69.34.98,1.12.98h.88v.51h-5.31v-.51Z"/>
      <path id="パス_453" data-name="パス 453" d="M135.89,53.99c-.02.58-.03.94-.03,1.71,0,1.68.1,5.31.13,6,0,.21.05.58.05.78,0,.61-.69.64-.77.64-.43,0-.43-.11-.4-1.17h-2c0,.11.05,1.42.05,1.46,0,.58-.62.69-.8.69-.4,0-.4-.3-.4-.5,0-.18.05-.96.05-1.12.05-1.22.06-5.71.06-6.08a24.509,24.509,0,0,0-.19-3.95l1.39.67h1.63l.46-.42c.18-.14.21-.21.29-.21a.421.421,0,0,1,.26.14l.64.58a.407.407,0,0,1,.13.26c0,.14-.32.35-.54.51Zm-1.01-.48h-2.02v3.76h2.02Zm0,4.15h-2.02v3.92h2.02Zm10.47-.3h-7.04a11.208,11.208,0,0,0-1.89.14l-.3-.64c.99.08,1.97.11,2.45.11h1.34V54.52h-.7a11.787,11.787,0,0,0-1.89.14l-.3-.64c1.06.1,2.18.11,2.45.11h.45a6.878,6.878,0,0,0-.27-2.61l1.65.48c.18.05.29.13.29.26s-.05.16-.51.48c-.02.38-.02.48-.03,1.39h1.57l.59-.69c.11-.14.18-.19.26-.19a.41.41,0,0,1,.29.16l.78.69a.312.312,0,0,1,.16.24c0,.14-.14.18-.24.18h-3.43v2.45h2.43l.61-.74c.13-.16.18-.21.24-.21.1,0,.14.06.3.19l.85.72c.13.11.14.19.14.24,0,.16-.14.18-.24.18Zm-.03,2.93h-2.66c0,.32.05,3.33.05,3.84,0,.61,0,1.6-2.06,1.98-.14-.53-.32-.98-1.47-1.6l.03-.11c.32.03,1.31.11,1.57.11.72,0,.82-.14.83-.46.02-.29.02-3.51,0-3.76h-3.1a12.276,12.276,0,0,0-1.89.14l-.3-.64c1.09.1,2.22.11,2.45.11h2.85a10.7,10.7,0,0,0-.21-2.21l1.44.35c.21.05.3.08.3.21,0,.11-.05.14-.46.46-.02.3-.02.4-.02,1.18h.75l.66-.75c.13-.14.19-.19.27-.19s.14.03.27.16l.78.75c.11.1.16.14.16.24,0,.14-.13.18-.24.18Zm-6.11,3.22c-.48,0-.58-.45-.66-.88a3.556,3.556,0,0,0-.75-1.78l.06-.1c1.57.62,2.02,1.55,2.02,2.05a.683.683,0,0,1-.67.7Z"/>
      <path id="パス_454" data-name="パス 454" d="M156.55,60.1a6.133,6.133,0,0,1-2.62-.74c-2.32-1.06-2.37-1.09-3.07-1.09a6.6,6.6,0,0,0-3.49,1.28l-.21-.24a6.021,6.021,0,0,1,4.16-1.87,6.337,6.337,0,0,1,2.88.86c1.78.83,2.06.98,2.8.98a6.668,6.668,0,0,0,3.49-1.3l.21.24a6,6,0,0,1-4.15,1.87Z"/>
      <path id="パス_455" data-name="パス 455" d="M162.82,64.34h.88c.83,0,1.12-.32,1.12-.98V54.7c0-.5-.46-.58-.77-.58h-1.22v-.5h.29a6.215,6.215,0,0,0,2.61-.67c.11-.06.16-.1.22-.1.14,0,.18.1.18.22V63.35c0,.69.34.98,1.12.98h.88v.51h-5.31v-.51Z"/>
      <path id="パス_456" data-name="パス 456" d="M174.18,60.21a2.69,2.69,0,0,1-1.39.42c-1.58,0-2.87-1.6-2.87-3.55,0-2.21,1.58-4.21,3.43-4.21s3.68,2.08,3.68,5.52c0,3.7-2.08,6.77-4.53,6.77-1.07,0-1.82-.64-1.82-1.39a.8.8,0,0,1,.82-.83c.32,0,.85.21.88,1.1.02.35.05.58.48.58a1.594,1.594,0,0,0,1.17-.56c1.42-1.57,1.5-3.94,1.57-5.36a4.02,4.02,0,0,1-1.41,1.52Zm.53-5.94a1.584,1.584,0,0,0-1.3-.86c-.85,0-2.05.9-2.05,3.52,0,.74.18,2.98,1.82,2.98.61,0,1.63-.45,2.39-2.18A7.73,7.73,0,0,0,174.71,54.27Z"/>
      <path id="パス_457" data-name="パス 457" d="M183,53.99c-.02.58-.03.94-.03,1.71,0,1.68.1,5.31.13,6,0,.21.05.58.05.78,0,.61-.69.64-.77.64-.43,0-.43-.11-.4-1.17h-2c0,.11.05,1.42.05,1.46,0,.58-.62.69-.8.69-.4,0-.4-.3-.4-.5,0-.18.05-.96.05-1.12.05-1.22.06-5.71.06-6.08a24.509,24.509,0,0,0-.19-3.95l1.39.67h1.63l.46-.42c.18-.14.21-.21.29-.21a.421.421,0,0,1,.26.14l.64.58a.407.407,0,0,1,.13.26c0,.14-.32.35-.54.51Zm-1.01-.48h-2.02v3.76h2.02Zm0,4.15h-2.02v3.92h2.02Zm10.47-.3h-7.04a11.208,11.208,0,0,0-1.89.14l-.3-.64c.99.08,1.97.11,2.45.11h1.34V54.52h-.7a11.787,11.787,0,0,0-1.89.14l-.3-.64c1.06.1,2.18.11,2.45.11h.45a6.878,6.878,0,0,0-.27-2.61l1.65.48c.18.05.29.13.29.26s-.05.16-.51.48c-.02.38-.02.48-.03,1.39h1.57l.59-.69c.11-.14.18-.19.26-.19a.41.41,0,0,1,.29.16l.78.69a.312.312,0,0,1,.16.24c0,.14-.14.18-.24.18h-3.43v2.45h2.43l.61-.74c.13-.16.18-.21.24-.21.1,0,.14.06.3.19l.85.72c.13.11.14.19.14.24,0,.16-.14.18-.24.18Zm-.03,2.93h-2.66c0,.32.05,3.33.05,3.84,0,.61,0,1.6-2.06,1.98-.14-.53-.32-.98-1.47-1.6l.03-.11c.32.03,1.31.11,1.57.11.72,0,.82-.14.83-.46.02-.29.02-3.51,0-3.76h-3.1a12.276,12.276,0,0,0-1.89.14l-.3-.64c1.09.1,2.22.11,2.45.11h2.85a10.7,10.7,0,0,0-.21-2.21l1.44.35c.21.05.3.08.3.21,0,.11-.05.14-.46.46-.02.3-.02.4-.02,1.18h.75l.66-.75c.13-.14.19-.19.27-.19s.14.03.27.16l.78.75c.11.1.16.14.16.24,0,.14-.13.18-.24.18Zm-6.11,3.22c-.48,0-.58-.45-.66-.88a3.556,3.556,0,0,0-.75-1.78l.06-.1c1.57.62,2.02,1.55,2.02,2.05a.683.683,0,0,1-.67.7Z"/>
      <path id="パス_458" data-name="パス 458" d="M194.56,66.01l-.32-.32,14.15-14.15.32.32Z"/>
      <path id="パス_459" data-name="パス 459" d="M221.21,57.11l.66-.86c.1-.13.14-.19.24-.19s.11.03.3.18l1.07.85a.331.331,0,0,1,.16.26c0,.14-.14.16-.26.16h-5.33c0,.53-.02,2.83-.02,3.3,0,.16.02,3.49,0,3.95h4.24l.8-.86c.11-.13.16-.19.24-.19.1,0,.14.05.3.18l1.06.85a.329.329,0,0,1,.16.24c0,.14-.14.18-.24.18H212.55a11.72,11.72,0,0,0-1.89.14l-.32-.64c1.07.1,2.16.11,2.46.11h4.08c-.02-.14-.02-3.54-.02-3.91V57.51h-3.38a11.72,11.72,0,0,0-1.89.14l-.32-.62c1.07.08,2.16.1,2.46.1h3.12c-.03-3.63-.03-4.05-.4-5.22l1.94.51c.16.05.26.08.26.22a.294.294,0,0,1-.14.24c-.06.06-.37.3-.46.37,0,1.3-.02,2.58-.02,3.87h3.15Z"/>
      <path id="パス_460" data-name="パス 460" d="M229.41,52.95l.32-.34a.338.338,0,0,1,.24-.13.531.531,0,0,1,.3.18l.56.56a.381.381,0,0,1,.11.24c0,.1-.11.22-.42.48-.03,1.14-.03,2.29-.02,4,.02.7.06,3.78.06,4.42,0,.38-.03.56-.21.7a1.053,1.053,0,0,1-.56.22c-.38,0-.37-.27-.32-.91h-1.6a3.25,3.25,0,0,1-.02.93.779.779,0,0,1-.72.5.4.4,0,0,1-.43-.46c0-.13.05-.69.05-.8.03-1.74.05-3.19.05-6.63a20.6,20.6,0,0,0-.13-3.54l1.23.58h1.49Zm-1.52.38v4.03h1.6V53.33Zm0,4.42v4.24h1.6V57.75Zm8.76,3.52v1.49h1.57l.3-.5c.06-.11.14-.24.26-.24.08,0,.13.03.29.18l.64.53c.06.05.16.13.16.24,0,.16-.16.18-.24.18h-2.98v1.57h2.29l.37-.64c.1-.18.19-.24.27-.24a.559.559,0,0,1,.29.18l.77.67a.369.369,0,0,1,.16.26c0,.16-.16.16-.24.16h-6.95c0,.45.02.5-.05.59a.868.868,0,0,1-.74.4c-.37,0-.37-.26-.37-.35,0-.21.05-1.23.06-1.47.02-.54.06-2.56.05-4.08a7.834,7.834,0,0,1-1.92,1.81l-.05-.08a13.994,13.994,0,0,0,2.42-4.75l1.09.53a.245.245,0,0,1,.16.21c0,.18-.1.21-.43.34-.19.35-.29.5-.45.77l.37.16h1.87a8.952,8.952,0,0,0,.58-2.03l1.18.56a.26.26,0,0,1,.18.21c0,.13-.05.14-.53.3a12.389,12.389,0,0,1-1.1.96h2.59l.42-.56c.11-.14.18-.21.26-.21s.14.03.3.16l.72.58c.06.05.16.14.16.24,0,.18-.16.18-.24.18h-3.49v1.34h1.54l.3-.53c.05-.08.13-.22.26-.22a.648.648,0,0,1,.3.18l.69.54c.06.05.16.14.16.24,0,.16-.16.18-.24.18h-3.01Zm-3.04-4.5a12.276,12.276,0,0,0-1.89.14l-.32-.64c1.09.1,2.23.11,2.46.11h.35V54.64h-.62a9.87,9.87,0,0,0-1.87.14l-.32-.64c.99.08,1.97.11,2.45.11h.37v-1.7h-.94a10.278,10.278,0,0,0-1.89.14l-.32-.64c1.1.1,2.24.11,2.46.11h.59l.37-.35a.377.377,0,0,1,.21-.11c.08,0,.14.06.24.16l.61.54a.325.325,0,0,1,.13.22c0,.13-.19.29-.43.48v.99c0,.43.08,2.29.08,2.67a.478.478,0,0,1-.19.46.9.9,0,0,1-.56.21c-.4,0-.38-.3-.37-.69h-.59Zm0,2.77v1.34h2.05V59.54Zm0,1.73v1.49h2.05V61.27Zm0,1.87v1.57h2.05V63.14Zm4.71-6.39a11.72,11.72,0,0,0-1.89.14l-.32-.64c1.04.1,2.16.11,2.56.11V54.6a12.264,12.264,0,0,0-2.1.14l-.32-.62c.86.06,1.25.08,2.42.1V52.51h-.5a11.887,11.887,0,0,0-1.87.14l-.32-.64a26.255,26.255,0,0,0,2.66.11l.34-.35c.06-.06.14-.14.21-.14s.11.02.29.18l.58.5c.06.06.14.13.14.22,0,.11-.11.19-.48.45-.02.35-.02.83.02,1.9,0,.3.08,1.66.08,1.95,0,.53-.56.64-.74.64-.42,0-.42-.32-.4-.72h-.35Z"/>
      <path id="パス_461" data-name="パス 461" d="M242.82,64.34h.88c.83,0,1.12-.32,1.12-.98V54.7c0-.5-.46-.58-.77-.58h-1.22v-.5h.29a6.215,6.215,0,0,0,2.61-.67c.11-.06.16-.1.22-.1.14,0,.18.1.18.22V63.35c0,.69.34.98,1.12.98h.88v.51h-5.31v-.51Z"/>
      <path id="パス_462" data-name="パス 462" d="M255.84,59.41a2.952,2.952,0,0,1,1.09,2.37,3.473,3.473,0,0,1-3.73,3.38c-1.73,0-3.18-.98-3.18-2.26a.919.919,0,0,1,.91-1.02.78.78,0,0,1,.78.8,1.27,1.27,0,0,1-.1.51,1.222,1.222,0,0,0-.05.37c0,.61.69,1.06,1.44,1.06a2.738,2.738,0,0,0,2.48-2.83,2.818,2.818,0,0,0-2.5-2.93c-.1,0-.54.06-.64.06a.313.313,0,0,1-.35-.34.363.363,0,0,1,.37-.37c.1,0,.58.1.69.1a2.324,2.324,0,0,0,2.19-2.5,2.15,2.15,0,0,0-2.02-2.4,1.2,1.2,0,0,0-1.3,1.07,1.026,1.026,0,0,0,.05.24,1.652,1.652,0,0,1,.05.38.845.845,0,0,1-.82.88.825.825,0,0,1-.8-.88c0-.88,1.02-2.24,3.07-2.24s3.2,1.28,3.2,2.69a2.789,2.789,0,0,1-.59,1.63,3.836,3.836,0,0,1-2.03,1.36,4.227,4.227,0,0,1,1.78.86Z"/>
      <path id="パス_463" data-name="パス 463" d="M263,53.99c-.02.58-.03.94-.03,1.71,0,1.68.1,5.31.13,6,0,.21.05.58.05.78,0,.61-.69.64-.77.64-.43,0-.43-.11-.4-1.17h-2c0,.11.05,1.42.05,1.46,0,.58-.62.69-.8.69-.4,0-.4-.3-.4-.5,0-.18.05-.96.05-1.12.05-1.22.06-5.71.06-6.08a24.507,24.507,0,0,0-.19-3.95l1.39.67h1.63l.46-.42c.18-.14.21-.21.29-.21a.421.421,0,0,1,.26.14l.64.58a.407.407,0,0,1,.13.26c0,.14-.32.35-.54.51Zm-1.01-.48h-2.02v3.76h2.02Zm0,4.15h-2.02v3.92h2.02Zm10.47-.3h-7.04a11.208,11.208,0,0,0-1.89.14l-.3-.64c.99.08,1.97.11,2.45.11h1.34V54.52h-.7a11.787,11.787,0,0,0-1.89.14l-.3-.64c1.06.1,2.18.11,2.45.11h.45a6.879,6.879,0,0,0-.27-2.61l1.65.48c.18.05.29.13.29.26s-.05.16-.51.48c-.02.38-.02.48-.03,1.39h1.57l.59-.69c.11-.14.18-.19.26-.19a.41.41,0,0,1,.29.16l.78.69a.312.312,0,0,1,.16.24c0,.14-.14.18-.24.18h-3.43v2.45h2.43l.61-.74c.13-.16.18-.21.24-.21.1,0,.14.06.3.19l.85.72c.13.11.14.19.14.24,0,.16-.14.18-.24.18Zm-.03,2.93h-2.66c0,.32.05,3.33.05,3.84,0,.61,0,1.6-2.06,1.98-.14-.53-.32-.98-1.47-1.6l.03-.11c.32.03,1.31.11,1.57.11.72,0,.82-.14.83-.46.02-.29.02-3.51,0-3.76h-3.1a12.276,12.276,0,0,0-1.89.14l-.3-.64c1.09.1,2.22.11,2.45.11h2.85a10.7,10.7,0,0,0-.21-2.21l1.44.35c.21.05.3.08.3.21,0,.11-.05.14-.46.46-.02.3-.02.4-.02,1.18h.75l.66-.75c.13-.14.19-.19.27-.19s.14.03.27.16l.78.75c.11.1.16.14.16.24,0,.14-.13.18-.24.18Zm-6.11,3.22c-.48,0-.58-.45-.66-.88a3.556,3.556,0,0,0-.75-1.78l.06-.1c1.57.62,2.02,1.55,2.02,2.05a.683.683,0,0,1-.67.7Z"/>
      <path id="パス_464" data-name="パス 464" d="M283.65,60.1a6.133,6.133,0,0,1-2.62-.74c-2.32-1.06-2.37-1.09-3.07-1.09a6.6,6.6,0,0,0-3.49,1.28l-.21-.24a6.021,6.021,0,0,1,4.16-1.87,6.337,6.337,0,0,1,2.88.86c1.78.83,2.06.98,2.8.98a6.668,6.668,0,0,0,3.49-1.3l.21.24a6,6,0,0,1-4.15,1.87Z"/>
      <path id="パス_465" data-name="パス 465" d="M295.28,64.86h-6.29v-.43a10.858,10.858,0,0,1,2.35-3.59c2.35-2.72,3.15-3.63,3.15-5.23a2.056,2.056,0,0,0-2.13-2.19c-1.12,0-1.79.67-1.79,1.25a.889.889,0,0,0,.16.5,1.383,1.383,0,0,1,.34.8.888.888,0,0,1-.86.9,1.01,1.01,0,0,1-.91-1.12,3.206,3.206,0,0,1,3.44-2.87,2.924,2.924,0,0,1,3.2,2.98c0,1.62-.93,2.5-2.37,3.73a14.006,14.006,0,0,0-3.46,4.02h2.21c2.24,0,2.77-.86,3.25-2.19l.48.18-.77,3.28Z"/>
      <path id="パス_466" data-name="パス 466" d="M300.58,65.16a3.238,3.238,0,0,1-2.62-1.73,9.963,9.963,0,0,1-.98-4.56c0-3.41,1.46-6,3.6-6,1.65,0,3.6,1.78,3.6,6.15,0,3.92-1.65,6.15-3.6,6.15Zm-1.79-9.62a14.706,14.706,0,0,0-.37,3.47c0,3.57.85,5.6,2.16,5.6,1.1,0,1.6-1.47,1.78-2.08a15.105,15.105,0,0,0,.38-3.52c0-3.65-.88-5.6-2.16-5.6-1.14,0-1.63,1.57-1.79,2.13Z"/>
      <path id="パス_467" data-name="パス 467" d="M310.1,53.99c-.02.58-.03.94-.03,1.71,0,1.68.1,5.31.13,6,0,.21.05.58.05.78,0,.61-.69.64-.77.64-.43,0-.43-.11-.4-1.17h-2c0,.11.05,1.42.05,1.46,0,.58-.62.69-.8.69-.4,0-.4-.3-.4-.5,0-.18.05-.96.05-1.12.05-1.22.06-5.71.06-6.08a24.507,24.507,0,0,0-.19-3.95l1.39.67h1.63l.46-.42c.18-.14.21-.21.29-.21a.421.421,0,0,1,.26.14l.64.58a.407.407,0,0,1,.13.26c0,.14-.32.35-.54.51Zm-1.01-.48h-2.02v3.76h2.02Zm0,4.15h-2.02v3.92h2.02Zm10.47-.3h-7.04a11.208,11.208,0,0,0-1.89.14l-.3-.64c.99.08,1.97.11,2.45.11h1.34V54.52h-.7a11.787,11.787,0,0,0-1.89.14l-.3-.64c1.06.1,2.18.11,2.45.11h.45a6.879,6.879,0,0,0-.27-2.61l1.65.48c.18.05.29.13.29.26s-.05.16-.51.48c-.02.38-.02.48-.03,1.39h1.57l.59-.69c.11-.14.18-.19.26-.19a.41.41,0,0,1,.29.16l.78.69a.312.312,0,0,1,.16.24c0,.14-.14.18-.24.18h-3.43v2.45h2.43l.61-.74c.13-.16.18-.21.24-.21.1,0,.14.06.3.19l.85.72c.13.11.14.19.14.24,0,.16-.14.18-.24.18Zm-.03,2.93h-2.66c0,.32.05,3.33.05,3.84,0,.61,0,1.6-2.06,1.98-.14-.53-.32-.98-1.47-1.6l.03-.11c.32.03,1.31.11,1.57.11.72,0,.82-.14.83-.46.02-.29.02-3.51,0-3.76h-3.11a12.276,12.276,0,0,0-1.89.14l-.3-.64c1.09.1,2.22.11,2.45.11h2.85a10.7,10.7,0,0,0-.21-2.21l1.44.35c.21.05.3.08.3.21,0,.11-.05.14-.46.46-.02.3-.02.4-.02,1.18h.75l.66-.75c.13-.14.19-.19.27-.19s.14.03.27.16l.78.75c.11.1.16.14.16.24,0,.14-.13.18-.24.18Zm-6.11,3.22c-.48,0-.58-.45-.66-.88a3.556,3.556,0,0,0-.75-1.78l.06-.1c1.57.62,2.02,1.55,2.02,2.05a.683.683,0,0,1-.67.7Z"/>
      <path id="パス_468" data-name="パス 468" d="M321.67,66.01l-.32-.32L335.5,51.54l.32.32Z"/>
      <path id="パス_469" data-name="パス 469" d="M350.57,65.54c-4.98-2.37-5.51-6.88-5.95-10.77-.19,3.01-.38,5.95-2.82,8.45a8.842,8.842,0,0,1-4.56,2.47l-.02-.1a10.565,10.565,0,0,0,4.05-3.25,15.335,15.335,0,0,0,2.34-8.16,11.334,11.334,0,0,0-.3-2.66l1.76.45c.08.02.26.06.26.26s-.24.32-.53.45a19.543,19.543,0,0,0,.93,5.31,8.478,8.478,0,0,0,6.47,6.1v.14a2.646,2.646,0,0,0-1.62,1.31Zm-11.65-6.1a.646.646,0,0,1-.67-.61c0-.3.11-.45.67-1.23a5.421,5.421,0,0,0,1.07-3.01h.14a7.645,7.645,0,0,1,.35,2.18c0,1.38-.62,2.67-1.57,2.67Zm11.3-3.79a13.466,13.466,0,0,1-3.68,3.02l-.08-.11a12.169,12.169,0,0,0,2.8-4.55l1.54,1.14a.271.271,0,0,1,.14.22c0,.22-.08.22-.72.27Z"/>
      <path id="パス_470" data-name="パス 470" d="M356.52,52.95l.32-.34a.338.338,0,0,1,.24-.13.531.531,0,0,1,.3.18l.56.56a.381.381,0,0,1,.11.24c0,.1-.11.22-.42.48-.03,1.14-.03,2.29-.02,4,.02.7.06,3.78.06,4.42,0,.38-.03.56-.21.7a1.053,1.053,0,0,1-.56.22c-.38,0-.37-.27-.32-.91h-1.6a3.253,3.253,0,0,1-.02.93.779.779,0,0,1-.72.5.4.4,0,0,1-.43-.46c0-.13.05-.69.05-.8.03-1.74.05-3.19.05-6.63a20.6,20.6,0,0,0-.13-3.54l1.23.58h1.49Zm-1.52.38v4.03h1.6V53.33Zm0,4.42v4.24h1.6V57.75Zm8.76,3.52v1.49h1.57l.3-.5c.06-.11.14-.24.26-.24.08,0,.13.03.29.18l.64.53c.06.05.16.13.16.24,0,.16-.16.18-.24.18h-2.98v1.57h2.29l.37-.64c.1-.18.19-.24.27-.24a.559.559,0,0,1,.29.18l.77.67a.369.369,0,0,1,.16.26c0,.16-.16.16-.24.16h-6.95c0,.45.02.5-.05.59a.868.868,0,0,1-.74.4c-.37,0-.37-.26-.37-.35,0-.21.05-1.23.06-1.47.02-.54.06-2.56.05-4.08a7.834,7.834,0,0,1-1.92,1.81l-.05-.08a13.994,13.994,0,0,0,2.42-4.75l1.09.53a.245.245,0,0,1,.16.21c0,.18-.1.21-.43.34-.19.35-.29.5-.45.77l.37.16h1.87a8.952,8.952,0,0,0,.58-2.03l1.18.56a.26.26,0,0,1,.18.21c0,.13-.05.14-.53.3a12.387,12.387,0,0,1-1.1.96h2.59l.42-.56c.11-.14.18-.21.26-.21s.14.03.3.16l.72.58c.06.05.16.14.16.24,0,.18-.16.18-.24.18h-3.49v1.34h1.54l.3-.53c.05-.08.13-.22.26-.22a.648.648,0,0,1,.3.18l.69.54c.06.05.16.14.16.24,0,.16-.16.18-.24.18h-3.01Zm-3.04-4.5a12.276,12.276,0,0,0-1.89.14l-.32-.64c1.09.1,2.23.11,2.46.11h.35V54.64h-.62a9.87,9.87,0,0,0-1.87.14l-.32-.64c.99.08,1.97.11,2.45.11h.37v-1.7h-.94a10.279,10.279,0,0,0-1.89.14l-.32-.64c1.1.1,2.24.11,2.46.11h.59l.37-.35a.377.377,0,0,1,.21-.11c.08,0,.14.06.24.16l.61.54a.325.325,0,0,1,.13.22c0,.13-.19.29-.43.48v.99c0,.43.08,2.29.08,2.67a.478.478,0,0,1-.19.46.9.9,0,0,1-.56.21c-.4,0-.38-.3-.37-.69h-.59Zm0,2.77v1.34h2.05V59.54Zm0,1.73v1.49h2.05V61.27Zm0,1.87v1.57h2.05V63.14Zm4.71-6.39a11.721,11.721,0,0,0-1.89.14l-.32-.64c1.04.1,2.16.11,2.56.11V54.6a12.264,12.264,0,0,0-2.1.14l-.32-.62c.86.06,1.25.08,2.42.1V52.51h-.5a11.887,11.887,0,0,0-1.87.14l-.32-.64a26.255,26.255,0,0,0,2.66.11l.34-.35c.06-.06.14-.14.21-.14s.11.02.29.18l.58.5c.06.06.14.13.14.22,0,.11-.11.19-.48.45-.02.35-.02.83.02,1.9,0,.3.08,1.66.08,1.95,0,.53-.56.64-.74.64-.42,0-.42-.32-.4-.72h-.35Z"/>
      <path id="パス_471" data-name="パス 471" d="M384.38,64.2a2.542,2.542,0,0,0-1.23,1.74,24.73,24.73,0,0,1-6.05-.46,5.461,5.461,0,0,1-3.7-3.39,7.144,7.144,0,0,1-3.91,4.08l-.08-.06c2.27-1.66,3.49-5.35,3.49-6.95a2.116,2.116,0,0,0-.02-.35l1.58.64a.26.26,0,0,1,.18.22c0,.18-.05.21-.58.43a8.986,8.986,0,0,1-.51,1.6,5.035,5.035,0,0,0,2.48,2.53v-6.5h-3.25a11.957,11.957,0,0,0-1.89.14l-.32-.62c1.31.1,2.27.1,2.46.1h7.27l.64-.85c.1-.11.16-.19.24-.19s.19.1.32.19l1.07.83a.271.271,0,0,1,.16.24c0,.16-.14.16-.24.16h-5.31v2.95h2.39l.64-.78c.11-.14.16-.21.24-.21.1,0,.21.1.3.18l.96.78a.329.329,0,0,1,.16.24c0,.18-.14.18-.24.18h-4.45v3.51a8.712,8.712,0,0,0,1.7.13,39.588,39.588,0,0,0,5.51-.54l-.02.05Zm-1.58-9.28h-.45c-.3.14-1.63.83-1.9.96l-.06-.05c.08-.13.67-1.42.75-1.65h-8.92c-.05,1.52-.96,2.34-1.74,2.34a.582.582,0,0,1-.59-.62c0-.38.24-.58.54-.8A3.343,3.343,0,0,0,372,52.92h.1a4.922,4.922,0,0,1,.11.88h3.81a5.2,5.2,0,0,0-.34-2.53l1.81.43c.13.03.26.13.26.22,0,.14-.06.18-.54.5V53.8H381l.66-.53a.275.275,0,0,1,.44,0l1.18,1.14a.381.381,0,0,1,.14.24c0,.27-.43.27-.62.27Z"/>
      <path id="パス_472" data-name="パス 472" d="M389.08,55.46c.11.06.22.16.22.27a.271.271,0,0,1-.14.22c-.1.06-.21.16-.34.26-.05,1.47-.06,2.56-.06,3.17,0,.93.1,5.6.1,5.83a.681.681,0,0,1-.26.66.968.968,0,0,1-.59.21c-.34,0-.43-.13-.43-.56,0-.77.19-5.55.21-6.51,0-.34.02-1.54.03-2.32a16.369,16.369,0,0,1-2.72,3.44l-.08-.08c1.17-1.71,3.67-6.63,3.65-8.84l1.57.83a.3.3,0,0,1,.13.22c0,.1-.11.18-.18.22s-.3.14-.45.22a26.826,26.826,0,0,1-1.1,2.48l.45.27Zm2.58.38a11.333,11.333,0,0,0-1.89.14l-.3-.62c1.07.08,2.26.1,2.45.1h1.73c-.02-.66-.13-3.06-.16-3.22a4.568,4.568,0,0,0-.22-.8l1.78.48c.13.03.24.13.24.22a.36.36,0,0,1-.18.29c-.14.1-.26.18-.37.26,0,.27-.03,1.86-.05,2.77h2.71l.72-.85c.13-.14.18-.19.24-.19s.13.03.3.16l1.07.85a.331.331,0,0,1,.16.26c0,.14-.13.16-.24.16h-4.8a10.3,10.3,0,0,0,5.65,6.71l-.03.11a2.366,2.366,0,0,0-1.73.91,14.3,14.3,0,0,1-4.07-7.35c-.02.96-.02,1.52-.02,2.5,0,.69,0,1.33.03,2.18.14,3.84.16,4.18.16,4.32a.787.787,0,0,1-.88.85c-.38,0-.5-.22-.5-.54,0-.21.06-1.12.06-1.3.05-1.62.06-2.72.1-6.05a13.321,13.321,0,0,1-4.53,5.54l-.03-.11a25.5,25.5,0,0,0,4.37-7.76h-1.78Z"/>
    </g>
  </g>
</svg>
