<svg id="area03-01-txt" xmlns="http://www.w3.org/2000/svg" width="305.31" height="90.04" viewBox="0 0 305.31 90.04">
  <g id="グループ_50" data-name="グループ 50">
    <g id="グループ_49" data-name="グループ 49">
      <path id="パス_384" data-name="パス 384" d="M26.51,36.8v-.96h.78c1.35,0,1.71-.9,1.71-2.19V27.14c0-1.8-.54-3.81-2.73-3.81-2.4,0-3.96,2.07-4.59,2.88v7.44c0,1.2.42,2.19,1.83,2.19h.54v.96H17.78v-.96h.48c1.32,0,1.68-.9,1.68-2.19V17.21c0-.81-.24-1.29-.93-1.29a4.432,4.432,0,0,0-1.14.18l-.15-.66,3.96-1.08V25.04c.99-1.14,2.58-3,5.25-3,3.12,0,3.81,2.4,3.81,4.41v7.2c0,1.17.36,2.19,1.83,2.19h.42v.96H26.51Z"/>
      <path id="パス_385" data-name="パス 385" d="M49.19,37.37c-1.89,0-1.98-1.83-1.98-2.55-1.89,1.62-3.09,2.55-5.1,2.55-2.76,0-4.11-1.44-4.11-3.21a4.4,4.4,0,0,1,1.92-3.33c1.92-1.38,3.57-1.92,7.29-2.79V26.06a3.11,3.11,0,0,0-.81-2.28,3.479,3.479,0,0,0-2.43-.84c-1.29,0-2.49.57-2.67,1.89-.06.57-.21,1.71-1.41,1.71a1.338,1.338,0,0,1-1.35-1.32c0-1.83,2.73-3.18,5.64-3.18,2.55,0,4.83.78,4.83,3.6v8.85c0,1.05.54,1.44,1.32,1.44a1.007,1.007,0,0,0,1.02-.6l.3.21a2.719,2.719,0,0,1-2.46,1.83Zm-1.98-8.43a11.949,11.949,0,0,0-5.31,2.31,4.237,4.237,0,0,0-1.77,2.82,2.285,2.285,0,0,0,2.52,2.07,6.66,6.66,0,0,0,4.56-2.34Z"/>
      <path id="パス_386" data-name="パス 386" d="M61.31,37.37c-2.19,0-3.21-1.32-3.21-3.66V23.57H55.55v-.96a3.131,3.131,0,0,0,2.01-.57,4.572,4.572,0,0,0,1.65-3.12V17.66h.72v4.95h4.98v.96H59.93V33.8a2.042,2.042,0,0,0,2.28,2.28,3.619,3.619,0,0,0,2.94-1.56l.51.51c-.96,1.02-2.16,2.34-4.35,2.34Z"/>
      <path id="パス_387" data-name="パス 387" d="M76.28,37.37c-3.75,0-6.57-3.6-6.57-7.68s2.76-7.65,6.57-7.65,6.57,3.63,6.57,7.65S80.03,37.37,76.28,37.37Zm0-14.43c-2.97,0-4.53,3.24-4.53,6.78s1.56,6.75,4.53,6.75c2.79,0,4.53-2.94,4.53-6.78,0-3.42-1.5-6.75-4.53-6.75Z"/>
      <path id="パス_388" data-name="パス 388" d="M105.62,36.8v-.96h.69c1.32,0,1.71-.87,1.71-2.19V26.3c0-1.77-.9-2.88-2.7-2.88-2.4,0-3.96,1.86-4.68,2.76v7.47c0,1.17.36,2.19,1.83,2.19h.69v.96H96.44v-.96h.66c1.32,0,1.71-.87,1.71-2.19V26.51c0-2.04-.78-3.09-2.88-3.09a5.608,5.608,0,0,0-4.26,2.19v8.04c0,1.17.39,2.19,1.83,2.19h.48v.96H87.62v-.96h.54c1.32,0,1.68-.9,1.68-2.19v-8.7c0-.6-.39-1.35-1.11-1.35a3.472,3.472,0,0,0-.87.12l-.15-.63,3.96-1.17v2.55c1.23-1.08,2.73-2.43,5.01-2.43a3.532,3.532,0,0,1,3.78,3c1.26-1.29,2.88-3,5.25-3,2.52,0,4.11,1.68,4.11,4.38v7.23c0,1.53.48,2.19,1.5,2.19h.72v.96h-6.42Z"/>
      <path id="パス_389" data-name="パス 389" d="M123.74,37.37c-5.61,0-6.69-5.04-6.69-7.65,0-3.84,2.04-7.68,6.39-7.68a5.464,5.464,0,0,1,4.83,2.64,8.537,8.537,0,0,1,1.32,4.26H119.21c-.21,7.17,4.59,7.29,5.16,7.29a5.69,5.69,0,0,0,4.68-2.79l.69.57c-1.11,1.44-2.58,3.36-6,3.36Zm-.36-14.43c-3.39,0-3.9,3.63-4.11,5.01h8.01C127.07,24.08,125.21,22.94,123.38,22.94Z"/>
      <path id="パス_519" data-name="パス 519" d="M14.085,1.35a9.849,9.849,0,0,1-2.85-7.05,9.849,9.849,0,0,1,2.85-7.05l-.135-.21A9.317,9.317,0,0,0,10.4-5.7,9.317,9.317,0,0,0,13.95,1.56Zm9-5.205.72,2.16a1.792,1.792,0,0,1,.135.555.655.655,0,0,1-.615.66h-.45V0h3.69V-.48h-.33c-.42,0-.81-.15-1.11-1.02L21.84-11.235l-1.32.285L17.565-1.86c-.24.735-.78,1.38-1.41,1.38h-.5V0h3.255V-.48h-.42a.553.553,0,0,1-.63-.6,1.323,1.323,0,0,1,.09-.5l.735-2.28Zm-.165-.48H18.855l2-6.12Zm5.7,2.88a.861.861,0,0,0-.87.87.861.861,0,0,0,.87.87.861.861,0,0,0,.87-.87A.88.88,0,0,0,28.62-1.455Zm0-5.925a.871.871,0,0,0-.87.87.861.861,0,0,0,.87.87.871.871,0,0,0,.87-.87A.88.88,0,0,0,28.62-7.38Zm11.235.165v-2.64h3.3c.09,0,.225-.015.225-.15,0-.105-.075-.165-.15-.24l-.8-.72c-.12-.1-.165-.15-.27-.15s-.15.075-.24.18l-.585.72H39.87V-11.4c.075-.06.45-.39.45-.495s-.09-.15-.21-.18l-1.56-.465a6.49,6.49,0,0,1,.27,2.325h-.9c-.45,0-1.38-.015-2.31-.09l.3.585a9.944,9.944,0,0,1,1.755-.135H38.82c.015.81.015,1.755.015,2.64H37.38c-.21,0-1.275-.015-2.31-.105l.3.6a10.682,10.682,0,0,1,1.77-.135h1.575c.015.15.1.885.12,1.065.03.615.03.87.03,4.815a5.449,5.449,0,0,1-1.935-2.49,11.647,11.647,0,0,0,.4-1.47c.06-.03.375-.18.435-.225a.215.215,0,0,0,.075-.165.2.2,0,0,0-.165-.21l-1.53-.5a3.111,3.111,0,0,1,.06.675A9.847,9.847,0,0,1,33.765.69l.045.06a6.619,6.619,0,0,0,3.015-3.87c.345,1.23,1.14,3.945,5.97,3.945.36,0,.615-.03.855-.045a2.208,2.208,0,0,1,.87-1.455l-.015-.06a9.4,9.4,0,0,1-2.415.27A15.924,15.924,0,0,1,39.855-.63c0-.075.015-3.09.015-3.3h3.285c.105,0,.225-.03.225-.165,0-.1-.075-.165-.15-.225l-.75-.63c-.165-.135-.21-.165-.285-.165s-.12.045-.24.18l-.54.645H39.87V-5.775c.1-.045.465-.255.465-.45,0-.105-.1-.15-.195-.18l-1.4-.45h5.34c.1,0,.225-.015.225-.165,0-.09-.06-.15-.15-.225l-.885-.75c-.135-.105-.195-.165-.285-.165-.045,0-.1.015-.225.2l-.54.75ZM30.27-3.51a9.134,9.134,0,0,0,2.2-1.71c-.03,3.42-.015,3.81-.06,4.725,0,.165-.09,1.02-.09,1.215,0,.33.255.42.525.42.66,0,.66-.42.66-1.2,0-.585-.045-3.48-.045-4.125,0-.465,0-1.05.045-1.695.33-.24.39-.33.39-.42,0-.105-.075-.15-.255-.3.54-.7.84-1.125,1.08-1.47.345-.06.585-.06.585-.27a.242.242,0,0,0-.09-.195L34.005-9.48a6.174,6.174,0,0,1-.285.885,21.046,21.046,0,0,1-3.51,4.98Zm.075-4.38a11.8,11.8,0,0,0,4.02-3.39c.57-.12.63-.135.63-.3,0-.075-.09-.15-.12-.18l-1.125-.81a13.935,13.935,0,0,1-3.48,4.56Zm28.92.735c0-.06-.045-.12-.15-.225l-.9-.9a.488.488,0,0,0-.27-.165c-.06,0-.15.075-.24.2L57-7.35H52.875V-9.735h4.14c.105,0,.225-.015.225-.165,0-.09-.06-.135-.15-.225l-.96-.855c-.09-.075-.2-.165-.27-.165-.09,0-.18.12-.24.195l-.585.855h-2.16V-12.03c.45-.255.45-.315.45-.42,0-.165-.12-.21-.285-.255l-1.38-.375c.1.8.15,1.14.165,1.47.03.51.03.885.03,4.26H49.8v-2.67c.42-.285.465-.33.465-.45,0-.135-.06-.195-.285-.255l-1.47-.405c.225.84.225,1.125.225,3.78H48.03c-.225,0-1.29-.015-2.31-.1l.3.6a10.682,10.682,0,0,1,1.77-.135h4.08c.015.8.03,2.5.015,3.21-.015.54-.015.555-.555.555-.18,0-1.05-.06-1.245-.06v.09a2.177,2.177,0,0,1,1.275,1.38c1.575-.45,1.575-.9,1.575-1.8,0-.375-.06-2.265-.06-2.685.33-.18.375-.24.375-.36,0-.135-.06-.135-.375-.21l-.525-.12h6.69C59.145-6.99,59.265-7.005,59.265-7.155Zm-8.625,1.8c0-.18-.12-.24-.255-.315l-1.17-.615a5.318,5.318,0,0,1-.285.9A17.623,17.623,0,0,1,46.02-1.2l.06.075a11.217,11.217,0,0,0,4.065-3.93c.135-.045.315-.09.375-.12A.2.2,0,0,0,50.64-5.355Zm7.68,2.6c0-.915-1.5-2.565-4.185-3.21l-.06.09A9,9,0,0,1,56.79-2.91c.285.465.495.8.93.8A.631.631,0,0,0,58.32-2.76Zm-2.565.03c0-.09-.06-.165-.18-.285l-.915-.9A6.884,6.884,0,0,1,53.325-2.43,14.44,14.44,0,0,1,46.665.975l.015.1A12.505,12.505,0,0,0,55.11-2.5C55.695-2.55,55.755-2.55,55.755-2.73ZM65.73-5.775C65.67-4.44,65.6-2.22,64.26-.75a1.472,1.472,0,0,1-1.1.525c-.405,0-.435-.21-.45-.54-.03-.84-.525-1.035-.825-1.035a.75.75,0,0,0-.765.78c0,.705.705,1.305,1.71,1.305,2.295,0,4.245-2.88,4.245-6.345,0-3.225-1.74-5.175-3.45-5.175-1.725,0-3.21,1.875-3.21,3.945,0,1.83,1.2,3.33,2.685,3.33a2.535,2.535,0,0,0,1.305-.39A3.836,3.836,0,0,0,65.73-5.775Zm-.015-.9c-.7,1.62-1.665,2.04-2.235,2.04-1.545,0-1.71-2.1-1.71-2.79,0-2.46,1.125-3.3,1.92-3.3a1.485,1.485,0,0,1,1.215.81A7.265,7.265,0,0,1,65.715-6.675ZM82.5-6.81l-.015-.15a7.006,7.006,0,0,1-5.5-4.02c.27-.045.96-.165.96-.465a.265.265,0,0,0-.12-.225l-.555-.54c-.1-.09-.165-.165-.255-.165s-.135.03-.27.165l-.48.48h-.75c-.3,0-.96-.015-1.635-.075l.195.525a7,7,0,0,1,1.26-.09h1.2c1.125,3.39,2.91,5.01,4.515,5.7A2.466,2.466,0,0,1,82.5-6.81Zm-9-3.885c0-.105-.12-.2-.195-.24l-1.29-.87a4.962,4.962,0,0,1-.24.96,19.5,19.5,0,0,1-3.63,5.49l.075.105a12.955,12.955,0,0,0,4.65-5.1C73.11-10.41,73.5-10.515,73.5-10.695ZM78.78-6.12a.4.4,0,0,0-.135-.24l-.6-.66c-.06-.06-.135-.135-.21-.135a.444.444,0,0,0-.27.165l-.4.36H72.915c-.45,0-1.365-.015-2.295-.09l.285.6a9.489,9.489,0,0,1,1.77-.15h.435A7.575,7.575,0,0,1,68.37.9l.03.12c4.725-.87,5.73-4.935,5.82-7.29h3.03a30.512,30.512,0,0,1-.225,4.32c-.225,1.365-.51,1.53-1.23,1.53a9.365,9.365,0,0,1-1.74-.255L74.04-.57a2.152,2.152,0,0,1,1.125,1.65c2.7-.24,3-1.335,3.15-6.735C78.735-5.955,78.78-5.985,78.78-6.12Zm18-6.06-.3-.3L83.22.78l.3.3Zm1.05,1.725h.6A.963.963,0,0,1,99.5-9.42v7.9A.962.962,0,0,1,98.43-.48h-.6V0h5.355c2.91,0,4.08-1.68,4.08-3.015a2.744,2.744,0,0,0-1.14-2.115,4.082,4.082,0,0,0-2.01-.75,3.545,3.545,0,0,0,1.485-.66,2.564,2.564,0,0,0,1.035-1.98c0-1.53-1.515-2.43-3.81-2.43H97.83Zm2.865,1.035a.962.962,0,0,1,1.065-1.035h1.065c1.5,0,2.415.765,2.415,2.115a2.281,2.281,0,0,1-2.55,2.31h-2Zm2.415,3.87a2.52,2.52,0,0,1,2.73,2.58,2.476,2.476,0,0,1-2.775,2.49H101.76a.956.956,0,0,1-1.065-1.035V-5.55Zm6.06,4.1a.861.861,0,0,0-.87.87.861.861,0,0,0,.87.87.861.861,0,0,0,.87-.87A.88.88,0,0,0,109.17-1.455Zm0-5.925a.871.871,0,0,0-.87.87.861.861,0,0,0,.87.87.871.871,0,0,0,.87-.87A.88.88,0,0,0,109.17-7.38Zm11.235.165v-2.64h3.3c.09,0,.225-.015.225-.15,0-.105-.075-.165-.15-.24l-.8-.72c-.12-.1-.165-.15-.27-.15s-.15.075-.24.18l-.585.72h-1.47V-11.4c.075-.06.45-.39.45-.495s-.09-.15-.21-.18l-1.56-.465a6.49,6.49,0,0,1,.27,2.325h-.9c-.45,0-1.38-.015-2.31-.09l.3.585a9.944,9.944,0,0,1,1.755-.135h1.155c.015.81.015,1.755.015,2.64H117.93c-.21,0-1.275-.015-2.31-.105l.3.6a10.682,10.682,0,0,1,1.77-.135h1.575c.015.15.105.885.12,1.065.03.615.03.87.03,4.815a5.449,5.449,0,0,1-1.935-2.49,11.647,11.647,0,0,0,.4-1.47c.06-.03.375-.18.435-.225a.215.215,0,0,0,.075-.165.2.2,0,0,0-.165-.21l-1.53-.5a3.111,3.111,0,0,1,.06.675A9.847,9.847,0,0,1,114.315.69l.045.06a6.619,6.619,0,0,0,3.015-3.87c.345,1.23,1.14,3.945,5.97,3.945.36,0,.615-.03.855-.045a2.208,2.208,0,0,1,.87-1.455l-.015-.06a9.4,9.4,0,0,1-2.415.27,15.924,15.924,0,0,1-2.235-.165c0-.075.015-3.09.015-3.3h3.285c.105,0,.225-.03.225-.165,0-.1-.075-.165-.15-.225l-.75-.63c-.165-.135-.21-.165-.285-.165s-.12.045-.24.18l-.54.645H120.42V-5.775c.1-.045.465-.255.465-.45,0-.105-.105-.15-.195-.18l-1.395-.45h5.34c.105,0,.225-.015.225-.165,0-.09-.06-.15-.15-.225l-.885-.75c-.135-.105-.195-.165-.285-.165-.045,0-.1.015-.225.2l-.54.75ZM110.82-3.51a9.134,9.134,0,0,0,2.205-1.71c-.03,3.42-.015,3.81-.06,4.725,0,.165-.09,1.02-.09,1.215,0,.33.255.42.525.42.66,0,.66-.42.66-1.2,0-.585-.045-3.48-.045-4.125,0-.465,0-1.05.045-1.695.33-.24.39-.33.39-.42,0-.105-.075-.15-.255-.3.54-.7.84-1.125,1.08-1.47.345-.06.585-.06.585-.27a.242.242,0,0,0-.09-.195l-1.215-.945a6.174,6.174,0,0,1-.285.885,21.046,21.046,0,0,1-3.51,4.98Zm.075-4.38a11.8,11.8,0,0,0,4.02-3.39c.57-.12.63-.135.63-.3,0-.075-.09-.15-.12-.18l-1.125-.81a13.935,13.935,0,0,1-3.48,4.56Zm28.92.735c0-.06-.045-.12-.15-.225l-.9-.9a.488.488,0,0,0-.27-.165c-.06,0-.15.075-.24.2l-.705.9h-4.125V-9.735h4.14c.1,0,.225-.015.225-.165,0-.09-.06-.135-.15-.225l-.96-.855c-.09-.075-.2-.165-.27-.165s-.18.12-.24.195l-.585.855h-2.16V-12.03c.45-.255.45-.315.45-.42,0-.165-.12-.21-.285-.255l-1.38-.375c.1.8.15,1.14.165,1.47.03.51.03.885.03,4.26H130.35v-2.67c.42-.285.465-.33.465-.45,0-.135-.06-.195-.285-.255l-1.47-.405c.225.84.225,1.125.225,3.78h-.705c-.225,0-1.29-.015-2.31-.1l.3.6a10.682,10.682,0,0,1,1.77-.135h4.08c.015.8.03,2.5.015,3.21-.015.54-.015.555-.555.555-.18,0-1.05-.06-1.245-.06v.09a2.177,2.177,0,0,1,1.275,1.38c1.575-.45,1.575-.9,1.575-1.8,0-.375-.06-2.265-.06-2.685.33-.18.375-.24.375-.36,0-.135-.06-.135-.375-.21l-.525-.12h6.69C139.7-6.99,139.815-7.005,139.815-7.155Zm-8.625,1.8c0-.18-.12-.24-.255-.315l-1.17-.615a5.316,5.316,0,0,1-.285.9A17.623,17.623,0,0,1,126.57-1.2l.06.075a11.217,11.217,0,0,0,4.065-3.93c.135-.045.315-.09.375-.12A.2.2,0,0,0,131.19-5.355Zm7.68,2.6c0-.915-1.5-2.565-4.185-3.21l-.06.09a9,9,0,0,1,2.715,2.97c.285.465.5.8.93.8A.631.631,0,0,0,138.87-2.76Zm-2.565.03c0-.09-.06-.165-.18-.285l-.915-.9a6.884,6.884,0,0,1-1.335,1.485,14.44,14.44,0,0,1-6.66,3.405l.015.1A12.505,12.505,0,0,0,135.66-2.5C136.245-2.55,136.305-2.55,136.305-2.73ZM141.81,0h4.98V-.48h-.825c-.735,0-1.05-.27-1.05-.915v-9.63c0-.12-.03-.21-.165-.21-.06,0-.1.03-.21.09a5.777,5.777,0,0,1-2.445.63h-.27v.465h1.14c.285,0,.72.075.72.54v8.115c0,.615-.27.915-1.05.915h-.825Zm13.365-5.475c0-4.095-1.83-5.76-3.375-5.76-2.01,0-3.375,2.43-3.375,5.625a9.332,9.332,0,0,0,.915,4.275A3.036,3.036,0,0,0,151.8.285C153.63.285,155.175-1.8,155.175-5.475Zm-3.375-5.25c1.2,0,2.025,1.83,2.025,5.25a13.889,13.889,0,0,1-.36,3.3c-.165.57-.63,1.95-1.665,1.95-1.23,0-2.025-1.905-2.025-5.25a13.574,13.574,0,0,1,.345-3.255C150.27-9.255,150.735-10.725,151.8-10.725ZM170.55-6.81l-.015-.15a7.006,7.006,0,0,1-5.505-4.02c.27-.045.96-.165.96-.465a.265.265,0,0,0-.12-.225l-.555-.54c-.1-.09-.165-.165-.255-.165-.075,0-.135.03-.27.165l-.48.48h-.75c-.3,0-.96-.015-1.635-.075l.195.525a7,7,0,0,1,1.26-.09h1.2c1.125,3.39,2.91,5.01,4.515,5.7A2.466,2.466,0,0,1,170.55-6.81Zm-9-3.885c0-.105-.12-.2-.2-.24l-1.29-.87a4.962,4.962,0,0,1-.24.96,19.5,19.5,0,0,1-3.63,5.49l.075.105a12.955,12.955,0,0,0,4.65-5.1C161.16-10.41,161.55-10.515,161.55-10.695Zm5.28,4.575a.4.4,0,0,0-.135-.24l-.6-.66c-.06-.06-.135-.135-.21-.135a.444.444,0,0,0-.27.165l-.4.36h-4.245c-.45,0-1.365-.015-2.295-.09l.285.6a9.489,9.489,0,0,1,1.77-.15h.435A7.575,7.575,0,0,1,156.42.9l.03.12c4.725-.87,5.73-4.935,5.82-7.29h3.03a30.511,30.511,0,0,1-.225,4.32c-.225,1.365-.51,1.53-1.23,1.53a9.365,9.365,0,0,1-1.74-.255l-.015.105a2.152,2.152,0,0,1,1.125,1.65c2.7-.24,3-1.335,3.15-6.735C166.785-5.955,166.83-5.985,166.83-6.12Zm8.325.42a9.317,9.317,0,0,0-3.555-7.26l-.135.21a9.849,9.849,0,0,1,2.85,7.05,9.849,9.849,0,0,1-2.85,7.05l.135.21A9.317,9.317,0,0,0,175.155-5.7Z" transform="translate(126 35)"/>
    </g>
    <rect id="長方形_16" data-name="長方形 16" width="7" height="90.04" fill="#1c2c5a"/>
  </g>
  <g id="グループ_54" data-name="グループ 54">
    <g id="グループ_52" data-name="グループ 52">
      <rect id="長方形_17" data-name="長方形 17" width="84.39" height="23.44" rx="5" transform="translate(22.5 56.56)" fill="none" stroke="#000" stroke-miterlimit="10" stroke-width="1"/>
      <g id="グループ_51" data-name="グループ 51">
        <path id="パス_402" data-name="パス 402" d="M47.87,65.56h-.29c-.14.1-.21.16-.84.69-.08.06-.67.48-.79.58l-.06-.06a11.653,11.653,0,0,0,.59-1.94H37c-.02,1.41-.64,2.74-1.44,2.74a.63.63,0,0,1-.62-.67c0-.4.26-.67.79-1.22a4.089,4.089,0,0,0,1.02-2.1h.08a3.7,3.7,0,0,1,.18.86h6.41a7.822,7.822,0,0,0,1.12-3.63l1.47.82c.15.08.23.16.23.26,0,.14-.15.19-.7.29-.87,1.15-.97,1.28-1.81,2.27h2.61l.46-.37c.14-.11.24-.19.33-.19s.17.08.33.21l.9.75a.447.447,0,0,1,.18.34c0,.32-.36.38-.68.38Zm-1.95,6.42c.02.21.02.35.03,1.63,0,.14.06.91.06,1.09a.667.667,0,0,1-.7.7c-.46,0-.43-.38-.4-.67H38.63c0,.24.02.77-.65.77-.38,0-.46-.21-.44-.53.03-.64.09-1.97.09-2.59a11.375,11.375,0,0,0-.14-1.84l1.29.74h1.91a6.835,6.835,0,0,0,.43-1.89H39.49c0,.26.02.74-.61.74-.46,0-.46-.35-.46-.5,0-.4.09-2.16.09-2.53a5.091,5.091,0,0,0-.12-1.3l1.31.62h3.98l.38-.43c.11-.11.17-.16.23-.16a.558.558,0,0,1,.26.13l.56.45c.11.1.17.16.17.24,0,.13-.09.21-.46.5-.02.32.08,1.78.08,2.08a.607.607,0,0,1-.65.66c-.26,0-.44-.14-.43-.5H42.44a14.768,14.768,0,0,1-1.31,1.89h3.65l.33-.45c.08-.11.15-.18.23-.18a.5.5,0,0,1,.27.14l.58.45a.436.436,0,0,1,.17.26c0,.11-.09.22-.46.48ZM39.1,63.99c-.41,0-.52-.35-.62-.75a5.084,5.084,0,0,0-.85-1.89l.06-.08c.79.42,2.01,1.06,2.01,2.06a.61.61,0,0,1-.59.66Zm5.84,7.67H38.65v2.69h6.29Zm-1.08-4.85H39.5V69h4.36Zm-1.9-3.03c-.53,0-.64-.51-.75-1.06a4.4,4.4,0,0,0-.71-1.71l.06-.08c1.26.59,1.98,1.41,1.98,2.15C42.54,63.19,42.51,63.78,41.96,63.78Z"/>
        <path id="パス_403" data-name="パス 403" d="M63.69,64.44H58.95l.79.5c.06.05.15.14.15.22,0,.19-.29.22-.56.24-.43.48-1.05,1.04-1.34,1.3h2.6l.59-.7c.08-.1.17-.19.24-.19a.588.588,0,0,1,.27.16l.7.7c.08.08.14.14.14.24,0,.16-.12.18-.23.18H57.45c0,.19.02,1.07.02,1.25h2.14l.53-.58c.09-.1.18-.19.26-.19s.15.08.29.18l.74.54a.341.341,0,0,1,.17.26c0,.14-.12.18-.23.18H57.46v1.39h3.91l.68-.82c.11-.13.15-.19.24-.19.11,0,.2.1.27.16l.84.82c.08.08.15.14.15.26,0,.14-.14.16-.24.16H57.76a8.988,8.988,0,0,0,5.93,3.09l.02.1a2.6,2.6,0,0,0-1.4,1.3,9.771,9.771,0,0,1-4.8-4.48h-.05c.02,1.46.03,1.74.03,2.05.02.37.09,1.95.09,2.29a.71.71,0,0,1-.77.66c-.41,0-.44-.26-.44-.5,0-.35.05-.94.06-1.31.02-.53.02-.77.05-2.99a11.272,11.272,0,0,1-6.03,4.32l-.03-.1a14.062,14.062,0,0,0,4.86-4.42H52.59a10.528,10.528,0,0,0-1.79.14l-.3-.64c1.02.1,2.05.11,2.34.11h3.65V68.74H53.83a10.922,10.922,0,0,0-1.79.14l-.3-.64c1.05.1,2.14.11,2.34.11H56.5V67.1H53.31a10.494,10.494,0,0,0-1.78.14l-.3-.64c1.02.1,2.08.11,2.34.11H57.7a8.243,8.243,0,0,0,.76-2.26H54.14c.88.3,1.69.78,1.69,1.55a.61.61,0,0,1-.61.64c-.35,0-.4-.1-.76-1.06a3.994,3.994,0,0,0-.62-1.14H52.26a9.117,9.117,0,0,0-1.79.14l-.29-.64c1.03.1,2.11.11,2.33.11h2.86a11.855,11.855,0,0,0-.26-3.3l1.47.45c.14.05.21.1.21.24,0,.18-.17.27-.46.38v2.22h1.12c0-2.03,0-2.5-.32-3.3l1.55.43c.09.03.26.08.26.24,0,.24-.36.37-.5.42v2.21h.65a11.786,11.786,0,0,0,.79-2.24,3.416,3.416,0,0,0,.08-.77l1.35.72c.09.05.18.11.18.22,0,.24-.36.29-.53.3-.47.53-1.28,1.44-1.58,1.76h2.39l.65-.72c.12-.13.18-.21.24-.21a.513.513,0,0,1,.3.18l.79.7c.09.08.17.14.17.26,0,.14-.14.18-.23.18Zm-9.88-.74c-.36,0-.47-.26-.76-.98a3.634,3.634,0,0,0-.88-1.26l.06-.11c.61.16,2.13.59,2.13,1.71a.588.588,0,0,1-.55.64Z"/>
        <path id="パス_404" data-name="パス 404" d="M69.86,63.32c-.02.58-.03.94-.03,1.71,0,1.68.09,5.31.12,6,0,.21.05.58.05.78,0,.61-.65.64-.73.64-.41,0-.41-.11-.38-1.17h-1.9c0,.11.05,1.42.05,1.46,0,.58-.59.69-.76.69-.38,0-.38-.3-.38-.5,0-.18.05-.96.05-1.12.05-1.22.06-5.71.06-6.08a26.3,26.3,0,0,0-.18-3.95l1.32.67H68.7l.44-.42c.17-.14.2-.21.27-.21a.383.383,0,0,1,.24.14l.61.58a.4.4,0,0,1,.12.26c0,.14-.3.35-.52.51Zm-.96-.48H66.99V66.6H68.9Zm0,4.15H66.99v3.92H68.9Zm9.94-.3H72.15a10.042,10.042,0,0,0-1.79.14l-.29-.64c.94.08,1.87.11,2.33.11h1.28V63.85h-.67a10.591,10.591,0,0,0-1.79.14l-.29-.64c1,.1,2.07.11,2.33.11h.43a7.17,7.17,0,0,0-.26-2.61l1.57.48c.17.05.27.13.27.26s-.05.16-.49.48c-.02.38-.02.48-.03,1.39h1.49l.56-.69c.11-.14.17-.19.24-.19a.376.376,0,0,1,.27.16l.75.69a.3.3,0,0,1,.15.24c0,.14-.14.18-.23.18H74.73V66.3h2.31l.58-.74c.12-.16.17-.21.23-.21.09,0,.14.06.29.19l.81.72a.335.335,0,0,1,.14.24c0,.16-.14.18-.23.18Zm-.03,2.93H76.29c0,.32.05,3.33.05,3.84,0,.61,0,1.6-1.96,1.98-.14-.53-.3-.98-1.4-1.6l.03-.11c.3.03,1.25.11,1.49.11.68,0,.78-.14.79-.46.02-.29.02-3.51,0-3.76H72.34a11,11,0,0,0-1.79.14l-.29-.64c1.03.1,2.11.11,2.33.11H75.3a11.481,11.481,0,0,0-.2-2.21l1.37.35c.2.05.29.08.29.21,0,.11-.05.14-.44.46-.02.3-.02.4-.02,1.18h.71l.62-.75c.12-.14.18-.19.26-.19s.14.03.26.16l.74.75c.11.1.15.14.15.24,0,.14-.12.18-.23.18ZM73,72.84c-.46,0-.55-.45-.62-.88a3.617,3.617,0,0,0-.71-1.78l.06-.1c1.49.62,1.91,1.55,1.91,2.05a.666.666,0,0,1-.64.7Z"/>
        <path id="パス_405" data-name="パス 405" d="M86.48,62.79v1.82c0,.26.06,1.49.06,1.66a.68.68,0,0,1-.74.62c-.41,0-.36-.38-.33-.58h-2.6v4.02c0,.58.06,3.36.06,3.99,0,.42-.15.9-.77.9a.393.393,0,0,1-.44-.42c0-.1.05-.51.05-.61.12-1.81.12-2.8.12-9.81a12.456,12.456,0,0,0-.17-3.2l1.41.7h2.19l.4-.38c.09-.08.15-.16.21-.16a.325.325,0,0,1,.18.1l.79.61a.259.259,0,0,1,.11.21c0,.11-.09.21-.52.53Zm-1-.51H82.87v1.6h2.61Zm0,1.98H82.87v1.68h2.61Zm4.21,4.48c0,.75,0,1.97.05,2.93,0,.14.06.8.06.93a.689.689,0,0,1-.76.74c-.2,0-.4-.05-.32-.8H85.76c.03.38.09,1.04-.71,1.04-.33,0-.35-.27-.35-.45,0-.1.03-.51.05-.69.06-.91.06-2.62.06-2.77a15.281,15.281,0,0,0-.11-2.26l1.11.58H88.7l.26-.35c.08-.11.17-.21.29-.21a.385.385,0,0,1,.24.13l.55.5a.286.286,0,0,1,.14.21c0,.11-.14.26-.47.48Zm-.97-.37H85.76v1.68h2.96Zm0,2.06H85.76v1.71h2.96Zm4.33-7.6c0,1.55.03,8.42.03,9.81s0,1.82-.61,2.27a3.375,3.375,0,0,1-1.15.53c-.12-.56-.26-1.17-1.64-1.73l.03-.11c.26.02,1.64.1,1.79.1s.43,0,.52-.19a15.553,15.553,0,0,0,.06-1.74c0-.86-.02-4.67-.02-5.44H89.19c.02.45-.3.66-.71.66a.335.335,0,0,1-.35-.38c0-.7.05-3.75.05-4.35a9.778,9.778,0,0,0-.08-1.02l1.26.67h2.57l.37-.43c.06-.06.18-.18.27-.18a.359.359,0,0,1,.24.11l.73.66a.308.308,0,0,1,.12.22c0,.13-.12.24-.61.56Zm-.99-.56H89.17v1.6h2.89Zm0,1.98H89.17v1.68h2.89Z"/>
      </g>
    </g>
    <g id="グループ_53" data-name="グループ 53">
      <path id="パス_406" data-name="パス 406" d="M118.3,74.97h.88c.83,0,1.12-.32,1.12-.98V65.33c0-.5-.46-.58-.77-.58h-1.22v-.5h.29a6.215,6.215,0,0,0,2.61-.67c.11-.06.16-.1.22-.1.14,0,.18.1.18.22V73.98c0,.69.34.98,1.12.98h.88v.51H118.3v-.51Z"/>
      <path id="パス_407" data-name="パス 407" d="M126.3,74.97h.88c.83,0,1.12-.32,1.12-.98V65.33c0-.5-.46-.58-.77-.58h-1.22v-.5h.29a6.215,6.215,0,0,0,2.61-.67c.11-.06.16-.1.22-.1.14,0,.18.1.18.22V73.98c0,.69.34.98,1.12.98h.88v.51H126.3v-.51Z"/>
      <path id="パス_408" data-name="パス 408" d="M138.48,64.61c-.02.58-.03.94-.03,1.71,0,1.68.1,5.31.13,6,0,.21.05.58.05.78,0,.61-.69.64-.77.64-.43,0-.43-.11-.4-1.17h-2c0,.11.05,1.42.05,1.46,0,.58-.62.69-.8.69-.4,0-.4-.3-.4-.5,0-.18.05-.96.05-1.12.05-1.22.06-5.71.06-6.08a24.509,24.509,0,0,0-.19-3.95l1.39.67h1.63l.46-.42c.18-.14.21-.21.29-.21a.421.421,0,0,1,.26.14l.64.58a.407.407,0,0,1,.13.26c0,.14-.32.35-.54.51Zm-1.01-.48h-2.02v3.76h2.02Zm0,4.15h-2.02V72.2h2.02Zm10.47-.3H140.9a11.208,11.208,0,0,0-1.89.14l-.3-.64c.99.08,1.97.11,2.45.11h1.34V65.14h-.7a11.787,11.787,0,0,0-1.89.14l-.3-.64c1.06.1,2.18.11,2.45.11h.45a6.878,6.878,0,0,0-.27-2.61l1.65.48c.18.05.29.13.29.26s-.05.16-.51.48c-.02.38-.02.48-.03,1.39h1.57l.59-.69c.11-.14.18-.19.26-.19a.41.41,0,0,1,.29.16l.78.69a.312.312,0,0,1,.16.24c0,.14-.14.18-.24.18h-3.43v2.45h2.43l.61-.74c.13-.16.18-.21.24-.21.1,0,.14.06.3.19l.85.72c.13.11.14.19.14.24,0,.16-.14.18-.24.18Zm-.03,2.93h-2.66c0,.32.05,3.33.05,3.84,0,.61,0,1.6-2.06,1.98-.14-.53-.32-.98-1.47-1.6l.03-.11c.32.03,1.31.11,1.57.11.72,0,.82-.14.83-.46.02-.29.02-3.51,0-3.76h-3.1a12.275,12.275,0,0,0-1.89.14l-.3-.64c1.09.1,2.22.11,2.45.11h2.85a10.7,10.7,0,0,0-.21-2.21l1.44.35c.21.05.3.08.3.21,0,.11-.05.14-.46.46-.02.3-.02.4-.02,1.18h.75l.66-.75c.13-.14.19-.19.27-.19s.14.03.27.16l.78.75c.11.1.16.14.16.24,0,.14-.13.18-.24.18Zm-6.11,3.22c-.48,0-.58-.45-.66-.88a3.556,3.556,0,0,0-.75-1.78l.06-.1c1.57.62,2.02,1.55,2.02,2.05a.683.683,0,0,1-.67.7Z"/>
      <path id="パス_409" data-name="パス 409" d="M155.33,70.04a2.952,2.952,0,0,1,1.09,2.37,3.473,3.473,0,0,1-3.73,3.38c-1.73,0-3.18-.98-3.18-2.26a.919.919,0,0,1,.91-1.02.78.78,0,0,1,.78.8,1.27,1.27,0,0,1-.1.51,1.222,1.222,0,0,0-.05.37c0,.61.69,1.06,1.44,1.06a2.738,2.738,0,0,0,2.48-2.83,2.818,2.818,0,0,0-2.5-2.93c-.1,0-.54.06-.64.06a.313.313,0,0,1-.35-.34.363.363,0,0,1,.37-.37c.1,0,.58.1.69.1a2.324,2.324,0,0,0,2.19-2.5,2.15,2.15,0,0,0-2.02-2.4,1.2,1.2,0,0,0-1.3,1.07,1.026,1.026,0,0,0,.05.24,1.652,1.652,0,0,1,.05.38.845.845,0,0,1-.82.88.825.825,0,0,1-.8-.88c0-.88,1.02-2.24,3.07-2.24s3.2,1.28,3.2,2.69a2.789,2.789,0,0,1-.59,1.63,3.836,3.836,0,0,1-2.03,1.36,4.227,4.227,0,0,1,1.78.86Z"/>
      <path id="パス_410" data-name="パス 410" d="M160.96,75.79a3.238,3.238,0,0,1-2.62-1.73,9.963,9.963,0,0,1-.98-4.56c0-3.41,1.46-6,3.6-6,1.65,0,3.6,1.78,3.6,6.15,0,3.92-1.65,6.15-3.6,6.15Zm-1.79-9.62a14.643,14.643,0,0,0-.37,3.47c0,3.57.85,5.6,2.16,5.6,1.1,0,1.6-1.47,1.78-2.08a15.105,15.105,0,0,0,.38-3.52c0-3.65-.88-5.6-2.16-5.6-1.14,0-1.63,1.57-1.79,2.13Z"/>
      <path id="パス_411" data-name="パス 411" d="M170.69,64.44a13.863,13.863,0,0,1-4.96,5.44l-.08-.11a20.562,20.562,0,0,0,3.87-5.86,5.877,5.877,0,0,0,.26-1.02l1.38.93c.08.05.21.14.21.26,0,.19-.42.3-.67.37Zm5.81,5.01c-.16,5.76-.48,6.93-3.36,7.19a2.279,2.279,0,0,0-1.2-1.76l.02-.11a10.281,10.281,0,0,0,1.86.27c.77,0,1.07-.18,1.31-1.63a32.56,32.56,0,0,0,.24-4.61h-3.23c-.1,2.51-1.17,6.85-6.21,7.78l-.03-.13a8.078,8.078,0,0,0,5.06-7.65h-.46a10.5,10.5,0,0,0-1.89.16l-.3-.64c.99.08,1.97.1,2.45.1h4.53l.43-.38c.1-.1.19-.18.29-.18.08,0,.16.08.22.14l.64.7a.422.422,0,0,1,.14.26c0,.14-.05.18-.5.5Zm2.91-.02c-1.71-.74-3.62-2.47-4.82-6.08h-1.28a6.519,6.519,0,0,0-1.34.1l-.21-.56c.72.06,1.42.08,1.74.08h.8l.51-.51c.14-.14.21-.18.29-.18.1,0,.16.08.27.18l.59.58a.272.272,0,0,1,.13.24c0,.32-.74.45-1.02.5a7.5,7.5,0,0,0,5.87,4.29l.02.16a2.587,2.587,0,0,0-1.55,1.22Z"/>
      <path id="パス_412" data-name="パス 412" d="M191.14,70.73a6.133,6.133,0,0,1-2.62-.74c-2.32-1.06-2.37-1.09-3.07-1.09a6.6,6.6,0,0,0-3.49,1.28l-.21-.24a6.021,6.021,0,0,1,4.16-1.87,6.337,6.337,0,0,1,2.88.86c1.78.83,2.06.98,2.8.98a6.668,6.668,0,0,0,3.49-1.3l.21.24a6,6,0,0,1-4.15,1.87Z"/>
      <path id="パス_413" data-name="パス 413" d="M197.41,74.97h.88c.83,0,1.12-.32,1.12-.98V65.33c0-.5-.46-.58-.77-.58h-1.22v-.5h.29a6.215,6.215,0,0,0,2.61-.67c.11-.06.16-.1.22-.1.14,0,.18.1.18.22V73.98c0,.69.34.98,1.12.98h.88v.51h-5.31v-.51Z"/>
      <path id="パス_414" data-name="パス 414" d="M211.68,72.26a3.566,3.566,0,0,1-3.78,3.52c-1.83,0-3.46-1.06-3.46-2.88,0-1.73,1.38-2.54,2.85-3.41-.85-.5-2.39-1.39-2.39-3.14a2.942,2.942,0,0,1,3.2-2.87,2.689,2.689,0,0,1,2.93,2.53c0,1.36-1.31,2.35-2,2.87,1.5.93,2.64,1.73,2.64,3.38Zm-5.89.59a2.3,2.3,0,0,0,2.31,2.38,2.49,2.49,0,0,0,2.43-2.42c0-1.52-1.58-2.42-2.75-3.07a4.052,4.052,0,0,0-1.98,3.11Zm4.08-6.66a2.018,2.018,0,0,0-1.98-2.16,1.83,1.83,0,0,0-1.89,1.9c0,1.12.91,1.68,2.58,2.67a3.062,3.062,0,0,0,1.3-2.42Z"/>
      <path id="パス_415" data-name="パス 415" d="M217.59,64.61c-.02.58-.03.94-.03,1.71,0,1.68.1,5.31.13,6,0,.21.05.58.05.78,0,.61-.69.64-.77.64-.43,0-.43-.11-.4-1.17h-2c0,.11.05,1.42.05,1.46,0,.58-.62.69-.8.69-.4,0-.4-.3-.4-.5,0-.18.05-.96.05-1.12.05-1.22.06-5.71.06-6.08a24.509,24.509,0,0,0-.19-3.95l1.39.67h1.63l.46-.42c.18-.14.21-.21.29-.21a.421.421,0,0,1,.26.14l.64.58a.407.407,0,0,1,.13.26c0,.14-.32.35-.54.51Zm-1.01-.48h-2.02v3.76h2.02Zm0,4.15h-2.02V72.2h2.02Zm10.47-.3h-7.04a11.208,11.208,0,0,0-1.89.14l-.3-.64c.99.08,1.97.11,2.45.11h1.34V65.14h-.7a11.787,11.787,0,0,0-1.89.14l-.3-.64c1.06.1,2.18.11,2.45.11h.45a6.878,6.878,0,0,0-.27-2.61l1.65.48c.18.05.29.13.29.26s-.05.16-.51.48c-.02.38-.02.48-.03,1.39h1.57l.59-.69c.11-.14.18-.19.26-.19a.41.41,0,0,1,.29.16l.78.69a.312.312,0,0,1,.16.24c0,.14-.14.18-.24.18h-3.43v2.45h2.43l.61-.74c.13-.16.18-.21.24-.21.1,0,.14.06.3.19l.85.72c.13.11.14.19.14.24,0,.16-.14.18-.24.18Zm-.03,2.93h-2.66c0,.32.05,3.33.05,3.84,0,.61,0,1.6-2.06,1.98-.14-.53-.32-.98-1.47-1.6l.03-.11c.32.03,1.31.11,1.57.11.72,0,.82-.14.83-.46.02-.29.02-3.51,0-3.76h-3.1a12.275,12.275,0,0,0-1.89.14l-.3-.64c1.09.1,2.22.11,2.45.11h2.85a10.7,10.7,0,0,0-.21-2.21l1.44.35c.21.05.3.08.3.21,0,.11-.05.14-.46.46-.02.3-.02.4-.02,1.18h.75l.66-.75c.13-.14.19-.19.27-.19s.14.03.27.16l.78.75c.11.1.16.14.16.24,0,.14-.13.18-.24.18Zm-6.11,3.22c-.48,0-.58-.45-.66-.88a3.556,3.556,0,0,0-.75-1.78l.06-.1c1.57.62,2.02,1.55,2.02,2.05a.683.683,0,0,1-.67.7Z"/>
      <path id="パス_416" data-name="パス 416" d="M229.15,76.63l-.32-.32,14.15-14.15.32.32Z"/>
      <path id="パス_417" data-name="パス 417" d="M255.19,64.02c-.05,1.34.02,5.41.05,6.99,0,.46.08,2.5.08,2.9,0,1.39,0,2.27-2.26,2.64-.1-.62-.35-1.01-1.49-1.6l.02-.11a11.189,11.189,0,0,0,1.66.11c.78,0,.8,0,.8-1.86,0-1.23,0-2.11.02-2.77h-5.33a7.669,7.669,0,0,1-4.05,6.45l-.08-.1c2.85-2.5,3.07-5.39,3.07-9.72a25.013,25.013,0,0,0-.3-4.75l1.63.78h4.83l.51-.48a.5.5,0,0,1,.29-.16.4.4,0,0,1,.27.13l.75.62a.427.427,0,0,1,.18.29c0,.16-.11.27-.66.62Zm-1.12,2.85h-5.22s-.03,2.37-.1,3.07h5.31V66.87Zm0-3.49h-5.22v3.11h5.22V63.38Z"/>
      <path id="パス_418" data-name="パス 418" d="M261.33,63.57l.32-.34a.338.338,0,0,1,.24-.13.531.531,0,0,1,.3.18l.56.56a.381.381,0,0,1,.11.24c0,.1-.11.22-.42.48-.03,1.14-.03,2.29-.02,4,.02.7.06,3.78.06,4.42,0,.38-.03.56-.21.7a1.053,1.053,0,0,1-.56.22c-.38,0-.37-.27-.32-.91h-1.6a3.253,3.253,0,0,1-.02.93.779.779,0,0,1-.72.5.4.4,0,0,1-.43-.46c0-.13.05-.69.05-.8.03-1.74.05-3.19.05-6.63a20.6,20.6,0,0,0-.13-3.54l1.23.58h1.49Zm-1.52.38v4.03h1.6V63.95h-1.6Zm0,4.42v4.24h1.6V68.37Zm8.76,3.52v1.49h1.57l.3-.5c.06-.11.14-.24.26-.24.08,0,.13.03.29.18l.64.53c.06.05.16.13.16.24,0,.16-.16.18-.24.18h-2.98v1.57h2.29l.37-.64c.1-.18.19-.24.27-.24a.559.559,0,0,1,.29.18l.77.67a.369.369,0,0,1,.16.26c0,.16-.16.16-.24.16h-6.95c0,.45.02.5-.05.59a.868.868,0,0,1-.74.4c-.37,0-.37-.26-.37-.35,0-.21.05-1.23.06-1.47.02-.54.06-2.56.05-4.08a7.834,7.834,0,0,1-1.92,1.81l-.05-.08a13.994,13.994,0,0,0,2.42-4.75l1.09.53a.245.245,0,0,1,.16.21c0,.18-.1.21-.43.34-.19.35-.29.5-.45.77l.37.16h1.87a8.952,8.952,0,0,0,.58-2.03l1.18.56a.26.26,0,0,1,.18.21c0,.13-.05.14-.53.3a12.388,12.388,0,0,1-1.1.96h2.59l.42-.56c.11-.14.18-.21.26-.21s.14.03.3.16l.72.58c.06.05.16.14.16.24,0,.18-.16.18-.24.18h-3.49v1.34h1.54l.3-.53c.05-.08.13-.22.26-.22a.648.648,0,0,1,.3.18l.69.54c.06.05.16.14.16.24,0,.16-.16.18-.24.18h-3.01Zm-3.04-4.5a12.275,12.275,0,0,0-1.89.14l-.32-.64c1.09.1,2.23.11,2.46.11h.35V65.26h-.62a9.87,9.87,0,0,0-1.87.14l-.32-.64c.99.08,1.97.11,2.45.11h.37v-1.7h-.94a10.279,10.279,0,0,0-1.89.14l-.32-.64c1.1.1,2.24.11,2.46.11h.59l.37-.35a.377.377,0,0,1,.21-.11c.08,0,.14.06.24.16l.61.54a.325.325,0,0,1,.13.22c0,.13-.19.29-.43.48v.99c0,.43.08,2.29.08,2.67a.478.478,0,0,1-.19.46.9.9,0,0,1-.56.21c-.4,0-.38-.3-.37-.69h-.59Zm0,2.77V71.5h2.05V70.16Zm0,1.73v1.49h2.05V71.89Zm0,1.87v1.57h2.05V73.76Zm4.71-6.39a11.721,11.721,0,0,0-1.89.14l-.32-.64c1.04.1,2.16.11,2.56.11V65.22a12.264,12.264,0,0,0-2.1.14l-.32-.62c.86.06,1.25.08,2.42.1V63.13h-.5a11.887,11.887,0,0,0-1.87.14l-.32-.64a26.255,26.255,0,0,0,2.66.11l.34-.35c.06-.06.14-.14.21-.14s.11.02.29.18l.58.5c.06.06.14.13.14.22,0,.11-.11.19-.48.45-.02.35-.02.83.02,1.9,0,.3.08,1.66.08,1.95,0,.53-.56.64-.74.64-.42,0-.42-.32-.4-.72h-.35Z"/>
      <path id="パス_419" data-name="パス 419" d="M289.19,74.83a2.542,2.542,0,0,0-1.23,1.74,24.73,24.73,0,0,1-6.05-.46,5.461,5.461,0,0,1-3.7-3.39,7.144,7.144,0,0,1-3.91,4.08l-.08-.06c2.27-1.66,3.49-5.35,3.49-6.95a2.116,2.116,0,0,0-.02-.35l1.59.64a.26.26,0,0,1,.18.22c0,.18-.05.21-.58.43a8.986,8.986,0,0,1-.51,1.6,5.035,5.035,0,0,0,2.48,2.53v-6.5H277.6a11.957,11.957,0,0,0-1.89.14l-.32-.62c1.31.1,2.27.1,2.46.1h7.27l.64-.85c.1-.11.16-.19.24-.19s.19.1.32.19l1.07.83a.27.27,0,0,1,.16.24c0,.16-.14.16-.24.16H282v2.95h2.39l.64-.78c.11-.14.16-.21.24-.21.1,0,.21.1.3.18l.96.78a.329.329,0,0,1,.16.24c0,.18-.14.18-.24.18H282v3.51a8.712,8.712,0,0,0,1.7.13,39.588,39.588,0,0,0,5.51-.54l-.02.05Zm-1.58-9.28h-.45c-.3.14-1.63.83-1.9.96l-.06-.05c.08-.13.67-1.42.75-1.65h-8.92c-.05,1.52-.96,2.34-1.74,2.34a.582.582,0,0,1-.59-.62c0-.38.24-.58.54-.8a3.343,3.343,0,0,0,1.57-2.18h.1a4.922,4.922,0,0,1,.11.88h3.81a5.2,5.2,0,0,0-.34-2.53l1.81.43c.13.03.26.13.26.22,0,.14-.06.18-.54.5v1.38h3.79l.66-.53a.275.275,0,0,1,.44,0l1.18,1.14a.381.381,0,0,1,.14.24c0,.27-.43.27-.62.27Z"/>
      <path id="パス_420" data-name="パス 420" d="M293.89,66.09c.11.06.22.16.22.27a.271.271,0,0,1-.14.22c-.1.06-.21.16-.34.26-.05,1.47-.06,2.56-.06,3.17,0,.93.1,5.6.1,5.83a.681.681,0,0,1-.26.66.968.968,0,0,1-.59.21c-.34,0-.43-.13-.43-.56,0-.77.19-5.55.21-6.51,0-.34.02-1.54.03-2.32a16.369,16.369,0,0,1-2.72,3.44l-.08-.08c1.17-1.71,3.67-6.63,3.65-8.84l1.57.83a.3.3,0,0,1,.13.22c0,.1-.11.18-.18.22s-.3.14-.45.22a26.827,26.827,0,0,1-1.1,2.48l.45.27Zm2.58.38a11.333,11.333,0,0,0-1.89.14l-.3-.62c1.07.08,2.26.1,2.45.1h1.73c-.02-.66-.13-3.06-.16-3.22a4.568,4.568,0,0,0-.22-.8l1.78.48c.13.03.24.13.24.22a.36.36,0,0,1-.18.29c-.14.1-.26.18-.37.26,0,.27-.03,1.86-.05,2.77h2.71l.72-.85c.13-.14.18-.19.24-.19s.13.03.3.16l1.07.85a.331.331,0,0,1,.16.26c0,.14-.13.16-.24.16h-4.8a10.3,10.3,0,0,0,5.65,6.71l-.03.11a2.366,2.366,0,0,0-1.73.91,14.3,14.3,0,0,1-4.07-7.35c-.02.96-.02,1.52-.02,2.5,0,.69,0,1.33.03,2.18.14,3.84.16,4.18.16,4.32a.787.787,0,0,1-.88.85c-.38,0-.5-.22-.5-.54,0-.21.06-1.12.06-1.3.05-1.62.06-2.72.1-6.05a13.321,13.321,0,0,1-4.53,5.54l-.03-.11a25.5,25.5,0,0,0,4.37-7.76h-1.78Z"/>
    </g>
  </g>
</svg>
