<svg xmlns="http://www.w3.org/2000/svg" width="378.655" height="90" viewBox="0 0 378.655 90">
  <g id="area03-03-txt" transform="translate(0 7)">
    <rect id="長方形_20" data-name="長方形 20" width="7" height="90" transform="translate(0 -7)" fill="#1c2c5a"/>
    <g id="グループ_76" data-name="グループ 76" transform="translate(0 -1.444)">
      <g id="グループ_59" data-name="グループ 59">
        <path id="パス_473" data-name="パス 473" d="M26.11,28.31c6.55-2.88,10.3-9.96,11.02-14.33a75.661,75.661,0,0,0-9.82,1.06,4.211,4.211,0,0,0-1.18.38c-.36.19-.41.22-.55.22-.22,0-.26-.07-.65-.53-.65-.74-1.03-1.2-1.03-1.8a5,5,0,0,1,.14-.79c.86,1.3,1.37,1.42,2.33,1.42.19,0,8.35-.62,8.64-.65a9.674,9.674,0,0,0,2.18-.38c.02-.02.24-.19.36-.29a.333.333,0,0,1,.26-.1.507.507,0,0,1,.34.17c.96.89,1.22,1.13,1.42,1.32a.389.389,0,0,1,.12.24c0,.22-.07.24-.53.43-.65.26-.72.41-1.15,1.54-1.22,3.14-2.35,6-5.28,8.62a16.612,16.612,0,0,1-6.58,3.7l-.05-.22ZM42.02,13.19c0,.19-.12.74-.48.74-.26,0-.31-.1-.82-.82a9.871,9.871,0,0,0-2.62-2.57c1.25.22,3.91,1.3,3.91,2.64ZM42.64,10a1.888,1.888,0,0,1,1.27,1.78c0,.38-.19.6-.38.6-.17,0-.22-.07-.6-.6a10.759,10.759,0,0,0-2.78-2.47,5.747,5.747,0,0,1,2.5.7Z"/>
        <path id="パス_474" data-name="パス 474" d="M49.75,18.45a11.1,11.1,0,0,0,2.69.1c.43,0,8.38-.05,10.06-.24a1.954,1.954,0,0,0,.77-.17,1.346,1.346,0,0,1,.46-.07c.12,0,2.23.24,2.23.94,0,.58-.62.58-1.27.58-.36,0-2.62-.14-3.12-.14-1.44,0-8.23.12-9.41.24a6.752,6.752,0,0,0-1.66.34,2.309,2.309,0,0,1-.74.22c-.16,0-.31,0-.89-.7a2.645,2.645,0,0,1-.7-1.73,1.829,1.829,0,0,1,.19-.94,2.337,2.337,0,0,0,1.39,1.58Z"/>
        <path id="パス_475" data-name="パス 475" d="M73.77,28.77c5.98-2.62,9.72-8.69,10.3-12.24-1.85.14-8.71.79-9.79,1.49-.46.31-.5.34-.67.34a3.34,3.34,0,0,1-2.26-2.66,2.546,2.546,0,0,1,.12-.74,3.065,3.065,0,0,0,2.59,1.56c.89,0,8.9-.65,9.53-.79.22-.05.43-.12,1.03-.65a.494.494,0,0,1,.34-.19c.26,0,1.9,1.2,1.9,1.66,0,.24-.07.26-.77.6-.48.24-.5.29-.79,1.06a21.763,21.763,0,0,1-5.57,7.94,12.741,12.741,0,0,1-5.9,2.81l-.05-.17Zm2.45-16.9a31.733,31.733,0,0,0,5.86-.72,2.77,2.77,0,0,1,1.1-.31c.38,0,1.68.14,1.68.77s-.67.65-2.52.77c-1.13.07-6.6.65-7.15.65-.48,0-1.63-.53-1.82-2.28a3.427,3.427,0,0,0,2.86,1.13Z"/>
        <path id="パス_476" data-name="パス 476" d="M98.37,14.12a.813.813,0,0,1-.82.82c-.43,0-.62-.19-1.37-.94a12.669,12.669,0,0,0-3.86-2.57c2.9-.05,6.05,1.18,6.05,2.69Zm9.98-.41a27.438,27.438,0,0,1-7.68,8.86c-1.1.89-2.06,1.56-3.31,2.42a6.164,6.164,0,0,0-1.54,1.46.83.83,0,0,1-.65.36c-.79,0-2.26-1.82-2.26-2.83a2.127,2.127,0,0,1,.34-1.01c.43.98,1.06,1.54,1.54,1.54.77,0,3-1.58,3.89-2.23a46.822,46.822,0,0,0,9.53-8.67l.14.1Z"/>
        <path id="パス_477" data-name="パス 477" d="M113.2,15.81a7.969,7.969,0,0,1,3.53.6,2.178,2.178,0,0,1,1.06,1.7c0,.34-.12.5-.5.5a14.524,14.524,0,0,1-2.35-1.37,17.654,17.654,0,0,0-3.14-1.34,11.552,11.552,0,0,1,1.42-.1Zm16.73-.58a36.278,36.278,0,0,1-11.9,11.74c-.34.19-.36.22-.72.67-.26.34-.46.46-.72.46a3.7,3.7,0,0,1-1.58-1.22,3.139,3.139,0,0,1-.55-2.4c1.25,1.34,1.51,1.54,1.9,1.54,1.06,0,6.89-3.53,13.49-10.92l.1.14Zm-14.26-4.8c1.22,0,3.22.43,3.82,1.06a2.272,2.272,0,0,1,.67,1.44c0,.41-.14.65-.46.65s-.43-.12-1.44-.94a12.266,12.266,0,0,0-3.62-2.14,8.577,8.577,0,0,1,1.03-.07Zm12.1,1.37a1.8,1.8,0,0,1,1.03,1.51c0,.46-.22.67-.5.67-.26,0-.31-.07-.86-.74a10.726,10.726,0,0,0-2.52-2.4,5.523,5.523,0,0,1,2.86.96Zm3.24-.67a.533.533,0,0,1-.53.58c-.26,0-.29,0-.94-.72a11.244,11.244,0,0,0-2.74-1.94c3.26-.05,4.2,1.37,4.2,2.09Z"/>
        <path id="パス_478" data-name="パス 478" d="M143.81,18.76c0,.12-.24.65-.24.77-.07.86-.36,4.73-.43,5.5,2.76-.12,3.74-.17,4.85-.17a2.6,2.6,0,0,0,.55-.02c.12-.02.5-.19.6-.19s1.94.58,1.94,1.27a.383.383,0,0,1-.36.43,6.794,6.794,0,0,1-1.03-.29,15.148,15.148,0,0,0-3.62-.38c-3.07,0-6.6.12-8.86.86a6.232,6.232,0,0,1-.74.36,2.408,2.408,0,0,1-1.7-1.97,2.352,2.352,0,0,1,.1-.58c.72,1.18,1.25,1.2,1.78,1.2.19,0,2.54-.26,2.93-.29.43-.05,2.02-.14,2.57-.17.19-2.81.24-3.58.24-4.68a3.523,3.523,0,0,0-.43-2.11c-.46.02-2.9.36-2.93.36a1.815,1.815,0,0,1-1.37-1.63,3.884,3.884,0,0,0,2.66.67,41.875,41.875,0,0,0,5.57-.53c.12-.02.62-.26.72-.26.07,0,1.37.22,1.37.7,0,.34-.46.36-.77.38-1.06.05-2.71.17-3.74.22.34.34.36.43.36.55Z"/>
        <path id="パス_479" data-name="パス 479" d="M155.83,27.45h.79a1.539,1.539,0,0,0,1.61-1.56V13a1.446,1.446,0,0,0-1.63-1.51h-.77V10.7h7.63c4.97,0,8.21,3.34,8.21,8.71,0,4.15-2.23,8.81-8.42,8.81h-7.42Zm5.57-15.96c-1.08,0-1.63.5-1.63,1.51V25.89c0,1.18.89,1.56,1.82,1.56h1.2c5.3,0,7.06-3.55,7.06-8.21,0-3.72-1.34-7.75-6.22-7.75H161.4Z"/>
        <path id="パス_480" data-name="パス 480" d="M186.74,23.61c0,2.74-2.38,5.06-5.71,5.06-2.95,0-4.8-1.85-4.8-3.5,0-.77.38-1.42,1.18-1.42a1.194,1.194,0,0,1,1.15,1.3c0,.26-.22.96-.22,1.15,0,.6.86,1.66,2.57,1.66,2.14,0,3.86-1.7,3.86-4.34,0-2.47-1.46-4.25-3.89-4.25-.12,0-.77.07-.91.07s-.65,0-.65-.5c0-.36.29-.43.62-.43.12,0,.77.07.91.07a3.718,3.718,0,0,0,3.55-3.89,3.224,3.224,0,0,0-3.19-3.5c-1.44,0-2.26.91-2.26,1.63,0,.12.07.72.07.86,0,.55-.26,1.42-1.13,1.42-.7,0-.98-.65-.98-1.27,0-1.78,2.06-3.46,4.51-3.46,2.69,0,4.87,1.7,4.87,4.1,0,1.73-1.37,3.77-4.2,4.44a4.893,4.893,0,0,1,4.63,4.8Z"/>
        <path id="パス_481" data-name="パス 481" d="M192.02,28.21v-.77h.84a2.048,2.048,0,0,0,2.35-2.35V14.29c0-1.56-.55-2.26-2.38-2.26h-.82v-.65h.38a9.4,9.4,0,0,0,3.67-.91,1.256,1.256,0,0,1,.5-.22c.12,0,.17.12.17.24V25.08c0,1.37.55,2.35,2.11,2.35h1.08v.77H192Z"/>
        <path id="パス_482" data-name="パス 482" d="M210.52,28.67c-2.83,0-5.54-3.05-5.54-8.33,0-4.51,2.33-10.08,6.79-10.08,1.75,0,2.86.91,2.86,2.09a1,1,0,0,1-1.1,1.13,1.2,1.2,0,0,1-1.25-1.25c-.02-.62-.05-1.25-.98-1.25a2.781,2.781,0,0,0-1.97.91c-2.09,2.26-2.26,5.64-2.38,8.28,1.13-1.58,2.16-3.1,4.34-3.1,2.59,0,4.3,2.4,4.3,5.4,0,3.6-2.38,6.19-5.06,6.19Zm.36-10.51c-2.47,0-3.58,2.83-3.94,3.79a10.327,10.327,0,0,0,1.1,4.3c.82,1.42,1.49,1.61,2.42,1.61,2.64,0,3.26-3.36,3.26-5.4,0-1.3-.24-4.3-2.86-4.3Z"/>
        <path id="パス_521" data-name="パス 521" d="M14.085,1.35a9.849,9.849,0,0,1-2.85-7.05,9.849,9.849,0,0,1,2.85-7.05l-.135-.21A9.317,9.317,0,0,0,10.4-5.7,9.317,9.317,0,0,0,13.95,1.56Zm9-5.205.72,2.16a1.792,1.792,0,0,1,.135.555.655.655,0,0,1-.615.66h-.45V0h3.69V-.48h-.33c-.42,0-.81-.15-1.11-1.02L21.84-11.235l-1.32.285L17.565-1.86c-.24.735-.78,1.38-1.41,1.38h-.5V0h3.255V-.48h-.42a.553.553,0,0,1-.63-.6,1.323,1.323,0,0,1,.09-.5l.735-2.28Zm-.165-.48H18.855l2-6.12Zm5.7,2.88a.861.861,0,0,0-.87.87.861.861,0,0,0,.87.87.861.861,0,0,0,.87-.87A.88.88,0,0,0,28.62-1.455Zm0-5.925a.871.871,0,0,0-.87.87.861.861,0,0,0,.87.87.871.871,0,0,0,.87-.87A.88.88,0,0,0,28.62-7.38Zm11.235.165v-2.64h3.3c.09,0,.225-.015.225-.15,0-.105-.075-.165-.15-.24l-.8-.72c-.12-.1-.165-.15-.27-.15s-.15.075-.24.18l-.585.72H39.87V-11.4c.075-.06.45-.39.45-.495s-.09-.15-.21-.18l-1.56-.465a6.49,6.49,0,0,1,.27,2.325h-.9c-.45,0-1.38-.015-2.31-.09l.3.585a9.944,9.944,0,0,1,1.755-.135H38.82c.015.81.015,1.755.015,2.64H37.38c-.21,0-1.275-.015-2.31-.105l.3.6a10.682,10.682,0,0,1,1.77-.135h1.575c.015.15.1.885.12,1.065.03.615.03.87.03,4.815a5.449,5.449,0,0,1-1.935-2.49,11.647,11.647,0,0,0,.4-1.47c.06-.03.375-.18.435-.225a.215.215,0,0,0,.075-.165.2.2,0,0,0-.165-.21l-1.53-.5a3.111,3.111,0,0,1,.06.675A9.847,9.847,0,0,1,33.765.69l.045.06a6.619,6.619,0,0,0,3.015-3.87c.345,1.23,1.14,3.945,5.97,3.945.36,0,.615-.03.855-.045a2.208,2.208,0,0,1,.87-1.455l-.015-.06a9.4,9.4,0,0,1-2.415.27A15.924,15.924,0,0,1,39.855-.63c0-.075.015-3.09.015-3.3h3.285c.105,0,.225-.03.225-.165,0-.1-.075-.165-.15-.225l-.75-.63c-.165-.135-.21-.165-.285-.165s-.12.045-.24.18l-.54.645H39.87V-5.775c.1-.045.465-.255.465-.45,0-.105-.1-.15-.195-.18l-1.4-.45h5.34c.1,0,.225-.015.225-.165,0-.09-.06-.15-.15-.225l-.885-.75c-.135-.105-.195-.165-.285-.165-.045,0-.1.015-.225.2l-.54.75ZM30.27-3.51a9.134,9.134,0,0,0,2.2-1.71c-.03,3.42-.015,3.81-.06,4.725,0,.165-.09,1.02-.09,1.215,0,.33.255.42.525.42.66,0,.66-.42.66-1.2,0-.585-.045-3.48-.045-4.125,0-.465,0-1.05.045-1.695.33-.24.39-.33.39-.42,0-.105-.075-.15-.255-.3.54-.7.84-1.125,1.08-1.47.345-.06.585-.06.585-.27a.242.242,0,0,0-.09-.195L34.005-9.48a6.174,6.174,0,0,1-.285.885,21.046,21.046,0,0,1-3.51,4.98Zm.075-4.38a11.8,11.8,0,0,0,4.02-3.39c.57-.12.63-.135.63-.3,0-.075-.09-.15-.12-.18l-1.125-.81a13.935,13.935,0,0,1-3.48,4.56Zm28.92.735c0-.06-.045-.12-.15-.225l-.9-.9a.488.488,0,0,0-.27-.165c-.06,0-.15.075-.24.2L57-7.35H52.875V-9.735h4.14c.105,0,.225-.015.225-.165,0-.09-.06-.135-.15-.225l-.96-.855c-.09-.075-.2-.165-.27-.165-.09,0-.18.12-.24.195l-.585.855h-2.16V-12.03c.45-.255.45-.315.45-.42,0-.165-.12-.21-.285-.255l-1.38-.375c.1.8.15,1.14.165,1.47.03.51.03.885.03,4.26H49.8v-2.67c.42-.285.465-.33.465-.45,0-.135-.06-.195-.285-.255l-1.47-.405c.225.84.225,1.125.225,3.78H48.03c-.225,0-1.29-.015-2.31-.1l.3.6a10.682,10.682,0,0,1,1.77-.135h4.08c.015.8.03,2.5.015,3.21-.015.54-.015.555-.555.555-.18,0-1.05-.06-1.245-.06v.09a2.177,2.177,0,0,1,1.275,1.38c1.575-.45,1.575-.9,1.575-1.8,0-.375-.06-2.265-.06-2.685.33-.18.375-.24.375-.36,0-.135-.06-.135-.375-.21l-.525-.12h6.69C59.145-6.99,59.265-7.005,59.265-7.155Zm-8.625,1.8c0-.18-.12-.24-.255-.315l-1.17-.615a5.318,5.318,0,0,1-.285.9A17.623,17.623,0,0,1,46.02-1.2l.06.075a11.217,11.217,0,0,0,4.065-3.93c.135-.045.315-.09.375-.12A.2.2,0,0,0,50.64-5.355Zm7.68,2.6c0-.915-1.5-2.565-4.185-3.21l-.06.09A9,9,0,0,1,56.79-2.91c.285.465.495.8.93.8A.631.631,0,0,0,58.32-2.76Zm-2.565.03c0-.09-.06-.165-.18-.285l-.915-.9A6.884,6.884,0,0,1,53.325-2.43,14.44,14.44,0,0,1,46.665.975l.015.1A12.505,12.505,0,0,0,55.11-2.5C55.695-2.55,55.755-2.55,55.755-2.73Zm8.91-3.45c.645-.48,1.875-1.41,1.875-2.685a2.519,2.519,0,0,0-2.745-2.37,2.751,2.751,0,0,0-3,2.685c0,1.635,1.44,2.475,2.235,2.94-1.38.81-2.67,1.575-2.67,3.2,0,1.71,1.53,2.7,3.24,2.7a3.342,3.342,0,0,0,3.54-3.3C67.14-4.56,66.075-5.31,64.665-6.18Zm-1.185.81c1.095.615,2.58,1.455,2.58,2.88A2.335,2.335,0,0,1,63.78-.225,2.159,2.159,0,0,1,61.62-2.46,3.808,3.808,0,0,1,63.48-5.37Zm.75-1.065c-1.56-.93-2.415-1.455-2.415-2.505a1.73,1.73,0,0,1,1.77-1.785A1.892,1.892,0,0,1,65.445-8.7,2.854,2.854,0,0,1,64.23-6.435ZM82.5-6.81l-.015-.15a7.006,7.006,0,0,1-5.5-4.02c.27-.045.96-.165.96-.465a.265.265,0,0,0-.12-.225l-.555-.54c-.1-.09-.165-.165-.255-.165s-.135.03-.27.165l-.48.48h-.75c-.3,0-.96-.015-1.635-.075l.195.525a7,7,0,0,1,1.26-.09h1.2c1.125,3.39,2.91,5.01,4.515,5.7A2.466,2.466,0,0,1,82.5-6.81Zm-9-3.885c0-.105-.12-.2-.195-.24l-1.29-.87a4.962,4.962,0,0,1-.24.96,19.5,19.5,0,0,1-3.63,5.49l.075.105a12.955,12.955,0,0,0,4.65-5.1C73.11-10.41,73.5-10.515,73.5-10.695ZM78.78-6.12a.4.4,0,0,0-.135-.24l-.6-.66c-.06-.06-.135-.135-.21-.135a.444.444,0,0,0-.27.165l-.4.36H72.915c-.45,0-1.365-.015-2.295-.09l.285.6a9.489,9.489,0,0,1,1.77-.15h.435A7.575,7.575,0,0,1,68.37.9l.03.12c4.725-.87,5.73-4.935,5.82-7.29h3.03a30.512,30.512,0,0,1-.225,4.32c-.225,1.365-.51,1.53-1.23,1.53a9.365,9.365,0,0,1-1.74-.255L74.04-.57a2.152,2.152,0,0,1,1.125,1.65c2.7-.24,3-1.335,3.15-6.735C78.735-5.955,78.78-5.985,78.78-6.12Zm18-6.06-.3-.3L83.22.78l.3.3Zm1.05,1.725h.6A.963.963,0,0,1,99.5-9.42v7.9A.962.962,0,0,1,98.43-.48h-.6V0h5.355c2.91,0,4.08-1.68,4.08-3.015a2.744,2.744,0,0,0-1.14-2.115,4.082,4.082,0,0,0-2.01-.75,3.545,3.545,0,0,0,1.485-.66,2.564,2.564,0,0,0,1.035-1.98c0-1.53-1.515-2.43-3.81-2.43H97.83Zm2.865,1.035a.962.962,0,0,1,1.065-1.035h1.065c1.5,0,2.415.765,2.415,2.115a2.281,2.281,0,0,1-2.55,2.31h-2Zm2.415,3.87a2.52,2.52,0,0,1,2.73,2.58,2.476,2.476,0,0,1-2.775,2.49H101.76a.956.956,0,0,1-1.065-1.035V-5.55Zm6.06,4.1a.861.861,0,0,0-.87.87.861.861,0,0,0,.87.87.861.861,0,0,0,.87-.87A.88.88,0,0,0,109.17-1.455Zm0-5.925a.871.871,0,0,0-.87.87.861.861,0,0,0,.87.87.871.871,0,0,0,.87-.87A.88.88,0,0,0,109.17-7.38Zm11.235.165v-2.64h3.3c.09,0,.225-.015.225-.15,0-.105-.075-.165-.15-.24l-.8-.72c-.12-.1-.165-.15-.27-.15s-.15.075-.24.18l-.585.72h-1.47V-11.4c.075-.06.45-.39.45-.495s-.09-.15-.21-.18l-1.56-.465a6.49,6.49,0,0,1,.27,2.325h-.9c-.45,0-1.38-.015-2.31-.09l.3.585a9.944,9.944,0,0,1,1.755-.135h1.155c.015.81.015,1.755.015,2.64H117.93c-.21,0-1.275-.015-2.31-.105l.3.6a10.682,10.682,0,0,1,1.77-.135h1.575c.015.15.105.885.12,1.065.03.615.03.87.03,4.815a5.449,5.449,0,0,1-1.935-2.49,11.647,11.647,0,0,0,.4-1.47c.06-.03.375-.18.435-.225a.215.215,0,0,0,.075-.165.2.2,0,0,0-.165-.21l-1.53-.5a3.111,3.111,0,0,1,.06.675A9.847,9.847,0,0,1,114.315.69l.045.06a6.619,6.619,0,0,0,3.015-3.87c.345,1.23,1.14,3.945,5.97,3.945.36,0,.615-.03.855-.045a2.208,2.208,0,0,1,.87-1.455l-.015-.06a9.4,9.4,0,0,1-2.415.27,15.924,15.924,0,0,1-2.235-.165c0-.075.015-3.09.015-3.3h3.285c.105,0,.225-.03.225-.165,0-.1-.075-.165-.15-.225l-.75-.63c-.165-.135-.21-.165-.285-.165s-.12.045-.24.18l-.54.645H120.42V-5.775c.1-.045.465-.255.465-.45,0-.105-.105-.15-.195-.18l-1.395-.45h5.34c.105,0,.225-.015.225-.165,0-.09-.06-.15-.15-.225l-.885-.75c-.135-.105-.195-.165-.285-.165-.045,0-.1.015-.225.2l-.54.75ZM110.82-3.51a9.134,9.134,0,0,0,2.205-1.71c-.03,3.42-.015,3.81-.06,4.725,0,.165-.09,1.02-.09,1.215,0,.33.255.42.525.42.66,0,.66-.42.66-1.2,0-.585-.045-3.48-.045-4.125,0-.465,0-1.05.045-1.695.33-.24.39-.33.39-.42,0-.105-.075-.15-.255-.3.54-.7.84-1.125,1.08-1.47.345-.06.585-.06.585-.27a.242.242,0,0,0-.09-.195l-1.215-.945a6.174,6.174,0,0,1-.285.885,21.046,21.046,0,0,1-3.51,4.98Zm.075-4.38a11.8,11.8,0,0,0,4.02-3.39c.57-.12.63-.135.63-.3,0-.075-.09-.15-.12-.18l-1.125-.81a13.935,13.935,0,0,1-3.48,4.56Zm28.92.735c0-.06-.045-.12-.15-.225l-.9-.9a.488.488,0,0,0-.27-.165c-.06,0-.15.075-.24.2l-.705.9h-4.125V-9.735h4.14c.1,0,.225-.015.225-.165,0-.09-.06-.135-.15-.225l-.96-.855c-.09-.075-.2-.165-.27-.165s-.18.12-.24.195l-.585.855h-2.16V-12.03c.45-.255.45-.315.45-.42,0-.165-.12-.21-.285-.255l-1.38-.375c.1.8.15,1.14.165,1.47.03.51.03.885.03,4.26H130.35v-2.67c.42-.285.465-.33.465-.45,0-.135-.06-.195-.285-.255l-1.47-.405c.225.84.225,1.125.225,3.78h-.705c-.225,0-1.29-.015-2.31-.1l.3.6a10.682,10.682,0,0,1,1.77-.135h4.08c.015.8.03,2.5.015,3.21-.015.54-.015.555-.555.555-.18,0-1.05-.06-1.245-.06v.09a2.177,2.177,0,0,1,1.275,1.38c1.575-.45,1.575-.9,1.575-1.8,0-.375-.06-2.265-.06-2.685.33-.18.375-.24.375-.36,0-.135-.06-.135-.375-.21l-.525-.12h6.69C139.7-6.99,139.815-7.005,139.815-7.155Zm-8.625,1.8c0-.18-.12-.24-.255-.315l-1.17-.615a5.316,5.316,0,0,1-.285.9A17.623,17.623,0,0,1,126.57-1.2l.06.075a11.217,11.217,0,0,0,4.065-3.93c.135-.045.315-.09.375-.12A.2.2,0,0,0,131.19-5.355Zm7.68,2.6c0-.915-1.5-2.565-4.185-3.21l-.06.09a9,9,0,0,1,2.715,2.97c.285.465.5.8.93.8A.631.631,0,0,0,138.87-2.76Zm-2.565.03c0-.09-.06-.165-.18-.285l-.915-.9a6.884,6.884,0,0,1-1.335,1.485,14.44,14.44,0,0,1-6.66,3.405l.015.1A12.505,12.505,0,0,0,135.66-2.5C136.245-2.55,136.305-2.55,136.305-2.73Zm9.975-3.045c-.06,1.335-.135,3.555-1.47,5.025a1.472,1.472,0,0,1-1.1.525c-.4,0-.435-.21-.45-.54-.03-.84-.525-1.035-.825-1.035a.75.75,0,0,0-.765.78c0,.705.705,1.305,1.71,1.305,2.295,0,4.245-2.88,4.245-6.345,0-3.225-1.74-5.175-3.45-5.175-1.725,0-3.21,1.875-3.21,3.945,0,1.83,1.2,3.33,2.685,3.33a2.535,2.535,0,0,0,1.305-.39A3.836,3.836,0,0,0,146.28-5.775Zm-.015-.9c-.705,1.62-1.665,2.04-2.235,2.04-1.545,0-1.71-2.1-1.71-2.79,0-2.46,1.125-3.3,1.92-3.3a1.485,1.485,0,0,1,1.215.81A7.265,7.265,0,0,1,146.265-6.675ZM163.05-6.81l-.015-.15a7.006,7.006,0,0,1-5.505-4.02c.27-.045.96-.165.96-.465a.265.265,0,0,0-.12-.225l-.555-.54c-.1-.09-.165-.165-.255-.165-.075,0-.135.03-.27.165l-.48.48h-.75c-.3,0-.96-.015-1.635-.075l.195.525a7,7,0,0,1,1.26-.09h1.2c1.125,3.39,2.91,5.01,4.515,5.7A2.466,2.466,0,0,1,163.05-6.81Zm-9-3.885c0-.105-.12-.2-.2-.24l-1.29-.87a4.962,4.962,0,0,1-.24.96,19.5,19.5,0,0,1-3.63,5.49l.075.105a12.955,12.955,0,0,0,4.65-5.1C153.66-10.41,154.05-10.515,154.05-10.695Zm5.28,4.575a.4.4,0,0,0-.135-.24l-.6-.66c-.06-.06-.135-.135-.21-.135a.444.444,0,0,0-.27.165l-.4.36h-4.245c-.45,0-1.365-.015-2.295-.09l.285.6a9.489,9.489,0,0,1,1.77-.15h.435A7.575,7.575,0,0,1,148.92.9l.03.12c4.725-.87,5.73-4.935,5.82-7.29h3.03a30.511,30.511,0,0,1-.225,4.32c-.225,1.365-.51,1.53-1.23,1.53a9.365,9.365,0,0,1-1.74-.255l-.015.105a2.152,2.152,0,0,1,1.125,1.65c2.7-.24,3-1.335,3.15-6.735C159.285-5.955,159.33-5.985,159.33-6.12Zm8.325.42a9.317,9.317,0,0,0-3.555-7.26l-.135.21a9.849,9.849,0,0,1,2.85,7.05,9.849,9.849,0,0,1-2.85,7.05l.135.21A9.317,9.317,0,0,0,167.655-5.7Z" transform="translate(211 26.444)"/>
      </g>
      <g id="グループ_63" data-name="グループ 63">
        <g id="グループ_61" data-name="グループ 61">
          <rect id="長方形_21" data-name="長方形 21" width="84.39" height="23.44" rx="5" transform="translate(22.41 46.4)" fill="none" stroke="#000" stroke-miterlimit="10" stroke-width="1"/>
          <g id="グループ_60" data-name="グループ 60">
            <path id="パス_495" data-name="パス 495" d="M47.78,55.4h-.29c-.14.1-.21.16-.84.69-.08.06-.67.48-.79.58l-.06-.06a11.653,11.653,0,0,0,.59-1.94H36.91c-.02,1.41-.64,2.74-1.44,2.74a.63.63,0,0,1-.62-.67c0-.4.26-.67.79-1.22a4.089,4.089,0,0,0,1.02-2.1h.08a3.7,3.7,0,0,1,.18.86h6.41a7.822,7.822,0,0,0,1.12-3.63l1.47.82c.15.08.23.16.23.26,0,.14-.15.19-.7.29-.87,1.15-.97,1.28-1.81,2.27h2.61l.46-.37c.14-.11.24-.19.33-.19s.17.08.33.21l.9.75a.447.447,0,0,1,.18.34c0,.32-.36.38-.68.38Zm-1.95,6.42c.02.21.02.35.03,1.63,0,.14.06.91.06,1.09a.667.667,0,0,1-.7.7c-.46,0-.43-.38-.4-.67H38.54c0,.24.02.77-.65.77-.38,0-.46-.21-.44-.53.03-.64.09-1.97.09-2.59a11.376,11.376,0,0,0-.14-1.84l1.29.74H40.6a6.835,6.835,0,0,0,.43-1.89H39.4c0,.26.02.74-.61.74-.46,0-.46-.35-.46-.5,0-.4.09-2.16.09-2.53a5.091,5.091,0,0,0-.12-1.3l1.31.62h3.98l.38-.43c.11-.11.17-.16.23-.16a.558.558,0,0,1,.26.13l.56.45c.11.1.17.16.17.24,0,.13-.09.21-.46.5-.02.32.08,1.78.08,2.08a.607.607,0,0,1-.65.66c-.26,0-.44-.14-.43-.5H42.35a14.768,14.768,0,0,1-1.31,1.89h3.65l.33-.45c.08-.11.15-.18.23-.18a.5.5,0,0,1,.27.14l.58.45a.436.436,0,0,1,.17.26c0,.11-.09.22-.46.48Zm-6.82-7.99c-.41,0-.52-.35-.62-.75a5.084,5.084,0,0,0-.85-1.89l.06-.08c.79.42,2.01,1.06,2.01,2.06a.61.61,0,0,1-.59.66Zm5.84,7.67H38.56v2.69h6.29V61.5Zm-1.08-4.85H39.41v2.19h4.36Zm-1.9-3.03c-.53,0-.64-.51-.75-1.06a4.4,4.4,0,0,0-.71-1.71l.06-.08c1.26.59,1.98,1.41,1.98,2.15C42.45,53.03,42.42,53.62,41.87,53.62Z"/>
            <path id="パス_496" data-name="パス 496" d="M63.6,54.28H58.86l.79.5c.06.05.15.14.15.22,0,.19-.29.22-.56.24-.43.48-1.05,1.04-1.34,1.3h2.6l.59-.7c.08-.1.17-.19.24-.19a.588.588,0,0,1,.27.16l.7.7c.08.08.14.14.14.24,0,.16-.12.18-.23.18H57.36c0,.19.02,1.07.02,1.25h2.14l.53-.58c.09-.1.18-.19.26-.19s.15.08.29.18l.74.54a.341.341,0,0,1,.17.26c0,.14-.12.18-.23.18H57.37v1.39h3.91l.68-.82c.11-.13.15-.19.24-.19.11,0,.2.1.27.16l.84.82c.08.08.15.14.15.26,0,.14-.14.16-.24.16H57.67a8.988,8.988,0,0,0,5.93,3.09l.02.1a2.6,2.6,0,0,0-1.4,1.3,9.771,9.771,0,0,1-4.8-4.48h-.05c.02,1.46.03,1.74.03,2.05.02.37.09,1.95.09,2.29a.71.71,0,0,1-.77.66c-.41,0-.44-.26-.44-.5,0-.35.05-.94.06-1.31.02-.53.02-.77.05-2.99a11.272,11.272,0,0,1-6.03,4.32l-.03-.1a14.062,14.062,0,0,0,4.86-4.42H52.5a10.528,10.528,0,0,0-1.79.14l-.3-.64c1.02.1,2.05.11,2.34.11H56.4V58.58H53.74a10.922,10.922,0,0,0-1.79.14l-.3-.64c1.05.1,2.14.11,2.34.11h2.42V56.94H53.22a10.494,10.494,0,0,0-1.78.14l-.3-.64c1.02.1,2.08.11,2.34.11h4.13a8.243,8.243,0,0,0,.76-2.26H54.05c.88.3,1.69.78,1.69,1.55a.61.61,0,0,1-.61.64c-.35,0-.4-.1-.76-1.06a3.994,3.994,0,0,0-.62-1.14H52.17a9.117,9.117,0,0,0-1.79.14l-.29-.64c1.03.1,2.11.11,2.33.11h2.86a11.855,11.855,0,0,0-.26-3.3l1.47.45c.14.05.21.1.21.24,0,.18-.17.27-.46.38v2.22h1.12c0-2.03,0-2.5-.32-3.3l1.55.43c.09.03.26.08.26.24,0,.24-.36.37-.5.42v2.21H59a11.786,11.786,0,0,0,.79-2.24,3.416,3.416,0,0,0,.08-.77l1.35.72c.09.05.18.11.18.22,0,.24-.36.29-.53.3-.47.53-1.28,1.44-1.58,1.76h2.39l.65-.72c.12-.13.18-.21.24-.21a.513.513,0,0,1,.3.18l.79.7c.09.08.17.14.17.26,0,.14-.14.18-.23.18Zm-9.88-.74c-.36,0-.47-.26-.76-.98a3.634,3.634,0,0,0-.88-1.26l.06-.11c.61.16,2.13.59,2.13,1.71a.588.588,0,0,1-.55.64Z"/>
            <path id="パス_497" data-name="パス 497" d="M69.77,53.16c-.02.58-.03.94-.03,1.71,0,1.68.09,5.31.12,6,0,.21.05.58.05.78,0,.61-.65.64-.73.64-.41,0-.41-.11-.38-1.17H66.9c0,.11.05,1.42.05,1.46,0,.58-.59.69-.76.69-.38,0-.38-.3-.38-.5,0-.18.05-.96.05-1.12.05-1.22.06-5.71.06-6.08a26.3,26.3,0,0,0-.18-3.95l1.32.67h1.55l.44-.42c.17-.14.2-.21.27-.21a.383.383,0,0,1,.24.14l.61.58a.4.4,0,0,1,.12.26c0,.14-.3.35-.52.51Zm-.96-.48H66.9v3.76h1.91Zm0,4.15H66.9v3.92h1.91Zm9.94-.3H72.06a10.042,10.042,0,0,0-1.79.14l-.29-.64c.94.08,1.87.11,2.33.11h1.28V53.69h-.67a10.591,10.591,0,0,0-1.79.14l-.29-.64c1,.1,2.07.11,2.33.11h.43a7.17,7.17,0,0,0-.26-2.61l1.57.48c.17.05.27.13.27.26s-.05.16-.49.48c-.02.38-.02.48-.03,1.39h1.49l.56-.69c.11-.14.17-.19.24-.19a.376.376,0,0,1,.27.16l.75.69a.3.3,0,0,1,.15.24c0,.14-.14.18-.23.18H74.64v2.45h2.31l.58-.74c.12-.16.17-.21.23-.21.09,0,.14.06.29.19l.81.72a.335.335,0,0,1,.14.24c0,.16-.14.18-.23.18Zm-.03,2.93H76.2c0,.32.05,3.33.05,3.84,0,.61,0,1.6-1.96,1.98-.14-.53-.3-.98-1.4-1.6l.03-.11c.3.03,1.25.11,1.49.11.68,0,.78-.14.79-.46.02-.29.02-3.51,0-3.76H72.25a11,11,0,0,0-1.79.14l-.29-.64c1.03.1,2.11.11,2.33.11h2.71a11.481,11.481,0,0,0-.2-2.21l1.37.35c.2.05.29.08.29.21,0,.11-.05.14-.44.46-.02.3-.02.4-.02,1.18h.71l.62-.75c.12-.14.18-.19.26-.19s.14.03.26.16l.74.75c.11.1.15.14.15.24,0,.14-.12.18-.23.18Zm-5.81,3.22c-.46,0-.55-.45-.62-.88a3.617,3.617,0,0,0-.71-1.78l.06-.1c1.49.62,1.91,1.55,1.91,2.05a.666.666,0,0,1-.64.7Z"/>
            <path id="パス_498" data-name="パス 498" d="M86.39,52.63v1.82c0,.26.06,1.49.06,1.66a.68.68,0,0,1-.74.62c-.41,0-.36-.38-.33-.58h-2.6v4.02c0,.58.06,3.36.06,3.99,0,.42-.15.9-.77.9a.393.393,0,0,1-.44-.42c0-.1.05-.51.05-.61.12-1.81.12-2.8.12-9.81a12.456,12.456,0,0,0-.17-3.2l1.41.7h2.19l.39-.38c.09-.08.15-.16.21-.16a.325.325,0,0,1,.18.1l.79.61a.259.259,0,0,1,.11.21c0,.11-.09.21-.52.53Zm-1-.51H82.78v1.6h2.61Zm0,1.98H82.78v1.68h2.61Zm4.21,4.48c0,.75,0,1.97.05,2.93,0,.14.06.8.06.93a.689.689,0,0,1-.76.74c-.2,0-.4-.05-.32-.8H85.67c.03.38.09,1.04-.71,1.04-.33,0-.35-.27-.35-.45,0-.1.03-.51.05-.69.06-.91.06-2.62.06-2.77a15.281,15.281,0,0,0-.11-2.26l1.11.58h2.89l.26-.35c.08-.11.17-.21.29-.21a.385.385,0,0,1,.24.13l.55.5a.286.286,0,0,1,.14.21c0,.11-.14.26-.47.48Zm-.97-.37H85.67v1.68h2.96Zm0,2.06H85.67v1.71h2.96Zm4.33-7.6c0,1.55.03,8.42.03,9.81s0,1.82-.61,2.27a3.375,3.375,0,0,1-1.15.53c-.12-.56-.26-1.17-1.64-1.73l.03-.11c.26.02,1.64.1,1.79.1s.43,0,.52-.19a15.553,15.553,0,0,0,.06-1.74c0-.86-.02-4.67-.02-5.44H89.1c.02.45-.3.66-.71.66a.335.335,0,0,1-.35-.38c0-.7.05-3.75.05-4.35a9.778,9.778,0,0,0-.08-1.02l1.26.67h2.57l.37-.43c.06-.06.18-.18.27-.18a.359.359,0,0,1,.24.11l.73.66a.308.308,0,0,1,.12.22c0,.13-.12.24-.61.56Zm-.99-.56H89.08v1.6h2.89Zm0,1.98H89.08v1.68h2.89Z"/>
          </g>
        </g>
        <g id="グループ_62" data-name="グループ 62">
          <path id="パス_499" data-name="パス 499" d="M124.44,53.64v.85c-2.55,3.92-3.44,6.15-3.65,9.72-.03.42-.08,1.42-.9,1.42a.851.851,0,0,1-.82-.88c0-1.14,1.12-4.5,4.5-9.84h-2.74c-2.32,0-2.67,1.07-3.03,2.1l-.48-.11.66-3.25h6.45Z"/>
          <path id="パス_500" data-name="パス 500" d="M130.39,54.45c-.02.58-.03.94-.03,1.71,0,1.68.1,5.31.13,6,0,.21.05.58.05.78,0,.61-.69.64-.77.64-.43,0-.43-.11-.4-1.17h-2c0,.11.05,1.42.05,1.46,0,.58-.62.69-.8.69-.4,0-.4-.3-.4-.5,0-.18.05-.96.05-1.12.05-1.22.06-5.71.06-6.08a24.509,24.509,0,0,0-.19-3.95l1.39.67h1.63l.46-.42c.18-.14.21-.21.29-.21a.421.421,0,0,1,.26.14l.64.58a.407.407,0,0,1,.13.26c0,.14-.32.35-.54.51Zm-1.01-.48h-2.02v3.76h2.02Zm0,4.15h-2.02v3.92h2.02Zm10.47-.3h-7.04a11.208,11.208,0,0,0-1.89.14l-.3-.64c.99.08,1.97.11,2.45.11h1.34V54.98h-.7a11.787,11.787,0,0,0-1.89.14l-.3-.64c1.06.1,2.18.11,2.45.11h.45a6.878,6.878,0,0,0-.27-2.61l1.65.48c.18.05.29.13.29.26s-.05.16-.51.48c-.02.38-.02.48-.03,1.39h1.57l.59-.69c.11-.14.18-.19.26-.19a.41.41,0,0,1,.29.16l.78.69a.312.312,0,0,1,.16.24c0,.14-.14.18-.24.18h-3.43v2.45h2.43l.61-.74c.13-.16.18-.21.24-.21.1,0,.14.06.3.19l.85.72c.13.11.14.19.14.24,0,.16-.14.18-.24.18Zm-.03,2.93h-2.66c0,.32.05,3.33.05,3.84,0,.61,0,1.6-2.06,1.98-.14-.53-.32-.98-1.47-1.6l.03-.11c.32.03,1.31.11,1.57.11.72,0,.82-.14.83-.46.02-.29.02-3.51,0-3.76H133a12.276,12.276,0,0,0-1.89.14l-.3-.64c1.09.1,2.22.11,2.45.11h2.85a10.7,10.7,0,0,0-.21-2.21l1.44.35c.21.05.3.08.3.21,0,.11-.05.14-.46.46-.02.3-.02.4-.02,1.18h.75l.66-.75c.13-.14.19-.19.27-.19s.14.03.27.16l.78.75c.11.1.16.14.16.24,0,.14-.13.18-.24.18Zm-6.11,3.22c-.48,0-.58-.45-.66-.88a3.556,3.556,0,0,0-.75-1.78l.06-.1c1.57.62,2.02,1.55,2.02,2.05a.683.683,0,0,1-.67.7Z"/>
          <path id="パス_501" data-name="パス 501" d="M147.24,59.88a2.952,2.952,0,0,1,1.09,2.37,3.473,3.473,0,0,1-3.73,3.38c-1.73,0-3.19-.98-3.19-2.26a.919.919,0,0,1,.91-1.02.78.78,0,0,1,.78.8,1.27,1.27,0,0,1-.1.51,1.222,1.222,0,0,0-.05.37c0,.61.69,1.06,1.44,1.06a2.738,2.738,0,0,0,2.48-2.83,2.818,2.818,0,0,0-2.5-2.93c-.1,0-.54.06-.64.06a.313.313,0,0,1-.35-.34.363.363,0,0,1,.37-.37c.1,0,.58.1.69.1a2.324,2.324,0,0,0,2.19-2.5,2.15,2.15,0,0,0-2.02-2.4,1.2,1.2,0,0,0-1.3,1.07,1.026,1.026,0,0,0,.05.24,1.652,1.652,0,0,1,.05.38.845.845,0,0,1-.82.88.825.825,0,0,1-.8-.88c0-.88,1.02-2.24,3.07-2.24s3.2,1.28,3.2,2.69a2.789,2.789,0,0,1-.59,1.63,3.836,3.836,0,0,1-2.03,1.36,4.227,4.227,0,0,1,1.78.86Z"/>
          <path id="パス_502" data-name="パス 502" d="M152.87,65.63a3.238,3.238,0,0,1-2.62-1.73,9.963,9.963,0,0,1-.98-4.56c0-3.41,1.46-6,3.6-6,1.65,0,3.6,1.78,3.6,6.15,0,3.92-1.65,6.15-3.6,6.15Zm-1.79-9.62a14.706,14.706,0,0,0-.37,3.47c0,3.57.85,5.6,2.16,5.6,1.1,0,1.6-1.47,1.78-2.08a15.105,15.105,0,0,0,.38-3.52c0-3.65-.88-5.6-2.16-5.6-1.14,0-1.63,1.57-1.79,2.13Z"/>
          <path id="パス_503" data-name="パス 503" d="M162.6,54.28a13.862,13.862,0,0,1-4.96,5.44l-.08-.11a20.7,20.7,0,0,0,3.87-5.86,5.877,5.877,0,0,0,.26-1.02l1.38.93c.08.05.21.14.21.26,0,.19-.42.3-.67.37Zm5.81,5.01c-.16,5.76-.48,6.93-3.36,7.19a2.279,2.279,0,0,0-1.2-1.76l.02-.11a10.281,10.281,0,0,0,1.86.27c.77,0,1.07-.18,1.31-1.63a32.56,32.56,0,0,0,.24-4.61h-3.23c-.1,2.51-1.17,6.85-6.21,7.78l-.03-.13a8.078,8.078,0,0,0,5.06-7.65h-.46a10.5,10.5,0,0,0-1.89.16l-.3-.64c.99.08,1.97.1,2.45.1h4.53l.43-.38c.1-.1.19-.18.29-.18.08,0,.16.08.22.14l.64.7a.422.422,0,0,1,.14.26c0,.14-.05.18-.5.5Zm2.91-.02c-1.71-.74-3.62-2.47-4.82-6.08h-1.28a6.519,6.519,0,0,0-1.34.1l-.21-.56c.72.06,1.42.08,1.74.08h.8l.51-.51c.14-.14.21-.18.29-.18.1,0,.16.08.27.18l.59.58a.272.272,0,0,1,.13.24c0,.32-.74.45-1.02.5a7.5,7.5,0,0,0,5.87,4.29l.02.16a2.587,2.587,0,0,0-1.55,1.22Z"/>
          <path id="パス_504" data-name="パス 504" d="M183.05,60.57a6.133,6.133,0,0,1-2.62-.74c-2.32-1.06-2.37-1.09-3.07-1.09a6.6,6.6,0,0,0-3.49,1.28l-.21-.24a6.021,6.021,0,0,1,4.16-1.87,6.337,6.337,0,0,1,2.88.86c1.78.83,2.06.98,2.8.98a6.668,6.668,0,0,0,3.49-1.3l.21.24a6,6,0,0,1-4.15,1.87Z"/>
          <path id="パス_505" data-name="パス 505" d="M189.31,64.81h.88c.83,0,1.12-.32,1.12-.98V55.17c0-.5-.46-.58-.77-.58h-1.22v-.5h.29a6.215,6.215,0,0,0,2.61-.67c.11-.06.16-.1.22-.1.14,0,.18.1.18.22V63.82c0,.69.34.98,1.12.98h.88v.51h-5.31V64.8Z"/>
          <path id="パス_506" data-name="パス 506" d="M203.59,62.1a3.566,3.566,0,0,1-3.78,3.52c-1.83,0-3.46-1.06-3.46-2.88,0-1.73,1.38-2.55,2.85-3.41-.85-.5-2.39-1.39-2.39-3.14a2.936,2.936,0,0,1,3.2-2.87,2.689,2.689,0,0,1,2.93,2.53c0,1.36-1.31,2.35-2,2.87,1.5.93,2.64,1.73,2.64,3.38Zm-5.89.59a2.3,2.3,0,0,0,2.31,2.38,2.49,2.49,0,0,0,2.43-2.42c0-1.52-1.59-2.42-2.75-3.07a4.052,4.052,0,0,0-1.98,3.11Zm4.08-6.66a2.018,2.018,0,0,0-1.98-2.16,1.83,1.83,0,0,0-1.89,1.9c0,1.12.91,1.68,2.58,2.67a3.062,3.062,0,0,0,1.3-2.42Z"/>
          <path id="パス_507" data-name="パス 507" d="M209.49,54.45c-.02.58-.03.94-.03,1.71,0,1.68.1,5.31.13,6,0,.21.05.58.05.78,0,.61-.69.64-.77.64-.43,0-.43-.11-.4-1.17h-2c0,.11.05,1.42.05,1.46,0,.58-.62.69-.8.69-.4,0-.4-.3-.4-.5,0-.18.05-.96.05-1.12.05-1.22.06-5.71.06-6.08a24.509,24.509,0,0,0-.19-3.95l1.39.67h1.63l.46-.42c.18-.14.21-.21.29-.21a.421.421,0,0,1,.26.14l.64.58a.407.407,0,0,1,.13.26c0,.14-.32.35-.54.51Zm-1.01-.48h-2.02v3.76h2.02Zm0,4.15h-2.02v3.92h2.02Zm10.47-.3h-7.04a11.208,11.208,0,0,0-1.89.14l-.3-.64c.99.08,1.97.11,2.45.11h1.34V54.98h-.7a11.787,11.787,0,0,0-1.89.14l-.3-.64c1.06.1,2.18.11,2.45.11h.45a6.878,6.878,0,0,0-.27-2.61l1.65.48c.18.05.29.13.29.26s-.05.16-.51.48c-.02.38-.02.48-.03,1.39h1.57l.59-.69c.11-.14.18-.19.26-.19a.41.41,0,0,1,.29.16l.78.69a.312.312,0,0,1,.16.24c0,.14-.14.18-.24.18h-3.43v2.45h2.43l.61-.74c.13-.16.18-.21.24-.21.1,0,.14.06.3.19l.85.72c.13.11.14.19.14.24,0,.16-.14.18-.24.18Zm-.03,2.93h-2.66c0,.32.05,3.33.05,3.84,0,.61,0,1.6-2.06,1.98-.14-.53-.32-.98-1.47-1.6l.03-.11c.32.03,1.31.11,1.57.11.72,0,.82-.14.83-.46.02-.29.02-3.51,0-3.76h-3.1a12.276,12.276,0,0,0-1.89.14l-.3-.64c1.09.1,2.22.11,2.45.11h2.85a10.7,10.7,0,0,0-.21-2.21l1.44.35c.21.05.3.08.3.21,0,.11-.05.14-.46.46-.02.3-.02.4-.02,1.18h.75l.66-.75c.13-.14.19-.19.27-.19s.14.03.27.16l.78.75c.11.1.16.14.16.24,0,.14-.13.18-.24.18Zm-6.11,3.22c-.48,0-.58-.45-.66-.88a3.556,3.556,0,0,0-.75-1.78l.06-.1c1.57.62,2.02,1.55,2.02,2.05a.683.683,0,0,1-.67.7Z"/>
          <path id="パス_508" data-name="パス 508" d="M226.34,59.88a2.952,2.952,0,0,1,1.09,2.37,3.473,3.473,0,0,1-3.73,3.38c-1.73,0-3.19-.98-3.19-2.26a.919.919,0,0,1,.91-1.02.78.78,0,0,1,.78.8,1.27,1.27,0,0,1-.1.51,1.222,1.222,0,0,0-.05.37c0,.61.69,1.06,1.44,1.06a2.738,2.738,0,0,0,2.48-2.83,2.818,2.818,0,0,0-2.5-2.93c-.1,0-.54.06-.64.06a.313.313,0,0,1-.35-.34.363.363,0,0,1,.37-.37c.1,0,.58.1.69.1a2.324,2.324,0,0,0,2.19-2.5,2.15,2.15,0,0,0-2.02-2.4,1.2,1.2,0,0,0-1.3,1.07,1.026,1.026,0,0,0,.05.24,1.652,1.652,0,0,1,.05.38.845.845,0,0,1-.82.88.825.825,0,0,1-.8-.88c0-.88,1.02-2.24,3.07-2.24s3.2,1.28,3.2,2.69a2.789,2.789,0,0,1-.59,1.63,3.836,3.836,0,0,1-2.03,1.36,4.227,4.227,0,0,1,1.78.86Z"/>
          <path id="パス_509" data-name="パス 509" d="M231.97,65.63a3.238,3.238,0,0,1-2.62-1.73,9.963,9.963,0,0,1-.98-4.56c0-3.41,1.46-6,3.6-6,1.65,0,3.6,1.78,3.6,6.15,0,3.92-1.65,6.15-3.6,6.15Zm-1.79-9.62a14.706,14.706,0,0,0-.37,3.47c0,3.57.85,5.6,2.16,5.6,1.1,0,1.6-1.47,1.78-2.08a15.105,15.105,0,0,0,.38-3.52c0-3.65-.88-5.6-2.16-5.6-1.14,0-1.63,1.57-1.79,2.13Z"/>
          <path id="パス_510" data-name="パス 510" d="M241.7,54.28a13.862,13.862,0,0,1-4.96,5.44l-.08-.11a20.7,20.7,0,0,0,3.87-5.86,5.877,5.877,0,0,0,.26-1.02l1.38.93c.08.05.21.14.21.26,0,.19-.42.3-.67.37Zm5.81,5.01c-.16,5.76-.48,6.93-3.36,7.19a2.279,2.279,0,0,0-1.2-1.76l.02-.11a10.281,10.281,0,0,0,1.86.27c.77,0,1.07-.18,1.31-1.63a32.56,32.56,0,0,0,.24-4.61h-3.23c-.1,2.51-1.17,6.85-6.21,7.78l-.03-.13a8.078,8.078,0,0,0,5.06-7.65h-.46a10.5,10.5,0,0,0-1.89.16l-.3-.64c.99.08,1.97.1,2.45.1h4.53l.43-.38c.1-.1.19-.18.29-.18.08,0,.16.08.22.14l.64.7a.422.422,0,0,1,.14.26c0,.14-.05.18-.5.5Zm2.91-.02c-1.71-.74-3.62-2.47-4.82-6.08h-1.28a6.519,6.519,0,0,0-1.34.1l-.21-.56c.72.06,1.42.08,1.74.08h.8l.51-.51c.14-.14.21-.18.29-.18.1,0,.16.08.27.18l.59.58a.272.272,0,0,1,.13.24c0,.32-.74.45-1.02.5a7.5,7.5,0,0,0,5.87,4.29l.02.16a2.587,2.587,0,0,0-1.55,1.22Z"/>
          <path id="パス_511" data-name="パス 511" d="M253.06,66.47l-.32-.32L266.89,52l.32.32Z"/>
          <path id="パス_512" data-name="パス 512" d="M278.1,54.57c-.03.9-.03,1.42-.03,2.34,0,2.82.08,6.69.14,7.65,0,.1.03.51.03.61,0,.59-.62.77-.91.77-.32,0-.42-.18-.42-.48,0-.02,0-.24.03-.64h-5.92c.02.46.03,1.17-.88,1.17a.376.376,0,0,1-.43-.43c0-.11.05-.93.08-1.39.06-1.23.11-5.73.11-6.85,0-3.41-.08-3.79-.26-4.5l1.62.83h5.46l.5-.48c.13-.13.21-.19.32-.19s.19.08.3.18l.69.62a.514.514,0,0,1,.19.3c0,.19-.21.3-.62.5Zm-1.14-.54h-5.95v4.85h5.95Zm0,5.23h-5.95v5.17h5.95V59.26Z"/>
          <path id="パス_513" data-name="パス 513" d="M284.07,53.41l.32-.34a.338.338,0,0,1,.24-.13.531.531,0,0,1,.3.18l.56.56a.381.381,0,0,1,.11.24c0,.1-.11.22-.42.48-.03,1.14-.03,2.29-.02,4,.02.7.06,3.78.06,4.42,0,.38-.03.56-.21.7a1.053,1.053,0,0,1-.56.22c-.38,0-.37-.27-.32-.91h-1.6a3.253,3.253,0,0,1-.02.93.779.779,0,0,1-.72.5.4.4,0,0,1-.43-.46c0-.13.05-.69.05-.8.03-1.74.05-3.19.05-6.63a20.6,20.6,0,0,0-.13-3.54l1.23.58h1.49Zm-1.52.38v4.03h1.6V53.79Zm0,4.42v4.24h1.6V58.21Zm8.76,3.52v1.49h1.57l.3-.5c.06-.11.14-.24.26-.24.08,0,.13.03.29.18l.64.53c.06.05.16.13.16.24,0,.16-.16.18-.24.18h-2.98v1.57h2.29l.37-.64c.1-.18.19-.24.27-.24a.559.559,0,0,1,.29.18l.77.67a.369.369,0,0,1,.16.26c0,.16-.16.16-.24.16h-6.95c0,.45.02.5-.05.59a.868.868,0,0,1-.74.4c-.37,0-.37-.26-.37-.35,0-.21.05-1.23.06-1.47.02-.54.06-2.56.05-4.08a7.834,7.834,0,0,1-1.92,1.81l-.05-.08a13.994,13.994,0,0,0,2.42-4.75l1.09.53a.245.245,0,0,1,.16.21c0,.18-.1.21-.43.34-.19.35-.29.5-.45.77l.37.16h1.87a8.952,8.952,0,0,0,.58-2.03l1.18.56a.26.26,0,0,1,.18.21c0,.13-.05.14-.53.3a12.387,12.387,0,0,1-1.1.96h2.59l.42-.56c.11-.14.18-.21.26-.21s.14.03.3.16l.72.58c.06.05.16.14.16.24,0,.18-.16.18-.24.18h-3.49v1.34h1.54l.3-.53c.05-.08.13-.22.26-.22a.648.648,0,0,1,.3.18l.69.54c.06.05.16.14.16.24,0,.16-.16.18-.24.18h-3.01Zm-3.04-4.5a12.276,12.276,0,0,0-1.89.14l-.32-.64c1.09.1,2.23.11,2.46.11h.35V55.1h-.62a9.87,9.87,0,0,0-1.87.14l-.32-.64c.99.08,1.97.11,2.45.11h.37v-1.7h-.94a10.279,10.279,0,0,0-1.89.14l-.32-.64c1.1.1,2.24.11,2.46.11h.59l.37-.35a.377.377,0,0,1,.21-.11c.08,0,.14.06.24.16l.61.54a.325.325,0,0,1,.13.22c0,.13-.19.29-.43.48v.99c0,.43.08,2.29.08,2.67a.478.478,0,0,1-.19.46.9.9,0,0,1-.56.21c-.4,0-.38-.3-.37-.69h-.59Zm0,2.77v1.34h2.05V60Zm0,1.73v1.49h2.05V61.73Zm0,1.87v1.57h2.05V63.6Zm4.71-6.39a11.721,11.721,0,0,0-1.89.14l-.32-.64c1.04.1,2.16.11,2.56.11V55.06a12.264,12.264,0,0,0-2.1.14l-.32-.62c.86.06,1.25.08,2.42.1V52.97h-.5a11.887,11.887,0,0,0-1.87.14l-.32-.64a26.255,26.255,0,0,0,2.66.11l.34-.35c.06-.06.14-.14.21-.14s.11.02.29.18l.58.5c.06.06.14.13.14.22,0,.11-.11.19-.48.45-.02.35-.02.83.02,1.9,0,.3.08,1.67.08,1.95,0,.53-.56.64-.74.64-.42,0-.42-.32-.4-.72h-.35Z"/>
          <path id="パス_514" data-name="パス 514" d="M300.13,60.52a1.28,1.28,0,0,1,0-2.56,1.28,1.28,0,0,1,0,2.56Z"/>
          <path id="パス_515" data-name="パス 515" d="M310.56,60.58c-.45,0-.59-.42-.77-.91a4.169,4.169,0,0,0-.96-1.33c0,.7,0,1.01.02,3.78,0,.5.06,2.95.06,3.49a.774.774,0,0,1-.83.77c-.42,0-.42-.26-.42-.48s.1-1.38.11-1.63c.05-1.02.06-1.42.1-5.06a9.321,9.321,0,0,1-3.33,2.45l-.05-.08a24.958,24.958,0,0,0,4.71-6h-2.07a11.653,11.653,0,0,0-1.87.14l-.32-.64c.82.06,1.63.11,2.46.11h.4a8.221,8.221,0,0,0-.35-3.33l1.54.5c.18.06.32.11.32.24,0,.18-.11.24-.5.48,0,.3.02,1.78.02,2.11h.58l.37-.4a.3.3,0,0,1,.24-.14.431.431,0,0,1,.26.13l.66.58a.4.4,0,0,1,.13.26c0,.18-.53.38-.8.5-.37.51-.94,1.34-1.42,1.94v.16c.88.29,2.34.75,2.34,1.75a.624.624,0,0,1-.61.64Zm3.55-.67c-1.06,4.27-3.03,5.51-4.64,6.11l-.08-.1a8.994,8.994,0,0,0,3.52-6.45,3.758,3.758,0,0,0-.06-.72l1.41.54c.1.03.27.13.27.29,0,.21-.27.29-.42.32Zm3.36,5.95a5.967,5.967,0,0,1-2.05-.19c-.62-.21-.62-.48-.62-1.81,0-.86.06-4.72.05-5.51h-2.16c.02.43-.16.82-.7.82-.21,0-.4-.08-.4-.42v-.27c0-.38.05-1.97.05-2.53a14.179,14.179,0,0,0-.24-3.92l1.34.74h4.1l.35-.34c.06-.06.16-.16.26-.16.08,0,.14.06.22.13l.66.54c.1.08.18.14.18.22,0,.19-.16.29-.54.5.02.59.02,3.15.03,3.67.02.18.06.88.06,1.04a.67.67,0,0,1-.72.64c-.46,0-.46-.27-.45-.66h-.98c0,.7-.02,3.81-.02,4.45.02,1.59.02,1.76.21,1.87a3.262,3.262,0,0,0,1.06.11c.98,0,1.31,0,1.73-2.8h.1c.05.34.21,1.81.3,2.1.05.13.11.18.35.37a.464.464,0,0,1,.16.37c0,1.04-1.9,1.04-2.32,1.04Zm-.59-12.71h-4.19v4.82h4.19Z"/>
          <path id="パス_516" data-name="パス 516" d="M330.26,54.57c-.03.9-.03,1.42-.03,2.34,0,2.82.08,6.69.14,7.65,0,.1.03.51.03.61,0,.59-.62.77-.91.77-.32,0-.42-.18-.42-.48,0-.02,0-.24.03-.64h-5.92c.02.46.03,1.17-.88,1.17a.376.376,0,0,1-.43-.43c0-.11.05-.93.08-1.39.06-1.23.11-5.73.11-6.85,0-3.41-.08-3.79-.26-4.5l1.62.83h5.46l.5-.48c.13-.13.21-.19.32-.19s.19.08.3.18l.69.62a.514.514,0,0,1,.19.3c0,.19-.21.3-.62.5Zm-1.14-.54h-5.95v4.85h5.95Zm0,5.23h-5.95v5.17h5.95V59.26Z"/>
          <path id="パス_517" data-name="パス 517" d="M348.09,64.67a2.542,2.542,0,0,0-1.23,1.74,24.73,24.73,0,0,1-6.05-.46,5.461,5.461,0,0,1-3.7-3.39,7.144,7.144,0,0,1-3.91,4.08l-.08-.06c2.27-1.66,3.49-5.35,3.49-6.95a2.116,2.116,0,0,0-.02-.35l1.58.64a.26.26,0,0,1,.18.22c0,.18-.05.21-.58.43a8.986,8.986,0,0,1-.51,1.6,5.035,5.035,0,0,0,2.48,2.53V58.2h-3.25a11.957,11.957,0,0,0-1.89.14l-.32-.62c1.31.1,2.27.1,2.46.1h7.27l.64-.85c.1-.11.16-.19.24-.19s.19.1.32.19l1.07.83a.271.271,0,0,1,.16.24c0,.16-.14.16-.24.16h-5.31v2.95h2.39l.64-.78c.11-.14.16-.21.24-.21.1,0,.21.1.3.18l.96.78a.329.329,0,0,1,.16.24c0,.18-.14.18-.24.18h-4.45v3.51a8.712,8.712,0,0,0,1.7.13,39.588,39.588,0,0,0,5.51-.54l-.02.05Zm-1.58-9.28h-.45c-.3.14-1.63.83-1.9.96l-.06-.05c.08-.13.67-1.42.75-1.65h-8.92c-.05,1.52-.96,2.34-1.74,2.34a.582.582,0,0,1-.59-.62c0-.38.24-.58.54-.8a3.343,3.343,0,0,0,1.57-2.18h.1a4.922,4.922,0,0,1,.11.88h3.81a5.2,5.2,0,0,0-.34-2.53l1.81.43c.13.03.26.13.26.22,0,.14-.06.18-.54.5v1.38h3.79l.66-.53a.275.275,0,0,1,.44,0l1.18,1.14a.381.381,0,0,1,.14.24c0,.27-.43.27-.62.27Z"/>
          <path id="パス_518" data-name="パス 518" d="M352.79,55.93c.11.06.22.16.22.27a.271.271,0,0,1-.14.22c-.1.06-.21.16-.34.26-.05,1.47-.06,2.56-.06,3.17,0,.93.1,5.6.1,5.83a.681.681,0,0,1-.26.66.968.968,0,0,1-.59.21c-.34,0-.43-.13-.43-.56,0-.77.19-5.55.21-6.51,0-.34.02-1.54.03-2.32a16.369,16.369,0,0,1-2.72,3.44l-.08-.08c1.17-1.71,3.67-6.63,3.65-8.84l1.57.83a.3.3,0,0,1,.13.22c0,.1-.11.18-.18.22s-.3.14-.45.22a26.826,26.826,0,0,1-1.1,2.48l.45.27Zm2.58.38a11.333,11.333,0,0,0-1.89.14l-.3-.62c1.07.08,2.26.1,2.45.1h1.73c-.02-.66-.13-3.06-.16-3.22a4.568,4.568,0,0,0-.22-.8l1.78.48c.13.03.24.13.24.22a.36.36,0,0,1-.18.29c-.14.1-.26.18-.37.26,0,.27-.03,1.86-.05,2.77h2.71l.72-.85c.13-.14.18-.19.24-.19s.13.03.3.16l1.07.85a.331.331,0,0,1,.16.26c0,.14-.13.16-.24.16h-4.8a10.3,10.3,0,0,0,5.65,6.71l-.03.11a2.366,2.366,0,0,0-1.73.91,14.3,14.3,0,0,1-4.07-7.35c-.02.96-.02,1.52-.02,2.5,0,.69,0,1.33.03,2.18.14,3.84.16,4.18.16,4.32a.787.787,0,0,1-.88.85c-.38,0-.5-.22-.5-.54,0-.21.06-1.12.06-1.3.05-1.62.06-2.72.1-6.05a13.321,13.321,0,0,1-4.53,5.54l-.03-.11a25.5,25.5,0,0,0,4.37-7.76h-1.78Z"/>
        </g>
      </g>
    </g>
  </g>
</svg>
