<svg id="area03-05-txt" xmlns="http://www.w3.org/2000/svg" width="601.29" height="96" viewBox="0 0 601.29 96">
  <g id="グループ_91" data-name="グループ 91">
    <rect id="長方形_24" data-name="長方形 24" width="7" height="96" fill="#1c2c5a"/>
    <g id="グループ_89" data-name="グループ 89">
      <g id="グループ_87" data-name="グループ 87">
        <rect id="長方形_25" data-name="長方形 25" width="84.39" height="23.44" rx="5" transform="translate(15.13 67.66)" fill="none" stroke="#000" stroke-miterlimit="10" stroke-width="1"/>
        <g id="グループ_86" data-name="グループ 86">
          <path id="パス_548" data-name="パス 548" d="M40.5,76.66h-.29c-.14.1-.21.16-.84.69-.08.06-.67.48-.79.58l-.06-.06a11.653,11.653,0,0,0,.59-1.94H29.63c-.02,1.41-.64,2.74-1.44,2.74a.63.63,0,0,1-.62-.67c0-.4.26-.67.79-1.22a4.089,4.089,0,0,0,1.02-2.1h.08a3.7,3.7,0,0,1,.18.86h6.41a7.822,7.822,0,0,0,1.12-3.63l1.47.82c.15.08.23.16.23.26,0,.14-.15.19-.7.29-.87,1.15-.97,1.28-1.81,2.27h2.61l.46-.37c.14-.11.24-.19.33-.19s.17.08.33.21l.9.75a.447.447,0,0,1,.18.34c0,.32-.36.38-.68.38Zm-1.95,6.42c.02.21.02.35.03,1.63,0,.14.06.91.06,1.09a.667.667,0,0,1-.7.7c-.46,0-.43-.38-.4-.67H31.26c0,.24.02.77-.65.77-.38,0-.46-.21-.44-.53.03-.64.09-1.97.09-2.59a11.375,11.375,0,0,0-.14-1.84l1.29.74h1.91a6.835,6.835,0,0,0,.43-1.89H32.12c0,.26.02.74-.61.74-.46,0-.46-.35-.46-.5,0-.4.09-2.16.09-2.53a5.091,5.091,0,0,0-.12-1.3l1.31.62h3.98l.38-.43c.11-.11.17-.16.23-.16a.558.558,0,0,1,.26.13l.56.45c.11.1.17.16.17.24,0,.13-.09.21-.46.5-.02.32.08,1.78.08,2.08a.607.607,0,0,1-.65.66c-.26,0-.44-.14-.43-.5H35.07a14.768,14.768,0,0,1-1.31,1.89h3.65l.33-.45c.08-.11.15-.18.23-.18a.5.5,0,0,1,.27.14l.58.45a.436.436,0,0,1,.17.26c0,.11-.09.22-.46.48Zm-6.82-7.99c-.41,0-.52-.35-.62-.75a5.083,5.083,0,0,0-.85-1.89l.06-.08c.79.42,2.01,1.06,2.01,2.06a.61.61,0,0,1-.59.66Zm5.84,7.67H31.28v2.69h6.29Zm-1.08-4.85H32.13V80.1h4.36Zm-1.9-3.03c-.53,0-.64-.51-.75-1.06a4.4,4.4,0,0,0-.71-1.71l.06-.08c1.26.59,1.98,1.41,1.98,2.14,0,.11-.03.7-.58.7Z"/>
          <path id="パス_549" data-name="パス 549" d="M56.32,75.54H51.58l.79.5c.06.05.15.14.15.22,0,.19-.29.22-.56.24-.43.48-1.05,1.04-1.34,1.3h2.6l.59-.7c.08-.1.17-.19.24-.19a.588.588,0,0,1,.27.16l.7.71c.08.08.14.14.14.24,0,.16-.12.18-.23.18H50.08c0,.19.02,1.07.02,1.25h2.14l.53-.58c.09-.1.18-.19.26-.19s.15.08.29.18l.74.54a.341.341,0,0,1,.17.26c0,.14-.12.18-.23.18H50.09v1.39H54l.68-.82c.11-.13.15-.19.24-.19.11,0,.2.1.27.16l.84.82c.08.08.15.14.15.26,0,.14-.14.16-.24.16H50.39a8.988,8.988,0,0,0,5.93,3.09l.02.1a2.6,2.6,0,0,0-1.4,1.3,9.771,9.771,0,0,1-4.8-4.48h-.05c.02,1.46.03,1.75.03,2.05.02.37.09,1.95.09,2.29a.71.71,0,0,1-.77.66c-.41,0-.44-.26-.44-.5,0-.35.05-.94.06-1.31.02-.53.02-.77.05-2.99a11.272,11.272,0,0,1-6.03,4.32l-.03-.1a14.062,14.062,0,0,0,4.86-4.42H45.22a10.528,10.528,0,0,0-1.79.14l-.3-.64c1.02.1,2.05.11,2.34.11h3.65V79.85H46.46a10.846,10.846,0,0,0-1.79.14l-.3-.64c1.05.1,2.14.11,2.34.11h2.42V78.21H45.94a10.494,10.494,0,0,0-1.78.14l-.3-.64c1.02.1,2.08.11,2.34.11h4.13a8.243,8.243,0,0,0,.76-2.26H46.77c.88.3,1.69.79,1.69,1.55a.61.61,0,0,1-.61.64c-.35,0-.4-.1-.76-1.06a3.994,3.994,0,0,0-.62-1.14H44.89a9.117,9.117,0,0,0-1.79.14l-.29-.64c1.03.1,2.11.11,2.33.11H48a11.855,11.855,0,0,0-.26-3.3l1.47.45c.14.05.21.1.21.24,0,.18-.17.27-.46.38v2.22h1.12c0-2.03,0-2.5-.32-3.3l1.55.43c.09.03.26.08.26.24,0,.24-.36.37-.5.42v2.21h.65a11.786,11.786,0,0,0,.79-2.24,3.416,3.416,0,0,0,.08-.77l1.35.72c.09.05.18.11.18.22,0,.24-.36.29-.53.3-.47.53-1.28,1.44-1.58,1.76H54.4l.65-.72c.12-.13.18-.21.24-.21a.513.513,0,0,1,.3.18l.79.7c.09.08.17.14.17.26,0,.14-.14.18-.23.18Zm-9.88-.74c-.36,0-.47-.26-.76-.98a3.634,3.634,0,0,0-.88-1.26l.06-.11c.61.16,2.13.59,2.13,1.71a.588.588,0,0,1-.55.64Z"/>
          <path id="パス_550" data-name="パス 550" d="M62.5,74.42c-.02.58-.03.94-.03,1.71,0,1.68.09,5.31.12,6,0,.21.05.58.05.78,0,.61-.65.64-.73.64-.41,0-.41-.11-.38-1.17h-1.9c0,.11.05,1.42.05,1.46,0,.58-.59.69-.76.69-.38,0-.38-.3-.38-.5,0-.18.05-.96.05-1.12.05-1.22.06-5.71.06-6.08a26.3,26.3,0,0,0-.18-3.95l1.32.67h1.55l.44-.42c.17-.14.2-.21.27-.21a.383.383,0,0,1,.24.14l.61.58a.4.4,0,0,1,.12.26c0,.14-.3.35-.52.51Zm-.96-.48H59.62V77.7h1.92Zm0,4.15H59.62v3.92h1.92Zm9.94-.3H64.79a10.042,10.042,0,0,0-1.79.14l-.29-.64c.94.08,1.87.11,2.33.11h1.28V74.95h-.67a10.591,10.591,0,0,0-1.79.14l-.29-.64c1,.1,2.07.11,2.33.11h.43a7.17,7.17,0,0,0-.26-2.61l1.57.48c.17.05.27.13.27.26s-.05.16-.49.48c-.02.38-.02.48-.03,1.39h1.49l.56-.69c.11-.14.17-.19.24-.19a.376.376,0,0,1,.27.16l.75.69a.3.3,0,0,1,.15.24c0,.14-.14.18-.23.18H67.37V77.4h2.31l.58-.74c.12-.16.17-.21.23-.21.09,0,.14.06.29.19l.81.72a.335.335,0,0,1,.14.24c0,.16-.14.18-.23.18Zm-.03,2.93H68.93c0,.32.05,3.33.05,3.84,0,.61,0,1.6-1.96,1.99-.14-.53-.3-.98-1.4-1.6l.03-.11c.3.03,1.25.11,1.49.11.68,0,.78-.14.79-.46.02-.29.02-3.5,0-3.76H64.98a11,11,0,0,0-1.79.14l-.29-.64c1.03.1,2.11.11,2.33.11h2.71a11.481,11.481,0,0,0-.2-2.21l1.37.35c.2.05.29.08.29.21,0,.11-.05.14-.44.46-.02.3-.02.4-.02,1.18h.71l.62-.75c.12-.14.18-.19.26-.19s.14.03.26.16l.74.75c.11.1.15.14.15.24,0,.14-.12.18-.23.18Zm-5.81,3.22c-.46,0-.55-.45-.62-.88a3.617,3.617,0,0,0-.71-1.78l.06-.1c1.49.62,1.91,1.55,1.91,2.05a.666.666,0,0,1-.64.7Z"/>
          <path id="パス_551" data-name="パス 551" d="M79.11,73.89v1.83c0,.26.06,1.49.06,1.66a.68.68,0,0,1-.74.62c-.41,0-.36-.38-.33-.58H75.5v4.02c0,.58.06,3.36.06,3.99,0,.42-.15.9-.77.9a.393.393,0,0,1-.44-.42c0-.1.05-.51.05-.61.12-1.81.12-2.8.12-9.81a12.456,12.456,0,0,0-.17-3.2l1.41.7h2.19l.4-.38c.09-.08.15-.16.21-.16a.325.325,0,0,1,.18.1l.79.61a.259.259,0,0,1,.11.21c0,.11-.09.21-.52.53Zm-1-.51H75.5v1.6h2.61Zm0,1.98H75.5v1.68h2.61Zm4.21,4.48c0,.75,0,1.97.05,2.93,0,.14.06.8.06.93a.689.689,0,0,1-.76.74c-.2,0-.4-.05-.32-.8H78.39c.03.38.09,1.04-.71,1.04-.33,0-.35-.27-.35-.45,0-.1.03-.51.05-.69.06-.91.06-2.62.06-2.77a15.281,15.281,0,0,0-.11-2.26l1.11.58h2.89l.26-.35c.08-.11.17-.21.29-.21a.385.385,0,0,1,.24.13l.55.5a.286.286,0,0,1,.14.21c0,.11-.14.26-.47.48Zm-.97-.37H78.39v1.68h2.96Zm0,2.07H78.39v1.71h2.96Zm4.33-7.6c0,1.55.03,8.42.03,9.81s0,1.82-.61,2.27a3.375,3.375,0,0,1-1.15.53c-.12-.56-.26-1.17-1.64-1.73l.03-.11c.26.02,1.64.1,1.79.1s.43,0,.52-.19a15.648,15.648,0,0,0,.06-1.75c0-.86-.02-4.67-.02-5.44H81.82c.02.45-.3.66-.71.66a.335.335,0,0,1-.35-.38c0-.7.05-3.75.05-4.35a9.778,9.778,0,0,0-.08-1.02l1.26.67h2.57l.37-.43c.06-.06.18-.18.27-.18a.359.359,0,0,1,.24.11l.73.66a.308.308,0,0,1,.12.22c0,.13-.12.24-.61.56Zm-.99-.56H81.8v1.6h2.89Zm0,1.98H81.8v1.68h2.89Z"/>
        </g>
      </g>
      <g id="グループ_88" data-name="グループ 88">
        <path id="パス_552" data-name="パス 552" d="M115.72,74.41c-.05,1.34.02,5.41.05,7,0,.46.08,2.5.08,2.9,0,1.39,0,2.27-2.26,2.64-.1-.62-.35-1.01-1.49-1.6l.02-.11a11.189,11.189,0,0,0,1.66.11c.78,0,.8,0,.8-1.86,0-1.23,0-2.11.02-2.77h-5.33a7.669,7.669,0,0,1-4.05,6.45l-.08-.1c2.85-2.5,3.07-5.39,3.07-9.72a25.013,25.013,0,0,0-.3-4.75l1.63.79h4.83l.51-.48a.5.5,0,0,1,.29-.16.4.4,0,0,1,.27.13l.75.62a.427.427,0,0,1,.18.29c0,.16-.11.27-.66.62Zm-1.12,2.85h-5.22s-.03,2.37-.1,3.07h5.31V77.26Zm0-3.49h-5.22v3.11h5.22Z"/>
        <path id="パス_553" data-name="パス 553" d="M121.51,73.96l.32-.34a.338.338,0,0,1,.24-.13.531.531,0,0,1,.3.18l.56.56a.381.381,0,0,1,.11.24c0,.1-.11.22-.42.48-.03,1.14-.03,2.29-.02,4,.02.7.06,3.78.06,4.42,0,.38-.03.56-.21.7a1.053,1.053,0,0,1-.56.22c-.38,0-.37-.27-.32-.91h-1.6a3.251,3.251,0,0,1-.02.93.779.779,0,0,1-.72.5.4.4,0,0,1-.43-.46c0-.13.05-.69.05-.8.03-1.75.05-3.19.05-6.63a20.606,20.606,0,0,0-.13-3.54l1.23.58h1.49Zm-1.52.38v4.03h1.6V74.34Zm0,4.42V83h1.6V78.76Zm8.76,3.52v1.49h1.57l.3-.5c.06-.11.14-.24.26-.24.08,0,.13.03.29.18l.64.53c.06.05.16.13.16.24,0,.16-.16.18-.24.18h-2.98v1.57h2.29l.37-.64c.1-.18.19-.24.27-.24a.559.559,0,0,1,.29.18l.77.67a.369.369,0,0,1,.16.26c0,.16-.16.16-.24.16h-6.95c0,.45.02.5-.05.59a.868.868,0,0,1-.74.4c-.37,0-.37-.26-.37-.35,0-.21.05-1.23.06-1.47.02-.54.06-2.56.05-4.08a7.834,7.834,0,0,1-1.92,1.81l-.05-.08a13.994,13.994,0,0,0,2.42-4.75l1.09.53a.245.245,0,0,1,.16.21c0,.18-.1.21-.43.34-.19.35-.29.5-.45.77l.37.16h1.87a8.952,8.952,0,0,0,.58-2.03l1.18.56a.26.26,0,0,1,.18.21c0,.13-.05.14-.53.3a12.39,12.39,0,0,1-1.1.96h2.59l.42-.56c.11-.14.18-.21.26-.21s.14.03.3.16l.72.58c.06.05.16.14.16.24,0,.18-.16.18-.24.18h-3.49v1.34h1.54l.3-.53c.05-.08.13-.22.26-.22a.648.648,0,0,1,.3.18l.69.54c.06.05.16.14.16.24,0,.16-.16.18-.24.18h-3.01Zm-3.04-4.5a12.275,12.275,0,0,0-1.89.14l-.32-.64c1.09.1,2.23.11,2.46.11h.35V75.64h-.62a9.87,9.87,0,0,0-1.87.14l-.32-.64c.99.08,1.97.11,2.45.11h.37v-1.7h-.94a10.279,10.279,0,0,0-1.89.14l-.32-.64c1.1.1,2.24.11,2.46.11h.59l.37-.35a.377.377,0,0,1,.21-.11c.08,0,.14.06.24.16l.61.54a.325.325,0,0,1,.13.22c0,.13-.19.29-.43.48v.99c0,.43.08,2.29.08,2.67a.478.478,0,0,1-.19.46.9.9,0,0,1-.56.21c-.4,0-.38-.3-.37-.69h-.59Zm0,2.77v1.34h2.05V80.55Zm0,1.73v1.49h2.05V82.28Zm0,1.87v1.57h2.05V84.15Zm4.71-6.39a11.72,11.72,0,0,0-1.89.14l-.32-.64c1.04.1,2.16.11,2.56.11V75.61a12.264,12.264,0,0,0-2.1.14l-.32-.62c.86.06,1.25.08,2.42.1V73.52h-.5a11.886,11.886,0,0,0-1.87.14l-.32-.64a26.255,26.255,0,0,0,2.66.11l.34-.35c.06-.06.14-.14.21-.14s.11.02.29.18l.58.5c.06.06.14.13.14.22,0,.11-.11.19-.48.45-.02.35-.02.83.02,1.9,0,.3.08,1.67.08,1.95,0,.53-.56.64-.74.64-.42,0-.42-.32-.4-.72h-.35Z"/>
        <path id="パス_554" data-name="パス 554" d="M137.22,81.07a1.28,1.28,0,1,1,0-2.56,1.28,1.28,0,0,1,0,2.56Z"/>
        <path id="パス_555" data-name="パス 555" d="M154.85,86.56c-4.98-2.37-5.51-6.88-5.95-10.77-.19,3.01-.38,5.95-2.82,8.45a8.768,8.768,0,0,1-4.56,2.46l-.02-.1a10.565,10.565,0,0,0,4.05-3.25,15.335,15.335,0,0,0,2.34-8.16,11.287,11.287,0,0,0-.3-2.66l1.76.45c.08.02.26.06.26.26s-.24.32-.53.45a19.543,19.543,0,0,0,.93,5.31,8.478,8.478,0,0,0,6.47,6.1v.14a2.646,2.646,0,0,0-1.62,1.31Zm-11.65-6.1a.646.646,0,0,1-.67-.61c0-.3.11-.45.67-1.23a5.421,5.421,0,0,0,1.07-3.01h.14a7.644,7.644,0,0,1,.35,2.18c0,1.38-.62,2.67-1.57,2.67Zm11.3-3.79a13.466,13.466,0,0,1-3.68,3.02l-.08-.11a12.132,12.132,0,0,0,2.8-4.54l1.54,1.14a.271.271,0,0,1,.14.22c0,.22-.08.22-.72.27Z"/>
        <path id="パス_556" data-name="パス 556" d="M160.45,73.96l.32-.34a.338.338,0,0,1,.24-.13.531.531,0,0,1,.3.18l.56.56a.381.381,0,0,1,.11.24c0,.1-.11.22-.42.48-.03,1.14-.03,2.29-.02,4,.02.7.06,3.78.06,4.42,0,.38-.03.56-.21.7a1.053,1.053,0,0,1-.56.22c-.38,0-.37-.27-.32-.91h-1.6a3.25,3.25,0,0,1-.02.93.779.779,0,0,1-.72.5.4.4,0,0,1-.43-.46c0-.13.05-.69.05-.8.03-1.75.05-3.19.05-6.63a20.6,20.6,0,0,0-.13-3.54l1.23.58h1.49Zm-1.52.38v4.03h1.6V74.34Zm0,4.42V83h1.6V78.76Zm8.76,3.52v1.49h1.57l.3-.5c.06-.11.14-.24.26-.24.08,0,.13.03.29.18l.64.53c.06.05.16.13.16.24,0,.16-.16.18-.24.18h-2.98v1.57h2.29l.37-.64c.1-.18.19-.24.27-.24a.559.559,0,0,1,.29.18l.77.67a.369.369,0,0,1,.16.26c0,.16-.16.16-.24.16h-6.95c0,.45.02.5-.05.59a.868.868,0,0,1-.74.4c-.37,0-.37-.26-.37-.35,0-.21.05-1.23.06-1.47.02-.54.06-2.56.05-4.08a7.834,7.834,0,0,1-1.92,1.81l-.05-.08a13.994,13.994,0,0,0,2.42-4.75l1.09.53a.245.245,0,0,1,.16.21c0,.18-.1.21-.43.34-.19.35-.29.5-.45.77l.37.16h1.87a8.952,8.952,0,0,0,.58-2.03l1.18.56a.26.26,0,0,1,.18.21c0,.13-.05.14-.53.3a12.39,12.39,0,0,1-1.1.96h2.59l.42-.56c.11-.14.18-.21.26-.21s.14.03.3.16l.72.58c.06.05.16.14.16.24,0,.18-.16.18-.24.18h-3.49v1.34h1.54l.3-.53c.05-.08.13-.22.26-.22a.648.648,0,0,1,.3.18l.69.54c.06.05.16.14.16.24,0,.16-.16.18-.24.18h-3.01Zm-3.04-4.5a12.275,12.275,0,0,0-1.89.14l-.32-.64c1.09.1,2.23.11,2.46.11h.35V75.64h-.62a9.87,9.87,0,0,0-1.87.14l-.32-.64c.99.08,1.97.11,2.45.11h.37v-1.7h-.94a10.278,10.278,0,0,0-1.89.14l-.32-.64c1.1.1,2.24.11,2.46.11h.59l.37-.35a.377.377,0,0,1,.21-.11c.08,0,.14.06.24.16l.61.54a.325.325,0,0,1,.13.22c0,.13-.19.29-.43.48v.99c0,.43.08,2.29.08,2.67a.478.478,0,0,1-.19.46.9.9,0,0,1-.56.21c-.4,0-.38-.3-.37-.69h-.59Zm0,2.77v1.34h2.05V80.55Zm0,1.73v1.49h2.05V82.28Zm0,1.87v1.57h2.05V84.15Zm4.71-6.39a11.72,11.72,0,0,0-1.89.14l-.32-.64c1.04.1,2.16.11,2.56.11V75.61a12.264,12.264,0,0,0-2.1.14l-.32-.62c.86.06,1.25.08,2.42.1V73.52h-.5a11.886,11.886,0,0,0-1.87.14l-.32-.64a26.255,26.255,0,0,0,2.66.11l.34-.35c.06-.06.14-.14.21-.14s.11.02.29.18l.58.5c.06.06.14.13.14.22,0,.11-.11.19-.48.45-.02.35-.02.83.02,1.9,0,.3.08,1.67.08,1.95,0,.53-.56.64-.74.64-.42,0-.42-.32-.4-.72h-.35Z"/>
        <path id="パス_557" data-name="パス 557" d="M178.48,85.36h.88c.83,0,1.12-.32,1.12-.98V75.72c0-.5-.46-.58-.77-.58h-1.22v-.5h.29a6.215,6.215,0,0,0,2.61-.67c.11-.06.16-.1.22-.1.14,0,.18.1.18.22V84.37c0,.69.34.98,1.12.98h.88v.51h-5.31v-.51Z"/>
        <path id="パス_558" data-name="パス 558" d="M186.53,75.45l-.14,4.03a3.377,3.377,0,0,1,2.48-1.1,3.433,3.433,0,0,1,3.41,3.67,4.064,4.064,0,0,1-3.95,4.13,2.887,2.887,0,0,1-3.03-2.35.9.9,0,0,1,.93-.99.787.787,0,0,1,.83.83,1.8,1.8,0,0,1-.08.48,2.576,2.576,0,0,0-.05.45c0,.69.72,1.04,1.36,1.04,1.3,0,2.51-1.23,2.51-3.38,0-2.03-1.07-3.15-2.24-3.15a3.48,3.48,0,0,0-2.5,1.39l-.24-.13.24-6.18h5.57l-.32,1.26h-4.79Z"/>
        <path id="パス_559" data-name="パス 559" d="M197.95,75c-.02.58-.03.94-.03,1.71,0,1.68.1,5.31.13,6,0,.21.05.58.05.78,0,.61-.69.64-.77.64-.43,0-.43-.11-.4-1.17h-2c0,.11.05,1.42.05,1.46,0,.58-.62.69-.8.69-.4,0-.4-.3-.4-.5,0-.18.05-.96.05-1.12.05-1.22.06-5.71.06-6.08a24.591,24.591,0,0,0-.19-3.95l1.39.67h1.63l.46-.42c.18-.14.21-.21.29-.21a.421.421,0,0,1,.26.14l.64.58a.407.407,0,0,1,.13.26c0,.14-.32.35-.54.51Zm-1.01-.48h-2.02v3.76h2.02Zm0,4.15h-2.02v3.92h2.02Zm10.47-.3h-7.04a11.208,11.208,0,0,0-1.89.14l-.3-.64c.99.08,1.97.11,2.45.11h1.34V75.53h-.7a11.787,11.787,0,0,0-1.89.14l-.3-.64c1.06.1,2.18.11,2.45.11h.45a6.878,6.878,0,0,0-.27-2.61l1.65.48c.18.05.29.13.29.26s-.05.16-.51.48c-.02.38-.02.48-.03,1.39h1.57l.59-.69c.11-.14.18-.19.26-.19a.41.41,0,0,1,.29.16l.78.69a.312.312,0,0,1,.16.24c0,.14-.14.18-.24.18h-3.43v2.45h2.43l.61-.74c.13-.16.18-.21.24-.21.1,0,.14.06.3.19l.85.72c.13.11.14.19.14.24,0,.16-.14.18-.24.18Zm-.03,2.93h-2.66c0,.32.05,3.33.05,3.84,0,.61,0,1.6-2.06,1.98-.14-.53-.32-.98-1.47-1.6l.03-.11c.32.03,1.31.11,1.57.11.72,0,.82-.14.83-.46.02-.29.02-3.51,0-3.76h-3.11a12.275,12.275,0,0,0-1.89.14l-.3-.64c1.09.1,2.22.11,2.45.11h2.85a10.635,10.635,0,0,0-.21-2.21l1.44.35c.21.05.3.08.3.21,0,.11-.05.14-.46.46-.02.3-.02.4-.02,1.18h.75l.66-.75c.13-.14.19-.19.27-.19s.14.03.27.16l.78.75c.11.1.16.14.16.24,0,.14-.13.18-.24.18Zm-6.11,3.22c-.48,0-.58-.45-.66-.88a3.556,3.556,0,0,0-.75-1.78l.06-.1c1.57.62,2.02,1.55,2.02,2.05a.683.683,0,0,1-.67.7Z"/>
        <path id="パス_560" data-name="パス 560" d="M218.26,81.12a6.133,6.133,0,0,1-2.62-.74c-2.32-1.06-2.37-1.09-3.07-1.09a6.6,6.6,0,0,0-3.49,1.28l-.21-.24a6.021,6.021,0,0,1,4.16-1.87,6.337,6.337,0,0,1,2.88.86c1.78.83,2.06.98,2.8.98A6.668,6.668,0,0,0,222.2,79l.21.24a6,6,0,0,1-4.15,1.87Z"/>
        <path id="パス_561" data-name="パス 561" d="M229.54,85.87h-6.29v-.43a10.858,10.858,0,0,1,2.35-3.59c2.35-2.72,3.15-3.63,3.15-5.23a2.056,2.056,0,0,0-2.13-2.19c-1.12,0-1.79.67-1.79,1.25a.889.889,0,0,0,.16.5,1.383,1.383,0,0,1,.34.8.888.888,0,0,1-.86.9,1.01,1.01,0,0,1-.91-1.12A3.206,3.206,0,0,1,227,73.89a2.924,2.924,0,0,1,3.2,2.98c0,1.62-.93,2.5-2.37,3.73a14.007,14.007,0,0,0-3.46,4.02h2.21c2.24,0,2.77-.86,3.25-2.19l.48.18-.77,3.28Z"/>
        <path id="パス_562" data-name="パス 562" d="M231.82,85.36h.88c.83,0,1.12-.32,1.12-.98V75.72c0-.5-.46-.58-.77-.58h-1.22v-.5h.29a6.215,6.215,0,0,0,2.61-.67c.11-.06.16-.1.22-.1.14,0,.18.1.18.22V84.37c0,.69.34.98,1.12.98h.88v.51h-5.31v-.51Z"/>
        <path id="パス_563" data-name="パス 563" d="M243.65,75c-.02.58-.03.94-.03,1.71,0,1.68.1,5.31.13,6,0,.21.05.58.05.78,0,.61-.69.64-.77.64-.43,0-.43-.11-.4-1.17h-2c0,.11.05,1.42.05,1.46,0,.58-.62.69-.8.69-.4,0-.4-.3-.4-.5,0-.18.05-.96.05-1.12.05-1.22.06-5.71.06-6.08a24.591,24.591,0,0,0-.19-3.95l1.39.67h1.63l.46-.42c.18-.14.21-.21.29-.21a.421.421,0,0,1,.26.14l.64.58a.407.407,0,0,1,.13.26c0,.14-.32.35-.54.51Zm-1.01-.48h-2.02v3.76h2.02Zm0,4.15h-2.02v3.92h2.02Zm10.47-.3h-7.04a11.208,11.208,0,0,0-1.89.14l-.3-.64c.99.08,1.97.11,2.45.11h1.34V75.53h-.7a11.787,11.787,0,0,0-1.89.14l-.3-.64c1.06.1,2.18.11,2.45.11h.45a6.878,6.878,0,0,0-.27-2.61l1.65.48c.18.05.29.13.29.26s-.05.16-.51.48c-.02.38-.02.48-.03,1.39h1.57l.59-.69c.11-.14.18-.19.26-.19a.41.41,0,0,1,.29.16l.78.69a.312.312,0,0,1,.16.24c0,.14-.14.18-.24.18h-3.43v2.45h2.43l.61-.74c.13-.16.18-.21.24-.21.1,0,.14.06.3.19l.85.72c.13.11.14.19.14.24,0,.16-.14.18-.24.18Zm-.03,2.93h-2.66c0,.32.05,3.33.05,3.84,0,.61,0,1.6-2.06,1.98-.14-.53-.32-.98-1.47-1.6l.03-.11c.32.03,1.31.11,1.57.11.72,0,.82-.14.83-.46.02-.29.02-3.51,0-3.76h-3.1a12.275,12.275,0,0,0-1.89.14l-.3-.64c1.09.1,2.22.11,2.45.11h2.85a10.635,10.635,0,0,0-.21-2.21l1.44.35c.21.05.3.08.3.21,0,.11-.05.14-.46.46-.02.3-.02.4-.02,1.18h.75l.66-.75c.13-.14.19-.19.27-.19s.14.03.27.16l.78.75c.11.1.16.14.16.24,0,.14-.13.18-.24.18Zm-6.11,3.22c-.48,0-.58-.45-.66-.88a3.556,3.556,0,0,0-.75-1.78l.06-.1c1.57.62,2.02,1.55,2.02,2.05a.683.683,0,0,1-.67.7Z"/>
        <path id="パス_564" data-name="パス 564" d="M254.86,87.02l-.32-.32,14.15-14.15.32.32L254.86,87.02Z"/>
        <path id="パス_565" data-name="パス 565" d="M281.16,78.12l.66-.86c.1-.13.14-.19.24-.19s.11.03.3.18l1.07.85a.331.331,0,0,1,.16.26c0,.14-.14.16-.26.16H278c0,.53-.02,2.83-.02,3.3,0,.16.02,3.49,0,3.95h4.24l.8-.87c.11-.13.16-.19.24-.19.1,0,.14.05.3.18l1.06.85a.329.329,0,0,1,.16.24c0,.14-.14.18-.24.18H272.5a11.721,11.721,0,0,0-1.89.14l-.32-.64c1.07.1,2.16.11,2.46.11h4.08c-.02-.14-.02-3.54-.02-3.91V78.51h-3.38a11.721,11.721,0,0,0-1.89.14l-.32-.62c1.07.08,2.16.1,2.46.1h3.12c-.03-3.63-.03-4.05-.4-5.22l1.94.51c.16.05.26.08.26.22a.294.294,0,0,1-.14.24c-.06.06-.37.3-.46.37,0,1.3-.02,2.58-.02,3.87h3.15Z"/>
        <path id="パス_566" data-name="パス 566" d="M289.01,73.96l.32-.34a.338.338,0,0,1,.24-.13.531.531,0,0,1,.3.18l.56.56a.381.381,0,0,1,.11.24c0,.1-.11.22-.42.48-.03,1.14-.03,2.29-.02,4,.02.7.06,3.78.06,4.42,0,.38-.03.56-.21.7a1.053,1.053,0,0,1-.56.22c-.38,0-.37-.27-.32-.91h-1.6a3.253,3.253,0,0,1-.02.93.779.779,0,0,1-.72.5.4.4,0,0,1-.43-.46c0-.13.05-.69.05-.8.03-1.75.05-3.19.05-6.63a20.6,20.6,0,0,0-.13-3.54l1.23.58h1.49Zm-1.52.38v4.03h1.6V74.34Zm0,4.42V83h1.6V78.76Zm8.76,3.52v1.49h1.57l.3-.5c.06-.11.14-.24.26-.24.08,0,.13.03.29.18l.64.53c.06.05.16.13.16.24,0,.16-.16.18-.24.18h-2.98v1.57h2.29l.37-.64c.1-.18.19-.24.27-.24a.559.559,0,0,1,.29.18l.77.67a.369.369,0,0,1,.16.26c0,.16-.16.16-.24.16h-6.95c0,.45.02.5-.05.59a.868.868,0,0,1-.74.4c-.37,0-.37-.26-.37-.35,0-.21.05-1.23.06-1.47.02-.54.06-2.56.05-4.08a7.834,7.834,0,0,1-1.92,1.81l-.05-.08a13.994,13.994,0,0,0,2.42-4.75l1.09.53a.245.245,0,0,1,.16.21c0,.18-.1.21-.43.34-.19.35-.29.5-.45.77l.37.16h1.87a8.952,8.952,0,0,0,.58-2.03l1.18.56a.26.26,0,0,1,.18.21c0,.13-.05.14-.53.3a12.388,12.388,0,0,1-1.1.96h2.59l.42-.56c.11-.14.18-.21.26-.21s.14.03.3.16l.72.58c.06.05.16.14.16.24,0,.18-.16.18-.24.18h-3.49v1.34h1.54l.3-.53c.05-.08.13-.22.26-.22a.648.648,0,0,1,.3.18l.69.54c.06.05.16.14.16.24,0,.16-.16.18-.24.18h-3.01Zm-3.04-4.5a12.275,12.275,0,0,0-1.89.14l-.32-.64c1.09.1,2.23.11,2.46.11h.35V75.64h-.62a9.87,9.87,0,0,0-1.87.14l-.32-.64c.99.08,1.97.11,2.45.11h.37v-1.7h-.94a10.279,10.279,0,0,0-1.89.14l-.32-.64c1.1.1,2.24.11,2.46.11h.59l.37-.35a.377.377,0,0,1,.21-.11c.08,0,.14.06.24.16l.61.54a.325.325,0,0,1,.13.22c0,.13-.19.29-.43.48v.99c0,.43.08,2.29.08,2.67a.478.478,0,0,1-.19.46.9.9,0,0,1-.56.21c-.4,0-.38-.3-.37-.69h-.59Zm0,2.77v1.34h2.05V80.55Zm0,1.73v1.49h2.05V82.28Zm0,1.87v1.57h2.05V84.15Zm4.71-6.39a11.721,11.721,0,0,0-1.89.14l-.32-.64c1.04.1,2.16.11,2.56.11V75.61a12.264,12.264,0,0,0-2.1.14l-.32-.62c.86.06,1.25.08,2.42.1V73.52h-.5a11.886,11.886,0,0,0-1.87.14l-.32-.64a26.255,26.255,0,0,0,2.66.11l.34-.35c.06-.06.14-.14.21-.14s.11.02.29.18l.58.5c.06.06.14.13.14.22,0,.11-.11.19-.48.45-.02.35-.02.83.02,1.9,0,.3.08,1.67.08,1.95,0,.53-.56.64-.74.64-.42,0-.42-.32-.4-.72h-.35Z"/>
        <path id="パス_567" data-name="パス 567" d="M304.72,81.07a1.28,1.28,0,1,1,0-2.56,1.28,1.28,0,0,1,0,2.56Z"/>
        <path id="パス_568" data-name="パス 568" d="M318.5,75.11c-.03.9-.03,1.42-.03,2.34,0,2.82.08,6.69.14,7.65,0,.1.03.51.03.61,0,.59-.62.77-.91.77-.32,0-.42-.18-.42-.48,0-.02,0-.24.03-.64h-5.92c.02.46.03,1.17-.88,1.17a.376.376,0,0,1-.43-.43c0-.11.05-.93.08-1.39.06-1.23.11-5.73.11-6.85,0-3.41-.08-3.79-.26-4.5l1.62.83h5.46l.5-.48c.13-.13.21-.19.32-.19s.19.08.3.18l.69.62a.514.514,0,0,1,.19.3c0,.19-.21.3-.62.5Zm-1.14-.55h-5.95v4.85h5.95Zm0,5.23h-5.95v5.17h5.95Z"/>
        <path id="パス_569" data-name="パス 569" d="M324.11,73.96l.32-.34a.338.338,0,0,1,.24-.13.531.531,0,0,1,.3.18l.56.56a.381.381,0,0,1,.11.24c0,.1-.11.22-.42.48-.03,1.14-.03,2.29-.02,4,.02.7.06,3.78.06,4.42,0,.38-.03.56-.21.7a1.053,1.053,0,0,1-.56.22c-.38,0-.37-.27-.32-.91h-1.6a3.253,3.253,0,0,1-.02.93.779.779,0,0,1-.72.5.4.4,0,0,1-.43-.46c0-.13.05-.69.05-.8.03-1.75.05-3.19.05-6.63a20.6,20.6,0,0,0-.13-3.54l1.23.58h1.49Zm-1.52.38v4.03h1.6V74.34Zm0,4.42V83h1.6V78.76Zm8.76,3.52v1.49h1.57l.3-.5c.06-.11.14-.24.26-.24.08,0,.13.03.29.18l.64.53c.06.05.16.13.16.24,0,.16-.16.18-.24.18h-2.98v1.57h2.29l.37-.64c.1-.18.19-.24.27-.24a.559.559,0,0,1,.29.18l.77.67a.369.369,0,0,1,.16.26c0,.16-.16.16-.24.16h-6.95c0,.45.02.5-.05.59a.868.868,0,0,1-.74.4c-.37,0-.37-.26-.37-.35,0-.21.05-1.23.06-1.47.02-.54.06-2.56.05-4.08a7.834,7.834,0,0,1-1.92,1.81l-.05-.08a13.994,13.994,0,0,0,2.42-4.75l1.09.53a.245.245,0,0,1,.16.21c0,.18-.1.21-.43.34-.19.35-.29.5-.45.77l.37.16h1.87a8.952,8.952,0,0,0,.58-2.03l1.18.56a.26.26,0,0,1,.18.21c0,.13-.05.14-.53.3a12.388,12.388,0,0,1-1.1.96h2.59l.42-.56c.11-.14.18-.21.26-.21s.14.03.3.16l.72.58c.06.05.16.14.16.24,0,.18-.16.18-.24.18h-3.49v1.34h1.54l.3-.53c.05-.08.13-.22.26-.22a.648.648,0,0,1,.3.18l.69.54c.06.05.16.14.16.24,0,.16-.16.18-.24.18h-3.01Zm-3.04-4.5a12.275,12.275,0,0,0-1.89.14l-.32-.64c1.09.1,2.23.11,2.46.11h.35V75.64h-.62a9.87,9.87,0,0,0-1.87.14l-.32-.64c.99.08,1.97.11,2.45.11h.37v-1.7h-.94a10.279,10.279,0,0,0-1.89.14l-.32-.64c1.1.1,2.24.11,2.46.11h.59l.37-.35a.377.377,0,0,1,.21-.11c.08,0,.14.06.24.16l.61.54a.325.325,0,0,1,.13.22c0,.13-.19.29-.43.48v.99c0,.43.08,2.29.08,2.67a.478.478,0,0,1-.19.46.9.9,0,0,1-.56.21c-.4,0-.38-.3-.37-.69h-.59Zm0,2.77v1.34h2.05V80.55Zm0,1.73v1.49h2.05V82.28Zm0,1.87v1.57h2.05V84.15Zm4.71-6.39a11.721,11.721,0,0,0-1.89.14l-.32-.64c1.04.1,2.16.11,2.56.11V75.61a12.264,12.264,0,0,0-2.1.14l-.32-.62c.86.06,1.25.08,2.42.1V73.52h-.5a11.886,11.886,0,0,0-1.87.14l-.32-.64a26.255,26.255,0,0,0,2.66.11l.34-.35c.06-.06.14-.14.21-.14s.11.02.29.18l.58.5c.06.06.14.13.14.22,0,.11-.11.19-.48.45-.02.35-.02.83.02,1.9,0,.3.08,1.67.08,1.95,0,.53-.56.64-.74.64-.42,0-.42-.32-.4-.72h-.35Z"/>
        <path id="パス_570" data-name="パス 570" d="M339.83,81.07a1.28,1.28,0,0,1,0-2.56,1.28,1.28,0,0,1,0,2.56Z"/>
        <path id="パス_571" data-name="パス 571" d="M349.91,81.13c-.45,0-.59-.42-.77-.91a4.169,4.169,0,0,0-.96-1.33c0,.7,0,1.01.02,3.78,0,.5.06,2.95.06,3.49a.774.774,0,0,1-.83.77c-.42,0-.42-.26-.42-.48s.1-1.38.11-1.63c.05-1.02.06-1.42.1-5.06a9.321,9.321,0,0,1-3.33,2.45l-.05-.08a24.958,24.958,0,0,0,4.71-6h-2.06a11.652,11.652,0,0,0-1.87.14l-.32-.64c.82.06,1.63.11,2.46.11h.4a8.221,8.221,0,0,0-.35-3.33l1.54.5c.18.06.32.11.32.24,0,.18-.11.24-.5.48,0,.3.02,1.78.02,2.11h.58l.37-.4a.3.3,0,0,1,.24-.14.431.431,0,0,1,.26.13l.66.58a.4.4,0,0,1,.13.26c0,.18-.53.38-.8.5-.37.51-.94,1.34-1.42,1.94v.16c.88.29,2.34.75,2.34,1.75a.624.624,0,0,1-.61.64Zm3.55-.67c-1.06,4.27-3.03,5.51-4.64,6.11l-.08-.1a8.994,8.994,0,0,0,3.52-6.45,3.758,3.758,0,0,0-.06-.72l1.41.54c.1.03.27.13.27.29,0,.21-.27.29-.42.32Zm3.36,5.95a5.967,5.967,0,0,1-2.05-.19c-.62-.21-.62-.48-.62-1.81,0-.86.06-4.72.05-5.51h-2.16c.02.43-.16.82-.7.82-.21,0-.4-.08-.4-.42v-.27c0-.38.05-1.97.05-2.53a14.179,14.179,0,0,0-.24-3.92l1.34.74h4.1l.35-.34c.06-.06.16-.16.26-.16.08,0,.14.06.22.13l.66.54c.1.08.18.14.18.22,0,.19-.16.29-.54.5.02.59.02,3.15.03,3.67.02.18.06.88.06,1.04a.67.67,0,0,1-.72.64c-.46,0-.46-.27-.45-.66h-.98c0,.71-.02,3.81-.02,4.45.02,1.59.02,1.76.21,1.87a3.262,3.262,0,0,0,1.06.11c.98,0,1.31,0,1.73-2.8h.1c.05.34.21,1.81.3,2.1.05.13.11.18.35.37a.464.464,0,0,1,.16.37c0,1.04-1.9,1.04-2.32,1.04Zm-.59-12.71h-4.19v4.82h4.19Z"/>
        <path id="パス_572" data-name="パス 572" d="M369.25,75.11c-.03.9-.03,1.42-.03,2.34,0,2.82.08,6.69.14,7.65,0,.1.03.51.03.61,0,.59-.62.77-.91.77-.32,0-.42-.18-.42-.48,0-.02,0-.24.03-.64h-5.92c.02.46.03,1.17-.88,1.17a.376.376,0,0,1-.43-.43c0-.11.05-.93.08-1.39.06-1.23.11-5.73.11-6.85,0-3.41-.08-3.79-.26-4.5l1.62.83h5.46l.5-.48c.13-.13.21-.19.32-.19s.19.08.3.18l.69.62a.514.514,0,0,1,.19.3c0,.19-.21.3-.62.5Zm-1.14-.55h-5.95v4.85h5.95Zm0,5.23h-5.95v5.17h5.95Z"/>
        <path id="パス_573" data-name="パス 573" d="M383.47,74.19v.85c-2.55,3.92-3.44,6.15-3.65,9.71-.03.42-.08,1.43-.9,1.43a.851.851,0,0,1-.82-.88c0-1.14,1.12-4.5,4.5-9.84h-2.74c-2.32,0-2.67,1.07-3.03,2.1l-.48-.11.66-3.25h6.45Z"/>
        <path id="パス_574" data-name="パス 574" d="M389.07,75c-.02.58-.03.94-.03,1.71,0,1.68.1,5.31.13,6,0,.21.05.58.05.78,0,.61-.69.64-.77.64-.43,0-.43-.11-.4-1.17h-2c0,.11.05,1.42.05,1.46,0,.58-.62.69-.8.69-.4,0-.4-.3-.4-.5,0-.18.05-.96.05-1.12.05-1.22.06-5.71.06-6.08a24.589,24.589,0,0,0-.19-3.95l1.39.67h1.63l.46-.42c.18-.14.21-.21.29-.21a.421.421,0,0,1,.26.14l.64.58a.407.407,0,0,1,.13.26c0,.14-.32.35-.54.51Zm-1.01-.48h-2.02v3.76h2.02Zm0,4.15h-2.02v3.92h2.02Zm10.47-.3h-7.04a11.208,11.208,0,0,0-1.89.14l-.3-.64c.99.08,1.97.11,2.45.11h1.34V75.53h-.7a11.787,11.787,0,0,0-1.89.14l-.3-.64c1.06.1,2.18.11,2.45.11h.45a6.879,6.879,0,0,0-.27-2.61l1.65.48c.18.05.29.13.29.26s-.05.16-.51.48c-.02.38-.02.48-.03,1.39h1.57l.59-.69c.11-.14.18-.19.26-.19a.41.41,0,0,1,.29.16l.78.69a.312.312,0,0,1,.16.24c0,.14-.14.18-.24.18h-3.43v2.45h2.43l.61-.74c.13-.16.18-.21.24-.21.1,0,.14.06.3.19l.85.72c.13.11.14.19.14.24,0,.16-.14.18-.24.18Zm-.03,2.93h-2.66c0,.32.05,3.33.05,3.84,0,.61,0,1.6-2.06,1.98-.14-.53-.32-.98-1.47-1.6l.03-.11c.32.03,1.31.11,1.57.11.72,0,.82-.14.83-.46.02-.29.02-3.51,0-3.76h-3.11a12.275,12.275,0,0,0-1.89.14l-.3-.64c1.09.1,2.22.11,2.45.11h2.85a10.634,10.634,0,0,0-.21-2.21l1.44.35c.21.05.3.08.3.21,0,.11-.05.14-.46.46-.02.3-.02.4-.02,1.18h.75l.66-.75c.13-.14.19-.19.27-.19s.14.03.27.16l.78.75c.11.1.16.14.16.24,0,.14-.13.18-.24.18Zm-6.11,3.22c-.48,0-.58-.45-.66-.88a3.556,3.556,0,0,0-.75-1.78l.06-.1c1.57.62,2.02,1.55,2.02,2.05a.683.683,0,0,1-.67.7Z"/>
        <path id="パス_575" data-name="パス 575" d="M409.38,81.12a6.133,6.133,0,0,1-2.62-.74c-2.32-1.06-2.37-1.09-3.07-1.09a6.6,6.6,0,0,0-3.49,1.28l-.21-.24a6.021,6.021,0,0,1,4.16-1.87,6.337,6.337,0,0,1,2.88.86c1.78.83,2.06.98,2.8.98a6.668,6.668,0,0,0,3.49-1.3l.21.24a6,6,0,0,1-4.15,1.87Z"/>
        <path id="パス_576" data-name="パス 576" d="M420.66,85.87h-6.29v-.43a10.858,10.858,0,0,1,2.35-3.59c2.35-2.72,3.15-3.63,3.15-5.23a2.056,2.056,0,0,0-2.13-2.19c-1.12,0-1.79.67-1.79,1.25a.889.889,0,0,0,.16.5,1.383,1.383,0,0,1,.34.8.888.888,0,0,1-.86.9,1.01,1.01,0,0,1-.91-1.12,3.206,3.206,0,0,1,3.44-2.87,2.924,2.924,0,0,1,3.2,2.98c0,1.62-.93,2.5-2.37,3.73a14.006,14.006,0,0,0-3.46,4.02h2.21c2.24,0,2.77-.86,3.25-2.19l.48.18-.77,3.28Z"/>
        <path id="パス_577" data-name="パス 577" d="M422.94,85.36h.88c.83,0,1.12-.32,1.12-.98V75.72c0-.5-.46-.58-.77-.58h-1.22v-.5h.29a6.214,6.214,0,0,0,2.61-.67c.11-.06.16-.1.22-.1.14,0,.18.1.18.22V84.37c0,.69.34.98,1.12.98h.88v.51h-5.31v-.51Z"/>
        <path id="パス_578" data-name="パス 578" d="M434.77,75c-.02.58-.03.94-.03,1.71,0,1.68.1,5.31.13,6,0,.21.05.58.05.78,0,.61-.69.64-.77.64-.43,0-.43-.11-.4-1.17h-2c0,.11.05,1.42.05,1.46,0,.58-.62.69-.8.69-.4,0-.4-.3-.4-.5,0-.18.05-.96.05-1.12.05-1.22.06-5.71.06-6.08a24.589,24.589,0,0,0-.19-3.95l1.39.67h1.63l.46-.42c.18-.14.21-.21.29-.21a.421.421,0,0,1,.26.14l.64.58a.407.407,0,0,1,.13.26c0,.14-.32.35-.54.51Zm-1.01-.48h-2.02v3.76h2.02Zm0,4.15h-2.02v3.92h2.02Zm10.47-.3h-7.04a11.208,11.208,0,0,0-1.89.14l-.3-.64c.99.08,1.97.11,2.45.11h1.34V75.53h-.7a11.787,11.787,0,0,0-1.89.14l-.3-.64c1.06.1,2.18.11,2.45.11h.45a6.879,6.879,0,0,0-.27-2.61l1.65.48c.18.05.29.13.29.26s-.05.16-.51.48c-.02.38-.02.48-.03,1.39h1.57l.59-.69c.11-.14.18-.19.26-.19a.41.41,0,0,1,.29.16l.78.69a.312.312,0,0,1,.16.24c0,.14-.14.18-.24.18h-3.43v2.45h2.43l.61-.74c.13-.16.18-.21.24-.21.1,0,.14.06.3.19l.85.72c.13.11.14.19.14.24,0,.16-.14.18-.24.18Zm-.03,2.93h-2.66c0,.32.05,3.33.05,3.84,0,.61,0,1.6-2.06,1.98-.14-.53-.32-.98-1.47-1.6l.03-.11c.32.03,1.31.11,1.57.11.72,0,.82-.14.83-.46.02-.29.02-3.51,0-3.76h-3.1a12.275,12.275,0,0,0-1.89.14l-.3-.64c1.09.1,2.22.11,2.45.11h2.85a10.634,10.634,0,0,0-.21-2.21l1.44.35c.21.05.3.08.3.21,0,.11-.05.14-.46.46-.02.3-.02.4-.02,1.18h.75l.66-.75c.13-.14.19-.19.27-.19s.14.03.27.16l.78.75c.11.1.16.14.16.24,0,.14-.13.18-.24.18Zm-6.11,3.22c-.48,0-.58-.45-.66-.88a3.556,3.556,0,0,0-.75-1.78l.06-.1c1.57.62,2.02,1.55,2.02,2.05a.683.683,0,0,1-.67.7Z"/>
        <path id="パス_579" data-name="パス 579" d="M445.98,87.02l-.32-.32,14.15-14.15.32.32Z"/>
        <path id="パス_580" data-name="パス 580" d="M467.2,77.93a17.975,17.975,0,0,1-2,4.5,9.931,9.931,0,0,1-4.37,3.68l-.05-.1a15.282,15.282,0,0,0,3.84-4.75,15.838,15.838,0,0,0,1.46-3.92h-2.22a12.152,12.152,0,0,0-1.87.16l-.32-.64c1.06.08,2.16.1,2.45.1h1.95l.42-.38c.08-.08.14-.13.22-.13a.438.438,0,0,1,.24.14l.67.7c.1.1.13.16.13.22,0,.18-.3.32-.54.42Zm1.86-4.4c0,1.09-.02,5.86-.02,6.84,0,.78.05,4.27.05,4.98,0,.64,0,1.71-1.9,1.95a1.751,1.751,0,0,0-.59-1.02,3.684,3.684,0,0,0-1.12-.72v-.08c.13.02,1.62.08,1.84.08.61,0,.67-.18.67-.74,0-.27-.03-1.52-.03-1.76,0-.5.05-5.59.05-6.64a26.982,26.982,0,0,0-.14-3.18c-.03-.14-.18-.72-.21-.85l1.73.45c.14.03.22.08.22.21,0,.16-.1.27-.54.5Zm5.41,11.96c-2.31-1.28-5.09-5.28-5.17-10.23h.18a13.647,13.647,0,0,0,.91,3.34,7.937,7.937,0,0,0,2.75-3.38l1.44,1.2c.11.1.13.16.13.24,0,.3-.32.27-.85.24a16.126,16.126,0,0,1-3.35,1.99c1.98,4.27,4.72,5.15,5.86,5.36v.1a2.6,2.6,0,0,0-1.9,1.14Z"/>
        <path id="パス_581" data-name="パス 581" d="M480.13,73.96l.32-.34a.338.338,0,0,1,.24-.13.531.531,0,0,1,.3.18l.56.56a.381.381,0,0,1,.11.24c0,.1-.11.22-.42.48-.03,1.14-.03,2.29-.02,4,.02.7.06,3.78.06,4.42,0,.38-.03.56-.21.7a1.053,1.053,0,0,1-.56.22c-.38,0-.37-.27-.32-.91h-1.6a3.253,3.253,0,0,1-.02.93.779.779,0,0,1-.72.5.4.4,0,0,1-.43-.46c0-.13.05-.69.05-.8.03-1.75.05-3.19.05-6.63a20.6,20.6,0,0,0-.13-3.54l1.23.58h1.49Zm-1.52.38v4.03h1.6V74.34Zm0,4.42V83h1.6V78.76Zm8.76,3.52v1.49h1.57l.3-.5c.06-.11.14-.24.26-.24.08,0,.13.03.29.18l.64.53c.06.05.16.13.16.24,0,.16-.16.18-.24.18h-2.98v1.57h2.29l.37-.64c.1-.18.19-.24.27-.24a.559.559,0,0,1,.29.18l.77.67a.369.369,0,0,1,.16.26c0,.16-.16.16-.24.16h-6.95c0,.45.02.5-.05.59a.868.868,0,0,1-.74.4c-.37,0-.37-.26-.37-.35,0-.21.05-1.23.06-1.47.02-.54.06-2.56.05-4.08a7.834,7.834,0,0,1-1.92,1.81l-.05-.08a13.994,13.994,0,0,0,2.42-4.75l1.09.53a.245.245,0,0,1,.16.21c0,.18-.1.21-.43.34-.19.35-.29.5-.45.77l.37.16h1.87a8.952,8.952,0,0,0,.58-2.03l1.18.56a.26.26,0,0,1,.18.21c0,.13-.05.14-.53.3a12.388,12.388,0,0,1-1.1.96h2.59l.42-.56c.11-.14.18-.21.26-.21s.14.03.3.16l.72.58c.06.05.16.14.16.24,0,.18-.16.18-.24.18h-3.49v1.34h1.54l.3-.53c.05-.08.13-.22.26-.22a.648.648,0,0,1,.3.18l.69.54c.06.05.16.14.16.24,0,.16-.16.18-.24.18h-3.01Zm-3.04-4.5a12.275,12.275,0,0,0-1.89.14l-.32-.64c1.09.1,2.23.11,2.46.11h.35V75.64h-.62a9.87,9.87,0,0,0-1.87.14l-.32-.64c.99.08,1.97.11,2.45.11h.37v-1.7H484a10.279,10.279,0,0,0-1.89.14l-.32-.64c1.1.1,2.24.11,2.46.11h.59l.37-.35a.377.377,0,0,1,.21-.11c.08,0,.14.06.24.16l.61.54a.325.325,0,0,1,.13.22c0,.13-.19.29-.43.48v.99c0,.43.08,2.29.08,2.67a.478.478,0,0,1-.19.46.9.9,0,0,1-.56.21c-.4,0-.38-.3-.37-.69h-.59Zm0,2.77v1.34h2.05V80.55Zm0,1.73v1.49h2.05V82.28Zm0,1.87v1.57h2.05V84.15Zm4.71-6.39a11.721,11.721,0,0,0-1.89.14l-.32-.64c1.04.1,2.16.11,2.56.11V75.61a12.264,12.264,0,0,0-2.1.14l-.32-.62c.86.06,1.25.08,2.42.1V73.52h-.5a11.886,11.886,0,0,0-1.87.14l-.32-.64a26.255,26.255,0,0,0,2.66.11l.34-.35c.06-.06.14-.14.21-.14s.11.02.29.18l.58.5c.06.06.14.13.14.22,0,.11-.11.19-.48.45-.02.35-.02.83.02,1.9,0,.3.08,1.67.08,1.95,0,.53-.56.64-.74.64-.42,0-.42-.32-.4-.72h-.35Z"/>
        <path id="パス_582" data-name="パス 582" d="M495.84,81.07a1.28,1.28,0,1,1,0-2.56,1.28,1.28,0,0,1,0,2.56Z"/>
        <path id="パス_583" data-name="パス 583" d="M508.15,76.99a13.167,13.167,0,0,0,3.17,4.35,10.36,10.36,0,0,0,3.97,2.05v.11a2.66,2.66,0,0,0-1.9,1.18c-4.16-2.38-5.43-7.46-5.44-7.49,0,.9-.02,2.08,0,3.83,0,.83.19,5.12.19,5.2a.772.772,0,0,1-.85.85c-.61,0-.61-.32-.61-.54,0-.3.1-1.73.11-2.06.03-.99.05-1.52.1-6.21a13.888,13.888,0,0,1-2.16,3.23,12.837,12.837,0,0,1-4.34,3.36l-.03-.08a24.515,24.515,0,0,0,5.99-7.78h-3.54a11.957,11.957,0,0,0-1.89.14l-.32-.64c.82.06,1.65.11,2.46.11h3.83a14.519,14.519,0,0,0-.4-4.21l1.82.46c.08.02.21.05.21.19,0,.19-.18.3-.54.51,0,.43-.02,2.56-.02,3.04h4.07l.74-.88c.06-.06.16-.19.26-.19s.22.11.3.18l.96.86a.312.312,0,0,1,.16.24c0,.16-.16.18-.26.18h-6.03Z"/>
        <path id="パス_584" data-name="パス 584" d="M519.07,73.96l.32-.34a.338.338,0,0,1,.24-.13.531.531,0,0,1,.3.18l.56.56a.381.381,0,0,1,.11.24c0,.1-.11.22-.42.48-.03,1.14-.03,2.29-.02,4,.02.7.06,3.78.06,4.42,0,.38-.03.56-.21.7a1.053,1.053,0,0,1-.56.22c-.38,0-.37-.27-.32-.91h-1.6a3.248,3.248,0,0,1-.02.93.779.779,0,0,1-.72.5.4.4,0,0,1-.43-.46c0-.13.05-.69.05-.8.03-1.75.05-3.19.05-6.63a20.6,20.6,0,0,0-.13-3.54l1.23.58h1.49Zm-1.52.38v4.03h1.6V74.34Zm0,4.42V83h1.6V78.76Zm8.76,3.52v1.49h1.57l.3-.5c.06-.11.14-.24.26-.24.08,0,.13.03.29.18l.64.53c.06.05.16.13.16.24,0,.16-.16.18-.24.18h-2.98v1.57h2.29l.37-.64c.1-.18.19-.24.27-.24a.559.559,0,0,1,.29.18l.77.67a.369.369,0,0,1,.16.26c0,.16-.16.16-.24.16h-6.95c0,.45.02.5-.05.59a.868.868,0,0,1-.74.4c-.37,0-.37-.26-.37-.35,0-.21.05-1.23.06-1.47.02-.54.06-2.56.05-4.08a7.834,7.834,0,0,1-1.92,1.81l-.05-.08a13.993,13.993,0,0,0,2.42-4.75l1.09.53a.245.245,0,0,1,.16.21c0,.18-.1.21-.43.34-.19.35-.29.5-.45.77l.37.16h1.87a8.952,8.952,0,0,0,.58-2.03l1.18.56a.26.26,0,0,1,.18.21c0,.13-.05.14-.53.3a12.392,12.392,0,0,1-1.1.96h2.59l.42-.56c.11-.14.18-.21.26-.21s.14.03.3.16l.72.58c.06.05.16.14.16.24,0,.18-.16.18-.24.18h-3.49v1.34h1.54l.3-.53c.05-.08.13-.22.26-.22a.648.648,0,0,1,.3.18l.69.54c.06.05.16.14.16.24,0,.16-.16.18-.24.18h-3.01Zm-3.04-4.5a12.275,12.275,0,0,0-1.89.14l-.32-.64c1.09.1,2.23.11,2.46.11h.35V75.64h-.62a9.87,9.87,0,0,0-1.87.14l-.32-.64c.99.08,1.97.11,2.45.11h.37v-1.7h-.94a10.279,10.279,0,0,0-1.89.14l-.32-.64c1.1.1,2.24.11,2.46.11h.59l.37-.35a.377.377,0,0,1,.21-.11c.08,0,.14.06.24.16l.61.54a.325.325,0,0,1,.13.22c0,.13-.19.29-.43.48v.99c0,.43.08,2.29.08,2.67a.478.478,0,0,1-.19.46.9.9,0,0,1-.56.21c-.4,0-.38-.3-.37-.69h-.59Zm0,2.77v1.34h2.05V80.55Zm0,1.73v1.49h2.05V82.28Zm0,1.87v1.57h2.05V84.15Zm4.71-6.39a11.721,11.721,0,0,0-1.89.14l-.32-.64c1.04.1,2.16.11,2.56.11V75.61a12.263,12.263,0,0,0-2.1.14l-.32-.62c.86.06,1.25.08,2.42.1V73.52h-.5a11.886,11.886,0,0,0-1.87.14l-.32-.64a26.255,26.255,0,0,0,2.66.11l.34-.35c.06-.06.14-.14.21-.14s.11.02.29.18l.58.5c.06.06.14.13.14.22,0,.11-.11.19-.48.45-.02.35-.02.83.02,1.9,0,.3.08,1.67.08,1.95,0,.53-.56.64-.74.64-.42,0-.42-.32-.4-.72h-.35Z"/>
        <path id="パス_585" data-name="パス 585" d="M534.79,81.07a1.28,1.28,0,1,1,0-2.56,1.28,1.28,0,1,1,0,2.56Z"/>
        <path id="パス_586" data-name="パス 586" d="M552.71,79a11.712,11.712,0,0,1-6.07-5.51,15.755,15.755,0,0,1-7.39,6.53l-.06-.13a21.843,21.843,0,0,0,5.22-5.2,7.114,7.114,0,0,0,1.28-2.42l1.34.62a.323.323,0,0,1,.22.27c0,.22-.19.26-.3.29a10.384,10.384,0,0,0,7.31,4.1l.02.14a2.59,2.59,0,0,0-1.57,1.3Zm.42,7.16H541.85a12.275,12.275,0,0,0-1.89.14l-.32-.64c1.1.1,2.24.11,2.46.11h3.71V81.34h-2.88a11.721,11.721,0,0,0-1.89.14l-.32-.64c1.12.1,2.34.11,2.46.11h2.62v-2.3h-.58a12.275,12.275,0,0,0-1.89.14l-.32-.62c1.1.08,2.23.1,2.47.1h2.11l.62-.61c.13-.11.21-.21.27-.21s.19.11.29.18l.82.61a.33.33,0,0,1,.16.26c0,.14-.13.16-.24.16h-2.59v2.3h2.99l.69-.72c.11-.11.21-.21.27-.21.08,0,.19.1.29.18l.9.72c.1.08.16.14.16.24,0,.16-.13.18-.24.18h-5.06v4.43h3.92l.78-.83c.13-.13.19-.19.26-.19a.524.524,0,0,1,.3.16l1.01.83a.341.341,0,0,1,.16.26c0,.14-.14.16-.24.16Zm-9.3-1.01c-.5,0-.64-.45-.74-.85a5.154,5.154,0,0,0-.82-2.14l.08-.1c.7.38,2.11,1.17,2.11,2.35a.66.66,0,0,1-.64.74Zm6.24-1.86a12.333,12.333,0,0,1-2.37,2.35l-.13-.08a21.24,21.24,0,0,0,1.28-2.61,2.427,2.427,0,0,0,.24-1.09l1.42.87c.14.08.18.14.18.21C550.69,83.18,550.42,83.23,550.07,83.29Z"/>
        <path id="パス_587" data-name="パス 587" d="M558.02,73.96l.32-.34a.338.338,0,0,1,.24-.13.531.531,0,0,1,.3.18l.56.56a.381.381,0,0,1,.11.24c0,.1-.11.22-.42.48-.03,1.14-.03,2.29-.02,4,.02.7.06,3.78.06,4.42,0,.38-.03.56-.21.7a1.053,1.053,0,0,1-.56.22c-.38,0-.37-.27-.32-.91h-1.6a3.248,3.248,0,0,1-.02.93.779.779,0,0,1-.72.5.4.4,0,0,1-.43-.46c0-.13.05-.69.05-.8.03-1.75.05-3.19.05-6.63a20.6,20.6,0,0,0-.13-3.54l1.23.58H558Zm-1.52.38v4.03h1.6V74.34Zm0,4.42V83h1.6V78.76Zm8.76,3.52v1.49h1.57l.3-.5c.06-.11.14-.24.26-.24.08,0,.13.03.29.18l.64.53c.06.05.16.13.16.24,0,.16-.16.18-.24.18h-2.98v1.57h2.29l.37-.64c.1-.18.19-.24.27-.24a.559.559,0,0,1,.29.18l.77.67a.369.369,0,0,1,.16.26c0,.16-.16.16-.24.16h-6.95c0,.45.02.5-.05.59a.868.868,0,0,1-.74.4c-.37,0-.37-.26-.37-.35,0-.21.05-1.23.06-1.47.02-.54.06-2.56.05-4.08a7.834,7.834,0,0,1-1.92,1.81l-.05-.08a13.993,13.993,0,0,0,2.42-4.75l1.09.53a.245.245,0,0,1,.16.21c0,.18-.1.21-.43.34-.19.35-.29.5-.45.77l.37.16h1.87a8.952,8.952,0,0,0,.58-2.03l1.18.56a.26.26,0,0,1,.18.21c0,.13-.05.14-.53.3a12.392,12.392,0,0,1-1.1.96h2.59l.42-.56c.11-.14.18-.21.26-.21s.14.03.3.16l.72.58c.06.05.16.14.16.24,0,.18-.16.18-.24.18h-3.49v1.34h1.54l.3-.53c.05-.08.13-.22.26-.22a.648.648,0,0,1,.3.18l.69.54c.06.05.16.14.16.24,0,.16-.16.18-.24.18h-3.01Zm-3.04-4.5a12.275,12.275,0,0,0-1.89.14l-.32-.64c1.09.1,2.23.11,2.46.11h.35V75.64h-.62a9.87,9.87,0,0,0-1.87.14l-.32-.64c.99.08,1.97.11,2.45.11h.37v-1.7h-.94a10.279,10.279,0,0,0-1.89.14l-.32-.64c1.1.1,2.24.11,2.46.11h.59l.37-.35a.377.377,0,0,1,.21-.11c.08,0,.14.06.24.16l.61.54a.325.325,0,0,1,.13.22c0,.13-.19.29-.43.48v.99c0,.43.08,2.29.08,2.67a.478.478,0,0,1-.19.46.9.9,0,0,1-.56.21c-.4,0-.38-.3-.37-.69h-.59Zm0,2.77v1.34h2.05V80.55Zm0,1.73v1.49h2.05V82.28Zm0,1.87v1.57h2.05V84.15Zm4.71-6.39a11.721,11.721,0,0,0-1.89.14l-.32-.64c1.04.1,2.16.11,2.56.11V75.61a12.263,12.263,0,0,0-2.1.14l-.32-.62c.86.06,1.25.08,2.42.1V73.52h-.5a11.886,11.886,0,0,0-1.87.14l-.32-.64a26.255,26.255,0,0,0,2.66.11l.34-.35c.06-.06.14-.14.21-.14s.11.02.29.18l.58.5c.06.06.14.13.14.22,0,.11-.11.19-.48.45-.02.35-.02.83.02,1.9,0,.3.08,1.67.08,1.95,0,.53-.56.64-.74.64-.42,0-.42-.32-.4-.72h-.35Z"/>
        <path id="パス_588" data-name="パス 588" d="M585.52,85.21a2.542,2.542,0,0,0-1.23,1.74,24.73,24.73,0,0,1-6.05-.46,5.461,5.461,0,0,1-3.7-3.39,7.144,7.144,0,0,1-3.91,4.08l-.08-.06c2.27-1.66,3.49-5.35,3.49-6.95a2.112,2.112,0,0,0-.02-.35l1.59.64a.26.26,0,0,1,.18.22c0,.18-.05.21-.58.43a8.988,8.988,0,0,1-.51,1.6,5.035,5.035,0,0,0,2.48,2.53v-6.5h-3.25a11.957,11.957,0,0,0-1.89.14l-.32-.62c1.31.1,2.27.1,2.46.1h7.27l.64-.85c.1-.11.16-.19.24-.19s.19.1.32.19l1.07.83a.271.271,0,0,1,.16.24c0,.16-.14.16-.24.16h-5.31v2.95h2.39l.64-.78c.11-.14.16-.21.24-.21.1,0,.21.1.3.18l.96.79a.329.329,0,0,1,.16.24c0,.18-.14.18-.24.18h-4.45v3.5a8.712,8.712,0,0,0,1.7.13,39.589,39.589,0,0,0,5.51-.54l-.02.05Zm-1.58-9.28h-.45c-.3.14-1.63.83-1.9.96l-.06-.05c.08-.13.67-1.42.75-1.65h-8.92c-.05,1.52-.96,2.34-1.74,2.34a.582.582,0,0,1-.59-.62c0-.38.24-.58.54-.8a3.343,3.343,0,0,0,1.57-2.18h.1a4.925,4.925,0,0,1,.11.88h3.81a5.2,5.2,0,0,0-.34-2.53l1.81.43c.13.03.26.13.26.22,0,.14-.06.18-.54.5v1.38h3.79l.66-.53a.275.275,0,0,1,.44,0l1.18,1.14a.381.381,0,0,1,.14.24c0,.27-.43.27-.62.27Z"/>
        <path id="パス_589" data-name="パス 589" d="M589.87,76.47c.11.06.22.16.22.27a.271.271,0,0,1-.14.22c-.1.06-.21.16-.34.26-.05,1.47-.06,2.56-.06,3.17,0,.93.1,5.6.1,5.83a.681.681,0,0,1-.26.66.968.968,0,0,1-.59.21c-.34,0-.43-.13-.43-.56,0-.77.19-5.55.21-6.51,0-.34.02-1.54.03-2.32a16.371,16.371,0,0,1-2.72,3.44l-.08-.08c1.17-1.71,3.67-6.63,3.65-8.84l1.57.83a.3.3,0,0,1,.13.22c0,.1-.11.18-.18.22s-.3.14-.45.22a26.841,26.841,0,0,1-1.1,2.48l.45.27Zm2.58.38a11.333,11.333,0,0,0-1.89.14l-.3-.62c1.07.08,2.26.1,2.45.1h1.73c-.02-.66-.13-3.06-.16-3.22a4.571,4.571,0,0,0-.22-.8l1.78.48c.13.03.24.13.24.22a.36.36,0,0,1-.18.29c-.14.1-.26.18-.37.26,0,.27-.03,1.86-.05,2.77h2.71l.72-.85c.13-.14.18-.19.24-.19s.13.03.3.16l1.07.85a.33.33,0,0,1,.16.26c0,.14-.13.16-.24.16h-4.8a10.3,10.3,0,0,0,5.65,6.71l-.03.11a2.366,2.366,0,0,0-1.73.91,14.3,14.3,0,0,1-4.07-7.35c-.02.96-.02,1.52-.02,2.5,0,.69,0,1.33.03,2.18.14,3.84.16,4.18.16,4.32a.787.787,0,0,1-.88.85c-.38,0-.5-.22-.5-.54,0-.21.06-1.12.06-1.3.05-1.62.06-2.72.1-6.05a13.321,13.321,0,0,1-4.53,5.54l-.03-.11a25.5,25.5,0,0,0,4.37-7.76h-1.78Z"/>
      </g>
    </g>
    <g id="グループ_90" data-name="グループ 90">
      <path id="パス_590" data-name="パス 590" d="M35.1,22.16H18.8a18.743,18.743,0,0,0-2.84.26l-.53-.95c1.65.13,3.26.15,3.67.15h6.69a33.815,33.815,0,0,0,1.69-4.18,4.635,4.635,0,0,0,.24-1.89l2.05,1.14a.486.486,0,0,1,.22.33c0,.13-.13.22-.24.27s-.57.11-.66.13c-.31.44-.4.66-1.61,2.38a17.462,17.462,0,0,1-1.36,1.83h6.03l1.01-1.1c.22-.24.26-.27.35-.27a1.064,1.064,0,0,1,.42.22l1.28,1.12c.13.11.22.18.22.33,0,.2-.18.22-.33.22Zm-.84-16.5H20.2a18.743,18.743,0,0,0-2.84.26l-.53-.95c1.65.13,3.26.15,3.67.15H31.52l.81-.88c.22-.22.24-.26.33-.26s.13.02.42.22l1.28.9a.409.409,0,0,1,.22.33c0,.2-.18.22-.33.22ZM30.81,9.99c.02.6.04,3.23.07,3.76.02.2.09.99.09,1.14,0,.72-.95.84-.99.84-.42,0-.4-.44-.37-.81H20.85a1.342,1.342,0,0,1-.09.51,1,1,0,0,1-.84.46.39.39,0,0,1-.42-.42c0-.13.02-.33.02-.4.07-1.01.11-2.42.11-2.77,0-.59-.02-2.9-.11-3.5-.02-.11-.11-.55-.13-.66l1.76.92h8.32l.46-.48c.2-.2.26-.26.37-.26.09,0,.11.02.33.18l.81.55a.456.456,0,0,1,.15.29c0,.2-.22.33-.79.66ZM29.62,9.6H20.84v4.8h8.78V9.6ZM23.04,20.73c-.68,0-.81-.73-.99-1.63a7.938,7.938,0,0,0-1.21-2.82l.09-.13c1.03.59,2.9,2.33,2.9,3.61a.871.871,0,0,1-.79.97Z"/>
      <path id="パス_591" data-name="パス 591" d="M57.6,21.9H41.36a18.621,18.621,0,0,0-2.82.24l-.53-.95c1.45.11,2.57.15,2.77.15.02-.44.02-12.89-.02-13.71a15.093,15.093,0,0,0-.29-2.6l1.69.88H53.03l.35-.66a.38.38,0,0,1,.31-.24c.09,0,.15,0,.44.18l.99.62c.15.09.22.15.22.26,0,.15-.07.22-.79.88.02,1.5.02,13.22,0,14.41h.75l.73-1.12c.11-.15.18-.29.35-.29.13,0,.33.18.42.29l.92,1.04c.2.24.2.31.2.37,0,.2-.2.24-.33.24ZM45.06,6.45H42.02V21.37h3.04Zm4.05,0H46.25V21.37h2.86Zm4.25,0H50.28V21.37h3.08V6.45Z"/>
      <path id="パス_592" data-name="パス 592" d="M69.15,11.71H65.54v1.28a5.629,5.629,0,0,1,2.42,1.12c.57.48.64.81.64,1.08a.66.66,0,0,1-.66.75c-.4,0-.66-.29-1.01-.95a4.4,4.4,0,0,0-1.41-1.7c0,3.65.02,5.37.13,7.61.02.31.11,1.58.11,1.85a1.039,1.039,0,0,1-.97,1.06c-.49,0-.57-.35-.57-.68,0-.13.09-1.8.11-2.05.22-4.33.22-4.66.2-7.24a21.154,21.154,0,0,1-5.19,6.07l-.15-.18c2.35-2.27,4.91-7.48,5.13-8.03H63.26a18.621,18.621,0,0,0-2.82.24l-.53-.95c1.65.13,3.26.18,3.65.18h.95c0-.71-.02-3.83-.04-4.47a7.977,7.977,0,0,0-.37-3.08l1.83.53c.09.05.33.11.33.33s-.35.44-.59.59c-.11.99-.11,2.84-.11,4.25v1.85H67.1l.73-.73a.891.891,0,0,1,.35-.26.71.71,0,0,1,.4.24l.73.7c.13.13.22.2.22.33,0,.2-.2.24-.35.24Zm-6.6-2.2c-.51,0-.62-.38-.86-1.23a4.705,4.705,0,0,0-1.08-2.05l.09-.13c1.78,1.1,2.57,1.67,2.57,2.55,0,.13-.02.86-.73.86Zm6.42-2.66c-.15.18-2.46,3.06-2.46,3.08l-.18-.07a17.931,17.931,0,0,0,1.5-3.61,2.852,2.852,0,0,0,.11-.97l1.58.84c.24.13.24.22.24.29,0,.31-.66.42-.79.44Zm11.02,8.36-4.07.84c.02.79.09,4.34.13,5.06,0,.24.09,1.3.09,1.47,0,.59-.11.73-.26.88a.98.98,0,0,1-.79.37c-.46,0-.46-.46-.46-.72,0-.53.13-2.82.13-3.35.02-1.69.02-2.99.02-3.48l-4.77.97a17.117,17.117,0,0,0-2.73.81l-.7-.84c1.56-.18,3.1-.44,3.63-.55l4.58-.92c0-1.32-.07-3.43-.07-4.73,0-5.21,0-5.65-.37-7.2l2.05.55c.18.04.31.13.31.31,0,.29-.09.33-.75.68a35.9,35.9,0,0,0-.11,3.76c0,.24.02,3.39.09,6.4l1.91-.39.48-1.01c.15-.33.24-.33.31-.33a1.189,1.189,0,0,1,.4.15l.97.66c.2.13.26.22.26.35,0,.18-.15.22-.26.24Zm-7.81-1.19c-.51,0-.64-.4-.73-.73a6.288,6.288,0,0,0-1.21-2.27l.09-.07c.73.22,2.55,1.06,2.55,2.24a.71.71,0,0,1-.7.81Zm.15-5.19c-.51,0-.62-.42-.7-.72a6.341,6.341,0,0,0-1.21-2.27l.09-.04c.73.2,2.55,1.05,2.55,2.22A.724.724,0,0,1,72.33,8.83Z"/>
      <path id="パス_593" data-name="パス 593" d="M83.32,20.27v.22c0,.22,0,.59-.37.59-.2,0-.29-.13-.37-.33l-.95-1.94a3.731,3.731,0,0,0,.46.04,9.418,9.418,0,0,0,3.06-.81v-5.7a18.881,18.881,0,0,0-2.55.24l-.53-.95c.86.07,2.22.13,3.08.15V6.32a16.664,16.664,0,0,0-2.84.26l-.53-.95c1.14.09,2.53.15,3.67.15h2.07l.62-.7c.18-.22.24-.26.35-.26a.877.877,0,0,1,.4.22l.75.7c.13.13.22.2.22.33,0,.24-.24.24-.33.24H86.38v5.48h.95l.84-.86c.15-.18.26-.26.37-.26.13,0,.22.07.37.24l.81.84c.13.13.2.22.2.33,0,.22-.24.24-.33.24H86.38v5.24c.4-.15,2.38-.9,2.82-1.06a4.232,4.232,0,0,0,.79-.37l.07.18a44.624,44.624,0,0,1-6.73,3.94Zm18.48,2.51H89.57a16.438,16.438,0,0,0-2.82.26l-.53-.95c1.65.13,3.26.15,3.65.15h4.58V18.21h-1.3a18.663,18.663,0,0,0-2.84.24l-.53-.95c1.65.13,3.26.18,3.67.18h.99V14.01H91.62a3.521,3.521,0,0,1-.04.73,1,1,0,0,1-.84.53c-.47,0-.46-.33-.46-.48,0-.09,0-.11.02-.37.15-2.22.18-6.67.18-6.95a11.8,11.8,0,0,0-.24-3.04l1.8.79h6.18l.57-.57c.15-.15.26-.24.37-.24s.29.15.37.22l.9.68a.518.518,0,0,1,.22.35c0,.22-.51.48-.7.59-.02.22-.02,5.21,0,6.05,0,.29.09,1.54.09,1.8a1.013,1.013,0,0,1-.9.92c-.53,0-.51-.26-.46-1.01H95.67v3.67h2.44l.81-.86c.09-.09.24-.26.35-.26s.26.13.4.24l1.01.84c.11.09.22.18.22.33,0,.2-.18.24-.33.24H95.66v4.03h3.7l.75-.86c.22-.24.24-.26.35-.26s.15.02.4.22l1.03.86a.445.445,0,0,1,.22.35c0,.2-.2.22-.33.22ZM94.45,5.75H91.61V9.31h2.84V5.75Zm0,4.09H91.61v3.65h2.84ZM98.7,5.75H95.69V9.31H98.7V5.75Zm0,4.09H95.69v3.65H98.7Z"/>
      <path id="パス_594" data-name="パス 594" d="M113.39,10.45c.37-.13.59-.26.59-.62a2.141,2.141,0,0,0-.13-.62,1.806,1.806,0,0,1,1.67,1.76c0,.46-.11.46-.77.55-2.9.4-9.99,3.28-9.99,6.82a1.991,1.991,0,0,0,.53,1.39c.88,1.01,3.94,1.01,4.53,1.01a18.4,18.4,0,0,0,4.42-.51,4.519,4.519,0,0,1,.79-.07c.57,0,1.36.22,1.36.73,0,.33-.35.53-1.06.68a24.6,24.6,0,0,1-3.67.24,22.186,22.186,0,0,1-5.02-.48,3.138,3.138,0,0,1-2.6-2.95c0-1.72,1.39-3.81,4.27-5.55a4.1,4.1,0,0,1-.86-2.38c-.11-3.74-.13-4.14-.18-4.49a1.847,1.847,0,0,0-.55-1.08,7.983,7.983,0,0,0-.86-.7,2.436,2.436,0,0,1,.81-.15,2.52,2.52,0,0,1,2.2,1.52,3.435,3.435,0,0,1-.09.44,9.559,9.559,0,0,0-.35,2.71,9.755,9.755,0,0,0,.62,3.7,34.528,34.528,0,0,1,4.31-1.96Z"/>
      <path id="パス_595" data-name="パス 595" d="M136.08,10.63c-.02.68-.02,1.23-.02,2.2,0,2.38.13,6.16.13,8.54a1.9,1.9,0,0,1-.57,1.63,3.538,3.538,0,0,1-2.02.88c-.13-.53-.24-.9-1.72-1.8v-.15c.4.02,2.44.07,2.46.07a.427.427,0,0,0,.48-.4c.02-.15.02-3.08.02-3.52h-10.8a8.46,8.46,0,0,1-5.28,5.85l-.04-.09a8.371,8.371,0,0,0,2.73-2.71c.97-1.54,1.72-3.32,1.72-6.89a38.9,38.9,0,0,0-.18-4.67,14.584,14.584,0,0,1-4.25,2.73v-.09a23.091,23.091,0,0,0,6.71-7.48,3.114,3.114,0,0,0,.37-1.25l1.63.99c.15.09.31.2.31.39,0,.15-.15.24-.24.27-.11.04-.64.15-.75.18-.37.53-.57.77-.86,1.14h4.53l.68-.57c.26-.22.31-.24.44-.24a1.014,1.014,0,0,1,.4.18l1.12.68a.465.465,0,0,1,.24.33c0,.22-.2.31-.37.35a4.119,4.119,0,0,0-1.17.29,3.564,3.564,0,0,0-.48.44s-1.54,1.61-1.67,1.72h4.69l.7-.68c.18-.18.22-.22.31-.22.11,0,.26.13.31.15l.95.77a.414.414,0,0,1,.22.35c0,.31-.24.42-.73.64ZM125.47,6.98a29.018,29.018,0,0,1-2.02,2.18l.81.46h4.99a25.521,25.521,0,0,0,1.19-2.64h-4.97ZM128.99,14h-4.58a19.906,19.906,0,0,1-.26,3.54h4.84V14Zm0-3.85h-4.58v3.32h4.58Zm5.85,0h-4.67v3.32h4.67Zm0,3.85h-4.67v3.54h4.67V14Z"/>
      <path id="パス_596" data-name="パス 596" d="M147.29,14c-.7.4-1.47.84-1.74.97.02,1.14.02,1.85.04,2.71.02.42.09,2.93.09,3.1,0,1.36,0,2.09-2.22,2.79a2.9,2.9,0,0,0-2.2-1.89V21.5c.7.05,1.63.11,2.31.11.64,0,.92-.02.92-.71,0-.07-.07-4.64-.07-5.35-.97.51-2.07,1.05-2.9,1.43-.02.37-.04.81-.35.81a.289.289,0,0,1-.26-.18l-.99-1.94a2.692,2.692,0,0,0,1.08-.18c.51-.18,2-.64,3.41-1.14-.02-1.41-.09-3.63-.13-5.13h-.46a17.908,17.908,0,0,0-2.84.24l-.51-.95c1.85.15,3.34.18,3.78.18-.02-.55-.07-3.01-.09-3.5a7.792,7.792,0,0,0-.26-1.43l2.2.71a.261.261,0,0,1,.2.26c0,.2-.11.31-.79.59,0,.24,0,3.08.02,3.37h1.32l.68-.84c.11-.13.22-.31.35-.31.15,0,.26.09.42.24l.92.84c.18.15.22.26.22.35,0,.24-.24.24-.33.24h-3.59c0,1.19,0,3.65.02,4.71a46.666,46.666,0,0,0,4.99-2.16l.02.13a26.144,26.144,0,0,1-3.28,2.07Zm12.89-6.45h-4.25c0,.09.09,4.6.09,4.99.07,3.65.13,8.14.13,8.49,0,1.05-.13,1.38-.44,1.69a3.553,3.553,0,0,1-1.94,1.06,2.759,2.759,0,0,0-2.24-1.94v-.18c.26.02,1.54.11,1.83.11,1.36,0,1.5-.04,1.5-.92s-.04-5-.04-5.92c0-1.06-.02-6.23-.02-7.39h-2.2a18.207,18.207,0,0,0-2.82.26l-.53-.95c1.17.09,2.51.15,3.65.15h4.69l.79-1.12c.11-.15.24-.29.35-.29.13,0,.31.15.42.24l1.14,1.1c.11.11.24.24.24.35,0,.24-.24.24-.35.24Z"/>
      <path id="パス_597" data-name="パス 597" d="M165,11.77c-.46,0-.68-.4-.9-.79a4.986,4.986,0,0,0-1.45-1.87V9.02a5.638,5.638,0,0,1,2.09.68,1.9,1.9,0,0,1,.95,1.3.724.724,0,0,1-.68.77Zm3.01-2.62c-1.96,5.88-2.16,6.54-2.88,8.47a1.916,1.916,0,0,0-.15.64,8.78,8.78,0,0,0,.53,2.33,4.652,4.652,0,0,1,.2,1.32c0,.27,0,1.21-.81,1.21s-.81-.97-.81-1.21a7.742,7.742,0,0,1,.11-1.32c.02-.18.02-.57.02-.77a2.128,2.128,0,0,0-1.39-2.4v-.11a1.985,1.985,0,0,0,1.41-.68,85.756,85.756,0,0,0,3.72-7.79l.15.04-.09.26ZM166.32,7.3c-.46,0-.62-.35-.97-1.21a5.778,5.778,0,0,0-1.3-1.98l.02-.09c.62.18,2.93,1.06,2.93,2.46,0,.57-.31.81-.68.81Zm15.53-1.32h-5.43V9.21h2.68l.48-.53c.04-.07.2-.24.33-.24.09,0,.18.07.33.18l.92.73s.22.15.22.26c0,.2-.57.55-.84.7,0,.24.07,9.62.31,11.99a.68.68,0,0,1,.02.2c0,.53-.64.79-.95.79a.446.446,0,0,1-.51-.46c0-.15.02-.86.02-.99h-9.02c0,.59.02,1.32-.95,1.32-.37,0-.48-.13-.48-.46,0-.18.09-.97.09-1.12.07-2.46.13-4.91.13-7.37a49.221,49.221,0,0,0-.22-5.81l1.52.81h2.02V5.98h-.9a16.438,16.438,0,0,0-2.82.26l-.53-.95c1.65.13,3.26.15,3.65.15h7.5l.77-.97c.11-.15.22-.29.35-.29.09,0,.15.04.4.26l.99.95c.15.13.22.2.22.35,0,.2-.18.22-.33.22Zm-2.4,3.76h-3.04v3.89c0,.29.07.35.42.35.77,0,.86-.11,1.28-1.47h.07c.09.35.26,1.1.48,1.25.35.24.4.26.4.4a.826.826,0,0,1-.31.53c-.26.26-.53.35-1.41.35-1.32,0-2,0-2-1.03V9.74h-1.78c0,3.04-.84,5.02-2.88,6.36l-.04-.18a9.334,9.334,0,0,0,1.91-6.18h-2.11v7.92h9.02V9.74Zm0,8.45h-9.02v3.12h9.02V18.19ZM175.31,5.98h-1.76V9.21h1.78c-.02-.84-.02-2.57-.02-3.23Z"/>
      <path id="パス_598" data-name="パス 598" d="M202.03,5.61s-.46.33-.68.51c0,.42,0,.97.04,1.98,0,.06.02.2.02.26,0,.51-.55.7-.88.7s-.33-.24-.35-.46H187.81c-.07,5.59-.09,6.78-.46,8.49a12.5,12.5,0,0,1-3.37,6.49l-.11-.11c2.55-4.6,2.66-7.63,2.66-12.87a59.542,59.542,0,0,0-.22-6.38l1.91.79h11.6l.48-.48c.18-.18.26-.27.42-.27a.683.683,0,0,1,.33.15l.79.64c.22.18.26.2.26.33a.36.36,0,0,1-.09.22Zm1.63,17.25H190.33a18.977,18.977,0,0,0-2.84.26l-.51-.95c1.65.13,3.23.15,3.65.15h3.92c0-.48.02-2.73.02-3.19h-2.35a16.483,16.483,0,0,0-2.84.26l-.53-.95c1.65.13,3.26.15,3.67.15h2.05a7.145,7.145,0,0,0-.29-2.82l1.67.48c.35.11.44.13.44.27s-.07.2-.64.68c-.02.44-.02.53-.02,1.39h3.83l.64-.84c.22-.29.29-.29.33-.29.13,0,.37.2.42.22l1.1.86a.479.479,0,0,1,.22.35c0,.2-.2.22-.33.22h-6.21V22.3h5.15l.95-1.03c.13-.15.24-.29.37-.29.07,0,.13,0,.4.24l1.17,1.04c.13.11.22.2.22.35,0,.2-.18.22-.33.22ZM200.18,5.54H187.84c0,.46,0,.68-.02,2.53h12.37V5.54Zm2.95,5.7h-8.58c-.22.39-.92,1.3-1.32,1.83-.18.22-.99,1.34-1.17,1.58,1.43-.11,1.98-.15,6.82-.59a17.035,17.035,0,0,0-1.89-1.67l.09-.13c1.17.24,4.71,1.71,4.71,3.3,0,.29-.09.66-.55.66a.944.944,0,0,1-.68-.33c-.2-.2-1.17-1.3-1.39-1.54-.73.15-4.22.86-5.02,1.01-.95.18-3.43.64-4.18.81-.31.42-.35.46-.51.46s-.2-.09-.24-.24l-.59-1.78a6.26,6.26,0,0,0,1.47.13c.64,0,.92-.02,1.36-.04.86-2.11,1.03-2.53,1.34-3.45h-1.08a16.049,16.049,0,0,0-2.82.26l-.53-.97c1.14.11,2.51.18,3.65.18h8.49l.73-.92c.18-.22.26-.31.35-.31a1.008,1.008,0,0,1,.42.24l1.21.95a.482.482,0,0,1,.22.33c0,.24-.24.24-.33.24Z"/>
      <path id="パス_599" data-name="パス 599" d="M24.15,54.64H15.31v-.83h.78c.65,0,1.85-.52,1.85-2.44V38.55c0-1.25-.49-2.03-1.74-2.03h-.88v-.86H23.8c3.56,0,6.27,1.43,6.27,4.39s-2.86,3.98-4.19,4.39a7.124,7.124,0,0,1,3.48,1.48,4.64,4.64,0,0,1,1.82,3.56c0,2.45-2.16,5.15-7.02,5.15Zm0-18.12h-2.5c-1.59,0-2.08.65-2.08,1.79v5.8h4.6a3.643,3.643,0,0,0,3.9-3.93c0-2.21-1.25-3.67-3.93-3.67Zm.18,8.43H19.57v6.92c0,1.07.34,1.95,2.55,1.95h2.03c2.83,0,4.94-1.22,4.94-4.26,0-2.08-1.04-4.6-4.76-4.6Z"/>
      <path id="パス_600" data-name="パス 600" d="M47.47,54.64H33.33v-.83h.65a1.8,1.8,0,0,0,1.87-1.87V38.37a1.646,1.646,0,0,0-1.74-1.85h-.78v-.86H47.06L48.78,40l-.68.31c-.88-1.25-2.63-3.8-6.08-3.8H39.58c-1.51,0-2.05.65-2.05,1.79v6.14h3.33a2.653,2.653,0,0,0,2.5-2.81v-.42h.83v7.44h-.83v-.91a2.354,2.354,0,0,0-2.5-2.44H37.53v6.71A1.739,1.739,0,0,0,39.4,53.8h1.82a9.2,9.2,0,0,0,4.65-1.17,7.215,7.215,0,0,0,2.7-3.12l.7.31-1.79,4.81Z"/>
      <path id="パス_601" data-name="パス 601" d="M65.28,54.64H51.14v-.83h.65a1.8,1.8,0,0,0,1.87-1.87V38.37a1.646,1.646,0,0,0-1.74-1.85h-.78v-.86H64.87L66.59,40l-.68.31c-.88-1.25-2.63-3.8-6.08-3.8H57.39c-1.51,0-2.05.65-2.05,1.79v6.14h3.33a2.653,2.653,0,0,0,2.5-2.81v-.42H62v7.44h-.83v-.91a2.354,2.354,0,0,0-2.5-2.44H55.34v6.71a1.739,1.739,0,0,0,1.87,1.79h1.82a9.2,9.2,0,0,0,4.65-1.17,7.215,7.215,0,0,0,2.7-3.12l.7.31-1.79,4.81Z"/>
      <path id="パス_602" data-name="パス 602" d="M81.64,54.64l-5.3-9.33H73.32v6.6a1.726,1.726,0,0,0,1.85,1.9h.81v.83H69.04v-.83h.78a1.736,1.736,0,0,0,1.85-1.9V38.42a1.713,1.713,0,0,0-1.85-1.9h-.78v-.86h8.01c3.12,0,6.63,1.12,6.63,4.58a4.43,4.43,0,0,1-1.77,3.54,7.626,7.626,0,0,1-3.74,1.43l3.9,6.81a3.036,3.036,0,0,0,2.89,1.79h.39v.83H81.66ZM77.22,36.52H75.17a1.727,1.727,0,0,0-1.85,1.9v6.03h3.74c2.47,0,4.58-1.35,4.58-4S79.66,36.52,77.22,36.52Z"/>
      <path id="パス_603" data-name="パス 603" d="M105.37,55.13c-1.64,0-1.72-1.59-1.72-2.21-1.64,1.4-2.68,2.21-4.42,2.21-2.39,0-3.56-1.25-3.56-2.78a3.84,3.84,0,0,1,1.66-2.89c1.66-1.2,3.09-1.66,6.32-2.42V45.32a2.685,2.685,0,0,0-.7-1.97,3.034,3.034,0,0,0-2.11-.73,2.064,2.064,0,0,0-2.31,1.64c-.05.49-.18,1.48-1.22,1.48a1.159,1.159,0,0,1-1.17-1.14c0-1.59,2.37-2.76,4.89-2.76,2.21,0,4.19.68,4.19,3.12v7.67c0,.91.47,1.25,1.14,1.25a.859.859,0,0,0,.88-.52l.26.18a2.355,2.355,0,0,1-2.13,1.59Zm-1.72-7.31a10.419,10.419,0,0,0-4.6,2,3.664,3.664,0,0,0-1.53,2.45,1.974,1.974,0,0,0,2.18,1.79,5.749,5.749,0,0,0,3.95-2.03V47.82Z"/>
      <path id="パス_604" data-name="パス 604" d="M115.8,54.64v-.83h.65c1.17,0,1.48-.78,1.48-1.9v-5.9c0-1.22-.36-2.96-2.39-2.96-1.82,0-3.33,1.61-4.06,2.42v6.45c0,1.04.31,1.9,1.53,1.9h.68v.83H108v-.83h.49c1.14,0,1.46-.78,1.46-1.9V44.38c0-.52-.34-1.17-.96-1.17a3.11,3.11,0,0,0-.75.1l-.13-.55,3.38-1.01v2.63c1.3-1.3,2.57-2.52,4.5-2.52,2.18,0,3.46,1.48,3.46,3.8v6.27c0,1.17.26,1.9,1.38,1.9h.68v.83h-5.69Z"/>
      <path id="パス_605" data-name="パス 605" d="M132.21,54.64V53.03a5.492,5.492,0,0,1-3.98,1.9c-2.65,0-5.15-2.16-5.15-6.24s2.21-6.84,5.3-6.84a4.732,4.732,0,0,1,3.82,2.05V38.41c0-1.04-.52-1.53-1.27-1.53a8.459,8.459,0,0,0-1.46.23l-.18-.57,4.42-1.33V52.16c0,.91.34,1.64,1.56,1.64h.49v.83H132.2Zm0-9.23a4.3,4.3,0,0,0-3.54-2.44c-2.55,0-3.82,3.02-3.82,5.69,0,3.46,1.95,5.15,3.8,5.15a3.727,3.727,0,0,0,1.3-.26,4.787,4.787,0,0,0,2.26-1.72V45.41Z"/>
      <path id="パス_606" data-name="パス 606" d="M158.67,54.64v-.83h.91c.94,0,1.07-.52,1.07-.99a2.428,2.428,0,0,0-.18-.88l-1.38-4.06h-7.83l-1.35,3.8a3.321,3.321,0,0,0-.21,1.06c0,.46.13,1.07,1.2,1.07h.42v.83H146.2v-.83h.49a2.456,2.456,0,0,0,2.24-1.79l5.82-16.43,1.82-.39,5.77,16.95a2.136,2.136,0,0,0,2.08,1.66h.81v.83h-6.55Zm-3.41-18.1-3.72,10.5h7.25l-3.54-10.5Z"/>
      <path id="パス_607" data-name="パス 607" d="M188.6,36.51c-1.48,0-1.98,1.3-2.26,2.45l-4.21,16.17h-.47L177.4,40.36l-4.6,14.77h-.42l-4.42-16.51c-.34-1.22-1.07-2.11-2.31-2.11h-.52v-.86h6.58v.86h-.68c-.78,0-1.46.39-1.46,1.17a4.182,4.182,0,0,0,.13,1.04l3.38,12.69,3.9-12.51-.23-.81a1.924,1.924,0,0,0-1.85-1.59h-.83v-.86h6.6v.86h-.73c-.99,0-1.43.44-1.43,1.22a3.257,3.257,0,0,0,.16.86l3.61,12.59,3.2-12.14a7.711,7.711,0,0,0,.18-1.28,1.285,1.285,0,0,0-1.33-1.25h-1.04v-.86h6.03v.86h-.73Z"/>
      <path id="パス_608" data-name="パス 608" d="M200.66,54.64v-.83h.91c.94,0,1.07-.52,1.07-.99a2.428,2.428,0,0,0-.18-.88l-1.38-4.06h-7.83l-1.35,3.8a3.321,3.321,0,0,0-.21,1.06c0,.46.13,1.07,1.2,1.07h.42v.83h-5.12v-.83h.49a2.456,2.456,0,0,0,2.24-1.79l5.82-16.43,1.82-.39,5.77,16.95a2.136,2.136,0,0,0,2.08,1.66h.81v.83h-6.55Zm-3.41-18.1-3.72,10.5h7.25l-3.54-10.5Z"/>
      <path id="パス_609" data-name="パス 609" d="M225.08,55.13a8.826,8.826,0,0,1-2.96-.54,2.9,2.9,0,0,0-1.01-.23,3.842,3.842,0,0,0-1.77.78l-2.11-5.02.99-.47c.96,1.54,2.83,4.58,6.68,4.58a3.958,3.958,0,0,0,4.08-4.16c0-3.22-3.02-3.98-5.38-4.55-2.7-.68-5.62-1.64-5.62-5.44a5.092,5.092,0,0,1,1.33-3.54,5.649,5.649,0,0,1,3.98-1.35,7.9,7.9,0,0,1,2.44.37,2.288,2.288,0,0,0,.81.18,3.231,3.231,0,0,0,1.61-.52l1.79,4.5-.78.39c-.81-1.35-2.42-4.08-5.93-4.08a3.5,3.5,0,0,0-3.8,3.69c0,2.65,2.39,3.35,4.99,4.03,3.33.86,6.27,1.87,6.27,5.93,0,1.77-.83,5.46-5.62,5.46Z"/>
      <path id="パス_610" data-name="パス 610" d="M249.57,40.86c-1.14-1.87-2.63-4.34-5.51-4.34a1.738,1.738,0,0,0-1.98,1.9V51.91a1.718,1.718,0,0,0,1.82,1.9h1.35v.83h-7.9v-.83h1.27a1.714,1.714,0,0,0,1.82-1.9V38.42a1.742,1.742,0,0,0-2-1.9c-2.83,0-4.37,2.47-5.49,4.34l-.65-.34,1.92-4.86h14.07l1.92,4.86-.65.34Z"/>
      <path id="パス_611" data-name="パス 611" d="M264.7,54.64v-.83h.91c.94,0,1.07-.52,1.07-.99a2.428,2.428,0,0,0-.18-.88l-1.38-4.06h-7.83l-1.35,3.8a3.321,3.321,0,0,0-.21,1.06c0,.46.13,1.07,1.2,1.07h.42v.83h-5.12v-.83h.49a2.456,2.456,0,0,0,2.24-1.79l5.82-16.43,1.82-.39,5.77,16.95a2.136,2.136,0,0,0,2.08,1.66h.81v.83h-6.55Zm-3.41-18.1-3.72,10.5h7.25l-3.54-10.5Z"/>
      <path id="パス_612" data-name="パス 612" d="M291.09,36.51c-1.46,0-2.37,1.09-2.37,2.89V54.64h-.81L276.83,37.32V51.41c0,1.33.78,2.39,1.82,2.39h1.27v.83h-6.94V53.8h1.12c1.07,0,1.82-1.14,1.82-2.39V38.64a2.075,2.075,0,0,0-2.05-2.13h-.88v-.86h4.71l10.14,15.81V39.4c0-2.89-1.95-2.89-2.7-2.89v-.86h6.34v.86Z"/>
      <path id="パス_613" data-name="パス 613" d="M293.09,53.8h.86a1.659,1.659,0,0,0,1.74-1.69V38.15a1.565,1.565,0,0,0-1.77-1.64h-.83v-.86h8.27c5.38,0,8.89,3.62,8.89,9.44,0,4.5-2.42,9.54-9.13,9.54h-8.03Zm6.03-17.29c-1.17,0-1.77.55-1.77,1.64V52.11c0,1.27.96,1.69,1.98,1.69h1.3c5.75,0,7.64-3.85,7.64-8.89,0-4.03-1.46-8.4-6.73-8.4h-2.42Z"/>
      <path id="パス_614" data-name="パス 614" d="M339.21,36.51c-1.46,0-2.37,1.09-2.37,2.89V54.64h-.81L324.95,37.32V51.41c0,1.33.78,2.39,1.82,2.39h1.27v.83H321.1V53.8h1.12c1.07,0,1.82-1.14,1.82-2.39V38.64a2.075,2.075,0,0,0-2.05-2.13h-.88v-.86h4.71l10.14,15.81V39.4c0-2.89-1.95-2.89-2.7-2.89v-.86h6.34v.86Z"/>
      <path id="パス_615" data-name="パス 615" d="M346.67,55.13c-3.25,0-5.69-3.12-5.69-6.66s2.39-6.63,5.69-6.63,5.69,3.15,5.69,6.63S349.92,55.13,346.67,55.13Zm0-12.51c-2.57,0-3.93,2.81-3.93,5.88s1.35,5.85,3.93,5.85c2.42,0,3.93-2.55,3.93-5.88C350.6,45.51,349.3,42.62,346.67,42.62Z"/>
      <path id="パス_616" data-name="パス 616" d="M361.44,54.64v-.83h.65c1.17,0,1.48-.78,1.48-1.9v-5.9c0-1.22-.36-2.96-2.39-2.96-1.82,0-3.33,1.61-4.06,2.42v6.45c0,1.04.31,1.9,1.53,1.9h.68v.83h-5.69v-.83h.49c1.14,0,1.46-.78,1.46-1.9V44.38c0-.52-.34-1.17-.96-1.17a3.11,3.11,0,0,0-.75.1l-.13-.55,3.38-1.01v2.63c1.3-1.3,2.57-2.52,4.5-2.52,2.18,0,3.46,1.48,3.46,3.8v6.27c0,1.17.26,1.9,1.38,1.9h.68v.83h-5.69Z"/>
      <path id="パス_617" data-name="パス 617" d="M374.13,55.13c-3.25,0-5.69-3.12-5.69-6.66s2.39-6.63,5.69-6.63,5.69,3.15,5.69,6.63S377.38,55.13,374.13,55.13Zm0-12.51c-2.57,0-3.93,2.81-3.93,5.88s1.35,5.85,3.93,5.85c2.42,0,3.93-2.55,3.93-5.88C378.06,45.51,376.76,42.62,374.13,42.62Z"/>
      <path id="パス_618" data-name="パス 618" d="M399.51,54.64V53.03a5.492,5.492,0,0,1-3.98,1.9c-2.65,0-5.15-2.16-5.15-6.24s2.21-6.84,5.3-6.84a4.732,4.732,0,0,1,3.82,2.05V38.41c0-1.04-.52-1.53-1.27-1.53a8.459,8.459,0,0,0-1.46.23l-.18-.57,4.42-1.33V52.16c0,.91.34,1.64,1.56,1.64h.49v.83H399.5Zm0-9.23a4.3,4.3,0,0,0-3.54-2.44c-2.55,0-3.82,3.02-3.82,5.69,0,3.46,1.95,5.15,3.8,5.15a3.727,3.727,0,0,0,1.3-.26,4.787,4.787,0,0,0,2.26-1.72V45.41Z"/>
      <path id="パス_619" data-name="パス 619" d="M404.42,54.64v-.83h.42c1.14,0,1.48-.75,1.48-1.9V44.32c0-.52-.34-1.2-.99-1.2a2.347,2.347,0,0,0-.73.13l-.13-.57,3.43-1.01V51.91c0,1.9,1.09,1.9,1.87,1.9v.83h-5.36Zm2.65-16.82a1.317,1.317,0,0,1-1.33-1.33,1.291,1.291,0,0,1,1.33-1.3,1.315,1.315,0,1,1,0,2.63Z"/>
      <path id="パス_620" data-name="パス 620" d="M428.26,45.64h-3.93v6.27a1.724,1.724,0,0,0,1.82,1.9h.81v.83h-6.92v-.83h.83a1.714,1.714,0,0,0,1.82-1.9V38.42a1.705,1.705,0,0,0-1.82-1.9h-.83v-.86h7.46c1.79,0,7.07.31,7.07,4.94,0,3.02-2.26,5.04-6.32,5.04Zm-.08-9.13h-2.03a1.719,1.719,0,0,0-1.82,1.9v6.4h3.93c3.41,0,4.34-2.18,4.34-4.08,0-3.15-2.44-4.21-4.42-4.21Z"/>
      <path id="パス_621" data-name="パス 621" d="M442.02,55.13c-3.25,0-5.69-3.12-5.69-6.66s2.39-6.63,5.69-6.63,5.69,3.15,5.69,6.63S445.27,55.13,442.02,55.13Zm0-12.51c-2.57,0-3.93,2.81-3.93,5.88s1.35,5.85,3.93,5.85c2.42,0,3.93-2.55,3.93-5.88C445.95,45.51,444.65,42.62,442.02,42.62Z"/>
      <path id="パス_622" data-name="パス 622" d="M456.78,54.64v-.83h.65c1.17,0,1.48-.78,1.48-1.9v-5.9c0-1.22-.36-2.96-2.39-2.96-1.82,0-3.33,1.61-4.06,2.42v6.45c0,1.04.31,1.9,1.53,1.9h.68v.83h-5.69v-.83h.49c1.14,0,1.46-.78,1.46-1.9V44.38c0-.52-.34-1.17-.96-1.17a3.11,3.11,0,0,0-.75.1l-.13-.55,3.38-1.01v2.63c1.3-1.3,2.57-2.52,4.5-2.52,2.18,0,3.46,1.48,3.46,3.8v6.27c0,1.17.26,1.9,1.38,1.9h.68v.83H456.8Z"/>
      <path id="パス_623" data-name="パス 623" d="M468.72,55.13c-1.9,0-2.78-1.14-2.78-3.17V43.17h-2.21v-.83a2.725,2.725,0,0,0,1.74-.49,3.953,3.953,0,0,0,1.43-2.7V38.06h.62v4.29h4.32v.83h-4.32v8.87a1.777,1.777,0,0,0,1.98,1.98,3.149,3.149,0,0,0,2.55-1.35l.44.44a4.971,4.971,0,0,1-3.77,2.03Z"/>
      <path id="パス_624" data-name="パス 624" d="M479.4,55.13c-4.86,0-5.8-4.37-5.8-6.63,0-3.33,1.77-6.66,5.54-6.66a4.746,4.746,0,0,1,4.19,2.29,7.324,7.324,0,0,1,1.14,3.69h-9c-.18,6.21,3.98,6.32,4.47,6.32A4.952,4.952,0,0,0,484,51.72l.6.49a6.011,6.011,0,0,1-5.2,2.91Zm-.31-12.51c-2.94,0-3.38,3.15-3.56,4.34h6.94C482.29,43.61,480.67,42.62,479.09,42.62Z"/>
    </g>
  </g>
</svg>
