<?xml version="1.0" encoding="UTF-8"?>
<svg id="_レイヤー_2" data-name="レイヤー 2" xmlns="http://www.w3.org/2000/svg" viewBox="0 0 346.89 58.55">
  <defs>
    <style>
      .cls-1 {
        fill: none;
        stroke: #000;
        stroke-miterlimit: 10;
      }

      .cls-2, .cls-3 {
        stroke-width: 0px;
      }

      .cls-3 {
        fill: #1c2c5a;
      }
    </style>
  </defs>
  <g id="_レイヤー_1-2" data-name="レイヤー 1">
    <g>
      <g>
        <g>
          <path class="cls-2" d="m45.11,4.5h-10.26v5.1h5.25l.87-.9s.21-.18.33-.18c.06,0,.12.03.42.24l1.38.99c.06.06.33.27.33.48,0,.12-.06.21-.21.33-.24.18-.66.51-.9.69-.06,1.02-.09,2.04-.09,3.72,0,3.36.15,7.38.33,10.74,0,.15.03.78.03.93,0,1.08-1.17,1.11-1.35,1.11-.66,0-.72-.45-.72-.78v-.78h-17.31c0,.27,0,.99-.06,1.2-.12.39-.69.75-1.26.75-.66,0-.66-.48-.66-.66,0-.09.18-2.19.21-2.61.06-1.68.09-7.47.09-9.03,0-4.65,0-5.7-.45-7.62l2.52,1.38h4.29v-5.1h-5.01c-.6,0-2.43.06-3.84.36l-.72-1.32c1.56.15,3.42.24,4.98.24h18.21l1.08-1.38c.24-.33.36-.39.45-.39.15,0,.45.24.57.33l1.68,1.38c.12.12.3.24.3.45,0,.33-.33.33-.48.33Zm-4.59,5.82h-5.67v7.53c0,.57,0,.63.06.72.15.33,1.05.36,1.38.36,1.02,0,1.41,0,1.68-.6.33-.75.48-1.89.57-2.52h.27c.36,1.95.39,2.16.84,2.7.33.39.42.57.42.72,0,.33-.36.75-.69.93-.81.42-2.19.42-2.67.42-3.18,0-3.54-.39-3.54-1.65v-8.61h-3.6c-.12,5.64-1.53,8.67-5.46,11.28l-.24-.21c2.73-2.7,4.02-5.55,4.02-11.07h-4.68v15.15h17.31v-15.15Zm-7.35-5.82h-3.6v5.1h3.6v-5.1Z"/>
          <path class="cls-2" d="m76.25,28.86c-5.19-2.19-8.01-4.5-9.21-5.67-2.4,2.91-5.7,4.98-10.26,5.91v-.12c3.57-1.56,6.84-3.84,9.24-6.93-1.98-2.37-3.06-5.34-3.57-8.4h-.6c-1.77,6.09-4.92,11.85-10.29,15.24v-.12c3.66-3.48,8.22-10.35,9.75-21.03h-5.22c-1.05,0-2.7.12-3.84.36l-.72-1.32c2.25.21,4.44.24,4.98.24h4.89c.24-2.16.36-3.87.36-4.44,0-.66-.09-1.02-.27-1.5l3.06.96c.15.06.42.15.42.42,0,.18-.15.33-.39.48-.12.06-.72.39-.84.45-.09.72-.18,1.56-.48,3.63h11.34l1.02-1.44c.18-.24.3-.39.48-.39.12,0,.18.03.54.33l1.59,1.44c.18.18.3.27.3.45,0,.3-.27.33-.48.33h-14.91c-.36,2.25-.72,3.81-1.08,5.19h7.68l.9-.63c.33-.24.39-.27.48-.27.12,0,.18.06.39.24l1.29,1.14c.06.06.24.24.24.45s-.24.33-.36.39c-.18.09-.96.42-1.11.51-.99,2.58-2.13,5.1-3.72,7.35.3.3.33.33.51.48,2.43,1.89,5.85,3.51,10.74,3.81v.18c-1.23.54-2.19.93-2.85,2.28Zm-13.41-15.21c1.05,3.39,2.43,5.67,3.93,7.38,2.04-3.21,2.82-5.85,3.21-7.38h-7.14Z"/>
          <path class="cls-2" d="m110.69,5.22h-12.66v4.95c1.23.27,7.65,1.71,7.65,5.13,0,.57-.48,1.14-.99,1.14-.57,0-.81-.39-1.62-1.59-1.23-1.83-3.06-3.27-5.04-4.29,0,6.06,0,6.9.18,14.49,0,.48.03.66.03,1.38,0,.66-.06.9-.27,1.08-.3.27-.69.39-1.05.39-.84,0-.84-.54-.84-.84,0-.18.06-1.05.06-1.23.21-5.19.21-6.51.21-14.22v-6.39h-7.11c-.63,0-2.43.09-3.87.36l-.72-1.29c1.56.12,3.45.21,5.01.21h17.16l1.23-1.32c.3-.33.36-.39.48-.39.15,0,.45.24.57.33l1.74,1.32c.12.12.3.27.3.45,0,.33-.33.33-.45.33Z"/>
          <path class="cls-2" d="m143.06,27.54c-.57.21-1.14.27-4.74.27-2.94,0-4.29,0-4.29-2.79,0-2.97.06-4.41.69-15.09,0-.21.03-.42.03-.57h-4.83c-.12,1.35-.33,3.72-1.2,7.26,2.4,1.44,3.36,2.97,3.36,3.72,0,.36-.33.9-1.05.9-.45,0-.6-.18-.9-.54-.99-1.14-1.14-1.32-1.98-2.19-1.83,5.37-6.18,8.91-11.01,10.35l-.09-.18c7.14-3.06,9.03-9.54,9.63-11.55-1.05-.9-2.19-1.65-4.17-2.52v-.21c2.64.63,3.75,1.05,4.53,1.38.51-2.1.81-4.26,1.05-6.42h-5.28c-1.08,0-2.73.12-3.87.36l-.72-1.29c2.25.18,4.44.21,5.01.21h4.89c.06-.96.09-1.89.09-2.85,0-2.4-.09-2.85-.45-4.59l3.27.99c.06.03.24.18.24.39,0,.3-.54.66-1.02.93-.03,1.17-.06,2.64-.27,5.13h4.35l1.17-.84c.15-.12.42-.33.6-.33s.27.06.42.18l1.26.99c.09.09.24.24.24.36,0,.33-.21.42-.39.48-.36.15-.63.3-1.11.6-.12,1.53-.33,4.02-.54,8.04-.09,1.8-.24,4.65-.24,6.42,0,.57.06,1.41.9,1.5.15.03,2.25.03,2.58.03,1.83,0,2.37,0,2.67-.9.15-.42.87-3.81,1.05-4.65h.15c.54,3.84.6,4.26.78,4.56.09.09.48.57.54.66.06.12.12.21.12.36,0,.42-.57,1.11-1.47,1.44Z"/>
          <path class="cls-2" d="m176.96,15.03h-12.3v10.02c0,.72.06,1.35-.48,1.95-.27.33-1.05,1.11-3.06,1.44-.09-.66-.21-1.08-.63-1.47-.18-.15-1.02-.9-3.12-1.5l.06-.21c.99.12,2.82.39,3.84.39,1.26,0,1.71-.27,1.71-1.32v-9.3h-8.01c-1.05,0-2.73.15-3.87.36l-.69-1.29c2.25.18,4.41.21,4.98.21h7.59v-3.03c0-1.98-.24-2.79-.39-3.27l2.25.57c1.86-2.28,1.95-2.43,3.36-4.56h-9.87c-1.05,0-2.7.12-3.84.33l-.72-1.29c2.25.18,4.44.24,4.98.24h9.75l.93-.81c.18-.18.33-.3.57-.3s.48.18.6.27l1.74,1.23c.12.09.33.27.33.51,0,.36-.42.45-.63.48-.42.09-1.05.12-1.59.18-.33.21-.6.45-3.03,2.37-.99.81-1.68,1.23-2.07,1.47.21.12.33.33.33.48,0,.48-.69.96-1.02,1.17v3.96h8.25l1.35-1.47c.3-.33.33-.36.48-.36s.42.21.54.3l1.83,1.47c.15.12.3.27.3.48,0,.27-.24.3-.45.3Z"/>
          <path class="cls-2" d="m209.78,6.48h-21.21c.12,9.51.18,17.37-4.71,21.84l-.18-.15c2.4-3.51,3.33-8.04,3.33-17.31,0-3.48-.15-4.5-.57-6.39l2.46,1.29h7.29c0-2.58-.09-3.09-.66-4.47l2.88.6c.09.03.54.15.54.42,0,.24-.15.36-.3.48-.21.15-.36.24-.78.51v2.46h8.46l1.11-1.2c.3-.33.33-.36.48-.36s.45.21.57.3l1.44,1.2c.15.12.3.27.3.48,0,.27-.24.3-.45.3Zm-1.44,6.21h-9.18v5.61h5.43l.72-.84c.3-.36.36-.39.48-.39.09,0,.39.21.57.36l.96.72c.24.18.48.36.48.51,0,.21-.72.63-1.11.9,0,.33.03,6,.12,7.14.03.39.06.63.06.78,0,.9-.6,1.32-1.17,1.32-.6,0-.66-.33-.66-.57,0-.15.06-.78.06-.93h-11.61c.03.93.03,1.71-1.23,1.71-.3,0-.66-.12-.66-.45,0-.15.09-.66.09-.78.12-1.41.18-2.91.18-4.8,0-2.76-.09-3.57-.27-6.03l2.01,1.35h3.99c0-1.08,0-5.79-.06-6.75-.15-2.79-.36-3.36-.6-3.99l2.64.66c.3.09.51.15.51.39,0,.39-.6.66-.93.81v2.55h5.79l1.14-1.26c.3-.33.33-.36.48-.36.18,0,.36.15.54.33l1.41,1.26c.15.12.27.24.27.45,0,.27-.27.3-.45.3Zm-3.24,6.33h-11.61v7.56h11.61v-7.56Z"/>
          <path class="cls-2" d="m221.53,24.75c-2.37-2-3.6-4.88-3.6-7.75s1.23-5.75,3.6-7.75l.14.22c-2.83,3.15-2.89,6.35-2.89,7.52s.06,4.37,2.89,7.52l-.14.22Z"/>
          <path class="cls-2" d="m229.41,12.74c.12.06.2.16.2.29,0,.14-.17.24-.64.34-.2.26-.62.78-1.28,1.63-.58.74-1.08,1.33-1.49,1.78.08,0,1.35-.06,2.16-.18-.06-.11-.24-.48-.62-.91l.08-.1c1.19.48,2.1,1.2,2.1,1.94,0,.3-.17.66-.58.66-.36,0-.52-.19-.65-.74-.02-.05-.08-.27-.17-.51l-1.38.32c0,.69.05,3.97.05,4.27.02.32.06,1.76.06,2.05,0,.42-.35.69-.73.69-.32,0-.41-.21-.41-.48,0-.26.06-1.31.06-1.54.02-.51.03-2.08.05-4.79-.96.22-1.72.4-1.92.45-.09.16-.24.46-.38.46-.15,0-.24-.19-.27-.29l-.33-1.36c.26.06.7.11,1.08.11.47,0,1.17-.02,1.41-.03,1.03-1.47,1.96-3.51,2.17-4.15.06-.16.09-.45.09-.64l1.35.72Zm-6,10.53c.65-1.55,1.09-3.59,1.06-4.67l1.25.48c.11.05.21.14.21.22,0,.11-.09.19-.49.35-.49,1.49-.93,2.38-1.96,3.67l-.08-.05Zm.58-10.52c.43.11.93.26,1.31.45.43-.9,1.09-2.64,1-3.59l1.44.75c.12.06.18.16.18.24,0,.24-.23.29-.58.35-.71.96-.82,1.1-1.85,2.35.44.29.9.72.9,1.26,0,.37-.23.77-.62.77-.35,0-.44-.19-.77-.98-.35-.83-.7-1.18-1.02-1.52l.02-.1Zm3.59,6.1c.62.29,2.14,1.01,2.14,2.1,0,.51-.35.78-.67.78-.41,0-.49-.32-.68-1.06-.21-.83-.5-1.3-.84-1.76l.05-.06Zm7.26-5.17l.46-.45c.08-.08.17-.18.21-.18.06,0,.17.1.21.14l.73.66c.08.06.14.16.14.24,0,.11-.29.34-.56.54-.09,4.43-.12,6.42-.93,8.05-.56,1.14-1.52,1.55-2.36,1.57-.12-.75-.59-1.25-1.38-1.81l.02-.1c.7.14,1.63.32,2.02.32,1.53,0,1.61-5.28,1.61-6.93,0-.27-.02-1.41-.02-1.68h-4.1c-.74,1.49-1.26,2.03-1.49,2.29l-.09-.06c1.12-2.35,1.64-5.06,1.64-5.89,0-.16-.05-.46-.08-.61l1.64.74c.08.03.17.11.17.22,0,.16-.23.27-.59.45-.17.51-.44,1.31-1,2.48h3.75Zm-4.15,3.06c1.44.62,2.16,1.14,2.16,2,0,.38-.18.75-.61.75-.4,0-.52-.18-.85-1.28-.12-.42-.41-.96-.76-1.38l.06-.1Z"/>
          <path class="cls-2" d="m239.46,12.66l-.14,4.03c.65-.61,1.23-1.1,2.36-1.1,2.19,0,3.24,1.9,3.24,3.67,0,2.32-1.75,4.13-3.75,4.13-1.73,0-2.87-1.36-2.87-2.35,0-.61.36-.99.88-.99.46,0,.79.32.79.83,0,.16-.02.22-.08.48-.03.13-.05.35-.05.45,0,.69.68,1.04,1.29,1.04,1.23,0,2.39-1.23,2.39-3.38,0-2.03-1.02-3.15-2.13-3.15-.61,0-1.54.35-2.37,1.39l-.23-.13.23-6.18h5.29l-.3,1.26h-4.54Z"/>
          <path class="cls-2" d="m247.06,12.66l-.14,4.03c.65-.61,1.23-1.1,2.36-1.1,2.19,0,3.24,1.9,3.24,3.67,0,2.32-1.75,4.13-3.75,4.13-1.73,0-2.87-1.36-2.87-2.35,0-.61.36-.99.88-.99.46,0,.79.32.79.83,0,.16-.02.22-.08.48-.03.13-.05.35-.05.45,0,.69.68,1.04,1.29,1.04,1.23,0,2.39-1.23,2.39-3.38,0-2.03-1.02-3.15-2.13-3.15-.61,0-1.53.35-2.37,1.39l-.23-.13.23-6.18h5.29l-.3,1.26h-4.54Z"/>
          <path class="cls-2" d="m256.8,23.39c-1.05,0-1.93-.77-2.49-1.73-.64-1.1-.93-3.07-.93-4.56,0-3.41,1.38-6,3.42-6,1.57,0,3.42,1.78,3.42,6.15,0,3.92-1.57,6.15-3.42,6.15Zm-1.7-9.62c-.21.8-.35,2.14-.35,3.47,0,3.57.81,5.6,2.05,5.6,1.05,0,1.52-1.47,1.69-2.08.21-.82.36-2.18.36-3.52,0-3.65-.84-5.6-2.05-5.6-1.08,0-1.55,1.57-1.7,2.13Z"/>
          <path class="cls-2" d="m263.26,15.21v1.26c.41-.43,1.2-1.26,2.51-1.26,1.43,0,1.7.98,1.82,1.44.52-.53,1.35-1.44,2.72-1.44s1.95.85,1.95,2.63v3.78c0,.61.3.96.76.96h.29v.51h-3.18v-.51h.27c.53,0,.77-.43.77-.96v-3.68c0-.45-.08-2.03-1.34-2.03-.43,0-1.38.26-2.14,1.39,0,.13.02.26.02.54v3.78c0,.67.35.96.76.96h.44v.51h-3.48v-.51h.44c.41,0,.76-.3.76-.96v-3.68c0-.34-.03-2.03-1.32-2.03-.36,0-1.34.21-2.05,1.26v4.45c0,.67.36.96.76.96h.27v.51h-3.16v-.51h.27c.46,0,.76-.34.76-.96v-4.82c0-.5-.26-.75-.62-.75-.17,0-.32.02-.46.06l-.06-.3,2.23-.59Z"/>
          <path class="cls-2" d="m274.86,24.23l-.3-.32,13.43-14.15.3.32-13.44,14.15Z"/>
          <path class="cls-2" d="m289.24,19.22c1.46-1.52,3.13-4.26,3.56-5.31.12-.32.18-.51.29-.94l1.23,1.01c.06.05.09.13.09.21,0,.22-.24.22-.59.29-.24.37-.55.82-1.09,1.57.18.16.26.21.26.32,0,.1-.06.19-.39.45-.05.69-.05,1.31-.05,1.81,0,.69.05,3.78.05,4.4,0,.83,0,1.28-.67,1.28-.27,0-.53-.1-.53-.45,0-.21.09-1.12.09-1.3.05-.98.03-1.39.06-5.04-1.09,1.17-1.93,1.65-2.23,1.82l-.06-.11Zm.06-4.69c2.13-2.1,3.36-4.19,3.53-4.87l1.14.86s.12.11.12.19c0,.18-.06.19-.64.32-1.32,1.86-2.78,2.88-4.07,3.62l-.08-.13Zm12.11.85l.55-.8c.12-.19.18-.21.23-.21.09,0,.15.06.29.18l.9.8c.09.08.15.14.15.24,0,.16-.12.18-.23.18h-5.41l1.41.48c.09.03.2.08.2.19,0,.21-.36.43-.47.48v1.58h1.57l.55-.69c.12-.14.15-.19.24-.19.08,0,.12.03.29.18l.76.67c.08.06.15.13.15.24,0,.14-.12.18-.23.18h-3.33c0,.22-.02,3.44-.02,3.52.35.05,1.17.18,2.26.18,1.4,0,2.1-.21,2.45-.29l.02.06c-.24.21-.74.64-.88,1.55-.24.02-.5.05-.87.05-4.89,0-5.7-2.9-6.05-4.21-.38,1.1-1.09,3.03-3.05,4.13l-.05-.06c2.25-2.67,2.48-5.78,2.48-6.45,0-.37-.03-.56-.06-.72l1.55.53c.09.03.17.08.17.22,0,.08-.03.13-.08.18-.06.05-.38.21-.44.24-.15.75-.27,1.14-.41,1.57.67,1.57,1.49,2.37,1.96,2.66,0-4.21,0-4.48-.03-5.14-.02-.19-.11-.98-.12-1.14h-1.6c-.38,0-1.11.02-1.79.14l-.3-.64c1.05.1,2.13.11,2.34.11h1.47c0-.94,0-1.95-.02-2.82h-1.17c-.27,0-1.05,0-1.78.14l-.3-.62c.94.08,1.88.1,2.34.1h.91c-.03-1.54-.05-1.66-.27-2.48l1.58.5c.12.03.21.08.21.19s-.38.46-.46.53v1.26h1.49l.59-.77c.09-.11.14-.19.24-.19s.15.05.27.16l.81.77c.08.08.15.14.15.26,0,.14-.14.16-.23.16h-3.34v2.82h2.4Z"/>
          <path class="cls-2" d="m318.45,15.62h-6.78l.53.13c.32.08.38.08.38.22,0,.13-.05.19-.38.38,0,.45.06,2.46.06,2.87,0,.96,0,1.44-1.6,1.92-.17-.67-.62-1.12-1.29-1.47v-.1c.2,0,1.08.06,1.26.06.55,0,.55-.02.56-.59.02-.75,0-2.58-.02-3.43h-4.13c-.38,0-1.11.02-1.79.14l-.3-.64c1.03.1,2.11.11,2.34.11h.71c0-2.83,0-3.14-.23-4.03l1.49.43c.23.06.29.13.29.27,0,.13-.05.18-.47.48v2.85h2.08c0-3.6,0-4-.03-4.55-.02-.35-.06-.72-.17-1.57l1.4.4c.17.05.29.1.29.27,0,.11,0,.18-.46.45v2.06h2.19l.59-.91c.06-.08.15-.21.24-.21.08,0,.18.1.27.18l.97.91c.09.1.15.14.15.24,0,.16-.12.18-.23.18h-4.19v2.54h4.18l.71-.96c.09-.13.18-.21.24-.21.08,0,.18.08.27.18l.91.96c.11.11.15.18.15.24,0,.16-.12.18-.23.18Zm-8.63,1.94c-.06.03-.24.08-.38.13-1.02,1.79-2.43,3.15-4.12,4.19l-.06-.08c1.63-1.81,2.74-3.94,2.95-4.47.12-.29.2-.58.29-.96l1.19.66c.14.08.26.14.26.34,0,.08-.05.16-.12.19Zm4.65,2.85c-2.43,2.24-4.83,3.7-8.54,3.83l-.02-.11c2.26-.59,4.57-1.52,6.75-3.63.5-.48,1.03-1.01,1.35-1.58l.93.96c.12.13.18.21.18.3,0,.19-.06.19-.65.24Zm2.64.42c-.44,0-.65-.35-.94-.85-.96-1.65-1.73-2.4-2.75-3.17l.06-.1c2.72.69,4.24,2.45,4.24,3.43,0,.34-.24.69-.61.69Z"/>
          <path class="cls-2" d="m326.61,11.4v.85c-2.42,3.92-3.27,6.15-3.46,9.72-.03.42-.08,1.42-.85,1.42-.38,0-.78-.34-.78-.88,0-1.14,1.06-4.5,4.27-9.84h-2.6c-2.2,0-2.54,1.07-2.87,2.1l-.46-.11.62-3.25h6.12Z"/>
          <path class="cls-2" d="m332.47,12.04c-1.26,2.72-3.56,4.77-4.71,5.44l-.08-.11c2.13-2.54,3.33-4.79,3.68-5.86.14-.4.2-.72.24-1.02l1.31.93c.08.05.2.14.2.26,0,.19-.4.3-.64.37Zm5.52,5.01c-.15,5.76-.46,6.93-3.19,7.19-.06-1.01-.81-1.54-1.14-1.76l.02-.11c.64.14,1.29.27,1.76.27.73,0,1.02-.18,1.25-1.63.18-1.18.27-3.86.23-4.61h-3.07c-.09,2.51-1.11,6.85-5.9,7.78l-.03-.13c3.09-1.5,4.65-3.92,4.8-7.65h-.44c-.38,0-1.11.02-1.79.16l-.29-.64c.94.08,1.87.1,2.33.1h4.3l.41-.38c.09-.1.18-.18.27-.18.08,0,.15.08.21.14l.61.7c.08.08.14.18.14.26,0,.14-.05.18-.47.5Zm2.77-.02c-1.63-.74-3.43-2.46-4.57-6.08h-1.22c-.76,0-1.06.06-1.28.1l-.2-.56c.68.06,1.35.08,1.66.08h.76l.49-.51c.14-.14.2-.18.27-.18.09,0,.15.08.26.18l.56.58c.09.08.12.14.12.24,0,.32-.7.45-.97.5.73,2.06,3.25,4.11,5.58,4.29l.02.16c-.85.27-1.2.78-1.47,1.22Z"/>
          <path class="cls-2" d="m343.29,24.75l-.14-.22c2.83-3.15,2.89-6.35,2.89-7.52s-.06-4.37-2.89-7.52l.14-.22c2.37,2,3.6,4.88,3.6,7.75s-1.23,5.75-3.6,7.75Z"/>
        </g>
        <rect class="cls-3" width="7" height="56.49"/>
      </g>
      <g>
        <g>
          <rect class="cls-1" x="19.09" y="34.6" width="84.39" height="23.44" rx="5" ry="5"/>
          <g>
            <path class="cls-2" d="m44.46,43.6h-.29c-.14.1-.21.16-.84.69-.08.06-.67.48-.79.58l-.06-.06c.35-.9.49-1.47.59-1.94h-9.48c-.02,1.41-.64,2.74-1.44,2.74-.44,0-.62-.38-.62-.67,0-.4.26-.67.79-1.22.33-.35.93-1.22,1.02-2.1h.08c.08.26.15.5.18.86h6.41c.32-.5,1.23-2.43,1.12-3.63l1.47.82c.15.08.23.16.23.26,0,.14-.15.19-.7.29-.87,1.15-.97,1.28-1.81,2.27h2.61l.46-.37c.14-.11.24-.19.33-.19s.17.08.33.21l.9.75c.12.1.18.22.18.34,0,.32-.36.38-.68.38Zm-1.95,6.42c.02.21.02.35.03,1.63,0,.14.06.91.06,1.09,0,.64-.56.7-.7.7-.46,0-.43-.38-.4-.67h-6.28c0,.24.02.77-.65.77-.38,0-.46-.21-.44-.53.03-.64.09-1.97.09-2.59,0-.91-.08-1.41-.14-1.84l1.29.74h1.91c.23-.56.4-1.38.43-1.89h-1.63c0,.26.02.74-.61.74-.46,0-.46-.35-.46-.5,0-.4.09-2.16.09-2.53,0-.58-.02-.85-.12-1.3l1.31.62h3.98l.38-.43c.11-.11.17-.16.23-.16s.15.05.26.13l.56.45c.11.1.17.16.17.24,0,.13-.09.21-.46.5-.02.32.08,1.78.08,2.08,0,.43-.27.66-.65.66-.26,0-.44-.14-.43-.5h-1.38c-.29.51-.93,1.46-1.31,1.89h3.65l.33-.45c.08-.11.15-.18.23-.18s.17.06.27.14l.58.45c.09.08.17.18.17.26,0,.11-.09.22-.46.48Zm-6.82-7.99c-.41,0-.52-.35-.62-.75-.2-.8-.41-1.25-.85-1.89l.06-.08c.79.42,2.01,1.06,2.01,2.06,0,.42-.29.66-.59.66Zm5.84,7.67h-6.29v2.69h6.29v-2.69Zm-1.08-4.85h-4.36v2.19h4.36v-2.19Zm-1.9-3.03c-.53,0-.64-.51-.75-1.06-.12-.61-.27-1.01-.71-1.71l.06-.08c1.26.59,1.98,1.41,1.98,2.15,0,.11-.03.7-.58.7Z"/>
            <path class="cls-2" d="m60.28,42.48h-4.74l.79.5c.06.05.15.14.15.22,0,.19-.29.22-.56.24-.43.48-1.05,1.04-1.34,1.3h2.6l.59-.7c.08-.1.17-.19.24-.19s.21.1.27.16l.7.7c.08.08.14.14.14.24,0,.16-.12.18-.23.18h-4.85c0,.19.02,1.07.02,1.25h2.14l.53-.58c.09-.1.18-.19.26-.19s.15.08.29.18l.74.54c.08.06.17.14.17.26,0,.14-.12.18-.23.18h-3.91v1.39h3.91l.68-.82c.11-.13.15-.19.24-.19.11,0,.2.1.27.16l.84.82c.08.08.15.14.15.26,0,.14-.14.16-.24.16h-5.55c1.05,1.31,3.34,2.9,5.93,3.09l.02.1c-.49.24-1.02.51-1.4,1.3-1.96-.77-3.86-2.59-4.8-4.48h-.05c.02,1.46.03,1.74.03,2.05.02.37.09,1.95.09,2.29,0,.48-.46.66-.77.66-.41,0-.44-.26-.44-.5,0-.35.05-.94.06-1.31.02-.53.02-.77.05-2.99-1.09,1.54-3.13,3.52-6.03,4.32l-.03-.1c2.05-1.15,3.45-2.45,4.86-4.42h-2.69c-.15,0-1.09,0-1.79.14l-.3-.64c1.02.1,2.05.11,2.34.11h3.65v-1.39h-2.66c-.39,0-1.11.02-1.79.14l-.3-.64c1.05.1,2.14.11,2.34.11h2.42v-1.25h-3.19c-.14,0-1.08,0-1.78.14l-.3-.64c1.02.1,2.08.11,2.34.11h4.13c.2-.37.67-1.5.76-2.26h-4.32c.88.3,1.69.78,1.69,1.55,0,.46-.36.64-.61.64-.35,0-.4-.1-.76-1.06-.08-.21-.27-.72-.62-1.14h-1.58c-.38,0-1.11,0-1.79.14l-.29-.64c1.03.1,2.11.11,2.33.11h2.86c-.05-2.3-.05-2.48-.26-3.3l1.47.45c.14.05.21.1.21.24,0,.18-.17.27-.46.38v2.22h1.12c0-2.03,0-2.5-.32-3.3l1.55.43c.09.03.26.08.26.24,0,.24-.36.37-.5.42v2.21h.65c.35-.7.73-1.89.79-2.24.06-.27.08-.51.08-.77l1.35.72c.09.05.18.11.18.22,0,.24-.36.29-.53.3-.47.53-1.28,1.44-1.58,1.76h2.39l.65-.72c.12-.13.18-.21.24-.21.09,0,.2.08.3.18l.79.7c.09.08.17.14.17.26,0,.14-.14.18-.23.18Zm-9.88-.74c-.36,0-.47-.26-.76-.98-.05-.11-.29-.72-.88-1.26l.06-.11c.61.16,2.13.59,2.13,1.71,0,.21-.11.64-.55.64Z"/>
            <path class="cls-2" d="m66.45,41.36c-.02.58-.03.94-.03,1.71,0,1.68.09,5.31.12,6,0,.21.05.58.05.78,0,.61-.65.64-.73.64-.41,0-.41-.11-.38-1.17h-1.9c0,.11.05,1.42.05,1.46,0,.58-.59.69-.76.69-.38,0-.38-.3-.38-.5,0-.18.05-.96.05-1.12.05-1.22.06-5.71.06-6.08,0-2.38-.05-2.83-.18-3.95l1.32.67h1.55l.44-.42c.17-.14.2-.21.27-.21s.15.05.24.14l.61.58c.06.06.12.16.12.26,0,.14-.3.35-.52.51Zm-.96-.48h-1.91v3.76h1.91v-3.76Zm0,4.15h-1.91v3.92h1.91v-3.92Zm9.94-.3h-6.69c-.27,0-1.05,0-1.79.14l-.29-.64c.94.08,1.87.11,2.33.11h1.28v-2.45h-.67c-.15,0-1.08,0-1.79.14l-.29-.64c1,.1,2.07.11,2.33.11h.43c0-1.62-.05-1.92-.26-2.61l1.57.48c.17.05.27.13.27.26s-.05.16-.49.48c-.02.38-.02.48-.03,1.39h1.49l.56-.69c.11-.14.17-.19.24-.19.09,0,.17.05.27.16l.75.69c.08.06.15.13.15.24,0,.14-.14.18-.23.18h-3.25v2.45h2.31l.58-.74c.12-.16.17-.21.23-.21.09,0,.14.06.29.19l.81.72c.12.11.14.19.14.24,0,.16-.14.18-.23.18Zm-.03,2.93h-2.52c0,.32.05,3.33.05,3.84,0,.61,0,1.6-1.96,1.98-.14-.53-.3-.98-1.4-1.6l.03-.11c.3.03,1.25.11,1.49.11.68,0,.78-.14.79-.46.02-.29.02-3.51,0-3.76h-2.95c-.38,0-1.11.02-1.79.14l-.29-.64c1.03.1,2.11.11,2.33.11h2.71c-.02-.62-.05-1.74-.2-2.21l1.37.35c.2.05.29.08.29.21,0,.11-.05.14-.44.46-.02.3-.02.4-.02,1.18h.71l.62-.75c.12-.14.18-.19.26-.19s.14.03.26.16l.74.75c.11.1.15.14.15.24,0,.14-.12.18-.23.18Zm-5.81,3.22c-.46,0-.55-.45-.62-.88-.17-1.01-.47-1.47-.71-1.78l.06-.1c1.49.62,1.91,1.55,1.91,2.05,0,.43-.32.7-.64.7Z"/>
            <path class="cls-2" d="m83.07,40.83v1.82c0,.26.06,1.49.06,1.66,0,.38-.36.62-.74.62-.41,0-.36-.38-.33-.58h-2.6v4.02c0,.58.06,3.36.06,3.99,0,.42-.15.9-.77.9-.33,0-.44-.21-.44-.42,0-.1.05-.51.05-.61.12-1.81.12-2.8.12-9.81,0-2.29,0-2.34-.17-3.2l1.41.7h2.19l.39-.38c.09-.08.15-.16.21-.16s.14.06.18.1l.79.61c.06.05.11.11.11.21,0,.11-.09.21-.52.53Zm-1-.51h-2.61v1.6h2.61v-1.6Zm0,1.98h-2.61v1.68h2.61v-1.68Zm4.21,4.48c0,.75,0,1.97.05,2.93,0,.14.06.8.06.93,0,.69-.56.74-.76.74s-.4-.05-.32-.8h-2.96c.03.38.09,1.04-.71,1.04-.33,0-.35-.27-.35-.45,0-.1.03-.51.05-.69.06-.91.06-2.62.06-2.77,0-.86,0-1.44-.11-2.26l1.11.58h2.89l.26-.35c.08-.11.17-.21.29-.21.08,0,.17.06.24.13l.55.5c.08.06.14.13.14.21,0,.11-.14.26-.47.48Zm-.97-.37h-2.96v1.68h2.96v-1.68Zm0,2.07h-2.96v1.71h2.96v-1.71Zm4.33-7.6c0,1.55.03,8.42.03,9.81s0,1.82-.61,2.27c-.09.06-.52.38-1.15.53-.12-.56-.26-1.17-1.64-1.73l.03-.11c.26.02,1.64.1,1.79.1.14,0,.43,0,.52-.19.06-.14.06-1.46.06-1.74,0-.86-.02-4.67-.02-5.44h-2.87c.02.45-.3.66-.71.66-.21,0-.35-.13-.35-.38,0-.7.05-3.75.05-4.35,0-.27-.03-.56-.08-1.02l1.26.67h2.57l.37-.43c.06-.06.18-.18.27-.18s.18.05.24.11l.73.66c.08.08.12.14.12.22,0,.13-.12.24-.61.56Zm-.99-.56h-2.89v1.6h2.89v-1.6Zm0,1.98h-2.89v1.68h2.89v-1.68Z"/>
          </g>
        </g>
        <g>
          <path class="cls-2" d="m119.92,53.53h-5.97v-.43c.3-1.01,1.02-2.13,2.23-3.59,2.23-2.72,2.99-3.63,2.99-5.23,0-1.2-.73-2.19-2.02-2.19-1.06,0-1.7.67-1.7,1.25,0,.05,0,.26.15.5.2.32.32.5.32.8,0,.48-.36.9-.82.9-.53,0-.87-.53-.87-1.12,0-1.17,1.08-2.87,3.27-2.87,1.88,0,3.04,1.25,3.04,2.98,0,1.62-.88,2.5-2.25,3.73-.52.45-2.52,2.26-3.28,4.02h2.1c2.13,0,2.63-.86,3.09-2.19l.46.18-.73,3.28Z"/>
          <path class="cls-2" d="m126.13,41.54h.62v8.13h1.72v.51h-1.72v1.86c0,.7.33.98,1.06.98h.24v.51h-3.86v-.51h.24c.71,0,1.06-.26,1.06-.98v-1.86h-4.09v-.56l4.71-8.08Zm-.62,2.11l-3.51,6.02h3.51v-6.02Z"/>
          <path class="cls-2" d="m133.99,42.66c-.02.58-.03.94-.03,1.71,0,1.68.09,5.31.12,6,0,.21.05.58.05.78,0,.61-.65.64-.73.64-.41,0-.41-.11-.38-1.17h-1.9c0,.11.05,1.42.05,1.46,0,.58-.59.69-.76.69-.38,0-.38-.3-.38-.5,0-.18.05-.96.05-1.12.05-1.22.06-5.71.06-6.08,0-2.39-.05-2.83-.18-3.95l1.32.67h1.55l.44-.42c.17-.14.2-.21.27-.21s.15.05.24.14l.61.58c.06.06.12.16.12.26,0,.14-.3.35-.52.51Zm-.96-.48h-1.91v3.76h1.91v-3.76Zm0,4.15h-1.91v3.92h1.91v-3.92Zm9.94-.3h-6.69c-.27,0-1.05,0-1.79.14l-.29-.64c.94.08,1.87.11,2.33.11h1.28v-2.45h-.67c-.15,0-1.08,0-1.79.14l-.29-.64c1,.1,2.07.11,2.33.11h.43c0-1.62-.05-1.92-.26-2.61l1.57.48c.17.05.27.13.27.26s-.05.16-.49.48c-.02.38-.02.48-.03,1.39h1.49l.56-.69c.11-.14.17-.19.24-.19.09,0,.17.05.27.16l.75.69c.08.06.15.13.15.24,0,.14-.14.18-.23.18h-3.25v2.45h2.31l.58-.74c.12-.16.17-.21.23-.21.09,0,.14.06.29.19l.81.72c.12.11.14.19.14.24,0,.16-.14.18-.23.18Zm-.03,2.93h-2.52c0,.32.05,3.33.05,3.84,0,.61,0,1.6-1.96,1.98-.14-.53-.3-.98-1.4-1.6l.03-.11c.3.03,1.25.11,1.49.11.68,0,.78-.14.79-.46.02-.29.02-3.51,0-3.76h-2.95c-.38,0-1.11.02-1.79.14l-.29-.64c1.03.1,2.11.11,2.33.11h2.71c-.02-.62-.05-1.74-.2-2.21l1.37.35c.2.05.29.08.29.21,0,.11-.05.14-.44.46-.02.3-.02.4-.02,1.18h.71l.62-.75c.12-.14.18-.19.26-.19s.14.03.26.16l.74.75c.11.1.15.14.15.24,0,.14-.12.18-.23.18Zm-5.81,3.22c-.46,0-.55-.45-.62-.88-.17-1.01-.47-1.47-.71-1.78l.06-.1c1.49.62,1.91,1.55,1.91,2.05,0,.43-.32.7-.64.7Z"/>
          <path class="cls-2" d="m150.6,42.13v1.82c0,.26.06,1.49.06,1.66,0,.38-.36.62-.74.62-.41,0-.36-.38-.33-.58h-2.6v4.02c0,.58.06,3.36.06,3.99,0,.42-.15.9-.77.9-.33,0-.44-.21-.44-.42,0-.1.05-.51.05-.61.12-1.81.12-2.8.12-9.81,0-2.29,0-2.34-.17-3.2l1.41.7h2.19l.39-.38c.09-.08.15-.16.21-.16s.14.06.18.1l.79.61c.06.05.11.11.11.21,0,.11-.09.21-.52.53Zm-1-.51h-2.61v1.6h2.61v-1.6Zm0,1.98h-2.61v1.68h2.61v-1.68Zm4.21,4.48c0,.75,0,1.97.05,2.93,0,.14.06.8.06.93,0,.69-.56.74-.76.74s-.39-.05-.32-.8h-2.96c.03.38.09,1.04-.71,1.04-.33,0-.35-.27-.35-.45,0-.1.03-.51.05-.69.06-.91.06-2.62.06-2.77,0-.86,0-1.44-.11-2.26l1.11.58h2.89l.26-.35c.08-.11.17-.21.29-.21.08,0,.17.06.24.13l.55.5c.08.06.14.13.14.21,0,.11-.14.26-.47.48Zm-.97-.37h-2.96v1.68h2.96v-1.68Zm0,2.06h-2.96v1.71h2.96v-1.71Zm4.33-7.6c0,1.55.03,8.42.03,9.81s0,1.82-.61,2.27c-.09.06-.52.38-1.15.53-.12-.56-.26-1.17-1.64-1.73l.03-.11c.26.02,1.64.1,1.79.1.14,0,.43,0,.52-.19.06-.14.06-1.46.06-1.74,0-.86-.02-4.67-.02-5.44h-2.87c.02.45-.3.66-.71.66-.21,0-.35-.13-.35-.38,0-.7.05-3.75.05-4.35,0-.27-.03-.56-.08-1.02l1.26.67h2.57l.37-.43c.06-.06.18-.18.27-.18s.18.05.24.11l.73.66c.08.08.12.14.12.22,0,.13-.12.24-.61.56Zm-.99-.56h-2.89v1.6h2.89v-1.6Zm0,1.98h-2.89v1.68h2.89v-1.68Z"/>
          <path class="cls-2" d="m172.8,44.9h-.29c-.14.1-.21.16-.84.69-.08.06-.67.48-.79.58l-.06-.06c.35-.9.49-1.47.59-1.94h-9.48c-.02,1.41-.64,2.74-1.44,2.74-.44,0-.62-.38-.62-.67,0-.4.26-.67.79-1.22.33-.35.93-1.22,1.02-2.1h.08c.08.26.15.5.18.86h6.41c.32-.5,1.23-2.43,1.12-3.63l1.47.82c.15.08.23.16.23.26,0,.14-.15.19-.7.29-.87,1.15-.97,1.28-1.81,2.27h2.61l.46-.37c.14-.11.24-.19.33-.19s.17.08.33.21l.9.75c.12.1.18.22.18.34,0,.32-.36.38-.68.38Zm-1.95,6.42c.02.21.02.35.03,1.63,0,.14.06.91.06,1.09,0,.64-.56.7-.7.7-.46,0-.43-.38-.39-.67h-6.28c0,.24.02.77-.65.77-.38,0-.46-.21-.44-.53.03-.64.09-1.97.09-2.59,0-.91-.08-1.41-.14-1.84l1.29.74h1.91c.23-.56.4-1.38.43-1.89h-1.63c0,.26.02.74-.61.74-.46,0-.46-.35-.46-.5,0-.4.09-2.16.09-2.53,0-.58-.02-.85-.12-1.3l1.31.62h3.98l.38-.43c.11-.11.17-.16.23-.16s.15.05.26.13l.56.45c.11.1.17.16.17.24,0,.13-.09.21-.46.5-.02.32.08,1.78.08,2.08,0,.43-.27.66-.65.66-.26,0-.44-.14-.43-.5h-1.38c-.29.51-.93,1.46-1.31,1.89h3.65l.33-.45c.08-.11.15-.18.23-.18s.17.06.27.14l.58.45c.09.08.17.18.17.26,0,.11-.09.22-.46.48Zm-6.82-7.99c-.41,0-.52-.35-.62-.75-.2-.8-.41-1.25-.85-1.89l.06-.08c.79.42,2.01,1.06,2.01,2.06,0,.42-.29.66-.59.66Zm5.84,7.67h-6.29v2.69h6.29v-2.69Zm-1.08-4.85h-4.36v2.19h4.36v-2.19Zm-1.9-3.03c-.53,0-.64-.51-.75-1.06-.12-.61-.27-1.01-.71-1.71l.06-.08c1.26.59,1.98,1.41,1.98,2.14,0,.11-.03.7-.58.7Z"/>
          <path class="cls-2" d="m188.62,43.78h-4.74l.79.5c.06.05.15.14.15.22,0,.19-.29.22-.56.24-.43.48-1.05,1.04-1.34,1.3h2.6l.59-.7c.08-.1.17-.19.24-.19s.21.1.27.16l.7.7c.08.08.14.14.14.24,0,.16-.12.18-.23.18h-4.85c0,.19.02,1.07.02,1.25h2.14l.53-.58c.09-.1.18-.19.26-.19s.15.08.29.18l.74.54c.08.06.17.14.17.26,0,.14-.12.18-.23.18h-3.91v1.39h3.91l.68-.82c.11-.13.15-.19.24-.19.11,0,.2.1.27.16l.84.82c.08.08.15.14.15.26,0,.14-.14.16-.24.16h-5.55c1.05,1.31,3.34,2.9,5.93,3.09l.02.1c-.49.24-1.02.51-1.4,1.3-1.96-.77-3.86-2.59-4.8-4.48h-.05c.02,1.46.03,1.74.03,2.05.02.37.09,1.95.09,2.29,0,.48-.46.66-.77.66-.41,0-.44-.26-.44-.5,0-.35.05-.94.06-1.31.02-.53.02-.77.05-2.99-1.09,1.54-3.13,3.52-6.03,4.32l-.03-.1c2.05-1.15,3.45-2.45,4.86-4.42h-2.69c-.15,0-1.09,0-1.79.14l-.3-.64c1.02.1,2.05.11,2.34.11h3.65v-1.39h-2.66c-.4,0-1.11.02-1.79.14l-.3-.64c1.05.1,2.14.11,2.34.11h2.42v-1.25h-3.19c-.14,0-1.08,0-1.78.14l-.3-.64c1.02.1,2.08.11,2.34.11h4.13c.2-.37.67-1.5.76-2.26h-4.32c.88.3,1.69.78,1.69,1.55,0,.46-.36.64-.61.64-.35,0-.4-.1-.76-1.06-.08-.21-.27-.72-.62-1.14h-1.58c-.38,0-1.11,0-1.79.14l-.29-.64c1.03.1,2.11.11,2.33.11h2.86c-.05-2.3-.05-2.48-.26-3.3l1.47.45c.14.05.21.1.21.24,0,.18-.17.27-.46.38v2.22h1.12c0-2.03,0-2.5-.32-3.3l1.55.43c.09.03.26.08.26.24,0,.24-.36.37-.5.42v2.21h.65c.35-.7.73-1.89.79-2.24.06-.27.08-.51.08-.77l1.35.72c.09.05.18.11.18.22,0,.24-.36.29-.53.3-.47.53-1.28,1.44-1.58,1.76h2.39l.65-.72c.12-.13.18-.21.24-.21.09,0,.2.08.3.18l.79.7c.09.08.17.14.17.26,0,.14-.14.18-.23.18Zm-9.88-.74c-.36,0-.47-.26-.76-.98-.05-.11-.29-.72-.88-1.26l.06-.11c.61.16,2.13.59,2.13,1.71,0,.21-.11.64-.55.64Z"/>
          <path class="cls-2" d="m197.29,53.14l-.49-.51,4.94-5.19-4.94-5.19.49-.51,4.92,5.2,4.92-5.2.49.51-4.94,5.19,4.94,5.19-.49.51-4.92-5.2-4.92,5.2Zm2.05-5.7c0,.72-.56,1.33-1.26,1.33s-1.28-.59-1.28-1.33.58-1.33,1.28-1.33,1.26.61,1.26,1.33Zm4.13-4.35c0,.7-.55,1.33-1.26,1.33s-1.26-.61-1.26-1.33.58-1.34,1.26-1.34,1.26.61,1.26,1.34Zm0,8.71c0,.72-.55,1.34-1.26,1.34s-1.26-.61-1.26-1.34.58-1.33,1.26-1.33,1.26.61,1.26,1.33Zm4.15-4.35c0,.72-.56,1.33-1.28,1.33s-1.26-.59-1.26-1.33.58-1.33,1.26-1.33,1.28.61,1.28,1.33Z"/>
          <path class="cls-2" d="m221.45,47.06l.81-.96c.09-.11.14-.19.24-.19.09,0,.17.1.26.18l1.09,1.04c.08.08.15.14.15.24,0,.16-.14.18-.23.18h-10.94c-.14,0-1.08,0-1.79.14l-.29-.74c1.14.11,2.23.11,2.33.11h8.37Z"/>
          <path class="cls-2" d="m232.05,46.9l.53-.64c.09-.1.18-.21.24-.21.09,0,.18.08.29.18l.7.64c.09.08.15.14.15.24,0,.14-.12.18-.23.18h-5.71c-.27,0-1.05,0-1.79.14l-.29-.64c1.09.1,2.07.11,2.33.11h1.63c.47-1.07.88-2.5.9-3.65l1.34.56c.11.05.21.18.21.29,0,.18-.2.3-.53.43-.53.8-1.14,1.68-1.69,2.37h1.93Zm-.27-4.31l.5-.62c.09-.11.15-.21.23-.21s.18.1.29.19l.65.59c.08.08.15.16.15.26,0,.14-.14.18-.23.18h-4.94c-.26,0-1.05,0-1.78.14l-.3-.64c.77.06,1.55.11,2.34.11h.56c0-1.28-.08-1.62-.27-2.3l1.56.43c.15.05.3.11.3.26s-.14.22-.53.43c-.03.38-.05.77-.05,1.18h1.5Zm-.58,6.36l.33-.38c.06-.08.17-.19.24-.19s.2.1.26.14l.58.46c.09.06.2.18.2.29,0,.13-.12.26-.38.45-.02.58-.02,1.07,0,1.95,0,.24.03,1.34.03,1.57,0,.67-.49.8-.71.8-.29,0-.36-.16-.36-.4,0-.11.02-.3.03-.42h-3.13c.02.18.03.22.03.32,0,.53-.29.78-.76.78-.33,0-.38-.26-.38-.43,0-.51.08-3.15.08-3.75,0-.77-.05-1.31-.14-1.9l1.34.7h2.75Zm-3.66-5.31c.46.22,1.76.88,1.76,2,0,.59-.35.77-.61.77-.36,0-.56-.21-.64-.83-.06-.48-.27-1.41-.58-1.87l.06-.06Zm.73,5.7v3.51h3.16v-3.51h-3.16Zm9.12-7.92l.36-.34c.11-.1.18-.18.26-.18s.17.08.26.14l.77.64c.06.05.17.21.17.3,0,.18-.18.27-.56.48-.35.59-1.88,3.25-2.19,3.79.68.43,1.72,1.14,2.28,2.1.56.96.74,1.78.74,2.46,0,1.82-1.78,2.26-2.52,2.45-.06-.34-.3-1.1-1.14-1.59l.03-.14c.47.06.84.11,1.29.11,1.05,0,1.23-.56,1.23-1.14,0-.99-.46-2.85-2.23-4.13.47-1.34.84-2.4,1.29-4.59h-2.05c-.02.69.03,8.68.08,11.44,0,.22.02.59.02.77,0,.64-.3.85-.74.85s-.43-.42-.43-.83c0-.14.02-.5.02-.69.08-2.39.08-3.94.08-5.99,0-1.62,0-5.41-.15-6.67l1.26.74h1.88Z"/>
          <path class="cls-2" d="m251.12,46.93c-1.47.3-2.89.88-4.27,1.5.05.27.15.96.15,1.89,0,.34,0,1.39-.55,1.39s-.56-.91-.56-1.18c0-.24,0-1.33-.02-1.57-1.02.67-2.17,1.84-2.17,2.71,0,1.22,1.99,1.22,2.43,1.22.82,0,1.75-.16,2.33-.27.29-.05.38-.06.53-.06.65,0,.91.42.91.7s-.27.46-.47.51c-.27.06-1.63.16-2.33.16-.84,0-4.03,0-4.03-1.98,0-1.5,1.87-2.96,2.74-3.57-.14-.85-.35-1.65-1.31-1.65s-1.66.96-1.9,1.38c-.68,1.12-.74,1.14-1,1.14-.36,0-.44-.27-.44-.66,0-.58.17-.72.33-.88,1.08-.98,1.85-2.27,2.6-3.57-.46.08-.9.16-1.35.16-1.03,0-1.54-.59-1.5-1.42.47.46.9.59,1.57.59s1.52-.14,1.76-.19c.21-.37.84-1.55.84-1.82,0-.22-.33-.56-1.03-.66.17-.18.4-.38.93-.38.74,0,1.38.59,1.38.93,0,.22-.14.42-.24.56-.32.4-.36.46-.79,1.12.33-.1,1.79-.74,2.11-.74.36,0,.81.22.81.54,0,.22-.17.34-.32.4-.7.32-2.37.61-3.24.75-1.37,2.08-1.5,2.3-1.7,2.69.35-.18.82-.43,1.55-.43,1.4,0,1.69.96,1.85,1.55,1.03-.64,2.52-1.39,2.96-1.62.27-.14.38-.26.38-.46s-.12-.3-.47-.58c.11-.03.17-.05.32-.05.55,0,1.73.46,1.73,1.36,0,.37-.2.43-.52.5Z"/>
          <path class="cls-2" d="m257.77,42.1c-.2.42-.61,1.3-1.02,2.03-.65,1.17-.73,1.3-.81,1.46.77.64,1.85,1.65,1.85,3.28,0,1.2-.62,1.81-1.75,2.03-.09-.58-.36-1.17-.82-1.44l.03-.13c.26.05.52.1.79.1.43,0,.7-.08.7-1.07,0-1.07-.4-2-1.16-2.74.24-.69.65-1.9,1.06-4.11h-1.63c-.02.9-.02,5.62-.02,6.9,0,.83.08,5.07.08,5.28,0,.78-.71.78-.79.78-.39,0-.41-.34-.41-.45,0-.06.02-.22.02-.32.12-1.78.17-3.2.17-8.63,0-3.15-.14-3.89-.29-4.67l1.38.72h1.55l.33-.34c.09-.1.17-.16.24-.16.06,0,.14.06.24.16l.71.64c.06.05.09.16.09.22,0,.21-.12.3-.58.45Zm1.73,8.87c-.82,1.09-1.69,1.92-3.16,2.72l-.03-.1c1.14-1.22,2.26-2.58,2.45-3.87l1.17.72c.14.08.2.13.2.24,0,.27-.43.29-.62.29Zm6.47-4.79c-1.73-.94-3.43-2.99-4.22-4.64l-.08.02c-1.28,2.05-2.61,3.68-4.59,4.95l-.06-.13c1.58-1.49,3.43-4.47,3.68-6.03l1.38.64c.09.05.14.14.14.22,0,.19-.15.24-.23.27,2.29,2.79,4.03,3.3,5.24,3.52v.1c-.27.11-.76.29-1.26,1.09Zm-.33,2.88h-3.68c0,.54.03,2.96.03,3.46,0,1.12-.08,1.68-1.76,2.21-.09-.98-1.05-1.42-1.25-1.52v-.11c.35.03.87.08,1.35.08.43,0,.61,0,.64-.27.02-.14.02-1.18.02-3.84h-.88c-.38,0-1.11,0-1.79.14l-.29-.64c1.03.1,2.11.11,2.33.11h.62v-2.5c-.5,0-1.23,0-1.96.14l-.3-.64c1.03.1,2.13.11,2.34.11h1.38l.43-.62c.09-.13.14-.21.23-.21s.15.06.27.18l.71.62c.08.06.15.13.15.24,0,.16-.14.18-.24.18h-2.02v2.5h1.98l.43-.75c.05-.1.14-.21.23-.21.08,0,.17.08.27.18l.87.75c.06.06.15.13.15.24,0,.14-.14.18-.24.18Zm-.09,4.53c-.43,0-.53-.19-.94-1.02-.52-1.02-1.25-1.74-1.7-2.08l.08-.08c1.37.3,3.19,1.3,3.19,2.46,0,.53-.32.72-.62.72Z"/>
          <path class="cls-2" d="m274.21,54.7c-.24,0-.29-.06-1-1.28-.84-1.42-1.19-1.79-4.07-4.8-.15-.16-.55-.62-.55-1.14,0-.26.05-.53.56-1.1,1.54-1.71,3.85-4.26,3.85-4.88,0-.38-.33-.74-.73-1.15,1.34-.14,2.05,1.02,2.05,1.63,0,.32-.15.45-.61.83-.49.4-2.75,2.59-4.01,4.05-.26.29-.26.5-.26.59,0,.4.11.51,1.34,1.7,3.4,3.23,4.01,3.79,4.01,4.63,0,.37-.2.93-.58.93Z"/>
        </g>
      </g>
    </g>
  </g>
</svg>